<?xml version="1.0" encoding="UTF-8" standalone="no"?>
<!DOCTYPE svg PUBLIC "-//W3C//DTD SVG 1.1//EN"
 "http://www.w3.org/Graphics/SVG/1.1/DTD/svg11.dtd">
<!-- Generated by graphviz version 12.2.0 (20241103.1931)
 -->
<!-- Title: /github/workspace/test/addition/1x2_au_eigen_fail.cpp Pages: 1 -->
<svg width="408pt" height="105pt"
 viewBox="0.00 0.00 407.62 105.00" xmlns="http://www.w3.org/2000/svg" xmlns:xlink="http://www.w3.org/1999/xlink">
<g id="graph0" class="graph" transform="scale(1 1) rotate(0) translate(4 101)">
<title>/github/workspace/test/addition/1x2_au_eigen_fail.cpp</title>
<!-- Node1 -->
<g id="Node000001" class="node">
<title>Node1</title>
<g id="a_Node000001"><a xlink:title=" ">
<polygon fill="#999999" stroke="#666666" points="280,-97 165,-97 165,-55.25 280,-55.25 280,-97"/>
<text text-anchor="start" x="173" y="-83.5" font-family="Helvetica,sans-Serif" font-size="10.00">/github/workspace/test</text>
<text text-anchor="start" x="173" y="-72.25" font-family="Helvetica,sans-Serif" font-size="10.00">/addition/1x2_au_eigen</text>
<text text-anchor="middle" x="222.5" y="-61" font-family="Helvetica,sans-Serif" font-size="10.00">_fail.cpp</text>
</a>
</g>
</g>
<!-- Node2 -->
<g id="Node000002" class="node">
<title>Node2</title>
<g id="a_Node000002"><a xlink:title=" ">
<polygon fill="#e0e0e0" stroke="#999999" points="97,-19.25 0,-19.25 0,0 97,0 97,-19.25"/>
<text text-anchor="middle" x="48.5" y="-5.75" font-family="Helvetica,sans-Serif" font-size="10.00">fcarouge/linalg.hpp</text>
</a>
</g>
</g>
<!-- Node1&#45;&gt;Node2 -->
<g id="edge1_Node000001_Node000002" class="edge">
<title>Node1&#45;&gt;Node2</title>
<g id="a_edge1_Node000001_Node000002"><a xlink:title=" ">
<path fill="none" stroke="#63b8ff" d="M167.92,-54.89C140.27,-44.64 107.51,-32.5 83.3,-23.53"/>
<polygon fill="#63b8ff" stroke="#63b8ff" points="84.84,-20.36 74.25,-20.17 82.41,-26.93 84.84,-20.36"/>
</a>
</g>
</g>
<!-- Node3 -->
<g id="Node000003" class="node">
<title>Node3</title>
<g id="a_Node000003"><a xlink:title=" ">
<polygon fill="#e0e0e0" stroke="#999999" points="211.62,-19.25 115.38,-19.25 115.38,0 211.62,0 211.62,-19.25"/>
<text text-anchor="middle" x="163.5" y="-5.75" font-family="Helvetica,sans-Serif" font-size="10.00">au/units/meters.hh</text>
</a>
</g>
</g>
<!-- Node1&#45;&gt;Node3 -->
<g id="edge2_Node000001_Node000003" class="edge">
<title>Node1&#45;&gt;Node3</title>
<g id="a_edge2_Node000001_Node000003"><a xlink:title=" ">
<path fill="none" stroke="#63b8ff" d="M204.16,-55.07C196.21,-46.38 186.99,-36.3 179.34,-27.94"/>
<polygon fill="#63b8ff" stroke="#63b8ff" points="182.15,-25.83 172.82,-20.81 176.99,-30.55 182.15,-25.83"/>
</a>
</g>
</g>
<!-- Node4 -->
<g id="Node000004" class="node">
<title>Node4</title>
<g id="a_Node000004"><a xlink:title=" ">
<polygon fill="#e0e0e0" stroke="#999999" points="333,-19.25 230,-19.25 230,0 333,0 333,-19.25"/>
<text text-anchor="middle" x="281.5" y="-5.75" font-family="Helvetica,sans-Serif" font-size="10.00">au/units/seconds.hh</text>
</a>
</g>
</g>
<!-- Node1&#45;&gt;Node4 -->
<g id="edge3_Node000001_Node000004" class="edge">
<title>Node1&#45;&gt;Node4</title>
<g id="a_edge3_Node000001_Node000004"><a xlink:title=" ">
<path fill="none" stroke="#63b8ff" d="M240.84,-55.07C248.79,-46.38 258.01,-36.3 265.66,-27.94"/>
<polygon fill="#63b8ff" stroke="#63b8ff" points="268.01,-30.55 272.18,-20.81 262.85,-25.83 268.01,-30.55"/>
</a>
</g>
</g>
<!-- Node5 -->
<g id="Node000005" class="node">
<title>Node5</title>
<g id="a_Node000005"><a xlink:title=" ">
<polygon fill="#e0e0e0" stroke="#999999" points="399.62,-19.25 351.38,-19.25 351.38,0 399.62,0 399.62,-19.25"/>
<text text-anchor="middle" x="375.5" y="-5.75" font-family="Helvetica,sans-Serif" font-size="10.00">cassert</text>
</a>
</g>
</g>
<!-- Node1&#45;&gt;Node5 -->
<g id="edge4_Node000001_Node000005" class="edge">
<title>Node1&#45;&gt;Node5</title>
<g id="a_edge4_Node000001_Node000005"><a xlink:title=" ">
<path fill="none" stroke="#63b8ff" d="M270.49,-54.89C294.37,-44.83 322.58,-32.94 343.74,-24.01"/>
<polygon fill="#63b8ff" stroke="#63b8ff" points="344.86,-27.34 352.71,-20.23 342.14,-20.89 344.86,-27.34"/>
</a>
</g>
</g>
</g>
</svg>
