<?xml version="1.0" encoding="UTF-8" standalone="no"?>
<!DOCTYPE svg PUBLIC "-//W3C//DTD SVG 1.1//EN"
 "http://www.w3.org/Graphics/SVG/1.1/DTD/svg11.dtd">
<!-- Generated by graphviz version 12.2.0 (20241103.1931)
 -->
<!-- Title: /github/workspace/support/armadilloxed/fcarouge/linalg.hpp Pages: 1 -->
<!--zoomable 316 -->

<svg id="main" version="1.1" xmlns="http://www.w3.org/2000/svg" xmlns:xlink="http://www.w3.org/1999/xlink" xml:space="preserve" onload="init(evt)">

<style type="text/css"><![CDATA[
.node, .edge {opacity: 0.7;}
.node.selected, .edge.selected {opacity: 1;}
.edge:hover path { stroke: red; }
.edge:hover polygon { stroke: red; fill: red; }
]]></style>

<defs>
  <circle id="rim" cx="0" cy="0" r="7"/>
  <circle id="rim2" cx="0" cy="0" r="3.5"/>
  <g id="zoomPlus">
    <use xlink:href="#rim" fill="#404040"><set attributeName="fill" to="#808080" begin="zoomplus.mouseover" end="zoomplus.mouseout"/></use>
    <path d="M-4,0h8M0,-4v8" fill="none" stroke="white" stroke-width="1.5" pointer-events="none"/>
  </g>
  <g id="zoomMin">
    <use xlink:href="#rim" fill="#404040"><set attributeName="fill" to="#808080" begin="zoomminus.mouseover" end="zoomminus.mouseout"/></use>
    <path d="M-4,0h8" fill="none" stroke="white" stroke-width="1.5" pointer-events="none"/>
  </g>
  <g id="arrowUp" transform="translate(30 24)">
    <use xlink:href="#rim"/>
    <path pointer-events="none" fill="none" stroke="white" stroke-width="1.5" d="M0,-3.0v7 M-2.5,-0.5L0,-3.0L2.5,-0.5"/>
  </g>
  <g id="arrowRight" transform="rotate(90) translate(36 -43)">
    <use xlink:href="#rim"/>
    <path pointer-events="none" fill="none" stroke="white" stroke-width="1.5" d="M0,-3.0v7 M-2.5,-0.5L0,-3.0L2.5,-0.5"/>
  </g>
  <g id="arrowDown" transform="rotate(180) translate(-30 -48)">
    <use xlink:href="#rim"/>
    <path pointer-events="none" fill="none" stroke="white" stroke-width="1.5" d="M0,-3.0v7 M-2.5,-0.5L0,-3.0L2.5,-0.5"/>
  </g>
  <g id="arrowLeft" transform="rotate(270) translate(-36 17)">
    <use xlink:href="#rim"/>
    <path pointer-events="none" fill="none" stroke="white" stroke-width="1.5" d="M0,-3.0v7 M-2.5,-0.5L0,-3.0L2.5,-0.5"/>
  </g>
  <g id="resetDef">
    <use xlink:href="#rim2" fill="#404040"><set attributeName="fill" to="#808080" begin="reset.mouseover" end="reset.mouseout"/></use>
  </g>
</defs>
<script type="application/ecmascript">
var viewWidth = 3228;
var viewHeight = 316;
var sectionId = 'dynsection-0';
</script>
<script type="application/ecmascript" xlink:href="svg.min.js"/>
<svg id="graph" class="graph">
<g id="viewport">
<title>/github/workspace/support/armadilloxed/fcarouge/linalg.hpp</title>
<!-- Node1 -->
<g id="Node000001" class="node">
<title>Node1</title>
<g id="a_Node000001"><a xlink:title="Scalar type typed linear algebra with the Armadillo implementation.">
<polygon fill="#999999" stroke="#666666" points="327.5,-307.75 196.75,-307.75 196.75,-266 327.5,-266 327.5,-307.75"/>
<text text-anchor="start" x="204.75" y="-294.25" font-family="Helvetica,sans-Serif" font-size="10.00">/github/workspace/support</text>
<text text-anchor="start" x="204.75" y="-283" font-family="Helvetica,sans-Serif" font-size="10.00">/armadilloxed/fcarouge</text>
<text text-anchor="middle" x="262.12" y="-271.75" font-family="Helvetica,sans-Serif" font-size="10.00">/linalg.hpp</text>
</a>
</g>
</g>
<!-- Node2 -->
<g id="Node000002" class="node">
<title>Node2</title>
<g id="a_Node000002"><a xlink:href="armadillo_8hpp.xhtml" target="_top" xlink:title="Linear algebra facade for the Armadillo third party implementation.">
<polygon fill="white" stroke="#666666" points="318.88,-230 205.38,-230 205.38,-210.75 318.88,-210.75 318.88,-230"/>
<text text-anchor="middle" x="262.12" y="-216.5" font-family="Helvetica,sans-Serif" font-size="10.00">fcarouge/armadillo.hpp</text>
</a>
</g>
</g>
<!-- Node1&#45;&gt;Node2 -->
<g id="edge1_Node000001_Node000002" class="edge">
<title>Node1&#45;&gt;Node2</title>
<g id="a_edge1_Node000001_Node000002"><a xlink:title=" ">
<path fill="none" stroke="#63b8ff" d="M262.12,-265.82C262.12,-258.15 262.12,-249.39 262.12,-241.7"/>
<polygon fill="#63b8ff" stroke="#63b8ff" points="265.63,-241.96 262.13,-231.96 258.63,-241.96 265.63,-241.96"/>
</a>
</g>
</g>
<!-- Node3 -->
<g id="Node000003" class="node">
<title>Node3</title>
<g id="a_Node000003"><a xlink:href="typed__linear__algebra_8hpp.xhtml" target="_top" xlink:title="Typed linear algebra implementation.">
<polygon fill="white" stroke="#666666" points="1654.25,-174.75 1546,-174.75 1546,-144.25 1654.25,-144.25 1654.25,-174.75"/>
<text text-anchor="start" x="1554" y="-161.25" font-family="Helvetica,sans-Serif" font-size="10.00">fcarouge/typed_linear</text>
<text text-anchor="middle" x="1600.12" y="-150" font-family="Helvetica,sans-Serif" font-size="10.00">_algebra.hpp</text>
</a>
</g>
</g>
<!-- Node1&#45;&gt;Node3 -->
<g id="edge49_Node000001_Node000003" class="edge">
<title>Node1&#45;&gt;Node3</title>
<g id="a_edge49_Node000001_Node000003"><a xlink:title=" ">
<path fill="none" stroke="#63b8ff" d="M327.57,-279.74C554.6,-258.47 1306.87,-187.98 1534.38,-166.66"/>
<polygon fill="#63b8ff" stroke="#63b8ff" points="1534.63,-170.15 1544.26,-165.73 1533.98,-163.18 1534.63,-170.15"/>
</a>
</g>
</g>
<!-- Node8 -->
<g id="Node000008" class="node">
<title>Node8</title>
<g id="a_Node000008"><a xlink:title=" ">
<polygon fill="#e0e0e0" stroke="#999999" points="48.25,-24.88 0,-24.88 0,-5.63 48.25,-5.63 48.25,-24.88"/>
<text text-anchor="middle" x="24.12" y="-11.38" font-family="Helvetica,sans-Serif" font-size="10.00">cstddef</text>
</a>
</g>
</g>
<!-- Node1&#45;&gt;Node8 -->
<g id="edge50_Node000001_Node000008" class="edge">
<title>Node1&#45;&gt;Node8</title>
<g id="a_edge50_Node000001_Node000008"><a xlink:title=" ">
<path fill="none" stroke="#63b8ff" d="M208.01,-265.62C164.92,-247.27 105.37,-216.68 65.12,-174.75 42.14,-150.8 40.12,-140.2 31.12,-108.25 24.39,-84.32 23.25,-55.6 23.39,-36.68"/>
<polygon fill="#63b8ff" stroke="#63b8ff" points="26.89,-36.92 23.61,-26.85 19.89,-36.77 26.89,-36.92"/>
</a>
</g>
</g>
<!-- Node2&#45;&gt;Node3 -->
<g id="edge2_Node000002_Node000003" class="edge">
<title>Node2&#45;&gt;Node3</title>
<g id="a_edge2_Node000002_Node000003"><a xlink:title=" ">
<path fill="none" stroke="#63b8ff" d="M319.19,-216.86C535.51,-207.35 1304.39,-173.51 1534.56,-163.39"/>
<polygon fill="#63b8ff" stroke="#63b8ff" points="1534.4,-166.9 1544.24,-162.96 1534.09,-159.9 1534.4,-166.9"/>
</a>
</g>
</g>
<!-- Node6 -->
<g id="Node000006" class="node">
<title>Node6</title>
<g id="a_Node000006"><a xlink:title=" ">
<polygon fill="#e0e0e0" stroke="#999999" points="218.62,-24.88 181.62,-24.88 181.62,-5.63 218.62,-5.63 218.62,-24.88"/>
<text text-anchor="middle" x="200.12" y="-11.38" font-family="Helvetica,sans-Serif" font-size="10.00">array</text>
</a>
</g>
</g>
<!-- Node2&#45;&gt;Node6 -->
<g id="edge40_Node000002_Node000006" class="edge">
<title>Node2&#45;&gt;Node6</title>
<g id="a_edge40_Node000002_Node000006"><a xlink:title=" ">
<path fill="none" stroke="#63b8ff" d="M205.07,-210.5C181.08,-204.14 154.52,-193.28 136.12,-174.75 114.09,-152.55 118.31,-139.09 113.12,-108.25 110.05,-89.95 103.85,-82.57 113.12,-66.5 119.67,-55.15 148.49,-39.82 171.19,-29.09"/>
<polygon fill="#63b8ff" stroke="#63b8ff" points="172.42,-32.38 180.03,-25 169.48,-26.02 172.42,-32.38"/>
</a>
</g>
</g>
<!-- Node7 -->
<g id="Node000007" class="node">
<title>Node7</title>
<g id="a_Node000007"><a xlink:title=" ">
<polygon fill="#e0e0e0" stroke="#999999" points="298,-24.88 242.25,-24.88 242.25,-5.63 298,-5.63 298,-24.88"/>
<text text-anchor="middle" x="270.12" y="-11.38" font-family="Helvetica,sans-Serif" font-size="10.00">concepts</text>
</a>
</g>
</g>
<!-- Node2&#45;&gt;Node7 -->
<g id="edge42_Node000002_Node000007" class="edge">
<title>Node2&#45;&gt;Node7</title>
<g id="a_edge42_Node000002_Node000007"><a xlink:title=" ">
<path fill="none" stroke="#63b8ff" d="M318.89,-214.52C371.57,-208.69 444.44,-196.82 462.12,-174.75 470.6,-164.17 470.81,-154.66 462.12,-144.25 405.13,-75.89 322.12,-176.61 265.12,-108.25 248.43,-88.22 255.02,-56.4 262.02,-35.92"/>
<polygon fill="#63b8ff" stroke="#63b8ff" points="265.21,-37.36 265.47,-26.77 258.66,-34.89 265.21,-37.36"/>
</a>
</g>
</g>
<!-- Node2&#45;&gt;Node8 -->
<g id="edge43_Node000002_Node000008" class="edge">
<title>Node2&#45;&gt;Node8</title>
<g id="a_edge43_Node000002_Node000008"><a xlink:title=" ">
<path fill="none" stroke="#63b8ff" d="M204.96,-216.34C169.73,-211.74 125.63,-200.72 95.12,-174.75 51.97,-138 33.91,-69.76 27.36,-36.09"/>
<polygon fill="#63b8ff" stroke="#63b8ff" points="30.85,-35.73 25.65,-26.5 23.96,-36.96 30.85,-35.73"/>
</a>
</g>
</g>
<!-- Node10 -->
<g id="Node000010" class="node">
<title>Node10</title>
<g id="a_Node000010"><a xlink:title=" ">
<polygon fill="#e0e0e0" stroke="#999999" points="3120.62,-24.88 3083.62,-24.88 3083.62,-5.63 3120.62,-5.63 3120.62,-24.88"/>
<text text-anchor="middle" x="3102.12" y="-11.38" font-family="Helvetica,sans-Serif" font-size="10.00">tuple</text>
</a>
</g>
</g>
<!-- Node2&#45;&gt;Node10 -->
<g id="edge46_Node000002_Node000010" class="edge">
<title>Node2&#45;&gt;Node10</title>
<g id="a_edge46_Node000002_Node000010"><a xlink:title=" ">
<path fill="none" stroke="#63b8ff" d="M319.18,-217.78C509.68,-212.43 1141.19,-194.27 1663.12,-174.75 1835.16,-168.32 3092.03,-232.57 3211.12,-108.25 3223.96,-94.85 3221.13,-82.13 3211.12,-66.5 3193.78,-39.41 3157.73,-26.72 3131.83,-20.91"/>
<polygon fill="#63b8ff" stroke="#63b8ff" points="3132.72,-17.52 3122.23,-19 3131.35,-24.39 3132.72,-17.52"/>
</a>
</g>
</g>
<!-- Node11 -->
<g id="Node000011" class="node">
<title>Node11</title>
<g id="a_Node000011"><a xlink:title=" ">
<polygon fill="#e0e0e0" stroke="#999999" points="151.62,-24.88 90.62,-24.88 90.62,-5.63 151.62,-5.63 151.62,-24.88"/>
<text text-anchor="middle" x="121.12" y="-11.38" font-family="Helvetica,sans-Serif" font-size="10.00">type_traits</text>
</a>
</g>
</g>
<!-- Node2&#45;&gt;Node11 -->
<g id="edge47_Node000002_Node000011" class="edge">
<title>Node2&#45;&gt;Node11</title>
<g id="a_edge47_Node000002_Node000011"><a xlink:title=" ">
<path fill="none" stroke="#63b8ff" d="M204.99,-216.54C173.61,-211.88 136.61,-200.72 114.12,-174.75 80.24,-135.62 99.88,-68.53 112.72,-35.61"/>
<polygon fill="#63b8ff" stroke="#63b8ff" points="115.88,-37.13 116.45,-26.55 109.4,-34.46 115.88,-37.13"/>
</a>
</g>
</g>
<!-- Node13 -->
<g id="Node000013" class="node">
<title>Node13</title>
<g id="a_Node000013"><a xlink:title=" ">
<polygon fill="#e0e0e0" stroke="#999999" points="166,-97 122.25,-97 122.25,-77.75 166,-77.75 166,-97"/>
<text text-anchor="middle" x="144.12" y="-83.5" font-family="Helvetica,sans-Serif" font-size="10.00">format</text>
</a>
</g>
</g>
<!-- Node2&#45;&gt;Node13 -->
<g id="edge44_Node000002_Node000013" class="edge">
<title>Node2&#45;&gt;Node13</title>
<g id="a_edge44_Node000002_Node000013"><a xlink:title=" ">
<path fill="none" stroke="#63b8ff" d="M207.93,-210.25C186.87,-203.88 164.61,-193.06 151.12,-174.75 137.07,-155.66 137.66,-127.35 140.2,-108.4"/>
<polygon fill="#63b8ff" stroke="#63b8ff" points="143.62,-109.18 141.81,-98.74 136.71,-108.03 143.62,-109.18"/>
</a>
</g>
</g>
<!-- Node35 -->
<g id="Node000035" class="node">
<title>Node35</title>
<g id="a_Node000035"><a xlink:title=" ">
<polygon fill="#e0e0e0" stroke="#999999" points="216,-169.12 160.25,-169.12 160.25,-149.88 216,-149.88 216,-169.12"/>
<text text-anchor="middle" x="188.12" y="-155.62" font-family="Helvetica,sans-Serif" font-size="10.00">algorithm</text>
</a>
</g>
</g>
<!-- Node2&#45;&gt;Node35 -->
<g id="edge39_Node000002_Node000035" class="edge">
<title>Node2&#45;&gt;Node35</title>
<g id="a_edge39_Node000002_Node000035"><a xlink:title=" ">
<path fill="none" stroke="#63b8ff" d="M250.89,-210.43C239.59,-201.44 221.92,-187.39 208.21,-176.48"/>
<polygon fill="#63b8ff" stroke="#63b8ff" points="210.66,-173.96 200.65,-170.47 206.3,-179.43 210.66,-173.96"/>
</a>
</g>
</g>
<!-- Node36 -->
<g id="Node000036" class="node">
<title>Node36</title>
<g id="a_Node000036"><a xlink:title=" ">
<polygon fill="#e0e0e0" stroke="#999999" points="290,-169.12 234.25,-169.12 234.25,-149.88 290,-149.88 290,-169.12"/>
<text text-anchor="middle" x="262.12" y="-155.62" font-family="Helvetica,sans-Serif" font-size="10.00">charconv</text>
</a>
</g>
</g>
<!-- Node2&#45;&gt;Node36 -->
<g id="edge41_Node000002_Node000036" class="edge">
<title>Node2&#45;&gt;Node36</title>
<g id="a_edge41_Node000002_Node000036"><a xlink:title=" ">
<path fill="none" stroke="#63b8ff" d="M262.12,-210.43C262.12,-202.65 262.12,-191.08 262.12,-181.03"/>
<polygon fill="#63b8ff" stroke="#63b8ff" points="265.63,-181.04 262.13,-171.04 258.63,-181.04 265.63,-181.04"/>
</a>
</g>
</g>
<!-- Node37 -->
<g id="Node000037" class="node">
<title>Node37</title>
<g id="a_Node000037"><a xlink:title=" ">
<polygon fill="#e0e0e0" stroke="#999999" points="380.25,-169.12 308,-169.12 308,-149.88 380.25,-149.88 380.25,-169.12"/>
<text text-anchor="middle" x="344.12" y="-155.62" font-family="Helvetica,sans-Serif" font-size="10.00">system_error</text>
</a>
</g>
</g>
<!-- Node2&#45;&gt;Node37 -->
<g id="edge45_Node000002_Node000037" class="edge">
<title>Node2&#45;&gt;Node37</title>
<g id="a_edge45_Node000002_Node000037"><a xlink:title=" ">
<path fill="none" stroke="#63b8ff" d="M274.58,-210.43C287.22,-201.36 307.05,-187.12 322.31,-176.16"/>
<polygon fill="#63b8ff" stroke="#63b8ff" points="324.24,-179.08 330.32,-170.41 320.16,-173.4 324.24,-179.08"/>
</a>
</g>
</g>
<!-- Node38 -->
<g id="Node000038" class="node">
<title>Node38</title>
<g id="a_Node000038"><a xlink:title=" ">
<polygon fill="#e0e0e0" stroke="#999999" points="453.62,-169.12 398.62,-169.12 398.62,-149.88 453.62,-149.88 453.62,-169.12"/>
<text text-anchor="middle" x="426.12" y="-155.62" font-family="Helvetica,sans-Serif" font-size="10.00">armadillo</text>
</a>
</g>
</g>
<!-- Node2&#45;&gt;Node38 -->
<g id="edge48_Node000002_Node000038" class="edge">
<title>Node2&#45;&gt;Node38</title>
<g id="a_edge48_Node000002_Node000038"><a xlink:title=" ">
<path fill="none" stroke="#63b8ff" d="M288.48,-210.37C314.22,-201.52 354.47,-187.51 389.12,-174.75 390.26,-174.33 391.4,-173.91 392.56,-173.48"/>
<polygon fill="#63b8ff" stroke="#63b8ff" points="393.54,-176.85 401.66,-170.04 391.07,-170.3 393.54,-176.85"/>
</a>
</g>
</g>
<!-- Node4 -->
<g id="Node000004" class="node">
<title>Node4</title>
<g id="a_Node000004"><a xlink:href="utility_8hpp.xhtml" target="_top" xlink:title=" ">
<polygon fill="white" stroke="#666666" points="402.38,-102.62 297.88,-102.62 297.88,-72.12 402.38,-72.12 402.38,-102.62"/>
<text text-anchor="start" x="305.88" y="-89.12" font-family="Helvetica,sans-Serif" font-size="10.00">typed_linear_algebra</text>
<text text-anchor="middle" x="350.12" y="-77.88" font-family="Helvetica,sans-Serif" font-size="10.00">/internal/utility.hpp</text>
</a>
</g>
</g>
<!-- Node3&#45;&gt;Node4 -->
<g id="edge3_Node000003_Node000004" class="edge">
<title>Node3&#45;&gt;Node4</title>
<g id="a_edge3_Node000003_Node000004"><a xlink:title=" ">
<path fill="none" stroke="#63b8ff" d="M1545.76,-158.13C1343.43,-156.45 634.29,-147.82 412.12,-108.25 408.73,-107.65 405.26,-106.9 401.79,-106.06"/>
<polygon fill="#63b8ff" stroke="#63b8ff" points="402.78,-102.71 392.22,-103.49 400.97,-109.47 402.78,-102.71"/>
</a>
</g>
</g>
<!-- Node5 -->
<g id="Node000005" class="node">
<title>Node5</title>
<g id="a_Node000005"><a xlink:href="typed__linear__algebra__forward_8hpp.xhtml" target="_top" xlink:title="Authoritative forward declaration header.">
<polygon fill="white" stroke="#666666" points="1131.25,-30.5 1023,-30.5 1023,0 1131.25,0 1131.25,-30.5"/>
<text text-anchor="start" x="1031" y="-17" font-family="Helvetica,sans-Serif" font-size="10.00">fcarouge/typed_linear</text>
<text text-anchor="middle" x="1077.12" y="-5.75" font-family="Helvetica,sans-Serif" font-size="10.00">_algebra_forward.hpp</text>
</a>
</g>
</g>
<!-- Node3&#45;&gt;Node5 -->
<g id="edge12_Node000003_Node000005" class="edge">
<title>Node3&#45;&gt;Node5</title>
<g id="a_edge12_Node000003_Node000005"><a xlink:title=" ">
<path fill="none" stroke="#63b8ff" d="M1654.5,-158.64C1907.52,-159.05 2959.36,-157.75 3007.12,-108.25 3020.01,-94.9 3020.07,-79.79 3007.12,-66.5 2973.89,-32.38 1477.28,-19.23 1142.91,-16.71"/>
<polygon fill="#63b8ff" stroke="#63b8ff" points="1143.05,-13.22 1133.02,-16.64 1143,-20.22 1143.05,-13.22"/>
</a>
</g>
</g>
<!-- Node3&#45;&gt;Node7 -->
<g id="edge13_Node000003_Node000007" class="edge">
<title>Node3&#45;&gt;Node7</title>
<g id="a_edge13_Node000003_Node000007"><a xlink:title=" ">
<path fill="none" stroke="#63b8ff" d="M1545.67,-158.27C1303.95,-157.02 337.76,-149.45 289.12,-108.25 268.73,-90.97 266.66,-58.1 267.81,-36.69"/>
<polygon fill="#63b8ff" stroke="#63b8ff" points="271.29,-37.12 268.65,-26.86 264.31,-36.52 271.29,-37.12"/>
</a>
</g>
</g>
<!-- Node3&#45;&gt;Node8 -->
<g id="edge14_Node000003_Node000008" class="edge">
<title>Node3&#45;&gt;Node8</title>
<g id="a_edge14_Node000003_Node000008"><a xlink:title=" ">
<path fill="none" stroke="#63b8ff" d="M1545.56,-157.72C1310.54,-154.17 390.85,-138.48 265.12,-108.25 222.25,-97.94 216.11,-82.77 175.12,-66.5 136.01,-50.98 90,-36.14 59.13,-26.67"/>
<polygon fill="#63b8ff" stroke="#63b8ff" points="60.52,-23.43 49.94,-23.87 58.48,-30.13 60.52,-23.43"/>
</a>
</g>
</g>
<!-- Node3&#45;&gt;Node10 -->
<g id="edge17_Node000003_Node000010" class="edge">
<title>Node3&#45;&gt;Node10</title>
<g id="a_edge17_Node000003_Node000010"><a xlink:title=" ">
<path fill="none" stroke="#63b8ff" d="M1654.59,-158.04C1910.54,-155.68 2983.95,-143.72 3045.12,-108.25 3072.42,-92.43 3088.43,-57.78 3096.22,-35.81"/>
<polygon fill="#63b8ff" stroke="#63b8ff" points="3099.46,-37.14 3099.25,-26.55 3092.81,-34.97 3099.46,-37.14"/>
</a>
</g>
</g>
<!-- Node12 -->
<g id="Node000012" class="node">
<title>Node12</title>
<g id="a_Node000012"><a xlink:title=" ">
<polygon fill="#e0e0e0" stroke="#999999" points="2439.38,-24.88 2400.88,-24.88 2400.88,-5.63 2439.38,-5.63 2439.38,-24.88"/>
<text text-anchor="middle" x="2420.12" y="-11.38" font-family="Helvetica,sans-Serif" font-size="10.00">utility</text>
</a>
</g>
</g>
<!-- Node3&#45;&gt;Node12 -->
<g id="edge18_Node000003_Node000012" class="edge">
<title>Node3&#45;&gt;Node12</title>
<g id="a_edge18_Node000003_Node000012"><a xlink:title=" ">
<path fill="none" stroke="#63b8ff" d="M1654.38,-158.67C1909.3,-159.21 2977.65,-158.46 3026.12,-108.25 3039.01,-94.9 3038.69,-80.15 3026.12,-66.5 2986.89,-23.88 2569.49,-17.4 2451.2,-16.42"/>
<polygon fill="#63b8ff" stroke="#63b8ff" points="2451.34,-12.93 2441.31,-16.35 2451.29,-19.92 2451.34,-12.93"/>
</a>
</g>
</g>
<!-- Node3&#45;&gt;Node13 -->
<g id="edge15_Node000003_Node000013" class="edge">
<title>Node3&#45;&gt;Node13</title>
<g id="a_edge15_Node000003_Node000013"><a xlink:title=" ">
<path fill="none" stroke="#63b8ff" d="M1545.76,-158.07C1301.7,-155.94 313.34,-145.1 180.12,-108.25 175.61,-107 171.04,-105.09 166.75,-102.93"/>
<polygon fill="#63b8ff" stroke="#63b8ff" points="168.56,-99.93 158.14,-98.05 165.12,-106.03 168.56,-99.93"/>
</a>
</g>
</g>
<!-- Node14 -->
<g id="Node000014" class="node">
<title>Node14</title>
<g id="a_Node000014"><a xlink:title=" ">
<polygon fill="#e0e0e0" stroke="#999999" points="3201.88,-97 3130.38,-97 3130.38,-77.75 3201.88,-77.75 3201.88,-97"/>
<text text-anchor="middle" x="3166.12" y="-83.5" font-family="Helvetica,sans-Serif" font-size="10.00">initializer_list</text>
</a>
</g>
</g>
<!-- Node3&#45;&gt;Node14 -->
<g id="edge16_Node000003_Node000014" class="edge">
<title>Node3&#45;&gt;Node14</title>
<g id="a_edge16_Node000003_Node000014"><a xlink:title=" ">
<path fill="none" stroke="#63b8ff" d="M1654.63,-157.8C1908.75,-154.41 2971.04,-138.53 3116.12,-108.25 3123.33,-106.75 3130.83,-104.29 3137.76,-101.6"/>
<polygon fill="#63b8ff" stroke="#63b8ff" points="3138.8,-104.97 3146.68,-97.89 3136.1,-98.51 3138.8,-104.97"/>
</a>
</g>
</g>
<!-- Node15 -->
<g id="Node000015" class="node">
<title>Node15</title>
<g id="a_Node000015"><a xlink:title=" ">
<polygon fill="#e0e0e0" stroke="#999999" points="525.38,-102.62 420.88,-102.62 420.88,-72.12 525.38,-72.12 525.38,-102.62"/>
<text text-anchor="start" x="428.88" y="-89.12" font-family="Helvetica,sans-Serif" font-size="10.00">typed_linear_algebra</text>
<text text-anchor="middle" x="473.12" y="-77.88" font-family="Helvetica,sans-Serif" font-size="10.00">/algorithm/add.tpp</text>
</a>
</g>
</g>
<!-- Node3&#45;&gt;Node15 -->
<g id="edge19_Node000003_Node000015" class="edge">
<title>Node3&#45;&gt;Node15</title>
<g id="a_edge19_Node000003_Node000015"><a xlink:title=" ">
<path fill="none" stroke="#63b8ff" d="M1545.64,-157.82C1356.95,-155.17 732.19,-143.84 535.12,-108.25 531.73,-107.64 528.26,-106.89 524.79,-106.04"/>
<polygon fill="#63b8ff" stroke="#63b8ff" points="525.79,-102.69 515.22,-103.47 523.97,-109.45 525.79,-102.69"/>
</a>
</g>
</g>
<!-- Node16 -->
<g id="Node000016" class="node">
<title>Node16</title>
<g id="a_Node000016"><a xlink:title=" ">
<polygon fill="#e0e0e0" stroke="#999999" points="648.38,-102.62 543.88,-102.62 543.88,-72.12 648.38,-72.12 648.38,-102.62"/>
<text text-anchor="start" x="551.88" y="-89.12" font-family="Helvetica,sans-Serif" font-size="10.00">typed_linear_algebra</text>
<text text-anchor="middle" x="596.12" y="-77.88" font-family="Helvetica,sans-Serif" font-size="10.00">/algorithm/divide.tpp</text>
</a>
</g>
</g>
<!-- Node3&#45;&gt;Node16 -->
<g id="edge20_Node000003_Node000016" class="edge">
<title>Node3&#45;&gt;Node16</title>
<g id="a_edge20_Node000003_Node000016"><a xlink:title=" ">
<path fill="none" stroke="#63b8ff" d="M1545.69,-157.43C1371.67,-153.73 830.28,-139.89 658.12,-108.25 654.73,-107.63 651.27,-106.87 647.8,-106.02"/>
<polygon fill="#63b8ff" stroke="#63b8ff" points="648.79,-102.66 638.23,-103.43 646.97,-109.42 648.79,-102.66"/>
</a>
</g>
</g>
<!-- Node17 -->
<g id="Node000017" class="node">
<title>Node17</title>
<g id="a_Node000017"><a xlink:title=" ">
<polygon fill="#e0e0e0" stroke="#999999" points="771.38,-102.62 666.88,-102.62 666.88,-72.12 771.38,-72.12 771.38,-102.62"/>
<text text-anchor="start" x="674.88" y="-89.12" font-family="Helvetica,sans-Serif" font-size="10.00">typed_linear_algebra</text>
<text text-anchor="middle" x="719.12" y="-77.88" font-family="Helvetica,sans-Serif" font-size="10.00">/algorithm/dot.tpp</text>
</a>
</g>
</g>
<!-- Node3&#45;&gt;Node17 -->
<g id="edge21_Node000003_Node000017" class="edge">
<title>Node3&#45;&gt;Node17</title>
<g id="a_edge21_Node000003_Node000017"><a xlink:title=" ">
<path fill="none" stroke="#63b8ff" d="M1545.6,-156.96C1386.96,-152.2 927.59,-136.32 780.12,-108.25 776.95,-107.64 773.7,-106.92 770.45,-106.11"/>
<polygon fill="#63b8ff" stroke="#63b8ff" points="771.47,-102.76 760.9,-103.49 769.61,-109.51 771.47,-102.76"/>
</a>
</g>
</g>
<!-- Node18 -->
<g id="Node000018" class="node">
<title>Node18</title>
<g id="a_Node000018"><a xlink:title=" ">
<polygon fill="#e0e0e0" stroke="#999999" points="903.25,-102.62 789,-102.62 789,-72.12 903.25,-72.12 903.25,-102.62"/>
<text text-anchor="start" x="797" y="-89.12" font-family="Helvetica,sans-Serif" font-size="10.00">typed_linear_algebra</text>
<text text-anchor="middle" x="846.12" y="-77.88" font-family="Helvetica,sans-Serif" font-size="10.00">/algorithm/equal_to.tpp</text>
</a>
</g>
</g>
<!-- Node3&#45;&gt;Node18 -->
<g id="edge22_Node000003_Node000018" class="edge">
<title>Node3&#45;&gt;Node18</title>
<g id="a_edge22_Node000003_Node000018"><a xlink:title=" ">
<path fill="none" stroke="#63b8ff" d="M1545.65,-158.56C1428.63,-157.82 1145.01,-151.28 912.12,-108.25 908.54,-107.59 904.87,-106.8 901.18,-105.93"/>
<polygon fill="#63b8ff" stroke="#63b8ff" points="902.2,-102.57 891.64,-103.47 900.45,-109.35 902.2,-102.57"/>
</a>
</g>
</g>
<!-- Node19 -->
<g id="Node000019" class="node">
<title>Node19</title>
<g id="a_Node000019"><a xlink:title=" ">
<polygon fill="#e0e0e0" stroke="#999999" points="1043.38,-102.62 920.88,-102.62 920.88,-72.12 1043.38,-72.12 1043.38,-102.62"/>
<text text-anchor="start" x="928.88" y="-89.12" font-family="Helvetica,sans-Serif" font-size="10.00">typed_linear_algebra</text>
<text text-anchor="middle" x="982.12" y="-77.88" font-family="Helvetica,sans-Serif" font-size="10.00">/algorithm/magnitude.tpp</text>
</a>
</g>
</g>
<!-- Node3&#45;&gt;Node19 -->
<g id="edge23_Node000003_Node000019" class="edge">
<title>Node3&#45;&gt;Node19</title>
<g id="a_edge23_Node000003_Node000019"><a xlink:title=" ">
<path fill="none" stroke="#63b8ff" d="M1545.61,-156.84C1446.57,-153.09 1230.82,-141.51 1052.12,-108.25 1048.28,-107.53 1044.35,-106.7 1040.4,-105.79"/>
<polygon fill="#63b8ff" stroke="#63b8ff" points="1041.3,-102.41 1030.76,-103.41 1039.63,-109.21 1041.3,-102.41"/>
</a>
</g>
</g>
<!-- Node20 -->
<g id="Node000020" class="node">
<title>Node20</title>
<g id="a_Node000020"><a xlink:title=" ">
<polygon fill="#e0e0e0" stroke="#999999" points="1171,-108.25 1061.25,-108.25 1061.25,-66.5 1171,-66.5 1171,-108.25"/>
<text text-anchor="start" x="1069.25" y="-94.75" font-family="Helvetica,sans-Serif" font-size="10.00">typed_linear_algebra</text>
<text text-anchor="start" x="1069.25" y="-83.5" font-family="Helvetica,sans-Serif" font-size="10.00">/algorithm/matrix_frob</text>
<text text-anchor="middle" x="1116.12" y="-72.25" font-family="Helvetica,sans-Serif" font-size="10.00">_norm.tpp</text>
</a>
</g>
</g>
<!-- Node3&#45;&gt;Node20 -->
<g id="edge24_Node000003_Node000020" class="edge">
<title>Node3&#45;&gt;Node20</title>
<g id="a_edge24_Node000003_Node000020"><a xlink:title=" ">
<path fill="none" stroke="#63b8ff" d="M1545.57,-155.16C1467.08,-149.65 1317.73,-136.57 1182.42,-108.55"/>
<polygon fill="#63b8ff" stroke="#63b8ff" points="1183.45,-105.19 1172.95,-106.55 1182.01,-112.04 1183.45,-105.19"/>
</a>
</g>
</g>
<!-- Node21 -->
<g id="Node000021" class="node">
<title>Node21</title>
<g id="a_Node000021"><a xlink:title=" ">
<polygon fill="#e0e0e0" stroke="#999999" points="1297.62,-108.25 1188.62,-108.25 1188.62,-66.5 1297.62,-66.5 1297.62,-108.25"/>
<text text-anchor="start" x="1196.62" y="-94.75" font-family="Helvetica,sans-Serif" font-size="10.00">typed_linear_algebra</text>
<text text-anchor="start" x="1196.62" y="-83.5" font-family="Helvetica,sans-Serif" font-size="10.00">/algorithm/matrix_one</text>
<text text-anchor="middle" x="1243.12" y="-72.25" font-family="Helvetica,sans-Serif" font-size="10.00">_norm.tpp</text>
</a>
</g>
</g>
<!-- Node3&#45;&gt;Node21 -->
<g id="edge25_Node000003_Node000021" class="edge">
<title>Node3&#45;&gt;Node21</title>
<g id="a_edge25_Node000003_Node000021"><a xlink:title=" ">
<path fill="none" stroke="#63b8ff" d="M1545.76,-151.47C1488.78,-143.6 1396.55,-129.45 1308.91,-108.78"/>
<polygon fill="#63b8ff" stroke="#63b8ff" points="1309.99,-105.44 1299.45,-106.52 1308.36,-112.25 1309.99,-105.44"/>
</a>
</g>
</g>
<!-- Node22 -->
<g id="Node000022" class="node">
<title>Node22</title>
<g id="a_Node000022"><a xlink:title=" ">
<polygon fill="#e0e0e0" stroke="#999999" points="1456.75,-102.62 1315.5,-102.62 1315.5,-72.12 1456.75,-72.12 1456.75,-102.62"/>
<text text-anchor="start" x="1323.5" y="-89.12" font-family="Helvetica,sans-Serif" font-size="10.00">typed_linear_algebra</text>
<text text-anchor="middle" x="1386.12" y="-77.88" font-family="Helvetica,sans-Serif" font-size="10.00">/algorithm/matrix_product.tpp</text>
</a>
</g>
</g>
<!-- Node3&#45;&gt;Node22 -->
<g id="edge26_Node000003_Node000022" class="edge">
<title>Node3&#45;&gt;Node22</title>
<g id="a_edge26_Node000003_Node000022"><a xlink:title=" ">
<path fill="none" stroke="#63b8ff" d="M1555.26,-143.8C1522.16,-132.95 1476.92,-118.13 1441.56,-106.54"/>
<polygon fill="#63b8ff" stroke="#63b8ff" points="1442.96,-103.32 1432.37,-103.53 1440.78,-109.97 1442.96,-103.32"/>
</a>
</g>
</g>
<!-- Node23 -->
<g id="Node000023" class="node">
<title>Node23</title>
<g id="a_Node000023"><a xlink:title=" ">
<polygon fill="#e0e0e0" stroke="#999999" points="1595.25,-108.25 1475,-108.25 1475,-66.5 1595.25,-66.5 1595.25,-108.25"/>
<text text-anchor="start" x="1483" y="-94.75" font-family="Helvetica,sans-Serif" font-size="10.00">typed_linear_algebra</text>
<text text-anchor="start" x="1483" y="-83.5" font-family="Helvetica,sans-Serif" font-size="10.00">/algorithm/matrix_vector</text>
<text text-anchor="middle" x="1535.12" y="-72.25" font-family="Helvetica,sans-Serif" font-size="10.00">_product.tpp</text>
</a>
</g>
</g>
<!-- Node3&#45;&gt;Node23 -->
<g id="edge27_Node000003_Node000023" class="edge">
<title>Node3&#45;&gt;Node23</title>
<g id="a_edge27_Node000003_Node000023"><a xlink:title=" ">
<path fill="none" stroke="#63b8ff" d="M1586.66,-143.97C1579.43,-136.17 1570.25,-126.27 1561.66,-117"/>
<polygon fill="#63b8ff" stroke="#63b8ff" points="1564.39,-114.8 1555.03,-109.85 1559.26,-119.56 1564.39,-114.8"/>
</a>
</g>
</g>
<!-- Node24 -->
<g id="Node000024" class="node">
<title>Node24</title>
<g id="a_Node000024"><a xlink:title=" ">
<polygon fill="#e0e0e0" stroke="#999999" points="1717.38,-102.62 1612.88,-102.62 1612.88,-72.12 1717.38,-72.12 1717.38,-102.62"/>
<text text-anchor="start" x="1620.88" y="-89.12" font-family="Helvetica,sans-Serif" font-size="10.00">typed_linear_algebra</text>
<text text-anchor="middle" x="1665.12" y="-77.88" font-family="Helvetica,sans-Serif" font-size="10.00">/algorithm/minus.tpp</text>
</a>
</g>
</g>
<!-- Node3&#45;&gt;Node24 -->
<g id="edge28_Node000003_Node000024" class="edge">
<title>Node3&#45;&gt;Node24</title>
<g id="a_edge28_Node000003_Node000024"><a xlink:title=" ">
<path fill="none" stroke="#63b8ff" d="M1613.59,-143.97C1622.4,-134.47 1634.07,-121.87 1644.09,-111.07"/>
<polygon fill="#63b8ff" stroke="#63b8ff" points="1646.41,-113.71 1650.65,-104 1641.28,-108.95 1646.41,-113.71"/>
</a>
</g>
</g>
<!-- Node25 -->
<g id="Node000025" class="node">
<title>Node25</title>
<g id="a_Node000025"><a xlink:title=" ">
<polygon fill="#e0e0e0" stroke="#999999" points="1845,-102.62 1735.25,-102.62 1735.25,-72.12 1845,-72.12 1845,-102.62"/>
<text text-anchor="start" x="1743.25" y="-89.12" font-family="Helvetica,sans-Serif" font-size="10.00">typed_linear_algebra</text>
<text text-anchor="middle" x="1790.12" y="-77.88" font-family="Helvetica,sans-Serif" font-size="10.00">/algorithm/product.tpp</text>
</a>
</g>
</g>
<!-- Node3&#45;&gt;Node25 -->
<g id="edge29_Node000003_Node000025" class="edge">
<title>Node3&#45;&gt;Node25</title>
<g id="a_edge29_Node000003_Node000025"><a xlink:title=" ">
<path fill="none" stroke="#63b8ff" d="M1639.96,-143.8C1668.96,-133.09 1708.47,-118.51 1739.68,-106.99"/>
<polygon fill="#63b8ff" stroke="#63b8ff" points="1740.76,-110.33 1748.93,-103.58 1738.33,-103.76 1740.76,-110.33"/>
</a>
</g>
</g>
<!-- Node26 -->
<g id="Node000026" class="node">
<title>Node26</title>
<g id="a_Node000026"><a xlink:title=" ">
<polygon fill="#e0e0e0" stroke="#999999" points="1967.38,-102.62 1862.88,-102.62 1862.88,-72.12 1967.38,-72.12 1967.38,-102.62"/>
<text text-anchor="start" x="1870.88" y="-89.12" font-family="Helvetica,sans-Serif" font-size="10.00">typed_linear_algebra</text>
<text text-anchor="middle" x="1915.12" y="-77.88" font-family="Helvetica,sans-Serif" font-size="10.00">/algorithm/scale.tpp</text>
</a>
</g>
</g>
<!-- Node3&#45;&gt;Node26 -->
<g id="edge30_Node000003_Node000026" class="edge">
<title>Node3&#45;&gt;Node26</title>
<g id="a_edge30_Node000003_Node000026"><a xlink:title=" ">
<path fill="none" stroke="#63b8ff" d="M1654.56,-149.67C1706.28,-140.83 1786.05,-126.01 1854.12,-108.25 1856.53,-107.62 1858.99,-106.95 1861.46,-106.25"/>
<polygon fill="#63b8ff" stroke="#63b8ff" points="1862.28,-109.66 1870.87,-103.46 1860.29,-102.95 1862.28,-109.66"/>
</a>
</g>
</g>
<!-- Node27 -->
<g id="Node000027" class="node">
<title>Node27</title>
<g id="a_Node000027"><a xlink:title=" ">
<polygon fill="#e0e0e0" stroke="#999999" points="2098.5,-102.62 1985.75,-102.62 1985.75,-72.12 2098.5,-72.12 2098.5,-102.62"/>
<text text-anchor="start" x="1993.75" y="-89.12" font-family="Helvetica,sans-Serif" font-size="10.00">typed_linear_algebra</text>
<text text-anchor="middle" x="2042.12" y="-77.88" font-family="Helvetica,sans-Serif" font-size="10.00">/algorithm/subtract.tpp</text>
</a>
</g>
</g>
<!-- Node3&#45;&gt;Node27 -->
<g id="edge31_Node000003_Node000027" class="edge">
<title>Node3&#45;&gt;Node27</title>
<g id="a_edge31_Node000003_Node000027"><a xlink:title=" ">
<path fill="none" stroke="#63b8ff" d="M1654.45,-153.98C1727.98,-147.25 1862.99,-132.68 1976.12,-108.25 1979.25,-107.58 1982.44,-106.82 1985.65,-106.02"/>
<polygon fill="#63b8ff" stroke="#63b8ff" points="1986.34,-109.46 1995.11,-103.51 1984.54,-102.69 1986.34,-109.46"/>
</a>
</g>
</g>
<!-- Node28 -->
<g id="Node000028" class="node">
<title>Node28</title>
<g id="a_Node000028"><a xlink:title=" ">
<polygon fill="#e0e0e0" stroke="#999999" points="2241.88,-102.62 2116.38,-102.62 2116.38,-72.12 2241.88,-72.12 2241.88,-102.62"/>
<text text-anchor="start" x="2124.38" y="-89.12" font-family="Helvetica,sans-Serif" font-size="10.00">typed_linear_algebra</text>
<text text-anchor="middle" x="2179.12" y="-77.88" font-family="Helvetica,sans-Serif" font-size="10.00">/algorithm/transposed.tpp</text>
</a>
</g>
</g>
<!-- Node3&#45;&gt;Node28 -->
<g id="edge32_Node000003_Node000028" class="edge">
<title>Node3&#45;&gt;Node28</title>
<g id="a_edge32_Node000003_Node000028"><a xlink:title=" ">
<path fill="none" stroke="#63b8ff" d="M1654.58,-156.15C1747.89,-151.45 1944.08,-138.6 2107.12,-108.25 2111.12,-107.51 2115.22,-106.65 2119.33,-105.71"/>
<polygon fill="#63b8ff" stroke="#63b8ff" points="2119.83,-109.19 2128.73,-103.44 2118.18,-102.39 2119.83,-109.19"/>
</a>
</g>
</g>
<!-- Node29 -->
<g id="Node000029" class="node">
<title>Node29</title>
<g id="a_Node000029"><a xlink:title=" ">
<polygon fill="#e0e0e0" stroke="#999999" points="2364.38,-102.62 2259.88,-102.62 2259.88,-72.12 2364.38,-72.12 2364.38,-102.62"/>
<text text-anchor="start" x="2267.88" y="-89.12" font-family="Helvetica,sans-Serif" font-size="10.00">typed_linear_algebra</text>
<text text-anchor="middle" x="2312.12" y="-77.88" font-family="Helvetica,sans-Serif" font-size="10.00">/cast.tpp</text>
</a>
</g>
</g>
<!-- Node3&#45;&gt;Node29 -->
<g id="edge33_Node000003_Node000029" class="edge">
<title>Node3&#45;&gt;Node29</title>
<g id="a_edge33_Node000003_Node000029"><a xlink:title=" ">
<path fill="none" stroke="#63b8ff" d="M1654.73,-158.64C1767.37,-157.99 2033.2,-151.52 2251.12,-108.25 2254.25,-107.63 2257.44,-106.9 2260.63,-106.09"/>
<polygon fill="#63b8ff" stroke="#63b8ff" points="2261.3,-109.54 2270.01,-103.5 2259.43,-102.79 2261.3,-109.54"/>
</a>
</g>
</g>
<!-- Node30 -->
<g id="Node000030" class="node">
<title>Node30</title>
<g id="a_Node000030"><a xlink:title=" ">
<polygon fill="#e0e0e0" stroke="#999999" points="2487.38,-102.62 2382.88,-102.62 2382.88,-72.12 2487.38,-72.12 2487.38,-102.62"/>
<text text-anchor="start" x="2390.88" y="-89.12" font-family="Helvetica,sans-Serif" font-size="10.00">typed_linear_algebra</text>
<text text-anchor="middle" x="2435.12" y="-77.88" font-family="Helvetica,sans-Serif" font-size="10.00">/chrono.tpp</text>
</a>
</g>
</g>
<!-- Node3&#45;&gt;Node30 -->
<g id="edge34_Node000003_Node000030" class="edge">
<title>Node3&#45;&gt;Node30</title>
<g id="a_edge34_Node000003_Node000030"><a xlink:title=" ">
<path fill="none" stroke="#63b8ff" d="M1654.49,-156.7C1806.7,-151.39 2234.97,-134.47 2373.12,-108.25 2376.46,-107.62 2379.87,-106.86 2383.28,-106.01"/>
<polygon fill="#63b8ff" stroke="#63b8ff" points="2383.94,-109.46 2392.67,-103.46 2382.11,-102.71 2383.94,-109.46"/>
</a>
</g>
</g>
<!-- Node31 -->
<g id="Node000031" class="node">
<title>Node31</title>
<g id="a_Node000031"><a xlink:title=" ">
<polygon fill="#e0e0e0" stroke="#999999" points="2610.38,-102.62 2505.88,-102.62 2505.88,-72.12 2610.38,-72.12 2610.38,-102.62"/>
<text text-anchor="start" x="2513.88" y="-89.12" font-family="Helvetica,sans-Serif" font-size="10.00">typed_linear_algebra</text>
<text text-anchor="middle" x="2558.12" y="-77.88" font-family="Helvetica,sans-Serif" font-size="10.00">/common_type.tpp</text>
</a>
</g>
</g>
<!-- Node3&#45;&gt;Node31 -->
<g id="edge35_Node000003_Node000031" class="edge">
<title>Node3&#45;&gt;Node31</title>
<g id="a_edge35_Node000003_Node000031"><a xlink:title=" ">
<path fill="none" stroke="#63b8ff" d="M1654.55,-157.26C1822.84,-153.14 2333.26,-138.41 2496.12,-108.25 2499.46,-107.63 2502.87,-106.89 2506.29,-106.05"/>
<polygon fill="#63b8ff" stroke="#63b8ff" points="2506.94,-109.5 2515.68,-103.51 2505.12,-102.74 2506.94,-109.5"/>
</a>
</g>
</g>
<!-- Node32 -->
<g id="Node000032" class="node">
<title>Node32</title>
<g id="a_Node000032"><a xlink:title=" ">
<polygon fill="#e0e0e0" stroke="#999999" points="2733.38,-102.62 2628.88,-102.62 2628.88,-72.12 2733.38,-72.12 2733.38,-102.62"/>
<text text-anchor="start" x="2636.88" y="-89.12" font-family="Helvetica,sans-Serif" font-size="10.00">typed_linear_algebra</text>
<text text-anchor="middle" x="2681.12" y="-77.88" font-family="Helvetica,sans-Serif" font-size="10.00">/format.tpp</text>
</a>
</g>
</g>
<!-- Node3&#45;&gt;Node32 -->
<g id="edge36_Node000003_Node000032" class="edge">
<title>Node3&#45;&gt;Node32</title>
<g id="a_edge36_Node000003_Node000032"><a xlink:title=" ">
<path fill="none" stroke="#63b8ff" d="M1654.47,-157.69C1837.63,-154.65 2431.35,-142.37 2619.12,-108.25 2622.52,-107.63 2625.98,-106.88 2629.46,-106.03"/>
<polygon fill="#63b8ff" stroke="#63b8ff" points="2630.28,-109.44 2639.03,-103.45 2628.46,-102.68 2630.28,-109.44"/>
</a>
</g>
</g>
<!-- Node33 -->
<g id="Node000033" class="node">
<title>Node33</title>
<g id="a_Node000033"><a xlink:title=" ">
<polygon fill="#e0e0e0" stroke="#999999" points="2856.38,-102.62 2751.88,-102.62 2751.88,-72.12 2856.38,-72.12 2856.38,-102.62"/>
<text text-anchor="start" x="2759.88" y="-89.12" font-family="Helvetica,sans-Serif" font-size="10.00">typed_linear_algebra</text>
<text text-anchor="middle" x="2804.12" y="-77.88" font-family="Helvetica,sans-Serif" font-size="10.00">/tuple.tpp</text>
</a>
</g>
</g>
<!-- Node3&#45;&gt;Node33 -->
<g id="edge37_Node000003_Node000033" class="edge">
<title>Node3&#45;&gt;Node33</title>
<g id="a_edge37_Node000003_Node000033"><a xlink:title=" ">
<path fill="none" stroke="#63b8ff" d="M1654.75,-158.02C1852.33,-155.98 2529.44,-146.31 2742.12,-108.25 2745.52,-107.64 2748.99,-106.9 2752.46,-106.06"/>
<polygon fill="#63b8ff" stroke="#63b8ff" points="2753.28,-109.46 2762.03,-103.48 2751.47,-102.7 2753.28,-109.46"/>
</a>
</g>
</g>
<!-- Node34 -->
<g id="Node000034" class="node">
<title>Node34</title>
<g id="a_Node000034"><a xlink:title=" ">
<polygon fill="#e0e0e0" stroke="#999999" points="2997.75,-102.62 2874.5,-102.62 2874.5,-72.12 2997.75,-72.12 2997.75,-102.62"/>
<text text-anchor="start" x="2882.5" y="-89.12" font-family="Helvetica,sans-Serif" font-size="10.00">typed_linear_algebra</text>
<text text-anchor="middle" x="2936.12" y="-77.88" font-family="Helvetica,sans-Serif" font-size="10.00">/typed_linear_algebra.tpp</text>
</a>
</g>
</g>
<!-- Node3&#45;&gt;Node34 -->
<g id="edge38_Node000003_Node000034" class="edge">
<title>Node3&#45;&gt;Node34</title>
<g id="a_edge38_Node000003_Node000034"><a xlink:title=" ">
<path fill="none" stroke="#63b8ff" d="M1654.69,-158.02C1865.45,-155.92 2626.57,-145.85 2865.12,-108.25 2869.48,-107.56 2873.95,-106.7 2878.42,-105.72"/>
<polygon fill="#63b8ff" stroke="#63b8ff" points="2879.1,-109.16 2888.02,-103.44 2877.48,-102.35 2879.1,-109.16"/>
</a>
</g>
</g>
<!-- Node4&#45;&gt;Node5 -->
<g id="edge4_Node000004_Node000005" class="edge">
<title>Node4&#45;&gt;Node5</title>
<g id="a_edge4_Node000004_Node000005"><a xlink:title=" ">
<path fill="none" stroke="#63b8ff" d="M391.46,-71.65C398.3,-69.64 405.36,-67.82 412.12,-66.5 628.71,-24.21 891.42,-17.04 1011.51,-16.13"/>
<polygon fill="#63b8ff" stroke="#63b8ff" points="1011.19,-19.64 1021.16,-16.07 1011.14,-12.64 1011.19,-19.64"/>
</a>
</g>
</g>
<!-- Node4&#45;&gt;Node6 -->
<g id="edge5_Node000004_Node000006" class="edge">
<title>Node4&#45;&gt;Node6</title>
<g id="a_edge5_Node000004_Node000006"><a xlink:title=" ">
<path fill="none" stroke="#63b8ff" d="M318.68,-71.67C292.22,-59.3 254.69,-41.76 228.99,-29.74"/>
<polygon fill="#63b8ff" stroke="#63b8ff" points="230.68,-26.67 220.13,-25.6 227.71,-33.01 230.68,-26.67"/>
</a>
</g>
</g>
<!-- Node4&#45;&gt;Node7 -->
<g id="edge6_Node000004_Node000007" class="edge">
<title>Node4&#45;&gt;Node7</title>
<g id="a_edge6_Node000004_Node000007"><a xlink:title=" ">
<path fill="none" stroke="#63b8ff" d="M333.55,-71.85C320.46,-60.37 302.2,-44.37 288.64,-32.48"/>
<polygon fill="#63b8ff" stroke="#63b8ff" points="291.08,-29.96 281.25,-26 286.47,-35.23 291.08,-29.96"/>
</a>
</g>
</g>
<!-- Node4&#45;&gt;Node8 -->
<g id="edge7_Node000004_Node000008" class="edge">
<title>Node4&#45;&gt;Node8</title>
<g id="a_edge7_Node000004_Node000008"><a xlink:title=" ">
<path fill="none" stroke="#63b8ff" d="M297.41,-76.08C243.08,-65.31 155.99,-47.63 81.12,-30.5 74.16,-28.91 66.74,-27.12 59.64,-25.36"/>
<polygon fill="#63b8ff" stroke="#63b8ff" points="60.5,-21.97 49.95,-22.94 58.8,-28.76 60.5,-21.97"/>
</a>
</g>
</g>
<!-- Node9 -->
<g id="Node000009" class="node">
<title>Node9</title>
<g id="a_Node000009"><a xlink:title=" ">
<polygon fill="#e0e0e0" stroke="#999999" points="379.12,-24.88 321.12,-24.88 321.12,-5.63 379.12,-5.63 379.12,-24.88"/>
<text text-anchor="middle" x="350.12" y="-11.38" font-family="Helvetica,sans-Serif" font-size="10.00">functional</text>
</a>
</g>
</g>
<!-- Node4&#45;&gt;Node9 -->
<g id="edge8_Node000004_Node000009" class="edge">
<title>Node4&#45;&gt;Node9</title>
<g id="a_edge8_Node000004_Node000009"><a xlink:title=" ">
<path fill="none" stroke="#63b8ff" d="M350.12,-71.85C350.12,-61.59 350.12,-47.7 350.12,-36.38"/>
<polygon fill="#63b8ff" stroke="#63b8ff" points="353.63,-36.52 350.13,-26.52 346.63,-36.52 353.63,-36.52"/>
</a>
</g>
</g>
<!-- Node4&#45;&gt;Node10 -->
<g id="edge9_Node000004_Node000010" class="edge">
<title>Node4&#45;&gt;Node10</title>
<g id="a_edge9_Node000004_Node000010"><a xlink:title=" ">
<path fill="none" stroke="#63b8ff" d="M390.06,-71.7C397.31,-69.57 404.88,-67.7 412.12,-66.5 635.35,-29.57 2221.91,-34.96 2448.12,-30.5 2688.55,-25.76 2978.68,-19.11 3071.8,-16.95"/>
<polygon fill="#63b8ff" stroke="#63b8ff" points="3071.7,-20.46 3081.62,-16.73 3071.54,-13.46 3071.7,-20.46"/>
</a>
</g>
</g>
<!-- Node4&#45;&gt;Node11 -->
<g id="edge10_Node000004_Node000011" class="edge">
<title>Node4&#45;&gt;Node11</title>
<g id="a_edge10_Node000004_Node000011"><a xlink:title=" ">
<path fill="none" stroke="#63b8ff" d="M302.12,-71.67C260.58,-58.95 201.17,-40.76 161.9,-28.73"/>
<polygon fill="#63b8ff" stroke="#63b8ff" points="162.92,-25.39 152.34,-25.81 160.87,-32.08 162.92,-25.39"/>
</a>
</g>
</g>
<!-- Node4&#45;&gt;Node12 -->
<g id="edge11_Node000004_Node000012" class="edge">
<title>Node4&#45;&gt;Node12</title>
<g id="a_edge11_Node000004_Node000012"><a xlink:title=" ">
<path fill="none" stroke="#63b8ff" d="M390.4,-71.64C397.55,-69.55 404.99,-67.71 412.12,-66.5 615.11,-32.15 2152.2,-18.41 2389.42,-16.49"/>
<polygon fill="#63b8ff" stroke="#63b8ff" points="2389.12,-19.99 2399.09,-16.41 2389.06,-12.99 2389.12,-19.99"/>
</a>
</g>
</g>
</g>
</svg>

<g id="navigator" transform="translate(0 0)" fill="#404254">
  <rect fill="#f2f5e9" fill-opacity="0.5" stroke="#606060" stroke-width=".5" x="0" y="0" width="60" height="60"/>
  <use id="zoomplus" xlink:href="#zoomPlus" x="17" y="9" onmousedown="handleZoom(evt,'in')"/>
  <use id="zoomminus" xlink:href="#zoomMin" x="42" y="9" onmousedown="handleZoom(evt,'out')"/>
  <use id="reset" xlink:href="#resetDef" x="30" y="36" onmousedown="handleReset()"/>
   <use id="arrowup" xlink:href="#arrowUp" x="0" y="0" onmousedown="handlePan(0,-1)"/>
  <use id="arrowright" xlink:href="#arrowRight" x="0" y="0" onmousedown="handlePan(1,0)"/>
  <use id="arrowdown" xlink:href="#arrowDown" x="0" y="0" onmousedown="handlePan(0,1)"/>
  <use id="arrowleft" xlink:href="#arrowLeft" x="0" y="0" onmousedown="handlePan(-1,0)"/>
</g>
<svg viewBox="0 0 15 15" width="100%" height="30px" preserveAspectRatio="xMaxYMin meet">
 <g id="arrow_out" transform="scale(0.3 0.3)">
  <a xlink:href="armadilloxed_2fcarouge_2linalg_8hpp__incl_org.svg" target="_base">
   <rect id="button" ry="5" rx="5" y="6" x="6" height="38" width="38"
        fill="#f2f5e9" fill-opacity="0.5" stroke="#606060" stroke-width="1.0"/>
   <path id="arrow"
     d="M 11.500037,31.436501 C 11.940474,20.09759 22.043105,11.32322 32.158766,21.979434 L 37.068811,17.246167 C 37.068811,17.246167 37.088388,32 37.088388,32 L 22.160133,31.978069 C 22.160133,31.978069 26.997745,27.140456 26.997745,27.140456 C 18.528582,18.264221 13.291696,25.230495 11.500037,31.436501 z"
     style="fill:#404040;"/>
  </a>
 </g>
</svg>

<style type='text/css'>
<![CDATA[
[data-mouse-over-selected='false'] { opacity: 0.7; }
[data-mouse-over-selected='true']  { opacity: 1.0; }
]]>
</style>
<script type="application/ecmascript"><![CDATA[
document.addEventListener('DOMContentLoaded', (event) => {
  highlightEdges();
  highlightAdjacentNodes();
});
]]></script>
</svg>
