<?xml version="1.0" encoding="UTF-8" standalone="no"?>
<!DOCTYPE svg PUBLIC "-//W3C//DTD SVG 1.1//EN"
 "http://www.w3.org/Graphics/SVG/1.1/DTD/svg11.dtd">
<!-- Generated by graphviz version 12.2.0 (20241103.1931)
 -->
<!-- Title: /github/workspace/support/chrono_std/fcarouge/linalg.hpp Pages: 1 -->
<svg width="3183pt" height="249pt"
 viewBox="0.00 0.00 3182.75 249.25" xmlns="http://www.w3.org/2000/svg" xmlns:xlink="http://www.w3.org/1999/xlink">
<g id="graph0" class="graph" transform="scale(1 1) rotate(0) translate(4 245.25)">
<title>/github/workspace/support/chrono_std/fcarouge/linalg.hpp</title>
<!-- Node1 -->
<g id="Node000001" class="node">
<title>Node1</title>
<g id="a_Node000001"><a xlink:title="Indexed&#45;based linear algebra with std::chrono with std::linalg implementations.">
<polygon fill="#999999" stroke="#666666" points="1313.62,-241.25 1162.62,-241.25 1162.62,-210.75 1313.62,-210.75 1313.62,-241.25"/>
<text text-anchor="start" x="1170.62" y="-227.75" font-family="Helvetica,sans-Serif" font-size="10.00">/github/workspace/support</text>
<text text-anchor="middle" x="1238.12" y="-216.5" font-family="Helvetica,sans-Serif" font-size="10.00">/chrono_std/fcarouge/linalg.hpp</text>
</a>
</g>
</g>
<!-- Node2 -->
<g id="Node000002" class="node">
<title>Node2</title>
<g id="a_Node000002"><a xlink:title=" ">
<polygon fill="#e0e0e0" stroke="#999999" points="1174.62,-169.12 1095.62,-169.12 1095.62,-149.88 1174.62,-149.88 1174.62,-169.12"/>
<text text-anchor="middle" x="1135.12" y="-155.62" font-family="Helvetica,sans-Serif" font-size="10.00">fcarouge/linalg</text>
</a>
</g>
</g>
<!-- Node1&#45;&gt;Node2 -->
<g id="edge1_Node000001_Node000002" class="edge">
<title>Node1&#45;&gt;Node2</title>
<g id="a_edge1_Node000001_Node000002"><a xlink:title=" ">
<path fill="none" stroke="#63b8ff" d="M1214.75,-210.36C1198.14,-199.96 1175.89,-186.03 1159.14,-175.54"/>
<polygon fill="#63b8ff" stroke="#63b8ff" points="1161.13,-172.65 1150.8,-170.31 1157.41,-178.59 1161.13,-172.65"/>
</a>
</g>
</g>
<!-- Node3 -->
<g id="Node000003" class="node">
<title>Node3</title>
<g id="a_Node000003"><a xlink:title=" ">
<polygon fill="#e0e0e0" stroke="#999999" points="1283.62,-169.12 1192.62,-169.12 1192.62,-149.88 1283.62,-149.88 1283.62,-169.12"/>
<text text-anchor="middle" x="1238.12" y="-155.62" font-family="Helvetica,sans-Serif" font-size="10.00">fcarouge/mdspan</text>
</a>
</g>
</g>
<!-- Node1&#45;&gt;Node3 -->
<g id="edge2_Node000001_Node000003" class="edge">
<title>Node1&#45;&gt;Node3</title>
<g id="a_edge2_Node000001_Node000003"><a xlink:title=" ">
<path fill="none" stroke="#63b8ff" d="M1238.12,-210.36C1238.12,-201.58 1238.12,-190.27 1238.12,-180.65"/>
<polygon fill="#63b8ff" stroke="#63b8ff" points="1241.63,-180.84 1238.13,-170.84 1234.63,-180.84 1241.63,-180.84"/>
</a>
</g>
</g>
<!-- Node4 -->
<g id="Node000004" class="node">
<title>Node4</title>
<g id="a_Node000004"><a xlink:href="typed__linear__algebra_8hpp.xhtml" target="_top" xlink:title="Typed linear algebra implementation.">
<polygon fill="white" stroke="#666666" points="1410.25,-174.75 1302,-174.75 1302,-144.25 1410.25,-144.25 1410.25,-174.75"/>
<text text-anchor="start" x="1310" y="-161.25" font-family="Helvetica,sans-Serif" font-size="10.00">fcarouge/typed_linear</text>
<text text-anchor="middle" x="1356.12" y="-150" font-family="Helvetica,sans-Serif" font-size="10.00">_algebra.hpp</text>
</a>
</g>
</g>
<!-- Node1&#45;&gt;Node4 -->
<g id="edge3_Node000001_Node000004" class="edge">
<title>Node1&#45;&gt;Node4</title>
<g id="a_edge3_Node000001_Node000004"><a xlink:title=" ">
<path fill="none" stroke="#63b8ff" d="M1264.9,-210.36C1281.04,-201.54 1301.83,-190.18 1319.48,-180.53"/>
<polygon fill="#63b8ff" stroke="#63b8ff" points="1321.03,-183.67 1328.13,-175.8 1317.67,-177.53 1321.03,-183.67"/>
</a>
</g>
</g>
<!-- Node5 -->
<g id="Node000005" class="node">
<title>Node5</title>
<g id="a_Node000005"><a xlink:href="utility_8hpp.xhtml" target="_top" xlink:title=" ">
<polygon fill="white" stroke="#666666" points="352.38,-102.62 247.88,-102.62 247.88,-72.12 352.38,-72.12 352.38,-102.62"/>
<text text-anchor="start" x="255.88" y="-89.12" font-family="Helvetica,sans-Serif" font-size="10.00">typed_linear_algebra</text>
<text text-anchor="middle" x="300.12" y="-77.88" font-family="Helvetica,sans-Serif" font-size="10.00">/internal/utility.hpp</text>
</a>
</g>
</g>
<!-- Node4&#45;&gt;Node5 -->
<g id="edge4_Node000004_Node000005" class="edge">
<title>Node4&#45;&gt;Node5</title>
<g id="a_edge4_Node000004_Node000005"><a xlink:title=" ">
<path fill="none" stroke="#63b8ff" d="M1301.6,-145.52C1298.74,-145.04 1295.9,-144.62 1293.12,-144.25 884.33,-90.54 772.79,-176.24 366.12,-108.25 362.29,-107.61 358.37,-106.81 354.44,-105.91"/>
<polygon fill="#63b8ff" stroke="#63b8ff" points="355.44,-102.55 344.89,-103.48 353.72,-109.33 355.44,-102.55"/>
</a>
</g>
</g>
<!-- Node6 -->
<g id="Node000006" class="node">
<title>Node6</title>
<g id="a_Node000006"><a xlink:href="typed__linear__algebra__forward_8hpp.xhtml" target="_top" xlink:title="Authoritative forward declaration header.">
<polygon fill="white" stroke="#666666" points="108.25,-30.5 0,-30.5 0,0 108.25,0 108.25,-30.5"/>
<text text-anchor="start" x="8" y="-17" font-family="Helvetica,sans-Serif" font-size="10.00">fcarouge/typed_linear</text>
<text text-anchor="middle" x="54.12" y="-5.75" font-family="Helvetica,sans-Serif" font-size="10.00">_algebra_forward.hpp</text>
</a>
</g>
</g>
<!-- Node4&#45;&gt;Node6 -->
<g id="edge12_Node000004_Node000006" class="edge">
<title>Node4&#45;&gt;Node6</title>
<g id="a_edge12_Node000004_Node000006"><a xlink:title=" ">
<path fill="none" stroke="#63b8ff" d="M1301.6,-145.5C1298.74,-145.03 1295.91,-144.61 1293.12,-144.25 1169.73,-128.46 291.27,-150.1 174.12,-108.25 134.4,-94.06 97.27,-61.44 75.13,-39.12"/>
<polygon fill="#63b8ff" stroke="#63b8ff" points="77.65,-36.69 68.18,-31.93 72.61,-41.55 77.65,-36.69"/>
</a>
</g>
</g>
<!-- Node7 -->
<g id="Node000007" class="node">
<title>Node7</title>
<g id="a_Node000007"><a xlink:title=" ">
<polygon fill="#e0e0e0" stroke="#999999" points="182,-24.88 126.25,-24.88 126.25,-5.63 182,-5.63 182,-24.88"/>
<text text-anchor="middle" x="154.12" y="-11.38" font-family="Helvetica,sans-Serif" font-size="10.00">concepts</text>
</a>
</g>
</g>
<!-- Node4&#45;&gt;Node7 -->
<g id="edge13_Node000004_Node000007" class="edge">
<title>Node4&#45;&gt;Node7</title>
<g id="a_edge13_Node000004_Node000007"><a xlink:title=" ">
<path fill="none" stroke="#63b8ff" d="M1301.6,-145.5C1298.74,-145.03 1295.91,-144.61 1293.12,-144.25 1174.48,-128.99 321.99,-165.8 217.12,-108.25 188.5,-92.54 170.24,-57.59 161.12,-35.57"/>
<polygon fill="#63b8ff" stroke="#63b8ff" points="164.5,-34.62 157.63,-26.56 157.98,-37.15 164.5,-34.62"/>
</a>
</g>
</g>
<!-- Node8 -->
<g id="Node000008" class="node">
<title>Node8</title>
<g id="a_Node000008"><a xlink:title=" ">
<polygon fill="#e0e0e0" stroke="#999999" points="248.25,-24.88 200,-24.88 200,-5.63 248.25,-5.63 248.25,-24.88"/>
<text text-anchor="middle" x="224.12" y="-11.38" font-family="Helvetica,sans-Serif" font-size="10.00">cstddef</text>
</a>
</g>
</g>
<!-- Node4&#45;&gt;Node8 -->
<g id="edge14_Node000004_Node000008" class="edge">
<title>Node4&#45;&gt;Node8</title>
<g id="a_edge14_Node000004_Node000008"><a xlink:title=" ">
<path fill="none" stroke="#63b8ff" d="M1301.6,-145.51C1298.74,-145.03 1295.91,-144.61 1293.12,-144.25 1235.02,-136.75 283.11,-146.96 239.12,-108.25 219.21,-90.73 218.65,-57.93 220.82,-36.6"/>
<polygon fill="#63b8ff" stroke="#63b8ff" points="224.27,-37.18 222.13,-26.8 217.34,-36.25 224.27,-37.18"/>
</a>
</g>
</g>
<!-- Node10 -->
<g id="Node000010" class="node">
<title>Node10</title>
<g id="a_Node000010"><a xlink:title=" ">
<polygon fill="#e0e0e0" stroke="#999999" points="459.62,-24.88 422.62,-24.88 422.62,-5.63 459.62,-5.63 459.62,-24.88"/>
<text text-anchor="middle" x="441.12" y="-11.38" font-family="Helvetica,sans-Serif" font-size="10.00">tuple</text>
</a>
</g>
</g>
<!-- Node4&#45;&gt;Node10 -->
<g id="edge17_Node000004_Node000010" class="edge">
<title>Node4&#45;&gt;Node10</title>
<g id="a_edge17_Node000004_Node000010"><a xlink:title=" ">
<path fill="none" stroke="#63b8ff" d="M1301.6,-145.53C1298.74,-145.05 1295.9,-144.62 1293.12,-144.25 1245.28,-137.9 458.54,-143.08 425.12,-108.25 406.48,-88.81 418.77,-55.86 429.7,-35.11"/>
<polygon fill="#63b8ff" stroke="#63b8ff" points="432.65,-37.01 434.53,-26.58 426.56,-33.56 432.65,-37.01"/>
</a>
</g>
</g>
<!-- Node12 -->
<g id="Node000012" class="node">
<title>Node12</title>
<g id="a_Node000012"><a xlink:title=" ">
<polygon fill="#e0e0e0" stroke="#999999" points="516.38,-24.88 477.88,-24.88 477.88,-5.63 516.38,-5.63 516.38,-24.88"/>
<text text-anchor="middle" x="497.12" y="-11.38" font-family="Helvetica,sans-Serif" font-size="10.00">utility</text>
</a>
</g>
</g>
<!-- Node4&#45;&gt;Node12 -->
<g id="edge18_Node000004_Node000012" class="edge">
<title>Node4&#45;&gt;Node12</title>
<g id="a_edge18_Node000004_Node000012"><a xlink:title=" ">
<path fill="none" stroke="#63b8ff" d="M1301.6,-145.53C1298.74,-145.05 1295.9,-144.62 1293.12,-144.25 1245.94,-137.97 470.07,-142.61 437.12,-108.25 424.28,-94.86 429.28,-83.31 437.12,-66.5 443.97,-51.83 457.44,-39.93 469.89,-31.4"/>
<polygon fill="#63b8ff" stroke="#63b8ff" points="471.66,-34.42 478.23,-26.11 467.91,-28.51 471.66,-34.42"/>
</a>
</g>
</g>
<!-- Node13 -->
<g id="Node000013" class="node">
<title>Node13</title>
<g id="a_Node000013"><a xlink:title=" ">
<polygon fill="#e0e0e0" stroke="#999999" points="490,-97 446.25,-97 446.25,-77.75 490,-77.75 490,-97"/>
<text text-anchor="middle" x="468.12" y="-83.5" font-family="Helvetica,sans-Serif" font-size="10.00">format</text>
</a>
</g>
</g>
<!-- Node4&#45;&gt;Node13 -->
<g id="edge15_Node000004_Node000013" class="edge">
<title>Node4&#45;&gt;Node13</title>
<g id="a_edge15_Node000004_Node000013"><a xlink:title=" ">
<path fill="none" stroke="#63b8ff" d="M1301.6,-145.55C1298.74,-145.06 1295.9,-144.62 1293.12,-144.25 1118.08,-120.67 667.45,-161.75 499.12,-108.25 495.53,-107.11 491.95,-105.44 488.56,-103.54"/>
<polygon fill="#63b8ff" stroke="#63b8ff" points="490.74,-100.78 480.44,-98.3 486.95,-106.67 490.74,-100.78"/>
</a>
</g>
</g>
<!-- Node14 -->
<g id="Node000014" class="node">
<title>Node14</title>
<g id="a_Node000014"><a xlink:title=" ">
<polygon fill="#e0e0e0" stroke="#999999" points="579.88,-97 508.38,-97 508.38,-77.75 579.88,-77.75 579.88,-97"/>
<text text-anchor="middle" x="544.12" y="-83.5" font-family="Helvetica,sans-Serif" font-size="10.00">initializer_list</text>
</a>
</g>
</g>
<!-- Node4&#45;&gt;Node14 -->
<g id="edge16_Node000004_Node000014" class="edge">
<title>Node4&#45;&gt;Node14</title>
<g id="a_edge16_Node000004_Node000014"><a xlink:title=" ">
<path fill="none" stroke="#63b8ff" d="M1301.59,-145.56C1298.74,-145.08 1295.9,-144.63 1293.12,-144.25 982.75,-101.53 893.92,-180.74 589.12,-108.25 583,-106.79 576.67,-104.53 570.76,-102.04"/>
<polygon fill="#63b8ff" stroke="#63b8ff" points="572.64,-99.05 562.09,-98.07 569.72,-105.41 572.64,-99.05"/>
</a>
</g>
</g>
<!-- Node15 -->
<g id="Node000015" class="node">
<title>Node15</title>
<g id="a_Node000015"><a xlink:title=" ">
<polygon fill="#e0e0e0" stroke="#999999" points="702.38,-102.62 597.88,-102.62 597.88,-72.12 702.38,-72.12 702.38,-102.62"/>
<text text-anchor="start" x="605.88" y="-89.12" font-family="Helvetica,sans-Serif" font-size="10.00">typed_linear_algebra</text>
<text text-anchor="middle" x="650.12" y="-77.88" font-family="Helvetica,sans-Serif" font-size="10.00">/algorithm/add.tpp</text>
</a>
</g>
</g>
<!-- Node4&#45;&gt;Node15 -->
<g id="edge19_Node000004_Node000015" class="edge">
<title>Node4&#45;&gt;Node15</title>
<g id="a_edge19_Node000004_Node000015"><a xlink:title=" ">
<path fill="none" stroke="#63b8ff" d="M1301.59,-145.6C1298.73,-145.1 1295.9,-144.65 1293.12,-144.25 1037.02,-107.59 966.38,-156.11 712.12,-108.25 708.79,-107.62 705.38,-106.87 701.97,-106.03"/>
<polygon fill="#63b8ff" stroke="#63b8ff" points="703.14,-102.72 692.57,-103.48 701.31,-109.47 703.14,-102.72"/>
</a>
</g>
</g>
<!-- Node16 -->
<g id="Node000016" class="node">
<title>Node16</title>
<g id="a_Node000016"><a xlink:title=" ">
<polygon fill="#e0e0e0" stroke="#999999" points="825.38,-102.62 720.88,-102.62 720.88,-72.12 825.38,-72.12 825.38,-102.62"/>
<text text-anchor="start" x="728.88" y="-89.12" font-family="Helvetica,sans-Serif" font-size="10.00">typed_linear_algebra</text>
<text text-anchor="middle" x="773.12" y="-77.88" font-family="Helvetica,sans-Serif" font-size="10.00">/algorithm/divide.tpp</text>
</a>
</g>
</g>
<!-- Node4&#45;&gt;Node16 -->
<g id="edge20_Node000004_Node000016" class="edge">
<title>Node4&#45;&gt;Node16</title>
<g id="a_edge20_Node000004_Node000016"><a xlink:title=" ">
<path fill="none" stroke="#63b8ff" d="M1301.58,-145.66C1298.73,-145.14 1295.9,-144.67 1293.12,-144.25 1091.25,-113.65 1035.47,-147.68 835.12,-108.25 831.95,-107.63 828.72,-106.89 825.47,-106.08"/>
<polygon fill="#63b8ff" stroke="#63b8ff" points="826.49,-102.74 815.93,-103.48 824.65,-109.49 826.49,-102.74"/>
</a>
</g>
</g>
<!-- Node17 -->
<g id="Node000017" class="node">
<title>Node17</title>
<g id="a_Node000017"><a xlink:title=" ">
<polygon fill="#e0e0e0" stroke="#999999" points="948.38,-102.62 843.88,-102.62 843.88,-72.12 948.38,-72.12 948.38,-102.62"/>
<text text-anchor="start" x="851.88" y="-89.12" font-family="Helvetica,sans-Serif" font-size="10.00">typed_linear_algebra</text>
<text text-anchor="middle" x="896.12" y="-77.88" font-family="Helvetica,sans-Serif" font-size="10.00">/algorithm/dot.tpp</text>
</a>
</g>
</g>
<!-- Node4&#45;&gt;Node17 -->
<g id="edge21_Node000004_Node000017" class="edge">
<title>Node4&#45;&gt;Node17</title>
<g id="a_edge21_Node000004_Node000017"><a xlink:title=" ">
<path fill="none" stroke="#63b8ff" d="M1301.57,-145.75C1298.72,-145.21 1295.89,-144.71 1293.12,-144.25 1144.97,-119.64 1103.99,-139.68 957.12,-108.25 954.16,-107.62 951.14,-106.89 948.11,-106.11"/>
<polygon fill="#63b8ff" stroke="#63b8ff" points="949.18,-102.77 938.61,-103.44 947.29,-109.51 949.18,-102.77"/>
</a>
</g>
</g>
<!-- Node18 -->
<g id="Node000018" class="node">
<title>Node18</title>
<g id="a_Node000018"><a xlink:title=" ">
<polygon fill="#e0e0e0" stroke="#999999" points="1080.25,-102.62 966,-102.62 966,-72.12 1080.25,-72.12 1080.25,-102.62"/>
<text text-anchor="start" x="974" y="-89.12" font-family="Helvetica,sans-Serif" font-size="10.00">typed_linear_algebra</text>
<text text-anchor="middle" x="1023.12" y="-77.88" font-family="Helvetica,sans-Serif" font-size="10.00">/algorithm/equal_to.tpp</text>
</a>
</g>
</g>
<!-- Node4&#45;&gt;Node18 -->
<g id="edge22_Node000004_Node000018" class="edge">
<title>Node4&#45;&gt;Node18</title>
<g id="a_edge22_Node000004_Node000018"><a xlink:title=" ">
<path fill="none" stroke="#63b8ff" d="M1301.52,-145.98C1298.69,-145.38 1295.87,-144.8 1293.12,-144.25 1202.87,-126.09 1178.69,-129.56 1089.12,-108.25 1086.22,-107.56 1083.26,-106.82 1080.28,-106.03"/>
<polygon fill="#63b8ff" stroke="#63b8ff" points="1081.48,-102.73 1070.91,-103.47 1079.64,-109.49 1081.48,-102.73"/>
</a>
</g>
</g>
<!-- Node19 -->
<g id="Node000019" class="node">
<title>Node19</title>
<g id="a_Node000019"><a xlink:title=" ">
<polygon fill="#e0e0e0" stroke="#999999" points="1220.38,-102.62 1097.88,-102.62 1097.88,-72.12 1220.38,-72.12 1220.38,-102.62"/>
<text text-anchor="start" x="1105.88" y="-89.12" font-family="Helvetica,sans-Serif" font-size="10.00">typed_linear_algebra</text>
<text text-anchor="middle" x="1159.12" y="-77.88" font-family="Helvetica,sans-Serif" font-size="10.00">/algorithm/magnitude.tpp</text>
</a>
</g>
</g>
<!-- Node4&#45;&gt;Node19 -->
<g id="edge23_Node000004_Node000019" class="edge">
<title>Node4&#45;&gt;Node19</title>
<g id="a_edge23_Node000004_Node000019"><a xlink:title=" ">
<path fill="none" stroke="#63b8ff" d="M1314.83,-143.8C1284.62,-133.05 1243.43,-118.38 1211,-106.84"/>
<polygon fill="#63b8ff" stroke="#63b8ff" points="1212.39,-103.62 1201.79,-103.56 1210.04,-110.21 1212.39,-103.62"/>
</a>
</g>
</g>
<!-- Node20 -->
<g id="Node000020" class="node">
<title>Node20</title>
<g id="a_Node000020"><a xlink:title=" ">
<polygon fill="#e0e0e0" stroke="#999999" points="1348,-108.25 1238.25,-108.25 1238.25,-66.5 1348,-66.5 1348,-108.25"/>
<text text-anchor="start" x="1246.25" y="-94.75" font-family="Helvetica,sans-Serif" font-size="10.00">typed_linear_algebra</text>
<text text-anchor="start" x="1246.25" y="-83.5" font-family="Helvetica,sans-Serif" font-size="10.00">/algorithm/matrix_frob</text>
<text text-anchor="middle" x="1293.12" y="-72.25" font-family="Helvetica,sans-Serif" font-size="10.00">_norm.tpp</text>
</a>
</g>
</g>
<!-- Node4&#45;&gt;Node20 -->
<g id="edge24_Node000004_Node000020" class="edge">
<title>Node4&#45;&gt;Node20</title>
<g id="a_edge24_Node000004_Node000020"><a xlink:title=" ">
<path fill="none" stroke="#63b8ff" d="M1343.07,-143.97C1336.13,-136.25 1327.35,-126.47 1319.1,-117.28"/>
<polygon fill="#63b8ff" stroke="#63b8ff" points="1321.72,-114.96 1312.43,-109.86 1316.51,-119.64 1321.72,-114.96"/>
</a>
</g>
</g>
<!-- Node21 -->
<g id="Node000021" class="node">
<title>Node21</title>
<g id="a_Node000021"><a xlink:title=" ">
<polygon fill="#e0e0e0" stroke="#999999" points="1474.62,-108.25 1365.62,-108.25 1365.62,-66.5 1474.62,-66.5 1474.62,-108.25"/>
<text text-anchor="start" x="1373.62" y="-94.75" font-family="Helvetica,sans-Serif" font-size="10.00">typed_linear_algebra</text>
<text text-anchor="start" x="1373.62" y="-83.5" font-family="Helvetica,sans-Serif" font-size="10.00">/algorithm/matrix_one</text>
<text text-anchor="middle" x="1420.12" y="-72.25" font-family="Helvetica,sans-Serif" font-size="10.00">_norm.tpp</text>
</a>
</g>
</g>
<!-- Node4&#45;&gt;Node21 -->
<g id="edge25_Node000004_Node000021" class="edge">
<title>Node4&#45;&gt;Node21</title>
<g id="a_edge25_Node000004_Node000021"><a xlink:title=" ">
<path fill="none" stroke="#63b8ff" d="M1369.39,-143.97C1376.51,-136.17 1385.54,-126.27 1394,-117"/>
<polygon fill="#63b8ff" stroke="#63b8ff" points="1396.37,-119.6 1400.52,-109.85 1391.2,-114.88 1396.37,-119.6"/>
</a>
</g>
</g>
<!-- Node22 -->
<g id="Node000022" class="node">
<title>Node22</title>
<g id="a_Node000022"><a xlink:title=" ">
<polygon fill="#e0e0e0" stroke="#999999" points="1633.75,-102.62 1492.5,-102.62 1492.5,-72.12 1633.75,-72.12 1633.75,-102.62"/>
<text text-anchor="start" x="1500.5" y="-89.12" font-family="Helvetica,sans-Serif" font-size="10.00">typed_linear_algebra</text>
<text text-anchor="middle" x="1563.12" y="-77.88" font-family="Helvetica,sans-Serif" font-size="10.00">/algorithm/matrix_product.tpp</text>
</a>
</g>
</g>
<!-- Node4&#45;&gt;Node22 -->
<g id="edge26_Node000004_Node000022" class="edge">
<title>Node4&#45;&gt;Node22</title>
<g id="a_edge26_Node000004_Node000022"><a xlink:title=" ">
<path fill="none" stroke="#63b8ff" d="M1399.52,-143.8C1431.4,-133 1474.92,-118.26 1509.06,-106.69"/>
<polygon fill="#63b8ff" stroke="#63b8ff" points="1510.01,-110.07 1518.35,-103.54 1507.76,-103.44 1510.01,-110.07"/>
</a>
</g>
</g>
<!-- Node23 -->
<g id="Node000023" class="node">
<title>Node23</title>
<g id="a_Node000023"><a xlink:title=" ">
<polygon fill="#e0e0e0" stroke="#999999" points="1772.25,-108.25 1652,-108.25 1652,-66.5 1772.25,-66.5 1772.25,-108.25"/>
<text text-anchor="start" x="1660" y="-94.75" font-family="Helvetica,sans-Serif" font-size="10.00">typed_linear_algebra</text>
<text text-anchor="start" x="1660" y="-83.5" font-family="Helvetica,sans-Serif" font-size="10.00">/algorithm/matrix_vector</text>
<text text-anchor="middle" x="1712.12" y="-72.25" font-family="Helvetica,sans-Serif" font-size="10.00">_product.tpp</text>
</a>
</g>
</g>
<!-- Node4&#45;&gt;Node23 -->
<g id="edge27_Node000004_Node000023" class="edge">
<title>Node4&#45;&gt;Node23</title>
<g id="a_edge27_Node000004_Node000023"><a xlink:title=" ">
<path fill="none" stroke="#63b8ff" d="M1410.69,-150.73C1466.25,-142.42 1555.06,-128.04 1640.43,-108.76"/>
<polygon fill="#63b8ff" stroke="#63b8ff" points="1641.2,-112.17 1650.16,-106.53 1639.63,-105.35 1641.2,-112.17"/>
</a>
</g>
</g>
<!-- Node24 -->
<g id="Node000024" class="node">
<title>Node24</title>
<g id="a_Node000024"><a xlink:title=" ">
<polygon fill="#e0e0e0" stroke="#999999" points="1894.38,-102.62 1789.88,-102.62 1789.88,-72.12 1894.38,-72.12 1894.38,-102.62"/>
<text text-anchor="start" x="1797.88" y="-89.12" font-family="Helvetica,sans-Serif" font-size="10.00">typed_linear_algebra</text>
<text text-anchor="middle" x="1842.12" y="-77.88" font-family="Helvetica,sans-Serif" font-size="10.00">/algorithm/minus.tpp</text>
</a>
</g>
</g>
<!-- Node4&#45;&gt;Node24 -->
<g id="edge28_Node000004_Node000024" class="edge">
<title>Node4&#45;&gt;Node24</title>
<g id="a_edge28_Node000004_Node000024"><a xlink:title=" ">
<path fill="none" stroke="#63b8ff" d="M1410.7,-155.5C1492.15,-150.25 1649.96,-137.08 1781.12,-108.25 1784.03,-107.61 1787,-106.89 1789.98,-106.11"/>
<polygon fill="#63b8ff" stroke="#63b8ff" points="1790.63,-109.56 1799.3,-103.48 1788.72,-102.83 1790.63,-109.56"/>
</a>
</g>
</g>
<!-- Node25 -->
<g id="Node000025" class="node">
<title>Node25</title>
<g id="a_Node000025"><a xlink:title=" ">
<polygon fill="#e0e0e0" stroke="#999999" points="2022,-102.62 1912.25,-102.62 1912.25,-72.12 2022,-72.12 2022,-102.62"/>
<text text-anchor="start" x="1920.25" y="-89.12" font-family="Helvetica,sans-Serif" font-size="10.00">typed_linear_algebra</text>
<text text-anchor="middle" x="1967.12" y="-77.88" font-family="Helvetica,sans-Serif" font-size="10.00">/algorithm/product.tpp</text>
</a>
</g>
</g>
<!-- Node4&#45;&gt;Node25 -->
<g id="edge29_Node000004_Node000025" class="edge">
<title>Node4&#45;&gt;Node25</title>
<g id="a_edge29_Node000004_Node000025"><a xlink:title=" ">
<path fill="none" stroke="#63b8ff" d="M1410.62,-157.26C1509.62,-154.19 1725.18,-143.65 1903.12,-108.25 1906.44,-107.59 1909.83,-106.82 1913.23,-105.98"/>
<polygon fill="#63b8ff" stroke="#63b8ff" points="1913.84,-109.44 1922.6,-103.48 1912.04,-102.68 1913.84,-109.44"/>
</a>
</g>
</g>
<!-- Node26 -->
<g id="Node000026" class="node">
<title>Node26</title>
<g id="a_Node000026"><a xlink:title=" ">
<polygon fill="#e0e0e0" stroke="#999999" points="2144.38,-102.62 2039.88,-102.62 2039.88,-72.12 2144.38,-72.12 2144.38,-102.62"/>
<text text-anchor="start" x="2047.88" y="-89.12" font-family="Helvetica,sans-Serif" font-size="10.00">typed_linear_algebra</text>
<text text-anchor="middle" x="2092.12" y="-77.88" font-family="Helvetica,sans-Serif" font-size="10.00">/algorithm/scale.tpp</text>
</a>
</g>
</g>
<!-- Node4&#45;&gt;Node26 -->
<g id="edge30_Node000004_Node000026" class="edge">
<title>Node4&#45;&gt;Node26</title>
<g id="a_edge30_Node000004_Node000026"><a xlink:title=" ">
<path fill="none" stroke="#63b8ff" d="M1410.53,-158.86C1526.01,-158.66 1803.71,-153.08 2031.12,-108.25 2034.25,-107.63 2037.44,-106.91 2040.64,-106.1"/>
<polygon fill="#63b8ff" stroke="#63b8ff" points="2041.3,-109.55 2050.01,-103.52 2039.44,-102.8 2041.3,-109.55"/>
</a>
</g>
</g>
<!-- Node27 -->
<g id="Node000027" class="node">
<title>Node27</title>
<g id="a_Node000027"><a xlink:title=" ">
<polygon fill="#e0e0e0" stroke="#999999" points="2275.5,-102.62 2162.75,-102.62 2162.75,-72.12 2275.5,-72.12 2275.5,-102.62"/>
<text text-anchor="start" x="2170.75" y="-89.12" font-family="Helvetica,sans-Serif" font-size="10.00">typed_linear_algebra</text>
<text text-anchor="middle" x="2219.12" y="-77.88" font-family="Helvetica,sans-Serif" font-size="10.00">/algorithm/subtract.tpp</text>
</a>
</g>
</g>
<!-- Node4&#45;&gt;Node27 -->
<g id="edge31_Node000004_Node000027" class="edge">
<title>Node4&#45;&gt;Node27</title>
<g id="a_edge31_Node000004_Node000027"><a xlink:title=" ">
<path fill="none" stroke="#63b8ff" d="M1410.48,-156.7C1565.85,-151.29 2009.93,-133.97 2153.12,-108.25 2156.89,-107.57 2160.74,-106.76 2164.61,-105.84"/>
<polygon fill="#63b8ff" stroke="#63b8ff" points="2165.16,-109.31 2173.98,-103.43 2163.42,-102.53 2165.16,-109.31"/>
</a>
</g>
</g>
<!-- Node28 -->
<g id="Node000028" class="node">
<title>Node28</title>
<g id="a_Node000028"><a xlink:title=" ">
<polygon fill="#e0e0e0" stroke="#999999" points="2418.88,-102.62 2293.38,-102.62 2293.38,-72.12 2418.88,-72.12 2418.88,-102.62"/>
<text text-anchor="start" x="2301.38" y="-89.12" font-family="Helvetica,sans-Serif" font-size="10.00">typed_linear_algebra</text>
<text text-anchor="middle" x="2356.12" y="-77.88" font-family="Helvetica,sans-Serif" font-size="10.00">/algorithm/transposed.tpp</text>
</a>
</g>
</g>
<!-- Node4&#45;&gt;Node28 -->
<g id="edge32_Node000004_Node000028" class="edge">
<title>Node4&#45;&gt;Node28</title>
<g id="a_edge32_Node000004_Node000028"><a xlink:title=" ">
<path fill="none" stroke="#63b8ff" d="M1410.61,-157.09C1582.85,-152.39 2114.23,-135.97 2284.12,-108.25 2288.46,-107.54 2292.92,-106.67 2297.38,-105.7"/>
<polygon fill="#63b8ff" stroke="#63b8ff" points="2298.02,-109.14 2306.95,-103.44 2296.41,-102.33 2298.02,-109.14"/>
</a>
</g>
</g>
<!-- Node29 -->
<g id="Node000029" class="node">
<title>Node29</title>
<g id="a_Node000029"><a xlink:title=" ">
<polygon fill="#e0e0e0" stroke="#999999" points="2541.38,-102.62 2436.88,-102.62 2436.88,-72.12 2541.38,-72.12 2541.38,-102.62"/>
<text text-anchor="start" x="2444.88" y="-89.12" font-family="Helvetica,sans-Serif" font-size="10.00">typed_linear_algebra</text>
<text text-anchor="middle" x="2489.12" y="-77.88" font-family="Helvetica,sans-Serif" font-size="10.00">/cast.tpp</text>
</a>
</g>
</g>
<!-- Node4&#45;&gt;Node29 -->
<g id="edge33_Node000004_Node000029" class="edge">
<title>Node4&#45;&gt;Node29</title>
<g id="a_edge33_Node000004_Node000029"><a xlink:title=" ">
<path fill="none" stroke="#63b8ff" d="M1410.64,-157.87C1600.19,-155.39 2229.73,-144.54 2428.12,-108.25 2431.47,-107.64 2434.88,-106.89 2438.3,-106.05"/>
<polygon fill="#63b8ff" stroke="#63b8ff" points="2438.98,-109.49 2447.7,-103.48 2437.13,-102.74 2438.98,-109.49"/>
</a>
</g>
</g>
<!-- Node30 -->
<g id="Node000030" class="node">
<title>Node30</title>
<g id="a_Node000030"><a xlink:title=" ">
<polygon fill="#e0e0e0" stroke="#999999" points="2664.38,-102.62 2559.88,-102.62 2559.88,-72.12 2664.38,-72.12 2664.38,-102.62"/>
<text text-anchor="start" x="2567.88" y="-89.12" font-family="Helvetica,sans-Serif" font-size="10.00">typed_linear_algebra</text>
<text text-anchor="middle" x="2612.12" y="-77.88" font-family="Helvetica,sans-Serif" font-size="10.00">/chrono.tpp</text>
</a>
</g>
</g>
<!-- Node4&#45;&gt;Node30 -->
<g id="edge34_Node000004_Node000030" class="edge">
<title>Node4&#45;&gt;Node30</title>
<g id="a_edge34_Node000004_Node000030"><a xlink:title=" ">
<path fill="none" stroke="#63b8ff" d="M1410.42,-158.14C1613.3,-156.51 2326.71,-148.01 2550.12,-108.25 2553.52,-107.65 2556.99,-106.9 2560.46,-106.06"/>
<polygon fill="#63b8ff" stroke="#63b8ff" points="2561.28,-109.47 2570.03,-103.5 2559.47,-102.71 2561.28,-109.47"/>
</a>
</g>
</g>
<!-- Node31 -->
<g id="Node000031" class="node">
<title>Node31</title>
<g id="a_Node000031"><a xlink:title=" ">
<polygon fill="#e0e0e0" stroke="#999999" points="2787.38,-102.62 2682.88,-102.62 2682.88,-72.12 2787.38,-72.12 2787.38,-102.62"/>
<text text-anchor="start" x="2690.88" y="-89.12" font-family="Helvetica,sans-Serif" font-size="10.00">typed_linear_algebra</text>
<text text-anchor="middle" x="2735.12" y="-77.88" font-family="Helvetica,sans-Serif" font-size="10.00">/common_type.tpp</text>
</a>
</g>
</g>
<!-- Node4&#45;&gt;Node31 -->
<g id="edge35_Node000004_Node000031" class="edge">
<title>Node4&#45;&gt;Node31</title>
<g id="a_edge35_Node000004_Node000031"><a xlink:title=" ">
<path fill="none" stroke="#63b8ff" d="M1410.75,-158.39C1627.16,-157.65 2424.68,-151.97 2673.12,-108.25 2676.69,-107.62 2680.33,-106.84 2683.97,-105.96"/>
<polygon fill="#63b8ff" stroke="#63b8ff" points="2684.63,-109.4 2693.37,-103.42 2682.81,-102.65 2684.63,-109.4"/>
</a>
</g>
</g>
<!-- Node32 -->
<g id="Node000032" class="node">
<title>Node32</title>
<g id="a_Node000032"><a xlink:title=" ">
<polygon fill="#e0e0e0" stroke="#999999" points="2910.38,-102.62 2805.88,-102.62 2805.88,-72.12 2910.38,-72.12 2910.38,-102.62"/>
<text text-anchor="start" x="2813.88" y="-89.12" font-family="Helvetica,sans-Serif" font-size="10.00">typed_linear_algebra</text>
<text text-anchor="middle" x="2858.12" y="-77.88" font-family="Helvetica,sans-Serif" font-size="10.00">/format.tpp</text>
</a>
</g>
</g>
<!-- Node4&#45;&gt;Node32 -->
<g id="edge36_Node000004_Node000032" class="edge">
<title>Node4&#45;&gt;Node32</title>
<g id="a_edge36_Node000004_Node000032"><a xlink:title=" ">
<path fill="none" stroke="#63b8ff" d="M1410.72,-158.6C1639.57,-158.71 2522.43,-155.95 2796.12,-108.25 2799.69,-107.63 2803.33,-106.85 2806.97,-105.97"/>
<polygon fill="#63b8ff" stroke="#63b8ff" points="2807.63,-109.42 2816.38,-103.44 2805.81,-102.66 2807.63,-109.42"/>
</a>
</g>
</g>
<!-- Node33 -->
<g id="Node000033" class="node">
<title>Node33</title>
<g id="a_Node000033"><a xlink:title=" ">
<polygon fill="#e0e0e0" stroke="#999999" points="3033.38,-102.62 2928.88,-102.62 2928.88,-72.12 3033.38,-72.12 3033.38,-102.62"/>
<text text-anchor="start" x="2936.88" y="-89.12" font-family="Helvetica,sans-Serif" font-size="10.00">typed_linear_algebra</text>
<text text-anchor="middle" x="2981.12" y="-77.88" font-family="Helvetica,sans-Serif" font-size="10.00">/tuple.tpp</text>
</a>
</g>
</g>
<!-- Node4&#45;&gt;Node33 -->
<g id="edge37_Node000004_Node000033" class="edge">
<title>Node4&#45;&gt;Node33</title>
<g id="a_edge37_Node000004_Node000033"><a xlink:title=" ">
<path fill="none" stroke="#63b8ff" d="M1410.44,-158.77C1650.8,-159.67 2620,-159.96 2919.12,-108.25 2922.69,-107.63 2926.33,-106.86 2929.98,-105.98"/>
<polygon fill="#63b8ff" stroke="#63b8ff" points="2930.63,-109.43 2939.38,-103.46 2928.81,-102.67 2930.63,-109.43"/>
</a>
</g>
</g>
<!-- Node34 -->
<g id="Node000034" class="node">
<title>Node34</title>
<g id="a_Node000034"><a xlink:title=" ">
<polygon fill="#e0e0e0" stroke="#999999" points="3174.75,-102.62 3051.5,-102.62 3051.5,-72.12 3174.75,-72.12 3174.75,-102.62"/>
<text text-anchor="start" x="3059.5" y="-89.12" font-family="Helvetica,sans-Serif" font-size="10.00">typed_linear_algebra</text>
<text text-anchor="middle" x="3113.12" y="-77.88" font-family="Helvetica,sans-Serif" font-size="10.00">/typed_linear_algebra.tpp</text>
</a>
</g>
</g>
<!-- Node4&#45;&gt;Node34 -->
<g id="edge38_Node000004_Node000034" class="edge">
<title>Node4&#45;&gt;Node34</title>
<g id="a_edge38_Node000004_Node000034"><a xlink:title=" ">
<path fill="none" stroke="#63b8ff" d="M1410.4,-158.65C1662.03,-159.1 2716.63,-157.9 3042.12,-108.25 3046.68,-107.56 3051.36,-106.66 3056.04,-105.64"/>
<polygon fill="#63b8ff" stroke="#63b8ff" points="3056.49,-109.13 3065.41,-103.41 3054.87,-102.32 3056.49,-109.13"/>
</a>
</g>
</g>
<!-- Node5&#45;&gt;Node6 -->
<g id="edge5_Node000005_Node000006" class="edge">
<title>Node5&#45;&gt;Node6</title>
<g id="a_edge5_Node000005_Node000006"><a xlink:title=" ">
<path fill="none" stroke="#63b8ff" d="M248.56,-71.67C210.1,-60.71 157.38,-45.68 116.54,-34.04"/>
<polygon fill="#63b8ff" stroke="#63b8ff" points="117.66,-30.72 107.08,-31.35 115.74,-37.45 117.66,-30.72"/>
</a>
</g>
</g>
<!-- Node5&#45;&gt;Node7 -->
<g id="edge6_Node000005_Node000007" class="edge">
<title>Node5&#45;&gt;Node7</title>
<g id="a_edge6_Node000005_Node000007"><a xlink:title=" ">
<path fill="none" stroke="#63b8ff" d="M269.52,-71.67C244.17,-59.5 208.39,-42.31 183.41,-30.32"/>
<polygon fill="#63b8ff" stroke="#63b8ff" points="185,-27.19 174.47,-26.02 181.97,-33.5 185,-27.19"/>
</a>
</g>
</g>
<!-- Node5&#45;&gt;Node8 -->
<g id="edge7_Node000005_Node000008" class="edge">
<title>Node5&#45;&gt;Node8</title>
<g id="a_edge7_Node000005_Node000008"><a xlink:title=" ">
<path fill="none" stroke="#63b8ff" d="M284.38,-71.85C271.94,-60.37 254.6,-44.37 241.71,-32.48"/>
<polygon fill="#63b8ff" stroke="#63b8ff" points="244.45,-30.24 234.73,-26.03 239.7,-35.39 244.45,-30.24"/>
</a>
</g>
</g>
<!-- Node9 -->
<g id="Node000009" class="node">
<title>Node9</title>
<g id="a_Node000009"><a xlink:title=" ">
<polygon fill="#e0e0e0" stroke="#999999" points="404.12,-24.88 346.12,-24.88 346.12,-5.63 404.12,-5.63 404.12,-24.88"/>
<text text-anchor="middle" x="375.12" y="-11.38" font-family="Helvetica,sans-Serif" font-size="10.00">functional</text>
</a>
</g>
</g>
<!-- Node5&#45;&gt;Node9 -->
<g id="edge8_Node000005_Node000009" class="edge">
<title>Node5&#45;&gt;Node9</title>
<g id="a_edge8_Node000005_Node000009"><a xlink:title=" ">
<path fill="none" stroke="#63b8ff" d="M315.67,-71.85C327.82,-60.48 344.72,-44.68 357.4,-32.82"/>
<polygon fill="#63b8ff" stroke="#63b8ff" points="359.74,-35.43 364.65,-26.04 354.96,-30.31 359.74,-35.43"/>
</a>
</g>
</g>
<!-- Node5&#45;&gt;Node10 -->
<g id="edge9_Node000005_Node000010" class="edge">
<title>Node5&#45;&gt;Node10</title>
<g id="a_edge9_Node000005_Node000010"><a xlink:title=" ">
<path fill="none" stroke="#63b8ff" d="M329.91,-71.76C350.67,-61.55 379.24,-47.45 413.17,-30.45"/>
<polygon fill="#63b8ff" stroke="#63b8ff" points="414.65,-33.62 422.01,-26.01 411.51,-27.36 414.65,-33.62"/>
</a>
</g>
</g>
<!-- Node11 -->
<g id="Node000011" class="node">
<title>Node11</title>
<g id="a_Node000011"><a xlink:title=" ">
<polygon fill="#e0e0e0" stroke="#999999" points="327.62,-24.88 266.62,-24.88 266.62,-5.63 327.62,-5.63 327.62,-24.88"/>
<text text-anchor="middle" x="297.12" y="-11.38" font-family="Helvetica,sans-Serif" font-size="10.00">type_traits</text>
</a>
</g>
</g>
<!-- Node5&#45;&gt;Node11 -->
<g id="edge10_Node000005_Node000011" class="edge">
<title>Node5&#45;&gt;Node11</title>
<g id="a_edge10_Node000005_Node000011"><a xlink:title=" ">
<path fill="none" stroke="#63b8ff" d="M299.5,-71.85C299.06,-61.59 298.47,-47.7 297.99,-36.38"/>
<polygon fill="#63b8ff" stroke="#63b8ff" points="301.49,-36.36 297.56,-26.52 294.5,-36.66 301.49,-36.36"/>
</a>
</g>
</g>
<!-- Node5&#45;&gt;Node12 -->
<g id="edge11_Node000005_Node000012" class="edge">
<title>Node5&#45;&gt;Node12</title>
<g id="a_edge11_Node000005_Node000012"><a xlink:title=" ">
<path fill="none" stroke="#63b8ff" d="M351.14,-71.71C385.06,-61.43 430.33,-46.67 469.12,-30.5 469.47,-30.35 469.83,-30.21 470.18,-30.06"/>
<polygon fill="#63b8ff" stroke="#63b8ff" points="471.49,-33.31 479.07,-25.9 468.53,-26.96 471.49,-33.31"/>
</a>
</g>
</g>
</g>
</svg>
