<?xml version="1.0" encoding="UTF-8" standalone="no"?>
<!DOCTYPE svg PUBLIC "-//W3C//DTD SVG 1.1//EN"
 "http://www.w3.org/Graphics/SVG/1.1/DTD/svg11.dtd">
<!-- Generated by graphviz version 12.2.0 (20241103.1931)
 -->
<!-- Title: fcarouge::typed_matrix&lt; Matrix, RowIndexes, ColumnIndexes &gt; Pages: 1 -->
<svg width="191pt" height="596pt"
 viewBox="0.00 0.00 190.94 596.25" xmlns="http://www.w3.org/2000/svg" xmlns:xlink="http://www.w3.org/1999/xlink">
<g id="graph0" class="graph" transform="scale(1 1) rotate(0) translate(4 592.25)">
<title>fcarouge::typed_matrix&lt; Matrix, RowIndexes, ColumnIndexes &gt;</title>
<!-- Node1 -->
<g id="Node000001" class="node">
<title>Node1</title>
<g id="a_Node000001"><a xlink:title="Strongly typed matrix.">
<polygon fill="#999999" stroke="none" points="137.12,-480 32.38,-480 32.38,0 137.12,0 137.12,-480"/>
<text text-anchor="start" x="36.38" y="-466.5" font-family="Helvetica,sans-Serif" font-size="10.00">fcarouge::typed_matrix</text>
<text text-anchor="start" x="36.38" y="-455.25" font-family="Helvetica,sans-Serif" font-size="10.00">&lt; Matrix, RowIndexes,</text>
<text text-anchor="start" x="46.12" y="-444" font-family="Helvetica,sans-Serif" font-size="10.00"> ColumnIndexes &gt;</text>
<text text-anchor="start" x="83.25" y="-428.75" font-family="Helvetica,sans-Serif" font-size="10.00"> </text>
<text text-anchor="start" x="36.5" y="-413.5" font-family="Helvetica,sans-Serif" font-size="10.00">*</text>
<text text-anchor="start" x="44.38" y="-413.5" font-family="Helvetica,sans-Serif" font-size="10.00">matrix</text>
<text text-anchor="start" x="36.5" y="-398.25" font-family="Helvetica,sans-Serif" font-size="10.00">*</text>
<text text-anchor="start" x="44.38" y="-398.25" font-family="Helvetica,sans-Serif" font-size="10.00">row_indexes</text>
<text text-anchor="start" x="36.5" y="-383" font-family="Helvetica,sans-Serif" font-size="10.00">*</text>
<text text-anchor="start" x="44.38" y="-383" font-family="Helvetica,sans-Serif" font-size="10.00">column_indexes</text>
<text text-anchor="start" x="36.5" y="-367.75" font-family="Helvetica,sans-Serif" font-size="10.00">*</text>
<text text-anchor="start" x="44.38" y="-367.75" font-family="Helvetica,sans-Serif" font-size="10.00">underlying</text>
<text text-anchor="start" x="36.5" y="-352.5" font-family="Helvetica,sans-Serif" font-size="10.00">*</text>
<text text-anchor="start" x="44.38" y="-352.5" font-family="Helvetica,sans-Serif" font-size="10.00">element</text>
<text text-anchor="start" x="36.5" y="-337.25" font-family="Helvetica,sans-Serif" font-size="10.00">*</text>
<text text-anchor="start" x="44.38" y="-337.25" font-family="Helvetica,sans-Serif" font-size="10.00">~typed_matrix()</text>
<text text-anchor="start" x="36.5" y="-322" font-family="Helvetica,sans-Serif" font-size="10.00">*</text>
<text text-anchor="start" x="44.38" y="-322" font-family="Helvetica,sans-Serif" font-size="10.00">typed_matrix()</text>
<text text-anchor="start" x="36.5" y="-306.75" font-family="Helvetica,sans-Serif" font-size="10.00">*</text>
<text text-anchor="start" x="44.38" y="-306.75" font-family="Helvetica,sans-Serif" font-size="10.00">typed_matrix()</text>
<text text-anchor="start" x="36.5" y="-291.5" font-family="Helvetica,sans-Serif" font-size="10.00">*</text>
<text text-anchor="start" x="44.38" y="-291.5" font-family="Helvetica,sans-Serif" font-size="10.00">operator=()</text>
<text text-anchor="start" x="36.5" y="-276.25" font-family="Helvetica,sans-Serif" font-size="10.00">*</text>
<text text-anchor="start" x="44.38" y="-276.25" font-family="Helvetica,sans-Serif" font-size="10.00">typed_matrix()</text>
<text text-anchor="start" x="36.5" y="-261" font-family="Helvetica,sans-Serif" font-size="10.00">*</text>
<text text-anchor="start" x="44.38" y="-261" font-family="Helvetica,sans-Serif" font-size="10.00">operator=()</text>
<text text-anchor="start" x="36.5" y="-245.75" font-family="Helvetica,sans-Serif" font-size="10.00">*</text>
<text text-anchor="start" x="44.38" y="-245.75" font-family="Helvetica,sans-Serif" font-size="10.00">explicit()</text>
<text text-anchor="start" x="36.5" y="-230.5" font-family="Helvetica,sans-Serif" font-size="10.00">*</text>
<text text-anchor="start" x="44.38" y="-230.5" font-family="Helvetica,sans-Serif" font-size="10.00">operator=()</text>
<text text-anchor="start" x="36.5" y="-215.25" font-family="Helvetica,sans-Serif" font-size="10.00">*</text>
<text text-anchor="start" x="44.38" y="-215.25" font-family="Helvetica,sans-Serif" font-size="10.00">explicit()</text>
<text text-anchor="start" x="36.5" y="-200" font-family="Helvetica,sans-Serif" font-size="10.00">*</text>
<text text-anchor="start" x="44.38" y="-200" font-family="Helvetica,sans-Serif" font-size="10.00">operator=()</text>
<text text-anchor="start" x="36.5" y="-184.75" font-family="Helvetica,sans-Serif" font-size="10.00">*</text>
<text text-anchor="start" x="44.38" y="-184.75" font-family="Helvetica,sans-Serif" font-size="10.00">typed_matrix()</text>
<text text-anchor="start" x="36.5" y="-169.5" font-family="Helvetica,sans-Serif" font-size="10.00">*</text>
<text text-anchor="start" x="44.38" y="-169.5" font-family="Helvetica,sans-Serif" font-size="10.00">explicit()</text>
<text text-anchor="start" x="36.5" y="-154.25" font-family="Helvetica,sans-Serif" font-size="10.00">*</text>
<text text-anchor="start" x="44.38" y="-154.25" font-family="Helvetica,sans-Serif" font-size="10.00">typed_matrix()</text>
<text text-anchor="start" x="36.5" y="-139" font-family="Helvetica,sans-Serif" font-size="10.00">*</text>
<text text-anchor="start" x="44.38" y="-139" font-family="Helvetica,sans-Serif" font-size="10.00">typed_matrix()</text>
<text text-anchor="start" x="36.5" y="-123.75" font-family="Helvetica,sans-Serif" font-size="10.00">*</text>
<text text-anchor="start" x="44.38" y="-123.75" font-family="Helvetica,sans-Serif" font-size="10.00">typed_matrix()</text>
<text text-anchor="start" x="36.5" y="-108.5" font-family="Helvetica,sans-Serif" font-size="10.00">*</text>
<text text-anchor="start" x="44.38" y="-108.5" font-family="Helvetica,sans-Serif" font-size="10.00">operator element&lt; 0,</text>
<text text-anchor="start" x="44.38" y="-97.25" font-family="Helvetica,sans-Serif" font-size="10.00"> 0 &gt;()</text>
<text text-anchor="start" x="36.5" y="-82" font-family="Helvetica,sans-Serif" font-size="10.00">*</text>
<text text-anchor="start" x="44.38" y="-82" font-family="Helvetica,sans-Serif" font-size="10.00">operator[]()</text>
<text text-anchor="start" x="36.5" y="-66.75" font-family="Helvetica,sans-Serif" font-size="10.00">*</text>
<text text-anchor="start" x="44.38" y="-66.75" font-family="Helvetica,sans-Serif" font-size="10.00">operator[]()</text>
<text text-anchor="start" x="36.5" y="-51.5" font-family="Helvetica,sans-Serif" font-size="10.00">*</text>
<text text-anchor="start" x="44.38" y="-51.5" font-family="Helvetica,sans-Serif" font-size="10.00">operator()()</text>
<text text-anchor="start" x="36.5" y="-36.25" font-family="Helvetica,sans-Serif" font-size="10.00">*</text>
<text text-anchor="start" x="44.38" y="-36.25" font-family="Helvetica,sans-Serif" font-size="10.00">operator()()</text>
<text text-anchor="start" x="36.5" y="-21" font-family="Helvetica,sans-Serif" font-size="10.00">*</text>
<text text-anchor="start" x="44.38" y="-21" font-family="Helvetica,sans-Serif" font-size="10.00">at()</text>
<text text-anchor="start" x="36.5" y="-5.75" font-family="Helvetica,sans-Serif" font-size="10.00">*</text>
<text text-anchor="start" x="44.38" y="-5.75" font-family="Helvetica,sans-Serif" font-size="10.00">data()</text>
<polygon fill="#666666" stroke="#666666" points="32.38,-440.25 32.38,-440.25 137.12,-440.25 137.12,-440.25 32.38,-440.25"/>
<polygon fill="#666666" stroke="#666666" points="32.38,-425 32.38,-425 137.12,-425 137.12,-425 32.38,-425"/>
<polygon fill="none" stroke="#666666" points="32.38,0 32.38,-480 137.12,-480 137.12,0 32.38,0"/>
</a>
</g>
</g>
<!-- Node2 -->
<g id="Node000002" class="node">
<title>Node2</title>
<g id="a_Node000002"><a xlink:title=" ">
<polygon fill="white" stroke="none" points="33.5,-588.25 0,-588.25 0,-538.5 33.5,-538.5 33.5,-588.25"/>
<text text-anchor="start" x="4" y="-574.75" font-family="Helvetica,sans-Serif" font-size="10.00">size_t</text>
<text text-anchor="start" x="15.25" y="-559.5" font-family="Helvetica,sans-Serif" font-size="10.00"> </text>
<text text-anchor="start" x="15.25" y="-544.25" font-family="Helvetica,sans-Serif" font-size="10.00"> </text>
<polygon fill="#666666" stroke="#666666" points="0,-571 0,-571 33.5,-571 33.5,-571 0,-571"/>
<polygon fill="#666666" stroke="#666666" points="0,-555.75 0,-555.75 33.5,-555.75 33.5,-555.75 0,-555.75"/>
<polygon fill="none" stroke="#666666" points="0,-538.5 0,-588.25 33.5,-588.25 33.5,-538.5 0,-538.5"/>
</a>
</g>
</g>
<!-- Node2&#45;&gt;Node1 -->
<g id="edge1_Node000001_Node000002" class="edge">
<title>Node2&#45;&gt;Node1</title>
<g id="a_edge1_Node000001_Node000002"><a xlink:title=" ">
<path fill="none" stroke="#63b8ff" d="M21.75,-538.74C24.29,-526.73 27.66,-510.81 31.52,-492.56"/>
<polygon fill="none" stroke="#63b8ff" points="31.53,-492.53 28.86,-485.83 34.01,-480.79 36.68,-487.49 31.53,-492.53"/>
</a>
</g>
<text text-anchor="middle" x="52.26" y="-511" font-family="Helvetica,sans-Serif" font-size="10.00" fill="grey"> +columns</text>
<text text-anchor="middle" x="52.26" y="-499.75" font-family="Helvetica,sans-Serif" font-size="10.00" fill="grey">+rows</text>
</g>
<!-- Node3 -->
<g id="Node000003" class="node">
<title>Node3</title>
<g id="a_Node000003"><a xlink:title=" ">
<polygon fill="white" stroke="none" points="114.62,-588.25 54.88,-588.25 54.88,-538.5 114.62,-538.5 114.62,-588.25"/>
<text text-anchor="start" x="58.88" y="-574.75" font-family="Helvetica,sans-Serif" font-size="10.00">constexpr(&amp;</text>
<text text-anchor="start" x="83.25" y="-559.5" font-family="Helvetica,sans-Serif" font-size="10.00"> </text>
<text text-anchor="start" x="83.25" y="-544.25" font-family="Helvetica,sans-Serif" font-size="10.00"> </text>
<polygon fill="#666666" stroke="#666666" points="54.88,-571 54.88,-571 114.62,-571 114.62,-571 54.88,-571"/>
<polygon fill="#666666" stroke="#666666" points="54.88,-555.75 54.88,-555.75 114.62,-555.75 114.62,-555.75 54.88,-555.75"/>
<polygon fill="none" stroke="#666666" points="54.88,-538.5 54.88,-588.25 114.62,-588.25 114.62,-538.5 54.88,-538.5"/>
</a>
</g>
</g>
<!-- Node3&#45;&gt;Node1 -->
<g id="edge2_Node000001_Node000003" class="edge">
<title>Node3&#45;&gt;Node1</title>
<g id="a_edge2_Node000001_Node000003"><a xlink:title=" ">
<path fill="none" stroke="#63b8ff" d="M84.75,-538.74C84.75,-526.79 84.75,-510.96 84.75,-492.82"/>
<polygon fill="none" stroke="#63b8ff" points="84.75,-492.81 80.75,-486.81 84.75,-480.81 88.75,-486.81 84.75,-492.81"/>
</a>
</g>
<text text-anchor="middle" x="108.75" y="-505.38" font-family="Helvetica,sans-Serif" font-size="10.00" fill="grey"> +elements</text>
</g>
<!-- Node4 -->
<g id="Node000004" class="node">
<title>Node4</title>
<g id="a_Node000004"><a xlink:title=" ">
<polygon fill="white" stroke="none" points="172.88,-588.25 138.62,-588.25 138.62,-538.5 172.88,-538.5 172.88,-588.25"/>
<text text-anchor="start" x="142.62" y="-574.75" font-family="Helvetica,sans-Serif" font-size="10.00">Matrix</text>
<text text-anchor="start" x="154.25" y="-559.5" font-family="Helvetica,sans-Serif" font-size="10.00"> </text>
<text text-anchor="start" x="154.25" y="-544.25" font-family="Helvetica,sans-Serif" font-size="10.00"> </text>
<polygon fill="#666666" stroke="#666666" points="138.62,-571 138.62,-571 172.88,-571 172.88,-571 138.62,-571"/>
<polygon fill="#666666" stroke="#666666" points="138.62,-555.75 138.62,-555.75 172.88,-555.75 172.88,-555.75 138.62,-555.75"/>
<polygon fill="none" stroke="#666666" points="138.62,-538.5 138.62,-588.25 172.88,-588.25 172.88,-538.5 138.62,-538.5"/>
</a>
</g>
</g>
<!-- Node4&#45;&gt;Node1 -->
<g id="edge3_Node000001_Node000004" class="edge">
<title>Node4&#45;&gt;Node1</title>
<g id="a_edge3_Node000001_Node000004"><a xlink:title=" ">
<path fill="none" stroke="#63b8ff" d="M150.53,-538.74C147.77,-526.26 144.08,-509.55 139.85,-490.39"/>
<polygon fill="none" stroke="#63b8ff" points="139.85,-490.41 134.65,-485.41 137.26,-478.69 142.46,-483.69 139.85,-490.41"/>
</a>
</g>
<text text-anchor="middle" x="164.19" y="-505.38" font-family="Helvetica,sans-Serif" font-size="10.00" fill="grey"> &#45;storage</text>
</g>
</g>
</svg>
