<?xml version="1.0" encoding="UTF-8" standalone="no"?>
<!DOCTYPE svg PUBLIC "-//W3C//DTD SVG 1.1//EN"
 "http://www.w3.org/Graphics/SVG/1.1/DTD/svg11.dtd">
<!-- Generated by graphviz version 12.2.0 (20241103.1931)
 -->
<!-- Title: fcarouge::typed_matrix&lt; Matrix, RowIndexes, ColumnIndexes &gt; Pages: 1 -->
<!--zoomable 901 -->

<svg id="main" version="1.1" xmlns="http://www.w3.org/2000/svg" xmlns:xlink="http://www.w3.org/1999/xlink" xml:space="preserve" onload="init(evt)">

<style type="text/css"><![CDATA[
.node, .edge {opacity: 0.7;}
.node.selected, .edge.selected {opacity: 1;}
.edge:hover path { stroke: red; }
.edge:hover polygon { stroke: red; fill: red; }
]]></style>

<defs>
  <circle id="rim" cx="0" cy="0" r="7"/>
  <circle id="rim2" cx="0" cy="0" r="3.5"/>
  <g id="zoomPlus">
    <use xlink:href="#rim" fill="#404040"><set attributeName="fill" to="#808080" begin="zoomplus.mouseover" end="zoomplus.mouseout"/></use>
    <path d="M-4,0h8M0,-4v8" fill="none" stroke="white" stroke-width="1.5" pointer-events="none"/>
  </g>
  <g id="zoomMin">
    <use xlink:href="#rim" fill="#404040"><set attributeName="fill" to="#808080" begin="zoomminus.mouseover" end="zoomminus.mouseout"/></use>
    <path d="M-4,0h8" fill="none" stroke="white" stroke-width="1.5" pointer-events="none"/>
  </g>
  <g id="arrowUp" transform="translate(30 24)">
    <use xlink:href="#rim"/>
    <path pointer-events="none" fill="none" stroke="white" stroke-width="1.5" d="M0,-3.0v7 M-2.5,-0.5L0,-3.0L2.5,-0.5"/>
  </g>
  <g id="arrowRight" transform="rotate(90) translate(36 -43)">
    <use xlink:href="#rim"/>
    <path pointer-events="none" fill="none" stroke="white" stroke-width="1.5" d="M0,-3.0v7 M-2.5,-0.5L0,-3.0L2.5,-0.5"/>
  </g>
  <g id="arrowDown" transform="rotate(180) translate(-30 -48)">
    <use xlink:href="#rim"/>
    <path pointer-events="none" fill="none" stroke="white" stroke-width="1.5" d="M0,-3.0v7 M-2.5,-0.5L0,-3.0L2.5,-0.5"/>
  </g>
  <g id="arrowLeft" transform="rotate(270) translate(-36 17)">
    <use xlink:href="#rim"/>
    <path pointer-events="none" fill="none" stroke="white" stroke-width="1.5" d="M0,-3.0v7 M-2.5,-0.5L0,-3.0L2.5,-0.5"/>
  </g>
  <g id="resetDef">
    <use xlink:href="#rim2" fill="#404040"><set attributeName="fill" to="#808080" begin="reset.mouseover" end="reset.mouseout"/></use>
  </g>
</defs>
<script type="application/ecmascript">
var viewWidth = 174;
var viewHeight = 901;
var sectionId = 'dynsection-0';
</script>
<script type="application/ecmascript" xlink:href="svg.min.js"/>
<svg id="graph" class="graph">
<g id="viewport">
<title>fcarouge::typed_matrix&lt; Matrix, RowIndexes, ColumnIndexes &gt;</title>
<!-- Node1 -->
<g id="Node000001" class="node">
<title>Node1</title>
<g id="a_Node000001"><a xlink:title="Strongly typed matrix.">
<polygon fill="#999999" stroke="none" points="144.62,-773.75 36.62,-773.75 36.62,0 144.62,0 144.62,-773.75"/>
<text text-anchor="start" x="42.25" y="-760.25" font-family="Helvetica,sans-Serif" font-size="10.00">fcarouge::typed_matrix</text>
<text text-anchor="start" x="42.25" y="-749" font-family="Helvetica,sans-Serif" font-size="10.00">&lt; Matrix, RowIndexes,</text>
<text text-anchor="start" x="52" y="-737.75" font-family="Helvetica,sans-Serif" font-size="10.00"> ColumnIndexes &gt;</text>
<text text-anchor="start" x="89.12" y="-722.5" font-family="Helvetica,sans-Serif" font-size="10.00"> </text>
<text text-anchor="start" x="40.62" y="-707.25" font-family="Helvetica,sans-Serif" font-size="10.00">+</text>
<text text-anchor="start" x="50.62" y="-707.25" font-family="Helvetica,sans-Serif" font-size="10.00">~typed_matrix()</text>
<text text-anchor="start" x="40.62" y="-692" font-family="Helvetica,sans-Serif" font-size="10.00">+</text>
<text text-anchor="start" x="50.62" y="-692" font-family="Helvetica,sans-Serif" font-size="10.00">typed_matrix()</text>
<text text-anchor="start" x="40.62" y="-676.75" font-family="Helvetica,sans-Serif" font-size="10.00">+</text>
<text text-anchor="start" x="50.62" y="-676.75" font-family="Helvetica,sans-Serif" font-size="10.00">typed_matrix()</text>
<text text-anchor="start" x="40.62" y="-661.5" font-family="Helvetica,sans-Serif" font-size="10.00">+</text>
<text text-anchor="start" x="50.62" y="-661.5" font-family="Helvetica,sans-Serif" font-size="10.00">operator=()</text>
<text text-anchor="start" x="40.62" y="-646.25" font-family="Helvetica,sans-Serif" font-size="10.00">+</text>
<text text-anchor="start" x="50.62" y="-646.25" font-family="Helvetica,sans-Serif" font-size="10.00">typed_matrix()</text>
<text text-anchor="start" x="40.62" y="-631" font-family="Helvetica,sans-Serif" font-size="10.00">+</text>
<text text-anchor="start" x="50.62" y="-631" font-family="Helvetica,sans-Serif" font-size="10.00">operator=()</text>
<text text-anchor="start" x="40.62" y="-615.75" font-family="Helvetica,sans-Serif" font-size="10.00">+</text>
<text text-anchor="start" x="50.62" y="-615.75" font-family="Helvetica,sans-Serif" font-size="10.00">explicit()</text>
<text text-anchor="start" x="40.62" y="-600.5" font-family="Helvetica,sans-Serif" font-size="10.00">+</text>
<text text-anchor="start" x="50.62" y="-600.5" font-family="Helvetica,sans-Serif" font-size="10.00">operator=()</text>
<text text-anchor="start" x="40.62" y="-585.25" font-family="Helvetica,sans-Serif" font-size="10.00">+</text>
<text text-anchor="start" x="50.62" y="-585.25" font-family="Helvetica,sans-Serif" font-size="10.00">explicit()</text>
<text text-anchor="start" x="40.62" y="-570" font-family="Helvetica,sans-Serif" font-size="10.00">+</text>
<text text-anchor="start" x="50.62" y="-570" font-family="Helvetica,sans-Serif" font-size="10.00">operator=()</text>
<text text-anchor="start" x="40.62" y="-554.75" font-family="Helvetica,sans-Serif" font-size="10.00">+</text>
<text text-anchor="start" x="50.62" y="-554.75" font-family="Helvetica,sans-Serif" font-size="10.00">typed_matrix()</text>
<text text-anchor="start" x="40.62" y="-539.5" font-family="Helvetica,sans-Serif" font-size="10.00">+</text>
<text text-anchor="start" x="50.62" y="-539.5" font-family="Helvetica,sans-Serif" font-size="10.00">operator=()</text>
<text text-anchor="start" x="40.62" y="-524.25" font-family="Helvetica,sans-Serif" font-size="10.00">+</text>
<text text-anchor="start" x="50.62" y="-524.25" font-family="Helvetica,sans-Serif" font-size="10.00">explicit()</text>
<text text-anchor="start" x="40.62" y="-509" font-family="Helvetica,sans-Serif" font-size="10.00">+</text>
<text text-anchor="start" x="50.62" y="-509" font-family="Helvetica,sans-Serif" font-size="10.00">operator=()</text>
<text text-anchor="start" x="40.62" y="-493.75" font-family="Helvetica,sans-Serif" font-size="10.00">+</text>
<text text-anchor="start" x="50.62" y="-493.75" font-family="Helvetica,sans-Serif" font-size="10.00">typed_matrix()</text>
<text text-anchor="start" x="40.62" y="-478.5" font-family="Helvetica,sans-Serif" font-size="10.00">+</text>
<text text-anchor="start" x="50.62" y="-478.5" font-family="Helvetica,sans-Serif" font-size="10.00">typed_matrix()</text>
<text text-anchor="start" x="40.62" y="-463.25" font-family="Helvetica,sans-Serif" font-size="10.00">+</text>
<text text-anchor="start" x="50.62" y="-463.25" font-family="Helvetica,sans-Serif" font-size="10.00">operator element&lt;&gt;()</text>
<text text-anchor="start" x="40.62" y="-448" font-family="Helvetica,sans-Serif" font-size="10.00">+</text>
<text text-anchor="start" x="50.62" y="-448" font-family="Helvetica,sans-Serif" font-size="10.00">operator[]()</text>
<text text-anchor="start" x="40.62" y="-432.75" font-family="Helvetica,sans-Serif" font-size="10.00">+</text>
<text text-anchor="start" x="50.62" y="-432.75" font-family="Helvetica,sans-Serif" font-size="10.00">operator()()</text>
<text text-anchor="start" x="40.62" y="-417.5" font-family="Helvetica,sans-Serif" font-size="10.00">+</text>
<text text-anchor="start" x="50.62" y="-417.5" font-family="Helvetica,sans-Serif" font-size="10.00">at()</text>
<text text-anchor="start" x="40.62" y="-402.25" font-family="Helvetica,sans-Serif" font-size="10.00">+</text>
<text text-anchor="start" x="50.62" y="-402.25" font-family="Helvetica,sans-Serif" font-size="10.00">data()</text>
<text text-anchor="start" x="41.75" y="-387" font-family="Helvetica,sans-Serif" font-size="10.00">*</text>
<text text-anchor="start" x="50.62" y="-387" font-family="Helvetica,sans-Serif" font-size="10.00">matrix</text>
<text text-anchor="start" x="41.75" y="-371.75" font-family="Helvetica,sans-Serif" font-size="10.00">*</text>
<text text-anchor="start" x="50.62" y="-371.75" font-family="Helvetica,sans-Serif" font-size="10.00">row_indexes</text>
<text text-anchor="start" x="41.75" y="-356.5" font-family="Helvetica,sans-Serif" font-size="10.00">*</text>
<text text-anchor="start" x="50.62" y="-356.5" font-family="Helvetica,sans-Serif" font-size="10.00">column_indexes</text>
<text text-anchor="start" x="41.75" y="-341.25" font-family="Helvetica,sans-Serif" font-size="10.00">*</text>
<text text-anchor="start" x="50.62" y="-341.25" font-family="Helvetica,sans-Serif" font-size="10.00">underlying</text>
<text text-anchor="start" x="41.75" y="-326" font-family="Helvetica,sans-Serif" font-size="10.00">*</text>
<text text-anchor="start" x="50.62" y="-326" font-family="Helvetica,sans-Serif" font-size="10.00">element</text>
<text text-anchor="start" x="41.75" y="-310.75" font-family="Helvetica,sans-Serif" font-size="10.00">*</text>
<text text-anchor="start" x="50.62" y="-310.75" font-family="Helvetica,sans-Serif" font-size="10.00">~typed_matrix()</text>
<text text-anchor="start" x="41.75" y="-295.5" font-family="Helvetica,sans-Serif" font-size="10.00">*</text>
<text text-anchor="start" x="50.62" y="-295.5" font-family="Helvetica,sans-Serif" font-size="10.00">typed_matrix()</text>
<text text-anchor="start" x="41.75" y="-280.25" font-family="Helvetica,sans-Serif" font-size="10.00">*</text>
<text text-anchor="start" x="50.62" y="-280.25" font-family="Helvetica,sans-Serif" font-size="10.00">typed_matrix()</text>
<text text-anchor="start" x="41.75" y="-265" font-family="Helvetica,sans-Serif" font-size="10.00">*</text>
<text text-anchor="start" x="50.62" y="-265" font-family="Helvetica,sans-Serif" font-size="10.00">operator=()</text>
<text text-anchor="start" x="41.75" y="-249.75" font-family="Helvetica,sans-Serif" font-size="10.00">*</text>
<text text-anchor="start" x="50.62" y="-249.75" font-family="Helvetica,sans-Serif" font-size="10.00">typed_matrix()</text>
<text text-anchor="start" x="41.75" y="-234.5" font-family="Helvetica,sans-Serif" font-size="10.00">*</text>
<text text-anchor="start" x="50.62" y="-234.5" font-family="Helvetica,sans-Serif" font-size="10.00">operator=()</text>
<text text-anchor="start" x="41.75" y="-219.25" font-family="Helvetica,sans-Serif" font-size="10.00">*</text>
<text text-anchor="start" x="50.62" y="-219.25" font-family="Helvetica,sans-Serif" font-size="10.00">explicit()</text>
<text text-anchor="start" x="41.75" y="-204" font-family="Helvetica,sans-Serif" font-size="10.00">*</text>
<text text-anchor="start" x="50.62" y="-204" font-family="Helvetica,sans-Serif" font-size="10.00">operator=()</text>
<text text-anchor="start" x="41.75" y="-188.75" font-family="Helvetica,sans-Serif" font-size="10.00">*</text>
<text text-anchor="start" x="50.62" y="-188.75" font-family="Helvetica,sans-Serif" font-size="10.00">explicit()</text>
<text text-anchor="start" x="41.75" y="-173.5" font-family="Helvetica,sans-Serif" font-size="10.00">*</text>
<text text-anchor="start" x="50.62" y="-173.5" font-family="Helvetica,sans-Serif" font-size="10.00">operator=()</text>
<text text-anchor="start" x="41.75" y="-158.25" font-family="Helvetica,sans-Serif" font-size="10.00">*</text>
<text text-anchor="start" x="50.62" y="-158.25" font-family="Helvetica,sans-Serif" font-size="10.00">typed_matrix()</text>
<text text-anchor="start" x="41.75" y="-143" font-family="Helvetica,sans-Serif" font-size="10.00">*</text>
<text text-anchor="start" x="50.62" y="-143" font-family="Helvetica,sans-Serif" font-size="10.00">operator=()</text>
<text text-anchor="start" x="41.75" y="-127.75" font-family="Helvetica,sans-Serif" font-size="10.00">*</text>
<text text-anchor="start" x="50.62" y="-127.75" font-family="Helvetica,sans-Serif" font-size="10.00">explicit()</text>
<text text-anchor="start" x="41.75" y="-112.5" font-family="Helvetica,sans-Serif" font-size="10.00">*</text>
<text text-anchor="start" x="50.62" y="-112.5" font-family="Helvetica,sans-Serif" font-size="10.00">operator=()</text>
<text text-anchor="start" x="41.75" y="-97.25" font-family="Helvetica,sans-Serif" font-size="10.00">*</text>
<text text-anchor="start" x="50.62" y="-97.25" font-family="Helvetica,sans-Serif" font-size="10.00">typed_matrix()</text>
<text text-anchor="start" x="41.75" y="-82" font-family="Helvetica,sans-Serif" font-size="10.00">*</text>
<text text-anchor="start" x="50.62" y="-82" font-family="Helvetica,sans-Serif" font-size="10.00">typed_matrix()</text>
<text text-anchor="start" x="41.75" y="-66.75" font-family="Helvetica,sans-Serif" font-size="10.00">*</text>
<text text-anchor="start" x="50.62" y="-66.75" font-family="Helvetica,sans-Serif" font-size="10.00">operator element&lt;&gt;()</text>
<text text-anchor="start" x="41.75" y="-51.5" font-family="Helvetica,sans-Serif" font-size="10.00">*</text>
<text text-anchor="start" x="50.62" y="-51.5" font-family="Helvetica,sans-Serif" font-size="10.00">operator[]()</text>
<text text-anchor="start" x="41.75" y="-36.25" font-family="Helvetica,sans-Serif" font-size="10.00">*</text>
<text text-anchor="start" x="50.62" y="-36.25" font-family="Helvetica,sans-Serif" font-size="10.00">operator()()</text>
<text text-anchor="start" x="41.75" y="-21" font-family="Helvetica,sans-Serif" font-size="10.00">*</text>
<text text-anchor="start" x="50.62" y="-21" font-family="Helvetica,sans-Serif" font-size="10.00">at()</text>
<text text-anchor="start" x="41.75" y="-5.75" font-family="Helvetica,sans-Serif" font-size="10.00">*</text>
<text text-anchor="start" x="50.62" y="-5.75" font-family="Helvetica,sans-Serif" font-size="10.00">data()</text>
<polygon fill="#666666" stroke="#666666" points="36.62,-734 36.62,-734 144.62,-734 144.62,-734 36.62,-734"/>
<polygon fill="#666666" stroke="#666666" points="36.62,-718.75 36.62,-718.75 144.62,-718.75 144.62,-718.75 36.62,-718.75"/>
<polygon fill="none" stroke="#666666" points="36.62,0 36.62,-773.75 144.62,-773.75 144.62,0 36.62,0"/>
</a>
</g>
</g>
<!-- Node2 -->
<g id="Node000002" class="node">
<title>Node2</title>
<g id="a_Node000002"><a xlink:title=" ">
<polygon fill="white" stroke="none" points="97.25,-893.25 0,-893.25 0,-843.5 97.25,-843.5 97.25,-893.25"/>
<text text-anchor="start" x="4" y="-879.75" font-family="Helvetica,sans-Serif" font-size="10.00">static constexpr auto</text>
<text text-anchor="start" x="47.12" y="-864.5" font-family="Helvetica,sans-Serif" font-size="10.00"> </text>
<text text-anchor="start" x="47.12" y="-849.25" font-family="Helvetica,sans-Serif" font-size="10.00"> </text>
<polygon fill="#666666" stroke="#666666" points="0,-876 0,-876 97.25,-876 97.25,-876 0,-876"/>
<polygon fill="#666666" stroke="#666666" points="0,-860.75 0,-860.75 97.25,-860.75 97.25,-860.75 0,-860.75"/>
<polygon fill="none" stroke="#666666" points="0,-843.5 0,-893.25 97.25,-893.25 97.25,-843.5 0,-843.5"/>
</a>
</g>
</g>
<!-- Node2&#45;&gt;Node1 -->
<g id="edge1_Node000001_Node000002" class="edge">
<title>Node2&#45;&gt;Node1</title>
<g id="a_edge1_Node000001_Node000002"><a xlink:title=" ">
<path fill="none" stroke="#63b8ff" d="M50.71,-843.6C51.94,-829.5 53.66,-809.84 55.71,-786.53"/>
<polygon fill="none" stroke="#63b8ff" points="55.71,-786.48 52.25,-780.15 56.76,-774.52 60.22,-780.85 55.71,-786.48"/>
</a>
</g>
<text text-anchor="middle" x="77.22" y="-816" font-family="Helvetica,sans-Serif" font-size="10.00" fill="grey"> +columns</text>
<text text-anchor="middle" x="77.22" y="-804.75" font-family="Helvetica,sans-Serif" font-size="10.00" fill="grey">+rank</text>
<text text-anchor="middle" x="77.22" y="-793.5" font-family="Helvetica,sans-Serif" font-size="10.00" fill="grey">+rows</text>
</g>
<!-- Node3 -->
<g id="Node000003" class="node">
<title>Node3</title>
<g id="a_Node000003"><a xlink:title=" ">
<polygon fill="white" stroke="none" points="149.75,-893.25 115.5,-893.25 115.5,-843.5 149.75,-843.5 149.75,-893.25"/>
<text text-anchor="start" x="119.5" y="-879.75" font-family="Helvetica,sans-Serif" font-size="10.00">Matrix</text>
<text text-anchor="start" x="131.12" y="-864.5" font-family="Helvetica,sans-Serif" font-size="10.00"> </text>
<text text-anchor="start" x="131.12" y="-849.25" font-family="Helvetica,sans-Serif" font-size="10.00"> </text>
<polygon fill="#666666" stroke="#666666" points="115.5,-876 115.5,-876 149.75,-876 149.75,-876 115.5,-876"/>
<polygon fill="#666666" stroke="#666666" points="115.5,-860.75 115.5,-860.75 149.75,-860.75 149.75,-860.75 115.5,-860.75"/>
<polygon fill="none" stroke="#666666" points="115.5,-843.5 115.5,-893.25 149.75,-893.25 149.75,-843.5 115.5,-843.5"/>
</a>
</g>
</g>
<!-- Node3&#45;&gt;Node1 -->
<g id="edge2_Node000001_Node000003" class="edge">
<title>Node3&#45;&gt;Node1</title>
<g id="a_edge2_Node000001_Node000003"><a xlink:title=" ">
<path fill="none" stroke="#63b8ff" d="M130.54,-843.6C129.31,-829.5 127.59,-809.84 125.54,-786.53"/>
<polygon fill="none" stroke="#63b8ff" points="125.54,-786.48 121.03,-780.85 124.49,-774.52 129,-780.15 125.54,-786.48"/>
</a>
</g>
<text text-anchor="middle" x="147.01" y="-804.75" font-family="Helvetica,sans-Serif" font-size="10.00" fill="grey"> &#45;storage</text>
</g>
</g>
</svg>

<g id="navigator" transform="translate(0 0)" fill="#404254">
  <rect fill="#f2f5e9" fill-opacity="0.5" stroke="#606060" stroke-width=".5" x="0" y="0" width="60" height="60"/>
  <use id="zoomplus" xlink:href="#zoomPlus" x="17" y="9" onmousedown="handleZoom(evt,'in')"/>
  <use id="zoomminus" xlink:href="#zoomMin" x="42" y="9" onmousedown="handleZoom(evt,'out')"/>
  <use id="reset" xlink:href="#resetDef" x="30" y="36" onmousedown="handleReset()"/>
   <use id="arrowup" xlink:href="#arrowUp" x="0" y="0" onmousedown="handlePan(0,-1)"/>
  <use id="arrowright" xlink:href="#arrowRight" x="0" y="0" onmousedown="handlePan(1,0)"/>
  <use id="arrowdown" xlink:href="#arrowDown" x="0" y="0" onmousedown="handlePan(0,1)"/>
  <use id="arrowleft" xlink:href="#arrowLeft" x="0" y="0" onmousedown="handlePan(-1,0)"/>
</g>
<svg viewBox="0 0 15 15" width="100%" height="30px" preserveAspectRatio="xMaxYMin meet">
 <g id="arrow_out" transform="scale(0.3 0.3)">
  <a xlink:href="classfcarouge_1_1typed__matrix__coll__graph_org.svg" target="_base">
   <rect id="button" ry="5" rx="5" y="6" x="6" height="38" width="38"
        fill="#f2f5e9" fill-opacity="0.5" stroke="#606060" stroke-width="1.0"/>
   <path id="arrow"
     d="M 11.500037,31.436501 C 11.940474,20.09759 22.043105,11.32322 32.158766,21.979434 L 37.068811,17.246167 C 37.068811,17.246167 37.088388,32 37.088388,32 L 22.160133,31.978069 C 22.160133,31.978069 26.997745,27.140456 26.997745,27.140456 C 18.528582,18.264221 13.291696,25.230495 11.500037,31.436501 z"
     style="fill:#404040;"/>
  </a>
 </g>
</svg>

<style type='text/css'>
<![CDATA[
[data-mouse-over-selected='false'] { opacity: 0.7; }
[data-mouse-over-selected='true']  { opacity: 1.0; }
]]>
</style>
<script type="application/ecmascript"><![CDATA[
document.addEventListener('DOMContentLoaded', (event) => {
  highlightEdges();
  highlightAdjacentNodes();
});
]]></script>
</svg>
