<?xml version="1.0" encoding="UTF-8" standalone="no"?>
<!DOCTYPE svg PUBLIC "-//W3C//DTD SVG 1.1//EN"
 "http://www.w3.org/Graphics/SVG/1.1/DTD/svg11.dtd">
<!-- Generated by graphviz version 12.2.0 (20241103.1931)
 -->
<!-- Title: fcarouge::typed_matrix&lt; Matrix, RowIndexes, ColumnIndexes &gt; Pages: 1 -->
<!--zoomable 974 -->

<svg id="main" version="1.1" xmlns="http://www.w3.org/2000/svg" xmlns:xlink="http://www.w3.org/1999/xlink" xml:space="preserve" onload="init(evt)">

<style type="text/css"><![CDATA[
.node, .edge {opacity: 0.7;}
.node.selected, .edge.selected {opacity: 1;}
.edge:hover path { stroke: red; }
.edge:hover polygon { stroke: red; fill: red; }
]]></style>

<defs>
  <circle id="rim" cx="0" cy="0" r="7"/>
  <circle id="rim2" cx="0" cy="0" r="3.5"/>
  <g id="zoomPlus">
    <use xlink:href="#rim" fill="#404040"><set attributeName="fill" to="#808080" begin="zoomplus.mouseover" end="zoomplus.mouseout"/></use>
    <path d="M-4,0h8M0,-4v8" fill="none" stroke="white" stroke-width="1.5" pointer-events="none"/>
  </g>
  <g id="zoomMin">
    <use xlink:href="#rim" fill="#404040"><set attributeName="fill" to="#808080" begin="zoomminus.mouseover" end="zoomminus.mouseout"/></use>
    <path d="M-4,0h8" fill="none" stroke="white" stroke-width="1.5" pointer-events="none"/>
  </g>
  <g id="arrowUp" transform="translate(30 24)">
    <use xlink:href="#rim"/>
    <path pointer-events="none" fill="none" stroke="white" stroke-width="1.5" d="M0,-3.0v7 M-2.5,-0.5L0,-3.0L2.5,-0.5"/>
  </g>
  <g id="arrowRight" transform="rotate(90) translate(36 -43)">
    <use xlink:href="#rim"/>
    <path pointer-events="none" fill="none" stroke="white" stroke-width="1.5" d="M0,-3.0v7 M-2.5,-0.5L0,-3.0L2.5,-0.5"/>
  </g>
  <g id="arrowDown" transform="rotate(180) translate(-30 -48)">
    <use xlink:href="#rim"/>
    <path pointer-events="none" fill="none" stroke="white" stroke-width="1.5" d="M0,-3.0v7 M-2.5,-0.5L0,-3.0L2.5,-0.5"/>
  </g>
  <g id="arrowLeft" transform="rotate(270) translate(-36 17)">
    <use xlink:href="#rim"/>
    <path pointer-events="none" fill="none" stroke="white" stroke-width="1.5" d="M0,-3.0v7 M-2.5,-0.5L0,-3.0L2.5,-0.5"/>
  </g>
  <g id="resetDef">
    <use xlink:href="#rim2" fill="#404040"><set attributeName="fill" to="#808080" begin="reset.mouseover" end="reset.mouseout"/></use>
  </g>
</defs>
<script type="application/ecmascript">
var viewWidth = 130;
var viewHeight = 974;
var sectionId = 'dynsection-0';
</script>
<script type="application/ecmascript" xlink:href="svg.min.js"/>
<svg id="graph" class="graph">
<g id="viewport">
<title>fcarouge::typed_matrix&lt; Matrix, RowIndexes, ColumnIndexes &gt;</title>
<!-- Node1 -->
<g id="Node000001" class="node">
<title>Node1</title>
<g id="a_Node000001"><a xlink:title="Strongly typed matrix.">
<polygon fill="#999999" stroke="none" points="106.5,-857.25 0,-857.25 0,0 106.5,0 106.5,-857.25"/>
<text text-anchor="start" x="4.88" y="-843.75" font-family="Helvetica,sans-Serif" font-size="10.00">fcarouge::typed_matrix</text>
<text text-anchor="start" x="4.88" y="-832.5" font-family="Helvetica,sans-Serif" font-size="10.00">&lt; Matrix, RowIndexes,</text>
<text text-anchor="start" x="14.62" y="-821.25" font-family="Helvetica,sans-Serif" font-size="10.00"> ColumnIndexes &gt;</text>
<text text-anchor="start" x="51.75" y="-806" font-family="Helvetica,sans-Serif" font-size="10.00"> </text>
<text text-anchor="start" x="4" y="-790.75" font-family="Helvetica,sans-Serif" font-size="10.00">+</text>
<text text-anchor="start" x="14" y="-790.75" font-family="Helvetica,sans-Serif" font-size="10.00">~typed_matrix()</text>
<text text-anchor="start" x="4" y="-775.5" font-family="Helvetica,sans-Serif" font-size="10.00">+</text>
<text text-anchor="start" x="14" y="-775.5" font-family="Helvetica,sans-Serif" font-size="10.00">typed_matrix()</text>
<text text-anchor="start" x="4" y="-760.25" font-family="Helvetica,sans-Serif" font-size="10.00">+</text>
<text text-anchor="start" x="14" y="-760.25" font-family="Helvetica,sans-Serif" font-size="10.00">typed_matrix()</text>
<text text-anchor="start" x="4" y="-745" font-family="Helvetica,sans-Serif" font-size="10.00">+</text>
<text text-anchor="start" x="14" y="-745" font-family="Helvetica,sans-Serif" font-size="10.00">operator=()</text>
<text text-anchor="start" x="4" y="-729.75" font-family="Helvetica,sans-Serif" font-size="10.00">+</text>
<text text-anchor="start" x="14" y="-729.75" font-family="Helvetica,sans-Serif" font-size="10.00">typed_matrix()</text>
<text text-anchor="start" x="4" y="-714.5" font-family="Helvetica,sans-Serif" font-size="10.00">+</text>
<text text-anchor="start" x="14" y="-714.5" font-family="Helvetica,sans-Serif" font-size="10.00">operator=()</text>
<text text-anchor="start" x="4" y="-699.25" font-family="Helvetica,sans-Serif" font-size="10.00">+</text>
<text text-anchor="start" x="14" y="-699.25" font-family="Helvetica,sans-Serif" font-size="10.00">typed_matrix()</text>
<text text-anchor="start" x="4" y="-684" font-family="Helvetica,sans-Serif" font-size="10.00">+</text>
<text text-anchor="start" x="14" y="-684" font-family="Helvetica,sans-Serif" font-size="10.00">typed_matrix()</text>
<text text-anchor="start" x="4" y="-668.75" font-family="Helvetica,sans-Serif" font-size="10.00">+</text>
<text text-anchor="start" x="14" y="-668.75" font-family="Helvetica,sans-Serif" font-size="10.00">typed_matrix()</text>
<text text-anchor="start" x="4" y="-653.5" font-family="Helvetica,sans-Serif" font-size="10.00">+</text>
<text text-anchor="start" x="14" y="-653.5" font-family="Helvetica,sans-Serif" font-size="10.00">typed_matrix()</text>
<text text-anchor="start" x="4" y="-638.25" font-family="Helvetica,sans-Serif" font-size="10.00">+</text>
<text text-anchor="start" x="14" y="-638.25" font-family="Helvetica,sans-Serif" font-size="10.00">typed_matrix()</text>
<text text-anchor="start" x="4" y="-623" font-family="Helvetica,sans-Serif" font-size="10.00">+</text>
<text text-anchor="start" x="14" y="-623" font-family="Helvetica,sans-Serif" font-size="10.00">typed_matrix()</text>
<text text-anchor="start" x="4" y="-607.75" font-family="Helvetica,sans-Serif" font-size="10.00">+</text>
<text text-anchor="start" x="14" y="-607.75" font-family="Helvetica,sans-Serif" font-size="10.00">typed_matrix()</text>
<text text-anchor="start" x="4" y="-592.5" font-family="Helvetica,sans-Serif" font-size="10.00">+</text>
<text text-anchor="start" x="14" y="-592.5" font-family="Helvetica,sans-Serif" font-size="10.00">operator element&lt; 0,</text>
<text text-anchor="start" x="14" y="-581.25" font-family="Helvetica,sans-Serif" font-size="10.00"> 0 &gt;()</text>
<text text-anchor="start" x="4" y="-566" font-family="Helvetica,sans-Serif" font-size="10.00">+</text>
<text text-anchor="start" x="14" y="-566" font-family="Helvetica,sans-Serif" font-size="10.00">operator[]()</text>
<text text-anchor="start" x="4" y="-550.75" font-family="Helvetica,sans-Serif" font-size="10.00">+</text>
<text text-anchor="start" x="14" y="-550.75" font-family="Helvetica,sans-Serif" font-size="10.00">operator[]()</text>
<text text-anchor="start" x="4" y="-535.5" font-family="Helvetica,sans-Serif" font-size="10.00">+</text>
<text text-anchor="start" x="14" y="-535.5" font-family="Helvetica,sans-Serif" font-size="10.00">operator()()</text>
<text text-anchor="start" x="4" y="-520.25" font-family="Helvetica,sans-Serif" font-size="10.00">+</text>
<text text-anchor="start" x="14" y="-520.25" font-family="Helvetica,sans-Serif" font-size="10.00">operator()()</text>
<text text-anchor="start" x="4" y="-505" font-family="Helvetica,sans-Serif" font-size="10.00">+</text>
<text text-anchor="start" x="14" y="-505" font-family="Helvetica,sans-Serif" font-size="10.00">at()</text>
<text text-anchor="start" x="4" y="-489.75" font-family="Helvetica,sans-Serif" font-size="10.00">+</text>
<text text-anchor="start" x="14" y="-489.75" font-family="Helvetica,sans-Serif" font-size="10.00">at()</text>
<text text-anchor="start" x="4" y="-474.5" font-family="Helvetica,sans-Serif" font-size="10.00">+</text>
<text text-anchor="start" x="14" y="-474.5" font-family="Helvetica,sans-Serif" font-size="10.00">at()</text>
<text text-anchor="start" x="4" y="-459.25" font-family="Helvetica,sans-Serif" font-size="10.00">+</text>
<text text-anchor="start" x="14" y="-459.25" font-family="Helvetica,sans-Serif" font-size="10.00">at()</text>
<text text-anchor="start" x="4" y="-444" font-family="Helvetica,sans-Serif" font-size="10.00">+</text>
<text text-anchor="start" x="14" y="-444" font-family="Helvetica,sans-Serif" font-size="10.00">data()</text>
<text text-anchor="start" x="5.12" y="-428.75" font-family="Helvetica,sans-Serif" font-size="10.00">*</text>
<text text-anchor="start" x="14" y="-428.75" font-family="Helvetica,sans-Serif" font-size="10.00">matrix</text>
<text text-anchor="start" x="5.12" y="-413.5" font-family="Helvetica,sans-Serif" font-size="10.00">*</text>
<text text-anchor="start" x="14" y="-413.5" font-family="Helvetica,sans-Serif" font-size="10.00">row_indexes</text>
<text text-anchor="start" x="5.12" y="-398.25" font-family="Helvetica,sans-Serif" font-size="10.00">*</text>
<text text-anchor="start" x="14" y="-398.25" font-family="Helvetica,sans-Serif" font-size="10.00">column_indexes</text>
<text text-anchor="start" x="5.12" y="-383" font-family="Helvetica,sans-Serif" font-size="10.00">*</text>
<text text-anchor="start" x="14" y="-383" font-family="Helvetica,sans-Serif" font-size="10.00">underlying</text>
<text text-anchor="start" x="5.12" y="-367.75" font-family="Helvetica,sans-Serif" font-size="10.00">*</text>
<text text-anchor="start" x="14" y="-367.75" font-family="Helvetica,sans-Serif" font-size="10.00">element</text>
<text text-anchor="start" x="5.12" y="-352.5" font-family="Helvetica,sans-Serif" font-size="10.00">*</text>
<text text-anchor="start" x="14" y="-352.5" font-family="Helvetica,sans-Serif" font-size="10.00">~typed_matrix()</text>
<text text-anchor="start" x="5.12" y="-337.25" font-family="Helvetica,sans-Serif" font-size="10.00">*</text>
<text text-anchor="start" x="14" y="-337.25" font-family="Helvetica,sans-Serif" font-size="10.00">typed_matrix()</text>
<text text-anchor="start" x="5.12" y="-322" font-family="Helvetica,sans-Serif" font-size="10.00">*</text>
<text text-anchor="start" x="14" y="-322" font-family="Helvetica,sans-Serif" font-size="10.00">typed_matrix()</text>
<text text-anchor="start" x="5.12" y="-306.75" font-family="Helvetica,sans-Serif" font-size="10.00">*</text>
<text text-anchor="start" x="14" y="-306.75" font-family="Helvetica,sans-Serif" font-size="10.00">operator=()</text>
<text text-anchor="start" x="5.12" y="-291.5" font-family="Helvetica,sans-Serif" font-size="10.00">*</text>
<text text-anchor="start" x="14" y="-291.5" font-family="Helvetica,sans-Serif" font-size="10.00">typed_matrix()</text>
<text text-anchor="start" x="5.12" y="-276.25" font-family="Helvetica,sans-Serif" font-size="10.00">*</text>
<text text-anchor="start" x="14" y="-276.25" font-family="Helvetica,sans-Serif" font-size="10.00">operator=()</text>
<text text-anchor="start" x="5.12" y="-261" font-family="Helvetica,sans-Serif" font-size="10.00">*</text>
<text text-anchor="start" x="14" y="-261" font-family="Helvetica,sans-Serif" font-size="10.00">typed_matrix()</text>
<text text-anchor="start" x="5.12" y="-245.75" font-family="Helvetica,sans-Serif" font-size="10.00">*</text>
<text text-anchor="start" x="14" y="-245.75" font-family="Helvetica,sans-Serif" font-size="10.00">typed_matrix()</text>
<text text-anchor="start" x="5.12" y="-230.5" font-family="Helvetica,sans-Serif" font-size="10.00">*</text>
<text text-anchor="start" x="14" y="-230.5" font-family="Helvetica,sans-Serif" font-size="10.00">typed_matrix()</text>
<text text-anchor="start" x="5.12" y="-215.25" font-family="Helvetica,sans-Serif" font-size="10.00">*</text>
<text text-anchor="start" x="14" y="-215.25" font-family="Helvetica,sans-Serif" font-size="10.00">typed_matrix()</text>
<text text-anchor="start" x="5.12" y="-200" font-family="Helvetica,sans-Serif" font-size="10.00">*</text>
<text text-anchor="start" x="14" y="-200" font-family="Helvetica,sans-Serif" font-size="10.00">typed_matrix()</text>
<text text-anchor="start" x="5.12" y="-184.75" font-family="Helvetica,sans-Serif" font-size="10.00">*</text>
<text text-anchor="start" x="14" y="-184.75" font-family="Helvetica,sans-Serif" font-size="10.00">typed_matrix()</text>
<text text-anchor="start" x="5.12" y="-169.5" font-family="Helvetica,sans-Serif" font-size="10.00">*</text>
<text text-anchor="start" x="14" y="-169.5" font-family="Helvetica,sans-Serif" font-size="10.00">typed_matrix()</text>
<text text-anchor="start" x="5.12" y="-154.25" font-family="Helvetica,sans-Serif" font-size="10.00">*</text>
<text text-anchor="start" x="14" y="-154.25" font-family="Helvetica,sans-Serif" font-size="10.00">operator element&lt; 0,</text>
<text text-anchor="start" x="14" y="-143" font-family="Helvetica,sans-Serif" font-size="10.00"> 0 &gt;()</text>
<text text-anchor="start" x="5.12" y="-127.75" font-family="Helvetica,sans-Serif" font-size="10.00">*</text>
<text text-anchor="start" x="14" y="-127.75" font-family="Helvetica,sans-Serif" font-size="10.00">operator[]()</text>
<text text-anchor="start" x="5.12" y="-112.5" font-family="Helvetica,sans-Serif" font-size="10.00">*</text>
<text text-anchor="start" x="14" y="-112.5" font-family="Helvetica,sans-Serif" font-size="10.00">operator[]()</text>
<text text-anchor="start" x="5.12" y="-97.25" font-family="Helvetica,sans-Serif" font-size="10.00">*</text>
<text text-anchor="start" x="14" y="-97.25" font-family="Helvetica,sans-Serif" font-size="10.00">operator()()</text>
<text text-anchor="start" x="5.12" y="-82" font-family="Helvetica,sans-Serif" font-size="10.00">*</text>
<text text-anchor="start" x="14" y="-82" font-family="Helvetica,sans-Serif" font-size="10.00">operator()()</text>
<text text-anchor="start" x="5.12" y="-66.75" font-family="Helvetica,sans-Serif" font-size="10.00">*</text>
<text text-anchor="start" x="14" y="-66.75" font-family="Helvetica,sans-Serif" font-size="10.00">at()</text>
<text text-anchor="start" x="5.12" y="-51.5" font-family="Helvetica,sans-Serif" font-size="10.00">*</text>
<text text-anchor="start" x="14" y="-51.5" font-family="Helvetica,sans-Serif" font-size="10.00">at()</text>
<text text-anchor="start" x="5.12" y="-36.25" font-family="Helvetica,sans-Serif" font-size="10.00">*</text>
<text text-anchor="start" x="14" y="-36.25" font-family="Helvetica,sans-Serif" font-size="10.00">at()</text>
<text text-anchor="start" x="5.12" y="-21" font-family="Helvetica,sans-Serif" font-size="10.00">*</text>
<text text-anchor="start" x="14" y="-21" font-family="Helvetica,sans-Serif" font-size="10.00">at()</text>
<text text-anchor="start" x="5.12" y="-5.75" font-family="Helvetica,sans-Serif" font-size="10.00">*</text>
<text text-anchor="start" x="14" y="-5.75" font-family="Helvetica,sans-Serif" font-size="10.00">data()</text>
<polygon fill="#666666" stroke="#666666" points="0,-817.5 0,-817.5 106.5,-817.5 106.5,-817.5 0,-817.5"/>
<polygon fill="#666666" stroke="#666666" points="0,-802.25 0,-802.25 106.5,-802.25 106.5,-802.25 0,-802.25"/>
<polygon fill="none" stroke="#666666" points="0,0 0,-857.25 106.5,-857.25 106.5,0 0,0"/>
</a>
</g>
</g>
<!-- Node2 -->
<g id="Node000002" class="node">
<title>Node2</title>
<g id="a_Node000002"><a xlink:title=" ">
<polygon fill="white" stroke="none" points="36,-965.5 2.5,-965.5 2.5,-915.75 36,-915.75 36,-965.5"/>
<text text-anchor="start" x="6.5" y="-952" font-family="Helvetica,sans-Serif" font-size="10.00">size_t</text>
<text text-anchor="start" x="17.75" y="-936.75" font-family="Helvetica,sans-Serif" font-size="10.00"> </text>
<text text-anchor="start" x="17.75" y="-921.5" font-family="Helvetica,sans-Serif" font-size="10.00"> </text>
<polygon fill="#666666" stroke="#666666" points="2.5,-948.25 2.5,-948.25 36,-948.25 36,-948.25 2.5,-948.25"/>
<polygon fill="#666666" stroke="#666666" points="2.5,-933 2.5,-933 36,-933 36,-933 2.5,-933"/>
<polygon fill="none" stroke="#666666" points="2.5,-915.75 2.5,-965.5 36,-965.5 36,-915.75 2.5,-915.75"/>
</a>
</g>
</g>
<!-- Node2&#45;&gt;Node1 -->
<g id="edge1_Node000001_Node000002" class="edge">
<title>Node2&#45;&gt;Node1</title>
<g id="a_edge1_Node000001_Node000002"><a xlink:title=" ">
<path fill="none" stroke="#63b8ff" d="M19.29,-915.77C19.39,-903.63 19.65,-888.65 20.25,-875.25 20.33,-873.47 20.41,-871.68 20.49,-869.89"/>
<polygon fill="none" stroke="#63b8ff" points="20.49,-869.99 16.78,-863.81 21.05,-858.01 24.77,-864.19 20.49,-869.99"/>
</a>
</g>
<text text-anchor="middle" x="42.75" y="-888.25" font-family="Helvetica,sans-Serif" font-size="10.00" fill="grey"> +columns</text>
<text text-anchor="middle" x="42.75" y="-877" font-family="Helvetica,sans-Serif" font-size="10.00" fill="grey">+rows</text>
</g>
<!-- Node3 -->
<g id="Node000003" class="node">
<title>Node3</title>
<g id="a_Node000003"><a xlink:title=" ">
<polygon fill="white" stroke="none" points="104.38,-965.5 70.12,-965.5 70.12,-915.75 104.38,-915.75 104.38,-965.5"/>
<text text-anchor="start" x="74.12" y="-952" font-family="Helvetica,sans-Serif" font-size="10.00">Matrix</text>
<text text-anchor="start" x="85.75" y="-936.75" font-family="Helvetica,sans-Serif" font-size="10.00"> </text>
<text text-anchor="start" x="85.75" y="-921.5" font-family="Helvetica,sans-Serif" font-size="10.00"> </text>
<polygon fill="#666666" stroke="#666666" points="70.12,-948.25 70.12,-948.25 104.38,-948.25 104.38,-948.25 70.12,-948.25"/>
<polygon fill="#666666" stroke="#666666" points="70.12,-933 70.12,-933 104.38,-933 104.38,-933 70.12,-933"/>
<polygon fill="none" stroke="#666666" points="70.12,-915.75 70.12,-965.5 104.38,-965.5 104.38,-915.75 70.12,-915.75"/>
</a>
</g>
</g>
<!-- Node3&#45;&gt;Node1 -->
<g id="edge2_Node000001_Node000003" class="edge">
<title>Node3&#45;&gt;Node1</title>
<g id="a_edge2_Node000001_Node000003"><a xlink:title=" ">
<path fill="none" stroke="#63b8ff" d="M85.68,-916.05C84.89,-904.29 83.85,-888.61 82.61,-870.09"/>
<polygon fill="none" stroke="#63b8ff" points="82.61,-870.04 78.22,-864.32 81.81,-858.07 86.2,-863.79 82.61,-870.04"/>
</a>
</g>
<text text-anchor="middle" x="103.09" y="-882.62" font-family="Helvetica,sans-Serif" font-size="10.00" fill="grey"> &#45;storage</text>
</g>
</g>
</svg>

<g id="navigator" transform="translate(0 0)" fill="#404254">
  <rect fill="#f2f5e9" fill-opacity="0.5" stroke="#606060" stroke-width=".5" x="0" y="0" width="60" height="60"/>
  <use id="zoomplus" xlink:href="#zoomPlus" x="17" y="9" onmousedown="handleZoom(evt,'in')"/>
  <use id="zoomminus" xlink:href="#zoomMin" x="42" y="9" onmousedown="handleZoom(evt,'out')"/>
  <use id="reset" xlink:href="#resetDef" x="30" y="36" onmousedown="handleReset()"/>
   <use id="arrowup" xlink:href="#arrowUp" x="0" y="0" onmousedown="handlePan(0,-1)"/>
  <use id="arrowright" xlink:href="#arrowRight" x="0" y="0" onmousedown="handlePan(1,0)"/>
  <use id="arrowdown" xlink:href="#arrowDown" x="0" y="0" onmousedown="handlePan(0,1)"/>
  <use id="arrowleft" xlink:href="#arrowLeft" x="0" y="0" onmousedown="handlePan(-1,0)"/>
</g>
<svg viewBox="0 0 15 15" width="100%" height="30px" preserveAspectRatio="xMaxYMin meet">
 <g id="arrow_out" transform="scale(0.3 0.3)">
  <a xlink:href="classfcarouge_1_1typed__matrix__coll__graph_org.svg" target="_base">
   <rect id="button" ry="5" rx="5" y="6" x="6" height="38" width="38"
        fill="#f2f5e9" fill-opacity="0.5" stroke="#606060" stroke-width="1.0"/>
   <path id="arrow"
     d="M 11.500037,31.436501 C 11.940474,20.09759 22.043105,11.32322 32.158766,21.979434 L 37.068811,17.246167 C 37.068811,17.246167 37.088388,32 37.088388,32 L 22.160133,31.978069 C 22.160133,31.978069 26.997745,27.140456 26.997745,27.140456 C 18.528582,18.264221 13.291696,25.230495 11.500037,31.436501 z"
     style="fill:#404040;"/>
  </a>
 </g>
</svg>

<style type='text/css'>
<![CDATA[
[data-mouse-over-selected='false'] { opacity: 0.7; }
[data-mouse-over-selected='true']  { opacity: 1.0; }
]]>
</style>
<script type="application/ecmascript"><![CDATA[
document.addEventListener('DOMContentLoaded', (event) => {
  highlightEdges();
  highlightAdjacentNodes();
});
]]></script>
</svg>
