<?xml version="1.0" encoding="UTF-8" standalone="no"?>
<!DOCTYPE svg PUBLIC "-//W3C//DTD SVG 1.1//EN"
 "http://www.w3.org/Graphics/SVG/1.1/DTD/svg11.dtd">
<!-- Generated by graphviz version 12.2.0 (20241103.1931)
 -->
<!-- Title: fcarouge::typed_matrix&lt; Matrix, RowIndexes, ColumnIndexes &gt; Pages: 1 -->
<svg width="191pt" height="577pt"
 viewBox="0.00 0.00 190.94 577.00" xmlns="http://www.w3.org/2000/svg" xmlns:xlink="http://www.w3.org/1999/xlink">
<g id="graph0" class="graph" transform="scale(1 1) rotate(0) translate(4 573)">
<title>fcarouge::typed_matrix&lt; Matrix, RowIndexes, ColumnIndexes &gt;</title>
<!-- Node1 -->
<g id="Node000001" class="node">
<title>Node1</title>
<g id="a_Node000001"><a xlink:title="Strongly typed matrix.">
<polygon fill="#999999" stroke="none" points="137.12,-449.5 32.38,-449.5 32.38,0 137.12,0 137.12,-449.5"/>
<text text-anchor="start" x="36.38" y="-436" font-family="Helvetica,sans-Serif" font-size="10.00">fcarouge::typed_matrix</text>
<text text-anchor="start" x="36.38" y="-424.75" font-family="Helvetica,sans-Serif" font-size="10.00">&lt; Matrix, RowIndexes,</text>
<text text-anchor="start" x="46.12" y="-413.5" font-family="Helvetica,sans-Serif" font-size="10.00"> ColumnIndexes &gt;</text>
<text text-anchor="start" x="83.25" y="-398.25" font-family="Helvetica,sans-Serif" font-size="10.00"> </text>
<text text-anchor="start" x="36.5" y="-383" font-family="Helvetica,sans-Serif" font-size="10.00">*</text>
<text text-anchor="start" x="44.38" y="-383" font-family="Helvetica,sans-Serif" font-size="10.00">matrix</text>
<text text-anchor="start" x="36.5" y="-367.75" font-family="Helvetica,sans-Serif" font-size="10.00">*</text>
<text text-anchor="start" x="44.38" y="-367.75" font-family="Helvetica,sans-Serif" font-size="10.00">row_indexes</text>
<text text-anchor="start" x="36.5" y="-352.5" font-family="Helvetica,sans-Serif" font-size="10.00">*</text>
<text text-anchor="start" x="44.38" y="-352.5" font-family="Helvetica,sans-Serif" font-size="10.00">column_indexes</text>
<text text-anchor="start" x="36.5" y="-337.25" font-family="Helvetica,sans-Serif" font-size="10.00">*</text>
<text text-anchor="start" x="44.38" y="-337.25" font-family="Helvetica,sans-Serif" font-size="10.00">underlying</text>
<text text-anchor="start" x="36.5" y="-322" font-family="Helvetica,sans-Serif" font-size="10.00">*</text>
<text text-anchor="start" x="44.38" y="-322" font-family="Helvetica,sans-Serif" font-size="10.00">element</text>
<text text-anchor="start" x="36.5" y="-306.75" font-family="Helvetica,sans-Serif" font-size="10.00">*</text>
<text text-anchor="start" x="44.38" y="-306.75" font-family="Helvetica,sans-Serif" font-size="10.00">~typed_matrix()</text>
<text text-anchor="start" x="36.5" y="-291.5" font-family="Helvetica,sans-Serif" font-size="10.00">*</text>
<text text-anchor="start" x="44.38" y="-291.5" font-family="Helvetica,sans-Serif" font-size="10.00">typed_matrix()</text>
<text text-anchor="start" x="36.5" y="-276.25" font-family="Helvetica,sans-Serif" font-size="10.00">*</text>
<text text-anchor="start" x="44.38" y="-276.25" font-family="Helvetica,sans-Serif" font-size="10.00">typed_matrix()</text>
<text text-anchor="start" x="36.5" y="-261" font-family="Helvetica,sans-Serif" font-size="10.00">*</text>
<text text-anchor="start" x="44.38" y="-261" font-family="Helvetica,sans-Serif" font-size="10.00">operator=()</text>
<text text-anchor="start" x="36.5" y="-245.75" font-family="Helvetica,sans-Serif" font-size="10.00">*</text>
<text text-anchor="start" x="44.38" y="-245.75" font-family="Helvetica,sans-Serif" font-size="10.00">typed_matrix()</text>
<text text-anchor="start" x="36.5" y="-230.5" font-family="Helvetica,sans-Serif" font-size="10.00">*</text>
<text text-anchor="start" x="44.38" y="-230.5" font-family="Helvetica,sans-Serif" font-size="10.00">operator=()</text>
<text text-anchor="start" x="36.5" y="-215.25" font-family="Helvetica,sans-Serif" font-size="10.00">*</text>
<text text-anchor="start" x="44.38" y="-215.25" font-family="Helvetica,sans-Serif" font-size="10.00">explicit()</text>
<text text-anchor="start" x="36.5" y="-200" font-family="Helvetica,sans-Serif" font-size="10.00">*</text>
<text text-anchor="start" x="44.38" y="-200" font-family="Helvetica,sans-Serif" font-size="10.00">operator=()</text>
<text text-anchor="start" x="36.5" y="-184.75" font-family="Helvetica,sans-Serif" font-size="10.00">*</text>
<text text-anchor="start" x="44.38" y="-184.75" font-family="Helvetica,sans-Serif" font-size="10.00">explicit()</text>
<text text-anchor="start" x="36.5" y="-169.5" font-family="Helvetica,sans-Serif" font-size="10.00">*</text>
<text text-anchor="start" x="44.38" y="-169.5" font-family="Helvetica,sans-Serif" font-size="10.00">operator=()</text>
<text text-anchor="start" x="36.5" y="-154.25" font-family="Helvetica,sans-Serif" font-size="10.00">*</text>
<text text-anchor="start" x="44.38" y="-154.25" font-family="Helvetica,sans-Serif" font-size="10.00">typed_matrix()</text>
<text text-anchor="start" x="36.5" y="-139" font-family="Helvetica,sans-Serif" font-size="10.00">*</text>
<text text-anchor="start" x="44.38" y="-139" font-family="Helvetica,sans-Serif" font-size="10.00">explicit()</text>
<text text-anchor="start" x="36.5" y="-123.75" font-family="Helvetica,sans-Serif" font-size="10.00">*</text>
<text text-anchor="start" x="44.38" y="-123.75" font-family="Helvetica,sans-Serif" font-size="10.00">typed_matrix()</text>
<text text-anchor="start" x="36.5" y="-108.5" font-family="Helvetica,sans-Serif" font-size="10.00">*</text>
<text text-anchor="start" x="44.38" y="-108.5" font-family="Helvetica,sans-Serif" font-size="10.00">typed_matrix()</text>
<text text-anchor="start" x="36.5" y="-93.25" font-family="Helvetica,sans-Serif" font-size="10.00">*</text>
<text text-anchor="start" x="44.38" y="-93.25" font-family="Helvetica,sans-Serif" font-size="10.00">typed_matrix()</text>
<text text-anchor="start" x="36.5" y="-78" font-family="Helvetica,sans-Serif" font-size="10.00">*</text>
<text text-anchor="start" x="44.38" y="-78" font-family="Helvetica,sans-Serif" font-size="10.00">operator element&lt; 0,</text>
<text text-anchor="start" x="44.38" y="-66.75" font-family="Helvetica,sans-Serif" font-size="10.00"> 0 &gt;()</text>
<text text-anchor="start" x="36.5" y="-51.5" font-family="Helvetica,sans-Serif" font-size="10.00">*</text>
<text text-anchor="start" x="44.38" y="-51.5" font-family="Helvetica,sans-Serif" font-size="10.00">operator[]()</text>
<text text-anchor="start" x="36.5" y="-36.25" font-family="Helvetica,sans-Serif" font-size="10.00">*</text>
<text text-anchor="start" x="44.38" y="-36.25" font-family="Helvetica,sans-Serif" font-size="10.00">operator()()</text>
<text text-anchor="start" x="36.5" y="-21" font-family="Helvetica,sans-Serif" font-size="10.00">*</text>
<text text-anchor="start" x="44.38" y="-21" font-family="Helvetica,sans-Serif" font-size="10.00">at()</text>
<text text-anchor="start" x="36.5" y="-5.75" font-family="Helvetica,sans-Serif" font-size="10.00">*</text>
<text text-anchor="start" x="44.38" y="-5.75" font-family="Helvetica,sans-Serif" font-size="10.00">data()</text>
<polygon fill="#666666" stroke="#666666" points="32.38,-409.75 32.38,-409.75 137.12,-409.75 137.12,-409.75 32.38,-409.75"/>
<polygon fill="#666666" stroke="#666666" points="32.38,-394.5 32.38,-394.5 137.12,-394.5 137.12,-394.5 32.38,-394.5"/>
<polygon fill="none" stroke="#666666" points="32.38,0 32.38,-449.5 137.12,-449.5 137.12,0 32.38,0"/>
</a>
</g>
</g>
<!-- Node2 -->
<g id="Node000002" class="node">
<title>Node2</title>
<g id="a_Node000002"><a xlink:title=" ">
<polygon fill="white" stroke="none" points="33.5,-569 0,-569 0,-519.25 33.5,-519.25 33.5,-569"/>
<text text-anchor="start" x="4" y="-555.5" font-family="Helvetica,sans-Serif" font-size="10.00">size_t</text>
<text text-anchor="start" x="15.25" y="-540.25" font-family="Helvetica,sans-Serif" font-size="10.00"> </text>
<text text-anchor="start" x="15.25" y="-525" font-family="Helvetica,sans-Serif" font-size="10.00"> </text>
<polygon fill="#666666" stroke="#666666" points="0,-551.75 0,-551.75 33.5,-551.75 33.5,-551.75 0,-551.75"/>
<polygon fill="#666666" stroke="#666666" points="0,-536.5 0,-536.5 33.5,-536.5 33.5,-536.5 0,-536.5"/>
<polygon fill="none" stroke="#666666" points="0,-519.25 0,-569 33.5,-569 33.5,-519.25 0,-519.25"/>
</a>
</g>
</g>
<!-- Node2&#45;&gt;Node1 -->
<g id="edge1_Node000001_Node000002" class="edge">
<title>Node2&#45;&gt;Node1</title>
<g id="a_edge1_Node000001_Node000002"><a xlink:title=" ">
<path fill="none" stroke="#63b8ff" d="M21.86,-519.27C24.95,-504.85 29.23,-484.86 34.12,-462.03"/>
<polygon fill="none" stroke="#63b8ff" points="34.11,-462.08 31.46,-455.37 36.63,-450.35 39.28,-457.05 34.11,-462.08"/>
</a>
</g>
<text text-anchor="middle" x="53.94" y="-491.75" font-family="Helvetica,sans-Serif" font-size="10.00" fill="grey"> +columns</text>
<text text-anchor="middle" x="53.94" y="-480.5" font-family="Helvetica,sans-Serif" font-size="10.00" fill="grey">+rank</text>
<text text-anchor="middle" x="53.94" y="-469.25" font-family="Helvetica,sans-Serif" font-size="10.00" fill="grey">+rows</text>
</g>
<!-- Node3 -->
<g id="Node000003" class="node">
<title>Node3</title>
<g id="a_Node000003"><a xlink:title=" ">
<polygon fill="white" stroke="none" points="114.62,-569 54.88,-569 54.88,-519.25 114.62,-519.25 114.62,-569"/>
<text text-anchor="start" x="58.88" y="-555.5" font-family="Helvetica,sans-Serif" font-size="10.00">constexpr(&amp;</text>
<text text-anchor="start" x="83.25" y="-540.25" font-family="Helvetica,sans-Serif" font-size="10.00"> </text>
<text text-anchor="start" x="83.25" y="-525" font-family="Helvetica,sans-Serif" font-size="10.00"> </text>
<polygon fill="#666666" stroke="#666666" points="54.88,-551.75 54.88,-551.75 114.62,-551.75 114.62,-551.75 54.88,-551.75"/>
<polygon fill="#666666" stroke="#666666" points="54.88,-536.5 54.88,-536.5 114.62,-536.5 114.62,-536.5 54.88,-536.5"/>
<polygon fill="none" stroke="#666666" points="54.88,-519.25 54.88,-569 114.62,-569 114.62,-519.25 54.88,-519.25"/>
</a>
</g>
</g>
<!-- Node3&#45;&gt;Node1 -->
<g id="edge2_Node000001_Node000003" class="edge">
<title>Node3&#45;&gt;Node1</title>
<g id="a_edge2_Node000001_Node000003"><a xlink:title=" ">
<path fill="none" stroke="#63b8ff" d="M84.75,-519.27C84.75,-504.92 84.75,-485.05 84.75,-462.35"/>
<polygon fill="none" stroke="#63b8ff" points="84.75,-462.37 80.75,-456.37 84.75,-450.37 88.75,-456.37 84.75,-462.37"/>
</a>
</g>
<text text-anchor="middle" x="108.75" y="-480.5" font-family="Helvetica,sans-Serif" font-size="10.00" fill="grey"> +elements</text>
</g>
<!-- Node4 -->
<g id="Node000004" class="node">
<title>Node4</title>
<g id="a_Node000004"><a xlink:title=" ">
<polygon fill="white" stroke="none" points="172.88,-569 138.62,-569 138.62,-519.25 172.88,-519.25 172.88,-569"/>
<text text-anchor="start" x="142.62" y="-555.5" font-family="Helvetica,sans-Serif" font-size="10.00">Matrix</text>
<text text-anchor="start" x="154.25" y="-540.25" font-family="Helvetica,sans-Serif" font-size="10.00"> </text>
<text text-anchor="start" x="154.25" y="-525" font-family="Helvetica,sans-Serif" font-size="10.00"> </text>
<polygon fill="#666666" stroke="#666666" points="138.62,-551.75 138.62,-551.75 172.88,-551.75 172.88,-551.75 138.62,-551.75"/>
<polygon fill="#666666" stroke="#666666" points="138.62,-536.5 138.62,-536.5 172.88,-536.5 172.88,-536.5 138.62,-536.5"/>
<polygon fill="none" stroke="#666666" points="138.62,-519.25 138.62,-569 172.88,-569 172.88,-519.25 138.62,-519.25"/>
</a>
</g>
</g>
<!-- Node4&#45;&gt;Node1 -->
<g id="edge3_Node000001_Node000004" class="edge">
<title>Node4&#45;&gt;Node1</title>
<g id="a_edge3_Node000001_Node000004"><a xlink:title=" ">
<path fill="none" stroke="#63b8ff" d="M150.41,-519.27C147.19,-504.85 142.72,-484.86 137.61,-462.03"/>
<polygon fill="none" stroke="#63b8ff" points="137.61,-462.05 132.4,-457.07 134.99,-450.34 140.21,-455.33 137.61,-462.05"/>
</a>
</g>
<text text-anchor="middle" x="164.19" y="-480.5" font-family="Helvetica,sans-Serif" font-size="10.00" fill="grey"> &#45;storage</text>
</g>
</g>
</svg>
