<?xml version="1.0" encoding="UTF-8" standalone="no"?>
<!DOCTYPE svg PUBLIC "-//W3C//DTD SVG 1.1//EN"
 "http://www.w3.org/Graphics/SVG/1.1/DTD/svg11.dtd">
<!-- Generated by graphviz version 12.2.0 (20241103.1931)
 -->
<!-- Title: fcarouge::typed_matrix&lt; Matrix, RowIndexes, ColumnIndexes &gt; Pages: 1 -->
<svg width="191pt" height="627pt"
 viewBox="0.00 0.00 190.94 626.75" xmlns="http://www.w3.org/2000/svg" xmlns:xlink="http://www.w3.org/1999/xlink">
<g id="graph0" class="graph" transform="scale(1 1) rotate(0) translate(4 622.75)">
<title>fcarouge::typed_matrix&lt; Matrix, RowIndexes, ColumnIndexes &gt;</title>
<!-- Node1 -->
<g id="Node000001" class="node">
<title>Node1</title>
<g id="a_Node000001"><a xlink:title="Strongly typed matrix.">
<polygon fill="#999999" stroke="none" points="137.12,-510.5 32.38,-510.5 32.38,0 137.12,0 137.12,-510.5"/>
<text text-anchor="start" x="36.38" y="-497" font-family="Helvetica,sans-Serif" font-size="10.00">fcarouge::typed_matrix</text>
<text text-anchor="start" x="36.38" y="-485.75" font-family="Helvetica,sans-Serif" font-size="10.00">&lt; Matrix, RowIndexes,</text>
<text text-anchor="start" x="46.12" y="-474.5" font-family="Helvetica,sans-Serif" font-size="10.00"> ColumnIndexes &gt;</text>
<text text-anchor="start" x="83.25" y="-459.25" font-family="Helvetica,sans-Serif" font-size="10.00"> </text>
<text text-anchor="start" x="36.5" y="-444" font-family="Helvetica,sans-Serif" font-size="10.00">*</text>
<text text-anchor="start" x="44.38" y="-444" font-family="Helvetica,sans-Serif" font-size="10.00">matrix</text>
<text text-anchor="start" x="36.5" y="-428.75" font-family="Helvetica,sans-Serif" font-size="10.00">*</text>
<text text-anchor="start" x="44.38" y="-428.75" font-family="Helvetica,sans-Serif" font-size="10.00">row_indexes</text>
<text text-anchor="start" x="36.5" y="-413.5" font-family="Helvetica,sans-Serif" font-size="10.00">*</text>
<text text-anchor="start" x="44.38" y="-413.5" font-family="Helvetica,sans-Serif" font-size="10.00">column_indexes</text>
<text text-anchor="start" x="36.5" y="-398.25" font-family="Helvetica,sans-Serif" font-size="10.00">*</text>
<text text-anchor="start" x="44.38" y="-398.25" font-family="Helvetica,sans-Serif" font-size="10.00">underlying</text>
<text text-anchor="start" x="36.5" y="-383" font-family="Helvetica,sans-Serif" font-size="10.00">*</text>
<text text-anchor="start" x="44.38" y="-383" font-family="Helvetica,sans-Serif" font-size="10.00">element</text>
<text text-anchor="start" x="36.5" y="-367.75" font-family="Helvetica,sans-Serif" font-size="10.00">*</text>
<text text-anchor="start" x="44.38" y="-367.75" font-family="Helvetica,sans-Serif" font-size="10.00">~typed_matrix()</text>
<text text-anchor="start" x="36.5" y="-352.5" font-family="Helvetica,sans-Serif" font-size="10.00">*</text>
<text text-anchor="start" x="44.38" y="-352.5" font-family="Helvetica,sans-Serif" font-size="10.00">typed_matrix()</text>
<text text-anchor="start" x="36.5" y="-337.25" font-family="Helvetica,sans-Serif" font-size="10.00">*</text>
<text text-anchor="start" x="44.38" y="-337.25" font-family="Helvetica,sans-Serif" font-size="10.00">typed_matrix()</text>
<text text-anchor="start" x="36.5" y="-322" font-family="Helvetica,sans-Serif" font-size="10.00">*</text>
<text text-anchor="start" x="44.38" y="-322" font-family="Helvetica,sans-Serif" font-size="10.00">operator=()</text>
<text text-anchor="start" x="36.5" y="-306.75" font-family="Helvetica,sans-Serif" font-size="10.00">*</text>
<text text-anchor="start" x="44.38" y="-306.75" font-family="Helvetica,sans-Serif" font-size="10.00">typed_matrix()</text>
<text text-anchor="start" x="36.5" y="-291.5" font-family="Helvetica,sans-Serif" font-size="10.00">*</text>
<text text-anchor="start" x="44.38" y="-291.5" font-family="Helvetica,sans-Serif" font-size="10.00">operator=()</text>
<text text-anchor="start" x="36.5" y="-276.25" font-family="Helvetica,sans-Serif" font-size="10.00">*</text>
<text text-anchor="start" x="44.38" y="-276.25" font-family="Helvetica,sans-Serif" font-size="10.00">explicit()</text>
<text text-anchor="start" x="36.5" y="-261" font-family="Helvetica,sans-Serif" font-size="10.00">*</text>
<text text-anchor="start" x="44.38" y="-261" font-family="Helvetica,sans-Serif" font-size="10.00">operator=()</text>
<text text-anchor="start" x="36.5" y="-245.75" font-family="Helvetica,sans-Serif" font-size="10.00">*</text>
<text text-anchor="start" x="44.38" y="-245.75" font-family="Helvetica,sans-Serif" font-size="10.00">explicit()</text>
<text text-anchor="start" x="36.5" y="-230.5" font-family="Helvetica,sans-Serif" font-size="10.00">*</text>
<text text-anchor="start" x="44.38" y="-230.5" font-family="Helvetica,sans-Serif" font-size="10.00">operator=()</text>
<text text-anchor="start" x="36.5" y="-215.25" font-family="Helvetica,sans-Serif" font-size="10.00">*</text>
<text text-anchor="start" x="44.38" y="-215.25" font-family="Helvetica,sans-Serif" font-size="10.00">typed_matrix()</text>
<text text-anchor="start" x="36.5" y="-200" font-family="Helvetica,sans-Serif" font-size="10.00">*</text>
<text text-anchor="start" x="44.38" y="-200" font-family="Helvetica,sans-Serif" font-size="10.00">explicit()</text>
<text text-anchor="start" x="36.5" y="-184.75" font-family="Helvetica,sans-Serif" font-size="10.00">*</text>
<text text-anchor="start" x="44.38" y="-184.75" font-family="Helvetica,sans-Serif" font-size="10.00">typed_matrix()</text>
<text text-anchor="start" x="36.5" y="-169.5" font-family="Helvetica,sans-Serif" font-size="10.00">*</text>
<text text-anchor="start" x="44.38" y="-169.5" font-family="Helvetica,sans-Serif" font-size="10.00">typed_matrix()</text>
<text text-anchor="start" x="36.5" y="-154.25" font-family="Helvetica,sans-Serif" font-size="10.00">*</text>
<text text-anchor="start" x="44.38" y="-154.25" font-family="Helvetica,sans-Serif" font-size="10.00">typed_matrix()</text>
<text text-anchor="start" x="36.5" y="-139" font-family="Helvetica,sans-Serif" font-size="10.00">*</text>
<text text-anchor="start" x="44.38" y="-139" font-family="Helvetica,sans-Serif" font-size="10.00">operator element&lt; 0,</text>
<text text-anchor="start" x="44.38" y="-127.75" font-family="Helvetica,sans-Serif" font-size="10.00"> 0 &gt;()</text>
<text text-anchor="start" x="36.5" y="-112.5" font-family="Helvetica,sans-Serif" font-size="10.00">*</text>
<text text-anchor="start" x="44.38" y="-112.5" font-family="Helvetica,sans-Serif" font-size="10.00">operator[]()</text>
<text text-anchor="start" x="36.5" y="-97.25" font-family="Helvetica,sans-Serif" font-size="10.00">*</text>
<text text-anchor="start" x="44.38" y="-97.25" font-family="Helvetica,sans-Serif" font-size="10.00">operator[]()</text>
<text text-anchor="start" x="36.5" y="-82" font-family="Helvetica,sans-Serif" font-size="10.00">*</text>
<text text-anchor="start" x="44.38" y="-82" font-family="Helvetica,sans-Serif" font-size="10.00">operator()()</text>
<text text-anchor="start" x="36.5" y="-66.75" font-family="Helvetica,sans-Serif" font-size="10.00">*</text>
<text text-anchor="start" x="44.38" y="-66.75" font-family="Helvetica,sans-Serif" font-size="10.00">operator()()</text>
<text text-anchor="start" x="36.5" y="-51.5" font-family="Helvetica,sans-Serif" font-size="10.00">*</text>
<text text-anchor="start" x="44.38" y="-51.5" font-family="Helvetica,sans-Serif" font-size="10.00">at()</text>
<text text-anchor="start" x="36.5" y="-36.25" font-family="Helvetica,sans-Serif" font-size="10.00">*</text>
<text text-anchor="start" x="44.38" y="-36.25" font-family="Helvetica,sans-Serif" font-size="10.00">at()</text>
<text text-anchor="start" x="36.5" y="-21" font-family="Helvetica,sans-Serif" font-size="10.00">*</text>
<text text-anchor="start" x="44.38" y="-21" font-family="Helvetica,sans-Serif" font-size="10.00">at()</text>
<text text-anchor="start" x="36.5" y="-5.75" font-family="Helvetica,sans-Serif" font-size="10.00">*</text>
<text text-anchor="start" x="44.38" y="-5.75" font-family="Helvetica,sans-Serif" font-size="10.00">data()</text>
<polygon fill="#666666" stroke="#666666" points="32.38,-470.75 32.38,-470.75 137.12,-470.75 137.12,-470.75 32.38,-470.75"/>
<polygon fill="#666666" stroke="#666666" points="32.38,-455.5 32.38,-455.5 137.12,-455.5 137.12,-455.5 32.38,-455.5"/>
<polygon fill="none" stroke="#666666" points="32.38,0 32.38,-510.5 137.12,-510.5 137.12,0 32.38,0"/>
</a>
</g>
</g>
<!-- Node2 -->
<g id="Node000002" class="node">
<title>Node2</title>
<g id="a_Node000002"><a xlink:title=" ">
<polygon fill="white" stroke="none" points="33.5,-618.75 0,-618.75 0,-569 33.5,-569 33.5,-618.75"/>
<text text-anchor="start" x="4" y="-605.25" font-family="Helvetica,sans-Serif" font-size="10.00">size_t</text>
<text text-anchor="start" x="15.25" y="-590" font-family="Helvetica,sans-Serif" font-size="10.00"> </text>
<text text-anchor="start" x="15.25" y="-574.75" font-family="Helvetica,sans-Serif" font-size="10.00"> </text>
<polygon fill="#666666" stroke="#666666" points="0,-601.5 0,-601.5 33.5,-601.5 33.5,-601.5 0,-601.5"/>
<polygon fill="#666666" stroke="#666666" points="0,-586.25 0,-586.25 33.5,-586.25 33.5,-586.25 0,-586.25"/>
<polygon fill="none" stroke="#666666" points="0,-569 0,-618.75 33.5,-618.75 33.5,-569 0,-569"/>
</a>
</g>
</g>
<!-- Node2&#45;&gt;Node1 -->
<g id="edge1_Node000001_Node000002" class="edge">
<title>Node2&#45;&gt;Node1</title>
<g id="a_edge1_Node000001_Node000002"><a xlink:title=" ">
<path fill="none" stroke="#63b8ff" d="M21.53,-569.2C23.95,-557.23 27.16,-541.36 30.85,-523.1"/>
<polygon fill="none" stroke="#63b8ff" points="30.85,-523.08 28.12,-516.4 33.23,-511.31 35.96,-517.99 30.85,-523.08"/>
</a>
</g>
<text text-anchor="middle" x="50.65" y="-541.5" font-family="Helvetica,sans-Serif" font-size="10.00" fill="grey"> +columns</text>
<text text-anchor="middle" x="50.65" y="-530.25" font-family="Helvetica,sans-Serif" font-size="10.00" fill="grey">+rows</text>
</g>
<!-- Node3 -->
<g id="Node000003" class="node">
<title>Node3</title>
<g id="a_Node000003"><a xlink:title=" ">
<polygon fill="white" stroke="none" points="114.62,-618.75 54.88,-618.75 54.88,-569 114.62,-569 114.62,-618.75"/>
<text text-anchor="start" x="58.88" y="-605.25" font-family="Helvetica,sans-Serif" font-size="10.00">constexpr(&amp;</text>
<text text-anchor="start" x="83.25" y="-590" font-family="Helvetica,sans-Serif" font-size="10.00"> </text>
<text text-anchor="start" x="83.25" y="-574.75" font-family="Helvetica,sans-Serif" font-size="10.00"> </text>
<polygon fill="#666666" stroke="#666666" points="54.88,-601.5 54.88,-601.5 114.62,-601.5 114.62,-601.5 54.88,-601.5"/>
<polygon fill="#666666" stroke="#666666" points="54.88,-586.25 54.88,-586.25 114.62,-586.25 114.62,-586.25 54.88,-586.25"/>
<polygon fill="none" stroke="#666666" points="54.88,-569 54.88,-618.75 114.62,-618.75 114.62,-569 54.88,-569"/>
</a>
</g>
</g>
<!-- Node3&#45;&gt;Node1 -->
<g id="edge2_Node000001_Node000003" class="edge">
<title>Node3&#45;&gt;Node1</title>
<g id="a_edge2_Node000001_Node000003"><a xlink:title=" ">
<path fill="none" stroke="#63b8ff" d="M84.75,-569.2C84.75,-557.29 84.75,-541.51 84.75,-523.36"/>
<polygon fill="none" stroke="#63b8ff" points="84.75,-523.33 80.75,-517.33 84.75,-511.33 88.75,-517.33 84.75,-523.33"/>
</a>
</g>
<text text-anchor="middle" x="108.75" y="-535.88" font-family="Helvetica,sans-Serif" font-size="10.00" fill="grey"> +elements</text>
</g>
<!-- Node4 -->
<g id="Node000004" class="node">
<title>Node4</title>
<g id="a_Node000004"><a xlink:title=" ">
<polygon fill="white" stroke="none" points="172.88,-618.75 138.62,-618.75 138.62,-569 172.88,-569 172.88,-618.75"/>
<text text-anchor="start" x="142.62" y="-605.25" font-family="Helvetica,sans-Serif" font-size="10.00">Matrix</text>
<text text-anchor="start" x="154.25" y="-590" font-family="Helvetica,sans-Serif" font-size="10.00"> </text>
<text text-anchor="start" x="154.25" y="-574.75" font-family="Helvetica,sans-Serif" font-size="10.00"> </text>
<polygon fill="#666666" stroke="#666666" points="138.62,-601.5 138.62,-601.5 172.88,-601.5 172.88,-601.5 138.62,-601.5"/>
<polygon fill="#666666" stroke="#666666" points="138.62,-586.25 138.62,-586.25 172.88,-586.25 172.88,-586.25 138.62,-586.25"/>
<polygon fill="none" stroke="#666666" points="138.62,-569 138.62,-618.75 172.88,-618.75 172.88,-569 138.62,-569"/>
</a>
</g>
</g>
<!-- Node4&#45;&gt;Node1 -->
<g id="edge3_Node000001_Node000004" class="edge">
<title>Node4&#45;&gt;Node1</title>
<g id="a_edge3_Node000001_Node000004"><a xlink:title=" ">
<path fill="none" stroke="#63b8ff" d="M150.76,-569.2C147.95,-555.88 144.12,-537.73 139.71,-516.83"/>
<polygon fill="none" stroke="#63b8ff" points="139.71,-516.85 134.56,-511.8 137.24,-505.11 142.39,-510.15 139.71,-516.85"/>
</a>
</g>
<text text-anchor="middle" x="164.19" y="-535.88" font-family="Helvetica,sans-Serif" font-size="10.00" fill="grey"> &#45;storage</text>
</g>
</g>
</svg>
