<?xml version="1.0" encoding="UTF-8" standalone="no"?>
<!DOCTYPE svg PUBLIC "-//W3C//DTD SVG 1.1//EN"
 "http://www.w3.org/Graphics/SVG/1.1/DTD/svg11.dtd">
<!-- Generated by graphviz version 12.2.0 (20241103.1931)
 -->
<!-- Title: fcarouge::typed_matrix&lt; Matrix, RowIndexes, ColumnIndexes &gt; Pages: 1 -->
<svg width="237pt" height="600pt"
 viewBox="0.00 0.00 236.61 600.25" xmlns="http://www.w3.org/2000/svg" xmlns:xlink="http://www.w3.org/1999/xlink">
<g id="graph0" class="graph" transform="scale(1 1) rotate(0) translate(4 596.25)">
<title>fcarouge::typed_matrix&lt; Matrix, RowIndexes, ColumnIndexes &gt;</title>
<!-- Node1 -->
<g id="Node000001" class="node">
<title>Node1</title>
<g id="a_Node000001"><a xlink:title="Strongly typed matrix.">
<polygon fill="#999999" stroke="none" points="163.12,-484 58.38,-484 58.38,0 163.12,0 163.12,-484"/>
<text text-anchor="start" x="62.38" y="-470.5" font-family="Helvetica,sans-Serif" font-size="10.00">fcarouge::typed_matrix</text>
<text text-anchor="start" x="62.38" y="-459.25" font-family="Helvetica,sans-Serif" font-size="10.00">&lt; Matrix, RowIndexes,</text>
<text text-anchor="start" x="72.12" y="-448" font-family="Helvetica,sans-Serif" font-size="10.00"> ColumnIndexes &gt;</text>
<text text-anchor="start" x="109.25" y="-432.75" font-family="Helvetica,sans-Serif" font-size="10.00"> </text>
<text text-anchor="start" x="67.19" y="-417.5" font-family="Helvetica,sans-Serif" font-size="10.00">*</text>
<text text-anchor="start" x="79.75" y="-417.5" font-family="Helvetica,sans-Serif" font-size="10.00">matrix</text>
<text text-anchor="start" x="67.19" y="-402.25" font-family="Helvetica,sans-Serif" font-size="10.00">*</text>
<text text-anchor="start" x="79.75" y="-402.25" font-family="Helvetica,sans-Serif" font-size="10.00">row_indexes</text>
<text text-anchor="start" x="67.19" y="-387" font-family="Helvetica,sans-Serif" font-size="10.00">*</text>
<text text-anchor="start" x="79.75" y="-387" font-family="Helvetica,sans-Serif" font-size="10.00">column_indexes</text>
<text text-anchor="start" x="67.19" y="-371.75" font-family="Helvetica,sans-Serif" font-size="10.00">*</text>
<text text-anchor="start" x="79.75" y="-371.75" font-family="Helvetica,sans-Serif" font-size="10.00">underlying</text>
<text text-anchor="start" x="67.19" y="-356.5" font-family="Helvetica,sans-Serif" font-size="10.00">*</text>
<text text-anchor="start" x="79.75" y="-356.5" font-family="Helvetica,sans-Serif" font-size="10.00">element</text>
<text text-anchor="start" x="67.19" y="-341.25" font-family="Helvetica,sans-Serif" font-size="10.00">*</text>
<text text-anchor="start" x="79.75" y="-341.25" font-family="Helvetica,sans-Serif" font-size="10.00">~typed_matrix()</text>
<text text-anchor="start" x="67.19" y="-326" font-family="Helvetica,sans-Serif" font-size="10.00">*</text>
<text text-anchor="start" x="79.75" y="-326" font-family="Helvetica,sans-Serif" font-size="10.00">typed_matrix()</text>
<text text-anchor="start" x="67.19" y="-310.75" font-family="Helvetica,sans-Serif" font-size="10.00">*</text>
<text text-anchor="start" x="79.75" y="-310.75" font-family="Helvetica,sans-Serif" font-size="10.00">typed_matrix()</text>
<text text-anchor="start" x="67.19" y="-295.5" font-family="Helvetica,sans-Serif" font-size="10.00">*</text>
<text text-anchor="start" x="79.75" y="-295.5" font-family="Helvetica,sans-Serif" font-size="10.00">operator=()</text>
<text text-anchor="start" x="67.19" y="-280.25" font-family="Helvetica,sans-Serif" font-size="10.00">*</text>
<text text-anchor="start" x="79.75" y="-280.25" font-family="Helvetica,sans-Serif" font-size="10.00">typed_matrix()</text>
<text text-anchor="start" x="67.19" y="-265" font-family="Helvetica,sans-Serif" font-size="10.00">*</text>
<text text-anchor="start" x="79.75" y="-265" font-family="Helvetica,sans-Serif" font-size="10.00">operator=()</text>
<text text-anchor="start" x="67.19" y="-249.75" font-family="Helvetica,sans-Serif" font-size="10.00">*</text>
<text text-anchor="start" x="79.75" y="-249.75" font-family="Helvetica,sans-Serif" font-size="10.00">typed_matrix()</text>
<text text-anchor="start" x="67.19" y="-234.5" font-family="Helvetica,sans-Serif" font-size="10.00">*</text>
<text text-anchor="start" x="79.75" y="-234.5" font-family="Helvetica,sans-Serif" font-size="10.00">typed_matrix()</text>
<text text-anchor="start" x="67.19" y="-219.25" font-family="Helvetica,sans-Serif" font-size="10.00">*</text>
<text text-anchor="start" x="79.75" y="-219.25" font-family="Helvetica,sans-Serif" font-size="10.00">typed_matrix()</text>
<text text-anchor="start" x="67.19" y="-204" font-family="Helvetica,sans-Serif" font-size="10.00">*</text>
<text text-anchor="start" x="79.75" y="-204" font-family="Helvetica,sans-Serif" font-size="10.00">typed_matrix()</text>
<text text-anchor="start" x="67.19" y="-188.75" font-family="Helvetica,sans-Serif" font-size="10.00">*</text>
<text text-anchor="start" x="79.75" y="-188.75" font-family="Helvetica,sans-Serif" font-size="10.00">typed_matrix()</text>
<text text-anchor="start" x="67.19" y="-173.5" font-family="Helvetica,sans-Serif" font-size="10.00">*</text>
<text text-anchor="start" x="79.75" y="-173.5" font-family="Helvetica,sans-Serif" font-size="10.00">typed_matrix()</text>
<text text-anchor="start" x="67.19" y="-158.25" font-family="Helvetica,sans-Serif" font-size="10.00">*</text>
<text text-anchor="start" x="79.75" y="-158.25" font-family="Helvetica,sans-Serif" font-size="10.00">typed_matrix()</text>
<text text-anchor="start" x="67.19" y="-143" font-family="Helvetica,sans-Serif" font-size="10.00">*</text>
<text text-anchor="start" x="79.75" y="-143" font-family="Helvetica,sans-Serif" font-size="10.00">explicit()</text>
<text text-anchor="start" x="67.19" y="-127.75" font-family="Helvetica,sans-Serif" font-size="10.00">*</text>
<text text-anchor="start" x="79.75" y="-127.75" font-family="Helvetica,sans-Serif" font-size="10.00">operator[]()</text>
<text text-anchor="start" x="67.19" y="-112.5" font-family="Helvetica,sans-Serif" font-size="10.00">*</text>
<text text-anchor="start" x="79.75" y="-112.5" font-family="Helvetica,sans-Serif" font-size="10.00">operator[]()</text>
<text text-anchor="start" x="67.19" y="-97.25" font-family="Helvetica,sans-Serif" font-size="10.00">*</text>
<text text-anchor="start" x="79.75" y="-97.25" font-family="Helvetica,sans-Serif" font-size="10.00">operator()()</text>
<text text-anchor="start" x="67.19" y="-82" font-family="Helvetica,sans-Serif" font-size="10.00">*</text>
<text text-anchor="start" x="79.75" y="-82" font-family="Helvetica,sans-Serif" font-size="10.00">operator()()</text>
<text text-anchor="start" x="67.19" y="-66.75" font-family="Helvetica,sans-Serif" font-size="10.00">*</text>
<text text-anchor="start" x="79.75" y="-66.75" font-family="Helvetica,sans-Serif" font-size="10.00">at()</text>
<text text-anchor="start" x="67.19" y="-51.5" font-family="Helvetica,sans-Serif" font-size="10.00">*</text>
<text text-anchor="start" x="79.75" y="-51.5" font-family="Helvetica,sans-Serif" font-size="10.00">at()</text>
<text text-anchor="start" x="67.19" y="-36.25" font-family="Helvetica,sans-Serif" font-size="10.00">*</text>
<text text-anchor="start" x="79.75" y="-36.25" font-family="Helvetica,sans-Serif" font-size="10.00">at()</text>
<text text-anchor="start" x="67.19" y="-21" font-family="Helvetica,sans-Serif" font-size="10.00">*</text>
<text text-anchor="start" x="79.75" y="-21" font-family="Helvetica,sans-Serif" font-size="10.00">at()</text>
<text text-anchor="start" x="67.19" y="-5.75" font-family="Helvetica,sans-Serif" font-size="10.00">*</text>
<text text-anchor="start" x="79.75" y="-5.75" font-family="Helvetica,sans-Serif" font-size="10.00">data()</text>
<polygon fill="#666666" stroke="#666666" points="58.38,-444.25 58.38,-444.25 163.12,-444.25 163.12,-444.25 58.38,-444.25"/>
<polygon fill="#666666" stroke="#666666" points="58.38,-429 58.38,-429 163.12,-429 163.12,-429 58.38,-429"/>
<polygon fill="none" stroke="#666666" points="58.38,0 58.38,-484 163.12,-484 163.12,0 58.38,0"/>
</a>
</g>
</g>
<!-- Node2 -->
<g id="Node000002" class="node">
<title>Node2</title>
<g id="a_Node000002"><a xlink:title=" ">
<polygon fill="white" stroke="none" points="33.5,-592.25 0,-592.25 0,-542.5 33.5,-542.5 33.5,-592.25"/>
<text text-anchor="start" x="4" y="-578.75" font-family="Helvetica,sans-Serif" font-size="10.00">size_t</text>
<text text-anchor="start" x="15.25" y="-563.5" font-family="Helvetica,sans-Serif" font-size="10.00"> </text>
<text text-anchor="start" x="15.25" y="-548.25" font-family="Helvetica,sans-Serif" font-size="10.00"> </text>
<polygon fill="#666666" stroke="#666666" points="0,-575 0,-575 33.5,-575 33.5,-575 0,-575"/>
<polygon fill="#666666" stroke="#666666" points="0,-559.75 0,-559.75 33.5,-559.75 33.5,-559.75 0,-559.75"/>
<polygon fill="none" stroke="#666666" points="0,-542.5 0,-592.25 33.5,-592.25 33.5,-542.5 0,-542.5"/>
</a>
</g>
</g>
<!-- Node2&#45;&gt;Node1 -->
<g id="edge1_Node000001_Node000002" class="edge">
<title>Node2&#45;&gt;Node1</title>
<g id="a_edge1_Node000001_Node000002"><a xlink:title=" ">
<path fill="none" stroke="#63b8ff" d="M23.66,-542.6C30.7,-518.38 42.33,-478.38 54.83,-435.36"/>
<polygon fill="none" stroke="#63b8ff" points="54.87,-435.25 52.7,-428.37 58.22,-423.72 60.38,-430.6 54.87,-435.25"/>
</a>
</g>
<text text-anchor="middle" x="57.23" y="-515" font-family="Helvetica,sans-Serif" font-size="10.00" fill="grey"> +columns</text>
<text text-anchor="middle" x="57.23" y="-503.75" font-family="Helvetica,sans-Serif" font-size="10.00" fill="grey">+rows</text>
</g>
<!-- Node3 -->
<g id="Node000003" class="node">
<title>Node3</title>
<g id="a_Node000003"><a xlink:title=" ">
<polygon fill="white" stroke="none" points="169.88,-592.25 51.62,-592.25 51.62,-542.5 169.88,-542.5 169.88,-592.25"/>
<text text-anchor="start" x="55.62" y="-578.75" font-family="Helvetica,sans-Serif" font-size="10.00">constexpr &amp;&amp;this auto &amp;&amp;</text>
<text text-anchor="start" x="109.25" y="-563.5" font-family="Helvetica,sans-Serif" font-size="10.00"> </text>
<text text-anchor="start" x="109.25" y="-548.25" font-family="Helvetica,sans-Serif" font-size="10.00"> </text>
<polygon fill="#666666" stroke="#666666" points="51.62,-575 51.62,-575 169.88,-575 169.88,-575 51.62,-575"/>
<polygon fill="#666666" stroke="#666666" points="51.62,-559.75 51.62,-559.75 169.88,-559.75 169.88,-559.75 51.62,-559.75"/>
<polygon fill="none" stroke="#666666" points="51.62,-542.5 51.62,-592.25 169.88,-592.25 169.88,-542.5 51.62,-542.5"/>
</a>
</g>
</g>
<!-- Node3&#45;&gt;Node1 -->
<g id="edge2_Node000001_Node000003" class="edge">
<title>Node3&#45;&gt;Node1</title>
<g id="a_edge2_Node000001_Node000003"><a xlink:title=" ">
<path fill="none" stroke="#63b8ff" d="M110.75,-542.6C110.75,-530.63 110.75,-514.8 110.75,-496.65"/>
<polygon fill="none" stroke="#63b8ff" points="110.75,-496.64 106.75,-490.64 110.75,-484.64 114.75,-490.64 110.75,-496.64"/>
</a>
</g>
<text text-anchor="middle" x="122.75" y="-509.38" font-family="Helvetica,sans-Serif" font-size="10.00" fill="grey"> +self</text>
</g>
<!-- Node4 -->
<g id="Node000004" class="node">
<title>Node4</title>
<g id="a_Node000004"><a xlink:title=" ">
<polygon fill="white" stroke="none" points="221.88,-592.25 187.62,-592.25 187.62,-542.5 221.88,-542.5 221.88,-592.25"/>
<text text-anchor="start" x="191.62" y="-578.75" font-family="Helvetica,sans-Serif" font-size="10.00">Matrix</text>
<text text-anchor="start" x="203.25" y="-563.5" font-family="Helvetica,sans-Serif" font-size="10.00"> </text>
<text text-anchor="start" x="203.25" y="-548.25" font-family="Helvetica,sans-Serif" font-size="10.00"> </text>
<polygon fill="#666666" stroke="#666666" points="187.62,-575 187.62,-575 221.88,-575 221.88,-575 187.62,-575"/>
<polygon fill="#666666" stroke="#666666" points="187.62,-559.75 187.62,-559.75 221.88,-559.75 221.88,-559.75 187.62,-559.75"/>
<polygon fill="none" stroke="#666666" points="187.62,-542.5 187.62,-592.25 221.88,-592.25 221.88,-542.5 187.62,-542.5"/>
</a>
</g>
</g>
<!-- Node4&#45;&gt;Node1 -->
<g id="edge3_Node000001_Node000004" class="edge">
<title>Node4&#45;&gt;Node1</title>
<g id="a_edge3_Node000001_Node000004"><a xlink:title=" ">
<path fill="none" stroke="#63b8ff" d="M197.84,-542.6C190.8,-518.38 179.17,-478.38 166.67,-435.36"/>
<polygon fill="none" stroke="#63b8ff" points="166.63,-435.25 161.12,-430.6 163.28,-423.72 168.8,-428.37 166.63,-435.25"/>
</a>
</g>
<text text-anchor="middle" x="209.86" y="-509.38" font-family="Helvetica,sans-Serif" font-size="10.00" fill="grey"> &#45;storage</text>
</g>
</g>
</svg>
