<?xml version="1.0" encoding="UTF-8" standalone="no"?>
<!DOCTYPE svg PUBLIC "-//W3C//DTD SVG 1.1//EN"
 "http://www.w3.org/Graphics/SVG/1.1/DTD/svg11.dtd">
<!-- Generated by graphviz version 12.2.0 (20241103.1931)
 -->
<!-- Title: fcarouge::typed_matrix&lt; Matrix, RowIndexes, ColumnIndexes &gt; Pages: 1 -->
<!--zoomable 608 -->

<svg id="main" version="1.1" xmlns="http://www.w3.org/2000/svg" xmlns:xlink="http://www.w3.org/1999/xlink" xml:space="preserve" onload="init(evt)">

<style type="text/css"><![CDATA[
.node, .edge {opacity: 0.7;}
.node.selected, .edge.selected {opacity: 1;}
.edge:hover path { stroke: red; }
.edge:hover polygon { stroke: red; fill: red; }
]]></style>

<defs>
  <circle id="rim" cx="0" cy="0" r="7"/>
  <circle id="rim2" cx="0" cy="0" r="3.5"/>
  <g id="zoomPlus">
    <use xlink:href="#rim" fill="#404040"><set attributeName="fill" to="#808080" begin="zoomplus.mouseover" end="zoomplus.mouseout"/></use>
    <path d="M-4,0h8M0,-4v8" fill="none" stroke="white" stroke-width="1.5" pointer-events="none"/>
  </g>
  <g id="zoomMin">
    <use xlink:href="#rim" fill="#404040"><set attributeName="fill" to="#808080" begin="zoomminus.mouseover" end="zoomminus.mouseout"/></use>
    <path d="M-4,0h8" fill="none" stroke="white" stroke-width="1.5" pointer-events="none"/>
  </g>
  <g id="arrowUp" transform="translate(30 24)">
    <use xlink:href="#rim"/>
    <path pointer-events="none" fill="none" stroke="white" stroke-width="1.5" d="M0,-3.0v7 M-2.5,-0.5L0,-3.0L2.5,-0.5"/>
  </g>
  <g id="arrowRight" transform="rotate(90) translate(36 -43)">
    <use xlink:href="#rim"/>
    <path pointer-events="none" fill="none" stroke="white" stroke-width="1.5" d="M0,-3.0v7 M-2.5,-0.5L0,-3.0L2.5,-0.5"/>
  </g>
  <g id="arrowDown" transform="rotate(180) translate(-30 -48)">
    <use xlink:href="#rim"/>
    <path pointer-events="none" fill="none" stroke="white" stroke-width="1.5" d="M0,-3.0v7 M-2.5,-0.5L0,-3.0L2.5,-0.5"/>
  </g>
  <g id="arrowLeft" transform="rotate(270) translate(-36 17)">
    <use xlink:href="#rim"/>
    <path pointer-events="none" fill="none" stroke="white" stroke-width="1.5" d="M0,-3.0v7 M-2.5,-0.5L0,-3.0L2.5,-0.5"/>
  </g>
  <g id="resetDef">
    <use xlink:href="#rim2" fill="#404040"><set attributeName="fill" to="#808080" begin="reset.mouseover" end="reset.mouseout"/></use>
  </g>
</defs>
<script type="application/ecmascript">
var viewWidth = 191;
var viewHeight = 608;
var sectionId = 'dynsection-0';
</script>
<script type="application/ecmascript" xlink:href="svg.min.js"/>
<svg id="graph" class="graph">
<g id="viewport">
<title>fcarouge::typed_matrix&lt; Matrix, RowIndexes, ColumnIndexes &gt;</title>
<!-- Node1 -->
<g id="Node000001" class="node">
<title>Node1</title>
<g id="a_Node000001"><a xlink:title="Strongly typed matrix.">
<polygon fill="#999999" stroke="none" points="137.12,-480 32.38,-480 32.38,0 137.12,0 137.12,-480"/>
<text text-anchor="start" x="36.38" y="-466.5" font-family="Helvetica,sans-Serif" font-size="10.00">fcarouge::typed_matrix</text>
<text text-anchor="start" x="36.38" y="-455.25" font-family="Helvetica,sans-Serif" font-size="10.00">&lt; Matrix, RowIndexes,</text>
<text text-anchor="start" x="46.12" y="-444" font-family="Helvetica,sans-Serif" font-size="10.00"> ColumnIndexes &gt;</text>
<text text-anchor="start" x="83.25" y="-428.75" font-family="Helvetica,sans-Serif" font-size="10.00"> </text>
<text text-anchor="start" x="36.5" y="-413.5" font-family="Helvetica,sans-Serif" font-size="10.00">*</text>
<text text-anchor="start" x="44.38" y="-413.5" font-family="Helvetica,sans-Serif" font-size="10.00">matrix</text>
<text text-anchor="start" x="36.5" y="-398.25" font-family="Helvetica,sans-Serif" font-size="10.00">*</text>
<text text-anchor="start" x="44.38" y="-398.25" font-family="Helvetica,sans-Serif" font-size="10.00">row_indexes</text>
<text text-anchor="start" x="36.5" y="-383" font-family="Helvetica,sans-Serif" font-size="10.00">*</text>
<text text-anchor="start" x="44.38" y="-383" font-family="Helvetica,sans-Serif" font-size="10.00">column_indexes</text>
<text text-anchor="start" x="36.5" y="-367.75" font-family="Helvetica,sans-Serif" font-size="10.00">*</text>
<text text-anchor="start" x="44.38" y="-367.75" font-family="Helvetica,sans-Serif" font-size="10.00">underlying</text>
<text text-anchor="start" x="36.5" y="-352.5" font-family="Helvetica,sans-Serif" font-size="10.00">*</text>
<text text-anchor="start" x="44.38" y="-352.5" font-family="Helvetica,sans-Serif" font-size="10.00">element</text>
<text text-anchor="start" x="36.5" y="-337.25" font-family="Helvetica,sans-Serif" font-size="10.00">*</text>
<text text-anchor="start" x="44.38" y="-337.25" font-family="Helvetica,sans-Serif" font-size="10.00">~typed_matrix()</text>
<text text-anchor="start" x="36.5" y="-322" font-family="Helvetica,sans-Serif" font-size="10.00">*</text>
<text text-anchor="start" x="44.38" y="-322" font-family="Helvetica,sans-Serif" font-size="10.00">typed_matrix()</text>
<text text-anchor="start" x="36.5" y="-306.75" font-family="Helvetica,sans-Serif" font-size="10.00">*</text>
<text text-anchor="start" x="44.38" y="-306.75" font-family="Helvetica,sans-Serif" font-size="10.00">typed_matrix()</text>
<text text-anchor="start" x="36.5" y="-291.5" font-family="Helvetica,sans-Serif" font-size="10.00">*</text>
<text text-anchor="start" x="44.38" y="-291.5" font-family="Helvetica,sans-Serif" font-size="10.00">operator=()</text>
<text text-anchor="start" x="36.5" y="-276.25" font-family="Helvetica,sans-Serif" font-size="10.00">*</text>
<text text-anchor="start" x="44.38" y="-276.25" font-family="Helvetica,sans-Serif" font-size="10.00">typed_matrix()</text>
<text text-anchor="start" x="36.5" y="-261" font-family="Helvetica,sans-Serif" font-size="10.00">*</text>
<text text-anchor="start" x="44.38" y="-261" font-family="Helvetica,sans-Serif" font-size="10.00">operator=()</text>
<text text-anchor="start" x="36.5" y="-245.75" font-family="Helvetica,sans-Serif" font-size="10.00">*</text>
<text text-anchor="start" x="44.38" y="-245.75" font-family="Helvetica,sans-Serif" font-size="10.00">explicit()</text>
<text text-anchor="start" x="36.5" y="-230.5" font-family="Helvetica,sans-Serif" font-size="10.00">*</text>
<text text-anchor="start" x="44.38" y="-230.5" font-family="Helvetica,sans-Serif" font-size="10.00">operator=()</text>
<text text-anchor="start" x="36.5" y="-215.25" font-family="Helvetica,sans-Serif" font-size="10.00">*</text>
<text text-anchor="start" x="44.38" y="-215.25" font-family="Helvetica,sans-Serif" font-size="10.00">explicit()</text>
<text text-anchor="start" x="36.5" y="-200" font-family="Helvetica,sans-Serif" font-size="10.00">*</text>
<text text-anchor="start" x="44.38" y="-200" font-family="Helvetica,sans-Serif" font-size="10.00">operator=()</text>
<text text-anchor="start" x="36.5" y="-184.75" font-family="Helvetica,sans-Serif" font-size="10.00">*</text>
<text text-anchor="start" x="44.38" y="-184.75" font-family="Helvetica,sans-Serif" font-size="10.00">typed_matrix()</text>
<text text-anchor="start" x="36.5" y="-169.5" font-family="Helvetica,sans-Serif" font-size="10.00">*</text>
<text text-anchor="start" x="44.38" y="-169.5" font-family="Helvetica,sans-Serif" font-size="10.00">operator=()</text>
<text text-anchor="start" x="36.5" y="-154.25" font-family="Helvetica,sans-Serif" font-size="10.00">*</text>
<text text-anchor="start" x="44.38" y="-154.25" font-family="Helvetica,sans-Serif" font-size="10.00">explicit()</text>
<text text-anchor="start" x="36.5" y="-139" font-family="Helvetica,sans-Serif" font-size="10.00">*</text>
<text text-anchor="start" x="44.38" y="-139" font-family="Helvetica,sans-Serif" font-size="10.00">operator=()</text>
<text text-anchor="start" x="36.5" y="-123.75" font-family="Helvetica,sans-Serif" font-size="10.00">*</text>
<text text-anchor="start" x="44.38" y="-123.75" font-family="Helvetica,sans-Serif" font-size="10.00">typed_matrix()</text>
<text text-anchor="start" x="36.5" y="-108.5" font-family="Helvetica,sans-Serif" font-size="10.00">*</text>
<text text-anchor="start" x="44.38" y="-108.5" font-family="Helvetica,sans-Serif" font-size="10.00">typed_matrix()</text>
<text text-anchor="start" x="36.5" y="-93.25" font-family="Helvetica,sans-Serif" font-size="10.00">*</text>
<text text-anchor="start" x="44.38" y="-93.25" font-family="Helvetica,sans-Serif" font-size="10.00">typed_matrix()</text>
<text text-anchor="start" x="36.5" y="-78" font-family="Helvetica,sans-Serif" font-size="10.00">*</text>
<text text-anchor="start" x="44.38" y="-78" font-family="Helvetica,sans-Serif" font-size="10.00">operator element&lt; 0,</text>
<text text-anchor="start" x="44.38" y="-66.75" font-family="Helvetica,sans-Serif" font-size="10.00"> 0 &gt;()</text>
<text text-anchor="start" x="36.5" y="-51.5" font-family="Helvetica,sans-Serif" font-size="10.00">*</text>
<text text-anchor="start" x="44.38" y="-51.5" font-family="Helvetica,sans-Serif" font-size="10.00">operator[]()</text>
<text text-anchor="start" x="36.5" y="-36.25" font-family="Helvetica,sans-Serif" font-size="10.00">*</text>
<text text-anchor="start" x="44.38" y="-36.25" font-family="Helvetica,sans-Serif" font-size="10.00">operator()()</text>
<text text-anchor="start" x="36.5" y="-21" font-family="Helvetica,sans-Serif" font-size="10.00">*</text>
<text text-anchor="start" x="44.38" y="-21" font-family="Helvetica,sans-Serif" font-size="10.00">at()</text>
<text text-anchor="start" x="36.5" y="-5.75" font-family="Helvetica,sans-Serif" font-size="10.00">*</text>
<text text-anchor="start" x="44.38" y="-5.75" font-family="Helvetica,sans-Serif" font-size="10.00">data()</text>
<polygon fill="#666666" stroke="#666666" points="32.38,-440.25 32.38,-440.25 137.12,-440.25 137.12,-440.25 32.38,-440.25"/>
<polygon fill="#666666" stroke="#666666" points="32.38,-425 32.38,-425 137.12,-425 137.12,-425 32.38,-425"/>
<polygon fill="none" stroke="#666666" points="32.38,0 32.38,-480 137.12,-480 137.12,0 32.38,0"/>
</a>
</g>
</g>
<!-- Node2 -->
<g id="Node000002" class="node">
<title>Node2</title>
<g id="a_Node000002"><a xlink:title=" ">
<polygon fill="white" stroke="none" points="33.5,-599.5 0,-599.5 0,-549.75 33.5,-549.75 33.5,-599.5"/>
<text text-anchor="start" x="4" y="-586" font-family="Helvetica,sans-Serif" font-size="10.00">size_t</text>
<text text-anchor="start" x="15.25" y="-570.75" font-family="Helvetica,sans-Serif" font-size="10.00"> </text>
<text text-anchor="start" x="15.25" y="-555.5" font-family="Helvetica,sans-Serif" font-size="10.00"> </text>
<polygon fill="#666666" stroke="#666666" points="0,-582.25 0,-582.25 33.5,-582.25 33.5,-582.25 0,-582.25"/>
<polygon fill="#666666" stroke="#666666" points="0,-567 0,-567 33.5,-567 33.5,-567 0,-567"/>
<polygon fill="none" stroke="#666666" points="0,-549.75 0,-599.5 33.5,-599.5 33.5,-549.75 0,-549.75"/>
</a>
</g>
</g>
<!-- Node2&#45;&gt;Node1 -->
<g id="edge1_Node000001_Node000002" class="edge">
<title>Node2&#45;&gt;Node1</title>
<g id="a_edge1_Node000001_Node000002"><a xlink:title=" ">
<path fill="none" stroke="#63b8ff" d="M21.59,-549.97C24.53,-535.56 28.63,-515.52 33.34,-492.49"/>
<polygon fill="none" stroke="#63b8ff" points="33.35,-492.44 30.63,-485.76 35.75,-480.68 38.47,-487.36 33.35,-492.44"/>
</a>
</g>
<text text-anchor="middle" x="53.94" y="-522.25" font-family="Helvetica,sans-Serif" font-size="10.00" fill="grey"> +columns</text>
<text text-anchor="middle" x="53.94" y="-511" font-family="Helvetica,sans-Serif" font-size="10.00" fill="grey">+rank</text>
<text text-anchor="middle" x="53.94" y="-499.75" font-family="Helvetica,sans-Serif" font-size="10.00" fill="grey">+rows</text>
</g>
<!-- Node3 -->
<g id="Node000003" class="node">
<title>Node3</title>
<g id="a_Node000003"><a xlink:title=" ">
<polygon fill="white" stroke="none" points="114.62,-599.5 54.88,-599.5 54.88,-549.75 114.62,-549.75 114.62,-599.5"/>
<text text-anchor="start" x="58.88" y="-586" font-family="Helvetica,sans-Serif" font-size="10.00">constexpr(&amp;</text>
<text text-anchor="start" x="83.25" y="-570.75" font-family="Helvetica,sans-Serif" font-size="10.00"> </text>
<text text-anchor="start" x="83.25" y="-555.5" font-family="Helvetica,sans-Serif" font-size="10.00"> </text>
<polygon fill="#666666" stroke="#666666" points="54.88,-582.25 54.88,-582.25 114.62,-582.25 114.62,-582.25 54.88,-582.25"/>
<polygon fill="#666666" stroke="#666666" points="54.88,-567 54.88,-567 114.62,-567 114.62,-567 54.88,-567"/>
<polygon fill="none" stroke="#666666" points="54.88,-549.75 54.88,-599.5 114.62,-599.5 114.62,-549.75 54.88,-549.75"/>
</a>
</g>
</g>
<!-- Node3&#45;&gt;Node1 -->
<g id="edge2_Node000001_Node000003" class="edge">
<title>Node3&#45;&gt;Node1</title>
<g id="a_edge2_Node000001_Node000003"><a xlink:title=" ">
<path fill="none" stroke="#63b8ff" d="M84.75,-549.97C84.75,-535.63 84.75,-515.7 84.75,-492.81"/>
<polygon fill="none" stroke="#63b8ff" points="84.75,-492.7 80.75,-486.7 84.75,-480.7 88.75,-486.7 84.75,-492.7"/>
</a>
</g>
<text text-anchor="middle" x="108.75" y="-511" font-family="Helvetica,sans-Serif" font-size="10.00" fill="grey"> +elements</text>
</g>
<!-- Node4 -->
<g id="Node000004" class="node">
<title>Node4</title>
<g id="a_Node000004"><a xlink:title=" ">
<polygon fill="white" stroke="none" points="172.88,-599.5 138.62,-599.5 138.62,-549.75 172.88,-549.75 172.88,-599.5"/>
<text text-anchor="start" x="142.62" y="-586" font-family="Helvetica,sans-Serif" font-size="10.00">Matrix</text>
<text text-anchor="start" x="154.25" y="-570.75" font-family="Helvetica,sans-Serif" font-size="10.00"> </text>
<text text-anchor="start" x="154.25" y="-555.5" font-family="Helvetica,sans-Serif" font-size="10.00"> </text>
<polygon fill="#666666" stroke="#666666" points="138.62,-582.25 138.62,-582.25 172.88,-582.25 172.88,-582.25 138.62,-582.25"/>
<polygon fill="#666666" stroke="#666666" points="138.62,-567 138.62,-567 172.88,-567 172.88,-567 138.62,-567"/>
<polygon fill="none" stroke="#666666" points="138.62,-549.75 138.62,-599.5 172.88,-599.5 172.88,-549.75 138.62,-549.75"/>
</a>
</g>
</g>
<!-- Node4&#45;&gt;Node1 -->
<g id="edge3_Node000001_Node000004" class="edge">
<title>Node4&#45;&gt;Node1</title>
<g id="a_edge3_Node000001_Node000004"><a xlink:title=" ">
<path fill="none" stroke="#63b8ff" d="M150.7,-549.97C147.63,-535.56 143.35,-515.52 138.43,-492.49"/>
<polygon fill="none" stroke="#63b8ff" points="138.42,-492.41 133.25,-487.38 135.91,-480.68 141.07,-485.71 138.42,-492.41"/>
</a>
</g>
<text text-anchor="middle" x="164.19" y="-511" font-family="Helvetica,sans-Serif" font-size="10.00" fill="grey"> &#45;storage</text>
</g>
</g>
</svg>

<g id="navigator" transform="translate(0 0)" fill="#404254">
  <rect fill="#f2f5e9" fill-opacity="0.5" stroke="#606060" stroke-width=".5" x="0" y="0" width="60" height="60"/>
  <use id="zoomplus" xlink:href="#zoomPlus" x="17" y="9" onmousedown="handleZoom(evt,'in')"/>
  <use id="zoomminus" xlink:href="#zoomMin" x="42" y="9" onmousedown="handleZoom(evt,'out')"/>
  <use id="reset" xlink:href="#resetDef" x="30" y="36" onmousedown="handleReset()"/>
   <use id="arrowup" xlink:href="#arrowUp" x="0" y="0" onmousedown="handlePan(0,-1)"/>
  <use id="arrowright" xlink:href="#arrowRight" x="0" y="0" onmousedown="handlePan(1,0)"/>
  <use id="arrowdown" xlink:href="#arrowDown" x="0" y="0" onmousedown="handlePan(0,1)"/>
  <use id="arrowleft" xlink:href="#arrowLeft" x="0" y="0" onmousedown="handlePan(-1,0)"/>
</g>
<svg viewBox="0 0 15 15" width="100%" height="30px" preserveAspectRatio="xMaxYMin meet">
 <g id="arrow_out" transform="scale(0.3 0.3)">
  <a xlink:href="classfcarouge_1_1typed__matrix__coll__graph_org.svg" target="_base">
   <rect id="button" ry="5" rx="5" y="6" x="6" height="38" width="38"
        fill="#f2f5e9" fill-opacity="0.5" stroke="#606060" stroke-width="1.0"/>
   <path id="arrow"
     d="M 11.500037,31.436501 C 11.940474,20.09759 22.043105,11.32322 32.158766,21.979434 L 37.068811,17.246167 C 37.068811,17.246167 37.088388,32 37.088388,32 L 22.160133,31.978069 C 22.160133,31.978069 26.997745,27.140456 26.997745,27.140456 C 18.528582,18.264221 13.291696,25.230495 11.500037,31.436501 z"
     style="fill:#404040;"/>
  </a>
 </g>
</svg>

<style type='text/css'>
<![CDATA[
[data-mouse-over-selected='false'] { opacity: 0.7; }
[data-mouse-over-selected='true']  { opacity: 1.0; }
]]>
</style>
<script type="application/ecmascript"><![CDATA[
document.addEventListener('DOMContentLoaded', (event) => {
  highlightEdges();
  highlightAdjacentNodes();
});
]]></script>
</svg>
