<?xml version="1.0" encoding="UTF-8" standalone="no"?>
<!DOCTYPE svg PUBLIC "-//W3C//DTD SVG 1.1//EN"
 "http://www.w3.org/Graphics/SVG/1.1/DTD/svg11.dtd">
<!-- Generated by graphviz version 12.2.0 (20241103.1931)
 -->
<!-- Title: /github/workspace/test/constructor/1x1_unit_std.cpp Pages: 1 -->
<svg width="227pt" height="105pt"
 viewBox="0.00 0.00 227.00 105.00" xmlns="http://www.w3.org/2000/svg" xmlns:xlink="http://www.w3.org/1999/xlink">
<g id="graph0" class="graph" transform="scale(1 1) rotate(0) translate(4 101)">
<title>/github/workspace/test/constructor/1x1_unit_std.cpp</title>
<!-- Node1 -->
<g id="Node000001" class="node">
<title>Node1</title>
<g id="a_Node000001"><a xlink:title=" ">
<polygon fill="#999999" stroke="#666666" points="197,-97 82,-97 82,-55.25 197,-55.25 197,-97"/>
<text text-anchor="start" x="90" y="-83.5" font-family="Helvetica,sans-Serif" font-size="10.00">/github/workspace/test</text>
<text text-anchor="start" x="90" y="-72.25" font-family="Helvetica,sans-Serif" font-size="10.00">/constructor/1x1_unit</text>
<text text-anchor="middle" x="139.5" y="-61" font-family="Helvetica,sans-Serif" font-size="10.00">_std.cpp</text>
</a>
</g>
</g>
<!-- Node2 -->
<g id="Node000002" class="node">
<title>Node2</title>
<g id="a_Node000002"><a xlink:title=" ">
<polygon fill="#e0e0e0" stroke="#999999" points="97,-19.25 0,-19.25 0,0 97,0 97,-19.25"/>
<text text-anchor="middle" x="48.5" y="-5.75" font-family="Helvetica,sans-Serif" font-size="10.00">fcarouge/linalg.hpp</text>
</a>
</g>
</g>
<!-- Node1&#45;&gt;Node2 -->
<g id="edge1_Node000001_Node000002" class="edge">
<title>Node1&#45;&gt;Node2</title>
<g id="a_edge1_Node000001_Node000002"><a xlink:title=" ">
<path fill="none" stroke="#63b8ff" d="M111.21,-55.07C98.03,-45.73 82.6,-34.8 70.34,-26.11"/>
<polygon fill="#63b8ff" stroke="#63b8ff" points="72.71,-23.5 62.53,-20.57 68.67,-29.21 72.71,-23.5"/>
</a>
</g>
</g>
<!-- Node3 -->
<g id="Node000003" class="node">
<title>Node3</title>
<g id="a_Node000003"><a xlink:title=" ">
<polygon fill="#e0e0e0" stroke="#999999" points="163.62,-19.25 115.38,-19.25 115.38,0 163.62,0 163.62,-19.25"/>
<text text-anchor="middle" x="139.5" y="-5.75" font-family="Helvetica,sans-Serif" font-size="10.00">cassert</text>
</a>
</g>
</g>
<!-- Node1&#45;&gt;Node3 -->
<g id="edge2_Node000001_Node000003" class="edge">
<title>Node1&#45;&gt;Node3</title>
<g id="a_edge2_Node000001_Node000003"><a xlink:title=" ">
<path fill="none" stroke="#63b8ff" d="M139.5,-55.07C139.5,-47.4 139.5,-38.64 139.5,-30.95"/>
<polygon fill="#63b8ff" stroke="#63b8ff" points="143,-31.21 139.5,-21.21 136,-31.21 143,-31.21"/>
</a>
</g>
</g>
<!-- Node4 -->
<g id="Node000004" class="node">
<title>Node4</title>
<g id="a_Node000004"><a xlink:title=" ">
<polygon fill="#e0e0e0" stroke="#999999" points="219,-19.25 182,-19.25 182,0 219,0 219,-19.25"/>
<text text-anchor="middle" x="200.5" y="-5.75" font-family="Helvetica,sans-Serif" font-size="10.00">tuple</text>
</a>
</g>
</g>
<!-- Node1&#45;&gt;Node4 -->
<g id="edge3_Node000001_Node000004" class="edge">
<title>Node1&#45;&gt;Node4</title>
<g id="a_edge3_Node000001_Node000004"><a xlink:title=" ">
<path fill="none" stroke="#63b8ff" d="M158.47,-55.07C166.69,-46.38 176.21,-36.3 184.12,-27.94"/>
<polygon fill="#63b8ff" stroke="#63b8ff" points="186.55,-30.47 190.88,-20.8 181.47,-25.66 186.55,-30.47"/>
</a>
</g>
</g>
</g>
</svg>
