<?xml version="1.0" encoding="UTF-8" standalone="no"?>
<!DOCTYPE svg PUBLIC "-//W3C//DTD SVG 1.1//EN"
 "http://www.w3.org/Graphics/SVG/1.1/DTD/svg11.dtd">
<!-- Generated by graphviz version 12.2.0 (20241103.1931)
 -->
<!-- Title: /github/workspace/support Pages: 1 -->
<svg width="728pt" height="162pt"
 viewBox="0.00 0.00 728.00 161.75" xmlns="http://www.w3.org/2000/svg" xmlns:xlink="http://www.w3.org/1999/xlink">
<g id="graph0" class="graph" transform="scale(1 1) rotate(0) translate(4 157.75)">
<title>/github/workspace/support</title>
<g id="clust1" class="cluster">
<title>clusterdir_5815af820a9cc9481f1d0990a0d60286</title>
<g id="a_clust1"><a xlink:href="dir_5815af820a9cc9481f1d0990a0d60286.xhtml" target="_top">
<polygon fill="#edf6ed" stroke="#404040" stroke-width="2" points="8,-39.25 8,-145.75 712,-145.75 712,-39.25 8,-39.25"/>
</a>
</g>
</g>
<g id="clust2" class="cluster">
<title>clusterdir_b2f5a9b0c45dbeb1baf4e9d55733efbc</title>
<g id="a_clust2"><a xlink:href="dir_b2f5a9b0c45dbeb1baf4e9d55733efbc.xhtml" target="_top">
<polygon fill="#d6ebd6" stroke="#404040" points="115,-47.25 115,-82.5 242,-82.5 242,-47.25 115,-47.25"/>
</a>
</g>
</g>
<g id="clust3" class="cluster">
<title>clusterdir_9465ff112e2182c1b8baafa22795bcd6</title>
<g id="a_clust3"><a xlink:href="dir_9465ff112e2182c1b8baafa22795bcd6.xhtml" target="_top">
<polygon fill="#d6ebd6" stroke="#404040" points="16,-102.5 16,-137.75 153,-137.75 153,-102.5 16,-102.5"/>
</a>
</g>
</g>
<g id="clust4" class="cluster">
<title>clusterdir_ad3aec80637e09f6ac03fe9cf2951131</title>
<g id="a_clust4"><a xlink:href="dir_ad3aec80637e09f6ac03fe9cf2951131.xhtml" target="_top">
<polygon fill="#d6ebd6" stroke="#404040" points="250,-47.25 250,-82.5 394,-82.5 394,-47.25 250,-47.25"/>
</a>
</g>
</g>
<g id="clust5" class="cluster">
<title>clusterdir_ebfce32cc1e861c03f168700fe78b91e</title>
<g id="a_clust5"><a xlink:href="dir_ebfce32cc1e861c03f168700fe78b91e.xhtml" target="_top">
<polygon fill="#d6ebd6" stroke="#404040" points="161,-102.5 161,-137.75 351,-137.75 351,-102.5 161,-102.5"/>
</a>
</g>
</g>
<g id="clust6" class="cluster">
<title>clusterdir_28fa0c21df95b2fb2bbf6309f49fc2af</title>
<g id="a_clust6"><a xlink:href="dir_28fa0c21df95b2fb2bbf6309f49fc2af.xhtml" target="_top">
<polygon fill="#d6ebd6" stroke="#404040" points="359,-102.5 359,-137.75 525,-137.75 525,-102.5 359,-102.5"/>
</a>
</g>
</g>
<!-- dir_5815af820a9cc9481f1d0990a0d60286 -->
<g id="node1" class="node">
<title>dir_5815af820a9cc9481f1d0990a0d60286</title>
<text text-anchor="middle" x="559" y="-116.25" font-family="Helvetica,sans-Serif" font-size="10.00">support</text>
</g>
<!-- dir_b2f5a9b0c45dbeb1baf4e9d55733efbc -->
<g id="node2" class="node">
<title>dir_b2f5a9b0c45dbeb1baf4e9d55733efbc</title>
<text text-anchor="middle" x="143" y="-61" font-family="Helvetica,sans-Serif" font-size="10.00">eigen</text>
</g>
<!-- dir_7e92a10fa1b0fca219294b16abd4710c -->
<g id="node3" class="node">
<title>dir_7e92a10fa1b0fca219294b16abd4710c</title>
<g id="a_node3"><a xlink:href="dir_7e92a10fa1b0fca219294b16abd4710c.xhtml" target="_top" xlink:title="fcarouge">
<polygon fill="#bee0be" stroke="#404040" points="233.75,-74.5 180.25,-74.5 180.25,-55.25 233.75,-55.25 233.75,-74.5"/>
<text text-anchor="middle" x="207" y="-61" font-family="Helvetica,sans-Serif" font-size="10.00">fcarouge</text>
</a>
</g>
</g>
<!-- dir_d44c64559bbebec7f509842c48db8b23 -->
<g id="node14" class="node">
<title>dir_d44c64559bbebec7f509842c48db8b23</title>
<g id="a_node14"><a xlink:href="dir_d44c64559bbebec7f509842c48db8b23.xhtml" target="_top" xlink:title="include">
<polygon fill="#edf6ed" stroke="red" points="456.38,-19.25 409.62,-19.25 409.62,0 456.38,0 456.38,-19.25"/>
<text text-anchor="middle" x="433" y="-5.75" font-family="Helvetica,sans-Serif" font-size="10.00">include</text>
</a>
</g>
</g>
<!-- dir_7e92a10fa1b0fca219294b16abd4710c&#45;&gt;dir_d44c64559bbebec7f509842c48db8b23 -->
<g id="edge1" class="edge">
<title>dir_7e92a10fa1b0fca219294b16abd4710c&#45;&gt;dir_d44c64559bbebec7f509842c48db8b23</title>
<g id="a_edge1"><a xlink:href="dir_000004_000010.xhtml" target="_top">
<path fill="none" stroke="#63b8ff" d="M218.28,-54.99C225.73,-49.58 235.95,-43.01 246,-39.25 296.64,-20.33 359.45,-13.91 397.86,-11.73"/>
<polygon fill="#63b8ff" stroke="#63b8ff" points="397.87,-15.24 407.68,-11.25 397.52,-8.24 397.87,-15.24"/>
</a>
</g>
<g id="a_edge1&#45;headlabel"><a xlink:href="dir_000004_000010.xhtml" target="_top" xlink:title="1">
<text text-anchor="middle" x="395.93" y="-14.3" font-family="Helvetica,sans-Serif" font-size="10.00" fill="#63b8ff">1</text>
</a>
</g>
</g>
<!-- dir_9465ff112e2182c1b8baafa22795bcd6 -->
<g id="node4" class="node">
<title>dir_9465ff112e2182c1b8baafa22795bcd6</title>
<text text-anchor="middle" x="49" y="-116.25" font-family="Helvetica,sans-Serif" font-size="10.00">eigexed</text>
</g>
<!-- dir_e5b188ee29900239e7a863318756cf30 -->
<g id="node5" class="node">
<title>dir_e5b188ee29900239e7a863318756cf30</title>
<g id="a_node5"><a xlink:href="dir_e5b188ee29900239e7a863318756cf30.xhtml" target="_top" xlink:title="fcarouge">
<polygon fill="#bee0be" stroke="#404040" points="144.75,-129.75 91.25,-129.75 91.25,-110.5 144.75,-110.5 144.75,-129.75"/>
<text text-anchor="middle" x="118" y="-116.25" font-family="Helvetica,sans-Serif" font-size="10.00">fcarouge</text>
</a>
</g>
</g>
<!-- dir_e5b188ee29900239e7a863318756cf30&#45;&gt;dir_7e92a10fa1b0fca219294b16abd4710c -->
<g id="edge2" class="edge">
<title>dir_e5b188ee29900239e7a863318756cf30&#45;&gt;dir_7e92a10fa1b0fca219294b16abd4710c</title>
<g id="a_edge2"><a xlink:href="dir_000005_000004.xhtml" target="_top">
<path fill="none" stroke="#63b8ff" d="M133.1,-110.09C146.52,-102.06 166.41,-90.16 182.17,-80.73"/>
<polygon fill="#63b8ff" stroke="#63b8ff" points="183.75,-83.87 190.53,-75.73 180.15,-77.86 183.75,-83.87"/>
</a>
</g>
<g id="a_edge2&#45;headlabel"><a xlink:href="dir_000005_000004.xhtml" target="_top" xlink:title="1">
<text text-anchor="middle" x="183.42" y="-83.5" font-family="Helvetica,sans-Serif" font-size="10.00" fill="#63b8ff">1</text>
</a>
</g>
</g>
<!-- dir_e5b188ee29900239e7a863318756cf30&#45;&gt;dir_d44c64559bbebec7f509842c48db8b23 -->
<g id="edge3" class="edge">
<title>dir_e5b188ee29900239e7a863318756cf30&#45;&gt;dir_d44c64559bbebec7f509842c48db8b23</title>
<g id="a_edge3"><a xlink:href="dir_000005_000010.xhtml" target="_top">
<path fill="none" stroke="#63b8ff" d="M135.84,-110.1C142.34,-107.19 149.86,-104.27 157,-102.5 209.16,-89.58 353.65,-112.85 398,-82.5 415.51,-70.51 424.59,-47.21 429.06,-30.38"/>
<polygon fill="#63b8ff" stroke="#63b8ff" points="432.39,-31.53 431.22,-21 425.57,-29.96 432.39,-31.53"/>
</a>
</g>
<g id="a_edge3&#45;headlabel"><a xlink:href="dir_000005_000010.xhtml" target="_top" xlink:title="1">
<text text-anchor="middle" x="434.69" y="-30.32" font-family="Helvetica,sans-Serif" font-size="10.00" fill="#63b8ff">1</text>
</a>
</g>
</g>
<!-- dir_aa1a2190773d2a2a6c1da8ab14a8d2c8 -->
<g id="node6" class="node">
<title>dir_aa1a2190773d2a2a6c1da8ab14a8d2c8</title>
<g id="a_node6"><a xlink:href="dir_aa1a2190773d2a2a6c1da8ab14a8d2c8.xhtml" target="_top" xlink:title="kokkos">
<polygon fill="#d6ebd6" stroke="#404040" points="648.75,-129.75 601.25,-129.75 601.25,-110.5 648.75,-110.5 648.75,-129.75"/>
<text text-anchor="middle" x="625" y="-116.25" font-family="Helvetica,sans-Serif" font-size="10.00">kokkos</text>
</a>
</g>
</g>
<!-- dir_77010ae1c659866f3d80deb588daf66a -->
<g id="node7" class="node">
<title>dir_77010ae1c659866f3d80deb588daf66a</title>
<g id="a_node7"><a xlink:href="dir_77010ae1c659866f3d80deb588daf66a.xhtml" target="_top" xlink:title="main">
<polygon fill="#d6ebd6" stroke="#404040" points="703.5,-129.75 666.5,-129.75 666.5,-110.5 703.5,-110.5 703.5,-129.75"/>
<text text-anchor="middle" x="685" y="-116.25" font-family="Helvetica,sans-Serif" font-size="10.00">main</text>
</a>
</g>
</g>
<!-- dir_ad3aec80637e09f6ac03fe9cf2951131 -->
<g id="node8" class="node">
<title>dir_ad3aec80637e09f6ac03fe9cf2951131</title>
<text text-anchor="middle" x="286" y="-61" font-family="Helvetica,sans-Serif" font-size="10.00">mp_units</text>
</g>
<!-- dir_d96b870306bee9c1c6578f3dbc9d0bad -->
<g id="node9" class="node">
<title>dir_d96b870306bee9c1c6578f3dbc9d0bad</title>
<g id="a_node9"><a xlink:href="dir_d96b870306bee9c1c6578f3dbc9d0bad.xhtml" target="_top" xlink:title="fcarouge">
<polygon fill="#bee0be" stroke="#404040" points="385.75,-74.5 332.25,-74.5 332.25,-55.25 385.75,-55.25 385.75,-74.5"/>
<text text-anchor="middle" x="359" y="-61" font-family="Helvetica,sans-Serif" font-size="10.00">fcarouge</text>
</a>
</g>
</g>
<!-- dir_ebfce32cc1e861c03f168700fe78b91e -->
<g id="node10" class="node">
<title>dir_ebfce32cc1e861c03f168700fe78b91e</title>
<text text-anchor="middle" x="220" y="-116.25" font-family="Helvetica,sans-Serif" font-size="10.00">nested_typed_eigen</text>
</g>
<!-- dir_f8792443906585b6c5977f372edea2ac -->
<g id="node11" class="node">
<title>dir_f8792443906585b6c5977f372edea2ac</title>
<g id="a_node11"><a xlink:href="dir_f8792443906585b6c5977f372edea2ac.xhtml" target="_top" xlink:title="fcarouge">
<polygon fill="#bee0be" stroke="#404040" points="342.75,-129.75 289.25,-129.75 289.25,-110.5 342.75,-110.5 342.75,-129.75"/>
<text text-anchor="middle" x="316" y="-116.25" font-family="Helvetica,sans-Serif" font-size="10.00">fcarouge</text>
</a>
</g>
</g>
<!-- dir_f8792443906585b6c5977f372edea2ac&#45;&gt;dir_7e92a10fa1b0fca219294b16abd4710c -->
<g id="edge4" class="edge">
<title>dir_f8792443906585b6c5977f372edea2ac&#45;&gt;dir_7e92a10fa1b0fca219294b16abd4710c</title>
<g id="a_edge4"><a xlink:href="dir_000007_000004.xhtml" target="_top">
<path fill="none" stroke="#63b8ff" d="M297.51,-110.09C280.6,-101.83 255.31,-89.48 235.76,-79.93"/>
<polygon fill="#63b8ff" stroke="#63b8ff" points="237.46,-76.86 226.94,-75.62 234.39,-83.15 237.46,-76.86"/>
</a>
</g>
<g id="a_edge4&#45;headlabel"><a xlink:href="dir_000007_000004.xhtml" target="_top" xlink:title="1">
<text text-anchor="middle" x="240.58" y="-71.35" font-family="Helvetica,sans-Serif" font-size="10.00" fill="#63b8ff">1</text>
</a>
</g>
</g>
<!-- dir_f8792443906585b6c5977f372edea2ac&#45;&gt;dir_d44c64559bbebec7f509842c48db8b23 -->
<g id="edge5" class="edge">
<title>dir_f8792443906585b6c5977f372edea2ac&#45;&gt;dir_d44c64559bbebec7f509842c48db8b23</title>
<g id="a_edge5"><a xlink:href="dir_000007_000010.xhtml" target="_top">
<path fill="none" stroke="#63b8ff" d="M335.64,-110.14C341.77,-107.5 348.61,-104.73 355,-102.5 386.77,-91.43 406.68,-108.52 428,-82.5 439.76,-68.15 439.57,-46.29 437.33,-30.45"/>
<polygon fill="#63b8ff" stroke="#63b8ff" points="440.8,-29.99 435.56,-20.78 433.92,-31.25 440.8,-29.99"/>
</a>
</g>
<g id="a_edge5&#45;headlabel"><a xlink:href="dir_000007_000010.xhtml" target="_top" xlink:title="1">
<text text-anchor="middle" x="443.97" y="-27.65" font-family="Helvetica,sans-Serif" font-size="10.00" fill="#63b8ff">1</text>
</a>
</g>
</g>
<!-- dir_28fa0c21df95b2fb2bbf6309f49fc2af -->
<g id="node12" class="node">
<title>dir_28fa0c21df95b2fb2bbf6309f49fc2af</title>
<text text-anchor="middle" x="406" y="-116.25" font-family="Helvetica,sans-Serif" font-size="10.00">quantity_eigen</text>
</g>
<!-- dir_ec612cc3b37c1aec0482cadf205c62fc -->
<g id="node13" class="node">
<title>dir_ec612cc3b37c1aec0482cadf205c62fc</title>
<g id="a_node13"><a xlink:href="dir_ec612cc3b37c1aec0482cadf205c62fc.xhtml" target="_top" xlink:title="fcarouge">
<polygon fill="#bee0be" stroke="#404040" points="516.75,-129.75 463.25,-129.75 463.25,-110.5 516.75,-110.5 516.75,-129.75"/>
<text text-anchor="middle" x="490" y="-116.25" font-family="Helvetica,sans-Serif" font-size="10.00">fcarouge</text>
</a>
</g>
</g>
<!-- dir_ec612cc3b37c1aec0482cadf205c62fc&#45;&gt;dir_7e92a10fa1b0fca219294b16abd4710c -->
<g id="edge6" class="edge">
<title>dir_ec612cc3b37c1aec0482cadf205c62fc&#45;&gt;dir_7e92a10fa1b0fca219294b16abd4710c</title>
<g id="a_edge6"><a xlink:href="dir_000008_000004.xhtml" target="_top">
<path fill="none" stroke="#63b8ff" d="M473.59,-110.13C467.59,-107.23 460.65,-104.3 454,-102.5 364.35,-78.24 336,-105.42 246,-82.5 242.43,-81.59 238.77,-80.4 235.19,-79.08"/>
<polygon fill="#63b8ff" stroke="#63b8ff" points="236.83,-75.97 226.25,-75.42 234.18,-82.45 236.83,-75.97"/>
</a>
</g>
<g id="a_edge6&#45;headlabel"><a xlink:href="dir_000008_000004.xhtml" target="_top" xlink:title="1">
<text text-anchor="middle" x="239.83" y="-70.26" font-family="Helvetica,sans-Serif" font-size="10.00" fill="#63b8ff">1</text>
</a>
</g>
</g>
<!-- dir_ec612cc3b37c1aec0482cadf205c62fc&#45;&gt;dir_d96b870306bee9c1c6578f3dbc9d0bad -->
<g id="edge8" class="edge">
<title>dir_ec612cc3b37c1aec0482cadf205c62fc&#45;&gt;dir_d96b870306bee9c1c6578f3dbc9d0bad</title>
<g id="a_edge8"><a xlink:href="dir_000008_000006.xhtml" target="_top">
<path fill="none" stroke="#63b8ff" d="M471.05,-110.09C465.58,-107.56 459.58,-104.86 454,-102.5 434.45,-94.23 412.34,-85.66 394.37,-78.89"/>
<polygon fill="#63b8ff" stroke="#63b8ff" points="395.79,-75.68 385.2,-75.46 393.34,-82.24 395.79,-75.68"/>
</a>
</g>
<g id="a_edge8&#45;headlabel"><a xlink:href="dir_000008_000006.xhtml" target="_top" xlink:title="1">
<text text-anchor="middle" x="398.73" y="-69.88" font-family="Helvetica,sans-Serif" font-size="10.00" fill="#63b8ff">1</text>
</a>
</g>
</g>
<!-- dir_ec612cc3b37c1aec0482cadf205c62fc&#45;&gt;dir_d44c64559bbebec7f509842c48db8b23 -->
<g id="edge7" class="edge">
<title>dir_ec612cc3b37c1aec0482cadf205c62fc&#45;&gt;dir_d44c64559bbebec7f509842c48db8b23</title>
<g id="a_edge7"><a xlink:href="dir_000008_000010.xhtml" target="_top">
<path fill="none" stroke="#63b8ff" d="M488.95,-110.05C486.8,-94.47 480.78,-62.11 466,-39.25 463.1,-34.76 459.29,-30.57 455.29,-26.86"/>
<polygon fill="#63b8ff" stroke="#63b8ff" points="457.62,-24.24 447.69,-20.53 453.14,-29.62 457.62,-24.24"/>
</a>
</g>
<g id="a_edge7&#45;headlabel"><a xlink:href="dir_000008_000010.xhtml" target="_top" xlink:title="1">
<text text-anchor="middle" x="461.03" y="-19.51" font-family="Helvetica,sans-Serif" font-size="10.00" fill="#63b8ff">1</text>
</a>
</g>
</g>
</g>
</svg>
