<?xml version="1.0" encoding="UTF-8" standalone="no"?>
<!DOCTYPE svg PUBLIC "-//W3C//DTD SVG 1.1//EN"
 "http://www.w3.org/Graphics/SVG/1.1/DTD/svg11.dtd">
<!-- Generated by graphviz version 12.2.0 (20241103.1931)
 -->
<!-- Title: /github/workspace/support Pages: 1 -->
<svg width="700pt" height="162pt"
 viewBox="0.00 0.00 700.00 161.75" xmlns="http://www.w3.org/2000/svg" xmlns:xlink="http://www.w3.org/1999/xlink">
<g id="graph0" class="graph" transform="scale(1 1) rotate(0) translate(4 157.75)">
<title>/github/workspace/support</title>
<g id="clust1" class="cluster">
<title>clusterdir_5815af820a9cc9481f1d0990a0d60286</title>
<g id="a_clust1"><a xlink:href="dir_5815af820a9cc9481f1d0990a0d60286.xhtml" target="_top">
<polygon fill="#edf6ed" stroke="#404040" stroke-width="2" points="8,-39.25 8,-145.75 684,-145.75 684,-39.25 8,-39.25"/>
</a>
</g>
</g>
<g id="clust2" class="cluster">
<title>clusterdir_b2f5a9b0c45dbeb1baf4e9d55733efbc</title>
<g id="a_clust2"><a xlink:href="dir_b2f5a9b0c45dbeb1baf4e9d55733efbc.xhtml" target="_top">
<polygon fill="#d6ebd6" stroke="#404040" points="87,-47.25 87,-82.5 214,-82.5 214,-47.25 87,-47.25"/>
</a>
</g>
</g>
<g id="clust3" class="cluster">
<title>clusterdir_9465ff112e2182c1b8baafa22795bcd6</title>
<g id="a_clust3"><a xlink:href="dir_9465ff112e2182c1b8baafa22795bcd6.xhtml" target="_top">
<polygon fill="#d6ebd6" stroke="#404040" points="16,-102.5 16,-137.75 153,-137.75 153,-102.5 16,-102.5"/>
</a>
</g>
</g>
<g id="clust4" class="cluster">
<title>clusterdir_ad3aec80637e09f6ac03fe9cf2951131</title>
<g id="a_clust4"><a xlink:href="dir_ad3aec80637e09f6ac03fe9cf2951131.xhtml" target="_top">
<polygon fill="#d6ebd6" stroke="#404040" points="222,-47.25 222,-82.5 366,-82.5 366,-47.25 222,-47.25"/>
</a>
</g>
</g>
<g id="clust5" class="cluster">
<title>clusterdir_ebfce32cc1e861c03f168700fe78b91e</title>
<g id="a_clust5"><a xlink:href="dir_ebfce32cc1e861c03f168700fe78b91e.xhtml" target="_top">
<polygon fill="#d6ebd6" stroke="#404040" points="161,-102.5 161,-137.75 351,-137.75 351,-102.5 161,-102.5"/>
</a>
</g>
</g>
<g id="clust6" class="cluster">
<title>clusterdir_fec69b9e6d3473b06a0798720a294dfb</title>
<g id="a_clust6"><a xlink:href="dir_fec69b9e6d3473b06a0798720a294dfb.xhtml" target="_top">
<polygon fill="#d6ebd6" stroke="#404040" points="359,-102.5 359,-137.75 497,-137.75 497,-102.5 359,-102.5"/>
</a>
</g>
</g>
<!-- dir_5815af820a9cc9481f1d0990a0d60286 -->
<g id="node1" class="node">
<title>dir_5815af820a9cc9481f1d0990a0d60286</title>
<text text-anchor="middle" x="531" y="-116.25" font-family="Helvetica,sans-Serif" font-size="10.00">support</text>
</g>
<!-- dir_b2f5a9b0c45dbeb1baf4e9d55733efbc -->
<g id="node2" class="node">
<title>dir_b2f5a9b0c45dbeb1baf4e9d55733efbc</title>
<text text-anchor="middle" x="115" y="-61" font-family="Helvetica,sans-Serif" font-size="10.00">eigen</text>
</g>
<!-- dir_7e92a10fa1b0fca219294b16abd4710c -->
<g id="node3" class="node">
<title>dir_7e92a10fa1b0fca219294b16abd4710c</title>
<g id="a_node3"><a xlink:href="dir_7e92a10fa1b0fca219294b16abd4710c.xhtml" target="_top" xlink:title="fcarouge">
<polygon fill="#bee0be" stroke="#404040" points="205.75,-74.5 152.25,-74.5 152.25,-55.25 205.75,-55.25 205.75,-74.5"/>
<text text-anchor="middle" x="179" y="-61" font-family="Helvetica,sans-Serif" font-size="10.00">fcarouge</text>
</a>
</g>
</g>
<!-- dir_d44c64559bbebec7f509842c48db8b23 -->
<g id="node14" class="node">
<title>dir_d44c64559bbebec7f509842c48db8b23</title>
<g id="a_node14"><a xlink:href="dir_d44c64559bbebec7f509842c48db8b23.xhtml" target="_top" xlink:title="include">
<polygon fill="#edf6ed" stroke="red" points="428.38,-19.25 381.62,-19.25 381.62,0 428.38,0 428.38,-19.25"/>
<text text-anchor="middle" x="405" y="-5.75" font-family="Helvetica,sans-Serif" font-size="10.00">include</text>
</a>
</g>
</g>
<!-- dir_7e92a10fa1b0fca219294b16abd4710c&#45;&gt;dir_d44c64559bbebec7f509842c48db8b23 -->
<g id="edge1" class="edge">
<title>dir_7e92a10fa1b0fca219294b16abd4710c&#45;&gt;dir_d44c64559bbebec7f509842c48db8b23</title>
<g id="a_edge1"><a xlink:href="dir_000004_000009.xhtml" target="_top">
<path fill="none" stroke="#63b8ff" d="M190.28,-54.99C197.73,-49.58 207.95,-43.01 218,-39.25 268.64,-20.33 331.45,-13.91 369.86,-11.73"/>
<polygon fill="#63b8ff" stroke="#63b8ff" points="369.87,-15.24 379.68,-11.25 369.52,-8.24 369.87,-15.24"/>
</a>
</g>
<g id="a_edge1&#45;headlabel"><a xlink:href="dir_000004_000009.xhtml" target="_top" xlink:title="1">
<text text-anchor="middle" x="367.93" y="-14.3" font-family="Helvetica,sans-Serif" font-size="10.00" fill="#63b8ff">1</text>
</a>
</g>
</g>
<!-- dir_9465ff112e2182c1b8baafa22795bcd6 -->
<g id="node4" class="node">
<title>dir_9465ff112e2182c1b8baafa22795bcd6</title>
<text text-anchor="middle" x="49" y="-116.25" font-family="Helvetica,sans-Serif" font-size="10.00">eigexed</text>
</g>
<!-- dir_e5b188ee29900239e7a863318756cf30 -->
<g id="node5" class="node">
<title>dir_e5b188ee29900239e7a863318756cf30</title>
<g id="a_node5"><a xlink:href="dir_e5b188ee29900239e7a863318756cf30.xhtml" target="_top" xlink:title="fcarouge">
<polygon fill="#bee0be" stroke="#404040" points="144.75,-129.75 91.25,-129.75 91.25,-110.5 144.75,-110.5 144.75,-129.75"/>
<text text-anchor="middle" x="118" y="-116.25" font-family="Helvetica,sans-Serif" font-size="10.00">fcarouge</text>
</a>
</g>
</g>
<!-- dir_e5b188ee29900239e7a863318756cf30&#45;&gt;dir_7e92a10fa1b0fca219294b16abd4710c -->
<g id="edge2" class="edge">
<title>dir_e5b188ee29900239e7a863318756cf30&#45;&gt;dir_7e92a10fa1b0fca219294b16abd4710c</title>
<g id="a_edge2"><a xlink:href="dir_000005_000004.xhtml" target="_top">
<path fill="none" stroke="#63b8ff" d="M128.35,-110.09C137.08,-102.47 149.79,-91.37 160.3,-82.2"/>
<polygon fill="#63b8ff" stroke="#63b8ff" points="162.43,-84.98 167.66,-75.77 157.83,-79.71 162.43,-84.98"/>
</a>
</g>
<g id="a_edge2&#45;headlabel"><a xlink:href="dir_000005_000004.xhtml" target="_top" xlink:title="1">
<text text-anchor="middle" x="162.73" y="-84.62" font-family="Helvetica,sans-Serif" font-size="10.00" fill="#63b8ff">1</text>
</a>
</g>
</g>
<!-- dir_e5b188ee29900239e7a863318756cf30&#45;&gt;dir_d44c64559bbebec7f509842c48db8b23 -->
<g id="edge3" class="edge">
<title>dir_e5b188ee29900239e7a863318756cf30&#45;&gt;dir_d44c64559bbebec7f509842c48db8b23</title>
<g id="a_edge3"><a xlink:href="dir_000005_000009.xhtml" target="_top">
<path fill="none" stroke="#63b8ff" d="M135.85,-110.14C142.35,-107.24 149.87,-104.31 157,-102.5 203.08,-90.82 330.91,-109.56 370,-82.5 387.35,-70.48 396.44,-47.38 400.96,-30.6"/>
<polygon fill="#63b8ff" stroke="#63b8ff" points="404.28,-31.76 403.15,-21.22 397.47,-30.16 404.28,-31.76"/>
</a>
</g>
<g id="a_edge3&#45;headlabel"><a xlink:href="dir_000005_000009.xhtml" target="_top" xlink:title="1">
<text text-anchor="middle" x="406.57" y="-30.55" font-family="Helvetica,sans-Serif" font-size="10.00" fill="#63b8ff">1</text>
</a>
</g>
</g>
<!-- dir_aa1a2190773d2a2a6c1da8ab14a8d2c8 -->
<g id="node6" class="node">
<title>dir_aa1a2190773d2a2a6c1da8ab14a8d2c8</title>
<g id="a_node6"><a xlink:href="dir_aa1a2190773d2a2a6c1da8ab14a8d2c8.xhtml" target="_top" xlink:title="kokkos">
<polygon fill="#d6ebd6" stroke="#404040" points="620.75,-129.75 573.25,-129.75 573.25,-110.5 620.75,-110.5 620.75,-129.75"/>
<text text-anchor="middle" x="597" y="-116.25" font-family="Helvetica,sans-Serif" font-size="10.00">kokkos</text>
</a>
</g>
</g>
<!-- dir_77010ae1c659866f3d80deb588daf66a -->
<g id="node7" class="node">
<title>dir_77010ae1c659866f3d80deb588daf66a</title>
<g id="a_node7"><a xlink:href="dir_77010ae1c659866f3d80deb588daf66a.xhtml" target="_top" xlink:title="main">
<polygon fill="#d6ebd6" stroke="#404040" points="675.5,-129.75 638.5,-129.75 638.5,-110.5 675.5,-110.5 675.5,-129.75"/>
<text text-anchor="middle" x="657" y="-116.25" font-family="Helvetica,sans-Serif" font-size="10.00">main</text>
</a>
</g>
</g>
<!-- dir_ad3aec80637e09f6ac03fe9cf2951131 -->
<g id="node8" class="node">
<title>dir_ad3aec80637e09f6ac03fe9cf2951131</title>
<text text-anchor="middle" x="258" y="-61" font-family="Helvetica,sans-Serif" font-size="10.00">mp_units</text>
</g>
<!-- dir_d96b870306bee9c1c6578f3dbc9d0bad -->
<g id="node9" class="node">
<title>dir_d96b870306bee9c1c6578f3dbc9d0bad</title>
<g id="a_node9"><a xlink:href="dir_d96b870306bee9c1c6578f3dbc9d0bad.xhtml" target="_top" xlink:title="fcarouge">
<polygon fill="#bee0be" stroke="#404040" points="357.75,-74.5 304.25,-74.5 304.25,-55.25 357.75,-55.25 357.75,-74.5"/>
<text text-anchor="middle" x="331" y="-61" font-family="Helvetica,sans-Serif" font-size="10.00">fcarouge</text>
</a>
</g>
</g>
<!-- dir_ebfce32cc1e861c03f168700fe78b91e -->
<g id="node10" class="node">
<title>dir_ebfce32cc1e861c03f168700fe78b91e</title>
<text text-anchor="middle" x="220" y="-116.25" font-family="Helvetica,sans-Serif" font-size="10.00">nested_typed_eigen</text>
</g>
<!-- dir_f8792443906585b6c5977f372edea2ac -->
<g id="node11" class="node">
<title>dir_f8792443906585b6c5977f372edea2ac</title>
<g id="a_node11"><a xlink:href="dir_f8792443906585b6c5977f372edea2ac.xhtml" target="_top" xlink:title="fcarouge">
<polygon fill="#bee0be" stroke="#404040" points="342.75,-129.75 289.25,-129.75 289.25,-110.5 342.75,-110.5 342.75,-129.75"/>
<text text-anchor="middle" x="316" y="-116.25" font-family="Helvetica,sans-Serif" font-size="10.00">fcarouge</text>
</a>
</g>
</g>
<!-- dir_f8792443906585b6c5977f372edea2ac&#45;&gt;dir_7e92a10fa1b0fca219294b16abd4710c -->
<g id="edge4" class="edge">
<title>dir_f8792443906585b6c5977f372edea2ac&#45;&gt;dir_7e92a10fa1b0fca219294b16abd4710c</title>
<g id="a_edge4"><a xlink:href="dir_000007_000004.xhtml" target="_top">
<path fill="none" stroke="#63b8ff" d="M297.5,-110.06C291.93,-107.48 285.77,-104.75 280,-102.5 253.03,-91.97 245.12,-92.63 218,-82.5 215.29,-81.49 212.48,-80.39 209.68,-79.26"/>
<polygon fill="#63b8ff" stroke="#63b8ff" points="211.08,-76.05 200.5,-75.44 208.38,-82.51 211.08,-76.05"/>
</a>
</g>
<g id="a_edge4&#45;headlabel"><a xlink:href="dir_000007_000004.xhtml" target="_top" xlink:title="1">
<text text-anchor="middle" x="214.09" y="-70.35" font-family="Helvetica,sans-Serif" font-size="10.00" fill="#63b8ff">1</text>
</a>
</g>
</g>
<!-- dir_f8792443906585b6c5977f372edea2ac&#45;&gt;dir_d44c64559bbebec7f509842c48db8b23 -->
<g id="edge5" class="edge">
<title>dir_f8792443906585b6c5977f372edea2ac&#45;&gt;dir_d44c64559bbebec7f509842c48db8b23</title>
<g id="a_edge5"><a xlink:href="dir_000007_000009.xhtml" target="_top">
<path fill="none" stroke="#63b8ff" d="M337.04,-110.11C361.76,-99.49 399.51,-83.2 400,-82.5 410.59,-67.5 410.68,-46.08 408.83,-30.52"/>
<polygon fill="#63b8ff" stroke="#63b8ff" points="412.35,-30.37 407.33,-21.04 405.43,-31.46 412.35,-30.37"/>
</a>
</g>
<g id="a_edge5&#45;headlabel"><a xlink:href="dir_000007_000009.xhtml" target="_top" xlink:title="1">
<text text-anchor="middle" x="415.48" y="-28.11" font-family="Helvetica,sans-Serif" font-size="10.00" fill="#63b8ff">1</text>
</a>
</g>
</g>
<!-- dir_fec69b9e6d3473b06a0798720a294dfb -->
<g id="node12" class="node">
<title>dir_fec69b9e6d3473b06a0798720a294dfb</title>
<text text-anchor="middle" x="392" y="-116.25" font-family="Helvetica,sans-Serif" font-size="10.00">quantity</text>
</g>
<!-- dir_d45b43f6818aeab396ed81797090b4ba -->
<g id="node13" class="node">
<title>dir_d45b43f6818aeab396ed81797090b4ba</title>
<g id="a_node13"><a xlink:href="dir_d45b43f6818aeab396ed81797090b4ba.xhtml" target="_top" xlink:title="fcarouge">
<polygon fill="#bee0be" stroke="#404040" points="488.75,-129.75 435.25,-129.75 435.25,-110.5 488.75,-110.5 488.75,-129.75"/>
<text text-anchor="middle" x="462" y="-116.25" font-family="Helvetica,sans-Serif" font-size="10.00">fcarouge</text>
</a>
</g>
</g>
<!-- dir_d45b43f6818aeab396ed81797090b4ba&#45;&gt;dir_7e92a10fa1b0fca219294b16abd4710c -->
<g id="edge6" class="edge">
<title>dir_d45b43f6818aeab396ed81797090b4ba&#45;&gt;dir_7e92a10fa1b0fca219294b16abd4710c</title>
<g id="a_edge6"><a xlink:href="dir_000008_000004.xhtml" target="_top">
<path fill="none" stroke="#63b8ff" d="M445.59,-110.13C439.59,-107.23 432.65,-104.3 426,-102.5 336.35,-78.24 308,-105.42 218,-82.5 214.43,-81.59 210.77,-80.4 207.19,-79.08"/>
<polygon fill="#63b8ff" stroke="#63b8ff" points="208.83,-75.97 198.25,-75.42 206.18,-82.45 208.83,-75.97"/>
</a>
</g>
<g id="a_edge6&#45;headlabel"><a xlink:href="dir_000008_000004.xhtml" target="_top" xlink:title="1">
<text text-anchor="middle" x="211.83" y="-70.26" font-family="Helvetica,sans-Serif" font-size="10.00" fill="#63b8ff">1</text>
</a>
</g>
</g>
<!-- dir_d45b43f6818aeab396ed81797090b4ba&#45;&gt;dir_d96b870306bee9c1c6578f3dbc9d0bad -->
<g id="edge8" class="edge">
<title>dir_d45b43f6818aeab396ed81797090b4ba&#45;&gt;dir_d96b870306bee9c1c6578f3dbc9d0bad</title>
<g id="a_edge8"><a xlink:href="dir_000008_000006.xhtml" target="_top">
<path fill="none" stroke="#63b8ff" d="M443.05,-110.09C437.58,-107.56 431.58,-104.86 426,-102.5 406.45,-94.23 384.34,-85.66 366.37,-78.89"/>
<polygon fill="#63b8ff" stroke="#63b8ff" points="367.79,-75.68 357.2,-75.46 365.34,-82.24 367.79,-75.68"/>
</a>
</g>
<g id="a_edge8&#45;headlabel"><a xlink:href="dir_000008_000006.xhtml" target="_top" xlink:title="1">
<text text-anchor="middle" x="370.73" y="-69.88" font-family="Helvetica,sans-Serif" font-size="10.00" fill="#63b8ff">1</text>
</a>
</g>
</g>
<!-- dir_d45b43f6818aeab396ed81797090b4ba&#45;&gt;dir_d44c64559bbebec7f509842c48db8b23 -->
<g id="edge7" class="edge">
<title>dir_d45b43f6818aeab396ed81797090b4ba&#45;&gt;dir_d44c64559bbebec7f509842c48db8b23</title>
<g id="a_edge7"><a xlink:href="dir_000008_000009.xhtml" target="_top">
<path fill="none" stroke="#63b8ff" d="M460.95,-110.05C458.8,-94.47 452.78,-62.11 438,-39.25 435.1,-34.76 431.29,-30.57 427.29,-26.86"/>
<polygon fill="#63b8ff" stroke="#63b8ff" points="429.62,-24.24 419.69,-20.53 425.14,-29.62 429.62,-24.24"/>
</a>
</g>
<g id="a_edge7&#45;headlabel"><a xlink:href="dir_000008_000009.xhtml" target="_top" xlink:title="1">
<text text-anchor="middle" x="433.03" y="-19.51" font-family="Helvetica,sans-Serif" font-size="10.00" fill="#63b8ff">1</text>
</a>
</g>
</g>
</g>
</svg>
