<?xml version="1.0" encoding="UTF-8" standalone="no"?>
<!DOCTYPE svg PUBLIC "-//W3C//DTD SVG 1.1//EN"
 "http://www.w3.org/Graphics/SVG/1.1/DTD/svg11.dtd">
<!-- Generated by graphviz version 12.2.0 (20241103.1931)
 -->
<!-- Title: /github/workspace/test Pages: 1 -->
<!--zoomable 99 -->

<svg id="main" version="1.1" xmlns="http://www.w3.org/2000/svg" xmlns:xlink="http://www.w3.org/1999/xlink" xml:space="preserve" onload="init(evt)">

<style type="text/css"><![CDATA[
.node, .edge {opacity: 0.7;}
.node.selected, .edge.selected {opacity: 1;}
.edge:hover path { stroke: red; }
.edge:hover polygon { stroke: red; fill: red; }
]]></style>

<defs>
  <circle id="rim" cx="0" cy="0" r="7"/>
  <circle id="rim2" cx="0" cy="0" r="3.5"/>
  <g id="zoomPlus">
    <use xlink:href="#rim" fill="#404040"><set attributeName="fill" to="#808080" begin="zoomplus.mouseover" end="zoomplus.mouseout"/></use>
    <path d="M-4,0h8M0,-4v8" fill="none" stroke="white" stroke-width="1.5" pointer-events="none"/>
  </g>
  <g id="zoomMin">
    <use xlink:href="#rim" fill="#404040"><set attributeName="fill" to="#808080" begin="zoomminus.mouseover" end="zoomminus.mouseout"/></use>
    <path d="M-4,0h8" fill="none" stroke="white" stroke-width="1.5" pointer-events="none"/>
  </g>
  <g id="arrowUp" transform="translate(30 24)">
    <use xlink:href="#rim"/>
    <path pointer-events="none" fill="none" stroke="white" stroke-width="1.5" d="M0,-3.0v7 M-2.5,-0.5L0,-3.0L2.5,-0.5"/>
  </g>
  <g id="arrowRight" transform="rotate(90) translate(36 -43)">
    <use xlink:href="#rim"/>
    <path pointer-events="none" fill="none" stroke="white" stroke-width="1.5" d="M0,-3.0v7 M-2.5,-0.5L0,-3.0L2.5,-0.5"/>
  </g>
  <g id="arrowDown" transform="rotate(180) translate(-30 -48)">
    <use xlink:href="#rim"/>
    <path pointer-events="none" fill="none" stroke="white" stroke-width="1.5" d="M0,-3.0v7 M-2.5,-0.5L0,-3.0L2.5,-0.5"/>
  </g>
  <g id="arrowLeft" transform="rotate(270) translate(-36 17)">
    <use xlink:href="#rim"/>
    <path pointer-events="none" fill="none" stroke="white" stroke-width="1.5" d="M0,-3.0v7 M-2.5,-0.5L0,-3.0L2.5,-0.5"/>
  </g>
  <g id="resetDef">
    <use xlink:href="#rim2" fill="#404040"><set attributeName="fill" to="#808080" begin="reset.mouseover" end="reset.mouseout"/></use>
  </g>
</defs>
<script type="application/ecmascript">
var viewWidth = 823;
var viewHeight = 99;
var sectionId = 'dynsection-0';
</script>
<script type="application/ecmascript" xlink:href="svg.min.js"/>
<svg id="graph" class="graph">
<g id="viewport">
<title>/github/workspace/test</title>
<g id="clust1" class="cluster">
<title>clusterdir_13e138d54eb8818da29c3992edef070a</title>
<g id="a_clust1"><a xlink:href="dir_13e138d54eb8818da29c3992edef070a.xhtml" target="_top">
<polygon fill="#edf6ed" stroke="#404040" stroke-width="2" points="8,-47.25 8,-82.5 807,-82.5 807,-47.25 8,-47.25"/>
</a>
</g>
</g>
<!-- dir_13e138d54eb8818da29c3992edef070a -->
<g id="node1" class="node">
<title>dir_13e138d54eb8818da29c3992edef070a</title>
<text text-anchor="middle" x="32" y="-61" font-family="Helvetica,sans-Serif" font-size="10.00">test</text>
</g>
<!-- dir_7f3a6c91f339432c06d7f9ff2ee1de32 -->
<g id="node2" class="node">
<title>dir_7f3a6c91f339432c06d7f9ff2ee1de32</title>
<g id="a_node2"><a xlink:href="dir_7f3a6c91f339432c06d7f9ff2ee1de32.xhtml" target="_top" xlink:title="addition">
<polygon fill="#d6ebd6" stroke="#404040" points="115.88,-74.5 66.12,-74.5 66.12,-55.25 115.88,-55.25 115.88,-74.5"/>
<text text-anchor="middle" x="91" y="-61" font-family="Helvetica,sans-Serif" font-size="10.00">addition</text>
</a>
</g>
</g>
<!-- dir_d44c64559bbebec7f509842c48db8b23 -->
<g id="node12" class="node">
<title>dir_d44c64559bbebec7f509842c48db8b23</title>
<g id="a_node12"><a xlink:href="dir_d44c64559bbebec7f509842c48db8b23.xhtml" target="_top" xlink:title="include">
<polygon fill="#edf6ed" stroke="red" points="114.38,-19.25 67.62,-19.25 67.62,0 114.38,0 114.38,-19.25"/>
<text text-anchor="middle" x="91" y="-5.75" font-family="Helvetica,sans-Serif" font-size="10.00">include</text>
</a>
</g>
</g>
<!-- dir_7f3a6c91f339432c06d7f9ff2ee1de32&#45;&gt;dir_d44c64559bbebec7f509842c48db8b23 -->
<g id="edge1" class="edge">
<title>dir_7f3a6c91f339432c06d7f9ff2ee1de32&#45;&gt;dir_d44c64559bbebec7f509842c48db8b23</title>
<g id="a_edge1"><a xlink:href="dir_000000_000017.xhtml" target="_top">
<path fill="none" stroke="#63b8ff" d="M91,-55.08C91,-48.57 91,-39.42 91,-31.12"/>
<polygon fill="#63b8ff" stroke="#63b8ff" points="94.5,-31.12 91,-21.12 87.5,-31.12 94.5,-31.12"/>
</a>
</g>
<g id="a_edge1&#45;headlabel"><a xlink:href="dir_000000_000017.xhtml" target="_top" xlink:title="1">
<text text-anchor="middle" x="97.34" y="-29.33" font-family="Helvetica,sans-Serif" font-size="10.00" fill="#63b8ff">1</text>
</a>
</g>
</g>
<!-- dir_0e0710f50cc64881006e62ab338f5134 -->
<g id="node3" class="node">
<title>dir_0e0710f50cc64881006e62ab338f5134</title>
<g id="a_node3"><a xlink:href="dir_0e0710f50cc64881006e62ab338f5134.xhtml" target="_top" xlink:title="assign">
<polygon fill="#d6ebd6" stroke="#404040" points="178.25,-74.5 133.75,-74.5 133.75,-55.25 178.25,-55.25 178.25,-74.5"/>
<text text-anchor="middle" x="156" y="-61" font-family="Helvetica,sans-Serif" font-size="10.00">assign</text>
</a>
</g>
</g>
<!-- dir_5dcc120ce88763492754ea9f01fb177a -->
<g id="node4" class="node">
<title>dir_5dcc120ce88763492754ea9f01fb177a</title>
<g id="a_node4"><a xlink:href="dir_5dcc120ce88763492754ea9f01fb177a.xhtml" target="_top" xlink:title="at">
<polygon fill="#d6ebd6" stroke="#404040" points="225.4,-74.5 196.6,-74.5 196.6,-55.25 225.4,-55.25 225.4,-74.5"/>
<text text-anchor="middle" x="211" y="-61" font-family="Helvetica,sans-Serif" font-size="10.00">at</text>
</a>
</g>
</g>
<!-- dir_38eb1dc5b1c36523e6cf628b0c17f528 -->
<g id="node5" class="node">
<title>dir_38eb1dc5b1c36523e6cf628b0c17f528</title>
<g id="a_node5"><a xlink:href="dir_38eb1dc5b1c36523e6cf628b0c17f528.xhtml" target="_top" xlink:title="constructor">
<polygon fill="#d6ebd6" stroke="#404040" points="308.38,-74.5 243.62,-74.5 243.62,-55.25 308.38,-55.25 308.38,-74.5"/>
<text text-anchor="middle" x="276" y="-61" font-family="Helvetica,sans-Serif" font-size="10.00">constructor</text>
</a>
</g>
</g>
<!-- dir_974b212e1e2ae05a6e4111a20679b9dc -->
<g id="node6" class="node">
<title>dir_974b212e1e2ae05a6e4111a20679b9dc</title>
<g id="a_node6"><a xlink:href="dir_974b212e1e2ae05a6e4111a20679b9dc.xhtml" target="_top" xlink:title="element">
<polygon fill="#d6ebd6" stroke="#404040" points="377.25,-74.5 326.75,-74.5 326.75,-55.25 377.25,-55.25 377.25,-74.5"/>
<text text-anchor="middle" x="352" y="-61" font-family="Helvetica,sans-Serif" font-size="10.00">element</text>
</a>
</g>
</g>
<!-- dir_74a3c9427e9a4782c7a8462862ac57cd -->
<g id="node7" class="node">
<title>dir_74a3c9427e9a4782c7a8462862ac57cd</title>
<g id="a_node7"><a xlink:href="dir_74a3c9427e9a4782c7a8462862ac57cd.xhtml" target="_top" xlink:title="format">
<polygon fill="#d6ebd6" stroke="#404040" points="438.88,-74.5 395.12,-74.5 395.12,-55.25 438.88,-55.25 438.88,-74.5"/>
<text text-anchor="middle" x="417" y="-61" font-family="Helvetica,sans-Serif" font-size="10.00">format</text>
</a>
</g>
</g>
<!-- dir_ee1764ef7e89f8bab90de731673224c8 -->
<g id="node8" class="node">
<title>dir_ee1764ef7e89f8bab90de731673224c8</title>
<g id="a_node8"><a xlink:href="dir_ee1764ef7e89f8bab90de731673224c8.xhtml" target="_top" xlink:title="multiplication">
<polygon fill="#d6ebd6" stroke="#404040" points="529.5,-74.5 456.5,-74.5 456.5,-55.25 529.5,-55.25 529.5,-74.5"/>
<text text-anchor="middle" x="493" y="-61" font-family="Helvetica,sans-Serif" font-size="10.00">multiplication</text>
</a>
</g>
</g>
<!-- dir_ad90eb67f5c466639c693c5233f213d0 -->
<g id="node9" class="node">
<title>dir_ad90eb67f5c466639c693c5233f213d0</title>
<g id="a_node9"><a xlink:href="dir_ad90eb67f5c466639c693c5233f213d0.xhtml" target="_top" xlink:title="operator">
<polygon fill="#d6ebd6" stroke="#404040" points="598.62,-74.5 547.38,-74.5 547.38,-55.25 598.62,-55.25 598.62,-74.5"/>
<text text-anchor="middle" x="573" y="-61" font-family="Helvetica,sans-Serif" font-size="10.00">operator</text>
</a>
</g>
</g>
<!-- dir_bb833da45de611d79770d70c20939231 -->
<g id="node10" class="node">
<title>dir_bb833da45de611d79770d70c20939231</title>
<g id="a_node10"><a xlink:href="dir_bb833da45de611d79770d70c20939231.xhtml" target="_top" xlink:title="structured_bindings">
<polygon fill="#d6ebd6" stroke="#404040" points="717.38,-74.5 616.62,-74.5 616.62,-55.25 717.38,-55.25 717.38,-74.5"/>
<text text-anchor="middle" x="667" y="-61" font-family="Helvetica,sans-Serif" font-size="10.00">structured_bindings</text>
</a>
</g>
</g>
<!-- dir_1a6ddf7e0d22624ef70b722ca0f63316 -->
<g id="node11" class="node">
<title>dir_1a6ddf7e0d22624ef70b722ca0f63316</title>
<g id="a_node11"><a xlink:href="dir_1a6ddf7e0d22624ef70b722ca0f63316.xhtml" target="_top" xlink:title="transposed">
<polygon fill="#d6ebd6" stroke="#404040" points="799,-74.5 735,-74.5 735,-55.25 799,-55.25 799,-74.5"/>
<text text-anchor="middle" x="767" y="-61" font-family="Helvetica,sans-Serif" font-size="10.00">transposed</text>
</a>
</g>
</g>
</g>
</svg>

<g id="navigator" transform="translate(0 0)" fill="#404254">
  <rect fill="#f2f5e9" fill-opacity="0.5" stroke="#606060" stroke-width=".5" x="0" y="0" width="60" height="60"/>
  <use id="zoomplus" xlink:href="#zoomPlus" x="17" y="9" onmousedown="handleZoom(evt,'in')"/>
  <use id="zoomminus" xlink:href="#zoomMin" x="42" y="9" onmousedown="handleZoom(evt,'out')"/>
  <use id="reset" xlink:href="#resetDef" x="30" y="36" onmousedown="handleReset()"/>
   <use id="arrowup" xlink:href="#arrowUp" x="0" y="0" onmousedown="handlePan(0,-1)"/>
  <use id="arrowright" xlink:href="#arrowRight" x="0" y="0" onmousedown="handlePan(1,0)"/>
  <use id="arrowdown" xlink:href="#arrowDown" x="0" y="0" onmousedown="handlePan(0,1)"/>
  <use id="arrowleft" xlink:href="#arrowLeft" x="0" y="0" onmousedown="handlePan(-1,0)"/>
</g>
<svg viewBox="0 0 15 15" width="100%" height="30px" preserveAspectRatio="xMaxYMin meet">
 <g id="arrow_out" transform="scale(0.3 0.3)">
  <a xlink:href="dir_13e138d54eb8818da29c3992edef070a_dep_org.svg" target="_base">
   <rect id="button" ry="5" rx="5" y="6" x="6" height="38" width="38"
        fill="#f2f5e9" fill-opacity="0.5" stroke="#606060" stroke-width="1.0"/>
   <path id="arrow"
     d="M 11.500037,31.436501 C 11.940474,20.09759 22.043105,11.32322 32.158766,21.979434 L 37.068811,17.246167 C 37.068811,17.246167 37.088388,32 37.088388,32 L 22.160133,31.978069 C 22.160133,31.978069 26.997745,27.140456 26.997745,27.140456 C 18.528582,18.264221 13.291696,25.230495 11.500037,31.436501 z"
     style="fill:#404040;"/>
  </a>
 </g>
</svg>

<style type='text/css'>
<![CDATA[
[data-mouse-over-selected='false'] { opacity: 0.7; }
[data-mouse-over-selected='true']  { opacity: 1.0; }
]]>
</style>
<script type="application/ecmascript"><![CDATA[
document.addEventListener('DOMContentLoaded', (event) => {
  highlightEdges();
  highlightAdjacentNodes();
});
]]></script>
</svg>
