<?xml version="1.0" encoding="UTF-8" standalone="no"?>
<!DOCTYPE svg PUBLIC "-//W3C//DTD SVG 1.1//EN"
 "http://www.w3.org/Graphics/SVG/1.1/DTD/svg11.dtd">
<!-- Generated by graphviz version 12.2.0 (20241103.1931)
 -->
<!-- Title: /github/workspace/support Pages: 1 -->
<svg width="892pt" height="162pt"
 viewBox="0.00 0.00 892.00 161.75" xmlns="http://www.w3.org/2000/svg" xmlns:xlink="http://www.w3.org/1999/xlink">
<g id="graph0" class="graph" transform="scale(1 1) rotate(0) translate(4 157.75)">
<title>/github/workspace/support</title>
<g id="clust1" class="cluster">
<title>clusterdir_5815af820a9cc9481f1d0990a0d60286</title>
<g id="a_clust1"><a xlink:href="dir_5815af820a9cc9481f1d0990a0d60286.xhtml" target="_top">
<polygon fill="#edf6ed" stroke="#404040" stroke-width="2" points="8,-39.25 8,-145.75 876,-145.75 876,-39.25 8,-39.25"/>
</a>
</g>
</g>
<g id="clust2" class="cluster">
<title>clusterdir_b2f5a9b0c45dbeb1baf4e9d55733efbc</title>
<g id="a_clust2"><a xlink:href="dir_b2f5a9b0c45dbeb1baf4e9d55733efbc.xhtml" target="_top">
<polygon fill="#d6ebd6" stroke="#404040" points="224,-47.25 224,-82.5 351,-82.5 351,-47.25 224,-47.25"/>
</a>
</g>
</g>
<g id="clust3" class="cluster">
<title>clusterdir_9465ff112e2182c1b8baafa22795bcd6</title>
<g id="a_clust3"><a xlink:href="dir_9465ff112e2182c1b8baafa22795bcd6.xhtml" target="_top">
<polygon fill="#d6ebd6" stroke="#404040" points="16,-102.5 16,-137.75 153,-137.75 153,-102.5 16,-102.5"/>
</a>
</g>
</g>
<g id="clust4" class="cluster">
<title>clusterdir_ad3aec80637e09f6ac03fe9cf2951131</title>
<g id="a_clust4"><a xlink:href="dir_ad3aec80637e09f6ac03fe9cf2951131.xhtml" target="_top">
<polygon fill="#d6ebd6" stroke="#404040" points="359,-47.25 359,-82.5 503,-82.5 503,-47.25 359,-47.25"/>
</a>
</g>
</g>
<g id="clust5" class="cluster">
<title>clusterdir_ebfce32cc1e861c03f168700fe78b91e</title>
<g id="a_clust5"><a xlink:href="dir_ebfce32cc1e861c03f168700fe78b91e.xhtml" target="_top">
<polygon fill="#d6ebd6" stroke="#404040" points="161,-102.5 161,-137.75 351,-137.75 351,-102.5 161,-102.5"/>
</a>
</g>
</g>
<g id="clust6" class="cluster">
<title>clusterdir_28fa0c21df95b2fb2bbf6309f49fc2af</title>
<g id="a_clust6"><a xlink:href="dir_28fa0c21df95b2fb2bbf6309f49fc2af.xhtml" target="_top">
<polygon fill="#d6ebd6" stroke="#404040" points="359,-102.5 359,-137.75 525,-137.75 525,-102.5 359,-102.5"/>
</a>
</g>
</g>
<g id="clust7" class="cluster">
<title>clusterdir_e3b4440706c45509af2e8be9d829226e</title>
<g id="a_clust7"><a xlink:href="dir_e3b4440706c45509af2e8be9d829226e.xhtml" target="_top">
<polygon fill="#d6ebd6" stroke="#404040" points="533,-102.5 533,-137.75 689,-137.75 689,-102.5 533,-102.5"/>
</a>
</g>
</g>
<!-- dir_5815af820a9cc9481f1d0990a0d60286 -->
<g id="node1" class="node">
<title>dir_5815af820a9cc9481f1d0990a0d60286</title>
<text text-anchor="middle" x="723" y="-116.25" font-family="Helvetica,sans-Serif" font-size="10.00">support</text>
</g>
<!-- dir_b2f5a9b0c45dbeb1baf4e9d55733efbc -->
<g id="node2" class="node">
<title>dir_b2f5a9b0c45dbeb1baf4e9d55733efbc</title>
<text text-anchor="middle" x="252" y="-61" font-family="Helvetica,sans-Serif" font-size="10.00">eigen</text>
</g>
<!-- dir_7e92a10fa1b0fca219294b16abd4710c -->
<g id="node3" class="node">
<title>dir_7e92a10fa1b0fca219294b16abd4710c</title>
<g id="a_node3"><a xlink:href="dir_7e92a10fa1b0fca219294b16abd4710c.xhtml" target="_top" xlink:title="fcarouge">
<polygon fill="#bee0be" stroke="#404040" points="342.75,-74.5 289.25,-74.5 289.25,-55.25 342.75,-55.25 342.75,-74.5"/>
<text text-anchor="middle" x="316" y="-61" font-family="Helvetica,sans-Serif" font-size="10.00">fcarouge</text>
</a>
</g>
</g>
<!-- dir_d44c64559bbebec7f509842c48db8b23 -->
<g id="node16" class="node">
<title>dir_d44c64559bbebec7f509842c48db8b23</title>
<g id="a_node16"><a xlink:href="dir_d44c64559bbebec7f509842c48db8b23.xhtml" target="_top" xlink:title="include">
<polygon fill="#edf6ed" stroke="red" points="584.38,-19.25 537.62,-19.25 537.62,0 584.38,0 584.38,-19.25"/>
<text text-anchor="middle" x="561" y="-5.75" font-family="Helvetica,sans-Serif" font-size="10.00">include</text>
</a>
</g>
</g>
<!-- dir_7e92a10fa1b0fca219294b16abd4710c&#45;&gt;dir_d44c64559bbebec7f509842c48db8b23 -->
<g id="edge1" class="edge">
<title>dir_7e92a10fa1b0fca219294b16abd4710c&#45;&gt;dir_d44c64559bbebec7f509842c48db8b23</title>
<g id="a_edge1"><a xlink:href="dir_000004_000011.xhtml" target="_top">
<path fill="none" stroke="#63b8ff" d="M327.26,-54.94C334.71,-49.51 344.92,-42.94 355,-39.25 412.41,-18.25 483.97,-12.51 525.87,-11.03"/>
<polygon fill="#63b8ff" stroke="#63b8ff" points="525.95,-14.52 535.85,-10.74 525.76,-7.53 525.95,-14.52"/>
</a>
</g>
<g id="a_edge1&#45;headlabel"><a xlink:href="dir_000004_000011.xhtml" target="_top" xlink:title="1">
<text text-anchor="middle" x="523.95" y="-13.55" font-family="Helvetica,sans-Serif" font-size="10.00" fill="#63b8ff">1</text>
</a>
</g>
</g>
<!-- dir_9465ff112e2182c1b8baafa22795bcd6 -->
<g id="node4" class="node">
<title>dir_9465ff112e2182c1b8baafa22795bcd6</title>
<text text-anchor="middle" x="49" y="-116.25" font-family="Helvetica,sans-Serif" font-size="10.00">eigexed</text>
</g>
<!-- dir_e5b188ee29900239e7a863318756cf30 -->
<g id="node5" class="node">
<title>dir_e5b188ee29900239e7a863318756cf30</title>
<g id="a_node5"><a xlink:href="dir_e5b188ee29900239e7a863318756cf30.xhtml" target="_top" xlink:title="fcarouge">
<polygon fill="#bee0be" stroke="#404040" points="144.75,-129.75 91.25,-129.75 91.25,-110.5 144.75,-110.5 144.75,-129.75"/>
<text text-anchor="middle" x="118" y="-116.25" font-family="Helvetica,sans-Serif" font-size="10.00">fcarouge</text>
</a>
</g>
</g>
<!-- dir_e5b188ee29900239e7a863318756cf30&#45;&gt;dir_7e92a10fa1b0fca219294b16abd4710c -->
<g id="edge2" class="edge">
<title>dir_e5b188ee29900239e7a863318756cf30&#45;&gt;dir_7e92a10fa1b0fca219294b16abd4710c</title>
<g id="a_edge2"><a xlink:href="dir_000005_000004.xhtml" target="_top">
<path fill="none" stroke="#63b8ff" d="M136.71,-110.06C143.03,-107.29 150.21,-104.46 157,-102.5 210.63,-87 227.7,-99.09 281,-82.5 283.6,-81.69 286.26,-80.72 288.88,-79.66"/>
<polygon fill="#63b8ff" stroke="#63b8ff" points="290.23,-82.9 297.92,-75.61 287.36,-76.51 290.23,-82.9"/>
</a>
</g>
<g id="a_edge2&#45;headlabel"><a xlink:href="dir_000005_000004.xhtml" target="_top" xlink:title="1">
<text text-anchor="middle" x="289.49" y="-82.46" font-family="Helvetica,sans-Serif" font-size="10.00" fill="#63b8ff">1</text>
</a>
</g>
</g>
<!-- dir_e5b188ee29900239e7a863318756cf30&#45;&gt;dir_d44c64559bbebec7f509842c48db8b23 -->
<g id="edge3" class="edge">
<title>dir_e5b188ee29900239e7a863318756cf30&#45;&gt;dir_d44c64559bbebec7f509842c48db8b23</title>
<g id="a_edge3"><a xlink:href="dir_000005_000011.xhtml" target="_top">
<path fill="none" stroke="#63b8ff" d="M135.42,-110.17C142.01,-107.2 149.69,-104.21 157,-102.5 232.85,-84.74 439.04,-120.58 507,-82.5 527.41,-71.07 522.8,-57.84 537,-39.25 539.72,-35.69 542.72,-31.97 545.65,-28.43"/>
<polygon fill="#63b8ff" stroke="#63b8ff" points="548.24,-30.78 552.02,-20.89 542.89,-26.26 548.24,-30.78"/>
</a>
</g>
<g id="a_edge3&#45;headlabel"><a xlink:href="dir_000005_000011.xhtml" target="_top" xlink:title="1">
<text text-anchor="middle" x="549.06" y="-30.33" font-family="Helvetica,sans-Serif" font-size="10.00" fill="#63b8ff">1</text>
</a>
</g>
</g>
<!-- dir_aa1a2190773d2a2a6c1da8ab14a8d2c8 -->
<g id="node6" class="node">
<title>dir_aa1a2190773d2a2a6c1da8ab14a8d2c8</title>
<g id="a_node6"><a xlink:href="dir_aa1a2190773d2a2a6c1da8ab14a8d2c8.xhtml" target="_top" xlink:title="kokkos">
<polygon fill="#d6ebd6" stroke="#404040" points="812.75,-129.75 765.25,-129.75 765.25,-110.5 812.75,-110.5 812.75,-129.75"/>
<text text-anchor="middle" x="789" y="-116.25" font-family="Helvetica,sans-Serif" font-size="10.00">kokkos</text>
</a>
</g>
</g>
<!-- dir_77010ae1c659866f3d80deb588daf66a -->
<g id="node7" class="node">
<title>dir_77010ae1c659866f3d80deb588daf66a</title>
<g id="a_node7"><a xlink:href="dir_77010ae1c659866f3d80deb588daf66a.xhtml" target="_top" xlink:title="main">
<polygon fill="#d6ebd6" stroke="#404040" points="867.5,-129.75 830.5,-129.75 830.5,-110.5 867.5,-110.5 867.5,-129.75"/>
<text text-anchor="middle" x="849" y="-116.25" font-family="Helvetica,sans-Serif" font-size="10.00">main</text>
</a>
</g>
</g>
<!-- dir_ad3aec80637e09f6ac03fe9cf2951131 -->
<g id="node8" class="node">
<title>dir_ad3aec80637e09f6ac03fe9cf2951131</title>
<text text-anchor="middle" x="395" y="-61" font-family="Helvetica,sans-Serif" font-size="10.00">mp_units</text>
</g>
<!-- dir_d96b870306bee9c1c6578f3dbc9d0bad -->
<g id="node9" class="node">
<title>dir_d96b870306bee9c1c6578f3dbc9d0bad</title>
<g id="a_node9"><a xlink:href="dir_d96b870306bee9c1c6578f3dbc9d0bad.xhtml" target="_top" xlink:title="fcarouge">
<polygon fill="#bee0be" stroke="#404040" points="494.75,-74.5 441.25,-74.5 441.25,-55.25 494.75,-55.25 494.75,-74.5"/>
<text text-anchor="middle" x="468" y="-61" font-family="Helvetica,sans-Serif" font-size="10.00">fcarouge</text>
</a>
</g>
</g>
<!-- dir_ebfce32cc1e861c03f168700fe78b91e -->
<g id="node10" class="node">
<title>dir_ebfce32cc1e861c03f168700fe78b91e</title>
<text text-anchor="middle" x="220" y="-116.25" font-family="Helvetica,sans-Serif" font-size="10.00">nested_typed_eigen</text>
</g>
<!-- dir_f8792443906585b6c5977f372edea2ac -->
<g id="node11" class="node">
<title>dir_f8792443906585b6c5977f372edea2ac</title>
<g id="a_node11"><a xlink:href="dir_f8792443906585b6c5977f372edea2ac.xhtml" target="_top" xlink:title="fcarouge">
<polygon fill="#bee0be" stroke="#404040" points="342.75,-129.75 289.25,-129.75 289.25,-110.5 342.75,-110.5 342.75,-129.75"/>
<text text-anchor="middle" x="316" y="-116.25" font-family="Helvetica,sans-Serif" font-size="10.00">fcarouge</text>
</a>
</g>
</g>
<!-- dir_f8792443906585b6c5977f372edea2ac&#45;&gt;dir_7e92a10fa1b0fca219294b16abd4710c -->
<g id="edge4" class="edge">
<title>dir_f8792443906585b6c5977f372edea2ac&#45;&gt;dir_7e92a10fa1b0fca219294b16abd4710c</title>
<g id="a_edge4"><a xlink:href="dir_000007_000004.xhtml" target="_top">
<path fill="none" stroke="#63b8ff" d="M316,-110.33C316,-103.82 316,-94.67 316,-86.37"/>
<polygon fill="#63b8ff" stroke="#63b8ff" points="319.5,-86.37 316,-76.37 312.5,-86.37 319.5,-86.37"/>
</a>
</g>
<g id="a_edge4&#45;headlabel"><a xlink:href="dir_000007_000004.xhtml" target="_top" xlink:title="1">
<text text-anchor="middle" x="322.34" y="-84.58" font-family="Helvetica,sans-Serif" font-size="10.00" fill="#63b8ff">1</text>
</a>
</g>
</g>
<!-- dir_f8792443906585b6c5977f372edea2ac&#45;&gt;dir_d44c64559bbebec7f509842c48db8b23 -->
<g id="edge5" class="edge">
<title>dir_f8792443906585b6c5977f372edea2ac&#45;&gt;dir_d44c64559bbebec7f509842c48db8b23</title>
<g id="a_edge5"><a xlink:href="dir_000007_000011.xhtml" target="_top">
<path fill="none" stroke="#63b8ff" d="M334.26,-110.03C340.67,-107.19 348.02,-104.33 355,-102.5 394.36,-92.19 505.34,-108.05 537,-82.5 552.5,-69.99 558.06,-47.14 560.02,-30.55"/>
<polygon fill="#63b8ff" stroke="#63b8ff" points="563.48,-31.12 560.79,-20.87 556.51,-30.56 563.48,-31.12"/>
</a>
</g>
<g id="a_edge5&#45;headlabel"><a xlink:href="dir_000007_000011.xhtml" target="_top" xlink:title="1">
<text text-anchor="middle" x="566.15" y="-29.55" font-family="Helvetica,sans-Serif" font-size="10.00" fill="#63b8ff">1</text>
</a>
</g>
</g>
<!-- dir_28fa0c21df95b2fb2bbf6309f49fc2af -->
<g id="node12" class="node">
<title>dir_28fa0c21df95b2fb2bbf6309f49fc2af</title>
<text text-anchor="middle" x="406" y="-116.25" font-family="Helvetica,sans-Serif" font-size="10.00">quantity_eigen</text>
</g>
<!-- dir_ec612cc3b37c1aec0482cadf205c62fc -->
<g id="node13" class="node">
<title>dir_ec612cc3b37c1aec0482cadf205c62fc</title>
<g id="a_node13"><a xlink:href="dir_ec612cc3b37c1aec0482cadf205c62fc.xhtml" target="_top" xlink:title="fcarouge">
<polygon fill="#bee0be" stroke="#404040" points="516.75,-129.75 463.25,-129.75 463.25,-110.5 516.75,-110.5 516.75,-129.75"/>
<text text-anchor="middle" x="490" y="-116.25" font-family="Helvetica,sans-Serif" font-size="10.00">fcarouge</text>
</a>
</g>
</g>
<!-- dir_ec612cc3b37c1aec0482cadf205c62fc&#45;&gt;dir_7e92a10fa1b0fca219294b16abd4710c -->
<g id="edge6" class="edge">
<title>dir_ec612cc3b37c1aec0482cadf205c62fc&#45;&gt;dir_7e92a10fa1b0fca219294b16abd4710c</title>
<g id="a_edge6"><a xlink:href="dir_000008_000004.xhtml" target="_top">
<path fill="none" stroke="#63b8ff" d="M472.75,-110.17C466.91,-107.41 460.28,-104.55 454,-102.5 411.33,-88.55 397.87,-95.81 355,-82.5 351.9,-81.54 348.72,-80.41 345.56,-79.21"/>
<polygon fill="#63b8ff" stroke="#63b8ff" points="347.13,-76.07 336.55,-75.53 344.48,-82.55 347.13,-76.07"/>
</a>
</g>
<g id="a_edge6&#45;headlabel"><a xlink:href="dir_000008_000004.xhtml" target="_top" xlink:title="1">
<text text-anchor="middle" x="350.13" y="-70.36" font-family="Helvetica,sans-Serif" font-size="10.00" fill="#63b8ff">1</text>
</a>
</g>
</g>
<!-- dir_ec612cc3b37c1aec0482cadf205c62fc&#45;&gt;dir_d96b870306bee9c1c6578f3dbc9d0bad -->
<g id="edge8" class="edge">
<title>dir_ec612cc3b37c1aec0482cadf205c62fc&#45;&gt;dir_d96b870306bee9c1c6578f3dbc9d0bad</title>
<g id="a_edge8"><a xlink:href="dir_000008_000006.xhtml" target="_top">
<path fill="none" stroke="#63b8ff" d="M486.37,-110.33C483.58,-103.59 479.63,-94.02 476.1,-85.49"/>
<polygon fill="#63b8ff" stroke="#63b8ff" points="479.34,-84.16 472.29,-76.26 472.87,-86.84 479.34,-84.16"/>
</a>
</g>
<g id="a_edge8&#45;headlabel"><a xlink:href="dir_000008_000006.xhtml" target="_top" xlink:title="1">
<text text-anchor="middle" x="482.76" y="-81.13" font-family="Helvetica,sans-Serif" font-size="10.00" fill="#63b8ff">1</text>
</a>
</g>
</g>
<!-- dir_ec612cc3b37c1aec0482cadf205c62fc&#45;&gt;dir_d44c64559bbebec7f509842c48db8b23 -->
<g id="edge7" class="edge">
<title>dir_ec612cc3b37c1aec0482cadf205c62fc&#45;&gt;dir_d44c64559bbebec7f509842c48db8b23</title>
<g id="a_edge7"><a xlink:href="dir_000008_000011.xhtml" target="_top">
<path fill="none" stroke="#63b8ff" d="M510.94,-110.19C536.03,-99.46 574.76,-82.86 575,-82.5 585.46,-66.6 578.9,-44.73 571.65,-29.3"/>
<polygon fill="#63b8ff" stroke="#63b8ff" points="574.91,-27.97 567.18,-20.72 568.7,-31.21 574.91,-27.97"/>
</a>
</g>
<g id="a_edge7&#45;headlabel"><a xlink:href="dir_000008_000011.xhtml" target="_top" xlink:title="1">
<text text-anchor="middle" x="578.39" y="-24.63" font-family="Helvetica,sans-Serif" font-size="10.00" fill="#63b8ff">1</text>
</a>
</g>
</g>
<!-- dir_e3b4440706c45509af2e8be9d829226e -->
<g id="node14" class="node">
<title>dir_e3b4440706c45509af2e8be9d829226e</title>
<text text-anchor="middle" x="575" y="-116.25" font-family="Helvetica,sans-Serif" font-size="10.00">quantity_std</text>
</g>
<!-- dir_a8dfc94e301cbcd042ba40ceee49e151 -->
<g id="node15" class="node">
<title>dir_a8dfc94e301cbcd042ba40ceee49e151</title>
<g id="a_node15"><a xlink:href="dir_a8dfc94e301cbcd042ba40ceee49e151.xhtml" target="_top" xlink:title="fcarouge">
<polygon fill="#bee0be" stroke="#404040" points="680.75,-129.75 627.25,-129.75 627.25,-110.5 680.75,-110.5 680.75,-129.75"/>
<text text-anchor="middle" x="654" y="-116.25" font-family="Helvetica,sans-Serif" font-size="10.00">fcarouge</text>
</a>
</g>
</g>
<!-- dir_a8dfc94e301cbcd042ba40ceee49e151&#45;&gt;dir_d96b870306bee9c1c6578f3dbc9d0bad -->
<g id="edge10" class="edge">
<title>dir_a8dfc94e301cbcd042ba40ceee49e151&#45;&gt;dir_d96b870306bee9c1c6578f3dbc9d0bad</title>
<g id="a_edge10"><a xlink:href="dir_000009_000006.xhtml" target="_top">
<path fill="none" stroke="#63b8ff" d="M636.34,-110.14C630.59,-107.44 624.11,-104.63 618,-102.5 580.75,-89.49 536.74,-79.33 506.07,-73.05"/>
<polygon fill="#63b8ff" stroke="#63b8ff" points="506.98,-69.66 496.49,-71.13 505.61,-76.52 506.98,-69.66"/>
</a>
</g>
<g id="a_edge10&#45;headlabel"><a xlink:href="dir_000009_000006.xhtml" target="_top" xlink:title="1">
<text text-anchor="middle" x="509.58" y="-63.41" font-family="Helvetica,sans-Serif" font-size="10.00" fill="#63b8ff">1</text>
</a>
</g>
</g>
<!-- dir_a8dfc94e301cbcd042ba40ceee49e151&#45;&gt;dir_d44c64559bbebec7f509842c48db8b23 -->
<g id="edge9" class="edge">
<title>dir_a8dfc94e301cbcd042ba40ceee49e151&#45;&gt;dir_d44c64559bbebec7f509842c48db8b23</title>
<g id="a_edge9"><a xlink:href="dir_000009_000011.xhtml" target="_top">
<path fill="none" stroke="#63b8ff" d="M647.92,-110.36C637.29,-95.24 614.32,-63.56 592,-39.25 588.28,-35.19 584.07,-31.05 579.98,-27.23"/>
<polygon fill="#63b8ff" stroke="#63b8ff" points="582.34,-24.64 572.58,-20.52 577.64,-29.83 582.34,-24.64"/>
</a>
</g>
<g id="a_edge9&#45;headlabel"><a xlink:href="dir_000009_000011.xhtml" target="_top" xlink:title="1">
<text text-anchor="middle" x="585.79" y="-20.06" font-family="Helvetica,sans-Serif" font-size="10.00" fill="#63b8ff">1</text>
</a>
</g>
</g>
</g>
</svg>
