<?xml version="1.0" encoding="UTF-8" standalone="no"?>
<!DOCTYPE svg PUBLIC "-//W3C//DTD SVG 1.1//EN"
 "http://www.w3.org/Graphics/SVG/1.1/DTD/svg11.dtd">
<!-- Generated by graphviz version 12.2.0 (20241103.1931)
 -->
<!-- Title: /github/workspace/support Pages: 1 -->
<svg width="856pt" height="162pt"
 viewBox="0.00 0.00 856.00 161.75" xmlns="http://www.w3.org/2000/svg" xmlns:xlink="http://www.w3.org/1999/xlink">
<g id="graph0" class="graph" transform="scale(1 1) rotate(0) translate(4 157.75)">
<title>/github/workspace/support</title>
<g id="clust1" class="cluster">
<title>clusterdir_5815af820a9cc9481f1d0990a0d60286</title>
<g id="a_clust1"><a xlink:href="dir_5815af820a9cc9481f1d0990a0d60286.xhtml" target="_top">
<polygon fill="#edf6ed" stroke="#404040" stroke-width="2" points="8,-39.25 8,-145.75 840,-145.75 840,-39.25 8,-39.25"/>
</a>
</g>
</g>
<g id="clust2" class="cluster">
<title>clusterdir_b2f5a9b0c45dbeb1baf4e9d55733efbc</title>
<g id="a_clust2"><a xlink:href="dir_b2f5a9b0c45dbeb1baf4e9d55733efbc.xhtml" target="_top">
<polygon fill="#d6ebd6" stroke="#404040" points="224,-47.25 224,-82.5 351,-82.5 351,-47.25 224,-47.25"/>
</a>
</g>
</g>
<g id="clust3" class="cluster">
<title>clusterdir_9465ff112e2182c1b8baafa22795bcd6</title>
<g id="a_clust3"><a xlink:href="dir_9465ff112e2182c1b8baafa22795bcd6.xhtml" target="_top">
<polygon fill="#d6ebd6" stroke="#404040" points="16,-102.5 16,-137.75 153,-137.75 153,-102.5 16,-102.5"/>
</a>
</g>
</g>
<g id="clust4" class="cluster">
<title>clusterdir_ebfce32cc1e861c03f168700fe78b91e</title>
<g id="a_clust4"><a xlink:href="dir_ebfce32cc1e861c03f168700fe78b91e.xhtml" target="_top">
<polygon fill="#d6ebd6" stroke="#404040" points="161,-102.5 161,-137.75 351,-137.75 351,-102.5 161,-102.5"/>
</a>
</g>
</g>
<g id="clust5" class="cluster">
<title>clusterdir_97e04880d68e475a72bb21527a09fb79</title>
<g id="a_clust5"><a xlink:href="dir_97e04880d68e475a72bb21527a09fb79.xhtml" target="_top">
<polygon fill="#d6ebd6" stroke="#404040" points="359,-47.25 359,-82.5 479,-82.5 479,-47.25 359,-47.25"/>
</a>
</g>
</g>
<g id="clust6" class="cluster">
<title>clusterdir_a933a6ee2328787634edac11cb011d11</title>
<g id="a_clust6"><a xlink:href="dir_a933a6ee2328787634edac11cb011d11.xhtml" target="_top">
<polygon fill="#d6ebd6" stroke="#404040" points="359,-102.5 359,-137.75 507,-137.75 507,-102.5 359,-102.5"/>
</a>
</g>
</g>
<g id="clust7" class="cluster">
<title>clusterdir_353ecb8e1a8f1d3b75bcf6ec999417c3</title>
<g id="a_clust7"><a xlink:href="dir_353ecb8e1a8f1d3b75bcf6ec999417c3.xhtml" target="_top">
<polygon fill="#d6ebd6" stroke="#404040" points="515,-102.5 515,-137.75 653,-137.75 653,-102.5 515,-102.5"/>
</a>
</g>
</g>
<!-- dir_5815af820a9cc9481f1d0990a0d60286 -->
<g id="node1" class="node">
<title>dir_5815af820a9cc9481f1d0990a0d60286</title>
<text text-anchor="middle" x="687" y="-116.25" font-family="Helvetica,sans-Serif" font-size="10.00">support</text>
</g>
<!-- dir_b2f5a9b0c45dbeb1baf4e9d55733efbc -->
<g id="node2" class="node">
<title>dir_b2f5a9b0c45dbeb1baf4e9d55733efbc</title>
<text text-anchor="middle" x="252" y="-61" font-family="Helvetica,sans-Serif" font-size="10.00">eigen</text>
</g>
<!-- dir_7e92a10fa1b0fca219294b16abd4710c -->
<g id="node3" class="node">
<title>dir_7e92a10fa1b0fca219294b16abd4710c</title>
<g id="a_node3"><a xlink:href="dir_7e92a10fa1b0fca219294b16abd4710c.xhtml" target="_top" xlink:title="fcarouge">
<polygon fill="#bee0be" stroke="#404040" points="342.75,-74.5 289.25,-74.5 289.25,-55.25 342.75,-55.25 342.75,-74.5"/>
<text text-anchor="middle" x="316" y="-61" font-family="Helvetica,sans-Serif" font-size="10.00">fcarouge</text>
</a>
</g>
</g>
<!-- dir_d44c64559bbebec7f509842c48db8b23 -->
<g id="node16" class="node">
<title>dir_d44c64559bbebec7f509842c48db8b23</title>
<g id="a_node16"><a xlink:href="dir_d44c64559bbebec7f509842c48db8b23.xhtml" target="_top" xlink:title="include">
<polygon fill="#edf6ed" stroke="red" points="560.38,-19.25 513.62,-19.25 513.62,0 560.38,0 560.38,-19.25"/>
<text text-anchor="middle" x="537" y="-5.75" font-family="Helvetica,sans-Serif" font-size="10.00">include</text>
</a>
</g>
</g>
<!-- dir_7e92a10fa1b0fca219294b16abd4710c&#45;&gt;dir_d44c64559bbebec7f509842c48db8b23 -->
<g id="edge1" class="edge">
<title>dir_7e92a10fa1b0fca219294b16abd4710c&#45;&gt;dir_d44c64559bbebec7f509842c48db8b23</title>
<g id="a_edge1"><a xlink:href="dir_000009_000017.xhtml" target="_top">
<path fill="none" stroke="#63b8ff" d="M327.62,-54.76C335.05,-49.4 345.11,-42.97 355,-39.25 403.9,-20.87 464.48,-14.29 501.94,-11.94"/>
<polygon fill="#63b8ff" stroke="#63b8ff" points="501.94,-15.44 511.73,-11.39 501.55,-8.45 501.94,-15.44"/>
</a>
</g>
<g id="a_edge1&#45;headlabel"><a xlink:href="dir_000009_000017.xhtml" target="_top" xlink:title="1">
<text text-anchor="middle" x="500.02" y="-14.52" font-family="Helvetica,sans-Serif" font-size="10.00" fill="#63b8ff">1</text>
</a>
</g>
</g>
<!-- dir_9465ff112e2182c1b8baafa22795bcd6 -->
<g id="node4" class="node">
<title>dir_9465ff112e2182c1b8baafa22795bcd6</title>
<text text-anchor="middle" x="49" y="-116.25" font-family="Helvetica,sans-Serif" font-size="10.00">eigexed</text>
</g>
<!-- dir_e5b188ee29900239e7a863318756cf30 -->
<g id="node5" class="node">
<title>dir_e5b188ee29900239e7a863318756cf30</title>
<g id="a_node5"><a xlink:href="dir_e5b188ee29900239e7a863318756cf30.xhtml" target="_top" xlink:title="fcarouge">
<polygon fill="#bee0be" stroke="#404040" points="144.75,-129.75 91.25,-129.75 91.25,-110.5 144.75,-110.5 144.75,-129.75"/>
<text text-anchor="middle" x="118" y="-116.25" font-family="Helvetica,sans-Serif" font-size="10.00">fcarouge</text>
</a>
</g>
</g>
<!-- dir_e5b188ee29900239e7a863318756cf30&#45;&gt;dir_7e92a10fa1b0fca219294b16abd4710c -->
<g id="edge2" class="edge">
<title>dir_e5b188ee29900239e7a863318756cf30&#45;&gt;dir_7e92a10fa1b0fca219294b16abd4710c</title>
<g id="a_edge2"><a xlink:href="dir_000010_000009.xhtml" target="_top">
<path fill="none" stroke="#63b8ff" d="M136.71,-110.06C143.03,-107.29 150.21,-104.46 157,-102.5 210.63,-87 227.7,-99.09 281,-82.5 283.6,-81.69 286.26,-80.72 288.88,-79.66"/>
<polygon fill="#63b8ff" stroke="#63b8ff" points="290.23,-82.9 297.92,-75.61 287.36,-76.51 290.23,-82.9"/>
</a>
</g>
<g id="a_edge2&#45;headlabel"><a xlink:href="dir_000010_000009.xhtml" target="_top" xlink:title="1">
<text text-anchor="middle" x="289.49" y="-82.46" font-family="Helvetica,sans-Serif" font-size="10.00" fill="#63b8ff">1</text>
</a>
</g>
</g>
<!-- dir_e5b188ee29900239e7a863318756cf30&#45;&gt;dir_d44c64559bbebec7f509842c48db8b23 -->
<g id="edge3" class="edge">
<title>dir_e5b188ee29900239e7a863318756cf30&#45;&gt;dir_d44c64559bbebec7f509842c48db8b23</title>
<g id="a_edge3"><a xlink:href="dir_000010_000017.xhtml" target="_top">
<path fill="none" stroke="#63b8ff" d="M135.82,-110.01C142.32,-107.1 149.84,-104.19 157,-102.5 227.63,-85.8 419.76,-118.11 483,-82.5 503.38,-71.02 498.8,-57.84 513,-39.25 515.72,-35.69 518.72,-31.97 521.65,-28.43"/>
<polygon fill="#63b8ff" stroke="#63b8ff" points="524.24,-30.78 528.02,-20.89 518.89,-26.26 524.24,-30.78"/>
</a>
</g>
<g id="a_edge3&#45;headlabel"><a xlink:href="dir_000010_000017.xhtml" target="_top" xlink:title="1">
<text text-anchor="middle" x="525.06" y="-30.33" font-family="Helvetica,sans-Serif" font-size="10.00" fill="#63b8ff">1</text>
</a>
</g>
</g>
<!-- dir_aa1a2190773d2a2a6c1da8ab14a8d2c8 -->
<g id="node6" class="node">
<title>dir_aa1a2190773d2a2a6c1da8ab14a8d2c8</title>
<g id="a_node6"><a xlink:href="dir_aa1a2190773d2a2a6c1da8ab14a8d2c8.xhtml" target="_top" xlink:title="kokkos">
<polygon fill="#d6ebd6" stroke="#404040" points="776.75,-129.75 729.25,-129.75 729.25,-110.5 776.75,-110.5 776.75,-129.75"/>
<text text-anchor="middle" x="753" y="-116.25" font-family="Helvetica,sans-Serif" font-size="10.00">kokkos</text>
</a>
</g>
</g>
<!-- dir_77010ae1c659866f3d80deb588daf66a -->
<g id="node7" class="node">
<title>dir_77010ae1c659866f3d80deb588daf66a</title>
<g id="a_node7"><a xlink:href="dir_77010ae1c659866f3d80deb588daf66a.xhtml" target="_top" xlink:title="main">
<polygon fill="#d6ebd6" stroke="#404040" points="831.5,-129.75 794.5,-129.75 794.5,-110.5 831.5,-110.5 831.5,-129.75"/>
<text text-anchor="middle" x="813" y="-116.25" font-family="Helvetica,sans-Serif" font-size="10.00">main</text>
</a>
</g>
</g>
<!-- dir_ebfce32cc1e861c03f168700fe78b91e -->
<g id="node8" class="node">
<title>dir_ebfce32cc1e861c03f168700fe78b91e</title>
<text text-anchor="middle" x="220" y="-116.25" font-family="Helvetica,sans-Serif" font-size="10.00">nested_typed_eigen</text>
</g>
<!-- dir_f8792443906585b6c5977f372edea2ac -->
<g id="node9" class="node">
<title>dir_f8792443906585b6c5977f372edea2ac</title>
<g id="a_node9"><a xlink:href="dir_f8792443906585b6c5977f372edea2ac.xhtml" target="_top" xlink:title="fcarouge">
<polygon fill="#bee0be" stroke="#404040" points="342.75,-129.75 289.25,-129.75 289.25,-110.5 342.75,-110.5 342.75,-129.75"/>
<text text-anchor="middle" x="316" y="-116.25" font-family="Helvetica,sans-Serif" font-size="10.00">fcarouge</text>
</a>
</g>
</g>
<!-- dir_f8792443906585b6c5977f372edea2ac&#45;&gt;dir_7e92a10fa1b0fca219294b16abd4710c -->
<g id="edge4" class="edge">
<title>dir_f8792443906585b6c5977f372edea2ac&#45;&gt;dir_7e92a10fa1b0fca219294b16abd4710c</title>
<g id="a_edge4"><a xlink:href="dir_000011_000009.xhtml" target="_top">
<path fill="none" stroke="#63b8ff" d="M316,-110.33C316,-103.82 316,-94.67 316,-86.37"/>
<polygon fill="#63b8ff" stroke="#63b8ff" points="319.5,-86.37 316,-76.37 312.5,-86.37 319.5,-86.37"/>
</a>
</g>
<g id="a_edge4&#45;headlabel"><a xlink:href="dir_000011_000009.xhtml" target="_top" xlink:title="1">
<text text-anchor="middle" x="322.34" y="-84.58" font-family="Helvetica,sans-Serif" font-size="10.00" fill="#63b8ff">1</text>
</a>
</g>
</g>
<!-- dir_f8792443906585b6c5977f372edea2ac&#45;&gt;dir_d44c64559bbebec7f509842c48db8b23 -->
<g id="edge5" class="edge">
<title>dir_f8792443906585b6c5977f372edea2ac&#45;&gt;dir_d44c64559bbebec7f509842c48db8b23</title>
<g id="a_edge5"><a xlink:href="dir_000011_000017.xhtml" target="_top">
<path fill="none" stroke="#63b8ff" d="M334.27,-110.1C340.69,-107.26 348.04,-104.39 355,-102.5 389.16,-93.25 485.64,-104.95 513,-82.5 528.4,-69.86 533.98,-47.03 535.97,-30.49"/>
<polygon fill="#63b8ff" stroke="#63b8ff" points="539.43,-31.1 536.76,-20.84 532.45,-30.52 539.43,-31.1"/>
</a>
</g>
<g id="a_edge5&#45;headlabel"><a xlink:href="dir_000011_000017.xhtml" target="_top" xlink:title="1">
<text text-anchor="middle" x="542.08" y="-29.53" font-family="Helvetica,sans-Serif" font-size="10.00" fill="#63b8ff">1</text>
</a>
</g>
</g>
<!-- dir_97e04880d68e475a72bb21527a09fb79 -->
<g id="node10" class="node">
<title>dir_97e04880d68e475a72bb21527a09fb79</title>
<text text-anchor="middle" x="383" y="-61" font-family="Helvetica,sans-Serif" font-size="10.00">unit</text>
</g>
<!-- dir_0eb88324e402d3e07748d645b256ce19 -->
<g id="node11" class="node">
<title>dir_0eb88324e402d3e07748d645b256ce19</title>
<g id="a_node11"><a xlink:href="dir_0eb88324e402d3e07748d645b256ce19.xhtml" target="_top" xlink:title="fcarouge">
<polygon fill="#bee0be" stroke="#404040" points="470.75,-74.5 417.25,-74.5 417.25,-55.25 470.75,-55.25 470.75,-74.5"/>
<text text-anchor="middle" x="444" y="-61" font-family="Helvetica,sans-Serif" font-size="10.00">fcarouge</text>
</a>
</g>
</g>
<!-- dir_a933a6ee2328787634edac11cb011d11 -->
<g id="node12" class="node">
<title>dir_a933a6ee2328787634edac11cb011d11</title>
<text text-anchor="middle" x="397" y="-116.25" font-family="Helvetica,sans-Serif" font-size="10.00">unit_eigen</text>
</g>
<!-- dir_215156c87d944d98edaeb7b3f2c9776d -->
<g id="node13" class="node">
<title>dir_215156c87d944d98edaeb7b3f2c9776d</title>
<g id="a_node13"><a xlink:href="dir_215156c87d944d98edaeb7b3f2c9776d.xhtml" target="_top" xlink:title="fcarouge">
<polygon fill="#bee0be" stroke="#404040" points="498.75,-129.75 445.25,-129.75 445.25,-110.5 498.75,-110.5 498.75,-129.75"/>
<text text-anchor="middle" x="472" y="-116.25" font-family="Helvetica,sans-Serif" font-size="10.00">fcarouge</text>
</a>
</g>
</g>
<!-- dir_215156c87d944d98edaeb7b3f2c9776d&#45;&gt;dir_7e92a10fa1b0fca219294b16abd4710c -->
<g id="edge7" class="edge">
<title>dir_215156c87d944d98edaeb7b3f2c9776d&#45;&gt;dir_7e92a10fa1b0fca219294b16abd4710c</title>
<g id="a_edge7"><a xlink:href="dir_000013_000009.xhtml" target="_top">
<path fill="none" stroke="#63b8ff" d="M454.33,-110.15C448.58,-107.45 442.11,-104.64 436,-102.5 401.01,-90.23 390.17,-94.25 355,-82.5 352.09,-81.53 349.09,-80.43 346.12,-79.28"/>
<polygon fill="#63b8ff" stroke="#63b8ff" points="347.58,-76.1 337,-75.53 344.92,-82.57 347.58,-76.1"/>
</a>
</g>
<g id="a_edge7&#45;headlabel"><a xlink:href="dir_000013_000009.xhtml" target="_top" xlink:title="1">
<text text-anchor="middle" x="350.59" y="-70.38" font-family="Helvetica,sans-Serif" font-size="10.00" fill="#63b8ff">1</text>
</a>
</g>
</g>
<!-- dir_215156c87d944d98edaeb7b3f2c9776d&#45;&gt;dir_0eb88324e402d3e07748d645b256ce19 -->
<g id="edge6" class="edge">
<title>dir_215156c87d944d98edaeb7b3f2c9776d&#45;&gt;dir_0eb88324e402d3e07748d645b256ce19</title>
<g id="a_edge6"><a xlink:href="dir_000013_000012.xhtml" target="_top">
<path fill="none" stroke="#63b8ff" d="M467.38,-110.33C463.75,-103.44 458.57,-93.59 454.01,-84.91"/>
<polygon fill="#63b8ff" stroke="#63b8ff" points="457.18,-83.42 449.43,-76.2 450.98,-86.68 457.18,-83.42"/>
</a>
</g>
<g id="a_edge6&#45;headlabel"><a xlink:href="dir_000013_000012.xhtml" target="_top" xlink:title="1">
<text text-anchor="middle" x="460.66" y="-80.07" font-family="Helvetica,sans-Serif" font-size="10.00" fill="#63b8ff">1</text>
</a>
</g>
</g>
<!-- dir_215156c87d944d98edaeb7b3f2c9776d&#45;&gt;dir_d44c64559bbebec7f509842c48db8b23 -->
<g id="edge8" class="edge">
<title>dir_215156c87d944d98edaeb7b3f2c9776d&#45;&gt;dir_d44c64559bbebec7f509842c48db8b23</title>
<g id="a_edge8"><a xlink:href="dir_000013_000017.xhtml" target="_top">
<path fill="none" stroke="#63b8ff" d="M492.98,-110.07C515.8,-100.11 549.29,-85.18 551,-82.5 561.24,-66.46 554.72,-44.61 547.54,-29.22"/>
<polygon fill="#63b8ff" stroke="#63b8ff" points="550.82,-27.95 543.12,-20.68 544.61,-31.17 550.82,-27.95"/>
</a>
</g>
<g id="a_edge8&#45;headlabel"><a xlink:href="dir_000013_000017.xhtml" target="_top" xlink:title="1">
<text text-anchor="middle" x="554.3" y="-24.62" font-family="Helvetica,sans-Serif" font-size="10.00" fill="#63b8ff">1</text>
</a>
</g>
</g>
<!-- dir_353ecb8e1a8f1d3b75bcf6ec999417c3 -->
<g id="node14" class="node">
<title>dir_353ecb8e1a8f1d3b75bcf6ec999417c3</title>
<text text-anchor="middle" x="548" y="-116.25" font-family="Helvetica,sans-Serif" font-size="10.00">unit_std</text>
</g>
<!-- dir_7790fd102d887982debc6f656ac58c61 -->
<g id="node15" class="node">
<title>dir_7790fd102d887982debc6f656ac58c61</title>
<g id="a_node15"><a xlink:href="dir_7790fd102d887982debc6f656ac58c61.xhtml" target="_top" xlink:title="fcarouge">
<polygon fill="#bee0be" stroke="#404040" points="644.75,-129.75 591.25,-129.75 591.25,-110.5 644.75,-110.5 644.75,-129.75"/>
<text text-anchor="middle" x="618" y="-116.25" font-family="Helvetica,sans-Serif" font-size="10.00">fcarouge</text>
</a>
</g>
</g>
<!-- dir_7790fd102d887982debc6f656ac58c61&#45;&gt;dir_0eb88324e402d3e07748d645b256ce19 -->
<g id="edge9" class="edge">
<title>dir_7790fd102d887982debc6f656ac58c61&#45;&gt;dir_0eb88324e402d3e07748d645b256ce19</title>
<g id="a_edge9"><a xlink:href="dir_000014_000012.xhtml" target="_top">
<path fill="none" stroke="#63b8ff" d="M599.94,-110.04C594.28,-107.4 587.96,-104.65 582,-102.5 548.9,-90.57 510.08,-80.61 482.06,-74.1"/>
<polygon fill="#63b8ff" stroke="#63b8ff" points="483.14,-70.76 472.61,-71.95 481.58,-77.58 483.14,-70.76"/>
</a>
</g>
<g id="a_edge9&#45;headlabel"><a xlink:href="dir_000014_000012.xhtml" target="_top" xlink:title="1">
<text text-anchor="middle" x="485.8" y="-64.58" font-family="Helvetica,sans-Serif" font-size="10.00" fill="#63b8ff">1</text>
</a>
</g>
</g>
<!-- dir_7790fd102d887982debc6f656ac58c61&#45;&gt;dir_d44c64559bbebec7f509842c48db8b23 -->
<g id="edge10" class="edge">
<title>dir_7790fd102d887982debc6f656ac58c61&#45;&gt;dir_d44c64559bbebec7f509842c48db8b23</title>
<g id="a_edge10"><a xlink:href="dir_000014_000017.xhtml" target="_top">
<path fill="none" stroke="#63b8ff" d="M613.45,-110.22C605.39,-94.91 587.63,-62.93 568,-39.25 564.54,-35.08 560.49,-30.92 556.48,-27.13"/>
<polygon fill="#63b8ff" stroke="#63b8ff" points="558.92,-24.61 549.14,-20.54 554.24,-29.82 558.92,-24.61"/>
</a>
</g>
<g id="a_edge10&#45;headlabel"><a xlink:href="dir_000014_000017.xhtml" target="_top" xlink:title="1">
<text text-anchor="middle" x="562.36" y="-20.02" font-family="Helvetica,sans-Serif" font-size="10.00" fill="#63b8ff">1</text>
</a>
</g>
</g>
</g>
</svg>
