<?xml version="1.0" encoding="UTF-8" standalone="no"?>
<!DOCTYPE svg PUBLIC "-//W3C//DTD SVG 1.1//EN"
 "http://www.w3.org/Graphics/SVG/1.1/DTD/svg11.dtd">
<!-- Generated by graphviz version 12.2.0 (20241103.1931)
 -->
<!-- Title: /github/workspace/support/eigen/fcarouge/eigen.hpp Pages: 1 -->
<!--zoomable 293 -->

<svg id="main" version="1.1" xmlns="http://www.w3.org/2000/svg" xmlns:xlink="http://www.w3.org/1999/xlink" xml:space="preserve" onload="init(evt)">

<style type="text/css"><![CDATA[
.node, .edge {opacity: 0.7;}
.node.selected, .edge.selected {opacity: 1;}
.edge:hover path { stroke: red; }
.edge:hover polygon { stroke: red; fill: red; }
]]></style>

<defs>
  <circle id="rim" cx="0" cy="0" r="7"/>
  <circle id="rim2" cx="0" cy="0" r="3.5"/>
  <g id="zoomPlus">
    <use xlink:href="#rim" fill="#404040"><set attributeName="fill" to="#808080" begin="zoomplus.mouseover" end="zoomplus.mouseout"/></use>
    <path d="M-4,0h8M0,-4v8" fill="none" stroke="white" stroke-width="1.5" pointer-events="none"/>
  </g>
  <g id="zoomMin">
    <use xlink:href="#rim" fill="#404040"><set attributeName="fill" to="#808080" begin="zoomminus.mouseover" end="zoomminus.mouseout"/></use>
    <path d="M-4,0h8" fill="none" stroke="white" stroke-width="1.5" pointer-events="none"/>
  </g>
  <g id="arrowUp" transform="translate(30 24)">
    <use xlink:href="#rim"/>
    <path pointer-events="none" fill="none" stroke="white" stroke-width="1.5" d="M0,-3.0v7 M-2.5,-0.5L0,-3.0L2.5,-0.5"/>
  </g>
  <g id="arrowRight" transform="rotate(90) translate(36 -43)">
    <use xlink:href="#rim"/>
    <path pointer-events="none" fill="none" stroke="white" stroke-width="1.5" d="M0,-3.0v7 M-2.5,-0.5L0,-3.0L2.5,-0.5"/>
  </g>
  <g id="arrowDown" transform="rotate(180) translate(-30 -48)">
    <use xlink:href="#rim"/>
    <path pointer-events="none" fill="none" stroke="white" stroke-width="1.5" d="M0,-3.0v7 M-2.5,-0.5L0,-3.0L2.5,-0.5"/>
  </g>
  <g id="arrowLeft" transform="rotate(270) translate(-36 17)">
    <use xlink:href="#rim"/>
    <path pointer-events="none" fill="none" stroke="white" stroke-width="1.5" d="M0,-3.0v7 M-2.5,-0.5L0,-3.0L2.5,-0.5"/>
  </g>
  <g id="resetDef">
    <use xlink:href="#rim2" fill="#404040"><set attributeName="fill" to="#808080" begin="reset.mouseover" end="reset.mouseout"/></use>
  </g>
</defs>
<script type="application/ecmascript">
var viewWidth = 1485;
var viewHeight = 293;
var sectionId = 'dynsection-0';
</script>
<script type="application/ecmascript" xlink:href="svg.min.js"/>
<svg id="graph" class="graph">
<g id="viewport">
<title>/github/workspace/support/eigen/fcarouge/eigen.hpp</title>
<!-- Node1 -->
<g id="Node000001" class="node">
<title>Node1</title>
<g id="a_Node000001"><a xlink:title="Linear algebra facade for Eigen3 third party implementation.">
<polygon fill="#999999" stroke="#666666" points="783.25,-285.25 652.5,-285.25 652.5,-254.75 783.25,-254.75 783.25,-285.25"/>
<text text-anchor="start" x="660.5" y="-271.75" font-family="Helvetica,sans-Serif" font-size="10.00">/github/workspace/support</text>
<text text-anchor="middle" x="717.88" y="-260.5" font-family="Helvetica,sans-Serif" font-size="10.00">/eigen/fcarouge/eigen.hpp</text>
</a>
</g>
</g>
<!-- Node2 -->
<g id="Node000002" class="node">
<title>Node2</title>
<g id="a_Node000002"><a xlink:href="typed__linear__algebra_8hpp.xhtml" target="_top" xlink:title="Typed linear algebra implementation.">
<polygon fill="white" stroke="#666666" points="723,-218.75 614.75,-218.75 614.75,-188.25 723,-188.25 723,-218.75"/>
<text text-anchor="start" x="622.75" y="-205.25" font-family="Helvetica,sans-Serif" font-size="10.00">fcarouge/typed_linear</text>
<text text-anchor="middle" x="668.88" y="-194" font-family="Helvetica,sans-Serif" font-size="10.00">_algebra.hpp</text>
</a>
</g>
</g>
<!-- Node1&#45;&gt;Node2 -->
<g id="edge1_Node000001_Node000002" class="edge">
<title>Node1&#45;&gt;Node2</title>
<g id="a_edge1_Node000001_Node000002"><a xlink:title=" ">
<path fill="none" stroke="#63b8ff" d="M706.76,-254.36C700.87,-246.61 693.49,-236.9 686.81,-228.11"/>
<polygon fill="#63b8ff" stroke="#63b8ff" points="689.7,-226.13 680.87,-220.28 684.13,-230.36 689.7,-226.13"/>
</a>
</g>
</g>
<!-- Node11 -->
<g id="Node000011" class="node">
<title>Node11</title>
<g id="a_Node000011"><a xlink:title=" ">
<polygon fill="#e0e0e0" stroke="#999999" points="43.75,-74.5 0,-74.5 0,-55.25 43.75,-55.25 43.75,-74.5"/>
<text text-anchor="middle" x="21.88" y="-61" font-family="Helvetica,sans-Serif" font-size="10.00">format</text>
</a>
</g>
</g>
<!-- Node1&#45;&gt;Node11 -->
<g id="edge24_Node000001_Node000011" class="edge">
<title>Node1&#45;&gt;Node11</title>
<g id="a_edge24_Node000001_Node000011"><a xlink:title=" ">
<path fill="none" stroke="#63b8ff" d="M652.12,-267.48C497.22,-262.46 116.14,-241.13 31.88,-152.25 15.35,-134.82 15.5,-105.68 17.99,-86.13"/>
<polygon fill="#63b8ff" stroke="#63b8ff" points="21.42,-86.8 19.56,-76.37 14.51,-85.69 21.42,-86.8"/>
</a>
</g>
</g>
<!-- Node20 -->
<g id="Node000020" class="node">
<title>Node20</title>
<g id="a_Node000020"><a xlink:title=" ">
<polygon fill="#e0e0e0" stroke="#999999" points="792.5,-213.12 741.25,-213.12 741.25,-193.88 792.5,-193.88 792.5,-213.12"/>
<text text-anchor="middle" x="766.88" y="-199.62" font-family="Helvetica,sans-Serif" font-size="10.00">sstream</text>
</a>
</g>
</g>
<!-- Node1&#45;&gt;Node20 -->
<g id="edge25_Node000001_Node000020" class="edge">
<title>Node1&#45;&gt;Node20</title>
<g id="a_edge25_Node000001_Node000020"><a xlink:title=" ">
<path fill="none" stroke="#63b8ff" d="M728.99,-254.36C736.19,-244.89 745.62,-232.48 753.27,-222.41"/>
<polygon fill="#63b8ff" stroke="#63b8ff" points="755.99,-224.61 759.26,-214.53 750.42,-220.37 755.99,-224.61"/>
</a>
</g>
</g>
<!-- Node21 -->
<g id="Node000021" class="node">
<title>Node21</title>
<g id="a_Node000021"><a xlink:title=" ">
<polygon fill="#e0e0e0" stroke="#999999" points="877.38,-213.12 810.38,-213.12 810.38,-193.88 877.38,-193.88 877.38,-213.12"/>
<text text-anchor="middle" x="843.88" y="-199.62" font-family="Helvetica,sans-Serif" font-size="10.00">Eigen/Eigen</text>
</a>
</g>
</g>
<!-- Node1&#45;&gt;Node21 -->
<g id="edge26_Node000001_Node000021" class="edge">
<title>Node1&#45;&gt;Node21</title>
<g id="a_edge26_Node000001_Node000021"><a xlink:title=" ">
<path fill="none" stroke="#63b8ff" d="M746.47,-254.36C767.36,-243.67 795.55,-229.24 816.23,-218.65"/>
<polygon fill="#63b8ff" stroke="#63b8ff" points="817.62,-221.87 824.93,-214.2 814.43,-215.64 817.62,-221.87"/>
</a>
</g>
</g>
<!-- Node3 -->
<g id="Node000003" class="node">
<title>Node3</title>
<g id="a_Node000003"><a xlink:href="typed__linear__algebra__forward_8hpp.xhtml" target="_top" xlink:title="Authoritative forward declaration header.">
<polygon fill="white" stroke="#666666" points="1338.12,-146.62 1233.62,-146.62 1233.62,-116.12 1338.12,-116.12 1338.12,-146.62"/>
<text text-anchor="start" x="1241.62" y="-133.12" font-family="Helvetica,sans-Serif" font-size="10.00">typed_linear_algebra</text>
<text text-anchor="middle" x="1285.88" y="-121.88" font-family="Helvetica,sans-Serif" font-size="10.00">_forward.hpp</text>
</a>
</g>
</g>
<!-- Node2&#45;&gt;Node3 -->
<g id="edge2_Node000002_Node000003" class="edge">
<title>Node2&#45;&gt;Node3</title>
<g id="a_edge2_Node000002_Node000003"><a xlink:title=" ">
<path fill="none" stroke="#63b8ff" d="M723.42,-189.64C726.27,-189.13 729.1,-188.66 731.88,-188.25 949.18,-155.93 1009.3,-194.59 1224.88,-152.25 1228,-151.64 1231.19,-150.91 1234.39,-150.11"/>
<polygon fill="#63b8ff" stroke="#63b8ff" points="1235.05,-153.56 1243.76,-147.53 1233.19,-146.81 1235.05,-153.56"/>
</a>
</g>
</g>
<!-- Node4 -->
<g id="Node000004" class="node">
<title>Node4</title>
<g id="a_Node000004"><a xlink:href="format_8hpp.xhtml" target="_top" xlink:title="Formatting support for the typed matrix.">
<polygon fill="white" stroke="#666666" points="192.12,-146.62 87.62,-146.62 87.62,-116.12 192.12,-116.12 192.12,-146.62"/>
<text text-anchor="start" x="95.62" y="-133.12" font-family="Helvetica,sans-Serif" font-size="10.00">typed_linear_algebra</text>
<text text-anchor="middle" x="139.88" y="-121.88" font-family="Helvetica,sans-Serif" font-size="10.00">_internal/format.hpp</text>
</a>
</g>
</g>
<!-- Node2&#45;&gt;Node4 -->
<g id="edge3_Node000002_Node000004" class="edge">
<title>Node2&#45;&gt;Node4</title>
<g id="a_edge3_Node000002_Node000004"><a xlink:title=" ">
<path fill="none" stroke="#63b8ff" d="M614.6,-200.34C526.79,-196.02 348.5,-183.86 200.88,-152.25 198.06,-151.65 195.2,-150.97 192.32,-150.22"/>
<polygon fill="#63b8ff" stroke="#63b8ff" points="193.26,-146.85 182.69,-147.53 191.38,-153.6 193.26,-146.85"/>
</a>
</g>
</g>
<!-- Node5 -->
<g id="Node000005" class="node">
<title>Node5</title>
<g id="a_Node000005"><a xlink:href="utility_8hpp.xhtml" target="_top" xlink:title=" ">
<polygon fill="white" stroke="#666666" points="1353.12,-74.5 1296.62,-74.5 1296.62,-55.25 1353.12,-55.25 1353.12,-74.5"/>
<text text-anchor="middle" x="1324.88" y="-61" font-family="Helvetica,sans-Serif" font-size="10.00">utility.hpp</text>
</a>
</g>
</g>
<!-- Node2&#45;&gt;Node5 -->
<g id="edge11_Node000002_Node000005" class="edge">
<title>Node2&#45;&gt;Node5</title>
<g id="a_edge11_Node000002_Node000005"><a xlink:title=" ">
<path fill="none" stroke="#63b8ff" d="M723.41,-189.59C726.26,-189.09 729.1,-188.64 731.88,-188.25 799.65,-178.67 1299.91,-202.05 1346.88,-152.25 1364.25,-133.82 1350.41,-103.65 1338.17,-84.28"/>
<polygon fill="#63b8ff" stroke="#63b8ff" points="1341.1,-82.35 1332.59,-76.03 1335.3,-86.27 1341.1,-82.35"/>
</a>
</g>
</g>
<!-- Node6 -->
<g id="Node000006" class="node">
<title>Node6</title>
<g id="a_Node000006"><a xlink:title=" ">
<polygon fill="#e0e0e0" stroke="#999999" points="1422.75,-19.25 1367,-19.25 1367,0 1422.75,0 1422.75,-19.25"/>
<text text-anchor="middle" x="1394.88" y="-5.75" font-family="Helvetica,sans-Serif" font-size="10.00">concepts</text>
</a>
</g>
</g>
<!-- Node2&#45;&gt;Node6 -->
<g id="edge12_Node000002_Node000006" class="edge">
<title>Node2&#45;&gt;Node6</title>
<g id="a_edge12_Node000002_Node000006"><a xlink:title=" ">
<path fill="none" stroke="#63b8ff" d="M723.41,-189.58C726.26,-189.09 729.1,-188.64 731.88,-188.25 801.64,-178.45 1311.42,-198.14 1364.88,-152.25 1399.9,-122.18 1400.11,-62.34 1397.43,-30.94"/>
<polygon fill="#63b8ff" stroke="#63b8ff" points="1400.94,-30.81 1396.4,-21.24 1393.98,-31.55 1400.94,-30.81"/>
</a>
</g>
</g>
<!-- Node8 -->
<g id="Node000008" class="node">
<title>Node8</title>
<g id="a_Node000008"><a xlink:title=" ">
<polygon fill="#e0e0e0" stroke="#999999" points="1477.38,-19.25 1440.38,-19.25 1440.38,0 1477.38,0 1477.38,-19.25"/>
<text text-anchor="middle" x="1458.88" y="-5.75" font-family="Helvetica,sans-Serif" font-size="10.00">tuple</text>
</a>
</g>
</g>
<!-- Node2&#45;&gt;Node8 -->
<g id="edge16_Node000002_Node000008" class="edge">
<title>Node2&#45;&gt;Node8</title>
<g id="a_edge16_Node000002_Node000008"><a xlink:title=" ">
<path fill="none" stroke="#63b8ff" d="M723.41,-189.58C726.26,-189.08 729.1,-188.64 731.88,-188.25 804.61,-178.11 1330.92,-193.21 1391.88,-152.25 1433.73,-124.12 1450.1,-62.46 1455.95,-30.58"/>
<polygon fill="#63b8ff" stroke="#63b8ff" points="1459.34,-31.54 1457.51,-21.11 1452.43,-30.41 1459.34,-31.54"/>
</a>
</g>
</g>
<!-- Node10 -->
<g id="Node000010" class="node">
<title>Node10</title>
<g id="a_Node000010"><a xlink:title=" ">
<polygon fill="#e0e0e0" stroke="#999999" points="137,-74.5 88.75,-74.5 88.75,-55.25 137,-55.25 137,-74.5"/>
<text text-anchor="middle" x="112.88" y="-61" font-family="Helvetica,sans-Serif" font-size="10.00">cstddef</text>
</a>
</g>
</g>
<!-- Node2&#45;&gt;Node10 -->
<g id="edge13_Node000002_Node000010" class="edge">
<title>Node2&#45;&gt;Node10</title>
<g id="a_edge13_Node000002_Node000010"><a xlink:title=" ">
<path fill="none" stroke="#63b8ff" d="M614.5,-201.96C475.34,-200.03 114.71,-191.27 78.88,-152.25 60.88,-132.65 80.24,-102.41 96.25,-83.4"/>
<polygon fill="#63b8ff" stroke="#63b8ff" points="98.84,-85.76 102.88,-75.96 93.61,-81.1 98.84,-85.76"/>
</a>
</g>
</g>
<!-- Node2&#45;&gt;Node11 -->
<g id="edge14_Node000002_Node000011" class="edge">
<title>Node2&#45;&gt;Node11</title>
<g id="a_edge14_Node000002_Node000011"><a xlink:title=" ">
<path fill="none" stroke="#63b8ff" d="M614.46,-200.9C475.07,-196.39 112.93,-181.93 67.88,-152.25 44.74,-137.01 32.41,-106.14 26.51,-85.73"/>
<polygon fill="#63b8ff" stroke="#63b8ff" points="29.97,-85.13 24.07,-76.33 23.2,-86.89 29.97,-85.13"/>
</a>
</g>
</g>
<!-- Node12 -->
<g id="Node000012" class="node">
<title>Node12</title>
<g id="a_Node000012"><a xlink:title=" ">
<polygon fill="#e0e0e0" stroke="#999999" points="281.62,-141 210.12,-141 210.12,-121.75 281.62,-121.75 281.62,-141"/>
<text text-anchor="middle" x="245.88" y="-127.5" font-family="Helvetica,sans-Serif" font-size="10.00">initializer_list</text>
</a>
</g>
</g>
<!-- Node2&#45;&gt;Node12 -->
<g id="edge15_Node000002_Node000012" class="edge">
<title>Node2&#45;&gt;Node12</title>
<g id="a_edge15_Node000002_Node000012"><a xlink:title=" ">
<path fill="none" stroke="#63b8ff" d="M614.38,-200.1C540.03,-195.74 403.2,-183.83 290.88,-152.25 285.06,-150.62 279.03,-148.37 273.34,-145.97"/>
<polygon fill="#63b8ff" stroke="#63b8ff" points="274.91,-142.84 264.35,-141.92 272.03,-149.22 274.91,-142.84"/>
</a>
</g>
</g>
<!-- Node13 -->
<g id="Node000013" class="node">
<title>Node13</title>
<g id="a_Node000013"><a xlink:title=" ">
<polygon fill="#e0e0e0" stroke="#999999" points="338.12,-141 299.62,-141 299.62,-121.75 338.12,-121.75 338.12,-141"/>
<text text-anchor="middle" x="318.88" y="-127.5" font-family="Helvetica,sans-Serif" font-size="10.00">utility</text>
</a>
</g>
</g>
<!-- Node2&#45;&gt;Node13 -->
<g id="edge17_Node000002_Node000013" class="edge">
<title>Node2&#45;&gt;Node13</title>
<g id="a_edge17_Node000002_Node000013"><a xlink:title=" ">
<path fill="none" stroke="#63b8ff" d="M614.44,-201.56C548.74,-198.74 435.98,-188.47 346.88,-152.25 343.97,-151.07 341.08,-149.54 338.32,-147.85"/>
<polygon fill="#63b8ff" stroke="#63b8ff" points="340.53,-145.12 330.33,-142.24 336.5,-150.85 340.53,-145.12"/>
</a>
</g>
</g>
<!-- Node14 -->
<g id="Node000014" class="node">
<title>Node14</title>
<g id="a_Node000014"><a xlink:title=" ">
<polygon fill="#e0e0e0" stroke="#999999" points="485.88,-146.62 355.88,-146.62 355.88,-116.12 485.88,-116.12 485.88,-146.62"/>
<text text-anchor="start" x="363.88" y="-133.12" font-family="Helvetica,sans-Serif" font-size="10.00">typed_linear_algebra</text>
<text text-anchor="middle" x="420.88" y="-121.88" font-family="Helvetica,sans-Serif" font-size="10.00">_internal/algorithm/add.tpp</text>
</a>
</g>
</g>
<!-- Node2&#45;&gt;Node14 -->
<g id="edge18_Node000002_Node000014" class="edge">
<title>Node2&#45;&gt;Node14</title>
<g id="a_edge18_Node000002_Node000014"><a xlink:title=" ">
<path fill="none" stroke="#63b8ff" d="M616.89,-187.8C578.11,-176.84 524.97,-161.81 483.8,-150.17"/>
<polygon fill="#63b8ff" stroke="#63b8ff" points="484.83,-146.82 474.25,-147.47 482.92,-153.56 484.83,-146.82"/>
</a>
</g>
</g>
<!-- Node15 -->
<g id="Node000015" class="node">
<title>Node15</title>
<g id="a_Node000015"><a xlink:title=" ">
<polygon fill="#e0e0e0" stroke="#999999" points="658.25,-146.62 503.5,-146.62 503.5,-116.12 658.25,-116.12 658.25,-146.62"/>
<text text-anchor="start" x="511.5" y="-133.12" font-family="Helvetica,sans-Serif" font-size="10.00">typed_linear_algebra</text>
<text text-anchor="middle" x="580.88" y="-121.88" font-family="Helvetica,sans-Serif" font-size="10.00">_internal/algorithm/substract.tpp</text>
</a>
</g>
</g>
<!-- Node2&#45;&gt;Node15 -->
<g id="edge19_Node000002_Node000015" class="edge">
<title>Node2&#45;&gt;Node15</title>
<g id="a_edge19_Node000002_Node000015"><a xlink:title=" ">
<path fill="none" stroke="#63b8ff" d="M650.64,-187.97C638.25,-178.1 621.65,-164.87 607.76,-153.8"/>
<polygon fill="#63b8ff" stroke="#63b8ff" points="610.27,-151.32 600.27,-147.83 605.91,-156.8 610.27,-151.32"/>
</a>
</g>
</g>
<!-- Node16 -->
<g id="Node000016" class="node">
<title>Node16</title>
<g id="a_Node000016"><a xlink:title=" ">
<polygon fill="#e0e0e0" stroke="#999999" points="839,-146.62 676.75,-146.62 676.75,-116.12 839,-116.12 839,-146.62"/>
<text text-anchor="start" x="684.75" y="-133.12" font-family="Helvetica,sans-Serif" font-size="10.00">typed_linear_algebra</text>
<text text-anchor="middle" x="757.88" y="-121.88" font-family="Helvetica,sans-Serif" font-size="10.00">_internal/algorithm/transposed.tpp</text>
</a>
</g>
</g>
<!-- Node2&#45;&gt;Node16 -->
<g id="edge20_Node000002_Node000016" class="edge">
<title>Node2&#45;&gt;Node16</title>
<g id="a_edge20_Node000002_Node000016"><a xlink:title=" ">
<path fill="none" stroke="#63b8ff" d="M687.32,-187.97C699.85,-178.1 716.63,-164.87 730.69,-153.8"/>
<polygon fill="#63b8ff" stroke="#63b8ff" points="732.58,-156.76 738.27,-147.82 728.25,-151.26 732.58,-156.76"/>
</a>
</g>
</g>
<!-- Node17 -->
<g id="Node000017" class="node">
<title>Node17</title>
<g id="a_Node000017"><a xlink:title=" ">
<polygon fill="#e0e0e0" stroke="#999999" points="961.12,-146.62 856.62,-146.62 856.62,-116.12 961.12,-116.12 961.12,-146.62"/>
<text text-anchor="start" x="864.62" y="-133.12" font-family="Helvetica,sans-Serif" font-size="10.00">typed_linear_algebra</text>
<text text-anchor="middle" x="908.88" y="-121.88" font-family="Helvetica,sans-Serif" font-size="10.00">_internal/cast.tpp</text>
</a>
</g>
</g>
<!-- Node2&#45;&gt;Node17 -->
<g id="edge21_Node000002_Node000017" class="edge">
<title>Node2&#45;&gt;Node17</title>
<g id="a_edge21_Node000002_Node000017"><a xlink:title=" ">
<path fill="none" stroke="#63b8ff" d="M723.49,-187.8C759.03,-178.08 806.33,-164.84 847.88,-152.25 849.83,-151.66 851.82,-151.05 853.82,-150.43"/>
<polygon fill="#63b8ff" stroke="#63b8ff" points="854.7,-153.82 863.19,-147.48 852.6,-147.14 854.7,-153.82"/>
</a>
</g>
</g>
<!-- Node18 -->
<g id="Node000018" class="node">
<title>Node18</title>
<g id="a_Node000018"><a xlink:title=" ">
<polygon fill="#e0e0e0" stroke="#999999" points="1090.5,-146.62 979.25,-146.62 979.25,-116.12 1090.5,-116.12 1090.5,-146.62"/>
<text text-anchor="start" x="987.25" y="-133.12" font-family="Helvetica,sans-Serif" font-size="10.00">typed_linear_algebra</text>
<text text-anchor="middle" x="1034.88" y="-121.88" font-family="Helvetica,sans-Serif" font-size="10.00">_internal/operation.tpp</text>
</a>
</g>
</g>
<!-- Node2&#45;&gt;Node18 -->
<g id="edge22_Node000002_Node000018" class="edge">
<title>Node2&#45;&gt;Node18</title>
<g id="a_edge22_Node000002_Node000018"><a xlink:title=" ">
<path fill="none" stroke="#63b8ff" d="M723.46,-189.9C726.3,-189.32 729.12,-188.77 731.88,-188.25 837.01,-168.44 865.55,-175.95 969.88,-152.25 972.85,-151.57 975.88,-150.83 978.93,-150.05"/>
<polygon fill="#63b8ff" stroke="#63b8ff" points="979.81,-153.44 988.54,-147.43 977.97,-146.68 979.81,-153.44"/>
</a>
</g>
</g>
<!-- Node19 -->
<g id="Node000019" class="node">
<title>Node19</title>
<g id="a_Node000019"><a xlink:title=" ">
<polygon fill="#e0e0e0" stroke="#999999" points="1215.62,-152.25 1108.12,-152.25 1108.12,-110.5 1215.62,-110.5 1215.62,-152.25"/>
<text text-anchor="start" x="1116.12" y="-138.75" font-family="Helvetica,sans-Serif" font-size="10.00">typed_linear_algebra</text>
<text text-anchor="start" x="1116.12" y="-127.5" font-family="Helvetica,sans-Serif" font-size="10.00">_internal/typed_linear</text>
<text text-anchor="middle" x="1161.88" y="-116.25" font-family="Helvetica,sans-Serif" font-size="10.00">_algebra.tpp</text>
</a>
</g>
</g>
<!-- Node2&#45;&gt;Node19 -->
<g id="edge23_Node000002_Node000019" class="edge">
<title>Node2&#45;&gt;Node19</title>
<g id="a_edge23_Node000002_Node000019"><a xlink:title=" ">
<path fill="none" stroke="#63b8ff" d="M723.43,-189.72C726.28,-189.19 729.11,-188.7 731.88,-188.25 890.47,-162.66 936.87,-184.49 1096.75,-152.68"/>
<polygon fill="#63b8ff" stroke="#63b8ff" points="1097.37,-156.13 1106.47,-150.71 1095.97,-149.27 1097.37,-156.13"/>
</a>
</g>
</g>
<!-- Node4&#45;&gt;Node5 -->
<g id="edge4_Node000004_Node000005" class="edge">
<title>Node4&#45;&gt;Node5</title>
<g id="a_edge4_Node000004_Node000005"><a xlink:title=" ">
<path fill="none" stroke="#63b8ff" d="M179.83,-115.63C186.77,-113.57 193.97,-111.74 200.88,-110.5 415.46,-72.04 1110.62,-66.72 1284.95,-65.99"/>
<polygon fill="#63b8ff" stroke="#63b8ff" points="1284.85,-69.49 1294.84,-65.95 1284.83,-62.49 1284.85,-69.49"/>
</a>
</g>
</g>
<!-- Node4&#45;&gt;Node10 -->
<g id="edge9_Node000004_Node000010" class="edge">
<title>Node4&#45;&gt;Node10</title>
<g id="a_edge9_Node000004_Node000010"><a xlink:title=" ">
<path fill="none" stroke="#63b8ff" d="M133.75,-115.74C129.95,-106.66 125.02,-94.88 120.91,-85.06"/>
<polygon fill="#63b8ff" stroke="#63b8ff" points="124.24,-83.97 117.15,-76.09 117.79,-86.67 124.24,-83.97"/>
</a>
</g>
</g>
<!-- Node4&#45;&gt;Node11 -->
<g id="edge10_Node000004_Node000011" class="edge">
<title>Node4&#45;&gt;Node11</title>
<g id="a_edge10_Node000004_Node000011"><a xlink:title=" ">
<path fill="none" stroke="#63b8ff" d="M113.1,-115.74C93.71,-105.14 67.61,-90.88 48.3,-80.32"/>
<polygon fill="#63b8ff" stroke="#63b8ff" points="50.14,-77.34 39.69,-75.61 46.78,-83.48 50.14,-77.34"/>
</a>
</g>
</g>
<!-- Node5&#45;&gt;Node6 -->
<g id="edge5_Node000005_Node000006" class="edge">
<title>Node5&#45;&gt;Node6</title>
<g id="a_edge5_Node000005_Node000006"><a xlink:title=" ">
<path fill="none" stroke="#63b8ff" d="M1336.75,-54.84C1346.97,-47.07 1361.95,-35.67 1374.14,-26.4"/>
<polygon fill="#63b8ff" stroke="#63b8ff" points="1376.13,-29.28 1381.97,-20.44 1371.89,-23.71 1376.13,-29.28"/>
</a>
</g>
</g>
<!-- Node7 -->
<g id="Node000007" class="node">
<title>Node7</title>
<g id="a_Node000007"><a xlink:title=" ">
<polygon fill="#e0e0e0" stroke="#999999" points="1269.88,-19.25 1211.88,-19.25 1211.88,0 1269.88,0 1269.88,-19.25"/>
<text text-anchor="middle" x="1240.88" y="-5.75" font-family="Helvetica,sans-Serif" font-size="10.00">functional</text>
</a>
</g>
</g>
<!-- Node5&#45;&gt;Node7 -->
<g id="edge6_Node000005_Node000007" class="edge">
<title>Node5&#45;&gt;Node7</title>
<g id="a_edge6_Node000005_Node000007"><a xlink:title=" ">
<path fill="none" stroke="#63b8ff" d="M1310.63,-54.84C1298.08,-46.89 1279.54,-35.14 1264.73,-25.75"/>
<polygon fill="#63b8ff" stroke="#63b8ff" points="1266.79,-22.91 1256.47,-20.51 1263.04,-28.82 1266.79,-22.91"/>
</a>
</g>
</g>
<!-- Node5&#45;&gt;Node8 -->
<g id="edge7_Node000005_Node000008" class="edge">
<title>Node5&#45;&gt;Node8</title>
<g id="a_edge7_Node000005_Node000008"><a xlink:title=" ">
<path fill="none" stroke="#63b8ff" d="M1347.61,-54.84C1370.14,-45.89 1404.77,-32.13 1429.4,-22.34"/>
<polygon fill="#63b8ff" stroke="#63b8ff" points="1430.53,-25.65 1438.53,-18.71 1427.95,-19.15 1430.53,-25.65"/>
</a>
</g>
</g>
<!-- Node9 -->
<g id="Node000009" class="node">
<title>Node9</title>
<g id="a_Node000009"><a xlink:title=" ">
<polygon fill="#e0e0e0" stroke="#999999" points="1349.38,-19.25 1288.38,-19.25 1288.38,0 1349.38,0 1349.38,-19.25"/>
<text text-anchor="middle" x="1318.88" y="-5.75" font-family="Helvetica,sans-Serif" font-size="10.00">type_traits</text>
</a>
</g>
</g>
<!-- Node5&#45;&gt;Node9 -->
<g id="edge8_Node000005_Node000009" class="edge">
<title>Node5&#45;&gt;Node9</title>
<g id="a_edge8_Node000005_Node000009"><a xlink:title=" ">
<path fill="none" stroke="#63b8ff" d="M1323.88,-55.08C1323.14,-48.49 1322.1,-39.21 1321.15,-30.82"/>
<polygon fill="#63b8ff" stroke="#63b8ff" points="1324.65,-30.66 1320.06,-21.11 1317.7,-31.44 1324.65,-30.66"/>
</a>
</g>
</g>
</g>
</svg>

<g id="navigator" transform="translate(0 0)" fill="#404254">
  <rect fill="#f2f5e9" fill-opacity="0.5" stroke="#606060" stroke-width=".5" x="0" y="0" width="60" height="60"/>
  <use id="zoomplus" xlink:href="#zoomPlus" x="17" y="9" onmousedown="handleZoom(evt,'in')"/>
  <use id="zoomminus" xlink:href="#zoomMin" x="42" y="9" onmousedown="handleZoom(evt,'out')"/>
  <use id="reset" xlink:href="#resetDef" x="30" y="36" onmousedown="handleReset()"/>
   <use id="arrowup" xlink:href="#arrowUp" x="0" y="0" onmousedown="handlePan(0,-1)"/>
  <use id="arrowright" xlink:href="#arrowRight" x="0" y="0" onmousedown="handlePan(1,0)"/>
  <use id="arrowdown" xlink:href="#arrowDown" x="0" y="0" onmousedown="handlePan(0,1)"/>
  <use id="arrowleft" xlink:href="#arrowLeft" x="0" y="0" onmousedown="handlePan(-1,0)"/>
</g>
<svg viewBox="0 0 15 15" width="100%" height="30px" preserveAspectRatio="xMaxYMin meet">
 <g id="arrow_out" transform="scale(0.3 0.3)">
  <a xlink:href="eigen_8hpp__incl_org.svg" target="_base">
   <rect id="button" ry="5" rx="5" y="6" x="6" height="38" width="38"
        fill="#f2f5e9" fill-opacity="0.5" stroke="#606060" stroke-width="1.0"/>
   <path id="arrow"
     d="M 11.500037,31.436501 C 11.940474,20.09759 22.043105,11.32322 32.158766,21.979434 L 37.068811,17.246167 C 37.068811,17.246167 37.088388,32 37.088388,32 L 22.160133,31.978069 C 22.160133,31.978069 26.997745,27.140456 26.997745,27.140456 C 18.528582,18.264221 13.291696,25.230495 11.500037,31.436501 z"
     style="fill:#404040;"/>
  </a>
 </g>
</svg>

<style type='text/css'>
<![CDATA[
[data-mouse-over-selected='false'] { opacity: 0.7; }
[data-mouse-over-selected='true']  { opacity: 1.0; }
]]>
</style>
<script type="application/ecmascript"><![CDATA[
document.addEventListener('DOMContentLoaded', (event) => {
  highlightEdges();
  highlightAdjacentNodes();
});
]]></script>
</svg>
