<?xml version="1.0" encoding="UTF-8" standalone="no"?>
<!DOCTYPE svg PUBLIC "-//W3C//DTD SVG 1.1//EN"
 "http://www.w3.org/Graphics/SVG/1.1/DTD/svg11.dtd">
<!-- Generated by graphviz version 12.2.0 (20241103.1931)
 -->
<!-- Title: /github/workspace/support/eigexed/fcarouge/linalg.hpp Pages: 1 -->
<svg width="1256pt" height="349pt"
 viewBox="0.00 0.00 1255.79 348.50" xmlns="http://www.w3.org/2000/svg" xmlns:xlink="http://www.w3.org/1999/xlink">
<g id="graph0" class="graph" transform="scale(1 1) rotate(0) translate(4 344.5)">
<title>/github/workspace/support/eigexed/fcarouge/linalg.hpp</title>
<!-- Node1 -->
<g id="Node000001" class="node">
<title>Node1</title>
<g id="a_Node000001"><a xlink:title="Scalar type linear algebra with Eigen implementation.">
<polygon fill="#999999" stroke="#666666" points="884.16,-340.5 748.16,-340.5 748.16,-310 884.16,-310 884.16,-340.5"/>
<text text-anchor="start" x="756.16" y="-327" font-family="Helvetica,sans-Serif" font-size="10.00">/github/workspace/support</text>
<text text-anchor="middle" x="816.16" y="-315.75" font-family="Helvetica,sans-Serif" font-size="10.00">/eigexed/fcarouge/linalg.hpp</text>
</a>
</g>
</g>
<!-- Node2 -->
<g id="Node000002" class="node">
<title>Node2</title>
<g id="a_Node000002"><a xlink:href="eigen_8hpp.xhtml" target="_top" xlink:title="Linear algebra facade for Eigen3 third party implementation.">
<polygon fill="white" stroke="#666666" points="1083.04,-274 985.29,-274 985.29,-254.75 1083.04,-254.75 1083.04,-274"/>
<text text-anchor="middle" x="1034.16" y="-260.5" font-family="Helvetica,sans-Serif" font-size="10.00">fcarouge/eigen.hpp</text>
</a>
</g>
</g>
<!-- Node1&#45;&gt;Node2 -->
<g id="edge1_Node000001_Node000002" class="edge">
<title>Node1&#45;&gt;Node2</title>
<g id="a_edge1_Node000001_Node000002"><a xlink:title=" ">
<path fill="none" stroke="#63b8ff" d="M870.61,-309.55C907.37,-299.62 955.28,-286.68 989.73,-277.38"/>
<polygon fill="#63b8ff" stroke="#63b8ff" points="990.21,-280.87 998.95,-274.89 988.38,-274.11 990.21,-280.87"/>
</a>
</g>
</g>
<!-- Node3 -->
<g id="Node000003" class="node">
<title>Node3</title>
<g id="a_Node000003"><a xlink:href="typed__linear__algebra_8hpp.xhtml" target="_top" xlink:title="Typed linear algebra implementation.">
<polygon fill="white" stroke="#666666" points="870.29,-218.75 762.04,-218.75 762.04,-188.25 870.29,-188.25 870.29,-218.75"/>
<text text-anchor="start" x="770.04" y="-205.25" font-family="Helvetica,sans-Serif" font-size="10.00">fcarouge/typed_linear</text>
<text text-anchor="middle" x="816.16" y="-194" font-family="Helvetica,sans-Serif" font-size="10.00">_algebra.hpp</text>
</a>
</g>
</g>
<!-- Node1&#45;&gt;Node3 -->
<g id="edge26_Node000001_Node000003" class="edge">
<title>Node1&#45;&gt;Node3</title>
<g id="a_edge26_Node000001_Node000003"><a xlink:title=" ">
<path fill="none" stroke="#63b8ff" d="M816.16,-309.57C816.16,-289.89 816.16,-254.64 816.16,-230.44"/>
<polygon fill="#63b8ff" stroke="#63b8ff" points="819.66,-230.44 816.16,-220.44 812.66,-230.44 819.66,-230.44"/>
</a>
</g>
</g>
<!-- Node11 -->
<g id="Node000011" class="node">
<title>Node11</title>
<g id="a_Node000011"><a xlink:title=" ">
<polygon fill="#e0e0e0" stroke="#999999" points="932.29,-74.5 884.04,-74.5 884.04,-55.25 932.29,-55.25 932.29,-74.5"/>
<text text-anchor="middle" x="908.16" y="-61" font-family="Helvetica,sans-Serif" font-size="10.00">cstddef</text>
</a>
</g>
</g>
<!-- Node1&#45;&gt;Node11 -->
<g id="edge27_Node000001_Node000011" class="edge">
<title>Node1&#45;&gt;Node11</title>
<g id="a_edge27_Node000001_Node000011"><a xlink:title=" ">
<path fill="none" stroke="#63b8ff" d="M747.88,-317.73C535.34,-296.17 -94.05,-222.14 12.16,-110.5 42.31,-78.82 709.41,-68.38 872.45,-66.29"/>
<polygon fill="#63b8ff" stroke="#63b8ff" points="872.26,-69.8 882.21,-66.17 872.17,-62.8 872.26,-69.8"/>
</a>
</g>
</g>
<!-- Node2&#45;&gt;Node3 -->
<g id="edge2_Node000002_Node000003" class="edge">
<title>Node2&#45;&gt;Node3</title>
<g id="a_edge2_Node000002_Node000003"><a xlink:title=" ">
<path fill="none" stroke="#63b8ff" d="M1000.58,-254.3C968.99,-245.77 920.82,-232.76 881.63,-222.18"/>
<polygon fill="#63b8ff" stroke="#63b8ff" points="882.6,-218.82 872.03,-219.59 880.78,-225.58 882.6,-218.82"/>
</a>
</g>
</g>
<!-- Node12 -->
<g id="Node000012" class="node">
<title>Node12</title>
<g id="a_Node000012"><a xlink:title=" ">
<polygon fill="#e0e0e0" stroke="#999999" points="1102.04,-74.5 1058.29,-74.5 1058.29,-55.25 1102.04,-55.25 1102.04,-74.5"/>
<text text-anchor="middle" x="1080.16" y="-61" font-family="Helvetica,sans-Serif" font-size="10.00">format</text>
</a>
</g>
</g>
<!-- Node2&#45;&gt;Node12 -->
<g id="edge23_Node000002_Node000012" class="edge">
<title>Node2&#45;&gt;Node12</title>
<g id="a_edge23_Node000002_Node000012"><a xlink:title=" ">
<path fill="none" stroke="#63b8ff" d="M1046.99,-254.43C1057.28,-246.42 1070.98,-233.66 1077.16,-218.75 1095.59,-174.34 1089.44,-116.24 1084.27,-86.06"/>
<polygon fill="#63b8ff" stroke="#63b8ff" points="1087.75,-85.63 1082.47,-76.44 1080.87,-86.92 1087.75,-85.63"/>
</a>
</g>
</g>
<!-- Node19 -->
<g id="Node000019" class="node">
<title>Node19</title>
<g id="a_Node000019"><a xlink:title=" ">
<polygon fill="#e0e0e0" stroke="#999999" points="1247.79,-213.12 1196.54,-213.12 1196.54,-193.88 1247.79,-193.88 1247.79,-213.12"/>
<text text-anchor="middle" x="1222.16" y="-199.62" font-family="Helvetica,sans-Serif" font-size="10.00">sstream</text>
</a>
</g>
</g>
<!-- Node2&#45;&gt;Node19 -->
<g id="edge24_Node000002_Node000019" class="edge">
<title>Node2&#45;&gt;Node19</title>
<g id="a_edge24_Node000002_Node000019"><a xlink:title=" ">
<path fill="none" stroke="#63b8ff" d="M1066.06,-254.25C1096.13,-245.53 1142.39,-231.82 1182.16,-218.75 1183.69,-218.25 1185.26,-217.72 1186.83,-217.19"/>
<polygon fill="#63b8ff" stroke="#63b8ff" points="1187.53,-220.66 1195.83,-214.08 1185.24,-214.04 1187.53,-220.66"/>
</a>
</g>
</g>
<!-- Node20 -->
<g id="Node000020" class="node">
<title>Node20</title>
<g id="a_Node000020"><a xlink:title=" ">
<polygon fill="#e0e0e0" stroke="#999999" points="1067.66,-213.12 1000.66,-213.12 1000.66,-193.88 1067.66,-193.88 1067.66,-213.12"/>
<text text-anchor="middle" x="1034.16" y="-199.62" font-family="Helvetica,sans-Serif" font-size="10.00">Eigen/Eigen</text>
</a>
</g>
</g>
<!-- Node2&#45;&gt;Node20 -->
<g id="edge25_Node000002_Node000020" class="edge">
<title>Node2&#45;&gt;Node20</title>
<g id="a_edge25_Node000002_Node000020"><a xlink:title=" ">
<path fill="none" stroke="#63b8ff" d="M1034.16,-254.43C1034.16,-246.65 1034.16,-235.08 1034.16,-225.03"/>
<polygon fill="#63b8ff" stroke="#63b8ff" points="1037.66,-225.04 1034.16,-215.04 1030.66,-225.04 1037.66,-225.04"/>
</a>
</g>
</g>
<!-- Node4 -->
<g id="Node000004" class="node">
<title>Node4</title>
<g id="a_Node000004"><a xlink:href="typed__linear__algebra__forward_8hpp.xhtml" target="_top" xlink:title="Authoritative forward declaration header.">
<polygon fill="white" stroke="#666666" points="828.41,-146.62 723.91,-146.62 723.91,-116.12 828.41,-116.12 828.41,-146.62"/>
<text text-anchor="start" x="731.91" y="-133.12" font-family="Helvetica,sans-Serif" font-size="10.00">typed_linear_algebra</text>
<text text-anchor="middle" x="776.16" y="-121.88" font-family="Helvetica,sans-Serif" font-size="10.00">_forward.hpp</text>
</a>
</g>
</g>
<!-- Node3&#45;&gt;Node4 -->
<g id="edge3_Node000003_Node000004" class="edge">
<title>Node3&#45;&gt;Node4</title>
<g id="a_edge3_Node000003_Node000004"><a xlink:title=" ">
<path fill="none" stroke="#63b8ff" d="M807.87,-187.97C802.73,-178.94 795.98,-167.11 790.03,-156.69"/>
<polygon fill="#63b8ff" stroke="#63b8ff" points="793.18,-155.15 785.19,-148.2 787.1,-158.62 793.18,-155.15"/>
</a>
</g>
</g>
<!-- Node5 -->
<g id="Node000005" class="node">
<title>Node5</title>
<g id="a_Node000005"><a xlink:href="format_8hpp.xhtml" target="_top" xlink:title="Formatting support for the typed matrix.">
<polygon fill="white" stroke="#666666" points="1026.41,-146.62 921.91,-146.62 921.91,-116.12 1026.41,-116.12 1026.41,-146.62"/>
<text text-anchor="start" x="929.91" y="-133.12" font-family="Helvetica,sans-Serif" font-size="10.00">typed_linear_algebra</text>
<text text-anchor="middle" x="974.16" y="-121.88" font-family="Helvetica,sans-Serif" font-size="10.00">_internal/format.hpp</text>
</a>
</g>
</g>
<!-- Node3&#45;&gt;Node5 -->
<g id="edge4_Node000003_Node000005" class="edge">
<title>Node3&#45;&gt;Node5</title>
<g id="a_edge4_Node000003_Node000005"><a xlink:title=" ">
<path fill="none" stroke="#63b8ff" d="M849.28,-187.8C872.98,-177.28 905.12,-163.02 930.85,-151.6"/>
<polygon fill="#63b8ff" stroke="#63b8ff" points="931.98,-154.93 939.7,-147.67 929.14,-148.53 931.98,-154.93"/>
</a>
</g>
</g>
<!-- Node6 -->
<g id="Node000006" class="node">
<title>Node6</title>
<g id="a_Node000006"><a xlink:href="utility_8hpp.xhtml" target="_top" xlink:title=" ">
<polygon fill="white" stroke="#666666" points="1032.41,-74.5 975.91,-74.5 975.91,-55.25 1032.41,-55.25 1032.41,-74.5"/>
<text text-anchor="middle" x="1004.16" y="-61" font-family="Helvetica,sans-Serif" font-size="10.00">utility.hpp</text>
</a>
</g>
</g>
<!-- Node3&#45;&gt;Node6 -->
<g id="edge12_Node000003_Node000006" class="edge">
<title>Node3&#45;&gt;Node6</title>
<g id="a_edge12_Node000003_Node000006"><a xlink:title=" ">
<path fill="none" stroke="#63b8ff" d="M870.59,-197.65C928.64,-191.23 1014.96,-177.61 1035.16,-152.25 1051.39,-131.87 1034.25,-102.29 1019.74,-83.58"/>
<polygon fill="#63b8ff" stroke="#63b8ff" points="1022.6,-81.55 1013.54,-76.05 1017.2,-86 1022.6,-81.55"/>
</a>
</g>
</g>
<!-- Node7 -->
<g id="Node000007" class="node">
<title>Node7</title>
<g id="a_Node000007"><a xlink:title=" ">
<polygon fill="#e0e0e0" stroke="#999999" points="1139.04,-19.25 1083.29,-19.25 1083.29,0 1139.04,0 1139.04,-19.25"/>
<text text-anchor="middle" x="1111.16" y="-5.75" font-family="Helvetica,sans-Serif" font-size="10.00">concepts</text>
</a>
</g>
</g>
<!-- Node3&#45;&gt;Node7 -->
<g id="edge13_Node000003_Node000007" class="edge">
<title>Node3&#45;&gt;Node7</title>
<g id="a_edge13_Node000003_Node000007"><a xlink:title=" ">
<path fill="none" stroke="#63b8ff" d="M870.56,-197.97C937.44,-191.4 1045.94,-177.21 1077.16,-152.25 1113.62,-123.11 1115.18,-62.37 1113.21,-30.74"/>
<polygon fill="#63b8ff" stroke="#63b8ff" points="1116.72,-30.67 1112.41,-21 1109.74,-31.25 1116.72,-30.67"/>
</a>
</g>
</g>
<!-- Node9 -->
<g id="Node000009" class="node">
<title>Node9</title>
<g id="a_Node000009"><a xlink:title=" ">
<polygon fill="#e0e0e0" stroke="#999999" points="882.66,-19.25 845.66,-19.25 845.66,0 882.66,0 882.66,-19.25"/>
<text text-anchor="middle" x="864.16" y="-5.75" font-family="Helvetica,sans-Serif" font-size="10.00">tuple</text>
</a>
</g>
</g>
<!-- Node3&#45;&gt;Node9 -->
<g id="edge17_Node000003_Node000009" class="edge">
<title>Node3&#45;&gt;Node9</title>
<g id="a_edge17_Node000003_Node000009"><a xlink:title=" ">
<path fill="none" stroke="#63b8ff" d="M823.24,-187.84C827.76,-177.98 833.46,-164.56 837.16,-152.25 849.86,-110.04 857.86,-58.88 861.62,-31.06"/>
<polygon fill="#63b8ff" stroke="#63b8ff" points="865.08,-31.6 862.9,-21.23 858.14,-30.7 865.08,-31.6"/>
</a>
</g>
</g>
<!-- Node3&#45;&gt;Node11 -->
<g id="edge14_Node000003_Node000011" class="edge">
<title>Node3&#45;&gt;Node11</title>
<g id="a_edge14_Node000003_Node000011"><a xlink:title=" ">
<path fill="none" stroke="#63b8ff" d="M835.52,-187.83C846.74,-178.57 860.52,-165.82 870.16,-152.25 884.96,-131.43 895.83,-103.92 902.07,-85.61"/>
<polygon fill="#63b8ff" stroke="#63b8ff" points="905.34,-86.85 905.1,-76.26 898.68,-84.69 905.34,-86.85"/>
</a>
</g>
</g>
<!-- Node3&#45;&gt;Node12 -->
<g id="edge15_Node000003_Node000012" class="edge">
<title>Node3&#45;&gt;Node12</title>
<g id="a_edge15_Node000003_Node000012"><a xlink:title=" ">
<path fill="none" stroke="#63b8ff" d="M870.57,-197.21C931.72,-190.21 1025.91,-175.91 1052.16,-152.25 1070.89,-135.37 1077.15,-105.86 1079.21,-86.1"/>
<polygon fill="#63b8ff" stroke="#63b8ff" points="1082.69,-86.48 1079.93,-76.25 1075.71,-85.97 1082.69,-86.48"/>
</a>
</g>
</g>
<!-- Node13 -->
<g id="Node000013" class="node">
<title>Node13</title>
<g id="a_Node000013"><a xlink:title=" ">
<polygon fill="#e0e0e0" stroke="#999999" points="92.91,-141 21.41,-141 21.41,-121.75 92.91,-121.75 92.91,-141"/>
<text text-anchor="middle" x="57.16" y="-127.5" font-family="Helvetica,sans-Serif" font-size="10.00">initializer_list</text>
</a>
</g>
</g>
<!-- Node3&#45;&gt;Node13 -->
<g id="edge16_Node000003_Node000013" class="edge">
<title>Node3&#45;&gt;Node13</title>
<g id="a_edge16_Node000003_Node000013"><a xlink:title=" ">
<path fill="none" stroke="#63b8ff" d="M761.68,-201.09C617.25,-196.97 227.07,-183.23 102.16,-152.25 96.05,-150.73 89.72,-148.44 83.81,-145.95"/>
<polygon fill="#63b8ff" stroke="#63b8ff" points="85.69,-142.96 75.14,-141.99 82.79,-149.33 85.69,-142.96"/>
</a>
</g>
</g>
<!-- Node14 -->
<g id="Node000014" class="node">
<title>Node14</title>
<g id="a_Node000014"><a xlink:title=" ">
<polygon fill="#e0e0e0" stroke="#999999" points="149.41,-141 110.91,-141 110.91,-121.75 149.41,-121.75 149.41,-141"/>
<text text-anchor="middle" x="130.16" y="-127.5" font-family="Helvetica,sans-Serif" font-size="10.00">utility</text>
</a>
</g>
</g>
<!-- Node3&#45;&gt;Node14 -->
<g id="edge18_Node000003_Node000014" class="edge">
<title>Node3&#45;&gt;Node14</title>
<g id="a_edge18_Node000003_Node000014"><a xlink:title=" ">
<path fill="none" stroke="#63b8ff" d="M761.87,-202.07C624.98,-200.39 268.74,-192.21 158.16,-152.25 155.16,-151.17 152.2,-149.67 149.38,-147.98"/>
<polygon fill="#63b8ff" stroke="#63b8ff" points="151.46,-145.16 141.27,-142.26 147.43,-150.88 151.46,-145.16"/>
</a>
</g>
</g>
<!-- Node15 -->
<g id="Node000015" class="node">
<title>Node15</title>
<g id="a_Node000015"><a xlink:title=" ">
<polygon fill="#e0e0e0" stroke="#999999" points="329.29,-146.62 167.04,-146.62 167.04,-116.12 329.29,-116.12 329.29,-146.62"/>
<text text-anchor="start" x="175.04" y="-133.12" font-family="Helvetica,sans-Serif" font-size="10.00">typed_linear_algebra</text>
<text text-anchor="middle" x="248.16" y="-121.88" font-family="Helvetica,sans-Serif" font-size="10.00">_internal/algorithm/transposed.tpp</text>
</a>
</g>
</g>
<!-- Node3&#45;&gt;Node15 -->
<g id="edge19_Node000003_Node000015" class="edge">
<title>Node3&#45;&gt;Node15</title>
<g id="a_edge19_Node000003_Node000015"><a xlink:title=" ">
<path fill="none" stroke="#63b8ff" d="M761.78,-198.79C672.8,-192.26 490.74,-177.04 338.16,-152.25 332.68,-151.36 327.02,-150.34 321.35,-149.25"/>
<polygon fill="#63b8ff" stroke="#63b8ff" points="322.42,-145.9 311.93,-147.38 321.05,-152.76 322.42,-145.9"/>
</a>
</g>
</g>
<!-- Node16 -->
<g id="Node000016" class="node">
<title>Node16</title>
<g id="a_Node000016"><a xlink:title=" ">
<polygon fill="#e0e0e0" stroke="#999999" points="451.41,-146.62 346.91,-146.62 346.91,-116.12 451.41,-116.12 451.41,-146.62"/>
<text text-anchor="start" x="354.91" y="-133.12" font-family="Helvetica,sans-Serif" font-size="10.00">typed_linear_algebra</text>
<text text-anchor="middle" x="399.16" y="-121.88" font-family="Helvetica,sans-Serif" font-size="10.00">_internal/cast.tpp</text>
</a>
</g>
</g>
<!-- Node3&#45;&gt;Node16 -->
<g id="edge20_Node000003_Node000016" class="edge">
<title>Node3&#45;&gt;Node16</title>
<g id="a_edge20_Node000003_Node000016"><a xlink:title=" ">
<path fill="none" stroke="#63b8ff" d="M761.64,-197.79C691.32,-191.04 565.51,-176.65 460.16,-152.25 457.41,-151.61 454.6,-150.91 451.78,-150.15"/>
<polygon fill="#63b8ff" stroke="#63b8ff" points="452.93,-146.84 442.35,-147.45 451,-153.57 452.93,-146.84"/>
</a>
</g>
</g>
<!-- Node17 -->
<g id="Node000017" class="node">
<title>Node17</title>
<g id="a_Node000017"><a xlink:title=" ">
<polygon fill="#e0e0e0" stroke="#999999" points="580.79,-146.62 469.54,-146.62 469.54,-116.12 580.79,-116.12 580.79,-146.62"/>
<text text-anchor="start" x="477.54" y="-133.12" font-family="Helvetica,sans-Serif" font-size="10.00">typed_linear_algebra</text>
<text text-anchor="middle" x="525.16" y="-121.88" font-family="Helvetica,sans-Serif" font-size="10.00">_internal/operation.tpp</text>
</a>
</g>
</g>
<!-- Node3&#45;&gt;Node17 -->
<g id="edge21_Node000003_Node000017" class="edge">
<title>Node3&#45;&gt;Node17</title>
<g id="a_edge21_Node000003_Node000017"><a xlink:title=" ">
<path fill="none" stroke="#63b8ff" d="M761.73,-191.78C715.56,-182.37 647.68,-167.78 589.16,-152.25 586.74,-151.61 584.27,-150.93 581.79,-150.23"/>
<polygon fill="#63b8ff" stroke="#63b8ff" points="582.86,-146.9 572.28,-147.48 580.91,-153.63 582.86,-146.9"/>
</a>
</g>
</g>
<!-- Node18 -->
<g id="Node000018" class="node">
<title>Node18</title>
<g id="a_Node000018"><a xlink:title=" ">
<polygon fill="#e0e0e0" stroke="#999999" points="705.91,-152.25 598.41,-152.25 598.41,-110.5 705.91,-110.5 705.91,-152.25"/>
<text text-anchor="start" x="606.41" y="-138.75" font-family="Helvetica,sans-Serif" font-size="10.00">typed_linear_algebra</text>
<text text-anchor="start" x="606.41" y="-127.5" font-family="Helvetica,sans-Serif" font-size="10.00">_internal/typed_linear</text>
<text text-anchor="middle" x="652.16" y="-116.25" font-family="Helvetica,sans-Serif" font-size="10.00">_algebra.tpp</text>
</a>
</g>
</g>
<!-- Node3&#45;&gt;Node18 -->
<g id="edge22_Node000003_Node000018" class="edge">
<title>Node3&#45;&gt;Node18</title>
<g id="a_edge22_Node000003_Node000018"><a xlink:title=" ">
<path fill="none" stroke="#63b8ff" d="M781.78,-187.8C761,-178.91 733.97,-167.36 709.98,-157.1"/>
<polygon fill="#63b8ff" stroke="#63b8ff" points="711.52,-153.95 700.95,-153.24 708.77,-160.39 711.52,-153.95"/>
</a>
</g>
</g>
<!-- Node5&#45;&gt;Node6 -->
<g id="edge5_Node000005_Node000006" class="edge">
<title>Node5&#45;&gt;Node6</title>
<g id="a_edge5_Node000005_Node000006"><a xlink:title=" ">
<path fill="none" stroke="#63b8ff" d="M980.97,-115.74C985.19,-106.66 990.67,-94.88 995.24,-85.06"/>
<polygon fill="#63b8ff" stroke="#63b8ff" points="998.38,-86.61 999.42,-76.07 992.03,-83.66 998.38,-86.61"/>
</a>
</g>
</g>
<!-- Node5&#45;&gt;Node11 -->
<g id="edge10_Node000005_Node000011" class="edge">
<title>Node5&#45;&gt;Node11</title>
<g id="a_edge10_Node000005_Node000011"><a xlink:title=" ">
<path fill="none" stroke="#63b8ff" d="M959.19,-115.74C949.08,-105.87 935.73,-92.82 925.22,-82.54"/>
<polygon fill="#63b8ff" stroke="#63b8ff" points="927.87,-80.24 918.27,-75.76 922.98,-85.25 927.87,-80.24"/>
</a>
</g>
</g>
<!-- Node5&#45;&gt;Node12 -->
<g id="edge11_Node000005_Node000012" class="edge">
<title>Node5&#45;&gt;Node12</title>
<g id="a_edge11_Node000005_Node000012"><a xlink:title=" ">
<path fill="none" stroke="#63b8ff" d="M998.22,-115.74C1015.47,-105.24 1038.64,-91.14 1055.94,-80.62"/>
<polygon fill="#63b8ff" stroke="#63b8ff" points="1057.34,-83.86 1064.06,-75.67 1053.7,-77.88 1057.34,-83.86"/>
</a>
</g>
</g>
<!-- Node6&#45;&gt;Node7 -->
<g id="edge6_Node000006_Node000007" class="edge">
<title>Node6&#45;&gt;Node7</title>
<g id="a_edge6_Node000006_Node000007"><a xlink:title=" ">
<path fill="none" stroke="#63b8ff" d="M1022.31,-54.84C1038.84,-46.62 1063.51,-34.34 1082.66,-24.81"/>
<polygon fill="#63b8ff" stroke="#63b8ff" points="1084.17,-27.97 1091.57,-20.38 1081.06,-21.7 1084.17,-27.97"/>
</a>
</g>
</g>
<!-- Node8 -->
<g id="Node000008" class="node">
<title>Node8</title>
<g id="a_Node000008"><a xlink:title=" ">
<polygon fill="#e0e0e0" stroke="#999999" points="965.16,-19.25 907.16,-19.25 907.16,0 965.16,0 965.16,-19.25"/>
<text text-anchor="middle" x="936.16" y="-5.75" font-family="Helvetica,sans-Serif" font-size="10.00">functional</text>
</a>
</g>
</g>
<!-- Node6&#45;&gt;Node8 -->
<g id="edge7_Node000006_Node000008" class="edge">
<title>Node6&#45;&gt;Node8</title>
<g id="a_edge7_Node000006_Node000008"><a xlink:title=" ">
<path fill="none" stroke="#63b8ff" d="M992.63,-54.84C982.7,-47.07 968.15,-35.67 956.31,-26.4"/>
<polygon fill="#63b8ff" stroke="#63b8ff" points="958.75,-23.87 948.72,-20.46 954.43,-29.38 958.75,-23.87"/>
</a>
</g>
</g>
<!-- Node6&#45;&gt;Node9 -->
<g id="edge8_Node000006_Node000009" class="edge">
<title>Node6&#45;&gt;Node9</title>
<g id="a_edge8_Node000006_Node000009"><a xlink:title=" ">
<path fill="none" stroke="#63b8ff" d="M980.41,-54.84C956.49,-45.74 919.53,-31.68 893.72,-21.87"/>
<polygon fill="#63b8ff" stroke="#63b8ff" points="895.09,-18.64 884.49,-18.36 892.6,-25.18 895.09,-18.64"/>
</a>
</g>
</g>
<!-- Node10 -->
<g id="Node000010" class="node">
<title>Node10</title>
<g id="a_Node000010"><a xlink:title=" ">
<polygon fill="#e0e0e0" stroke="#999999" points="1044.66,-19.25 983.66,-19.25 983.66,0 1044.66,0 1044.66,-19.25"/>
<text text-anchor="middle" x="1014.16" y="-5.75" font-family="Helvetica,sans-Serif" font-size="10.00">type_traits</text>
</a>
</g>
</g>
<!-- Node6&#45;&gt;Node10 -->
<g id="edge9_Node000006_Node000010" class="edge">
<title>Node6&#45;&gt;Node10</title>
<g id="a_edge9_Node000006_Node000010"><a xlink:title=" ">
<path fill="none" stroke="#63b8ff" d="M1005.81,-55.08C1007.05,-48.49 1008.8,-39.21 1010.37,-30.82"/>
<polygon fill="#63b8ff" stroke="#63b8ff" points="1013.79,-31.57 1012.2,-21.1 1006.91,-30.28 1013.79,-31.57"/>
</a>
</g>
</g>
</g>
</svg>
