<?xml version="1.0" encoding="UTF-8" standalone="no"?>
<!DOCTYPE svg PUBLIC "-//W3C//DTD SVG 1.1//EN"
 "http://www.w3.org/Graphics/SVG/1.1/DTD/svg11.dtd">
<!-- Generated by graphviz version 12.2.0 (20241103.1931)
 -->
<!-- Title: /github/workspace/support/eigen/fcarouge/linalg.hpp Pages: 1 -->
<!--zoomable 349 -->

<svg id="main" version="1.1" xmlns="http://www.w3.org/2000/svg" xmlns:xlink="http://www.w3.org/1999/xlink" xml:space="preserve" onload="init(evt)">

<style type="text/css"><![CDATA[
.node, .edge {opacity: 0.7;}
.node.selected, .edge.selected {opacity: 1;}
.edge:hover path { stroke: red; }
.edge:hover polygon { stroke: red; fill: red; }
]]></style>

<defs>
  <circle id="rim" cx="0" cy="0" r="7"/>
  <circle id="rim2" cx="0" cy="0" r="3.5"/>
  <g id="zoomPlus">
    <use xlink:href="#rim" fill="#404040"><set attributeName="fill" to="#808080" begin="zoomplus.mouseover" end="zoomplus.mouseout"/></use>
    <path d="M-4,0h8M0,-4v8" fill="none" stroke="white" stroke-width="1.5" pointer-events="none"/>
  </g>
  <g id="zoomMin">
    <use xlink:href="#rim" fill="#404040"><set attributeName="fill" to="#808080" begin="zoomminus.mouseover" end="zoomminus.mouseout"/></use>
    <path d="M-4,0h8" fill="none" stroke="white" stroke-width="1.5" pointer-events="none"/>
  </g>
  <g id="arrowUp" transform="translate(30 24)">
    <use xlink:href="#rim"/>
    <path pointer-events="none" fill="none" stroke="white" stroke-width="1.5" d="M0,-3.0v7 M-2.5,-0.5L0,-3.0L2.5,-0.5"/>
  </g>
  <g id="arrowRight" transform="rotate(90) translate(36 -43)">
    <use xlink:href="#rim"/>
    <path pointer-events="none" fill="none" stroke="white" stroke-width="1.5" d="M0,-3.0v7 M-2.5,-0.5L0,-3.0L2.5,-0.5"/>
  </g>
  <g id="arrowDown" transform="rotate(180) translate(-30 -48)">
    <use xlink:href="#rim"/>
    <path pointer-events="none" fill="none" stroke="white" stroke-width="1.5" d="M0,-3.0v7 M-2.5,-0.5L0,-3.0L2.5,-0.5"/>
  </g>
  <g id="arrowLeft" transform="rotate(270) translate(-36 17)">
    <use xlink:href="#rim"/>
    <path pointer-events="none" fill="none" stroke="white" stroke-width="1.5" d="M0,-3.0v7 M-2.5,-0.5L0,-3.0L2.5,-0.5"/>
  </g>
  <g id="resetDef">
    <use xlink:href="#rim2" fill="#404040"><set attributeName="fill" to="#808080" begin="reset.mouseover" end="reset.mouseout"/></use>
  </g>
</defs>
<script type="application/ecmascript">
var viewWidth = 2549;
var viewHeight = 349;
var sectionId = 'dynsection-0';
</script>
<script type="application/ecmascript" xlink:href="svg.min.js"/>
<svg id="graph" class="graph">
<g id="viewport">
<title>/github/workspace/support/eigen/fcarouge/linalg.hpp</title>
<!-- Node1 -->
<g id="Node000001" class="node">
<title>Node1</title>
<g id="a_Node000001"><a xlink:title=" ">
<polygon fill="#999999" stroke="#666666" points="1832.88,-340.5 1702.12,-340.5 1702.12,-310 1832.88,-310 1832.88,-340.5"/>
<text text-anchor="start" x="1710.12" y="-327" font-family="Helvetica,sans-Serif" font-size="10.00">/github/workspace/support</text>
<text text-anchor="middle" x="1767.5" y="-315.75" font-family="Helvetica,sans-Serif" font-size="10.00">/eigen/fcarouge/linalg.hpp</text>
</a>
</g>
</g>
<!-- Node2 -->
<g id="Node000002" class="node">
<title>Node2</title>
<g id="a_Node000002"><a xlink:href="eigen_8hpp.xhtml" target="_top" xlink:title="Linear algebra facade for Eigen3 third party implementation.">
<polygon fill="white" stroke="#666666" points="1796.12,-274 1738.88,-274 1738.88,-254.75 1796.12,-254.75 1796.12,-274"/>
<text text-anchor="middle" x="1767.5" y="-260.5" font-family="Helvetica,sans-Serif" font-size="10.00">eigen.hpp</text>
</a>
</g>
</g>
<!-- Node1&#45;&gt;Node2 -->
<g id="edge1_Node000001_Node000002" class="edge">
<title>Node1&#45;&gt;Node2</title>
<g id="a_edge1_Node000001_Node000002"><a xlink:title=" ">
<path fill="none" stroke="#63b8ff" d="M1767.5,-309.7C1767.5,-302.46 1767.5,-293.59 1767.5,-285.69"/>
<polygon fill="#63b8ff" stroke="#63b8ff" points="1771,-285.96 1767.5,-275.96 1764,-285.96 1771,-285.96"/>
</a>
</g>
</g>
<!-- Node3 -->
<g id="Node000003" class="node">
<title>Node3</title>
<g id="a_Node000003"><a xlink:href="typed__linear__algebra_8hpp.xhtml" target="_top" xlink:title="Typed linear algebra implementation.">
<polygon fill="white" stroke="#666666" points="1251.62,-218.75 1143.38,-218.75 1143.38,-188.25 1251.62,-188.25 1251.62,-218.75"/>
<text text-anchor="start" x="1151.38" y="-205.25" font-family="Helvetica,sans-Serif" font-size="10.00">fcarouge/typed_linear</text>
<text text-anchor="middle" x="1197.5" y="-194" font-family="Helvetica,sans-Serif" font-size="10.00">_algebra.hpp</text>
</a>
</g>
</g>
<!-- Node2&#45;&gt;Node3 -->
<g id="edge2_Node000002_Node000003" class="edge">
<title>Node2&#45;&gt;Node3</title>
<g id="a_edge2_Node000002_Node000003"><a xlink:title=" ">
<path fill="none" stroke="#63b8ff" d="M1738.45,-260.37C1650.67,-251.31 1386.63,-224.04 1262.86,-211.25"/>
<polygon fill="#63b8ff" stroke="#63b8ff" points="1263.5,-207.8 1253.2,-210.25 1262.78,-214.76 1263.5,-207.8"/>
</a>
</g>
</g>
<!-- Node7 -->
<g id="Node000007" class="node">
<title>Node7</title>
<g id="a_Node000007"><a xlink:title=" ">
<polygon fill="#e0e0e0" stroke="#999999" points="153.38,-19.25 97.62,-19.25 97.62,0 153.38,0 153.38,-19.25"/>
<text text-anchor="middle" x="125.5" y="-5.75" font-family="Helvetica,sans-Serif" font-size="10.00">concepts</text>
</a>
</g>
</g>
<!-- Node2&#45;&gt;Node7 -->
<g id="edge30_Node000002_Node000007" class="edge">
<title>Node2&#45;&gt;Node7</title>
<g id="a_edge30_Node000002_Node000007"><a xlink:title=" ">
<path fill="none" stroke="#63b8ff" d="M1738.39,-263.61C1560.35,-264.87 616.59,-269.07 332.5,-218.75 239.85,-202.34 194.91,-221.78 131.5,-152.25 101.95,-119.85 107.76,-98.72 113.5,-55.25 114.59,-47 116.76,-38.12 118.97,-30.46"/>
<polygon fill="#63b8ff" stroke="#63b8ff" points="122.23,-31.75 121.85,-21.16 115.55,-29.67 122.23,-31.75"/>
</a>
</g>
</g>
<!-- Node9 -->
<g id="Node000009" class="node">
<title>Node9</title>
<g id="a_Node000009"><a xlink:title=" ">
<polygon fill="#e0e0e0" stroke="#999999" points="2319,-19.25 2282,-19.25 2282,0 2319,0 2319,-19.25"/>
<text text-anchor="middle" x="2300.5" y="-5.75" font-family="Helvetica,sans-Serif" font-size="10.00">tuple</text>
</a>
</g>
</g>
<!-- Node2&#45;&gt;Node9 -->
<g id="edge34_Node000002_Node000009" class="edge">
<title>Node2&#45;&gt;Node9</title>
<g id="a_edge34_Node000002_Node000009"><a xlink:title=" ">
<path fill="none" stroke="#63b8ff" d="M1796.58,-262.74C1900.32,-260.21 2248.12,-249.49 2286.5,-218.75 2344.57,-172.23 2339.39,-127.71 2322.5,-55.25 2320.42,-46.33 2316.29,-37.14 2312.16,-29.44"/>
<polygon fill="#63b8ff" stroke="#63b8ff" points="2315.34,-27.94 2307.31,-21.04 2309.28,-31.45 2315.34,-27.94"/>
</a>
</g>
</g>
<!-- Node10 -->
<g id="Node000010" class="node">
<title>Node10</title>
<g id="a_Node000010"><a xlink:title=" ">
<polygon fill="#e0e0e0" stroke="#999999" points="61,-19.25 0,-19.25 0,0 61,0 61,-19.25"/>
<text text-anchor="middle" x="30.5" y="-5.75" font-family="Helvetica,sans-Serif" font-size="10.00">type_traits</text>
</a>
</g>
</g>
<!-- Node2&#45;&gt;Node10 -->
<g id="edge35_Node000002_Node000010" class="edge">
<title>Node2&#45;&gt;Node10</title>
<g id="a_edge35_Node000002_Node000010"><a xlink:title=" ">
<path fill="none" stroke="#63b8ff" d="M1738.55,-263.18C1528.66,-261.66 246.22,-251.1 171.5,-218.75 90.96,-183.88 49.95,-75.37 36.06,-30.43"/>
<polygon fill="#63b8ff" stroke="#63b8ff" points="39.47,-29.6 33.28,-21 32.75,-31.58 39.47,-29.6"/>
</a>
</g>
</g>
<!-- Node11 -->
<g id="Node000011" class="node">
<title>Node11</title>
<g id="a_Node000011"><a xlink:title=" ">
<polygon fill="#e0e0e0" stroke="#999999" points="680.62,-74.5 632.38,-74.5 632.38,-55.25 680.62,-55.25 680.62,-74.5"/>
<text text-anchor="middle" x="656.5" y="-61" font-family="Helvetica,sans-Serif" font-size="10.00">cstddef</text>
</a>
</g>
</g>
<!-- Node2&#45;&gt;Node11 -->
<g id="edge31_Node000002_Node000011" class="edge">
<title>Node2&#45;&gt;Node11</title>
<g id="a_edge31_Node000002_Node000011"><a xlink:title=" ">
<path fill="none" stroke="#63b8ff" d="M1738.7,-262.51C1525.66,-255.98 201.22,-212.98 144.5,-152.25 131.84,-138.69 131.96,-124.18 144.5,-110.5 176.6,-75.48 509.7,-67.84 620.72,-66.26"/>
<polygon fill="#63b8ff" stroke="#63b8ff" points="620.48,-69.77 630.43,-66.14 620.38,-62.77 620.48,-69.77"/>
</a>
</g>
</g>
<!-- Node12 -->
<g id="Node000012" class="node">
<title>Node12</title>
<g id="a_Node000012"><a xlink:title=" ">
<polygon fill="#e0e0e0" stroke="#999999" points="1775.38,-74.5 1731.62,-74.5 1731.62,-55.25 1775.38,-55.25 1775.38,-74.5"/>
<text text-anchor="middle" x="1753.5" y="-61" font-family="Helvetica,sans-Serif" font-size="10.00">format</text>
</a>
</g>
</g>
<!-- Node2&#45;&gt;Node12 -->
<g id="edge32_Node000002_Node000012" class="edge">
<title>Node2&#45;&gt;Node12</title>
<g id="a_edge32_Node000002_Node000012"><a xlink:title=" ">
<path fill="none" stroke="#63b8ff" d="M1796.2,-264C1923.25,-265.93 2422.62,-264.05 2281.5,-110.5 2248.05,-74.1 1898.55,-67.37 1787.31,-66.14"/>
<polygon fill="#63b8ff" stroke="#63b8ff" points="1787.38,-62.64 1777.34,-66.04 1787.31,-69.64 1787.38,-62.64"/>
</a>
</g>
</g>
<!-- Node26 -->
<g id="Node000026" class="node">
<title>Node26</title>
<g id="a_Node000026"><a xlink:title=" ">
<polygon fill="#e0e0e0" stroke="#999999" points="2456.12,-213.12 2404.88,-213.12 2404.88,-193.88 2456.12,-193.88 2456.12,-213.12"/>
<text text-anchor="middle" x="2430.5" y="-199.62" font-family="Helvetica,sans-Serif" font-size="10.00">sstream</text>
</a>
</g>
</g>
<!-- Node2&#45;&gt;Node26 -->
<g id="edge33_Node000002_Node000026" class="edge">
<title>Node2&#45;&gt;Node26</title>
<g id="a_edge33_Node000002_Node000026"><a xlink:title=" ">
<path fill="none" stroke="#63b8ff" d="M1796.59,-262.34C1903.53,-258.35 2274.69,-243.05 2390.5,-218.75 2392.81,-218.26 2395.17,-217.68 2397.53,-217.02"/>
<polygon fill="#63b8ff" stroke="#63b8ff" points="2398.47,-220.4 2406.94,-214.04 2396.35,-213.73 2398.47,-220.4"/>
</a>
</g>
</g>
<!-- Node27 -->
<g id="Node000027" class="node">
<title>Node27</title>
<g id="a_Node000027"><a xlink:title=" ">
<polygon fill="#e0e0e0" stroke="#999999" points="2541,-213.12 2474,-213.12 2474,-193.88 2541,-193.88 2541,-213.12"/>
<text text-anchor="middle" x="2507.5" y="-199.62" font-family="Helvetica,sans-Serif" font-size="10.00">Eigen/Eigen</text>
</a>
</g>
</g>
<!-- Node2&#45;&gt;Node27 -->
<g id="edge36_Node000002_Node000027" class="edge">
<title>Node2&#45;&gt;Node27</title>
<g id="a_edge36_Node000002_Node000027"><a xlink:title=" ">
<path fill="none" stroke="#63b8ff" d="M1796.47,-262.54C1911.24,-259.07 2334.18,-244.75 2465.5,-218.75 2468.11,-218.23 2470.79,-217.59 2473.46,-216.88"/>
<polygon fill="#63b8ff" stroke="#63b8ff" points="2474.25,-220.3 2482.8,-214.04 2472.22,-213.6 2474.25,-220.3"/>
</a>
</g>
</g>
<!-- Node4 -->
<g id="Node000004" class="node">
<title>Node4</title>
<g id="a_Node000004"><a xlink:href="typed__linear__algebra__forward_8hpp.xhtml" target="_top" xlink:title="Authoritative forward declaration header.">
<polygon fill="white" stroke="#666666" points="628.75,-146.62 524.25,-146.62 524.25,-116.12 628.75,-116.12 628.75,-146.62"/>
<text text-anchor="start" x="532.25" y="-133.12" font-family="Helvetica,sans-Serif" font-size="10.00">typed_linear_algebra</text>
<text text-anchor="middle" x="576.5" y="-121.88" font-family="Helvetica,sans-Serif" font-size="10.00">_forward.hpp</text>
</a>
</g>
</g>
<!-- Node3&#45;&gt;Node4 -->
<g id="edge3_Node000003_Node000004" class="edge">
<title>Node3&#45;&gt;Node4</title>
<g id="a_edge3_Node000003_Node000004"><a xlink:title=" ">
<path fill="none" stroke="#63b8ff" d="M1143.02,-201.21C1042.99,-198.04 823.68,-187.36 642.5,-152.25 638.98,-151.57 635.37,-150.77 631.75,-149.9"/>
<polygon fill="#63b8ff" stroke="#63b8ff" points="632.95,-146.59 622.39,-147.47 631.19,-153.37 632.95,-146.59"/>
</a>
</g>
</g>
<!-- Node5 -->
<g id="Node000005" class="node">
<title>Node5</title>
<g id="a_Node000005"><a xlink:href="format_8hpp.xhtml" target="_top" xlink:title="Formatting support for the typed matrix.">
<polygon fill="white" stroke="#666666" points="1523.75,-146.62 1419.25,-146.62 1419.25,-116.12 1523.75,-116.12 1523.75,-146.62"/>
<text text-anchor="start" x="1427.25" y="-133.12" font-family="Helvetica,sans-Serif" font-size="10.00">typed_linear_algebra</text>
<text text-anchor="middle" x="1471.5" y="-121.88" font-family="Helvetica,sans-Serif" font-size="10.00">_internal/format.hpp</text>
</a>
</g>
</g>
<!-- Node3&#45;&gt;Node5 -->
<g id="edge4_Node000003_Node000005" class="edge">
<title>Node3&#45;&gt;Node5</title>
<g id="a_edge4_Node000003_Node000005"><a xlink:title=" ">
<path fill="none" stroke="#63b8ff" d="M1251.82,-190.84C1294.82,-181.32 1356.3,-167.06 1409.5,-152.25 1411.62,-151.66 1413.78,-151.04 1415.96,-150.41"/>
<polygon fill="#63b8ff" stroke="#63b8ff" points="1416.9,-153.78 1425.47,-147.56 1414.89,-147.08 1416.9,-153.78"/>
</a>
</g>
</g>
<!-- Node6 -->
<g id="Node000006" class="node">
<title>Node6</title>
<g id="a_Node000006"><a xlink:href="utility_8hpp.xhtml" target="_top" xlink:title=" ">
<polygon fill="white" stroke="#666666" points="1499.75,-74.5 1443.25,-74.5 1443.25,-55.25 1499.75,-55.25 1499.75,-74.5"/>
<text text-anchor="middle" x="1471.5" y="-61" font-family="Helvetica,sans-Serif" font-size="10.00">utility.hpp</text>
</a>
</g>
</g>
<!-- Node3&#45;&gt;Node6 -->
<g id="edge12_Node000003_Node000006" class="edge">
<title>Node3&#45;&gt;Node6</title>
<g id="a_edge12_Node000003_Node000006"><a xlink:title=" ">
<path fill="none" stroke="#63b8ff" d="M1251.97,-202.57C1337.43,-201.38 1496.95,-193.53 1532.5,-152.25 1544.61,-138.19 1540.9,-127.05 1532.5,-110.5 1526.07,-97.83 1514.17,-87.89 1502.57,-80.65"/>
<polygon fill="#63b8ff" stroke="#63b8ff" points="1504.34,-77.63 1493.92,-75.72 1500.87,-83.71 1504.34,-77.63"/>
</a>
</g>
</g>
<!-- Node3&#45;&gt;Node7 -->
<g id="edge13_Node000003_Node000007" class="edge">
<title>Node3&#45;&gt;Node7</title>
<g id="a_edge13_Node000003_Node000007"><a xlink:title=" ">
<path fill="none" stroke="#63b8ff" d="M1143.09,-201.82C932.6,-198.93 181.58,-186.28 144.5,-152.25 110.93,-121.44 115.75,-61.92 121.16,-30.76"/>
<polygon fill="#63b8ff" stroke="#63b8ff" points="124.55,-31.62 123.03,-21.13 117.68,-30.28 124.55,-31.62"/>
</a>
</g>
</g>
<!-- Node3&#45;&gt;Node9 -->
<g id="edge17_Node000003_Node000009" class="edge">
<title>Node3&#45;&gt;Node9</title>
<g id="a_edge17_Node000003_Node000009"><a xlink:title=" ">
<path fill="none" stroke="#63b8ff" d="M1252.05,-201.89C1466.68,-199.26 2243.22,-187.34 2281.5,-152.25 2315.09,-121.46 2310.26,-61.94 2304.85,-30.77"/>
<polygon fill="#63b8ff" stroke="#63b8ff" points="2308.32,-30.28 2302.97,-21.14 2301.45,-31.62 2308.32,-30.28"/>
</a>
</g>
</g>
<!-- Node3&#45;&gt;Node11 -->
<g id="edge14_Node000003_Node000011" class="edge">
<title>Node3&#45;&gt;Node11</title>
<g id="a_edge14_Node000003_Node000011"><a xlink:title=" ">
<path fill="none" stroke="#63b8ff" d="M1143.15,-200.84C1016.54,-196.47 710,-182.82 675.5,-152.25 657.12,-135.96 654.29,-106.3 654.75,-86.35"/>
<polygon fill="#63b8ff" stroke="#63b8ff" points="658.25,-86.56 655.32,-76.38 651.26,-86.17 658.25,-86.56"/>
</a>
</g>
</g>
<!-- Node3&#45;&gt;Node12 -->
<g id="edge15_Node000003_Node000012" class="edge">
<title>Node3&#45;&gt;Node12</title>
<g id="a_edge15_Node000003_Node000012"><a xlink:title=" ">
<path fill="none" stroke="#63b8ff" d="M1251.96,-200.99C1381.31,-196.91 1698.85,-183.76 1734.5,-152.25 1752.9,-135.99 1755.73,-106.32 1755.25,-86.36"/>
<polygon fill="#63b8ff" stroke="#63b8ff" points="1758.75,-86.17 1754.69,-76.38 1751.76,-86.57 1758.75,-86.17"/>
</a>
</g>
</g>
<!-- Node13 -->
<g id="Node000013" class="node">
<title>Node13</title>
<g id="a_Node000013"><a xlink:title=" ">
<polygon fill="#e0e0e0" stroke="#999999" points="756.25,-141 684.75,-141 684.75,-121.75 756.25,-121.75 756.25,-141"/>
<text text-anchor="middle" x="720.5" y="-127.5" font-family="Helvetica,sans-Serif" font-size="10.00">initializer_list</text>
</a>
</g>
</g>
<!-- Node3&#45;&gt;Node13 -->
<g id="edge16_Node000003_Node000013" class="edge">
<title>Node3&#45;&gt;Node13</title>
<g id="a_edge16_Node000003_Node000013"><a xlink:title=" ">
<path fill="none" stroke="#63b8ff" d="M1142.97,-201.37C1060.06,-198.49 897.91,-188.3 765.5,-152.25 759.67,-150.66 753.64,-148.44 747.94,-146.05"/>
<polygon fill="#63b8ff" stroke="#63b8ff" points="749.51,-142.91 738.96,-141.99 746.63,-149.3 749.51,-142.91"/>
</a>
</g>
</g>
<!-- Node14 -->
<g id="Node000014" class="node">
<title>Node14</title>
<g id="a_Node000014"><a xlink:title=" ">
<polygon fill="#e0e0e0" stroke="#999999" points="812.75,-141 774.25,-141 774.25,-121.75 812.75,-121.75 812.75,-141"/>
<text text-anchor="middle" x="793.5" y="-127.5" font-family="Helvetica,sans-Serif" font-size="10.00">utility</text>
</a>
</g>
</g>
<!-- Node3&#45;&gt;Node14 -->
<g id="edge18_Node000003_Node000014" class="edge">
<title>Node3&#45;&gt;Node14</title>
<g id="a_edge18_Node000003_Node000014"><a xlink:title=" ">
<path fill="none" stroke="#63b8ff" d="M1143.17,-203.3C1068.19,-202.63 929.97,-194.95 821.5,-152.25 818.58,-151.1 815.69,-149.59 812.92,-147.91"/>
<polygon fill="#63b8ff" stroke="#63b8ff" points="815.13,-145.18 804.93,-142.3 811.11,-150.91 815.13,-145.18"/>
</a>
</g>
</g>
<!-- Node15 -->
<g id="Node000015" class="node">
<title>Node15</title>
<g id="a_Node000015"><a xlink:title=" ">
<polygon fill="#e0e0e0" stroke="#999999" points="960.5,-146.62 830.5,-146.62 830.5,-116.12 960.5,-116.12 960.5,-146.62"/>
<text text-anchor="start" x="838.5" y="-133.12" font-family="Helvetica,sans-Serif" font-size="10.00">typed_linear_algebra</text>
<text text-anchor="middle" x="895.5" y="-121.88" font-family="Helvetica,sans-Serif" font-size="10.00">_internal/algorithm/add.tpp</text>
</a>
</g>
</g>
<!-- Node3&#45;&gt;Node15 -->
<g id="edge19_Node000003_Node000015" class="edge">
<title>Node3&#45;&gt;Node15</title>
<g id="a_edge19_Node000003_Node000015"><a xlink:title=" ">
<path fill="none" stroke="#63b8ff" d="M1142.98,-191.21C1096.69,-181.45 1028.56,-166.68 969.5,-152.25 966.41,-151.5 963.25,-150.71 960.07,-149.9"/>
<polygon fill="#63b8ff" stroke="#63b8ff" points="961.2,-146.58 950.65,-147.48 959.46,-153.36 961.2,-146.58"/>
</a>
</g>
</g>
<!-- Node16 -->
<g id="Node000016" class="node">
<title>Node16</title>
<g id="a_Node000016"><a xlink:title=" ">
<polygon fill="#e0e0e0" stroke="#999999" points="1118.38,-146.62 978.62,-146.62 978.62,-116.12 1118.38,-116.12 1118.38,-146.62"/>
<text text-anchor="start" x="986.62" y="-133.12" font-family="Helvetica,sans-Serif" font-size="10.00">typed_linear_algebra</text>
<text text-anchor="middle" x="1048.5" y="-121.88" font-family="Helvetica,sans-Serif" font-size="10.00">_internal/algorithm/divide.tpp</text>
</a>
</g>
</g>
<!-- Node3&#45;&gt;Node16 -->
<g id="edge20_Node000003_Node000016" class="edge">
<title>Node3&#45;&gt;Node16</title>
<g id="a_edge20_Node000003_Node000016"><a xlink:title=" ">
<path fill="none" stroke="#63b8ff" d="M1166.26,-187.8C1144.11,-177.37 1114.15,-163.27 1089.99,-151.9"/>
<polygon fill="#63b8ff" stroke="#63b8ff" points="1091.6,-148.79 1081.06,-147.7 1088.62,-155.13 1091.6,-148.79"/>
</a>
</g>
</g>
<!-- Node17 -->
<g id="Node000017" class="node">
<title>Node17</title>
<g id="a_Node000017"><a xlink:title=" ">
<polygon fill="#e0e0e0" stroke="#999999" points="1258.38,-152.25 1136.62,-152.25 1136.62,-110.5 1258.38,-110.5 1258.38,-152.25"/>
<text text-anchor="start" x="1144.62" y="-138.75" font-family="Helvetica,sans-Serif" font-size="10.00">typed_linear_algebra</text>
<text text-anchor="start" x="1144.62" y="-127.5" font-family="Helvetica,sans-Serif" font-size="10.00">_internal/algorithm/equal</text>
<text text-anchor="middle" x="1197.5" y="-116.25" font-family="Helvetica,sans-Serif" font-size="10.00">_to.tpp</text>
</a>
</g>
</g>
<!-- Node3&#45;&gt;Node17 -->
<g id="edge21_Node000003_Node000017" class="edge">
<title>Node3&#45;&gt;Node17</title>
<g id="a_edge21_Node000003_Node000017"><a xlink:title=" ">
<path fill="none" stroke="#63b8ff" d="M1197.5,-187.97C1197.5,-181.04 1197.5,-172.47 1197.5,-164.14"/>
<polygon fill="#63b8ff" stroke="#63b8ff" points="1201,-164.25 1197.5,-154.25 1194,-164.25 1201,-164.25"/>
</a>
</g>
</g>
<!-- Node18 -->
<g id="Node000018" class="node">
<title>Node18</title>
<g id="a_Node000018"><a xlink:title=" ">
<polygon fill="#e0e0e0" stroke="#999999" points="1400.88,-152.25 1276.12,-152.25 1276.12,-110.5 1400.88,-110.5 1400.88,-152.25"/>
<text text-anchor="start" x="1284.12" y="-138.75" font-family="Helvetica,sans-Serif" font-size="10.00">typed_linear_algebra</text>
<text text-anchor="start" x="1284.12" y="-127.5" font-family="Helvetica,sans-Serif" font-size="10.00">_internal/algorithm/matrix</text>
<text text-anchor="middle" x="1338.5" y="-116.25" font-family="Helvetica,sans-Serif" font-size="10.00">_product.tpp</text>
</a>
</g>
</g>
<!-- Node3&#45;&gt;Node18 -->
<g id="edge22_Node000003_Node000018" class="edge">
<title>Node3&#45;&gt;Node18</title>
<g id="a_edge22_Node000003_Node000018"><a xlink:title=" ">
<path fill="none" stroke="#63b8ff" d="M1227.06,-187.8C1244.61,-179.07 1267.33,-167.77 1287.68,-157.65"/>
<polygon fill="#63b8ff" stroke="#63b8ff" points="1289,-160.9 1296.4,-153.32 1285.88,-154.63 1289,-160.9"/>
</a>
</g>
</g>
<!-- Node19 -->
<g id="Node000019" class="node">
<title>Node19</title>
<g id="a_Node000019"><a xlink:title=" ">
<polygon fill="#e0e0e0" stroke="#999999" points="1725.75,-146.62 1579.25,-146.62 1579.25,-116.12 1725.75,-116.12 1725.75,-146.62"/>
<text text-anchor="start" x="1587.25" y="-133.12" font-family="Helvetica,sans-Serif" font-size="10.00">typed_linear_algebra</text>
<text text-anchor="middle" x="1652.5" y="-121.88" font-family="Helvetica,sans-Serif" font-size="10.00">_internal/algorithm/product.tpp</text>
</a>
</g>
</g>
<!-- Node3&#45;&gt;Node19 -->
<g id="edge23_Node000003_Node000019" class="edge">
<title>Node3&#45;&gt;Node19</title>
<g id="a_edge23_Node000003_Node000019"><a xlink:title=" ">
<path fill="none" stroke="#63b8ff" d="M1251.99,-196.59C1324.03,-188.43 1454.8,-172.41 1565.5,-152.25 1570.35,-151.37 1575.33,-150.4 1580.35,-149.38"/>
<polygon fill="#63b8ff" stroke="#63b8ff" points="1580.78,-152.86 1589.84,-147.38 1579.34,-146.01 1580.78,-152.86"/>
</a>
</g>
</g>
<!-- Node20 -->
<g id="Node000020" class="node">
<title>Node20</title>
<g id="a_Node000020"><a xlink:title=" ">
<polygon fill="#e0e0e0" stroke="#999999" points="1919.25,-146.62 1781.75,-146.62 1781.75,-116.12 1919.25,-116.12 1919.25,-146.62"/>
<text text-anchor="start" x="1789.75" y="-133.12" font-family="Helvetica,sans-Serif" font-size="10.00">typed_linear_algebra</text>
<text text-anchor="middle" x="1850.5" y="-121.88" font-family="Helvetica,sans-Serif" font-size="10.00">_internal/algorithm/scale.tpp</text>
</a>
</g>
</g>
<!-- Node3&#45;&gt;Node20 -->
<g id="edge24_Node000003_Node000020" class="edge">
<title>Node3&#45;&gt;Node20</title>
<g id="a_edge24_Node000003_Node000020"><a xlink:title=" ">
<path fill="none" stroke="#63b8ff" d="M1252.06,-200.36C1353.93,-195.78 1579.73,-182.84 1767.5,-152.25 1772.49,-151.44 1777.62,-150.49 1782.77,-149.45"/>
<polygon fill="#63b8ff" stroke="#63b8ff" points="1783.48,-152.88 1792.54,-147.39 1782.03,-146.03 1783.48,-152.88"/>
</a>
</g>
</g>
<!-- Node21 -->
<g id="Node000021" class="node">
<title>Node21</title>
<g id="a_Node000021"><a xlink:title=" ">
<polygon fill="#e0e0e0" stroke="#999999" points="2091.88,-146.62 1937.12,-146.62 1937.12,-116.12 2091.88,-116.12 2091.88,-146.62"/>
<text text-anchor="start" x="1945.12" y="-133.12" font-family="Helvetica,sans-Serif" font-size="10.00">typed_linear_algebra</text>
<text text-anchor="middle" x="2014.5" y="-121.88" font-family="Helvetica,sans-Serif" font-size="10.00">_internal/algorithm/substract.tpp</text>
</a>
</g>
</g>
<!-- Node3&#45;&gt;Node21 -->
<g id="edge25_Node000003_Node000021" class="edge">
<title>Node3&#45;&gt;Node21</title>
<g id="a_edge25_Node000003_Node000021"><a xlink:title=" ">
<path fill="none" stroke="#63b8ff" d="M1251.92,-201.7C1373.76,-199.27 1677.49,-189.64 1928.5,-152.25 1934.04,-151.42 1939.75,-150.43 1945.48,-149.33"/>
<polygon fill="#63b8ff" stroke="#63b8ff" points="1945.86,-152.82 1954.97,-147.41 1944.47,-145.96 1945.86,-152.82"/>
</a>
</g>
</g>
<!-- Node22 -->
<g id="Node000022" class="node">
<title>Node22</title>
<g id="a_Node000022"><a xlink:title=" ">
<polygon fill="#e0e0e0" stroke="#999999" points="2272.62,-146.62 2110.38,-146.62 2110.38,-116.12 2272.62,-116.12 2272.62,-146.62"/>
<text text-anchor="start" x="2118.38" y="-133.12" font-family="Helvetica,sans-Serif" font-size="10.00">typed_linear_algebra</text>
<text text-anchor="middle" x="2191.5" y="-121.88" font-family="Helvetica,sans-Serif" font-size="10.00">_internal/algorithm/transposed.tpp</text>
</a>
</g>
</g>
<!-- Node3&#45;&gt;Node22 -->
<g id="edge26_Node000003_Node000022" class="edge">
<title>Node3&#45;&gt;Node22</title>
<g id="a_edge26_Node000003_Node000022"><a xlink:title=" ">
<path fill="none" stroke="#63b8ff" d="M1251.99,-202.49C1392.96,-201.8 1780.98,-195.75 2100.5,-152.25 2106.76,-151.4 2113.23,-150.34 2119.7,-149.17"/>
<polygon fill="#63b8ff" stroke="#63b8ff" points="2119.9,-152.69 2129.06,-147.37 2118.58,-145.82 2119.9,-152.69"/>
</a>
</g>
</g>
<!-- Node23 -->
<g id="Node000023" class="node">
<title>Node23</title>
<g id="a_Node000023"><a xlink:title=" ">
<polygon fill="#e0e0e0" stroke="#999999" points="257.75,-146.62 153.25,-146.62 153.25,-116.12 257.75,-116.12 257.75,-146.62"/>
<text text-anchor="start" x="161.25" y="-133.12" font-family="Helvetica,sans-Serif" font-size="10.00">typed_linear_algebra</text>
<text text-anchor="middle" x="205.5" y="-121.88" font-family="Helvetica,sans-Serif" font-size="10.00">_internal/cast.tpp</text>
</a>
</g>
</g>
<!-- Node3&#45;&gt;Node23 -->
<g id="edge27_Node000003_Node000023" class="edge">
<title>Node3&#45;&gt;Node23</title>
<g id="a_edge27_Node000003_Node000023"><a xlink:title=" ">
<path fill="none" stroke="#63b8ff" d="M1143.15,-201.39C970.71,-197.58 437.25,-183.51 267.5,-152.25 264.11,-151.63 260.64,-150.87 257.17,-150.02"/>
<polygon fill="#63b8ff" stroke="#63b8ff" points="258.17,-146.66 247.6,-147.43 256.34,-153.42 258.17,-146.66"/>
</a>
</g>
</g>
<!-- Node24 -->
<g id="Node000024" class="node">
<title>Node24</title>
<g id="a_Node000024"><a xlink:title=" ">
<polygon fill="#e0e0e0" stroke="#999999" points="380.75,-146.62 276.25,-146.62 276.25,-116.12 380.75,-116.12 380.75,-146.62"/>
<text text-anchor="start" x="284.25" y="-133.12" font-family="Helvetica,sans-Serif" font-size="10.00">typed_linear_algebra</text>
<text text-anchor="middle" x="328.5" y="-121.88" font-family="Helvetica,sans-Serif" font-size="10.00">_internal/tuple.tpp</text>
</a>
</g>
</g>
<!-- Node3&#45;&gt;Node24 -->
<g id="edge28_Node000003_Node000024" class="edge">
<title>Node3&#45;&gt;Node24</title>
<g id="a_edge28_Node000003_Node000024"><a xlink:title=" ">
<path fill="none" stroke="#63b8ff" d="M1142.93,-200.9C985.85,-196.02 534.55,-179.93 389.5,-152.25 386.32,-151.64 383.08,-150.92 379.82,-150.11"/>
<polygon fill="#63b8ff" stroke="#63b8ff" points="380.84,-146.76 370.27,-147.49 378.99,-153.51 380.84,-146.76"/>
</a>
</g>
</g>
<!-- Node25 -->
<g id="Node000025" class="node">
<title>Node25</title>
<g id="a_Node000025"><a xlink:title=" ">
<polygon fill="#e0e0e0" stroke="#999999" points="506.25,-152.25 398.75,-152.25 398.75,-110.5 506.25,-110.5 506.25,-152.25"/>
<text text-anchor="start" x="406.75" y="-138.75" font-family="Helvetica,sans-Serif" font-size="10.00">typed_linear_algebra</text>
<text text-anchor="start" x="406.75" y="-127.5" font-family="Helvetica,sans-Serif" font-size="10.00">_internal/typed_linear</text>
<text text-anchor="middle" x="452.5" y="-116.25" font-family="Helvetica,sans-Serif" font-size="10.00">_algebra.tpp</text>
</a>
</g>
</g>
<!-- Node3&#45;&gt;Node25 -->
<g id="edge29_Node000003_Node000025" class="edge">
<title>Node3&#45;&gt;Node25</title>
<g id="a_edge29_Node000003_Node000025"><a xlink:title=" ">
<path fill="none" stroke="#63b8ff" d="M1143.01,-202.75C1028.48,-202.36 754.52,-196.62 517.83,-152.45"/>
<polygon fill="#63b8ff" stroke="#63b8ff" points="518.56,-149.02 508.08,-150.6 517.25,-155.9 518.56,-149.02"/>
</a>
</g>
</g>
<!-- Node5&#45;&gt;Node6 -->
<g id="edge5_Node000005_Node000006" class="edge">
<title>Node5&#45;&gt;Node6</title>
<g id="a_edge5_Node000005_Node000006"><a xlink:title=" ">
<path fill="none" stroke="#63b8ff" d="M1471.5,-115.74C1471.5,-106.95 1471.5,-95.65 1471.5,-86.03"/>
<polygon fill="#63b8ff" stroke="#63b8ff" points="1475,-86.21 1471.5,-76.21 1468,-86.21 1475,-86.21"/>
</a>
</g>
</g>
<!-- Node5&#45;&gt;Node11 -->
<g id="edge10_Node000005_Node000011" class="edge">
<title>Node5&#45;&gt;Node11</title>
<g id="a_edge10_Node000005_Node000011"><a xlink:title=" ">
<path fill="none" stroke="#63b8ff" d="M1430.52,-115.65C1423.58,-113.62 1416.39,-111.79 1409.5,-110.5 1269.22,-84.29 822.02,-70.36 692.17,-66.8"/>
<polygon fill="#63b8ff" stroke="#63b8ff" points="692.56,-63.31 682.47,-66.54 692.37,-70.31 692.56,-63.31"/>
</a>
</g>
</g>
<!-- Node5&#45;&gt;Node12 -->
<g id="edge11_Node000005_Node000012" class="edge">
<title>Node5&#45;&gt;Node12</title>
<g id="a_edge11_Node000005_Node000012"><a xlink:title=" ">
<path fill="none" stroke="#63b8ff" d="M1524.21,-118.32C1581.65,-105.18 1671.79,-84.56 1720.17,-73.5"/>
<polygon fill="#63b8ff" stroke="#63b8ff" points="1720.8,-76.95 1729.76,-71.3 1719.23,-70.12 1720.8,-76.95"/>
</a>
</g>
</g>
<!-- Node6&#45;&gt;Node7 -->
<g id="edge6_Node000006_Node000007" class="edge">
<title>Node6&#45;&gt;Node7</title>
<g id="a_edge6_Node000006_Node000007"><a xlink:title=" ">
<path fill="none" stroke="#63b8ff" d="M1442.76,-62.74C1269.62,-55.89 366,-20.14 165.1,-12.19"/>
<polygon fill="#63b8ff" stroke="#63b8ff" points="165.33,-8.7 155.2,-11.8 165.05,-15.69 165.33,-8.7"/>
</a>
</g>
</g>
<!-- Node8 -->
<g id="Node000008" class="node">
<title>Node8</title>
<g id="a_Node000008"><a xlink:title=" ">
<polygon fill="#e0e0e0" stroke="#999999" points="1500.5,-19.25 1442.5,-19.25 1442.5,0 1500.5,0 1500.5,-19.25"/>
<text text-anchor="middle" x="1471.5" y="-5.75" font-family="Helvetica,sans-Serif" font-size="10.00">functional</text>
</a>
</g>
</g>
<!-- Node6&#45;&gt;Node8 -->
<g id="edge7_Node000006_Node000008" class="edge">
<title>Node6&#45;&gt;Node8</title>
<g id="a_edge7_Node000006_Node000008"><a xlink:title=" ">
<path fill="none" stroke="#63b8ff" d="M1471.5,-55.08C1471.5,-48.57 1471.5,-39.42 1471.5,-31.12"/>
<polygon fill="#63b8ff" stroke="#63b8ff" points="1475,-31.12 1471.5,-21.12 1468,-31.12 1475,-31.12"/>
</a>
</g>
</g>
<!-- Node6&#45;&gt;Node9 -->
<g id="edge8_Node000006_Node000009" class="edge">
<title>Node6&#45;&gt;Node9</title>
<g id="a_edge8_Node000006_Node000009"><a xlink:title=" ">
<path fill="none" stroke="#63b8ff" d="M1500.04,-62.04C1627.05,-53.88 2140.42,-20.91 2270.45,-12.56"/>
<polygon fill="#63b8ff" stroke="#63b8ff" points="2270.55,-16.06 2280.3,-11.92 2270.1,-9.07 2270.55,-16.06"/>
</a>
</g>
</g>
<!-- Node6&#45;&gt;Node10 -->
<g id="edge9_Node000006_Node000010" class="edge">
<title>Node6&#45;&gt;Node10</title>
<g id="a_edge9_Node000006_Node000010"><a xlink:title=" ">
<path fill="none" stroke="#63b8ff" d="M1443.19,-64.17C1298.96,-65.43 631.62,-68.23 88.5,-19.25 83.4,-18.79 78.07,-18.18 72.79,-17.49"/>
<polygon fill="#63b8ff" stroke="#63b8ff" points="73.31,-14.03 62.92,-16.11 72.34,-20.96 73.31,-14.03"/>
</a>
</g>
</g>
</g>
</svg>

<g id="navigator" transform="translate(0 0)" fill="#404254">
  <rect fill="#f2f5e9" fill-opacity="0.5" stroke="#606060" stroke-width=".5" x="0" y="0" width="60" height="60"/>
  <use id="zoomplus" xlink:href="#zoomPlus" x="17" y="9" onmousedown="handleZoom(evt,'in')"/>
  <use id="zoomminus" xlink:href="#zoomMin" x="42" y="9" onmousedown="handleZoom(evt,'out')"/>
  <use id="reset" xlink:href="#resetDef" x="30" y="36" onmousedown="handleReset()"/>
   <use id="arrowup" xlink:href="#arrowUp" x="0" y="0" onmousedown="handlePan(0,-1)"/>
  <use id="arrowright" xlink:href="#arrowRight" x="0" y="0" onmousedown="handlePan(1,0)"/>
  <use id="arrowdown" xlink:href="#arrowDown" x="0" y="0" onmousedown="handlePan(0,1)"/>
  <use id="arrowleft" xlink:href="#arrowLeft" x="0" y="0" onmousedown="handlePan(-1,0)"/>
</g>
<svg viewBox="0 0 15 15" width="100%" height="30px" preserveAspectRatio="xMaxYMin meet">
 <g id="arrow_out" transform="scale(0.3 0.3)">
  <a xlink:href="eigen_2fcarouge_2linalg_8hpp__incl_org.svg" target="_base">
   <rect id="button" ry="5" rx="5" y="6" x="6" height="38" width="38"
        fill="#f2f5e9" fill-opacity="0.5" stroke="#606060" stroke-width="1.0"/>
   <path id="arrow"
     d="M 11.500037,31.436501 C 11.940474,20.09759 22.043105,11.32322 32.158766,21.979434 L 37.068811,17.246167 C 37.068811,17.246167 37.088388,32 37.088388,32 L 22.160133,31.978069 C 22.160133,31.978069 26.997745,27.140456 26.997745,27.140456 C 18.528582,18.264221 13.291696,25.230495 11.500037,31.436501 z"
     style="fill:#404040;"/>
  </a>
 </g>
</svg>

<style type='text/css'>
<![CDATA[
[data-mouse-over-selected='false'] { opacity: 0.7; }
[data-mouse-over-selected='true']  { opacity: 1.0; }
]]>
</style>
<script type="application/ecmascript"><![CDATA[
document.addEventListener('DOMContentLoaded', (event) => {
  highlightEdges();
  highlightAdjacentNodes();
});
]]></script>
</svg>
