<?xml version="1.0" encoding="UTF-8" standalone="no"?>
<!DOCTYPE svg PUBLIC "-//W3C//DTD SVG 1.1//EN"
 "http://www.w3.org/Graphics/SVG/1.1/DTD/svg11.dtd">
<!-- Generated by graphviz version 12.2.0 (20241103.1931)
 -->
<!-- Title: /github/workspace/support/eigexed/fcarouge/linalg.hpp Pages: 1 -->
<svg width="1739pt" height="349pt"
 viewBox="0.00 0.00 1739.32 348.50" xmlns="http://www.w3.org/2000/svg" xmlns:xlink="http://www.w3.org/1999/xlink">
<g id="graph0" class="graph" transform="scale(1 1) rotate(0) translate(4 344.5)">
<title>/github/workspace/support/eigexed/fcarouge/linalg.hpp</title>
<!-- Node1 -->
<g id="Node000001" class="node">
<title>Node1</title>
<g id="a_Node000001"><a xlink:title="Scalar type linear algebra with Eigen implementation.">
<polygon fill="#999999" stroke="#666666" points="1203.7,-340.5 1067.7,-340.5 1067.7,-310 1203.7,-310 1203.7,-340.5"/>
<text text-anchor="start" x="1075.7" y="-327" font-family="Helvetica,sans-Serif" font-size="10.00">/github/workspace/support</text>
<text text-anchor="middle" x="1135.7" y="-315.75" font-family="Helvetica,sans-Serif" font-size="10.00">/eigexed/fcarouge/linalg.hpp</text>
</a>
</g>
</g>
<!-- Node2 -->
<g id="Node000002" class="node">
<title>Node2</title>
<g id="a_Node000002"><a xlink:href="eigen_8hpp.xhtml" target="_top" xlink:title="Linear algebra facade for Eigen3 third party implementation.">
<polygon fill="white" stroke="#666666" points="1464.57,-274 1366.82,-274 1366.82,-254.75 1464.57,-254.75 1464.57,-274"/>
<text text-anchor="middle" x="1415.7" y="-260.5" font-family="Helvetica,sans-Serif" font-size="10.00">fcarouge/eigen.hpp</text>
</a>
</g>
</g>
<!-- Node1&#45;&gt;Node2 -->
<g id="edge1_Node000001_Node000002" class="edge">
<title>Node1&#45;&gt;Node2</title>
<g id="a_edge1_Node000001_Node000002"><a xlink:title=" ">
<path fill="none" stroke="#63b8ff" d="M1204.19,-309.85C1252.45,-299.7 1316.2,-286.3 1361.05,-276.87"/>
<polygon fill="#63b8ff" stroke="#63b8ff" points="1361.76,-280.29 1370.83,-274.81 1360.32,-273.44 1361.76,-280.29"/>
</a>
</g>
</g>
<!-- Node3 -->
<g id="Node000003" class="node">
<title>Node3</title>
<g id="a_Node000003"><a xlink:href="typed__linear__algebra_8hpp.xhtml" target="_top" xlink:title="Typed linear algebra implementation.">
<polygon fill="white" stroke="#666666" points="1189.82,-218.75 1081.57,-218.75 1081.57,-188.25 1189.82,-188.25 1189.82,-218.75"/>
<text text-anchor="start" x="1089.57" y="-205.25" font-family="Helvetica,sans-Serif" font-size="10.00">fcarouge/typed_linear</text>
<text text-anchor="middle" x="1135.7" y="-194" font-family="Helvetica,sans-Serif" font-size="10.00">_algebra.hpp</text>
</a>
</g>
</g>
<!-- Node1&#45;&gt;Node3 -->
<g id="edge29_Node000001_Node000003" class="edge">
<title>Node1&#45;&gt;Node3</title>
<g id="a_edge29_Node000001_Node000003"><a xlink:title=" ">
<path fill="none" stroke="#63b8ff" d="M1135.7,-309.57C1135.7,-289.89 1135.7,-254.64 1135.7,-230.44"/>
<polygon fill="#63b8ff" stroke="#63b8ff" points="1139.2,-230.44 1135.7,-220.44 1132.2,-230.44 1139.2,-230.44"/>
</a>
</g>
</g>
<!-- Node11 -->
<g id="Node000011" class="node">
<title>Node11</title>
<g id="a_Node000011"><a xlink:title=" ">
<polygon fill="#e0e0e0" stroke="#999999" points="1241.82,-74.5 1193.57,-74.5 1193.57,-55.25 1241.82,-55.25 1241.82,-74.5"/>
<text text-anchor="middle" x="1217.7" y="-61" font-family="Helvetica,sans-Serif" font-size="10.00">cstddef</text>
</a>
</g>
</g>
<!-- Node1&#45;&gt;Node11 -->
<g id="edge30_Node000001_Node000011" class="edge">
<title>Node1&#45;&gt;Node11</title>
<g id="a_edge30_Node000001_Node000011"><a xlink:title=" ">
<path fill="none" stroke="#63b8ff" d="M1067.48,-322.09C802.78,-312.53 -134.43,-267.35 16.7,-110.5 58.15,-67.48 987.1,-65.72 1182.02,-65.82"/>
<polygon fill="#63b8ff" stroke="#63b8ff" points="1181.77,-69.32 1191.77,-65.83 1181.77,-62.32 1181.77,-69.32"/>
</a>
</g>
</g>
<!-- Node2&#45;&gt;Node3 -->
<g id="edge2_Node000002_Node000003" class="edge">
<title>Node2&#45;&gt;Node3</title>
<g id="a_edge2_Node000002_Node000003"><a xlink:title=" ">
<path fill="none" stroke="#63b8ff" d="M1372.56,-254.3C1326.8,-244.68 1253.97,-229.37 1201.14,-218.26"/>
<polygon fill="#63b8ff" stroke="#63b8ff" points="1202.17,-214.9 1191.67,-216.27 1200.73,-221.75 1202.17,-214.9"/>
</a>
</g>
</g>
<!-- Node12 -->
<g id="Node000012" class="node">
<title>Node12</title>
<g id="a_Node000012"><a xlink:title=" ">
<polygon fill="#e0e0e0" stroke="#999999" points="1425.57,-74.5 1381.82,-74.5 1381.82,-55.25 1425.57,-55.25 1425.57,-74.5"/>
<text text-anchor="middle" x="1403.7" y="-61" font-family="Helvetica,sans-Serif" font-size="10.00">format</text>
</a>
</g>
</g>
<!-- Node2&#45;&gt;Node12 -->
<g id="edge26_Node000002_Node000012" class="edge">
<title>Node2&#45;&gt;Node12</title>
<g id="a_edge26_Node000002_Node000012"><a xlink:title=" ">
<path fill="none" stroke="#63b8ff" d="M1452.71,-254.31C1528.77,-233.99 1690.8,-181.01 1632.7,-110.5 1608.29,-80.88 1494.52,-70.66 1437.07,-67.35"/>
<polygon fill="#63b8ff" stroke="#63b8ff" points="1437.4,-63.86 1427.23,-66.82 1437.03,-70.85 1437.4,-63.86"/>
</a>
</g>
</g>
<!-- Node22 -->
<g id="Node000022" class="node">
<title>Node22</title>
<g id="a_Node000022"><a xlink:title=" ">
<polygon fill="#e0e0e0" stroke="#999999" points="1731.32,-213.12 1680.07,-213.12 1680.07,-193.88 1731.32,-193.88 1731.32,-213.12"/>
<text text-anchor="middle" x="1705.7" y="-199.62" font-family="Helvetica,sans-Serif" font-size="10.00">sstream</text>
</a>
</g>
</g>
<!-- Node2&#45;&gt;Node22 -->
<g id="edge27_Node000002_Node000022" class="edge">
<title>Node2&#45;&gt;Node22</title>
<g id="a_edge27_Node000002_Node000022"><a xlink:title=" ">
<path fill="none" stroke="#63b8ff" d="M1464.61,-257.09C1515.39,-250 1596.88,-237.02 1665.7,-218.75 1667.56,-218.26 1669.46,-217.71 1671.37,-217.14"/>
<polygon fill="#63b8ff" stroke="#63b8ff" points="1672.36,-220.5 1680.77,-214.07 1670.18,-213.84 1672.36,-220.5"/>
</a>
</g>
</g>
<!-- Node23 -->
<g id="Node000023" class="node">
<title>Node23</title>
<g id="a_Node000023"><a xlink:title=" ">
<polygon fill="#e0e0e0" stroke="#999999" points="1449.2,-213.12 1382.2,-213.12 1382.2,-193.88 1449.2,-193.88 1449.2,-213.12"/>
<text text-anchor="middle" x="1415.7" y="-199.62" font-family="Helvetica,sans-Serif" font-size="10.00">Eigen/Eigen</text>
</a>
</g>
</g>
<!-- Node2&#45;&gt;Node23 -->
<g id="edge28_Node000002_Node000023" class="edge">
<title>Node2&#45;&gt;Node23</title>
<g id="a_edge28_Node000002_Node000023"><a xlink:title=" ">
<path fill="none" stroke="#63b8ff" d="M1415.7,-254.43C1415.7,-246.65 1415.7,-235.08 1415.7,-225.03"/>
<polygon fill="#63b8ff" stroke="#63b8ff" points="1419.2,-225.04 1415.7,-215.04 1412.2,-225.04 1419.2,-225.04"/>
</a>
</g>
</g>
<!-- Node4 -->
<g id="Node000004" class="node">
<title>Node4</title>
<g id="a_Node000004"><a xlink:href="typed__linear__algebra__forward_8hpp.xhtml" target="_top" xlink:title="Authoritative forward declaration header.">
<polygon fill="white" stroke="#666666" points="1623.95,-146.62 1519.45,-146.62 1519.45,-116.12 1623.95,-116.12 1623.95,-146.62"/>
<text text-anchor="start" x="1527.45" y="-133.12" font-family="Helvetica,sans-Serif" font-size="10.00">typed_linear_algebra</text>
<text text-anchor="middle" x="1571.7" y="-121.88" font-family="Helvetica,sans-Serif" font-size="10.00">_forward.hpp</text>
</a>
</g>
</g>
<!-- Node3&#45;&gt;Node4 -->
<g id="edge3_Node000003_Node000004" class="edge">
<title>Node3&#45;&gt;Node4</title>
<g id="a_edge3_Node000003_Node000004"><a xlink:title=" ">
<path fill="none" stroke="#63b8ff" d="M1190.09,-197.82C1262.64,-190.96 1394.84,-176.31 1505.7,-152.25 1508.82,-151.57 1512.01,-150.82 1515.22,-150.01"/>
<polygon fill="#63b8ff" stroke="#63b8ff" points="1515.91,-153.45 1524.68,-147.5 1514.11,-146.69 1515.91,-153.45"/>
</a>
</g>
</g>
<!-- Node5 -->
<g id="Node000005" class="node">
<title>Node5</title>
<g id="a_Node000005"><a xlink:href="format_8hpp.xhtml" target="_top" xlink:title="Formatting support for the typed matrix.">
<polygon fill="white" stroke="#666666" points="1349.95,-146.62 1245.45,-146.62 1245.45,-116.12 1349.95,-116.12 1349.95,-146.62"/>
<text text-anchor="start" x="1253.45" y="-133.12" font-family="Helvetica,sans-Serif" font-size="10.00">typed_linear_algebra</text>
<text text-anchor="middle" x="1297.7" y="-121.88" font-family="Helvetica,sans-Serif" font-size="10.00">_internal/format.hpp</text>
</a>
</g>
</g>
<!-- Node3&#45;&gt;Node5 -->
<g id="edge4_Node000003_Node000005" class="edge">
<title>Node3&#45;&gt;Node5</title>
<g id="a_edge4_Node000003_Node000005"><a xlink:title=" ">
<path fill="none" stroke="#63b8ff" d="M1169.66,-187.8C1193.96,-177.28 1226.9,-163.02 1253.29,-151.6"/>
<polygon fill="#63b8ff" stroke="#63b8ff" points="1254.61,-154.84 1262.39,-147.66 1251.83,-148.42 1254.61,-154.84"/>
</a>
</g>
</g>
<!-- Node6 -->
<g id="Node000006" class="node">
<title>Node6</title>
<g id="a_Node000006"><a xlink:href="utility_8hpp.xhtml" target="_top" xlink:title=" ">
<polygon fill="white" stroke="#666666" points="1363.95,-74.5 1307.45,-74.5 1307.45,-55.25 1363.95,-55.25 1363.95,-74.5"/>
<text text-anchor="middle" x="1335.7" y="-61" font-family="Helvetica,sans-Serif" font-size="10.00">utility.hpp</text>
</a>
</g>
</g>
<!-- Node3&#45;&gt;Node6 -->
<g id="edge12_Node000003_Node000006" class="edge">
<title>Node3&#45;&gt;Node6</title>
<g id="a_edge12_Node000003_Node000006"><a xlink:title=" ">
<path fill="none" stroke="#63b8ff" d="M1190.31,-197.89C1249.41,-191.63 1338,-178.13 1358.7,-152.25 1374.48,-132.51 1360.88,-102.94 1348.89,-84.02"/>
<polygon fill="#63b8ff" stroke="#63b8ff" points="1351.95,-82.3 1343.44,-76 1346.16,-86.24 1351.95,-82.3"/>
</a>
</g>
</g>
<!-- Node7 -->
<g id="Node000007" class="node">
<title>Node7</title>
<g id="a_Node000007"><a xlink:title=" ">
<polygon fill="#e0e0e0" stroke="#999999" points="1448.57,-19.25 1392.82,-19.25 1392.82,0 1448.57,0 1448.57,-19.25"/>
<text text-anchor="middle" x="1420.7" y="-5.75" font-family="Helvetica,sans-Serif" font-size="10.00">concepts</text>
</a>
</g>
</g>
<!-- Node3&#45;&gt;Node7 -->
<g id="edge13_Node000003_Node000007" class="edge">
<title>Node3&#45;&gt;Node7</title>
<g id="a_edge13_Node000003_Node000007"><a xlink:title=" ">
<path fill="none" stroke="#63b8ff" d="M1190.29,-198.23C1258.41,-191.9 1369.86,-177.9 1401.7,-152.25 1437.16,-123.69 1441.59,-100.26 1434.7,-55.25 1433.42,-46.93 1430.89,-38.03 1428.32,-30.38"/>
<polygon fill="#63b8ff" stroke="#63b8ff" points="1431.64,-29.29 1424.94,-21.08 1425.06,-31.68 1431.64,-29.29"/>
</a>
</g>
</g>
<!-- Node9 -->
<g id="Node000009" class="node">
<title>Node9</title>
<g id="a_Node000009"><a xlink:title=" ">
<polygon fill="#e0e0e0" stroke="#999999" points="1507.2,-19.25 1470.2,-19.25 1470.2,0 1507.2,0 1507.2,-19.25"/>
<text text-anchor="middle" x="1488.7" y="-5.75" font-family="Helvetica,sans-Serif" font-size="10.00">tuple</text>
</a>
</g>
</g>
<!-- Node3&#45;&gt;Node9 -->
<g id="edge17_Node000003_Node000009" class="edge">
<title>Node3&#45;&gt;Node9</title>
<g id="a_edge17_Node000003_Node000009"><a xlink:title=" ">
<path fill="none" stroke="#63b8ff" d="M1190.07,-199.54C1265.13,-194.42 1395.37,-181.52 1431.7,-152.25 1469.61,-121.71 1482.46,-62.08 1486.7,-30.83"/>
<polygon fill="#63b8ff" stroke="#63b8ff" points="1490.14,-31.52 1487.83,-21.18 1483.19,-30.71 1490.14,-31.52"/>
</a>
</g>
</g>
<!-- Node3&#45;&gt;Node11 -->
<g id="edge14_Node000003_Node000011" class="edge">
<title>Node3&#45;&gt;Node11</title>
<g id="a_edge14_Node000003_Node000011"><a xlink:title=" ">
<path fill="none" stroke="#63b8ff" d="M1161.36,-187.94C1174.46,-179.23 1189.53,-166.98 1198.7,-152.25 1211.23,-132.12 1215.56,-104.84 1217.02,-86.37"/>
<polygon fill="#63b8ff" stroke="#63b8ff" points="1220.51,-86.63 1217.56,-76.45 1213.52,-86.24 1220.51,-86.63"/>
</a>
</g>
</g>
<!-- Node3&#45;&gt;Node12 -->
<g id="edge15_Node000003_Node000012" class="edge">
<title>Node3&#45;&gt;Node12</title>
<g id="a_edge15_Node000003_Node000012"><a xlink:title=" ">
<path fill="none" stroke="#63b8ff" d="M1190.18,-197.53C1252.63,-190.77 1349.83,-176.62 1376.7,-152.25 1395.31,-135.37 1401.21,-105.86 1403.01,-86.09"/>
<polygon fill="#63b8ff" stroke="#63b8ff" points="1406.49,-86.45 1403.6,-76.26 1399.51,-86.03 1406.49,-86.45"/>
</a>
</g>
</g>
<!-- Node13 -->
<g id="Node000013" class="node">
<title>Node13</title>
<g id="a_Node000013"><a xlink:title=" ">
<polygon fill="#e0e0e0" stroke="#999999" points="97.45,-141 25.95,-141 25.95,-121.75 97.45,-121.75 97.45,-141"/>
<text text-anchor="middle" x="61.7" y="-127.5" font-family="Helvetica,sans-Serif" font-size="10.00">initializer_list</text>
</a>
</g>
</g>
<!-- Node3&#45;&gt;Node13 -->
<g id="edge16_Node000003_Node000013" class="edge">
<title>Node3&#45;&gt;Node13</title>
<g id="a_edge16_Node000003_Node000013"><a xlink:title=" ">
<path fill="none" stroke="#63b8ff" d="M1081.31,-202.46C896.61,-201.91 294.46,-196.68 106.7,-152.25 100.57,-150.8 94.24,-148.54 88.33,-146.05"/>
<polygon fill="#63b8ff" stroke="#63b8ff" points="90.21,-143.06 79.66,-142.08 87.3,-149.42 90.21,-143.06"/>
</a>
</g>
</g>
<!-- Node14 -->
<g id="Node000014" class="node">
<title>Node14</title>
<g id="a_Node000014"><a xlink:title=" ">
<polygon fill="#e0e0e0" stroke="#999999" points="153.95,-141 115.45,-141 115.45,-121.75 153.95,-121.75 153.95,-141"/>
<text text-anchor="middle" x="134.7" y="-127.5" font-family="Helvetica,sans-Serif" font-size="10.00">utility</text>
</a>
</g>
</g>
<!-- Node3&#45;&gt;Node14 -->
<g id="edge18_Node000003_Node000014" class="edge">
<title>Node3&#45;&gt;Node14</title>
<g id="a_edge18_Node000003_Node000014"><a xlink:title=" ">
<path fill="none" stroke="#63b8ff" d="M1081.2,-201.46C888.97,-197.55 249.43,-182.39 162.7,-152.25 159.69,-151.2 156.71,-149.73 153.89,-148.05"/>
<polygon fill="#63b8ff" stroke="#63b8ff" points="155.97,-145.23 145.78,-142.33 151.94,-150.95 155.97,-145.23"/>
</a>
</g>
</g>
<!-- Node15 -->
<g id="Node000015" class="node">
<title>Node15</title>
<g id="a_Node000015"><a xlink:title=" ">
<polygon fill="#e0e0e0" stroke="#999999" points="301.7,-146.62 171.7,-146.62 171.7,-116.12 301.7,-116.12 301.7,-146.62"/>
<text text-anchor="start" x="179.7" y="-133.12" font-family="Helvetica,sans-Serif" font-size="10.00">typed_linear_algebra</text>
<text text-anchor="middle" x="236.7" y="-121.88" font-family="Helvetica,sans-Serif" font-size="10.00">_internal/algorithm/add.tpp</text>
</a>
</g>
</g>
<!-- Node3&#45;&gt;Node15 -->
<g id="edge19_Node000003_Node000015" class="edge">
<title>Node3&#45;&gt;Node15</title>
<g id="a_edge19_Node000003_Node000015"><a xlink:title=" ">
<path fill="none" stroke="#63b8ff" d="M1081.23,-202.96C948.5,-203.26 598.2,-199.12 310.7,-152.25 306.12,-151.5 301.42,-150.59 296.7,-149.57"/>
<polygon fill="#63b8ff" stroke="#63b8ff" points="297.76,-146.23 287.23,-147.37 296.18,-153.04 297.76,-146.23"/>
</a>
</g>
</g>
<!-- Node16 -->
<g id="Node000016" class="node">
<title>Node16</title>
<g id="a_Node000016"><a xlink:title=" ">
<polygon fill="#e0e0e0" stroke="#999999" points="459.57,-146.62 319.82,-146.62 319.82,-116.12 459.57,-116.12 459.57,-146.62"/>
<text text-anchor="start" x="327.82" y="-133.12" font-family="Helvetica,sans-Serif" font-size="10.00">typed_linear_algebra</text>
<text text-anchor="middle" x="389.7" y="-121.88" font-family="Helvetica,sans-Serif" font-size="10.00">_internal/algorithm/divide.tpp</text>
</a>
</g>
</g>
<!-- Node3&#45;&gt;Node16 -->
<g id="edge20_Node000003_Node000016" class="edge">
<title>Node3&#45;&gt;Node16</title>
<g id="a_edge20_Node000003_Node000016"><a xlink:title=" ">
<path fill="none" stroke="#63b8ff" d="M1081.29,-201.55C967.08,-198.87 694.23,-188.84 468.7,-152.25 463.86,-151.46 458.88,-150.53 453.88,-149.49"/>
<polygon fill="#63b8ff" stroke="#63b8ff" points="454.98,-146.15 444.46,-147.42 453.48,-152.99 454.98,-146.15"/>
</a>
</g>
</g>
<!-- Node17 -->
<g id="Node000017" class="node">
<title>Node17</title>
<g id="a_Node000017"><a xlink:title=" ">
<polygon fill="#e0e0e0" stroke="#999999" points="632.07,-146.62 477.32,-146.62 477.32,-116.12 632.07,-116.12 632.07,-146.62"/>
<text text-anchor="start" x="485.32" y="-133.12" font-family="Helvetica,sans-Serif" font-size="10.00">typed_linear_algebra</text>
<text text-anchor="middle" x="554.7" y="-121.88" font-family="Helvetica,sans-Serif" font-size="10.00">_internal/algorithm/substract.tpp</text>
</a>
</g>
</g>
<!-- Node3&#45;&gt;Node17 -->
<g id="edge21_Node000003_Node000017" class="edge">
<title>Node3&#45;&gt;Node17</title>
<g id="a_edge21_Node000003_Node000017"><a xlink:title=" ">
<path fill="none" stroke="#63b8ff" d="M1081.32,-199.17C990.02,-193.08 800.34,-178.34 641.7,-152.25 636.43,-151.38 631.01,-150.39 625.57,-149.32"/>
<polygon fill="#63b8ff" stroke="#63b8ff" points="626.39,-145.92 615.89,-147.34 624.99,-152.78 626.39,-145.92"/>
</a>
</g>
</g>
<!-- Node18 -->
<g id="Node000018" class="node">
<title>Node18</title>
<g id="a_Node000018"><a xlink:title=" ">
<polygon fill="#e0e0e0" stroke="#999999" points="812.82,-146.62 650.57,-146.62 650.57,-116.12 812.82,-116.12 812.82,-146.62"/>
<text text-anchor="start" x="658.57" y="-133.12" font-family="Helvetica,sans-Serif" font-size="10.00">typed_linear_algebra</text>
<text text-anchor="middle" x="731.7" y="-121.88" font-family="Helvetica,sans-Serif" font-size="10.00">_internal/algorithm/transposed.tpp</text>
</a>
</g>
</g>
<!-- Node3&#45;&gt;Node18 -->
<g id="edge22_Node000003_Node000018" class="edge">
<title>Node3&#45;&gt;Node18</title>
<g id="a_edge22_Node000003_Node000018"><a xlink:title=" ">
<path fill="none" stroke="#63b8ff" d="M1081.35,-194.79C1018.62,-185.66 912.41,-169.51 821.7,-152.25 816.88,-151.33 811.93,-150.35 806.94,-149.33"/>
<polygon fill="#63b8ff" stroke="#63b8ff" points="807.99,-145.98 797.49,-147.37 806.57,-152.83 807.99,-145.98"/>
</a>
</g>
</g>
<!-- Node19 -->
<g id="Node000019" class="node">
<title>Node19</title>
<g id="a_Node000019"><a xlink:title=" ">
<polygon fill="#e0e0e0" stroke="#999999" points="934.95,-146.62 830.45,-146.62 830.45,-116.12 934.95,-116.12 934.95,-146.62"/>
<text text-anchor="start" x="838.45" y="-133.12" font-family="Helvetica,sans-Serif" font-size="10.00">typed_linear_algebra</text>
<text text-anchor="middle" x="882.7" y="-121.88" font-family="Helvetica,sans-Serif" font-size="10.00">_internal/cast.tpp</text>
</a>
</g>
</g>
<!-- Node3&#45;&gt;Node19 -->
<g id="edge23_Node000003_Node000019" class="edge">
<title>Node3&#45;&gt;Node19</title>
<g id="a_edge23_Node000003_Node000019"><a xlink:title=" ">
<path fill="none" stroke="#63b8ff" d="M1081.26,-189.16C1042.69,-179.49 989.82,-165.79 943.7,-152.25 941.74,-151.68 939.75,-151.08 937.74,-150.47"/>
<polygon fill="#63b8ff" stroke="#63b8ff" points="938.95,-147.18 928.36,-147.57 936.88,-153.87 938.95,-147.18"/>
</a>
</g>
</g>
<!-- Node20 -->
<g id="Node000020" class="node">
<title>Node20</title>
<g id="a_Node000020"><a xlink:title=" ">
<polygon fill="#e0e0e0" stroke="#999999" points="1064.32,-146.62 953.07,-146.62 953.07,-116.12 1064.32,-116.12 1064.32,-146.62"/>
<text text-anchor="start" x="961.07" y="-133.12" font-family="Helvetica,sans-Serif" font-size="10.00">typed_linear_algebra</text>
<text text-anchor="middle" x="1008.7" y="-121.88" font-family="Helvetica,sans-Serif" font-size="10.00">_internal/operation.tpp</text>
</a>
</g>
</g>
<!-- Node3&#45;&gt;Node20 -->
<g id="edge24_Node000003_Node000020" class="edge">
<title>Node3&#45;&gt;Node20</title>
<g id="a_edge24_Node000003_Node000020"><a xlink:title=" ">
<path fill="none" stroke="#63b8ff" d="M1109.08,-187.8C1090.53,-177.56 1065.57,-163.78 1045.18,-152.52"/>
<polygon fill="#63b8ff" stroke="#63b8ff" points="1047.06,-149.56 1036.61,-147.79 1043.67,-155.69 1047.06,-149.56"/>
</a>
</g>
</g>
<!-- Node21 -->
<g id="Node000021" class="node">
<title>Node21</title>
<g id="a_Node000021"><a xlink:title=" ">
<polygon fill="#e0e0e0" stroke="#999999" points="1189.45,-152.25 1081.95,-152.25 1081.95,-110.5 1189.45,-110.5 1189.45,-152.25"/>
<text text-anchor="start" x="1089.95" y="-138.75" font-family="Helvetica,sans-Serif" font-size="10.00">typed_linear_algebra</text>
<text text-anchor="start" x="1089.95" y="-127.5" font-family="Helvetica,sans-Serif" font-size="10.00">_internal/typed_linear</text>
<text text-anchor="middle" x="1135.7" y="-116.25" font-family="Helvetica,sans-Serif" font-size="10.00">_algebra.tpp</text>
</a>
</g>
</g>
<!-- Node3&#45;&gt;Node21 -->
<g id="edge25_Node000003_Node000021" class="edge">
<title>Node3&#45;&gt;Node21</title>
<g id="a_edge25_Node000003_Node000021"><a xlink:title=" ">
<path fill="none" stroke="#63b8ff" d="M1135.7,-187.97C1135.7,-181.04 1135.7,-172.47 1135.7,-164.14"/>
<polygon fill="#63b8ff" stroke="#63b8ff" points="1139.2,-164.25 1135.7,-154.25 1132.2,-164.25 1139.2,-164.25"/>
</a>
</g>
</g>
<!-- Node5&#45;&gt;Node6 -->
<g id="edge5_Node000005_Node000006" class="edge">
<title>Node5&#45;&gt;Node6</title>
<g id="a_edge5_Node000005_Node000006"><a xlink:title=" ">
<path fill="none" stroke="#63b8ff" d="M1306.32,-115.74C1311.79,-106.46 1318.91,-94.37 1324.77,-84.42"/>
<polygon fill="#63b8ff" stroke="#63b8ff" points="1327.67,-86.39 1329.73,-76 1321.64,-82.84 1327.67,-86.39"/>
</a>
</g>
</g>
<!-- Node5&#45;&gt;Node11 -->
<g id="edge10_Node000005_Node000011" class="edge">
<title>Node5&#45;&gt;Node11</title>
<g id="a_edge10_Node000005_Node000011"><a xlink:title=" ">
<path fill="none" stroke="#63b8ff" d="M1279.55,-115.74C1266.93,-105.57 1250.14,-92.03 1237.24,-81.63"/>
<polygon fill="#63b8ff" stroke="#63b8ff" points="1239.8,-79.2 1229.82,-75.65 1235.41,-84.65 1239.8,-79.2"/>
</a>
</g>
</g>
<!-- Node5&#45;&gt;Node12 -->
<g id="edge11_Node000005_Node000012" class="edge">
<title>Node5&#45;&gt;Node12</title>
<g id="a_edge11_Node000005_Node000012"><a xlink:title=" ">
<path fill="none" stroke="#63b8ff" d="M1321.75,-115.74C1339.01,-105.24 1362.18,-91.14 1379.47,-80.62"/>
<polygon fill="#63b8ff" stroke="#63b8ff" points="1380.88,-83.86 1387.6,-75.67 1377.24,-77.88 1380.88,-83.86"/>
</a>
</g>
</g>
<!-- Node6&#45;&gt;Node7 -->
<g id="edge6_Node000006_Node000007" class="edge">
<title>Node6&#45;&gt;Node7</title>
<g id="a_edge6_Node000006_Node000007"><a xlink:title=" ">
<path fill="none" stroke="#63b8ff" d="M1350.12,-54.84C1362.82,-46.89 1381.57,-35.14 1396.56,-25.75"/>
<polygon fill="#63b8ff" stroke="#63b8ff" points="1398.31,-28.78 1404.93,-20.51 1394.59,-22.85 1398.31,-28.78"/>
</a>
</g>
</g>
<!-- Node8 -->
<g id="Node000008" class="node">
<title>Node8</title>
<g id="a_Node000008"><a xlink:title=" ">
<polygon fill="#e0e0e0" stroke="#999999" points="1366.7,-19.25 1308.7,-19.25 1308.7,0 1366.7,0 1366.7,-19.25"/>
<text text-anchor="middle" x="1337.7" y="-5.75" font-family="Helvetica,sans-Serif" font-size="10.00">functional</text>
</a>
</g>
</g>
<!-- Node6&#45;&gt;Node8 -->
<g id="edge7_Node000006_Node000008" class="edge">
<title>Node6&#45;&gt;Node8</title>
<g id="a_edge7_Node000006_Node000008"><a xlink:title=" ">
<path fill="none" stroke="#63b8ff" d="M1336.03,-55.08C1336.28,-48.49 1336.63,-39.21 1336.94,-30.82"/>
<polygon fill="#63b8ff" stroke="#63b8ff" points="1340.43,-31.25 1337.3,-21.12 1333.43,-30.98 1340.43,-31.25"/>
</a>
</g>
</g>
<!-- Node6&#45;&gt;Node9 -->
<g id="edge8_Node000006_Node000009" class="edge">
<title>Node6&#45;&gt;Node9</title>
<g id="a_edge8_Node000006_Node000009"><a xlink:title=" ">
<path fill="none" stroke="#63b8ff" d="M1361.65,-54.84C1388.63,-45.45 1430.78,-30.78 1459.05,-20.94"/>
<polygon fill="#63b8ff" stroke="#63b8ff" points="1460.15,-24.27 1468.44,-17.68 1457.85,-17.66 1460.15,-24.27"/>
</a>
</g>
</g>
<!-- Node10 -->
<g id="Node000010" class="node">
<title>Node10</title>
<g id="a_Node000010"><a xlink:title=" ">
<polygon fill="#e0e0e0" stroke="#999999" points="1290.2,-19.25 1229.2,-19.25 1229.2,0 1290.2,0 1290.2,-19.25"/>
<text text-anchor="middle" x="1259.7" y="-5.75" font-family="Helvetica,sans-Serif" font-size="10.00">type_traits</text>
</a>
</g>
</g>
<!-- Node6&#45;&gt;Node10 -->
<g id="edge9_Node000006_Node000010" class="edge">
<title>Node6&#45;&gt;Node10</title>
<g id="a_edge9_Node000006_Node000010"><a xlink:title=" ">
<path fill="none" stroke="#63b8ff" d="M1322.81,-54.84C1311.67,-47.04 1295.33,-35.59 1282.06,-26.29"/>
<polygon fill="#63b8ff" stroke="#63b8ff" points="1284.09,-23.44 1273.89,-20.57 1280.08,-29.18 1284.09,-23.44"/>
</a>
</g>
</g>
</g>
</svg>
