<?xml version="1.0" encoding="UTF-8" standalone="no"?>
<!DOCTYPE svg PUBLIC "-//W3C//DTD SVG 1.1//EN"
 "http://www.w3.org/Graphics/SVG/1.1/DTD/svg11.dtd">
<!-- Generated by graphviz version 12.2.0 (20241103.1931)
 -->
<!-- Title: /github/workspace/support/eigexed/fcarouge/linalg.hpp Pages: 1 -->
<svg width="1009pt" height="349pt"
 viewBox="0.00 0.00 1008.89 348.50" xmlns="http://www.w3.org/2000/svg" xmlns:xlink="http://www.w3.org/1999/xlink">
<g id="graph0" class="graph" transform="scale(1 1) rotate(0) translate(4 344.5)">
<title>/github/workspace/support/eigexed/fcarouge/linalg.hpp</title>
<!-- Node1 -->
<g id="Node000001" class="node">
<title>Node1</title>
<g id="a_Node000001"><a xlink:title="Scalar type linear algebra with Eigen implementation.">
<polygon fill="#999999" stroke="#666666" points="715.01,-340.5 579.01,-340.5 579.01,-310 715.01,-310 715.01,-340.5"/>
<text text-anchor="start" x="587.01" y="-327" font-family="Helvetica,sans-Serif" font-size="10.00">/github/workspace/support</text>
<text text-anchor="middle" x="647.01" y="-315.75" font-family="Helvetica,sans-Serif" font-size="10.00">/eigexed/fcarouge/linalg.hpp</text>
</a>
</g>
</g>
<!-- Node2 -->
<g id="Node000002" class="node">
<title>Node2</title>
<g id="a_Node000002"><a xlink:href="eigen_8hpp.xhtml" target="_top" xlink:title="Linear algebra facade for Eigen3 third party implementation.">
<polygon fill="white" stroke="#666666" points="801.89,-274 704.14,-274 704.14,-254.75 801.89,-254.75 801.89,-274"/>
<text text-anchor="middle" x="753.01" y="-260.5" font-family="Helvetica,sans-Serif" font-size="10.00">fcarouge/eigen.hpp</text>
</a>
</g>
</g>
<!-- Node1&#45;&gt;Node2 -->
<g id="edge1_Node000001_Node000002" class="edge">
<title>Node1&#45;&gt;Node2</title>
<g id="a_edge1_Node000001_Node000002"><a xlink:title=" ">
<path fill="none" stroke="#63b8ff" d="M673.49,-309.55C689.79,-300.49 710.59,-288.94 726.84,-279.91"/>
<polygon fill="#63b8ff" stroke="#63b8ff" points="728.39,-283.05 735.44,-275.14 724.99,-276.93 728.39,-283.05"/>
</a>
</g>
</g>
<!-- Node3 -->
<g id="Node000003" class="node">
<title>Node3</title>
<g id="a_Node000003"><a xlink:href="typed__linear__algebra_8hpp.xhtml" target="_top" xlink:title="Typed linear algebra implementation.">
<polygon fill="white" stroke="#666666" points="701.14,-218.75 592.89,-218.75 592.89,-188.25 701.14,-188.25 701.14,-218.75"/>
<text text-anchor="start" x="600.89" y="-205.25" font-family="Helvetica,sans-Serif" font-size="10.00">fcarouge/typed_linear</text>
<text text-anchor="middle" x="647.01" y="-194" font-family="Helvetica,sans-Serif" font-size="10.00">_algebra.hpp</text>
</a>
</g>
</g>
<!-- Node1&#45;&gt;Node3 -->
<g id="edge25_Node000001_Node000003" class="edge">
<title>Node1&#45;&gt;Node3</title>
<g id="a_edge25_Node000001_Node000003"><a xlink:title=" ">
<path fill="none" stroke="#63b8ff" d="M647.01,-309.57C647.01,-289.89 647.01,-254.64 647.01,-230.44"/>
<polygon fill="#63b8ff" stroke="#63b8ff" points="650.52,-230.44 647.01,-220.44 643.52,-230.44 650.52,-230.44"/>
</a>
</g>
</g>
<!-- Node11 -->
<g id="Node000011" class="node">
<title>Node11</title>
<g id="a_Node000011"><a xlink:title=" ">
<polygon fill="#e0e0e0" stroke="#999999" points="551.14,-74.5 502.89,-74.5 502.89,-55.25 551.14,-55.25 551.14,-74.5"/>
<text text-anchor="middle" x="527.01" y="-61" font-family="Helvetica,sans-Serif" font-size="10.00">cstddef</text>
</a>
</g>
</g>
<!-- Node1&#45;&gt;Node11 -->
<g id="edge26_Node000001_Node000011" class="edge">
<title>Node1&#45;&gt;Node11</title>
<g id="a_edge26_Node000001_Node000011"><a xlink:title=" ">
<path fill="none" stroke="#63b8ff" d="M578.52,-316.2C428.5,-297 78.74,-243.26 9.01,-152.25 -2.27,-137.52 -3.53,-124.17 9.01,-110.5 41.55,-75.05 379.26,-67.69 491.19,-66.23"/>
<polygon fill="#63b8ff" stroke="#63b8ff" points="491.04,-69.73 500.99,-66.11 490.95,-62.73 491.04,-69.73"/>
</a>
</g>
</g>
<!-- Node2&#45;&gt;Node3 -->
<g id="edge2_Node000002_Node000003" class="edge">
<title>Node2&#45;&gt;Node3</title>
<g id="a_edge2_Node000002_Node000003"><a xlink:title=" ">
<path fill="none" stroke="#63b8ff" d="M736.92,-254.43C722.71,-246.54 701.49,-234.76 683.23,-224.62"/>
<polygon fill="#63b8ff" stroke="#63b8ff" points="684.94,-221.56 674.5,-219.77 681.54,-227.68 684.94,-221.56"/>
</a>
</g>
</g>
<!-- Node12 -->
<g id="Node000012" class="node">
<title>Node12</title>
<g id="a_Node000012"><a xlink:title=" ">
<polygon fill="#e0e0e0" stroke="#999999" points="836.89,-74.5 793.14,-74.5 793.14,-55.25 836.89,-55.25 836.89,-74.5"/>
<text text-anchor="middle" x="815.01" y="-61" font-family="Helvetica,sans-Serif" font-size="10.00">format</text>
</a>
</g>
</g>
<!-- Node2&#45;&gt;Node12 -->
<g id="edge22_Node000002_Node000012" class="edge">
<title>Node2&#45;&gt;Node12</title>
<g id="a_edge22_Node000002_Node000012"><a xlink:title=" ">
<path fill="none" stroke="#63b8ff" d="M798.81,-254.32C821.29,-247.79 847.28,-236.83 865.01,-218.75 887.12,-196.21 884.37,-183.32 890.01,-152.25 893.33,-133.99 899.19,-126.63 890.01,-110.5 880.89,-94.45 863.45,-83.57 847.69,-76.57"/>
<polygon fill="#63b8ff" stroke="#63b8ff" points="849.15,-73.39 838.57,-72.9 846.54,-79.88 849.15,-73.39"/>
</a>
</g>
</g>
<!-- Node18 -->
<g id="Node000018" class="node">
<title>Node18</title>
<g id="a_Node000018"><a xlink:title=" ">
<polygon fill="#e0e0e0" stroke="#999999" points="855.64,-213.12 804.39,-213.12 804.39,-193.88 855.64,-193.88 855.64,-213.12"/>
<text text-anchor="middle" x="830.01" y="-199.62" font-family="Helvetica,sans-Serif" font-size="10.00">sstream</text>
</a>
</g>
</g>
<!-- Node2&#45;&gt;Node18 -->
<g id="edge23_Node000002_Node000018" class="edge">
<title>Node2&#45;&gt;Node18</title>
<g id="a_edge23_Node000002_Node000018"><a xlink:title=" ">
<path fill="none" stroke="#63b8ff" d="M764.71,-254.43C776.47,-245.44 794.85,-231.39 809.12,-220.48"/>
<polygon fill="#63b8ff" stroke="#63b8ff" points="811.19,-223.3 817.01,-214.45 806.94,-217.74 811.19,-223.3"/>
</a>
</g>
</g>
<!-- Node19 -->
<g id="Node000019" class="node">
<title>Node19</title>
<g id="a_Node000019"><a xlink:title=" ">
<polygon fill="#e0e0e0" stroke="#999999" points="786.51,-213.12 719.51,-213.12 719.51,-193.88 786.51,-193.88 786.51,-213.12"/>
<text text-anchor="middle" x="753.01" y="-199.62" font-family="Helvetica,sans-Serif" font-size="10.00">Eigen/Eigen</text>
</a>
</g>
</g>
<!-- Node2&#45;&gt;Node19 -->
<g id="edge24_Node000002_Node000019" class="edge">
<title>Node2&#45;&gt;Node19</title>
<g id="a_edge24_Node000002_Node000019"><a xlink:title=" ">
<path fill="none" stroke="#63b8ff" d="M753.01,-254.43C753.01,-246.65 753.01,-235.08 753.01,-225.03"/>
<polygon fill="#63b8ff" stroke="#63b8ff" points="756.52,-225.04 753.01,-215.04 749.52,-225.04 756.52,-225.04"/>
</a>
</g>
</g>
<!-- Node4 -->
<g id="Node000004" class="node">
<title>Node4</title>
<g id="a_Node000004"><a xlink:href="typed__linear__algebra__forward_8hpp.xhtml" target="_top" xlink:title="Authoritative forward declaration header.">
<polygon fill="white" stroke="#666666" points="499.26,-146.62 394.76,-146.62 394.76,-116.12 499.26,-116.12 499.26,-146.62"/>
<text text-anchor="start" x="402.76" y="-133.12" font-family="Helvetica,sans-Serif" font-size="10.00">typed_linear_algebra</text>
<text text-anchor="middle" x="447.01" y="-121.88" font-family="Helvetica,sans-Serif" font-size="10.00">_forward.hpp</text>
</a>
</g>
</g>
<!-- Node3&#45;&gt;Node4 -->
<g id="edge3_Node000003_Node000004" class="edge">
<title>Node3&#45;&gt;Node4</title>
<g id="a_edge3_Node000003_Node000004"><a xlink:title=" ">
<path fill="none" stroke="#63b8ff" d="M605.09,-187.8C574.42,-177.05 532.6,-162.38 499.68,-150.84"/>
<polygon fill="#63b8ff" stroke="#63b8ff" points="500.91,-147.56 490.31,-147.56 498.59,-154.17 500.91,-147.56"/>
</a>
</g>
</g>
<!-- Node5 -->
<g id="Node000005" class="node">
<title>Node5</title>
<g id="a_Node000005"><a xlink:href="format_8hpp.xhtml" target="_top" xlink:title="Formatting support for the typed matrix.">
<polygon fill="white" stroke="#666666" points="659.26,-146.62 554.76,-146.62 554.76,-116.12 659.26,-116.12 659.26,-146.62"/>
<text text-anchor="start" x="562.76" y="-133.12" font-family="Helvetica,sans-Serif" font-size="10.00">typed_linear_algebra</text>
<text text-anchor="middle" x="607.01" y="-121.88" font-family="Helvetica,sans-Serif" font-size="10.00">_internal/format.hpp</text>
</a>
</g>
</g>
<!-- Node3&#45;&gt;Node5 -->
<g id="edge4_Node000003_Node000005" class="edge">
<title>Node3&#45;&gt;Node5</title>
<g id="a_edge4_Node000003_Node000005"><a xlink:title=" ">
<path fill="none" stroke="#63b8ff" d="M638.73,-187.97C633.58,-178.94 626.83,-167.11 620.88,-156.69"/>
<polygon fill="#63b8ff" stroke="#63b8ff" points="624.04,-155.15 616.04,-148.2 617.96,-158.62 624.04,-155.15"/>
</a>
</g>
</g>
<!-- Node6 -->
<g id="Node000006" class="node">
<title>Node6</title>
<g id="a_Node000006"><a xlink:href="utility_8hpp.xhtml" target="_top" xlink:title=" ">
<polygon fill="white" stroke="#666666" points="737.26,-74.5 680.76,-74.5 680.76,-55.25 737.26,-55.25 737.26,-74.5"/>
<text text-anchor="middle" x="709.01" y="-61" font-family="Helvetica,sans-Serif" font-size="10.00">utility.hpp</text>
</a>
</g>
</g>
<!-- Node3&#45;&gt;Node6 -->
<g id="edge12_Node000003_Node000006" class="edge">
<title>Node3&#45;&gt;Node6</title>
<g id="a_edge12_Node000003_Node000006"><a xlink:title=" ">
<path fill="none" stroke="#63b8ff" d="M653.65,-187.88C664.91,-163.06 687.76,-112.71 700.3,-85.08"/>
<polygon fill="#63b8ff" stroke="#63b8ff" points="703.41,-86.7 704.35,-76.15 697.03,-83.81 703.41,-86.7"/>
</a>
</g>
</g>
<!-- Node7 -->
<g id="Node000007" class="node">
<title>Node7</title>
<g id="a_Node000007"><a xlink:title=" ">
<polygon fill="#e0e0e0" stroke="#999999" points="1000.89,-19.25 945.14,-19.25 945.14,0 1000.89,0 1000.89,-19.25"/>
<text text-anchor="middle" x="973.01" y="-5.75" font-family="Helvetica,sans-Serif" font-size="10.00">concepts</text>
</a>
</g>
</g>
<!-- Node3&#45;&gt;Node7 -->
<g id="edge13_Node000003_Node000007" class="edge">
<title>Node3&#45;&gt;Node7</title>
<g id="a_edge13_Node000003_Node000007"><a xlink:title=" ">
<path fill="none" stroke="#63b8ff" d="M701.45,-190.22C704.68,-189.54 707.89,-188.88 711.01,-188.25 799.56,-170.43 840.12,-208.2 911.01,-152.25 949.72,-121.71 964.8,-62.08 970.23,-30.83"/>
<polygon fill="#63b8ff" stroke="#63b8ff" points="973.66,-31.59 971.73,-21.17 966.74,-30.52 973.66,-31.59"/>
</a>
</g>
</g>
<!-- Node9 -->
<g id="Node000009" class="node">
<title>Node9</title>
<g id="a_Node000009"><a xlink:title=" ">
<polygon fill="#e0e0e0" stroke="#999999" points="882.51,-19.25 845.51,-19.25 845.51,0 882.51,0 882.51,-19.25"/>
<text text-anchor="middle" x="864.01" y="-5.75" font-family="Helvetica,sans-Serif" font-size="10.00">tuple</text>
</a>
</g>
</g>
<!-- Node3&#45;&gt;Node9 -->
<g id="edge17_Node000003_Node000009" class="edge">
<title>Node3&#45;&gt;Node9</title>
<g id="a_edge17_Node000003_Node000009"><a xlink:title=" ">
<path fill="none" stroke="#63b8ff" d="M701.47,-190.3C704.7,-189.6 707.9,-188.91 711.01,-188.25 790.4,-171.43 838.6,-215.03 890.01,-152.25 919.23,-116.58 892.85,-58.79 875.82,-29.28"/>
<polygon fill="#63b8ff" stroke="#63b8ff" points="878.84,-27.5 870.67,-20.75 872.85,-31.12 878.84,-27.5"/>
</a>
</g>
</g>
<!-- Node3&#45;&gt;Node11 -->
<g id="edge14_Node000003_Node000011" class="edge">
<title>Node3&#45;&gt;Node11</title>
<g id="a_edge14_Node000003_Node000011"><a xlink:title=" ">
<path fill="none" stroke="#63b8ff" d="M596.78,-187.82C578.3,-180.04 558.79,-168.61 546.01,-152.25 531.2,-133.27 527.4,-105.13 526.69,-86.18"/>
<polygon fill="#63b8ff" stroke="#63b8ff" points="530.19,-86.23 526.6,-76.26 523.19,-86.29 530.19,-86.23"/>
</a>
</g>
</g>
<!-- Node3&#45;&gt;Node12 -->
<g id="edge15_Node000003_Node000012" class="edge">
<title>Node3&#45;&gt;Node12</title>
<g id="a_edge15_Node000003_Node000012"><a xlink:title=" ">
<path fill="none" stroke="#63b8ff" d="M701.25,-190.17C738.33,-180.66 783.03,-166.73 796.01,-152.25 812.17,-134.24 815.63,-105.68 815.91,-86.38"/>
<polygon fill="#63b8ff" stroke="#63b8ff" points="819.41,-86.44 815.75,-76.5 812.41,-86.55 819.41,-86.44"/>
</a>
</g>
</g>
<!-- Node13 -->
<g id="Node000013" class="node">
<title>Node13</title>
<g id="a_Node000013"><a xlink:title=" ">
<polygon fill="#e0e0e0" stroke="#999999" points="786.76,-141 715.26,-141 715.26,-121.75 786.76,-121.75 786.76,-141"/>
<text text-anchor="middle" x="751.01" y="-127.5" font-family="Helvetica,sans-Serif" font-size="10.00">initializer_list</text>
</a>
</g>
</g>
<!-- Node3&#45;&gt;Node13 -->
<g id="edge16_Node000003_Node000013" class="edge">
<title>Node3&#45;&gt;Node13</title>
<g id="a_edge16_Node000003_Node000013"><a xlink:title=" ">
<path fill="none" stroke="#63b8ff" d="M668.82,-187.8C686.14,-176.12 710.32,-159.82 727.96,-147.92"/>
<polygon fill="#63b8ff" stroke="#63b8ff" points="729.91,-150.83 736.24,-142.34 725.99,-145.02 729.91,-150.83"/>
</a>
</g>
</g>
<!-- Node14 -->
<g id="Node000014" class="node">
<title>Node14</title>
<g id="a_Node000014"><a xlink:title=" ">
<polygon fill="#e0e0e0" stroke="#999999" points="881.26,-141 842.76,-141 842.76,-121.75 881.26,-121.75 881.26,-141"/>
<text text-anchor="middle" x="862.01" y="-127.5" font-family="Helvetica,sans-Serif" font-size="10.00">utility</text>
</a>
</g>
</g>
<!-- Node3&#45;&gt;Node14 -->
<g id="edge18_Node000003_Node000014" class="edge">
<title>Node3&#45;&gt;Node14</title>
<g id="a_edge18_Node000003_Node000014"><a xlink:title=" ">
<path fill="none" stroke="#63b8ff" d="M701.39,-189.23C746.25,-177.95 806.13,-162.08 829.01,-152.25 832.46,-150.77 835.97,-148.99 839.36,-147.11"/>
<polygon fill="#63b8ff" stroke="#63b8ff" points="840.89,-150.27 847.67,-142.14 837.29,-144.27 840.89,-150.27"/>
</a>
</g>
</g>
<!-- Node15 -->
<g id="Node000015" class="node">
<title>Node15</title>
<g id="a_Node000015"><a xlink:title=" ">
<polygon fill="#e0e0e0" stroke="#999999" points="122.26,-146.62 17.76,-146.62 17.76,-116.12 122.26,-116.12 122.26,-146.62"/>
<text text-anchor="start" x="25.76" y="-133.12" font-family="Helvetica,sans-Serif" font-size="10.00">typed_linear_algebra</text>
<text text-anchor="middle" x="70.01" y="-121.88" font-family="Helvetica,sans-Serif" font-size="10.00">_internal/cast.tpp</text>
</a>
</g>
</g>
<!-- Node3&#45;&gt;Node15 -->
<g id="edge19_Node000003_Node000015" class="edge">
<title>Node3&#45;&gt;Node15</title>
<g id="a_edge19_Node000003_Node000015"><a xlink:title=" ">
<path fill="none" stroke="#63b8ff" d="M592.57,-201.09C497.82,-197.77 296.87,-186.91 131.01,-152.25 128.05,-151.63 125.03,-150.92 121.99,-150.14"/>
<polygon fill="#63b8ff" stroke="#63b8ff" points="123.06,-146.8 112.49,-147.49 121.18,-153.55 123.06,-146.8"/>
</a>
</g>
</g>
<!-- Node16 -->
<g id="Node000016" class="node">
<title>Node16</title>
<g id="a_Node000016"><a xlink:title=" ">
<polygon fill="#e0e0e0" stroke="#999999" points="251.64,-146.62 140.39,-146.62 140.39,-116.12 251.64,-116.12 251.64,-146.62"/>
<text text-anchor="start" x="148.39" y="-133.12" font-family="Helvetica,sans-Serif" font-size="10.00">typed_linear_algebra</text>
<text text-anchor="middle" x="196.01" y="-121.88" font-family="Helvetica,sans-Serif" font-size="10.00">_internal/operation.tpp</text>
</a>
</g>
</g>
<!-- Node3&#45;&gt;Node16 -->
<g id="edge20_Node000003_Node000016" class="edge">
<title>Node3&#45;&gt;Node16</title>
<g id="a_edge20_Node000003_Node000016"><a xlink:title=" ">
<path fill="none" stroke="#63b8ff" d="M592.67,-198.41C517.32,-192.07 377.17,-177.85 260.01,-152.25 257.03,-151.6 253.98,-150.87 250.91,-150.09"/>
<polygon fill="#63b8ff" stroke="#63b8ff" points="251.85,-146.71 241.28,-147.46 250.01,-153.47 251.85,-146.71"/>
</a>
</g>
</g>
<!-- Node17 -->
<g id="Node000017" class="node">
<title>Node17</title>
<g id="a_Node000017"><a xlink:title=" ">
<polygon fill="#e0e0e0" stroke="#999999" points="376.76,-152.25 269.26,-152.25 269.26,-110.5 376.76,-110.5 376.76,-152.25"/>
<text text-anchor="start" x="277.26" y="-138.75" font-family="Helvetica,sans-Serif" font-size="10.00">typed_linear_algebra</text>
<text text-anchor="start" x="277.26" y="-127.5" font-family="Helvetica,sans-Serif" font-size="10.00">_internal/typed_linear</text>
<text text-anchor="middle" x="323.01" y="-116.25" font-family="Helvetica,sans-Serif" font-size="10.00">_algebra.tpp</text>
</a>
</g>
</g>
<!-- Node3&#45;&gt;Node17 -->
<g id="edge21_Node000003_Node000017" class="edge">
<title>Node3&#45;&gt;Node17</title>
<g id="a_edge21_Node000003_Node000017"><a xlink:title=" ">
<path fill="none" stroke="#63b8ff" d="M592.63,-193.91C541.93,-185.48 464.08,-171.47 387.93,-152.6"/>
<polygon fill="#63b8ff" stroke="#63b8ff" points="389.22,-149.31 378.67,-150.27 387.51,-156.1 389.22,-149.31"/>
</a>
</g>
</g>
<!-- Node5&#45;&gt;Node6 -->
<g id="edge5_Node000005_Node000006" class="edge">
<title>Node5&#45;&gt;Node6</title>
<g id="a_edge5_Node000005_Node000006"><a xlink:title=" ">
<path fill="none" stroke="#63b8ff" d="M630.16,-115.74C646.61,-105.34 668.64,-91.4 685.24,-80.91"/>
<polygon fill="#63b8ff" stroke="#63b8ff" points="686.91,-84 693.49,-75.69 683.17,-78.08 686.91,-84"/>
</a>
</g>
</g>
<!-- Node5&#45;&gt;Node11 -->
<g id="edge10_Node000005_Node000011" class="edge">
<title>Node5&#45;&gt;Node11</title>
<g id="a_edge10_Node000005_Node000011"><a xlink:title=" ">
<path fill="none" stroke="#63b8ff" d="M588.86,-115.74C576.25,-105.57 559.46,-92.03 546.55,-81.63"/>
<polygon fill="#63b8ff" stroke="#63b8ff" points="549.12,-79.2 539.14,-75.65 544.72,-84.65 549.12,-79.2"/>
</a>
</g>
</g>
<!-- Node5&#45;&gt;Node12 -->
<g id="edge11_Node000005_Node000012" class="edge">
<title>Node5&#45;&gt;Node12</title>
<g id="a_edge11_Node000005_Node000012"><a xlink:title=" ">
<path fill="none" stroke="#63b8ff" d="M654.47,-115.66C693.36,-103.6 747.4,-86.84 781.79,-76.18"/>
<polygon fill="#63b8ff" stroke="#63b8ff" points="782.69,-79.56 791.21,-73.26 780.62,-72.88 782.69,-79.56"/>
</a>
</g>
</g>
<!-- Node6&#45;&gt;Node7 -->
<g id="edge6_Node000006_Node000007" class="edge">
<title>Node6&#45;&gt;Node7</title>
<g id="a_edge6_Node000006_Node000007"><a xlink:title=" ">
<path fill="none" stroke="#63b8ff" d="M737.52,-58.13C784.97,-48.55 880.23,-29.34 933.92,-18.51"/>
<polygon fill="#63b8ff" stroke="#63b8ff" points="934.43,-21.98 943.55,-16.57 933.05,-15.12 934.43,-21.98"/>
</a>
</g>
</g>
<!-- Node8 -->
<g id="Node000008" class="node">
<title>Node8</title>
<g id="a_Node000008"><a xlink:title=" ">
<polygon fill="#e0e0e0" stroke="#999999" points="749.01,-19.25 691.01,-19.25 691.01,0 749.01,0 749.01,-19.25"/>
<text text-anchor="middle" x="720.01" y="-5.75" font-family="Helvetica,sans-Serif" font-size="10.00">functional</text>
</a>
</g>
</g>
<!-- Node6&#45;&gt;Node8 -->
<g id="edge7_Node000006_Node000008" class="edge">
<title>Node6&#45;&gt;Node8</title>
<g id="a_edge7_Node000006_Node000008"><a xlink:title=" ">
<path fill="none" stroke="#63b8ff" d="M710.83,-55.08C712.19,-48.49 714.11,-39.21 715.84,-30.82"/>
<polygon fill="#63b8ff" stroke="#63b8ff" points="719.26,-31.59 717.85,-21.09 712.4,-30.18 719.26,-31.59"/>
</a>
</g>
</g>
<!-- Node6&#45;&gt;Node9 -->
<g id="edge8_Node000006_Node000009" class="edge">
<title>Node6&#45;&gt;Node9</title>
<g id="a_edge8_Node000006_Node000009"><a xlink:title=" ">
<path fill="none" stroke="#63b8ff" d="M735.31,-54.84C762.91,-45.36 806.2,-30.49 834.84,-20.65"/>
<polygon fill="#63b8ff" stroke="#63b8ff" points="835.65,-24.07 843.97,-17.51 833.37,-17.45 835.65,-24.07"/>
</a>
</g>
</g>
<!-- Node10 -->
<g id="Node000010" class="node">
<title>Node10</title>
<g id="a_Node000010"><a xlink:title=" ">
<polygon fill="#e0e0e0" stroke="#999999" points="672.51,-19.25 611.51,-19.25 611.51,0 672.51,0 672.51,-19.25"/>
<text text-anchor="middle" x="642.01" y="-5.75" font-family="Helvetica,sans-Serif" font-size="10.00">type_traits</text>
</a>
</g>
</g>
<!-- Node6&#45;&gt;Node10 -->
<g id="edge9_Node000006_Node000010" class="edge">
<title>Node6&#45;&gt;Node10</title>
<g id="a_edge9_Node000006_Node000010"><a xlink:title=" ">
<path fill="none" stroke="#63b8ff" d="M697.65,-54.84C687.97,-47.15 673.82,-35.9 662.21,-26.68"/>
<polygon fill="#63b8ff" stroke="#63b8ff" points="664.4,-23.95 654.4,-20.47 660.05,-29.43 664.4,-23.95"/>
</a>
</g>
</g>
</g>
</svg>
