<?xml version="1.0" encoding="UTF-8" standalone="no"?>
<!DOCTYPE svg PUBLIC "-//W3C//DTD SVG 1.1//EN"
 "http://www.w3.org/Graphics/SVG/1.1/DTD/svg11.dtd">
<!-- Generated by graphviz version 12.2.0 (20241103.1931)
 -->
<!-- Title: /github/workspace/support/eigexed/fcarouge/linalg.hpp Pages: 1 -->
<svg width="1357pt" height="349pt"
 viewBox="0.00 0.00 1356.75 348.50" xmlns="http://www.w3.org/2000/svg" xmlns:xlink="http://www.w3.org/1999/xlink">
<g id="graph0" class="graph" transform="scale(1 1) rotate(0) translate(4 344.5)">
<title>/github/workspace/support/eigexed/fcarouge/linalg.hpp</title>
<!-- Node1 -->
<g id="Node000001" class="node">
<title>Node1</title>
<g id="a_Node000001"><a xlink:title="Scalar type linear algebra with Eigen implementation.">
<polygon fill="#999999" stroke="#666666" points="946.88,-340.5 810.88,-340.5 810.88,-310 946.88,-310 946.88,-340.5"/>
<text text-anchor="start" x="818.88" y="-327" font-family="Helvetica,sans-Serif" font-size="10.00">/github/workspace/support</text>
<text text-anchor="middle" x="878.88" y="-315.75" font-family="Helvetica,sans-Serif" font-size="10.00">/eigexed/fcarouge/linalg.hpp</text>
</a>
</g>
</g>
<!-- Node2 -->
<g id="Node000002" class="node">
<title>Node2</title>
<g id="a_Node000002"><a xlink:href="eigen_8hpp.xhtml" target="_top" xlink:title="Linear algebra facade for Eigen3 third party implementation.">
<polygon fill="white" stroke="#666666" points="927.75,-274 830,-274 830,-254.75 927.75,-254.75 927.75,-274"/>
<text text-anchor="middle" x="878.88" y="-260.5" font-family="Helvetica,sans-Serif" font-size="10.00">fcarouge/eigen.hpp</text>
</a>
</g>
</g>
<!-- Node1&#45;&gt;Node2 -->
<g id="edge1_Node000001_Node000002" class="edge">
<title>Node1&#45;&gt;Node2</title>
<g id="a_edge1_Node000001_Node000002"><a xlink:title=" ">
<path fill="none" stroke="#63b8ff" d="M878.88,-309.7C878.88,-302.46 878.88,-293.59 878.88,-285.69"/>
<polygon fill="#63b8ff" stroke="#63b8ff" points="882.38,-285.96 878.88,-275.96 875.38,-285.96 882.38,-285.96"/>
</a>
</g>
</g>
<!-- Node3 -->
<g id="Node000003" class="node">
<title>Node3</title>
<g id="a_Node000003"><a xlink:href="typed__linear__algebra_8hpp.xhtml" target="_top" xlink:title="Typed linear algebra implementation.">
<polygon fill="white" stroke="#666666" points="845,-218.75 736.75,-218.75 736.75,-188.25 845,-188.25 845,-218.75"/>
<text text-anchor="start" x="744.75" y="-205.25" font-family="Helvetica,sans-Serif" font-size="10.00">fcarouge/typed_linear</text>
<text text-anchor="middle" x="790.88" y="-194" font-family="Helvetica,sans-Serif" font-size="10.00">_algebra.hpp</text>
</a>
</g>
</g>
<!-- Node1&#45;&gt;Node3 -->
<g id="edge27_Node000001_Node000003" class="edge">
<title>Node1&#45;&gt;Node3</title>
<g id="a_edge27_Node000001_Node000003"><a xlink:title=" ">
<path fill="none" stroke="#63b8ff" d="M857.71,-309.66C845.68,-300.52 831.03,-287.87 820.88,-274 811.11,-260.66 803.7,-243.66 798.68,-229.8"/>
<polygon fill="#63b8ff" stroke="#63b8ff" points="802.05,-228.84 795.52,-220.49 795.42,-231.08 802.05,-228.84"/>
</a>
</g>
</g>
<!-- Node11 -->
<g id="Node000011" class="node">
<title>Node11</title>
<g id="a_Node000011"><a xlink:title=" ">
<polygon fill="#e0e0e0" stroke="#999999" points="1281,-74.5 1232.75,-74.5 1232.75,-55.25 1281,-55.25 1281,-74.5"/>
<text text-anchor="middle" x="1256.88" y="-61" font-family="Helvetica,sans-Serif" font-size="10.00">cstddef</text>
</a>
</g>
</g>
<!-- Node1&#45;&gt;Node11 -->
<g id="edge28_Node000001_Node000011" class="edge">
<title>Node1&#45;&gt;Node11</title>
<g id="a_edge28_Node000001_Node000011"><a xlink:title=" ">
<path fill="none" stroke="#63b8ff" d="M947.36,-312.68C1032.21,-294.47 1174.3,-250.5 1245.88,-152.25 1259.76,-133.19 1260.81,-105.28 1259.51,-86.39"/>
<polygon fill="#63b8ff" stroke="#63b8ff" points="1262.99,-86.08 1258.51,-76.48 1256.03,-86.78 1262.99,-86.08"/>
</a>
</g>
</g>
<!-- Node2&#45;&gt;Node3 -->
<g id="edge2_Node000002_Node000003" class="edge">
<title>Node2&#45;&gt;Node3</title>
<g id="a_edge2_Node000002_Node000003"><a xlink:title=" ">
<path fill="none" stroke="#63b8ff" d="M865.51,-254.43C853.99,-246.73 836.92,-235.3 822,-225.33"/>
<polygon fill="#63b8ff" stroke="#63b8ff" points="824.11,-222.53 813.85,-219.87 820.22,-228.34 824.11,-222.53"/>
</a>
</g>
</g>
<!-- Node12 -->
<g id="Node000012" class="node">
<title>Node12</title>
<g id="a_Node000012"><a xlink:title=" ">
<polygon fill="#e0e0e0" stroke="#999999" points="43.75,-74.5 0,-74.5 0,-55.25 43.75,-55.25 43.75,-74.5"/>
<text text-anchor="middle" x="21.88" y="-61" font-family="Helvetica,sans-Serif" font-size="10.00">format</text>
</a>
</g>
</g>
<!-- Node2&#45;&gt;Node12 -->
<g id="edge24_Node000002_Node000012" class="edge">
<title>Node2&#45;&gt;Node12</title>
<g id="a_edge24_Node000002_Node000012"><a xlink:title=" ">
<path fill="none" stroke="#63b8ff" d="M829.63,-260.75C654.72,-250.95 71.02,-213.83 16.88,-152.25 0.94,-134.13 6.97,-104.73 13.68,-85.35"/>
<polygon fill="#63b8ff" stroke="#63b8ff" points="16.88,-86.77 17.21,-76.18 10.35,-84.26 16.88,-86.77"/>
</a>
</g>
</g>
<!-- Node20 -->
<g id="Node000020" class="node">
<title>Node20</title>
<g id="a_Node000020"><a xlink:title=" ">
<polygon fill="#e0e0e0" stroke="#999999" points="914.5,-213.12 863.25,-213.12 863.25,-193.88 914.5,-193.88 914.5,-213.12"/>
<text text-anchor="middle" x="888.88" y="-199.62" font-family="Helvetica,sans-Serif" font-size="10.00">sstream</text>
</a>
</g>
</g>
<!-- Node2&#45;&gt;Node20 -->
<g id="edge25_Node000002_Node000020" class="edge">
<title>Node2&#45;&gt;Node20</title>
<g id="a_edge25_Node000002_Node000020"><a xlink:title=" ">
<path fill="none" stroke="#63b8ff" d="M880.39,-254.43C881.73,-246.57 883.72,-234.82 885.44,-224.7"/>
<polygon fill="#63b8ff" stroke="#63b8ff" points="888.86,-225.46 887.09,-215.02 881.96,-224.29 888.86,-225.46"/>
</a>
</g>
</g>
<!-- Node21 -->
<g id="Node000021" class="node">
<title>Node21</title>
<g id="a_Node000021"><a xlink:title=" ">
<polygon fill="#e0e0e0" stroke="#999999" points="999.38,-213.12 932.38,-213.12 932.38,-193.88 999.38,-193.88 999.38,-213.12"/>
<text text-anchor="middle" x="965.88" y="-199.62" font-family="Helvetica,sans-Serif" font-size="10.00">Eigen/Eigen</text>
</a>
</g>
</g>
<!-- Node2&#45;&gt;Node21 -->
<g id="edge26_Node000002_Node000021" class="edge">
<title>Node2&#45;&gt;Node21</title>
<g id="a_edge26_Node000002_Node000021"><a xlink:title=" ">
<path fill="none" stroke="#63b8ff" d="M892.09,-254.43C905.63,-245.27 926.95,-230.84 943.19,-219.85"/>
<polygon fill="#63b8ff" stroke="#63b8ff" points="944.96,-222.88 951.28,-214.37 941.04,-217.08 944.96,-222.88"/>
</a>
</g>
</g>
<!-- Node4 -->
<g id="Node000004" class="node">
<title>Node4</title>
<g id="a_Node000004"><a xlink:href="typed__linear__algebra__forward_8hpp.xhtml" target="_top" xlink:title="Authoritative forward declaration header.">
<polygon fill="white" stroke="#666666" points="1031.12,-146.62 926.62,-146.62 926.62,-116.12 1031.12,-116.12 1031.12,-146.62"/>
<text text-anchor="start" x="934.62" y="-133.12" font-family="Helvetica,sans-Serif" font-size="10.00">typed_linear_algebra</text>
<text text-anchor="middle" x="978.88" y="-121.88" font-family="Helvetica,sans-Serif" font-size="10.00">_forward.hpp</text>
</a>
</g>
</g>
<!-- Node3&#45;&gt;Node4 -->
<g id="edge3_Node000003_Node000004" class="edge">
<title>Node3&#45;&gt;Node4</title>
<g id="a_edge3_Node000003_Node000004"><a xlink:title=" ">
<path fill="none" stroke="#63b8ff" d="M830.29,-187.8C858.99,-177.09 898.08,-162.51 928.96,-150.99"/>
<polygon fill="#63b8ff" stroke="#63b8ff" points="929.95,-154.36 938.1,-147.59 927.51,-147.8 929.95,-154.36"/>
</a>
</g>
</g>
<!-- Node5 -->
<g id="Node000005" class="node">
<title>Node5</title>
<g id="a_Node000005"><a xlink:href="format_8hpp.xhtml" target="_top" xlink:title="Formatting support for the typed matrix.">
<polygon fill="white" stroke="#666666" points="1191.12,-146.62 1086.62,-146.62 1086.62,-116.12 1191.12,-116.12 1191.12,-146.62"/>
<text text-anchor="start" x="1094.62" y="-133.12" font-family="Helvetica,sans-Serif" font-size="10.00">typed_linear_algebra</text>
<text text-anchor="middle" x="1138.88" y="-121.88" font-family="Helvetica,sans-Serif" font-size="10.00">_internal/format.hpp</text>
</a>
</g>
</g>
<!-- Node3&#45;&gt;Node5 -->
<g id="edge4_Node000003_Node000005" class="edge">
<title>Node3&#45;&gt;Node5</title>
<g id="a_edge4_Node000003_Node000005"><a xlink:title=" ">
<path fill="none" stroke="#63b8ff" d="M845.47,-189.94C848.31,-189.35 851.12,-188.79 853.88,-188.25 950.69,-169.36 976.78,-174.52 1072.88,-152.25 1075.83,-151.56 1078.85,-150.82 1081.89,-150.03"/>
<polygon fill="#63b8ff" stroke="#63b8ff" points="1082.73,-153.43 1091.46,-147.44 1080.89,-146.68 1082.73,-153.43"/>
</a>
</g>
</g>
<!-- Node6 -->
<g id="Node000006" class="node">
<title>Node6</title>
<g id="a_Node000006"><a xlink:href="utility_8hpp.xhtml" target="_top" xlink:title=" ">
<polygon fill="white" stroke="#666666" points="1190.12,-74.5 1133.62,-74.5 1133.62,-55.25 1190.12,-55.25 1190.12,-74.5"/>
<text text-anchor="middle" x="1161.88" y="-61" font-family="Helvetica,sans-Serif" font-size="10.00">utility.hpp</text>
</a>
</g>
</g>
<!-- Node3&#45;&gt;Node6 -->
<g id="edge12_Node000003_Node000006" class="edge">
<title>Node3&#45;&gt;Node6</title>
<g id="a_edge12_Node000003_Node000006"><a xlink:title=" ">
<path fill="none" stroke="#63b8ff" d="M845.43,-189.74C848.28,-189.21 851.11,-188.71 853.88,-188.25 930.15,-175.7 1148.12,-209.67 1199.88,-152.25 1212.3,-138.47 1206.28,-127.91 1199.88,-110.5 1196.03,-100.07 1188.55,-90.41 1181.23,-82.77"/>
<polygon fill="#63b8ff" stroke="#63b8ff" points="1183.67,-80.26 1174.04,-75.85 1178.82,-85.3 1183.67,-80.26"/>
</a>
</g>
</g>
<!-- Node7 -->
<g id="Node000007" class="node">
<title>Node7</title>
<g id="a_Node000007"><a xlink:title=" ">
<polygon fill="#e0e0e0" stroke="#999999" points="1348.75,-19.25 1293,-19.25 1293,0 1348.75,0 1348.75,-19.25"/>
<text text-anchor="middle" x="1320.88" y="-5.75" font-family="Helvetica,sans-Serif" font-size="10.00">concepts</text>
</a>
</g>
</g>
<!-- Node3&#45;&gt;Node7 -->
<g id="edge13_Node000003_Node000007" class="edge">
<title>Node3&#45;&gt;Node7</title>
<g id="a_edge13_Node000003_Node000007"><a xlink:title=" ">
<path fill="none" stroke="#63b8ff" d="M845.43,-189.7C848.28,-189.18 851.11,-188.69 853.88,-188.25 940.28,-174.57 1172.4,-199.73 1245.88,-152.25 1289.2,-124.26 1309.11,-62.53 1316.79,-30.61"/>
<polygon fill="#63b8ff" stroke="#63b8ff" points="1320.15,-31.63 1318.91,-21.11 1313.32,-30.11 1320.15,-31.63"/>
</a>
</g>
</g>
<!-- Node9 -->
<g id="Node000009" class="node">
<title>Node9</title>
<g id="a_Node000009"><a xlink:title=" ">
<polygon fill="#e0e0e0" stroke="#999999" points="1104.38,-19.25 1067.38,-19.25 1067.38,0 1104.38,0 1104.38,-19.25"/>
<text text-anchor="middle" x="1085.88" y="-5.75" font-family="Helvetica,sans-Serif" font-size="10.00">tuple</text>
</a>
</g>
</g>
<!-- Node3&#45;&gt;Node9 -->
<g id="edge17_Node000003_Node000009" class="edge">
<title>Node3&#45;&gt;Node9</title>
<g id="a_edge17_Node000003_Node000009"><a xlink:title=" ">
<path fill="none" stroke="#63b8ff" d="M845.49,-190.04C848.32,-189.42 851.13,-188.83 853.88,-188.25 936.28,-170.96 976.79,-208.02 1039.88,-152.25 1075.29,-120.94 1083.58,-62.09 1085.43,-31.03"/>
<polygon fill="#63b8ff" stroke="#63b8ff" points="1088.92,-31.22 1085.83,-21.09 1081.93,-30.94 1088.92,-31.22"/>
</a>
</g>
</g>
<!-- Node3&#45;&gt;Node11 -->
<g id="edge14_Node000003_Node000011" class="edge">
<title>Node3&#45;&gt;Node11</title>
<g id="a_edge14_Node000003_Node000011"><a xlink:title=" ">
<path fill="none" stroke="#63b8ff" d="M845.43,-189.73C848.28,-189.19 851.11,-188.7 853.88,-188.25 934.11,-175.26 1151.84,-199.65 1217.88,-152.25 1239.57,-136.68 1249.43,-106.13 1253.74,-85.86"/>
<polygon fill="#63b8ff" stroke="#63b8ff" points="1257.14,-86.74 1255.5,-76.27 1250.25,-85.48 1257.14,-86.74"/>
</a>
</g>
</g>
<!-- Node3&#45;&gt;Node12 -->
<g id="edge15_Node000003_Node000012" class="edge">
<title>Node3&#45;&gt;Node12</title>
<g id="a_edge15_Node000003_Node000012"><a xlink:title=" ">
<path fill="none" stroke="#63b8ff" d="M736.38,-202.55C572.67,-202.21 93.27,-197.34 40.88,-152.25 22.17,-136.15 19.46,-106.22 20.04,-86.17"/>
<polygon fill="#63b8ff" stroke="#63b8ff" points="23.52,-86.63 20.64,-76.43 16.53,-86.2 23.52,-86.63"/>
</a>
</g>
</g>
<!-- Node13 -->
<g id="Node000013" class="node">
<title>Node13</title>
<g id="a_Node000013"><a xlink:title=" ">
<polygon fill="#e0e0e0" stroke="#999999" points="121.62,-141 50.12,-141 50.12,-121.75 121.62,-121.75 121.62,-141"/>
<text text-anchor="middle" x="85.88" y="-127.5" font-family="Helvetica,sans-Serif" font-size="10.00">initializer_list</text>
</a>
</g>
</g>
<!-- Node3&#45;&gt;Node13 -->
<g id="edge16_Node000003_Node000013" class="edge">
<title>Node3&#45;&gt;Node13</title>
<g id="a_edge16_Node000003_Node000013"><a xlink:title=" ">
<path fill="none" stroke="#63b8ff" d="M736.33,-200.73C599.62,-195.9 245.12,-180.93 130.88,-152.25 124.77,-150.72 118.44,-148.42 112.53,-145.92"/>
<polygon fill="#63b8ff" stroke="#63b8ff" points="114.41,-142.93 103.86,-141.96 111.51,-149.3 114.41,-142.93"/>
</a>
</g>
</g>
<!-- Node14 -->
<g id="Node000014" class="node">
<title>Node14</title>
<g id="a_Node000014"><a xlink:title=" ">
<polygon fill="#e0e0e0" stroke="#999999" points="178.12,-141 139.62,-141 139.62,-121.75 178.12,-121.75 178.12,-141"/>
<text text-anchor="middle" x="158.88" y="-127.5" font-family="Helvetica,sans-Serif" font-size="10.00">utility</text>
</a>
</g>
</g>
<!-- Node3&#45;&gt;Node14 -->
<g id="edge18_Node000003_Node000014" class="edge">
<title>Node3&#45;&gt;Node14</title>
<g id="a_edge18_Node000003_Node000014"><a xlink:title=" ">
<path fill="none" stroke="#63b8ff" d="M736.48,-201.52C607.85,-198.63 288.2,-187.96 187.88,-152.25 184.69,-151.12 181.53,-149.55 178.53,-147.78"/>
<polygon fill="#63b8ff" stroke="#63b8ff" points="180.64,-144.98 170.41,-142.22 176.69,-150.76 180.64,-144.98"/>
</a>
</g>
</g>
<!-- Node15 -->
<g id="Node000015" class="node">
<title>Node15</title>
<g id="a_Node000015"><a xlink:title=" ">
<polygon fill="#e0e0e0" stroke="#999999" points="351.25,-146.62 196.5,-146.62 196.5,-116.12 351.25,-116.12 351.25,-146.62"/>
<text text-anchor="start" x="204.5" y="-133.12" font-family="Helvetica,sans-Serif" font-size="10.00">typed_linear_algebra</text>
<text text-anchor="middle" x="273.88" y="-121.88" font-family="Helvetica,sans-Serif" font-size="10.00">_internal/algorithm/substract.tpp</text>
</a>
</g>
</g>
<!-- Node3&#45;&gt;Node15 -->
<g id="edge19_Node000003_Node000015" class="edge">
<title>Node3&#45;&gt;Node15</title>
<g id="a_edge19_Node000003_Node000015"><a xlink:title=" ">
<path fill="none" stroke="#63b8ff" d="M736.3,-198.03C654.39,-190.89 494.94,-175.33 360.88,-152.25 355.93,-151.4 350.85,-150.45 345.74,-149.43"/>
<polygon fill="#63b8ff" stroke="#63b8ff" points="346.53,-146.02 336.03,-147.42 345.12,-152.88 346.53,-146.02"/>
</a>
</g>
</g>
<!-- Node16 -->
<g id="Node000016" class="node">
<title>Node16</title>
<g id="a_Node000016"><a xlink:title=" ">
<polygon fill="#e0e0e0" stroke="#999999" points="532,-146.62 369.75,-146.62 369.75,-116.12 532,-116.12 532,-146.62"/>
<text text-anchor="start" x="377.75" y="-133.12" font-family="Helvetica,sans-Serif" font-size="10.00">typed_linear_algebra</text>
<text text-anchor="middle" x="450.88" y="-121.88" font-family="Helvetica,sans-Serif" font-size="10.00">_internal/algorithm/transposed.tpp</text>
</a>
</g>
</g>
<!-- Node3&#45;&gt;Node16 -->
<g id="edge20_Node000003_Node000016" class="edge">
<title>Node3&#45;&gt;Node16</title>
<g id="a_edge20_Node000003_Node000016"><a xlink:title=" ">
<path fill="none" stroke="#63b8ff" d="M736.68,-191.92C686,-181.94 608.23,-166.46 540.88,-152.25 536.59,-151.35 532.2,-150.41 527.77,-149.46"/>
<polygon fill="#63b8ff" stroke="#63b8ff" points="528.7,-146.08 518.19,-147.38 527.22,-152.92 528.7,-146.08"/>
</a>
</g>
</g>
<!-- Node17 -->
<g id="Node000017" class="node">
<title>Node17</title>
<g id="a_Node000017"><a xlink:title=" ">
<polygon fill="#e0e0e0" stroke="#999999" points="654.12,-146.62 549.62,-146.62 549.62,-116.12 654.12,-116.12 654.12,-146.62"/>
<text text-anchor="start" x="557.62" y="-133.12" font-family="Helvetica,sans-Serif" font-size="10.00">typed_linear_algebra</text>
<text text-anchor="middle" x="601.88" y="-121.88" font-family="Helvetica,sans-Serif" font-size="10.00">_internal/cast.tpp</text>
</a>
</g>
</g>
<!-- Node3&#45;&gt;Node17 -->
<g id="edge21_Node000003_Node000017" class="edge">
<title>Node3&#45;&gt;Node17</title>
<g id="a_edge21_Node000003_Node000017"><a xlink:title=" ">
<path fill="none" stroke="#63b8ff" d="M751.25,-187.8C722.4,-177.09 683.1,-162.51 652.05,-150.99"/>
<polygon fill="#63b8ff" stroke="#63b8ff" points="653.46,-147.78 642.86,-147.58 651.02,-154.34 653.46,-147.78"/>
</a>
</g>
</g>
<!-- Node18 -->
<g id="Node000018" class="node">
<title>Node18</title>
<g id="a_Node000018"><a xlink:title=" ">
<polygon fill="#e0e0e0" stroke="#999999" points="783.5,-146.62 672.25,-146.62 672.25,-116.12 783.5,-116.12 783.5,-146.62"/>
<text text-anchor="start" x="680.25" y="-133.12" font-family="Helvetica,sans-Serif" font-size="10.00">typed_linear_algebra</text>
<text text-anchor="middle" x="727.88" y="-121.88" font-family="Helvetica,sans-Serif" font-size="10.00">_internal/operation.tpp</text>
</a>
</g>
</g>
<!-- Node3&#45;&gt;Node18 -->
<g id="edge22_Node000003_Node000018" class="edge">
<title>Node3&#45;&gt;Node18</title>
<g id="a_edge22_Node000003_Node000018"><a xlink:title=" ">
<path fill="none" stroke="#63b8ff" d="M777.82,-187.97C769.37,-178.57 758.19,-166.12 748.55,-155.39"/>
<polygon fill="#63b8ff" stroke="#63b8ff" points="751.21,-153.11 741.92,-148.01 746,-157.79 751.21,-153.11"/>
</a>
</g>
</g>
<!-- Node19 -->
<g id="Node000019" class="node">
<title>Node19</title>
<g id="a_Node000019"><a xlink:title=" ">
<polygon fill="#e0e0e0" stroke="#999999" points="908.62,-152.25 801.12,-152.25 801.12,-110.5 908.62,-110.5 908.62,-152.25"/>
<text text-anchor="start" x="809.12" y="-138.75" font-family="Helvetica,sans-Serif" font-size="10.00">typed_linear_algebra</text>
<text text-anchor="start" x="809.12" y="-127.5" font-family="Helvetica,sans-Serif" font-size="10.00">_internal/typed_linear</text>
<text text-anchor="middle" x="854.88" y="-116.25" font-family="Helvetica,sans-Serif" font-size="10.00">_algebra.tpp</text>
</a>
</g>
</g>
<!-- Node3&#45;&gt;Node19 -->
<g id="edge23_Node000003_Node000019" class="edge">
<title>Node3&#45;&gt;Node19</title>
<g id="a_edge23_Node000003_Node000019"><a xlink:title=" ">
<path fill="none" stroke="#63b8ff" d="M804.14,-187.97C811.26,-180.17 820.29,-170.27 828.75,-161"/>
<polygon fill="#63b8ff" stroke="#63b8ff" points="831.12,-163.6 835.27,-153.85 825.95,-158.88 831.12,-163.6"/>
</a>
</g>
</g>
<!-- Node5&#45;&gt;Node6 -->
<g id="edge5_Node000005_Node000006" class="edge">
<title>Node5&#45;&gt;Node6</title>
<g id="a_edge5_Node000005_Node000006"><a xlink:title=" ">
<path fill="none" stroke="#63b8ff" d="M1144.09,-115.74C1147.3,-106.75 1151.44,-95.14 1154.92,-85.38"/>
<polygon fill="#63b8ff" stroke="#63b8ff" points="1158.16,-86.72 1158.22,-76.12 1151.57,-84.37 1158.16,-86.72"/>
</a>
</g>
</g>
<!-- Node5&#45;&gt;Node11 -->
<g id="edge10_Node000005_Node000011" class="edge">
<title>Node5&#45;&gt;Node11</title>
<g id="a_edge10_Node000005_Node000011"><a xlink:title=" ">
<path fill="none" stroke="#63b8ff" d="M1165.65,-115.74C1185.04,-105.14 1211.14,-90.88 1230.45,-80.32"/>
<polygon fill="#63b8ff" stroke="#63b8ff" points="1231.97,-83.48 1239.06,-75.61 1228.61,-77.34 1231.97,-83.48"/>
</a>
</g>
</g>
<!-- Node5&#45;&gt;Node12 -->
<g id="edge11_Node000005_Node000012" class="edge">
<title>Node5&#45;&gt;Node12</title>
<g id="a_edge11_Node000005_Node000012"><a xlink:title=" ">
<path fill="none" stroke="#63b8ff" d="M1086.2,-118.23C1071.3,-115.23 1055.02,-112.34 1039.88,-110.5 655.39,-63.76 183.97,-64.33 55.53,-65.47"/>
<polygon fill="#63b8ff" stroke="#63b8ff" points="55.67,-61.97 45.7,-65.57 55.73,-68.97 55.67,-61.97"/>
</a>
</g>
</g>
<!-- Node6&#45;&gt;Node7 -->
<g id="edge6_Node000006_Node000007" class="edge">
<title>Node6&#45;&gt;Node7</title>
<g id="a_edge6_Node000006_Node000007"><a xlink:title=" ">
<path fill="none" stroke="#63b8ff" d="M1188.85,-54.84C1214.77,-46.16 1254.19,-32.96 1283.21,-23.24"/>
<polygon fill="#63b8ff" stroke="#63b8ff" points="1283.96,-26.68 1292.34,-20.18 1281.74,-20.04 1283.96,-26.68"/>
</a>
</g>
</g>
<!-- Node8 -->
<g id="Node000008" class="node">
<title>Node8</title>
<g id="a_Node000008"><a xlink:title=" ">
<polygon fill="#e0e0e0" stroke="#999999" points="1262.88,-19.25 1204.88,-19.25 1204.88,0 1262.88,0 1262.88,-19.25"/>
<text text-anchor="middle" x="1233.88" y="-5.75" font-family="Helvetica,sans-Serif" font-size="10.00">functional</text>
</a>
</g>
</g>
<!-- Node6&#45;&gt;Node8 -->
<g id="edge7_Node000006_Node000008" class="edge">
<title>Node6&#45;&gt;Node8</title>
<g id="a_edge7_Node000006_Node000008"><a xlink:title=" ">
<path fill="none" stroke="#63b8ff" d="M1174.09,-54.84C1184.7,-46.99 1200.31,-35.45 1212.92,-26.12"/>
<polygon fill="#63b8ff" stroke="#63b8ff" points="1214.67,-29.19 1220.62,-20.42 1210.5,-23.56 1214.67,-29.19"/>
</a>
</g>
</g>
<!-- Node6&#45;&gt;Node9 -->
<g id="edge8_Node000006_Node000009" class="edge">
<title>Node6&#45;&gt;Node9</title>
<g id="a_edge8_Node000006_Node000009"><a xlink:title=" ">
<path fill="none" stroke="#63b8ff" d="M1148.98,-54.84C1137.85,-47.04 1121.5,-35.59 1108.24,-26.29"/>
<polygon fill="#63b8ff" stroke="#63b8ff" points="1110.27,-23.44 1100.07,-20.57 1106.25,-29.18 1110.27,-23.44"/>
</a>
</g>
</g>
<!-- Node10 -->
<g id="Node000010" class="node">
<title>Node10</title>
<g id="a_Node000010"><a xlink:title=" ">
<polygon fill="#e0e0e0" stroke="#999999" points="1186.38,-19.25 1125.38,-19.25 1125.38,0 1186.38,0 1186.38,-19.25"/>
<text text-anchor="middle" x="1155.88" y="-5.75" font-family="Helvetica,sans-Serif" font-size="10.00">type_traits</text>
</a>
</g>
</g>
<!-- Node6&#45;&gt;Node10 -->
<g id="edge9_Node000006_Node000010" class="edge">
<title>Node6&#45;&gt;Node10</title>
<g id="a_edge9_Node000006_Node000010"><a xlink:title=" ">
<path fill="none" stroke="#63b8ff" d="M1160.88,-55.08C1160.14,-48.49 1159.1,-39.21 1158.15,-30.82"/>
<polygon fill="#63b8ff" stroke="#63b8ff" points="1161.65,-30.66 1157.06,-21.11 1154.7,-31.44 1161.65,-30.66"/>
</a>
</g>
</g>
</g>
</svg>
