<?xml version="1.0" encoding="UTF-8" standalone="no"?>
<!DOCTYPE svg PUBLIC "-//W3C//DTD SVG 1.1//EN"
 "http://www.w3.org/Graphics/SVG/1.1/DTD/svg11.dtd">
<!-- Generated by graphviz version 12.2.0 (20241103.1931)
 -->
<!-- Title: /github/workspace/support/eigen/fcarouge/linalg.hpp Pages: 1 -->
<svg width="3452pt" height="305pt"
 viewBox="0.00 0.00 3451.80 304.50" xmlns="http://www.w3.org/2000/svg" xmlns:xlink="http://www.w3.org/1999/xlink">
<g id="graph0" class="graph" transform="scale(1 1) rotate(0) translate(4 300.5)">
<title>/github/workspace/support/eigen/fcarouge/linalg.hpp</title>
<!-- Node1 -->
<g id="Node000001" class="node">
<title>Node1</title>
<g id="a_Node000001"><a xlink:title=" ">
<polygon fill="#999999" stroke="#666666" points="2686.67,-296.5 2555.92,-296.5 2555.92,-266 2686.67,-266 2686.67,-296.5"/>
<text text-anchor="start" x="2563.92" y="-283" font-family="Helvetica,sans-Serif" font-size="10.00">/github/workspace/support</text>
<text text-anchor="middle" x="2621.3" y="-271.75" font-family="Helvetica,sans-Serif" font-size="10.00">/eigen/fcarouge/linalg.hpp</text>
</a>
</g>
</g>
<!-- Node2 -->
<g id="Node000002" class="node">
<title>Node2</title>
<g id="a_Node000002"><a xlink:href="eigen_8hpp.xhtml" target="_top" xlink:title="Linear algebra facade for Eigen3 third party implementation.">
<polygon fill="white" stroke="#666666" points="2649.92,-230 2592.67,-230 2592.67,-210.75 2649.92,-210.75 2649.92,-230"/>
<text text-anchor="middle" x="2621.3" y="-216.5" font-family="Helvetica,sans-Serif" font-size="10.00">eigen.hpp</text>
</a>
</g>
</g>
<!-- Node1&#45;&gt;Node2 -->
<g id="edge1_Node000001_Node000002" class="edge">
<title>Node1&#45;&gt;Node2</title>
<g id="a_edge1_Node000001_Node000002"><a xlink:title=" ">
<path fill="none" stroke="#63b8ff" d="M2621.3,-265.7C2621.3,-258.46 2621.3,-249.59 2621.3,-241.69"/>
<polygon fill="#63b8ff" stroke="#63b8ff" points="2624.8,-241.96 2621.3,-231.96 2617.8,-241.96 2624.8,-241.96"/>
</a>
</g>
</g>
<!-- Node3 -->
<g id="Node000003" class="node">
<title>Node3</title>
<g id="a_Node000003"><a xlink:href="typed__linear__algebra_8hpp.xhtml" target="_top" xlink:title="Typed linear algebra implementation.">
<polygon fill="white" stroke="#666666" points="1990.42,-174.75 1882.17,-174.75 1882.17,-144.25 1990.42,-144.25 1990.42,-174.75"/>
<text text-anchor="start" x="1890.17" y="-161.25" font-family="Helvetica,sans-Serif" font-size="10.00">fcarouge/typed_linear</text>
<text text-anchor="middle" x="1936.3" y="-150" font-family="Helvetica,sans-Serif" font-size="10.00">_algebra.hpp</text>
</a>
</g>
</g>
<!-- Node2&#45;&gt;Node3 -->
<g id="edge2_Node000002_Node000003" class="edge">
<title>Node2&#45;&gt;Node3</title>
<g id="a_edge2_Node000002_Node000003"><a xlink:title=" ">
<path fill="none" stroke="#63b8ff" d="M2592.3,-216.88C2490.46,-208.13 2147.48,-178.65 2002.2,-166.16"/>
<polygon fill="#63b8ff" stroke="#63b8ff" points="2002.61,-162.69 1992.35,-165.32 2002.01,-169.66 2002.61,-162.69"/>
</a>
</g>
</g>
<!-- Node7 -->
<g id="Node000007" class="node">
<title>Node7</title>
<g id="a_Node000007"><a xlink:title=" ">
<polygon fill="#e0e0e0" stroke="#999999" points="2577.17,-24.88 2521.42,-24.88 2521.42,-5.63 2577.17,-5.63 2577.17,-24.88"/>
<text text-anchor="middle" x="2549.3" y="-11.38" font-family="Helvetica,sans-Serif" font-size="10.00">concepts</text>
</a>
</g>
</g>
<!-- Node2&#45;&gt;Node7 -->
<g id="edge40_Node000002_Node000007" class="edge">
<title>Node2&#45;&gt;Node7</title>
<g id="a_edge40_Node000002_Node000007"><a xlink:title=" ">
<path fill="none" stroke="#63b8ff" d="M2592.23,-219.26C2312.54,-218.05 107.62,-207.56 49.3,-174.75 18.83,-157.61 17.01,-141.83 7.3,-108.25 2.14,-90.43 -5.7,-79.75 7.3,-66.5 53.06,-19.82 2191.92,-16.5 2509.93,-16.27"/>
<polygon fill="#63b8ff" stroke="#63b8ff" points="2509.78,-19.77 2519.78,-16.26 2509.77,-12.77 2509.78,-19.77"/>
</a>
</g>
</g>
<!-- Node8 -->
<g id="Node000008" class="node">
<title>Node8</title>
<g id="a_Node000008"><a xlink:title=" ">
<polygon fill="#e0e0e0" stroke="#999999" points="3035.42,-24.88 2987.17,-24.88 2987.17,-5.63 3035.42,-5.63 3035.42,-24.88"/>
<text text-anchor="middle" x="3011.3" y="-11.38" font-family="Helvetica,sans-Serif" font-size="10.00">cstddef</text>
</a>
</g>
</g>
<!-- Node2&#45;&gt;Node8 -->
<g id="edge41_Node000002_Node000008" class="edge">
<title>Node2&#45;&gt;Node8</title>
<g id="a_edge41_Node000002_Node000008"><a xlink:title=" ">
<path fill="none" stroke="#63b8ff" d="M2650.3,-218.69C2760.1,-215.43 3147.9,-197.67 3222.3,-108.25 3234.16,-93.99 3234.04,-80.87 3222.3,-66.5 3171.5,-4.34 3122.02,-54.13 3045.3,-30.5 3044.13,-30.14 3042.96,-29.76 3041.77,-29.36"/>
<polygon fill="#63b8ff" stroke="#63b8ff" points="3043.2,-26.15 3032.61,-25.89 3040.72,-32.7 3043.2,-26.15"/>
</a>
</g>
</g>
<!-- Node10 -->
<g id="Node000010" class="node">
<title>Node10</title>
<g id="a_Node000010"><a xlink:title=" ">
<polygon fill="#e0e0e0" stroke="#999999" points="3090.8,-24.88 3053.8,-24.88 3053.8,-5.63 3090.8,-5.63 3090.8,-24.88"/>
<text text-anchor="middle" x="3072.3" y="-11.38" font-family="Helvetica,sans-Serif" font-size="10.00">tuple</text>
</a>
</g>
</g>
<!-- Node2&#45;&gt;Node10 -->
<g id="edge44_Node000002_Node000010" class="edge">
<title>Node2&#45;&gt;Node10</title>
<g id="a_edge44_Node000002_Node000010"><a xlink:title=" ">
<path fill="none" stroke="#63b8ff" d="M2650.14,-218.62C2744.4,-215.88 3042.5,-204.99 3133.3,-174.75 3186.42,-157.06 3213.09,-157.19 3240.3,-108.25 3249.31,-92.03 3251.38,-81.38 3240.3,-66.5 3208.48,-23.77 3141.67,-15.98 3102.56,-15.33"/>
<polygon fill="#63b8ff" stroke="#63b8ff" points="3102.67,-11.83 3092.67,-15.32 3102.67,-18.83 3102.67,-11.83"/>
</a>
</g>
</g>
<!-- Node11 -->
<g id="Node000011" class="node">
<title>Node11</title>
<g id="a_Node000011"><a xlink:title=" ">
<polygon fill="#e0e0e0" stroke="#999999" points="2655.8,-24.88 2594.8,-24.88 2594.8,-5.63 2655.8,-5.63 2655.8,-24.88"/>
<text text-anchor="middle" x="2625.3" y="-11.38" font-family="Helvetica,sans-Serif" font-size="10.00">type_traits</text>
</a>
</g>
</g>
<!-- Node2&#45;&gt;Node11 -->
<g id="edge45_Node000002_Node000011" class="edge">
<title>Node2&#45;&gt;Node11</title>
<g id="a_edge45_Node000002_Node000011"><a xlink:title=" ">
<path fill="none" stroke="#63b8ff" d="M2592.28,-219.54C2361.42,-220.73 818.73,-226.61 356.3,-174.75 206.25,-157.92 -71.71,-174.01 34.3,-66.5 84.07,-16.02 2516.57,-43.35 2586.3,-30.5 2588.77,-30.04 2591.3,-29.45 2593.82,-28.76"/>
<polygon fill="#63b8ff" stroke="#63b8ff" points="2594.73,-32.14 2603.17,-25.74 2592.58,-25.48 2594.73,-32.14"/>
</a>
</g>
</g>
<!-- Node13 -->
<g id="Node000013" class="node">
<title>Node13</title>
<g id="a_Node000013"><a xlink:title=" ">
<polygon fill="#e0e0e0" stroke="#999999" points="87.17,-97 43.42,-97 43.42,-77.75 87.17,-77.75 87.17,-97"/>
<text text-anchor="middle" x="65.3" y="-83.5" font-family="Helvetica,sans-Serif" font-size="10.00">format</text>
</a>
</g>
</g>
<!-- Node2&#45;&gt;Node13 -->
<g id="edge42_Node000002_Node000013" class="edge">
<title>Node2&#45;&gt;Node13</title>
<g id="a_edge42_Node000002_Node000013"><a xlink:title=" ">
<path fill="none" stroke="#63b8ff" d="M2592.26,-219.01C2328.2,-215.6 346.08,-187.45 96.3,-108.25 92.7,-107.11 89.11,-105.44 85.73,-103.54"/>
<polygon fill="#63b8ff" stroke="#63b8ff" points="87.91,-100.79 77.61,-98.31 84.12,-106.67 87.91,-100.79"/>
</a>
</g>
</g>
<!-- Node36 -->
<g id="Node000036" class="node">
<title>Node36</title>
<g id="a_Node000036"><a xlink:title=" ">
<polygon fill="#e0e0e0" stroke="#999999" points="3358.92,-169.12 3307.67,-169.12 3307.67,-149.88 3358.92,-149.88 3358.92,-169.12"/>
<text text-anchor="middle" x="3333.3" y="-155.62" font-family="Helvetica,sans-Serif" font-size="10.00">sstream</text>
</a>
</g>
</g>
<!-- Node2&#45;&gt;Node36 -->
<g id="edge43_Node000002_Node000036" class="edge">
<title>Node2&#45;&gt;Node36</title>
<g id="a_edge43_Node000002_Node000036"><a xlink:title=" ">
<path fill="none" stroke="#63b8ff" d="M2650.33,-218.51C2762.51,-215.01 3167.5,-200.81 3293.3,-174.75 3295.61,-174.27 3297.97,-173.69 3300.33,-173.04"/>
<polygon fill="#63b8ff" stroke="#63b8ff" points="3301.26,-176.41 3309.74,-170.06 3299.15,-169.74 3301.26,-176.41"/>
</a>
</g>
</g>
<!-- Node37 -->
<g id="Node000037" class="node">
<title>Node37</title>
<g id="a_Node000037"><a xlink:title=" ">
<polygon fill="#e0e0e0" stroke="#999999" points="3443.8,-169.12 3376.8,-169.12 3376.8,-149.88 3443.8,-149.88 3443.8,-169.12"/>
<text text-anchor="middle" x="3410.3" y="-155.62" font-family="Helvetica,sans-Serif" font-size="10.00">Eigen/Eigen</text>
</a>
</g>
</g>
<!-- Node2&#45;&gt;Node37 -->
<g id="edge46_Node000002_Node000037" class="edge">
<title>Node2&#45;&gt;Node37</title>
<g id="a_edge46_Node000002_Node000037"><a xlink:title=" ">
<path fill="none" stroke="#63b8ff" d="M2650.24,-218.68C2769.98,-215.64 3226.93,-202.43 3368.3,-174.75 3370.91,-174.24 3373.58,-173.6 3376.25,-172.89"/>
<polygon fill="#63b8ff" stroke="#63b8ff" points="3377.05,-176.31 3385.6,-170.06 3375.02,-169.61 3377.05,-176.31"/>
</a>
</g>
</g>
<!-- Node4 -->
<g id="Node000004" class="node">
<title>Node4</title>
<g id="a_Node000004"><a xlink:href="utility_8hpp.xhtml" target="_top" xlink:title=" ">
<polygon fill="white" stroke="#666666" points="2849.55,-102.62 2745.05,-102.62 2745.05,-72.12 2849.55,-72.12 2849.55,-102.62"/>
<text text-anchor="start" x="2753.05" y="-89.12" font-family="Helvetica,sans-Serif" font-size="10.00">typed_linear_algebra</text>
<text text-anchor="middle" x="2797.3" y="-77.88" font-family="Helvetica,sans-Serif" font-size="10.00">/internal/utility.hpp</text>
</a>
</g>
</g>
<!-- Node3&#45;&gt;Node4 -->
<g id="edge3_Node000003_Node000004" class="edge">
<title>Node3&#45;&gt;Node4</title>
<g id="a_edge3_Node000003_Node000004"><a xlink:title=" ">
<path fill="none" stroke="#63b8ff" d="M1990.79,-159.33C2120.32,-160.38 2456.34,-157.66 2731.3,-108.25 2735.06,-107.57 2738.91,-106.76 2742.78,-105.84"/>
<polygon fill="#63b8ff" stroke="#63b8ff" points="2743.33,-109.31 2752.15,-103.43 2741.59,-102.53 2743.33,-109.31"/>
</a>
</g>
</g>
<!-- Node5 -->
<g id="Node000005" class="node">
<title>Node5</title>
<g id="a_Node000005"><a xlink:href="typed__linear__algebra__forward_8hpp.xhtml" target="_top" xlink:title="Authoritative forward declaration header.">
<polygon fill="white" stroke="#666666" points="2969.42,-30.5 2861.17,-30.5 2861.17,0 2969.42,0 2969.42,-30.5"/>
<text text-anchor="start" x="2869.17" y="-17" font-family="Helvetica,sans-Serif" font-size="10.00">fcarouge/typed_linear</text>
<text text-anchor="middle" x="2915.3" y="-5.75" font-family="Helvetica,sans-Serif" font-size="10.00">_algebra_forward.hpp</text>
</a>
</g>
</g>
<!-- Node3&#45;&gt;Node5 -->
<g id="edge12_Node000003_Node000005" class="edge">
<title>Node3&#45;&gt;Node5</title>
<g id="a_edge12_Node000003_Node000005"><a xlink:title=" ">
<path fill="none" stroke="#63b8ff" d="M1990.7,-158.9C2180.21,-159.87 2803.79,-159.1 2876.3,-108.25 2897.89,-93.11 2907.59,-63.51 2911.91,-41.96"/>
<polygon fill="#63b8ff" stroke="#63b8ff" points="2915.35,-42.61 2913.58,-32.16 2908.45,-41.43 2915.35,-42.61"/>
</a>
</g>
</g>
<!-- Node3&#45;&gt;Node7 -->
<g id="edge13_Node000003_Node000007" class="edge">
<title>Node3&#45;&gt;Node7</title>
<g id="a_edge13_Node000003_Node000007"><a xlink:title=" ">
<path fill="none" stroke="#63b8ff" d="M1990.65,-159.09C2156.9,-160.35 2650.16,-159.67 2698.3,-108.25 2710.98,-94.7 2709.23,-81.49 2698.3,-66.5 2667.5,-24.25 2635.6,-47.9 2586.3,-30.5 2585.16,-30.1 2584.01,-29.69 2582.84,-29.27"/>
<polygon fill="#63b8ff" stroke="#63b8ff" points="2584.32,-26.08 2573.73,-25.87 2581.88,-32.64 2584.32,-26.08"/>
</a>
</g>
</g>
<!-- Node3&#45;&gt;Node8 -->
<g id="edge14_Node000003_Node000008" class="edge">
<title>Node3&#45;&gt;Node8</title>
<g id="a_edge14_Node000003_Node000008"><a xlink:title=" ">
<path fill="none" stroke="#63b8ff" d="M1990.62,-157.73C2182.21,-154.71 2819.5,-142.22 2904.3,-108.25 2943.72,-92.46 2978.81,-55.87 2997.36,-33.89"/>
<polygon fill="#63b8ff" stroke="#63b8ff" points="2999.89,-36.33 3003.52,-26.38 2994.47,-31.9 2999.89,-36.33"/>
</a>
</g>
</g>
<!-- Node3&#45;&gt;Node10 -->
<g id="edge17_Node000003_Node000010" class="edge">
<title>Node3&#45;&gt;Node10</title>
<g id="a_edge17_Node000003_Node000010"><a xlink:title=" ">
<path fill="none" stroke="#63b8ff" d="M1990.6,-157.64C2187.64,-154.29 2858.04,-140.58 2948.3,-108.25 2960.02,-104.05 3020.03,-57.49 3052.07,-32.27"/>
<polygon fill="#63b8ff" stroke="#63b8ff" points="3054.16,-35.08 3059.84,-26.14 3049.83,-29.58 3054.16,-35.08"/>
</a>
</g>
</g>
<!-- Node12 -->
<g id="Node000012" class="node">
<title>Node12</title>
<g id="a_Node000012"><a xlink:title=" ">
<polygon fill="#e0e0e0" stroke="#999999" points="2843.55,-24.88 2805.05,-24.88 2805.05,-5.63 2843.55,-5.63 2843.55,-24.88"/>
<text text-anchor="middle" x="2824.3" y="-11.38" font-family="Helvetica,sans-Serif" font-size="10.00">utility</text>
</a>
</g>
</g>
<!-- Node3&#45;&gt;Node12 -->
<g id="edge18_Node000003_Node000012" class="edge">
<title>Node3&#45;&gt;Node12</title>
<g id="a_edge18_Node000003_Node000012"><a xlink:title=" ">
<path fill="none" stroke="#63b8ff" d="M1990.88,-157.57C2184.49,-154.02 2828.34,-139.88 2858.3,-108.25 2878.01,-87.44 2857.09,-54.21 2840.46,-33.9"/>
<polygon fill="#63b8ff" stroke="#63b8ff" points="2843.23,-31.75 2834.04,-26.47 2837.93,-36.33 2843.23,-31.75"/>
</a>
</g>
</g>
<!-- Node3&#45;&gt;Node13 -->
<g id="edge15_Node000003_Node000013" class="edge">
<title>Node3&#45;&gt;Node13</title>
<g id="a_edge15_Node000003_Node000013"><a xlink:title=" ">
<path fill="none" stroke="#63b8ff" d="M1882.13,-157.84C1587.08,-154.14 183.72,-135.17 96.3,-108.25 92.63,-107.12 88.98,-105.43 85.54,-103.5"/>
<polygon fill="#63b8ff" stroke="#63b8ff" points="87.6,-100.67 77.31,-98.16 83.79,-106.54 87.6,-100.67"/>
</a>
</g>
</g>
<!-- Node14 -->
<g id="Node000014" class="node">
<title>Node14</title>
<g id="a_Node000014"><a xlink:title=" ">
<polygon fill="#e0e0e0" stroke="#999999" points="3091.05,-97 3019.55,-97 3019.55,-77.75 3091.05,-77.75 3091.05,-97"/>
<text text-anchor="middle" x="3055.3" y="-83.5" font-family="Helvetica,sans-Serif" font-size="10.00">initializer_list</text>
</a>
</g>
</g>
<!-- Node3&#45;&gt;Node14 -->
<g id="edge16_Node000003_Node000014" class="edge">
<title>Node3&#45;&gt;Node14</title>
<g id="a_edge16_Node000003_Node000014"><a xlink:title=" ">
<path fill="none" stroke="#63b8ff" d="M1990.75,-158.31C2180.06,-157.29 2808.7,-150.7 3005.3,-108.25 3012.37,-106.72 3019.73,-104.3 3026.57,-101.67"/>
<polygon fill="#63b8ff" stroke="#63b8ff" points="3027.47,-105.08 3035.37,-98.03 3024.79,-98.62 3027.47,-105.08"/>
</a>
</g>
</g>
<!-- Node15 -->
<g id="Node000015" class="node">
<title>Node15</title>
<g id="a_Node000015"><a xlink:title=" ">
<polygon fill="#e0e0e0" stroke="#999999" points="3213.55,-102.62 3109.05,-102.62 3109.05,-72.12 3213.55,-72.12 3213.55,-102.62"/>
<text text-anchor="start" x="3117.05" y="-89.12" font-family="Helvetica,sans-Serif" font-size="10.00">typed_linear_algebra</text>
<text text-anchor="middle" x="3161.3" y="-77.88" font-family="Helvetica,sans-Serif" font-size="10.00">/algorithm/add.tpp</text>
</a>
</g>
</g>
<!-- Node3&#45;&gt;Node15 -->
<g id="edge19_Node000003_Node000015" class="edge">
<title>Node3&#45;&gt;Node15</title>
<g id="a_edge19_Node000003_Node000015"><a xlink:title=" ">
<path fill="none" stroke="#63b8ff" d="M1990.59,-158.11C2190.22,-156.37 2883.1,-147.56 3100.3,-108.25 3103.64,-107.64 3107.05,-106.9 3110.47,-106.06"/>
<polygon fill="#63b8ff" stroke="#63b8ff" points="3111.15,-109.51 3119.87,-103.5 3109.3,-102.75 3111.15,-109.51"/>
</a>
</g>
</g>
<!-- Node16 -->
<g id="Node000016" class="node">
<title>Node16</title>
<g id="a_Node000016"><a xlink:title=" ">
<polygon fill="#e0e0e0" stroke="#999999" points="209.55,-102.62 105.05,-102.62 105.05,-72.12 209.55,-72.12 209.55,-102.62"/>
<text text-anchor="start" x="113.05" y="-89.12" font-family="Helvetica,sans-Serif" font-size="10.00">typed_linear_algebra</text>
<text text-anchor="middle" x="157.3" y="-77.88" font-family="Helvetica,sans-Serif" font-size="10.00">/algorithm/divide.tpp</text>
</a>
</g>
</g>
<!-- Node3&#45;&gt;Node16 -->
<g id="edge20_Node000003_Node000016" class="edge">
<title>Node3&#45;&gt;Node16</title>
<g id="a_edge20_Node000003_Node000016"><a xlink:title=" ">
<path fill="none" stroke="#63b8ff" d="M1882.06,-157.82C1608.46,-154.26 386.19,-136.85 219.3,-108.25 215.73,-107.64 212.09,-106.87 208.44,-105.99"/>
<polygon fill="#63b8ff" stroke="#63b8ff" points="209.6,-102.68 199.04,-103.47 207.79,-109.44 209.6,-102.68"/>
</a>
</g>
</g>
<!-- Node17 -->
<g id="Node000017" class="node">
<title>Node17</title>
<g id="a_Node000017"><a xlink:title=" ">
<polygon fill="#e0e0e0" stroke="#999999" points="332.55,-102.62 228.05,-102.62 228.05,-72.12 332.55,-72.12 332.55,-102.62"/>
<text text-anchor="start" x="236.05" y="-89.12" font-family="Helvetica,sans-Serif" font-size="10.00">typed_linear_algebra</text>
<text text-anchor="middle" x="280.3" y="-77.88" font-family="Helvetica,sans-Serif" font-size="10.00">/algorithm/dot.tpp</text>
</a>
</g>
</g>
<!-- Node3&#45;&gt;Node17 -->
<g id="edge21_Node000003_Node000017" class="edge">
<title>Node3&#45;&gt;Node17</title>
<g id="a_edge21_Node000003_Node000017"><a xlink:title=" ">
<path fill="none" stroke="#63b8ff" d="M1882.07,-157.7C1620.51,-153.74 495.48,-135.23 341.3,-108.25 337.89,-107.65 334.42,-106.91 330.95,-106.07"/>
<polygon fill="#63b8ff" stroke="#63b8ff" points="331.94,-102.71 321.38,-103.47 330.11,-109.47 331.94,-102.71"/>
</a>
</g>
</g>
<!-- Node18 -->
<g id="Node000018" class="node">
<title>Node18</title>
<g id="a_Node000018"><a xlink:title=" ">
<polygon fill="#e0e0e0" stroke="#999999" points="464.42,-102.62 350.17,-102.62 350.17,-72.12 464.42,-72.12 464.42,-102.62"/>
<text text-anchor="start" x="358.17" y="-89.12" font-family="Helvetica,sans-Serif" font-size="10.00">typed_linear_algebra</text>
<text text-anchor="middle" x="407.3" y="-77.88" font-family="Helvetica,sans-Serif" font-size="10.00">/algorithm/equal_to.tpp</text>
</a>
</g>
</g>
<!-- Node3&#45;&gt;Node18 -->
<g id="edge22_Node000003_Node000018" class="edge">
<title>Node3&#45;&gt;Node18</title>
<g id="a_edge22_Node000003_Node000018"><a xlink:title=" ">
<path fill="none" stroke="#63b8ff" d="M1882.03,-158.51C1651.46,-158.25 752.26,-154.25 473.3,-108.25 469.28,-107.59 465.17,-106.75 461.05,-105.8"/>
<polygon fill="#63b8ff" stroke="#63b8ff" points="462.25,-102.49 451.7,-103.42 460.52,-109.27 462.25,-102.49"/>
</a>
</g>
</g>
<!-- Node19 -->
<g id="Node000019" class="node">
<title>Node19</title>
<g id="a_Node000019"><a xlink:title=" ">
<polygon fill="#e0e0e0" stroke="#999999" points="604.55,-102.62 482.05,-102.62 482.05,-72.12 604.55,-72.12 604.55,-102.62"/>
<text text-anchor="start" x="490.05" y="-89.12" font-family="Helvetica,sans-Serif" font-size="10.00">typed_linear_algebra</text>
<text text-anchor="middle" x="543.3" y="-77.88" font-family="Helvetica,sans-Serif" font-size="10.00">/algorithm/magnitude.tpp</text>
</a>
</g>
</g>
<!-- Node3&#45;&gt;Node19 -->
<g id="edge23_Node000003_Node000019" class="edge">
<title>Node3&#45;&gt;Node19</title>
<g id="a_edge23_Node000003_Node000019"><a xlink:title=" ">
<path fill="none" stroke="#63b8ff" d="M1881.84,-158.16C1665.13,-156.55 863.72,-147.97 613.3,-108.25 609,-107.57 604.59,-106.71 600.17,-105.73"/>
<polygon fill="#63b8ff" stroke="#63b8ff" points="601.27,-102.4 590.73,-103.46 599.63,-109.2 601.27,-102.4"/>
</a>
</g>
</g>
<!-- Node20 -->
<g id="Node000020" class="node">
<title>Node20</title>
<g id="a_Node000020"><a xlink:title=" ">
<polygon fill="#e0e0e0" stroke="#999999" points="732.17,-108.25 622.42,-108.25 622.42,-66.5 732.17,-66.5 732.17,-108.25"/>
<text text-anchor="start" x="630.42" y="-94.75" font-family="Helvetica,sans-Serif" font-size="10.00">typed_linear_algebra</text>
<text text-anchor="start" x="630.42" y="-83.5" font-family="Helvetica,sans-Serif" font-size="10.00">/algorithm/matrix_frob</text>
<text text-anchor="middle" x="677.3" y="-72.25" font-family="Helvetica,sans-Serif" font-size="10.00">_norm.tpp</text>
</a>
</g>
</g>
<!-- Node3&#45;&gt;Node20 -->
<g id="edge24_Node000003_Node000020" class="edge">
<title>Node3&#45;&gt;Node20</title>
<g id="a_edge24_Node000003_Node000020"><a xlink:title=" ">
<path fill="none" stroke="#63b8ff" d="M1881.97,-158.08C1682.13,-156.25 987.26,-147.31 743.83,-108.38"/>
<polygon fill="#63b8ff" stroke="#63b8ff" points="744.52,-104.95 734.08,-106.75 743.36,-111.85 744.52,-104.95"/>
</a>
</g>
</g>
<!-- Node21 -->
<g id="Node000021" class="node">
<title>Node21</title>
<g id="a_Node000021"><a xlink:title=" ">
<polygon fill="#e0e0e0" stroke="#999999" points="858.8,-108.25 749.8,-108.25 749.8,-66.5 858.8,-66.5 858.8,-108.25"/>
<text text-anchor="start" x="757.8" y="-94.75" font-family="Helvetica,sans-Serif" font-size="10.00">typed_linear_algebra</text>
<text text-anchor="start" x="757.8" y="-83.5" font-family="Helvetica,sans-Serif" font-size="10.00">/algorithm/matrix_one</text>
<text text-anchor="middle" x="804.3" y="-72.25" font-family="Helvetica,sans-Serif" font-size="10.00">_norm.tpp</text>
</a>
</g>
</g>
<!-- Node3&#45;&gt;Node21 -->
<g id="edge25_Node000003_Node000021" class="edge">
<title>Node3&#45;&gt;Node21</title>
<g id="a_edge25_Node000003_Node000021"><a xlink:title=" ">
<path fill="none" stroke="#63b8ff" d="M1881.94,-157.8C1696.28,-155.12 1087.23,-143.92 870.32,-108.49"/>
<polygon fill="#63b8ff" stroke="#63b8ff" points="871,-105.06 860.55,-106.82 869.82,-111.96 871,-105.06"/>
</a>
</g>
</g>
<!-- Node22 -->
<g id="Node000022" class="node">
<title>Node22</title>
<g id="a_Node000022"><a xlink:title=" ">
<polygon fill="#e0e0e0" stroke="#999999" points="1017.92,-102.62 876.67,-102.62 876.67,-72.12 1017.92,-72.12 1017.92,-102.62"/>
<text text-anchor="start" x="884.67" y="-89.12" font-family="Helvetica,sans-Serif" font-size="10.00">typed_linear_algebra</text>
<text text-anchor="middle" x="947.3" y="-77.88" font-family="Helvetica,sans-Serif" font-size="10.00">/algorithm/matrix_product.tpp</text>
</a>
</g>
</g>
<!-- Node3&#45;&gt;Node22 -->
<g id="edge26_Node000003_Node000022" class="edge">
<title>Node3&#45;&gt;Node22</title>
<g id="a_edge26_Node000003_Node000022"><a xlink:title=" ">
<path fill="none" stroke="#63b8ff" d="M1881.89,-159.05C1740.23,-159.7 1348.67,-156.61 1027.3,-108.25 1022.09,-107.47 1016.72,-106.5 1011.35,-105.41"/>
<polygon fill="#63b8ff" stroke="#63b8ff" points="1012.37,-102.05 1001.85,-103.36 1010.89,-108.89 1012.37,-102.05"/>
</a>
</g>
</g>
<!-- Node23 -->
<g id="Node000023" class="node">
<title>Node23</title>
<g id="a_Node000023"><a xlink:title=" ">
<polygon fill="#e0e0e0" stroke="#999999" points="1148.3,-108.25 1036.3,-108.25 1036.3,-66.5 1148.3,-66.5 1148.3,-108.25"/>
<text text-anchor="start" x="1044.3" y="-94.75" font-family="Helvetica,sans-Serif" font-size="10.00">typed_linear_algebra</text>
<text text-anchor="start" x="1044.3" y="-83.5" font-family="Helvetica,sans-Serif" font-size="10.00">/algorithm/matrix_rank</text>
<text text-anchor="middle" x="1092.3" y="-72.25" font-family="Helvetica,sans-Serif" font-size="10.00">_1_update.tpp</text>
</a>
</g>
</g>
<!-- Node3&#45;&gt;Node23 -->
<g id="edge27_Node000003_Node000023" class="edge">
<title>Node3&#45;&gt;Node23</title>
<g id="a_edge27_Node000003_Node000023"><a xlink:title=" ">
<path fill="none" stroke="#63b8ff" d="M1881.94,-159.31C1755.98,-160.25 1434.56,-157.37 1159.47,-108.41"/>
<polygon fill="#63b8ff" stroke="#63b8ff" points="1160.42,-105.03 1149.96,-106.69 1159.18,-111.92 1160.42,-105.03"/>
</a>
</g>
</g>
<!-- Node24 -->
<g id="Node000024" class="node">
<title>Node24</title>
<g id="a_Node000024"><a xlink:title=" ">
<polygon fill="#e0e0e0" stroke="#999999" points="1286.42,-108.25 1166.17,-108.25 1166.17,-66.5 1286.42,-66.5 1286.42,-108.25"/>
<text text-anchor="start" x="1174.17" y="-94.75" font-family="Helvetica,sans-Serif" font-size="10.00">typed_linear_algebra</text>
<text text-anchor="start" x="1174.17" y="-83.5" font-family="Helvetica,sans-Serif" font-size="10.00">/algorithm/matrix_vector</text>
<text text-anchor="middle" x="1226.3" y="-72.25" font-family="Helvetica,sans-Serif" font-size="10.00">_product.tpp</text>
</a>
</g>
</g>
<!-- Node3&#45;&gt;Node24 -->
<g id="edge28_Node000003_Node000024" class="edge">
<title>Node3&#45;&gt;Node24</title>
<g id="a_edge28_Node000003_Node000024"><a xlink:title=" ">
<path fill="none" stroke="#63b8ff" d="M1881.79,-157.93C1772.46,-155.99 1518.64,-147.47 1297.86,-108.52"/>
<polygon fill="#63b8ff" stroke="#63b8ff" points="1298.66,-105.11 1288.2,-106.79 1297.43,-112 1298.66,-105.11"/>
</a>
</g>
</g>
<!-- Node25 -->
<g id="Node000025" class="node">
<title>Node25</title>
<g id="a_Node000025"><a xlink:title=" ">
<polygon fill="#e0e0e0" stroke="#999999" points="1408.55,-102.62 1304.05,-102.62 1304.05,-72.12 1408.55,-72.12 1408.55,-102.62"/>
<text text-anchor="start" x="1312.05" y="-89.12" font-family="Helvetica,sans-Serif" font-size="10.00">typed_linear_algebra</text>
<text text-anchor="middle" x="1356.3" y="-77.88" font-family="Helvetica,sans-Serif" font-size="10.00">/algorithm/minus.tpp</text>
</a>
</g>
</g>
<!-- Node3&#45;&gt;Node25 -->
<g id="edge29_Node000003_Node000025" class="edge">
<title>Node3&#45;&gt;Node25</title>
<g id="a_edge29_Node000003_Node000025"><a xlink:title=" ">
<path fill="none" stroke="#63b8ff" d="M1881.92,-157.13C1786.77,-153.88 1584.34,-143.11 1417.3,-108.25 1414.33,-107.63 1411.31,-106.92 1408.27,-106.14"/>
<polygon fill="#63b8ff" stroke="#63b8ff" points="1409.34,-102.81 1398.77,-103.49 1407.46,-109.55 1409.34,-102.81"/>
</a>
</g>
</g>
<!-- Node26 -->
<g id="Node000026" class="node">
<title>Node26</title>
<g id="a_Node000026"><a xlink:title=" ">
<polygon fill="#e0e0e0" stroke="#999999" points="1536.17,-102.62 1426.42,-102.62 1426.42,-72.12 1536.17,-72.12 1536.17,-102.62"/>
<text text-anchor="start" x="1434.42" y="-89.12" font-family="Helvetica,sans-Serif" font-size="10.00">typed_linear_algebra</text>
<text text-anchor="middle" x="1481.3" y="-77.88" font-family="Helvetica,sans-Serif" font-size="10.00">/algorithm/product.tpp</text>
</a>
</g>
</g>
<!-- Node3&#45;&gt;Node26 -->
<g id="edge30_Node000003_Node000026" class="edge">
<title>Node3&#45;&gt;Node26</title>
<g id="a_edge30_Node000003_Node000026"><a xlink:title=" ">
<path fill="none" stroke="#63b8ff" d="M1881.71,-154.49C1805.66,-148.22 1663.83,-134.07 1545.3,-108.25 1542.31,-107.6 1539.26,-106.87 1536.19,-106.09"/>
<polygon fill="#63b8ff" stroke="#63b8ff" points="1537.12,-102.72 1526.56,-103.47 1535.29,-109.47 1537.12,-102.72"/>
</a>
</g>
</g>
<!-- Node27 -->
<g id="Node000027" class="node">
<title>Node27</title>
<g id="a_Node000027"><a xlink:title=" ">
<polygon fill="#e0e0e0" stroke="#999999" points="1658.55,-102.62 1554.05,-102.62 1554.05,-72.12 1658.55,-72.12 1658.55,-102.62"/>
<text text-anchor="start" x="1562.05" y="-89.12" font-family="Helvetica,sans-Serif" font-size="10.00">typed_linear_algebra</text>
<text text-anchor="middle" x="1606.3" y="-77.88" font-family="Helvetica,sans-Serif" font-size="10.00">/algorithm/scale.tpp</text>
</a>
</g>
</g>
<!-- Node3&#45;&gt;Node27 -->
<g id="edge31_Node000003_Node000027" class="edge">
<title>Node3&#45;&gt;Node27</title>
<g id="a_edge31_Node000003_Node000027"><a xlink:title=" ">
<path fill="none" stroke="#63b8ff" d="M1881.71,-150.32C1827.24,-141.67 1741.38,-126.74 1668.3,-108.25 1665.85,-107.63 1663.35,-106.97 1660.84,-106.27"/>
<polygon fill="#63b8ff" stroke="#63b8ff" points="1661.83,-102.92 1651.25,-103.49 1659.88,-109.64 1661.83,-102.92"/>
</a>
</g>
</g>
<!-- Node28 -->
<g id="Node000028" class="node">
<title>Node28</title>
<g id="a_Node000028"><a xlink:title=" ">
<polygon fill="#e0e0e0" stroke="#999999" points="1789.67,-102.62 1676.92,-102.62 1676.92,-72.12 1789.67,-72.12 1789.67,-102.62"/>
<text text-anchor="start" x="1684.92" y="-89.12" font-family="Helvetica,sans-Serif" font-size="10.00">typed_linear_algebra</text>
<text text-anchor="middle" x="1733.3" y="-77.88" font-family="Helvetica,sans-Serif" font-size="10.00">/algorithm/subtract.tpp</text>
</a>
</g>
</g>
<!-- Node3&#45;&gt;Node28 -->
<g id="edge32_Node000003_Node000028" class="edge">
<title>Node3&#45;&gt;Node28</title>
<g id="a_edge32_Node000003_Node000028"><a xlink:title=" ">
<path fill="none" stroke="#63b8ff" d="M1893.74,-143.8C1862.48,-133 1819.8,-118.26 1786.32,-106.69"/>
<polygon fill="#63b8ff" stroke="#63b8ff" points="1787.82,-103.51 1777.23,-103.55 1785.53,-110.12 1787.82,-103.51"/>
</a>
</g>
</g>
<!-- Node29 -->
<g id="Node000029" class="node">
<title>Node29</title>
<g id="a_Node000029"><a xlink:title=" ">
<polygon fill="#e0e0e0" stroke="#999999" points="1933.05,-102.62 1807.55,-102.62 1807.55,-72.12 1933.05,-72.12 1933.05,-102.62"/>
<text text-anchor="start" x="1815.55" y="-89.12" font-family="Helvetica,sans-Serif" font-size="10.00">typed_linear_algebra</text>
<text text-anchor="middle" x="1870.3" y="-77.88" font-family="Helvetica,sans-Serif" font-size="10.00">/algorithm/transposed.tpp</text>
</a>
</g>
</g>
<!-- Node3&#45;&gt;Node29 -->
<g id="edge33_Node000003_Node000029" class="edge">
<title>Node3&#45;&gt;Node29</title>
<g id="a_edge33_Node000003_Node000029"><a xlink:title=" ">
<path fill="none" stroke="#63b8ff" d="M1922.62,-143.97C1913.68,-134.47 1901.82,-121.87 1891.66,-111.07"/>
<polygon fill="#63b8ff" stroke="#63b8ff" points="1894.39,-108.87 1884.99,-103.99 1889.3,-113.67 1894.39,-108.87"/>
</a>
</g>
</g>
<!-- Node30 -->
<g id="Node000030" class="node">
<title>Node30</title>
<g id="a_Node000030"><a xlink:title=" ">
<polygon fill="#e0e0e0" stroke="#999999" points="2055.55,-102.62 1951.05,-102.62 1951.05,-72.12 2055.55,-72.12 2055.55,-102.62"/>
<text text-anchor="start" x="1959.05" y="-89.12" font-family="Helvetica,sans-Serif" font-size="10.00">typed_linear_algebra</text>
<text text-anchor="middle" x="2003.3" y="-77.88" font-family="Helvetica,sans-Serif" font-size="10.00">/cast.tpp</text>
</a>
</g>
</g>
<!-- Node3&#45;&gt;Node30 -->
<g id="edge34_Node000003_Node000030" class="edge">
<title>Node3&#45;&gt;Node30</title>
<g id="a_edge34_Node000003_Node000030"><a xlink:title=" ">
<path fill="none" stroke="#63b8ff" d="M1950.18,-143.97C1959.25,-134.47 1971.29,-121.87 1981.61,-111.07"/>
<polygon fill="#63b8ff" stroke="#63b8ff" points="1984.01,-113.63 1988.38,-103.98 1978.95,-108.79 1984.01,-113.63"/>
</a>
</g>
</g>
<!-- Node31 -->
<g id="Node000031" class="node">
<title>Node31</title>
<g id="a_Node000031"><a xlink:title=" ">
<polygon fill="#e0e0e0" stroke="#999999" points="2178.55,-102.62 2074.05,-102.62 2074.05,-72.12 2178.55,-72.12 2178.55,-102.62"/>
<text text-anchor="start" x="2082.05" y="-89.12" font-family="Helvetica,sans-Serif" font-size="10.00">typed_linear_algebra</text>
<text text-anchor="middle" x="2126.3" y="-77.88" font-family="Helvetica,sans-Serif" font-size="10.00">/chrono.tpp</text>
</a>
</g>
</g>
<!-- Node3&#45;&gt;Node31 -->
<g id="edge35_Node000003_Node000031" class="edge">
<title>Node3&#45;&gt;Node31</title>
<g id="a_edge35_Node000003_Node000031"><a xlink:title=" ">
<path fill="none" stroke="#63b8ff" d="M1976.13,-143.8C2005.13,-133.09 2044.64,-118.51 2075.85,-106.99"/>
<polygon fill="#63b8ff" stroke="#63b8ff" points="2076.93,-110.33 2085.1,-103.58 2074.5,-103.76 2076.93,-110.33"/>
</a>
</g>
</g>
<!-- Node32 -->
<g id="Node000032" class="node">
<title>Node32</title>
<g id="a_Node000032"><a xlink:title=" ">
<polygon fill="#e0e0e0" stroke="#999999" points="2301.55,-102.62 2197.05,-102.62 2197.05,-72.12 2301.55,-72.12 2301.55,-102.62"/>
<text text-anchor="start" x="2205.05" y="-89.12" font-family="Helvetica,sans-Serif" font-size="10.00">typed_linear_algebra</text>
<text text-anchor="middle" x="2249.3" y="-77.88" font-family="Helvetica,sans-Serif" font-size="10.00">/common_type.tpp</text>
</a>
</g>
</g>
<!-- Node3&#45;&gt;Node32 -->
<g id="edge36_Node000003_Node000032" class="edge">
<title>Node3&#45;&gt;Node32</title>
<g id="a_edge36_Node000003_Node000032"><a xlink:title=" ">
<path fill="none" stroke="#63b8ff" d="M1990.55,-149.46C2041.66,-140.51 2120.19,-125.66 2187.3,-108.25 2189.7,-107.63 2192.14,-106.97 2194.6,-106.28"/>
<polygon fill="#63b8ff" stroke="#63b8ff" points="2195.37,-109.7 2203.99,-103.53 2193.41,-102.98 2195.37,-109.7"/>
</a>
</g>
</g>
<!-- Node33 -->
<g id="Node000033" class="node">
<title>Node33</title>
<g id="a_Node000033"><a xlink:title=" ">
<polygon fill="#e0e0e0" stroke="#999999" points="2424.55,-102.62 2320.05,-102.62 2320.05,-72.12 2424.55,-72.12 2424.55,-102.62"/>
<text text-anchor="start" x="2328.05" y="-89.12" font-family="Helvetica,sans-Serif" font-size="10.00">typed_linear_algebra</text>
<text text-anchor="middle" x="2372.3" y="-77.88" font-family="Helvetica,sans-Serif" font-size="10.00">/format.tpp</text>
</a>
</g>
</g>
<!-- Node3&#45;&gt;Node33 -->
<g id="edge37_Node000003_Node000033" class="edge">
<title>Node3&#45;&gt;Node33</title>
<g id="a_edge37_Node000003_Node000033"><a xlink:title=" ">
<path fill="none" stroke="#63b8ff" d="M1990.71,-154.22C2063.99,-147.78 2198.14,-133.55 2310.3,-108.25 2313.09,-107.62 2315.95,-106.92 2318.81,-106.17"/>
<polygon fill="#63b8ff" stroke="#63b8ff" points="2319.74,-109.54 2328.42,-103.47 2317.85,-102.8 2319.74,-109.54"/>
</a>
</g>
</g>
<!-- Node34 -->
<g id="Node000034" class="node">
<title>Node34</title>
<g id="a_Node000034"><a xlink:title=" ">
<polygon fill="#e0e0e0" stroke="#999999" points="2547.55,-102.62 2443.05,-102.62 2443.05,-72.12 2547.55,-72.12 2547.55,-102.62"/>
<text text-anchor="start" x="2451.05" y="-89.12" font-family="Helvetica,sans-Serif" font-size="10.00">typed_linear_algebra</text>
<text text-anchor="middle" x="2495.3" y="-77.88" font-family="Helvetica,sans-Serif" font-size="10.00">/tuple.tpp</text>
</a>
</g>
</g>
<!-- Node3&#45;&gt;Node34 -->
<g id="edge38_Node000003_Node000034" class="edge">
<title>Node3&#45;&gt;Node34</title>
<g id="a_edge38_Node000003_Node000034"><a xlink:title=" ">
<path fill="none" stroke="#63b8ff" d="M1990.92,-156.71C2083.03,-152.87 2274.74,-141.3 2433.3,-108.25 2436.41,-107.6 2439.58,-106.86 2442.77,-106.04"/>
<polygon fill="#63b8ff" stroke="#63b8ff" points="2443.43,-109.49 2452.13,-103.46 2441.56,-102.74 2443.43,-109.49"/>
</a>
</g>
</g>
<!-- Node35 -->
<g id="Node000035" class="node">
<title>Node35</title>
<g id="a_Node000035"><a xlink:title=" ">
<polygon fill="#e0e0e0" stroke="#999999" points="2688.92,-102.62 2565.67,-102.62 2565.67,-72.12 2688.92,-72.12 2688.92,-102.62"/>
<text text-anchor="start" x="2573.67" y="-89.12" font-family="Helvetica,sans-Serif" font-size="10.00">typed_linear_algebra</text>
<text text-anchor="middle" x="2627.3" y="-77.88" font-family="Helvetica,sans-Serif" font-size="10.00">/typed_linear_algebra.tpp</text>
</a>
</g>
</g>
<!-- Node3&#45;&gt;Node35 -->
<g id="edge39_Node000003_Node000035" class="edge">
<title>Node3&#45;&gt;Node35</title>
<g id="a_edge39_Node000003_Node000035"><a xlink:title=" ">
<path fill="none" stroke="#63b8ff" d="M1990.65,-157.59C2099.06,-155.02 2349.53,-145.21 2556.3,-108.25 2560.31,-107.53 2564.43,-106.68 2568.56,-105.75"/>
<polygon fill="#63b8ff" stroke="#63b8ff" points="2569.1,-109.22 2577.99,-103.47 2567.45,-102.42 2569.1,-109.22"/>
</a>
</g>
</g>
<!-- Node4&#45;&gt;Node5 -->
<g id="edge4_Node000004_Node000005" class="edge">
<title>Node4&#45;&gt;Node5</title>
<g id="a_edge4_Node000004_Node000005"><a xlink:title=" ">
<path fill="none" stroke="#63b8ff" d="M2822.03,-71.67C2839.1,-61.53 2862.03,-47.9 2880.88,-36.7"/>
<polygon fill="#63b8ff" stroke="#63b8ff" points="2882.48,-39.82 2889.29,-31.7 2878.91,-33.8 2882.48,-39.82"/>
</a>
</g>
</g>
<!-- Node6 -->
<g id="Node000006" class="node">
<title>Node6</title>
<g id="a_Node000006"><a xlink:title=" ">
<polygon fill="#e0e0e0" stroke="#999999" points="2710.8,-24.88 2673.8,-24.88 2673.8,-5.63 2710.8,-5.63 2710.8,-24.88"/>
<text text-anchor="middle" x="2692.3" y="-11.38" font-family="Helvetica,sans-Serif" font-size="10.00">array</text>
</a>
</g>
</g>
<!-- Node4&#45;&gt;Node6 -->
<g id="edge5_Node000004_Node000006" class="edge">
<title>Node4&#45;&gt;Node6</title>
<g id="a_edge5_Node000004_Node000006"><a xlink:title=" ">
<path fill="none" stroke="#63b8ff" d="M2775.28,-71.67C2757.71,-59.94 2733.16,-43.54 2715.32,-31.63"/>
<polygon fill="#63b8ff" stroke="#63b8ff" points="2717.46,-28.85 2707.2,-26.21 2713.57,-34.67 2717.46,-28.85"/>
</a>
</g>
</g>
<!-- Node4&#45;&gt;Node7 -->
<g id="edge6_Node000004_Node000007" class="edge">
<title>Node4&#45;&gt;Node7</title>
<g id="a_edge6_Node000004_Node000007"><a xlink:title=" ">
<path fill="none" stroke="#63b8ff" d="M2749.43,-71.66C2743.34,-69.88 2737.18,-68.12 2731.3,-66.5 2667.26,-48.92 2649.62,-50.47 2586.3,-30.5 2584.93,-30.07 2583.54,-29.61 2582.14,-29.14"/>
<polygon fill="#63b8ff" stroke="#63b8ff" points="2583.46,-25.9 2572.87,-25.81 2581.09,-32.48 2583.46,-25.9"/>
</a>
</g>
</g>
<!-- Node4&#45;&gt;Node8 -->
<g id="edge7_Node000004_Node000008" class="edge">
<title>Node4&#45;&gt;Node8</title>
<g id="a_edge7_Node000004_Node000008"><a xlink:title=" ">
<path fill="none" stroke="#63b8ff" d="M2849.68,-71.83C2886.09,-61.33 2935.56,-46.27 2978.3,-30.5 2979.09,-30.21 2979.88,-29.91 2980.69,-29.6"/>
<polygon fill="#63b8ff" stroke="#63b8ff" points="2981.84,-32.91 2989.79,-25.91 2979.21,-26.42 2981.84,-32.91"/>
</a>
</g>
</g>
<!-- Node9 -->
<g id="Node000009" class="node">
<title>Node9</title>
<g id="a_Node000009"><a xlink:title=" ">
<polygon fill="#e0e0e0" stroke="#999999" points="2787.3,-24.88 2729.3,-24.88 2729.3,-5.63 2787.3,-5.63 2787.3,-24.88"/>
<text text-anchor="middle" x="2758.3" y="-11.38" font-family="Helvetica,sans-Serif" font-size="10.00">functional</text>
</a>
</g>
</g>
<!-- Node4&#45;&gt;Node9 -->
<g id="edge8_Node000004_Node000009" class="edge">
<title>Node4&#45;&gt;Node9</title>
<g id="a_edge8_Node000004_Node000009"><a xlink:title=" ">
<path fill="none" stroke="#63b8ff" d="M2789.21,-71.85C2783.26,-61.14 2775.12,-46.5 2768.68,-34.93"/>
<polygon fill="#63b8ff" stroke="#63b8ff" points="2771.82,-33.37 2763.9,-26.33 2765.7,-36.77 2771.82,-33.37"/>
</a>
</g>
</g>
<!-- Node4&#45;&gt;Node10 -->
<g id="edge9_Node000004_Node000010" class="edge">
<title>Node4&#45;&gt;Node10</title>
<g id="a_edge9_Node000004_Node000010"><a xlink:title=" ">
<path fill="none" stroke="#63b8ff" d="M2849.93,-78.37C2900.68,-69.75 2979.17,-54.02 3044.3,-30.5 3044.8,-30.32 3045.3,-30.13 3045.8,-29.94"/>
<polygon fill="#63b8ff" stroke="#63b8ff" points="3047.23,-33.13 3054.93,-25.86 3044.37,-26.74 3047.23,-33.13"/>
</a>
</g>
</g>
<!-- Node4&#45;&gt;Node11 -->
<g id="edge10_Node000004_Node000011" class="edge">
<title>Node4&#45;&gt;Node11</title>
<g id="a_edge10_Node000004_Node000011"><a xlink:title=" ">
<path fill="none" stroke="#63b8ff" d="M2761.24,-71.67C2730.84,-59.28 2687.7,-41.69 2658.23,-29.68"/>
<polygon fill="#63b8ff" stroke="#63b8ff" points="2659.63,-26.47 2649.05,-25.94 2656.99,-32.95 2659.63,-26.47"/>
</a>
</g>
</g>
<!-- Node4&#45;&gt;Node12 -->
<g id="edge11_Node000004_Node000012" class="edge">
<title>Node4&#45;&gt;Node12</title>
<g id="a_edge11_Node000004_Node000012"><a xlink:title=" ">
<path fill="none" stroke="#63b8ff" d="M2802.89,-71.85C2806.92,-61.36 2812.42,-47.1 2816.83,-35.65"/>
<polygon fill="#63b8ff" stroke="#63b8ff" points="2820.05,-37.01 2820.38,-26.42 2813.52,-34.49 2820.05,-37.01"/>
</a>
</g>
</g>
</g>
</svg>
