<?xml version="1.0" encoding="UTF-8" standalone="no"?>
<!DOCTYPE svg PUBLIC "-//W3C//DTD SVG 1.1//EN"
 "http://www.w3.org/Graphics/SVG/1.1/DTD/svg11.dtd">
<!-- Generated by graphviz version 12.2.0 (20241103.1931)
 -->
<!-- Title: /github/workspace/support/eigen/fcarouge/eigen.hpp Pages: 1 -->
<svg width="1819pt" height="293pt"
 viewBox="0.00 0.00 1819.38 293.25" xmlns="http://www.w3.org/2000/svg" xmlns:xlink="http://www.w3.org/1999/xlink">
<g id="graph0" class="graph" transform="scale(1 1) rotate(0) translate(4 289.25)">
<title>/github/workspace/support/eigen/fcarouge/eigen.hpp</title>
<!-- Node1 -->
<g id="Node000001" class="node">
<title>Node1</title>
<g id="a_Node000001"><a xlink:title="Linear algebra facade for Eigen3 third party implementation.">
<polygon fill="#999999" stroke="#666666" points="913.25,-285.25 782.5,-285.25 782.5,-254.75 913.25,-254.75 913.25,-285.25"/>
<text text-anchor="start" x="790.5" y="-271.75" font-family="Helvetica,sans-Serif" font-size="10.00">/github/workspace/support</text>
<text text-anchor="middle" x="847.88" y="-260.5" font-family="Helvetica,sans-Serif" font-size="10.00">/eigen/fcarouge/eigen.hpp</text>
</a>
</g>
</g>
<!-- Node2 -->
<g id="Node000002" class="node">
<title>Node2</title>
<g id="a_Node000002"><a xlink:href="typed__linear__algebra_8hpp.xhtml" target="_top" xlink:title="Typed linear algebra implementation.">
<polygon fill="white" stroke="#666666" points="853,-218.75 744.75,-218.75 744.75,-188.25 853,-188.25 853,-218.75"/>
<text text-anchor="start" x="752.75" y="-205.25" font-family="Helvetica,sans-Serif" font-size="10.00">fcarouge/typed_linear</text>
<text text-anchor="middle" x="798.88" y="-194" font-family="Helvetica,sans-Serif" font-size="10.00">_algebra.hpp</text>
</a>
</g>
</g>
<!-- Node1&#45;&gt;Node2 -->
<g id="edge1_Node000001_Node000002" class="edge">
<title>Node1&#45;&gt;Node2</title>
<g id="a_edge1_Node000001_Node000002"><a xlink:title=" ">
<path fill="none" stroke="#63b8ff" d="M836.76,-254.36C830.87,-246.61 823.49,-236.9 816.81,-228.11"/>
<polygon fill="#63b8ff" stroke="#63b8ff" points="819.7,-226.13 810.87,-220.28 814.13,-230.36 819.7,-226.13"/>
</a>
</g>
</g>
<!-- Node11 -->
<g id="Node000011" class="node">
<title>Node11</title>
<g id="a_Node000011"><a xlink:title=" ">
<polygon fill="#e0e0e0" stroke="#999999" points="43.75,-74.5 0,-74.5 0,-55.25 43.75,-55.25 43.75,-74.5"/>
<text text-anchor="middle" x="21.88" y="-61" font-family="Helvetica,sans-Serif" font-size="10.00">format</text>
</a>
</g>
</g>
<!-- Node1&#45;&gt;Node11 -->
<g id="edge26_Node000001_Node000011" class="edge">
<title>Node1&#45;&gt;Node11</title>
<g id="a_edge26_Node000001_Node000011"><a xlink:title=" ">
<path fill="none" stroke="#63b8ff" d="M782.26,-269.47C607.22,-269.26 135.44,-258.64 31.88,-152.25 15.12,-135.04 15.33,-105.85 17.89,-86.22"/>
<polygon fill="#63b8ff" stroke="#63b8ff" points="21.33,-86.86 19.51,-76.42 14.43,-85.72 21.33,-86.86"/>
</a>
</g>
</g>
<!-- Node22 -->
<g id="Node000022" class="node">
<title>Node22</title>
<g id="a_Node000022"><a xlink:title=" ">
<polygon fill="#e0e0e0" stroke="#999999" points="922.5,-213.12 871.25,-213.12 871.25,-193.88 922.5,-193.88 922.5,-213.12"/>
<text text-anchor="middle" x="896.88" y="-199.62" font-family="Helvetica,sans-Serif" font-size="10.00">sstream</text>
</a>
</g>
</g>
<!-- Node1&#45;&gt;Node22 -->
<g id="edge27_Node000001_Node000022" class="edge">
<title>Node1&#45;&gt;Node22</title>
<g id="a_edge27_Node000001_Node000022"><a xlink:title=" ">
<path fill="none" stroke="#63b8ff" d="M858.99,-254.36C866.19,-244.89 875.62,-232.48 883.27,-222.41"/>
<polygon fill="#63b8ff" stroke="#63b8ff" points="885.99,-224.61 889.26,-214.53 880.42,-220.37 885.99,-224.61"/>
</a>
</g>
</g>
<!-- Node23 -->
<g id="Node000023" class="node">
<title>Node23</title>
<g id="a_Node000023"><a xlink:title=" ">
<polygon fill="#e0e0e0" stroke="#999999" points="1007.38,-213.12 940.38,-213.12 940.38,-193.88 1007.38,-193.88 1007.38,-213.12"/>
<text text-anchor="middle" x="973.88" y="-199.62" font-family="Helvetica,sans-Serif" font-size="10.00">Eigen/Eigen</text>
</a>
</g>
</g>
<!-- Node1&#45;&gt;Node23 -->
<g id="edge28_Node000001_Node000023" class="edge">
<title>Node1&#45;&gt;Node23</title>
<g id="a_edge28_Node000001_Node000023"><a xlink:title=" ">
<path fill="none" stroke="#63b8ff" d="M876.47,-254.36C897.36,-243.67 925.55,-229.24 946.23,-218.65"/>
<polygon fill="#63b8ff" stroke="#63b8ff" points="947.62,-221.87 954.93,-214.2 944.43,-215.64 947.62,-221.87"/>
</a>
</g>
</g>
<!-- Node3 -->
<g id="Node000003" class="node">
<title>Node3</title>
<g id="a_Node000003"><a xlink:href="typed__linear__algebra__forward_8hpp.xhtml" target="_top" xlink:title="Authoritative forward declaration header.">
<polygon fill="white" stroke="#666666" points="1672.12,-146.62 1567.62,-146.62 1567.62,-116.12 1672.12,-116.12 1672.12,-146.62"/>
<text text-anchor="start" x="1575.62" y="-133.12" font-family="Helvetica,sans-Serif" font-size="10.00">typed_linear_algebra</text>
<text text-anchor="middle" x="1619.88" y="-121.88" font-family="Helvetica,sans-Serif" font-size="10.00">_forward.hpp</text>
</a>
</g>
</g>
<!-- Node2&#45;&gt;Node3 -->
<g id="edge2_Node000002_Node000003" class="edge">
<title>Node2&#45;&gt;Node3</title>
<g id="a_edge2_Node000002_Node000003"><a xlink:title=" ">
<path fill="none" stroke="#63b8ff" d="M853.41,-189.57C856.26,-189.08 859.1,-188.63 861.88,-188.25 1169.16,-145.88 1253.88,-208.79 1558.88,-152.25 1562.22,-151.63 1565.63,-150.88 1569.05,-150.03"/>
<polygon fill="#63b8ff" stroke="#63b8ff" points="1569.73,-153.47 1578.44,-147.45 1567.87,-146.72 1569.73,-153.47"/>
</a>
</g>
</g>
<!-- Node4 -->
<g id="Node000004" class="node">
<title>Node4</title>
<g id="a_Node000004"><a xlink:href="format_8hpp.xhtml" target="_top" xlink:title="Formatting support for the typed matrix.">
<polygon fill="white" stroke="#666666" points="192.12,-146.62 87.62,-146.62 87.62,-116.12 192.12,-116.12 192.12,-146.62"/>
<text text-anchor="start" x="95.62" y="-133.12" font-family="Helvetica,sans-Serif" font-size="10.00">typed_linear_algebra</text>
<text text-anchor="middle" x="139.88" y="-121.88" font-family="Helvetica,sans-Serif" font-size="10.00">_internal/format.hpp</text>
</a>
</g>
</g>
<!-- Node2&#45;&gt;Node4 -->
<g id="edge3_Node000002_Node000004" class="edge">
<title>Node2&#45;&gt;Node4</title>
<g id="a_edge3_Node000002_Node000004"><a xlink:title=" ">
<path fill="none" stroke="#63b8ff" d="M744.27,-202.11C638.39,-200.44 398.22,-192.13 200.88,-152.25 197.75,-151.62 194.57,-150.88 191.37,-150.07"/>
<polygon fill="#63b8ff" stroke="#63b8ff" points="192.57,-146.77 182,-147.46 190.7,-153.51 192.57,-146.77"/>
</a>
</g>
</g>
<!-- Node5 -->
<g id="Node000005" class="node">
<title>Node5</title>
<g id="a_Node000005"><a xlink:href="utility_8hpp.xhtml" target="_top" xlink:title=" ">
<polygon fill="white" stroke="#666666" points="1687.12,-74.5 1630.62,-74.5 1630.62,-55.25 1687.12,-55.25 1687.12,-74.5"/>
<text text-anchor="middle" x="1658.88" y="-61" font-family="Helvetica,sans-Serif" font-size="10.00">utility.hpp</text>
</a>
</g>
</g>
<!-- Node2&#45;&gt;Node5 -->
<g id="edge11_Node000002_Node000005" class="edge">
<title>Node2&#45;&gt;Node5</title>
<g id="a_edge11_Node000002_Node000005"><a xlink:title=" ">
<path fill="none" stroke="#63b8ff" d="M853.4,-189.54C856.26,-189.06 859.1,-188.62 861.88,-188.25 907.02,-182.2 1649.39,-185.15 1680.88,-152.25 1698.39,-133.95 1684.51,-103.74 1672.23,-84.33"/>
<polygon fill="#63b8ff" stroke="#63b8ff" points="1675.13,-82.37 1666.62,-76.06 1669.33,-86.3 1675.13,-82.37"/>
</a>
</g>
</g>
<!-- Node6 -->
<g id="Node000006" class="node">
<title>Node6</title>
<g id="a_Node000006"><a xlink:title=" ">
<polygon fill="#e0e0e0" stroke="#999999" points="1756.75,-19.25 1701,-19.25 1701,0 1756.75,0 1756.75,-19.25"/>
<text text-anchor="middle" x="1728.88" y="-5.75" font-family="Helvetica,sans-Serif" font-size="10.00">concepts</text>
</a>
</g>
</g>
<!-- Node2&#45;&gt;Node6 -->
<g id="edge12_Node000002_Node000006" class="edge">
<title>Node2&#45;&gt;Node6</title>
<g id="a_edge12_Node000002_Node000006"><a xlink:title=" ">
<path fill="none" stroke="#63b8ff" d="M853.4,-189.54C856.26,-189.06 859.1,-188.62 861.88,-188.25 954.14,-175.93 1627.83,-212.4 1698.88,-152.25 1734.28,-122.28 1734.23,-61.91 1731.44,-30.55"/>
<polygon fill="#63b8ff" stroke="#63b8ff" points="1734.95,-30.46 1730.38,-20.9 1727.99,-31.22 1734.95,-30.46"/>
</a>
</g>
</g>
<!-- Node8 -->
<g id="Node000008" class="node">
<title>Node8</title>
<g id="a_Node000008"><a xlink:title=" ">
<polygon fill="#e0e0e0" stroke="#999999" points="1811.38,-19.25 1774.38,-19.25 1774.38,0 1811.38,0 1811.38,-19.25"/>
<text text-anchor="middle" x="1792.88" y="-5.75" font-family="Helvetica,sans-Serif" font-size="10.00">tuple</text>
</a>
</g>
</g>
<!-- Node2&#45;&gt;Node8 -->
<g id="edge16_Node000002_Node000008" class="edge">
<title>Node2&#45;&gt;Node8</title>
<g id="a_edge16_Node000002_Node000008"><a xlink:title=" ">
<path fill="none" stroke="#63b8ff" d="M853.4,-189.53C856.26,-189.05 859.1,-188.62 861.88,-188.25 957.12,-175.6 1645.78,-205.33 1725.88,-152.25 1767.91,-124.39 1784.2,-62.61 1789.99,-30.65"/>
<polygon fill="#63b8ff" stroke="#63b8ff" points="1793.38,-31.57 1791.53,-21.14 1786.48,-30.45 1793.38,-31.57"/>
</a>
</g>
</g>
<!-- Node10 -->
<g id="Node000010" class="node">
<title>Node10</title>
<g id="a_Node000010"><a xlink:title=" ">
<polygon fill="#e0e0e0" stroke="#999999" points="137,-74.5 88.75,-74.5 88.75,-55.25 137,-55.25 137,-74.5"/>
<text text-anchor="middle" x="112.88" y="-61" font-family="Helvetica,sans-Serif" font-size="10.00">cstddef</text>
</a>
</g>
</g>
<!-- Node2&#45;&gt;Node10 -->
<g id="edge13_Node000002_Node000010" class="edge">
<title>Node2&#45;&gt;Node10</title>
<g id="a_edge13_Node000002_Node000010"><a xlink:title=" ">
<path fill="none" stroke="#63b8ff" d="M744.42,-202.87C584.39,-203.38 123.98,-200.62 78.88,-152.25 60.73,-132.79 80.13,-102.5 96.2,-83.45"/>
<polygon fill="#63b8ff" stroke="#63b8ff" points="98.81,-85.78 102.85,-75.99 93.58,-81.12 98.81,-85.78"/>
</a>
</g>
</g>
<!-- Node2&#45;&gt;Node11 -->
<g id="edge14_Node000002_Node000011" class="edge">
<title>Node2&#45;&gt;Node11</title>
<g id="a_edge14_Node000002_Node000011"><a xlink:title=" ">
<path fill="none" stroke="#63b8ff" d="M744.27,-201.77C584.27,-199.22 124.19,-188.74 67.88,-152.25 44.62,-137.18 32.33,-106.26 26.47,-85.8"/>
<polygon fill="#63b8ff" stroke="#63b8ff" points="29.92,-85.18 24.04,-76.37 23.14,-86.92 29.92,-85.18"/>
</a>
</g>
</g>
<!-- Node12 -->
<g id="Node000012" class="node">
<title>Node12</title>
<g id="a_Node000012"><a xlink:title=" ">
<polygon fill="#e0e0e0" stroke="#999999" points="281.62,-141 210.12,-141 210.12,-121.75 281.62,-121.75 281.62,-141"/>
<text text-anchor="middle" x="245.88" y="-127.5" font-family="Helvetica,sans-Serif" font-size="10.00">initializer_list</text>
</a>
</g>
</g>
<!-- Node2&#45;&gt;Node12 -->
<g id="edge15_Node000002_Node000012" class="edge">
<title>Node2&#45;&gt;Node12</title>
<g id="a_edge15_Node000002_Node000012"><a xlink:title=" ">
<path fill="none" stroke="#63b8ff" d="M744.49,-202.72C650.44,-201.87 452.01,-194.64 290.88,-152.25 285.04,-150.71 278.99,-148.51 273.3,-146.13"/>
<polygon fill="#63b8ff" stroke="#63b8ff" points="274.87,-142.99 264.31,-142.07 271.99,-149.37 274.87,-142.99"/>
</a>
</g>
</g>
<!-- Node13 -->
<g id="Node000013" class="node">
<title>Node13</title>
<g id="a_Node000013"><a xlink:title=" ">
<polygon fill="#e0e0e0" stroke="#999999" points="338.12,-141 299.62,-141 299.62,-121.75 338.12,-121.75 338.12,-141"/>
<text text-anchor="middle" x="318.88" y="-127.5" font-family="Helvetica,sans-Serif" font-size="10.00">utility</text>
</a>
</g>
</g>
<!-- Node2&#45;&gt;Node13 -->
<g id="edge17_Node000002_Node000013" class="edge">
<title>Node2&#45;&gt;Node13</title>
<g id="a_edge17_Node000002_Node000013"><a xlink:title=" ">
<path fill="none" stroke="#63b8ff" d="M744.37,-199.86C640.54,-194.28 418.35,-179.48 346.88,-152.25 343.95,-151.13 341.04,-149.64 338.27,-147.97"/>
<polygon fill="#63b8ff" stroke="#63b8ff" points="340.48,-145.24 330.28,-142.37 336.46,-150.97 340.48,-145.24"/>
</a>
</g>
</g>
<!-- Node14 -->
<g id="Node000014" class="node">
<title>Node14</title>
<g id="a_Node000014"><a xlink:title=" ">
<polygon fill="#e0e0e0" stroke="#999999" points="485.88,-146.62 355.88,-146.62 355.88,-116.12 485.88,-116.12 485.88,-146.62"/>
<text text-anchor="start" x="363.88" y="-133.12" font-family="Helvetica,sans-Serif" font-size="10.00">typed_linear_algebra</text>
<text text-anchor="middle" x="420.88" y="-121.88" font-family="Helvetica,sans-Serif" font-size="10.00">_internal/algorithm/add.tpp</text>
</a>
</g>
</g>
<!-- Node2&#45;&gt;Node14 -->
<g id="edge18_Node000002_Node000014" class="edge">
<title>Node2&#45;&gt;Node14</title>
<g id="a_edge18_Node000002_Node000014"><a xlink:title=" ">
<path fill="none" stroke="#63b8ff" d="M744.48,-195.16C683.42,-186.54 581.54,-171 494.88,-152.25 491.3,-151.48 487.64,-150.64 483.95,-149.76"/>
<polygon fill="#63b8ff" stroke="#63b8ff" points="484.89,-146.39 474.34,-147.39 483.21,-153.18 484.89,-146.39"/>
</a>
</g>
</g>
<!-- Node15 -->
<g id="Node000015" class="node">
<title>Node15</title>
<g id="a_Node000015"><a xlink:title=" ">
<polygon fill="#e0e0e0" stroke="#999999" points="643.75,-146.62 504,-146.62 504,-116.12 643.75,-116.12 643.75,-146.62"/>
<text text-anchor="start" x="512" y="-133.12" font-family="Helvetica,sans-Serif" font-size="10.00">typed_linear_algebra</text>
<text text-anchor="middle" x="573.88" y="-121.88" font-family="Helvetica,sans-Serif" font-size="10.00">_internal/algorithm/divide.tpp</text>
</a>
</g>
</g>
<!-- Node2&#45;&gt;Node15 -->
<g id="edge19_Node000002_Node000015" class="edge">
<title>Node2&#45;&gt;Node15</title>
<g id="a_edge19_Node000002_Node000015"><a xlink:title=" ">
<path fill="none" stroke="#63b8ff" d="M751.71,-187.8C716.76,-176.91 668.93,-162 631.68,-150.39"/>
<polygon fill="#63b8ff" stroke="#63b8ff" points="633.01,-147.14 622.43,-147.51 630.93,-153.82 633.01,-147.14"/>
</a>
</g>
</g>
<!-- Node16 -->
<g id="Node000016" class="node">
<title>Node16</title>
<g id="a_Node000016"><a xlink:title=" ">
<polygon fill="#e0e0e0" stroke="#999999" points="783.75,-152.25 662,-152.25 662,-110.5 783.75,-110.5 783.75,-152.25"/>
<text text-anchor="start" x="670" y="-138.75" font-family="Helvetica,sans-Serif" font-size="10.00">typed_linear_algebra</text>
<text text-anchor="start" x="670" y="-127.5" font-family="Helvetica,sans-Serif" font-size="10.00">_internal/algorithm/equal</text>
<text text-anchor="middle" x="722.88" y="-116.25" font-family="Helvetica,sans-Serif" font-size="10.00">_to.tpp</text>
</a>
</g>
</g>
<!-- Node2&#45;&gt;Node16 -->
<g id="edge20_Node000002_Node000016" class="edge">
<title>Node2&#45;&gt;Node16</title>
<g id="a_edge20_Node000002_Node000016"><a xlink:title=" ">
<path fill="none" stroke="#63b8ff" d="M783.13,-187.97C774.5,-180.01 763.51,-169.87 753.28,-160.43"/>
<polygon fill="#63b8ff" stroke="#63b8ff" points="755.78,-157.97 746.05,-153.76 751.03,-163.12 755.78,-157.97"/>
</a>
</g>
</g>
<!-- Node17 -->
<g id="Node000017" class="node">
<title>Node17</title>
<g id="a_Node000017"><a xlink:title=" ">
<polygon fill="#e0e0e0" stroke="#999999" points="948.12,-146.62 801.62,-146.62 801.62,-116.12 948.12,-116.12 948.12,-146.62"/>
<text text-anchor="start" x="809.62" y="-133.12" font-family="Helvetica,sans-Serif" font-size="10.00">typed_linear_algebra</text>
<text text-anchor="middle" x="874.88" y="-121.88" font-family="Helvetica,sans-Serif" font-size="10.00">_internal/algorithm/product.tpp</text>
</a>
</g>
</g>
<!-- Node2&#45;&gt;Node17 -->
<g id="edge21_Node000002_Node000017" class="edge">
<title>Node2&#45;&gt;Node17</title>
<g id="a_edge21_Node000002_Node000017"><a xlink:title=" ">
<path fill="none" stroke="#63b8ff" d="M814.62,-187.97C825.12,-178.29 839.11,-165.37 850.97,-154.43"/>
<polygon fill="#63b8ff" stroke="#63b8ff" points="853.06,-157.27 858.04,-147.91 848.31,-152.12 853.06,-157.27"/>
</a>
</g>
</g>
<!-- Node18 -->
<g id="Node000018" class="node">
<title>Node18</title>
<g id="a_Node000018"><a xlink:title=" ">
<polygon fill="#e0e0e0" stroke="#999999" points="1121.25,-146.62 966.5,-146.62 966.5,-116.12 1121.25,-116.12 1121.25,-146.62"/>
<text text-anchor="start" x="974.5" y="-133.12" font-family="Helvetica,sans-Serif" font-size="10.00">typed_linear_algebra</text>
<text text-anchor="middle" x="1043.88" y="-121.88" font-family="Helvetica,sans-Serif" font-size="10.00">_internal/algorithm/substract.tpp</text>
</a>
</g>
</g>
<!-- Node2&#45;&gt;Node18 -->
<g id="edge22_Node000002_Node000018" class="edge">
<title>Node2&#45;&gt;Node18</title>
<g id="a_edge22_Node000002_Node000018"><a xlink:title=" ">
<path fill="none" stroke="#63b8ff" d="M850.24,-187.8C888.54,-176.84 941.04,-161.81 981.71,-150.17"/>
<polygon fill="#63b8ff" stroke="#63b8ff" points="982.48,-153.59 991.13,-147.47 980.55,-146.86 982.48,-153.59"/>
</a>
</g>
</g>
<!-- Node19 -->
<g id="Node000019" class="node">
<title>Node19</title>
<g id="a_Node000019"><a xlink:title=" ">
<polygon fill="#e0e0e0" stroke="#999999" points="1302,-146.62 1139.75,-146.62 1139.75,-116.12 1302,-116.12 1302,-146.62"/>
<text text-anchor="start" x="1147.75" y="-133.12" font-family="Helvetica,sans-Serif" font-size="10.00">typed_linear_algebra</text>
<text text-anchor="middle" x="1220.88" y="-121.88" font-family="Helvetica,sans-Serif" font-size="10.00">_internal/algorithm/transposed.tpp</text>
</a>
</g>
</g>
<!-- Node2&#45;&gt;Node19 -->
<g id="edge23_Node000002_Node000019" class="edge">
<title>Node2&#45;&gt;Node19</title>
<g id="a_edge23_Node000002_Node000019"><a xlink:title=" ">
<path fill="none" stroke="#63b8ff" d="M853.45,-189.84C856.29,-189.28 859.12,-188.75 861.88,-188.25 980.16,-166.97 1011.51,-173.09 1129.88,-152.25 1135.08,-151.33 1140.43,-150.33 1145.82,-149.27"/>
<polygon fill="#63b8ff" stroke="#63b8ff" points="1146.28,-152.75 1155.39,-147.34 1144.89,-145.89 1146.28,-152.75"/>
</a>
</g>
</g>
<!-- Node20 -->
<g id="Node000020" class="node">
<title>Node20</title>
<g id="a_Node000020"><a xlink:title=" ">
<polygon fill="#e0e0e0" stroke="#999999" points="1424.12,-146.62 1319.62,-146.62 1319.62,-116.12 1424.12,-116.12 1424.12,-146.62"/>
<text text-anchor="start" x="1327.62" y="-133.12" font-family="Helvetica,sans-Serif" font-size="10.00">typed_linear_algebra</text>
<text text-anchor="middle" x="1371.88" y="-121.88" font-family="Helvetica,sans-Serif" font-size="10.00">_internal/cast.tpp</text>
</a>
</g>
</g>
<!-- Node2&#45;&gt;Node20 -->
<g id="edge24_Node000002_Node000020" class="edge">
<title>Node2&#45;&gt;Node20</title>
<g id="a_edge24_Node000002_Node000020"><a xlink:title=" ">
<path fill="none" stroke="#63b8ff" d="M853.42,-189.66C856.27,-189.15 859.1,-188.67 861.88,-188.25 1059.79,-158.09 1114.57,-191.53 1310.88,-152.25 1314,-151.63 1317.18,-150.89 1320.38,-150.08"/>
<polygon fill="#63b8ff" stroke="#63b8ff" points="1321.05,-153.53 1329.75,-147.49 1319.18,-146.78 1321.05,-153.53"/>
</a>
</g>
</g>
<!-- Node21 -->
<g id="Node000021" class="node">
<title>Node21</title>
<g id="a_Node000021"><a xlink:title=" ">
<polygon fill="#e0e0e0" stroke="#999999" points="1549.62,-152.25 1442.12,-152.25 1442.12,-110.5 1549.62,-110.5 1549.62,-152.25"/>
<text text-anchor="start" x="1450.12" y="-138.75" font-family="Helvetica,sans-Serif" font-size="10.00">typed_linear_algebra</text>
<text text-anchor="start" x="1450.12" y="-127.5" font-family="Helvetica,sans-Serif" font-size="10.00">_internal/typed_linear</text>
<text text-anchor="middle" x="1495.88" y="-116.25" font-family="Helvetica,sans-Serif" font-size="10.00">_algebra.tpp</text>
</a>
</g>
</g>
<!-- Node2&#45;&gt;Node21 -->
<g id="edge25_Node000002_Node000021" class="edge">
<title>Node2&#45;&gt;Node21</title>
<g id="a_edge25_Node000002_Node000021"><a xlink:title=" ">
<path fill="none" stroke="#63b8ff" d="M853.41,-189.61C856.27,-189.11 859.1,-188.65 861.88,-188.25 1109.88,-152.62 1180.83,-197.49 1430.53,-152.42"/>
<polygon fill="#63b8ff" stroke="#63b8ff" points="1431.1,-155.88 1440.3,-150.63 1429.83,-148.99 1431.1,-155.88"/>
</a>
</g>
</g>
<!-- Node4&#45;&gt;Node5 -->
<g id="edge4_Node000004_Node000005" class="edge">
<title>Node4&#45;&gt;Node5</title>
<g id="a_edge4_Node000004_Node000005"><a xlink:title=" ">
<path fill="none" stroke="#63b8ff" d="M179.49,-115.67C186.53,-113.58 193.85,-111.73 200.88,-110.5 484.46,-61.01 1414.24,-64.23 1618.82,-65.57"/>
<polygon fill="#63b8ff" stroke="#63b8ff" points="1618.64,-69.07 1628.66,-65.63 1618.69,-62.07 1618.64,-69.07"/>
</a>
</g>
</g>
<!-- Node4&#45;&gt;Node10 -->
<g id="edge9_Node000004_Node000010" class="edge">
<title>Node4&#45;&gt;Node10</title>
<g id="a_edge9_Node000004_Node000010"><a xlink:title=" ">
<path fill="none" stroke="#63b8ff" d="M133.75,-115.74C129.95,-106.66 125.02,-94.88 120.91,-85.06"/>
<polygon fill="#63b8ff" stroke="#63b8ff" points="124.24,-83.97 117.15,-76.09 117.79,-86.67 124.24,-83.97"/>
</a>
</g>
</g>
<!-- Node4&#45;&gt;Node11 -->
<g id="edge10_Node000004_Node000011" class="edge">
<title>Node4&#45;&gt;Node11</title>
<g id="a_edge10_Node000004_Node000011"><a xlink:title=" ">
<path fill="none" stroke="#63b8ff" d="M113.1,-115.74C93.71,-105.14 67.61,-90.88 48.3,-80.32"/>
<polygon fill="#63b8ff" stroke="#63b8ff" points="50.14,-77.34 39.69,-75.61 46.78,-83.48 50.14,-77.34"/>
</a>
</g>
</g>
<!-- Node5&#45;&gt;Node6 -->
<g id="edge5_Node000005_Node000006" class="edge">
<title>Node5&#45;&gt;Node6</title>
<g id="a_edge5_Node000005_Node000006"><a xlink:title=" ">
<path fill="none" stroke="#63b8ff" d="M1670.75,-54.84C1680.97,-47.07 1695.95,-35.67 1708.14,-26.4"/>
<polygon fill="#63b8ff" stroke="#63b8ff" points="1710.13,-29.28 1715.97,-20.44 1705.89,-23.71 1710.13,-29.28"/>
</a>
</g>
</g>
<!-- Node7 -->
<g id="Node000007" class="node">
<title>Node7</title>
<g id="a_Node000007"><a xlink:title=" ">
<polygon fill="#e0e0e0" stroke="#999999" points="1603.88,-19.25 1545.88,-19.25 1545.88,0 1603.88,0 1603.88,-19.25"/>
<text text-anchor="middle" x="1574.88" y="-5.75" font-family="Helvetica,sans-Serif" font-size="10.00">functional</text>
</a>
</g>
</g>
<!-- Node5&#45;&gt;Node7 -->
<g id="edge6_Node000005_Node000007" class="edge">
<title>Node5&#45;&gt;Node7</title>
<g id="a_edge6_Node000005_Node000007"><a xlink:title=" ">
<path fill="none" stroke="#63b8ff" d="M1644.63,-54.84C1632.08,-46.89 1613.54,-35.14 1598.73,-25.75"/>
<polygon fill="#63b8ff" stroke="#63b8ff" points="1600.79,-22.91 1590.47,-20.51 1597.04,-28.82 1600.79,-22.91"/>
</a>
</g>
</g>
<!-- Node5&#45;&gt;Node8 -->
<g id="edge7_Node000005_Node000008" class="edge">
<title>Node5&#45;&gt;Node8</title>
<g id="a_edge7_Node000005_Node000008"><a xlink:title=" ">
<path fill="none" stroke="#63b8ff" d="M1681.61,-54.84C1704.14,-45.89 1738.77,-32.13 1763.4,-22.34"/>
<polygon fill="#63b8ff" stroke="#63b8ff" points="1764.53,-25.65 1772.53,-18.71 1761.95,-19.15 1764.53,-25.65"/>
</a>
</g>
</g>
<!-- Node9 -->
<g id="Node000009" class="node">
<title>Node9</title>
<g id="a_Node000009"><a xlink:title=" ">
<polygon fill="#e0e0e0" stroke="#999999" points="1683.38,-19.25 1622.38,-19.25 1622.38,0 1683.38,0 1683.38,-19.25"/>
<text text-anchor="middle" x="1652.88" y="-5.75" font-family="Helvetica,sans-Serif" font-size="10.00">type_traits</text>
</a>
</g>
</g>
<!-- Node5&#45;&gt;Node9 -->
<g id="edge8_Node000005_Node000009" class="edge">
<title>Node5&#45;&gt;Node9</title>
<g id="a_edge8_Node000005_Node000009"><a xlink:title=" ">
<path fill="none" stroke="#63b8ff" d="M1657.88,-55.08C1657.14,-48.49 1656.1,-39.21 1655.15,-30.82"/>
<polygon fill="#63b8ff" stroke="#63b8ff" points="1658.65,-30.66 1654.06,-21.11 1651.7,-31.44 1658.65,-30.66"/>
</a>
</g>
</g>
</g>
</svg>
