<?xml version="1.0" encoding="UTF-8" standalone="no"?>
<!DOCTYPE svg PUBLIC "-//W3C//DTD SVG 1.1//EN"
 "http://www.w3.org/Graphics/SVG/1.1/DTD/svg11.dtd">
<!-- Generated by graphviz version 12.2.0 (20241103.1931)
 -->
<!-- Title: /github/workspace/support/eigen/fcarouge/eigen.hpp Pages: 1 -->
<svg width="1586pt" height="293pt"
 viewBox="0.00 0.00 1586.04 293.25" xmlns="http://www.w3.org/2000/svg" xmlns:xlink="http://www.w3.org/1999/xlink">
<g id="graph0" class="graph" transform="scale(1 1) rotate(0) translate(4 289.25)">
<title>/github/workspace/support/eigen/fcarouge/eigen.hpp</title>
<!-- Node1 -->
<g id="Node000001" class="node">
<title>Node1</title>
<g id="a_Node000001"><a xlink:title="Linear algebra facade for Eigen3 third party implementation.">
<polygon fill="#999999" stroke="#666666" points="726.25,-285.25 595.5,-285.25 595.5,-254.75 726.25,-254.75 726.25,-285.25"/>
<text text-anchor="start" x="603.5" y="-271.75" font-family="Helvetica,sans-Serif" font-size="10.00">/github/workspace/support</text>
<text text-anchor="middle" x="660.88" y="-260.5" font-family="Helvetica,sans-Serif" font-size="10.00">/eigen/fcarouge/eigen.hpp</text>
</a>
</g>
</g>
<!-- Node2 -->
<g id="Node000002" class="node">
<title>Node2</title>
<g id="a_Node000002"><a xlink:href="typed__linear__algebra_8hpp.xhtml" target="_top" xlink:title="Typed linear algebra implementation.">
<polygon fill="white" stroke="#666666" points="666,-218.75 557.75,-218.75 557.75,-188.25 666,-188.25 666,-218.75"/>
<text text-anchor="start" x="565.75" y="-205.25" font-family="Helvetica,sans-Serif" font-size="10.00">fcarouge/typed_linear</text>
<text text-anchor="middle" x="611.88" y="-194" font-family="Helvetica,sans-Serif" font-size="10.00">_algebra.hpp</text>
</a>
</g>
</g>
<!-- Node1&#45;&gt;Node2 -->
<g id="edge1_Node000001_Node000002" class="edge">
<title>Node1&#45;&gt;Node2</title>
<g id="a_edge1_Node000001_Node000002"><a xlink:title=" ">
<path fill="none" stroke="#63b8ff" d="M649.76,-254.36C643.87,-246.61 636.49,-236.9 629.81,-228.11"/>
<polygon fill="#63b8ff" stroke="#63b8ff" points="632.7,-226.13 623.87,-220.28 627.13,-230.36 632.7,-226.13"/>
</a>
</g>
</g>
<!-- Node11 -->
<g id="Node000011" class="node">
<title>Node11</title>
<g id="a_Node000011"><a xlink:title=" ">
<polygon fill="#e0e0e0" stroke="#999999" points="43.75,-74.5 0,-74.5 0,-55.25 43.75,-55.25 43.75,-74.5"/>
<text text-anchor="middle" x="21.88" y="-61" font-family="Helvetica,sans-Serif" font-size="10.00">format</text>
</a>
</g>
</g>
<!-- Node1&#45;&gt;Node11 -->
<g id="edge25_Node000001_Node000011" class="edge">
<title>Node1&#45;&gt;Node11</title>
<g id="a_edge25_Node000001_Node000011"><a xlink:title=" ">
<path fill="none" stroke="#63b8ff" d="M595.18,-266.36C449.81,-259.08 107.78,-233.52 31.88,-152.25 15.48,-134.69 15.6,-105.59 18.04,-86.07"/>
<polygon fill="#63b8ff" stroke="#63b8ff" points="21.48,-86.77 19.59,-76.35 14.56,-85.67 21.48,-86.77"/>
</a>
</g>
</g>
<!-- Node21 -->
<g id="Node000021" class="node">
<title>Node21</title>
<g id="a_Node000021"><a xlink:title=" ">
<polygon fill="#e0e0e0" stroke="#999999" points="735.5,-213.12 684.25,-213.12 684.25,-193.88 735.5,-193.88 735.5,-213.12"/>
<text text-anchor="middle" x="709.88" y="-199.62" font-family="Helvetica,sans-Serif" font-size="10.00">sstream</text>
</a>
</g>
</g>
<!-- Node1&#45;&gt;Node21 -->
<g id="edge26_Node000001_Node000021" class="edge">
<title>Node1&#45;&gt;Node21</title>
<g id="a_edge26_Node000001_Node000021"><a xlink:title=" ">
<path fill="none" stroke="#63b8ff" d="M671.99,-254.36C679.19,-244.89 688.62,-232.48 696.27,-222.41"/>
<polygon fill="#63b8ff" stroke="#63b8ff" points="698.99,-224.61 702.26,-214.53 693.42,-220.37 698.99,-224.61"/>
</a>
</g>
</g>
<!-- Node22 -->
<g id="Node000022" class="node">
<title>Node22</title>
<g id="a_Node000022"><a xlink:title=" ">
<polygon fill="#e0e0e0" stroke="#999999" points="820.38,-213.12 753.38,-213.12 753.38,-193.88 820.38,-193.88 820.38,-213.12"/>
<text text-anchor="middle" x="786.88" y="-199.62" font-family="Helvetica,sans-Serif" font-size="10.00">Eigen/Eigen</text>
</a>
</g>
</g>
<!-- Node1&#45;&gt;Node22 -->
<g id="edge27_Node000001_Node000022" class="edge">
<title>Node1&#45;&gt;Node22</title>
<g id="a_edge27_Node000001_Node000022"><a xlink:title=" ">
<path fill="none" stroke="#63b8ff" d="M689.47,-254.36C710.36,-243.67 738.55,-229.24 759.23,-218.65"/>
<polygon fill="#63b8ff" stroke="#63b8ff" points="760.62,-221.87 767.93,-214.2 757.43,-215.64 760.62,-221.87"/>
</a>
</g>
</g>
<!-- Node3 -->
<g id="Node000003" class="node">
<title>Node3</title>
<g id="a_Node000003"><a xlink:href="typed__linear__algebra__forward_8hpp.xhtml" target="_top" xlink:title="Authoritative forward declaration header.">
<polygon fill="white" stroke="#666666" points="1534.12,-146.62 1429.62,-146.62 1429.62,-116.12 1534.12,-116.12 1534.12,-146.62"/>
<text text-anchor="start" x="1437.62" y="-133.12" font-family="Helvetica,sans-Serif" font-size="10.00">typed_linear_algebra</text>
<text text-anchor="middle" x="1481.88" y="-121.88" font-family="Helvetica,sans-Serif" font-size="10.00">_forward.hpp</text>
</a>
</g>
</g>
<!-- Node2&#45;&gt;Node3 -->
<g id="edge2_Node000002_Node000003" class="edge">
<title>Node2&#45;&gt;Node3</title>
<g id="a_edge2_Node000002_Node000003"><a xlink:title=" ">
<path fill="none" stroke="#63b8ff" d="M666.4,-189.56C669.26,-189.07 672.1,-188.63 674.88,-188.25 1003.78,-143.46 1094.39,-212.2 1420.88,-152.25 1424.22,-151.64 1427.63,-150.89 1431.05,-150.04"/>
<polygon fill="#63b8ff" stroke="#63b8ff" points="1431.73,-153.48 1440.45,-147.47 1429.88,-146.73 1431.73,-153.48"/>
</a>
</g>
</g>
<!-- Node4 -->
<g id="Node000004" class="node">
<title>Node4</title>
<g id="a_Node000004"><a xlink:href="format_8hpp.xhtml" target="_top" xlink:title="Formatting support for the typed matrix.">
<polygon fill="white" stroke="#666666" points="192.12,-146.62 87.62,-146.62 87.62,-116.12 192.12,-116.12 192.12,-146.62"/>
<text text-anchor="start" x="95.62" y="-133.12" font-family="Helvetica,sans-Serif" font-size="10.00">typed_linear_algebra</text>
<text text-anchor="middle" x="139.88" y="-121.88" font-family="Helvetica,sans-Serif" font-size="10.00">_internal/format.hpp</text>
</a>
</g>
</g>
<!-- Node2&#45;&gt;Node4 -->
<g id="edge3_Node000002_Node000004" class="edge">
<title>Node2&#45;&gt;Node4</title>
<g id="a_edge3_Node000002_Node000004"><a xlink:title=" ">
<path fill="none" stroke="#63b8ff" d="M557.54,-198.72C479.2,-192.6 330.27,-178.48 205.88,-152.25 202.69,-151.58 199.44,-150.83 196.17,-150.02"/>
<polygon fill="#63b8ff" stroke="#63b8ff" points="197.08,-146.64 186.52,-147.47 195.3,-153.41 197.08,-146.64"/>
</a>
</g>
</g>
<!-- Node5 -->
<g id="Node000005" class="node">
<title>Node5</title>
<g id="a_Node000005"><a xlink:href="utility_8hpp.xhtml" target="_top" xlink:title=" ">
<polygon fill="white" stroke="#666666" points="170.12,-74.5 113.62,-74.5 113.62,-55.25 170.12,-55.25 170.12,-74.5"/>
<text text-anchor="middle" x="141.88" y="-61" font-family="Helvetica,sans-Serif" font-size="10.00">utility.hpp</text>
</a>
</g>
</g>
<!-- Node2&#45;&gt;Node5 -->
<g id="edge11_Node000002_Node000005" class="edge">
<title>Node2&#45;&gt;Node5</title>
<g id="a_edge11_Node000002_Node000005"><a xlink:title=" ">
<path fill="none" stroke="#63b8ff" d="M557.36,-201.43C427.95,-198.32 110.66,-187.18 78.88,-152.25 66.39,-138.53 70.35,-126.98 78.88,-110.5 85.56,-97.57 97.91,-87.58 109.92,-80.36"/>
<polygon fill="#63b8ff" stroke="#63b8ff" points="111.38,-83.55 118.46,-75.68 108.01,-77.42 111.38,-83.55"/>
</a>
</g>
</g>
<!-- Node6 -->
<g id="Node000006" class="node">
<title>Node6</title>
<g id="a_Node000006"><a xlink:title=" ">
<polygon fill="#e0e0e0" stroke="#999999" points="604.75,-19.25 549,-19.25 549,0 604.75,0 604.75,-19.25"/>
<text text-anchor="middle" x="576.88" y="-5.75" font-family="Helvetica,sans-Serif" font-size="10.00">concepts</text>
</a>
</g>
</g>
<!-- Node2&#45;&gt;Node6 -->
<g id="edge12_Node000002_Node000006" class="edge">
<title>Node2&#45;&gt;Node6</title>
<g id="a_edge12_Node000002_Node000006"><a xlink:title=" ">
<path fill="none" stroke="#63b8ff" d="M666.4,-189.53C669.26,-189.05 672.1,-188.62 674.88,-188.25 722.72,-181.9 1509.46,-187.08 1542.88,-152.25 1555.72,-138.86 1555.3,-124.28 1542.88,-110.5 1479.78,-40.54 790.56,-16.61 616.58,-11.66"/>
<polygon fill="#63b8ff" stroke="#63b8ff" points="616.79,-8.17 606.7,-11.39 616.6,-15.16 616.79,-8.17"/>
</a>
</g>
</g>
<!-- Node8 -->
<g id="Node000008" class="node">
<title>Node8</title>
<g id="a_Node000008"><a xlink:title=" ">
<polygon fill="#e0e0e0" stroke="#999999" points="1299.38,-19.25 1262.38,-19.25 1262.38,0 1299.38,0 1299.38,-19.25"/>
<text text-anchor="middle" x="1280.88" y="-5.75" font-family="Helvetica,sans-Serif" font-size="10.00">tuple</text>
</a>
</g>
</g>
<!-- Node2&#45;&gt;Node8 -->
<g id="edge16_Node000002_Node000008" class="edge">
<title>Node2&#45;&gt;Node8</title>
<g id="a_edge16_Node000002_Node000008"><a xlink:title=" ">
<path fill="none" stroke="#63b8ff" d="M666.4,-189.53C669.26,-189.05 672.1,-188.62 674.88,-188.25 723.77,-181.78 1527.72,-187.82 1561.88,-152.25 1641.83,-68.98 1398.33,-26.68 1310.88,-14.45"/>
<polygon fill="#63b8ff" stroke="#63b8ff" points="1311.51,-11.01 1301.13,-13.13 1310.57,-17.94 1311.51,-11.01"/>
</a>
</g>
</g>
<!-- Node10 -->
<g id="Node000010" class="node">
<title>Node10</title>
<g id="a_Node000010"><a xlink:title=" ">
<polygon fill="#e0e0e0" stroke="#999999" points="239,-74.5 190.75,-74.5 190.75,-55.25 239,-55.25 239,-74.5"/>
<text text-anchor="middle" x="214.88" y="-61" font-family="Helvetica,sans-Serif" font-size="10.00">cstddef</text>
</a>
</g>
</g>
<!-- Node2&#45;&gt;Node10 -->
<g id="edge13_Node000002_Node000010" class="edge">
<title>Node2&#45;&gt;Node10</title>
<g id="a_edge13_Node000002_Node000010"><a xlink:title=" ">
<path fill="none" stroke="#63b8ff" d="M557.44,-202.3C465.59,-200.83 285.3,-192.71 238.88,-152.25 220.11,-135.89 215.42,-106.25 214.55,-86.32"/>
<polygon fill="#63b8ff" stroke="#63b8ff" points="218.05,-86.33 214.43,-76.37 211.05,-86.41 218.05,-86.33"/>
</a>
</g>
</g>
<!-- Node2&#45;&gt;Node11 -->
<g id="edge14_Node000002_Node000011" class="edge">
<title>Node2&#45;&gt;Node11</title>
<g id="a_edge14_Node000002_Node000011"><a xlink:title=" ">
<path fill="none" stroke="#63b8ff" d="M557.58,-200.43C427.72,-195.05 107.01,-179.19 66.88,-152.25 44.09,-136.95 32.11,-106.33 26.39,-85.97"/>
<polygon fill="#63b8ff" stroke="#63b8ff" points="29.79,-85.16 23.97,-76.31 23,-86.86 29.79,-85.16"/>
</a>
</g>
</g>
<!-- Node12 -->
<g id="Node000012" class="node">
<title>Node12</title>
<g id="a_Node000012"><a xlink:title=" ">
<polygon fill="#e0e0e0" stroke="#999999" points="319.62,-141 248.12,-141 248.12,-121.75 319.62,-121.75 319.62,-141"/>
<text text-anchor="middle" x="283.88" y="-127.5" font-family="Helvetica,sans-Serif" font-size="10.00">initializer_list</text>
</a>
</g>
</g>
<!-- Node2&#45;&gt;Node12 -->
<g id="edge15_Node000002_Node000012" class="edge">
<title>Node2&#45;&gt;Node12</title>
<g id="a_edge15_Node000002_Node000012"><a xlink:title=" ">
<path fill="none" stroke="#63b8ff" d="M557.5,-196.78C499.85,-189.81 406.56,-175.93 328.88,-152.25 323.2,-150.52 317.29,-148.27 311.69,-145.9"/>
<polygon fill="#63b8ff" stroke="#63b8ff" points="313.39,-142.83 302.84,-141.93 310.53,-149.21 313.39,-142.83"/>
</a>
</g>
</g>
<!-- Node13 -->
<g id="Node000013" class="node">
<title>Node13</title>
<g id="a_Node000013"><a xlink:title=" ">
<polygon fill="#e0e0e0" stroke="#999999" points="376.12,-141 337.62,-141 337.62,-121.75 376.12,-121.75 376.12,-141"/>
<text text-anchor="middle" x="356.88" y="-127.5" font-family="Helvetica,sans-Serif" font-size="10.00">utility</text>
</a>
</g>
</g>
<!-- Node2&#45;&gt;Node13 -->
<g id="edge17_Node000002_Node000013" class="edge">
<title>Node2&#45;&gt;Node13</title>
<g id="a_edge17_Node000002_Node000013"><a xlink:title=" ">
<path fill="none" stroke="#63b8ff" d="M557.69,-196.68C510.47,-190.18 440.96,-177.13 384.88,-152.25 382.16,-151.04 379.44,-149.55 376.82,-147.94"/>
<polygon fill="#63b8ff" stroke="#63b8ff" points="378.88,-145.11 368.67,-142.26 374.87,-150.85 378.88,-145.11"/>
</a>
</g>
</g>
<!-- Node14 -->
<g id="Node000014" class="node">
<title>Node14</title>
<g id="a_Node000014"><a xlink:title=" ">
<polygon fill="#e0e0e0" stroke="#999999" points="523.88,-146.62 393.88,-146.62 393.88,-116.12 523.88,-116.12 523.88,-146.62"/>
<text text-anchor="start" x="401.88" y="-133.12" font-family="Helvetica,sans-Serif" font-size="10.00">typed_linear_algebra</text>
<text text-anchor="middle" x="458.88" y="-121.88" font-family="Helvetica,sans-Serif" font-size="10.00">_internal/algorithm/add.tpp</text>
</a>
</g>
</g>
<!-- Node2&#45;&gt;Node14 -->
<g id="edge18_Node000002_Node000014" class="edge">
<title>Node2&#45;&gt;Node14</title>
<g id="a_edge18_Node000002_Node000014"><a xlink:title=" ">
<path fill="none" stroke="#63b8ff" d="M579.8,-187.8C556.95,-177.33 526.01,-163.15 501.15,-151.75"/>
<polygon fill="#63b8ff" stroke="#63b8ff" points="502.83,-148.67 492.28,-147.69 499.91,-155.04 502.83,-148.67"/>
</a>
</g>
</g>
<!-- Node15 -->
<g id="Node000015" class="node">
<title>Node15</title>
<g id="a_Node000015"><a xlink:title=" ">
<polygon fill="#e0e0e0" stroke="#999999" points="681.75,-146.62 542,-146.62 542,-116.12 681.75,-116.12 681.75,-146.62"/>
<text text-anchor="start" x="550" y="-133.12" font-family="Helvetica,sans-Serif" font-size="10.00">typed_linear_algebra</text>
<text text-anchor="middle" x="611.88" y="-121.88" font-family="Helvetica,sans-Serif" font-size="10.00">_internal/algorithm/divide.tpp</text>
</a>
</g>
</g>
<!-- Node2&#45;&gt;Node15 -->
<g id="edge19_Node000002_Node000015" class="edge">
<title>Node2&#45;&gt;Node15</title>
<g id="a_edge19_Node000002_Node000015"><a xlink:title=" ">
<path fill="none" stroke="#63b8ff" d="M611.88,-187.97C611.88,-179.41 611.88,-168.34 611.88,-158.33"/>
<polygon fill="#63b8ff" stroke="#63b8ff" points="615.38,-158.4 611.88,-148.4 608.38,-158.4 615.38,-158.4"/>
</a>
</g>
</g>
<!-- Node16 -->
<g id="Node000016" class="node">
<title>Node16</title>
<g id="a_Node000016"><a xlink:title=" ">
<polygon fill="#e0e0e0" stroke="#999999" points="854.25,-146.62 699.5,-146.62 699.5,-116.12 854.25,-116.12 854.25,-146.62"/>
<text text-anchor="start" x="707.5" y="-133.12" font-family="Helvetica,sans-Serif" font-size="10.00">typed_linear_algebra</text>
<text text-anchor="middle" x="776.88" y="-121.88" font-family="Helvetica,sans-Serif" font-size="10.00">_internal/algorithm/substract.tpp</text>
</a>
</g>
</g>
<!-- Node2&#45;&gt;Node16 -->
<g id="edge20_Node000002_Node000016" class="edge">
<title>Node2&#45;&gt;Node16</title>
<g id="a_edge20_Node000002_Node000016"><a xlink:title=" ">
<path fill="none" stroke="#63b8ff" d="M646.46,-187.8C671.32,-177.23 705.07,-162.89 732,-151.45"/>
<polygon fill="#63b8ff" stroke="#63b8ff" points="733.1,-154.78 740.94,-147.65 730.37,-148.34 733.1,-154.78"/>
</a>
</g>
</g>
<!-- Node17 -->
<g id="Node000017" class="node">
<title>Node17</title>
<g id="a_Node000017"><a xlink:title=" ">
<polygon fill="#e0e0e0" stroke="#999999" points="1035,-146.62 872.75,-146.62 872.75,-116.12 1035,-116.12 1035,-146.62"/>
<text text-anchor="start" x="880.75" y="-133.12" font-family="Helvetica,sans-Serif" font-size="10.00">typed_linear_algebra</text>
<text text-anchor="middle" x="953.88" y="-121.88" font-family="Helvetica,sans-Serif" font-size="10.00">_internal/algorithm/transposed.tpp</text>
</a>
</g>
</g>
<!-- Node2&#45;&gt;Node17 -->
<g id="edge21_Node000002_Node000017" class="edge">
<title>Node2&#45;&gt;Node17</title>
<g id="a_edge21_Node000002_Node000017"><a xlink:title=" ">
<path fill="none" stroke="#63b8ff" d="M666.49,-190.03C669.32,-189.42 672.13,-188.82 674.88,-188.25 758.15,-170.86 779.53,-169.33 862.88,-152.25 867.21,-151.36 871.65,-150.44 876.14,-149.49"/>
<polygon fill="#63b8ff" stroke="#63b8ff" points="876.78,-152.93 885.84,-147.43 875.33,-146.09 876.78,-152.93"/>
</a>
</g>
</g>
<!-- Node18 -->
<g id="Node000018" class="node">
<title>Node18</title>
<g id="a_Node000018"><a xlink:title=" ">
<polygon fill="#e0e0e0" stroke="#999999" points="1157.12,-146.62 1052.62,-146.62 1052.62,-116.12 1157.12,-116.12 1157.12,-146.62"/>
<text text-anchor="start" x="1060.62" y="-133.12" font-family="Helvetica,sans-Serif" font-size="10.00">typed_linear_algebra</text>
<text text-anchor="middle" x="1104.88" y="-121.88" font-family="Helvetica,sans-Serif" font-size="10.00">_internal/cast.tpp</text>
</a>
</g>
</g>
<!-- Node2&#45;&gt;Node18 -->
<g id="edge22_Node000002_Node000018" class="edge">
<title>Node2&#45;&gt;Node18</title>
<g id="a_edge22_Node000002_Node000018"><a xlink:title=" ">
<path fill="none" stroke="#63b8ff" d="M666.43,-189.72C669.28,-189.19 672.11,-188.7 674.88,-188.25 837.55,-162.02 882.58,-185.97 1043.88,-152.25 1046.84,-151.63 1049.86,-150.92 1052.9,-150.14"/>
<polygon fill="#63b8ff" stroke="#63b8ff" points="1053.71,-153.55 1062.4,-147.49 1051.83,-146.8 1053.71,-153.55"/>
</a>
</g>
</g>
<!-- Node19 -->
<g id="Node000019" class="node">
<title>Node19</title>
<g id="a_Node000019"><a xlink:title=" ">
<polygon fill="#e0e0e0" stroke="#999999" points="1286.5,-146.62 1175.25,-146.62 1175.25,-116.12 1286.5,-116.12 1286.5,-146.62"/>
<text text-anchor="start" x="1183.25" y="-133.12" font-family="Helvetica,sans-Serif" font-size="10.00">typed_linear_algebra</text>
<text text-anchor="middle" x="1230.88" y="-121.88" font-family="Helvetica,sans-Serif" font-size="10.00">_internal/operation.tpp</text>
</a>
</g>
</g>
<!-- Node2&#45;&gt;Node19 -->
<g id="edge23_Node000002_Node000019" class="edge">
<title>Node2&#45;&gt;Node19</title>
<g id="a_edge23_Node000002_Node000019"><a xlink:title=" ">
<path fill="none" stroke="#63b8ff" d="M666.42,-189.64C669.27,-189.13 672.1,-188.66 674.88,-188.25 891.3,-156.02 950.8,-192.49 1165.88,-152.25 1169.41,-151.59 1173.03,-150.8 1176.66,-149.93"/>
<polygon fill="#63b8ff" stroke="#63b8ff" points="1177.25,-153.39 1186.04,-147.48 1175.48,-146.62 1177.25,-153.39"/>
</a>
</g>
</g>
<!-- Node20 -->
<g id="Node000020" class="node">
<title>Node20</title>
<g id="a_Node000020"><a xlink:title=" ">
<polygon fill="#e0e0e0" stroke="#999999" points="1411.62,-152.25 1304.12,-152.25 1304.12,-110.5 1411.62,-110.5 1411.62,-152.25"/>
<text text-anchor="start" x="1312.12" y="-138.75" font-family="Helvetica,sans-Serif" font-size="10.00">typed_linear_algebra</text>
<text text-anchor="start" x="1312.12" y="-127.5" font-family="Helvetica,sans-Serif" font-size="10.00">_internal/typed_linear</text>
<text text-anchor="middle" x="1357.88" y="-116.25" font-family="Helvetica,sans-Serif" font-size="10.00">_algebra.tpp</text>
</a>
</g>
</g>
<!-- Node2&#45;&gt;Node20 -->
<g id="edge24_Node000002_Node000020" class="edge">
<title>Node2&#45;&gt;Node20</title>
<g id="a_edge24_Node000002_Node000020"><a xlink:title=" ">
<path fill="none" stroke="#63b8ff" d="M666.41,-189.59C669.26,-189.09 672.1,-188.64 674.88,-188.25 945.02,-150.13 1022.06,-201.46 1292.69,-152.63"/>
<polygon fill="#63b8ff" stroke="#63b8ff" points="1292.95,-156.14 1302.15,-150.89 1291.68,-149.25 1292.95,-156.14"/>
</a>
</g>
</g>
<!-- Node4&#45;&gt;Node5 -->
<g id="edge4_Node000004_Node000005" class="edge">
<title>Node4&#45;&gt;Node5</title>
<g id="a_edge4_Node000004_Node000005"><a xlink:title=" ">
<path fill="none" stroke="#63b8ff" d="M140.33,-115.74C140.6,-106.95 140.95,-95.65 141.25,-86.03"/>
<polygon fill="#63b8ff" stroke="#63b8ff" points="144.74,-86.31 141.55,-76.21 137.75,-86.1 144.74,-86.31"/>
</a>
</g>
</g>
<!-- Node4&#45;&gt;Node10 -->
<g id="edge9_Node000004_Node000010" class="edge">
<title>Node4&#45;&gt;Node10</title>
<g id="a_edge9_Node000004_Node000010"><a xlink:title=" ">
<path fill="none" stroke="#63b8ff" d="M156.89,-115.74C168.6,-105.67 184.16,-92.29 196.21,-81.93"/>
<polygon fill="#63b8ff" stroke="#63b8ff" points="198.17,-84.86 203.47,-75.68 193.6,-79.55 198.17,-84.86"/>
</a>
</g>
</g>
<!-- Node4&#45;&gt;Node11 -->
<g id="edge10_Node000004_Node000011" class="edge">
<title>Node4&#45;&gt;Node11</title>
<g id="a_edge10_Node000004_Node000011"><a xlink:title=" ">
<path fill="none" stroke="#63b8ff" d="M113.1,-115.74C93.71,-105.14 67.61,-90.88 48.3,-80.32"/>
<polygon fill="#63b8ff" stroke="#63b8ff" points="50.14,-77.34 39.69,-75.61 46.78,-83.48 50.14,-77.34"/>
</a>
</g>
</g>
<!-- Node5&#45;&gt;Node6 -->
<g id="edge5_Node000005_Node000006" class="edge">
<title>Node5&#45;&gt;Node6</title>
<g id="a_edge5_Node000005_Node000006"><a xlink:title=" ">
<path fill="none" stroke="#63b8ff" d="M170.22,-57.4C174.12,-56.61 178.09,-55.87 181.88,-55.25 311.55,-34 466.83,-19.67 537.9,-13.73"/>
<polygon fill="#63b8ff" stroke="#63b8ff" points="537.78,-17.25 547.46,-12.94 537.2,-10.27 537.78,-17.25"/>
</a>
</g>
</g>
<!-- Node7 -->
<g id="Node000007" class="node">
<title>Node7</title>
<g id="a_Node000007"><a xlink:title=" ">
<polygon fill="#e0e0e0" stroke="#999999" points="131.88,-19.25 73.88,-19.25 73.88,0 131.88,0 131.88,-19.25"/>
<text text-anchor="middle" x="102.88" y="-5.75" font-family="Helvetica,sans-Serif" font-size="10.00">functional</text>
</a>
</g>
</g>
<!-- Node5&#45;&gt;Node7 -->
<g id="edge6_Node000005_Node000007" class="edge">
<title>Node5&#45;&gt;Node7</title>
<g id="a_edge6_Node000005_Node000007"><a xlink:title=" ">
<path fill="none" stroke="#63b8ff" d="M135.43,-55.08C130.22,-47.96 122.69,-37.68 116.18,-28.8"/>
<polygon fill="#63b8ff" stroke="#63b8ff" points="119.08,-26.83 110.35,-20.83 113.43,-30.97 119.08,-26.83"/>
</a>
</g>
</g>
<!-- Node5&#45;&gt;Node8 -->
<g id="edge7_Node000005_Node000008" class="edge">
<title>Node5&#45;&gt;Node8</title>
<g id="a_edge7_Node000005_Node000008"><a xlink:title=" ">
<path fill="none" stroke="#63b8ff" d="M170.61,-57.06C174.38,-56.35 178.21,-55.72 181.88,-55.25 397.2,-27.87 1096.81,-13.93 1250.74,-11.15"/>
<polygon fill="#63b8ff" stroke="#63b8ff" points="1250.57,-14.65 1260.51,-10.97 1250.45,-7.65 1250.57,-14.65"/>
</a>
</g>
</g>
<!-- Node9 -->
<g id="Node000009" class="node">
<title>Node9</title>
<g id="a_Node000009"><a xlink:title=" ">
<polygon fill="#e0e0e0" stroke="#999999" points="211.38,-19.25 150.38,-19.25 150.38,0 211.38,0 211.38,-19.25"/>
<text text-anchor="middle" x="180.88" y="-5.75" font-family="Helvetica,sans-Serif" font-size="10.00">type_traits</text>
</a>
</g>
</g>
<!-- Node5&#45;&gt;Node9 -->
<g id="edge8_Node000005_Node000009" class="edge">
<title>Node5&#45;&gt;Node9</title>
<g id="a_edge8_Node000005_Node000009"><a xlink:title=" ">
<path fill="none" stroke="#63b8ff" d="M148.32,-55.08C153.53,-47.96 161.06,-37.68 167.57,-28.8"/>
<polygon fill="#63b8ff" stroke="#63b8ff" points="170.32,-30.97 173.4,-20.83 164.67,-26.83 170.32,-30.97"/>
</a>
</g>
</g>
</g>
</svg>
