<?xml version="1.0" encoding="UTF-8" standalone="no"?>
<!DOCTYPE svg PUBLIC "-//W3C//DTD SVG 1.1//EN"
 "http://www.w3.org/Graphics/SVG/1.1/DTD/svg11.dtd">
<!-- Generated by graphviz version 12.2.0 (20241103.1931)
 -->
<!-- Title: /github/workspace/support/eigen/fcarouge/linalg.hpp Pages: 1 -->
<svg width="2564pt" height="349pt"
 viewBox="0.00 0.00 2564.00 348.50" xmlns="http://www.w3.org/2000/svg" xmlns:xlink="http://www.w3.org/1999/xlink">
<g id="graph0" class="graph" transform="scale(1 1) rotate(0) translate(4 344.5)">
<title>/github/workspace/support/eigen/fcarouge/linalg.hpp</title>
<!-- Node1 -->
<g id="Node000001" class="node">
<title>Node1</title>
<g id="a_Node000001"><a xlink:title=" ">
<polygon fill="#999999" stroke="#666666" points="2399.88,-340.5 2269.12,-340.5 2269.12,-310 2399.88,-310 2399.88,-340.5"/>
<text text-anchor="start" x="2277.12" y="-327" font-family="Helvetica,sans-Serif" font-size="10.00">/github/workspace/support</text>
<text text-anchor="middle" x="2334.5" y="-315.75" font-family="Helvetica,sans-Serif" font-size="10.00">/eigen/fcarouge/linalg.hpp</text>
</a>
</g>
</g>
<!-- Node2 -->
<g id="Node000002" class="node">
<title>Node2</title>
<g id="a_Node000002"><a xlink:href="eigen_8hpp.xhtml" target="_top" xlink:title="Linear algebra facade for Eigen3 third party implementation.">
<polygon fill="white" stroke="#666666" points="2363.12,-274 2305.88,-274 2305.88,-254.75 2363.12,-254.75 2363.12,-274"/>
<text text-anchor="middle" x="2334.5" y="-260.5" font-family="Helvetica,sans-Serif" font-size="10.00">eigen.hpp</text>
</a>
</g>
</g>
<!-- Node1&#45;&gt;Node2 -->
<g id="edge1_Node000001_Node000002" class="edge">
<title>Node1&#45;&gt;Node2</title>
<g id="a_edge1_Node000001_Node000002"><a xlink:title=" ">
<path fill="none" stroke="#63b8ff" d="M2334.5,-309.7C2334.5,-302.46 2334.5,-293.59 2334.5,-285.69"/>
<polygon fill="#63b8ff" stroke="#63b8ff" points="2338,-285.96 2334.5,-275.96 2331,-285.96 2338,-285.96"/>
</a>
</g>
</g>
<!-- Node3 -->
<g id="Node000003" class="node">
<title>Node3</title>
<g id="a_Node000003"><a xlink:href="typed__linear__algebra_8hpp.xhtml" target="_top" xlink:title="Typed linear algebra implementation.">
<polygon fill="white" stroke="#666666" points="1535.62,-218.75 1427.38,-218.75 1427.38,-188.25 1535.62,-188.25 1535.62,-218.75"/>
<text text-anchor="start" x="1435.38" y="-205.25" font-family="Helvetica,sans-Serif" font-size="10.00">fcarouge/typed_linear</text>
<text text-anchor="middle" x="1481.5" y="-194" font-family="Helvetica,sans-Serif" font-size="10.00">_algebra.hpp</text>
</a>
</g>
</g>
<!-- Node2&#45;&gt;Node3 -->
<g id="edge2_Node000002_Node000003" class="edge">
<title>Node2&#45;&gt;Node3</title>
<g id="a_edge2_Node000002_Node000003"><a xlink:title=" ">
<path fill="none" stroke="#63b8ff" d="M2305.63,-261.38C2185.16,-253.07 1720.78,-221.02 1547.34,-209.04"/>
<polygon fill="#63b8ff" stroke="#63b8ff" points="1547.83,-205.57 1537.61,-208.37 1547.34,-212.55 1547.83,-205.57"/>
</a>
</g>
</g>
<!-- Node7 -->
<g id="Node000007" class="node">
<title>Node7</title>
<g id="a_Node000007"><a xlink:title=" ">
<polygon fill="#e0e0e0" stroke="#999999" points="2305.38,-19.25 2249.62,-19.25 2249.62,0 2305.38,0 2305.38,-19.25"/>
<text text-anchor="middle" x="2277.5" y="-5.75" font-family="Helvetica,sans-Serif" font-size="10.00">concepts</text>
</a>
</g>
</g>
<!-- Node2&#45;&gt;Node7 -->
<g id="edge31_Node000002_Node000007" class="edge">
<title>Node2&#45;&gt;Node7</title>
<g id="a_edge31_Node000002_Node000007"><a xlink:title=" ">
<path fill="none" stroke="#63b8ff" d="M2343.83,-254.48C2351.86,-246.13 2362.86,-232.84 2367.5,-218.75 2382.56,-173.06 2384.75,-155.41 2367.5,-110.5 2353.87,-75.01 2321.14,-44.24 2299.14,-26.56"/>
<polygon fill="#63b8ff" stroke="#63b8ff" points="2301.42,-23.9 2291.37,-20.53 2297.13,-29.43 2301.42,-23.9"/>
</a>
</g>
</g>
<!-- Node8 -->
<g id="Node000008" class="node">
<title>Node8</title>
<g id="a_Node000008"><a xlink:title=" ">
<polygon fill="#e0e0e0" stroke="#999999" points="2075.62,-19.25 2027.38,-19.25 2027.38,0 2075.62,0 2075.62,-19.25"/>
<text text-anchor="middle" x="2051.5" y="-5.75" font-family="Helvetica,sans-Serif" font-size="10.00">cstddef</text>
</a>
</g>
</g>
<!-- Node2&#45;&gt;Node8 -->
<g id="edge32_Node000002_Node000008" class="edge">
<title>Node2&#45;&gt;Node8</title>
<g id="a_edge32_Node000002_Node000008"><a xlink:title=" ">
<path fill="none" stroke="#63b8ff" d="M2335.61,-254.39C2337.08,-240.09 2338.81,-211.41 2332.5,-188.25 2322.12,-150.15 2318.89,-136.88 2289.5,-110.5 2229.79,-56.91 2137.18,-29.42 2086.9,-17.74"/>
<polygon fill="#63b8ff" stroke="#63b8ff" points="2087.95,-14.39 2077.43,-15.63 2086.43,-21.23 2087.95,-14.39"/>
</a>
</g>
</g>
<!-- Node10 -->
<g id="Node000010" class="node">
<title>Node10</title>
<g id="a_Node000010"><a xlink:title=" ">
<polygon fill="#e0e0e0" stroke="#999999" points="120,-19.25 83,-19.25 83,0 120,0 120,-19.25"/>
<text text-anchor="middle" x="101.5" y="-5.75" font-family="Helvetica,sans-Serif" font-size="10.00">tuple</text>
</a>
</g>
</g>
<!-- Node2&#45;&gt;Node10 -->
<g id="edge35_Node000002_Node000010" class="edge">
<title>Node2&#45;&gt;Node10</title>
<g id="a_edge35_Node000002_Node000010"><a xlink:title=" ">
<path fill="none" stroke="#63b8ff" d="M2305.62,-261.99C2192.42,-256.56 1767.94,-236.15 1418.5,-218.75 1128.04,-204.29 328.6,-345.75 111.5,-152.25 77.55,-121.99 87.34,-61.78 95.46,-30.51"/>
<polygon fill="#63b8ff" stroke="#63b8ff" points="98.75,-31.76 98.09,-21.18 92.01,-29.86 98.75,-31.76"/>
</a>
</g>
</g>
<!-- Node11 -->
<g id="Node000011" class="node">
<title>Node11</title>
<g id="a_Node000011"><a xlink:title=" ">
<polygon fill="#e0e0e0" stroke="#999999" points="61,-19.25 0,-19.25 0,0 61,0 61,-19.25"/>
<text text-anchor="middle" x="30.5" y="-5.75" font-family="Helvetica,sans-Serif" font-size="10.00">type_traits</text>
</a>
</g>
</g>
<!-- Node2&#45;&gt;Node11 -->
<g id="edge36_Node000002_Node000011" class="edge">
<title>Node2&#45;&gt;Node11</title>
<g id="a_edge36_Node000002_Node000011"><a xlink:title=" ">
<path fill="none" stroke="#63b8ff" d="M2305.44,-263.31C2055.41,-262.69 273.69,-256.91 168.5,-218.75 124.07,-202.63 113.46,-190.36 85.5,-152.25 57.51,-114.08 41.73,-59.84 34.8,-30.81"/>
<polygon fill="#63b8ff" stroke="#63b8ff" points="38.25,-30.17 32.63,-21.18 31.42,-31.71 38.25,-30.17"/>
</a>
</g>
</g>
<!-- Node12 -->
<g id="Node000012" class="node">
<title>Node12</title>
<g id="a_Node000012"><a xlink:title=" ">
<polygon fill="#e0e0e0" stroke="#999999" points="2065.38,-74.5 2021.62,-74.5 2021.62,-55.25 2065.38,-55.25 2065.38,-74.5"/>
<text text-anchor="middle" x="2043.5" y="-61" font-family="Helvetica,sans-Serif" font-size="10.00">format</text>
</a>
</g>
</g>
<!-- Node2&#45;&gt;Node12 -->
<g id="edge33_Node000002_Node000012" class="edge">
<title>Node2&#45;&gt;Node12</title>
<g id="a_edge33_Node000002_Node000012"><a xlink:title=" ">
<path fill="none" stroke="#63b8ff" d="M2332.87,-254.41C2327.54,-227.78 2308.02,-148.7 2258.5,-110.5 2230.44,-88.85 2129.72,-75.11 2076.69,-69.21"/>
<polygon fill="#63b8ff" stroke="#63b8ff" points="2077.35,-65.76 2067.03,-68.17 2076.6,-72.72 2077.35,-65.76"/>
</a>
</g>
</g>
<!-- Node26 -->
<g id="Node000026" class="node">
<title>Node26</title>
<g id="a_Node000026"><a xlink:title=" ">
<polygon fill="#e0e0e0" stroke="#999999" points="2471.12,-213.12 2419.88,-213.12 2419.88,-193.88 2471.12,-193.88 2471.12,-213.12"/>
<text text-anchor="middle" x="2445.5" y="-199.62" font-family="Helvetica,sans-Serif" font-size="10.00">sstream</text>
</a>
</g>
</g>
<!-- Node2&#45;&gt;Node26 -->
<g id="edge34_Node000002_Node000026" class="edge">
<title>Node2&#45;&gt;Node26</title>
<g id="a_edge34_Node000002_Node000026"><a xlink:title=" ">
<path fill="none" stroke="#63b8ff" d="M2351.36,-254.43C2369.21,-244.97 2397.64,-229.89 2418.59,-218.77"/>
<polygon fill="#63b8ff" stroke="#63b8ff" points="2419.95,-222.01 2427.15,-214.24 2416.67,-215.83 2419.95,-222.01"/>
</a>
</g>
</g>
<!-- Node27 -->
<g id="Node000027" class="node">
<title>Node27</title>
<g id="a_Node000027"><a xlink:title=" ">
<polygon fill="#e0e0e0" stroke="#999999" points="2556,-213.12 2489,-213.12 2489,-193.88 2556,-193.88 2556,-213.12"/>
<text text-anchor="middle" x="2522.5" y="-199.62" font-family="Helvetica,sans-Serif" font-size="10.00">Eigen/Eigen</text>
</a>
</g>
</g>
<!-- Node2&#45;&gt;Node27 -->
<g id="edge37_Node000002_Node000027" class="edge">
<title>Node2&#45;&gt;Node27</title>
<g id="a_edge37_Node000002_Node000027"><a xlink:title=" ">
<path fill="none" stroke="#63b8ff" d="M2363.39,-254.83C2392.9,-246.03 2440.01,-231.8 2480.5,-218.75 2482.26,-218.18 2484.07,-217.59 2485.89,-217"/>
<polygon fill="#63b8ff" stroke="#63b8ff" points="2486.51,-220.48 2494.89,-214 2484.3,-213.84 2486.51,-220.48"/>
</a>
</g>
</g>
<!-- Node4 -->
<g id="Node000004" class="node">
<title>Node4</title>
<g id="a_Node000004"><a xlink:href="typed__linear__algebra__forward_8hpp.xhtml" target="_top" xlink:title="Authoritative forward declaration header.">
<polygon fill="white" stroke="#666666" points="1904.75,-146.62 1800.25,-146.62 1800.25,-116.12 1904.75,-116.12 1904.75,-146.62"/>
<text text-anchor="start" x="1808.25" y="-133.12" font-family="Helvetica,sans-Serif" font-size="10.00">typed_linear_algebra</text>
<text text-anchor="middle" x="1852.5" y="-121.88" font-family="Helvetica,sans-Serif" font-size="10.00">_forward.hpp</text>
</a>
</g>
</g>
<!-- Node3&#45;&gt;Node4 -->
<g id="edge3_Node000003_Node000004" class="edge">
<title>Node3&#45;&gt;Node4</title>
<g id="a_edge3_Node000003_Node000004"><a xlink:title=" ">
<path fill="none" stroke="#63b8ff" d="M1536.05,-196.25C1598.37,-188.51 1703.14,-173.67 1791.5,-152.25 1794.06,-151.63 1796.66,-150.96 1799.28,-150.24"/>
<polygon fill="#63b8ff" stroke="#63b8ff" points="1799.99,-153.68 1808.63,-147.54 1798.05,-146.96 1799.99,-153.68"/>
</a>
</g>
</g>
<!-- Node5 -->
<g id="Node000005" class="node">
<title>Node5</title>
<g id="a_Node000005"><a xlink:href="format_8hpp.xhtml" target="_top" xlink:title="Formatting support for the typed matrix.">
<polygon fill="white" stroke="#666666" points="2027.75,-146.62 1923.25,-146.62 1923.25,-116.12 2027.75,-116.12 2027.75,-146.62"/>
<text text-anchor="start" x="1931.25" y="-133.12" font-family="Helvetica,sans-Serif" font-size="10.00">typed_linear_algebra</text>
<text text-anchor="middle" x="1975.5" y="-121.88" font-family="Helvetica,sans-Serif" font-size="10.00">_internal/format.hpp</text>
</a>
</g>
</g>
<!-- Node3&#45;&gt;Node5 -->
<g id="edge4_Node000003_Node000005" class="edge">
<title>Node3&#45;&gt;Node5</title>
<g id="a_edge4_Node000003_Node000005"><a xlink:title=" ">
<path fill="none" stroke="#63b8ff" d="M1535.93,-199.57C1618.39,-194.37 1779.55,-181.22 1913.5,-152.25 1916.45,-151.61 1919.47,-150.89 1922.49,-150.11"/>
<polygon fill="#63b8ff" stroke="#63b8ff" points="1923.29,-153.52 1931.98,-147.47 1921.41,-146.78 1923.29,-153.52"/>
</a>
</g>
</g>
<!-- Node6 -->
<g id="Node000006" class="node">
<title>Node6</title>
<g id="a_Node000006"><a xlink:href="utility_8hpp.xhtml" target="_top" xlink:title=" ">
<polygon fill="white" stroke="#666666" points="1071.75,-74.5 1015.25,-74.5 1015.25,-55.25 1071.75,-55.25 1071.75,-74.5"/>
<text text-anchor="middle" x="1043.5" y="-61" font-family="Helvetica,sans-Serif" font-size="10.00">utility.hpp</text>
</a>
</g>
</g>
<!-- Node3&#45;&gt;Node6 -->
<g id="edge13_Node000003_Node000006" class="edge">
<title>Node3&#45;&gt;Node6</title>
<g id="a_edge13_Node000003_Node000006"><a xlink:title=" ">
<path fill="none" stroke="#63b8ff" d="M1427.15,-202.51C1183.67,-202.32 203.16,-198.64 158.5,-152.25 145.63,-138.88 145.71,-123.95 158.5,-110.5 188,-79.47 835.66,-68.66 1003.87,-66.37"/>
<polygon fill="#63b8ff" stroke="#63b8ff" points="1003.67,-69.87 1013.63,-66.24 1003.58,-62.87 1003.67,-69.87"/>
</a>
</g>
</g>
<!-- Node3&#45;&gt;Node7 -->
<g id="edge14_Node000003_Node000007" class="edge">
<title>Node3&#45;&gt;Node7</title>
<g id="a_edge14_Node000003_Node000007"><a xlink:title=" ">
<path fill="none" stroke="#63b8ff" d="M1536.04,-202.88C1704.1,-203.53 2205.94,-201.31 2258.5,-152.25 2291.81,-121.15 2287.1,-61.77 2281.78,-30.7"/>
<polygon fill="#63b8ff" stroke="#63b8ff" points="2285.26,-30.26 2279.93,-21.1 2278.39,-31.58 2285.26,-30.26"/>
</a>
</g>
</g>
<!-- Node3&#45;&gt;Node8 -->
<g id="edge15_Node000003_Node000008" class="edge">
<title>Node3&#45;&gt;Node8</title>
<g id="a_edge15_Node000003_Node000008"><a xlink:title=" ">
<path fill="none" stroke="#63b8ff" d="M1535.87,-201.37C1671.9,-198.04 2018.82,-186.26 2057.5,-152.25 2090.37,-123.35 2084.82,-97.78 2074.5,-55.25 2072.32,-46.27 2068,-37.07 2063.69,-29.38"/>
<polygon fill="#63b8ff" stroke="#63b8ff" points="2066.78,-27.72 2058.6,-20.98 2060.79,-31.35 2066.78,-27.72"/>
</a>
</g>
</g>
<!-- Node3&#45;&gt;Node10 -->
<g id="edge18_Node000003_Node000010" class="edge">
<title>Node3&#45;&gt;Node10</title>
<g id="a_edge18_Node000003_Node000010"><a xlink:title=" ">
<path fill="none" stroke="#63b8ff" d="M1426.88,-202.2C1182.12,-200.66 196.04,-191.98 144.5,-152.25 106.94,-123.29 101.19,-62.47 100.9,-30.79"/>
<polygon fill="#63b8ff" stroke="#63b8ff" points="104.4,-31.06 101.01,-21.02 97.4,-30.98 104.4,-31.06"/>
</a>
</g>
</g>
<!-- Node3&#45;&gt;Node12 -->
<g id="edge16_Node000003_Node000012" class="edge">
<title>Node3&#45;&gt;Node12</title>
<g id="a_edge16_Node000003_Node000012"><a xlink:title=" ">
<path fill="none" stroke="#63b8ff" d="M1536.11,-201.47C1669.15,-198.43 2001.73,-187.35 2036.5,-152.25 2053.43,-135.16 2051.94,-105.72 2048.44,-86.03"/>
<polygon fill="#63b8ff" stroke="#63b8ff" points="2051.91,-85.5 2046.4,-76.45 2045.06,-86.96 2051.91,-85.5"/>
</a>
</g>
</g>
<!-- Node13 -->
<g id="Node000013" class="node">
<title>Node13</title>
<g id="a_Node000013"><a xlink:title=" ">
<polygon fill="#e0e0e0" stroke="#999999" points="2193.25,-141 2121.75,-141 2121.75,-121.75 2193.25,-121.75 2193.25,-141"/>
<text text-anchor="middle" x="2157.5" y="-127.5" font-family="Helvetica,sans-Serif" font-size="10.00">initializer_list</text>
</a>
</g>
</g>
<!-- Node3&#45;&gt;Node13 -->
<g id="edge17_Node000003_Node000013" class="edge">
<title>Node3&#45;&gt;Node13</title>
<g id="a_edge17_Node000003_Node000013"><a xlink:title=" ">
<path fill="none" stroke="#63b8ff" d="M1536.05,-200.21C1667.62,-194.34 1999.46,-177.46 2107.5,-152.25 2114.26,-150.67 2121.31,-148.34 2127.91,-145.81"/>
<polygon fill="#63b8ff" stroke="#63b8ff" points="2129.13,-149.1 2137.06,-142.07 2126.48,-142.62 2129.13,-149.1"/>
</a>
</g>
</g>
<!-- Node14 -->
<g id="Node000014" class="node">
<title>Node14</title>
<g id="a_Node000014"><a xlink:title=" ">
<polygon fill="#e0e0e0" stroke="#999999" points="2249.75,-141 2211.25,-141 2211.25,-121.75 2249.75,-121.75 2249.75,-141"/>
<text text-anchor="middle" x="2230.5" y="-127.5" font-family="Helvetica,sans-Serif" font-size="10.00">utility</text>
</a>
</g>
</g>
<!-- Node3&#45;&gt;Node14 -->
<g id="edge19_Node000003_Node000014" class="edge">
<title>Node3&#45;&gt;Node14</title>
<g id="a_edge19_Node000003_Node000014"><a xlink:title=" ">
<path fill="none" stroke="#63b8ff" d="M1535.87,-202.49C1681.89,-201.88 2079.85,-196.11 2202.5,-152.25 2205.5,-151.18 2208.47,-149.68 2211.29,-148"/>
<polygon fill="#63b8ff" stroke="#63b8ff" points="2213.24,-150.9 2219.4,-142.28 2209.21,-145.18 2213.24,-150.9"/>
</a>
</g>
</g>
<!-- Node15 -->
<g id="Node000015" class="node">
<title>Node15</title>
<g id="a_Node000015"><a xlink:title=" ">
<polygon fill="#e0e0e0" stroke="#999999" points="297.5,-146.62 167.5,-146.62 167.5,-116.12 297.5,-116.12 297.5,-146.62"/>
<text text-anchor="start" x="175.5" y="-133.12" font-family="Helvetica,sans-Serif" font-size="10.00">typed_linear_algebra</text>
<text text-anchor="middle" x="232.5" y="-121.88" font-family="Helvetica,sans-Serif" font-size="10.00">_internal/algorithm/add.tpp</text>
</a>
</g>
</g>
<!-- Node3&#45;&gt;Node15 -->
<g id="edge20_Node000003_Node000015" class="edge">
<title>Node3&#45;&gt;Node15</title>
<g id="a_edge20_Node000003_Node000015"><a xlink:title=" ">
<path fill="none" stroke="#63b8ff" d="M1427.1,-201.76C1226.27,-198.77 526.85,-186.13 306.5,-152.25 301.84,-151.53 297.05,-150.63 292.26,-149.62"/>
<polygon fill="#63b8ff" stroke="#63b8ff" points="293.14,-146.23 282.61,-147.4 291.57,-153.05 293.14,-146.23"/>
</a>
</g>
</g>
<!-- Node16 -->
<g id="Node000016" class="node">
<title>Node16</title>
<g id="a_Node000016"><a xlink:title=" ">
<polygon fill="#e0e0e0" stroke="#999999" points="455.38,-146.62 315.62,-146.62 315.62,-116.12 455.38,-116.12 455.38,-146.62"/>
<text text-anchor="start" x="323.62" y="-133.12" font-family="Helvetica,sans-Serif" font-size="10.00">typed_linear_algebra</text>
<text text-anchor="middle" x="385.5" y="-121.88" font-family="Helvetica,sans-Serif" font-size="10.00">_internal/algorithm/divide.tpp</text>
</a>
</g>
</g>
<!-- Node3&#45;&gt;Node16 -->
<g id="edge21_Node000003_Node000016" class="edge">
<title>Node3&#45;&gt;Node16</title>
<g id="a_edge21_Node000003_Node000016"><a xlink:title=" ">
<path fill="none" stroke="#63b8ff" d="M1427.02,-201.22C1244.09,-196.72 652.79,-180.31 464.5,-152.25 459.35,-151.48 454.05,-150.53 448.74,-149.45"/>
<polygon fill="#63b8ff" stroke="#63b8ff" points="449.9,-146.12 439.38,-147.41 448.41,-152.96 449.9,-146.12"/>
</a>
</g>
</g>
<!-- Node17 -->
<g id="Node000017" class="node">
<title>Node17</title>
<g id="a_Node000017"><a xlink:title=" ">
<polygon fill="#e0e0e0" stroke="#999999" points="595.38,-152.25 473.62,-152.25 473.62,-110.5 595.38,-110.5 595.38,-152.25"/>
<text text-anchor="start" x="481.62" y="-138.75" font-family="Helvetica,sans-Serif" font-size="10.00">typed_linear_algebra</text>
<text text-anchor="start" x="481.62" y="-127.5" font-family="Helvetica,sans-Serif" font-size="10.00">_internal/algorithm/equal</text>
<text text-anchor="middle" x="534.5" y="-116.25" font-family="Helvetica,sans-Serif" font-size="10.00">_to.tpp</text>
</a>
</g>
</g>
<!-- Node3&#45;&gt;Node17 -->
<g id="edge22_Node000003_Node000017" class="edge">
<title>Node3&#45;&gt;Node17</title>
<g id="a_edge22_Node000003_Node000017"><a xlink:title=" ">
<path fill="none" stroke="#63b8ff" d="M1427.1,-200.95C1264.88,-196.07 785.22,-179.85 607.08,-152.42"/>
<polygon fill="#63b8ff" stroke="#63b8ff" points="607.71,-148.98 597.28,-150.84 606.59,-155.89 607.71,-148.98"/>
</a>
</g>
</g>
<!-- Node18 -->
<g id="Node000018" class="node">
<title>Node18</title>
<g id="a_Node000018"><a xlink:title=" ">
<polygon fill="#e0e0e0" stroke="#999999" points="737.88,-152.25 613.12,-152.25 613.12,-110.5 737.88,-110.5 737.88,-152.25"/>
<text text-anchor="start" x="621.12" y="-138.75" font-family="Helvetica,sans-Serif" font-size="10.00">typed_linear_algebra</text>
<text text-anchor="start" x="621.12" y="-127.5" font-family="Helvetica,sans-Serif" font-size="10.00">_internal/algorithm/matrix</text>
<text text-anchor="middle" x="675.5" y="-116.25" font-family="Helvetica,sans-Serif" font-size="10.00">_product.tpp</text>
</a>
</g>
</g>
<!-- Node3&#45;&gt;Node18 -->
<g id="edge23_Node000003_Node000018" class="edge">
<title>Node3&#45;&gt;Node18</title>
<g id="a_edge23_Node000003_Node000018"><a xlink:title=" ">
<path fill="none" stroke="#63b8ff" d="M1427.19,-202.5C1306.64,-201.7 1007.64,-195.31 749.27,-152.34"/>
<polygon fill="#63b8ff" stroke="#63b8ff" points="750.1,-148.93 739.65,-150.72 748.93,-155.84 750.1,-148.93"/>
</a>
</g>
</g>
<!-- Node19 -->
<g id="Node000019" class="node">
<title>Node19</title>
<g id="a_Node000019"><a xlink:title=" ">
<polygon fill="#e0e0e0" stroke="#999999" points="902.75,-146.62 756.25,-146.62 756.25,-116.12 902.75,-116.12 902.75,-146.62"/>
<text text-anchor="start" x="764.25" y="-133.12" font-family="Helvetica,sans-Serif" font-size="10.00">typed_linear_algebra</text>
<text text-anchor="middle" x="829.5" y="-121.88" font-family="Helvetica,sans-Serif" font-size="10.00">_internal/algorithm/product.tpp</text>
</a>
</g>
</g>
<!-- Node3&#45;&gt;Node19 -->
<g id="edge24_Node000003_Node000019" class="edge">
<title>Node3&#45;&gt;Node19</title>
<g id="a_edge24_Node000003_Node000019"><a xlink:title=" ">
<path fill="none" stroke="#63b8ff" d="M1426.93,-200.41C1325.05,-195.91 1099.22,-183.1 911.5,-152.25 906.57,-151.44 901.5,-150.49 896.41,-149.46"/>
<polygon fill="#63b8ff" stroke="#63b8ff" points="897.28,-146.07 886.77,-147.4 895.82,-152.91 897.28,-146.07"/>
</a>
</g>
</g>
<!-- Node20 -->
<g id="Node000020" class="node">
<title>Node20</title>
<g id="a_Node000020"><a xlink:title=" ">
<polygon fill="#e0e0e0" stroke="#999999" points="1058.25,-146.62 920.75,-146.62 920.75,-116.12 1058.25,-116.12 1058.25,-146.62"/>
<text text-anchor="start" x="928.75" y="-133.12" font-family="Helvetica,sans-Serif" font-size="10.00">typed_linear_algebra</text>
<text text-anchor="middle" x="989.5" y="-121.88" font-family="Helvetica,sans-Serif" font-size="10.00">_internal/algorithm/scale.tpp</text>
</a>
</g>
</g>
<!-- Node3&#45;&gt;Node20 -->
<g id="edge25_Node000003_Node000020" class="edge">
<title>Node3&#45;&gt;Node20</title>
<g id="a_edge25_Node000003_Node000020"><a xlink:title=" ">
<path fill="none" stroke="#63b8ff" d="M1426.91,-198.13C1347.39,-191.25 1195.24,-176.17 1067.5,-152.25 1063.22,-151.45 1058.82,-150.55 1054.4,-149.58"/>
<polygon fill="#63b8ff" stroke="#63b8ff" points="1055.43,-146.23 1044.9,-147.41 1053.87,-153.05 1055.43,-146.23"/>
</a>
</g>
</g>
<!-- Node21 -->
<g id="Node000021" class="node">
<title>Node21</title>
<g id="a_Node000021"><a xlink:title=" ">
<polygon fill="#e0e0e0" stroke="#999999" points="1230.88,-146.62 1076.12,-146.62 1076.12,-116.12 1230.88,-116.12 1230.88,-146.62"/>
<text text-anchor="start" x="1084.12" y="-133.12" font-family="Helvetica,sans-Serif" font-size="10.00">typed_linear_algebra</text>
<text text-anchor="middle" x="1153.5" y="-121.88" font-family="Helvetica,sans-Serif" font-size="10.00">_internal/algorithm/substract.tpp</text>
</a>
</g>
</g>
<!-- Node3&#45;&gt;Node21 -->
<g id="edge26_Node000003_Node000021" class="edge">
<title>Node3&#45;&gt;Node21</title>
<g id="a_edge26_Node000003_Node000021"><a xlink:title=" ">
<path fill="none" stroke="#63b8ff" d="M1426.88,-191.42C1377.99,-181.43 1304.39,-166.21 1240.5,-152.25 1236.48,-151.37 1232.36,-150.46 1228.2,-149.54"/>
<polygon fill="#63b8ff" stroke="#63b8ff" points="1229.14,-146.16 1218.62,-147.39 1227.61,-152.99 1229.14,-146.16"/>
</a>
</g>
</g>
<!-- Node22 -->
<g id="Node000022" class="node">
<title>Node22</title>
<g id="a_Node000022"><a xlink:title=" ">
<polygon fill="#e0e0e0" stroke="#999999" points="1411.62,-146.62 1249.38,-146.62 1249.38,-116.12 1411.62,-116.12 1411.62,-146.62"/>
<text text-anchor="start" x="1257.38" y="-133.12" font-family="Helvetica,sans-Serif" font-size="10.00">typed_linear_algebra</text>
<text text-anchor="middle" x="1330.5" y="-121.88" font-family="Helvetica,sans-Serif" font-size="10.00">_internal/algorithm/transposed.tpp</text>
</a>
</g>
</g>
<!-- Node3&#45;&gt;Node22 -->
<g id="edge27_Node000003_Node000022" class="edge">
<title>Node3&#45;&gt;Node22</title>
<g id="a_edge27_Node000003_Node000022"><a xlink:title=" ">
<path fill="none" stroke="#63b8ff" d="M1449.85,-187.8C1427.4,-177.37 1397.03,-163.27 1372.55,-151.9"/>
<polygon fill="#63b8ff" stroke="#63b8ff" points="1374.03,-148.73 1363.49,-147.69 1371.08,-155.08 1374.03,-148.73"/>
</a>
</g>
</g>
<!-- Node23 -->
<g id="Node000023" class="node">
<title>Node23</title>
<g id="a_Node000023"><a xlink:title=" ">
<polygon fill="#e0e0e0" stroke="#999999" points="1533.75,-146.62 1429.25,-146.62 1429.25,-116.12 1533.75,-116.12 1533.75,-146.62"/>
<text text-anchor="start" x="1437.25" y="-133.12" font-family="Helvetica,sans-Serif" font-size="10.00">typed_linear_algebra</text>
<text text-anchor="middle" x="1481.5" y="-121.88" font-family="Helvetica,sans-Serif" font-size="10.00">_internal/cast.tpp</text>
</a>
</g>
</g>
<!-- Node3&#45;&gt;Node23 -->
<g id="edge28_Node000003_Node000023" class="edge">
<title>Node3&#45;&gt;Node23</title>
<g id="a_edge28_Node000003_Node000023"><a xlink:title=" ">
<path fill="none" stroke="#63b8ff" d="M1481.5,-187.97C1481.5,-179.41 1481.5,-168.34 1481.5,-158.33"/>
<polygon fill="#63b8ff" stroke="#63b8ff" points="1485,-158.4 1481.5,-148.4 1478,-158.4 1485,-158.4"/>
</a>
</g>
</g>
<!-- Node24 -->
<g id="Node000024" class="node">
<title>Node24</title>
<g id="a_Node000024"><a xlink:title=" ">
<polygon fill="#e0e0e0" stroke="#999999" points="1656.75,-146.62 1552.25,-146.62 1552.25,-116.12 1656.75,-116.12 1656.75,-146.62"/>
<text text-anchor="start" x="1560.25" y="-133.12" font-family="Helvetica,sans-Serif" font-size="10.00">typed_linear_algebra</text>
<text text-anchor="middle" x="1604.5" y="-121.88" font-family="Helvetica,sans-Serif" font-size="10.00">_internal/tuple.tpp</text>
</a>
</g>
</g>
<!-- Node3&#45;&gt;Node24 -->
<g id="edge29_Node000003_Node000024" class="edge">
<title>Node3&#45;&gt;Node24</title>
<g id="a_edge29_Node000003_Node000024"><a xlink:title=" ">
<path fill="none" stroke="#63b8ff" d="M1507.28,-187.8C1525.16,-177.61 1549.2,-163.9 1568.9,-152.67"/>
<polygon fill="#63b8ff" stroke="#63b8ff" points="1570.48,-155.8 1577.43,-147.81 1567.01,-149.72 1570.48,-155.8"/>
</a>
</g>
</g>
<!-- Node25 -->
<g id="Node000025" class="node">
<title>Node25</title>
<g id="a_Node000025"><a xlink:title=" ">
<polygon fill="#e0e0e0" stroke="#999999" points="1782.25,-152.25 1674.75,-152.25 1674.75,-110.5 1782.25,-110.5 1782.25,-152.25"/>
<text text-anchor="start" x="1682.75" y="-138.75" font-family="Helvetica,sans-Serif" font-size="10.00">typed_linear_algebra</text>
<text text-anchor="start" x="1682.75" y="-127.5" font-family="Helvetica,sans-Serif" font-size="10.00">_internal/typed_linear</text>
<text text-anchor="middle" x="1728.5" y="-116.25" font-family="Helvetica,sans-Serif" font-size="10.00">_algebra.tpp</text>
</a>
</g>
</g>
<!-- Node3&#45;&gt;Node25 -->
<g id="edge30_Node000003_Node000025" class="edge">
<title>Node3&#45;&gt;Node25</title>
<g id="a_edge30_Node000003_Node000025"><a xlink:title=" ">
<path fill="none" stroke="#63b8ff" d="M1536,-188.21C1570.12,-179.13 1615.25,-166.88 1663.57,-152.77"/>
<polygon fill="#63b8ff" stroke="#63b8ff" points="1664.52,-156.14 1673.13,-149.96 1662.55,-149.42 1664.52,-156.14"/>
</a>
</g>
</g>
<!-- Node5&#45;&gt;Node6 -->
<g id="edge5_Node000005_Node000006" class="edge">
<title>Node5&#45;&gt;Node6</title>
<g id="a_edge5_Node000005_Node000006"><a xlink:title=" ">
<path fill="none" stroke="#63b8ff" d="M1934.86,-115.7C1927.82,-113.63 1920.51,-111.78 1913.5,-110.5 1750.9,-80.79 1231.71,-69.28 1083.41,-66.55"/>
<polygon fill="#63b8ff" stroke="#63b8ff" points="1083.76,-63.06 1073.7,-66.38 1083.64,-70.06 1083.76,-63.06"/>
</a>
</g>
</g>
<!-- Node5&#45;&gt;Node8 -->
<g id="edge11_Node000005_Node000008" class="edge">
<title>Node5&#45;&gt;Node8</title>
<g id="a_edge11_Node000005_Node000008"><a xlink:title=" ">
<path fill="none" stroke="#63b8ff" d="M1981.4,-115.64C1987.95,-100.03 1999.36,-74.97 2012.5,-55.25 2018.9,-45.65 2027.17,-35.9 2034.45,-27.97"/>
<polygon fill="#63b8ff" stroke="#63b8ff" points="2036.99,-30.38 2041.33,-20.72 2031.91,-25.57 2036.99,-30.38"/>
</a>
</g>
</g>
<!-- Node5&#45;&gt;Node12 -->
<g id="edge12_Node000005_Node000012" class="edge">
<title>Node5&#45;&gt;Node12</title>
<g id="a_edge12_Node000005_Node000012"><a xlink:title=" ">
<path fill="none" stroke="#63b8ff" d="M1990.93,-115.74C2001.34,-105.87 2015.1,-92.82 2025.93,-82.54"/>
<polygon fill="#63b8ff" stroke="#63b8ff" points="2028.25,-85.16 2033.1,-75.74 2023.44,-80.08 2028.25,-85.16"/>
</a>
</g>
</g>
<!-- Node6&#45;&gt;Node7 -->
<g id="edge6_Node000006_Node000007" class="edge">
<title>Node6&#45;&gt;Node7</title>
<g id="a_edge6_Node000006_Node000007"><a xlink:title=" ">
<path fill="none" stroke="#63b8ff" d="M1072.07,-62.67C1193.98,-57.52 1682.85,-36.83 2084.5,-19.25 2137.64,-16.92 2199.01,-14.17 2238.02,-12.41"/>
<polygon fill="#63b8ff" stroke="#63b8ff" points="2238.03,-15.91 2247.86,-11.97 2237.71,-8.92 2238.03,-15.91"/>
</a>
</g>
</g>
<!-- Node6&#45;&gt;Node8 -->
<g id="edge7_Node000006_Node000008" class="edge">
<title>Node6&#45;&gt;Node8</title>
<g id="a_edge7_Node000006_Node000008"><a xlink:title=" ">
<path fill="none" stroke="#63b8ff" d="M1072.04,-62.37C1215.37,-54.8 1855.95,-20.96 2015.45,-12.53"/>
<polygon fill="#63b8ff" stroke="#63b8ff" points="2015.6,-16.03 2025.4,-12 2015.23,-9.04 2015.6,-16.03"/>
</a>
</g>
</g>
<!-- Node9 -->
<g id="Node000009" class="node">
<title>Node9</title>
<g id="a_Node000009"><a xlink:title=" ">
<polygon fill="#e0e0e0" stroke="#999999" points="1072.5,-19.25 1014.5,-19.25 1014.5,0 1072.5,0 1072.5,-19.25"/>
<text text-anchor="middle" x="1043.5" y="-5.75" font-family="Helvetica,sans-Serif" font-size="10.00">functional</text>
</a>
</g>
</g>
<!-- Node6&#45;&gt;Node9 -->
<g id="edge8_Node000006_Node000009" class="edge">
<title>Node6&#45;&gt;Node9</title>
<g id="a_edge8_Node000006_Node000009"><a xlink:title=" ">
<path fill="none" stroke="#63b8ff" d="M1043.5,-55.08C1043.5,-48.57 1043.5,-39.42 1043.5,-31.12"/>
<polygon fill="#63b8ff" stroke="#63b8ff" points="1047,-31.12 1043.5,-21.12 1040,-31.12 1047,-31.12"/>
</a>
</g>
</g>
<!-- Node6&#45;&gt;Node10 -->
<g id="edge9_Node000006_Node000010" class="edge">
<title>Node6&#45;&gt;Node10</title>
<g id="a_edge9_Node000006_Node000010"><a xlink:title=" ">
<path fill="none" stroke="#63b8ff" d="M1014.79,-62.25C875.77,-54.39 273.4,-20.34 131.51,-12.32"/>
<polygon fill="#63b8ff" stroke="#63b8ff" points="132,-8.84 121.81,-11.77 131.6,-15.83 132,-8.84"/>
</a>
</g>
</g>
<!-- Node6&#45;&gt;Node11 -->
<g id="edge10_Node000006_Node000011" class="edge">
<title>Node6&#45;&gt;Node11</title>
<g id="a_edge10_Node000006_Node000011"><a xlink:title=" ">
<path fill="none" stroke="#63b8ff" d="M1014.8,-64.14C897.51,-64.9 443.3,-64.58 73.5,-19.25 73.25,-19.22 73.01,-19.19 72.76,-19.16"/>
<polygon fill="#63b8ff" stroke="#63b8ff" points="73.32,-15.7 62.91,-17.64 72.26,-22.62 73.32,-15.7"/>
</a>
</g>
</g>
</g>
</svg>
