<?xml version="1.0" encoding="UTF-8" standalone="no"?>
<!DOCTYPE svg PUBLIC "-//W3C//DTD SVG 1.1//EN"
 "http://www.w3.org/Graphics/SVG/1.1/DTD/svg11.dtd">
<!-- Generated by graphviz version 12.2.0 (20241103.1931)
 -->
<!-- Title: /github/workspace/benchmark/eigen_product.cpp Pages: 1 -->
<svg width="484pt" height="94pt"
 viewBox="0.00 0.00 483.50 93.75" xmlns="http://www.w3.org/2000/svg" xmlns:xlink="http://www.w3.org/1999/xlink">
<g id="graph0" class="graph" transform="scale(1 1) rotate(0) translate(4 89.75)">
<title>/github/workspace/benchmark/eigen_product.cpp</title>
<!-- Node1 -->
<g id="Node000001" class="node">
<title>Node1</title>
<g id="a_Node000001"><a xlink:title=" ">
<polygon fill="#999999" stroke="#666666" points="335.75,-85.75 189.25,-85.75 189.25,-55.25 335.75,-55.25 335.75,-85.75"/>
<text text-anchor="start" x="197.25" y="-72.25" font-family="Helvetica,sans-Serif" font-size="10.00">/github/workspace/benchmark</text>
<text text-anchor="middle" x="262.5" y="-61" font-family="Helvetica,sans-Serif" font-size="10.00">/eigen_product.cpp</text>
</a>
</g>
</g>
<!-- Node2 -->
<g id="Node000002" class="node">
<title>Node2</title>
<g id="a_Node000002"><a xlink:title=" ">
<polygon fill="#e0e0e0" stroke="#999999" points="67,-19.25 0,-19.25 0,0 67,0 67,-19.25"/>
<text text-anchor="middle" x="33.5" y="-5.75" font-family="Helvetica,sans-Serif" font-size="10.00">Eigen/Eigen</text>
</a>
</g>
</g>
<!-- Node1&#45;&gt;Node2 -->
<g id="edge1_Node000001_Node000002" class="edge">
<title>Node1&#45;&gt;Node2</title>
<g id="a_edge1_Node000001_Node000002"><a xlink:title=" ">
<path fill="none" stroke="#63b8ff" d="M205.3,-54.8C165.93,-44.67 114.36,-31.41 78.04,-22.08"/>
<polygon fill="#63b8ff" stroke="#63b8ff" points="79.3,-18.79 68.75,-19.69 77.56,-25.57 79.3,-18.79"/>
</a>
</g>
</g>
<!-- Node3 -->
<g id="Node000003" class="node">
<title>Node3</title>
<g id="a_Node000003"><a xlink:title=" ">
<polygon fill="#e0e0e0" stroke="#999999" points="155.88,-19.25 85.12,-19.25 85.12,0 155.88,0 155.88,-19.25"/>
<text text-anchor="middle" x="120.5" y="-5.75" font-family="Helvetica,sans-Serif" font-size="10.00">nanobench.h</text>
</a>
</g>
</g>
<!-- Node1&#45;&gt;Node3 -->
<g id="edge2_Node000001_Node000003" class="edge">
<title>Node1&#45;&gt;Node3</title>
<g id="a_edge2_Node000001_Node000003"><a xlink:title=" ">
<path fill="none" stroke="#63b8ff" d="M227.03,-54.8C204.26,-45.35 174.93,-33.19 152.81,-24.02"/>
<polygon fill="#63b8ff" stroke="#63b8ff" points="154.25,-20.83 143.68,-20.23 151.57,-27.3 154.25,-20.83"/>
</a>
</g>
</g>
<!-- Node4 -->
<g id="Node000004" class="node">
<title>Node4</title>
<g id="a_Node000004"><a xlink:title=" ">
<polygon fill="#e0e0e0" stroke="#999999" points="222.62,-19.25 174.38,-19.25 174.38,0 222.62,0 222.62,-19.25"/>
<text text-anchor="middle" x="198.5" y="-5.75" font-family="Helvetica,sans-Serif" font-size="10.00">cstddef</text>
</a>
</g>
</g>
<!-- Node1&#45;&gt;Node4 -->
<g id="edge3_Node000001_Node000004" class="edge">
<title>Node1&#45;&gt;Node4</title>
<g id="a_edge3_Node000001_Node000004"><a xlink:title=" ">
<path fill="none" stroke="#63b8ff" d="M246.68,-54.95C237.59,-46.59 226.14,-36.05 216.68,-27.35"/>
<polygon fill="#63b8ff" stroke="#63b8ff" points="219.21,-24.92 209.48,-20.73 214.47,-30.07 219.21,-24.92"/>
</a>
</g>
</g>
<!-- Node5 -->
<g id="Node000005" class="node">
<title>Node5</title>
<g id="a_Node000005"><a xlink:title=" ">
<polygon fill="#e0e0e0" stroke="#999999" points="284.38,-19.25 240.62,-19.25 240.62,0 284.38,0 284.38,-19.25"/>
<text text-anchor="middle" x="262.5" y="-5.75" font-family="Helvetica,sans-Serif" font-size="10.00">format</text>
</a>
</g>
</g>
<!-- Node1&#45;&gt;Node5 -->
<g id="edge4_Node000001_Node000005" class="edge">
<title>Node1&#45;&gt;Node5</title>
<g id="a_edge4_Node000001_Node000005"><a xlink:title=" ">
<path fill="none" stroke="#63b8ff" d="M262.5,-54.95C262.5,-47.71 262.5,-38.84 262.5,-30.94"/>
<polygon fill="#63b8ff" stroke="#63b8ff" points="266,-31.21 262.5,-21.21 259,-31.21 266,-31.21"/>
</a>
</g>
</g>
<!-- Node6 -->
<g id="Node000006" class="node">
<title>Node6</title>
<g id="a_Node000006"><a xlink:title=" ">
<polygon fill="#e0e0e0" stroke="#999999" points="351,-19.25 302,-19.25 302,0 351,0 351,-19.25"/>
<text text-anchor="middle" x="326.5" y="-5.75" font-family="Helvetica,sans-Serif" font-size="10.00">fstream</text>
</a>
</g>
</g>
<!-- Node1&#45;&gt;Node6 -->
<g id="edge5_Node000001_Node000006" class="edge">
<title>Node1&#45;&gt;Node6</title>
<g id="a_edge5_Node000001_Node000006"><a xlink:title=" ">
<path fill="none" stroke="#63b8ff" d="M278.32,-54.95C287.41,-46.59 298.86,-36.05 308.32,-27.35"/>
<polygon fill="#63b8ff" stroke="#63b8ff" points="310.53,-30.07 315.52,-20.73 305.79,-24.92 310.53,-30.07"/>
</a>
</g>
</g>
<!-- Node7 -->
<g id="Node000007" class="node">
<title>Node7</title>
<g id="a_Node000007"><a xlink:title=" ">
<polygon fill="#e0e0e0" stroke="#999999" points="417.62,-19.25 369.38,-19.25 369.38,0 417.62,0 417.62,-19.25"/>
<text text-anchor="middle" x="393.5" y="-5.75" font-family="Helvetica,sans-Serif" font-size="10.00">random</text>
</a>
</g>
</g>
<!-- Node1&#45;&gt;Node7 -->
<g id="edge6_Node000001_Node000007" class="edge">
<title>Node1&#45;&gt;Node7</title>
<g id="a_edge6_Node000001_Node000007"><a xlink:title=" ">
<path fill="none" stroke="#63b8ff" d="M295.22,-54.8C316.03,-45.44 342.8,-33.41 363.14,-24.27"/>
<polygon fill="#63b8ff" stroke="#63b8ff" points="364.34,-27.57 372.03,-20.27 361.47,-21.18 364.34,-27.57"/>
</a>
</g>
</g>
<!-- Node8 -->
<g id="Node000008" class="node">
<title>Node8</title>
<g id="a_Node000008"><a xlink:title=" ">
<polygon fill="#e0e0e0" stroke="#999999" points="475.5,-19.25 435.5,-19.25 435.5,0 475.5,0 475.5,-19.25"/>
<text text-anchor="middle" x="455.5" y="-5.75" font-family="Helvetica,sans-Serif" font-size="10.00">string</text>
</a>
</g>
</g>
<!-- Node1&#45;&gt;Node8 -->
<g id="edge7_Node000001_Node000008" class="edge">
<title>Node1&#45;&gt;Node8</title>
<g id="a_edge7_Node000001_Node000008"><a xlink:title=" ">
<path fill="none" stroke="#63b8ff" d="M310.7,-54.8C346.35,-43.92 393.83,-29.44 424.53,-20.07"/>
<polygon fill="#63b8ff" stroke="#63b8ff" points="425.43,-23.46 433.97,-17.19 423.39,-16.76 425.43,-23.46"/>
</a>
</g>
</g>
</g>
</svg>
