<?xml version="1.0" encoding="UTF-8" standalone="no"?>
<!DOCTYPE svg PUBLIC "-//W3C//DTD SVG 1.1//EN"
 "http://www.w3.org/Graphics/SVG/1.1/DTD/svg11.dtd">
<!-- Generated by graphviz version 12.2.0 (20241103.1931)
 -->
<!-- Title: /github/workspace/benchmark/eigexed_product.cpp Pages: 1 -->
<svg width="514pt" height="94pt"
 viewBox="0.00 0.00 513.50 93.75" xmlns="http://www.w3.org/2000/svg" xmlns:xlink="http://www.w3.org/1999/xlink">
<g id="graph0" class="graph" transform="scale(1 1) rotate(0) translate(4 89.75)">
<title>/github/workspace/benchmark/eigexed_product.cpp</title>
<!-- Node1 -->
<g id="Node000001" class="node">
<title>Node1</title>
<g id="a_Node000001"><a xlink:title=" ">
<polygon fill="#999999" stroke="#666666" points="292.38,-85.75 145.88,-85.75 145.88,-55.25 292.38,-55.25 292.38,-85.75"/>
<text text-anchor="start" x="153.88" y="-72.25" font-family="Helvetica,sans-Serif" font-size="10.00">/github/workspace/benchmark</text>
<text text-anchor="middle" x="219.12" y="-61" font-family="Helvetica,sans-Serif" font-size="10.00">/eigexed_product.cpp</text>
</a>
</g>
</g>
<!-- Node2 -->
<g id="Node000002" class="node">
<title>Node2</title>
<g id="a_Node000002"><a xlink:title=" ">
<polygon fill="#e0e0e0" stroke="#999999" points="48.25,-19.25 0,-19.25 0,0 48.25,0 48.25,-19.25"/>
<text text-anchor="middle" x="24.12" y="-5.75" font-family="Helvetica,sans-Serif" font-size="10.00">cstddef</text>
</a>
</g>
</g>
<!-- Node1&#45;&gt;Node2 -->
<g id="edge1_Node000001_Node000002" class="edge">
<title>Node1&#45;&gt;Node2</title>
<g id="a_edge1_Node000001_Node000002"><a xlink:title=" ">
<path fill="none" stroke="#63b8ff" d="M170.42,-54.8C135.86,-44.36 90.28,-30.6 59.24,-21.23"/>
<polygon fill="#63b8ff" stroke="#63b8ff" points="60.54,-17.96 49.96,-18.42 58.52,-24.67 60.54,-17.96"/>
</a>
</g>
</g>
<!-- Node3 -->
<g id="Node000003" class="node">
<title>Node3</title>
<g id="a_Node000003"><a xlink:title=" ">
<polygon fill="#e0e0e0" stroke="#999999" points="110,-19.25 66.25,-19.25 66.25,0 110,0 110,-19.25"/>
<text text-anchor="middle" x="88.12" y="-5.75" font-family="Helvetica,sans-Serif" font-size="10.00">format</text>
</a>
</g>
</g>
<!-- Node1&#45;&gt;Node3 -->
<g id="edge2_Node000001_Node000003" class="edge">
<title>Node1&#45;&gt;Node3</title>
<g id="a_edge2_Node000001_Node000003"><a xlink:title=" ">
<path fill="none" stroke="#63b8ff" d="M186.41,-54.8C165.59,-45.44 138.83,-33.41 118.49,-24.27"/>
<polygon fill="#63b8ff" stroke="#63b8ff" points="120.15,-21.18 109.6,-20.27 117.28,-27.57 120.15,-21.18"/>
</a>
</g>
</g>
<!-- Node4 -->
<g id="Node000004" class="node">
<title>Node4</title>
<g id="a_Node000004"><a xlink:title=" ">
<polygon fill="#e0e0e0" stroke="#999999" points="176.62,-19.25 127.62,-19.25 127.62,0 176.62,0 176.62,-19.25"/>
<text text-anchor="middle" x="152.12" y="-5.75" font-family="Helvetica,sans-Serif" font-size="10.00">fstream</text>
</a>
</g>
</g>
<!-- Node1&#45;&gt;Node4 -->
<g id="edge3_Node000001_Node000004" class="edge">
<title>Node1&#45;&gt;Node4</title>
<g id="a_edge3_Node000001_Node000004"><a xlink:title=" ">
<path fill="none" stroke="#63b8ff" d="M202.56,-54.95C192.95,-46.5 180.81,-35.83 170.85,-27.08"/>
<polygon fill="#63b8ff" stroke="#63b8ff" points="173.41,-24.67 163.59,-20.7 168.79,-29.93 173.41,-24.67"/>
</a>
</g>
</g>
<!-- Node5 -->
<g id="Node000005" class="node">
<title>Node5</title>
<g id="a_Node000005"><a xlink:title=" ">
<polygon fill="#e0e0e0" stroke="#999999" points="243.25,-19.25 195,-19.25 195,0 243.25,0 243.25,-19.25"/>
<text text-anchor="middle" x="219.12" y="-5.75" font-family="Helvetica,sans-Serif" font-size="10.00">random</text>
</a>
</g>
</g>
<!-- Node1&#45;&gt;Node5 -->
<g id="edge4_Node000001_Node000005" class="edge">
<title>Node1&#45;&gt;Node5</title>
<g id="a_edge4_Node000001_Node000005"><a xlink:title=" ">
<path fill="none" stroke="#63b8ff" d="M219.12,-54.95C219.12,-47.71 219.12,-38.84 219.12,-30.94"/>
<polygon fill="#63b8ff" stroke="#63b8ff" points="222.63,-31.21 219.13,-21.21 215.63,-31.21 222.63,-31.21"/>
</a>
</g>
</g>
<!-- Node6 -->
<g id="Node000006" class="node">
<title>Node6</title>
<g id="a_Node000006"><a xlink:title=" ">
<polygon fill="#e0e0e0" stroke="#999999" points="301.12,-19.25 261.12,-19.25 261.12,0 301.12,0 301.12,-19.25"/>
<text text-anchor="middle" x="281.12" y="-5.75" font-family="Helvetica,sans-Serif" font-size="10.00">string</text>
</a>
</g>
</g>
<!-- Node1&#45;&gt;Node6 -->
<g id="edge5_Node000001_Node000006" class="edge">
<title>Node1&#45;&gt;Node6</title>
<g id="a_edge5_Node000001_Node000006"><a xlink:title=" ">
<path fill="none" stroke="#63b8ff" d="M234.45,-54.95C243.16,-46.67 254.12,-36.27 263.23,-27.62"/>
<polygon fill="#63b8ff" stroke="#63b8ff" points="265.63,-30.17 270.47,-20.74 260.81,-25.09 265.63,-30.17"/>
</a>
</g>
</g>
<!-- Node7 -->
<g id="Node000007" class="node">
<title>Node7</title>
<g id="a_Node000007"><a xlink:title=" ">
<polygon fill="#e0e0e0" stroke="#999999" points="416.62,-19.25 319.62,-19.25 319.62,0 416.62,0 416.62,-19.25"/>
<text text-anchor="middle" x="368.12" y="-5.75" font-family="Helvetica,sans-Serif" font-size="10.00">fcarouge/linalg.hpp</text>
</a>
</g>
</g>
<!-- Node1&#45;&gt;Node7 -->
<g id="edge6_Node000001_Node000007" class="edge">
<title>Node1&#45;&gt;Node7</title>
<g id="a_edge6_Node000001_Node000007"><a xlink:title=" ">
<path fill="none" stroke="#63b8ff" d="M256.34,-54.8C280.45,-45.27 311.58,-32.97 334.86,-23.77"/>
<polygon fill="#63b8ff" stroke="#63b8ff" points="335.85,-27.14 343.87,-20.21 333.28,-20.63 335.85,-27.14"/>
</a>
</g>
</g>
<!-- Node8 -->
<g id="Node000008" class="node">
<title>Node8</title>
<g id="a_Node000008"><a xlink:title=" ">
<polygon fill="#e0e0e0" stroke="#999999" points="505.5,-19.25 434.75,-19.25 434.75,0 505.5,0 505.5,-19.25"/>
<text text-anchor="middle" x="470.12" y="-5.75" font-family="Helvetica,sans-Serif" font-size="10.00">nanobench.h</text>
</a>
</g>
</g>
<!-- Node1&#45;&gt;Node8 -->
<g id="edge7_Node000001_Node000008" class="edge">
<title>Node1&#45;&gt;Node8</title>
<g id="a_edge7_Node000001_Node000008"><a xlink:title=" ">
<path fill="none" stroke="#63b8ff" d="M281.82,-54.8C325.79,-44.48 383.62,-30.92 423.53,-21.55"/>
<polygon fill="#63b8ff" stroke="#63b8ff" points="424.13,-25.01 433.07,-19.32 422.53,-18.19 424.13,-25.01"/>
</a>
</g>
</g>
</g>
</svg>
