<?xml version="1.0" encoding="UTF-8" standalone="no"?>
<!DOCTYPE svg PUBLIC "-//W3C//DTD SVG 1.1//EN"
 "http://www.w3.org/Graphics/SVG/1.1/DTD/svg11.dtd">
<!-- Generated by graphviz version 12.2.0 (20241103.1931)
 -->
<!-- Title: /github/workspace/support/eigexed/fcarouge/linalg.hpp Pages: 1 -->
<!--zoomable 349 -->

<svg id="main" version="1.1" xmlns="http://www.w3.org/2000/svg" xmlns:xlink="http://www.w3.org/1999/xlink" xml:space="preserve" onload="init(evt)">

<style type="text/css"><![CDATA[
.node, .edge {opacity: 0.7;}
.node.selected, .edge.selected {opacity: 1;}
.edge:hover path { stroke: red; }
.edge:hover polygon { stroke: red; fill: red; }
]]></style>

<defs>
  <circle id="rim" cx="0" cy="0" r="7"/>
  <circle id="rim2" cx="0" cy="0" r="3.5"/>
  <g id="zoomPlus">
    <use xlink:href="#rim" fill="#404040"><set attributeName="fill" to="#808080" begin="zoomplus.mouseover" end="zoomplus.mouseout"/></use>
    <path d="M-4,0h8M0,-4v8" fill="none" stroke="white" stroke-width="1.5" pointer-events="none"/>
  </g>
  <g id="zoomMin">
    <use xlink:href="#rim" fill="#404040"><set attributeName="fill" to="#808080" begin="zoomminus.mouseover" end="zoomminus.mouseout"/></use>
    <path d="M-4,0h8" fill="none" stroke="white" stroke-width="1.5" pointer-events="none"/>
  </g>
  <g id="arrowUp" transform="translate(30 24)">
    <use xlink:href="#rim"/>
    <path pointer-events="none" fill="none" stroke="white" stroke-width="1.5" d="M0,-3.0v7 M-2.5,-0.5L0,-3.0L2.5,-0.5"/>
  </g>
  <g id="arrowRight" transform="rotate(90) translate(36 -43)">
    <use xlink:href="#rim"/>
    <path pointer-events="none" fill="none" stroke="white" stroke-width="1.5" d="M0,-3.0v7 M-2.5,-0.5L0,-3.0L2.5,-0.5"/>
  </g>
  <g id="arrowDown" transform="rotate(180) translate(-30 -48)">
    <use xlink:href="#rim"/>
    <path pointer-events="none" fill="none" stroke="white" stroke-width="1.5" d="M0,-3.0v7 M-2.5,-0.5L0,-3.0L2.5,-0.5"/>
  </g>
  <g id="arrowLeft" transform="rotate(270) translate(-36 17)">
    <use xlink:href="#rim"/>
    <path pointer-events="none" fill="none" stroke="white" stroke-width="1.5" d="M0,-3.0v7 M-2.5,-0.5L0,-3.0L2.5,-0.5"/>
  </g>
  <g id="resetDef">
    <use xlink:href="#rim2" fill="#404040"><set attributeName="fill" to="#808080" begin="reset.mouseover" end="reset.mouseout"/></use>
  </g>
</defs>
<script type="application/ecmascript">
var viewWidth = 2066;
var viewHeight = 349;
var sectionId = 'dynsection-0';
</script>
<script type="application/ecmascript" xlink:href="svg.min.js"/>
<svg id="graph" class="graph">
<g id="viewport">
<title>/github/workspace/support/eigexed/fcarouge/linalg.hpp</title>
<!-- Node1 -->
<g id="Node000001" class="node">
<title>Node1</title>
<g id="a_Node000001"><a xlink:title="Scalar type linear algebra with Eigen implementation.">
<polygon fill="#999999" stroke="#666666" points="1057.12,-340.5 921.12,-340.5 921.12,-310 1057.12,-310 1057.12,-340.5"/>
<text text-anchor="start" x="929.12" y="-327" font-family="Helvetica,sans-Serif" font-size="10.00">/github/workspace/support</text>
<text text-anchor="middle" x="989.12" y="-315.75" font-family="Helvetica,sans-Serif" font-size="10.00">/eigexed/fcarouge/linalg.hpp</text>
</a>
</g>
</g>
<!-- Node2 -->
<g id="Node000002" class="node">
<title>Node2</title>
<g id="a_Node000002"><a xlink:href="eigen_8hpp.xhtml" target="_top" xlink:title="Linear algebra facade for Eigen3 third party implementation.">
<polygon fill="white" stroke="#666666" points="1136,-274 1038.25,-274 1038.25,-254.75 1136,-254.75 1136,-274"/>
<text text-anchor="middle" x="1087.12" y="-260.5" font-family="Helvetica,sans-Serif" font-size="10.00">fcarouge/eigen.hpp</text>
</a>
</g>
</g>
<!-- Node1&#45;&gt;Node2 -->
<g id="edge1_Node000001_Node000002" class="edge">
<title>Node1&#45;&gt;Node2</title>
<g id="a_edge1_Node000001_Node000002"><a xlink:title=" ">
<path fill="none" stroke="#63b8ff" d="M1013.6,-309.55C1028.53,-300.58 1047.54,-289.16 1062.49,-280.17"/>
<polygon fill="#63b8ff" stroke="#63b8ff" points="1064.03,-283.33 1070.8,-275.18 1060.42,-277.33 1064.03,-283.33"/>
</a>
</g>
</g>
<!-- Node3 -->
<g id="Node000003" class="node">
<title>Node3</title>
<g id="a_Node000003"><a xlink:href="typed__linear__algebra_8hpp.xhtml" target="_top" xlink:title="Typed linear algebra implementation.">
<polygon fill="white" stroke="#666666" points="1043.25,-218.75 935,-218.75 935,-188.25 1043.25,-188.25 1043.25,-218.75"/>
<text text-anchor="start" x="943" y="-205.25" font-family="Helvetica,sans-Serif" font-size="10.00">fcarouge/typed_linear</text>
<text text-anchor="middle" x="989.12" y="-194" font-family="Helvetica,sans-Serif" font-size="10.00">_algebra.hpp</text>
</a>
</g>
</g>
<!-- Node1&#45;&gt;Node3 -->
<g id="edge32_Node000001_Node000003" class="edge">
<title>Node1&#45;&gt;Node3</title>
<g id="a_edge32_Node000001_Node000003"><a xlink:title=" ">
<path fill="none" stroke="#63b8ff" d="M989.12,-309.57C989.12,-289.89 989.12,-254.64 989.12,-230.44"/>
<polygon fill="#63b8ff" stroke="#63b8ff" points="992.63,-230.44 989.13,-220.44 985.63,-230.44 992.63,-230.44"/>
</a>
</g>
</g>
<!-- Node11 -->
<g id="Node000011" class="node">
<title>Node11</title>
<g id="a_Node000011"><a xlink:title=" ">
<polygon fill="#e0e0e0" stroke="#999999" points="48.25,-74.5 0,-74.5 0,-55.25 48.25,-55.25 48.25,-74.5"/>
<text text-anchor="middle" x="24.12" y="-61" font-family="Helvetica,sans-Serif" font-size="10.00">cstddef</text>
</a>
</g>
</g>
<!-- Node1&#45;&gt;Node11 -->
<g id="edge33_Node000001_Node000011" class="edge">
<title>Node1&#45;&gt;Node11</title>
<g id="a_edge33_Node000001_Node000011"><a xlink:title=" ">
<path fill="none" stroke="#63b8ff" d="M920.85,-323C719.52,-317.74 135.11,-290.61 19.12,-152.25 3.7,-133.85 9.49,-104.76 16.01,-85.5"/>
<polygon fill="#63b8ff" stroke="#63b8ff" points="19.2,-86.97 19.45,-76.37 12.65,-84.5 19.2,-86.97"/>
</a>
</g>
</g>
<!-- Node2&#45;&gt;Node3 -->
<g id="edge2_Node000002_Node000003" class="edge">
<title>Node2&#45;&gt;Node3</title>
<g id="a_edge2_Node000002_Node000003"><a xlink:title=" ">
<path fill="none" stroke="#63b8ff" d="M1072.24,-254.43C1059.17,-246.58 1039.67,-234.87 1022.84,-224.76"/>
<polygon fill="#63b8ff" stroke="#63b8ff" points="1024.99,-221.96 1014.61,-219.81 1021.38,-227.96 1024.99,-221.96"/>
</a>
</g>
</g>
<!-- Node12 -->
<g id="Node000012" class="node">
<title>Node12</title>
<g id="a_Node000012"><a xlink:title=" ">
<polygon fill="#e0e0e0" stroke="#999999" points="2011,-74.5 1967.25,-74.5 1967.25,-55.25 2011,-55.25 2011,-74.5"/>
<text text-anchor="middle" x="1989.12" y="-61" font-family="Helvetica,sans-Serif" font-size="10.00">format</text>
</a>
</g>
</g>
<!-- Node2&#45;&gt;Node12 -->
<g id="edge29_Node000002_Node000012" class="edge">
<title>Node2&#45;&gt;Node12</title>
<g id="a_edge29_Node000002_Node000012"><a xlink:title=" ">
<path fill="none" stroke="#63b8ff" d="M1136.28,-261.15C1318.11,-252.43 1945.06,-217.78 2003.12,-152.25 2019.46,-133.81 2009.48,-104.07 1999.97,-84.75"/>
<polygon fill="#63b8ff" stroke="#63b8ff" points="2003.14,-83.25 1995.34,-76.07 1996.96,-86.54 2003.14,-83.25"/>
</a>
</g>
</g>
<!-- Node25 -->
<g id="Node000025" class="node">
<title>Node25</title>
<g id="a_Node000025"><a xlink:title=" ">
<polygon fill="#e0e0e0" stroke="#999999" points="1112.75,-213.12 1061.5,-213.12 1061.5,-193.88 1112.75,-193.88 1112.75,-213.12"/>
<text text-anchor="middle" x="1087.12" y="-199.62" font-family="Helvetica,sans-Serif" font-size="10.00">sstream</text>
</a>
</g>
</g>
<!-- Node2&#45;&gt;Node25 -->
<g id="edge30_Node000002_Node000025" class="edge">
<title>Node2&#45;&gt;Node25</title>
<g id="a_edge30_Node000002_Node000025"><a xlink:title=" ">
<path fill="none" stroke="#63b8ff" d="M1087.12,-254.43C1087.12,-246.65 1087.12,-235.08 1087.12,-225.03"/>
<polygon fill="#63b8ff" stroke="#63b8ff" points="1090.63,-225.04 1087.13,-215.04 1083.63,-225.04 1090.63,-225.04"/>
</a>
</g>
</g>
<!-- Node26 -->
<g id="Node000026" class="node">
<title>Node26</title>
<g id="a_Node000026"><a xlink:title=" ">
<polygon fill="#e0e0e0" stroke="#999999" points="1197.62,-213.12 1130.62,-213.12 1130.62,-193.88 1197.62,-193.88 1197.62,-213.12"/>
<text text-anchor="middle" x="1164.12" y="-199.62" font-family="Helvetica,sans-Serif" font-size="10.00">Eigen/Eigen</text>
</a>
</g>
</g>
<!-- Node2&#45;&gt;Node26 -->
<g id="edge31_Node000002_Node000026" class="edge">
<title>Node2&#45;&gt;Node26</title>
<g id="a_edge31_Node000002_Node000026"><a xlink:title=" ">
<path fill="none" stroke="#63b8ff" d="M1098.82,-254.43C1110.58,-245.44 1128.96,-231.39 1143.23,-220.48"/>
<polygon fill="#63b8ff" stroke="#63b8ff" points="1145.3,-223.3 1151.12,-214.45 1141.05,-217.74 1145.3,-223.3"/>
</a>
</g>
</g>
<!-- Node4 -->
<g id="Node000004" class="node">
<title>Node4</title>
<g id="a_Node000004"><a xlink:href="typed__linear__algebra__forward_8hpp.xhtml" target="_top" xlink:title="Authoritative forward declaration header.">
<polygon fill="white" stroke="#666666" points="279.38,-146.62 174.88,-146.62 174.88,-116.12 279.38,-116.12 279.38,-146.62"/>
<text text-anchor="start" x="182.88" y="-133.12" font-family="Helvetica,sans-Serif" font-size="10.00">typed_linear_algebra</text>
<text text-anchor="middle" x="227.12" y="-121.88" font-family="Helvetica,sans-Serif" font-size="10.00">_forward.hpp</text>
</a>
</g>
</g>
<!-- Node3&#45;&gt;Node4 -->
<g id="edge3_Node000003_Node000004" class="edge">
<title>Node3&#45;&gt;Node4</title>
<g id="a_edge3_Node000003_Node000004"><a xlink:title=" ">
<path fill="none" stroke="#63b8ff" d="M934.91,-202.63C817.09,-202.03 529.32,-195.79 293.12,-152.25 289.54,-151.59 285.86,-150.8 282.18,-149.93"/>
<polygon fill="#63b8ff" stroke="#63b8ff" points="283.2,-146.58 272.64,-147.48 281.45,-153.36 283.2,-146.58"/>
</a>
</g>
</g>
<!-- Node5 -->
<g id="Node000005" class="node">
<title>Node5</title>
<g id="a_Node000005"><a xlink:href="format_8hpp.xhtml" target="_top" xlink:title="Formatting support for the typed matrix.">
<polygon fill="white" stroke="#666666" points="156.38,-146.62 51.88,-146.62 51.88,-116.12 156.38,-116.12 156.38,-146.62"/>
<text text-anchor="start" x="59.88" y="-133.12" font-family="Helvetica,sans-Serif" font-size="10.00">typed_linear_algebra</text>
<text text-anchor="middle" x="104.12" y="-121.88" font-family="Helvetica,sans-Serif" font-size="10.00">_internal/format.hpp</text>
</a>
</g>
</g>
<!-- Node3&#45;&gt;Node5 -->
<g id="edge4_Node000003_Node000005" class="edge">
<title>Node3&#45;&gt;Node5</title>
<g id="a_edge4_Node000003_Node000005"><a xlink:title=" ">
<path fill="none" stroke="#63b8ff" d="M934.69,-200.95C775.76,-196.13 314.29,-180.07 166.12,-152.25 162.79,-151.62 159.38,-150.87 155.97,-150.03"/>
<polygon fill="#63b8ff" stroke="#63b8ff" points="157.14,-146.72 146.57,-147.48 155.31,-153.48 157.14,-146.72"/>
</a>
</g>
</g>
<!-- Node6 -->
<g id="Node000006" class="node">
<title>Node6</title>
<g id="a_Node000006"><a xlink:href="utility_8hpp.xhtml" target="_top" xlink:title=" ">
<polygon fill="white" stroke="#666666" points="539.38,-74.5 482.88,-74.5 482.88,-55.25 539.38,-55.25 539.38,-74.5"/>
<text text-anchor="middle" x="511.12" y="-61" font-family="Helvetica,sans-Serif" font-size="10.00">utility.hpp</text>
</a>
</g>
</g>
<!-- Node3&#45;&gt;Node6 -->
<g id="edge12_Node000003_Node000006" class="edge">
<title>Node3&#45;&gt;Node6</title>
<g id="a_edge12_Node000003_Node000006"><a xlink:title=" ">
<path fill="none" stroke="#63b8ff" d="M934.71,-202.51C783.58,-201.99 367.16,-196.51 326.12,-152.25 313.51,-138.64 314.65,-125.08 326.12,-110.5 343.83,-88.02 422.27,-75.53 471.15,-69.8"/>
<polygon fill="#63b8ff" stroke="#63b8ff" points="471.54,-73.28 481.09,-68.69 470.76,-66.33 471.54,-73.28"/>
</a>
</g>
</g>
<!-- Node7 -->
<g id="Node000007" class="node">
<title>Node7</title>
<g id="a_Node000007"><a xlink:title=" ">
<polygon fill="#e0e0e0" stroke="#999999" points="1468,-19.25 1412.25,-19.25 1412.25,0 1468,0 1468,-19.25"/>
<text text-anchor="middle" x="1440.12" y="-5.75" font-family="Helvetica,sans-Serif" font-size="10.00">concepts</text>
</a>
</g>
</g>
<!-- Node3&#45;&gt;Node7 -->
<g id="edge13_Node000003_Node000007" class="edge">
<title>Node3&#45;&gt;Node7</title>
<g id="a_edge13_Node000003_Node000007"><a xlink:title=" ">
<path fill="none" stroke="#63b8ff" d="M1043.65,-189.52C1046.51,-189.04 1049.35,-188.61 1052.12,-188.25 1104.55,-181.39 1962.57,-186.18 2003.12,-152.25 2036.69,-124.16 2049.86,-87.36 2020.12,-55.25 1983.48,-15.68 1604.17,-11.08 1479.55,-10.64"/>
<polygon fill="#63b8ff" stroke="#63b8ff" points="1479.83,-7.14 1469.82,-10.61 1479.81,-14.14 1479.83,-7.14"/>
</a>
</g>
</g>
<!-- Node9 -->
<g id="Node000009" class="node">
<title>Node9</title>
<g id="a_Node000009"><a xlink:title=" ">
<polygon fill="#e0e0e0" stroke="#999999" points="1930.62,-19.25 1893.62,-19.25 1893.62,0 1930.62,0 1930.62,-19.25"/>
<text text-anchor="middle" x="1912.12" y="-5.75" font-family="Helvetica,sans-Serif" font-size="10.00">tuple</text>
</a>
</g>
</g>
<!-- Node3&#45;&gt;Node9 -->
<g id="edge17_Node000003_Node000009" class="edge">
<title>Node3&#45;&gt;Node9</title>
<g id="a_edge17_Node000003_Node000009"><a xlink:title=" ">
<path fill="none" stroke="#63b8ff" d="M1043.65,-189.52C1046.51,-189.04 1049.35,-188.61 1052.12,-188.25 1106.15,-181.21 1992.35,-189.49 2032.12,-152.25 2063.7,-122.69 2065.18,-90.51 2040.12,-55.25 2017.99,-24.09 1972.41,-14.5 1942.05,-11.66"/>
<polygon fill="#63b8ff" stroke="#63b8ff" points="1942.59,-8.19 1932.36,-10.96 1942.08,-15.17 1942.59,-8.19"/>
</a>
</g>
</g>
<!-- Node3&#45;&gt;Node11 -->
<g id="edge14_Node000003_Node000011" class="edge">
<title>Node3&#45;&gt;Node11</title>
<g id="a_edge14_Node000003_Node000011"><a xlink:title=" ">
<path fill="none" stroke="#63b8ff" d="M934.7,-201.42C738.51,-197.28 77.28,-181.23 43.12,-152.25 24.31,-136.28 21.63,-106.32 22.24,-86.23"/>
<polygon fill="#63b8ff" stroke="#63b8ff" points="25.72,-86.66 22.86,-76.46 18.74,-86.22 25.72,-86.66"/>
</a>
</g>
</g>
<!-- Node3&#45;&gt;Node12 -->
<g id="edge15_Node000003_Node000012" class="edge">
<title>Node3&#45;&gt;Node12</title>
<g id="a_edge15_Node000003_Node000012"><a xlink:title=" ">
<path fill="none" stroke="#63b8ff" d="M1043.65,-189.52C1046.51,-189.04 1049.35,-188.62 1052.12,-188.25 1103.39,-181.52 1944.8,-188.03 1982.12,-152.25 1999.58,-135.52 1997.88,-105.75 1994.19,-85.91"/>
<polygon fill="#63b8ff" stroke="#63b8ff" points="1997.64,-85.28 1992.06,-76.27 1990.8,-86.79 1997.64,-85.28"/>
</a>
</g>
</g>
<!-- Node13 -->
<g id="Node000013" class="node">
<title>Node13</title>
<g id="a_Node000013"><a xlink:title=" ">
<polygon fill="#e0e0e0" stroke="#999999" points="406.88,-141 335.38,-141 335.38,-121.75 406.88,-121.75 406.88,-141"/>
<text text-anchor="middle" x="371.12" y="-127.5" font-family="Helvetica,sans-Serif" font-size="10.00">initializer_list</text>
</a>
</g>
</g>
<!-- Node3&#45;&gt;Node13 -->
<g id="edge16_Node000003_Node000013" class="edge">
<title>Node3&#45;&gt;Node13</title>
<g id="a_edge16_Node000003_Node000013"><a xlink:title=" ">
<path fill="none" stroke="#63b8ff" d="M934.6,-200C811.13,-193.97 513.32,-177.24 416.12,-152.25 410.28,-150.75 404.23,-148.56 398.54,-146.18"/>
<polygon fill="#63b8ff" stroke="#63b8ff" points="400.1,-143.05 389.55,-142.12 397.22,-149.42 400.1,-143.05"/>
</a>
</g>
</g>
<!-- Node14 -->
<g id="Node000014" class="node">
<title>Node14</title>
<g id="a_Node000014"><a xlink:title=" ">
<polygon fill="#e0e0e0" stroke="#999999" points="463.38,-141 424.88,-141 424.88,-121.75 463.38,-121.75 463.38,-141"/>
<text text-anchor="middle" x="444.12" y="-127.5" font-family="Helvetica,sans-Serif" font-size="10.00">utility</text>
</a>
</g>
</g>
<!-- Node3&#45;&gt;Node14 -->
<g id="edge18_Node000003_Node000014" class="edge">
<title>Node3&#45;&gt;Node14</title>
<g id="a_edge18_Node000003_Node000014"><a xlink:title=" ">
<path fill="none" stroke="#63b8ff" d="M934.85,-200.75C819.97,-196.48 555.88,-183.5 472.12,-152.25 469.14,-151.14 466.18,-149.62 463.36,-147.92"/>
<polygon fill="#63b8ff" stroke="#63b8ff" points="465.44,-145.1 455.25,-142.2 461.41,-150.83 465.44,-145.1"/>
</a>
</g>
</g>
<!-- Node15 -->
<g id="Node000015" class="node">
<title>Node15</title>
<g id="a_Node000015"><a xlink:title=" ">
<polygon fill="#e0e0e0" stroke="#999999" points="611.12,-146.62 481.12,-146.62 481.12,-116.12 611.12,-116.12 611.12,-146.62"/>
<text text-anchor="start" x="489.12" y="-133.12" font-family="Helvetica,sans-Serif" font-size="10.00">typed_linear_algebra</text>
<text text-anchor="middle" x="546.12" y="-121.88" font-family="Helvetica,sans-Serif" font-size="10.00">_internal/algorithm/add.tpp</text>
</a>
</g>
</g>
<!-- Node3&#45;&gt;Node15 -->
<g id="edge19_Node000003_Node000015" class="edge">
<title>Node3&#45;&gt;Node15</title>
<g id="a_edge19_Node000003_Node000015"><a xlink:title=" ">
<path fill="none" stroke="#63b8ff" d="M934.68,-197.27C862.37,-189.83 730.88,-174.57 620.12,-152.25 616.36,-151.49 612.5,-150.65 608.62,-149.76"/>
<polygon fill="#63b8ff" stroke="#63b8ff" points="609.69,-146.41 599.15,-147.47 608.05,-153.22 609.69,-146.41"/>
</a>
</g>
</g>
<!-- Node16 -->
<g id="Node000016" class="node">
<title>Node16</title>
<g id="a_Node000016"><a xlink:title=" ">
<polygon fill="#e0e0e0" stroke="#999999" points="769,-146.62 629.25,-146.62 629.25,-116.12 769,-116.12 769,-146.62"/>
<text text-anchor="start" x="637.25" y="-133.12" font-family="Helvetica,sans-Serif" font-size="10.00">typed_linear_algebra</text>
<text text-anchor="middle" x="699.12" y="-121.88" font-family="Helvetica,sans-Serif" font-size="10.00">_internal/algorithm/divide.tpp</text>
</a>
</g>
</g>
<!-- Node3&#45;&gt;Node16 -->
<g id="edge20_Node000003_Node000016" class="edge">
<title>Node3&#45;&gt;Node16</title>
<g id="a_edge20_Node000003_Node000016"><a xlink:title=" ">
<path fill="none" stroke="#63b8ff" d="M934.87,-189.78C892.23,-179.73 831.34,-165.28 778.12,-152.25 774.97,-151.48 771.74,-150.68 768.49,-149.88"/>
<polygon fill="#63b8ff" stroke="#63b8ff" points="769.37,-146.49 758.82,-147.48 767.68,-153.28 769.37,-146.49"/>
</a>
</g>
</g>
<!-- Node17 -->
<g id="Node000017" class="node">
<title>Node17</title>
<g id="a_Node000017"><a xlink:title=" ">
<polygon fill="#e0e0e0" stroke="#999999" points="909,-152.25 787.25,-152.25 787.25,-110.5 909,-110.5 909,-152.25"/>
<text text-anchor="start" x="795.25" y="-138.75" font-family="Helvetica,sans-Serif" font-size="10.00">typed_linear_algebra</text>
<text text-anchor="start" x="795.25" y="-127.5" font-family="Helvetica,sans-Serif" font-size="10.00">_internal/algorithm/equal</text>
<text text-anchor="middle" x="848.12" y="-116.25" font-family="Helvetica,sans-Serif" font-size="10.00">_to.tpp</text>
</a>
</g>
</g>
<!-- Node3&#45;&gt;Node17 -->
<g id="edge21_Node000003_Node000017" class="edge">
<title>Node3&#45;&gt;Node17</title>
<g id="a_edge21_Node000003_Node000017"><a xlink:title=" ">
<path fill="none" stroke="#63b8ff" d="M959.57,-187.8C942.02,-179.07 919.29,-167.77 898.95,-157.65"/>
<polygon fill="#63b8ff" stroke="#63b8ff" points="900.74,-154.63 890.23,-153.32 897.62,-160.9 900.74,-154.63"/>
</a>
</g>
</g>
<!-- Node18 -->
<g id="Node000018" class="node">
<title>Node18</title>
<g id="a_Node000018"><a xlink:title=" ">
<polygon fill="#e0e0e0" stroke="#999999" points="1051.5,-152.25 926.75,-152.25 926.75,-110.5 1051.5,-110.5 1051.5,-152.25"/>
<text text-anchor="start" x="934.75" y="-138.75" font-family="Helvetica,sans-Serif" font-size="10.00">typed_linear_algebra</text>
<text text-anchor="start" x="934.75" y="-127.5" font-family="Helvetica,sans-Serif" font-size="10.00">_internal/algorithm/matrix</text>
<text text-anchor="middle" x="989.12" y="-116.25" font-family="Helvetica,sans-Serif" font-size="10.00">_product.tpp</text>
</a>
</g>
</g>
<!-- Node3&#45;&gt;Node18 -->
<g id="edge22_Node000003_Node000018" class="edge">
<title>Node3&#45;&gt;Node18</title>
<g id="a_edge22_Node000003_Node000018"><a xlink:title=" ">
<path fill="none" stroke="#63b8ff" d="M989.12,-187.97C989.12,-181.04 989.12,-172.47 989.12,-164.14"/>
<polygon fill="#63b8ff" stroke="#63b8ff" points="992.63,-164.25 989.13,-154.25 985.63,-164.25 992.63,-164.25"/>
</a>
</g>
</g>
<!-- Node19 -->
<g id="Node000019" class="node">
<title>Node19</title>
<g id="a_Node000019"><a xlink:title=" ">
<polygon fill="#e0e0e0" stroke="#999999" points="1216.38,-146.62 1069.88,-146.62 1069.88,-116.12 1216.38,-116.12 1216.38,-146.62"/>
<text text-anchor="start" x="1077.88" y="-133.12" font-family="Helvetica,sans-Serif" font-size="10.00">typed_linear_algebra</text>
<text text-anchor="middle" x="1143.12" y="-121.88" font-family="Helvetica,sans-Serif" font-size="10.00">_internal/algorithm/product.tpp</text>
</a>
</g>
</g>
<!-- Node3&#45;&gt;Node19 -->
<g id="edge23_Node000003_Node000019" class="edge">
<title>Node3&#45;&gt;Node19</title>
<g id="a_edge23_Node000003_Node000019"><a xlink:title=" ">
<path fill="none" stroke="#63b8ff" d="M1021.41,-187.8C1044.41,-177.33 1075.55,-163.15 1100.57,-151.75"/>
<polygon fill="#63b8ff" stroke="#63b8ff" points="1101.86,-155.01 1109.51,-147.68 1098.96,-148.64 1101.86,-155.01"/>
</a>
</g>
</g>
<!-- Node20 -->
<g id="Node000020" class="node">
<title>Node20</title>
<g id="a_Node000020"><a xlink:title=" ">
<polygon fill="#e0e0e0" stroke="#999999" points="1371.88,-146.62 1234.38,-146.62 1234.38,-116.12 1371.88,-116.12 1371.88,-146.62"/>
<text text-anchor="start" x="1242.38" y="-133.12" font-family="Helvetica,sans-Serif" font-size="10.00">typed_linear_algebra</text>
<text text-anchor="middle" x="1303.12" y="-121.88" font-family="Helvetica,sans-Serif" font-size="10.00">_internal/algorithm/scale.tpp</text>
</a>
</g>
</g>
<!-- Node3&#45;&gt;Node20 -->
<g id="edge24_Node000003_Node000020" class="edge">
<title>Node3&#45;&gt;Node20</title>
<g id="a_edge24_Node000003_Node000020"><a xlink:title=" ">
<path fill="none" stroke="#63b8ff" d="M1043.75,-190.08C1046.58,-189.46 1049.39,-188.84 1052.12,-188.25 1128.87,-171.59 1148.61,-169.95 1225.12,-152.25 1228.49,-151.47 1231.93,-150.66 1235.4,-149.83"/>
<polygon fill="#63b8ff" stroke="#63b8ff" points="1236.18,-153.24 1245.07,-147.47 1234.52,-146.44 1236.18,-153.24"/>
</a>
</g>
</g>
<!-- Node21 -->
<g id="Node000021" class="node">
<title>Node21</title>
<g id="a_Node000021"><a xlink:title=" ">
<polygon fill="#e0e0e0" stroke="#999999" points="1544.5,-146.62 1389.75,-146.62 1389.75,-116.12 1544.5,-116.12 1544.5,-146.62"/>
<text text-anchor="start" x="1397.75" y="-133.12" font-family="Helvetica,sans-Serif" font-size="10.00">typed_linear_algebra</text>
<text text-anchor="middle" x="1467.12" y="-121.88" font-family="Helvetica,sans-Serif" font-size="10.00">_internal/algorithm/substract.tpp</text>
</a>
</g>
</g>
<!-- Node3&#45;&gt;Node21 -->
<g id="edge25_Node000003_Node000021" class="edge">
<title>Node3&#45;&gt;Node21</title>
<g id="a_edge25_Node000003_Node000021"><a xlink:title=" ">
<path fill="none" stroke="#63b8ff" d="M1043.69,-189.76C1046.53,-189.22 1049.36,-188.71 1052.12,-188.25 1197.2,-163.99 1236.1,-176.85 1381.12,-152.25 1386.1,-151.41 1391.23,-150.45 1396.37,-149.42"/>
<polygon fill="#63b8ff" stroke="#63b8ff" points="1397.07,-152.85 1406.15,-147.39 1395.64,-146 1397.07,-152.85"/>
</a>
</g>
</g>
<!-- Node22 -->
<g id="Node000022" class="node">
<title>Node22</title>
<g id="a_Node000022"><a xlink:title=" ">
<polygon fill="#e0e0e0" stroke="#999999" points="1725.25,-146.62 1563,-146.62 1563,-116.12 1725.25,-116.12 1725.25,-146.62"/>
<text text-anchor="start" x="1571" y="-133.12" font-family="Helvetica,sans-Serif" font-size="10.00">typed_linear_algebra</text>
<text text-anchor="middle" x="1644.12" y="-121.88" font-family="Helvetica,sans-Serif" font-size="10.00">_internal/algorithm/transposed.tpp</text>
</a>
</g>
</g>
<!-- Node3&#45;&gt;Node22 -->
<g id="edge26_Node000003_Node000022" class="edge">
<title>Node3&#45;&gt;Node22</title>
<g id="a_edge26_Node000003_Node000022"><a xlink:title=" ">
<path fill="none" stroke="#63b8ff" d="M1043.67,-189.63C1046.52,-189.13 1049.35,-188.66 1052.12,-188.25 1272.96,-155.53 1332.18,-184.15 1553.12,-152.25 1559.13,-151.38 1565.32,-150.34 1571.53,-149.2"/>
<polygon fill="#63b8ff" stroke="#63b8ff" points="1572.03,-152.67 1581.18,-147.34 1570.7,-145.8 1572.03,-152.67"/>
</a>
</g>
</g>
<!-- Node23 -->
<g id="Node000023" class="node">
<title>Node23</title>
<g id="a_Node000023"><a xlink:title=" ">
<polygon fill="#e0e0e0" stroke="#999999" points="1847.38,-146.62 1742.88,-146.62 1742.88,-116.12 1847.38,-116.12 1847.38,-146.62"/>
<text text-anchor="start" x="1750.88" y="-133.12" font-family="Helvetica,sans-Serif" font-size="10.00">typed_linear_algebra</text>
<text text-anchor="middle" x="1795.12" y="-121.88" font-family="Helvetica,sans-Serif" font-size="10.00">_internal/cast.tpp</text>
</a>
</g>
</g>
<!-- Node3&#45;&gt;Node23 -->
<g id="edge27_Node000003_Node000023" class="edge">
<title>Node3&#45;&gt;Node23</title>
<g id="a_edge27_Node000003_Node000023"><a xlink:title=" ">
<path fill="none" stroke="#63b8ff" d="M1043.66,-189.57C1046.51,-189.08 1049.35,-188.63 1052.12,-188.25 1352.79,-146.62 1435.71,-207.74 1734.12,-152.25 1737.47,-151.63 1740.88,-150.87 1744.3,-150.02"/>
<polygon fill="#63b8ff" stroke="#63b8ff" points="1744.98,-153.47 1753.69,-147.44 1743.12,-146.72 1744.98,-153.47"/>
</a>
</g>
</g>
<!-- Node24 -->
<g id="Node000024" class="node">
<title>Node24</title>
<g id="a_Node000024"><a xlink:title=" ">
<polygon fill="#e0e0e0" stroke="#999999" points="1972.88,-152.25 1865.38,-152.25 1865.38,-110.5 1972.88,-110.5 1972.88,-152.25"/>
<text text-anchor="start" x="1873.38" y="-138.75" font-family="Helvetica,sans-Serif" font-size="10.00">typed_linear_algebra</text>
<text text-anchor="start" x="1873.38" y="-127.5" font-family="Helvetica,sans-Serif" font-size="10.00">_internal/typed_linear</text>
<text text-anchor="middle" x="1919.12" y="-116.25" font-family="Helvetica,sans-Serif" font-size="10.00">_algebra.tpp</text>
</a>
</g>
</g>
<!-- Node3&#45;&gt;Node24 -->
<g id="edge28_Node000003_Node000024" class="edge">
<title>Node3&#45;&gt;Node24</title>
<g id="a_edge28_Node000003_Node000024"><a xlink:title=" ">
<path fill="none" stroke="#63b8ff" d="M1043.65,-189.54C1046.51,-189.06 1049.35,-188.62 1052.12,-188.25 1402.91,-141.11 1501.84,-213.05 1853.77,-152.39"/>
<polygon fill="#63b8ff" stroke="#63b8ff" points="1854.32,-155.85 1863.56,-150.68 1853.11,-148.96 1854.32,-155.85"/>
</a>
</g>
</g>
<!-- Node5&#45;&gt;Node6 -->
<g id="edge5_Node000005_Node000006" class="edge">
<title>Node5&#45;&gt;Node6</title>
<g id="a_edge5_Node000005_Node000006"><a xlink:title=" ">
<path fill="none" stroke="#63b8ff" d="M146.54,-115.66C153.04,-113.73 159.73,-111.93 166.12,-110.5 275.17,-86.18 406.77,-73.71 471.38,-68.66"/>
<polygon fill="#63b8ff" stroke="#63b8ff" points="471.43,-72.16 481.14,-67.91 470.9,-65.18 471.43,-72.16"/>
</a>
</g>
</g>
<!-- Node5&#45;&gt;Node11 -->
<g id="edge10_Node000005_Node000011" class="edge">
<title>Node5&#45;&gt;Node11</title>
<g id="a_edge10_Node000005_Node000011"><a xlink:title=" ">
<path fill="none" stroke="#63b8ff" d="M85.97,-115.74C73.36,-105.57 56.57,-92.03 43.66,-81.63"/>
<polygon fill="#63b8ff" stroke="#63b8ff" points="46.23,-79.2 36.25,-75.65 41.83,-84.65 46.23,-79.2"/>
</a>
</g>
</g>
<!-- Node5&#45;&gt;Node12 -->
<g id="edge11_Node000005_Node000012" class="edge">
<title>Node5&#45;&gt;Node12</title>
<g id="a_edge11_Node000005_Node000012"><a xlink:title=" ">
<path fill="none" stroke="#63b8ff" d="M144.4,-115.64C151.55,-113.55 158.99,-111.7 166.12,-110.5 348.89,-79.63 1722.82,-67.89 1955.65,-66.12"/>
<polygon fill="#63b8ff" stroke="#63b8ff" points="1955.55,-69.62 1965.52,-66.04 1955.5,-62.62 1955.55,-69.62"/>
</a>
</g>
</g>
<!-- Node6&#45;&gt;Node7 -->
<g id="edge6_Node000006_Node000007" class="edge">
<title>Node6&#45;&gt;Node7</title>
<g id="a_edge6_Node000006_Node000007"><a xlink:title=" ">
<path fill="none" stroke="#63b8ff" d="M539.69,-62.24C674.28,-54.52 1245.06,-21.81 1400.76,-12.88"/>
<polygon fill="#63b8ff" stroke="#63b8ff" points="1400.77,-16.39 1410.55,-12.32 1400.37,-9.4 1400.77,-16.39"/>
</a>
</g>
</g>
<!-- Node8 -->
<g id="Node000008" class="node">
<title>Node8</title>
<g id="a_Node000008"><a xlink:title=" ">
<polygon fill="#e0e0e0" stroke="#999999" points="579.12,-19.25 521.12,-19.25 521.12,0 579.12,0 579.12,-19.25"/>
<text text-anchor="middle" x="550.12" y="-5.75" font-family="Helvetica,sans-Serif" font-size="10.00">functional</text>
</a>
</g>
</g>
<!-- Node6&#45;&gt;Node8 -->
<g id="edge7_Node000006_Node000008" class="edge">
<title>Node6&#45;&gt;Node8</title>
<g id="a_edge7_Node000006_Node000008"><a xlink:title=" ">
<path fill="none" stroke="#63b8ff" d="M517.57,-55.08C522.78,-47.96 530.31,-37.68 536.82,-28.8"/>
<polygon fill="#63b8ff" stroke="#63b8ff" points="539.57,-30.97 542.65,-20.83 533.92,-26.83 539.57,-30.97"/>
</a>
</g>
</g>
<!-- Node6&#45;&gt;Node9 -->
<g id="edge8_Node000006_Node000009" class="edge">
<title>Node6&#45;&gt;Node9</title>
<g id="a_edge8_Node000006_Node000009"><a xlink:title=" ">
<path fill="none" stroke="#63b8ff" d="M539.75,-62.79C720.03,-55.93 1696.92,-18.8 1881.89,-11.77"/>
<polygon fill="#63b8ff" stroke="#63b8ff" points="1881.77,-15.28 1891.63,-11.4 1881.5,-8.29 1881.77,-15.28"/>
</a>
</g>
</g>
<!-- Node10 -->
<g id="Node000010" class="node">
<title>Node10</title>
<g id="a_Node000010"><a xlink:title=" ">
<polygon fill="#e0e0e0" stroke="#999999" points="502.62,-19.25 441.62,-19.25 441.62,0 502.62,0 502.62,-19.25"/>
<text text-anchor="middle" x="472.12" y="-5.75" font-family="Helvetica,sans-Serif" font-size="10.00">type_traits</text>
</a>
</g>
</g>
<!-- Node6&#45;&gt;Node10 -->
<g id="edge9_Node000006_Node000010" class="edge">
<title>Node6&#45;&gt;Node10</title>
<g id="a_edge9_Node000006_Node000010"><a xlink:title=" ">
<path fill="none" stroke="#63b8ff" d="M504.68,-55.08C499.47,-47.96 491.94,-37.68 485.43,-28.8"/>
<polygon fill="#63b8ff" stroke="#63b8ff" points="488.33,-26.83 479.6,-20.83 482.68,-30.97 488.33,-26.83"/>
</a>
</g>
</g>
</g>
</svg>

<g id="navigator" transform="translate(0 0)" fill="#404254">
  <rect fill="#f2f5e9" fill-opacity="0.5" stroke="#606060" stroke-width=".5" x="0" y="0" width="60" height="60"/>
  <use id="zoomplus" xlink:href="#zoomPlus" x="17" y="9" onmousedown="handleZoom(evt,'in')"/>
  <use id="zoomminus" xlink:href="#zoomMin" x="42" y="9" onmousedown="handleZoom(evt,'out')"/>
  <use id="reset" xlink:href="#resetDef" x="30" y="36" onmousedown="handleReset()"/>
   <use id="arrowup" xlink:href="#arrowUp" x="0" y="0" onmousedown="handlePan(0,-1)"/>
  <use id="arrowright" xlink:href="#arrowRight" x="0" y="0" onmousedown="handlePan(1,0)"/>
  <use id="arrowdown" xlink:href="#arrowDown" x="0" y="0" onmousedown="handlePan(0,1)"/>
  <use id="arrowleft" xlink:href="#arrowLeft" x="0" y="0" onmousedown="handlePan(-1,0)"/>
</g>
<svg viewBox="0 0 15 15" width="100%" height="30px" preserveAspectRatio="xMaxYMin meet">
 <g id="arrow_out" transform="scale(0.3 0.3)">
  <a xlink:href="eigexed_2fcarouge_2linalg_8hpp__incl_org.svg" target="_base">
   <rect id="button" ry="5" rx="5" y="6" x="6" height="38" width="38"
        fill="#f2f5e9" fill-opacity="0.5" stroke="#606060" stroke-width="1.0"/>
   <path id="arrow"
     d="M 11.500037,31.436501 C 11.940474,20.09759 22.043105,11.32322 32.158766,21.979434 L 37.068811,17.246167 C 37.068811,17.246167 37.088388,32 37.088388,32 L 22.160133,31.978069 C 22.160133,31.978069 26.997745,27.140456 26.997745,27.140456 C 18.528582,18.264221 13.291696,25.230495 11.500037,31.436501 z"
     style="fill:#404040;"/>
  </a>
 </g>
</svg>

<style type='text/css'>
<![CDATA[
[data-mouse-over-selected='false'] { opacity: 0.7; }
[data-mouse-over-selected='true']  { opacity: 1.0; }
]]>
</style>
<script type="application/ecmascript"><![CDATA[
document.addEventListener('DOMContentLoaded', (event) => {
  highlightEdges();
  highlightAdjacentNodes();
});
]]></script>
</svg>
