<?xml version="1.0" encoding="UTF-8" standalone="no"?>
<!DOCTYPE svg PUBLIC "-//W3C//DTD SVG 1.1//EN"
 "http://www.w3.org/Graphics/SVG/1.1/DTD/svg11.dtd">
<!-- Generated by graphviz version 12.2.0 (20241103.1931)
 -->
<!-- Title: /github/workspace/support/eigexed/fcarouge/linalg.hpp Pages: 1 -->
<!--zoomable 349 -->

<svg id="main" version="1.1" xmlns="http://www.w3.org/2000/svg" xmlns:xlink="http://www.w3.org/1999/xlink" xml:space="preserve" onload="init(evt)">

<style type="text/css"><![CDATA[
.node, .edge {opacity: 0.7;}
.node.selected, .edge.selected {opacity: 1;}
.edge:hover path { stroke: red; }
.edge:hover polygon { stroke: red; fill: red; }
]]></style>

<defs>
  <circle id="rim" cx="0" cy="0" r="7"/>
  <circle id="rim2" cx="0" cy="0" r="3.5"/>
  <g id="zoomPlus">
    <use xlink:href="#rim" fill="#404040"><set attributeName="fill" to="#808080" begin="zoomplus.mouseover" end="zoomplus.mouseout"/></use>
    <path d="M-4,0h8M0,-4v8" fill="none" stroke="white" stroke-width="1.5" pointer-events="none"/>
  </g>
  <g id="zoomMin">
    <use xlink:href="#rim" fill="#404040"><set attributeName="fill" to="#808080" begin="zoomminus.mouseover" end="zoomminus.mouseout"/></use>
    <path d="M-4,0h8" fill="none" stroke="white" stroke-width="1.5" pointer-events="none"/>
  </g>
  <g id="arrowUp" transform="translate(30 24)">
    <use xlink:href="#rim"/>
    <path pointer-events="none" fill="none" stroke="white" stroke-width="1.5" d="M0,-3.0v7 M-2.5,-0.5L0,-3.0L2.5,-0.5"/>
  </g>
  <g id="arrowRight" transform="rotate(90) translate(36 -43)">
    <use xlink:href="#rim"/>
    <path pointer-events="none" fill="none" stroke="white" stroke-width="1.5" d="M0,-3.0v7 M-2.5,-0.5L0,-3.0L2.5,-0.5"/>
  </g>
  <g id="arrowDown" transform="rotate(180) translate(-30 -48)">
    <use xlink:href="#rim"/>
    <path pointer-events="none" fill="none" stroke="white" stroke-width="1.5" d="M0,-3.0v7 M-2.5,-0.5L0,-3.0L2.5,-0.5"/>
  </g>
  <g id="arrowLeft" transform="rotate(270) translate(-36 17)">
    <use xlink:href="#rim"/>
    <path pointer-events="none" fill="none" stroke="white" stroke-width="1.5" d="M0,-3.0v7 M-2.5,-0.5L0,-3.0L2.5,-0.5"/>
  </g>
  <g id="resetDef">
    <use xlink:href="#rim2" fill="#404040"><set attributeName="fill" to="#808080" begin="reset.mouseover" end="reset.mouseout"/></use>
  </g>
</defs>
<script type="application/ecmascript">
var viewWidth = 1551;
var viewHeight = 349;
var sectionId = 'dynsection-0';
</script>
<script type="application/ecmascript" xlink:href="svg.min.js"/>
<svg id="graph" class="graph">
<g id="viewport">
<title>/github/workspace/support/eigexed/fcarouge/linalg.hpp</title>
<!-- Node1 -->
<g id="Node000001" class="node">
<title>Node1</title>
<g id="a_Node000001"><a xlink:title="Scalar type linear algebra with Eigen implementation.">
<polygon fill="#999999" stroke="#666666" points="619.5,-340.5 483.5,-340.5 483.5,-310 619.5,-310 619.5,-340.5"/>
<text text-anchor="start" x="491.5" y="-327" font-family="Helvetica,sans-Serif" font-size="10.00">/github/workspace/support</text>
<text text-anchor="middle" x="551.5" y="-315.75" font-family="Helvetica,sans-Serif" font-size="10.00">/eigexed/fcarouge/linalg.hpp</text>
</a>
</g>
</g>
<!-- Node2 -->
<g id="Node000002" class="node">
<title>Node2</title>
<g id="a_Node000002"><a xlink:href="eigen_8hpp.xhtml" target="_top" xlink:title="Linear algebra facade for Eigen3 third party implementation.">
<polygon fill="white" stroke="#666666" points="1103.38,-274 1005.62,-274 1005.62,-254.75 1103.38,-254.75 1103.38,-274"/>
<text text-anchor="middle" x="1054.5" y="-260.5" font-family="Helvetica,sans-Serif" font-size="10.00">fcarouge/eigen.hpp</text>
</a>
</g>
</g>
<!-- Node1&#45;&gt;Node2 -->
<g id="edge1_Node000001_Node000002" class="edge">
<title>Node1&#45;&gt;Node2</title>
<g id="a_edge1_Node000001_Node000002"><a xlink:title=" ">
<path fill="none" stroke="#63b8ff" d="M619.86,-316.25C718.62,-304.69 899.67,-283.5 993.9,-272.47"/>
<polygon fill="#63b8ff" stroke="#63b8ff" points="994.19,-275.96 1003.72,-271.32 993.38,-269.01 994.19,-275.96"/>
</a>
</g>
</g>
<!-- Node3 -->
<g id="Node000003" class="node">
<title>Node3</title>
<g id="a_Node000003"><a xlink:href="typed__linear__algebra_8hpp.xhtml" target="_top" xlink:title="Typed linear algebra implementation.">
<polygon fill="white" stroke="#666666" points="605.62,-218.75 497.38,-218.75 497.38,-188.25 605.62,-188.25 605.62,-218.75"/>
<text text-anchor="start" x="505.38" y="-205.25" font-family="Helvetica,sans-Serif" font-size="10.00">fcarouge/typed_linear</text>
<text text-anchor="middle" x="551.5" y="-194" font-family="Helvetica,sans-Serif" font-size="10.00">_algebra.hpp</text>
</a>
</g>
</g>
<!-- Node1&#45;&gt;Node3 -->
<g id="edge28_Node000001_Node000003" class="edge">
<title>Node1&#45;&gt;Node3</title>
<g id="a_edge28_Node000001_Node000003"><a xlink:title=" ">
<path fill="none" stroke="#63b8ff" d="M551.5,-309.57C551.5,-289.89 551.5,-254.64 551.5,-230.44"/>
<polygon fill="#63b8ff" stroke="#63b8ff" points="555,-230.44 551.5,-220.44 548,-230.44 555,-230.44"/>
</a>
</g>
</g>
<!-- Node11 -->
<g id="Node000011" class="node">
<title>Node11</title>
<g id="a_Node000011"><a xlink:title=" ">
<polygon fill="#e0e0e0" stroke="#999999" points="66.62,-74.5 18.38,-74.5 18.38,-55.25 66.62,-55.25 66.62,-74.5"/>
<text text-anchor="middle" x="42.5" y="-61" font-family="Helvetica,sans-Serif" font-size="10.00">cstddef</text>
</a>
</g>
</g>
<!-- Node1&#45;&gt;Node11 -->
<g id="edge29_Node000001_Node000011" class="edge">
<title>Node1&#45;&gt;Node11</title>
<g id="a_edge29_Node000001_Node000011"><a xlink:title=" ">
<path fill="none" stroke="#63b8ff" d="M483.04,-322.44C373.16,-315.53 158.99,-284.74 52.5,-152.25 37.6,-133.71 37.25,-105.27 39.19,-86.14"/>
<polygon fill="#63b8ff" stroke="#63b8ff" points="42.64,-86.74 40.5,-76.37 35.7,-85.81 42.64,-86.74"/>
</a>
</g>
</g>
<!-- Node2&#45;&gt;Node3 -->
<g id="edge2_Node000002_Node000003" class="edge">
<title>Node2&#45;&gt;Node3</title>
<g id="a_edge2_Node000002_Node000003"><a xlink:title=" ">
<path fill="none" stroke="#63b8ff" d="M1005.35,-257.62C914.31,-246.97 719.4,-224.15 617.17,-212.19"/>
<polygon fill="#63b8ff" stroke="#63b8ff" points="617.61,-208.71 607.27,-211.03 616.8,-215.67 617.61,-208.71"/>
</a>
</g>
</g>
<!-- Node12 -->
<g id="Node000012" class="node">
<title>Node12</title>
<g id="a_Node000012"><a xlink:title=" ">
<polygon fill="#e0e0e0" stroke="#999999" points="385.38,-74.5 341.62,-74.5 341.62,-55.25 385.38,-55.25 385.38,-74.5"/>
<text text-anchor="middle" x="363.5" y="-61" font-family="Helvetica,sans-Serif" font-size="10.00">format</text>
</a>
</g>
</g>
<!-- Node2&#45;&gt;Node12 -->
<g id="edge25_Node000002_Node000012" class="edge">
<title>Node2&#45;&gt;Node12</title>
<g id="a_edge25_Node000002_Node000012"><a xlink:title=" ">
<path fill="none" stroke="#63b8ff" d="M1103.81,-259.16C1221.18,-247.45 1500.53,-208.64 1406.5,-110.5 1370.76,-73.2 571.17,-66.94 396.86,-66.02"/>
<polygon fill="#63b8ff" stroke="#63b8ff" points="396.94,-62.52 386.92,-65.97 396.9,-69.52 396.94,-62.52"/>
</a>
</g>
</g>
<!-- Node21 -->
<g id="Node000021" class="node">
<title>Node21</title>
<g id="a_Node000021"><a xlink:title=" ">
<polygon fill="#e0e0e0" stroke="#999999" points="1543.12,-213.12 1491.88,-213.12 1491.88,-193.88 1543.12,-193.88 1543.12,-213.12"/>
<text text-anchor="middle" x="1517.5" y="-199.62" font-family="Helvetica,sans-Serif" font-size="10.00">sstream</text>
</a>
</g>
</g>
<!-- Node2&#45;&gt;Node21 -->
<g id="edge26_Node000002_Node000021" class="edge">
<title>Node2&#45;&gt;Node21</title>
<g id="a_edge26_Node000002_Node000021"><a xlink:title=" ">
<path fill="none" stroke="#63b8ff" d="M1103.65,-261.96C1183.14,-258.84 1344.47,-249.01 1477.5,-218.75 1479.66,-218.26 1481.86,-217.69 1484.06,-217.06"/>
<polygon fill="#63b8ff" stroke="#63b8ff" points="1485.03,-220.43 1493.49,-214.05 1482.9,-213.76 1485.03,-220.43"/>
</a>
</g>
</g>
<!-- Node22 -->
<g id="Node000022" class="node">
<title>Node22</title>
<g id="a_Node000022"><a xlink:title=" ">
<polygon fill="#e0e0e0" stroke="#999999" points="1088,-213.12 1021,-213.12 1021,-193.88 1088,-193.88 1088,-213.12"/>
<text text-anchor="middle" x="1054.5" y="-199.62" font-family="Helvetica,sans-Serif" font-size="10.00">Eigen/Eigen</text>
</a>
</g>
</g>
<!-- Node2&#45;&gt;Node22 -->
<g id="edge27_Node000002_Node000022" class="edge">
<title>Node2&#45;&gt;Node22</title>
<g id="a_edge27_Node000002_Node000022"><a xlink:title=" ">
<path fill="none" stroke="#63b8ff" d="M1054.5,-254.43C1054.5,-246.65 1054.5,-235.08 1054.5,-225.03"/>
<polygon fill="#63b8ff" stroke="#63b8ff" points="1058,-225.04 1054.5,-215.04 1051,-225.04 1058,-225.04"/>
</a>
</g>
</g>
<!-- Node4 -->
<g id="Node000004" class="node">
<title>Node4</title>
<g id="a_Node000004"><a xlink:href="typed__linear__algebra__forward_8hpp.xhtml" target="_top" xlink:title="Authoritative forward declaration header.">
<polygon fill="white" stroke="#666666" points="335.75,-146.62 231.25,-146.62 231.25,-116.12 335.75,-116.12 335.75,-146.62"/>
<text text-anchor="start" x="239.25" y="-133.12" font-family="Helvetica,sans-Serif" font-size="10.00">typed_linear_algebra</text>
<text text-anchor="middle" x="283.5" y="-121.88" font-family="Helvetica,sans-Serif" font-size="10.00">_forward.hpp</text>
</a>
</g>
</g>
<!-- Node3&#45;&gt;Node4 -->
<g id="edge3_Node000003_Node000004" class="edge">
<title>Node3&#45;&gt;Node4</title>
<g id="a_edge3_Node000003_Node000004"><a xlink:title=" ">
<path fill="none" stroke="#63b8ff" d="M497.3,-189.77C456.52,-180.02 399.33,-165.94 349.5,-152.25 347.11,-151.59 344.67,-150.91 342.21,-150.22"/>
<polygon fill="#63b8ff" stroke="#63b8ff" points="343.4,-146.91 332.82,-147.51 341.46,-153.64 343.4,-146.91"/>
</a>
</g>
</g>
<!-- Node5 -->
<g id="Node000005" class="node">
<title>Node5</title>
<g id="a_Node000005"><a xlink:href="format_8hpp.xhtml" target="_top" xlink:title="Formatting support for the typed matrix.">
<polygon fill="white" stroke="#666666" points="212.75,-146.62 108.25,-146.62 108.25,-116.12 212.75,-116.12 212.75,-146.62"/>
<text text-anchor="start" x="116.25" y="-133.12" font-family="Helvetica,sans-Serif" font-size="10.00">typed_linear_algebra</text>
<text text-anchor="middle" x="160.5" y="-121.88" font-family="Helvetica,sans-Serif" font-size="10.00">_internal/format.hpp</text>
</a>
</g>
</g>
<!-- Node3&#45;&gt;Node5 -->
<g id="edge4_Node000003_Node000005" class="edge">
<title>Node3&#45;&gt;Node5</title>
<g id="a_edge4_Node000003_Node000005"><a xlink:title=" ">
<path fill="none" stroke="#63b8ff" d="M497.14,-196.88C431.49,-189.47 317.98,-174.7 222.5,-152.25 219.76,-151.6 216.96,-150.9 214.14,-150.14"/>
<polygon fill="#63b8ff" stroke="#63b8ff" points="215.31,-146.84 204.73,-147.47 213.4,-153.57 215.31,-146.84"/>
</a>
</g>
</g>
<!-- Node6 -->
<g id="Node000006" class="node">
<title>Node6</title>
<g id="a_Node000006"><a xlink:href="utility_8hpp.xhtml" target="_top" xlink:title=" ">
<polygon fill="white" stroke="#666666" points="176.75,-74.5 120.25,-74.5 120.25,-55.25 176.75,-55.25 176.75,-74.5"/>
<text text-anchor="middle" x="148.5" y="-61" font-family="Helvetica,sans-Serif" font-size="10.00">utility.hpp</text>
</a>
</g>
</g>
<!-- Node3&#45;&gt;Node6 -->
<g id="edge12_Node000003_Node000006" class="edge">
<title>Node3&#45;&gt;Node6</title>
<g id="a_edge12_Node000003_Node000006"><a xlink:title=" ">
<path fill="none" stroke="#63b8ff" d="M497.29,-200.45C382.99,-195.58 125.63,-181.45 99.5,-152.25 87.13,-138.42 92,-127.47 99.5,-110.5 104.66,-98.82 114.56,-88.88 124.12,-81.36"/>
<polygon fill="#63b8ff" stroke="#63b8ff" points="126.08,-84.26 132.14,-75.57 121.99,-78.58 126.08,-84.26"/>
</a>
</g>
</g>
<!-- Node7 -->
<g id="Node000007" class="node">
<title>Node7</title>
<g id="a_Node000007"><a xlink:title=" ">
<polygon fill="#e0e0e0" stroke="#999999" points="885.38,-19.25 829.62,-19.25 829.62,0 885.38,0 885.38,-19.25"/>
<text text-anchor="middle" x="857.5" y="-5.75" font-family="Helvetica,sans-Serif" font-size="10.00">concepts</text>
</a>
</g>
</g>
<!-- Node3&#45;&gt;Node7 -->
<g id="edge13_Node000003_Node000007" class="edge">
<title>Node3&#45;&gt;Node7</title>
<g id="a_edge13_Node000003_Node000007"><a xlink:title=" ">
<path fill="none" stroke="#63b8ff" d="M605.94,-200.3C792.12,-192.65 1392.71,-166.87 1406.5,-152.25 1419.23,-138.75 1418.39,-124.75 1406.5,-110.5 1341.16,-32.2 1011.93,-15.14 897.09,-11.55"/>
<polygon fill="#63b8ff" stroke="#63b8ff" points="897.34,-8.05 887.24,-11.26 897.13,-15.05 897.34,-8.05"/>
</a>
</g>
</g>
<!-- Node9 -->
<g id="Node000009" class="node">
<title>Node9</title>
<g id="a_Node000009"><a xlink:title=" ">
<polygon fill="#e0e0e0" stroke="#999999" points="37,-19.25 0,-19.25 0,0 37,0 37,-19.25"/>
<text text-anchor="middle" x="18.5" y="-5.75" font-family="Helvetica,sans-Serif" font-size="10.00">tuple</text>
</a>
</g>
</g>
<!-- Node3&#45;&gt;Node9 -->
<g id="edge17_Node000003_Node000009" class="edge">
<title>Node3&#45;&gt;Node9</title>
<g id="a_edge17_Node000003_Node000009"><a xlink:title=" ">
<path fill="none" stroke="#63b8ff" d="M496.91,-203.24C382.96,-203.8 124.37,-199.64 52.5,-152.25 19.53,-130.51 19.37,-112.74 9.5,-74.5 5.72,-59.87 8.43,-42.93 11.83,-30.17"/>
<polygon fill="#63b8ff" stroke="#63b8ff" points="15.09,-31.46 14.67,-20.87 8.4,-29.41 15.09,-31.46"/>
</a>
</g>
</g>
<!-- Node3&#45;&gt;Node11 -->
<g id="edge14_Node000003_Node000011" class="edge">
<title>Node3&#45;&gt;Node11</title>
<g id="a_edge14_Node000003_Node000011"><a xlink:title=" ">
<path fill="none" stroke="#63b8ff" d="M496.96,-202.89C389.02,-202.67 152.91,-196.92 87.5,-152.25 64.84,-136.77 52.82,-106.2 47.06,-85.89"/>
<polygon fill="#63b8ff" stroke="#63b8ff" points="50.47,-85.1 44.62,-76.27 43.69,-86.83 50.47,-85.1"/>
</a>
</g>
</g>
<!-- Node3&#45;&gt;Node12 -->
<g id="edge15_Node000003_Node000012" class="edge">
<title>Node3&#45;&gt;Node12</title>
<g id="a_edge15_Node000003_Node000012"><a xlink:title=" ">
<path fill="none" stroke="#63b8ff" d="M497.22,-200.28C459.83,-195.8 411.79,-183.74 382.5,-152.25 365.94,-134.44 362.6,-105.61 362.46,-86.21"/>
<polygon fill="#63b8ff" stroke="#63b8ff" points="365.95,-86.38 362.7,-76.29 358.96,-86.21 365.95,-86.38"/>
</a>
</g>
</g>
<!-- Node13 -->
<g id="Node000013" class="node">
<title>Node13</title>
<g id="a_Node000013"><a xlink:title=" ">
<polygon fill="#e0e0e0" stroke="#999999" points="463.25,-141 391.75,-141 391.75,-121.75 463.25,-121.75 463.25,-141"/>
<text text-anchor="middle" x="427.5" y="-127.5" font-family="Helvetica,sans-Serif" font-size="10.00">initializer_list</text>
</a>
</g>
</g>
<!-- Node3&#45;&gt;Node13 -->
<g id="edge16_Node000003_Node000013" class="edge">
<title>Node3&#45;&gt;Node13</title>
<g id="a_edge16_Node000003_Node000013"><a xlink:title=" ">
<path fill="none" stroke="#63b8ff" d="M525.51,-187.8C504.36,-175.84 474.67,-159.05 453.52,-147.09"/>
<polygon fill="#63b8ff" stroke="#63b8ff" points="455.36,-144.11 444.93,-142.23 451.92,-150.2 455.36,-144.11"/>
</a>
</g>
</g>
<!-- Node14 -->
<g id="Node000014" class="node">
<title>Node14</title>
<g id="a_Node000014"><a xlink:title=" ">
<polygon fill="#e0e0e0" stroke="#999999" points="519.75,-141 481.25,-141 481.25,-121.75 519.75,-121.75 519.75,-141"/>
<text text-anchor="middle" x="500.5" y="-127.5" font-family="Helvetica,sans-Serif" font-size="10.00">utility</text>
</a>
</g>
</g>
<!-- Node3&#45;&gt;Node14 -->
<g id="edge18_Node000003_Node000014" class="edge">
<title>Node3&#45;&gt;Node14</title>
<g id="a_edge18_Node000003_Node000014"><a xlink:title=" ">
<path fill="none" stroke="#63b8ff" d="M540.93,-187.97C532.99,-177.05 522.06,-162.02 513.57,-150.34"/>
<polygon fill="#63b8ff" stroke="#63b8ff" points="516.47,-148.39 507.76,-142.36 510.81,-152.5 516.47,-148.39"/>
</a>
</g>
</g>
<!-- Node15 -->
<g id="Node000015" class="node">
<title>Node15</title>
<g id="a_Node000015"><a xlink:title=" ">
<polygon fill="#e0e0e0" stroke="#999999" points="667.5,-146.62 537.5,-146.62 537.5,-116.12 667.5,-116.12 667.5,-146.62"/>
<text text-anchor="start" x="545.5" y="-133.12" font-family="Helvetica,sans-Serif" font-size="10.00">typed_linear_algebra</text>
<text text-anchor="middle" x="602.5" y="-121.88" font-family="Helvetica,sans-Serif" font-size="10.00">_internal/algorithm/add.tpp</text>
</a>
</g>
</g>
<!-- Node3&#45;&gt;Node15 -->
<g id="edge19_Node000003_Node000015" class="edge">
<title>Node3&#45;&gt;Node15</title>
<g id="a_edge19_Node000003_Node000015"><a xlink:title=" ">
<path fill="none" stroke="#63b8ff" d="M562.07,-187.97C568.77,-178.76 577.59,-166.62 585.29,-156.04"/>
<polygon fill="#63b8ff" stroke="#63b8ff" points="588,-158.26 591.06,-148.11 582.34,-154.14 588,-158.26"/>
</a>
</g>
</g>
<!-- Node16 -->
<g id="Node000016" class="node">
<title>Node16</title>
<g id="a_Node000016"><a xlink:title=" ">
<polygon fill="#e0e0e0" stroke="#999999" points="839.88,-146.62 685.12,-146.62 685.12,-116.12 839.88,-116.12 839.88,-146.62"/>
<text text-anchor="start" x="693.12" y="-133.12" font-family="Helvetica,sans-Serif" font-size="10.00">typed_linear_algebra</text>
<text text-anchor="middle" x="762.5" y="-121.88" font-family="Helvetica,sans-Serif" font-size="10.00">_internal/algorithm/substract.tpp</text>
</a>
</g>
</g>
<!-- Node3&#45;&gt;Node16 -->
<g id="edge20_Node000003_Node000016" class="edge">
<title>Node3&#45;&gt;Node16</title>
<g id="a_edge20_Node000003_Node000016"><a xlink:title=" ">
<path fill="none" stroke="#63b8ff" d="M595.73,-187.8C628.37,-176.95 672.97,-162.13 707.84,-150.54"/>
<polygon fill="#63b8ff" stroke="#63b8ff" points="708.5,-154.01 716.89,-147.53 706.3,-147.37 708.5,-154.01"/>
</a>
</g>
</g>
<!-- Node17 -->
<g id="Node000017" class="node">
<title>Node17</title>
<g id="a_Node000017"><a xlink:title=" ">
<polygon fill="#e0e0e0" stroke="#999999" points="1020.62,-146.62 858.38,-146.62 858.38,-116.12 1020.62,-116.12 1020.62,-146.62"/>
<text text-anchor="start" x="866.38" y="-133.12" font-family="Helvetica,sans-Serif" font-size="10.00">typed_linear_algebra</text>
<text text-anchor="middle" x="939.5" y="-121.88" font-family="Helvetica,sans-Serif" font-size="10.00">_internal/algorithm/transposed.tpp</text>
</a>
</g>
</g>
<!-- Node3&#45;&gt;Node17 -->
<g id="edge21_Node000003_Node000017" class="edge">
<title>Node3&#45;&gt;Node17</title>
<g id="a_edge21_Node000003_Node000017"><a xlink:title=" ">
<path fill="none" stroke="#63b8ff" d="M606.11,-194.06C665.79,-184.64 764.17,-168.58 848.5,-152.25 853.14,-151.35 857.91,-150.4 862.72,-149.41"/>
<polygon fill="#63b8ff" stroke="#63b8ff" points="863.41,-152.85 872.48,-147.38 861.98,-145.99 863.41,-152.85"/>
</a>
</g>
</g>
<!-- Node18 -->
<g id="Node000018" class="node">
<title>Node18</title>
<g id="a_Node000018"><a xlink:title=" ">
<polygon fill="#e0e0e0" stroke="#999999" points="1142.75,-146.62 1038.25,-146.62 1038.25,-116.12 1142.75,-116.12 1142.75,-146.62"/>
<text text-anchor="start" x="1046.25" y="-133.12" font-family="Helvetica,sans-Serif" font-size="10.00">typed_linear_algebra</text>
<text text-anchor="middle" x="1090.5" y="-121.88" font-family="Helvetica,sans-Serif" font-size="10.00">_internal/cast.tpp</text>
</a>
</g>
</g>
<!-- Node3&#45;&gt;Node18 -->
<g id="edge22_Node000003_Node000018" class="edge">
<title>Node3&#45;&gt;Node18</title>
<g id="a_edge22_Node000003_Node000018"><a xlink:title=" ">
<path fill="none" stroke="#63b8ff" d="M605.84,-200.5C695.14,-196.39 878.11,-184.5 1029.5,-152.25 1032.46,-151.62 1035.48,-150.9 1038.52,-150.11"/>
<polygon fill="#63b8ff" stroke="#63b8ff" points="1039.34,-153.52 1048.02,-147.45 1037.45,-146.78 1039.34,-153.52"/>
</a>
</g>
</g>
<!-- Node19 -->
<g id="Node000019" class="node">
<title>Node19</title>
<g id="a_Node000019"><a xlink:title=" ">
<polygon fill="#e0e0e0" stroke="#999999" points="1272.12,-146.62 1160.88,-146.62 1160.88,-116.12 1272.12,-116.12 1272.12,-146.62"/>
<text text-anchor="start" x="1168.88" y="-133.12" font-family="Helvetica,sans-Serif" font-size="10.00">typed_linear_algebra</text>
<text text-anchor="middle" x="1216.5" y="-121.88" font-family="Helvetica,sans-Serif" font-size="10.00">_internal/operation.tpp</text>
</a>
</g>
</g>
<!-- Node3&#45;&gt;Node19 -->
<g id="edge23_Node000003_Node000019" class="edge">
<title>Node3&#45;&gt;Node19</title>
<g id="a_edge23_Node000003_Node000019"><a xlink:title=" ">
<path fill="none" stroke="#63b8ff" d="M605.81,-201.81C711.72,-199.63 952.88,-190.48 1151.5,-152.25 1155.03,-151.57 1158.65,-150.77 1162.27,-149.89"/>
<polygon fill="#63b8ff" stroke="#63b8ff" points="1162.87,-153.35 1171.65,-147.42 1161.09,-146.58 1162.87,-153.35"/>
</a>
</g>
</g>
<!-- Node20 -->
<g id="Node000020" class="node">
<title>Node20</title>
<g id="a_Node000020"><a xlink:title=" ">
<polygon fill="#e0e0e0" stroke="#999999" points="1397.25,-152.25 1289.75,-152.25 1289.75,-110.5 1397.25,-110.5 1397.25,-152.25"/>
<text text-anchor="start" x="1297.75" y="-138.75" font-family="Helvetica,sans-Serif" font-size="10.00">typed_linear_algebra</text>
<text text-anchor="start" x="1297.75" y="-127.5" font-family="Helvetica,sans-Serif" font-size="10.00">_internal/typed_linear</text>
<text text-anchor="middle" x="1343.5" y="-116.25" font-family="Helvetica,sans-Serif" font-size="10.00">_algebra.tpp</text>
</a>
</g>
</g>
<!-- Node3&#45;&gt;Node20 -->
<g id="edge24_Node000003_Node000020" class="edge">
<title>Node3&#45;&gt;Node20</title>
<g id="a_edge24_Node000003_Node000020"><a xlink:title=" ">
<path fill="none" stroke="#63b8ff" d="M606.11,-203.21C726.51,-203.83 1023.72,-200.09 1277.95,-152.72"/>
<polygon fill="#63b8ff" stroke="#63b8ff" points="1278.6,-156.16 1287.77,-150.86 1277.29,-149.28 1278.6,-156.16"/>
</a>
</g>
</g>
<!-- Node5&#45;&gt;Node6 -->
<g id="edge5_Node000005_Node000006" class="edge">
<title>Node5&#45;&gt;Node6</title>
<g id="a_edge5_Node000005_Node000006"><a xlink:title=" ">
<path fill="none" stroke="#63b8ff" d="M157.78,-115.74C156.12,-106.85 153.99,-95.39 152.19,-85.7"/>
<polygon fill="#63b8ff" stroke="#63b8ff" points="155.69,-85.38 150.42,-76.19 148.81,-86.66 155.69,-85.38"/>
</a>
</g>
</g>
<!-- Node5&#45;&gt;Node11 -->
<g id="edge10_Node000005_Node000011" class="edge">
<title>Node5&#45;&gt;Node11</title>
<g id="a_edge10_Node000005_Node000011"><a xlink:title=" ">
<path fill="none" stroke="#63b8ff" d="M133.72,-115.74C114.33,-105.14 88.24,-90.88 68.93,-80.32"/>
<polygon fill="#63b8ff" stroke="#63b8ff" points="70.76,-77.34 60.31,-75.61 67.41,-83.48 70.76,-77.34"/>
</a>
</g>
</g>
<!-- Node5&#45;&gt;Node12 -->
<g id="edge11_Node000005_Node000012" class="edge">
<title>Node5&#45;&gt;Node12</title>
<g id="a_edge11_Node000005_Node000012"><a xlink:title=" ">
<path fill="none" stroke="#63b8ff" d="M206.2,-115.7C211.69,-113.95 217.22,-112.18 222.5,-110.5 259.48,-98.72 301.96,-85.29 330.54,-76.27"/>
<polygon fill="#63b8ff" stroke="#63b8ff" points="331.58,-79.61 340.07,-73.26 329.48,-72.93 331.58,-79.61"/>
</a>
</g>
</g>
<!-- Node6&#45;&gt;Node7 -->
<g id="edge6_Node000006_Node000007" class="edge">
<title>Node6&#45;&gt;Node7</title>
<g id="a_edge6_Node000006_Node000007"><a xlink:title=" ">
<path fill="none" stroke="#63b8ff" d="M177.17,-61.72C288.21,-53.38 690.12,-23.2 818.08,-13.59"/>
<polygon fill="#63b8ff" stroke="#63b8ff" points="818.03,-17.1 827.74,-12.86 817.5,-10.12 818.03,-17.1"/>
</a>
</g>
</g>
<!-- Node8 -->
<g id="Node000008" class="node">
<title>Node8</title>
<g id="a_Node000008"><a xlink:title=" ">
<polygon fill="#e0e0e0" stroke="#999999" points="216.5,-19.25 158.5,-19.25 158.5,0 216.5,0 216.5,-19.25"/>
<text text-anchor="middle" x="187.5" y="-5.75" font-family="Helvetica,sans-Serif" font-size="10.00">functional</text>
</a>
</g>
</g>
<!-- Node6&#45;&gt;Node8 -->
<g id="edge7_Node000006_Node000008" class="edge">
<title>Node6&#45;&gt;Node8</title>
<g id="a_edge7_Node000006_Node000008"><a xlink:title=" ">
<path fill="none" stroke="#63b8ff" d="M154.94,-55.08C160.16,-47.96 167.69,-37.68 174.19,-28.8"/>
<polygon fill="#63b8ff" stroke="#63b8ff" points="176.94,-30.97 180.03,-20.83 171.29,-26.83 176.94,-30.97"/>
</a>
</g>
</g>
<!-- Node6&#45;&gt;Node9 -->
<g id="edge8_Node000006_Node000009" class="edge">
<title>Node6&#45;&gt;Node9</title>
<g id="a_edge8_Node000006_Node000009"><a xlink:title=" ">
<path fill="none" stroke="#63b8ff" d="M126.45,-54.84C104.81,-45.98 71.68,-32.41 47.83,-22.64"/>
<polygon fill="#63b8ff" stroke="#63b8ff" points="49.26,-19.44 38.68,-18.89 46.61,-25.92 49.26,-19.44"/>
</a>
</g>
</g>
<!-- Node10 -->
<g id="Node000010" class="node">
<title>Node10</title>
<g id="a_Node000010"><a xlink:title=" ">
<polygon fill="#e0e0e0" stroke="#999999" points="140,-19.25 79,-19.25 79,0 140,0 140,-19.25"/>
<text text-anchor="middle" x="109.5" y="-5.75" font-family="Helvetica,sans-Serif" font-size="10.00">type_traits</text>
</a>
</g>
</g>
<!-- Node6&#45;&gt;Node10 -->
<g id="edge9_Node000006_Node000010" class="edge">
<title>Node6&#45;&gt;Node10</title>
<g id="a_edge9_Node000006_Node000010"><a xlink:title=" ">
<path fill="none" stroke="#63b8ff" d="M142.06,-55.08C136.84,-47.96 129.31,-37.68 122.81,-28.8"/>
<polygon fill="#63b8ff" stroke="#63b8ff" points="125.71,-26.83 116.97,-20.83 120.06,-30.97 125.71,-26.83"/>
</a>
</g>
</g>
</g>
</svg>

<g id="navigator" transform="translate(0 0)" fill="#404254">
  <rect fill="#f2f5e9" fill-opacity="0.5" stroke="#606060" stroke-width=".5" x="0" y="0" width="60" height="60"/>
  <use id="zoomplus" xlink:href="#zoomPlus" x="17" y="9" onmousedown="handleZoom(evt,'in')"/>
  <use id="zoomminus" xlink:href="#zoomMin" x="42" y="9" onmousedown="handleZoom(evt,'out')"/>
  <use id="reset" xlink:href="#resetDef" x="30" y="36" onmousedown="handleReset()"/>
   <use id="arrowup" xlink:href="#arrowUp" x="0" y="0" onmousedown="handlePan(0,-1)"/>
  <use id="arrowright" xlink:href="#arrowRight" x="0" y="0" onmousedown="handlePan(1,0)"/>
  <use id="arrowdown" xlink:href="#arrowDown" x="0" y="0" onmousedown="handlePan(0,1)"/>
  <use id="arrowleft" xlink:href="#arrowLeft" x="0" y="0" onmousedown="handlePan(-1,0)"/>
</g>
<svg viewBox="0 0 15 15" width="100%" height="30px" preserveAspectRatio="xMaxYMin meet">
 <g id="arrow_out" transform="scale(0.3 0.3)">
  <a xlink:href="eigexed_2fcarouge_2linalg_8hpp__incl_org.svg" target="_base">
   <rect id="button" ry="5" rx="5" y="6" x="6" height="38" width="38"
        fill="#f2f5e9" fill-opacity="0.5" stroke="#606060" stroke-width="1.0"/>
   <path id="arrow"
     d="M 11.500037,31.436501 C 11.940474,20.09759 22.043105,11.32322 32.158766,21.979434 L 37.068811,17.246167 C 37.068811,17.246167 37.088388,32 37.088388,32 L 22.160133,31.978069 C 22.160133,31.978069 26.997745,27.140456 26.997745,27.140456 C 18.528582,18.264221 13.291696,25.230495 11.500037,31.436501 z"
     style="fill:#404040;"/>
  </a>
 </g>
</svg>

<style type='text/css'>
<![CDATA[
[data-mouse-over-selected='false'] { opacity: 0.7; }
[data-mouse-over-selected='true']  { opacity: 1.0; }
]]>
</style>
<script type="application/ecmascript"><![CDATA[
document.addEventListener('DOMContentLoaded', (event) => {
  highlightEdges();
  highlightAdjacentNodes();
});
]]></script>
</svg>
