<?xml version="1.0" encoding="UTF-8" standalone="no"?>
<!DOCTYPE svg PUBLIC "-//W3C//DTD SVG 1.1//EN"
 "http://www.w3.org/Graphics/SVG/1.1/DTD/svg11.dtd">
<!-- Generated by graphviz version 12.2.0 (20241103.1931)
 -->
<!-- Title: /github/workspace/support/eigen/fcarouge/eigen.hpp Pages: 1 -->
<svg width="2488pt" height="249pt"
 viewBox="0.00 0.00 2487.88 249.25" xmlns="http://www.w3.org/2000/svg" xmlns:xlink="http://www.w3.org/1999/xlink">
<g id="graph0" class="graph" transform="scale(1 1) rotate(0) translate(4 245.25)">
<title>/github/workspace/support/eigen/fcarouge/eigen.hpp</title>
<!-- Node1 -->
<g id="Node000001" class="node">
<title>Node1</title>
<g id="a_Node000001"><a xlink:title="Linear algebra facade for Eigen3 third party implementation.">
<polygon fill="#999999" stroke="#666666" points="1955.75,-241.25 1825,-241.25 1825,-210.75 1955.75,-210.75 1955.75,-241.25"/>
<text text-anchor="start" x="1833" y="-227.75" font-family="Helvetica,sans-Serif" font-size="10.00">/github/workspace/support</text>
<text text-anchor="middle" x="1890.38" y="-216.5" font-family="Helvetica,sans-Serif" font-size="10.00">/eigen/fcarouge/eigen.hpp</text>
</a>
</g>
</g>
<!-- Node2 -->
<g id="Node000002" class="node">
<title>Node2</title>
<g id="a_Node000002"><a xlink:href="typed__linear__algebra_8hpp.xhtml" target="_top" xlink:title="Typed linear algebra implementation.">
<polygon fill="white" stroke="#666666" points="1557.5,-174.75 1449.25,-174.75 1449.25,-144.25 1557.5,-144.25 1557.5,-174.75"/>
<text text-anchor="start" x="1457.25" y="-161.25" font-family="Helvetica,sans-Serif" font-size="10.00">fcarouge/typed_linear</text>
<text text-anchor="middle" x="1503.38" y="-150" font-family="Helvetica,sans-Serif" font-size="10.00">_algebra.hpp</text>
</a>
</g>
</g>
<!-- Node1&#45;&gt;Node2 -->
<g id="edge1_Node000001_Node000002" class="edge">
<title>Node1&#45;&gt;Node2</title>
<g id="a_edge1_Node000001_Node000002"><a xlink:title=" ">
<path fill="none" stroke="#63b8ff" d="M1824.73,-214.06C1753.39,-202.17 1640.09,-183.29 1568.83,-171.41"/>
<polygon fill="#63b8ff" stroke="#63b8ff" points="1569.7,-168.01 1559.26,-169.81 1568.55,-174.91 1569.7,-168.01"/>
</a>
</g>
</g>
<!-- Node5 -->
<g id="Node000005" class="node">
<title>Node5</title>
<g id="a_Node000005"><a xlink:title=" ">
<polygon fill="#e0e0e0" stroke="#999999" points="1616.25,-24.88 1560.5,-24.88 1560.5,-5.63 1616.25,-5.63 1616.25,-24.88"/>
<text text-anchor="middle" x="1588.38" y="-11.38" font-family="Helvetica,sans-Serif" font-size="10.00">concepts</text>
</a>
</g>
</g>
<!-- Node1&#45;&gt;Node5 -->
<g id="edge28_Node000001_Node000005" class="edge">
<title>Node1&#45;&gt;Node5</title>
<g id="a_edge28_Node000001_Node000005"><a xlink:title=" ">
<path fill="none" stroke="#63b8ff" d="M1824.67,-224.86C1505.91,-223.99 132.69,-217.72 53.38,-174.75 21.78,-157.63 18.08,-142.55 7.38,-108.25 1.85,-90.54 -5.53,-79.83 7.38,-66.5 35.03,-37.95 1306.53,-19.93 1548.75,-16.75"/>
<polygon fill="#63b8ff" stroke="#63b8ff" points="1548.66,-20.26 1558.61,-16.63 1548.57,-13.26 1548.66,-20.26"/>
</a>
</g>
</g>
<!-- Node6 -->
<g id="Node000006" class="node">
<title>Node6</title>
<g id="a_Node000006"><a xlink:title=" ">
<polygon fill="#e0e0e0" stroke="#999999" points="1959.5,-24.88 1911.25,-24.88 1911.25,-5.63 1959.5,-5.63 1959.5,-24.88"/>
<text text-anchor="middle" x="1935.38" y="-11.38" font-family="Helvetica,sans-Serif" font-size="10.00">cstddef</text>
</a>
</g>
</g>
<!-- Node1&#45;&gt;Node6 -->
<g id="edge29_Node000001_Node000006" class="edge">
<title>Node1&#45;&gt;Node6</title>
<g id="a_edge29_Node000001_Node000006"><a xlink:title=" ">
<path fill="none" stroke="#63b8ff" d="M1956.21,-213.64C2052.02,-195.61 2222.4,-157.4 2258.38,-108.25 2269.34,-93.28 2270.66,-80.41 2258.38,-66.5 2215.54,-17.99 2031.91,-47.16 1969.38,-30.5 1967.98,-30.13 1966.58,-29.71 1965.16,-29.26"/>
<polygon fill="#63b8ff" stroke="#63b8ff" points="1966.49,-26.02 1955.9,-25.85 1964.07,-32.59 1966.49,-26.02"/>
</a>
</g>
</g>
<!-- Node8 -->
<g id="Node000008" class="node">
<title>Node8</title>
<g id="a_Node000008"><a xlink:title=" ">
<polygon fill="#e0e0e0" stroke="#999999" points="2014.88,-24.88 1977.88,-24.88 1977.88,-5.63 2014.88,-5.63 2014.88,-24.88"/>
<text text-anchor="middle" x="1996.38" y="-11.38" font-family="Helvetica,sans-Serif" font-size="10.00">tuple</text>
</a>
</g>
</g>
<!-- Node1&#45;&gt;Node8 -->
<g id="edge32_Node000001_Node000008" class="edge">
<title>Node1&#45;&gt;Node8</title>
<g id="a_edge32_Node000001_Node000008"><a xlink:title=" ">
<path fill="none" stroke="#63b8ff" d="M1956.21,-221.84C2016.72,-217.06 2107.9,-205.03 2181.38,-174.75 2229.03,-155.11 2252.58,-153.96 2276.38,-108.25 2284.95,-91.79 2288.28,-80.73 2276.38,-66.5 2244.75,-28.7 2092.26,-19.3 2026.58,-16.99"/>
<polygon fill="#63b8ff" stroke="#63b8ff" points="2026.99,-13.5 2016.88,-16.68 2026.77,-20.5 2026.99,-13.5"/>
</a>
</g>
</g>
<!-- Node9 -->
<g id="Node000009" class="node">
<title>Node9</title>
<g id="a_Node000009"><a xlink:title=" ">
<polygon fill="#e0e0e0" stroke="#999999" points="1694.88,-24.88 1633.88,-24.88 1633.88,-5.63 1694.88,-5.63 1694.88,-24.88"/>
<text text-anchor="middle" x="1664.38" y="-11.38" font-family="Helvetica,sans-Serif" font-size="10.00">type_traits</text>
</a>
</g>
</g>
<!-- Node1&#45;&gt;Node9 -->
<g id="edge33_Node000001_Node000009" class="edge">
<title>Node1&#45;&gt;Node9</title>
<g id="a_edge33_Node000001_Node000009"><a xlink:title=" ">
<path fill="none" stroke="#63b8ff" d="M1824.93,-225.11C1560,-225.25 566.52,-222.48 256.38,-174.75 148.67,-158.17 86.16,-195.13 20.38,-108.25 9.18,-93.46 7.4,-79.77 20.38,-66.5 82.73,-2.73 1537.73,-47.03 1625.38,-30.5 1627.85,-30.03 1630.38,-29.43 1632.89,-28.73"/>
<polygon fill="#63b8ff" stroke="#63b8ff" points="1633.81,-32.12 1642.24,-25.7 1631.65,-25.46 1633.81,-32.12"/>
</a>
</g>
</g>
<!-- Node10 -->
<g id="Node000010" class="node">
<title>Node10</title>
<g id="a_Node000010"><a xlink:title=" ">
<polygon fill="#e0e0e0" stroke="#999999" points="73.25,-97 29.5,-97 29.5,-77.75 73.25,-77.75 73.25,-97"/>
<text text-anchor="middle" x="51.38" y="-83.5" font-family="Helvetica,sans-Serif" font-size="10.00">format</text>
</a>
</g>
</g>
<!-- Node1&#45;&gt;Node10 -->
<g id="edge30_Node000001_Node000010" class="edge">
<title>Node1&#45;&gt;Node10</title>
<g id="a_edge30_Node000001_Node000010"><a xlink:title=" ">
<path fill="none" stroke="#63b8ff" d="M1824.6,-225.13C1540.2,-225.05 415.58,-217.67 82.38,-108.25 78.79,-107.07 75.21,-105.38 71.83,-103.48"/>
<polygon fill="#63b8ff" stroke="#63b8ff" points="74.01,-100.72 63.71,-98.24 70.22,-106.61 74.01,-100.72"/>
</a>
</g>
</g>
<!-- Node25 -->
<g id="Node000025" class="node">
<title>Node25</title>
<g id="a_Node000025"><a xlink:title=" ">
<polygon fill="#e0e0e0" stroke="#999999" points="2395,-169.12 2343.75,-169.12 2343.75,-149.88 2395,-149.88 2395,-169.12"/>
<text text-anchor="middle" x="2369.38" y="-155.62" font-family="Helvetica,sans-Serif" font-size="10.00">sstream</text>
</a>
</g>
</g>
<!-- Node1&#45;&gt;Node25 -->
<g id="edge31_Node000001_Node000025" class="edge">
<title>Node1&#45;&gt;Node25</title>
<g id="a_edge31_Node000001_Node000025"><a xlink:title=" ">
<path fill="none" stroke="#63b8ff" d="M1955.88,-222.17C2042.38,-217.37 2198.98,-205.02 2329.38,-174.75 2331.53,-174.25 2333.73,-173.67 2335.93,-173.04"/>
<polygon fill="#63b8ff" stroke="#63b8ff" points="2336.91,-176.4 2345.36,-170.02 2334.77,-169.74 2336.91,-176.4"/>
</a>
</g>
</g>
<!-- Node26 -->
<g id="Node000026" class="node">
<title>Node26</title>
<g id="a_Node000026"><a xlink:title=" ">
<polygon fill="#e0e0e0" stroke="#999999" points="2479.88,-169.12 2412.88,-169.12 2412.88,-149.88 2479.88,-149.88 2479.88,-169.12"/>
<text text-anchor="middle" x="2446.38" y="-155.62" font-family="Helvetica,sans-Serif" font-size="10.00">Eigen/Eigen</text>
</a>
</g>
</g>
<!-- Node1&#45;&gt;Node26 -->
<g id="edge34_Node000001_Node000026" class="edge">
<title>Node1&#45;&gt;Node26</title>
<g id="a_edge34_Node000001_Node000026"><a xlink:title=" ">
<path fill="none" stroke="#63b8ff" d="M1956.03,-223.39C2054.48,-219.9 2245.73,-208.94 2404.38,-174.75 2406.82,-174.22 2409.32,-173.6 2411.83,-172.91"/>
<polygon fill="#63b8ff" stroke="#63b8ff" points="2412.67,-176.32 2421.21,-170.05 2410.62,-169.62 2412.67,-176.32"/>
</a>
</g>
</g>
<!-- Node3 -->
<g id="Node000003" class="node">
<title>Node3</title>
<g id="a_Node000003"><a xlink:href="typed__linear__algebra__forward_8hpp.xhtml" target="_top" xlink:title="Authoritative forward declaration header.">
<polygon fill="white" stroke="#666666" points="1893.63,-30.5 1789.13,-30.5 1789.13,0 1893.63,0 1893.63,-30.5"/>
<text text-anchor="start" x="1797.13" y="-17" font-family="Helvetica,sans-Serif" font-size="10.00">typed_linear_algebra</text>
<text text-anchor="middle" x="1841.38" y="-5.75" font-family="Helvetica,sans-Serif" font-size="10.00">_forward.hpp</text>
</a>
</g>
</g>
<!-- Node2&#45;&gt;Node3 -->
<g id="edge2_Node000002_Node000003" class="edge">
<title>Node2&#45;&gt;Node3</title>
<g id="a_edge2_Node000002_Node000003"><a xlink:title=" ">
<path fill="none" stroke="#63b8ff" d="M1558,-158.89C1646.04,-158.22 1813.23,-151.17 1850.38,-108.25 1866.06,-90.13 1860.38,-61.84 1852.93,-41.41"/>
<polygon fill="#63b8ff" stroke="#63b8ff" points="1856.28,-40.36 1849.3,-32.39 1849.79,-42.98 1856.28,-40.36"/>
</a>
</g>
</g>
<!-- Node4 -->
<g id="Node000004" class="node">
<title>Node4</title>
<g id="a_Node000004"><a xlink:href="utility_8hpp.xhtml" target="_top" xlink:title=" ">
<polygon fill="white" stroke="#666666" points="1841.63,-102.62 1737.13,-102.62 1737.13,-72.12 1841.63,-72.12 1841.63,-102.62"/>
<text text-anchor="start" x="1745.13" y="-89.12" font-family="Helvetica,sans-Serif" font-size="10.00">typed_linear_algebra</text>
<text text-anchor="middle" x="1789.38" y="-77.88" font-family="Helvetica,sans-Serif" font-size="10.00">_internal/utility.hpp</text>
</a>
</g>
</g>
<!-- Node2&#45;&gt;Node4 -->
<g id="edge3_Node000002_Node000004" class="edge">
<title>Node2&#45;&gt;Node4</title>
<g id="a_edge3_Node000002_Node000004"><a xlink:title=" ">
<path fill="none" stroke="#63b8ff" d="M1557.87,-147.13C1602.55,-137.55 1667.32,-123.07 1723.38,-108.25 1725.91,-107.58 1728.5,-106.88 1731.11,-106.15"/>
<polygon fill="#63b8ff" stroke="#63b8ff" points="1731.78,-109.6 1740.44,-103.51 1729.87,-102.87 1731.78,-109.6"/>
</a>
</g>
</g>
<!-- Node2&#45;&gt;Node5 -->
<g id="edge10_Node000002_Node000005" class="edge">
<title>Node2&#45;&gt;Node5</title>
<g id="a_edge10_Node000002_Node000005"><a xlink:title=" ">
<path fill="none" stroke="#63b8ff" d="M1557.97,-151.24C1607.2,-143.44 1674.27,-129.26 1690.38,-108.25 1701.67,-93.52 1700.18,-82.26 1690.38,-66.5 1686.26,-59.89 1648.45,-42.33 1620.05,-29.83"/>
<polygon fill="#63b8ff" stroke="#63b8ff" points="1621.67,-26.72 1611.11,-25.93 1618.87,-33.14 1621.67,-26.72"/>
</a>
</g>
</g>
<!-- Node2&#45;&gt;Node6 -->
<g id="edge11_Node000002_Node000006" class="edge">
<title>Node2&#45;&gt;Node6</title>
<g id="a_edge11_Node000002_Node000006"><a xlink:title=" ">
<path fill="none" stroke="#63b8ff" d="M1557.97,-156.25C1646.86,-151.72 1818.09,-139.17 1869.38,-108.25 1897.63,-91.22 1917.21,-56.97 1927.34,-35.41"/>
<polygon fill="#63b8ff" stroke="#63b8ff" points="1930.4,-37.13 1931.27,-26.57 1924.01,-34.28 1930.4,-37.13"/>
</a>
</g>
</g>
<!-- Node2&#45;&gt;Node8 -->
<g id="edge14_Node000002_Node000008" class="edge">
<title>Node2&#45;&gt;Node8</title>
<g id="a_edge14_Node000002_Node000008"><a xlink:title=" ">
<path fill="none" stroke="#63b8ff" d="M1557.88,-155.98C1652.71,-150.88 1843.66,-137.28 1903.38,-108.25 1938.29,-91.28 1968.04,-55.96 1983.96,-34.35"/>
<polygon fill="#63b8ff" stroke="#63b8ff" points="1986.61,-36.66 1989.57,-26.48 1980.91,-32.6 1986.61,-36.66"/>
</a>
</g>
</g>
<!-- Node2&#45;&gt;Node10 -->
<g id="edge12_Node000002_Node000010" class="edge">
<title>Node2&#45;&gt;Node10</title>
<g id="a_edge12_Node000002_Node000010"><a xlink:title=" ">
<path fill="none" stroke="#63b8ff" d="M1448.83,-157.38C1196.11,-152.08 148.65,-128.95 82.38,-108.25 78.71,-107.11 75.07,-105.41 71.63,-103.48"/>
<polygon fill="#63b8ff" stroke="#63b8ff" points="73.69,-100.64 63.4,-98.13 69.88,-106.51 73.69,-100.64"/>
</a>
</g>
</g>
<!-- Node11 -->
<g id="Node000011" class="node">
<title>Node11</title>
<g id="a_Node000011"><a xlink:title=" ">
<polygon fill="#e0e0e0" stroke="#999999" points="2045.13,-97 1973.63,-97 1973.63,-77.75 2045.13,-77.75 2045.13,-97"/>
<text text-anchor="middle" x="2009.38" y="-83.5" font-family="Helvetica,sans-Serif" font-size="10.00">initializer_list</text>
</a>
</g>
</g>
<!-- Node2&#45;&gt;Node11 -->
<g id="edge13_Node000002_Node000011" class="edge">
<title>Node2&#45;&gt;Node11</title>
<g id="a_edge13_Node000002_Node000011"><a xlink:title=" ">
<path fill="none" stroke="#63b8ff" d="M1557.9,-157.2C1644.29,-154.1 1817.36,-143.61 1959.38,-108.25 1966.11,-106.57 1973.15,-104.19 1979.75,-101.66"/>
<polygon fill="#63b8ff" stroke="#63b8ff" points="1980.97,-104.95 1988.9,-97.93 1978.32,-98.47 1980.97,-104.95"/>
</a>
</g>
</g>
<!-- Node12 -->
<g id="Node000012" class="node">
<title>Node12</title>
<g id="a_Node000012"><a xlink:title=" ">
<polygon fill="#e0e0e0" stroke="#999999" points="2101.63,-97 2063.13,-97 2063.13,-77.75 2101.63,-77.75 2101.63,-97"/>
<text text-anchor="middle" x="2082.38" y="-83.5" font-family="Helvetica,sans-Serif" font-size="10.00">utility</text>
</a>
</g>
</g>
<!-- Node2&#45;&gt;Node12 -->
<g id="edge15_Node000002_Node000012" class="edge">
<title>Node2&#45;&gt;Node12</title>
<g id="a_edge15_Node000002_Node000012"><a xlink:title=" ">
<path fill="none" stroke="#63b8ff" d="M1557.55,-157.13C1677.94,-153.52 1964.17,-141.6 2054.38,-108.25 2057.37,-107.14 2060.33,-105.63 2063.14,-103.94"/>
<polygon fill="#63b8ff" stroke="#63b8ff" points="2065.1,-106.84 2071.25,-98.22 2061.06,-101.12 2065.1,-106.84"/>
</a>
</g>
</g>
<!-- Node13 -->
<g id="Node000013" class="node">
<title>Node13</title>
<g id="a_Node000013"><a xlink:title=" ">
<polygon fill="#e0e0e0" stroke="#999999" points="2249.38,-102.62 2119.38,-102.62 2119.38,-72.12 2249.38,-72.12 2249.38,-102.62"/>
<text text-anchor="start" x="2127.38" y="-89.12" font-family="Helvetica,sans-Serif" font-size="10.00">typed_linear_algebra</text>
<text text-anchor="middle" x="2184.38" y="-77.88" font-family="Helvetica,sans-Serif" font-size="10.00">_internal/algorithm/add.tpp</text>
</a>
</g>
</g>
<!-- Node2&#45;&gt;Node13 -->
<g id="edge16_Node000002_Node000013" class="edge">
<title>Node2&#45;&gt;Node13</title>
<g id="a_edge16_Node000002_Node000013"><a xlink:title=" ">
<path fill="none" stroke="#63b8ff" d="M1557.79,-157.27C1664.53,-154.13 1908.54,-143.41 2110.38,-108.25 2114.68,-107.5 2119.09,-106.62 2123.52,-105.65"/>
<polygon fill="#63b8ff" stroke="#63b8ff" points="2124.08,-109.11 2133.02,-103.42 2122.49,-102.29 2124.08,-109.11"/>
</a>
</g>
</g>
<!-- Node14 -->
<g id="Node000014" class="node">
<title>Node14</title>
<g id="a_Node000014"><a xlink:title=" ">
<polygon fill="#e0e0e0" stroke="#999999" points="231.25,-102.62 91.5,-102.62 91.5,-72.12 231.25,-72.12 231.25,-102.62"/>
<text text-anchor="start" x="99.5" y="-89.12" font-family="Helvetica,sans-Serif" font-size="10.00">typed_linear_algebra</text>
<text text-anchor="middle" x="161.38" y="-77.88" font-family="Helvetica,sans-Serif" font-size="10.00">_internal/algorithm/divide.tpp</text>
</a>
</g>
</g>
<!-- Node2&#45;&gt;Node14 -->
<g id="edge17_Node000002_Node000014" class="edge">
<title>Node2&#45;&gt;Node14</title>
<g id="a_edge17_Node000002_Node000014"><a xlink:title=" ">
<path fill="none" stroke="#63b8ff" d="M1448.93,-157.83C1238.6,-155.02 479.03,-142.64 240.38,-108.25 235.14,-107.5 229.75,-106.54 224.36,-105.45"/>
<polygon fill="#63b8ff" stroke="#63b8ff" points="225.33,-102.08 214.82,-103.38 223.85,-108.92 225.33,-102.08"/>
</a>
</g>
</g>
<!-- Node15 -->
<g id="Node000015" class="node">
<title>Node15</title>
<g id="a_Node000015"><a xlink:title=" ">
<polygon fill="#e0e0e0" stroke="#999999" points="371.25,-108.25 249.5,-108.25 249.5,-66.5 371.25,-66.5 371.25,-108.25"/>
<text text-anchor="start" x="257.5" y="-94.75" font-family="Helvetica,sans-Serif" font-size="10.00">typed_linear_algebra</text>
<text text-anchor="start" x="257.5" y="-83.5" font-family="Helvetica,sans-Serif" font-size="10.00">_internal/algorithm/equal</text>
<text text-anchor="middle" x="310.38" y="-72.25" font-family="Helvetica,sans-Serif" font-size="10.00">_to.tpp</text>
</a>
</g>
</g>
<!-- Node2&#45;&gt;Node15 -->
<g id="edge18_Node000002_Node000015" class="edge">
<title>Node2&#45;&gt;Node15</title>
<g id="a_edge18_Node000002_Node000015"><a xlink:title=" ">
<path fill="none" stroke="#63b8ff" d="M1449.03,-157.74C1257.25,-154.79 611.8,-142.62 382.89,-108.39"/>
<polygon fill="#63b8ff" stroke="#63b8ff" points="383.57,-104.96 373.15,-106.88 382.49,-111.88 383.57,-104.96"/>
</a>
</g>
</g>
<!-- Node16 -->
<g id="Node000016" class="node">
<title>Node16</title>
<g id="a_Node000016"><a xlink:title=" ">
<polygon fill="#e0e0e0" stroke="#999999" points="513.75,-108.25 389,-108.25 389,-66.5 513.75,-66.5 513.75,-108.25"/>
<text text-anchor="start" x="397" y="-94.75" font-family="Helvetica,sans-Serif" font-size="10.00">typed_linear_algebra</text>
<text text-anchor="start" x="397" y="-83.5" font-family="Helvetica,sans-Serif" font-size="10.00">_internal/algorithm/matrix</text>
<text text-anchor="middle" x="451.38" y="-72.25" font-family="Helvetica,sans-Serif" font-size="10.00">_product.tpp</text>
</a>
</g>
</g>
<!-- Node2&#45;&gt;Node16 -->
<g id="edge19_Node000002_Node000016" class="edge">
<title>Node2&#45;&gt;Node16</title>
<g id="a_edge19_Node000002_Node000016"><a xlink:title=" ">
<path fill="none" stroke="#63b8ff" d="M1449,-157.27C1273.93,-153.08 725.29,-138.02 525.28,-108.28"/>
<polygon fill="#63b8ff" stroke="#63b8ff" points="525.94,-104.84 515.52,-106.77 524.87,-111.76 525.94,-104.84"/>
</a>
</g>
</g>
<!-- Node17 -->
<g id="Node000017" class="node">
<title>Node17</title>
<g id="a_Node000017"><a xlink:title=" ">
<polygon fill="#e0e0e0" stroke="#999999" points="678.63,-102.62 532.13,-102.62 532.13,-72.12 678.63,-72.12 678.63,-102.62"/>
<text text-anchor="start" x="540.13" y="-89.12" font-family="Helvetica,sans-Serif" font-size="10.00">typed_linear_algebra</text>
<text text-anchor="middle" x="605.38" y="-77.88" font-family="Helvetica,sans-Serif" font-size="10.00">_internal/algorithm/product.tpp</text>
</a>
</g>
</g>
<!-- Node2&#45;&gt;Node17 -->
<g id="edge20_Node000002_Node000017" class="edge">
<title>Node2&#45;&gt;Node17</title>
<g id="a_edge20_Node000002_Node000017"><a xlink:title=" ">
<path fill="none" stroke="#63b8ff" d="M1449.08,-158.45C1317.59,-157.62 971.93,-151.15 687.38,-108.25 682.13,-107.46 676.73,-106.49 671.32,-105.42"/>
<polygon fill="#63b8ff" stroke="#63b8ff" points="672.24,-102.04 661.73,-103.4 670.79,-108.89 672.24,-102.04"/>
</a>
</g>
</g>
<!-- Node18 -->
<g id="Node000018" class="node">
<title>Node18</title>
<g id="a_Node000018"><a xlink:title=" ">
<polygon fill="#e0e0e0" stroke="#999999" points="834.13,-102.62 696.63,-102.62 696.63,-72.12 834.13,-72.12 834.13,-102.62"/>
<text text-anchor="start" x="704.63" y="-89.12" font-family="Helvetica,sans-Serif" font-size="10.00">typed_linear_algebra</text>
<text text-anchor="middle" x="765.38" y="-77.88" font-family="Helvetica,sans-Serif" font-size="10.00">_internal/algorithm/scale.tpp</text>
</a>
</g>
</g>
<!-- Node2&#45;&gt;Node18 -->
<g id="edge21_Node000002_Node000018" class="edge">
<title>Node2&#45;&gt;Node18</title>
<g id="a_edge21_Node000002_Node000018"><a xlink:title=" ">
<path fill="none" stroke="#63b8ff" d="M1449.1,-157.55C1335.81,-154.86 1066.2,-144.84 843.38,-108.25 838.72,-107.49 833.94,-106.58 829.14,-105.58"/>
<polygon fill="#63b8ff" stroke="#63b8ff" points="829.98,-102.18 819.46,-103.43 828.46,-109.01 829.98,-102.18"/>
</a>
</g>
</g>
<!-- Node19 -->
<g id="Node000019" class="node">
<title>Node19</title>
<g id="a_Node000019"><a xlink:title=" ">
<polygon fill="#e0e0e0" stroke="#999999" points="1006.75,-102.62 852,-102.62 852,-72.12 1006.75,-72.12 1006.75,-102.62"/>
<text text-anchor="start" x="860" y="-89.12" font-family="Helvetica,sans-Serif" font-size="10.00">typed_linear_algebra</text>
<text text-anchor="middle" x="929.38" y="-77.88" font-family="Helvetica,sans-Serif" font-size="10.00">_internal/algorithm/substract.tpp</text>
</a>
</g>
</g>
<!-- Node2&#45;&gt;Node19 -->
<g id="edge22_Node000002_Node000019" class="edge">
<title>Node2&#45;&gt;Node19</title>
<g id="a_edge22_Node000002_Node000019"><a xlink:title=" ">
<path fill="none" stroke="#63b8ff" d="M1449.04,-155.06C1358.76,-148.87 1172.36,-134.02 1016.38,-108.25 1011.2,-107.4 1005.88,-106.42 1000.53,-105.37"/>
<polygon fill="#63b8ff" stroke="#63b8ff" points="1001.54,-102 991.05,-103.43 1000.14,-108.86 1001.54,-102"/>
</a>
</g>
</g>
<!-- Node20 -->
<g id="Node000020" class="node">
<title>Node20</title>
<g id="a_Node000020"><a xlink:title=" ">
<polygon fill="#e0e0e0" stroke="#999999" points="1187.5,-102.62 1025.25,-102.62 1025.25,-72.12 1187.5,-72.12 1187.5,-102.62"/>
<text text-anchor="start" x="1033.25" y="-89.12" font-family="Helvetica,sans-Serif" font-size="10.00">typed_linear_algebra</text>
<text text-anchor="middle" x="1106.38" y="-77.88" font-family="Helvetica,sans-Serif" font-size="10.00">_internal/algorithm/transposed.tpp</text>
</a>
</g>
</g>
<!-- Node2&#45;&gt;Node20 -->
<g id="edge23_Node000002_Node000020" class="edge">
<title>Node2&#45;&gt;Node20</title>
<g id="a_edge23_Node000002_Node000020"><a xlink:title=" ">
<path fill="none" stroke="#63b8ff" d="M1448.87,-150.51C1387.37,-141.27 1284.42,-125.16 1196.38,-108.25 1191.56,-107.33 1186.61,-106.34 1181.62,-105.31"/>
<polygon fill="#63b8ff" stroke="#63b8ff" points="1182.68,-101.96 1172.17,-103.34 1181.24,-108.81 1182.68,-101.96"/>
</a>
</g>
</g>
<!-- Node21 -->
<g id="Node000021" class="node">
<title>Node21</title>
<g id="a_Node000021"><a xlink:title=" ">
<polygon fill="#e0e0e0" stroke="#999999" points="1309.63,-102.62 1205.13,-102.62 1205.13,-72.12 1309.63,-72.12 1309.63,-102.62"/>
<text text-anchor="start" x="1213.13" y="-89.12" font-family="Helvetica,sans-Serif" font-size="10.00">typed_linear_algebra</text>
<text text-anchor="middle" x="1257.38" y="-77.88" font-family="Helvetica,sans-Serif" font-size="10.00">_internal/cast.tpp</text>
</a>
</g>
</g>
<!-- Node2&#45;&gt;Node21 -->
<g id="edge24_Node000002_Node000021" class="edge">
<title>Node2&#45;&gt;Node21</title>
<g id="a_edge24_Node000002_Node000021"><a xlink:title=" ">
<path fill="none" stroke="#63b8ff" d="M1448.85,-144.28C1412.14,-134.54 1362.71,-121.11 1319.38,-108.25 1317.39,-107.66 1315.37,-107.05 1313.33,-106.44"/>
<polygon fill="#63b8ff" stroke="#63b8ff" points="1314.38,-103.09 1303.79,-103.49 1312.31,-109.78 1314.38,-103.09"/>
</a>
</g>
</g>
<!-- Node22 -->
<g id="Node000022" class="node">
<title>Node22</title>
<g id="a_Node000022"><a xlink:title=" ">
<polygon fill="#e0e0e0" stroke="#999999" points="1432.63,-102.62 1328.13,-102.62 1328.13,-72.12 1432.63,-72.12 1432.63,-102.62"/>
<text text-anchor="start" x="1336.13" y="-89.12" font-family="Helvetica,sans-Serif" font-size="10.00">typed_linear_algebra</text>
<text text-anchor="middle" x="1380.38" y="-77.88" font-family="Helvetica,sans-Serif" font-size="10.00">_internal/format.tpp</text>
</a>
</g>
</g>
<!-- Node2&#45;&gt;Node22 -->
<g id="edge25_Node000002_Node000022" class="edge">
<title>Node2&#45;&gt;Node22</title>
<g id="a_edge25_Node000002_Node000022"><a xlink:title=" ">
<path fill="none" stroke="#63b8ff" d="M1477.59,-143.8C1459.72,-133.61 1435.68,-119.9 1415.98,-108.67"/>
<polygon fill="#63b8ff" stroke="#63b8ff" points="1417.86,-105.72 1407.44,-103.81 1414.4,-111.8 1417.86,-105.72"/>
</a>
</g>
</g>
<!-- Node23 -->
<g id="Node000023" class="node">
<title>Node23</title>
<g id="a_Node000023"><a xlink:title=" ">
<polygon fill="#e0e0e0" stroke="#999999" points="1555.63,-102.62 1451.13,-102.62 1451.13,-72.12 1555.63,-72.12 1555.63,-102.62"/>
<text text-anchor="start" x="1459.13" y="-89.12" font-family="Helvetica,sans-Serif" font-size="10.00">typed_linear_algebra</text>
<text text-anchor="middle" x="1503.38" y="-77.88" font-family="Helvetica,sans-Serif" font-size="10.00">_internal/tuple.tpp</text>
</a>
</g>
</g>
<!-- Node2&#45;&gt;Node23 -->
<g id="edge26_Node000002_Node000023" class="edge">
<title>Node2&#45;&gt;Node23</title>
<g id="a_edge26_Node000002_Node000023"><a xlink:title=" ">
<path fill="none" stroke="#63b8ff" d="M1503.38,-143.97C1503.38,-135.41 1503.38,-124.34 1503.38,-114.33"/>
<polygon fill="#63b8ff" stroke="#63b8ff" points="1506.88,-114.4 1503.38,-104.4 1499.88,-114.4 1506.88,-114.4"/>
</a>
</g>
</g>
<!-- Node24 -->
<g id="Node000024" class="node">
<title>Node24</title>
<g id="a_Node000024"><a xlink:title=" ">
<polygon fill="#e0e0e0" stroke="#999999" points="1681.13,-108.25 1573.63,-108.25 1573.63,-66.5 1681.13,-66.5 1681.13,-108.25"/>
<text text-anchor="start" x="1581.63" y="-94.75" font-family="Helvetica,sans-Serif" font-size="10.00">typed_linear_algebra</text>
<text text-anchor="start" x="1581.63" y="-83.5" font-family="Helvetica,sans-Serif" font-size="10.00">_internal/typed_linear</text>
<text text-anchor="middle" x="1627.38" y="-72.25" font-family="Helvetica,sans-Serif" font-size="10.00">_algebra.tpp</text>
</a>
</g>
</g>
<!-- Node2&#45;&gt;Node24 -->
<g id="edge27_Node000002_Node000024" class="edge">
<title>Node2&#45;&gt;Node24</title>
<g id="a_edge27_Node000002_Node000024"><a xlink:title=" ">
<path fill="none" stroke="#63b8ff" d="M1529.37,-143.8C1544.59,-135.19 1564.24,-124.08 1581.95,-114.07"/>
<polygon fill="#63b8ff" stroke="#63b8ff" points="1583.24,-117.36 1590.22,-109.39 1579.8,-111.26 1583.24,-117.36"/>
</a>
</g>
</g>
<!-- Node4&#45;&gt;Node3 -->
<g id="edge4_Node000004_Node000003" class="edge">
<title>Node4&#45;&gt;Node3</title>
<g id="a_edge4_Node000004_Node000003"><a xlink:title=" ">
<path fill="none" stroke="#63b8ff" d="M1800.15,-71.85C1806.98,-62.63 1815.98,-50.5 1823.83,-39.91"/>
<polygon fill="#63b8ff" stroke="#63b8ff" points="1826.57,-42.09 1829.71,-31.98 1820.95,-37.92 1826.57,-42.09"/>
</a>
</g>
</g>
<!-- Node4&#45;&gt;Node5 -->
<g id="edge5_Node000004_Node000005" class="edge">
<title>Node4&#45;&gt;Node5</title>
<g id="a_edge5_Node000004_Node000005"><a xlink:title=" ">
<path fill="none" stroke="#63b8ff" d="M1744.66,-71.67C1711.6,-60.66 1665.53,-45.07 1625.38,-30.5 1624.24,-30.09 1623.09,-29.67 1621.93,-29.24"/>
<polygon fill="#63b8ff" stroke="#63b8ff" points="1623.43,-26.06 1612.83,-25.82 1620.96,-32.61 1623.43,-26.06"/>
</a>
</g>
</g>
<!-- Node4&#45;&gt;Node6 -->
<g id="edge6_Node000004_Node000006" class="edge">
<title>Node4&#45;&gt;Node6</title>
<g id="a_edge6_Node000004_Node000006"><a xlink:title=" ">
<path fill="none" stroke="#63b8ff" d="M1819.98,-71.67C1845.33,-59.5 1881.11,-42.31 1906.09,-30.32"/>
<polygon fill="#63b8ff" stroke="#63b8ff" points="1907.54,-33.5 1915.03,-26.02 1904.51,-27.19 1907.54,-33.5"/>
</a>
</g>
</g>
<!-- Node7 -->
<g id="Node000007" class="node">
<title>Node7</title>
<g id="a_Node000007"><a xlink:title=" ">
<polygon fill="#e0e0e0" stroke="#999999" points="1771.38,-24.88 1713.38,-24.88 1713.38,-5.63 1771.38,-5.63 1771.38,-24.88"/>
<text text-anchor="middle" x="1742.38" y="-11.38" font-family="Helvetica,sans-Serif" font-size="10.00">functional</text>
</a>
</g>
</g>
<!-- Node4&#45;&gt;Node7 -->
<g id="edge7_Node000004_Node000007" class="edge">
<title>Node4&#45;&gt;Node7</title>
<g id="a_edge7_Node000004_Node000007"><a xlink:title=" ">
<path fill="none" stroke="#63b8ff" d="M1779.64,-71.85C1772.32,-60.92 1762.25,-45.9 1754.42,-34.22"/>
<polygon fill="#63b8ff" stroke="#63b8ff" points="1757.56,-32.62 1749.09,-26.26 1751.75,-36.52 1757.56,-32.62"/>
</a>
</g>
</g>
<!-- Node4&#45;&gt;Node8 -->
<g id="edge8_Node000004_Node000008" class="edge">
<title>Node4&#45;&gt;Node8</title>
<g id="a_edge8_Node000004_Node000008"><a xlink:title=" ">
<path fill="none" stroke="#63b8ff" d="M1841.89,-72.5C1878,-62.35 1926.77,-47.44 1968.38,-30.5 1968.73,-30.36 1969.08,-30.21 1969.43,-30.06"/>
<polygon fill="#63b8ff" stroke="#63b8ff" points="1970.73,-33.32 1978.34,-25.94 1967.79,-26.97 1970.73,-33.32"/>
</a>
</g>
</g>
<!-- Node4&#45;&gt;Node9 -->
<g id="edge9_Node000004_Node000009" class="edge">
<title>Node4&#45;&gt;Node9</title>
<g id="a_edge9_Node000004_Node000009"><a xlink:title=" ">
<path fill="none" stroke="#63b8ff" d="M1763.17,-71.67C1741.86,-59.72 1711.93,-42.93 1690.61,-30.97"/>
<polygon fill="#63b8ff" stroke="#63b8ff" points="1692.38,-27.95 1681.94,-26.11 1688.95,-34.05 1692.38,-27.95"/>
</a>
</g>
</g>
</g>
</svg>
