<?xml version="1.0" encoding="UTF-8" standalone="no"?>
<!DOCTYPE svg PUBLIC "-//W3C//DTD SVG 1.1//EN"
 "http://www.w3.org/Graphics/SVG/1.1/DTD/svg11.dtd">
<!-- Generated by graphviz version 12.2.0 (20241103.1931)
 -->
<!-- Title: /github/workspace/support/eigexed/fcarouge/linalg.hpp Pages: 1 -->
<!--zoomable 305 -->

<svg id="main" version="1.1" xmlns="http://www.w3.org/2000/svg" xmlns:xlink="http://www.w3.org/1999/xlink" xml:space="preserve" onload="init(evt)">

<style type="text/css"><![CDATA[
.node, .edge {opacity: 0.7;}
.node.selected, .edge.selected {opacity: 1;}
.edge:hover path { stroke: red; }
.edge:hover polygon { stroke: red; fill: red; }
]]></style>

<defs>
  <circle id="rim" cx="0" cy="0" r="7"/>
  <circle id="rim2" cx="0" cy="0" r="3.5"/>
  <g id="zoomPlus">
    <use xlink:href="#rim" fill="#404040"><set attributeName="fill" to="#808080" begin="zoomplus.mouseover" end="zoomplus.mouseout"/></use>
    <path d="M-4,0h8M0,-4v8" fill="none" stroke="white" stroke-width="1.5" pointer-events="none"/>
  </g>
  <g id="zoomMin">
    <use xlink:href="#rim" fill="#404040"><set attributeName="fill" to="#808080" begin="zoomminus.mouseover" end="zoomminus.mouseout"/></use>
    <path d="M-4,0h8" fill="none" stroke="white" stroke-width="1.5" pointer-events="none"/>
  </g>
  <g id="arrowUp" transform="translate(30 24)">
    <use xlink:href="#rim"/>
    <path pointer-events="none" fill="none" stroke="white" stroke-width="1.5" d="M0,-3.0v7 M-2.5,-0.5L0,-3.0L2.5,-0.5"/>
  </g>
  <g id="arrowRight" transform="rotate(90) translate(36 -43)">
    <use xlink:href="#rim"/>
    <path pointer-events="none" fill="none" stroke="white" stroke-width="1.5" d="M0,-3.0v7 M-2.5,-0.5L0,-3.0L2.5,-0.5"/>
  </g>
  <g id="arrowDown" transform="rotate(180) translate(-30 -48)">
    <use xlink:href="#rim"/>
    <path pointer-events="none" fill="none" stroke="white" stroke-width="1.5" d="M0,-3.0v7 M-2.5,-0.5L0,-3.0L2.5,-0.5"/>
  </g>
  <g id="arrowLeft" transform="rotate(270) translate(-36 17)">
    <use xlink:href="#rim"/>
    <path pointer-events="none" fill="none" stroke="white" stroke-width="1.5" d="M0,-3.0v7 M-2.5,-0.5L0,-3.0L2.5,-0.5"/>
  </g>
  <g id="resetDef">
    <use xlink:href="#rim2" fill="#404040"><set attributeName="fill" to="#808080" begin="reset.mouseover" end="reset.mouseout"/></use>
  </g>
</defs>
<script type="application/ecmascript">
var viewWidth = 2435;
var viewHeight = 305;
var sectionId = 'dynsection-0';
</script>
<script type="application/ecmascript" xlink:href="svg.min.js"/>
<svg id="graph" class="graph">
<g id="viewport">
<title>/github/workspace/support/eigexed/fcarouge/linalg.hpp</title>
<!-- Node1 -->
<g id="Node000001" class="node">
<title>Node1</title>
<g id="a_Node000001"><a xlink:title="Scalar type linear algebra with Eigen implementation.">
<polygon fill="#999999" stroke="#666666" points="283.79,-296.5 147.79,-296.5 147.79,-266 283.79,-266 283.79,-296.5"/>
<text text-anchor="start" x="155.79" y="-283" font-family="Helvetica,sans-Serif" font-size="10.00">/github/workspace/support</text>
<text text-anchor="middle" x="215.79" y="-271.75" font-family="Helvetica,sans-Serif" font-size="10.00">/eigexed/fcarouge/linalg.hpp</text>
</a>
</g>
</g>
<!-- Node2 -->
<g id="Node000002" class="node">
<title>Node2</title>
<g id="a_Node000002"><a xlink:href="eigen_8hpp.xhtml" target="_top" xlink:title="Linear algebra facade for Eigen3 third party implementation.">
<polygon fill="white" stroke="#666666" points="264.66,-230 166.91,-230 166.91,-210.75 264.66,-210.75 264.66,-230"/>
<text text-anchor="middle" x="215.79" y="-216.5" font-family="Helvetica,sans-Serif" font-size="10.00">fcarouge/eigen.hpp</text>
</a>
</g>
</g>
<!-- Node1&#45;&gt;Node2 -->
<g id="edge1_Node000001_Node000002" class="edge">
<title>Node1&#45;&gt;Node2</title>
<g id="a_edge1_Node000001_Node000002"><a xlink:title=" ">
<path fill="none" stroke="#63b8ff" d="M215.79,-265.7C215.79,-258.46 215.79,-249.59 215.79,-241.69"/>
<polygon fill="#63b8ff" stroke="#63b8ff" points="219.29,-241.96 215.79,-231.96 212.29,-241.96 219.29,-241.96"/>
</a>
</g>
</g>
<!-- Node3 -->
<g id="Node000003" class="node">
<title>Node3</title>
<g id="a_Node000003"><a xlink:href="typed__linear__algebra_8hpp.xhtml" target="_top" xlink:title="Typed linear algebra implementation.">
<polygon fill="white" stroke="#666666" points="1178.91,-174.75 1070.66,-174.75 1070.66,-144.25 1178.91,-144.25 1178.91,-174.75"/>
<text text-anchor="start" x="1078.66" y="-161.25" font-family="Helvetica,sans-Serif" font-size="10.00">fcarouge/typed_linear</text>
<text text-anchor="middle" x="1124.79" y="-150" font-family="Helvetica,sans-Serif" font-size="10.00">_algebra.hpp</text>
</a>
</g>
</g>
<!-- Node1&#45;&gt;Node3 -->
<g id="edge36_Node000001_Node000003" class="edge">
<title>Node1&#45;&gt;Node3</title>
<g id="a_edge36_Node000001_Node000003"><a xlink:title=" ">
<path fill="none" stroke="#63b8ff" d="M284.11,-271.25C453.73,-248.9 892.37,-191.12 1059.13,-169.15"/>
<polygon fill="#63b8ff" stroke="#63b8ff" points="1059.23,-172.67 1068.69,-167.89 1058.32,-165.73 1059.23,-172.67"/>
</a>
</g>
</g>
<!-- Node7 -->
<g id="Node000007" class="node">
<title>Node7</title>
<g id="a_Node000007"><a xlink:title=" ">
<polygon fill="#e0e0e0" stroke="#999999" points="72.91,-24.88 24.66,-24.88 24.66,-5.63 72.91,-5.63 72.91,-24.88"/>
<text text-anchor="middle" x="48.79" y="-11.38" font-family="Helvetica,sans-Serif" font-size="10.00">cstddef</text>
</a>
</g>
</g>
<!-- Node1&#45;&gt;Node7 -->
<g id="edge37_Node000001_Node000007" class="edge">
<title>Node1&#45;&gt;Node7</title>
<g id="a_edge37_Node000001_Node000007"><a xlink:title=" ">
<path fill="none" stroke="#63b8ff" d="M153.34,-265.61C106.59,-251.05 45.76,-223.61 15.79,-174.75 -9.37,-133.74 0.69,-112.5 14.79,-66.5 18.41,-54.67 25.87,-43.11 32.89,-34.07"/>
<polygon fill="#63b8ff" stroke="#63b8ff" points="35.46,-36.45 39.15,-26.52 30.07,-31.98 35.46,-36.45"/>
</a>
</g>
</g>
<!-- Node2&#45;&gt;Node3 -->
<g id="edge2_Node000002_Node000003" class="edge">
<title>Node2&#45;&gt;Node3</title>
<g id="a_edge2_Node000002_Node000003"><a xlink:title=" ">
<path fill="none" stroke="#63b8ff" d="M264.98,-216.19C417.99,-206.28 885.61,-175.99 1059.1,-164.75"/>
<polygon fill="#63b8ff" stroke="#63b8ff" points="1059.08,-168.26 1068.83,-164.12 1058.63,-161.28 1059.08,-168.26"/>
</a>
</g>
</g>
<!-- Node6 -->
<g id="Node000006" class="node">
<title>Node6</title>
<g id="a_Node000006"><a xlink:title=" ">
<polygon fill="#e0e0e0" stroke="#999999" points="326.66,-24.88 270.91,-24.88 270.91,-5.63 326.66,-5.63 326.66,-24.88"/>
<text text-anchor="middle" x="298.79" y="-11.38" font-family="Helvetica,sans-Serif" font-size="10.00">concepts</text>
</a>
</g>
</g>
<!-- Node2&#45;&gt;Node6 -->
<g id="edge29_Node000002_Node000006" class="edge">
<title>Node2&#45;&gt;Node6</title>
<g id="a_edge29_Node000002_Node000006"><a xlink:title=" ">
<path fill="none" stroke="#63b8ff" d="M220.24,-210.53C226.92,-195.93 237.64,-166.23 226.79,-144.25 215.14,-120.66 191.44,-131.84 179.79,-108.25 171.57,-91.61 169.53,-81.96 179.79,-66.5 197.36,-40.01 231.96,-27.45 259.34,-21.51"/>
<polygon fill="#63b8ff" stroke="#63b8ff" points="259.91,-24.97 269.07,-19.64 258.59,-18.09 259.91,-24.97"/>
</a>
</g>
</g>
<!-- Node2&#45;&gt;Node7 -->
<g id="edge30_Node000002_Node000007" class="edge">
<title>Node2&#45;&gt;Node7</title>
<g id="a_edge30_Node000002_Node000007"><a xlink:title=" ">
<path fill="none" stroke="#63b8ff" d="M166.77,-214.13C118.61,-207.85 50.05,-195.48 33.79,-174.75 1.88,-134.08 24.6,-68.23 39.16,-35.71"/>
<polygon fill="#63b8ff" stroke="#63b8ff" points="42.3,-37.25 43.39,-26.71 35.97,-34.27 42.3,-37.25"/>
</a>
</g>
</g>
<!-- Node9 -->
<g id="Node000009" class="node">
<title>Node9</title>
<g id="a_Node000009"><a xlink:title=" ">
<polygon fill="#e0e0e0" stroke="#999999" points="2079.29,-24.88 2042.29,-24.88 2042.29,-5.63 2079.29,-5.63 2079.29,-24.88"/>
<text text-anchor="middle" x="2060.79" y="-11.38" font-family="Helvetica,sans-Serif" font-size="10.00">tuple</text>
</a>
</g>
</g>
<!-- Node2&#45;&gt;Node9 -->
<g id="edge33_Node000002_Node000009" class="edge">
<title>Node2&#45;&gt;Node9</title>
<g id="a_edge33_Node000002_Node000009"><a xlink:title=" ">
<path fill="none" stroke="#63b8ff" d="M265.08,-218.79C583.69,-214.79 2341.2,-189.09 2417.79,-108.25 2430.55,-94.78 2429.96,-80.51 2417.79,-66.5 2375.4,-17.73 2169.19,-14.94 2090.96,-15.69"/>
<polygon fill="#63b8ff" stroke="#63b8ff" points="2091.02,-12.19 2081.07,-15.81 2091.11,-19.19 2091.02,-12.19"/>
</a>
</g>
</g>
<!-- Node10 -->
<g id="Node000010" class="node">
<title>Node10</title>
<g id="a_Node000010"><a xlink:title=" ">
<polygon fill="#e0e0e0" stroke="#999999" points="219.29,-24.88 158.29,-24.88 158.29,-5.63 219.29,-5.63 219.29,-24.88"/>
<text text-anchor="middle" x="188.79" y="-11.38" font-family="Helvetica,sans-Serif" font-size="10.00">type_traits</text>
</a>
</g>
</g>
<!-- Node2&#45;&gt;Node10 -->
<g id="edge34_Node000002_Node000010" class="edge">
<title>Node2&#45;&gt;Node10</title>
<g id="a_edge34_Node000002_Node000010"><a xlink:title=" ">
<path fill="none" stroke="#63b8ff" d="M187.75,-210.4C171.19,-203.49 151.6,-192.12 141.79,-174.75 133.18,-159.5 132.33,-102.68 146.79,-66.5 151.79,-53.99 161.16,-42.29 169.78,-33.34"/>
<polygon fill="#63b8ff" stroke="#63b8ff" points="172.16,-35.91 176.88,-26.43 167.28,-30.89 172.16,-35.91"/>
</a>
</g>
</g>
<!-- Node11 -->
<g id="Node000011" class="node">
<title>Node11</title>
<g id="a_Node000011"><a xlink:title=" ">
<polygon fill="#e0e0e0" stroke="#999999" points="232.66,-97 188.91,-97 188.91,-77.75 232.66,-77.75 232.66,-97"/>
<text text-anchor="middle" x="210.79" y="-83.5" font-family="Helvetica,sans-Serif" font-size="10.00">format</text>
</a>
</g>
</g>
<!-- Node2&#45;&gt;Node11 -->
<g id="edge31_Node000002_Node000011" class="edge">
<title>Node2&#45;&gt;Node11</title>
<g id="a_edge31_Node000002_Node000011"><a xlink:title=" ">
<path fill="none" stroke="#63b8ff" d="M229.71,-210.28C240.46,-202.35 254.52,-189.78 260.79,-174.75 266,-162.24 265.63,-156.91 260.79,-144.25 254.91,-128.86 242.62,-115.03 231.7,-104.98"/>
<polygon fill="#63b8ff" stroke="#63b8ff" points="234.02,-102.36 224.16,-98.46 229.44,-107.65 234.02,-102.36"/>
</a>
</g>
</g>
<!-- Node26 -->
<g id="Node000026" class="node">
<title>Node26</title>
<g id="a_Node000026"><a xlink:title=" ">
<polygon fill="#e0e0e0" stroke="#999999" points="94.41,-169.12 43.16,-169.12 43.16,-149.88 94.41,-149.88 94.41,-169.12"/>
<text text-anchor="middle" x="68.79" y="-155.62" font-family="Helvetica,sans-Serif" font-size="10.00">sstream</text>
</a>
</g>
</g>
<!-- Node2&#45;&gt;Node26 -->
<g id="edge32_Node000002_Node000026" class="edge">
<title>Node2&#45;&gt;Node26</title>
<g id="a_edge32_Node000002_Node000026"><a xlink:title=" ">
<path fill="none" stroke="#63b8ff" d="M193.14,-210.3C168.68,-200.51 129.49,-184.81 101.65,-173.66"/>
<polygon fill="#63b8ff" stroke="#63b8ff" points="103.21,-170.52 92.62,-170.05 100.61,-177.01 103.21,-170.52"/>
</a>
</g>
</g>
<!-- Node27 -->
<g id="Node000027" class="node">
<title>Node27</title>
<g id="a_Node000027"><a xlink:title=" ">
<polygon fill="#e0e0e0" stroke="#999999" points="218.29,-169.12 151.29,-169.12 151.29,-149.88 218.29,-149.88 218.29,-169.12"/>
<text text-anchor="middle" x="184.79" y="-155.62" font-family="Helvetica,sans-Serif" font-size="10.00">Eigen/Eigen</text>
</a>
</g>
</g>
<!-- Node2&#45;&gt;Node27 -->
<g id="edge35_Node000002_Node000027" class="edge">
<title>Node2&#45;&gt;Node27</title>
<g id="a_edge35_Node000002_Node000027"><a xlink:title=" ">
<path fill="none" stroke="#63b8ff" d="M211.08,-210.43C206.8,-202.31 200.34,-190.04 194.9,-179.7"/>
<polygon fill="#63b8ff" stroke="#63b8ff" points="198,-178.08 190.25,-170.87 191.81,-181.34 198,-178.08"/>
</a>
</g>
</g>
<!-- Node4 -->
<g id="Node000004" class="node">
<title>Node4</title>
<g id="a_Node000004"><a xlink:href="typed__linear__algebra__forward_8hpp.xhtml" target="_top" xlink:title="Authoritative forward declaration header.">
<polygon fill="white" stroke="#666666" points="1760.04,-30.5 1655.54,-30.5 1655.54,0 1760.04,0 1760.04,-30.5"/>
<text text-anchor="start" x="1663.54" y="-17" font-family="Helvetica,sans-Serif" font-size="10.00">typed_linear_algebra</text>
<text text-anchor="middle" x="1707.79" y="-5.75" font-family="Helvetica,sans-Serif" font-size="10.00">_forward.hpp</text>
</a>
</g>
</g>
<!-- Node3&#45;&gt;Node4 -->
<g id="edge3_Node000003_Node000004" class="edge">
<title>Node3&#45;&gt;Node4</title>
<g id="a_edge3_Node000003_Node000004"><a xlink:title=" ">
<path fill="none" stroke="#63b8ff" d="M1179.41,-157.42C1367.05,-153.45 1975.4,-138.31 2003.79,-108.25 2073.75,-34.17 1878.28,-19.35 1771.76,-16.65"/>
<polygon fill="#63b8ff" stroke="#63b8ff" points="1772.07,-13.15 1762,-16.43 1771.92,-20.15 1772.07,-13.15"/>
</a>
</g>
</g>
<!-- Node5 -->
<g id="Node000005" class="node">
<title>Node5</title>
<g id="a_Node000005"><a xlink:href="utility_8hpp.xhtml" target="_top" xlink:title=" ">
<polygon fill="white" stroke="#666666" points="1396.04,-102.62 1291.54,-102.62 1291.54,-72.12 1396.04,-72.12 1396.04,-102.62"/>
<text text-anchor="start" x="1299.54" y="-89.12" font-family="Helvetica,sans-Serif" font-size="10.00">typed_linear_algebra</text>
<text text-anchor="middle" x="1343.79" y="-77.88" font-family="Helvetica,sans-Serif" font-size="10.00">_internal/utility.hpp</text>
</a>
</g>
</g>
<!-- Node3&#45;&gt;Node5 -->
<g id="edge4_Node000003_Node000005" class="edge">
<title>Node3&#45;&gt;Node5</title>
<g id="a_edge4_Node000003_Node000005"><a xlink:title=" ">
<path fill="none" stroke="#63b8ff" d="M1171.14,-143.85C1202.64,-133.88 1245.25,-120.33 1282.79,-108.25 1284.57,-107.68 1286.39,-107.09 1288.22,-106.5"/>
<polygon fill="#63b8ff" stroke="#63b8ff" points="1288.95,-109.94 1297.39,-103.53 1286.79,-103.28 1288.95,-109.94"/>
</a>
</g>
</g>
<!-- Node3&#45;&gt;Node6 -->
<g id="edge11_Node000003_Node000006" class="edge">
<title>Node3&#45;&gt;Node6</title>
<g id="a_edge11_Node000003_Node000006"><a xlink:title=" ">
<path fill="none" stroke="#63b8ff" d="M1070.43,-158.86C898.48,-159.51 374.41,-157.38 317.79,-108.25 297.6,-90.73 295.47,-57.93 296.56,-36.6"/>
<polygon fill="#63b8ff" stroke="#63b8ff" points="300.03,-37.06 297.36,-26.81 293.05,-36.49 300.03,-37.06"/>
</a>
</g>
</g>
<!-- Node3&#45;&gt;Node7 -->
<g id="edge12_Node000003_Node000007" class="edge">
<title>Node3&#45;&gt;Node7</title>
<g id="a_edge12_Node000003_Node000007"><a xlink:title=" ">
<path fill="none" stroke="#63b8ff" d="M1070.24,-157.12C896.91,-152.46 365.84,-136.07 293.79,-108.25 266.14,-97.58 268.27,-79.81 241.79,-66.5 190.37,-40.66 124.37,-27.19 84.39,-20.92"/>
<polygon fill="#63b8ff" stroke="#63b8ff" points="85.01,-17.48 74.6,-19.46 83.98,-24.4 85.01,-17.48"/>
</a>
</g>
</g>
<!-- Node3&#45;&gt;Node9 -->
<g id="edge15_Node000003_Node000009" class="edge">
<title>Node3&#45;&gt;Node9</title>
<g id="a_edge15_Node000003_Node000009"><a xlink:title=" ">
<path fill="none" stroke="#63b8ff" d="M1179.15,-158.83C1363.36,-159.51 1956.38,-157.79 2024.79,-108.25 2047.78,-91.6 2056.09,-58.02 2059.09,-36.37"/>
<polygon fill="#63b8ff" stroke="#63b8ff" points="2062.54,-37.04 2060.15,-26.71 2055.58,-36.27 2062.54,-37.04"/>
</a>
</g>
</g>
<!-- Node3&#45;&gt;Node11 -->
<g id="edge13_Node000003_Node000011" class="edge">
<title>Node3&#45;&gt;Node11</title>
<g id="a_edge13_Node000003_Node000011"><a xlink:title=" ">
<path fill="none" stroke="#63b8ff" d="M1070.26,-158.53C903.55,-158.14 402.47,-153.15 246.79,-108.25 242.36,-106.97 237.88,-105.08 233.65,-102.96"/>
<polygon fill="#63b8ff" stroke="#63b8ff" points="235.59,-100.03 225.16,-98.18 232.16,-106.13 235.59,-100.03"/>
</a>
</g>
</g>
<!-- Node12 -->
<g id="Node000012" class="node">
<title>Node12</title>
<g id="a_Node000012"><a xlink:title=" ">
<polygon fill="#e0e0e0" stroke="#999999" points="2408.54,-97 2337.04,-97 2337.04,-77.75 2408.54,-77.75 2408.54,-97"/>
<text text-anchor="middle" x="2372.79" y="-83.5" font-family="Helvetica,sans-Serif" font-size="10.00">initializer_list</text>
</a>
</g>
</g>
<!-- Node3&#45;&gt;Node12 -->
<g id="edge14_Node000003_Node000012" class="edge">
<title>Node3&#45;&gt;Node12</title>
<g id="a_edge14_Node000003_Node000012"><a xlink:title=" ">
<path fill="none" stroke="#63b8ff" d="M1179.29,-158.91C1383.78,-160.03 2104.99,-160.14 2327.79,-108.25 2333.92,-106.82 2340.26,-104.57 2346.17,-102.08"/>
<polygon fill="#63b8ff" stroke="#63b8ff" points="2347.2,-105.46 2354.84,-98.11 2344.29,-99.09 2347.2,-105.46"/>
</a>
</g>
</g>
<!-- Node13 -->
<g id="Node000013" class="node">
<title>Node13</title>
<g id="a_Node000013"><a xlink:title=" ">
<polygon fill="#e0e0e0" stroke="#999999" points="365.04,-97 326.54,-97 326.54,-77.75 365.04,-77.75 365.04,-97"/>
<text text-anchor="middle" x="345.79" y="-83.5" font-family="Helvetica,sans-Serif" font-size="10.00">utility</text>
</a>
</g>
</g>
<!-- Node3&#45;&gt;Node13 -->
<g id="edge16_Node000003_Node000013" class="edge">
<title>Node3&#45;&gt;Node13</title>
<g id="a_edge16_Node000003_Node000013"><a xlink:title=" ">
<path fill="none" stroke="#63b8ff" d="M1070.34,-158.67C920.08,-158.54 502.2,-153.97 373.79,-108.25 370.78,-107.18 367.81,-105.69 365,-104"/>
<polygon fill="#63b8ff" stroke="#63b8ff" points="367.08,-101.19 356.89,-98.29 363.04,-106.91 367.08,-101.19"/>
</a>
</g>
</g>
<!-- Node14 -->
<g id="Node000014" class="node">
<title>Node14</title>
<g id="a_Node000014"><a xlink:title=" ">
<polygon fill="#e0e0e0" stroke="#999999" points="512.79,-102.62 382.79,-102.62 382.79,-72.12 512.79,-72.12 512.79,-102.62"/>
<text text-anchor="start" x="390.79" y="-89.12" font-family="Helvetica,sans-Serif" font-size="10.00">typed_linear_algebra</text>
<text text-anchor="middle" x="447.79" y="-77.88" font-family="Helvetica,sans-Serif" font-size="10.00">_internal/algorithm/add.tpp</text>
</a>
</g>
</g>
<!-- Node3&#45;&gt;Node14 -->
<g id="edge17_Node000003_Node000014" class="edge">
<title>Node3&#45;&gt;Node14</title>
<g id="a_edge17_Node000003_Node000014"><a xlink:title=" ">
<path fill="none" stroke="#63b8ff" d="M1070.32,-157.23C964.07,-154.02 722.03,-143.19 521.79,-108.25 517.49,-107.5 513.07,-106.62 508.65,-105.64"/>
<polygon fill="#63b8ff" stroke="#63b8ff" points="509.68,-102.29 499.14,-103.42 508.08,-109.11 509.68,-102.29"/>
</a>
</g>
</g>
<!-- Node15 -->
<g id="Node000015" class="node">
<title>Node15</title>
<g id="a_Node000015"><a xlink:title=" ">
<polygon fill="#e0e0e0" stroke="#999999" points="670.66,-102.62 530.91,-102.62 530.91,-72.12 670.66,-72.12 670.66,-102.62"/>
<text text-anchor="start" x="538.91" y="-89.12" font-family="Helvetica,sans-Serif" font-size="10.00">typed_linear_algebra</text>
<text text-anchor="middle" x="600.79" y="-77.88" font-family="Helvetica,sans-Serif" font-size="10.00">_internal/algorithm/divide.tpp</text>
</a>
</g>
</g>
<!-- Node3&#45;&gt;Node15 -->
<g id="edge18_Node000003_Node000015" class="edge">
<title>Node3&#45;&gt;Node15</title>
<g id="a_edge18_Node000003_Node000015"><a xlink:title=" ">
<path fill="none" stroke="#63b8ff" d="M1070.33,-154.72C986.11,-148.33 819.4,-133.58 679.79,-108.25 675.45,-107.46 671,-106.57 666.52,-105.62"/>
<polygon fill="#63b8ff" stroke="#63b8ff" points="667.4,-102.23 656.88,-103.46 665.87,-109.06 667.4,-102.23"/>
</a>
</g>
</g>
<!-- Node16 -->
<g id="Node000016" class="node">
<title>Node16</title>
<g id="a_Node000016"><a xlink:title=" ">
<polygon fill="#e0e0e0" stroke="#999999" points="810.66,-108.25 688.91,-108.25 688.91,-66.5 810.66,-66.5 810.66,-108.25"/>
<text text-anchor="start" x="696.91" y="-94.75" font-family="Helvetica,sans-Serif" font-size="10.00">typed_linear_algebra</text>
<text text-anchor="start" x="696.91" y="-83.5" font-family="Helvetica,sans-Serif" font-size="10.00">_internal/algorithm/equal</text>
<text text-anchor="middle" x="749.79" y="-72.25" font-family="Helvetica,sans-Serif" font-size="10.00">_to.tpp</text>
</a>
</g>
</g>
<!-- Node3&#45;&gt;Node16 -->
<g id="edge19_Node000003_Node000016" class="edge">
<title>Node3&#45;&gt;Node16</title>
<g id="a_edge19_Node000003_Node000016"><a xlink:title=" ">
<path fill="none" stroke="#63b8ff" d="M1070.44,-151.44C1011.55,-143.37 914.67,-128.88 822.38,-108.71"/>
<polygon fill="#63b8ff" stroke="#63b8ff" points="823.15,-105.3 812.62,-106.55 821.63,-112.13 823.15,-105.3"/>
</a>
</g>
</g>
<!-- Node17 -->
<g id="Node000017" class="node">
<title>Node17</title>
<g id="a_Node000017"><a xlink:title=" ">
<polygon fill="#e0e0e0" stroke="#999999" points="953.16,-108.25 828.41,-108.25 828.41,-66.5 953.16,-66.5 953.16,-108.25"/>
<text text-anchor="start" x="836.41" y="-94.75" font-family="Helvetica,sans-Serif" font-size="10.00">typed_linear_algebra</text>
<text text-anchor="start" x="836.41" y="-83.5" font-family="Helvetica,sans-Serif" font-size="10.00">_internal/algorithm/matrix</text>
<text text-anchor="middle" x="890.79" y="-72.25" font-family="Helvetica,sans-Serif" font-size="10.00">_product.tpp</text>
</a>
</g>
</g>
<!-- Node3&#45;&gt;Node17 -->
<g id="edge20_Node000003_Node000017" class="edge">
<title>Node3&#45;&gt;Node17</title>
<g id="a_edge20_Node000003_Node000017"><a xlink:title=" ">
<path fill="none" stroke="#63b8ff" d="M1075.73,-143.8C1043.55,-134.15 1000.87,-121.36 964.62,-110.5"/>
<polygon fill="#63b8ff" stroke="#63b8ff" points="965.62,-107.15 955.04,-107.63 963.61,-113.85 965.62,-107.15"/>
</a>
</g>
</g>
<!-- Node18 -->
<g id="Node000018" class="node">
<title>Node18</title>
<g id="a_Node000018"><a xlink:title=" ">
<polygon fill="#e0e0e0" stroke="#999999" points="1118.04,-102.62 971.54,-102.62 971.54,-72.12 1118.04,-72.12 1118.04,-102.62"/>
<text text-anchor="start" x="979.54" y="-89.12" font-family="Helvetica,sans-Serif" font-size="10.00">typed_linear_algebra</text>
<text text-anchor="middle" x="1044.79" y="-77.88" font-family="Helvetica,sans-Serif" font-size="10.00">_internal/algorithm/product.tpp</text>
</a>
</g>
</g>
<!-- Node3&#45;&gt;Node18 -->
<g id="edge21_Node000003_Node000018" class="edge">
<title>Node3&#45;&gt;Node18</title>
<g id="a_edge21_Node000003_Node000018"><a xlink:title=" ">
<path fill="none" stroke="#63b8ff" d="M1108.21,-143.97C1097.16,-134.29 1082.43,-121.37 1069.95,-110.43"/>
<polygon fill="#63b8ff" stroke="#63b8ff" points="1072.31,-107.84 1062.48,-103.88 1067.69,-113.11 1072.31,-107.84"/>
</a>
</g>
</g>
<!-- Node19 -->
<g id="Node000019" class="node">
<title>Node19</title>
<g id="a_Node000019"><a xlink:title=" ">
<polygon fill="#e0e0e0" stroke="#999999" points="1273.54,-102.62 1136.04,-102.62 1136.04,-72.12 1273.54,-72.12 1273.54,-102.62"/>
<text text-anchor="start" x="1144.04" y="-89.12" font-family="Helvetica,sans-Serif" font-size="10.00">typed_linear_algebra</text>
<text text-anchor="middle" x="1204.79" y="-77.88" font-family="Helvetica,sans-Serif" font-size="10.00">_internal/algorithm/scale.tpp</text>
</a>
</g>
</g>
<!-- Node3&#45;&gt;Node19 -->
<g id="edge22_Node000003_Node000019" class="edge">
<title>Node3&#45;&gt;Node19</title>
<g id="a_edge22_Node000003_Node000019"><a xlink:title=" ">
<path fill="none" stroke="#63b8ff" d="M1141.36,-143.97C1152.41,-134.29 1167.14,-121.37 1179.62,-110.43"/>
<polygon fill="#63b8ff" stroke="#63b8ff" points="1181.88,-113.11 1187.09,-103.88 1177.27,-107.84 1181.88,-113.11"/>
</a>
</g>
</g>
<!-- Node20 -->
<g id="Node000020" class="node">
<title>Node20</title>
<g id="a_Node000020"><a xlink:title=" ">
<polygon fill="#e0e0e0" stroke="#999999" points="1569.16,-102.62 1414.41,-102.62 1414.41,-72.12 1569.16,-72.12 1569.16,-102.62"/>
<text text-anchor="start" x="1422.41" y="-89.12" font-family="Helvetica,sans-Serif" font-size="10.00">typed_linear_algebra</text>
<text text-anchor="middle" x="1491.79" y="-77.88" font-family="Helvetica,sans-Serif" font-size="10.00">_internal/algorithm/substract.tpp</text>
</a>
</g>
</g>
<!-- Node3&#45;&gt;Node20 -->
<g id="edge23_Node000003_Node000020" class="edge">
<title>Node3&#45;&gt;Node20</title>
<g id="a_edge23_Node000003_Node000020"><a xlink:title=" ">
<path fill="none" stroke="#63b8ff" d="M1179.4,-149.48C1235.93,-139.96 1326.75,-124.16 1404.79,-108.25 1409.1,-107.37 1413.54,-106.44 1418,-105.48"/>
<polygon fill="#63b8ff" stroke="#63b8ff" points="1418.63,-108.93 1427.66,-103.38 1417.14,-102.09 1418.63,-108.93"/>
</a>
</g>
</g>
<!-- Node21 -->
<g id="Node000021" class="node">
<title>Node21</title>
<g id="a_Node000021"><a xlink:title=" ">
<polygon fill="#e0e0e0" stroke="#999999" points="1749.91,-102.62 1587.66,-102.62 1587.66,-72.12 1749.91,-72.12 1749.91,-102.62"/>
<text text-anchor="start" x="1595.66" y="-89.12" font-family="Helvetica,sans-Serif" font-size="10.00">typed_linear_algebra</text>
<text text-anchor="middle" x="1668.79" y="-77.88" font-family="Helvetica,sans-Serif" font-size="10.00">_internal/algorithm/transposed.tpp</text>
</a>
</g>
</g>
<!-- Node3&#45;&gt;Node21 -->
<g id="edge24_Node000003_Node000021" class="edge">
<title>Node3&#45;&gt;Node21</title>
<g id="a_edge24_Node000003_Node000021"><a xlink:title=" ">
<path fill="none" stroke="#63b8ff" d="M1179.08,-154.32C1264.35,-147.35 1434.7,-131.75 1577.79,-108.25 1583.33,-107.34 1589.04,-106.31 1594.78,-105.21"/>
<polygon fill="#63b8ff" stroke="#63b8ff" points="1595.19,-108.7 1604.32,-103.32 1593.83,-101.83 1595.19,-108.7"/>
</a>
</g>
</g>
<!-- Node22 -->
<g id="Node000022" class="node">
<title>Node22</title>
<g id="a_Node000022"><a xlink:title=" ">
<polygon fill="#e0e0e0" stroke="#999999" points="1872.04,-102.62 1767.54,-102.62 1767.54,-72.12 1872.04,-72.12 1872.04,-102.62"/>
<text text-anchor="start" x="1775.54" y="-89.12" font-family="Helvetica,sans-Serif" font-size="10.00">typed_linear_algebra</text>
<text text-anchor="middle" x="1819.79" y="-77.88" font-family="Helvetica,sans-Serif" font-size="10.00">_internal/cast.tpp</text>
</a>
</g>
</g>
<!-- Node3&#45;&gt;Node22 -->
<g id="edge25_Node000003_Node000022" class="edge">
<title>Node3&#45;&gt;Node22</title>
<g id="a_edge25_Node000003_Node000022"><a xlink:title=" ">
<path fill="none" stroke="#63b8ff" d="M1179.23,-158.48C1289.65,-157.51 1547.37,-150.45 1758.79,-108.25 1761.91,-107.63 1765.1,-106.89 1768.29,-106.09"/>
<polygon fill="#63b8ff" stroke="#63b8ff" points="1768.96,-109.53 1777.67,-103.49 1767.09,-102.79 1768.96,-109.53"/>
</a>
</g>
</g>
<!-- Node23 -->
<g id="Node000023" class="node">
<title>Node23</title>
<g id="a_Node000023"><a xlink:title=" ">
<polygon fill="#e0e0e0" stroke="#999999" points="1995.04,-102.62 1890.54,-102.62 1890.54,-72.12 1995.04,-72.12 1995.04,-102.62"/>
<text text-anchor="start" x="1898.54" y="-89.12" font-family="Helvetica,sans-Serif" font-size="10.00">typed_linear_algebra</text>
<text text-anchor="middle" x="1942.79" y="-77.88" font-family="Helvetica,sans-Serif" font-size="10.00">_internal/format.tpp</text>
</a>
</g>
</g>
<!-- Node3&#45;&gt;Node23 -->
<g id="edge26_Node000003_Node000023" class="edge">
<title>Node3&#45;&gt;Node23</title>
<g id="a_edge26_Node000003_Node000023"><a xlink:title=" ">
<path fill="none" stroke="#63b8ff" d="M1179.3,-156.6C1329.32,-151.11 1746.08,-133.92 1880.79,-108.25 1884.12,-107.61 1887.53,-106.85 1890.94,-106.01"/>
<polygon fill="#63b8ff" stroke="#63b8ff" points="1891.6,-109.46 1900.34,-103.45 1889.77,-102.7 1891.6,-109.46"/>
</a>
</g>
</g>
<!-- Node24 -->
<g id="Node000024" class="node">
<title>Node24</title>
<g id="a_Node000024"><a xlink:title=" ">
<polygon fill="#e0e0e0" stroke="#999999" points="2193.04,-102.62 2088.54,-102.62 2088.54,-72.12 2193.04,-72.12 2193.04,-102.62"/>
<text text-anchor="start" x="2096.54" y="-89.12" font-family="Helvetica,sans-Serif" font-size="10.00">typed_linear_algebra</text>
<text text-anchor="middle" x="2140.79" y="-77.88" font-family="Helvetica,sans-Serif" font-size="10.00">_internal/tuple.tpp</text>
</a>
</g>
</g>
<!-- Node3&#45;&gt;Node24 -->
<g id="edge27_Node000003_Node000024" class="edge">
<title>Node3&#45;&gt;Node24</title>
<g id="a_edge27_Node000003_Node000024"><a xlink:title=" ">
<path fill="none" stroke="#63b8ff" d="M1179.36,-157.33C1354.45,-153.31 1900.79,-138.6 2074.79,-108.25 2078.56,-107.59 2082.41,-106.79 2086.28,-105.89"/>
<polygon fill="#63b8ff" stroke="#63b8ff" points="2086.83,-109.36 2095.65,-103.5 2085.1,-102.58 2086.83,-109.36"/>
</a>
</g>
</g>
<!-- Node25 -->
<g id="Node000025" class="node">
<title>Node25</title>
<g id="a_Node000025"><a xlink:title=" ">
<polygon fill="#e0e0e0" stroke="#999999" points="2318.54,-108.25 2211.04,-108.25 2211.04,-66.5 2318.54,-66.5 2318.54,-108.25"/>
<text text-anchor="start" x="2219.04" y="-94.75" font-family="Helvetica,sans-Serif" font-size="10.00">typed_linear_algebra</text>
<text text-anchor="start" x="2219.04" y="-83.5" font-family="Helvetica,sans-Serif" font-size="10.00">_internal/typed_linear</text>
<text text-anchor="middle" x="2264.79" y="-72.25" font-family="Helvetica,sans-Serif" font-size="10.00">_algebra.tpp</text>
</a>
</g>
</g>
<!-- Node3&#45;&gt;Node25 -->
<g id="edge28_Node000003_Node000025" class="edge">
<title>Node3&#45;&gt;Node25</title>
<g id="a_edge28_Node000003_Node000025"><a xlink:title=" ">
<path fill="none" stroke="#63b8ff" d="M1179.22,-157.82C1365.96,-155.2 1980.68,-144.16 2199.66,-108.3"/>
<polygon fill="#63b8ff" stroke="#63b8ff" points="2199.96,-111.8 2209.22,-106.67 2198.78,-104.9 2199.96,-111.8"/>
</a>
</g>
</g>
<!-- Node5&#45;&gt;Node4 -->
<g id="edge5_Node000005_Node000004" class="edge">
<title>Node5&#45;&gt;Node4</title>
<g id="a_edge5_Node000005_Node000004"><a xlink:title=" ">
<path fill="none" stroke="#63b8ff" d="M1386.92,-71.66C1393.21,-69.78 1399.64,-67.99 1405.79,-66.5 1487.12,-46.81 1582.65,-32.33 1644.14,-24.1"/>
<polygon fill="#63b8ff" stroke="#63b8ff" points="1644.26,-27.62 1653.72,-22.84 1643.34,-20.68 1644.26,-27.62"/>
</a>
</g>
</g>
<!-- Node5&#45;&gt;Node6 -->
<g id="edge6_Node000005_Node000006" class="edge">
<title>Node5&#45;&gt;Node6</title>
<g id="a_edge6_Node000005_Node000006"><a xlink:title=" ">
<path fill="none" stroke="#63b8ff" d="M1303.82,-71.7C1296.89,-69.63 1289.69,-67.78 1282.79,-66.5 1096.75,-32.07 497.48,-19.62 338.05,-16.87"/>
<polygon fill="#63b8ff" stroke="#63b8ff" points="338.49,-13.38 328.43,-16.71 338.37,-20.38 338.49,-13.38"/>
</a>
</g>
</g>
<!-- Node5&#45;&gt;Node7 -->
<g id="edge7_Node000005_Node000007" class="edge">
<title>Node5&#45;&gt;Node7</title>
<g id="a_edge7_Node000005_Node000007"><a xlink:title=" ">
<path fill="none" stroke="#63b8ff" d="M1304.17,-71.68C1297.13,-69.59 1289.81,-67.73 1282.79,-66.5 1034.44,-23.01 399.97,-52.32 148.79,-30.5 127.37,-28.64 103.54,-25.29 84.52,-22.31"/>
<polygon fill="#63b8ff" stroke="#63b8ff" points="85.28,-18.89 74.85,-20.76 84.17,-25.8 85.28,-18.89"/>
</a>
</g>
</g>
<!-- Node8 -->
<g id="Node000008" class="node">
<title>Node8</title>
<g id="a_Node000008"><a xlink:title=" ">
<polygon fill="#e0e0e0" stroke="#999999" points="1372.79,-24.88 1314.79,-24.88 1314.79,-5.63 1372.79,-5.63 1372.79,-24.88"/>
<text text-anchor="middle" x="1343.79" y="-11.38" font-family="Helvetica,sans-Serif" font-size="10.00">functional</text>
</a>
</g>
</g>
<!-- Node5&#45;&gt;Node8 -->
<g id="edge8_Node000005_Node000008" class="edge">
<title>Node5&#45;&gt;Node8</title>
<g id="a_edge8_Node000005_Node000008"><a xlink:title=" ">
<path fill="none" stroke="#63b8ff" d="M1343.79,-71.85C1343.79,-61.59 1343.79,-47.7 1343.79,-36.38"/>
<polygon fill="#63b8ff" stroke="#63b8ff" points="1347.29,-36.52 1343.79,-26.52 1340.29,-36.52 1347.29,-36.52"/>
</a>
</g>
</g>
<!-- Node5&#45;&gt;Node9 -->
<g id="edge9_Node000005_Node000009" class="edge">
<title>Node5&#45;&gt;Node9</title>
<g id="a_edge9_Node000005_Node000009"><a xlink:title=" ">
<path fill="none" stroke="#63b8ff" d="M1385.13,-71.65C1391.96,-69.65 1399.02,-67.83 1405.79,-66.5 1528.1,-42.55 1918.97,-22.87 2030.7,-17.62"/>
<polygon fill="#63b8ff" stroke="#63b8ff" points="2030.72,-21.13 2040.55,-17.17 2030.39,-14.13 2030.72,-21.13"/>
</a>
</g>
</g>
<!-- Node5&#45;&gt;Node10 -->
<g id="edge10_Node000005_Node000010" class="edge">
<title>Node5&#45;&gt;Node10</title>
<g id="a_edge10_Node000005_Node000010"><a xlink:title=" ">
<path fill="none" stroke="#63b8ff" d="M1304.16,-71.7C1297.13,-69.61 1289.81,-67.74 1282.79,-66.5 835.67,12.6 712.9,-82.16 261.79,-30.5 251.63,-29.34 240.77,-27.53 230.61,-25.59"/>
<polygon fill="#63b8ff" stroke="#63b8ff" points="231.5,-22.2 221.01,-23.66 230.12,-29.06 231.5,-22.2"/>
</a>
</g>
</g>
</g>
</svg>

<g id="navigator" transform="translate(0 0)" fill="#404254">
  <rect fill="#f2f5e9" fill-opacity="0.5" stroke="#606060" stroke-width=".5" x="0" y="0" width="60" height="60"/>
  <use id="zoomplus" xlink:href="#zoomPlus" x="17" y="9" onmousedown="handleZoom(evt,'in')"/>
  <use id="zoomminus" xlink:href="#zoomMin" x="42" y="9" onmousedown="handleZoom(evt,'out')"/>
  <use id="reset" xlink:href="#resetDef" x="30" y="36" onmousedown="handleReset()"/>
   <use id="arrowup" xlink:href="#arrowUp" x="0" y="0" onmousedown="handlePan(0,-1)"/>
  <use id="arrowright" xlink:href="#arrowRight" x="0" y="0" onmousedown="handlePan(1,0)"/>
  <use id="arrowdown" xlink:href="#arrowDown" x="0" y="0" onmousedown="handlePan(0,1)"/>
  <use id="arrowleft" xlink:href="#arrowLeft" x="0" y="0" onmousedown="handlePan(-1,0)"/>
</g>
<svg viewBox="0 0 15 15" width="100%" height="30px" preserveAspectRatio="xMaxYMin meet">
 <g id="arrow_out" transform="scale(0.3 0.3)">
  <a xlink:href="eigexed_2fcarouge_2linalg_8hpp__incl_org.svg" target="_base">
   <rect id="button" ry="5" rx="5" y="6" x="6" height="38" width="38"
        fill="#f2f5e9" fill-opacity="0.5" stroke="#606060" stroke-width="1.0"/>
   <path id="arrow"
     d="M 11.500037,31.436501 C 11.940474,20.09759 22.043105,11.32322 32.158766,21.979434 L 37.068811,17.246167 C 37.068811,17.246167 37.088388,32 37.088388,32 L 22.160133,31.978069 C 22.160133,31.978069 26.997745,27.140456 26.997745,27.140456 C 18.528582,18.264221 13.291696,25.230495 11.500037,31.436501 z"
     style="fill:#404040;"/>
  </a>
 </g>
</svg>

<style type='text/css'>
<![CDATA[
[data-mouse-over-selected='false'] { opacity: 0.7; }
[data-mouse-over-selected='true']  { opacity: 1.0; }
]]>
</style>
<script type="application/ecmascript"><![CDATA[
document.addEventListener('DOMContentLoaded', (event) => {
  highlightEdges();
  highlightAdjacentNodes();
});
]]></script>
</svg>
