<?xml version="1.0" encoding="UTF-8" standalone="no"?>
<!DOCTYPE svg PUBLIC "-//W3C//DTD SVG 1.1//EN"
 "http://www.w3.org/Graphics/SVG/1.1/DTD/svg11.dtd">
<!-- Generated by graphviz version 12.2.0 (20241103.1931)
 -->
<!-- Title: /github/workspace/support/eigen/fcarouge/linalg.hpp Pages: 1 -->
<!--zoomable 360 -->

<svg id="main" version="1.1" xmlns="http://www.w3.org/2000/svg" xmlns:xlink="http://www.w3.org/1999/xlink" xml:space="preserve" onload="init(evt)">

<style type="text/css"><![CDATA[
.node, .edge {opacity: 0.7;}
.node.selected, .edge.selected {opacity: 1;}
.edge:hover path { stroke: red; }
.edge:hover polygon { stroke: red; fill: red; }
]]></style>

<defs>
  <circle id="rim" cx="0" cy="0" r="7"/>
  <circle id="rim2" cx="0" cy="0" r="3.5"/>
  <g id="zoomPlus">
    <use xlink:href="#rim" fill="#404040"><set attributeName="fill" to="#808080" begin="zoomplus.mouseover" end="zoomplus.mouseout"/></use>
    <path d="M-4,0h8M0,-4v8" fill="none" stroke="white" stroke-width="1.5" pointer-events="none"/>
  </g>
  <g id="zoomMin">
    <use xlink:href="#rim" fill="#404040"><set attributeName="fill" to="#808080" begin="zoomminus.mouseover" end="zoomminus.mouseout"/></use>
    <path d="M-4,0h8" fill="none" stroke="white" stroke-width="1.5" pointer-events="none"/>
  </g>
  <g id="arrowUp" transform="translate(30 24)">
    <use xlink:href="#rim"/>
    <path pointer-events="none" fill="none" stroke="white" stroke-width="1.5" d="M0,-3.0v7 M-2.5,-0.5L0,-3.0L2.5,-0.5"/>
  </g>
  <g id="arrowRight" transform="rotate(90) translate(36 -43)">
    <use xlink:href="#rim"/>
    <path pointer-events="none" fill="none" stroke="white" stroke-width="1.5" d="M0,-3.0v7 M-2.5,-0.5L0,-3.0L2.5,-0.5"/>
  </g>
  <g id="arrowDown" transform="rotate(180) translate(-30 -48)">
    <use xlink:href="#rim"/>
    <path pointer-events="none" fill="none" stroke="white" stroke-width="1.5" d="M0,-3.0v7 M-2.5,-0.5L0,-3.0L2.5,-0.5"/>
  </g>
  <g id="arrowLeft" transform="rotate(270) translate(-36 17)">
    <use xlink:href="#rim"/>
    <path pointer-events="none" fill="none" stroke="white" stroke-width="1.5" d="M0,-3.0v7 M-2.5,-0.5L0,-3.0L2.5,-0.5"/>
  </g>
  <g id="resetDef">
    <use xlink:href="#rim2" fill="#404040"><set attributeName="fill" to="#808080" begin="reset.mouseover" end="reset.mouseout"/></use>
  </g>
</defs>
<script type="application/ecmascript">
var viewWidth = 2410;
var viewHeight = 360;
var sectionId = 'dynsection-0';
</script>
<script type="application/ecmascript" xlink:href="svg.min.js"/>
<svg id="graph" class="graph">
<g id="viewport">
<title>/github/workspace/support/eigen/fcarouge/linalg.hpp</title>
<!-- Node1 -->
<g id="Node000001" class="node">
<title>Node1</title>
<g id="a_Node000001"><a xlink:title=" ">
<polygon fill="#999999" stroke="#666666" points="629.38,-351.75 498.63,-351.75 498.63,-321.25 629.38,-321.25 629.38,-351.75"/>
<text text-anchor="start" x="506.63" y="-338.25" font-family="Helvetica,sans-Serif" font-size="10.00">/github/workspace/support</text>
<text text-anchor="middle" x="564.01" y="-327" font-family="Helvetica,sans-Serif" font-size="10.00">/eigen/fcarouge/linalg.hpp</text>
</a>
</g>
</g>
<!-- Node2 -->
<g id="Node000002" class="node">
<title>Node2</title>
<g id="a_Node000002"><a xlink:href="eigen_8hpp.xhtml" target="_top" xlink:title="Linear algebra facade for Eigen3 third party implementation.">
<polygon fill="white" stroke="#666666" points="592.63,-285.25 535.38,-285.25 535.38,-266 592.63,-266 592.63,-285.25"/>
<text text-anchor="middle" x="564.01" y="-271.75" font-family="Helvetica,sans-Serif" font-size="10.00">eigen.hpp</text>
</a>
</g>
</g>
<!-- Node1&#45;&gt;Node2 -->
<g id="edge1_Node000001_Node000002" class="edge">
<title>Node1&#45;&gt;Node2</title>
<g id="a_edge1_Node000001_Node000002"><a xlink:title=" ">
<path fill="none" stroke="#63b8ff" d="M564.01,-320.95C564.01,-313.71 564.01,-304.84 564.01,-296.94"/>
<polygon fill="#63b8ff" stroke="#63b8ff" points="567.51,-297.21 564.01,-287.21 560.51,-297.21 567.51,-297.21"/>
</a>
</g>
</g>
<!-- Node3 -->
<g id="Node000003" class="node">
<title>Node3</title>
<g id="a_Node000003"><a xlink:href="typed__linear__algebra_8hpp.xhtml" target="_top" xlink:title="Typed linear algebra implementation.">
<polygon fill="white" stroke="#666666" points="1074.13,-230 965.88,-230 965.88,-199.5 1074.13,-199.5 1074.13,-230"/>
<text text-anchor="start" x="973.88" y="-216.5" font-family="Helvetica,sans-Serif" font-size="10.00">fcarouge/typed_linear</text>
<text text-anchor="middle" x="1020.01" y="-205.25" font-family="Helvetica,sans-Serif" font-size="10.00">_algebra.hpp</text>
</a>
</g>
</g>
<!-- Node2&#45;&gt;Node3 -->
<g id="edge2_Node000002_Node000003" class="edge">
<title>Node2&#45;&gt;Node3</title>
<g id="a_edge2_Node000002_Node000003"><a xlink:title=" ">
<path fill="none" stroke="#63b8ff" d="M592.88,-270.9C664.79,-261.61 853.38,-237.26 954.21,-224.25"/>
<polygon fill="#63b8ff" stroke="#63b8ff" points="954.49,-227.74 963.96,-222.99 953.6,-220.8 954.49,-227.74"/>
</a>
</g>
</g>
<!-- Node7 -->
<g id="Node000007" class="node">
<title>Node7</title>
<g id="a_Node000007"><a xlink:title=" ">
<polygon fill="#e0e0e0" stroke="#999999" points="173.88,-24.88 118.13,-24.88 118.13,-5.63 173.88,-5.63 173.88,-24.88"/>
<text text-anchor="middle" x="146.01" y="-11.38" font-family="Helvetica,sans-Serif" font-size="10.00">concepts</text>
</a>
</g>
</g>
<!-- Node2&#45;&gt;Node7 -->
<g id="edge32_Node000002_Node000007" class="edge">
<title>Node2&#45;&gt;Node7</title>
<g id="a_edge32_Node000002_Node000007"><a xlink:title=" ">
<path fill="none" stroke="#63b8ff" d="M535.2,-274.31C432.48,-272.89 88.52,-265.5 56.01,-230 6.92,-176.42 19.22,-129.17 56.01,-66.5 67.11,-47.58 88.23,-35.25 107.22,-27.55"/>
<polygon fill="#63b8ff" stroke="#63b8ff" points="108.19,-30.92 116.34,-24.16 105.75,-24.36 108.19,-30.92"/>
</a>
</g>
</g>
<!-- Node8 -->
<g id="Node000008" class="node">
<title>Node8</title>
<g id="a_Node000008"><a xlink:title=" ">
<polygon fill="#e0e0e0" stroke="#999999" points="2222.13,-24.88 2173.88,-24.88 2173.88,-5.63 2222.13,-5.63 2222.13,-24.88"/>
<text text-anchor="middle" x="2198.01" y="-11.38" font-family="Helvetica,sans-Serif" font-size="10.00">cstddef</text>
</a>
</g>
</g>
<!-- Node2&#45;&gt;Node8 -->
<g id="edge33_Node000002_Node000008" class="edge">
<title>Node2&#45;&gt;Node8</title>
<g id="a_edge33_Node000002_Node000008"><a xlink:title=" ">
<path fill="none" stroke="#63b8ff" d="M593.07,-274.59C801.13,-274.06 2059.83,-266.59 2190.01,-163.5 2224.82,-135.93 2220.82,-110.38 2214.01,-66.5 2212.4,-56.18 2209.05,-45.09 2205.83,-35.95"/>
<polygon fill="#63b8ff" stroke="#63b8ff" points="2209.16,-34.85 2202.36,-26.72 2202.6,-37.31 2209.16,-34.85"/>
</a>
</g>
</g>
<!-- Node10 -->
<g id="Node000010" class="node">
<title>Node10</title>
<g id="a_Node000010"><a xlink:title=" ">
<polygon fill="#e0e0e0" stroke="#999999" points="50.51,-24.88 13.51,-24.88 13.51,-5.63 50.51,-5.63 50.51,-24.88"/>
<text text-anchor="middle" x="32.01" y="-11.38" font-family="Helvetica,sans-Serif" font-size="10.00">tuple</text>
</a>
</g>
</g>
<!-- Node2&#45;&gt;Node10 -->
<g id="edge36_Node000002_Node000010" class="edge">
<title>Node2&#45;&gt;Node10</title>
<g id="a_edge36_Node000002_Node000010"><a xlink:title=" ">
<path fill="none" stroke="#63b8ff" d="M535.08,-274.24C429.39,-272.57 68.24,-264.36 31.01,-230 -23.22,-179.96 7.39,-78.7 23.77,-35.98"/>
<polygon fill="#63b8ff" stroke="#63b8ff" points="26.99,-37.34 27.45,-26.76 20.49,-34.74 26.99,-37.34"/>
</a>
</g>
</g>
<!-- Node11 -->
<g id="Node000011" class="node">
<title>Node11</title>
<g id="a_Node000011"><a xlink:title=" ">
<polygon fill="#e0e0e0" stroke="#999999" points="1103.51,-24.88 1042.51,-24.88 1042.51,-5.63 1103.51,-5.63 1103.51,-24.88"/>
<text text-anchor="middle" x="1073.01" y="-11.38" font-family="Helvetica,sans-Serif" font-size="10.00">type_traits</text>
</a>
</g>
</g>
<!-- Node2&#45;&gt;Node11 -->
<g id="edge37_Node000002_Node000011" class="edge">
<title>Node2&#45;&gt;Node11</title>
<g id="a_edge37_Node000002_Node000011"><a xlink:title=" ">
<path fill="none" stroke="#63b8ff" d="M535,-273.18C464.7,-269.29 287.16,-256.99 235.01,-230 164.81,-193.67 110.68,-123.92 165.01,-66.5 195.12,-34.67 855.97,-20.25 1030.86,-16.99"/>
<polygon fill="#63b8ff" stroke="#63b8ff" points="1030.69,-20.49 1040.62,-16.81 1030.56,-13.49 1030.69,-20.49"/>
</a>
</g>
</g>
<!-- Node12 -->
<g id="Node000012" class="node">
<title>Node12</title>
<g id="a_Node000012"><a xlink:title=" ">
<polygon fill="#e0e0e0" stroke="#999999" points="217.88,-85.75 174.13,-85.75 174.13,-66.5 217.88,-66.5 217.88,-85.75"/>
<text text-anchor="middle" x="196.01" y="-72.25" font-family="Helvetica,sans-Serif" font-size="10.00">format</text>
</a>
</g>
</g>
<!-- Node2&#45;&gt;Node12 -->
<g id="edge34_Node000002_Node000012" class="edge">
<title>Node2&#45;&gt;Node12</title>
<g id="a_edge34_Node000002_Node000012"><a xlink:title=" ">
<path fill="none" stroke="#63b8ff" d="M535.01,-270.61C453.93,-258.72 228.01,-220.92 185.01,-163.5 170.52,-144.16 178.41,-115.3 186.38,-96.35"/>
<polygon fill="#63b8ff" stroke="#63b8ff" points="189.51,-97.92 190.52,-87.37 183.16,-94.99 189.51,-97.92"/>
</a>
</g>
</g>
<!-- Node26 -->
<g id="Node000026" class="node">
<title>Node26</title>
<g id="a_Node000026"><a xlink:title=" ">
<polygon fill="#e0e0e0" stroke="#999999" points="2316.63,-224.38 2265.38,-224.38 2265.38,-205.12 2316.63,-205.12 2316.63,-224.38"/>
<text text-anchor="middle" x="2291.01" y="-210.88" font-family="Helvetica,sans-Serif" font-size="10.00">sstream</text>
</a>
</g>
</g>
<!-- Node2&#45;&gt;Node26 -->
<g id="edge35_Node000002_Node000026" class="edge">
<title>Node2&#45;&gt;Node26</title>
<g id="a_edge35_Node000002_Node000026"><a xlink:title=" ">
<path fill="none" stroke="#63b8ff" d="M593.12,-274.41C803.03,-272.77 2081.88,-261.53 2251.01,-230 2253.48,-229.54 2256,-228.95 2258.52,-228.27"/>
<polygon fill="#63b8ff" stroke="#63b8ff" points="2259.41,-231.66 2267.9,-225.32 2257.31,-224.98 2259.41,-231.66"/>
</a>
</g>
</g>
<!-- Node27 -->
<g id="Node000027" class="node">
<title>Node27</title>
<g id="a_Node000027"><a xlink:title=" ">
<polygon fill="#e0e0e0" stroke="#999999" points="2401.51,-224.38 2334.51,-224.38 2334.51,-205.12 2401.51,-205.12 2401.51,-224.38"/>
<text text-anchor="middle" x="2368.01" y="-210.88" font-family="Helvetica,sans-Serif" font-size="10.00">Eigen/Eigen</text>
</a>
</g>
</g>
<!-- Node2&#45;&gt;Node27 -->
<g id="edge38_Node000002_Node000027" class="edge">
<title>Node2&#45;&gt;Node27</title>
<g id="a_edge38_Node000002_Node000027"><a xlink:title=" ">
<path fill="none" stroke="#63b8ff" d="M593.02,-274.42C807.92,-272.81 2148.73,-261.56 2326.01,-230 2328.79,-229.5 2331.64,-228.86 2334.49,-228.11"/>
<polygon fill="#63b8ff" stroke="#63b8ff" points="2335.22,-231.55 2343.78,-225.31 2333.19,-224.85 2335.22,-231.55"/>
</a>
</g>
</g>
<!-- Node4 -->
<g id="Node000004" class="node">
<title>Node4</title>
<g id="a_Node000004"><a xlink:href="typed__linear__algebra__forward_8hpp.xhtml" target="_top" xlink:title="Authoritative forward declaration header.">
<polygon fill="white" stroke="#666666" points="2154.26,-30.5 2049.76,-30.5 2049.76,0 2154.26,0 2154.26,-30.5"/>
<text text-anchor="start" x="2057.76" y="-17" font-family="Helvetica,sans-Serif" font-size="10.00">typed_linear_algebra</text>
<text text-anchor="middle" x="2102.01" y="-5.75" font-family="Helvetica,sans-Serif" font-size="10.00">_forward.hpp</text>
</a>
</g>
</g>
<!-- Node3&#45;&gt;Node4 -->
<g id="edge3_Node000003_Node000004" class="edge">
<title>Node3&#45;&gt;Node4</title>
<g id="a_edge3_Node000003_Node000004"><a xlink:title=" ">
<path fill="none" stroke="#63b8ff" d="M1074.36,-213.38C1293.82,-211.61 2104.74,-202.48 2142.01,-163.5 2174.36,-129.67 2142.98,-72.37 2120.45,-40.14"/>
<polygon fill="#63b8ff" stroke="#63b8ff" points="2123.41,-38.26 2114.71,-32.21 2117.74,-42.36 2123.41,-38.26"/>
</a>
</g>
</g>
<!-- Node5 -->
<g id="Node000005" class="node">
<title>Node5</title>
<g id="a_Node000005"><a xlink:href="format_8hpp.xhtml" target="_top" xlink:title="Formatting support for the typed matrix.">
<polygon fill="white" stroke="#666666" points="2133.26,-157.88 2028.76,-157.88 2028.76,-127.38 2133.26,-127.38 2133.26,-157.88"/>
<text text-anchor="start" x="2036.76" y="-144.38" font-family="Helvetica,sans-Serif" font-size="10.00">typed_linear_algebra</text>
<text text-anchor="middle" x="2081.01" y="-133.12" font-family="Helvetica,sans-Serif" font-size="10.00">_internal/format.hpp</text>
</a>
</g>
</g>
<!-- Node3&#45;&gt;Node5 -->
<g id="edge4_Node000003_Node000005" class="edge">
<title>Node3&#45;&gt;Node5</title>
<g id="a_edge4_Node000003_Node000005"><a xlink:title=" ">
<path fill="none" stroke="#63b8ff" d="M1074.61,-212.73C1255.18,-209.09 1831.9,-195.21 2015.01,-163.5 2018.84,-162.84 2022.76,-162.02 2026.68,-161.1"/>
<polygon fill="#63b8ff" stroke="#63b8ff" points="2027.41,-164.53 2036.23,-158.66 2025.68,-157.75 2027.41,-164.53"/>
</a>
</g>
</g>
<!-- Node6 -->
<g id="Node000006" class="node">
<title>Node6</title>
<g id="a_Node000006"><a xlink:href="utility_8hpp.xhtml" target="_top" xlink:title=" ">
<polygon fill="white" stroke="#666666" points="2029.26,-85.75 1972.76,-85.75 1972.76,-66.5 2029.26,-66.5 2029.26,-85.75"/>
<text text-anchor="middle" x="2001.01" y="-72.25" font-family="Helvetica,sans-Serif" font-size="10.00">utility.hpp</text>
</a>
</g>
</g>
<!-- Node3&#45;&gt;Node6 -->
<g id="edge14_Node000003_Node000006" class="edge">
<title>Node3&#45;&gt;Node6</title>
<g id="a_edge14_Node000003_Node000006"><a xlink:title=" ">
<path fill="none" stroke="#63b8ff" d="M1074.32,-212.72C1272.54,-208.72 1947.21,-193.01 1982.01,-163.5 2000.83,-147.54 2003.51,-117.58 2002.89,-97.48"/>
<polygon fill="#63b8ff" stroke="#63b8ff" points="2006.4,-97.47 2002.27,-87.71 1999.41,-97.92 2006.4,-97.47"/>
</a>
</g>
</g>
<!-- Node3&#45;&gt;Node7 -->
<g id="edge15_Node000003_Node000007" class="edge">
<title>Node3&#45;&gt;Node7</title>
<g id="a_edge15_Node000003_Node000007"><a xlink:title=" ">
<path fill="none" stroke="#63b8ff" d="M965.43,-214.11C789.49,-214.77 245.2,-212.77 185.01,-163.5 146.89,-132.3 143.59,-68.54 144.63,-36.13"/>
<polygon fill="#63b8ff" stroke="#63b8ff" points="148.1,-36.7 145.12,-26.54 141.11,-36.34 148.1,-36.7"/>
</a>
</g>
</g>
<!-- Node3&#45;&gt;Node8 -->
<g id="edge16_Node000003_Node000008" class="edge">
<title>Node3&#45;&gt;Node8</title>
<g id="a_edge16_Node000003_Node000008"><a xlink:title=" ">
<path fill="none" stroke="#63b8ff" d="M1074.38,-213.17C1295.9,-210.56 2120.62,-198.54 2163.01,-163.5 2200.73,-132.32 2202.09,-68.55 2200.03,-36.13"/>
<polygon fill="#63b8ff" stroke="#63b8ff" points="2203.55,-36.21 2199.23,-26.53 2196.57,-36.79 2203.55,-36.21"/>
</a>
</g>
</g>
<!-- Node3&#45;&gt;Node10 -->
<g id="edge19_Node000003_Node000010" class="edge">
<title>Node3&#45;&gt;Node10</title>
<g id="a_edge19_Node000003_Node000010"><a xlink:title=" ">
<path fill="none" stroke="#63b8ff" d="M965.66,-213.12C787.02,-210.7 225.2,-200.21 153.01,-163.5 97.34,-135.19 57.98,-68.58 41.15,-35.54"/>
<polygon fill="#63b8ff" stroke="#63b8ff" points="44.36,-34.15 36.81,-26.72 38.08,-37.24 44.36,-34.15"/>
</a>
</g>
</g>
<!-- Node3&#45;&gt;Node12 -->
<g id="edge17_Node000003_Node000012" class="edge">
<title>Node3&#45;&gt;Node12</title>
<g id="a_edge17_Node000003_Node000012"><a xlink:title=" ">
<path fill="none" stroke="#63b8ff" d="M965.64,-212.35C787.35,-207.49 230.26,-190.23 203.01,-163.5 185.74,-146.57 187.4,-116.85 191.02,-97.08"/>
<polygon fill="#63b8ff" stroke="#63b8ff" points="194.4,-98 193.12,-87.48 187.56,-96.5 194.4,-98"/>
</a>
</g>
</g>
<!-- Node13 -->
<g id="Node000013" class="node">
<title>Node13</title>
<g id="a_Node000013"><a xlink:title=" ">
<polygon fill="#e0e0e0" stroke="#999999" points="283.76,-152.25 212.26,-152.25 212.26,-133 283.76,-133 283.76,-152.25"/>
<text text-anchor="middle" x="248.01" y="-138.75" font-family="Helvetica,sans-Serif" font-size="10.00">initializer_list</text>
</a>
</g>
</g>
<!-- Node3&#45;&gt;Node13 -->
<g id="edge18_Node000003_Node000013" class="edge">
<title>Node3&#45;&gt;Node13</title>
<g id="a_edge18_Node000003_Node000013"><a xlink:title=" ">
<path fill="none" stroke="#63b8ff" d="M965.6,-212.42C819.4,-208.47 420.5,-195.03 293.01,-163.5 286.89,-161.99 280.57,-159.7 274.66,-157.2"/>
<polygon fill="#63b8ff" stroke="#63b8ff" points="276.54,-154.21 265.99,-153.24 273.63,-160.58 276.54,-154.21"/>
</a>
</g>
</g>
<!-- Node14 -->
<g id="Node000014" class="node">
<title>Node14</title>
<g id="a_Node000014"><a xlink:title=" ">
<polygon fill="#e0e0e0" stroke="#999999" points="340.26,-152.25 301.76,-152.25 301.76,-133 340.26,-133 340.26,-152.25"/>
<text text-anchor="middle" x="321.01" y="-138.75" font-family="Helvetica,sans-Serif" font-size="10.00">utility</text>
</a>
</g>
</g>
<!-- Node3&#45;&gt;Node14 -->
<g id="edge20_Node000003_Node000014" class="edge">
<title>Node3&#45;&gt;Node14</title>
<g id="a_edge20_Node000003_Node000014"><a xlink:title=" ">
<path fill="none" stroke="#63b8ff" d="M965.41,-213.41C826.38,-211.95 461.99,-204.23 349.01,-163.5 346.01,-162.42 343.04,-160.92 340.22,-159.23"/>
<polygon fill="#63b8ff" stroke="#63b8ff" points="342.3,-156.42 332.11,-153.52 338.27,-162.14 342.3,-156.42"/>
</a>
</g>
</g>
<!-- Node15 -->
<g id="Node000015" class="node">
<title>Node15</title>
<g id="a_Node000015"><a xlink:title=" ">
<polygon fill="#e0e0e0" stroke="#999999" points="488.01,-157.88 358.01,-157.88 358.01,-127.38 488.01,-127.38 488.01,-157.88"/>
<text text-anchor="start" x="366.01" y="-144.38" font-family="Helvetica,sans-Serif" font-size="10.00">typed_linear_algebra</text>
<text text-anchor="middle" x="423.01" y="-133.12" font-family="Helvetica,sans-Serif" font-size="10.00">_internal/algorithm/add.tpp</text>
</a>
</g>
</g>
<!-- Node3&#45;&gt;Node15 -->
<g id="edge21_Node000003_Node000015" class="edge">
<title>Node3&#45;&gt;Node15</title>
<g id="a_edge21_Node000003_Node000015"><a xlink:title=" ">
<path fill="none" stroke="#63b8ff" d="M965.39,-211.5C869.79,-206.9 666.2,-194.13 497.01,-163.5 492.9,-162.76 488.7,-161.9 484.47,-160.96"/>
<polygon fill="#63b8ff" stroke="#63b8ff" points="485.32,-157.57 474.78,-158.68 483.71,-164.38 485.32,-157.57"/>
</a>
</g>
</g>
<!-- Node16 -->
<g id="Node000016" class="node">
<title>Node16</title>
<g id="a_Node000016"><a xlink:title=" ">
<polygon fill="#e0e0e0" stroke="#999999" points="645.88,-157.88 506.13,-157.88 506.13,-127.38 645.88,-127.38 645.88,-157.88"/>
<text text-anchor="start" x="514.13" y="-144.38" font-family="Helvetica,sans-Serif" font-size="10.00">typed_linear_algebra</text>
<text text-anchor="middle" x="576.01" y="-133.12" font-family="Helvetica,sans-Serif" font-size="10.00">_internal/algorithm/divide.tpp</text>
</a>
</g>
</g>
<!-- Node3&#45;&gt;Node16 -->
<g id="edge22_Node000003_Node000016" class="edge">
<title>Node3&#45;&gt;Node16</title>
<g id="a_edge22_Node000003_Node000016"><a xlink:title=" ">
<path fill="none" stroke="#63b8ff" d="M965.59,-208.14C894,-200.34 764.43,-184.73 655.01,-163.5 650.75,-162.68 646.39,-161.76 642,-160.8"/>
<polygon fill="#63b8ff" stroke="#63b8ff" points="643.09,-157.46 632.56,-158.64 641.53,-164.28 643.09,-157.46"/>
</a>
</g>
</g>
<!-- Node17 -->
<g id="Node000017" class="node">
<title>Node17</title>
<g id="a_Node000017"><a xlink:title=" ">
<polygon fill="#e0e0e0" stroke="#999999" points="785.88,-163.5 664.13,-163.5 664.13,-121.75 785.88,-121.75 785.88,-163.5"/>
<text text-anchor="start" x="672.13" y="-150" font-family="Helvetica,sans-Serif" font-size="10.00">typed_linear_algebra</text>
<text text-anchor="start" x="672.13" y="-138.75" font-family="Helvetica,sans-Serif" font-size="10.00">_internal/algorithm/equal</text>
<text text-anchor="middle" x="725.01" y="-127.5" font-family="Helvetica,sans-Serif" font-size="10.00">_to.tpp</text>
</a>
</g>
</g>
<!-- Node3&#45;&gt;Node17 -->
<g id="edge23_Node000003_Node000017" class="edge">
<title>Node3&#45;&gt;Node17</title>
<g id="a_edge23_Node000003_Node000017"><a xlink:title=" ">
<path fill="none" stroke="#63b8ff" d="M965.7,-202.53C922.5,-193.4 860.27,-179.79 797.02,-163.95"/>
<polygon fill="#63b8ff" stroke="#63b8ff" points="798.05,-160.6 787.5,-161.54 796.34,-167.38 798.05,-160.6"/>
</a>
</g>
</g>
<!-- Node18 -->
<g id="Node000018" class="node">
<title>Node18</title>
<g id="a_Node000018"><a xlink:title=" ">
<polygon fill="#e0e0e0" stroke="#999999" points="928.38,-163.5 803.63,-163.5 803.63,-121.75 928.38,-121.75 928.38,-163.5"/>
<text text-anchor="start" x="811.63" y="-150" font-family="Helvetica,sans-Serif" font-size="10.00">typed_linear_algebra</text>
<text text-anchor="start" x="811.63" y="-138.75" font-family="Helvetica,sans-Serif" font-size="10.00">_internal/algorithm/matrix</text>
<text text-anchor="middle" x="866.01" y="-127.5" font-family="Helvetica,sans-Serif" font-size="10.00">_product.tpp</text>
</a>
</g>
</g>
<!-- Node3&#45;&gt;Node18 -->
<g id="edge24_Node000003_Node000018" class="edge">
<title>Node3&#45;&gt;Node18</title>
<g id="a_edge24_Node000003_Node000018"><a xlink:title=" ">
<path fill="none" stroke="#63b8ff" d="M987.72,-199.05C968.38,-190.24 943.28,-178.81 920.91,-168.62"/>
<polygon fill="#63b8ff" stroke="#63b8ff" points="922.44,-165.48 911.89,-164.52 919.54,-171.85 922.44,-165.48"/>
</a>
</g>
</g>
<!-- Node19 -->
<g id="Node000019" class="node">
<title>Node19</title>
<g id="a_Node000019"><a xlink:title=" ">
<polygon fill="#e0e0e0" stroke="#999999" points="1093.26,-157.88 946.76,-157.88 946.76,-127.38 1093.26,-127.38 1093.26,-157.88"/>
<text text-anchor="start" x="954.76" y="-144.38" font-family="Helvetica,sans-Serif" font-size="10.00">typed_linear_algebra</text>
<text text-anchor="middle" x="1020.01" y="-133.12" font-family="Helvetica,sans-Serif" font-size="10.00">_internal/algorithm/product.tpp</text>
</a>
</g>
</g>
<!-- Node3&#45;&gt;Node19 -->
<g id="edge25_Node000003_Node000019" class="edge">
<title>Node3&#45;&gt;Node19</title>
<g id="a_edge25_Node000003_Node000019"><a xlink:title=" ">
<path fill="none" stroke="#63b8ff" d="M1020.01,-199.22C1020.01,-190.66 1020.01,-179.59 1020.01,-169.58"/>
<polygon fill="#63b8ff" stroke="#63b8ff" points="1023.51,-169.65 1020.01,-159.65 1016.51,-169.65 1023.51,-169.65"/>
</a>
</g>
</g>
<!-- Node20 -->
<g id="Node000020" class="node">
<title>Node20</title>
<g id="a_Node000020"><a xlink:title=" ">
<polygon fill="#e0e0e0" stroke="#999999" points="1248.76,-157.88 1111.26,-157.88 1111.26,-127.38 1248.76,-127.38 1248.76,-157.88"/>
<text text-anchor="start" x="1119.26" y="-144.38" font-family="Helvetica,sans-Serif" font-size="10.00">typed_linear_algebra</text>
<text text-anchor="middle" x="1180.01" y="-133.12" font-family="Helvetica,sans-Serif" font-size="10.00">_internal/algorithm/scale.tpp</text>
</a>
</g>
</g>
<!-- Node3&#45;&gt;Node20 -->
<g id="edge26_Node000003_Node000020" class="edge">
<title>Node3&#45;&gt;Node20</title>
<g id="a_edge26_Node000003_Node000020"><a xlink:title=" ">
<path fill="none" stroke="#63b8ff" d="M1053.55,-199.05C1077.55,-188.53 1110.09,-174.27 1136.15,-162.85"/>
<polygon fill="#63b8ff" stroke="#63b8ff" points="1137.37,-166.13 1145.12,-158.91 1134.56,-159.72 1137.37,-166.13"/>
</a>
</g>
</g>
<!-- Node21 -->
<g id="Node000021" class="node">
<title>Node21</title>
<g id="a_Node000021"><a xlink:title=" ">
<polygon fill="#e0e0e0" stroke="#999999" points="1421.38,-157.88 1266.63,-157.88 1266.63,-127.38 1421.38,-127.38 1421.38,-157.88"/>
<text text-anchor="start" x="1274.63" y="-144.38" font-family="Helvetica,sans-Serif" font-size="10.00">typed_linear_algebra</text>
<text text-anchor="middle" x="1344.01" y="-133.12" font-family="Helvetica,sans-Serif" font-size="10.00">_internal/algorithm/substract.tpp</text>
</a>
</g>
</g>
<!-- Node3&#45;&gt;Node21 -->
<g id="edge27_Node000003_Node000021" class="edge">
<title>Node3&#45;&gt;Node21</title>
<g id="a_edge27_Node000003_Node000021"><a xlink:title=" ">
<path fill="none" stroke="#63b8ff" d="M1074.42,-202.57C1122.7,-192.57 1195.12,-177.4 1258.01,-163.5 1261.98,-162.62 1266.06,-161.71 1270.17,-160.78"/>
<polygon fill="#63b8ff" stroke="#63b8ff" points="1270.64,-164.27 1279.62,-158.64 1269.1,-157.44 1270.64,-164.27"/>
</a>
</g>
</g>
<!-- Node22 -->
<g id="Node000022" class="node">
<title>Node22</title>
<g id="a_Node000022"><a xlink:title=" ">
<polygon fill="#e0e0e0" stroke="#999999" points="1602.13,-157.88 1439.88,-157.88 1439.88,-127.38 1602.13,-127.38 1602.13,-157.88"/>
<text text-anchor="start" x="1447.88" y="-144.38" font-family="Helvetica,sans-Serif" font-size="10.00">typed_linear_algebra</text>
<text text-anchor="middle" x="1521.01" y="-133.12" font-family="Helvetica,sans-Serif" font-size="10.00">_internal/algorithm/transposed.tpp</text>
</a>
</g>
</g>
<!-- Node3&#45;&gt;Node22 -->
<g id="edge28_Node000003_Node000022" class="edge">
<title>Node3&#45;&gt;Node22</title>
<g id="a_edge28_Node000003_Node000022"><a xlink:title=" ">
<path fill="none" stroke="#63b8ff" d="M1074.62,-208.69C1153.43,-201.02 1303.46,-185.03 1430.01,-163.5 1435.31,-162.6 1440.77,-161.6 1446.25,-160.53"/>
<polygon fill="#63b8ff" stroke="#63b8ff" points="1446.91,-163.97 1456.03,-158.58 1445.54,-157.11 1446.91,-163.97"/>
</a>
</g>
</g>
<!-- Node23 -->
<g id="Node000023" class="node">
<title>Node23</title>
<g id="a_Node000023"><a xlink:title=" ">
<polygon fill="#e0e0e0" stroke="#999999" points="1724.26,-157.88 1619.76,-157.88 1619.76,-127.38 1724.26,-127.38 1724.26,-157.88"/>
<text text-anchor="start" x="1627.76" y="-144.38" font-family="Helvetica,sans-Serif" font-size="10.00">typed_linear_algebra</text>
<text text-anchor="middle" x="1672.01" y="-133.12" font-family="Helvetica,sans-Serif" font-size="10.00">_internal/cast.tpp</text>
</a>
</g>
</g>
<!-- Node3&#45;&gt;Node23 -->
<g id="edge29_Node000003_Node000023" class="edge">
<title>Node3&#45;&gt;Node23</title>
<g id="a_edge29_Node000003_Node000023"><a xlink:title=" ">
<path fill="none" stroke="#63b8ff" d="M1074.38,-213.29C1179.23,-211.48 1416.22,-202.96 1611.01,-163.5 1614.13,-162.87 1617.31,-162.13 1620.51,-161.31"/>
<polygon fill="#63b8ff" stroke="#63b8ff" points="1621.18,-164.76 1629.88,-158.71 1619.31,-158.02 1621.18,-164.76"/>
</a>
</g>
</g>
<!-- Node24 -->
<g id="Node000024" class="node">
<title>Node24</title>
<g id="a_Node000024"><a xlink:title=" ">
<polygon fill="#e0e0e0" stroke="#999999" points="1847.26,-157.88 1742.76,-157.88 1742.76,-127.38 1847.26,-127.38 1847.26,-157.88"/>
<text text-anchor="start" x="1750.76" y="-144.38" font-family="Helvetica,sans-Serif" font-size="10.00">typed_linear_algebra</text>
<text text-anchor="middle" x="1795.01" y="-133.12" font-family="Helvetica,sans-Serif" font-size="10.00">_internal/tuple.tpp</text>
</a>
</g>
</g>
<!-- Node3&#45;&gt;Node24 -->
<g id="edge30_Node000003_Node000024" class="edge">
<title>Node3&#45;&gt;Node24</title>
<g id="a_edge30_Node000003_Node000024"><a xlink:title=" ">
<path fill="none" stroke="#63b8ff" d="M1074.24,-214.33C1194.19,-214.66 1490.52,-210.21 1733.01,-163.5 1736.34,-162.86 1739.74,-162.09 1743.16,-161.24"/>
<polygon fill="#63b8ff" stroke="#63b8ff" points="1743.82,-164.69 1752.55,-158.68 1741.98,-157.94 1743.82,-164.69"/>
</a>
</g>
</g>
<!-- Node25 -->
<g id="Node000025" class="node">
<title>Node25</title>
<g id="a_Node000025"><a xlink:title=" ">
<polygon fill="#e0e0e0" stroke="#999999" points="1972.76,-163.5 1865.26,-163.5 1865.26,-121.75 1972.76,-121.75 1972.76,-163.5"/>
<text text-anchor="start" x="1873.26" y="-150" font-family="Helvetica,sans-Serif" font-size="10.00">typed_linear_algebra</text>
<text text-anchor="start" x="1873.26" y="-138.75" font-family="Helvetica,sans-Serif" font-size="10.00">_internal/typed_linear</text>
<text text-anchor="middle" x="1919.01" y="-127.5" font-family="Helvetica,sans-Serif" font-size="10.00">_algebra.tpp</text>
</a>
</g>
</g>
<!-- Node3&#45;&gt;Node25 -->
<g id="edge31_Node000003_Node000025" class="edge">
<title>Node3&#45;&gt;Node25</title>
<g id="a_edge31_Node000003_Node000025"><a xlink:title=" ">
<path fill="none" stroke="#63b8ff" d="M1074.44,-212.22C1231.44,-207.55 1684.2,-192.1 1853.7,-163.6"/>
<polygon fill="#63b8ff" stroke="#63b8ff" points="1854.2,-167.07 1863.43,-161.88 1852.98,-160.17 1854.2,-167.07"/>
</a>
</g>
</g>
<!-- Node5&#45;&gt;Node6 -->
<g id="edge5_Node000005_Node000006" class="edge">
<title>Node5&#45;&gt;Node6</title>
<g id="a_edge5_Node000005_Node000006"><a xlink:title=" ">
<path fill="none" stroke="#63b8ff" d="M2062.85,-126.99C2050.24,-116.82 2033.45,-103.28 2020.54,-92.88"/>
<polygon fill="#63b8ff" stroke="#63b8ff" points="2023.11,-90.45 2013.13,-86.9 2018.72,-95.9 2023.11,-90.45"/>
</a>
</g>
</g>
<!-- Node5&#45;&gt;Node8 -->
<g id="edge12_Node000005_Node000008" class="edge">
<title>Node5&#45;&gt;Node8</title>
<g id="a_edge12_Node000005_Node000008"><a xlink:title=" ">
<path fill="none" stroke="#63b8ff" d="M2094.43,-127.24C2116.13,-103.99 2158.84,-58.22 2182.06,-33.34"/>
<polygon fill="#63b8ff" stroke="#63b8ff" points="2184.36,-36 2188.63,-26.3 2179.25,-31.22 2184.36,-36"/>
</a>
</g>
</g>
<!-- Node5&#45;&gt;Node12 -->
<g id="edge13_Node000005_Node000012" class="edge">
<title>Node5&#45;&gt;Node12</title>
<g id="a_edge13_Node000005_Node000012"><a xlink:title=" ">
<path fill="none" stroke="#63b8ff" d="M2028.35,-129.3C2013.45,-126.29 1997.16,-123.45 1982.01,-121.75 1623.89,-81.63 444.45,-77.58 229.71,-77.17"/>
<polygon fill="#63b8ff" stroke="#63b8ff" points="229.83,-73.67 219.82,-77.15 229.82,-80.67 229.83,-73.67"/>
</a>
</g>
</g>
<!-- Node6&#45;&gt;Node4 -->
<g id="edge6_Node000006_Node000004" class="edge">
<title>Node6&#45;&gt;Node4</title>
<g id="a_edge6_Node000006_Node000004"><a xlink:title=" ">
<path fill="none" stroke="#63b8ff" d="M2016.35,-66.18C2029.82,-58.33 2049.91,-46.62 2067.25,-36.51"/>
<polygon fill="#63b8ff" stroke="#63b8ff" points="2068.89,-39.6 2075.77,-31.54 2065.37,-33.56 2068.89,-39.6"/>
</a>
</g>
</g>
<!-- Node6&#45;&gt;Node7 -->
<g id="edge7_Node000006_Node000007" class="edge">
<title>Node6&#45;&gt;Node7</title>
<g id="a_edge7_Node000006_Node000007"><a xlink:title=" ">
<path fill="none" stroke="#63b8ff" d="M1972.61,-74.22C1761.04,-67.51 431.93,-25.32 185.35,-17.5"/>
<polygon fill="#63b8ff" stroke="#63b8ff" points="185.73,-14.01 175.62,-17.19 185.51,-21.01 185.73,-14.01"/>
</a>
</g>
</g>
<!-- Node6&#45;&gt;Node8 -->
<g id="edge8_Node000006_Node000008" class="edge">
<title>Node6&#45;&gt;Node8</title>
<g id="a_edge8_Node000006_Node000008"><a xlink:title=" ">
<path fill="none" stroke="#63b8ff" d="M2029.7,-68.31C2062.32,-60.31 2117.02,-46.13 2163.01,-30.5 2164.16,-30.11 2165.32,-29.7 2166.5,-29.28"/>
<polygon fill="#63b8ff" stroke="#63b8ff" points="2167.55,-32.62 2175.65,-25.79 2165.05,-26.08 2167.55,-32.62"/>
</a>
</g>
</g>
<!-- Node9 -->
<g id="Node000009" class="node">
<title>Node9</title>
<g id="a_Node000009"><a xlink:title=" ">
<polygon fill="#e0e0e0" stroke="#999999" points="2030.01,-24.88 1972.01,-24.88 1972.01,-5.63 2030.01,-5.63 2030.01,-24.88"/>
<text text-anchor="middle" x="2001.01" y="-11.38" font-family="Helvetica,sans-Serif" font-size="10.00">functional</text>
</a>
</g>
</g>
<!-- Node6&#45;&gt;Node9 -->
<g id="edge9_Node000006_Node000009" class="edge">
<title>Node6&#45;&gt;Node9</title>
<g id="a_edge9_Node000006_Node000009"><a xlink:title=" ">
<path fill="none" stroke="#63b8ff" d="M2001.01,-66.18C2001.01,-58.4 2001.01,-46.83 2001.01,-36.78"/>
<polygon fill="#63b8ff" stroke="#63b8ff" points="2004.51,-36.79 2001.01,-26.79 1997.51,-36.79 2004.51,-36.79"/>
</a>
</g>
</g>
<!-- Node6&#45;&gt;Node10 -->
<g id="edge10_Node000006_Node000010" class="edge">
<title>Node6&#45;&gt;Node10</title>
<g id="a_edge10_Node000006_Node000010"><a xlink:title=" ">
<path fill="none" stroke="#63b8ff" d="M1972.32,-75.08C1764.98,-74.63 492.81,-70.28 109.01,-30.5 93.37,-28.88 76.15,-25.82 61.97,-22.94"/>
<polygon fill="#63b8ff" stroke="#63b8ff" points="62.86,-19.55 52.35,-20.92 61.42,-26.4 62.86,-19.55"/>
</a>
</g>
</g>
<!-- Node6&#45;&gt;Node11 -->
<g id="edge11_Node000006_Node000011" class="edge">
<title>Node6&#45;&gt;Node11</title>
<g id="a_edge11_Node000006_Node000011"><a xlink:title=" ">
<path fill="none" stroke="#63b8ff" d="M1972.47,-73.31C1838.79,-64.83 1274.27,-29.02 1115,-18.91"/>
<polygon fill="#63b8ff" stroke="#63b8ff" points="1115.53,-15.44 1105.33,-18.3 1115.09,-22.43 1115.53,-15.44"/>
</a>
</g>
</g>
</g>
</svg>

<g id="navigator" transform="translate(0 0)" fill="#404254">
  <rect fill="#f2f5e9" fill-opacity="0.5" stroke="#606060" stroke-width=".5" x="0" y="0" width="60" height="60"/>
  <use id="zoomplus" xlink:href="#zoomPlus" x="17" y="9" onmousedown="handleZoom(evt,'in')"/>
  <use id="zoomminus" xlink:href="#zoomMin" x="42" y="9" onmousedown="handleZoom(evt,'out')"/>
  <use id="reset" xlink:href="#resetDef" x="30" y="36" onmousedown="handleReset()"/>
   <use id="arrowup" xlink:href="#arrowUp" x="0" y="0" onmousedown="handlePan(0,-1)"/>
  <use id="arrowright" xlink:href="#arrowRight" x="0" y="0" onmousedown="handlePan(1,0)"/>
  <use id="arrowdown" xlink:href="#arrowDown" x="0" y="0" onmousedown="handlePan(0,1)"/>
  <use id="arrowleft" xlink:href="#arrowLeft" x="0" y="0" onmousedown="handlePan(-1,0)"/>
</g>
<svg viewBox="0 0 15 15" width="100%" height="30px" preserveAspectRatio="xMaxYMin meet">
 <g id="arrow_out" transform="scale(0.3 0.3)">
  <a xlink:href="eigen_2fcarouge_2linalg_8hpp__incl_org.svg" target="_base">
   <rect id="button" ry="5" rx="5" y="6" x="6" height="38" width="38"
        fill="#f2f5e9" fill-opacity="0.5" stroke="#606060" stroke-width="1.0"/>
   <path id="arrow"
     d="M 11.500037,31.436501 C 11.940474,20.09759 22.043105,11.32322 32.158766,21.979434 L 37.068811,17.246167 C 37.068811,17.246167 37.088388,32 37.088388,32 L 22.160133,31.978069 C 22.160133,31.978069 26.997745,27.140456 26.997745,27.140456 C 18.528582,18.264221 13.291696,25.230495 11.500037,31.436501 z"
     style="fill:#404040;"/>
  </a>
 </g>
</svg>

<style type='text/css'>
<![CDATA[
[data-mouse-over-selected='false'] { opacity: 0.7; }
[data-mouse-over-selected='true']  { opacity: 1.0; }
]]>
</style>
<script type="application/ecmascript"><![CDATA[
document.addEventListener('DOMContentLoaded', (event) => {
  highlightEdges();
  highlightAdjacentNodes();
});
]]></script>
</svg>
