<?xml version="1.0" encoding="UTF-8" standalone="no"?>
<!DOCTYPE svg PUBLIC "-//W3C//DTD SVG 1.1//EN"
 "http://www.w3.org/Graphics/SVG/1.1/DTD/svg11.dtd">
<!-- Generated by graphviz version 12.2.0 (20241103.1931)
 -->
<!-- Title: /github/workspace/benchmark/eigen_product.cpp Pages: 1 -->
<svg width="426pt" height="94pt"
 viewBox="0.00 0.00 425.50 93.75" xmlns="http://www.w3.org/2000/svg" xmlns:xlink="http://www.w3.org/1999/xlink">

<svg id="main" version="1.1" xmlns="http://www.w3.org/2000/svg" xmlns:xlink="http://www.w3.org/1999/xlink" xml:space="preserve">

<style type="text/css"><![CDATA[
.node, .edge {opacity: 0.7;}
.node.selected, .edge.selected {opacity: 1;}
.edge:hover path { stroke: red; }
.edge:hover polygon { stroke: red; fill: red; }
]]></style>
<script type="application/ecmascript" xlink:href="svg.min.js"/>
<svg id="graph" class="graph">
<g id="graph0" class="graph" transform="scale(1 1) rotate(0) translate(4 89.75)">
<title>/github/workspace/benchmark/eigen_product.cpp</title>
<!-- Node1 -->
<g id="Node000001" class="node">
<title>Node1</title>
<g id="a_Node000001"><a xlink:title=" ">
<polygon fill="#999999" stroke="#666666" points="258.38,-85.75 111.88,-85.75 111.88,-55.25 258.38,-55.25 258.38,-85.75"/>
<text text-anchor="start" x="119.88" y="-72.25" font-family="Helvetica,sans-Serif" font-size="10.00">/github/workspace/benchmark</text>
<text text-anchor="middle" x="185.12" y="-61" font-family="Helvetica,sans-Serif" font-size="10.00">/eigen_product.cpp</text>
</a>
</g>
</g>
<!-- Node2 -->
<g id="Node000002" class="node">
<title>Node2</title>
<g id="a_Node000002"><a xlink:title=" ">
<polygon fill="#e0e0e0" stroke="#999999" points="48.25,-19.25 0,-19.25 0,0 48.25,0 48.25,-19.25"/>
<text text-anchor="middle" x="24.12" y="-5.75" font-family="Helvetica,sans-Serif" font-size="10.00">cstddef</text>
</a>
</g>
</g>
<!-- Node1&#45;&gt;Node2 -->
<g id="edge1_Node000001_Node000002" class="edge">
<title>Node1&#45;&gt;Node2</title>
<g id="a_edge1_Node000001_Node000002"><a xlink:title=" ">
<path fill="none" stroke="#63b8ff" d="M144.91,-54.8C118.46,-45.12 84.2,-32.59 58.92,-23.35"/>
<polygon fill="#63b8ff" stroke="#63b8ff" points="60.36,-20.15 49.77,-20 57.96,-26.72 60.36,-20.15"/>
</a>
</g>
</g>
<!-- Node3 -->
<g id="Node000003" class="node">
<title>Node3</title>
<g id="a_Node000003"><a xlink:title=" ">
<polygon fill="#e0e0e0" stroke="#999999" points="110,-19.25 66.25,-19.25 66.25,0 110,0 110,-19.25"/>
<text text-anchor="middle" x="88.12" y="-5.75" font-family="Helvetica,sans-Serif" font-size="10.00">format</text>
</a>
</g>
</g>
<!-- Node1&#45;&gt;Node3 -->
<g id="edge2_Node000001_Node000003" class="edge">
<title>Node1&#45;&gt;Node3</title>
<g id="a_edge2_Node000001_Node000003"><a xlink:title=" ">
<path fill="none" stroke="#63b8ff" d="M161.15,-54.95C146.38,-45.98 127.49,-34.52 112.63,-25.5"/>
<polygon fill="#63b8ff" stroke="#63b8ff" points="114.74,-22.68 104.37,-20.49 111.11,-28.67 114.74,-22.68"/>
</a>
</g>
</g>
<!-- Node4 -->
<g id="Node000004" class="node">
<title>Node4</title>
<g id="a_Node000004"><a xlink:title=" ">
<polygon fill="#e0e0e0" stroke="#999999" points="176.62,-19.25 127.62,-19.25 127.62,0 176.62,0 176.62,-19.25"/>
<text text-anchor="middle" x="152.12" y="-5.75" font-family="Helvetica,sans-Serif" font-size="10.00">fstream</text>
</a>
</g>
</g>
<!-- Node1&#45;&gt;Node4 -->
<g id="edge3_Node000001_Node000004" class="edge">
<title>Node1&#45;&gt;Node4</title>
<g id="a_edge3_Node000001_Node000004"><a xlink:title=" ">
<path fill="none" stroke="#63b8ff" d="M176.97,-54.95C172.67,-47.28 167.34,-37.77 162.73,-29.54"/>
<polygon fill="#63b8ff" stroke="#63b8ff" points="165.89,-28.03 157.95,-21.02 159.79,-31.46 165.89,-28.03"/>
</a>
</g>
</g>
<!-- Node5 -->
<g id="Node000005" class="node">
<title>Node5</title>
<g id="a_Node000005"><a xlink:title=" ">
<polygon fill="#e0e0e0" stroke="#999999" points="243.25,-19.25 195,-19.25 195,0 243.25,0 243.25,-19.25"/>
<text text-anchor="middle" x="219.12" y="-5.75" font-family="Helvetica,sans-Serif" font-size="10.00">random</text>
</a>
</g>
</g>
<!-- Node1&#45;&gt;Node5 -->
<g id="edge4_Node000001_Node000005" class="edge">
<title>Node1&#45;&gt;Node5</title>
<g id="a_edge4_Node000001_Node000005"><a xlink:title=" ">
<path fill="none" stroke="#63b8ff" d="M193.53,-54.95C197.96,-47.28 203.45,-37.77 208.2,-29.54"/>
<polygon fill="#63b8ff" stroke="#63b8ff" points="211.16,-31.42 213.13,-21.01 205.09,-27.92 211.16,-31.42"/>
</a>
</g>
</g>
<!-- Node6 -->
<g id="Node000006" class="node">
<title>Node6</title>
<g id="a_Node000006"><a xlink:title=" ">
<polygon fill="#e0e0e0" stroke="#999999" points="328.62,-19.25 261.62,-19.25 261.62,0 328.62,0 328.62,-19.25"/>
<text text-anchor="middle" x="295.12" y="-5.75" font-family="Helvetica,sans-Serif" font-size="10.00">Eigen/Eigen</text>
</a>
</g>
</g>
<!-- Node1&#45;&gt;Node6 -->
<g id="edge5_Node000001_Node000006" class="edge">
<title>Node1&#45;&gt;Node6</title>
<g id="a_edge5_Node000001_Node000006"><a xlink:title=" ">
<path fill="none" stroke="#63b8ff" d="M212.6,-54.8C229.67,-45.66 251.52,-33.97 268.44,-24.91"/>
<polygon fill="#63b8ff" stroke="#63b8ff" points="269.76,-28.17 276.92,-20.37 266.45,-22 269.76,-28.17"/>
</a>
</g>
</g>
<!-- Node7 -->
<g id="Node000007" class="node">
<title>Node7</title>
<g id="a_Node000007"><a xlink:title=" ">
<polygon fill="#e0e0e0" stroke="#999999" points="417.5,-19.25 346.75,-19.25 346.75,0 417.5,0 417.5,-19.25"/>
<text text-anchor="middle" x="382.12" y="-5.75" font-family="Helvetica,sans-Serif" font-size="10.00">nanobench.h</text>
</a>
</g>
</g>
<!-- Node1&#45;&gt;Node7 -->
<g id="edge6_Node000001_Node000007" class="edge">
<title>Node1&#45;&gt;Node7</title>
<g id="a_edge6_Node000001_Node000007"><a xlink:title=" ">
<path fill="none" stroke="#63b8ff" d="M234.33,-54.8C267.11,-45 309.71,-32.27 340.75,-22.99"/>
<polygon fill="#63b8ff" stroke="#63b8ff" points="341.59,-26.39 350.17,-20.17 339.59,-19.68 341.59,-26.39"/>
</a>
</g>
</g>
</g>
</svg>
</svg>

<style type='text/css'>
<![CDATA[
[data-mouse-over-selected='false'] { opacity: 0.7; }
[data-mouse-over-selected='true']  { opacity: 1.0; }
]]>
</style>
<script type="application/ecmascript"><![CDATA[
document.addEventListener('DOMContentLoaded', (event) => {
  highlightEdges();
  highlightAdjacentNodes();
});
]]></script>
</svg>
