<?xml version="1.0" encoding="UTF-8" standalone="no"?>
<!DOCTYPE svg PUBLIC "-//W3C//DTD SVG 1.1//EN"
 "http://www.w3.org/Graphics/SVG/1.1/DTD/svg11.dtd">
<!-- Generated by graphviz version 12.2.0 (20241103.1931)
 -->
<!-- Title: /github/workspace/support/eigen/fcarouge/eigen.hpp Pages: 1 -->
<svg width="1338pt" height="293pt"
 viewBox="0.00 0.00 1338.00 293.25" xmlns="http://www.w3.org/2000/svg" xmlns:xlink="http://www.w3.org/1999/xlink">
<g id="graph0" class="graph" transform="scale(1 1) rotate(0) translate(4 289.25)">
<title>/github/workspace/support/eigen/fcarouge/eigen.hpp</title>
<!-- Node1 -->
<g id="Node000001" class="node">
<title>Node1</title>
<g id="a_Node000001"><a xlink:title="Linear algebra facade for Eigen3 third party implementation.">
<polygon fill="#999999" stroke="#666666" points="719.5,-285.25 588.75,-285.25 588.75,-254.75 719.5,-254.75 719.5,-285.25"/>
<text text-anchor="start" x="596.75" y="-271.75" font-family="Helvetica,sans-Serif" font-size="10.00">/github/workspace/support</text>
<text text-anchor="middle" x="654.12" y="-260.5" font-family="Helvetica,sans-Serif" font-size="10.00">/eigen/fcarouge/eigen.hpp</text>
</a>
</g>
</g>
<!-- Node2 -->
<g id="Node000002" class="node">
<title>Node2</title>
<g id="a_Node000002"><a xlink:href="typed__linear__algebra_8hpp.xhtml" target="_top" xlink:title="Typed linear algebra implementation.">
<polygon fill="white" stroke="#666666" points="659.25,-218.75 551,-218.75 551,-188.25 659.25,-188.25 659.25,-218.75"/>
<text text-anchor="start" x="559" y="-205.25" font-family="Helvetica,sans-Serif" font-size="10.00">fcarouge/typed_linear</text>
<text text-anchor="middle" x="605.12" y="-194" font-family="Helvetica,sans-Serif" font-size="10.00">_algebra.hpp</text>
</a>
</g>
</g>
<!-- Node1&#45;&gt;Node2 -->
<g id="edge1_Node000001_Node000002" class="edge">
<title>Node1&#45;&gt;Node2</title>
<g id="a_edge1_Node000001_Node000002"><a xlink:title=" ">
<path fill="none" stroke="#63b8ff" d="M643.01,-254.36C637.12,-246.61 629.74,-236.9 623.06,-228.11"/>
<polygon fill="#63b8ff" stroke="#63b8ff" points="625.95,-226.13 617.12,-220.28 620.38,-230.36 625.95,-226.13"/>
</a>
</g>
</g>
<!-- Node11 -->
<g id="Node000011" class="node">
<title>Node11</title>
<g id="a_Node000011"><a xlink:title=" ">
<polygon fill="#e0e0e0" stroke="#999999" points="118,-74.5 74.25,-74.5 74.25,-55.25 118,-55.25 118,-74.5"/>
<text text-anchor="middle" x="96.12" y="-61" font-family="Helvetica,sans-Serif" font-size="10.00">format</text>
</a>
</g>
</g>
<!-- Node1&#45;&gt;Node11 -->
<g id="edge23_Node000001_Node000011" class="edge">
<title>Node1&#45;&gt;Node11</title>
<g id="a_edge23_Node000001_Node000011"><a xlink:title=" ">
<path fill="none" stroke="#63b8ff" d="M588.51,-266.78C443.89,-260.37 104.96,-236.49 35.12,-152.25 23.28,-137.96 26.73,-127.05 35.12,-110.5 41.55,-97.83 53.46,-87.89 65.06,-80.65"/>
<polygon fill="#63b8ff" stroke="#63b8ff" points="66.75,-83.71 73.71,-75.72 63.29,-77.63 66.75,-83.71"/>
</a>
</g>
</g>
<!-- Node19 -->
<g id="Node000019" class="node">
<title>Node19</title>
<g id="a_Node000019"><a xlink:title=" ">
<polygon fill="#e0e0e0" stroke="#999999" points="728.75,-213.12 677.5,-213.12 677.5,-193.88 728.75,-193.88 728.75,-213.12"/>
<text text-anchor="middle" x="703.12" y="-199.62" font-family="Helvetica,sans-Serif" font-size="10.00">sstream</text>
</a>
</g>
</g>
<!-- Node1&#45;&gt;Node19 -->
<g id="edge24_Node000001_Node000019" class="edge">
<title>Node1&#45;&gt;Node19</title>
<g id="a_edge24_Node000001_Node000019"><a xlink:title=" ">
<path fill="none" stroke="#63b8ff" d="M665.24,-254.36C672.44,-244.89 681.87,-232.48 689.52,-222.41"/>
<polygon fill="#63b8ff" stroke="#63b8ff" points="692.24,-224.61 695.51,-214.53 686.67,-220.37 692.24,-224.61"/>
</a>
</g>
</g>
<!-- Node20 -->
<g id="Node000020" class="node">
<title>Node20</title>
<g id="a_Node000020"><a xlink:title=" ">
<polygon fill="#e0e0e0" stroke="#999999" points="813.62,-213.12 746.62,-213.12 746.62,-193.88 813.62,-193.88 813.62,-213.12"/>
<text text-anchor="middle" x="780.12" y="-199.62" font-family="Helvetica,sans-Serif" font-size="10.00">Eigen/Eigen</text>
</a>
</g>
</g>
<!-- Node1&#45;&gt;Node20 -->
<g id="edge25_Node000001_Node000020" class="edge">
<title>Node1&#45;&gt;Node20</title>
<g id="a_edge25_Node000001_Node000020"><a xlink:title=" ">
<path fill="none" stroke="#63b8ff" d="M682.72,-254.36C703.61,-243.67 731.8,-229.24 752.48,-218.65"/>
<polygon fill="#63b8ff" stroke="#63b8ff" points="753.87,-221.87 761.18,-214.2 750.68,-215.64 753.87,-221.87"/>
</a>
</g>
</g>
<!-- Node3 -->
<g id="Node000003" class="node">
<title>Node3</title>
<g id="a_Node000003"><a xlink:href="typed__linear__algebra__forward_8hpp.xhtml" target="_top" xlink:title="Authoritative forward declaration header.">
<polygon fill="white" stroke="#666666" points="1185.38,-146.62 1080.88,-146.62 1080.88,-116.12 1185.38,-116.12 1185.38,-146.62"/>
<text text-anchor="start" x="1088.88" y="-133.12" font-family="Helvetica,sans-Serif" font-size="10.00">typed_linear_algebra</text>
<text text-anchor="middle" x="1133.12" y="-121.88" font-family="Helvetica,sans-Serif" font-size="10.00">_forward.hpp</text>
</a>
</g>
</g>
<!-- Node2&#45;&gt;Node3 -->
<g id="edge2_Node000002_Node000003" class="edge">
<title>Node2&#45;&gt;Node3</title>
<g id="a_edge2_Node000002_Node000003"><a xlink:title=" ">
<path fill="none" stroke="#63b8ff" d="M659.67,-189.69C662.53,-189.17 665.36,-188.68 668.12,-188.25 846.21,-160.3 895.52,-188.4 1072.12,-152.25 1075.25,-151.61 1078.43,-150.87 1081.62,-150.05"/>
<polygon fill="#63b8ff" stroke="#63b8ff" points="1082.3,-153.49 1090.99,-147.44 1080.42,-146.75 1082.3,-153.49"/>
</a>
</g>
</g>
<!-- Node4 -->
<g id="Node000004" class="node">
<title>Node4</title>
<g id="a_Node000004"><a xlink:href="format_8hpp.xhtml" target="_top" xlink:title="Formatting support for the typed matrix.">
<polygon fill="white" stroke="#666666" points="148.38,-146.62 43.88,-146.62 43.88,-116.12 148.38,-116.12 148.38,-146.62"/>
<text text-anchor="start" x="51.88" y="-133.12" font-family="Helvetica,sans-Serif" font-size="10.00">typed_linear_algebra</text>
<text text-anchor="middle" x="96.12" y="-121.88" font-family="Helvetica,sans-Serif" font-size="10.00">_internal/format.hpp</text>
</a>
</g>
</g>
<!-- Node2&#45;&gt;Node4 -->
<g id="edge3_Node000002_Node000004" class="edge">
<title>Node2&#45;&gt;Node4</title>
<g id="a_edge3_Node000002_Node000004"><a xlink:title=" ">
<path fill="none" stroke="#63b8ff" d="M550.76,-199.49C466.72,-194.12 300.49,-180.69 162.12,-152.25 158.78,-151.56 155.35,-150.78 151.91,-149.93"/>
<polygon fill="#63b8ff" stroke="#63b8ff" points="152.96,-146.59 142.4,-147.43 151.18,-153.36 152.96,-146.59"/>
</a>
</g>
</g>
<!-- Node5 -->
<g id="Node000005" class="node">
<title>Node5</title>
<g id="a_Node000005"><a xlink:href="utility_8hpp.xhtml" target="_top" xlink:title=" ">
<polygon fill="white" stroke="#666666" points="1205.38,-74.5 1148.88,-74.5 1148.88,-55.25 1205.38,-55.25 1205.38,-74.5"/>
<text text-anchor="middle" x="1177.12" y="-61" font-family="Helvetica,sans-Serif" font-size="10.00">utility.hpp</text>
</a>
</g>
</g>
<!-- Node2&#45;&gt;Node5 -->
<g id="edge11_Node000002_Node000005" class="edge">
<title>Node2&#45;&gt;Node5</title>
<g id="a_edge11_Node000002_Node000005"><a xlink:title=" ">
<path fill="none" stroke="#63b8ff" d="M659.66,-189.62C662.52,-189.12 665.35,-188.66 668.12,-188.25 726.09,-179.76 1154.14,-195.06 1194.12,-152.25 1211.12,-134.05 1199.6,-104.03 1188.97,-84.61"/>
<polygon fill="#63b8ff" stroke="#63b8ff" points="1192.06,-82.95 1183.96,-76.11 1186.03,-86.5 1192.06,-82.95"/>
</a>
</g>
</g>
<!-- Node6 -->
<g id="Node000006" class="node">
<title>Node6</title>
<g id="a_Node000006"><a xlink:title=" ">
<polygon fill="#e0e0e0" stroke="#999999" points="1330,-19.25 1274.25,-19.25 1274.25,0 1330,0 1330,-19.25"/>
<text text-anchor="middle" x="1302.12" y="-5.75" font-family="Helvetica,sans-Serif" font-size="10.00">concepts</text>
</a>
</g>
</g>
<!-- Node2&#45;&gt;Node6 -->
<g id="edge12_Node000002_Node000006" class="edge">
<title>Node2&#45;&gt;Node6</title>
<g id="a_edge12_Node000002_Node000006"><a xlink:title=" ">
<path fill="none" stroke="#63b8ff" d="M659.66,-189.61C662.52,-189.11 665.35,-188.65 668.12,-188.25 730.94,-179.22 1185.92,-188.33 1238.12,-152.25 1279.09,-123.94 1294.26,-62.83 1299.53,-30.94"/>
<polygon fill="#63b8ff" stroke="#63b8ff" points="1302.98,-31.48 1300.96,-21.08 1296.06,-30.47 1302.98,-31.48"/>
</a>
</g>
</g>
<!-- Node8 -->
<g id="Node000008" class="node">
<title>Node8</title>
<g id="a_Node000008"><a xlink:title=" ">
<polygon fill="#e0e0e0" stroke="#999999" points="1256.62,-19.25 1219.62,-19.25 1219.62,0 1256.62,0 1256.62,-19.25"/>
<text text-anchor="middle" x="1238.12" y="-5.75" font-family="Helvetica,sans-Serif" font-size="10.00">tuple</text>
</a>
</g>
</g>
<!-- Node2&#45;&gt;Node8 -->
<g id="edge16_Node000002_Node000008" class="edge">
<title>Node2&#45;&gt;Node8</title>
<g id="a_edge16_Node000002_Node000008"><a xlink:title=" ">
<path fill="none" stroke="#63b8ff" d="M659.66,-189.62C662.52,-189.11 665.35,-188.65 668.12,-188.25 728.07,-179.54 1166.89,-192.54 1212.12,-152.25 1246.42,-121.71 1244.88,-62.08 1241.28,-30.83"/>
<polygon fill="#63b8ff" stroke="#63b8ff" points="1244.78,-30.62 1239.97,-21.18 1237.85,-31.56 1244.78,-30.62"/>
</a>
</g>
</g>
<!-- Node10 -->
<g id="Node000010" class="node">
<title>Node10</title>
<g id="a_Node000010"><a xlink:title=" ">
<polygon fill="#e0e0e0" stroke="#999999" points="48.25,-74.5 0,-74.5 0,-55.25 48.25,-55.25 48.25,-74.5"/>
<text text-anchor="middle" x="24.12" y="-61" font-family="Helvetica,sans-Serif" font-size="10.00">cstddef</text>
</a>
</g>
</g>
<!-- Node2&#45;&gt;Node10 -->
<g id="edge13_Node000002_Node000010" class="edge">
<title>Node2&#45;&gt;Node10</title>
<g id="a_edge13_Node000002_Node000010"><a xlink:title=" ">
<path fill="none" stroke="#63b8ff" d="M550.64,-201.51C415.26,-198.54 71.82,-187.55 35.12,-152.25 17.62,-135.41 17.76,-105.67 20.29,-85.86"/>
<polygon fill="#63b8ff" stroke="#63b8ff" points="23.7,-86.69 21.84,-76.26 16.79,-85.58 23.7,-86.69"/>
</a>
</g>
</g>
<!-- Node2&#45;&gt;Node11 -->
<g id="edge14_Node000002_Node000011" class="edge">
<title>Node2&#45;&gt;Node11</title>
<g id="a_edge14_Node000002_Node000011"><a xlink:title=" ">
<path fill="none" stroke="#63b8ff" d="M550.64,-200.49C453.73,-196.16 255.88,-183.66 195.12,-152.25 172.84,-140.73 175.79,-127.27 157.12,-110.5 145.23,-99.81 130.83,-89.19 119.02,-80.99"/>
<polygon fill="#63b8ff" stroke="#63b8ff" points="121.29,-78.3 111.06,-75.57 117.36,-84.09 121.29,-78.3"/>
</a>
</g>
</g>
<!-- Node12 -->
<g id="Node000012" class="node">
<title>Node12</title>
<g id="a_Node000012"><a xlink:title=" ">
<polygon fill="#e0e0e0" stroke="#999999" points="275.88,-141 204.38,-141 204.38,-121.75 275.88,-121.75 275.88,-141"/>
<text text-anchor="middle" x="240.12" y="-127.5" font-family="Helvetica,sans-Serif" font-size="10.00">initializer_list</text>
</a>
</g>
</g>
<!-- Node2&#45;&gt;Node12 -->
<g id="edge15_Node000002_Node000012" class="edge">
<title>Node2&#45;&gt;Node12</title>
<g id="a_edge15_Node000002_Node000012"><a xlink:title=" ">
<path fill="none" stroke="#63b8ff" d="M550.68,-198.29C486.23,-192.32 376.17,-179.01 285.12,-152.25 279.43,-150.58 273.52,-148.35 267.92,-145.99"/>
<polygon fill="#63b8ff" stroke="#63b8ff" points="269.62,-142.92 259.06,-142.02 266.76,-149.3 269.62,-142.92"/>
</a>
</g>
</g>
<!-- Node13 -->
<g id="Node000013" class="node">
<title>Node13</title>
<g id="a_Node000013"><a xlink:title=" ">
<polygon fill="#e0e0e0" stroke="#999999" points="332.38,-141 293.88,-141 293.88,-121.75 332.38,-121.75 332.38,-141"/>
<text text-anchor="middle" x="313.12" y="-127.5" font-family="Helvetica,sans-Serif" font-size="10.00">utility</text>
</a>
</g>
</g>
<!-- Node2&#45;&gt;Node13 -->
<g id="edge17_Node000002_Node000013" class="edge">
<title>Node2&#45;&gt;Node13</title>
<g id="a_edge17_Node000002_Node000013"><a xlink:title=" ">
<path fill="none" stroke="#63b8ff" d="M550.62,-198.64C496.08,-193.3 410.67,-180.81 342.12,-152.25 339.21,-151.04 336.3,-149.5 333.5,-147.83"/>
<polygon fill="#63b8ff" stroke="#63b8ff" points="335.57,-145.01 325.32,-142.31 331.65,-150.81 335.57,-145.01"/>
</a>
</g>
</g>
<!-- Node14 -->
<g id="Node000014" class="node">
<title>Node14</title>
<g id="a_Node000014"><a xlink:title=" ">
<polygon fill="#e0e0e0" stroke="#999999" points="505.5,-146.62 350.75,-146.62 350.75,-116.12 505.5,-116.12 505.5,-146.62"/>
<text text-anchor="start" x="358.75" y="-133.12" font-family="Helvetica,sans-Serif" font-size="10.00">typed_linear_algebra</text>
<text text-anchor="middle" x="428.12" y="-121.88" font-family="Helvetica,sans-Serif" font-size="10.00">_internal/algorithm/substract.tpp</text>
</a>
</g>
</g>
<!-- Node2&#45;&gt;Node14 -->
<g id="edge18_Node000002_Node000014" class="edge">
<title>Node2&#45;&gt;Node14</title>
<g id="a_edge18_Node000002_Node000014"><a xlink:title=" ">
<path fill="none" stroke="#63b8ff" d="M568.02,-187.8C541.23,-177.19 504.83,-162.77 475.88,-151.29"/>
<polygon fill="#63b8ff" stroke="#63b8ff" points="477.17,-148.04 466.59,-147.61 474.6,-154.55 477.17,-148.04"/>
</a>
</g>
</g>
<!-- Node15 -->
<g id="Node000015" class="node">
<title>Node15</title>
<g id="a_Node000015"><a xlink:title=" ">
<polygon fill="#e0e0e0" stroke="#999999" points="686.25,-146.62 524,-146.62 524,-116.12 686.25,-116.12 686.25,-146.62"/>
<text text-anchor="start" x="532" y="-133.12" font-family="Helvetica,sans-Serif" font-size="10.00">typed_linear_algebra</text>
<text text-anchor="middle" x="605.12" y="-121.88" font-family="Helvetica,sans-Serif" font-size="10.00">_internal/algorithm/transposed.tpp</text>
</a>
</g>
</g>
<!-- Node2&#45;&gt;Node15 -->
<g id="edge19_Node000002_Node000015" class="edge">
<title>Node2&#45;&gt;Node15</title>
<g id="a_edge19_Node000002_Node000015"><a xlink:title=" ">
<path fill="none" stroke="#63b8ff" d="M605.12,-187.97C605.12,-179.41 605.12,-168.34 605.12,-158.33"/>
<polygon fill="#63b8ff" stroke="#63b8ff" points="608.63,-158.4 605.13,-148.4 601.63,-158.4 608.63,-158.4"/>
</a>
</g>
</g>
<!-- Node16 -->
<g id="Node000016" class="node">
<title>Node16</title>
<g id="a_Node000016"><a xlink:title=" ">
<polygon fill="#e0e0e0" stroke="#999999" points="808.38,-146.62 703.88,-146.62 703.88,-116.12 808.38,-116.12 808.38,-146.62"/>
<text text-anchor="start" x="711.88" y="-133.12" font-family="Helvetica,sans-Serif" font-size="10.00">typed_linear_algebra</text>
<text text-anchor="middle" x="756.12" y="-121.88" font-family="Helvetica,sans-Serif" font-size="10.00">_internal/cast.tpp</text>
</a>
</g>
</g>
<!-- Node2&#45;&gt;Node16 -->
<g id="edge20_Node000002_Node000016" class="edge">
<title>Node2&#45;&gt;Node16</title>
<g id="a_edge20_Node000002_Node000016"><a xlink:title=" ">
<path fill="none" stroke="#63b8ff" d="M636.78,-187.8C659.23,-177.37 689.59,-163.27 714.07,-151.9"/>
<polygon fill="#63b8ff" stroke="#63b8ff" points="715.54,-155.08 723.14,-147.69 712.6,-148.73 715.54,-155.08"/>
</a>
</g>
</g>
<!-- Node17 -->
<g id="Node000017" class="node">
<title>Node17</title>
<g id="a_Node000017"><a xlink:title=" ">
<polygon fill="#e0e0e0" stroke="#999999" points="937.75,-146.62 826.5,-146.62 826.5,-116.12 937.75,-116.12 937.75,-146.62"/>
<text text-anchor="start" x="834.5" y="-133.12" font-family="Helvetica,sans-Serif" font-size="10.00">typed_linear_algebra</text>
<text text-anchor="middle" x="882.12" y="-121.88" font-family="Helvetica,sans-Serif" font-size="10.00">_internal/operation.tpp</text>
</a>
</g>
</g>
<!-- Node2&#45;&gt;Node17 -->
<g id="edge21_Node000002_Node000017" class="edge">
<title>Node2&#45;&gt;Node17</title>
<g id="a_edge21_Node000002_Node000017"><a xlink:title=" ">
<path fill="none" stroke="#63b8ff" d="M659.39,-190.05C711.94,-177.93 787.83,-160.19 817.12,-152.25 819.53,-151.6 821.98,-150.92 824.46,-150.22"/>
<polygon fill="#63b8ff" stroke="#63b8ff" points="825.28,-153.63 833.91,-147.48 823.33,-146.9 825.28,-153.63"/>
</a>
</g>
</g>
<!-- Node18 -->
<g id="Node000018" class="node">
<title>Node18</title>
<g id="a_Node000018"><a xlink:title=" ">
<polygon fill="#e0e0e0" stroke="#999999" points="1062.88,-152.25 955.38,-152.25 955.38,-110.5 1062.88,-110.5 1062.88,-152.25"/>
<text text-anchor="start" x="963.38" y="-138.75" font-family="Helvetica,sans-Serif" font-size="10.00">typed_linear_algebra</text>
<text text-anchor="start" x="963.38" y="-127.5" font-family="Helvetica,sans-Serif" font-size="10.00">_internal/typed_linear</text>
<text text-anchor="middle" x="1009.12" y="-116.25" font-family="Helvetica,sans-Serif" font-size="10.00">_algebra.tpp</text>
</a>
</g>
</g>
<!-- Node2&#45;&gt;Node18 -->
<g id="edge22_Node000002_Node000018" class="edge">
<title>Node2&#45;&gt;Node18</title>
<g id="a_edge22_Node000002_Node000018"><a xlink:title=" ">
<path fill="none" stroke="#63b8ff" d="M659.7,-189.83C662.54,-189.27 665.36,-188.74 668.12,-188.25 787.63,-167.07 823.03,-178.71 943.99,-152.76"/>
<polygon fill="#63b8ff" stroke="#63b8ff" points="944.69,-156.19 953.7,-150.63 943.19,-149.35 944.69,-156.19"/>
</a>
</g>
</g>
<!-- Node4&#45;&gt;Node5 -->
<g id="edge4_Node000004_Node000005" class="edge">
<title>Node4&#45;&gt;Node5</title>
<g id="a_edge4_Node000004_Node000005"><a xlink:title=" ">
<path fill="none" stroke="#63b8ff" d="M148.8,-118.25C163.7,-115.24 179.99,-112.35 195.12,-110.5 558.94,-65.98 1003.47,-64.75 1137.22,-65.51"/>
<polygon fill="#63b8ff" stroke="#63b8ff" points="1136.94,-69.01 1146.96,-65.57 1136.98,-62.01 1136.94,-69.01"/>
</a>
</g>
</g>
<!-- Node4&#45;&gt;Node10 -->
<g id="edge9_Node000004_Node000010" class="edge">
<title>Node4&#45;&gt;Node10</title>
<g id="a_edge9_Node000004_Node000010"><a xlink:title=" ">
<path fill="none" stroke="#63b8ff" d="M79.79,-115.74C68.66,-105.77 53.91,-92.55 42.39,-82.24"/>
<polygon fill="#63b8ff" stroke="#63b8ff" points="44.88,-79.77 35.1,-75.71 40.21,-84.99 44.88,-79.77"/>
</a>
</g>
</g>
<!-- Node4&#45;&gt;Node11 -->
<g id="edge10_Node000004_Node000011" class="edge">
<title>Node4&#45;&gt;Node11</title>
<g id="a_edge10_Node000004_Node000011"><a xlink:title=" ">
<path fill="none" stroke="#63b8ff" d="M96.12,-115.74C96.12,-106.95 96.12,-95.65 96.12,-86.03"/>
<polygon fill="#63b8ff" stroke="#63b8ff" points="99.63,-86.21 96.13,-76.21 92.63,-86.21 99.63,-86.21"/>
</a>
</g>
</g>
<!-- Node5&#45;&gt;Node6 -->
<g id="edge5_Node000005_Node000006" class="edge">
<title>Node5&#45;&gt;Node6</title>
<g id="a_edge5_Node000005_Node000006"><a xlink:title=" ">
<path fill="none" stroke="#63b8ff" d="M1198.33,-54.84C1218.08,-46.43 1247.8,-33.77 1270.38,-24.15"/>
<polygon fill="#63b8ff" stroke="#63b8ff" points="1271.6,-27.43 1279.42,-20.3 1268.85,-20.99 1271.6,-27.43"/>
</a>
</g>
</g>
<!-- Node7 -->
<g id="Node000007" class="node">
<title>Node7</title>
<g id="a_Node000007"><a xlink:title=" ">
<polygon fill="#e0e0e0" stroke="#999999" points="1201.12,-19.25 1143.12,-19.25 1143.12,0 1201.12,0 1201.12,-19.25"/>
<text text-anchor="middle" x="1172.12" y="-5.75" font-family="Helvetica,sans-Serif" font-size="10.00">functional</text>
</a>
</g>
</g>
<!-- Node5&#45;&gt;Node7 -->
<g id="edge6_Node000005_Node000007" class="edge">
<title>Node5&#45;&gt;Node7</title>
<g id="a_edge6_Node000005_Node000007"><a xlink:title=" ">
<path fill="none" stroke="#63b8ff" d="M1176.3,-55.08C1175.68,-48.49 1174.81,-39.21 1174.02,-30.82"/>
<polygon fill="#63b8ff" stroke="#63b8ff" points="1177.53,-30.75 1173.11,-21.12 1170.56,-31.4 1177.53,-30.75"/>
</a>
</g>
</g>
<!-- Node5&#45;&gt;Node8 -->
<g id="edge7_Node000005_Node000008" class="edge">
<title>Node5&#45;&gt;Node8</title>
<g id="a_edge7_Node000005_Node000008"><a xlink:title=" ">
<path fill="none" stroke="#63b8ff" d="M1187.47,-54.84C1196.2,-47.22 1208.91,-36.12 1219.42,-26.95"/>
<polygon fill="#63b8ff" stroke="#63b8ff" points="1221.56,-29.73 1226.79,-20.52 1216.95,-24.46 1221.56,-29.73"/>
</a>
</g>
</g>
<!-- Node9 -->
<g id="Node000009" class="node">
<title>Node9</title>
<g id="a_Node000009"><a xlink:title=" ">
<polygon fill="#e0e0e0" stroke="#999999" points="1124.62,-19.25 1063.62,-19.25 1063.62,0 1124.62,0 1124.62,-19.25"/>
<text text-anchor="middle" x="1094.12" y="-5.75" font-family="Helvetica,sans-Serif" font-size="10.00">type_traits</text>
</a>
</g>
</g>
<!-- Node5&#45;&gt;Node9 -->
<g id="edge8_Node000005_Node000009" class="edge">
<title>Node5&#45;&gt;Node9</title>
<g id="a_edge8_Node000005_Node000009"><a xlink:title=" ">
<path fill="none" stroke="#63b8ff" d="M1163.05,-54.84C1150.64,-46.89 1132.33,-35.14 1117.7,-25.75"/>
<polygon fill="#63b8ff" stroke="#63b8ff" points="1119.85,-22.97 1109.55,-20.52 1116.07,-28.87 1119.85,-22.97"/>
</a>
</g>
</g>
</g>
</svg>
