<?xml version="1.0" encoding="UTF-8" standalone="no"?>
<!DOCTYPE svg PUBLIC "-//W3C//DTD SVG 1.1//EN"
 "http://www.w3.org/Graphics/SVG/1.1/DTD/svg11.dtd">
<!-- Generated by graphviz version 12.2.0 (20241103.1931)
 -->
<!-- Title: /github/workspace/benchmark/eigexed_product.cpp Pages: 1 -->
<svg width="514pt" height="94pt"
 viewBox="0.00 0.00 513.50 93.75" xmlns="http://www.w3.org/2000/svg" xmlns:xlink="http://www.w3.org/1999/xlink">
<g id="graph0" class="graph" transform="scale(1 1) rotate(0) translate(4 89.75)">
<title>/github/workspace/benchmark/eigexed_product.cpp</title>
<!-- Node1 -->
<g id="Node000001" class="node">
<title>Node1</title>
<g id="a_Node000001"><a xlink:title=" ">
<polygon fill="#999999" stroke="#666666" points="365.75,-85.75 219.25,-85.75 219.25,-55.25 365.75,-55.25 365.75,-85.75"/>
<text text-anchor="start" x="227.25" y="-72.25" font-family="Helvetica,sans-Serif" font-size="10.00">/github/workspace/benchmark</text>
<text text-anchor="middle" x="292.5" y="-61" font-family="Helvetica,sans-Serif" font-size="10.00">/eigexed_product.cpp</text>
</a>
</g>
</g>
<!-- Node2 -->
<g id="Node000002" class="node">
<title>Node2</title>
<g id="a_Node000002"><a xlink:title=" ">
<polygon fill="#e0e0e0" stroke="#999999" points="97,-19.25 0,-19.25 0,0 97,0 97,-19.25"/>
<text text-anchor="middle" x="48.5" y="-5.75" font-family="Helvetica,sans-Serif" font-size="10.00">fcarouge/linalg.hpp</text>
</a>
</g>
</g>
<!-- Node1&#45;&gt;Node2 -->
<g id="edge1_Node000001_Node000002" class="edge">
<title>Node1&#45;&gt;Node2</title>
<g id="a_edge1_Node000001_Node000002"><a xlink:title=" ">
<path fill="none" stroke="#63b8ff" d="M231.56,-54.8C190.06,-44.78 135.87,-31.71 97.24,-22.38"/>
<polygon fill="#63b8ff" stroke="#63b8ff" points="98.29,-19.04 87.75,-20.1 96.65,-25.84 98.29,-19.04"/>
</a>
</g>
</g>
<!-- Node3 -->
<g id="Node000003" class="node">
<title>Node3</title>
<g id="a_Node000003"><a xlink:title=" ">
<polygon fill="#e0e0e0" stroke="#999999" points="185.88,-19.25 115.12,-19.25 115.12,0 185.88,0 185.88,-19.25"/>
<text text-anchor="middle" x="150.5" y="-5.75" font-family="Helvetica,sans-Serif" font-size="10.00">nanobench.h</text>
</a>
</g>
</g>
<!-- Node1&#45;&gt;Node3 -->
<g id="edge2_Node000001_Node000003" class="edge">
<title>Node1&#45;&gt;Node3</title>
<g id="a_edge2_Node000001_Node000003"><a xlink:title=" ">
<path fill="none" stroke="#63b8ff" d="M257.03,-54.8C234.26,-45.35 204.93,-33.19 182.81,-24.02"/>
<polygon fill="#63b8ff" stroke="#63b8ff" points="184.25,-20.83 173.68,-20.23 181.57,-27.3 184.25,-20.83"/>
</a>
</g>
</g>
<!-- Node4 -->
<g id="Node000004" class="node">
<title>Node4</title>
<g id="a_Node000004"><a xlink:title=" ">
<polygon fill="#e0e0e0" stroke="#999999" points="252.62,-19.25 204.38,-19.25 204.38,0 252.62,0 252.62,-19.25"/>
<text text-anchor="middle" x="228.5" y="-5.75" font-family="Helvetica,sans-Serif" font-size="10.00">cstddef</text>
</a>
</g>
</g>
<!-- Node1&#45;&gt;Node4 -->
<g id="edge3_Node000001_Node000004" class="edge">
<title>Node1&#45;&gt;Node4</title>
<g id="a_edge3_Node000001_Node000004"><a xlink:title=" ">
<path fill="none" stroke="#63b8ff" d="M276.68,-54.95C267.59,-46.59 256.14,-36.05 246.68,-27.35"/>
<polygon fill="#63b8ff" stroke="#63b8ff" points="249.21,-24.92 239.48,-20.73 244.47,-30.07 249.21,-24.92"/>
</a>
</g>
</g>
<!-- Node5 -->
<g id="Node000005" class="node">
<title>Node5</title>
<g id="a_Node000005"><a xlink:title=" ">
<polygon fill="#e0e0e0" stroke="#999999" points="314.38,-19.25 270.62,-19.25 270.62,0 314.38,0 314.38,-19.25"/>
<text text-anchor="middle" x="292.5" y="-5.75" font-family="Helvetica,sans-Serif" font-size="10.00">format</text>
</a>
</g>
</g>
<!-- Node1&#45;&gt;Node5 -->
<g id="edge4_Node000001_Node000005" class="edge">
<title>Node1&#45;&gt;Node5</title>
<g id="a_edge4_Node000001_Node000005"><a xlink:title=" ">
<path fill="none" stroke="#63b8ff" d="M292.5,-54.95C292.5,-47.71 292.5,-38.84 292.5,-30.94"/>
<polygon fill="#63b8ff" stroke="#63b8ff" points="296,-31.21 292.5,-21.21 289,-31.21 296,-31.21"/>
</a>
</g>
</g>
<!-- Node6 -->
<g id="Node000006" class="node">
<title>Node6</title>
<g id="a_Node000006"><a xlink:title=" ">
<polygon fill="#e0e0e0" stroke="#999999" points="381,-19.25 332,-19.25 332,0 381,0 381,-19.25"/>
<text text-anchor="middle" x="356.5" y="-5.75" font-family="Helvetica,sans-Serif" font-size="10.00">fstream</text>
</a>
</g>
</g>
<!-- Node1&#45;&gt;Node6 -->
<g id="edge5_Node000001_Node000006" class="edge">
<title>Node1&#45;&gt;Node6</title>
<g id="a_edge5_Node000001_Node000006"><a xlink:title=" ">
<path fill="none" stroke="#63b8ff" d="M308.32,-54.95C317.41,-46.59 328.86,-36.05 338.32,-27.35"/>
<polygon fill="#63b8ff" stroke="#63b8ff" points="340.53,-30.07 345.52,-20.73 335.79,-24.92 340.53,-30.07"/>
</a>
</g>
</g>
<!-- Node7 -->
<g id="Node000007" class="node">
<title>Node7</title>
<g id="a_Node000007"><a xlink:title=" ">
<polygon fill="#e0e0e0" stroke="#999999" points="447.62,-19.25 399.38,-19.25 399.38,0 447.62,0 447.62,-19.25"/>
<text text-anchor="middle" x="423.5" y="-5.75" font-family="Helvetica,sans-Serif" font-size="10.00">random</text>
</a>
</g>
</g>
<!-- Node1&#45;&gt;Node7 -->
<g id="edge6_Node000001_Node000007" class="edge">
<title>Node1&#45;&gt;Node7</title>
<g id="a_edge6_Node000001_Node000007"><a xlink:title=" ">
<path fill="none" stroke="#63b8ff" d="M325.22,-54.8C346.03,-45.44 372.8,-33.41 393.14,-24.27"/>
<polygon fill="#63b8ff" stroke="#63b8ff" points="394.34,-27.57 402.03,-20.27 391.47,-21.18 394.34,-27.57"/>
</a>
</g>
</g>
<!-- Node8 -->
<g id="Node000008" class="node">
<title>Node8</title>
<g id="a_Node000008"><a xlink:title=" ">
<polygon fill="#e0e0e0" stroke="#999999" points="505.5,-19.25 465.5,-19.25 465.5,0 505.5,0 505.5,-19.25"/>
<text text-anchor="middle" x="485.5" y="-5.75" font-family="Helvetica,sans-Serif" font-size="10.00">string</text>
</a>
</g>
</g>
<!-- Node1&#45;&gt;Node8 -->
<g id="edge7_Node000001_Node000008" class="edge">
<title>Node1&#45;&gt;Node8</title>
<g id="a_edge7_Node000001_Node000008"><a xlink:title=" ">
<path fill="none" stroke="#63b8ff" d="M340.7,-54.8C376.35,-43.92 423.83,-29.44 454.53,-20.07"/>
<polygon fill="#63b8ff" stroke="#63b8ff" points="455.43,-23.46 463.97,-17.19 453.39,-16.76 455.43,-23.46"/>
</a>
</g>
</g>
</g>
</svg>
