<?xml version="1.0" encoding="UTF-8" standalone="no"?>
<!DOCTYPE svg PUBLIC "-//W3C//DTD SVG 1.1//EN"
 "http://www.w3.org/Graphics/SVG/1.1/DTD/svg11.dtd">
<!-- Generated by graphviz version 12.2.0 (20241103.1931)
 -->
<!-- Title: /github/workspace/support/eigen/fcarouge/eigen.hpp Pages: 1 -->
<svg width="1103pt" height="293pt"
 viewBox="0.00 0.00 1102.89 293.25" xmlns="http://www.w3.org/2000/svg" xmlns:xlink="http://www.w3.org/1999/xlink">
<g id="graph0" class="graph" transform="scale(1 1) rotate(0) translate(4 289.25)">
<title>/github/workspace/support/eigen/fcarouge/eigen.hpp</title>
<!-- Node1 -->
<g id="Node000001" class="node">
<title>Node1</title>
<g id="a_Node000001"><a xlink:title="Linear algebra facade for Eigen3 third party implementation.">
<polygon fill="#999999" stroke="#666666" points="530.25,-285.25 399.5,-285.25 399.5,-254.75 530.25,-254.75 530.25,-285.25"/>
<text text-anchor="start" x="407.5" y="-271.75" font-family="Helvetica,sans-Serif" font-size="10.00">/github/workspace/support</text>
<text text-anchor="middle" x="464.88" y="-260.5" font-family="Helvetica,sans-Serif" font-size="10.00">/eigen/fcarouge/eigen.hpp</text>
</a>
</g>
</g>
<!-- Node2 -->
<g id="Node000002" class="node">
<title>Node2</title>
<g id="a_Node000002"><a xlink:href="typed__linear__algebra_8hpp.xhtml" target="_top" xlink:title="Typed linear algebra implementation.">
<polygon fill="white" stroke="#666666" points="470,-218.75 361.75,-218.75 361.75,-188.25 470,-188.25 470,-218.75"/>
<text text-anchor="start" x="369.75" y="-205.25" font-family="Helvetica,sans-Serif" font-size="10.00">fcarouge/typed_linear</text>
<text text-anchor="middle" x="415.88" y="-194" font-family="Helvetica,sans-Serif" font-size="10.00">_algebra.hpp</text>
</a>
</g>
</g>
<!-- Node1&#45;&gt;Node2 -->
<g id="edge1_Node000001_Node000002" class="edge">
<title>Node1&#45;&gt;Node2</title>
<g id="a_edge1_Node000001_Node000002"><a xlink:title=" ">
<path fill="none" stroke="#63b8ff" d="M453.76,-254.36C447.87,-246.61 440.49,-236.9 433.81,-228.11"/>
<polygon fill="#63b8ff" stroke="#63b8ff" points="436.7,-226.13 427.87,-220.28 431.13,-230.36 436.7,-226.13"/>
</a>
</g>
</g>
<!-- Node11 -->
<g id="Node000011" class="node">
<title>Node11</title>
<g id="a_Node000011"><a xlink:title=" ">
<polygon fill="#e0e0e0" stroke="#999999" points="43.75,-74.5 0,-74.5 0,-55.25 43.75,-55.25 43.75,-74.5"/>
<text text-anchor="middle" x="21.88" y="-61" font-family="Helvetica,sans-Serif" font-size="10.00">format</text>
</a>
</g>
</g>
<!-- Node1&#45;&gt;Node11 -->
<g id="edge22_Node000001_Node000011" class="edge">
<title>Node1&#45;&gt;Node11</title>
<g id="a_edge22_Node000001_Node000011"><a xlink:title=" ">
<path fill="none" stroke="#63b8ff" d="M399.13,-260.34C290.22,-244.57 79.59,-207.61 31.88,-152.25 16.35,-134.23 16.14,-105.67 18.29,-86.37"/>
<polygon fill="#63b8ff" stroke="#63b8ff" points="21.75,-86.88 19.72,-76.48 14.82,-85.88 21.75,-86.88"/>
</a>
</g>
</g>
<!-- Node18 -->
<g id="Node000018" class="node">
<title>Node18</title>
<g id="a_Node000018"><a xlink:title=" ">
<polygon fill="#e0e0e0" stroke="#999999" points="539.5,-213.12 488.25,-213.12 488.25,-193.88 539.5,-193.88 539.5,-213.12"/>
<text text-anchor="middle" x="513.88" y="-199.62" font-family="Helvetica,sans-Serif" font-size="10.00">sstream</text>
</a>
</g>
</g>
<!-- Node1&#45;&gt;Node18 -->
<g id="edge23_Node000001_Node000018" class="edge">
<title>Node1&#45;&gt;Node18</title>
<g id="a_edge23_Node000001_Node000018"><a xlink:title=" ">
<path fill="none" stroke="#63b8ff" d="M475.99,-254.36C483.19,-244.89 492.62,-232.48 500.27,-222.41"/>
<polygon fill="#63b8ff" stroke="#63b8ff" points="502.99,-224.61 506.26,-214.53 497.42,-220.37 502.99,-224.61"/>
</a>
</g>
</g>
<!-- Node19 -->
<g id="Node000019" class="node">
<title>Node19</title>
<g id="a_Node000019"><a xlink:title=" ">
<polygon fill="#e0e0e0" stroke="#999999" points="624.38,-213.12 557.38,-213.12 557.38,-193.88 624.38,-193.88 624.38,-213.12"/>
<text text-anchor="middle" x="590.88" y="-199.62" font-family="Helvetica,sans-Serif" font-size="10.00">Eigen/Eigen</text>
</a>
</g>
</g>
<!-- Node1&#45;&gt;Node19 -->
<g id="edge24_Node000001_Node000019" class="edge">
<title>Node1&#45;&gt;Node19</title>
<g id="a_edge24_Node000001_Node000019"><a xlink:title=" ">
<path fill="none" stroke="#63b8ff" d="M493.47,-254.36C514.36,-243.67 542.55,-229.24 563.23,-218.65"/>
<polygon fill="#63b8ff" stroke="#63b8ff" points="564.62,-221.87 571.93,-214.2 561.43,-215.64 564.62,-221.87"/>
</a>
</g>
</g>
<!-- Node3 -->
<g id="Node000003" class="node">
<title>Node3</title>
<g id="a_Node000003"><a xlink:href="typed__linear__algebra__forward_8hpp.xhtml" target="_top" xlink:title="Authoritative forward declaration header.">
<polygon fill="white" stroke="#666666" points="1055.12,-146.62 950.62,-146.62 950.62,-116.12 1055.12,-116.12 1055.12,-146.62"/>
<text text-anchor="start" x="958.62" y="-133.12" font-family="Helvetica,sans-Serif" font-size="10.00">typed_linear_algebra</text>
<text text-anchor="middle" x="1002.88" y="-121.88" font-family="Helvetica,sans-Serif" font-size="10.00">_forward.hpp</text>
</a>
</g>
</g>
<!-- Node2&#45;&gt;Node3 -->
<g id="edge2_Node000002_Node000003" class="edge">
<title>Node2&#45;&gt;Node3</title>
<g id="a_edge2_Node000002_Node000003"><a xlink:title=" ">
<path fill="none" stroke="#63b8ff" d="M470.42,-189.65C473.27,-189.14 476.1,-188.67 478.88,-188.25 682.96,-157.4 739.44,-192.5 941.88,-152.25 945,-151.63 948.19,-150.9 951.38,-150.09"/>
<polygon fill="#63b8ff" stroke="#63b8ff" points="952.05,-153.54 960.76,-147.5 950.18,-146.79 952.05,-153.54"/>
</a>
</g>
</g>
<!-- Node4 -->
<g id="Node000004" class="node">
<title>Node4</title>
<g id="a_Node000004"><a xlink:href="format_8hpp.xhtml" target="_top" xlink:title="Formatting support for the typed matrix.">
<polygon fill="white" stroke="#666666" points="192.12,-146.62 87.62,-146.62 87.62,-116.12 192.12,-116.12 192.12,-146.62"/>
<text text-anchor="start" x="95.62" y="-133.12" font-family="Helvetica,sans-Serif" font-size="10.00">typed_linear_algebra</text>
<text text-anchor="middle" x="139.88" y="-121.88" font-family="Helvetica,sans-Serif" font-size="10.00">_internal/format.hpp</text>
</a>
</g>
</g>
<!-- Node2&#45;&gt;Node4 -->
<g id="edge3_Node000002_Node000004" class="edge">
<title>Node2&#45;&gt;Node4</title>
<g id="a_edge3_Node000002_Node000004"><a xlink:title=" ">
<path fill="none" stroke="#63b8ff" d="M361.27,-190.34C318.75,-180.66 258.35,-166.42 205.88,-152.25 203.34,-151.57 200.76,-150.85 198.15,-150.12"/>
<polygon fill="#63b8ff" stroke="#63b8ff" points="199.4,-146.84 188.82,-147.45 197.47,-153.57 199.4,-146.84"/>
</a>
</g>
</g>
<!-- Node5 -->
<g id="Node000005" class="node">
<title>Node5</title>
<g id="a_Node000005"><a xlink:href="utility_8hpp.xhtml" target="_top" xlink:title=" ">
<polygon fill="white" stroke="#666666" points="170.12,-74.5 113.62,-74.5 113.62,-55.25 170.12,-55.25 170.12,-74.5"/>
<text text-anchor="middle" x="141.88" y="-61" font-family="Helvetica,sans-Serif" font-size="10.00">utility.hpp</text>
</a>
</g>
</g>
<!-- Node2&#45;&gt;Node5 -->
<g id="edge11_Node000002_Node000005" class="edge">
<title>Node2&#45;&gt;Node5</title>
<g id="a_edge11_Node000002_Node000005"><a xlink:title=" ">
<path fill="none" stroke="#63b8ff" d="M361.43,-202.62C275.55,-201.52 114.7,-193.81 78.88,-152.25 66.76,-138.19 70.35,-126.98 78.88,-110.5 85.56,-97.57 97.91,-87.58 109.92,-80.36"/>
<polygon fill="#63b8ff" stroke="#63b8ff" points="111.38,-83.55 118.46,-75.68 108.01,-77.42 111.38,-83.55"/>
</a>
</g>
</g>
<!-- Node6 -->
<g id="Node000006" class="node">
<title>Node6</title>
<g id="a_Node000006"><a xlink:title=" ">
<polygon fill="#e0e0e0" stroke="#999999" points="484.75,-19.25 429,-19.25 429,0 484.75,0 484.75,-19.25"/>
<text text-anchor="middle" x="456.88" y="-5.75" font-family="Helvetica,sans-Serif" font-size="10.00">concepts</text>
</a>
</g>
</g>
<!-- Node2&#45;&gt;Node6 -->
<g id="edge12_Node000002_Node000006" class="edge">
<title>Node2&#45;&gt;Node6</title>
<g id="a_edge12_Node000002_Node000006"><a xlink:title=" ">
<path fill="none" stroke="#63b8ff" d="M470.41,-189.6C473.27,-189.1 476.1,-188.65 478.88,-188.25 543.34,-179.04 1019.26,-199.69 1063.88,-152.25 1076.59,-138.73 1075.88,-124.65 1063.88,-110.5 990.3,-23.83 619.25,-12.24 496.42,-10.79"/>
<polygon fill="#63b8ff" stroke="#63b8ff" points="496.55,-7.3 486.51,-10.7 496.48,-14.3 496.55,-7.3"/>
</a>
</g>
</g>
<!-- Node8 -->
<g id="Node000008" class="node">
<title>Node8</title>
<g id="a_Node000008"><a xlink:title=" ">
<polygon fill="#e0e0e0" stroke="#999999" points="940.38,-19.25 903.38,-19.25 903.38,0 940.38,0 940.38,-19.25"/>
<text text-anchor="middle" x="921.88" y="-5.75" font-family="Helvetica,sans-Serif" font-size="10.00">tuple</text>
</a>
</g>
</g>
<!-- Node2&#45;&gt;Node8 -->
<g id="edge16_Node000002_Node000008" class="edge">
<title>Node2&#45;&gt;Node8</title>
<g id="a_edge16_Node000002_Node000008"><a xlink:title=" ">
<path fill="none" stroke="#63b8ff" d="M470.41,-189.59C473.27,-189.1 476.1,-188.64 478.88,-188.25 545.44,-178.8 1036.77,-201.18 1082.88,-152.25 1133.24,-98.8 1010.36,-43.62 951.35,-21.12"/>
<polygon fill="#63b8ff" stroke="#63b8ff" points="952.81,-17.93 942.21,-17.72 950.36,-24.49 952.81,-17.93"/>
</a>
</g>
</g>
<!-- Node10 -->
<g id="Node000010" class="node">
<title>Node10</title>
<g id="a_Node000010"><a xlink:title=" ">
<polygon fill="#e0e0e0" stroke="#999999" points="239,-74.5 190.75,-74.5 190.75,-55.25 239,-55.25 239,-74.5"/>
<text text-anchor="middle" x="214.88" y="-61" font-family="Helvetica,sans-Serif" font-size="10.00">cstddef</text>
</a>
</g>
</g>
<!-- Node2&#45;&gt;Node10 -->
<g id="edge13_Node000002_Node000010" class="edge">
<title>Node2&#45;&gt;Node10</title>
<g id="a_edge13_Node000002_Node000010"><a xlink:title=" ">
<path fill="none" stroke="#63b8ff" d="M361.28,-200.66C322.18,-196.44 270.97,-184.53 238.88,-152.25 221.49,-134.77 216.43,-105.86 215.1,-86.35"/>
<polygon fill="#63b8ff" stroke="#63b8ff" points="218.6,-86.23 214.73,-76.37 211.6,-86.49 218.6,-86.23"/>
</a>
</g>
</g>
<!-- Node2&#45;&gt;Node11 -->
<g id="edge14_Node000002_Node000011" class="edge">
<title>Node2&#45;&gt;Node11</title>
<g id="a_edge14_Node000002_Node000011"><a xlink:title=" ">
<path fill="none" stroke="#63b8ff" d="M361.59,-200.64C275.63,-196.72 113.19,-185.09 66.88,-152.25 44.49,-136.38 32.4,-105.91 26.55,-85.73"/>
<polygon fill="#63b8ff" stroke="#63b8ff" points="29.97,-84.98 24.06,-76.19 23.2,-86.75 29.97,-84.98"/>
</a>
</g>
</g>
<!-- Node12 -->
<g id="Node000012" class="node">
<title>Node12</title>
<g id="a_Node000012"><a xlink:title=" ">
<polygon fill="#e0e0e0" stroke="#999999" points="319.62,-141 248.12,-141 248.12,-121.75 319.62,-121.75 319.62,-141"/>
<text text-anchor="middle" x="283.88" y="-127.5" font-family="Helvetica,sans-Serif" font-size="10.00">initializer_list</text>
</a>
</g>
</g>
<!-- Node2&#45;&gt;Node12 -->
<g id="edge15_Node000002_Node000012" class="edge">
<title>Node2&#45;&gt;Node12</title>
<g id="a_edge15_Node000002_Node000012"><a xlink:title=" ">
<path fill="none" stroke="#63b8ff" d="M388.2,-187.8C365.49,-175.73 333.51,-158.75 310.96,-146.77"/>
<polygon fill="#63b8ff" stroke="#63b8ff" points="312.84,-143.8 302.37,-142.2 309.56,-149.98 312.84,-143.8"/>
</a>
</g>
</g>
<!-- Node13 -->
<g id="Node000013" class="node">
<title>Node13</title>
<g id="a_Node000013"><a xlink:title=" ">
<polygon fill="#e0e0e0" stroke="#999999" points="376.12,-141 337.62,-141 337.62,-121.75 376.12,-121.75 376.12,-141"/>
<text text-anchor="middle" x="356.88" y="-127.5" font-family="Helvetica,sans-Serif" font-size="10.00">utility</text>
</a>
</g>
</g>
<!-- Node2&#45;&gt;Node13 -->
<g id="edge17_Node000002_Node000013" class="edge">
<title>Node2&#45;&gt;Node13</title>
<g id="a_edge17_Node000002_Node000013"><a xlink:title=" ">
<path fill="none" stroke="#63b8ff" d="M403.65,-187.97C394.28,-176.83 381.31,-161.41 371.4,-149.64"/>
<polygon fill="#63b8ff" stroke="#63b8ff" points="374.33,-147.69 365.22,-142.29 368.98,-152.2 374.33,-147.69"/>
</a>
</g>
</g>
<!-- Node14 -->
<g id="Node000014" class="node">
<title>Node14</title>
<g id="a_Node000014"><a xlink:title=" ">
<polygon fill="#e0e0e0" stroke="#999999" points="556,-146.62 393.75,-146.62 393.75,-116.12 556,-116.12 556,-146.62"/>
<text text-anchor="start" x="401.75" y="-133.12" font-family="Helvetica,sans-Serif" font-size="10.00">typed_linear_algebra</text>
<text text-anchor="middle" x="474.88" y="-121.88" font-family="Helvetica,sans-Serif" font-size="10.00">_internal/algorithm/transposed.tpp</text>
</a>
</g>
</g>
<!-- Node2&#45;&gt;Node14 -->
<g id="edge18_Node000002_Node000014" class="edge">
<title>Node2&#45;&gt;Node14</title>
<g id="a_edge18_Node000002_Node000014"><a xlink:title=" ">
<path fill="none" stroke="#63b8ff" d="M428.1,-187.97C436.01,-178.57 446.48,-166.12 455.51,-155.39"/>
<polygon fill="#63b8ff" stroke="#63b8ff" points="457.93,-157.95 461.69,-148.04 452.58,-153.44 457.93,-157.95"/>
</a>
</g>
</g>
<!-- Node15 -->
<g id="Node000015" class="node">
<title>Node15</title>
<g id="a_Node000015"><a xlink:title=" ">
<polygon fill="#e0e0e0" stroke="#999999" points="678.12,-146.62 573.62,-146.62 573.62,-116.12 678.12,-116.12 678.12,-146.62"/>
<text text-anchor="start" x="581.62" y="-133.12" font-family="Helvetica,sans-Serif" font-size="10.00">typed_linear_algebra</text>
<text text-anchor="middle" x="625.88" y="-121.88" font-family="Helvetica,sans-Serif" font-size="10.00">_internal/cast.tpp</text>
</a>
</g>
</g>
<!-- Node2&#45;&gt;Node15 -->
<g id="edge19_Node000002_Node000015" class="edge">
<title>Node2&#45;&gt;Node15</title>
<g id="a_edge19_Node000002_Node000015"><a xlink:title=" ">
<path fill="none" stroke="#63b8ff" d="M459.9,-187.8C492.24,-177 536.39,-162.26 571.03,-150.69"/>
<polygon fill="#63b8ff" stroke="#63b8ff" points="572.1,-154.02 580.47,-147.54 569.88,-147.38 572.1,-154.02"/>
</a>
</g>
</g>
<!-- Node16 -->
<g id="Node000016" class="node">
<title>Node16</title>
<g id="a_Node000016"><a xlink:title=" ">
<polygon fill="#e0e0e0" stroke="#999999" points="807.5,-146.62 696.25,-146.62 696.25,-116.12 807.5,-116.12 807.5,-146.62"/>
<text text-anchor="start" x="704.25" y="-133.12" font-family="Helvetica,sans-Serif" font-size="10.00">typed_linear_algebra</text>
<text text-anchor="middle" x="751.88" y="-121.88" font-family="Helvetica,sans-Serif" font-size="10.00">_internal/operation.tpp</text>
</a>
</g>
</g>
<!-- Node2&#45;&gt;Node16 -->
<g id="edge20_Node000002_Node000016" class="edge">
<title>Node2&#45;&gt;Node16</title>
<g id="a_edge20_Node000002_Node000016"><a xlink:title=" ">
<path fill="none" stroke="#63b8ff" d="M470.47,-189.97C473.31,-189.38 476.13,-188.8 478.88,-188.25 570.88,-169.89 595.61,-174.01 686.88,-152.25 689.64,-151.59 692.45,-150.88 695.29,-150.13"/>
<polygon fill="#63b8ff" stroke="#63b8ff" points="696.09,-153.54 704.8,-147.51 694.23,-146.8 696.09,-153.54"/>
</a>
</g>
</g>
<!-- Node17 -->
<g id="Node000017" class="node">
<title>Node17</title>
<g id="a_Node000017"><a xlink:title=" ">
<polygon fill="#e0e0e0" stroke="#999999" points="932.62,-152.25 825.12,-152.25 825.12,-110.5 932.62,-110.5 932.62,-152.25"/>
<text text-anchor="start" x="833.12" y="-138.75" font-family="Helvetica,sans-Serif" font-size="10.00">typed_linear_algebra</text>
<text text-anchor="start" x="833.12" y="-127.5" font-family="Helvetica,sans-Serif" font-size="10.00">_internal/typed_linear</text>
<text text-anchor="middle" x="878.88" y="-116.25" font-family="Helvetica,sans-Serif" font-size="10.00">_algebra.tpp</text>
</a>
</g>
</g>
<!-- Node2&#45;&gt;Node17 -->
<g id="edge21_Node000002_Node000017" class="edge">
<title>Node2&#45;&gt;Node17</title>
<g id="a_edge21_Node000002_Node000017"><a xlink:title=" ">
<path fill="none" stroke="#63b8ff" d="M470.43,-189.75C473.28,-189.21 476.11,-188.71 478.88,-188.25 624.27,-164.15 666.99,-182.52 813.73,-152.71"/>
<polygon fill="#63b8ff" stroke="#63b8ff" points="814.39,-156.15 823.47,-150.69 812.96,-149.29 814.39,-156.15"/>
</a>
</g>
</g>
<!-- Node4&#45;&gt;Node5 -->
<g id="edge4_Node000004_Node000005" class="edge">
<title>Node4&#45;&gt;Node5</title>
<g id="a_edge4_Node000004_Node000005"><a xlink:title=" ">
<path fill="none" stroke="#63b8ff" d="M140.33,-115.74C140.6,-106.95 140.95,-95.65 141.25,-86.03"/>
<polygon fill="#63b8ff" stroke="#63b8ff" points="144.74,-86.31 141.55,-76.21 137.75,-86.1 144.74,-86.31"/>
</a>
</g>
</g>
<!-- Node4&#45;&gt;Node10 -->
<g id="edge9_Node000004_Node000010" class="edge">
<title>Node4&#45;&gt;Node10</title>
<g id="a_edge9_Node000004_Node000010"><a xlink:title=" ">
<path fill="none" stroke="#63b8ff" d="M156.89,-115.74C168.6,-105.67 184.16,-92.29 196.21,-81.93"/>
<polygon fill="#63b8ff" stroke="#63b8ff" points="198.17,-84.86 203.47,-75.68 193.6,-79.55 198.17,-84.86"/>
</a>
</g>
</g>
<!-- Node4&#45;&gt;Node11 -->
<g id="edge10_Node000004_Node000011" class="edge">
<title>Node4&#45;&gt;Node11</title>
<g id="a_edge10_Node000004_Node000011"><a xlink:title=" ">
<path fill="none" stroke="#63b8ff" d="M113.1,-115.74C93.71,-105.14 67.61,-90.88 48.3,-80.32"/>
<polygon fill="#63b8ff" stroke="#63b8ff" points="50.14,-77.34 39.69,-75.61 46.78,-83.48 50.14,-77.34"/>
</a>
</g>
</g>
<!-- Node5&#45;&gt;Node6 -->
<g id="edge5_Node000005_Node000006" class="edge">
<title>Node5&#45;&gt;Node6</title>
<g id="a_edge5_Node000005_Node000006"><a xlink:title=" ">
<path fill="none" stroke="#63b8ff" d="M170.25,-57.57C174.15,-56.76 178.11,-55.96 181.88,-55.25 265.39,-39.48 363.81,-24.34 417.34,-16.39"/>
<polygon fill="#63b8ff" stroke="#63b8ff" points="417.81,-19.86 427.19,-14.93 416.78,-12.93 417.81,-19.86"/>
</a>
</g>
</g>
<!-- Node7 -->
<g id="Node000007" class="node">
<title>Node7</title>
<g id="a_Node000007"><a xlink:title=" ">
<polygon fill="#e0e0e0" stroke="#999999" points="131.88,-19.25 73.88,-19.25 73.88,0 131.88,0 131.88,-19.25"/>
<text text-anchor="middle" x="102.88" y="-5.75" font-family="Helvetica,sans-Serif" font-size="10.00">functional</text>
</a>
</g>
</g>
<!-- Node5&#45;&gt;Node7 -->
<g id="edge6_Node000005_Node000007" class="edge">
<title>Node5&#45;&gt;Node7</title>
<g id="a_edge6_Node000005_Node000007"><a xlink:title=" ">
<path fill="none" stroke="#63b8ff" d="M135.43,-55.08C130.22,-47.96 122.69,-37.68 116.18,-28.8"/>
<polygon fill="#63b8ff" stroke="#63b8ff" points="119.08,-26.83 110.35,-20.83 113.43,-30.97 119.08,-26.83"/>
</a>
</g>
</g>
<!-- Node5&#45;&gt;Node8 -->
<g id="edge7_Node000005_Node000008" class="edge">
<title>Node5&#45;&gt;Node8</title>
<g id="a_edge7_Node000005_Node000008"><a xlink:title=" ">
<path fill="none" stroke="#63b8ff" d="M170.62,-57.13C174.39,-56.41 178.22,-55.75 181.88,-55.25 455.45,-17.73 790.24,-11.76 891.48,-10.8"/>
<polygon fill="#63b8ff" stroke="#63b8ff" points="891.42,-14.31 901.39,-10.72 891.36,-7.31 891.42,-14.31"/>
</a>
</g>
</g>
<!-- Node9 -->
<g id="Node000009" class="node">
<title>Node9</title>
<g id="a_Node000009"><a xlink:title=" ">
<polygon fill="#e0e0e0" stroke="#999999" points="211.38,-19.25 150.38,-19.25 150.38,0 211.38,0 211.38,-19.25"/>
<text text-anchor="middle" x="180.88" y="-5.75" font-family="Helvetica,sans-Serif" font-size="10.00">type_traits</text>
</a>
</g>
</g>
<!-- Node5&#45;&gt;Node9 -->
<g id="edge8_Node000005_Node000009" class="edge">
<title>Node5&#45;&gt;Node9</title>
<g id="a_edge8_Node000005_Node000009"><a xlink:title=" ">
<path fill="none" stroke="#63b8ff" d="M148.32,-55.08C153.53,-47.96 161.06,-37.68 167.57,-28.8"/>
<polygon fill="#63b8ff" stroke="#63b8ff" points="170.32,-30.97 173.4,-20.83 164.67,-26.83 170.32,-30.97"/>
</a>
</g>
</g>
</g>
</svg>
