<?xml version="1.0" encoding="UTF-8" standalone="no"?>
<!DOCTYPE svg PUBLIC "-//W3C//DTD SVG 1.1//EN"
 "http://www.w3.org/Graphics/SVG/1.1/DTD/svg11.dtd">
<!-- Generated by graphviz version 12.2.0 (20241103.1931)
 -->
<!-- Title: /github/workspace/support/eigexed/fcarouge/linalg.hpp Pages: 1 -->
<!--zoomable 305 -->

<svg id="main" version="1.1" xmlns="http://www.w3.org/2000/svg" xmlns:xlink="http://www.w3.org/1999/xlink" xml:space="preserve" onload="init(evt)">

<style type="text/css"><![CDATA[
.node, .edge {opacity: 0.7;}
.node.selected, .edge.selected {opacity: 1;}
.edge:hover path { stroke: red; }
.edge:hover polygon { stroke: red; fill: red; }
]]></style>

<defs>
  <circle id="rim" cx="0" cy="0" r="7"/>
  <circle id="rim2" cx="0" cy="0" r="3.5"/>
  <g id="zoomPlus">
    <use xlink:href="#rim" fill="#404040"><set attributeName="fill" to="#808080" begin="zoomplus.mouseover" end="zoomplus.mouseout"/></use>
    <path d="M-4,0h8M0,-4v8" fill="none" stroke="white" stroke-width="1.5" pointer-events="none"/>
  </g>
  <g id="zoomMin">
    <use xlink:href="#rim" fill="#404040"><set attributeName="fill" to="#808080" begin="zoomminus.mouseover" end="zoomminus.mouseout"/></use>
    <path d="M-4,0h8" fill="none" stroke="white" stroke-width="1.5" pointer-events="none"/>
  </g>
  <g id="arrowUp" transform="translate(30 24)">
    <use xlink:href="#rim"/>
    <path pointer-events="none" fill="none" stroke="white" stroke-width="1.5" d="M0,-3.0v7 M-2.5,-0.5L0,-3.0L2.5,-0.5"/>
  </g>
  <g id="arrowRight" transform="rotate(90) translate(36 -43)">
    <use xlink:href="#rim"/>
    <path pointer-events="none" fill="none" stroke="white" stroke-width="1.5" d="M0,-3.0v7 M-2.5,-0.5L0,-3.0L2.5,-0.5"/>
  </g>
  <g id="arrowDown" transform="rotate(180) translate(-30 -48)">
    <use xlink:href="#rim"/>
    <path pointer-events="none" fill="none" stroke="white" stroke-width="1.5" d="M0,-3.0v7 M-2.5,-0.5L0,-3.0L2.5,-0.5"/>
  </g>
  <g id="arrowLeft" transform="rotate(270) translate(-36 17)">
    <use xlink:href="#rim"/>
    <path pointer-events="none" fill="none" stroke="white" stroke-width="1.5" d="M0,-3.0v7 M-2.5,-0.5L0,-3.0L2.5,-0.5"/>
  </g>
  <g id="resetDef">
    <use xlink:href="#rim2" fill="#404040"><set attributeName="fill" to="#808080" begin="reset.mouseover" end="reset.mouseout"/></use>
  </g>
</defs>
<script type="application/ecmascript">
var viewWidth = 2929;
var viewHeight = 305;
var sectionId = 'dynsection-0';
</script>
<script type="application/ecmascript" xlink:href="svg.min.js"/>
<svg id="graph" class="graph">
<g id="viewport">
<title>/github/workspace/support/eigexed/fcarouge/linalg.hpp</title>
<!-- Node1 -->
<g id="Node000001" class="node">
<title>Node1</title>
<g id="a_Node000001"><a xlink:title="Scalar type linear algebra with Eigen implementation.">
<polygon fill="#999999" stroke="#666666" points="243.12,-296.5 107.12,-296.5 107.12,-266 243.12,-266 243.12,-296.5"/>
<text text-anchor="start" x="115.12" y="-283" font-family="Helvetica,sans-Serif" font-size="10.00">/github/workspace/support</text>
<text text-anchor="middle" x="175.12" y="-271.75" font-family="Helvetica,sans-Serif" font-size="10.00">/eigexed/fcarouge/linalg.hpp</text>
</a>
</g>
</g>
<!-- Node2 -->
<g id="Node000002" class="node">
<title>Node2</title>
<g id="a_Node000002"><a xlink:href="eigen_8hpp.xhtml" target="_top" xlink:title="Linear algebra facade for Eigen3 third party implementation.">
<polygon fill="white" stroke="#666666" points="224,-230 126.25,-230 126.25,-210.75 224,-210.75 224,-230"/>
<text text-anchor="middle" x="175.12" y="-216.5" font-family="Helvetica,sans-Serif" font-size="10.00">fcarouge/eigen.hpp</text>
</a>
</g>
</g>
<!-- Node1&#45;&gt;Node2 -->
<g id="edge1_Node000001_Node000002" class="edge">
<title>Node1&#45;&gt;Node2</title>
<g id="a_edge1_Node000001_Node000002"><a xlink:title=" ">
<path fill="none" stroke="#63b8ff" d="M175.12,-265.7C175.12,-258.46 175.12,-249.59 175.12,-241.69"/>
<polygon fill="#63b8ff" stroke="#63b8ff" points="178.63,-241.96 175.13,-231.96 171.63,-241.96 178.63,-241.96"/>
</a>
</g>
</g>
<!-- Node3 -->
<g id="Node000003" class="node">
<title>Node3</title>
<g id="a_Node000003"><a xlink:href="typed__linear__algebra_8hpp.xhtml" target="_top" xlink:title="Typed linear algebra implementation.">
<polygon fill="white" stroke="#666666" points="1445.25,-174.75 1337,-174.75 1337,-144.25 1445.25,-144.25 1445.25,-174.75"/>
<text text-anchor="start" x="1345" y="-161.25" font-family="Helvetica,sans-Serif" font-size="10.00">fcarouge/typed_linear</text>
<text text-anchor="middle" x="1391.12" y="-150" font-family="Helvetica,sans-Serif" font-size="10.00">_algebra.hpp</text>
</a>
</g>
</g>
<!-- Node1&#45;&gt;Node3 -->
<g id="edge43_Node000001_Node000003" class="edge">
<title>Node1&#45;&gt;Node3</title>
<g id="a_edge43_Node000001_Node000003"><a xlink:title=" ">
<path fill="none" stroke="#63b8ff" d="M243.55,-273.51C457.91,-252.4 1114.73,-187.72 1325.38,-166.97"/>
<polygon fill="#63b8ff" stroke="#63b8ff" points="1325.43,-170.49 1335.04,-166.02 1324.74,-163.52 1325.43,-170.49"/>
</a>
</g>
</g>
<!-- Node7 -->
<g id="Node000007" class="node">
<title>Node7</title>
<g id="a_Node000007"><a xlink:title=" ">
<polygon fill="#e0e0e0" stroke="#999999" points="48.25,-24.88 0,-24.88 0,-5.63 48.25,-5.63 48.25,-24.88"/>
<text text-anchor="middle" x="24.12" y="-11.38" font-family="Helvetica,sans-Serif" font-size="10.00">cstddef</text>
</a>
</g>
</g>
<!-- Node1&#45;&gt;Node7 -->
<g id="edge44_Node000001_Node000007" class="edge">
<title>Node1&#45;&gt;Node7</title>
<g id="a_edge44_Node000001_Node000007"><a xlink:title=" ">
<path fill="none" stroke="#63b8ff" d="M151.99,-265.78C124.55,-247.56 79.02,-213.88 51.12,-174.75 32.71,-148.91 31.17,-139.4 25.12,-108.25 20.4,-83.92 21.04,-55.28 22.27,-36.49"/>
<polygon fill="#63b8ff" stroke="#63b8ff" points="25.74,-36.99 23.04,-26.75 18.76,-36.44 25.74,-36.99"/>
</a>
</g>
</g>
<!-- Node2&#45;&gt;Node3 -->
<g id="edge2_Node000002_Node000003" class="edge">
<title>Node2&#45;&gt;Node3</title>
<g id="a_edge2_Node000002_Node000003"><a xlink:title=" ">
<path fill="none" stroke="#63b8ff" d="M224.3,-216.99C415.27,-207.75 1107.89,-174.21 1325.34,-163.69"/>
<polygon fill="#63b8ff" stroke="#63b8ff" points="1325.22,-167.2 1335.04,-163.22 1324.88,-160.2 1325.22,-167.2"/>
</a>
</g>
</g>
<!-- Node6 -->
<g id="Node000006" class="node">
<title>Node6</title>
<g id="a_Node000006"><a xlink:title=" ">
<polygon fill="#e0e0e0" stroke="#999999" points="249,-24.88 193.25,-24.88 193.25,-5.63 249,-5.63 249,-24.88"/>
<text text-anchor="middle" x="221.12" y="-11.38" font-family="Helvetica,sans-Serif" font-size="10.00">concepts</text>
</a>
</g>
</g>
<!-- Node2&#45;&gt;Node6 -->
<g id="edge36_Node000002_Node000006" class="edge">
<title>Node2&#45;&gt;Node6</title>
<g id="a_edge36_Node000002_Node000006"><a xlink:title=" ">
<path fill="none" stroke="#63b8ff" d="M207.79,-210.33C225.42,-203.6 245.67,-192.44 256.12,-174.75 263.02,-163.08 264.55,-154.87 256.12,-144.25 212.44,-89.18 145.81,-163.32 102.12,-108.25 90.59,-93.71 91.87,-81.96 102.12,-66.5 111.45,-52.43 150.95,-37.54 181.91,-27.65"/>
<polygon fill="#63b8ff" stroke="#63b8ff" points="182.91,-31.01 191.42,-24.69 180.83,-24.32 182.91,-31.01"/>
</a>
</g>
</g>
<!-- Node2&#45;&gt;Node7 -->
<g id="edge37_Node000002_Node000007" class="edge">
<title>Node2&#45;&gt;Node7</title>
<g id="a_edge37_Node000002_Node000007"><a xlink:title=" ">
<path fill="none" stroke="#63b8ff" d="M136.33,-210.33C115.6,-203.67 91.12,-192.58 75.12,-174.75 39.17,-134.67 28.54,-69 25.41,-36.2"/>
<polygon fill="#63b8ff" stroke="#63b8ff" points="28.92,-36.21 24.64,-26.52 21.95,-36.77 28.92,-36.21"/>
</a>
</g>
</g>
<!-- Node9 -->
<g id="Node000009" class="node">
<title>Node9</title>
<g id="a_Node000009"><a xlink:title=" ">
<polygon fill="#e0e0e0" stroke="#999999" points="2920.62,-24.88 2883.62,-24.88 2883.62,-5.63 2920.62,-5.63 2920.62,-24.88"/>
<text text-anchor="middle" x="2902.12" y="-11.38" font-family="Helvetica,sans-Serif" font-size="10.00">tuple</text>
</a>
</g>
</g>
<!-- Node2&#45;&gt;Node9 -->
<g id="edge40_Node000002_Node000009" class="edge">
<title>Node2&#45;&gt;Node9</title>
<g id="a_edge40_Node000002_Node000009"><a xlink:title=" ">
<path fill="none" stroke="#63b8ff" d="M224.22,-217.87C394.41,-212.62 974.89,-194.32 1454.12,-174.75 1769.99,-161.85 2626.57,-303.58 2875.12,-108.25 2896.69,-91.31 2901.68,-58.07 2902.5,-36.53"/>
<polygon fill="#63b8ff" stroke="#63b8ff" points="2906,-36.68 2902.57,-26.65 2899,-36.63 2906,-36.68"/>
</a>
</g>
</g>
<!-- Node10 -->
<g id="Node000010" class="node">
<title>Node10</title>
<g id="a_Node000010"><a xlink:title=" ">
<polygon fill="#e0e0e0" stroke="#999999" points="159.62,-24.88 98.62,-24.88 98.62,-5.63 159.62,-5.63 159.62,-24.88"/>
<text text-anchor="middle" x="129.12" y="-11.38" font-family="Helvetica,sans-Serif" font-size="10.00">type_traits</text>
</a>
</g>
</g>
<!-- Node2&#45;&gt;Node10 -->
<g id="edge41_Node000002_Node000010" class="edge">
<title>Node2&#45;&gt;Node10</title>
<g id="a_edge41_Node000002_Node000010"><a xlink:title=" ">
<path fill="none" stroke="#63b8ff" d="M142.37,-210.26C124.62,-203.5 104.12,-192.34 93.12,-174.75 67.61,-133.94 74.53,-112.03 90.12,-66.5 94.42,-53.96 103.26,-42.14 111.44,-33.11"/>
<polygon fill="#63b8ff" stroke="#63b8ff" points="113.7,-35.8 118.15,-26.18 108.68,-30.93 113.7,-35.8"/>
</a>
</g>
</g>
<!-- Node12 -->
<g id="Node000012" class="node">
<title>Node12</title>
<g id="a_Node000012"><a xlink:title=" ">
<polygon fill="#e0e0e0" stroke="#999999" points="155,-97 111.25,-97 111.25,-77.75 155,-77.75 155,-97"/>
<text text-anchor="middle" x="133.12" y="-83.5" font-family="Helvetica,sans-Serif" font-size="10.00">format</text>
</a>
</g>
</g>
<!-- Node2&#45;&gt;Node12 -->
<g id="edge38_Node000002_Node000012" class="edge">
<title>Node2&#45;&gt;Node12</title>
<g id="a_edge38_Node000002_Node000012"><a xlink:title=" ">
<path fill="none" stroke="#63b8ff" d="M147.45,-210.3C131.11,-203.35 111.79,-191.98 102.12,-174.75 89.63,-152.47 104.94,-124.22 118.13,-106.22"/>
<polygon fill="#63b8ff" stroke="#63b8ff" points="120.72,-108.6 124.12,-98.57 115.2,-104.29 120.72,-108.6"/>
</a>
</g>
</g>
<!-- Node32 -->
<g id="Node000032" class="node">
<title>Node32</title>
<g id="a_Node000032"><a xlink:title=" ">
<polygon fill="#e0e0e0" stroke="#999999" points="162.75,-169.12 111.5,-169.12 111.5,-149.88 162.75,-149.88 162.75,-169.12"/>
<text text-anchor="middle" x="137.12" y="-155.62" font-family="Helvetica,sans-Serif" font-size="10.00">sstream</text>
</a>
</g>
</g>
<!-- Node2&#45;&gt;Node32 -->
<g id="edge39_Node000002_Node000032" class="edge">
<title>Node2&#45;&gt;Node32</title>
<g id="a_edge39_Node000002_Node000032"><a xlink:title=" ">
<path fill="none" stroke="#63b8ff" d="M169.35,-210.43C164,-202.13 155.86,-189.52 149.1,-179.05"/>
<polygon fill="#63b8ff" stroke="#63b8ff" points="152.14,-177.3 143.77,-170.8 146.25,-181.1 152.14,-177.3"/>
</a>
</g>
</g>
<!-- Node33 -->
<g id="Node000033" class="node">
<title>Node33</title>
<g id="a_Node000033"><a xlink:title=" ">
<polygon fill="#e0e0e0" stroke="#999999" points="247.62,-169.12 180.62,-169.12 180.62,-149.88 247.62,-149.88 247.62,-169.12"/>
<text text-anchor="middle" x="214.12" y="-155.62" font-family="Helvetica,sans-Serif" font-size="10.00">Eigen/Eigen</text>
</a>
</g>
</g>
<!-- Node2&#45;&gt;Node33 -->
<g id="edge42_Node000002_Node000033" class="edge">
<title>Node2&#45;&gt;Node33</title>
<g id="a_edge42_Node000002_Node000033"><a xlink:title=" ">
<path fill="none" stroke="#63b8ff" d="M181.05,-210.43C186.55,-202.13 194.9,-189.52 201.84,-179.05"/>
<polygon fill="#63b8ff" stroke="#63b8ff" points="204.71,-181.06 207.31,-170.79 198.87,-177.19 204.71,-181.06"/>
</a>
</g>
</g>
<!-- Node4 -->
<g id="Node000004" class="node">
<title>Node4</title>
<g id="a_Node000004"><a xlink:href="utility_8hpp.xhtml" target="_top" xlink:title=" ">
<polygon fill="white" stroke="#666666" points="2789.38,-102.62 2684.88,-102.62 2684.88,-72.12 2789.38,-72.12 2789.38,-102.62"/>
<text text-anchor="start" x="2692.88" y="-89.12" font-family="Helvetica,sans-Serif" font-size="10.00">typed_linear_algebra</text>
<text text-anchor="middle" x="2737.12" y="-77.88" font-family="Helvetica,sans-Serif" font-size="10.00">/internal/utility.hpp</text>
</a>
</g>
</g>
<!-- Node3&#45;&gt;Node4 -->
<g id="edge3_Node000003_Node000004" class="edge">
<title>Node3&#45;&gt;Node4</title>
<g id="a_edge3_Node000003_Node000004"><a xlink:title=" ">
<path fill="none" stroke="#63b8ff" d="M1445.51,-158.37C1658.25,-157.53 2434.24,-151.52 2676.12,-108.25 2679.47,-107.65 2682.89,-106.91 2686.31,-106.08"/>
<polygon fill="#63b8ff" stroke="#63b8ff" points="2686.98,-109.52 2695.71,-103.52 2685.14,-102.77 2686.98,-109.52"/>
</a>
</g>
</g>
<!-- Node5 -->
<g id="Node000005" class="node">
<title>Node5</title>
<g id="a_Node000005"><a xlink:href="typed__linear__algebra__forward_8hpp.xhtml" target="_top" xlink:title="Authoritative forward declaration header.">
<polygon fill="white" stroke="#666666" points="2809.25,-30.5 2701,-30.5 2701,0 2809.25,0 2809.25,-30.5"/>
<text text-anchor="start" x="2709" y="-17" font-family="Helvetica,sans-Serif" font-size="10.00">fcarouge/typed_linear</text>
<text text-anchor="middle" x="2755.12" y="-5.75" font-family="Helvetica,sans-Serif" font-size="10.00">_algebra_forward.hpp</text>
</a>
</g>
</g>
<!-- Node3&#45;&gt;Node5 -->
<g id="edge11_Node000003_Node000005" class="edge">
<title>Node3&#45;&gt;Node5</title>
<g id="a_edge11_Node000003_Node000005"><a xlink:title=" ">
<path fill="none" stroke="#63b8ff" d="M1445.5,-158.64C1698.52,-159.05 2750.36,-157.75 2798.12,-108.25 2817.09,-88.6 2797.37,-59.05 2778.83,-38.78"/>
<polygon fill="#63b8ff" stroke="#63b8ff" points="2781.58,-36.58 2772.12,-31.8 2776.53,-41.44 2781.58,-36.58"/>
</a>
</g>
</g>
<!-- Node3&#45;&gt;Node6 -->
<g id="edge12_Node000003_Node000006" class="edge">
<title>Node3&#45;&gt;Node6</title>
<g id="a_edge12_Node000003_Node000006"><a xlink:title=" ">
<path fill="none" stroke="#63b8ff" d="M1336.72,-157.97C1114.1,-155.56 282.31,-144.17 240.12,-108.25 219.77,-90.92 217.69,-58.07 218.83,-36.67"/>
<polygon fill="#63b8ff" stroke="#63b8ff" points="222.31,-37.11 219.66,-26.85 215.33,-36.52 222.31,-37.11"/>
</a>
</g>
</g>
<!-- Node3&#45;&gt;Node7 -->
<g id="edge13_Node000003_Node000007" class="edge">
<title>Node3&#45;&gt;Node7</title>
<g id="a_edge13_Node000003_Node000007"><a xlink:title=" ">
<path fill="none" stroke="#63b8ff" d="M1336.79,-158.16C1119.77,-156.54 321.66,-147.93 216.12,-108.25 188.38,-97.82 189.98,-80.98 164.12,-66.5 130.61,-47.73 88.77,-33.81 59.6,-25.43"/>
<polygon fill="#63b8ff" stroke="#63b8ff" points="60.74,-22.12 50.16,-22.8 58.86,-28.86 60.74,-22.12"/>
</a>
</g>
</g>
<!-- Node3&#45;&gt;Node9 -->
<g id="edge16_Node000003_Node000009" class="edge">
<title>Node3&#45;&gt;Node9</title>
<g id="a_edge16_Node000003_Node000009"><a xlink:title=" ">
<path fill="none" stroke="#63b8ff" d="M1445.37,-158.02C1701.53,-155.56 2780.25,-143.17 2842.12,-108.25 2870.01,-92.51 2887.13,-57.84 2895.61,-35.85"/>
<polygon fill="#63b8ff" stroke="#63b8ff" points="2898.86,-37.15 2898.93,-26.55 2892.27,-34.79 2898.86,-37.15"/>
</a>
</g>
</g>
<!-- Node11 -->
<g id="Node000011" class="node">
<title>Node11</title>
<g id="a_Node000011"><a xlink:title=" ">
<polygon fill="#e0e0e0" stroke="#999999" points="2865.38,-24.88 2826.88,-24.88 2826.88,-5.63 2865.38,-5.63 2865.38,-24.88"/>
<text text-anchor="middle" x="2846.12" y="-11.38" font-family="Helvetica,sans-Serif" font-size="10.00">utility</text>
</a>
</g>
</g>
<!-- Node3&#45;&gt;Node11 -->
<g id="edge17_Node000003_Node000011" class="edge">
<title>Node3&#45;&gt;Node11</title>
<g id="a_edge17_Node000003_Node000011"><a xlink:title=" ">
<path fill="none" stroke="#63b8ff" d="M1445.46,-158.31C1699.52,-157.23 2760.44,-150.18 2816.12,-108.25 2838.23,-91.6 2844.31,-58.28 2845.83,-36.64"/>
<polygon fill="#63b8ff" stroke="#63b8ff" points="2849.33,-36.84 2846.23,-26.71 2842.34,-36.56 2849.33,-36.84"/>
</a>
</g>
</g>
<!-- Node3&#45;&gt;Node12 -->
<g id="edge14_Node000003_Node000012" class="edge">
<title>Node3&#45;&gt;Node12</title>
<g id="a_edge14_Node000003_Node000012"><a xlink:title=" ">
<path fill="none" stroke="#63b8ff" d="M1336.7,-157.73C1114.47,-154.41 282.36,-139.93 169.12,-108.25 164.69,-107.01 160.2,-105.13 155.97,-103.02"/>
<polygon fill="#63b8ff" stroke="#63b8ff" points="157.91,-100.09 147.48,-98.24 154.48,-106.19 157.91,-100.09"/>
</a>
</g>
</g>
<!-- Node13 -->
<g id="Node000013" class="node">
<title>Node13</title>
<g id="a_Node000013"><a xlink:title=" ">
<polygon fill="#e0e0e0" stroke="#999999" points="320.88,-97 249.38,-97 249.38,-77.75 320.88,-77.75 320.88,-97"/>
<text text-anchor="middle" x="285.12" y="-83.5" font-family="Helvetica,sans-Serif" font-size="10.00">initializer_list</text>
</a>
</g>
</g>
<!-- Node3&#45;&gt;Node13 -->
<g id="edge15_Node000003_Node000013" class="edge">
<title>Node3&#45;&gt;Node13</title>
<g id="a_edge15_Node000003_Node000013"><a xlink:title=" ">
<path fill="none" stroke="#63b8ff" d="M1336.69,-158.55C1148.2,-158.33 524.3,-154.05 330.12,-108.25 323.99,-106.8 317.66,-104.54 311.75,-102.05"/>
<polygon fill="#63b8ff" stroke="#63b8ff" points="313.63,-99.06 303.08,-98.09 310.72,-105.43 313.63,-99.06"/>
</a>
</g>
</g>
<!-- Node14 -->
<g id="Node000014" class="node">
<title>Node14</title>
<g id="a_Node000014"><a xlink:title=" ">
<polygon fill="#e0e0e0" stroke="#999999" points="443.38,-102.62 338.88,-102.62 338.88,-72.12 443.38,-72.12 443.38,-102.62"/>
<text text-anchor="start" x="346.88" y="-89.12" font-family="Helvetica,sans-Serif" font-size="10.00">typed_linear_algebra</text>
<text text-anchor="middle" x="391.12" y="-77.88" font-family="Helvetica,sans-Serif" font-size="10.00">/algorithm/add.tpp</text>
</a>
</g>
</g>
<!-- Node3&#45;&gt;Node14 -->
<g id="edge18_Node000003_Node000014" class="edge">
<title>Node3&#45;&gt;Node14</title>
<g id="a_edge18_Node000003_Node000014"><a xlink:title=" ">
<path fill="none" stroke="#63b8ff" d="M1336.61,-157.42C1163.01,-153.67 624.44,-139.76 453.12,-108.25 449.73,-107.63 446.27,-106.87 442.8,-106.02"/>
<polygon fill="#63b8ff" stroke="#63b8ff" points="443.79,-102.66 433.23,-103.43 441.97,-109.42 443.79,-102.66"/>
</a>
</g>
</g>
<!-- Node15 -->
<g id="Node000015" class="node">
<title>Node15</title>
<g id="a_Node000015"><a xlink:title=" ">
<polygon fill="#e0e0e0" stroke="#999999" points="566.38,-102.62 461.88,-102.62 461.88,-72.12 566.38,-72.12 566.38,-102.62"/>
<text text-anchor="start" x="469.88" y="-89.12" font-family="Helvetica,sans-Serif" font-size="10.00">typed_linear_algebra</text>
<text text-anchor="middle" x="514.12" y="-77.88" font-family="Helvetica,sans-Serif" font-size="10.00">/algorithm/divide.tpp</text>
</a>
</g>
</g>
<!-- Node3&#45;&gt;Node15 -->
<g id="edge19_Node000003_Node000015" class="edge">
<title>Node3&#45;&gt;Node15</title>
<g id="a_edge19_Node000003_Node000015"><a xlink:title=" ">
<path fill="none" stroke="#63b8ff" d="M1336.66,-156.91C1178.74,-152.01 722.67,-135.81 576.12,-108.25 572.79,-107.62 569.38,-106.87 565.97,-106.03"/>
<polygon fill="#63b8ff" stroke="#63b8ff" points="567.14,-102.72 556.57,-103.48 565.31,-109.47 567.14,-102.72"/>
</a>
</g>
</g>
<!-- Node16 -->
<g id="Node000016" class="node">
<title>Node16</title>
<g id="a_Node000016"><a xlink:title=" ">
<polygon fill="#e0e0e0" stroke="#999999" points="689.38,-102.62 584.88,-102.62 584.88,-72.12 689.38,-72.12 689.38,-102.62"/>
<text text-anchor="start" x="592.88" y="-89.12" font-family="Helvetica,sans-Serif" font-size="10.00">typed_linear_algebra</text>
<text text-anchor="middle" x="637.12" y="-77.88" font-family="Helvetica,sans-Serif" font-size="10.00">/algorithm/dot.tpp</text>
</a>
</g>
</g>
<!-- Node3&#45;&gt;Node16 -->
<g id="edge20_Node000003_Node000016" class="edge">
<title>Node3&#45;&gt;Node16</title>
<g id="a_edge20_Node000003_Node000016"><a xlink:title=" ">
<path fill="none" stroke="#63b8ff" d="M1336.62,-159.01C1218.88,-159.14 932.5,-154.22 698.12,-108.25 694.95,-107.63 691.71,-106.89 688.46,-106.07"/>
<polygon fill="#63b8ff" stroke="#63b8ff" points="689.48,-102.72 678.91,-103.43 687.61,-109.47 689.48,-102.72"/>
</a>
</g>
</g>
<!-- Node17 -->
<g id="Node000017" class="node">
<title>Node17</title>
<g id="a_Node000017"><a xlink:title=" ">
<polygon fill="#e0e0e0" stroke="#999999" points="821.25,-102.62 707,-102.62 707,-72.12 821.25,-72.12 821.25,-102.62"/>
<text text-anchor="start" x="715" y="-89.12" font-family="Helvetica,sans-Serif" font-size="10.00">typed_linear_algebra</text>
<text text-anchor="middle" x="764.12" y="-77.88" font-family="Helvetica,sans-Serif" font-size="10.00">/algorithm/equal_to.tpp</text>
</a>
</g>
</g>
<!-- Node3&#45;&gt;Node17 -->
<g id="edge21_Node000003_Node000017" class="edge">
<title>Node3&#45;&gt;Node17</title>
<g id="a_edge21_Node000003_Node000017"><a xlink:title=" ">
<path fill="none" stroke="#63b8ff" d="M1336.85,-157.29C1236.11,-154.25 1013.74,-143.74 830.12,-108.25 826.6,-107.57 823,-106.77 819.38,-105.9"/>
<polygon fill="#63b8ff" stroke="#63b8ff" points="820.57,-102.6 810.02,-103.47 818.82,-109.37 820.57,-102.6"/>
</a>
</g>
</g>
<!-- Node18 -->
<g id="Node000018" class="node">
<title>Node18</title>
<g id="a_Node000018"><a xlink:title=" ">
<polygon fill="#e0e0e0" stroke="#999999" points="961.38,-102.62 838.88,-102.62 838.88,-72.12 961.38,-72.12 961.38,-102.62"/>
<text text-anchor="start" x="846.88" y="-89.12" font-family="Helvetica,sans-Serif" font-size="10.00">typed_linear_algebra</text>
<text text-anchor="middle" x="900.12" y="-77.88" font-family="Helvetica,sans-Serif" font-size="10.00">/algorithm/magnitude.tpp</text>
</a>
</g>
</g>
<!-- Node3&#45;&gt;Node18 -->
<g id="edge22_Node000003_Node000018" class="edge">
<title>Node3&#45;&gt;Node18</title>
<g id="a_edge22_Node000003_Node000018"><a xlink:title=" ">
<path fill="none" stroke="#63b8ff" d="M1336.53,-154.75C1255.83,-148.59 1100.22,-134.31 970.12,-108.25 966.53,-107.53 962.86,-106.72 959.16,-105.85"/>
<polygon fill="#63b8ff" stroke="#63b8ff" points="960.1,-102.47 949.55,-103.44 958.4,-109.26 960.1,-102.47"/>
</a>
</g>
</g>
<!-- Node19 -->
<g id="Node000019" class="node">
<title>Node19</title>
<g id="a_Node000019"><a xlink:title=" ">
<polygon fill="#e0e0e0" stroke="#999999" points="1120.75,-102.62 979.5,-102.62 979.5,-72.12 1120.75,-72.12 1120.75,-102.62"/>
<text text-anchor="start" x="987.5" y="-89.12" font-family="Helvetica,sans-Serif" font-size="10.00">typed_linear_algebra</text>
<text text-anchor="middle" x="1050.12" y="-77.88" font-family="Helvetica,sans-Serif" font-size="10.00">/algorithm/matrix_product.tpp</text>
</a>
</g>
</g>
<!-- Node3&#45;&gt;Node19 -->
<g id="edge23_Node000003_Node000019" class="edge">
<title>Node3&#45;&gt;Node19</title>
<g id="a_edge23_Node000003_Node000019"><a xlink:title=" ">
<path fill="none" stroke="#63b8ff" d="M1336.72,-148.9C1283.8,-139.35 1201.21,-123.91 1130.12,-108.25 1126.38,-107.42 1122.54,-106.55 1118.67,-105.66"/>
<polygon fill="#63b8ff" stroke="#63b8ff" points="1119.73,-102.31 1109.19,-103.42 1118.12,-109.12 1119.73,-102.31"/>
</a>
</g>
</g>
<!-- Node20 -->
<g id="Node000020" class="node">
<title>Node20</title>
<g id="a_Node000020"><a xlink:title=" ">
<polygon fill="#e0e0e0" stroke="#999999" points="1259.25,-108.25 1139,-108.25 1139,-66.5 1259.25,-66.5 1259.25,-108.25"/>
<text text-anchor="start" x="1147" y="-94.75" font-family="Helvetica,sans-Serif" font-size="10.00">typed_linear_algebra</text>
<text text-anchor="start" x="1147" y="-83.5" font-family="Helvetica,sans-Serif" font-size="10.00">/algorithm/matrix_vector</text>
<text text-anchor="middle" x="1199.12" y="-72.25" font-family="Helvetica,sans-Serif" font-size="10.00">_product.tpp</text>
</a>
</g>
</g>
<!-- Node3&#45;&gt;Node20 -->
<g id="edge24_Node000003_Node000020" class="edge">
<title>Node3&#45;&gt;Node20</title>
<g id="a_edge24_Node000003_Node000020"><a xlink:title=" ">
<path fill="none" stroke="#63b8ff" d="M1350.88,-143.8C1326.11,-134.75 1293.77,-122.94 1265.31,-112.55"/>
<polygon fill="#63b8ff" stroke="#63b8ff" points="1266.63,-109.3 1256.03,-109.16 1264.23,-115.88 1266.63,-109.3"/>
</a>
</g>
</g>
<!-- Node21 -->
<g id="Node000021" class="node">
<title>Node21</title>
<g id="a_Node000021"><a xlink:title=" ">
<polygon fill="#e0e0e0" stroke="#999999" points="1381.38,-102.62 1276.88,-102.62 1276.88,-72.12 1381.38,-72.12 1381.38,-102.62"/>
<text text-anchor="start" x="1284.88" y="-89.12" font-family="Helvetica,sans-Serif" font-size="10.00">typed_linear_algebra</text>
<text text-anchor="middle" x="1329.12" y="-77.88" font-family="Helvetica,sans-Serif" font-size="10.00">/algorithm/minus.tpp</text>
</a>
</g>
</g>
<!-- Node3&#45;&gt;Node21 -->
<g id="edge25_Node000003_Node000021" class="edge">
<title>Node3&#45;&gt;Node21</title>
<g id="a_edge25_Node000003_Node000021"><a xlink:title=" ">
<path fill="none" stroke="#63b8ff" d="M1378.28,-143.97C1369.97,-134.57 1358.96,-122.12 1349.48,-111.39"/>
<polygon fill="#63b8ff" stroke="#63b8ff" points="1352.2,-109.19 1342.96,-104.02 1346.96,-113.83 1352.2,-109.19"/>
</a>
</g>
</g>
<!-- Node22 -->
<g id="Node000022" class="node">
<title>Node22</title>
<g id="a_Node000022"><a xlink:title=" ">
<polygon fill="#e0e0e0" stroke="#999999" points="1509,-102.62 1399.25,-102.62 1399.25,-72.12 1509,-72.12 1509,-102.62"/>
<text text-anchor="start" x="1407.25" y="-89.12" font-family="Helvetica,sans-Serif" font-size="10.00">typed_linear_algebra</text>
<text text-anchor="middle" x="1454.12" y="-77.88" font-family="Helvetica,sans-Serif" font-size="10.00">/algorithm/product.tpp</text>
</a>
</g>
</g>
<!-- Node3&#45;&gt;Node22 -->
<g id="edge26_Node000003_Node000022" class="edge">
<title>Node3&#45;&gt;Node22</title>
<g id="a_edge26_Node000003_Node000022"><a xlink:title=" ">
<path fill="none" stroke="#63b8ff" d="M1404.18,-143.97C1412.63,-134.57 1423.81,-122.12 1433.45,-111.39"/>
<polygon fill="#63b8ff" stroke="#63b8ff" points="1436,-113.79 1440.08,-104.01 1430.79,-109.11 1436,-113.79"/>
</a>
</g>
</g>
<!-- Node23 -->
<g id="Node000023" class="node">
<title>Node23</title>
<g id="a_Node000023"><a xlink:title=" ">
<polygon fill="#e0e0e0" stroke="#999999" points="1631.38,-102.62 1526.88,-102.62 1526.88,-72.12 1631.38,-72.12 1631.38,-102.62"/>
<text text-anchor="start" x="1534.88" y="-89.12" font-family="Helvetica,sans-Serif" font-size="10.00">typed_linear_algebra</text>
<text text-anchor="middle" x="1579.12" y="-77.88" font-family="Helvetica,sans-Serif" font-size="10.00">/algorithm/scale.tpp</text>
</a>
</g>
</g>
<!-- Node3&#45;&gt;Node23 -->
<g id="edge27_Node000003_Node000023" class="edge">
<title>Node3&#45;&gt;Node23</title>
<g id="a_edge27_Node000003_Node000023"><a xlink:title=" ">
<path fill="none" stroke="#63b8ff" d="M1430.54,-143.8C1459.24,-133.09 1498.33,-118.51 1529.21,-106.99"/>
<polygon fill="#63b8ff" stroke="#63b8ff" points="1530.2,-110.36 1538.35,-103.59 1527.76,-103.8 1530.2,-110.36"/>
</a>
</g>
</g>
<!-- Node24 -->
<g id="Node000024" class="node">
<title>Node24</title>
<g id="a_Node000024"><a xlink:title=" ">
<polygon fill="#e0e0e0" stroke="#999999" points="1767.12,-102.62 1649.12,-102.62 1649.12,-72.12 1767.12,-72.12 1767.12,-102.62"/>
<text text-anchor="start" x="1657.12" y="-89.12" font-family="Helvetica,sans-Serif" font-size="10.00">typed_linear_algebra</text>
<text text-anchor="middle" x="1708.12" y="-77.88" font-family="Helvetica,sans-Serif" font-size="10.00">/algorithm/substract.tpp</text>
</a>
</g>
</g>
<!-- Node3&#45;&gt;Node24 -->
<g id="edge28_Node000003_Node000024" class="edge">
<title>Node3&#45;&gt;Node24</title>
<g id="a_edge28_Node000003_Node000024"><a xlink:title=" ">
<path fill="none" stroke="#63b8ff" d="M1445.34,-148.94C1495.98,-139.68 1573.54,-124.67 1640.12,-108.25 1642.89,-107.57 1645.72,-106.85 1648.57,-106.1"/>
<polygon fill="#63b8ff" stroke="#63b8ff" points="1649.41,-109.5 1658.14,-103.5 1647.57,-102.74 1649.41,-109.5"/>
</a>
</g>
</g>
<!-- Node25 -->
<g id="Node000025" class="node">
<title>Node25</title>
<g id="a_Node000025"><a xlink:title=" ">
<polygon fill="#e0e0e0" stroke="#999999" points="1910.88,-102.62 1785.38,-102.62 1785.38,-72.12 1910.88,-72.12 1910.88,-102.62"/>
<text text-anchor="start" x="1793.38" y="-89.12" font-family="Helvetica,sans-Serif" font-size="10.00">typed_linear_algebra</text>
<text text-anchor="middle" x="1848.12" y="-77.88" font-family="Helvetica,sans-Serif" font-size="10.00">/algorithm/transposed.tpp</text>
</a>
</g>
</g>
<!-- Node3&#45;&gt;Node25 -->
<g id="edge29_Node000003_Node000025" class="edge">
<title>Node3&#45;&gt;Node25</title>
<g id="a_edge29_Node000003_Node000025"><a xlink:title=" ">
<path fill="none" stroke="#63b8ff" d="M1445.71,-153.8C1520.69,-146.78 1659.51,-131.84 1776.12,-108.25 1779.86,-107.49 1783.69,-106.65 1787.54,-105.75"/>
<polygon fill="#63b8ff" stroke="#63b8ff" points="1788.04,-109.23 1796.91,-103.44 1786.36,-102.43 1788.04,-109.23"/>
</a>
</g>
</g>
<!-- Node26 -->
<g id="Node000026" class="node">
<title>Node26</title>
<g id="a_Node000026"><a xlink:title=" ">
<polygon fill="#e0e0e0" stroke="#999999" points="2033.38,-102.62 1928.88,-102.62 1928.88,-72.12 2033.38,-72.12 2033.38,-102.62"/>
<text text-anchor="start" x="1936.88" y="-89.12" font-family="Helvetica,sans-Serif" font-size="10.00">typed_linear_algebra</text>
<text text-anchor="middle" x="1981.12" y="-77.88" font-family="Helvetica,sans-Serif" font-size="10.00">/cast.tpp</text>
</a>
</g>
</g>
<!-- Node3&#45;&gt;Node26 -->
<g id="edge30_Node000003_Node000026" class="edge">
<title>Node3&#45;&gt;Node26</title>
<g id="a_edge30_Node000003_Node000026"><a xlink:title=" ">
<path fill="none" stroke="#63b8ff" d="M1445.4,-157.28C1541.88,-154.23 1749.18,-143.76 1920.12,-108.25 1923.09,-107.63 1926.11,-106.92 1929.15,-106.15"/>
<polygon fill="#63b8ff" stroke="#63b8ff" points="1929.96,-109.56 1938.66,-103.5 1928.08,-102.81 1929.96,-109.56"/>
</a>
</g>
</g>
<!-- Node27 -->
<g id="Node000027" class="node">
<title>Node27</title>
<g id="a_Node000027"><a xlink:title=" ">
<polygon fill="#e0e0e0" stroke="#999999" points="2156.38,-102.62 2051.88,-102.62 2051.88,-72.12 2156.38,-72.12 2156.38,-102.62"/>
<text text-anchor="start" x="2059.88" y="-89.12" font-family="Helvetica,sans-Serif" font-size="10.00">typed_linear_algebra</text>
<text text-anchor="middle" x="2104.12" y="-77.88" font-family="Helvetica,sans-Serif" font-size="10.00">/chrono.tpp</text>
</a>
</g>
</g>
<!-- Node3&#45;&gt;Node27 -->
<g id="edge31_Node000003_Node000027" class="edge">
<title>Node3&#45;&gt;Node27</title>
<g id="a_edge31_Node000003_Node000027"><a xlink:title=" ">
<path fill="none" stroke="#63b8ff" d="M1445.71,-158.56C1558.32,-157.75 1824.1,-151 2042.12,-108.25 2045.3,-107.63 2048.53,-106.9 2051.78,-106.09"/>
<polygon fill="#63b8ff" stroke="#63b8ff" points="2052.6,-109.49 2061.33,-103.49 2050.76,-102.74 2052.6,-109.49"/>
</a>
</g>
</g>
<!-- Node28 -->
<g id="Node000028" class="node">
<title>Node28</title>
<g id="a_Node000028"><a xlink:title=" ">
<polygon fill="#e0e0e0" stroke="#999999" points="2279.38,-102.62 2174.88,-102.62 2174.88,-72.12 2279.38,-72.12 2279.38,-102.62"/>
<text text-anchor="start" x="2182.88" y="-89.12" font-family="Helvetica,sans-Serif" font-size="10.00">typed_linear_algebra</text>
<text text-anchor="middle" x="2227.12" y="-77.88" font-family="Helvetica,sans-Serif" font-size="10.00">/common_type.tpp</text>
</a>
</g>
</g>
<!-- Node3&#45;&gt;Node28 -->
<g id="edge32_Node000003_Node000028" class="edge">
<title>Node3&#45;&gt;Node28</title>
<g id="a_edge32_Node000003_Node000028"><a xlink:title=" ">
<path fill="none" stroke="#63b8ff" d="M1445.56,-156.7C1597.96,-151.4 2026.79,-134.5 2165.12,-108.25 2168.46,-107.62 2171.87,-106.86 2175.28,-106.01"/>
<polygon fill="#63b8ff" stroke="#63b8ff" points="2175.94,-109.46 2184.67,-103.46 2174.11,-102.71 2175.94,-109.46"/>
</a>
</g>
</g>
<!-- Node29 -->
<g id="Node000029" class="node">
<title>Node29</title>
<g id="a_Node000029"><a xlink:title=" ">
<polygon fill="#e0e0e0" stroke="#999999" points="2402.38,-102.62 2297.88,-102.62 2297.88,-72.12 2402.38,-72.12 2402.38,-102.62"/>
<text text-anchor="start" x="2305.88" y="-89.12" font-family="Helvetica,sans-Serif" font-size="10.00">typed_linear_algebra</text>
<text text-anchor="middle" x="2350.12" y="-77.88" font-family="Helvetica,sans-Serif" font-size="10.00">/format.tpp</text>
</a>
</g>
</g>
<!-- Node3&#45;&gt;Node29 -->
<g id="edge33_Node000003_Node000029" class="edge">
<title>Node3&#45;&gt;Node29</title>
<g id="a_edge33_Node000003_Node000029"><a xlink:title=" ">
<path fill="none" stroke="#63b8ff" d="M1445.61,-157.26C1614.09,-153.14 2125.08,-138.44 2288.12,-108.25 2291.46,-107.63 2294.87,-106.89 2298.29,-106.05"/>
<polygon fill="#63b8ff" stroke="#63b8ff" points="2298.94,-109.5 2307.68,-103.51 2297.12,-102.74 2298.94,-109.5"/>
</a>
</g>
</g>
<!-- Node30 -->
<g id="Node000030" class="node">
<title>Node30</title>
<g id="a_Node000030"><a xlink:title=" ">
<polygon fill="#e0e0e0" stroke="#999999" points="2525.38,-102.62 2420.88,-102.62 2420.88,-72.12 2525.38,-72.12 2525.38,-102.62"/>
<text text-anchor="start" x="2428.88" y="-89.12" font-family="Helvetica,sans-Serif" font-size="10.00">typed_linear_algebra</text>
<text text-anchor="middle" x="2473.12" y="-77.88" font-family="Helvetica,sans-Serif" font-size="10.00">/tuple.tpp</text>
</a>
</g>
</g>
<!-- Node3&#45;&gt;Node30 -->
<g id="edge34_Node000003_Node000030" class="edge">
<title>Node3&#45;&gt;Node30</title>
<g id="a_edge34_Node000003_Node000030"><a xlink:title=" ">
<path fill="none" stroke="#63b8ff" d="M1445.52,-157.69C1628.86,-154.66 2223.16,-142.4 2411.12,-108.25 2414.52,-107.63 2417.98,-106.88 2421.46,-106.04"/>
<polygon fill="#63b8ff" stroke="#63b8ff" points="2422.28,-109.44 2431.03,-103.45 2420.46,-102.68 2422.28,-109.44"/>
</a>
</g>
</g>
<!-- Node31 -->
<g id="Node000031" class="node">
<title>Node31</title>
<g id="a_Node000031"><a xlink:title=" ">
<polygon fill="#e0e0e0" stroke="#999999" points="2666.75,-102.62 2543.5,-102.62 2543.5,-72.12 2666.75,-72.12 2666.75,-102.62"/>
<text text-anchor="start" x="2551.5" y="-89.12" font-family="Helvetica,sans-Serif" font-size="10.00">typed_linear_algebra</text>
<text text-anchor="middle" x="2605.12" y="-77.88" font-family="Helvetica,sans-Serif" font-size="10.00">/typed_linear_algebra.tpp</text>
</a>
</g>
</g>
<!-- Node3&#45;&gt;Node31 -->
<g id="edge35_Node000003_Node000031" class="edge">
<title>Node3&#45;&gt;Node31</title>
<g id="a_edge35_Node000003_Node000031"><a xlink:title=" ">
<path fill="none" stroke="#63b8ff" d="M1445.75,-157.75C1643.35,-154.8 2320.58,-142.37 2534.12,-108.25 2538.48,-107.55 2542.95,-106.69 2547.42,-105.7"/>
<polygon fill="#63b8ff" stroke="#63b8ff" points="2548.1,-109.14 2557.01,-103.41 2546.47,-102.33 2548.1,-109.14"/>
</a>
</g>
</g>
<!-- Node4&#45;&gt;Node5 -->
<g id="edge4_Node000004_Node000005" class="edge">
<title>Node4&#45;&gt;Node5</title>
<g id="a_edge4_Node000004_Node000005"><a xlink:title=" ">
<path fill="none" stroke="#63b8ff" d="M2740.85,-71.85C2743.08,-63.19 2745.96,-51.97 2748.55,-41.87"/>
<polygon fill="#63b8ff" stroke="#63b8ff" points="2751.93,-42.78 2751.02,-32.23 2745.15,-41.04 2751.93,-42.78"/>
</a>
</g>
</g>
<!-- Node4&#45;&gt;Node6 -->
<g id="edge5_Node000004_Node000006" class="edge">
<title>Node4&#45;&gt;Node6</title>
<g id="a_edge5_Node000004_Node000006"><a xlink:title=" ">
<path fill="none" stroke="#63b8ff" d="M2697.85,-71.71C2690.71,-69.58 2683.26,-67.71 2676.12,-66.5 2428.55,-24.58 557.2,-17.26 260.66,-16.36"/>
<polygon fill="#63b8ff" stroke="#63b8ff" points="260.77,-12.86 250.76,-16.33 260.75,-19.86 260.77,-12.86"/>
</a>
</g>
</g>
<!-- Node4&#45;&gt;Node7 -->
<g id="edge6_Node000004_Node000007" class="edge">
<title>Node4&#45;&gt;Node7</title>
<g id="a_edge6_Node000004_Node000007"><a xlink:title=" ">
<path fill="none" stroke="#63b8ff" d="M2697.85,-71.67C2690.72,-69.55 2683.27,-67.69 2676.12,-66.5 2392.53,-19.44 374.7,-63.45 89.12,-30.5 79.5,-29.39 69.2,-27.48 59.7,-25.41"/>
<polygon fill="#63b8ff" stroke="#63b8ff" points="60.63,-22.03 50.09,-23.19 59.05,-28.85 60.63,-22.03"/>
</a>
</g>
</g>
<!-- Node8 -->
<g id="Node000008" class="node">
<title>Node8</title>
<g id="a_Node000008"><a xlink:title=" ">
<polygon fill="#e0e0e0" stroke="#999999" points="2683.12,-24.88 2625.12,-24.88 2625.12,-5.63 2683.12,-5.63 2683.12,-24.88"/>
<text text-anchor="middle" x="2654.12" y="-11.38" font-family="Helvetica,sans-Serif" font-size="10.00">functional</text>
</a>
</g>
</g>
<!-- Node4&#45;&gt;Node8 -->
<g id="edge7_Node000004_Node000008" class="edge">
<title>Node4&#45;&gt;Node8</title>
<g id="a_edge7_Node000004_Node000008"><a xlink:title=" ">
<path fill="none" stroke="#63b8ff" d="M2719.93,-71.85C2706.22,-60.26 2687.04,-44.06 2672.93,-32.14"/>
<polygon fill="#63b8ff" stroke="#63b8ff" points="2675.54,-29.76 2665.65,-25.98 2671.03,-35.11 2675.54,-29.76"/>
</a>
</g>
</g>
<!-- Node4&#45;&gt;Node9 -->
<g id="edge8_Node000004_Node000009" class="edge">
<title>Node4&#45;&gt;Node9</title>
<g id="a_edge8_Node000004_Node000009"><a xlink:title=" ">
<path fill="none" stroke="#63b8ff" d="M2775.58,-71.68C2803.24,-60.88 2841.31,-45.51 2874.12,-30.5 2874.23,-30.45 2874.34,-30.4 2874.45,-30.35"/>
<polygon fill="#63b8ff" stroke="#63b8ff" points="2875.91,-33.53 2883.4,-26.03 2872.87,-27.23 2875.91,-33.53"/>
</a>
</g>
</g>
<!-- Node4&#45;&gt;Node10 -->
<g id="edge9_Node000004_Node000010" class="edge">
<title>Node4&#45;&gt;Node10</title>
<g id="a_edge9_Node000004_Node000010"><a xlink:title=" ">
<path fill="none" stroke="#63b8ff" d="M2697.85,-71.68C2690.71,-69.55 2683.27,-67.69 2676.12,-66.5 2129.79,24.31 733,-104.48 184.12,-30.5 179.45,-29.87 174.6,-28.98 169.81,-27.94"/>
<polygon fill="#63b8ff" stroke="#63b8ff" points="170.85,-24.59 160.31,-25.68 169.23,-31.4 170.85,-24.59"/>
</a>
</g>
</g>
<!-- Node4&#45;&gt;Node11 -->
<g id="edge10_Node000004_Node000011" class="edge">
<title>Node4&#45;&gt;Node11</title>
<g id="a_edge10_Node000004_Node000011"><a xlink:title=" ">
<path fill="none" stroke="#63b8ff" d="M2759.97,-71.67C2778.3,-59.88 2803.94,-43.39 2822.48,-31.46"/>
<polygon fill="#63b8ff" stroke="#63b8ff" points="2824.17,-34.54 2830.68,-26.18 2820.38,-28.65 2824.17,-34.54"/>
</a>
</g>
</g>
</g>
</svg>

<g id="navigator" transform="translate(0 0)" fill="#404254">
  <rect fill="#f2f5e9" fill-opacity="0.5" stroke="#606060" stroke-width=".5" x="0" y="0" width="60" height="60"/>
  <use id="zoomplus" xlink:href="#zoomPlus" x="17" y="9" onmousedown="handleZoom(evt,'in')"/>
  <use id="zoomminus" xlink:href="#zoomMin" x="42" y="9" onmousedown="handleZoom(evt,'out')"/>
  <use id="reset" xlink:href="#resetDef" x="30" y="36" onmousedown="handleReset()"/>
   <use id="arrowup" xlink:href="#arrowUp" x="0" y="0" onmousedown="handlePan(0,-1)"/>
  <use id="arrowright" xlink:href="#arrowRight" x="0" y="0" onmousedown="handlePan(1,0)"/>
  <use id="arrowdown" xlink:href="#arrowDown" x="0" y="0" onmousedown="handlePan(0,1)"/>
  <use id="arrowleft" xlink:href="#arrowLeft" x="0" y="0" onmousedown="handlePan(-1,0)"/>
</g>
<svg viewBox="0 0 15 15" width="100%" height="30px" preserveAspectRatio="xMaxYMin meet">
 <g id="arrow_out" transform="scale(0.3 0.3)">
  <a xlink:href="eigexed_2fcarouge_2linalg_8hpp__incl_org.svg" target="_base">
   <rect id="button" ry="5" rx="5" y="6" x="6" height="38" width="38"
        fill="#f2f5e9" fill-opacity="0.5" stroke="#606060" stroke-width="1.0"/>
   <path id="arrow"
     d="M 11.500037,31.436501 C 11.940474,20.09759 22.043105,11.32322 32.158766,21.979434 L 37.068811,17.246167 C 37.068811,17.246167 37.088388,32 37.088388,32 L 22.160133,31.978069 C 22.160133,31.978069 26.997745,27.140456 26.997745,27.140456 C 18.528582,18.264221 13.291696,25.230495 11.500037,31.436501 z"
     style="fill:#404040;"/>
  </a>
 </g>
</svg>

<style type='text/css'>
<![CDATA[
[data-mouse-over-selected='false'] { opacity: 0.7; }
[data-mouse-over-selected='true']  { opacity: 1.0; }
]]>
</style>
<script type="application/ecmascript"><![CDATA[
document.addEventListener('DOMContentLoaded', (event) => {
  highlightEdges();
  highlightAdjacentNodes();
});
]]></script>
</svg>
