<?xml version="1.0" encoding="UTF-8" standalone="no"?>
<!DOCTYPE svg PUBLIC "-//W3C//DTD SVG 1.1//EN"
 "http://www.w3.org/Graphics/SVG/1.1/DTD/svg11.dtd">
<!-- Generated by graphviz version 12.2.0 (20241103.1931)
 -->
<!-- Title: /github/workspace/support/eigen/fcarouge/eigen.hpp Pages: 1 -->
<svg width="2409pt" height="305pt"
 viewBox="0.00 0.00 2409.36 304.50" xmlns="http://www.w3.org/2000/svg" xmlns:xlink="http://www.w3.org/1999/xlink">
<g id="graph0" class="graph" transform="scale(1 1) rotate(0) translate(4 300.5)">
<title>/github/workspace/support/eigen/fcarouge/eigen.hpp</title>
<!-- Node1 -->
<g id="Node000001" class="node">
<title>Node1</title>
<g id="a_Node000001"><a xlink:title="Linear algebra facade for Eigen3 third party implementation.">
<polygon fill="#999999" stroke="#666666" points="629.23,-296.5 498.48,-296.5 498.48,-266 629.23,-266 629.23,-296.5"/>
<text text-anchor="start" x="506.48" y="-283" font-family="Helvetica,sans-Serif" font-size="10.00">/github/workspace/support</text>
<text text-anchor="middle" x="563.86" y="-271.75" font-family="Helvetica,sans-Serif" font-size="10.00">/eigen/fcarouge/eigen.hpp</text>
</a>
</g>
</g>
<!-- Node2 -->
<g id="Node000002" class="node">
<title>Node2</title>
<g id="a_Node000002"><a xlink:href="typed__linear__algebra_8hpp.xhtml" target="_top" xlink:title="Typed linear algebra implementation.">
<polygon fill="white" stroke="#666666" points="1073.98,-230 965.73,-230 965.73,-199.5 1073.98,-199.5 1073.98,-230"/>
<text text-anchor="start" x="973.73" y="-216.5" font-family="Helvetica,sans-Serif" font-size="10.00">fcarouge/typed_linear</text>
<text text-anchor="middle" x="1019.86" y="-205.25" font-family="Helvetica,sans-Serif" font-size="10.00">_algebra.hpp</text>
</a>
</g>
</g>
<!-- Node1&#45;&gt;Node2 -->
<g id="edge1_Node000001_Node000002" class="edge">
<title>Node1&#45;&gt;Node2</title>
<g id="a_edge1_Node000001_Node000002"><a xlink:title=" ">
<path fill="none" stroke="#63b8ff" d="M629.67,-270.94C716.3,-258.69 867.69,-237.27 954.23,-225.03"/>
<polygon fill="#63b8ff" stroke="#63b8ff" points="954.57,-228.52 963.98,-223.65 953.59,-221.59 954.57,-228.52"/>
</a>
</g>
</g>
<!-- Node6 -->
<g id="Node000006" class="node">
<title>Node6</title>
<g id="a_Node000006"><a xlink:title=" ">
<polygon fill="#e0e0e0" stroke="#999999" points="173.73,-24.88 117.98,-24.88 117.98,-5.63 173.73,-5.63 173.73,-24.88"/>
<text text-anchor="middle" x="145.86" y="-11.38" font-family="Helvetica,sans-Serif" font-size="10.00">concepts</text>
</a>
</g>
</g>
<!-- Node1&#45;&gt;Node6 -->
<g id="edge32_Node000001_Node000006" class="edge">
<title>Node1&#45;&gt;Node6</title>
<g id="a_edge32_Node000001_Node000006"><a xlink:title=" ">
<path fill="none" stroke="#63b8ff" d="M498.02,-278.57C367.3,-274.54 85.01,-262.18 55.86,-230 7.07,-176.15 19.07,-129.17 55.86,-66.5 66.96,-47.58 88.08,-35.25 107.06,-27.55"/>
<polygon fill="#63b8ff" stroke="#63b8ff" points="108.04,-30.92 116.19,-24.16 105.6,-24.36 108.04,-30.92"/>
</a>
</g>
</g>
<!-- Node7 -->
<g id="Node000007" class="node">
<title>Node7</title>
<g id="a_Node000007"><a xlink:title=" ">
<polygon fill="#e0e0e0" stroke="#999999" points="2217.98,-24.88 2169.73,-24.88 2169.73,-5.63 2217.98,-5.63 2217.98,-24.88"/>
<text text-anchor="middle" x="2193.86" y="-11.38" font-family="Helvetica,sans-Serif" font-size="10.00">cstddef</text>
</a>
</g>
</g>
<!-- Node1&#45;&gt;Node7 -->
<g id="edge33_Node000001_Node000007" class="edge">
<title>Node1&#45;&gt;Node7</title>
<g id="a_edge33_Node000001_Node000007"><a xlink:title=" ">
<path fill="none" stroke="#63b8ff" d="M629.37,-279.91C917.86,-277.84 2066.24,-263.35 2188.86,-163.5 2223.13,-135.59 2218.03,-110.12 2210.86,-66.5 2209.15,-56.14 2205.59,-45.04 2202.17,-35.91"/>
<polygon fill="#63b8ff" stroke="#63b8ff" points="2205.44,-34.67 2198.48,-26.69 2198.94,-37.27 2205.44,-34.67"/>
</a>
</g>
</g>
<!-- Node9 -->
<g id="Node000009" class="node">
<title>Node9</title>
<g id="a_Node000009"><a xlink:title=" ">
<polygon fill="#e0e0e0" stroke="#999999" points="50.36,-24.88 13.36,-24.88 13.36,-5.63 50.36,-5.63 50.36,-24.88"/>
<text text-anchor="middle" x="31.86" y="-11.38" font-family="Helvetica,sans-Serif" font-size="10.00">tuple</text>
</a>
</g>
</g>
<!-- Node1&#45;&gt;Node9 -->
<g id="edge36_Node000001_Node000009" class="edge">
<title>Node1&#45;&gt;Node9</title>
<g id="a_edge36_Node000001_Node000009"><a xlink:title=" ">
<path fill="none" stroke="#63b8ff" d="M498.08,-278.47C363.05,-274.2 64.4,-261.28 30.86,-230 -23.11,-179.68 7.36,-78.58 23.66,-35.93"/>
<polygon fill="#63b8ff" stroke="#63b8ff" points="26.87,-37.33 27.32,-26.74 20.37,-34.73 26.87,-37.33"/>
</a>
</g>
</g>
<!-- Node10 -->
<g id="Node000010" class="node">
<title>Node10</title>
<g id="a_Node000010"><a xlink:title=" ">
<polygon fill="#e0e0e0" stroke="#999999" points="1100.36,-24.88 1039.36,-24.88 1039.36,-5.63 1100.36,-5.63 1100.36,-24.88"/>
<text text-anchor="middle" x="1069.86" y="-11.38" font-family="Helvetica,sans-Serif" font-size="10.00">type_traits</text>
</a>
</g>
</g>
<!-- Node1&#45;&gt;Node10 -->
<g id="edge37_Node000001_Node000010" class="edge">
<title>Node1&#45;&gt;Node10</title>
<g id="a_edge37_Node000001_Node000010"><a xlink:title=" ">
<path fill="none" stroke="#63b8ff" d="M498.25,-275.34C415.71,-268.3 279.37,-253.51 234.86,-230 164.96,-193.08 110.53,-123.92 164.86,-66.5 194.85,-34.79 852.88,-20.3 1027.59,-17"/>
<polygon fill="#63b8ff" stroke="#63b8ff" points="1027.64,-20.5 1037.57,-16.81 1027.51,-13.5 1027.64,-20.5"/>
</a>
</g>
</g>
<!-- Node11 -->
<g id="Node000011" class="node">
<title>Node11</title>
<g id="a_Node000011"><a xlink:title=" ">
<polygon fill="#e0e0e0" stroke="#999999" points="217.73,-85.75 173.98,-85.75 173.98,-66.5 217.73,-66.5 217.73,-85.75"/>
<text text-anchor="middle" x="195.86" y="-72.25" font-family="Helvetica,sans-Serif" font-size="10.00">format</text>
</a>
</g>
</g>
<!-- Node1&#45;&gt;Node11 -->
<g id="edge34_Node000001_Node000011" class="edge">
<title>Node1&#45;&gt;Node11</title>
<g id="a_edge34_Node000001_Node000011"><a xlink:title=" ">
<path fill="none" stroke="#63b8ff" d="M498.11,-269.55C399.87,-252.06 222.27,-214.18 184.86,-163.5 170.58,-144.16 178.28,-115.53 186.17,-96.6"/>
<polygon fill="#63b8ff" stroke="#63b8ff" points="189.3,-98.17 190.27,-87.62 182.93,-95.26 189.3,-98.17"/>
</a>
</g>
</g>
<!-- Node25 -->
<g id="Node000025" class="node">
<title>Node25</title>
<g id="a_Node000025"><a xlink:title=" ">
<polygon fill="#e0e0e0" stroke="#999999" points="2316.48,-224.38 2265.23,-224.38 2265.23,-205.12 2316.48,-205.12 2316.48,-224.38"/>
<text text-anchor="middle" x="2290.86" y="-210.88" font-family="Helvetica,sans-Serif" font-size="10.00">sstream</text>
</a>
</g>
</g>
<!-- Node1&#45;&gt;Node25 -->
<g id="edge35_Node000001_Node000025" class="edge">
<title>Node1&#45;&gt;Node25</title>
<g id="a_edge35_Node000001_Node000025"><a xlink:title=" ">
<path fill="none" stroke="#63b8ff" d="M629.27,-279.51C920.24,-276.04 2089.69,-260.33 2250.86,-230 2253.33,-229.53 2255.85,-228.94 2258.37,-228.26"/>
<polygon fill="#63b8ff" stroke="#63b8ff" points="2259.26,-231.65 2267.75,-225.31 2257.16,-224.97 2259.26,-231.65"/>
</a>
</g>
</g>
<!-- Node26 -->
<g id="Node000026" class="node">
<title>Node26</title>
<g id="a_Node000026"><a xlink:title=" ">
<polygon fill="#e0e0e0" stroke="#999999" points="2401.36,-224.38 2334.36,-224.38 2334.36,-205.12 2401.36,-205.12 2401.36,-224.38"/>
<text text-anchor="middle" x="2367.86" y="-210.88" font-family="Helvetica,sans-Serif" font-size="10.00">Eigen/Eigen</text>
</a>
</g>
</g>
<!-- Node1&#45;&gt;Node26 -->
<g id="edge38_Node000001_Node000026" class="edge">
<title>Node1&#45;&gt;Node26</title>
<g id="a_edge38_Node000001_Node000026"><a xlink:title=" ">
<path fill="none" stroke="#63b8ff" d="M629.64,-279.53C929.19,-276.12 2156.81,-260.38 2325.86,-230 2328.64,-229.5 2331.49,-228.85 2334.33,-228.1"/>
<polygon fill="#63b8ff" stroke="#63b8ff" points="2335.07,-231.54 2343.63,-225.29 2333.04,-224.84 2335.07,-231.54"/>
</a>
</g>
</g>
<!-- Node3 -->
<g id="Node000003" class="node">
<title>Node3</title>
<g id="a_Node000003"><a xlink:href="typed__linear__algebra__forward_8hpp.xhtml" target="_top" xlink:title="Authoritative forward declaration header.">
<polygon fill="white" stroke="#666666" points="2140.11,-30.5 2035.61,-30.5 2035.61,0 2140.11,0 2140.11,-30.5"/>
<text text-anchor="start" x="2043.61" y="-17" font-family="Helvetica,sans-Serif" font-size="10.00">typed_linear_algebra</text>
<text text-anchor="middle" x="2087.86" y="-5.75" font-family="Helvetica,sans-Serif" font-size="10.00">_forward.hpp</text>
</a>
</g>
</g>
<!-- Node2&#45;&gt;Node3 -->
<g id="edge2_Node000002_Node000003" class="edge">
<title>Node2&#45;&gt;Node3</title>
<g id="a_edge2_Node000002_Node000003"><a xlink:title=" ">
<path fill="none" stroke="#63b8ff" d="M1074.2,-213.38C1293.67,-211.61 2104.59,-202.48 2141.86,-163.5 2175.25,-128.57 2136.39,-71.3 2109.41,-39.45"/>
<polygon fill="#63b8ff" stroke="#63b8ff" points="2112.06,-37.17 2102.84,-31.95 2106.79,-41.78 2112.06,-37.17"/>
</a>
</g>
</g>
<!-- Node4 -->
<g id="Node000004" class="node">
<title>Node4</title>
<g id="a_Node000004"><a xlink:href="format_8hpp.xhtml" target="_top" xlink:title="Formatting support for the typed matrix.">
<polygon fill="white" stroke="#666666" points="2133.11,-157.88 2028.61,-157.88 2028.61,-127.38 2133.11,-127.38 2133.11,-157.88"/>
<text text-anchor="start" x="2036.61" y="-144.38" font-family="Helvetica,sans-Serif" font-size="10.00">typed_linear_algebra</text>
<text text-anchor="middle" x="2080.86" y="-133.12" font-family="Helvetica,sans-Serif" font-size="10.00">_internal/format.hpp</text>
</a>
</g>
</g>
<!-- Node2&#45;&gt;Node4 -->
<g id="edge3_Node000002_Node000004" class="edge">
<title>Node2&#45;&gt;Node4</title>
<g id="a_edge3_Node000002_Node000004"><a xlink:title=" ">
<path fill="none" stroke="#63b8ff" d="M1074.46,-212.73C1255.03,-209.09 1831.75,-195.21 2014.86,-163.5 2018.69,-162.84 2022.61,-162.02 2026.53,-161.1"/>
<polygon fill="#63b8ff" stroke="#63b8ff" points="2027.26,-164.53 2036.08,-158.66 2025.52,-157.75 2027.26,-164.53"/>
</a>
</g>
</g>
<!-- Node5 -->
<g id="Node000005" class="node">
<title>Node5</title>
<g id="a_Node000005"><a xlink:href="utility_8hpp.xhtml" target="_top" xlink:title=" ">
<polygon fill="white" stroke="#666666" points="2023.11,-85.75 1966.61,-85.75 1966.61,-66.5 2023.11,-66.5 2023.11,-85.75"/>
<text text-anchor="middle" x="1994.86" y="-72.25" font-family="Helvetica,sans-Serif" font-size="10.00">utility.hpp</text>
</a>
</g>
</g>
<!-- Node2&#45;&gt;Node5 -->
<g id="edge14_Node000002_Node000005" class="edge">
<title>Node2&#45;&gt;Node5</title>
<g id="a_edge14_Node000002_Node000005"><a xlink:title=" ">
<path fill="none" stroke="#63b8ff" d="M1074.24,-212.79C1272.69,-209.06 1948.06,-194.16 1981.86,-163.5 1999.91,-147.12 2000.42,-117.26 1998.29,-97.31"/>
<polygon fill="#63b8ff" stroke="#63b8ff" points="2001.79,-97.03 1996.93,-87.61 1994.86,-98 2001.79,-97.03"/>
</a>
</g>
</g>
<!-- Node2&#45;&gt;Node6 -->
<g id="edge15_Node000002_Node000006" class="edge">
<title>Node2&#45;&gt;Node6</title>
<g id="a_edge15_Node000002_Node000006"><a xlink:title=" ">
<path fill="none" stroke="#63b8ff" d="M965.28,-214.11C789.34,-214.77 245.05,-212.77 184.86,-163.5 146.74,-132.3 143.44,-68.54 144.48,-36.13"/>
<polygon fill="#63b8ff" stroke="#63b8ff" points="147.95,-36.7 144.97,-26.54 140.96,-36.34 147.95,-36.7"/>
</a>
</g>
</g>
<!-- Node2&#45;&gt;Node7 -->
<g id="edge16_Node000002_Node000007" class="edge">
<title>Node2&#45;&gt;Node7</title>
<g id="a_edge16_Node000002_Node000007"><a xlink:title=" ">
<path fill="none" stroke="#63b8ff" d="M1074.2,-213.19C1295.6,-210.66 2119.84,-198.91 2161.86,-163.5 2198.94,-132.24 2199.09,-69.03 2196.36,-36.54"/>
<polygon fill="#63b8ff" stroke="#63b8ff" points="2199.87,-36.46 2195.35,-26.88 2192.91,-37.19 2199.87,-36.46"/>
</a>
</g>
</g>
<!-- Node2&#45;&gt;Node9 -->
<g id="edge19_Node000002_Node000009" class="edge">
<title>Node2&#45;&gt;Node9</title>
<g id="a_edge19_Node000002_Node000009"><a xlink:title=" ">
<path fill="none" stroke="#63b8ff" d="M965.51,-213.12C786.87,-210.7 225.05,-200.21 152.86,-163.5 97.19,-135.19 57.83,-68.58 40.99,-35.54"/>
<polygon fill="#63b8ff" stroke="#63b8ff" points="44.21,-34.15 36.66,-26.72 37.93,-37.24 44.21,-34.15"/>
</a>
</g>
</g>
<!-- Node2&#45;&gt;Node11 -->
<g id="edge17_Node000002_Node000011" class="edge">
<title>Node2&#45;&gt;Node11</title>
<g id="a_edge17_Node000002_Node000011"><a xlink:title=" ">
<path fill="none" stroke="#63b8ff" d="M965.49,-212.35C787.2,-207.49 230.11,-190.23 202.86,-163.5 185.59,-146.57 187.25,-116.85 190.87,-97.08"/>
<polygon fill="#63b8ff" stroke="#63b8ff" points="194.25,-98 192.97,-87.48 187.41,-96.5 194.25,-98"/>
</a>
</g>
</g>
<!-- Node12 -->
<g id="Node000012" class="node">
<title>Node12</title>
<g id="a_Node000012"><a xlink:title=" ">
<polygon fill="#e0e0e0" stroke="#999999" points="283.61,-152.25 212.11,-152.25 212.11,-133 283.61,-133 283.61,-152.25"/>
<text text-anchor="middle" x="247.86" y="-138.75" font-family="Helvetica,sans-Serif" font-size="10.00">initializer_list</text>
</a>
</g>
</g>
<!-- Node2&#45;&gt;Node12 -->
<g id="edge18_Node000002_Node000012" class="edge">
<title>Node2&#45;&gt;Node12</title>
<g id="a_edge18_Node000002_Node000012"><a xlink:title=" ">
<path fill="none" stroke="#63b8ff" d="M965.45,-212.42C819.25,-208.47 420.35,-195.03 292.86,-163.5 286.74,-161.99 280.41,-159.7 274.51,-157.2"/>
<polygon fill="#63b8ff" stroke="#63b8ff" points="276.39,-154.21 265.83,-153.24 273.48,-160.58 276.39,-154.21"/>
</a>
</g>
</g>
<!-- Node13 -->
<g id="Node000013" class="node">
<title>Node13</title>
<g id="a_Node000013"><a xlink:title=" ">
<polygon fill="#e0e0e0" stroke="#999999" points="340.11,-152.25 301.61,-152.25 301.61,-133 340.11,-133 340.11,-152.25"/>
<text text-anchor="middle" x="320.86" y="-138.75" font-family="Helvetica,sans-Serif" font-size="10.00">utility</text>
</a>
</g>
</g>
<!-- Node2&#45;&gt;Node13 -->
<g id="edge20_Node000002_Node000013" class="edge">
<title>Node2&#45;&gt;Node13</title>
<g id="a_edge20_Node000002_Node000013"><a xlink:title=" ">
<path fill="none" stroke="#63b8ff" d="M965.26,-213.41C826.23,-211.95 461.84,-204.23 348.86,-163.5 345.86,-162.42 342.89,-160.92 340.07,-159.23"/>
<polygon fill="#63b8ff" stroke="#63b8ff" points="342.15,-156.42 331.96,-153.52 338.12,-162.14 342.15,-156.42"/>
</a>
</g>
</g>
<!-- Node14 -->
<g id="Node000014" class="node">
<title>Node14</title>
<g id="a_Node000014"><a xlink:title=" ">
<polygon fill="#e0e0e0" stroke="#999999" points="487.86,-157.88 357.86,-157.88 357.86,-127.38 487.86,-127.38 487.86,-157.88"/>
<text text-anchor="start" x="365.86" y="-144.38" font-family="Helvetica,sans-Serif" font-size="10.00">typed_linear_algebra</text>
<text text-anchor="middle" x="422.86" y="-133.12" font-family="Helvetica,sans-Serif" font-size="10.00">_internal/algorithm/add.tpp</text>
</a>
</g>
</g>
<!-- Node2&#45;&gt;Node14 -->
<g id="edge21_Node000002_Node000014" class="edge">
<title>Node2&#45;&gt;Node14</title>
<g id="a_edge21_Node000002_Node000014"><a xlink:title=" ">
<path fill="none" stroke="#63b8ff" d="M965.24,-211.5C869.64,-206.9 666.05,-194.13 496.86,-163.5 492.75,-162.76 488.54,-161.9 484.32,-160.96"/>
<polygon fill="#63b8ff" stroke="#63b8ff" points="485.16,-157.57 474.63,-158.68 483.56,-164.38 485.16,-157.57"/>
</a>
</g>
</g>
<!-- Node15 -->
<g id="Node000015" class="node">
<title>Node15</title>
<g id="a_Node000015"><a xlink:title=" ">
<polygon fill="#e0e0e0" stroke="#999999" points="645.73,-157.88 505.98,-157.88 505.98,-127.38 645.73,-127.38 645.73,-157.88"/>
<text text-anchor="start" x="513.98" y="-144.38" font-family="Helvetica,sans-Serif" font-size="10.00">typed_linear_algebra</text>
<text text-anchor="middle" x="575.86" y="-133.12" font-family="Helvetica,sans-Serif" font-size="10.00">_internal/algorithm/divide.tpp</text>
</a>
</g>
</g>
<!-- Node2&#45;&gt;Node15 -->
<g id="edge22_Node000002_Node000015" class="edge">
<title>Node2&#45;&gt;Node15</title>
<g id="a_edge22_Node000002_Node000015"><a xlink:title=" ">
<path fill="none" stroke="#63b8ff" d="M965.44,-208.14C893.84,-200.34 764.28,-184.73 654.86,-163.5 650.6,-162.68 646.24,-161.76 641.85,-160.8"/>
<polygon fill="#63b8ff" stroke="#63b8ff" points="642.94,-157.46 632.41,-158.64 641.38,-164.28 642.94,-157.46"/>
</a>
</g>
</g>
<!-- Node16 -->
<g id="Node000016" class="node">
<title>Node16</title>
<g id="a_Node000016"><a xlink:title=" ">
<polygon fill="#e0e0e0" stroke="#999999" points="785.73,-163.5 663.98,-163.5 663.98,-121.75 785.73,-121.75 785.73,-163.5"/>
<text text-anchor="start" x="671.98" y="-150" font-family="Helvetica,sans-Serif" font-size="10.00">typed_linear_algebra</text>
<text text-anchor="start" x="671.98" y="-138.75" font-family="Helvetica,sans-Serif" font-size="10.00">_internal/algorithm/equal</text>
<text text-anchor="middle" x="724.86" y="-127.5" font-family="Helvetica,sans-Serif" font-size="10.00">_to.tpp</text>
</a>
</g>
</g>
<!-- Node2&#45;&gt;Node16 -->
<g id="edge23_Node000002_Node000016" class="edge">
<title>Node2&#45;&gt;Node16</title>
<g id="a_edge23_Node000002_Node000016"><a xlink:title=" ">
<path fill="none" stroke="#63b8ff" d="M965.55,-202.53C922.35,-193.4 860.12,-179.79 796.87,-163.95"/>
<polygon fill="#63b8ff" stroke="#63b8ff" points="797.9,-160.6 787.35,-161.54 796.19,-167.38 797.9,-160.6"/>
</a>
</g>
</g>
<!-- Node17 -->
<g id="Node000017" class="node">
<title>Node17</title>
<g id="a_Node000017"><a xlink:title=" ">
<polygon fill="#e0e0e0" stroke="#999999" points="928.23,-163.5 803.48,-163.5 803.48,-121.75 928.23,-121.75 928.23,-163.5"/>
<text text-anchor="start" x="811.48" y="-150" font-family="Helvetica,sans-Serif" font-size="10.00">typed_linear_algebra</text>
<text text-anchor="start" x="811.48" y="-138.75" font-family="Helvetica,sans-Serif" font-size="10.00">_internal/algorithm/matrix</text>
<text text-anchor="middle" x="865.86" y="-127.5" font-family="Helvetica,sans-Serif" font-size="10.00">_product.tpp</text>
</a>
</g>
</g>
<!-- Node2&#45;&gt;Node17 -->
<g id="edge24_Node000002_Node000017" class="edge">
<title>Node2&#45;&gt;Node17</title>
<g id="a_edge24_Node000002_Node000017"><a xlink:title=" ">
<path fill="none" stroke="#63b8ff" d="M987.57,-199.05C968.23,-190.24 943.13,-178.81 920.75,-168.62"/>
<polygon fill="#63b8ff" stroke="#63b8ff" points="922.29,-165.48 911.74,-164.52 919.39,-171.85 922.29,-165.48"/>
</a>
</g>
</g>
<!-- Node18 -->
<g id="Node000018" class="node">
<title>Node18</title>
<g id="a_Node000018"><a xlink:title=" ">
<polygon fill="#e0e0e0" stroke="#999999" points="1093.11,-157.88 946.61,-157.88 946.61,-127.38 1093.11,-127.38 1093.11,-157.88"/>
<text text-anchor="start" x="954.61" y="-144.38" font-family="Helvetica,sans-Serif" font-size="10.00">typed_linear_algebra</text>
<text text-anchor="middle" x="1019.86" y="-133.12" font-family="Helvetica,sans-Serif" font-size="10.00">_internal/algorithm/product.tpp</text>
</a>
</g>
</g>
<!-- Node2&#45;&gt;Node18 -->
<g id="edge25_Node000002_Node000018" class="edge">
<title>Node2&#45;&gt;Node18</title>
<g id="a_edge25_Node000002_Node000018"><a xlink:title=" ">
<path fill="none" stroke="#63b8ff" d="M1019.86,-199.22C1019.86,-190.66 1019.86,-179.59 1019.86,-169.58"/>
<polygon fill="#63b8ff" stroke="#63b8ff" points="1023.36,-169.65 1019.86,-159.65 1016.36,-169.65 1023.36,-169.65"/>
</a>
</g>
</g>
<!-- Node19 -->
<g id="Node000019" class="node">
<title>Node19</title>
<g id="a_Node000019"><a xlink:title=" ">
<polygon fill="#e0e0e0" stroke="#999999" points="1248.61,-157.88 1111.11,-157.88 1111.11,-127.38 1248.61,-127.38 1248.61,-157.88"/>
<text text-anchor="start" x="1119.11" y="-144.38" font-family="Helvetica,sans-Serif" font-size="10.00">typed_linear_algebra</text>
<text text-anchor="middle" x="1179.86" y="-133.12" font-family="Helvetica,sans-Serif" font-size="10.00">_internal/algorithm/scale.tpp</text>
</a>
</g>
</g>
<!-- Node2&#45;&gt;Node19 -->
<g id="edge26_Node000002_Node000019" class="edge">
<title>Node2&#45;&gt;Node19</title>
<g id="a_edge26_Node000002_Node000019"><a xlink:title=" ">
<path fill="none" stroke="#63b8ff" d="M1053.4,-199.05C1077.4,-188.53 1109.93,-174.27 1135.99,-162.85"/>
<polygon fill="#63b8ff" stroke="#63b8ff" points="1137.22,-166.13 1144.97,-158.91 1134.41,-159.72 1137.22,-166.13"/>
</a>
</g>
</g>
<!-- Node20 -->
<g id="Node000020" class="node">
<title>Node20</title>
<g id="a_Node000020"><a xlink:title=" ">
<polygon fill="#e0e0e0" stroke="#999999" points="1421.23,-157.88 1266.48,-157.88 1266.48,-127.38 1421.23,-127.38 1421.23,-157.88"/>
<text text-anchor="start" x="1274.48" y="-144.38" font-family="Helvetica,sans-Serif" font-size="10.00">typed_linear_algebra</text>
<text text-anchor="middle" x="1343.86" y="-133.12" font-family="Helvetica,sans-Serif" font-size="10.00">_internal/algorithm/substract.tpp</text>
</a>
</g>
</g>
<!-- Node2&#45;&gt;Node20 -->
<g id="edge27_Node000002_Node000020" class="edge">
<title>Node2&#45;&gt;Node20</title>
<g id="a_edge27_Node000002_Node000020"><a xlink:title=" ">
<path fill="none" stroke="#63b8ff" d="M1074.27,-202.57C1122.55,-192.57 1194.97,-177.4 1257.86,-163.5 1261.83,-162.62 1265.91,-161.71 1270.02,-160.78"/>
<polygon fill="#63b8ff" stroke="#63b8ff" points="1270.49,-164.27 1279.47,-158.64 1268.95,-157.44 1270.49,-164.27"/>
</a>
</g>
</g>
<!-- Node21 -->
<g id="Node000021" class="node">
<title>Node21</title>
<g id="a_Node000021"><a xlink:title=" ">
<polygon fill="#e0e0e0" stroke="#999999" points="1601.98,-157.88 1439.73,-157.88 1439.73,-127.38 1601.98,-127.38 1601.98,-157.88"/>
<text text-anchor="start" x="1447.73" y="-144.38" font-family="Helvetica,sans-Serif" font-size="10.00">typed_linear_algebra</text>
<text text-anchor="middle" x="1520.86" y="-133.12" font-family="Helvetica,sans-Serif" font-size="10.00">_internal/algorithm/transposed.tpp</text>
</a>
</g>
</g>
<!-- Node2&#45;&gt;Node21 -->
<g id="edge28_Node000002_Node000021" class="edge">
<title>Node2&#45;&gt;Node21</title>
<g id="a_edge28_Node000002_Node000021"><a xlink:title=" ">
<path fill="none" stroke="#63b8ff" d="M1074.47,-208.69C1153.28,-201.02 1303.31,-185.03 1429.86,-163.5 1435.16,-162.6 1440.61,-161.6 1446.1,-160.53"/>
<polygon fill="#63b8ff" stroke="#63b8ff" points="1446.76,-163.97 1455.88,-158.58 1445.38,-157.11 1446.76,-163.97"/>
</a>
</g>
</g>
<!-- Node22 -->
<g id="Node000022" class="node">
<title>Node22</title>
<g id="a_Node000022"><a xlink:title=" ">
<polygon fill="#e0e0e0" stroke="#999999" points="1724.11,-157.88 1619.61,-157.88 1619.61,-127.38 1724.11,-127.38 1724.11,-157.88"/>
<text text-anchor="start" x="1627.61" y="-144.38" font-family="Helvetica,sans-Serif" font-size="10.00">typed_linear_algebra</text>
<text text-anchor="middle" x="1671.86" y="-133.12" font-family="Helvetica,sans-Serif" font-size="10.00">_internal/cast.tpp</text>
</a>
</g>
</g>
<!-- Node2&#45;&gt;Node22 -->
<g id="edge29_Node000002_Node000022" class="edge">
<title>Node2&#45;&gt;Node22</title>
<g id="a_edge29_Node000002_Node000022"><a xlink:title=" ">
<path fill="none" stroke="#63b8ff" d="M1074.23,-213.29C1179.08,-211.48 1416.07,-202.96 1610.86,-163.5 1613.98,-162.87 1617.16,-162.13 1620.36,-161.31"/>
<polygon fill="#63b8ff" stroke="#63b8ff" points="1621.03,-164.76 1629.73,-158.71 1619.16,-158.02 1621.03,-164.76"/>
</a>
</g>
</g>
<!-- Node23 -->
<g id="Node000023" class="node">
<title>Node23</title>
<g id="a_Node000023"><a xlink:title=" ">
<polygon fill="#e0e0e0" stroke="#999999" points="1847.11,-157.88 1742.61,-157.88 1742.61,-127.38 1847.11,-127.38 1847.11,-157.88"/>
<text text-anchor="start" x="1750.61" y="-144.38" font-family="Helvetica,sans-Serif" font-size="10.00">typed_linear_algebra</text>
<text text-anchor="middle" x="1794.86" y="-133.12" font-family="Helvetica,sans-Serif" font-size="10.00">_internal/tuple.tpp</text>
</a>
</g>
</g>
<!-- Node2&#45;&gt;Node23 -->
<g id="edge30_Node000002_Node000023" class="edge">
<title>Node2&#45;&gt;Node23</title>
<g id="a_edge30_Node000002_Node000023"><a xlink:title=" ">
<path fill="none" stroke="#63b8ff" d="M1074.09,-214.33C1194.03,-214.66 1490.37,-210.21 1732.86,-163.5 1736.19,-162.86 1739.59,-162.09 1743.01,-161.24"/>
<polygon fill="#63b8ff" stroke="#63b8ff" points="1743.67,-164.69 1752.4,-158.68 1741.83,-157.94 1743.67,-164.69"/>
</a>
</g>
</g>
<!-- Node24 -->
<g id="Node000024" class="node">
<title>Node24</title>
<g id="a_Node000024"><a xlink:title=" ">
<polygon fill="#e0e0e0" stroke="#999999" points="1972.61,-163.5 1865.11,-163.5 1865.11,-121.75 1972.61,-121.75 1972.61,-163.5"/>
<text text-anchor="start" x="1873.11" y="-150" font-family="Helvetica,sans-Serif" font-size="10.00">typed_linear_algebra</text>
<text text-anchor="start" x="1873.11" y="-138.75" font-family="Helvetica,sans-Serif" font-size="10.00">_internal/typed_linear</text>
<text text-anchor="middle" x="1918.86" y="-127.5" font-family="Helvetica,sans-Serif" font-size="10.00">_algebra.tpp</text>
</a>
</g>
</g>
<!-- Node2&#45;&gt;Node24 -->
<g id="edge31_Node000002_Node000024" class="edge">
<title>Node2&#45;&gt;Node24</title>
<g id="a_edge31_Node000002_Node000024"><a xlink:title=" ">
<path fill="none" stroke="#63b8ff" d="M1074.29,-212.22C1231.29,-207.55 1684.05,-192.1 1853.55,-163.6"/>
<polygon fill="#63b8ff" stroke="#63b8ff" points="1854.05,-167.07 1863.28,-161.88 1852.83,-160.17 1854.05,-167.07"/>
</a>
</g>
</g>
<!-- Node4&#45;&gt;Node3 -->
<g id="edge4_Node000004_Node000003" class="edge">
<title>Node4&#45;&gt;Node3</title>
<g id="a_edge4_Node000004_Node000003"><a xlink:title=" ">
<path fill="none" stroke="#63b8ff" d="M2081.66,-127.24C2082.82,-106.48 2084.98,-67.76 2086.42,-42"/>
<polygon fill="#63b8ff" stroke="#63b8ff" points="2089.89,-42.54 2086.96,-32.36 2082.9,-42.15 2089.89,-42.54"/>
</a>
</g>
</g>
<!-- Node4&#45;&gt;Node5 -->
<g id="edge5_Node000004_Node000005" class="edge">
<title>Node4&#45;&gt;Node5</title>
<g id="a_edge5_Node000004_Node000005"><a xlink:title=" ">
<path fill="none" stroke="#63b8ff" d="M2061.34,-126.99C2047.65,-116.72 2029.38,-103.02 2015.45,-92.57"/>
<polygon fill="#63b8ff" stroke="#63b8ff" points="2017.93,-90.06 2007.83,-86.86 2013.73,-95.66 2017.93,-90.06"/>
</a>
</g>
</g>
<!-- Node4&#45;&gt;Node7 -->
<g id="edge12_Node000004_Node000007" class="edge">
<title>Node4&#45;&gt;Node7</title>
<g id="a_edge12_Node000004_Node000007"><a xlink:title=" ">
<path fill="none" stroke="#63b8ff" d="M2093.82,-127.24C2114.69,-104.09 2155.67,-58.62 2178.16,-33.66"/>
<polygon fill="#63b8ff" stroke="#63b8ff" points="2180.69,-36.09 2184.78,-26.32 2175.49,-31.4 2180.69,-36.09"/>
</a>
</g>
</g>
<!-- Node4&#45;&gt;Node11 -->
<g id="edge13_Node000004_Node000011" class="edge">
<title>Node4&#45;&gt;Node11</title>
<g id="a_edge13_Node000004_Node000011"><a xlink:title=" ">
<path fill="none" stroke="#63b8ff" d="M2028.2,-129.3C2013.3,-126.29 1997.01,-123.45 1981.86,-121.75 1623.74,-81.63 444.3,-77.58 229.56,-77.17"/>
<polygon fill="#63b8ff" stroke="#63b8ff" points="229.68,-73.67 219.67,-77.15 229.66,-80.67 229.68,-73.67"/>
</a>
</g>
</g>
<!-- Node5&#45;&gt;Node3 -->
<g id="edge6_Node000005_Node000003" class="edge">
<title>Node5&#45;&gt;Node3</title>
<g id="a_edge6_Node000005_Node000003"><a xlink:title=" ">
<path fill="none" stroke="#63b8ff" d="M2008.98,-66.18C2021.27,-58.4 2039.54,-46.84 2055.41,-36.79"/>
<polygon fill="#63b8ff" stroke="#63b8ff" points="2057.04,-39.9 2063.62,-31.59 2053.3,-33.98 2057.04,-39.9"/>
</a>
</g>
</g>
<!-- Node5&#45;&gt;Node6 -->
<g id="edge7_Node000005_Node000006" class="edge">
<title>Node5&#45;&gt;Node6</title>
<g id="a_edge7_Node000005_Node000006"><a xlink:title=" ">
<path fill="none" stroke="#63b8ff" d="M1966.18,-74.21C1754.23,-67.46 431.97,-25.36 185.42,-17.51"/>
<polygon fill="#63b8ff" stroke="#63b8ff" points="185.8,-14.02 175.69,-17.2 185.58,-21.02 185.8,-14.02"/>
</a>
</g>
</g>
<!-- Node5&#45;&gt;Node7 -->
<g id="edge8_Node000005_Node000007" class="edge">
<title>Node5&#45;&gt;Node7</title>
<g id="a_edge8_Node000005_Node000007"><a xlink:title=" ">
<path fill="none" stroke="#63b8ff" d="M2023.58,-67.03C2054.56,-58.24 2105.3,-43.7 2148.86,-30.5 2152.12,-29.51 2155.52,-28.46 2158.91,-27.41"/>
<polygon fill="#63b8ff" stroke="#63b8ff" points="2159.67,-30.84 2168.16,-24.5 2157.57,-24.16 2159.67,-30.84"/>
</a>
</g>
</g>
<!-- Node8 -->
<g id="Node000008" class="node">
<title>Node8</title>
<g id="a_Node000008"><a xlink:title=" ">
<polygon fill="#e0e0e0" stroke="#999999" points="2017.86,-24.88 1959.86,-24.88 1959.86,-5.63 2017.86,-5.63 2017.86,-24.88"/>
<text text-anchor="middle" x="1988.86" y="-11.38" font-family="Helvetica,sans-Serif" font-size="10.00">functional</text>
</a>
</g>
</g>
<!-- Node5&#45;&gt;Node8 -->
<g id="edge9_Node000005_Node000008" class="edge">
<title>Node5&#45;&gt;Node8</title>
<g id="a_edge9_Node000005_Node000008"><a xlink:title=" ">
<path fill="none" stroke="#63b8ff" d="M1993.94,-66.18C1993.14,-58.32 1991.95,-46.57 1990.91,-36.45"/>
<polygon fill="#63b8ff" stroke="#63b8ff" points="1994.42,-36.38 1989.93,-26.78 1987.46,-37.09 1994.42,-36.38"/>
</a>
</g>
</g>
<!-- Node5&#45;&gt;Node9 -->
<g id="edge10_Node000005_Node000009" class="edge">
<title>Node5&#45;&gt;Node9</title>
<g id="a_edge10_Node000005_Node000009"><a xlink:title=" ">
<path fill="none" stroke="#63b8ff" d="M1966.26,-75.07C1759.58,-74.61 491.44,-70.17 108.86,-30.5 93.22,-28.88 76,-25.81 61.82,-22.94"/>
<polygon fill="#63b8ff" stroke="#63b8ff" points="62.71,-19.55 52.2,-20.92 61.27,-26.4 62.71,-19.55"/>
</a>
</g>
</g>
<!-- Node5&#45;&gt;Node10 -->
<g id="edge11_Node000005_Node000010" class="edge">
<title>Node5&#45;&gt;Node10</title>
<g id="a_edge11_Node000005_Node000010"><a xlink:title=" ">
<path fill="none" stroke="#63b8ff" d="M1966.16,-73.3C1832.43,-64.79 1270.26,-29.01 1111.67,-18.91"/>
<polygon fill="#63b8ff" stroke="#63b8ff" points="1112.25,-15.44 1102.05,-18.3 1111.8,-22.43 1112.25,-15.44"/>
</a>
</g>
</g>
</g>
</svg>
