<?xml version="1.0" encoding="UTF-8" standalone="no"?>
<!DOCTYPE svg PUBLIC "-//W3C//DTD SVG 1.1//EN"
 "http://www.w3.org/Graphics/SVG/1.1/DTD/svg11.dtd">
<!-- Generated by graphviz version 12.2.0 (20241103.1931)
 -->
<!-- Title: /github/workspace/include/fcarouge/typed_linear_algebra_internal/format.hpp Pages: 1 -->
<svg width="467pt" height="172pt"
 viewBox="0.00 0.00 466.62 171.50" xmlns="http://www.w3.org/2000/svg" xmlns:xlink="http://www.w3.org/1999/xlink">
<g id="graph0" class="graph" transform="scale(1 1) rotate(0) translate(4 167.5)">
<title>/github/workspace/include/fcarouge/typed_linear_algebra_internal/format.hpp</title>
<!-- Node1 -->
<g id="Node000001" class="node">
<title>Node1</title>
<g id="a_Node000001"><a xlink:title="Formatting support for the typed matrix.">
<polygon fill="#999999" stroke="#666666" points="289.25,-163.5 151,-163.5 151,-121.75 289.25,-121.75 289.25,-163.5"/>
<text text-anchor="start" x="159" y="-150" font-family="Helvetica,sans-Serif" font-size="10.00">/github/workspace/include</text>
<text text-anchor="start" x="159" y="-138.75" font-family="Helvetica,sans-Serif" font-size="10.00">/fcarouge/typed_linear</text>
<text text-anchor="middle" x="220.12" y="-127.5" font-family="Helvetica,sans-Serif" font-size="10.00">_algebra_internal/format.hpp</text>
</a>
</g>
</g>
<!-- Node2 -->
<g id="Node000002" class="node">
<title>Node2</title>
<g id="a_Node000002"><a xlink:href="utility_8hpp.xhtml" target="_top" xlink:title=" ">
<polygon fill="white" stroke="#666666" points="248.38,-85.75 191.88,-85.75 191.88,-66.5 248.38,-66.5 248.38,-85.75"/>
<text text-anchor="middle" x="220.12" y="-72.25" font-family="Helvetica,sans-Serif" font-size="10.00">utility.hpp</text>
</a>
</g>
</g>
<!-- Node1&#45;&gt;Node2 -->
<g id="edge1_Node000001_Node000002" class="edge">
<title>Node1&#45;&gt;Node2</title>
<g id="a_edge1_Node000001_Node000002"><a xlink:title=" ">
<path fill="none" stroke="#63b8ff" d="M220.12,-121.57C220.12,-113.9 220.12,-105.14 220.12,-97.45"/>
<polygon fill="#63b8ff" stroke="#63b8ff" points="223.63,-97.71 220.13,-87.71 216.63,-97.71 223.63,-97.71"/>
</a>
</g>
</g>
<!-- Node5 -->
<g id="Node000005" class="node">
<title>Node5</title>
<g id="a_Node000005"><a xlink:title=" ">
<polygon fill="#e0e0e0" stroke="#999999" points="48.25,-24.88 0,-24.88 0,-5.63 48.25,-5.63 48.25,-24.88"/>
<text text-anchor="middle" x="24.12" y="-11.38" font-family="Helvetica,sans-Serif" font-size="10.00">cstddef</text>
</a>
</g>
</g>
<!-- Node1&#45;&gt;Node5 -->
<g id="edge8_Node000001_Node000005" class="edge">
<title>Node1&#45;&gt;Node5</title>
<g id="a_edge8_Node000001_Node000005"><a xlink:title=" ">
<path fill="none" stroke="#63b8ff" d="M188.63,-121.48C149.24,-96.28 82.69,-53.71 47.52,-31.22"/>
<polygon fill="#63b8ff" stroke="#63b8ff" points="49.67,-28.43 39.36,-25.99 45.9,-34.33 49.67,-28.43"/>
</a>
</g>
</g>
<!-- Node9 -->
<g id="Node000009" class="node">
<title>Node9</title>
<g id="a_Node000009"><a xlink:title=" ">
<polygon fill="#e0e0e0" stroke="#999999" points="310,-85.75 266.25,-85.75 266.25,-66.5 310,-66.5 310,-85.75"/>
<text text-anchor="middle" x="288.12" y="-72.25" font-family="Helvetica,sans-Serif" font-size="10.00">format</text>
</a>
</g>
</g>
<!-- Node1&#45;&gt;Node9 -->
<g id="edge9_Node000001_Node000009" class="edge">
<title>Node1&#45;&gt;Node9</title>
<g id="a_edge9_Node000001_Node000009"><a xlink:title=" ">
<path fill="none" stroke="#63b8ff" d="M241.27,-121.57C250.62,-112.69 261.51,-102.37 270.43,-93.91"/>
<polygon fill="#63b8ff" stroke="#63b8ff" points="272.62,-96.66 277.46,-87.24 267.8,-91.58 272.62,-96.66"/>
</a>
</g>
</g>
<!-- Node3 -->
<g id="Node000003" class="node">
<title>Node3</title>
<g id="a_Node000003"><a xlink:href="typed__linear__algebra__forward_8hpp.xhtml" target="_top" xlink:title="Authoritative forward declaration header.">
<polygon fill="white" stroke="#666666" points="174.25,-30.5 66,-30.5 66,0 174.25,0 174.25,-30.5"/>
<text text-anchor="start" x="74" y="-17" font-family="Helvetica,sans-Serif" font-size="10.00">fcarouge/typed_linear</text>
<text text-anchor="middle" x="120.12" y="-5.75" font-family="Helvetica,sans-Serif" font-size="10.00">_algebra_forward.hpp</text>
</a>
</g>
</g>
<!-- Node2&#45;&gt;Node3 -->
<g id="edge2_Node000002_Node000003" class="edge">
<title>Node2&#45;&gt;Node3</title>
<g id="a_edge2_Node000002_Node000003"><a xlink:title=" ">
<path fill="none" stroke="#63b8ff" d="M204.94,-66.18C191.6,-58.33 171.7,-46.62 154.53,-36.51"/>
<polygon fill="#63b8ff" stroke="#63b8ff" points="156.51,-33.61 146.11,-31.55 152.95,-39.64 156.51,-33.61"/>
</a>
</g>
</g>
<!-- Node4 -->
<g id="Node000004" class="node">
<title>Node4</title>
<g id="a_Node000004"><a xlink:title=" ">
<polygon fill="#e0e0e0" stroke="#999999" points="248,-24.88 192.25,-24.88 192.25,-5.63 248,-5.63 248,-24.88"/>
<text text-anchor="middle" x="220.12" y="-11.38" font-family="Helvetica,sans-Serif" font-size="10.00">concepts</text>
</a>
</g>
</g>
<!-- Node2&#45;&gt;Node4 -->
<g id="edge3_Node000002_Node000004" class="edge">
<title>Node2&#45;&gt;Node4</title>
<g id="a_edge3_Node000002_Node000004"><a xlink:title=" ">
<path fill="none" stroke="#63b8ff" d="M220.12,-66.18C220.12,-58.4 220.12,-46.83 220.12,-36.78"/>
<polygon fill="#63b8ff" stroke="#63b8ff" points="223.63,-36.79 220.13,-26.79 216.63,-36.79 223.63,-36.79"/>
</a>
</g>
</g>
<!-- Node2&#45;&gt;Node5 -->
<g id="edge4_Node000002_Node000005" class="edge">
<title>Node2&#45;&gt;Node5</title>
<g id="a_edge4_Node000002_Node000005"><a xlink:title=" ">
<path fill="none" stroke="#63b8ff" d="M191.48,-68.58C158.64,-60.77 103.36,-46.72 57.12,-30.5 56.17,-30.17 55.21,-29.82 54.24,-29.46"/>
<polygon fill="#63b8ff" stroke="#63b8ff" points="55.83,-26.32 45.24,-25.86 53.23,-32.82 55.83,-26.32"/>
</a>
</g>
</g>
<!-- Node6 -->
<g id="Node000006" class="node">
<title>Node6</title>
<g id="a_Node000006"><a xlink:title=" ">
<polygon fill="#e0e0e0" stroke="#999999" points="324.12,-24.88 266.12,-24.88 266.12,-5.63 324.12,-5.63 324.12,-24.88"/>
<text text-anchor="middle" x="295.12" y="-11.38" font-family="Helvetica,sans-Serif" font-size="10.00">functional</text>
</a>
</g>
</g>
<!-- Node2&#45;&gt;Node6 -->
<g id="edge5_Node000002_Node000006" class="edge">
<title>Node2&#45;&gt;Node6</title>
<g id="a_edge5_Node000002_Node000006"><a xlink:title=" ">
<path fill="none" stroke="#63b8ff" d="M231.52,-66.18C242.97,-57.19 260.87,-43.14 274.77,-32.23"/>
<polygon fill="#63b8ff" stroke="#63b8ff" points="276.73,-35.14 282.44,-26.21 272.41,-29.63 276.73,-35.14"/>
</a>
</g>
</g>
<!-- Node7 -->
<g id="Node000007" class="node">
<title>Node7</title>
<g id="a_Node000007"><a xlink:title=" ">
<polygon fill="#e0e0e0" stroke="#999999" points="379.62,-24.88 342.62,-24.88 342.62,-5.63 379.62,-5.63 379.62,-24.88"/>
<text text-anchor="middle" x="361.12" y="-11.38" font-family="Helvetica,sans-Serif" font-size="10.00">tuple</text>
</a>
</g>
</g>
<!-- Node2&#45;&gt;Node7 -->
<g id="edge6_Node000002_Node000007" class="edge">
<title>Node2&#45;&gt;Node7</title>
<g id="a_edge6_Node000002_Node000007"><a xlink:title=" ">
<path fill="none" stroke="#63b8ff" d="M245.09,-66.04C268.18,-57.46 303.32,-43.93 333.12,-30.5 333.35,-30.4 333.57,-30.3 333.8,-30.19"/>
<polygon fill="#63b8ff" stroke="#63b8ff" points="335.21,-33.4 342.71,-25.91 332.18,-27.09 335.21,-33.4"/>
</a>
</g>
</g>
<!-- Node8 -->
<g id="Node000008" class="node">
<title>Node8</title>
<g id="a_Node000008"><a xlink:title=" ">
<polygon fill="#e0e0e0" stroke="#999999" points="458.62,-24.88 397.62,-24.88 397.62,-5.63 458.62,-5.63 458.62,-24.88"/>
<text text-anchor="middle" x="428.12" y="-11.38" font-family="Helvetica,sans-Serif" font-size="10.00">type_traits</text>
</a>
</g>
</g>
<!-- Node2&#45;&gt;Node8 -->
<g id="edge7_Node000002_Node000008" class="edge">
<title>Node2&#45;&gt;Node8</title>
<g id="a_edge7_Node000002_Node000008"><a xlink:title=" ">
<path fill="none" stroke="#63b8ff" d="M248.76,-68.42C282.56,-60.3 340.34,-45.82 389.12,-30.5 390.67,-30.01 392.25,-29.5 393.84,-28.98"/>
<polygon fill="#63b8ff" stroke="#63b8ff" points="394.59,-32.42 402.89,-25.84 392.29,-25.81 394.59,-32.42"/>
</a>
</g>
</g>
</g>
</svg>
