<?xml version="1.0" encoding="UTF-8" standalone="no"?>
<!DOCTYPE svg PUBLIC "-//W3C//DTD SVG 1.1//EN"
 "http://www.w3.org/Graphics/SVG/1.1/DTD/svg11.dtd">
<!-- Generated by graphviz version 12.2.0 (20241103.1931)
 -->
<!-- Title: /github/workspace/include/fcarouge/typed_linear_algebra_internal/format.hpp Pages: 1 -->
<svg width="466pt" height="172pt"
 viewBox="0.00 0.00 466.12 171.50" xmlns="http://www.w3.org/2000/svg" xmlns:xlink="http://www.w3.org/1999/xlink">
<g id="graph0" class="graph" transform="scale(1 1) rotate(0) translate(4 167.5)">
<title>/github/workspace/include/fcarouge/typed_linear_algebra_internal/format.hpp</title>
<!-- Node1 -->
<g id="Node000001" class="node">
<title>Node1</title>
<g id="a_Node000001"><a xlink:title="Formatting support for the typed matrix.">
<polygon fill="#999999" stroke="#666666" points="248.25,-163.5 110,-163.5 110,-121.75 248.25,-121.75 248.25,-163.5"/>
<text text-anchor="start" x="118" y="-150" font-family="Helvetica,sans-Serif" font-size="10.00">/github/workspace/include</text>
<text text-anchor="start" x="118" y="-138.75" font-family="Helvetica,sans-Serif" font-size="10.00">/fcarouge/typed_linear</text>
<text text-anchor="middle" x="179.12" y="-127.5" font-family="Helvetica,sans-Serif" font-size="10.00">_algebra_internal/format.hpp</text>
</a>
</g>
</g>
<!-- Node2 -->
<g id="Node000002" class="node">
<title>Node2</title>
<g id="a_Node000002"><a xlink:href="typed__linear__algebra__forward_8hpp.xhtml" target="_top" xlink:title="Authoritative forward declaration header.">
<polygon fill="white" stroke="#666666" points="108.25,-30.5 0,-30.5 0,0 108.25,0 108.25,-30.5"/>
<text text-anchor="start" x="8" y="-17" font-family="Helvetica,sans-Serif" font-size="10.00">fcarouge/typed_linear</text>
<text text-anchor="middle" x="54.12" y="-5.75" font-family="Helvetica,sans-Serif" font-size="10.00">_algebra_forward.hpp</text>
</a>
</g>
</g>
<!-- Node1&#45;&gt;Node2 -->
<g id="edge1_Node000001_Node000002" class="edge">
<title>Node1&#45;&gt;Node2</title>
<g id="a_edge1_Node000001_Node000002"><a xlink:title=" ">
<path fill="none" stroke="#63b8ff" d="M159.04,-121.48C136.55,-98.92 100.17,-62.43 76.7,-38.9"/>
<polygon fill="#63b8ff" stroke="#63b8ff" points="79.3,-36.54 69.76,-31.93 74.34,-41.48 79.3,-36.54"/>
</a>
</g>
</g>
<!-- Node3 -->
<g id="Node000003" class="node">
<title>Node3</title>
<g id="a_Node000003"><a xlink:href="utility_8hpp.xhtml" target="_top" xlink:title=" ">
<polygon fill="white" stroke="#666666" points="237.38,-85.75 180.88,-85.75 180.88,-66.5 237.38,-66.5 237.38,-85.75"/>
<text text-anchor="middle" x="209.12" y="-72.25" font-family="Helvetica,sans-Serif" font-size="10.00">utility.hpp</text>
</a>
</g>
</g>
<!-- Node1&#45;&gt;Node3 -->
<g id="edge2_Node000001_Node000003" class="edge">
<title>Node1&#45;&gt;Node3</title>
<g id="a_edge2_Node000001_Node000003"><a xlink:title=" ">
<path fill="none" stroke="#63b8ff" d="M188.45,-121.57C192.15,-113.62 196.39,-104.51 200.06,-96.61"/>
<polygon fill="#63b8ff" stroke="#63b8ff" points="203.22,-98.11 204.27,-87.57 196.88,-95.16 203.22,-98.11"/>
</a>
</g>
</g>
<!-- Node5 -->
<g id="Node000005" class="node">
<title>Node5</title>
<g id="a_Node000005"><a xlink:title=" ">
<polygon fill="#e0e0e0" stroke="#999999" points="174.25,-24.88 126,-24.88 126,-5.63 174.25,-5.63 174.25,-24.88"/>
<text text-anchor="middle" x="150.12" y="-11.38" font-family="Helvetica,sans-Serif" font-size="10.00">cstddef</text>
</a>
</g>
</g>
<!-- Node1&#45;&gt;Node5 -->
<g id="edge9_Node000001_Node000005" class="edge">
<title>Node1&#45;&gt;Node5</title>
<g id="a_edge9_Node000001_Node000005"><a xlink:title=" ">
<path fill="none" stroke="#63b8ff" d="M174.47,-121.48C169.04,-98.01 160.12,-59.48 154.72,-36.12"/>
<polygon fill="#63b8ff" stroke="#63b8ff" points="158.19,-35.61 152.53,-26.65 151.38,-37.18 158.19,-35.61"/>
</a>
</g>
</g>
<!-- Node9 -->
<g id="Node000009" class="node">
<title>Node9</title>
<g id="a_Node000009"><a xlink:title=" ">
<polygon fill="#e0e0e0" stroke="#999999" points="299,-85.75 255.25,-85.75 255.25,-66.5 299,-66.5 299,-85.75"/>
<text text-anchor="middle" x="277.12" y="-72.25" font-family="Helvetica,sans-Serif" font-size="10.00">format</text>
</a>
</g>
</g>
<!-- Node1&#45;&gt;Node9 -->
<g id="edge10_Node000001_Node000009" class="edge">
<title>Node1&#45;&gt;Node9</title>
<g id="a_edge10_Node000001_Node000009"><a xlink:title=" ">
<path fill="none" stroke="#63b8ff" d="M209.86,-121.39C224.18,-111.97 240.92,-100.96 254.12,-92.27"/>
<polygon fill="#63b8ff" stroke="#63b8ff" points="255.73,-95.4 262.16,-86.98 251.88,-89.55 255.73,-95.4"/>
</a>
</g>
</g>
<!-- Node3&#45;&gt;Node2 -->
<g id="edge3_Node000003_Node000002" class="edge">
<title>Node3&#45;&gt;Node2</title>
<g id="a_edge3_Node000003_Node000002"><a xlink:title=" ">
<path fill="none" stroke="#63b8ff" d="M185.25,-66.05C163.51,-57.8 130.72,-45.34 103.38,-34.96"/>
<polygon fill="#63b8ff" stroke="#63b8ff" points="104.82,-31.76 94.23,-31.48 102.33,-38.3 104.82,-31.76"/>
</a>
</g>
</g>
<!-- Node4 -->
<g id="Node000004" class="node">
<title>Node4</title>
<g id="a_Node000004"><a xlink:title=" ">
<polygon fill="#e0e0e0" stroke="#999999" points="382,-24.88 326.25,-24.88 326.25,-5.63 382,-5.63 382,-24.88"/>
<text text-anchor="middle" x="354.12" y="-11.38" font-family="Helvetica,sans-Serif" font-size="10.00">concepts</text>
</a>
</g>
</g>
<!-- Node3&#45;&gt;Node4 -->
<g id="edge4_Node000003_Node000004" class="edge">
<title>Node3&#45;&gt;Node4</title>
<g id="a_edge4_Node000003_Node000004"><a xlink:title=" ">
<path fill="none" stroke="#63b8ff" d="M231.46,-66.05C255.48,-56.3 293.91,-40.7 321.35,-29.56"/>
<polygon fill="#63b8ff" stroke="#63b8ff" points="322.65,-32.81 330.6,-25.8 320.01,-26.32 322.65,-32.81"/>
</a>
</g>
</g>
<!-- Node3&#45;&gt;Node5 -->
<g id="edge5_Node000003_Node000005" class="edge">
<title>Node3&#45;&gt;Node5</title>
<g id="a_edge5_Node000003_Node000005"><a xlink:title=" ">
<path fill="none" stroke="#63b8ff" d="M200.16,-66.18C191.41,-57.45 177.88,-43.94 167.09,-33.18"/>
<polygon fill="#63b8ff" stroke="#63b8ff" points="169.79,-30.93 160.24,-26.35 164.85,-35.89 169.79,-30.93"/>
</a>
</g>
</g>
<!-- Node6 -->
<g id="Node000006" class="node">
<title>Node6</title>
<g id="a_Node000006"><a xlink:title=" ">
<polygon fill="#e0e0e0" stroke="#999999" points="458.12,-24.88 400.12,-24.88 400.12,-5.63 458.12,-5.63 458.12,-24.88"/>
<text text-anchor="middle" x="429.12" y="-11.38" font-family="Helvetica,sans-Serif" font-size="10.00">functional</text>
</a>
</g>
</g>
<!-- Node3&#45;&gt;Node6 -->
<g id="edge6_Node000003_Node000006" class="edge">
<title>Node3&#45;&gt;Node6</title>
<g id="a_edge6_Node000003_Node000006"><a xlink:title=" ">
<path fill="none" stroke="#63b8ff" d="M237.73,-68.31C285.21,-56.96 376.52,-35.01 391.12,-30.5 392.68,-30.02 394.27,-29.51 395.86,-28.98"/>
<polygon fill="#63b8ff" stroke="#63b8ff" points="396.67,-32.41 404.94,-25.79 394.35,-25.8 396.67,-32.41"/>
</a>
</g>
</g>
<!-- Node7 -->
<g id="Node000007" class="node">
<title>Node7</title>
<g id="a_Node000007"><a xlink:title=" ">
<polygon fill="#e0e0e0" stroke="#999999" points="229.62,-24.88 192.62,-24.88 192.62,-5.63 229.62,-5.63 229.62,-24.88"/>
<text text-anchor="middle" x="211.12" y="-11.38" font-family="Helvetica,sans-Serif" font-size="10.00">tuple</text>
</a>
</g>
</g>
<!-- Node3&#45;&gt;Node7 -->
<g id="edge7_Node000003_Node000007" class="edge">
<title>Node3&#45;&gt;Node7</title>
<g id="a_edge7_Node000003_Node000007"><a xlink:title=" ">
<path fill="none" stroke="#63b8ff" d="M209.43,-66.18C209.7,-58.32 210.09,-46.57 210.44,-36.45"/>
<polygon fill="#63b8ff" stroke="#63b8ff" points="213.93,-36.9 210.77,-26.79 206.93,-36.66 213.93,-36.9"/>
</a>
</g>
</g>
<!-- Node8 -->
<g id="Node000008" class="node">
<title>Node8</title>
<g id="a_Node000008"><a xlink:title=" ">
<polygon fill="#e0e0e0" stroke="#999999" points="308.62,-24.88 247.62,-24.88 247.62,-5.63 308.62,-5.63 308.62,-24.88"/>
<text text-anchor="middle" x="278.12" y="-11.38" font-family="Helvetica,sans-Serif" font-size="10.00">type_traits</text>
</a>
</g>
</g>
<!-- Node3&#45;&gt;Node8 -->
<g id="edge8_Node000003_Node000008" class="edge">
<title>Node3&#45;&gt;Node8</title>
<g id="a_edge8_Node000003_Node000008"><a xlink:title=" ">
<path fill="none" stroke="#63b8ff" d="M219.6,-66.18C230.04,-57.28 246.3,-43.41 259.03,-32.54"/>
<polygon fill="#63b8ff" stroke="#63b8ff" points="261.06,-35.41 266.4,-26.26 256.52,-30.09 261.06,-35.41"/>
</a>
</g>
</g>
</g>
</svg>
