<?xml version="1.0" encoding="UTF-8" standalone="no"?>
<!DOCTYPE svg PUBLIC "-//W3C//DTD SVG 1.1//EN"
 "http://www.w3.org/Graphics/SVG/1.1/DTD/svg11.dtd">
<!-- Generated by graphviz version 12.2.0 (20241103.1931)
 -->
<!-- Title: /github/workspace/include/fcarouge/typed_linear_algebra_internal/format.hpp Pages: 1 -->
<svg width="341pt" height="160pt"
 viewBox="0.00 0.00 340.62 160.25" xmlns="http://www.w3.org/2000/svg" xmlns:xlink="http://www.w3.org/1999/xlink">

<svg id="main" version="1.1" xmlns="http://www.w3.org/2000/svg" xmlns:xlink="http://www.w3.org/1999/xlink" xml:space="preserve">

<style type="text/css"><![CDATA[
.node, .edge {opacity: 0.7;}
.node.selected, .edge.selected {opacity: 1;}
.edge:hover path { stroke: red; }
.edge:hover polygon { stroke: red; fill: red; }
]]></style>
<script type="application/ecmascript" xlink:href="svg.min.js"/>
<svg id="graph" class="graph">
<g id="graph0" class="graph" transform="scale(1 1) rotate(0) translate(4 156.25)">
<title>/github/workspace/include/fcarouge/typed_linear_algebra_internal/format.hpp</title>
<!-- Node1 -->
<g id="Node000001" class="node">
<title>Node1</title>
<g id="a_Node000001"><a xlink:title="Formatting support for the typed matrix.">
<polygon fill="#999999" stroke="#666666" points="200.25,-152.25 62,-152.25 62,-110.5 200.25,-110.5 200.25,-152.25"/>
<text text-anchor="start" x="70" y="-138.75" font-family="Helvetica,sans-Serif" font-size="10.00">/github/workspace/include</text>
<text text-anchor="start" x="70" y="-127.5" font-family="Helvetica,sans-Serif" font-size="10.00">/fcarouge/typed_linear</text>
<text text-anchor="middle" x="131.12" y="-116.25" font-family="Helvetica,sans-Serif" font-size="10.00">_algebra_internal/format.hpp</text>
</a>
</g>
</g>
<!-- Node2 -->
<g id="Node000002" class="node">
<title>Node2</title>
<g id="a_Node000002"><a xlink:href="utility_8hpp.xhtml" target="_top" xlink:title=" ">
<polygon fill="white" stroke="#666666" points="159.38,-74.5 102.88,-74.5 102.88,-55.25 159.38,-55.25 159.38,-74.5"/>
<text text-anchor="middle" x="131.12" y="-61" font-family="Helvetica,sans-Serif" font-size="10.00">utility.hpp</text>
</a>
</g>
</g>
<!-- Node1&#45;&gt;Node2 -->
<g id="edge1_Node000001_Node000002" class="edge">
<title>Node1&#45;&gt;Node2</title>
<g id="a_edge1_Node000001_Node000002"><a xlink:title=" ">
<path fill="none" stroke="#63b8ff" d="M131.12,-110.32C131.12,-102.65 131.12,-93.89 131.12,-86.2"/>
<polygon fill="#63b8ff" stroke="#63b8ff" points="134.63,-86.46 131.13,-76.46 127.63,-86.46 134.63,-86.46"/>
</a>
</g>
</g>
<!-- Node4 -->
<g id="Node000004" class="node">
<title>Node4</title>
<g id="a_Node000004"><a xlink:title=" ">
<polygon fill="#e0e0e0" stroke="#999999" points="48.25,-19.25 0,-19.25 0,0 48.25,0 48.25,-19.25"/>
<text text-anchor="middle" x="24.12" y="-5.75" font-family="Helvetica,sans-Serif" font-size="10.00">cstddef</text>
</a>
</g>
</g>
<!-- Node1&#45;&gt;Node4 -->
<g id="edge7_Node000001_Node000004" class="edge">
<title>Node1&#45;&gt;Node4</title>
<g id="a_edge7_Node000001_Node000004"><a xlink:title=" ">
<path fill="none" stroke="#63b8ff" d="M112.97,-110.06C92.41,-87.04 59.22,-49.9 39.76,-28.12"/>
<polygon fill="#63b8ff" stroke="#63b8ff" points="42.39,-25.81 33.11,-20.68 37.17,-30.47 42.39,-25.81"/>
</a>
</g>
</g>
<!-- Node8 -->
<g id="Node000008" class="node">
<title>Node8</title>
<g id="a_Node000008"><a xlink:title=" ">
<polygon fill="#e0e0e0" stroke="#999999" points="221,-74.5 177.25,-74.5 177.25,-55.25 221,-55.25 221,-74.5"/>
<text text-anchor="middle" x="199.12" y="-61" font-family="Helvetica,sans-Serif" font-size="10.00">format</text>
</a>
</g>
</g>
<!-- Node1&#45;&gt;Node8 -->
<g id="edge8_Node000001_Node000008" class="edge">
<title>Node1&#45;&gt;Node8</title>
<g id="a_edge8_Node000001_Node000008"><a xlink:title=" ">
<path fill="none" stroke="#63b8ff" d="M152.27,-110.32C161.62,-101.44 172.51,-91.12 181.43,-82.66"/>
<polygon fill="#63b8ff" stroke="#63b8ff" points="183.62,-85.41 188.46,-75.99 178.8,-80.33 183.62,-85.41"/>
</a>
</g>
</g>
<!-- Node3 -->
<g id="Node000003" class="node">
<title>Node3</title>
<g id="a_Node000003"><a xlink:title=" ">
<polygon fill="#e0e0e0" stroke="#999999" points="122,-19.25 66.25,-19.25 66.25,0 122,0 122,-19.25"/>
<text text-anchor="middle" x="94.12" y="-5.75" font-family="Helvetica,sans-Serif" font-size="10.00">concepts</text>
</a>
</g>
</g>
<!-- Node2&#45;&gt;Node3 -->
<g id="edge2_Node000002_Node000003" class="edge">
<title>Node2&#45;&gt;Node3</title>
<g id="a_edge2_Node000002_Node000003"><a xlink:title=" ">
<path fill="none" stroke="#63b8ff" d="M125.02,-55.08C120.06,-47.96 112.92,-37.68 106.75,-28.8"/>
<polygon fill="#63b8ff" stroke="#63b8ff" points="109.81,-27.07 101.23,-20.85 104.06,-31.06 109.81,-27.07"/>
</a>
</g>
</g>
<!-- Node2&#45;&gt;Node4 -->
<g id="edge3_Node000002_Node000004" class="edge">
<title>Node2&#45;&gt;Node4</title>
<g id="a_edge3_Node000002_Node000004"><a xlink:title=" ">
<path fill="none" stroke="#63b8ff" d="M112.97,-54.84C96.45,-46.62 71.78,-34.34 52.63,-24.81"/>
<polygon fill="#63b8ff" stroke="#63b8ff" points="54.23,-21.7 43.72,-20.38 51.11,-27.97 54.23,-21.7"/>
</a>
</g>
</g>
<!-- Node5 -->
<g id="Node000005" class="node">
<title>Node5</title>
<g id="a_Node000005"><a xlink:title=" ">
<polygon fill="#e0e0e0" stroke="#999999" points="198.12,-19.25 140.12,-19.25 140.12,0 198.12,0 198.12,-19.25"/>
<text text-anchor="middle" x="169.12" y="-5.75" font-family="Helvetica,sans-Serif" font-size="10.00">functional</text>
</a>
</g>
</g>
<!-- Node2&#45;&gt;Node5 -->
<g id="edge4_Node000002_Node000005" class="edge">
<title>Node2&#45;&gt;Node5</title>
<g id="a_edge4_Node000002_Node000005"><a xlink:title=" ">
<path fill="none" stroke="#63b8ff" d="M137.4,-55.08C142.48,-47.96 149.82,-37.68 156.16,-28.8"/>
<polygon fill="#63b8ff" stroke="#63b8ff" points="158.87,-31.01 161.83,-20.84 153.18,-26.95 158.87,-31.01"/>
</a>
</g>
</g>
<!-- Node6 -->
<g id="Node000006" class="node">
<title>Node6</title>
<g id="a_Node000006"><a xlink:title=" ">
<polygon fill="#e0e0e0" stroke="#999999" points="253.62,-19.25 216.62,-19.25 216.62,0 253.62,0 253.62,-19.25"/>
<text text-anchor="middle" x="235.12" y="-5.75" font-family="Helvetica,sans-Serif" font-size="10.00">tuple</text>
</a>
</g>
</g>
<!-- Node2&#45;&gt;Node6 -->
<g id="edge5_Node000002_Node000006" class="edge">
<title>Node2&#45;&gt;Node6</title>
<g id="a_edge5_Node000002_Node000006"><a xlink:title=" ">
<path fill="none" stroke="#63b8ff" d="M148.77,-54.84C164.75,-46.66 188.58,-34.46 207.16,-24.94"/>
<polygon fill="#63b8ff" stroke="#63b8ff" points="208.74,-28.07 216.05,-20.39 205.55,-21.83 208.74,-28.07"/>
</a>
</g>
</g>
<!-- Node7 -->
<g id="Node000007" class="node">
<title>Node7</title>
<g id="a_Node000007"><a xlink:title=" ">
<polygon fill="#e0e0e0" stroke="#999999" points="332.62,-19.25 271.62,-19.25 271.62,0 332.62,0 332.62,-19.25"/>
<text text-anchor="middle" x="302.12" y="-5.75" font-family="Helvetica,sans-Serif" font-size="10.00">type_traits</text>
</a>
</g>
</g>
<!-- Node2&#45;&gt;Node7 -->
<g id="edge6_Node000002_Node000007" class="edge">
<title>Node2&#45;&gt;Node7</title>
<g id="a_edge6_Node000002_Node000007"><a xlink:title=" ">
<path fill="none" stroke="#63b8ff" d="M159.75,-54.96C187.81,-46.22 230.84,-32.82 262.25,-23.04"/>
<polygon fill="#63b8ff" stroke="#63b8ff" points="262.88,-26.51 271.39,-20.2 260.8,-19.83 262.88,-26.51"/>
</a>
</g>
</g>
</g>
</svg>
</svg>

<style type='text/css'>
<![CDATA[
[data-mouse-over-selected='false'] { opacity: 0.7; }
[data-mouse-over-selected='true']  { opacity: 1.0; }
]]>
</style>
<script type="application/ecmascript"><![CDATA[
document.addEventListener('DOMContentLoaded', (event) => {
  highlightEdges();
  highlightAdjacentNodes();
});
]]></script>
</svg>
