<?xml version="1.0" encoding="UTF-8" standalone="no"?>
<!DOCTYPE svg PUBLIC "-//W3C//DTD SVG 1.1//EN"
 "http://www.w3.org/Graphics/SVG/1.1/DTD/svg11.dtd">
<!-- Generated by graphviz version 12.2.0 (20241103.1931)
 -->
<!-- Title: /github/workspace/include/fcarouge/typed_linear_algebra_internal/format.hpp Pages: 1 -->
<svg width="488pt" height="272pt"
 viewBox="0.00 0.00 487.88 271.75" xmlns="http://www.w3.org/2000/svg" xmlns:xlink="http://www.w3.org/1999/xlink">
<g id="graph0" class="graph" transform="scale(1 1) rotate(0) translate(4 267.75)">
<title>/github/workspace/include/fcarouge/typed_linear_algebra_internal/format.hpp</title>
<!-- Node1 -->
<g id="Node000001" class="node">
<title>Node1</title>
<g id="a_Node000001"><a xlink:title="Formatting support for the typed matrix.">
<polygon fill="#999999" stroke="#666666" points="273.12,-263.75 134.88,-263.75 134.88,-222 273.12,-222 273.12,-263.75"/>
<text text-anchor="start" x="142.88" y="-250.25" font-family="Helvetica,sans-Serif" font-size="10.00">/github/workspace/include</text>
<text text-anchor="start" x="142.88" y="-239" font-family="Helvetica,sans-Serif" font-size="10.00">/fcarouge/typed_linear</text>
<text text-anchor="middle" x="204" y="-227.75" font-family="Helvetica,sans-Serif" font-size="10.00">_algebra_internal/format.hpp</text>
</a>
</g>
</g>
<!-- Node2 -->
<g id="Node000002" class="node">
<title>Node2</title>
<g id="a_Node000002"><a xlink:href="typed__linear__algebra_8hpp.xhtml" target="_top" xlink:title="Typed linear algebra implementation.">
<polygon fill="white" stroke="#666666" points="268.62,-186 139.38,-186 139.38,-144.25 268.62,-144.25 268.62,-186"/>
<text text-anchor="start" x="147.38" y="-172.5" font-family="Helvetica,sans-Serif" font-size="10.00">/github/workspace/include</text>
<text text-anchor="start" x="147.38" y="-161.25" font-family="Helvetica,sans-Serif" font-size="10.00">/fcarouge/typed_linear</text>
<text text-anchor="middle" x="204" y="-150" font-family="Helvetica,sans-Serif" font-size="10.00">_algebra.hpp</text>
</a>
</g>
</g>
<!-- Node1&#45;&gt;Node2 -->
<g id="edge1_Node000001_Node000002" class="edge">
<title>Node1&#45;&gt;Node2</title>
<g id="a_edge1_Node000001_Node000002"><a xlink:title=" ">
<path fill="none" stroke="#63b8ff" d="M204,-210.25C204,-202.21 204,-193.79 204,-186.48"/>
<polygon fill="#63b8ff" stroke="#63b8ff" points="200.5,-210.06 204,-220.06 207.5,-210.06 200.5,-210.06"/>
</a>
</g>
</g>
<!-- Node3 -->
<g id="Node000003" class="node">
<title>Node3</title>
<g id="a_Node000003"><a xlink:href="mp__units__eigen_8cpp.xhtml" target="_top" xlink:title="Unit safe linear algebra with mp&#45;units and Eigen.">
<polygon fill="white" stroke="#666666" points="130,-108.25 0,-108.25 0,-77.75 130,-77.75 130,-108.25"/>
<text text-anchor="start" x="8" y="-94.75" font-family="Helvetica,sans-Serif" font-size="10.00">/github/workspace/sample</text>
<text text-anchor="middle" x="65" y="-83.5" font-family="Helvetica,sans-Serif" font-size="10.00">/mp_units_eigen.cpp</text>
</a>
</g>
</g>
<!-- Node2&#45;&gt;Node3 -->
<g id="edge2_Node000002_Node000003" class="edge">
<title>Node2&#45;&gt;Node3</title>
<g id="a_edge2_Node000002_Node000003"><a xlink:title=" ">
<path fill="none" stroke="#63b8ff" d="M153.58,-138.69C133.58,-128.6 111.29,-117.36 94.08,-108.67"/>
<polygon fill="#63b8ff" stroke="#63b8ff" points="151.94,-141.78 162.44,-143.16 155.09,-135.53 151.94,-141.78"/>
</a>
</g>
</g>
<!-- Node4 -->
<g id="Node000004" class="node">
<title>Node4</title>
<g id="a_Node000004"><a xlink:href="eigen_8hpp.xhtml" target="_top" xlink:title="Linear algebra facade for Eigen3 third party implementation.">
<polygon fill="white" stroke="#666666" points="316.38,-108.25 185.62,-108.25 185.62,-77.75 316.38,-77.75 316.38,-108.25"/>
<text text-anchor="start" x="193.62" y="-94.75" font-family="Helvetica,sans-Serif" font-size="10.00">/github/workspace/support</text>
<text text-anchor="middle" x="251" y="-83.5" font-family="Helvetica,sans-Serif" font-size="10.00">/eigen/fcarouge/eigen.hpp</text>
</a>
</g>
</g>
<!-- Node2&#45;&gt;Node4 -->
<g id="edge3_Node000002_Node000004" class="edge">
<title>Node2&#45;&gt;Node4</title>
<g id="a_edge3_Node000002_Node000004"><a xlink:title=" ">
<path fill="none" stroke="#63b8ff" d="M223.92,-134.4C229.94,-125.42 236.28,-115.96 241.31,-108.45"/>
<polygon fill="#63b8ff" stroke="#63b8ff" points="221.1,-132.33 218.44,-142.58 226.91,-136.23 221.1,-132.33"/>
</a>
</g>
</g>
<!-- Node6 -->
<g id="Node000006" class="node">
<title>Node6</title>
<g id="a_Node000006"><a xlink:href="eigexed_2fcarouge_2linalg_8hpp.xhtml" target="_top" xlink:title="Scalar type linear algebra with Eigen implementation.">
<polygon fill="white" stroke="#666666" points="168,-36.12 32,-36.12 32,-5.62 168,-5.62 168,-36.12"/>
<text text-anchor="start" x="40" y="-22.62" font-family="Helvetica,sans-Serif" font-size="10.00">/github/workspace/support</text>
<text text-anchor="middle" x="100" y="-11.38" font-family="Helvetica,sans-Serif" font-size="10.00">/eigexed/fcarouge/linalg.hpp</text>
</a>
</g>
</g>
<!-- Node2&#45;&gt;Node6 -->
<g id="edge7_Node000002_Node000006" class="edge">
<title>Node2&#45;&gt;Node6</title>
<g id="a_edge7_Node000002_Node000006"><a xlink:title=" ">
<path fill="none" stroke="#63b8ff" d="M182.62,-134.88C160.64,-104.82 127.33,-59.25 110.51,-36.25"/>
<polygon fill="#63b8ff" stroke="#63b8ff" points="179.7,-136.82 188.43,-142.82 185.35,-132.69 179.7,-136.82"/>
</a>
</g>
</g>
<!-- Node7 -->
<g id="Node000007" class="node">
<title>Node7</title>
<g id="a_Node000007"><a xlink:href="nested__typed__eigen_2fcarouge_2linalg_8hpp.xhtml" target="_top" xlink:title="Scalar type nested linear algebra with Eigen implementation.">
<polygon fill="white" stroke="#666666" points="479.88,-41.75 334.12,-41.75 334.12,0 479.88,0 479.88,-41.75"/>
<text text-anchor="start" x="342.12" y="-28.25" font-family="Helvetica,sans-Serif" font-size="10.00">/github/workspace/support</text>
<text text-anchor="start" x="342.12" y="-17" font-family="Helvetica,sans-Serif" font-size="10.00">/nested_typed_eigen/fcarouge</text>
<text text-anchor="middle" x="407" y="-5.75" font-family="Helvetica,sans-Serif" font-size="10.00">/linalg.hpp</text>
</a>
</g>
</g>
<!-- Node2&#45;&gt;Node7 -->
<g id="edge8_Node000002_Node000007" class="edge">
<title>Node2&#45;&gt;Node7</title>
<g id="a_edge8_Node000002_Node000007"><a xlink:title=" ">
<path fill="none" stroke="#63b8ff" d="M269.91,-139.14C288.53,-130.66 308.26,-120.25 325,-108.25 351.38,-89.34 376.25,-61.13 391.53,-42.15"/>
<polygon fill="#63b8ff" stroke="#63b8ff" points="268.53,-135.92 260.8,-143.16 271.36,-142.33 268.53,-135.92"/>
</a>
</g>
</g>
<!-- Node5 -->
<g id="Node000005" class="node">
<title>Node5</title>
<g id="a_Node000005"><a xlink:href="eigen_2fcarouge_2linalg_8hpp.xhtml" target="_top" xlink:title=" ">
<polygon fill="white" stroke="#666666" points="316.38,-36.12 185.62,-36.12 185.62,-5.62 316.38,-5.62 316.38,-36.12"/>
<text text-anchor="start" x="193.62" y="-22.62" font-family="Helvetica,sans-Serif" font-size="10.00">/github/workspace/support</text>
<text text-anchor="middle" x="251" y="-11.38" font-family="Helvetica,sans-Serif" font-size="10.00">/eigen/fcarouge/linalg.hpp</text>
</a>
</g>
</g>
<!-- Node4&#45;&gt;Node5 -->
<g id="edge4_Node000004_Node000005" class="edge">
<title>Node4&#45;&gt;Node5</title>
<g id="a_edge4_Node000004_Node000005"><a xlink:title=" ">
<path fill="none" stroke="#63b8ff" d="M251,-66.02C251,-56.01 251,-44.94 251,-36.39"/>
<polygon fill="#63b8ff" stroke="#63b8ff" points="247.5,-65.96 251,-75.96 254.5,-65.96 247.5,-65.96"/>
</a>
</g>
</g>
<!-- Node4&#45;&gt;Node6 -->
<g id="edge5_Node000004_Node000006" class="edge">
<title>Node4&#45;&gt;Node6</title>
<g id="a_edge5_Node000004_Node000006"><a xlink:title=" ">
<path fill="none" stroke="#63b8ff" d="M208.9,-72.45C184.41,-61.08 154.05,-46.98 131.61,-36.56"/>
<polygon fill="#63b8ff" stroke="#63b8ff" points="207.43,-75.62 217.97,-76.66 210.38,-69.28 207.43,-75.62"/>
</a>
</g>
</g>
<!-- Node4&#45;&gt;Node7 -->
<g id="edge6_Node000004_Node000007" class="edge">
<title>Node4&#45;&gt;Node7</title>
<g id="a_edge6_Node000004_Node000007"><a xlink:title=" ">
<path fill="none" stroke="#63b8ff" d="M293.99,-72.67C315.1,-63.18 340.53,-51.75 361.92,-42.14"/>
<polygon fill="#63b8ff" stroke="#63b8ff" points="292.77,-69.39 285.08,-76.68 295.64,-75.77 292.77,-69.39"/>
</a>
</g>
</g>
</g>
</svg>
