<?xml version="1.0" encoding="UTF-8" standalone="no"?>
<!DOCTYPE svg PUBLIC "-//W3C//DTD SVG 1.1//EN"
 "http://www.w3.org/Graphics/SVG/1.1/DTD/svg11.dtd">
<!-- Generated by graphviz version 12.2.0 (20241103.1931)
 -->
<!-- Title: /github/workspace/test/matrix_one_norm/2x2_chrono_std.cpp Pages: 1 -->
<svg width="501pt" height="105pt"
 viewBox="0.00 0.00 501.00 105.00" xmlns="http://www.w3.org/2000/svg" xmlns:xlink="http://www.w3.org/1999/xlink">
<g id="graph0" class="graph" transform="scale(1 1) rotate(0) translate(4 101)">
<title>/github/workspace/test/matrix_one_norm/2x2_chrono_std.cpp</title>
<!-- Node1 -->
<g id="Node000001" class="node">
<title>Node1</title>
<g id="a_Node000001"><a xlink:title=" ">
<polygon fill="#999999" stroke="#666666" points="342.38,-97 196.62,-97 196.62,-55.25 342.38,-55.25 342.38,-97"/>
<text text-anchor="start" x="204.62" y="-83.5" font-family="Helvetica,sans-Serif" font-size="10.00">/github/workspace/test</text>
<text text-anchor="start" x="204.62" y="-72.25" font-family="Helvetica,sans-Serif" font-size="10.00">/matrix_one_norm/2x2_chrono</text>
<text text-anchor="middle" x="269.5" y="-61" font-family="Helvetica,sans-Serif" font-size="10.00">_std.cpp</text>
</a>
</g>
</g>
<!-- Node2 -->
<g id="Node000002" class="node">
<title>Node2</title>
<g id="a_Node000002"><a xlink:title=" ">
<polygon fill="#e0e0e0" stroke="#999999" points="97,-19.25 0,-19.25 0,0 97,0 97,-19.25"/>
<text text-anchor="middle" x="48.5" y="-5.75" font-family="Helvetica,sans-Serif" font-size="10.00">fcarouge/linalg.hpp</text>
</a>
</g>
</g>
<!-- Node1&#45;&gt;Node2 -->
<g id="edge1_Node000001_Node000002" class="edge">
<title>Node1&#45;&gt;Node2</title>
<g id="a_edge1_Node000001_Node000002"><a xlink:title=" ">
<path fill="none" stroke="#63b8ff" d="M199.88,-54.81C163.93,-44.31 121.27,-31.86 90.41,-22.86"/>
<polygon fill="#63b8ff" stroke="#63b8ff" points="91.64,-19.57 81.06,-20.13 89.68,-26.29 91.64,-19.57"/>
</a>
</g>
</g>
<!-- Node3 -->
<g id="Node000003" class="node">
<title>Node3</title>
<g id="a_Node000003"><a xlink:title=" ">
<polygon fill="#e0e0e0" stroke="#999999" points="163.62,-19.25 115.38,-19.25 115.38,0 163.62,0 163.62,-19.25"/>
<text text-anchor="middle" x="139.5" y="-5.75" font-family="Helvetica,sans-Serif" font-size="10.00">cassert</text>
</a>
</g>
</g>
<!-- Node1&#45;&gt;Node3 -->
<g id="edge2_Node000001_Node000003" class="edge">
<title>Node1&#45;&gt;Node3</title>
<g id="a_edge2_Node000001_Node000003"><a xlink:title=" ">
<path fill="none" stroke="#63b8ff" d="M228.72,-54.89C208.99,-45.1 185.78,-33.59 167.98,-24.76"/>
<polygon fill="#63b8ff" stroke="#63b8ff" points="169.55,-21.63 159.03,-20.32 166.44,-27.9 169.55,-21.63"/>
</a>
</g>
</g>
<!-- Node4 -->
<g id="Node000004" class="node">
<title>Node4</title>
<g id="a_Node000004"><a xlink:title=" ">
<polygon fill="#e0e0e0" stroke="#999999" points="227.12,-19.25 181.88,-19.25 181.88,0 227.12,0 227.12,-19.25"/>
<text text-anchor="middle" x="204.5" y="-5.75" font-family="Helvetica,sans-Serif" font-size="10.00">chrono</text>
</a>
</g>
</g>
<!-- Node1&#45;&gt;Node4 -->
<g id="edge3_Node000001_Node000004" class="edge">
<title>Node1&#45;&gt;Node4</title>
<g id="a_edge3_Node000001_Node000004"><a xlink:title=" ">
<path fill="none" stroke="#63b8ff" d="M249.29,-55.07C240.44,-46.29 230.16,-36.09 221.69,-27.68"/>
<polygon fill="#63b8ff" stroke="#63b8ff" points="224.28,-25.32 214.72,-20.76 219.35,-30.29 224.28,-25.32"/>
</a>
</g>
</g>
<!-- Node5 -->
<g id="Node000005" class="node">
<title>Node5</title>
<g id="a_Node000005"><a xlink:title=" ">
<polygon fill="#e0e0e0" stroke="#999999" points="293.62,-19.25 245.38,-19.25 245.38,0 293.62,0 293.62,-19.25"/>
<text text-anchor="middle" x="269.5" y="-5.75" font-family="Helvetica,sans-Serif" font-size="10.00">cstddef</text>
</a>
</g>
</g>
<!-- Node1&#45;&gt;Node5 -->
<g id="edge4_Node000001_Node000005" class="edge">
<title>Node1&#45;&gt;Node5</title>
<g id="a_edge4_Node000001_Node000005"><a xlink:title=" ">
<path fill="none" stroke="#63b8ff" d="M269.5,-55.07C269.5,-47.4 269.5,-38.64 269.5,-30.95"/>
<polygon fill="#63b8ff" stroke="#63b8ff" points="273,-31.21 269.5,-21.21 266,-31.21 273,-31.21"/>
</a>
</g>
</g>
<!-- Node6 -->
<g id="Node000006" class="node">
<title>Node6</title>
<g id="a_Node000006"><a xlink:title=" ">
<polygon fill="#e0e0e0" stroke="#999999" points="369.5,-19.25 311.5,-19.25 311.5,0 369.5,0 369.5,-19.25"/>
<text text-anchor="middle" x="340.5" y="-5.75" font-family="Helvetica,sans-Serif" font-size="10.00">functional</text>
</a>
</g>
</g>
<!-- Node1&#45;&gt;Node6 -->
<g id="edge5_Node000001_Node000006" class="edge">
<title>Node1&#45;&gt;Node6</title>
<g id="a_edge5_Node000001_Node000006"><a xlink:title=" ">
<path fill="none" stroke="#63b8ff" d="M291.58,-55.07C301.35,-46.19 312.71,-35.87 322.02,-27.41"/>
<polygon fill="#63b8ff" stroke="#63b8ff" points="324.35,-30.03 329.4,-20.71 319.64,-24.85 324.35,-30.03"/>
</a>
</g>
</g>
<!-- Node7 -->
<g id="Node000007" class="node">
<title>Node7</title>
<g id="a_Node000007"><a xlink:title=" ">
<polygon fill="#e0e0e0" stroke="#999999" points="437.75,-19.25 387.25,-19.25 387.25,0 437.75,0 437.75,-19.25"/>
<text text-anchor="middle" x="412.5" y="-5.75" font-family="Helvetica,sans-Serif" font-size="10.00">mdspan</text>
</a>
</g>
</g>
<!-- Node1&#45;&gt;Node7 -->
<g id="edge6_Node000001_Node000007" class="edge">
<title>Node1&#45;&gt;Node7</title>
<g id="a_edge6_Node000001_Node000007"><a xlink:title=" ">
<path fill="none" stroke="#63b8ff" d="M314.35,-54.89C336.47,-44.92 362.55,-33.15 382.27,-24.26"/>
<polygon fill="#63b8ff" stroke="#63b8ff" points="383.45,-27.57 391.12,-20.27 380.57,-21.19 383.45,-27.57"/>
</a>
</g>
</g>
<!-- Node8 -->
<g id="Node000008" class="node">
<title>Node8</title>
<g id="a_Node000008"><a xlink:title=" ">
<polygon fill="#e0e0e0" stroke="#999999" points="493,-19.25 456,-19.25 456,0 493,0 493,-19.25"/>
<text text-anchor="middle" x="474.5" y="-5.75" font-family="Helvetica,sans-Serif" font-size="10.00">tuple</text>
</a>
</g>
</g>
<!-- Node1&#45;&gt;Node8 -->
<g id="edge7_Node000001_Node000008" class="edge">
<title>Node1&#45;&gt;Node8</title>
<g id="a_edge7_Node000001_Node000008"><a xlink:title=" ">
<path fill="none" stroke="#63b8ff" d="M334.08,-54.81C371.22,-43.12 416.08,-29.01 444.94,-19.93"/>
<polygon fill="#63b8ff" stroke="#63b8ff" points="445.96,-23.27 454.45,-16.93 443.86,-16.6 445.96,-23.27"/>
</a>
</g>
</g>
</g>
</svg>
