<?xml version="1.0" encoding="UTF-8" standalone="no"?>
<!DOCTYPE svg PUBLIC "-//W3C//DTD SVG 1.1//EN"
 "http://www.w3.org/Graphics/SVG/1.1/DTD/svg11.dtd">
<!-- Generated by graphviz version 12.2.0 (20241103.1931)
 -->
<!-- Title: /github/workspace/benchmark/mdspan_product.cpp Pages: 1 -->
<svg width="585pt" height="94pt"
 viewBox="0.00 0.00 584.88 93.75" xmlns="http://www.w3.org/2000/svg" xmlns:xlink="http://www.w3.org/1999/xlink">
<g id="graph0" class="graph" transform="scale(1 1) rotate(0) translate(4 89.75)">
<title>/github/workspace/benchmark/mdspan_product.cpp</title>
<!-- Node1 -->
<g id="Node000001" class="node">
<title>Node1</title>
<g id="a_Node000001"><a xlink:title=" ">
<polygon fill="#999999" stroke="#666666" points="376.62,-85.75 230.12,-85.75 230.12,-55.25 376.62,-55.25 376.62,-85.75"/>
<text text-anchor="start" x="238.12" y="-72.25" font-family="Helvetica,sans-Serif" font-size="10.00">/github/workspace/benchmark</text>
<text text-anchor="middle" x="303.38" y="-61" font-family="Helvetica,sans-Serif" font-size="10.00">/mdspan_product.cpp</text>
</a>
</g>
</g>
<!-- Node2 -->
<g id="Node000002" class="node">
<title>Node2</title>
<g id="a_Node000002"><a xlink:title=" ">
<polygon fill="#e0e0e0" stroke="#999999" points="70.75,-19.25 0,-19.25 0,0 70.75,0 70.75,-19.25"/>
<text text-anchor="middle" x="35.38" y="-5.75" font-family="Helvetica,sans-Serif" font-size="10.00">nanobench.h</text>
</a>
</g>
</g>
<!-- Node1&#45;&gt;Node2 -->
<g id="edge1_Node000001_Node000002" class="edge">
<title>Node1&#45;&gt;Node2</title>
<g id="a_edge1_Node000001_Node000002"><a xlink:title=" ">
<path fill="none" stroke="#63b8ff" d="M236.44,-54.8C188.44,-44.25 124.96,-30.31 82.29,-20.93"/>
<polygon fill="#63b8ff" stroke="#63b8ff" points="83.1,-17.53 72.58,-18.8 81.59,-24.36 83.1,-17.53"/>
</a>
</g>
</g>
<!-- Node3 -->
<g id="Node000003" class="node">
<title>Node3</title>
<g id="a_Node000003"><a xlink:title=" ">
<polygon fill="#e0e0e0" stroke="#999999" points="137.5,-19.25 89.25,-19.25 89.25,0 137.5,0 137.5,-19.25"/>
<text text-anchor="middle" x="113.38" y="-5.75" font-family="Helvetica,sans-Serif" font-size="10.00">cstddef</text>
</a>
</g>
</g>
<!-- Node1&#45;&gt;Node3 -->
<g id="edge2_Node000001_Node000003" class="edge">
<title>Node1&#45;&gt;Node3</title>
<g id="a_edge2_Node000001_Node000003"><a xlink:title=" ">
<path fill="none" stroke="#63b8ff" d="M255.92,-54.8C222.68,-44.5 178.99,-30.96 148.78,-21.6"/>
<polygon fill="#63b8ff" stroke="#63b8ff" points="149.95,-18.29 139.36,-18.68 147.87,-24.98 149.95,-18.29"/>
</a>
</g>
</g>
<!-- Node4 -->
<g id="Node000004" class="node">
<title>Node4</title>
<g id="a_Node000004"><a xlink:title=" ">
<polygon fill="#e0e0e0" stroke="#999999" points="199.25,-19.25 155.5,-19.25 155.5,0 199.25,0 199.25,-19.25"/>
<text text-anchor="middle" x="177.38" y="-5.75" font-family="Helvetica,sans-Serif" font-size="10.00">format</text>
</a>
</g>
</g>
<!-- Node1&#45;&gt;Node4 -->
<g id="edge3_Node000001_Node000004" class="edge">
<title>Node1&#45;&gt;Node4</title>
<g id="a_edge3_Node000001_Node000004"><a xlink:title=" ">
<path fill="none" stroke="#63b8ff" d="M271.9,-54.8C252.07,-45.53 226.62,-33.63 207.12,-24.52"/>
<polygon fill="#63b8ff" stroke="#63b8ff" points="208.61,-21.36 198.07,-20.29 205.65,-27.7 208.61,-21.36"/>
</a>
</g>
</g>
<!-- Node5 -->
<g id="Node000005" class="node">
<title>Node5</title>
<g id="a_Node000005"><a xlink:title=" ">
<polygon fill="#e0e0e0" stroke="#999999" points="265.88,-19.25 216.88,-19.25 216.88,0 265.88,0 265.88,-19.25"/>
<text text-anchor="middle" x="241.38" y="-5.75" font-family="Helvetica,sans-Serif" font-size="10.00">fstream</text>
</a>
</g>
</g>
<!-- Node1&#45;&gt;Node5 -->
<g id="edge4_Node000001_Node000005" class="edge">
<title>Node1&#45;&gt;Node5</title>
<g id="a_edge4_Node000001_Node000005"><a xlink:title=" ">
<path fill="none" stroke="#63b8ff" d="M288.05,-54.95C279.34,-46.67 268.38,-36.27 259.27,-27.62"/>
<polygon fill="#63b8ff" stroke="#63b8ff" points="261.69,-25.09 252.03,-20.74 256.87,-30.17 261.69,-25.09"/>
</a>
</g>
</g>
<!-- Node6 -->
<g id="Node000006" class="node">
<title>Node6</title>
<g id="a_Node000006"><a xlink:title=" ">
<polygon fill="#e0e0e0" stroke="#999999" points="322.62,-19.25 284.12,-19.25 284.12,0 322.62,0 322.62,-19.25"/>
<text text-anchor="middle" x="303.38" y="-5.75" font-family="Helvetica,sans-Serif" font-size="10.00">linalg</text>
</a>
</g>
</g>
<!-- Node1&#45;&gt;Node6 -->
<g id="edge5_Node000001_Node000006" class="edge">
<title>Node1&#45;&gt;Node6</title>
<g id="a_edge5_Node000001_Node000006"><a xlink:title=" ">
<path fill="none" stroke="#63b8ff" d="M303.38,-54.95C303.38,-47.71 303.38,-38.84 303.38,-30.94"/>
<polygon fill="#63b8ff" stroke="#63b8ff" points="306.88,-31.21 303.38,-21.21 299.88,-31.21 306.88,-31.21"/>
</a>
</g>
</g>
<!-- Node7 -->
<g id="Node000007" class="node">
<title>Node7</title>
<g id="a_Node000007"><a xlink:title=" ">
<polygon fill="#e0e0e0" stroke="#999999" points="391.62,-19.25 341.12,-19.25 341.12,0 391.62,0 391.62,-19.25"/>
<text text-anchor="middle" x="366.38" y="-5.75" font-family="Helvetica,sans-Serif" font-size="10.00">mdspan</text>
</a>
</g>
</g>
<!-- Node1&#45;&gt;Node7 -->
<g id="edge6_Node000001_Node000007" class="edge">
<title>Node1&#45;&gt;Node7</title>
<g id="a_edge6_Node000001_Node000007"><a xlink:title=" ">
<path fill="none" stroke="#63b8ff" d="M318.95,-54.95C327.89,-46.59 339.17,-36.05 348.48,-27.35"/>
<polygon fill="#63b8ff" stroke="#63b8ff" points="350.64,-30.12 355.56,-20.73 345.86,-25.01 350.64,-30.12"/>
</a>
</g>
</g>
<!-- Node8 -->
<g id="Node000008" class="node">
<title>Node8</title>
<g id="a_Node000008"><a xlink:title=" ">
<polygon fill="#e0e0e0" stroke="#999999" points="457.5,-19.25 409.25,-19.25 409.25,0 457.5,0 457.5,-19.25"/>
<text text-anchor="middle" x="433.38" y="-5.75" font-family="Helvetica,sans-Serif" font-size="10.00">random</text>
</a>
</g>
</g>
<!-- Node1&#45;&gt;Node8 -->
<g id="edge7_Node000001_Node000008" class="edge">
<title>Node1&#45;&gt;Node8</title>
<g id="a_edge7_Node000001_Node000008"><a xlink:title=" ">
<path fill="none" stroke="#63b8ff" d="M335.84,-54.8C356.4,-45.48 382.81,-33.52 402.96,-24.4"/>
<polygon fill="#63b8ff" stroke="#63b8ff" points="404.39,-27.59 412.06,-20.28 401.51,-21.22 404.39,-27.59"/>
</a>
</g>
</g>
<!-- Node9 -->
<g id="Node000009" class="node">
<title>Node9</title>
<g id="a_Node000009"><a xlink:title=" ">
<polygon fill="#e0e0e0" stroke="#999999" points="515.38,-19.25 475.38,-19.25 475.38,0 515.38,0 515.38,-19.25"/>
<text text-anchor="middle" x="495.38" y="-5.75" font-family="Helvetica,sans-Serif" font-size="10.00">string</text>
</a>
</g>
</g>
<!-- Node1&#45;&gt;Node9 -->
<g id="edge8_Node000001_Node000009" class="edge">
<title>Node1&#45;&gt;Node9</title>
<g id="a_edge8_Node000001_Node000009"><a xlink:title=" ">
<path fill="none" stroke="#63b8ff" d="M351.33,-54.8C386.59,-43.98 433.5,-29.6 464.06,-20.23"/>
<polygon fill="#63b8ff" stroke="#63b8ff" points="464.93,-23.62 473.46,-17.34 462.88,-16.93 464.93,-23.62"/>
</a>
</g>
</g>
<!-- Node10 -->
<g id="Node000010" class="node">
<title>Node10</title>
<g id="a_Node000010"><a xlink:title=" ">
<polygon fill="#e0e0e0" stroke="#999999" points="576.88,-19.25 533.88,-19.25 533.88,0 576.88,0 576.88,-19.25"/>
<text text-anchor="middle" x="555.38" y="-5.75" font-family="Helvetica,sans-Serif" font-size="10.00">vector</text>
</a>
</g>
</g>
<!-- Node1&#45;&gt;Node10 -->
<g id="edge9_Node000001_Node000010" class="edge">
<title>Node1&#45;&gt;Node10</title>
<g id="a_edge9_Node000001_Node000010"><a xlink:title=" ">
<path fill="none" stroke="#63b8ff" d="M371.77,-54.83C412.89,-45.81 466.49,-33.69 522.53,-19.62"/>
<polygon fill="#63b8ff" stroke="#63b8ff" points="523.09,-23.09 531.93,-17.25 521.37,-16.31 523.09,-23.09"/>
</a>
</g>
</g>
</g>
</svg>
