<?xml version="1.0" encoding="UTF-8" standalone="no"?>
<!DOCTYPE svg PUBLIC "-//W3C//DTD SVG 1.1//EN"
 "http://www.w3.org/Graphics/SVG/1.1/DTD/svg11.dtd">
<!-- Generated by graphviz version 12.2.0 (20241103.1931)
 -->
<!-- Title: /github/workspace/benchmark/mdspan_tuple_product.cpp Pages: 1 -->
<svg width="823pt" height="172pt"
 viewBox="0.00 0.00 822.62 171.50" xmlns="http://www.w3.org/2000/svg" xmlns:xlink="http://www.w3.org/1999/xlink">
<g id="graph0" class="graph" transform="scale(1 1) rotate(0) translate(4 167.5)">
<title>/github/workspace/benchmark/mdspan_tuple_product.cpp</title>
<!-- Node1 -->
<g id="Node000001" class="node">
<title>Node1</title>
<g id="a_Node000001"><a xlink:title=" ">
<polygon fill="#999999" stroke="#666666" points="583.38,-163.5 436.88,-163.5 436.88,-133 583.38,-133 583.38,-163.5"/>
<text text-anchor="start" x="444.88" y="-150" font-family="Helvetica,sans-Serif" font-size="10.00">/github/workspace/benchmark</text>
<text text-anchor="middle" x="510.12" y="-138.75" font-family="Helvetica,sans-Serif" font-size="10.00">/mdspan_tuple_product.cpp</text>
</a>
</g>
</g>
<!-- Node2 -->
<g id="Node000002" class="node">
<title>Node2</title>
<g id="a_Node000002"><a xlink:href="utility_8hpp.xhtml" target="_top" xlink:title=" ">
<polygon fill="white" stroke="#666666" points="286.62,-97 153.62,-97 153.62,-66.5 286.62,-66.5 286.62,-97"/>
<text text-anchor="start" x="161.62" y="-83.5" font-family="Helvetica,sans-Serif" font-size="10.00">fcarouge/typed_linear</text>
<text text-anchor="middle" x="220.12" y="-72.25" font-family="Helvetica,sans-Serif" font-size="10.00">_algebra_internal/utility.hpp</text>
</a>
</g>
</g>
<!-- Node1&#45;&gt;Node2 -->
<g id="edge1_Node000001_Node000002" class="edge">
<title>Node1&#45;&gt;Node2</title>
<g id="a_edge1_Node000001_Node000002"><a xlink:title=" ">
<path fill="none" stroke="#63b8ff" d="M443.96,-132.53C400.33,-122.83 343.02,-110.08 297.31,-99.92"/>
<polygon fill="#63b8ff" stroke="#63b8ff" points="298.26,-96.54 287.74,-97.79 296.74,-103.38 298.26,-96.54"/>
</a>
</g>
</g>
<!-- Node5 -->
<g id="Node000005" class="node">
<title>Node5</title>
<g id="a_Node000005"><a xlink:title=" ">
<polygon fill="#e0e0e0" stroke="#999999" points="48.25,-24.88 0,-24.88 0,-5.63 48.25,-5.63 48.25,-24.88"/>
<text text-anchor="middle" x="24.12" y="-11.38" font-family="Helvetica,sans-Serif" font-size="10.00">cstddef</text>
</a>
</g>
</g>
<!-- Node1&#45;&gt;Node5 -->
<g id="edge9_Node000001_Node000005" class="edge">
<title>Node1&#45;&gt;Node5</title>
<g id="a_edge9_Node000001_Node000005"><a xlink:title=" ">
<path fill="none" stroke="#63b8ff" d="M436.42,-146.72C360.95,-143.99 241.41,-133.53 145.12,-97 105.25,-81.87 65.33,-51.56 42.77,-32.69"/>
<polygon fill="#63b8ff" stroke="#63b8ff" points="45.25,-30.2 35.37,-26.36 40.7,-35.52 45.25,-30.2"/>
</a>
</g>
</g>
<!-- Node9 -->
<g id="Node000009" class="node">
<title>Node9</title>
<g id="a_Node000009"><a xlink:title=" ">
<polygon fill="#e0e0e0" stroke="#999999" points="375.5,-91.38 304.75,-91.38 304.75,-72.12 375.5,-72.12 375.5,-91.38"/>
<text text-anchor="middle" x="340.12" y="-77.88" font-family="Helvetica,sans-Serif" font-size="10.00">nanobench.h</text>
</a>
</g>
</g>
<!-- Node1&#45;&gt;Node9 -->
<g id="edge8_Node000001_Node000009" class="edge">
<title>Node1&#45;&gt;Node9</title>
<g id="a_edge8_Node000001_Node000009"><a xlink:title=" ">
<path fill="none" stroke="#63b8ff" d="M471.55,-132.61C442.32,-121.52 402.52,-106.42 374.4,-95.75"/>
<polygon fill="#63b8ff" stroke="#63b8ff" points="375.88,-92.57 365.29,-92.3 373.39,-99.12 375.88,-92.57"/>
</a>
</g>
</g>
<!-- Node10 -->
<g id="Node000010" class="node">
<title>Node10</title>
<g id="a_Node000010"><a xlink:title=" ">
<polygon fill="#e0e0e0" stroke="#999999" points="437,-91.38 393.25,-91.38 393.25,-72.12 437,-72.12 437,-91.38"/>
<text text-anchor="middle" x="415.12" y="-77.88" font-family="Helvetica,sans-Serif" font-size="10.00">format</text>
</a>
</g>
</g>
<!-- Node1&#45;&gt;Node10 -->
<g id="edge10_Node000001_Node000010" class="edge">
<title>Node1&#45;&gt;Node10</title>
<g id="a_edge10_Node000001_Node000010"><a xlink:title=" ">
<path fill="none" stroke="#63b8ff" d="M488.57,-132.61C473.39,-122.31 453.11,-108.54 437.71,-98.08"/>
<polygon fill="#63b8ff" stroke="#63b8ff" points="439.89,-95.33 429.65,-92.61 435.95,-101.12 439.89,-95.33"/>
</a>
</g>
</g>
<!-- Node11 -->
<g id="Node000011" class="node">
<title>Node11</title>
<g id="a_Node000011"><a xlink:title=" ">
<polygon fill="#e0e0e0" stroke="#999999" points="503.62,-91.38 454.62,-91.38 454.62,-72.12 503.62,-72.12 503.62,-91.38"/>
<text text-anchor="middle" x="479.12" y="-77.88" font-family="Helvetica,sans-Serif" font-size="10.00">fstream</text>
</a>
</g>
</g>
<!-- Node1&#45;&gt;Node11 -->
<g id="edge11_Node000001_Node000011" class="edge">
<title>Node1&#45;&gt;Node11</title>
<g id="a_edge11_Node000001_Node000011"><a xlink:title=" ">
<path fill="none" stroke="#63b8ff" d="M503.09,-132.61C498.73,-123.53 493.07,-111.76 488.35,-101.93"/>
<polygon fill="#63b8ff" stroke="#63b8ff" points="491.51,-100.43 484.02,-92.94 485.2,-103.47 491.51,-100.43"/>
</a>
</g>
</g>
<!-- Node12 -->
<g id="Node000012" class="node">
<title>Node12</title>
<g id="a_Node000012"><a xlink:title=" ">
<polygon fill="#e0e0e0" stroke="#999999" points="560.38,-91.38 521.88,-91.38 521.88,-72.12 560.38,-72.12 560.38,-91.38"/>
<text text-anchor="middle" x="541.12" y="-77.88" font-family="Helvetica,sans-Serif" font-size="10.00">linalg</text>
</a>
</g>
</g>
<!-- Node1&#45;&gt;Node12 -->
<g id="edge12_Node000001_Node000012" class="edge">
<title>Node1&#45;&gt;Node12</title>
<g id="a_edge12_Node000001_Node000012"><a xlink:title=" ">
<path fill="none" stroke="#63b8ff" d="M517.16,-132.61C521.52,-123.53 527.18,-111.76 531.9,-101.93"/>
<polygon fill="#63b8ff" stroke="#63b8ff" points="535.05,-103.47 536.23,-92.94 528.74,-100.43 535.05,-103.47"/>
</a>
</g>
</g>
<!-- Node13 -->
<g id="Node000013" class="node">
<title>Node13</title>
<g id="a_Node000013"><a xlink:title=" ">
<polygon fill="#e0e0e0" stroke="#999999" points="629.38,-91.38 578.88,-91.38 578.88,-72.12 629.38,-72.12 629.38,-91.38"/>
<text text-anchor="middle" x="604.12" y="-77.88" font-family="Helvetica,sans-Serif" font-size="10.00">mdspan</text>
</a>
</g>
</g>
<!-- Node1&#45;&gt;Node13 -->
<g id="edge13_Node000001_Node000013" class="edge">
<title>Node1&#45;&gt;Node13</title>
<g id="a_edge13_Node000001_Node000013"><a xlink:title=" ">
<path fill="none" stroke="#63b8ff" d="M531.46,-132.61C546.47,-122.31 566.54,-108.54 581.78,-98.08"/>
<polygon fill="#63b8ff" stroke="#63b8ff" points="583.48,-101.16 589.75,-92.62 579.52,-95.39 583.48,-101.16"/>
</a>
</g>
</g>
<!-- Node14 -->
<g id="Node000014" class="node">
<title>Node14</title>
<g id="a_Node000014"><a xlink:title=" ">
<polygon fill="#e0e0e0" stroke="#999999" points="695.25,-91.38 647,-91.38 647,-72.12 695.25,-72.12 695.25,-91.38"/>
<text text-anchor="middle" x="671.12" y="-77.88" font-family="Helvetica,sans-Serif" font-size="10.00">random</text>
</a>
</g>
</g>
<!-- Node1&#45;&gt;Node14 -->
<g id="edge14_Node000001_Node000014" class="edge">
<title>Node1&#45;&gt;Node14</title>
<g id="a_edge14_Node000001_Node000014"><a xlink:title=" ">
<path fill="none" stroke="#63b8ff" d="M548.63,-132.52C574.11,-122.68 608.22,-109.32 638.12,-97 638.76,-96.74 639.39,-96.48 640.04,-96.21"/>
<polygon fill="#63b8ff" stroke="#63b8ff" points="641.33,-99.46 649.18,-92.34 638.61,-93.01 641.33,-99.46"/>
</a>
</g>
</g>
<!-- Node15 -->
<g id="Node000015" class="node">
<title>Node15</title>
<g id="a_Node000015"><a xlink:title=" ">
<polygon fill="#e0e0e0" stroke="#999999" points="753.12,-91.38 713.12,-91.38 713.12,-72.12 753.12,-72.12 753.12,-91.38"/>
<text text-anchor="middle" x="733.12" y="-77.88" font-family="Helvetica,sans-Serif" font-size="10.00">string</text>
</a>
</g>
</g>
<!-- Node1&#45;&gt;Node15 -->
<g id="edge15_Node000001_Node000015" class="edge">
<title>Node1&#45;&gt;Node15</title>
<g id="a_edge15_Node000001_Node000015"><a xlink:title=" ">
<path fill="none" stroke="#63b8ff" d="M580.77,-132.6C618.02,-123.96 664.16,-111.82 704.12,-97 704.75,-96.77 705.38,-96.53 706.01,-96.28"/>
<polygon fill="#63b8ff" stroke="#63b8ff" points="707.08,-99.63 714.82,-92.39 704.26,-93.23 707.08,-99.63"/>
</a>
</g>
</g>
<!-- Node16 -->
<g id="Node000016" class="node">
<title>Node16</title>
<g id="a_Node000016"><a xlink:title=" ">
<polygon fill="#e0e0e0" stroke="#999999" points="814.62,-91.38 771.62,-91.38 771.62,-72.12 814.62,-72.12 814.62,-91.38"/>
<text text-anchor="middle" x="793.12" y="-77.88" font-family="Helvetica,sans-Serif" font-size="10.00">vector</text>
</a>
</g>
</g>
<!-- Node1&#45;&gt;Node16 -->
<g id="edge16_Node000001_Node000016" class="edge">
<title>Node1&#45;&gt;Node16</title>
<g id="a_edge16_Node000001_Node000016"><a xlink:title=" ">
<path fill="none" stroke="#63b8ff" d="M583.79,-137.22C634.67,-129.17 703.46,-116.04 762.12,-97 763.09,-96.69 764.06,-96.35 765.03,-96"/>
<polygon fill="#63b8ff" stroke="#63b8ff" points="766.05,-99.37 773.98,-92.34 763.4,-92.89 766.05,-99.37"/>
</a>
</g>
</g>
<!-- Node3 -->
<g id="Node000003" class="node">
<title>Node3</title>
<g id="a_Node000003"><a xlink:href="typed__linear__algebra__forward_8hpp.xhtml" target="_top" xlink:title="Authoritative forward declaration header.">
<polygon fill="white" stroke="#666666" points="174.25,-30.5 66,-30.5 66,0 174.25,0 174.25,-30.5"/>
<text text-anchor="start" x="74" y="-17" font-family="Helvetica,sans-Serif" font-size="10.00">fcarouge/typed_linear</text>
<text text-anchor="middle" x="120.12" y="-5.75" font-family="Helvetica,sans-Serif" font-size="10.00">_algebra_forward.hpp</text>
</a>
</g>
</g>
<!-- Node2&#45;&gt;Node3 -->
<g id="edge2_Node000002_Node000003" class="edge">
<title>Node2&#45;&gt;Node3</title>
<g id="a_edge2_Node000002_Node000003"><a xlink:title=" ">
<path fill="none" stroke="#63b8ff" d="M197.43,-66.11C184.01,-57.45 166.79,-46.35 152.02,-36.82"/>
<polygon fill="#63b8ff" stroke="#63b8ff" points="154.3,-34.13 144,-31.65 150.51,-40.01 154.3,-34.13"/>
</a>
</g>
</g>
<!-- Node4 -->
<g id="Node000004" class="node">
<title>Node4</title>
<g id="a_Node000004"><a xlink:title=" ">
<polygon fill="#e0e0e0" stroke="#999999" points="248,-24.88 192.25,-24.88 192.25,-5.63 248,-5.63 248,-24.88"/>
<text text-anchor="middle" x="220.12" y="-11.38" font-family="Helvetica,sans-Serif" font-size="10.00">concepts</text>
</a>
</g>
</g>
<!-- Node2&#45;&gt;Node4 -->
<g id="edge3_Node000002_Node000004" class="edge">
<title>Node2&#45;&gt;Node4</title>
<g id="a_edge3_Node000002_Node000004"><a xlink:title=" ">
<path fill="none" stroke="#63b8ff" d="M220.12,-66.11C220.12,-57.33 220.12,-46.02 220.12,-36.4"/>
<polygon fill="#63b8ff" stroke="#63b8ff" points="223.63,-36.59 220.13,-26.59 216.63,-36.59 223.63,-36.59"/>
</a>
</g>
</g>
<!-- Node2&#45;&gt;Node5 -->
<g id="edge4_Node000002_Node000005" class="edge">
<title>Node2&#45;&gt;Node5</title>
<g id="a_edge4_Node000002_Node000005"><a xlink:title=" ">
<path fill="none" stroke="#63b8ff" d="M167.15,-66C135.03,-56.67 93.38,-43.87 57.12,-30.5 56.33,-30.21 55.54,-29.91 54.73,-29.6"/>
<polygon fill="#63b8ff" stroke="#63b8ff" points="56.21,-26.42 45.63,-25.91 53.58,-32.91 56.21,-26.42"/>
</a>
</g>
</g>
<!-- Node6 -->
<g id="Node000006" class="node">
<title>Node6</title>
<g id="a_Node000006"><a xlink:title=" ">
<polygon fill="#e0e0e0" stroke="#999999" points="324.12,-24.88 266.12,-24.88 266.12,-5.63 324.12,-5.63 324.12,-24.88"/>
<text text-anchor="middle" x="295.12" y="-11.38" font-family="Helvetica,sans-Serif" font-size="10.00">functional</text>
</a>
</g>
</g>
<!-- Node2&#45;&gt;Node6 -->
<g id="edge5_Node000002_Node000006" class="edge">
<title>Node2&#45;&gt;Node6</title>
<g id="a_edge5_Node000002_Node000006"><a xlink:title=" ">
<path fill="none" stroke="#63b8ff" d="M237.14,-66.11C248.85,-56.04 264.41,-42.67 276.46,-32.31"/>
<polygon fill="#63b8ff" stroke="#63b8ff" points="278.42,-35.23 283.72,-26.06 273.85,-29.93 278.42,-35.23"/>
</a>
</g>
</g>
<!-- Node7 -->
<g id="Node000007" class="node">
<title>Node7</title>
<g id="a_Node000007"><a xlink:title=" ">
<polygon fill="#e0e0e0" stroke="#999999" points="379.62,-24.88 342.62,-24.88 342.62,-5.63 379.62,-5.63 379.62,-24.88"/>
<text text-anchor="middle" x="361.12" y="-11.38" font-family="Helvetica,sans-Serif" font-size="10.00">tuple</text>
</a>
</g>
</g>
<!-- Node2&#45;&gt;Node7 -->
<g id="edge6_Node000002_Node000007" class="edge">
<title>Node2&#45;&gt;Node7</title>
<g id="a_edge6_Node000002_Node000007"><a xlink:title=" ">
<path fill="none" stroke="#63b8ff" d="M254.46,-66.04C276.96,-56.26 306.96,-42.97 333.12,-30.5 333.23,-30.45 333.34,-30.4 333.45,-30.35"/>
<polygon fill="#63b8ff" stroke="#63b8ff" points="334.94,-33.51 342.36,-25.95 331.84,-27.23 334.94,-33.51"/>
</a>
</g>
</g>
<!-- Node8 -->
<g id="Node000008" class="node">
<title>Node8</title>
<g id="a_Node000008"><a xlink:title=" ">
<polygon fill="#e0e0e0" stroke="#999999" points="458.62,-24.88 397.62,-24.88 397.62,-5.63 458.62,-5.63 458.62,-24.88"/>
<text text-anchor="middle" x="428.12" y="-11.38" font-family="Helvetica,sans-Serif" font-size="10.00">type_traits</text>
</a>
</g>
</g>
<!-- Node2&#45;&gt;Node8 -->
<g id="edge7_Node000002_Node000008" class="edge">
<title>Node2&#45;&gt;Node8</title>
<g id="a_edge7_Node000002_Node000008"><a xlink:title=" ">
<path fill="none" stroke="#63b8ff" d="M272.53,-66.06C306.04,-56.45 350.33,-43.34 389.12,-30.5 390.66,-29.99 392.24,-29.46 393.82,-28.92"/>
<polygon fill="#63b8ff" stroke="#63b8ff" points="394.59,-32.36 402.85,-25.73 392.26,-25.76 394.59,-32.36"/>
</a>
</g>
</g>
</g>
</svg>
