<?xml version="1.0" encoding="UTF-8" standalone="no"?>
<!DOCTYPE svg PUBLIC "-//W3C//DTD SVG 1.1//EN"
 "http://www.w3.org/Graphics/SVG/1.1/DTD/svg11.dtd">
<!-- Generated by graphviz version 12.2.0 (20241103.1931)
 -->
<!-- Title: /github/workspace/benchmark/mdspan_product.cpp Pages: 1 -->
<svg width="585pt" height="94pt"
 viewBox="0.00 0.00 584.50 93.75" xmlns="http://www.w3.org/2000/svg" xmlns:xlink="http://www.w3.org/1999/xlink">
<g id="graph0" class="graph" transform="scale(1 1) rotate(0) translate(4 89.75)">
<title>/github/workspace/benchmark/mdspan_product.cpp</title>
<!-- Node1 -->
<g id="Node000001" class="node">
<title>Node1</title>
<g id="a_Node000001"><a xlink:title=" ">
<polygon fill="#999999" stroke="#666666" points="350.38,-85.75 203.88,-85.75 203.88,-55.25 350.38,-55.25 350.38,-85.75"/>
<text text-anchor="start" x="211.88" y="-72.25" font-family="Helvetica,sans-Serif" font-size="10.00">/github/workspace/benchmark</text>
<text text-anchor="middle" x="277.12" y="-61" font-family="Helvetica,sans-Serif" font-size="10.00">/mdspan_product.cpp</text>
</a>
</g>
</g>
<!-- Node2 -->
<g id="Node000002" class="node">
<title>Node2</title>
<g id="a_Node000002"><a xlink:title=" ">
<polygon fill="#e0e0e0" stroke="#999999" points="48.25,-19.25 0,-19.25 0,0 48.25,0 48.25,-19.25"/>
<text text-anchor="middle" x="24.12" y="-5.75" font-family="Helvetica,sans-Serif" font-size="10.00">cstddef</text>
</a>
</g>
</g>
<!-- Node1&#45;&gt;Node2 -->
<g id="edge1_Node000001_Node000002" class="edge">
<title>Node1&#45;&gt;Node2</title>
<g id="a_edge1_Node000001_Node000002"><a xlink:title=" ">
<path fill="none" stroke="#63b8ff" d="M210.08,-54.76C169.16,-45.62 115.52,-33.42 59.78,-19.85"/>
<polygon fill="#63b8ff" stroke="#63b8ff" points="60.63,-16.45 50.08,-17.48 58.96,-23.25 60.63,-16.45"/>
</a>
</g>
</g>
<!-- Node3 -->
<g id="Node000003" class="node">
<title>Node3</title>
<g id="a_Node000003"><a xlink:title=" ">
<polygon fill="#e0e0e0" stroke="#999999" points="110,-19.25 66.25,-19.25 66.25,0 110,0 110,-19.25"/>
<text text-anchor="middle" x="88.12" y="-5.75" font-family="Helvetica,sans-Serif" font-size="10.00">format</text>
</a>
</g>
</g>
<!-- Node1&#45;&gt;Node3 -->
<g id="edge2_Node000001_Node000003" class="edge">
<title>Node1&#45;&gt;Node3</title>
<g id="a_edge2_Node000001_Node000003"><a xlink:title=" ">
<path fill="none" stroke="#63b8ff" d="M229.92,-54.8C196.08,-44.26 151.35,-30.32 121.25,-20.94"/>
<polygon fill="#63b8ff" stroke="#63b8ff" points="122.52,-17.67 111.93,-18.04 120.44,-24.36 122.52,-17.67"/>
</a>
</g>
</g>
<!-- Node4 -->
<g id="Node000004" class="node">
<title>Node4</title>
<g id="a_Node000004"><a xlink:title=" ">
<polygon fill="#e0e0e0" stroke="#999999" points="176.62,-19.25 127.62,-19.25 127.62,0 176.62,0 176.62,-19.25"/>
<text text-anchor="middle" x="152.12" y="-5.75" font-family="Helvetica,sans-Serif" font-size="10.00">fstream</text>
</a>
</g>
</g>
<!-- Node1&#45;&gt;Node4 -->
<g id="edge3_Node000001_Node000004" class="edge">
<title>Node1&#45;&gt;Node4</title>
<g id="a_edge3_Node000001_Node000004"><a xlink:title=" ">
<path fill="none" stroke="#63b8ff" d="M245.9,-54.8C226.23,-45.53 200.98,-33.63 181.64,-24.52"/>
<polygon fill="#63b8ff" stroke="#63b8ff" points="183.2,-21.39 172.66,-20.3 180.22,-27.73 183.2,-21.39"/>
</a>
</g>
</g>
<!-- Node5 -->
<g id="Node000005" class="node">
<title>Node5</title>
<g id="a_Node000005"><a xlink:title=" ">
<polygon fill="#e0e0e0" stroke="#999999" points="233.38,-19.25 194.88,-19.25 194.88,0 233.38,0 233.38,-19.25"/>
<text text-anchor="middle" x="214.12" y="-5.75" font-family="Helvetica,sans-Serif" font-size="10.00">linalg</text>
</a>
</g>
</g>
<!-- Node1&#45;&gt;Node5 -->
<g id="edge4_Node000001_Node000005" class="edge">
<title>Node1&#45;&gt;Node5</title>
<g id="a_edge4_Node000001_Node000005"><a xlink:title=" ">
<path fill="none" stroke="#63b8ff" d="M261.55,-54.95C252.61,-46.59 241.33,-36.05 232.02,-27.35"/>
<polygon fill="#63b8ff" stroke="#63b8ff" points="234.64,-25.01 224.94,-20.73 229.86,-30.12 234.64,-25.01"/>
</a>
</g>
</g>
<!-- Node6 -->
<g id="Node000006" class="node">
<title>Node6</title>
<g id="a_Node000006"><a xlink:title=" ">
<polygon fill="#e0e0e0" stroke="#999999" points="302.38,-19.25 251.88,-19.25 251.88,0 302.38,0 302.38,-19.25"/>
<text text-anchor="middle" x="277.12" y="-5.75" font-family="Helvetica,sans-Serif" font-size="10.00">mdspan</text>
</a>
</g>
</g>
<!-- Node1&#45;&gt;Node6 -->
<g id="edge5_Node000001_Node000006" class="edge">
<title>Node1&#45;&gt;Node6</title>
<g id="a_edge5_Node000001_Node000006"><a xlink:title=" ">
<path fill="none" stroke="#63b8ff" d="M277.12,-54.95C277.12,-47.71 277.12,-38.84 277.12,-30.94"/>
<polygon fill="#63b8ff" stroke="#63b8ff" points="280.63,-31.21 277.13,-21.21 273.63,-31.21 280.63,-31.21"/>
</a>
</g>
</g>
<!-- Node7 -->
<g id="Node000007" class="node">
<title>Node7</title>
<g id="a_Node000007"><a xlink:title=" ">
<polygon fill="#e0e0e0" stroke="#999999" points="368.25,-19.25 320,-19.25 320,0 368.25,0 368.25,-19.25"/>
<text text-anchor="middle" x="344.12" y="-5.75" font-family="Helvetica,sans-Serif" font-size="10.00">random</text>
</a>
</g>
</g>
<!-- Node1&#45;&gt;Node7 -->
<g id="edge6_Node000001_Node000007" class="edge">
<title>Node1&#45;&gt;Node7</title>
<g id="a_edge6_Node000001_Node000007"><a xlink:title=" ">
<path fill="none" stroke="#63b8ff" d="M293.69,-54.95C303.3,-46.5 315.44,-35.83 325.4,-27.08"/>
<polygon fill="#63b8ff" stroke="#63b8ff" points="327.46,-29.93 332.66,-20.7 322.84,-24.67 327.46,-29.93"/>
</a>
</g>
</g>
<!-- Node8 -->
<g id="Node000008" class="node">
<title>Node8</title>
<g id="a_Node000008"><a xlink:title=" ">
<polygon fill="#e0e0e0" stroke="#999999" points="426.12,-19.25 386.12,-19.25 386.12,0 426.12,0 426.12,-19.25"/>
<text text-anchor="middle" x="406.12" y="-5.75" font-family="Helvetica,sans-Serif" font-size="10.00">string</text>
</a>
</g>
</g>
<!-- Node1&#45;&gt;Node8 -->
<g id="edge7_Node000001_Node000008" class="edge">
<title>Node1&#45;&gt;Node8</title>
<g id="a_edge7_Node000001_Node000008"><a xlink:title=" ">
<path fill="none" stroke="#63b8ff" d="M309.34,-54.8C329.75,-45.48 355.95,-33.52 375.95,-24.4"/>
<polygon fill="#63b8ff" stroke="#63b8ff" points="377.32,-27.62 384.96,-20.28 374.41,-21.25 377.32,-27.62"/>
</a>
</g>
</g>
<!-- Node9 -->
<g id="Node000009" class="node">
<title>Node9</title>
<g id="a_Node000009"><a xlink:title=" ">
<polygon fill="#e0e0e0" stroke="#999999" points="487.62,-19.25 444.62,-19.25 444.62,0 487.62,0 487.62,-19.25"/>
<text text-anchor="middle" x="466.12" y="-5.75" font-family="Helvetica,sans-Serif" font-size="10.00">vector</text>
</a>
</g>
</g>
<!-- Node1&#45;&gt;Node9 -->
<g id="edge8_Node000001_Node000009" class="edge">
<title>Node1&#45;&gt;Node9</title>
<g id="a_edge8_Node000001_Node000009"><a xlink:title=" ">
<path fill="none" stroke="#63b8ff" d="M324.33,-54.8C358.36,-44.19 403.41,-30.16 433.51,-20.78"/>
<polygon fill="#63b8ff" stroke="#63b8ff" points="434.31,-24.2 442.82,-17.88 432.23,-17.52 434.31,-24.2"/>
</a>
</g>
</g>
<!-- Node10 -->
<g id="Node000010" class="node">
<title>Node10</title>
<g id="a_Node000010"><a xlink:title=" ">
<polygon fill="#e0e0e0" stroke="#999999" points="576.5,-19.25 505.75,-19.25 505.75,0 576.5,0 576.5,-19.25"/>
<text text-anchor="middle" x="541.12" y="-5.75" font-family="Helvetica,sans-Serif" font-size="10.00">nanobench.h</text>
</a>
</g>
</g>
<!-- Node1&#45;&gt;Node10 -->
<g id="edge9_Node000001_Node000010" class="edge">
<title>Node1&#45;&gt;Node10</title>
<g id="a_edge9_Node000001_Node000010"><a xlink:title=" ">
<path fill="none" stroke="#63b8ff" d="M343.06,-54.8C390.21,-44.28 452.5,-30.39 494.54,-21.01"/>
<polygon fill="#63b8ff" stroke="#63b8ff" points="495.09,-24.48 504.09,-18.88 493.57,-17.65 495.09,-24.48"/>
</a>
</g>
</g>
</g>
</svg>
