<?xml version="1.0" encoding="UTF-8" standalone="no"?>
<!DOCTYPE svg PUBLIC "-//W3C//DTD SVG 1.1//EN"
 "http://www.w3.org/Graphics/SVG/1.1/DTD/svg11.dtd">
<!-- Generated by graphviz version 12.2.0 (20241103.1931)
 -->
<!-- Title: /github/workspace/sample/mp_units_eigen.cpp Pages: 1 -->
<svg width="2704pt" height="293pt"
 viewBox="0.00 0.00 2704.12 293.25" xmlns="http://www.w3.org/2000/svg" xmlns:xlink="http://www.w3.org/1999/xlink">
<g id="graph0" class="graph" transform="scale(1 1) rotate(0) translate(4 289.25)">
<title>/github/workspace/sample/mp_units_eigen.cpp</title>
<!-- Node1 -->
<g id="Node000001" class="node">
<title>Node1</title>
<g id="a_Node000001"><a xlink:title="Unit safe linear algebra with mp&#45;units and Eigen.">
<polygon fill="#999999" stroke="#666666" points="2092.5,-285.25 1962.5,-285.25 1962.5,-254.75 2092.5,-254.75 2092.5,-285.25"/>
<text text-anchor="start" x="1970.5" y="-271.75" font-family="Helvetica,sans-Serif" font-size="10.00">/github/workspace/sample</text>
<text text-anchor="middle" x="2027.5" y="-260.5" font-family="Helvetica,sans-Serif" font-size="10.00">/mp_units_eigen.cpp</text>
</a>
</g>
</g>
<!-- Node2 -->
<g id="Node000002" class="node">
<title>Node2</title>
<g id="a_Node000002"><a xlink:title=" ">
<polygon fill="#e0e0e0" stroke="#999999" points="97,-213.12 0,-213.12 0,-193.88 97,-193.88 97,-213.12"/>
<text text-anchor="middle" x="48.5" y="-199.62" font-family="Helvetica,sans-Serif" font-size="10.00">fcarouge/linalg.hpp</text>
</a>
</g>
</g>
<!-- Node1&#45;&gt;Node2 -->
<g id="edge1_Node000001_Node000002" class="edge">
<title>Node1&#45;&gt;Node2</title>
<g id="a_edge1_Node000001_Node000002"><a xlink:title=" ">
<path fill="none" stroke="#63b8ff" d="M1962.02,-269.01C1669.56,-268.77 481.1,-264.94 111.5,-218.75 105.8,-218.04 99.87,-217.04 94.01,-215.9"/>
<polygon fill="#63b8ff" stroke="#63b8ff" points="94.93,-212.52 84.43,-213.88 93.49,-219.37 94.93,-212.52"/>
</a>
</g>
</g>
<!-- Node3 -->
<g id="Node000003" class="node">
<title>Node3</title>
<g id="a_Node000003"><a xlink:href="typed__linear__algebra_8hpp.xhtml" target="_top" xlink:title="Typed linear algebra implementation.">
<polygon fill="white" stroke="#666666" points="1453.62,-218.75 1345.38,-218.75 1345.38,-188.25 1453.62,-188.25 1453.62,-218.75"/>
<text text-anchor="start" x="1353.38" y="-205.25" font-family="Helvetica,sans-Serif" font-size="10.00">fcarouge/typed_linear</text>
<text text-anchor="middle" x="1399.5" y="-194" font-family="Helvetica,sans-Serif" font-size="10.00">_algebra.hpp</text>
</a>
</g>
</g>
<!-- Node1&#45;&gt;Node3 -->
<g id="edge2_Node000001_Node000003" class="edge">
<title>Node1&#45;&gt;Node3</title>
<g id="a_edge2_Node000001_Node000003"><a xlink:title=" ">
<path fill="none" stroke="#63b8ff" d="M1962.07,-262.28C1841.55,-249.9 1585.81,-223.64 1465.14,-211.24"/>
<polygon fill="#63b8ff" stroke="#63b8ff" points="1465.7,-207.78 1455.39,-210.24 1464.98,-214.74 1465.7,-207.78"/>
</a>
</g>
</g>
<!-- Node9 -->
<g id="Node000009" class="node">
<title>Node9</title>
<g id="a_Node000009"><a xlink:title=" ">
<polygon fill="#e0e0e0" stroke="#999999" points="2396,-19.25 2359,-19.25 2359,0 2396,0 2396,-19.25"/>
<text text-anchor="middle" x="2377.5" y="-5.75" font-family="Helvetica,sans-Serif" font-size="10.00">tuple</text>
</a>
</g>
</g>
<!-- Node1&#45;&gt;Node9 -->
<g id="edge32_Node000001_Node000009" class="edge">
<title>Node1&#45;&gt;Node9</title>
<g id="a_edge32_Node000001_Node000009"><a xlink:title=" ">
<path fill="none" stroke="#63b8ff" d="M2003.66,-254.32C1979.37,-237.6 1947.84,-209.8 1967.5,-188.25 2026.3,-123.78 2289.18,-205.25 2358.5,-152.25 2394.24,-124.92 2392.45,-99.97 2387.5,-55.25 2386.59,-47.06 2384.78,-38.18 2382.94,-30.51"/>
<polygon fill="#63b8ff" stroke="#63b8ff" points="2386.34,-29.69 2380.45,-20.88 2379.57,-31.44 2386.34,-29.69"/>
</a>
</g>
</g>
<!-- Node10 -->
<g id="Node000010" class="node">
<title>Node10</title>
<g id="a_Node000010"><a xlink:title=" ">
<polygon fill="#e0e0e0" stroke="#999999" points="1163,-19.25 1102,-19.25 1102,0 1163,0 1163,-19.25"/>
<text text-anchor="middle" x="1132.5" y="-5.75" font-family="Helvetica,sans-Serif" font-size="10.00">type_traits</text>
</a>
</g>
</g>
<!-- Node1&#45;&gt;Node10 -->
<g id="edge33_Node000001_Node000010" class="edge">
<title>Node1&#45;&gt;Node10</title>
<g id="a_edge33_Node000001_Node000010"><a xlink:title=" ">
<path fill="none" stroke="#63b8ff" d="M1962.16,-269.42C1697.69,-270.74 705.97,-271.96 397.5,-218.75 302.28,-202.32 256.78,-222.57 190.5,-152.25 160.31,-120.22 140.1,-87.09 170.5,-55.25 202.68,-21.54 908.7,-12.7 1090.25,-10.98"/>
<polygon fill="#63b8ff" stroke="#63b8ff" points="1090.19,-14.48 1100.16,-10.89 1090.13,-7.48 1090.19,-14.48"/>
</a>
</g>
</g>
<!-- Node12 -->
<g id="Node000012" class="node">
<title>Node12</title>
<g id="a_Node000012"><a xlink:title=" ">
<polygon fill="#e0e0e0" stroke="#999999" points="223.38,-74.5 179.62,-74.5 179.62,-55.25 223.38,-55.25 223.38,-74.5"/>
<text text-anchor="middle" x="201.5" y="-61" font-family="Helvetica,sans-Serif" font-size="10.00">format</text>
</a>
</g>
</g>
<!-- Node1&#45;&gt;Node12 -->
<g id="edge30_Node000001_Node000012" class="edge">
<title>Node1&#45;&gt;Node12</title>
<g id="a_edge30_Node000001_Node000012"><a xlink:title=" ">
<path fill="none" stroke="#63b8ff" d="M1962.15,-267.16C1644.42,-257.93 273.63,-214.6 209.5,-152.25 192.14,-135.38 193.43,-105.65 196.79,-85.85"/>
<polygon fill="#63b8ff" stroke="#63b8ff" points="200.18,-86.75 198.76,-76.25 193.32,-85.34 200.18,-86.75"/>
</a>
</g>
</g>
<!-- Node26 -->
<g id="Node000026" class="node">
<title>Node26</title>
<g id="a_Node000026"><a xlink:title=" ">
<polygon fill="#e0e0e0" stroke="#999999" points="2010.88,-213.12 1976.12,-213.12 1976.12,-193.88 2010.88,-193.88 2010.88,-213.12"/>
<text text-anchor="middle" x="1993.5" y="-199.62" font-family="Helvetica,sans-Serif" font-size="10.00">print</text>
</a>
</g>
</g>
<!-- Node1&#45;&gt;Node26 -->
<g id="edge31_Node000001_Node000026" class="edge">
<title>Node1&#45;&gt;Node26</title>
<g id="a_edge31_Node000001_Node000026"><a xlink:title=" ">
<path fill="none" stroke="#63b8ff" d="M2019.78,-254.36C2014.94,-245.18 2008.66,-233.25 2003.44,-223.36"/>
<polygon fill="#63b8ff" stroke="#63b8ff" points="2006.62,-221.88 1998.86,-214.66 2000.42,-225.14 2006.62,-221.88"/>
</a>
</g>
</g>
<!-- Node27 -->
<g id="Node000027" class="node">
<title>Node27</title>
<g id="a_Node000027"><a xlink:title=" ">
<polygon fill="#e0e0e0" stroke="#999999" points="2096,-213.12 2029,-213.12 2029,-193.88 2096,-193.88 2096,-213.12"/>
<text text-anchor="middle" x="2062.5" y="-199.62" font-family="Helvetica,sans-Serif" font-size="10.00">Eigen/Eigen</text>
</a>
</g>
</g>
<!-- Node1&#45;&gt;Node27 -->
<g id="edge34_Node000001_Node000027" class="edge">
<title>Node1&#45;&gt;Node27</title>
<g id="a_edge34_Node000001_Node000027"><a xlink:title=" ">
<path fill="none" stroke="#63b8ff" d="M2035.44,-254.36C2040.42,-245.18 2046.9,-233.25 2052.26,-223.36"/>
<polygon fill="#63b8ff" stroke="#63b8ff" points="2055.3,-225.11 2056.99,-214.65 2049.14,-221.77 2055.3,-225.11"/>
</a>
</g>
</g>
<!-- Node28 -->
<g id="Node000028" class="node">
<title>Node28</title>
<g id="a_Node000028"><a xlink:title=" ">
<polygon fill="#e0e0e0" stroke="#999999" points="2216.62,-218.75 2114.38,-218.75 2114.38,-188.25 2216.62,-188.25 2216.62,-218.75"/>
<text text-anchor="start" x="2122.38" y="-205.25" font-family="Helvetica,sans-Serif" font-size="10.00">mp&#45;units/framework</text>
<text text-anchor="middle" x="2165.5" y="-194" font-family="Helvetica,sans-Serif" font-size="10.00">/quantity.h</text>
</a>
</g>
</g>
<!-- Node1&#45;&gt;Node28 -->
<g id="edge35_Node000001_Node000028" class="edge">
<title>Node1&#45;&gt;Node28</title>
<g id="a_edge35_Node000001_Node000028"><a xlink:title=" ">
<path fill="none" stroke="#63b8ff" d="M2058.81,-254.36C2078.13,-245.33 2103.14,-233.65 2124.09,-223.86"/>
<polygon fill="#63b8ff" stroke="#63b8ff" points="2125.36,-227.12 2132.94,-219.72 2122.4,-220.78 2125.36,-227.12"/>
</a>
</g>
</g>
<!-- Node29 -->
<g id="Node000029" class="node">
<title>Node29</title>
<g id="a_Node000029"><a xlink:title=" ">
<polygon fill="#e0e0e0" stroke="#999999" points="2336.62,-218.75 2234.38,-218.75 2234.38,-188.25 2336.62,-188.25 2336.62,-218.75"/>
<text text-anchor="start" x="2242.38" y="-205.25" font-family="Helvetica,sans-Serif" font-size="10.00">mp&#45;units/framework</text>
<text text-anchor="middle" x="2285.5" y="-194" font-family="Helvetica,sans-Serif" font-size="10.00">/quantity_point.h</text>
</a>
</g>
</g>
<!-- Node1&#45;&gt;Node29 -->
<g id="edge36_Node000001_Node000029" class="edge">
<title>Node1&#45;&gt;Node29</title>
<g id="a_edge36_Node000001_Node000029"><a xlink:title=" ">
<path fill="none" stroke="#63b8ff" d="M2086.37,-254.28C2127.24,-244.07 2181.6,-230.47 2223.2,-220.08"/>
<polygon fill="#63b8ff" stroke="#63b8ff" points="2223.98,-223.49 2232.83,-217.67 2222.28,-216.7 2223.98,-223.49"/>
</a>
</g>
</g>
<!-- Node30 -->
<g id="Node000030" class="node">
<title>Node30</title>
<g id="a_Node000030"><a xlink:title=" ">
<polygon fill="#e0e0e0" stroke="#999999" points="2440.38,-213.12 2354.62,-213.12 2354.62,-193.88 2440.38,-193.88 2440.38,-213.12"/>
<text text-anchor="middle" x="2397.5" y="-199.62" font-family="Helvetica,sans-Serif" font-size="10.00">mp&#45;units/math.h</text>
</a>
</g>
</g>
<!-- Node1&#45;&gt;Node30 -->
<g id="edge37_Node000001_Node000030" class="edge">
<title>Node1&#45;&gt;Node30</title>
<g id="a_edge37_Node000001_Node000030"><a xlink:title=" ">
<path fill="none" stroke="#63b8ff" d="M2092.75,-260.84C2157.31,-252.26 2258.76,-237.43 2345.5,-218.75 2348.82,-218.03 2352.25,-217.23 2355.69,-216.39"/>
<polygon fill="#63b8ff" stroke="#63b8ff" points="2356.29,-219.85 2365.1,-213.96 2354.54,-213.07 2356.29,-219.85"/>
</a>
</g>
</g>
<!-- Node31 -->
<g id="Node000031" class="node">
<title>Node31</title>
<g id="a_Node000031"><a xlink:title=" ">
<polygon fill="#e0e0e0" stroke="#999999" points="2567,-218.75 2458,-218.75 2458,-188.25 2567,-188.25 2567,-218.75"/>
<text text-anchor="start" x="2466" y="-205.25" font-family="Helvetica,sans-Serif" font-size="10.00">mp&#45;units/systems/isq</text>
<text text-anchor="middle" x="2512.5" y="-194" font-family="Helvetica,sans-Serif" font-size="10.00">/thermodynamics.h</text>
</a>
</g>
</g>
<!-- Node1&#45;&gt;Node31 -->
<g id="edge38_Node000001_Node000031" class="edge">
<title>Node1&#45;&gt;Node31</title>
<g id="a_edge38_Node000001_Node000031"><a xlink:title=" ">
<path fill="none" stroke="#63b8ff" d="M2092.87,-263.34C2173.8,-255.86 2316.03,-241.17 2446.61,-219.15"/>
<polygon fill="#63b8ff" stroke="#63b8ff" points="2446.83,-222.66 2456.1,-217.53 2445.65,-215.76 2446.83,-222.66"/>
</a>
</g>
</g>
<!-- Node32 -->
<g id="Node000032" class="node">
<title>Node32</title>
<g id="a_Node000032"><a xlink:title=" ">
<polygon fill="#e0e0e0" stroke="#999999" points="2696.12,-213.12 2584.88,-213.12 2584.88,-193.88 2696.12,-193.88 2696.12,-213.12"/>
<text text-anchor="middle" x="2640.5" y="-199.62" font-family="Helvetica,sans-Serif" font-size="10.00">mp&#45;units/systems/si.h</text>
</a>
</g>
</g>
<!-- Node1&#45;&gt;Node32 -->
<g id="edge39_Node000001_Node000032" class="edge">
<title>Node1&#45;&gt;Node32</title>
<g id="a_edge39_Node000001_Node000032"><a xlink:title=" ">
<path fill="none" stroke="#63b8ff" d="M2092.91,-265.72C2196.14,-259.94 2402.98,-245.89 2576.5,-218.75 2581.71,-217.94 2587.13,-216.95 2592.51,-215.88"/>
<polygon fill="#63b8ff" stroke="#63b8ff" points="2592.87,-219.38 2601.95,-213.91 2591.44,-212.53 2592.87,-219.38"/>
</a>
</g>
</g>
<!-- Node4 -->
<g id="Node000004" class="node">
<title>Node4</title>
<g id="a_Node000004"><a xlink:href="typed__linear__algebra__forward_8hpp.xhtml" target="_top" xlink:title="Authoritative forward declaration header.">
<polygon fill="white" stroke="#666666" points="2150.75,-146.62 2046.25,-146.62 2046.25,-116.12 2150.75,-116.12 2150.75,-146.62"/>
<text text-anchor="start" x="2054.25" y="-133.12" font-family="Helvetica,sans-Serif" font-size="10.00">typed_linear_algebra</text>
<text text-anchor="middle" x="2098.5" y="-121.88" font-family="Helvetica,sans-Serif" font-size="10.00">_forward.hpp</text>
</a>
</g>
</g>
<!-- Node3&#45;&gt;Node4 -->
<g id="edge3_Node000003_Node000004" class="edge">
<title>Node3&#45;&gt;Node4</title>
<g id="a_edge3_Node000003_Node000004"><a xlink:title=" ">
<path fill="none" stroke="#63b8ff" d="M1453.86,-202.52C1564.74,-201.63 1824.48,-194.72 2037.5,-152.25 2040.62,-151.63 2043.81,-150.9 2047.01,-150.09"/>
<polygon fill="#63b8ff" stroke="#63b8ff" points="2047.68,-153.53 2056.38,-147.49 2045.81,-146.79 2047.68,-153.53"/>
</a>
</g>
</g>
<!-- Node5 -->
<g id="Node000005" class="node">
<title>Node5</title>
<g id="a_Node000005"><a xlink:href="format_8hpp.xhtml" target="_top" xlink:title="Formatting support for the typed matrix.">
<polygon fill="white" stroke="#666666" points="2273.75,-146.62 2169.25,-146.62 2169.25,-116.12 2273.75,-116.12 2273.75,-146.62"/>
<text text-anchor="start" x="2177.25" y="-133.12" font-family="Helvetica,sans-Serif" font-size="10.00">typed_linear_algebra</text>
<text text-anchor="middle" x="2221.5" y="-121.88" font-family="Helvetica,sans-Serif" font-size="10.00">_internal/format.hpp</text>
</a>
</g>
</g>
<!-- Node3&#45;&gt;Node5 -->
<g id="edge4_Node000003_Node000005" class="edge">
<title>Node3&#45;&gt;Node5</title>
<g id="a_edge4_Node000003_Node000005"><a xlink:title=" ">
<path fill="none" stroke="#63b8ff" d="M1454.03,-200.62C1604.61,-195.17 2024,-178.05 2159.5,-152.25 2162.83,-151.62 2166.24,-150.86 2169.65,-150.01"/>
<polygon fill="#63b8ff" stroke="#63b8ff" points="2170.32,-153.46 2179.05,-147.46 2168.48,-146.7 2170.32,-153.46"/>
</a>
</g>
</g>
<!-- Node6 -->
<g id="Node000006" class="node">
<title>Node6</title>
<g id="a_Node000006"><a xlink:href="utility_8hpp.xhtml" target="_top" xlink:title=" ">
<polygon fill="white" stroke="#666666" points="2245.75,-74.5 2189.25,-74.5 2189.25,-55.25 2245.75,-55.25 2245.75,-74.5"/>
<text text-anchor="middle" x="2217.5" y="-61" font-family="Helvetica,sans-Serif" font-size="10.00">utility.hpp</text>
</a>
</g>
</g>
<!-- Node3&#45;&gt;Node6 -->
<g id="edge12_Node000003_Node000006" class="edge">
<title>Node3&#45;&gt;Node6</title>
<g id="a_edge12_Node000003_Node000006"><a xlink:title=" ">
<path fill="none" stroke="#63b8ff" d="M1344.99,-202.17C1122.92,-200.56 296.46,-191.91 258.5,-152.25 245.67,-138.84 245.53,-123.77 258.5,-110.5 293.28,-74.92 1901.53,-67.1 2177.43,-66.02"/>
<polygon fill="#63b8ff" stroke="#63b8ff" points="2177.34,-69.52 2187.33,-65.98 2177.31,-62.52 2177.34,-69.52"/>
</a>
</g>
</g>
<!-- Node7 -->
<g id="Node000007" class="node">
<title>Node7</title>
<g id="a_Node000007"><a xlink:title=" ">
<polygon fill="#e0e0e0" stroke="#999999" points="2331.38,-19.25 2275.62,-19.25 2275.62,0 2331.38,0 2331.38,-19.25"/>
<text text-anchor="middle" x="2303.5" y="-5.75" font-family="Helvetica,sans-Serif" font-size="10.00">concepts</text>
</a>
</g>
</g>
<!-- Node3&#45;&gt;Node7 -->
<g id="edge13_Node000003_Node000007" class="edge">
<title>Node3&#45;&gt;Node7</title>
<g id="a_edge13_Node000003_Node000007"><a xlink:title=" ">
<path fill="none" stroke="#63b8ff" d="M1454.12,-201.27C1644.79,-196.76 2271.06,-179.88 2303.5,-152.25 2336.82,-123.87 2328.42,-98.3 2320.5,-55.25 2318.93,-46.7 2315.79,-37.66 2312.63,-29.97"/>
<polygon fill="#63b8ff" stroke="#63b8ff" points="2315.89,-28.68 2308.64,-20.96 2309.49,-31.52 2315.89,-28.68"/>
</a>
</g>
</g>
<!-- Node3&#45;&gt;Node9 -->
<g id="edge17_Node000003_Node000009" class="edge">
<title>Node3&#45;&gt;Node9</title>
<g id="a_edge17_Node000003_Node000009"><a xlink:title=" ">
<path fill="none" stroke="#63b8ff" d="M1453.9,-201.24C1647.66,-196.51 2294.48,-178.82 2329.5,-152.25 2367.68,-123.29 2375.75,-62.47 2377.29,-30.79"/>
<polygon fill="#63b8ff" stroke="#63b8ff" points="2380.78,-31.12 2377.57,-21.02 2373.79,-30.92 2380.78,-31.12"/>
</a>
</g>
</g>
<!-- Node11 -->
<g id="Node000011" class="node">
<title>Node11</title>
<g id="a_Node000011"><a xlink:title=" ">
<polygon fill="#e0e0e0" stroke="#999999" points="2311.62,-74.5 2263.38,-74.5 2263.38,-55.25 2311.62,-55.25 2311.62,-74.5"/>
<text text-anchor="middle" x="2287.5" y="-61" font-family="Helvetica,sans-Serif" font-size="10.00">cstddef</text>
</a>
</g>
</g>
<!-- Node3&#45;&gt;Node11 -->
<g id="edge14_Node000003_Node000011" class="edge">
<title>Node3&#45;&gt;Node11</title>
<g id="a_edge14_Node000003_Node000011"><a xlink:title=" ">
<path fill="none" stroke="#63b8ff" d="M1453.98,-201.38C1641.89,-197.25 2253.1,-181.62 2282.5,-152.25 2299.49,-135.28 2297.21,-105.81 2293.1,-86.08"/>
<polygon fill="#63b8ff" stroke="#63b8ff" points="2296.52,-85.35 2290.75,-76.47 2289.72,-87.01 2296.52,-85.35"/>
</a>
</g>
</g>
<!-- Node3&#45;&gt;Node12 -->
<g id="edge15_Node000003_Node000012" class="edge">
<title>Node3&#45;&gt;Node12</title>
<g id="a_edge15_Node000003_Node000012"><a xlink:title=" ">
<path fill="none" stroke="#63b8ff" d="M1345.14,-201.66C1122.67,-198.05 291.13,-182.54 244.5,-152.25 221.7,-137.44 210.53,-106.68 205.4,-86.16"/>
<polygon fill="#63b8ff" stroke="#63b8ff" points="208.83,-85.43 203.27,-76.42 201.99,-86.93 208.83,-85.43"/>
</a>
</g>
</g>
<!-- Node13 -->
<g id="Node000013" class="node">
<title>Node13</title>
<g id="a_Node000013"><a xlink:title=" ">
<polygon fill="#e0e0e0" stroke="#999999" points="339.25,-141 267.75,-141 267.75,-121.75 339.25,-121.75 339.25,-141"/>
<text text-anchor="middle" x="303.5" y="-127.5" font-family="Helvetica,sans-Serif" font-size="10.00">initializer_list</text>
</a>
</g>
</g>
<!-- Node3&#45;&gt;Node13 -->
<g id="edge16_Node000003_Node000013" class="edge">
<title>Node3&#45;&gt;Node13</title>
<g id="a_edge16_Node000003_Node000013"><a xlink:title=" ">
<path fill="none" stroke="#63b8ff" d="M1344.93,-202.52C1157.44,-202.19 540.62,-197.61 348.5,-152.25 342.37,-150.8 336.04,-148.54 330.13,-146.05"/>
<polygon fill="#63b8ff" stroke="#63b8ff" points="332.01,-143.06 321.46,-142.09 329.1,-149.43 332.01,-143.06"/>
</a>
</g>
</g>
<!-- Node14 -->
<g id="Node000014" class="node">
<title>Node14</title>
<g id="a_Node000014"><a xlink:title=" ">
<polygon fill="#e0e0e0" stroke="#999999" points="395.75,-141 357.25,-141 357.25,-121.75 395.75,-121.75 395.75,-141"/>
<text text-anchor="middle" x="376.5" y="-127.5" font-family="Helvetica,sans-Serif" font-size="10.00">utility</text>
</a>
</g>
</g>
<!-- Node3&#45;&gt;Node14 -->
<g id="edge18_Node000003_Node000014" class="edge">
<title>Node3&#45;&gt;Node14</title>
<g id="a_edge18_Node000003_Node000014"><a xlink:title=" ">
<path fill="none" stroke="#63b8ff" d="M1345.12,-201.53C1150.21,-197.81 493.41,-183.09 404.5,-152.25 401.49,-151.21 398.51,-149.73 395.69,-148.05"/>
<polygon fill="#63b8ff" stroke="#63b8ff" points="397.77,-145.23 387.58,-142.34 393.74,-150.96 397.77,-145.23"/>
</a>
</g>
</g>
<!-- Node15 -->
<g id="Node000015" class="node">
<title>Node15</title>
<g id="a_Node000015"><a xlink:title=" ">
<polygon fill="#e0e0e0" stroke="#999999" points="543.5,-146.62 413.5,-146.62 413.5,-116.12 543.5,-116.12 543.5,-146.62"/>
<text text-anchor="start" x="421.5" y="-133.12" font-family="Helvetica,sans-Serif" font-size="10.00">typed_linear_algebra</text>
<text text-anchor="middle" x="478.5" y="-121.88" font-family="Helvetica,sans-Serif" font-size="10.00">_internal/algorithm/add.tpp</text>
</a>
</g>
</g>
<!-- Node3&#45;&gt;Node15 -->
<g id="edge19_Node000003_Node000015" class="edge">
<title>Node3&#45;&gt;Node15</title>
<g id="a_edge19_Node000003_Node000015"><a xlink:title=" ">
<path fill="none" stroke="#63b8ff" d="M1345.08,-203.08C1209.97,-203.7 848.77,-200.31 552.5,-152.25 547.92,-151.51 543.22,-150.6 538.5,-149.58"/>
<polygon fill="#63b8ff" stroke="#63b8ff" points="539.56,-146.23 529.03,-147.38 537.98,-153.05 539.56,-146.23"/>
</a>
</g>
</g>
<!-- Node16 -->
<g id="Node000016" class="node">
<title>Node16</title>
<g id="a_Node000016"><a xlink:title=" ">
<polygon fill="#e0e0e0" stroke="#999999" points="701.38,-146.62 561.62,-146.62 561.62,-116.12 701.38,-116.12 701.38,-146.62"/>
<text text-anchor="start" x="569.62" y="-133.12" font-family="Helvetica,sans-Serif" font-size="10.00">typed_linear_algebra</text>
<text text-anchor="middle" x="631.5" y="-121.88" font-family="Helvetica,sans-Serif" font-size="10.00">_internal/algorithm/divide.tpp</text>
</a>
</g>
</g>
<!-- Node3&#45;&gt;Node16 -->
<g id="edge20_Node000003_Node000016" class="edge">
<title>Node3&#45;&gt;Node16</title>
<g id="a_edge20_Node000003_Node000016"><a xlink:title=" ">
<path fill="none" stroke="#63b8ff" d="M1345.09,-201.73C1228.18,-199.39 944.66,-189.95 710.5,-152.25 705.66,-151.47 700.68,-150.54 695.68,-149.51"/>
<polygon fill="#63b8ff" stroke="#63b8ff" points="696.78,-146.16 686.26,-147.44 695.28,-153 696.78,-146.16"/>
</a>
</g>
</g>
<!-- Node17 -->
<g id="Node000017" class="node">
<title>Node17</title>
<g id="a_Node000017"><a xlink:title=" ">
<polygon fill="#e0e0e0" stroke="#999999" points="841.38,-152.25 719.62,-152.25 719.62,-110.5 841.38,-110.5 841.38,-152.25"/>
<text text-anchor="start" x="727.62" y="-138.75" font-family="Helvetica,sans-Serif" font-size="10.00">typed_linear_algebra</text>
<text text-anchor="start" x="727.62" y="-127.5" font-family="Helvetica,sans-Serif" font-size="10.00">_internal/algorithm/equal</text>
<text text-anchor="middle" x="780.5" y="-116.25" font-family="Helvetica,sans-Serif" font-size="10.00">_to.tpp</text>
</a>
</g>
</g>
<!-- Node3&#45;&gt;Node17 -->
<g id="edge21_Node000003_Node000017" class="edge">
<title>Node3&#45;&gt;Node17</title>
<g id="a_edge21_Node000003_Node000017"><a xlink:title=" ">
<path fill="none" stroke="#63b8ff" d="M1344.89,-200.85C1247.65,-197.19 1038.13,-186.02 853.11,-152.56"/>
<polygon fill="#63b8ff" stroke="#63b8ff" points="853.76,-149.12 843.3,-150.75 852.5,-156 853.76,-149.12"/>
</a>
</g>
</g>
<!-- Node18 -->
<g id="Node000018" class="node">
<title>Node18</title>
<g id="a_Node000018"><a xlink:title=" ">
<polygon fill="#e0e0e0" stroke="#999999" points="983.88,-152.25 859.12,-152.25 859.12,-110.5 983.88,-110.5 983.88,-152.25"/>
<text text-anchor="start" x="867.12" y="-138.75" font-family="Helvetica,sans-Serif" font-size="10.00">typed_linear_algebra</text>
<text text-anchor="start" x="867.12" y="-127.5" font-family="Helvetica,sans-Serif" font-size="10.00">_internal/algorithm/matrix</text>
<text text-anchor="middle" x="921.5" y="-116.25" font-family="Helvetica,sans-Serif" font-size="10.00">_product.tpp</text>
</a>
</g>
</g>
<!-- Node3&#45;&gt;Node18 -->
<g id="edge22_Node000003_Node000018" class="edge">
<title>Node3&#45;&gt;Node18</title>
<g id="a_edge22_Node000003_Node000018"><a xlink:title=" ">
<path fill="none" stroke="#63b8ff" d="M1344.92,-198.3C1268.73,-191.87 1126.09,-177.8 995.21,-152.43"/>
<polygon fill="#63b8ff" stroke="#63b8ff" points="996.17,-149.05 985.68,-150.56 994.82,-155.92 996.17,-149.05"/>
</a>
</g>
</g>
<!-- Node19 -->
<g id="Node000019" class="node">
<title>Node19</title>
<g id="a_Node000019"><a xlink:title=" ">
<polygon fill="#e0e0e0" stroke="#999999" points="1148.75,-146.62 1002.25,-146.62 1002.25,-116.12 1148.75,-116.12 1148.75,-146.62"/>
<text text-anchor="start" x="1010.25" y="-133.12" font-family="Helvetica,sans-Serif" font-size="10.00">typed_linear_algebra</text>
<text text-anchor="middle" x="1075.5" y="-121.88" font-family="Helvetica,sans-Serif" font-size="10.00">_internal/algorithm/product.tpp</text>
</a>
</g>
</g>
<!-- Node3&#45;&gt;Node19 -->
<g id="edge23_Node000003_Node000019" class="edge">
<title>Node3&#45;&gt;Node19</title>
<g id="a_edge23_Node000003_Node000019"><a xlink:title=" ">
<path fill="none" stroke="#63b8ff" d="M1345.09,-191.74C1295.97,-181.89 1221.76,-166.71 1157.5,-152.25 1153.74,-151.4 1149.89,-150.52 1146,-149.62"/>
<polygon fill="#63b8ff" stroke="#63b8ff" points="1147.02,-146.27 1136.49,-147.39 1145.42,-153.08 1147.02,-146.27"/>
</a>
</g>
</g>
<!-- Node20 -->
<g id="Node000020" class="node">
<title>Node20</title>
<g id="a_Node000020"><a xlink:title=" ">
<polygon fill="#e0e0e0" stroke="#999999" points="1304.25,-146.62 1166.75,-146.62 1166.75,-116.12 1304.25,-116.12 1304.25,-146.62"/>
<text text-anchor="start" x="1174.75" y="-133.12" font-family="Helvetica,sans-Serif" font-size="10.00">typed_linear_algebra</text>
<text text-anchor="middle" x="1235.5" y="-121.88" font-family="Helvetica,sans-Serif" font-size="10.00">_internal/algorithm/scale.tpp</text>
</a>
</g>
</g>
<!-- Node3&#45;&gt;Node20 -->
<g id="edge24_Node000003_Node000020" class="edge">
<title>Node3&#45;&gt;Node20</title>
<g id="a_edge24_Node000003_Node000020"><a xlink:title=" ">
<path fill="none" stroke="#63b8ff" d="M1365.12,-187.8C1340.41,-177.23 1306.87,-162.89 1280.1,-151.45"/>
<polygon fill="#63b8ff" stroke="#63b8ff" points="1281.8,-148.36 1271.23,-147.65 1279.04,-154.8 1281.8,-148.36"/>
</a>
</g>
</g>
<!-- Node21 -->
<g id="Node000021" class="node">
<title>Node21</title>
<g id="a_Node000021"><a xlink:title=" ">
<polygon fill="#e0e0e0" stroke="#999999" points="1476.88,-146.62 1322.12,-146.62 1322.12,-116.12 1476.88,-116.12 1476.88,-146.62"/>
<text text-anchor="start" x="1330.12" y="-133.12" font-family="Helvetica,sans-Serif" font-size="10.00">typed_linear_algebra</text>
<text text-anchor="middle" x="1399.5" y="-121.88" font-family="Helvetica,sans-Serif" font-size="10.00">_internal/algorithm/substract.tpp</text>
</a>
</g>
</g>
<!-- Node3&#45;&gt;Node21 -->
<g id="edge25_Node000003_Node000021" class="edge">
<title>Node3&#45;&gt;Node21</title>
<g id="a_edge25_Node000003_Node000021"><a xlink:title=" ">
<path fill="none" stroke="#63b8ff" d="M1399.5,-187.97C1399.5,-179.41 1399.5,-168.34 1399.5,-158.33"/>
<polygon fill="#63b8ff" stroke="#63b8ff" points="1403,-158.4 1399.5,-148.4 1396,-158.4 1403,-158.4"/>
</a>
</g>
</g>
<!-- Node22 -->
<g id="Node000022" class="node">
<title>Node22</title>
<g id="a_Node000022"><a xlink:title=" ">
<polygon fill="#e0e0e0" stroke="#999999" points="1657.62,-146.62 1495.38,-146.62 1495.38,-116.12 1657.62,-116.12 1657.62,-146.62"/>
<text text-anchor="start" x="1503.38" y="-133.12" font-family="Helvetica,sans-Serif" font-size="10.00">typed_linear_algebra</text>
<text text-anchor="middle" x="1576.5" y="-121.88" font-family="Helvetica,sans-Serif" font-size="10.00">_internal/algorithm/transposed.tpp</text>
</a>
</g>
</g>
<!-- Node3&#45;&gt;Node22 -->
<g id="edge26_Node000003_Node000022" class="edge">
<title>Node3&#45;&gt;Node22</title>
<g id="a_edge26_Node000003_Node000022"><a xlink:title=" ">
<path fill="none" stroke="#63b8ff" d="M1436.61,-187.8C1463.39,-177.19 1499.79,-162.77 1528.75,-151.29"/>
<polygon fill="#63b8ff" stroke="#63b8ff" points="1530.03,-154.55 1538.04,-147.61 1527.45,-148.04 1530.03,-154.55"/>
</a>
</g>
</g>
<!-- Node23 -->
<g id="Node000023" class="node">
<title>Node23</title>
<g id="a_Node000023"><a xlink:title=" ">
<polygon fill="#e0e0e0" stroke="#999999" points="1779.75,-146.62 1675.25,-146.62 1675.25,-116.12 1779.75,-116.12 1779.75,-146.62"/>
<text text-anchor="start" x="1683.25" y="-133.12" font-family="Helvetica,sans-Serif" font-size="10.00">typed_linear_algebra</text>
<text text-anchor="middle" x="1727.5" y="-121.88" font-family="Helvetica,sans-Serif" font-size="10.00">_internal/cast.tpp</text>
</a>
</g>
</g>
<!-- Node3&#45;&gt;Node23 -->
<g id="edge27_Node000003_Node000023" class="edge">
<title>Node3&#45;&gt;Node23</title>
<g id="a_edge27_Node000003_Node000023"><a xlink:title=" ">
<path fill="none" stroke="#63b8ff" d="M1453.9,-194.37C1508.17,-185.77 1593.73,-170.87 1666.5,-152.25 1668.91,-151.63 1671.37,-150.97 1673.84,-150.28"/>
<polygon fill="#63b8ff" stroke="#63b8ff" points="1674.65,-153.69 1683.26,-147.51 1672.68,-146.97 1674.65,-153.69"/>
</a>
</g>
</g>
<!-- Node24 -->
<g id="Node000024" class="node">
<title>Node24</title>
<g id="a_Node000024"><a xlink:title=" ">
<polygon fill="#e0e0e0" stroke="#999999" points="1902.75,-146.62 1798.25,-146.62 1798.25,-116.12 1902.75,-116.12 1902.75,-146.62"/>
<text text-anchor="start" x="1806.25" y="-133.12" font-family="Helvetica,sans-Serif" font-size="10.00">typed_linear_algebra</text>
<text text-anchor="middle" x="1850.5" y="-121.88" font-family="Helvetica,sans-Serif" font-size="10.00">_internal/tuple.tpp</text>
</a>
</g>
</g>
<!-- Node3&#45;&gt;Node24 -->
<g id="edge28_Node000003_Node000024" class="edge">
<title>Node3&#45;&gt;Node24</title>
<g id="a_edge28_Node000003_Node000024"><a xlink:title=" ">
<path fill="none" stroke="#63b8ff" d="M1453.84,-198.62C1529.54,-192.5 1670.69,-178.51 1788.5,-152.25 1791.3,-151.63 1794.15,-150.93 1797.02,-150.18"/>
<polygon fill="#63b8ff" stroke="#63b8ff" points="1797.94,-153.56 1806.63,-147.5 1796.06,-146.82 1797.94,-153.56"/>
</a>
</g>
</g>
<!-- Node25 -->
<g id="Node000025" class="node">
<title>Node25</title>
<g id="a_Node000025"><a xlink:title=" ">
<polygon fill="#e0e0e0" stroke="#999999" points="2028.25,-152.25 1920.75,-152.25 1920.75,-110.5 2028.25,-110.5 2028.25,-152.25"/>
<text text-anchor="start" x="1928.75" y="-138.75" font-family="Helvetica,sans-Serif" font-size="10.00">typed_linear_algebra</text>
<text text-anchor="start" x="1928.75" y="-127.5" font-family="Helvetica,sans-Serif" font-size="10.00">_internal/typed_linear</text>
<text text-anchor="middle" x="1974.5" y="-116.25" font-family="Helvetica,sans-Serif" font-size="10.00">_algebra.tpp</text>
</a>
</g>
</g>
<!-- Node3&#45;&gt;Node25 -->
<g id="edge29_Node000003_Node000025" class="edge">
<title>Node3&#45;&gt;Node25</title>
<g id="a_edge29_Node000003_Node000025"><a xlink:title=" ">
<path fill="none" stroke="#63b8ff" d="M1453.86,-200.87C1545.96,-197.3 1738.49,-186.37 1909.18,-152.49"/>
<polygon fill="#63b8ff" stroke="#63b8ff" points="1909.8,-155.94 1918.91,-150.53 1908.41,-149.08 1909.8,-155.94"/>
</a>
</g>
</g>
<!-- Node5&#45;&gt;Node6 -->
<g id="edge5_Node000005_Node000006" class="edge">
<title>Node5&#45;&gt;Node6</title>
<g id="a_edge5_Node000005_Node000006"><a xlink:title=" ">
<path fill="none" stroke="#63b8ff" d="M2220.59,-115.74C2220.05,-106.95 2219.35,-95.65 2218.75,-86.03"/>
<polygon fill="#63b8ff" stroke="#63b8ff" points="2222.25,-85.97 2218.14,-76.21 2215.27,-86.41 2222.25,-85.97"/>
</a>
</g>
</g>
<!-- Node5&#45;&gt;Node11 -->
<g id="edge10_Node000005_Node000011" class="edge">
<title>Node5&#45;&gt;Node11</title>
<g id="a_edge10_Node000005_Node000011"><a xlink:title=" ">
<path fill="none" stroke="#63b8ff" d="M2236.48,-115.74C2246.58,-105.87 2259.93,-92.82 2270.44,-82.54"/>
<polygon fill="#63b8ff" stroke="#63b8ff" points="2272.68,-85.25 2277.39,-75.76 2267.79,-80.24 2272.68,-85.25"/>
</a>
</g>
</g>
<!-- Node5&#45;&gt;Node12 -->
<g id="edge11_Node000005_Node000012" class="edge">
<title>Node5&#45;&gt;Node12</title>
<g id="a_edge11_Node000005_Node000012"><a xlink:title=" ">
<path fill="none" stroke="#63b8ff" d="M2181.23,-115.63C2174.08,-113.54 2166.63,-111.7 2159.5,-110.5 1962.47,-77.39 476.83,-67.46 234.79,-66.06"/>
<polygon fill="#63b8ff" stroke="#63b8ff" points="235.14,-62.56 225.12,-66 235.1,-69.56 235.14,-62.56"/>
</a>
</g>
</g>
<!-- Node6&#45;&gt;Node7 -->
<g id="edge6_Node000006_Node000007" class="edge">
<title>Node6&#45;&gt;Node7</title>
<g id="a_edge6_Node000006_Node000007"><a xlink:title=" ">
<path fill="none" stroke="#63b8ff" d="M2232.09,-54.84C2244.94,-46.89 2263.91,-35.14 2279.07,-25.75"/>
<polygon fill="#63b8ff" stroke="#63b8ff" points="2280.89,-28.74 2287.55,-20.5 2277.21,-22.79 2280.89,-28.74"/>
</a>
</g>
</g>
<!-- Node8 -->
<g id="Node000008" class="node">
<title>Node8</title>
<g id="a_Node000008"><a xlink:title=" ">
<polygon fill="#e0e0e0" stroke="#999999" points="2246.5,-19.25 2188.5,-19.25 2188.5,0 2246.5,0 2246.5,-19.25"/>
<text text-anchor="middle" x="2217.5" y="-5.75" font-family="Helvetica,sans-Serif" font-size="10.00">functional</text>
</a>
</g>
</g>
<!-- Node6&#45;&gt;Node8 -->
<g id="edge7_Node000006_Node000008" class="edge">
<title>Node6&#45;&gt;Node8</title>
<g id="a_edge7_Node000006_Node000008"><a xlink:title=" ">
<path fill="none" stroke="#63b8ff" d="M2217.5,-55.08C2217.5,-48.57 2217.5,-39.42 2217.5,-31.12"/>
<polygon fill="#63b8ff" stroke="#63b8ff" points="2221,-31.12 2217.5,-21.12 2214,-31.12 2221,-31.12"/>
</a>
</g>
</g>
<!-- Node6&#45;&gt;Node9 -->
<g id="edge8_Node000006_Node000009" class="edge">
<title>Node6&#45;&gt;Node9</title>
<g id="a_edge8_Node000006_Node000009"><a xlink:title=" ">
<path fill="none" stroke="#63b8ff" d="M2244.64,-54.84C2273.29,-45.31 2318.31,-30.32 2347.87,-20.49"/>
<polygon fill="#63b8ff" stroke="#63b8ff" points="2348.93,-23.82 2357.31,-17.34 2346.72,-17.18 2348.93,-23.82"/>
</a>
</g>
</g>
<!-- Node6&#45;&gt;Node10 -->
<g id="edge9_Node000006_Node000010" class="edge">
<title>Node6&#45;&gt;Node10</title>
<g id="a_edge9_Node000006_Node000010"><a xlink:title=" ">
<path fill="none" stroke="#63b8ff" d="M2188.76,-62.46C2039.54,-55.14 1353.19,-21.46 1174.91,-12.71"/>
<polygon fill="#63b8ff" stroke="#63b8ff" points="1175.11,-9.21 1164.95,-12.22 1174.77,-16.2 1175.11,-9.21"/>
</a>
</g>
</g>
</g>
</svg>
