<?xml version="1.0" encoding="UTF-8" standalone="no"?>
<!DOCTYPE svg PUBLIC "-//W3C//DTD SVG 1.1//EN"
 "http://www.w3.org/Graphics/SVG/1.1/DTD/svg11.dtd">
<!-- Generated by graphviz version 12.2.0 (20241103.1931)
 -->
<!-- Title: /github/workspace/sample/mp_units_std.cpp Pages: 1 -->
<svg width="3216pt" height="293pt"
 viewBox="0.00 0.00 3216.12 293.25" xmlns="http://www.w3.org/2000/svg" xmlns:xlink="http://www.w3.org/1999/xlink">
<g id="graph0" class="graph" transform="scale(1 1) rotate(0) translate(4 289.25)">
<title>/github/workspace/sample/mp_units_std.cpp</title>
<!-- Node1 -->
<g id="Node000001" class="node">
<title>Node1</title>
<g id="a_Node000001"><a xlink:title="Unit safe linear algebra with mp&#45;units and Eigen.">
<polygon fill="#999999" stroke="#666666" points="2563.5,-285.25 2433.5,-285.25 2433.5,-254.75 2563.5,-254.75 2563.5,-285.25"/>
<text text-anchor="start" x="2441.5" y="-271.75" font-family="Helvetica,sans-Serif" font-size="10.00">/github/workspace/sample</text>
<text text-anchor="middle" x="2498.5" y="-260.5" font-family="Helvetica,sans-Serif" font-size="10.00">/mp_units_std.cpp</text>
</a>
</g>
</g>
<!-- Node2 -->
<g id="Node000002" class="node">
<title>Node2</title>
<g id="a_Node000002"><a xlink:href="typed__linear__algebra_8hpp.xhtml" target="_top" xlink:title="Typed linear algebra implementation.">
<polygon fill="white" stroke="#666666" points="1320.62,-218.75 1212.38,-218.75 1212.38,-188.25 1320.62,-188.25 1320.62,-218.75"/>
<text text-anchor="start" x="1220.38" y="-205.25" font-family="Helvetica,sans-Serif" font-size="10.00">fcarouge/typed_linear</text>
<text text-anchor="middle" x="1266.5" y="-194" font-family="Helvetica,sans-Serif" font-size="10.00">_algebra.hpp</text>
</a>
</g>
</g>
<!-- Node1&#45;&gt;Node2 -->
<g id="edge1_Node000001_Node000002" class="edge">
<title>Node1&#45;&gt;Node2</title>
<g id="a_edge1_Node000001_Node000002"><a xlink:title=" ">
<path fill="none" stroke="#63b8ff" d="M2433.13,-265.58C2219.91,-254.41 1546.11,-219.14 1332.29,-207.94"/>
<polygon fill="#63b8ff" stroke="#63b8ff" points="1332.64,-204.46 1322.47,-207.43 1332.27,-211.45 1332.64,-204.46"/>
</a>
</g>
</g>
<!-- Node8 -->
<g id="Node000008" class="node">
<title>Node8</title>
<g id="a_Node000008"><a xlink:title=" ">
<polygon fill="#e0e0e0" stroke="#999999" points="2301,-19.25 2264,-19.25 2264,0 2301,0 2301,-19.25"/>
<text text-anchor="middle" x="2282.5" y="-5.75" font-family="Helvetica,sans-Serif" font-size="10.00">tuple</text>
</a>
</g>
</g>
<!-- Node1&#45;&gt;Node8 -->
<g id="edge34_Node000001_Node000008" class="edge">
<title>Node1&#45;&gt;Node8</title>
<g id="a_edge34_Node000001_Node000008"><a xlink:title=" ">
<path fill="none" stroke="#63b8ff" d="M2439.18,-254.27C2417.67,-246.56 2394.51,-235.19 2377.5,-218.75 2321.44,-164.6 2295.51,-71.18 2286.45,-30.51"/>
<polygon fill="#63b8ff" stroke="#63b8ff" points="2289.92,-30.02 2284.44,-20.96 2283.07,-31.46 2289.92,-30.02"/>
</a>
</g>
</g>
<!-- Node9 -->
<g id="Node000009" class="node">
<title>Node9</title>
<g id="a_Node000009"><a xlink:title=" ">
<polygon fill="#e0e0e0" stroke="#999999" points="61,-19.25 0,-19.25 0,0 61,0 61,-19.25"/>
<text text-anchor="middle" x="30.5" y="-5.75" font-family="Helvetica,sans-Serif" font-size="10.00">type_traits</text>
</a>
</g>
</g>
<!-- Node1&#45;&gt;Node9 -->
<g id="edge35_Node000001_Node000009" class="edge">
<title>Node1&#45;&gt;Node9</title>
<g id="a_edge35_Node000001_Node000009"><a xlink:title=" ">
<path fill="none" stroke="#63b8ff" d="M2433.27,-267.81C2058.01,-260.74 187.73,-222.06 89.5,-152.25 49.43,-123.77 36.47,-62.74 32.36,-30.9"/>
<polygon fill="#63b8ff" stroke="#63b8ff" points="35.85,-30.62 31.28,-21.07 28.89,-31.39 35.85,-30.62"/>
</a>
</g>
</g>
<!-- Node10 -->
<g id="Node000010" class="node">
<title>Node10</title>
<g id="a_Node000010"><a xlink:title=" ">
<polygon fill="#e0e0e0" stroke="#999999" points="2242.62,-74.5 2194.38,-74.5 2194.38,-55.25 2242.62,-55.25 2242.62,-74.5"/>
<text text-anchor="middle" x="2218.5" y="-61" font-family="Helvetica,sans-Serif" font-size="10.00">cstddef</text>
</a>
</g>
</g>
<!-- Node1&#45;&gt;Node10 -->
<g id="edge29_Node000001_Node000010" class="edge">
<title>Node1&#45;&gt;Node10</title>
<g id="a_edge29_Node000001_Node000010"><a xlink:title=" ">
<path fill="none" stroke="#63b8ff" d="M2433.22,-256.66C2404.24,-249.01 2370.83,-237.05 2344.5,-218.75 2294.05,-183.68 2298.14,-157.45 2258.5,-110.5 2250.8,-101.37 2241.96,-91.46 2234.55,-83.3"/>
<polygon fill="#63b8ff" stroke="#63b8ff" points="2237.29,-81.1 2227.96,-76.08 2232.12,-85.82 2237.29,-81.1"/>
</a>
</g>
</g>
<!-- Node11 -->
<g id="Node000011" class="node">
<title>Node11</title>
<g id="a_Node000011"><a xlink:title=" ">
<polygon fill="#e0e0e0" stroke="#999999" points="2176.38,-74.5 2132.62,-74.5 2132.62,-55.25 2176.38,-55.25 2176.38,-74.5"/>
<text text-anchor="middle" x="2154.5" y="-61" font-family="Helvetica,sans-Serif" font-size="10.00">format</text>
</a>
</g>
</g>
<!-- Node1&#45;&gt;Node11 -->
<g id="edge30_Node000001_Node000011" class="edge">
<title>Node1&#45;&gt;Node11</title>
<g id="a_edge30_Node000001_Node000011"><a xlink:title=" ">
<path fill="none" stroke="#63b8ff" d="M2433.33,-260.59C2394.81,-253.55 2346.16,-240.94 2307.5,-218.75 2245.5,-183.16 2191.09,-115.95 2167.28,-83.84"/>
<polygon fill="#63b8ff" stroke="#63b8ff" points="2170.26,-81.98 2161.54,-75.95 2164.6,-86.1 2170.26,-81.98"/>
</a>
</g>
</g>
<!-- Node25 -->
<g id="Node000025" class="node">
<title>Node25</title>
<g id="a_Node000025"><a xlink:title=" ">
<polygon fill="#e0e0e0" stroke="#999999" points="2424.75,-213.12 2386.25,-213.12 2386.25,-193.88 2424.75,-193.88 2424.75,-213.12"/>
<text text-anchor="middle" x="2405.5" y="-199.62" font-family="Helvetica,sans-Serif" font-size="10.00">linalg</text>
</a>
</g>
</g>
<!-- Node1&#45;&gt;Node25 -->
<g id="edge31_Node000001_Node000025" class="edge">
<title>Node1&#45;&gt;Node25</title>
<g id="a_edge31_Node000001_Node000025"><a xlink:title=" ">
<path fill="none" stroke="#63b8ff" d="M2477.4,-254.36C2462.54,-244.06 2442.69,-230.29 2427.61,-219.83"/>
<polygon fill="#63b8ff" stroke="#63b8ff" points="2429.95,-217.2 2419.73,-214.37 2425.96,-222.95 2429.95,-217.2"/>
</a>
</g>
</g>
<!-- Node26 -->
<g id="Node000026" class="node">
<title>Node26</title>
<g id="a_Node000026"><a xlink:title=" ">
<polygon fill="#e0e0e0" stroke="#999999" points="2493.75,-213.12 2443.25,-213.12 2443.25,-193.88 2493.75,-193.88 2493.75,-213.12"/>
<text text-anchor="middle" x="2468.5" y="-199.62" font-family="Helvetica,sans-Serif" font-size="10.00">mdspan</text>
</a>
</g>
</g>
<!-- Node1&#45;&gt;Node26 -->
<g id="edge32_Node000001_Node000026" class="edge">
<title>Node1&#45;&gt;Node26</title>
<g id="a_edge32_Node000001_Node000026"><a xlink:title=" ">
<path fill="none" stroke="#63b8ff" d="M2491.69,-254.36C2487.47,-245.28 2481.99,-233.51 2477.42,-223.68"/>
<polygon fill="#63b8ff" stroke="#63b8ff" points="2480.63,-222.29 2473.24,-214.7 2474.29,-225.24 2480.63,-222.29"/>
</a>
</g>
</g>
<!-- Node27 -->
<g id="Node000027" class="node">
<title>Node27</title>
<g id="a_Node000027"><a xlink:title=" ">
<polygon fill="#e0e0e0" stroke="#999999" points="2546.88,-213.12 2512.12,-213.12 2512.12,-193.88 2546.88,-193.88 2546.88,-213.12"/>
<text text-anchor="middle" x="2529.5" y="-199.62" font-family="Helvetica,sans-Serif" font-size="10.00">print</text>
</a>
</g>
</g>
<!-- Node1&#45;&gt;Node27 -->
<g id="edge33_Node000001_Node000027" class="edge">
<title>Node1&#45;&gt;Node27</title>
<g id="a_edge33_Node000001_Node000027"><a xlink:title=" ">
<path fill="none" stroke="#63b8ff" d="M2505.53,-254.36C2509.9,-245.28 2515.56,-233.51 2520.28,-223.68"/>
<polygon fill="#63b8ff" stroke="#63b8ff" points="2523.43,-225.22 2524.6,-214.69 2517.12,-222.18 2523.43,-225.22"/>
</a>
</g>
</g>
<!-- Node28 -->
<g id="Node000028" class="node">
<title>Node28</title>
<g id="a_Node000028"><a xlink:title=" ">
<polygon fill="#e0e0e0" stroke="#999999" points="2608,-213.12 2565,-213.12 2565,-193.88 2608,-193.88 2608,-213.12"/>
<text text-anchor="middle" x="2586.5" y="-199.62" font-family="Helvetica,sans-Serif" font-size="10.00">vector</text>
</a>
</g>
</g>
<!-- Node1&#45;&gt;Node28 -->
<g id="edge36_Node000001_Node000028" class="edge">
<title>Node1&#45;&gt;Node28</title>
<g id="a_edge36_Node000001_Node000028"><a xlink:title=" ">
<path fill="none" stroke="#63b8ff" d="M2518.47,-254.36C2532.39,-244.16 2550.95,-230.55 2565.17,-220.13"/>
<polygon fill="#63b8ff" stroke="#63b8ff" points="2566.99,-223.14 2572.99,-214.4 2562.85,-217.49 2566.99,-223.14"/>
</a>
</g>
</g>
<!-- Node29 -->
<g id="Node000029" class="node">
<title>Node29</title>
<g id="a_Node000029"><a xlink:title=" ">
<polygon fill="#e0e0e0" stroke="#999999" points="2728.62,-218.75 2626.38,-218.75 2626.38,-188.25 2728.62,-188.25 2728.62,-218.75"/>
<text text-anchor="start" x="2634.38" y="-205.25" font-family="Helvetica,sans-Serif" font-size="10.00">mp&#45;units/framework</text>
<text text-anchor="middle" x="2677.5" y="-194" font-family="Helvetica,sans-Serif" font-size="10.00">/quantity.h</text>
</a>
</g>
</g>
<!-- Node1&#45;&gt;Node29 -->
<g id="edge37_Node000001_Node000029" class="edge">
<title>Node1&#45;&gt;Node29</title>
<g id="a_edge37_Node000001_Node000029"><a xlink:title=" ">
<path fill="none" stroke="#63b8ff" d="M2539.12,-254.36C2564.89,-245.08 2598.46,-232.98 2626.08,-223.03"/>
<polygon fill="#63b8ff" stroke="#63b8ff" points="2627.09,-226.39 2635.31,-219.7 2624.72,-219.8 2627.09,-226.39"/>
</a>
</g>
</g>
<!-- Node30 -->
<g id="Node000030" class="node">
<title>Node30</title>
<g id="a_Node000030"><a xlink:title=" ">
<polygon fill="#e0e0e0" stroke="#999999" points="2848.62,-218.75 2746.38,-218.75 2746.38,-188.25 2848.62,-188.25 2848.62,-218.75"/>
<text text-anchor="start" x="2754.38" y="-205.25" font-family="Helvetica,sans-Serif" font-size="10.00">mp&#45;units/framework</text>
<text text-anchor="middle" x="2797.5" y="-194" font-family="Helvetica,sans-Serif" font-size="10.00">/quantity_point.h</text>
</a>
</g>
</g>
<!-- Node1&#45;&gt;Node30 -->
<g id="edge38_Node000001_Node000030" class="edge">
<title>Node1&#45;&gt;Node30</title>
<g id="a_edge38_Node000001_Node000030"><a xlink:title=" ">
<path fill="none" stroke="#63b8ff" d="M2563.77,-255.75C2609.24,-246.41 2671.58,-233.4 2735.1,-219.26"/>
<polygon fill="#63b8ff" stroke="#63b8ff" points="2735.66,-222.72 2744.66,-217.12 2734.13,-215.89 2735.66,-222.72"/>
</a>
</g>
</g>
<!-- Node31 -->
<g id="Node000031" class="node">
<title>Node31</title>
<g id="a_Node000031"><a xlink:title=" ">
<polygon fill="#e0e0e0" stroke="#999999" points="2952.38,-213.12 2866.62,-213.12 2866.62,-193.88 2952.38,-193.88 2952.38,-213.12"/>
<text text-anchor="middle" x="2909.5" y="-199.62" font-family="Helvetica,sans-Serif" font-size="10.00">mp&#45;units/math.h</text>
</a>
</g>
</g>
<!-- Node1&#45;&gt;Node31 -->
<g id="edge39_Node000001_Node000031" class="edge">
<title>Node1&#45;&gt;Node31</title>
<g id="a_edge39_Node000001_Node000031"><a xlink:title=" ">
<path fill="none" stroke="#63b8ff" d="M2563.78,-262.41C2636.06,-254.53 2755.8,-239.71 2857.5,-218.75 2860.87,-218.05 2864.35,-217.26 2867.84,-216.42"/>
<polygon fill="#63b8ff" stroke="#63b8ff" points="2868.58,-219.84 2877.4,-213.97 2866.84,-213.06 2868.58,-219.84"/>
</a>
</g>
</g>
<!-- Node32 -->
<g id="Node000032" class="node">
<title>Node32</title>
<g id="a_Node000032"><a xlink:title=" ">
<polygon fill="#e0e0e0" stroke="#999999" points="3079,-218.75 2970,-218.75 2970,-188.25 3079,-188.25 3079,-218.75"/>
<text text-anchor="start" x="2978" y="-205.25" font-family="Helvetica,sans-Serif" font-size="10.00">mp&#45;units/systems/isq</text>
<text text-anchor="middle" x="3024.5" y="-194" font-family="Helvetica,sans-Serif" font-size="10.00">/thermodynamics.h</text>
</a>
</g>
</g>
<!-- Node1&#45;&gt;Node32 -->
<g id="edge40_Node000001_Node000032" class="edge">
<title>Node1&#45;&gt;Node32</title>
<g id="a_edge40_Node000001_Node000032"><a xlink:title=" ">
<path fill="none" stroke="#63b8ff" d="M2564,-264.26C2651.79,-257.39 2812.64,-242.96 2958.66,-219.11"/>
<polygon fill="#63b8ff" stroke="#63b8ff" points="2958.81,-222.64 2968.1,-217.55 2957.67,-215.73 2958.81,-222.64"/>
</a>
</g>
</g>
<!-- Node33 -->
<g id="Node000033" class="node">
<title>Node33</title>
<g id="a_Node000033"><a xlink:title=" ">
<polygon fill="#e0e0e0" stroke="#999999" points="3208.12,-213.12 3096.88,-213.12 3096.88,-193.88 3208.12,-193.88 3208.12,-213.12"/>
<text text-anchor="middle" x="3152.5" y="-199.62" font-family="Helvetica,sans-Serif" font-size="10.00">mp&#45;units/systems/si.h</text>
</a>
</g>
</g>
<!-- Node1&#45;&gt;Node33 -->
<g id="edge41_Node000001_Node000033" class="edge">
<title>Node1&#45;&gt;Node33</title>
<g id="a_edge41_Node000001_Node000033"><a xlink:title=" ">
<path fill="none" stroke="#63b8ff" d="M2563.88,-266.3C2673.07,-261.15 2899.24,-247.75 3088.5,-218.75 3093.78,-217.94 3099.27,-216.95 3104.72,-215.87"/>
<polygon fill="#63b8ff" stroke="#63b8ff" points="3105.22,-219.34 3114.29,-213.87 3103.78,-212.49 3105.22,-219.34"/>
</a>
</g>
</g>
<!-- Node3 -->
<g id="Node000003" class="node">
<title>Node3</title>
<g id="a_Node000003"><a xlink:href="typed__linear__algebra__forward_8hpp.xhtml" target="_top" xlink:title="Authoritative forward declaration header.">
<polygon fill="white" stroke="#666666" points="2017.75,-146.62 1913.25,-146.62 1913.25,-116.12 2017.75,-116.12 2017.75,-146.62"/>
<text text-anchor="start" x="1921.25" y="-133.12" font-family="Helvetica,sans-Serif" font-size="10.00">typed_linear_algebra</text>
<text text-anchor="middle" x="1965.5" y="-121.88" font-family="Helvetica,sans-Serif" font-size="10.00">_forward.hpp</text>
</a>
</g>
</g>
<!-- Node2&#45;&gt;Node3 -->
<g id="edge2_Node000002_Node000003" class="edge">
<title>Node2&#45;&gt;Node3</title>
<g id="a_edge2_Node000002_Node000003"><a xlink:title=" ">
<path fill="none" stroke="#63b8ff" d="M1320.86,-202.52C1431.74,-201.63 1691.48,-194.72 1904.5,-152.25 1907.62,-151.63 1910.81,-150.9 1914.01,-150.09"/>
<polygon fill="#63b8ff" stroke="#63b8ff" points="1914.68,-153.53 1923.38,-147.49 1912.81,-146.79 1914.68,-153.53"/>
</a>
</g>
</g>
<!-- Node4 -->
<g id="Node000004" class="node">
<title>Node4</title>
<g id="a_Node000004"><a xlink:href="format_8hpp.xhtml" target="_top" xlink:title="Formatting support for the typed matrix.">
<polygon fill="white" stroke="#666666" points="2140.75,-146.62 2036.25,-146.62 2036.25,-116.12 2140.75,-116.12 2140.75,-146.62"/>
<text text-anchor="start" x="2044.25" y="-133.12" font-family="Helvetica,sans-Serif" font-size="10.00">typed_linear_algebra</text>
<text text-anchor="middle" x="2088.5" y="-121.88" font-family="Helvetica,sans-Serif" font-size="10.00">_internal/format.hpp</text>
</a>
</g>
</g>
<!-- Node2&#45;&gt;Node4 -->
<g id="edge3_Node000002_Node000004" class="edge">
<title>Node2&#45;&gt;Node4</title>
<g id="a_edge3_Node000002_Node000004"><a xlink:title=" ">
<path fill="none" stroke="#63b8ff" d="M1321.03,-200.62C1471.61,-195.17 1891,-178.05 2026.5,-152.25 2029.83,-151.62 2033.24,-150.86 2036.65,-150.01"/>
<polygon fill="#63b8ff" stroke="#63b8ff" points="2037.32,-153.46 2046.05,-147.46 2035.48,-146.7 2037.32,-153.46"/>
</a>
</g>
</g>
<!-- Node5 -->
<g id="Node000005" class="node">
<title>Node5</title>
<g id="a_Node000005"><a xlink:href="utility_8hpp.xhtml" target="_top" xlink:title=" ">
<polygon fill="white" stroke="#666666" points="181.75,-74.5 125.25,-74.5 125.25,-55.25 181.75,-55.25 181.75,-74.5"/>
<text text-anchor="middle" x="153.5" y="-61" font-family="Helvetica,sans-Serif" font-size="10.00">utility.hpp</text>
</a>
</g>
</g>
<!-- Node2&#45;&gt;Node5 -->
<g id="edge11_Node000002_Node000005" class="edge">
<title>Node2&#45;&gt;Node5</title>
<g id="a_edge11_Node000002_Node000005"><a xlink:title=" ">
<path fill="none" stroke="#63b8ff" d="M1211.99,-202.17C989.92,-200.56 163.46,-191.91 125.5,-152.25 107.59,-133.53 124.22,-103.25 138.42,-83.96"/>
<polygon fill="#63b8ff" stroke="#63b8ff" points="141.09,-86.23 144.49,-76.19 135.58,-81.91 141.09,-86.23"/>
</a>
</g>
</g>
<!-- Node6 -->
<g id="Node000006" class="node">
<title>Node6</title>
<g id="a_Node000006"><a xlink:title=" ">
<polygon fill="#e0e0e0" stroke="#999999" points="134.38,-19.25 78.62,-19.25 78.62,0 134.38,0 134.38,-19.25"/>
<text text-anchor="middle" x="106.5" y="-5.75" font-family="Helvetica,sans-Serif" font-size="10.00">concepts</text>
</a>
</g>
</g>
<!-- Node2&#45;&gt;Node6 -->
<g id="edge12_Node000002_Node000006" class="edge">
<title>Node2&#45;&gt;Node6</title>
<g id="a_edge12_Node000002_Node000006"><a xlink:title=" ">
<path fill="none" stroke="#63b8ff" d="M1212.22,-202.14C989.16,-200.43 152.89,-191.41 113.5,-152.25 81.43,-120.37 91.78,-61.32 100.18,-30.51"/>
<polygon fill="#63b8ff" stroke="#63b8ff" points="103.52,-31.56 103,-20.98 96.81,-29.57 103.52,-31.56"/>
</a>
</g>
</g>
<!-- Node2&#45;&gt;Node8 -->
<g id="edge16_Node000002_Node000008" class="edge">
<title>Node2&#45;&gt;Node8</title>
<g id="a_edge16_Node000002_Node000008"><a xlink:title=" ">
<path fill="none" stroke="#63b8ff" d="M1320.91,-202.41C1508.98,-201.71 2124.31,-196.07 2200.5,-152.25 2246.38,-125.86 2268.9,-62.89 2277.77,-30.55"/>
<polygon fill="#63b8ff" stroke="#63b8ff" points="2281.15,-31.47 2280.23,-20.91 2274.37,-29.74 2281.15,-31.47"/>
</a>
</g>
</g>
<!-- Node2&#45;&gt;Node10 -->
<g id="edge13_Node000002_Node000010" class="edge">
<title>Node2&#45;&gt;Node10</title>
<g id="a_edge13_Node000002_Node000010"><a xlink:title=" ">
<path fill="none" stroke="#63b8ff" d="M1320.86,-202.5C1505.14,-202.1 2098.61,-197.28 2170.5,-152.25 2194.21,-137.4 2207.19,-106.42 2213.49,-85.88"/>
<polygon fill="#63b8ff" stroke="#63b8ff" points="2216.82,-86.97 2216.12,-76.4 2210.07,-85.1 2216.82,-86.97"/>
</a>
</g>
</g>
<!-- Node2&#45;&gt;Node11 -->
<g id="edge14_Node000002_Node000011" class="edge">
<title>Node2&#45;&gt;Node11</title>
<g id="a_edge14_Node000002_Node000011"><a xlink:title=" ">
<path fill="none" stroke="#63b8ff" d="M1320.98,-201.38C1508.89,-197.25 2120.1,-181.62 2149.5,-152.25 2166.49,-135.28 2164.21,-105.81 2160.1,-86.08"/>
<polygon fill="#63b8ff" stroke="#63b8ff" points="2163.52,-85.35 2157.75,-76.47 2156.72,-87.01 2163.52,-85.35"/>
</a>
</g>
</g>
<!-- Node12 -->
<g id="Node000012" class="node">
<title>Node12</title>
<g id="a_Node000012"><a xlink:title=" ">
<polygon fill="#e0e0e0" stroke="#999999" points="206.25,-141 134.75,-141 134.75,-121.75 206.25,-121.75 206.25,-141"/>
<text text-anchor="middle" x="170.5" y="-127.5" font-family="Helvetica,sans-Serif" font-size="10.00">initializer_list</text>
</a>
</g>
</g>
<!-- Node2&#45;&gt;Node12 -->
<g id="edge15_Node000002_Node000012" class="edge">
<title>Node2&#45;&gt;Node12</title>
<g id="a_edge15_Node000002_Node000012"><a xlink:title=" ">
<path fill="none" stroke="#63b8ff" d="M1211.93,-202.52C1024.44,-202.19 407.62,-197.61 215.5,-152.25 209.37,-150.8 203.04,-148.54 197.13,-146.05"/>
<polygon fill="#63b8ff" stroke="#63b8ff" points="199.01,-143.06 188.46,-142.09 196.1,-149.43 199.01,-143.06"/>
</a>
</g>
</g>
<!-- Node13 -->
<g id="Node000013" class="node">
<title>Node13</title>
<g id="a_Node000013"><a xlink:title=" ">
<polygon fill="#e0e0e0" stroke="#999999" points="262.75,-141 224.25,-141 224.25,-121.75 262.75,-121.75 262.75,-141"/>
<text text-anchor="middle" x="243.5" y="-127.5" font-family="Helvetica,sans-Serif" font-size="10.00">utility</text>
</a>
</g>
</g>
<!-- Node2&#45;&gt;Node13 -->
<g id="edge17_Node000002_Node000013" class="edge">
<title>Node2&#45;&gt;Node13</title>
<g id="a_edge17_Node000002_Node000013"><a xlink:title=" ">
<path fill="none" stroke="#63b8ff" d="M1212.12,-201.53C1017.21,-197.81 360.41,-183.09 271.5,-152.25 268.49,-151.21 265.51,-149.73 262.69,-148.05"/>
<polygon fill="#63b8ff" stroke="#63b8ff" points="264.77,-145.23 254.58,-142.34 260.74,-150.96 264.77,-145.23"/>
</a>
</g>
</g>
<!-- Node14 -->
<g id="Node000014" class="node">
<title>Node14</title>
<g id="a_Node000014"><a xlink:title=" ">
<polygon fill="#e0e0e0" stroke="#999999" points="410.5,-146.62 280.5,-146.62 280.5,-116.12 410.5,-116.12 410.5,-146.62"/>
<text text-anchor="start" x="288.5" y="-133.12" font-family="Helvetica,sans-Serif" font-size="10.00">typed_linear_algebra</text>
<text text-anchor="middle" x="345.5" y="-121.88" font-family="Helvetica,sans-Serif" font-size="10.00">_internal/algorithm/add.tpp</text>
</a>
</g>
</g>
<!-- Node2&#45;&gt;Node14 -->
<g id="edge18_Node000002_Node000014" class="edge">
<title>Node2&#45;&gt;Node14</title>
<g id="a_edge18_Node000002_Node000014"><a xlink:title=" ">
<path fill="none" stroke="#63b8ff" d="M1212.08,-203.08C1076.97,-203.7 715.77,-200.31 419.5,-152.25 414.92,-151.51 410.22,-150.6 405.5,-149.58"/>
<polygon fill="#63b8ff" stroke="#63b8ff" points="406.56,-146.23 396.03,-147.38 404.98,-153.05 406.56,-146.23"/>
</a>
</g>
</g>
<!-- Node15 -->
<g id="Node000015" class="node">
<title>Node15</title>
<g id="a_Node000015"><a xlink:title=" ">
<polygon fill="#e0e0e0" stroke="#999999" points="568.38,-146.62 428.62,-146.62 428.62,-116.12 568.38,-116.12 568.38,-146.62"/>
<text text-anchor="start" x="436.62" y="-133.12" font-family="Helvetica,sans-Serif" font-size="10.00">typed_linear_algebra</text>
<text text-anchor="middle" x="498.5" y="-121.88" font-family="Helvetica,sans-Serif" font-size="10.00">_internal/algorithm/divide.tpp</text>
</a>
</g>
</g>
<!-- Node2&#45;&gt;Node15 -->
<g id="edge19_Node000002_Node000015" class="edge">
<title>Node2&#45;&gt;Node15</title>
<g id="a_edge19_Node000002_Node000015"><a xlink:title=" ">
<path fill="none" stroke="#63b8ff" d="M1212.09,-201.73C1095.18,-199.39 811.66,-189.95 577.5,-152.25 572.66,-151.47 567.68,-150.54 562.68,-149.51"/>
<polygon fill="#63b8ff" stroke="#63b8ff" points="563.78,-146.16 553.26,-147.44 562.28,-153 563.78,-146.16"/>
</a>
</g>
</g>
<!-- Node16 -->
<g id="Node000016" class="node">
<title>Node16</title>
<g id="a_Node000016"><a xlink:title=" ">
<polygon fill="#e0e0e0" stroke="#999999" points="708.38,-152.25 586.62,-152.25 586.62,-110.5 708.38,-110.5 708.38,-152.25"/>
<text text-anchor="start" x="594.62" y="-138.75" font-family="Helvetica,sans-Serif" font-size="10.00">typed_linear_algebra</text>
<text text-anchor="start" x="594.62" y="-127.5" font-family="Helvetica,sans-Serif" font-size="10.00">_internal/algorithm/equal</text>
<text text-anchor="middle" x="647.5" y="-116.25" font-family="Helvetica,sans-Serif" font-size="10.00">_to.tpp</text>
</a>
</g>
</g>
<!-- Node2&#45;&gt;Node16 -->
<g id="edge20_Node000002_Node000016" class="edge">
<title>Node2&#45;&gt;Node16</title>
<g id="a_edge20_Node000002_Node000016"><a xlink:title=" ">
<path fill="none" stroke="#63b8ff" d="M1211.89,-200.85C1114.65,-197.19 905.13,-186.02 720.11,-152.56"/>
<polygon fill="#63b8ff" stroke="#63b8ff" points="720.76,-149.12 710.3,-150.75 719.5,-156 720.76,-149.12"/>
</a>
</g>
</g>
<!-- Node17 -->
<g id="Node000017" class="node">
<title>Node17</title>
<g id="a_Node000017"><a xlink:title=" ">
<polygon fill="#e0e0e0" stroke="#999999" points="850.88,-152.25 726.12,-152.25 726.12,-110.5 850.88,-110.5 850.88,-152.25"/>
<text text-anchor="start" x="734.12" y="-138.75" font-family="Helvetica,sans-Serif" font-size="10.00">typed_linear_algebra</text>
<text text-anchor="start" x="734.12" y="-127.5" font-family="Helvetica,sans-Serif" font-size="10.00">_internal/algorithm/matrix</text>
<text text-anchor="middle" x="788.5" y="-116.25" font-family="Helvetica,sans-Serif" font-size="10.00">_product.tpp</text>
</a>
</g>
</g>
<!-- Node2&#45;&gt;Node17 -->
<g id="edge21_Node000002_Node000017" class="edge">
<title>Node2&#45;&gt;Node17</title>
<g id="a_edge21_Node000002_Node000017"><a xlink:title=" ">
<path fill="none" stroke="#63b8ff" d="M1211.92,-198.3C1135.73,-191.87 993.09,-177.8 862.21,-152.43"/>
<polygon fill="#63b8ff" stroke="#63b8ff" points="863.17,-149.05 852.68,-150.56 861.82,-155.92 863.17,-149.05"/>
</a>
</g>
</g>
<!-- Node18 -->
<g id="Node000018" class="node">
<title>Node18</title>
<g id="a_Node000018"><a xlink:title=" ">
<polygon fill="#e0e0e0" stroke="#999999" points="1015.75,-146.62 869.25,-146.62 869.25,-116.12 1015.75,-116.12 1015.75,-146.62"/>
<text text-anchor="start" x="877.25" y="-133.12" font-family="Helvetica,sans-Serif" font-size="10.00">typed_linear_algebra</text>
<text text-anchor="middle" x="942.5" y="-121.88" font-family="Helvetica,sans-Serif" font-size="10.00">_internal/algorithm/product.tpp</text>
</a>
</g>
</g>
<!-- Node2&#45;&gt;Node18 -->
<g id="edge22_Node000002_Node000018" class="edge">
<title>Node2&#45;&gt;Node18</title>
<g id="a_edge22_Node000002_Node000018"><a xlink:title=" ">
<path fill="none" stroke="#63b8ff" d="M1212.09,-191.74C1162.97,-181.89 1088.76,-166.71 1024.5,-152.25 1020.74,-151.4 1016.89,-150.52 1013,-149.62"/>
<polygon fill="#63b8ff" stroke="#63b8ff" points="1014.02,-146.27 1003.49,-147.39 1012.42,-153.08 1014.02,-146.27"/>
</a>
</g>
</g>
<!-- Node19 -->
<g id="Node000019" class="node">
<title>Node19</title>
<g id="a_Node000019"><a xlink:title=" ">
<polygon fill="#e0e0e0" stroke="#999999" points="1171.25,-146.62 1033.75,-146.62 1033.75,-116.12 1171.25,-116.12 1171.25,-146.62"/>
<text text-anchor="start" x="1041.75" y="-133.12" font-family="Helvetica,sans-Serif" font-size="10.00">typed_linear_algebra</text>
<text text-anchor="middle" x="1102.5" y="-121.88" font-family="Helvetica,sans-Serif" font-size="10.00">_internal/algorithm/scale.tpp</text>
</a>
</g>
</g>
<!-- Node2&#45;&gt;Node19 -->
<g id="edge23_Node000002_Node000019" class="edge">
<title>Node2&#45;&gt;Node19</title>
<g id="a_edge23_Node000002_Node000019"><a xlink:title=" ">
<path fill="none" stroke="#63b8ff" d="M1232.12,-187.8C1207.41,-177.23 1173.87,-162.89 1147.1,-151.45"/>
<polygon fill="#63b8ff" stroke="#63b8ff" points="1148.8,-148.36 1138.23,-147.65 1146.04,-154.8 1148.8,-148.36"/>
</a>
</g>
</g>
<!-- Node20 -->
<g id="Node000020" class="node">
<title>Node20</title>
<g id="a_Node000020"><a xlink:title=" ">
<polygon fill="#e0e0e0" stroke="#999999" points="1343.88,-146.62 1189.12,-146.62 1189.12,-116.12 1343.88,-116.12 1343.88,-146.62"/>
<text text-anchor="start" x="1197.12" y="-133.12" font-family="Helvetica,sans-Serif" font-size="10.00">typed_linear_algebra</text>
<text text-anchor="middle" x="1266.5" y="-121.88" font-family="Helvetica,sans-Serif" font-size="10.00">_internal/algorithm/substract.tpp</text>
</a>
</g>
</g>
<!-- Node2&#45;&gt;Node20 -->
<g id="edge24_Node000002_Node000020" class="edge">
<title>Node2&#45;&gt;Node20</title>
<g id="a_edge24_Node000002_Node000020"><a xlink:title=" ">
<path fill="none" stroke="#63b8ff" d="M1266.5,-187.97C1266.5,-179.41 1266.5,-168.34 1266.5,-158.33"/>
<polygon fill="#63b8ff" stroke="#63b8ff" points="1270,-158.4 1266.5,-148.4 1263,-158.4 1270,-158.4"/>
</a>
</g>
</g>
<!-- Node21 -->
<g id="Node000021" class="node">
<title>Node21</title>
<g id="a_Node000021"><a xlink:title=" ">
<polygon fill="#e0e0e0" stroke="#999999" points="1524.62,-146.62 1362.38,-146.62 1362.38,-116.12 1524.62,-116.12 1524.62,-146.62"/>
<text text-anchor="start" x="1370.38" y="-133.12" font-family="Helvetica,sans-Serif" font-size="10.00">typed_linear_algebra</text>
<text text-anchor="middle" x="1443.5" y="-121.88" font-family="Helvetica,sans-Serif" font-size="10.00">_internal/algorithm/transposed.tpp</text>
</a>
</g>
</g>
<!-- Node2&#45;&gt;Node21 -->
<g id="edge25_Node000002_Node000021" class="edge">
<title>Node2&#45;&gt;Node21</title>
<g id="a_edge25_Node000002_Node000021"><a xlink:title=" ">
<path fill="none" stroke="#63b8ff" d="M1303.61,-187.8C1330.39,-177.19 1366.79,-162.77 1395.75,-151.29"/>
<polygon fill="#63b8ff" stroke="#63b8ff" points="1397.03,-154.55 1405.04,-147.61 1394.45,-148.04 1397.03,-154.55"/>
</a>
</g>
</g>
<!-- Node22 -->
<g id="Node000022" class="node">
<title>Node22</title>
<g id="a_Node000022"><a xlink:title=" ">
<polygon fill="#e0e0e0" stroke="#999999" points="1646.75,-146.62 1542.25,-146.62 1542.25,-116.12 1646.75,-116.12 1646.75,-146.62"/>
<text text-anchor="start" x="1550.25" y="-133.12" font-family="Helvetica,sans-Serif" font-size="10.00">typed_linear_algebra</text>
<text text-anchor="middle" x="1594.5" y="-121.88" font-family="Helvetica,sans-Serif" font-size="10.00">_internal/cast.tpp</text>
</a>
</g>
</g>
<!-- Node2&#45;&gt;Node22 -->
<g id="edge26_Node000002_Node000022" class="edge">
<title>Node2&#45;&gt;Node22</title>
<g id="a_edge26_Node000002_Node000022"><a xlink:title=" ">
<path fill="none" stroke="#63b8ff" d="M1320.9,-194.37C1375.17,-185.77 1460.73,-170.87 1533.5,-152.25 1535.91,-151.63 1538.37,-150.97 1540.84,-150.28"/>
<polygon fill="#63b8ff" stroke="#63b8ff" points="1541.65,-153.69 1550.26,-147.51 1539.68,-146.97 1541.65,-153.69"/>
</a>
</g>
</g>
<!-- Node23 -->
<g id="Node000023" class="node">
<title>Node23</title>
<g id="a_Node000023"><a xlink:title=" ">
<polygon fill="#e0e0e0" stroke="#999999" points="1769.75,-146.62 1665.25,-146.62 1665.25,-116.12 1769.75,-116.12 1769.75,-146.62"/>
<text text-anchor="start" x="1673.25" y="-133.12" font-family="Helvetica,sans-Serif" font-size="10.00">typed_linear_algebra</text>
<text text-anchor="middle" x="1717.5" y="-121.88" font-family="Helvetica,sans-Serif" font-size="10.00">_internal/tuple.tpp</text>
</a>
</g>
</g>
<!-- Node2&#45;&gt;Node23 -->
<g id="edge27_Node000002_Node000023" class="edge">
<title>Node2&#45;&gt;Node23</title>
<g id="a_edge27_Node000002_Node000023"><a xlink:title=" ">
<path fill="none" stroke="#63b8ff" d="M1320.84,-198.62C1396.54,-192.5 1537.69,-178.51 1655.5,-152.25 1658.3,-151.63 1661.15,-150.93 1664.02,-150.18"/>
<polygon fill="#63b8ff" stroke="#63b8ff" points="1664.94,-153.56 1673.63,-147.5 1663.06,-146.82 1664.94,-153.56"/>
</a>
</g>
</g>
<!-- Node24 -->
<g id="Node000024" class="node">
<title>Node24</title>
<g id="a_Node000024"><a xlink:title=" ">
<polygon fill="#e0e0e0" stroke="#999999" points="1895.25,-152.25 1787.75,-152.25 1787.75,-110.5 1895.25,-110.5 1895.25,-152.25"/>
<text text-anchor="start" x="1795.75" y="-138.75" font-family="Helvetica,sans-Serif" font-size="10.00">typed_linear_algebra</text>
<text text-anchor="start" x="1795.75" y="-127.5" font-family="Helvetica,sans-Serif" font-size="10.00">_internal/typed_linear</text>
<text text-anchor="middle" x="1841.5" y="-116.25" font-family="Helvetica,sans-Serif" font-size="10.00">_algebra.tpp</text>
</a>
</g>
</g>
<!-- Node2&#45;&gt;Node24 -->
<g id="edge28_Node000002_Node000024" class="edge">
<title>Node2&#45;&gt;Node24</title>
<g id="a_edge28_Node000002_Node000024"><a xlink:title=" ">
<path fill="none" stroke="#63b8ff" d="M1320.86,-200.87C1412.96,-197.3 1605.49,-186.37 1776.18,-152.49"/>
<polygon fill="#63b8ff" stroke="#63b8ff" points="1776.8,-155.94 1785.91,-150.53 1775.41,-149.08 1776.8,-155.94"/>
</a>
</g>
</g>
<!-- Node4&#45;&gt;Node5 -->
<g id="edge4_Node000004_Node000005" class="edge">
<title>Node4&#45;&gt;Node5</title>
<g id="a_edge4_Node000004_Node000005"><a xlink:title=" ">
<path fill="none" stroke="#63b8ff" d="M2048.23,-115.63C2041.08,-113.55 2033.63,-111.7 2026.5,-110.5 1840.12,-79.08 448.13,-67.93 193.45,-66.14"/>
<polygon fill="#63b8ff" stroke="#63b8ff" points="193.73,-62.64 183.71,-66.07 193.68,-69.64 193.73,-62.64"/>
</a>
</g>
</g>
<!-- Node4&#45;&gt;Node10 -->
<g id="edge9_Node000004_Node000010" class="edge">
<title>Node4&#45;&gt;Node10</title>
<g id="a_edge9_Node000004_Node000010"><a xlink:title=" ">
<path fill="none" stroke="#63b8ff" d="M2118,-115.74C2139.66,-104.99 2168.91,-90.48 2190.27,-79.88"/>
<polygon fill="#63b8ff" stroke="#63b8ff" points="2191.58,-83.14 2198.98,-75.56 2188.47,-76.87 2191.58,-83.14"/>
</a>
</g>
</g>
<!-- Node4&#45;&gt;Node11 -->
<g id="edge10_Node000004_Node000011" class="edge">
<title>Node4&#45;&gt;Node11</title>
<g id="a_edge10_Node000004_Node000011"><a xlink:title=" ">
<path fill="none" stroke="#63b8ff" d="M2103.48,-115.74C2113.58,-105.87 2126.93,-92.82 2137.44,-82.54"/>
<polygon fill="#63b8ff" stroke="#63b8ff" points="2139.68,-85.25 2144.39,-75.76 2134.79,-80.24 2139.68,-85.25"/>
</a>
</g>
</g>
<!-- Node5&#45;&gt;Node6 -->
<g id="edge5_Node000005_Node000006" class="edge">
<title>Node5&#45;&gt;Node6</title>
<g id="a_edge5_Node000005_Node000006"><a xlink:title=" ">
<path fill="none" stroke="#63b8ff" d="M145.74,-55.08C139.31,-47.8 129.99,-37.23 122.04,-28.23"/>
<polygon fill="#63b8ff" stroke="#63b8ff" points="124.67,-25.93 115.43,-20.74 119.42,-30.56 124.67,-25.93"/>
</a>
</g>
</g>
<!-- Node7 -->
<g id="Node000007" class="node">
<title>Node7</title>
<g id="a_Node000007"><a xlink:title=" ">
<polygon fill="#e0e0e0" stroke="#999999" points="210.5,-19.25 152.5,-19.25 152.5,0 210.5,0 210.5,-19.25"/>
<text text-anchor="middle" x="181.5" y="-5.75" font-family="Helvetica,sans-Serif" font-size="10.00">functional</text>
</a>
</g>
</g>
<!-- Node5&#45;&gt;Node7 -->
<g id="edge6_Node000005_Node000007" class="edge">
<title>Node5&#45;&gt;Node7</title>
<g id="a_edge6_Node000005_Node000007"><a xlink:title=" ">
<path fill="none" stroke="#63b8ff" d="M158.12,-55.08C161.75,-48.19 166.93,-38.34 171.49,-29.66"/>
<polygon fill="#63b8ff" stroke="#63b8ff" points="174.52,-31.43 176.07,-20.95 168.32,-28.17 174.52,-31.43"/>
</a>
</g>
</g>
<!-- Node5&#45;&gt;Node8 -->
<g id="edge7_Node000005_Node000008" class="edge">
<title>Node5&#45;&gt;Node8</title>
<g id="a_edge7_Node000005_Node000008"><a xlink:title=" ">
<path fill="none" stroke="#63b8ff" d="M181.99,-63.16C415.52,-57.32 2012.07,-17.39 2252.27,-11.38"/>
<polygon fill="#63b8ff" stroke="#63b8ff" points="2252.13,-14.89 2262.04,-11.14 2251.96,-7.89 2252.13,-14.89"/>
</a>
</g>
</g>
<!-- Node5&#45;&gt;Node9 -->
<g id="edge8_Node000005_Node000009" class="edge">
<title>Node5&#45;&gt;Node9</title>
<g id="a_edge8_Node000005_Node000009"><a xlink:title=" ">
<path fill="none" stroke="#63b8ff" d="M132.63,-54.84C113.2,-46.43 83.96,-33.77 61.74,-24.15"/>
<polygon fill="#63b8ff" stroke="#63b8ff" points="63.42,-21.06 52.86,-20.3 60.64,-27.49 63.42,-21.06"/>
</a>
</g>
</g>
</g>
</svg>
