<?xml version="1.0" encoding="UTF-8" standalone="no"?>
<!DOCTYPE svg PUBLIC "-//W3C//DTD SVG 1.1//EN"
 "http://www.w3.org/Graphics/SVG/1.1/DTD/svg11.dtd">
<!-- Generated by graphviz version 12.2.0 (20241103.1931)
 -->
<!-- Title: /github/workspace/sample/mp_units_std.cpp Pages: 1 -->
<!--zoomable 293 -->

<svg id="main" version="1.1" xmlns="http://www.w3.org/2000/svg" xmlns:xlink="http://www.w3.org/1999/xlink" xml:space="preserve" onload="init(evt)">

<style type="text/css"><![CDATA[
.node, .edge {opacity: 0.7;}
.node.selected, .edge.selected {opacity: 1;}
.edge:hover path { stroke: red; }
.edge:hover polygon { stroke: red; fill: red; }
]]></style>

<defs>
  <circle id="rim" cx="0" cy="0" r="7"/>
  <circle id="rim2" cx="0" cy="0" r="3.5"/>
  <g id="zoomPlus">
    <use xlink:href="#rim" fill="#404040"><set attributeName="fill" to="#808080" begin="zoomplus.mouseover" end="zoomplus.mouseout"/></use>
    <path d="M-4,0h8M0,-4v8" fill="none" stroke="white" stroke-width="1.5" pointer-events="none"/>
  </g>
  <g id="zoomMin">
    <use xlink:href="#rim" fill="#404040"><set attributeName="fill" to="#808080" begin="zoomminus.mouseover" end="zoomminus.mouseout"/></use>
    <path d="M-4,0h8" fill="none" stroke="white" stroke-width="1.5" pointer-events="none"/>
  </g>
  <g id="arrowUp" transform="translate(30 24)">
    <use xlink:href="#rim"/>
    <path pointer-events="none" fill="none" stroke="white" stroke-width="1.5" d="M0,-3.0v7 M-2.5,-0.5L0,-3.0L2.5,-0.5"/>
  </g>
  <g id="arrowRight" transform="rotate(90) translate(36 -43)">
    <use xlink:href="#rim"/>
    <path pointer-events="none" fill="none" stroke="white" stroke-width="1.5" d="M0,-3.0v7 M-2.5,-0.5L0,-3.0L2.5,-0.5"/>
  </g>
  <g id="arrowDown" transform="rotate(180) translate(-30 -48)">
    <use xlink:href="#rim"/>
    <path pointer-events="none" fill="none" stroke="white" stroke-width="1.5" d="M0,-3.0v7 M-2.5,-0.5L0,-3.0L2.5,-0.5"/>
  </g>
  <g id="arrowLeft" transform="rotate(270) translate(-36 17)">
    <use xlink:href="#rim"/>
    <path pointer-events="none" fill="none" stroke="white" stroke-width="1.5" d="M0,-3.0v7 M-2.5,-0.5L0,-3.0L2.5,-0.5"/>
  </g>
  <g id="resetDef">
    <use xlink:href="#rim2" fill="#404040"><set attributeName="fill" to="#808080" begin="reset.mouseover" end="reset.mouseout"/></use>
  </g>
</defs>
<script type="application/ecmascript">
var viewWidth = 2710;
var viewHeight = 293;
var sectionId = 'dynsection-0';
</script>
<script type="application/ecmascript" xlink:href="svg.min.js"/>
<svg id="graph" class="graph">
<g id="viewport">
<title>/github/workspace/sample/mp_units_std.cpp</title>
<!-- Node1 -->
<g id="Node000001" class="node">
<title>Node1</title>
<g id="a_Node000001"><a xlink:title="Unit safe linear algebra with mp&#45;units and Eigen.">
<polygon fill="#999999" stroke="#666666" points="2498.5,-285.25 2368.5,-285.25 2368.5,-254.75 2498.5,-254.75 2498.5,-285.25"/>
<text text-anchor="start" x="2376.5" y="-271.75" font-family="Helvetica,sans-Serif" font-size="10.00">/github/workspace/sample</text>
<text text-anchor="middle" x="2433.5" y="-260.5" font-family="Helvetica,sans-Serif" font-size="10.00">/mp_units_std.cpp</text>
</a>
</g>
</g>
<!-- Node2 -->
<g id="Node000002" class="node">
<title>Node2</title>
<g id="a_Node000002"><a xlink:title=" ">
<polygon fill="#e0e0e0" stroke="#999999" points="97,-213.12 0,-213.12 0,-193.88 97,-193.88 97,-213.12"/>
<text text-anchor="middle" x="48.5" y="-199.62" font-family="Helvetica,sans-Serif" font-size="10.00">fcarouge/linalg.hpp</text>
</a>
</g>
</g>
<!-- Node1&#45;&gt;Node2 -->
<g id="edge1_Node000001_Node000002" class="edge">
<title>Node1&#45;&gt;Node2</title>
<g id="a_edge1_Node000001_Node000002"><a xlink:title=" ">
<path fill="none" stroke="#63b8ff" d="M2368.24,-268.37C2015.12,-264.86 340.44,-246.83 111.5,-218.75 105.8,-218.05 99.86,-217.06 94.01,-215.93"/>
<polygon fill="#63b8ff" stroke="#63b8ff" points="94.93,-212.54 84.42,-213.91 93.49,-219.39 94.93,-212.54"/>
</a>
</g>
</g>
<!-- Node3 -->
<g id="Node000003" class="node">
<title>Node3</title>
<g id="a_Node000003"><a xlink:href="typed__linear__algebra_8hpp.xhtml" target="_top" xlink:title="Typed linear algebra implementation.">
<polygon fill="white" stroke="#666666" points="1592.62,-218.75 1484.38,-218.75 1484.38,-188.25 1592.62,-188.25 1592.62,-218.75"/>
<text text-anchor="start" x="1492.38" y="-205.25" font-family="Helvetica,sans-Serif" font-size="10.00">fcarouge/typed_linear</text>
<text text-anchor="middle" x="1538.5" y="-194" font-family="Helvetica,sans-Serif" font-size="10.00">_algebra.hpp</text>
</a>
</g>
</g>
<!-- Node1&#45;&gt;Node3 -->
<g id="edge2_Node000001_Node000003" class="edge">
<title>Node1&#45;&gt;Node3</title>
<g id="a_edge2_Node000001_Node000003"><a xlink:title=" ">
<path fill="none" stroke="#63b8ff" d="M2368.05,-264.28C2202.87,-252.38 1770.46,-221.22 1604.59,-209.26"/>
<polygon fill="#63b8ff" stroke="#63b8ff" points="1604.85,-205.77 1594.62,-208.54 1604.34,-212.75 1604.85,-205.77"/>
</a>
</g>
</g>
<!-- Node8 -->
<g id="Node000008" class="node">
<title>Node8</title>
<g id="a_Node000008"><a xlink:title=" ">
<polygon fill="#e0e0e0" stroke="#999999" points="2355.62,-19.25 2307.38,-19.25 2307.38,0 2355.62,0 2355.62,-19.25"/>
<text text-anchor="middle" x="2331.5" y="-5.75" font-family="Helvetica,sans-Serif" font-size="10.00">cstddef</text>
</a>
</g>
</g>
<!-- Node1&#45;&gt;Node8 -->
<g id="edge31_Node000001_Node000008" class="edge">
<title>Node1&#45;&gt;Node8</title>
<g id="a_edge31_Node000001_Node000008"><a xlink:title=" ">
<path fill="none" stroke="#63b8ff" d="M2431.88,-254.31C2427.4,-218.23 2412.49,-123.31 2373.5,-55.25 2367.52,-44.81 2358.63,-34.88 2350.56,-27.06"/>
<polygon fill="#63b8ff" stroke="#63b8ff" points="2353.15,-24.69 2343.42,-20.49 2348.41,-29.83 2353.15,-24.69"/>
</a>
</g>
</g>
<!-- Node10 -->
<g id="Node000010" class="node">
<title>Node10</title>
<g id="a_Node000010"><a xlink:title=" ">
<polygon fill="#e0e0e0" stroke="#999999" points="220,-19.25 183,-19.25 183,0 220,0 220,-19.25"/>
<text text-anchor="middle" x="201.5" y="-5.75" font-family="Helvetica,sans-Serif" font-size="10.00">tuple</text>
</a>
</g>
</g>
<!-- Node1&#45;&gt;Node10 -->
<g id="edge36_Node000001_Node000010" class="edge">
<title>Node1&#45;&gt;Node10</title>
<g id="a_edge36_Node000001_Node000010"><a xlink:title=" ">
<path fill="none" stroke="#63b8ff" d="M2368.07,-268.64C2040.51,-266.65 586.56,-255.78 388.5,-218.75 302.62,-202.69 254.26,-223.36 203.5,-152.25 177.62,-116 187.36,-60.15 195.27,-30.58"/>
<polygon fill="#63b8ff" stroke="#63b8ff" points="198.6,-31.68 198.02,-21.1 191.87,-29.73 198.6,-31.68"/>
</a>
</g>
</g>
<!-- Node11 -->
<g id="Node000011" class="node">
<title>Node11</title>
<g id="a_Node000011"><a xlink:title=" ">
<polygon fill="#e0e0e0" stroke="#999999" points="1197,-19.25 1136,-19.25 1136,0 1197,0 1197,-19.25"/>
<text text-anchor="middle" x="1166.5" y="-5.75" font-family="Helvetica,sans-Serif" font-size="10.00">type_traits</text>
</a>
</g>
</g>
<!-- Node1&#45;&gt;Node11 -->
<g id="edge37_Node000001_Node000011" class="edge">
<title>Node1&#45;&gt;Node11</title>
<g id="a_edge37_Node000001_Node000011"><a xlink:title=" ">
<path fill="none" stroke="#63b8ff" d="M2368.25,-268.06C2010.1,-262.58 296.35,-232.22 220.5,-152.25 91.57,-16.31 924.85,-9.98 1124.3,-10.39"/>
<polygon fill="#63b8ff" stroke="#63b8ff" points="1124.2,-13.89 1134.21,-10.42 1124.22,-6.89 1124.2,-13.89"/>
</a>
</g>
</g>
<!-- Node12 -->
<g id="Node000012" class="node">
<title>Node12</title>
<g id="a_Node000012"><a xlink:title=" ">
<polygon fill="#e0e0e0" stroke="#999999" points="2348.38,-74.5 2304.62,-74.5 2304.62,-55.25 2348.38,-55.25 2348.38,-74.5"/>
<text text-anchor="middle" x="2326.5" y="-61" font-family="Helvetica,sans-Serif" font-size="10.00">format</text>
</a>
</g>
</g>
<!-- Node1&#45;&gt;Node12 -->
<g id="edge32_Node000001_Node000012" class="edge">
<title>Node1&#45;&gt;Node12</title>
<g id="a_edge32_Node000001_Node000012"><a xlink:title=" ">
<path fill="none" stroke="#63b8ff" d="M2425.8,-254.39C2406.84,-218.38 2357.84,-125.37 2336.58,-85.02"/>
<polygon fill="#63b8ff" stroke="#63b8ff" points="2339.73,-83.47 2331.97,-76.26 2333.53,-86.74 2339.73,-83.47"/>
</a>
</g>
</g>
<!-- Node26 -->
<g id="Node000026" class="node">
<title>Node26</title>
<g id="a_Node000026"><a xlink:title=" ">
<polygon fill="#e0e0e0" stroke="#999999" points="2518.75,-213.12 2480.25,-213.12 2480.25,-193.88 2518.75,-193.88 2518.75,-213.12"/>
<text text-anchor="middle" x="2499.5" y="-199.62" font-family="Helvetica,sans-Serif" font-size="10.00">linalg</text>
</a>
</g>
</g>
<!-- Node1&#45;&gt;Node26 -->
<g id="edge33_Node000001_Node000026" class="edge">
<title>Node1&#45;&gt;Node26</title>
<g id="a_edge33_Node000001_Node000026"><a xlink:title=" ">
<path fill="none" stroke="#63b8ff" d="M2448.48,-254.36C2458.58,-244.49 2471.93,-231.44 2482.44,-221.17"/>
<polygon fill="#63b8ff" stroke="#63b8ff" points="2484.68,-223.87 2489.39,-214.38 2479.79,-218.87 2484.68,-223.87"/>
</a>
</g>
</g>
<!-- Node27 -->
<g id="Node000027" class="node">
<title>Node27</title>
<g id="a_Node000027"><a xlink:title=" ">
<polygon fill="#e0e0e0" stroke="#999999" points="2587.75,-213.12 2537.25,-213.12 2537.25,-193.88 2587.75,-193.88 2587.75,-213.12"/>
<text text-anchor="middle" x="2562.5" y="-199.62" font-family="Helvetica,sans-Serif" font-size="10.00">mdspan</text>
</a>
</g>
</g>
<!-- Node1&#45;&gt;Node27 -->
<g id="edge34_Node000001_Node000027" class="edge">
<title>Node1&#45;&gt;Node27</title>
<g id="a_edge34_Node000001_Node000027"><a xlink:title=" ">
<path fill="none" stroke="#63b8ff" d="M2462.77,-254.36C2484.17,-243.67 2513.03,-229.24 2534.19,-218.65"/>
<polygon fill="#63b8ff" stroke="#63b8ff" points="2535.75,-221.79 2543.13,-214.19 2532.62,-215.53 2535.75,-221.79"/>
</a>
</g>
</g>
<!-- Node28 -->
<g id="Node000028" class="node">
<title>Node28</title>
<g id="a_Node000028"><a xlink:title=" ">
<polygon fill="#e0e0e0" stroke="#999999" points="2640.88,-213.12 2606.12,-213.12 2606.12,-193.88 2640.88,-193.88 2640.88,-213.12"/>
<text text-anchor="middle" x="2623.5" y="-199.62" font-family="Helvetica,sans-Serif" font-size="10.00">print</text>
</a>
</g>
</g>
<!-- Node1&#45;&gt;Node28 -->
<g id="edge35_Node000001_Node000028" class="edge">
<title>Node1&#45;&gt;Node28</title>
<g id="a_edge35_Node000001_Node000028"><a xlink:title=" ">
<path fill="none" stroke="#63b8ff" d="M2490.24,-254.32C2522,-245.41 2562.02,-233.02 2596.5,-218.75 2596.73,-218.66 2596.95,-218.56 2597.18,-218.47"/>
<polygon fill="#63b8ff" stroke="#63b8ff" points="2598.56,-221.69 2606.09,-214.24 2595.56,-215.36 2598.56,-221.69"/>
</a>
</g>
</g>
<!-- Node29 -->
<g id="Node000029" class="node">
<title>Node29</title>
<g id="a_Node000029"><a xlink:title=" ">
<polygon fill="#e0e0e0" stroke="#999999" points="2702,-213.12 2659,-213.12 2659,-193.88 2702,-193.88 2702,-213.12"/>
<text text-anchor="middle" x="2680.5" y="-199.62" font-family="Helvetica,sans-Serif" font-size="10.00">vector</text>
</a>
</g>
</g>
<!-- Node1&#45;&gt;Node29 -->
<g id="edge38_Node000001_Node000029" class="edge">
<title>Node1&#45;&gt;Node29</title>
<g id="a_edge38_Node000001_Node000029"><a xlink:title=" ">
<path fill="none" stroke="#63b8ff" d="M2498.73,-257.4C2542.09,-248.83 2599.96,-235.7 2649.5,-218.75 2650.3,-218.48 2651.1,-218.19 2651.91,-217.89"/>
<polygon fill="#63b8ff" stroke="#63b8ff" points="2653.08,-221.19 2660.99,-214.14 2650.41,-214.72 2653.08,-221.19"/>
</a>
</g>
</g>
<!-- Node4 -->
<g id="Node000004" class="node">
<title>Node4</title>
<g id="a_Node000004"><a xlink:href="typed__linear__algebra__forward_8hpp.xhtml" target="_top" xlink:title="Authoritative forward declaration header.">
<polygon fill="white" stroke="#666666" points="2112.75,-146.62 2008.25,-146.62 2008.25,-116.12 2112.75,-116.12 2112.75,-146.62"/>
<text text-anchor="start" x="2016.25" y="-133.12" font-family="Helvetica,sans-Serif" font-size="10.00">typed_linear_algebra</text>
<text text-anchor="middle" x="2060.5" y="-121.88" font-family="Helvetica,sans-Serif" font-size="10.00">_forward.hpp</text>
</a>
</g>
</g>
<!-- Node3&#45;&gt;Node4 -->
<g id="edge3_Node000003_Node000004" class="edge">
<title>Node3&#45;&gt;Node4</title>
<g id="a_edge3_Node000003_Node000004"><a xlink:title=" ">
<path fill="none" stroke="#63b8ff" d="M1593.02,-200.2C1679.88,-195.72 1854.67,-183.39 1999.5,-152.25 2002.31,-151.65 2005.17,-150.96 2008.05,-150.22"/>
<polygon fill="#63b8ff" stroke="#63b8ff" points="2009,-153.59 2017.68,-147.52 2007.11,-146.85 2009,-153.59"/>
</a>
</g>
</g>
<!-- Node5 -->
<g id="Node000005" class="node">
<title>Node5</title>
<g id="a_Node000005"><a xlink:href="format_8hpp.xhtml" target="_top" xlink:title="Formatting support for the typed matrix.">
<polygon fill="white" stroke="#666666" points="2310.75,-146.62 2206.25,-146.62 2206.25,-116.12 2310.75,-116.12 2310.75,-146.62"/>
<text text-anchor="start" x="2214.25" y="-133.12" font-family="Helvetica,sans-Serif" font-size="10.00">typed_linear_algebra</text>
<text text-anchor="middle" x="2258.5" y="-121.88" font-family="Helvetica,sans-Serif" font-size="10.00">_internal/format.hpp</text>
</a>
</g>
</g>
<!-- Node3&#45;&gt;Node5 -->
<g id="edge4_Node000003_Node000005" class="edge">
<title>Node3&#45;&gt;Node5</title>
<g id="a_edge4_Node000003_Node000005"><a xlink:title=" ">
<path fill="none" stroke="#63b8ff" d="M1592.85,-202.27C1705.61,-200.93 1972.81,-193.27 2192.5,-152.25 2196.09,-151.58 2199.76,-150.79 2203.44,-149.91"/>
<polygon fill="#63b8ff" stroke="#63b8ff" points="2204.17,-153.34 2212.98,-147.45 2202.42,-146.56 2204.17,-153.34"/>
</a>
</g>
</g>
<!-- Node6 -->
<g id="Node000006" class="node">
<title>Node6</title>
<g id="a_Node000006"><a xlink:href="utility_8hpp.xhtml" target="_top" xlink:title=" ">
<polygon fill="white" stroke="#666666" points="2224.75,-74.5 2168.25,-74.5 2168.25,-55.25 2224.75,-55.25 2224.75,-74.5"/>
<text text-anchor="middle" x="2196.5" y="-61" font-family="Helvetica,sans-Serif" font-size="10.00">utility.hpp</text>
</a>
</g>
</g>
<!-- Node3&#45;&gt;Node6 -->
<g id="edge13_Node000003_Node000006" class="edge">
<title>Node3&#45;&gt;Node6</title>
<g id="a_edge13_Node000003_Node000006"><a xlink:title=" ">
<path fill="none" stroke="#63b8ff" d="M1593.04,-201.11C1735.1,-197.07 2108.72,-183.56 2154.5,-152.25 2176.84,-136.97 2187.74,-106.35 2192.72,-85.97"/>
<polygon fill="#63b8ff" stroke="#63b8ff" points="2196.11,-86.84 2194.79,-76.32 2189.27,-85.37 2196.11,-86.84"/>
</a>
</g>
</g>
<!-- Node7 -->
<g id="Node000007" class="node">
<title>Node7</title>
<g id="a_Node000007"><a xlink:title=" ">
<polygon fill="#e0e0e0" stroke="#999999" points="2168.38,-19.25 2112.62,-19.25 2112.62,0 2168.38,0 2168.38,-19.25"/>
<text text-anchor="middle" x="2140.5" y="-5.75" font-family="Helvetica,sans-Serif" font-size="10.00">concepts</text>
</a>
</g>
</g>
<!-- Node3&#45;&gt;Node7 -->
<g id="edge14_Node000003_Node000007" class="edge">
<title>Node3&#45;&gt;Node7</title>
<g id="a_edge14_Node000003_Node000007"><a xlink:title=" ">
<path fill="none" stroke="#63b8ff" d="M1592.95,-201.62C1730.49,-198.85 2083.71,-188.29 2121.5,-152.25 2154.48,-120.8 2149.91,-61.56 2144.7,-30.61"/>
<polygon fill="#63b8ff" stroke="#63b8ff" points="2148.19,-30.23 2142.89,-21.06 2141.32,-31.54 2148.19,-30.23"/>
</a>
</g>
</g>
<!-- Node3&#45;&gt;Node8 -->
<g id="edge15_Node000003_Node000008" class="edge">
<title>Node3&#45;&gt;Node8</title>
<g id="a_edge15_Node000003_Node000008"><a xlink:title=" ">
<path fill="none" stroke="#63b8ff" d="M1593.1,-202.81C1764.53,-203.3 2284.02,-200.71 2340.5,-152.25 2373.72,-123.75 2368.91,-97.5 2357.5,-55.25 2354.99,-45.97 2350.02,-36.63 2345.09,-28.91"/>
<polygon fill="#63b8ff" stroke="#63b8ff" points="2348.05,-27.04 2339.49,-20.8 2342.29,-31.02 2348.05,-27.04"/>
</a>
</g>
</g>
<!-- Node3&#45;&gt;Node10 -->
<g id="edge18_Node000003_Node000010" class="edge">
<title>Node3&#45;&gt;Node10</title>
<g id="a_edge18_Node000003_Node000010"><a xlink:title=" ">
<path fill="none" stroke="#63b8ff" d="M1484.09,-202.36C1241.45,-201.5 267.94,-195.38 220.5,-152.25 186.78,-121.6 191.67,-62.02 197.12,-30.8"/>
<polygon fill="#63b8ff" stroke="#63b8ff" points="200.52,-31.64 199.01,-21.15 193.65,-30.29 200.52,-31.64"/>
</a>
</g>
</g>
<!-- Node3&#45;&gt;Node12 -->
<g id="edge16_Node000003_Node000012" class="edge">
<title>Node3&#45;&gt;Node12</title>
<g id="a_edge16_Node000003_Node000012"><a xlink:title=" ">
<path fill="none" stroke="#63b8ff" d="M1592.84,-203.02C1761.5,-204.08 2267.92,-202.98 2319.5,-152.25 2336.74,-135.29 2335.09,-105.58 2331.48,-85.82"/>
<polygon fill="#63b8ff" stroke="#63b8ff" points="2334.94,-85.25 2329.38,-76.23 2328.1,-86.74 2334.94,-85.25"/>
</a>
</g>
</g>
<!-- Node13 -->
<g id="Node000013" class="node">
<title>Node13</title>
<g id="a_Node000013"><a xlink:title=" ">
<polygon fill="#e0e0e0" stroke="#999999" points="301.25,-141 229.75,-141 229.75,-121.75 301.25,-121.75 301.25,-141"/>
<text text-anchor="middle" x="265.5" y="-127.5" font-family="Helvetica,sans-Serif" font-size="10.00">initializer_list</text>
</a>
</g>
</g>
<!-- Node3&#45;&gt;Node13 -->
<g id="edge17_Node000003_Node000013" class="edge">
<title>Node3&#45;&gt;Node13</title>
<g id="a_edge17_Node000003_Node000013"><a xlink:title=" ">
<path fill="none" stroke="#63b8ff" d="M1483.93,-202.96C1276.65,-204.31 538.34,-205.21 310.5,-152.25 304.36,-150.82 298.03,-148.57 292.12,-146.08"/>
<polygon fill="#63b8ff" stroke="#63b8ff" points="294,-143.09 283.45,-142.12 291.09,-149.46 294,-143.09"/>
</a>
</g>
</g>
<!-- Node14 -->
<g id="Node000014" class="node">
<title>Node14</title>
<g id="a_Node000014"><a xlink:title=" ">
<polygon fill="#e0e0e0" stroke="#999999" points="357.75,-141 319.25,-141 319.25,-121.75 357.75,-121.75 357.75,-141"/>
<text text-anchor="middle" x="338.5" y="-127.5" font-family="Helvetica,sans-Serif" font-size="10.00">utility</text>
</a>
</g>
</g>
<!-- Node3&#45;&gt;Node14 -->
<g id="edge19_Node000003_Node000014" class="edge">
<title>Node3&#45;&gt;Node14</title>
<g id="a_edge19_Node000003_Node000014"><a xlink:title=" ">
<path fill="none" stroke="#63b8ff" d="M1484,-201.98C1267.24,-199.65 472.83,-188.68 366.5,-152.25 363.48,-151.22 360.51,-149.75 357.68,-148.07"/>
<polygon fill="#63b8ff" stroke="#63b8ff" points="359.76,-145.26 349.57,-142.36 355.73,-150.98 359.76,-145.26"/>
</a>
</g>
</g>
<!-- Node15 -->
<g id="Node000015" class="node">
<title>Node15</title>
<g id="a_Node000015"><a xlink:title=" ">
<polygon fill="#e0e0e0" stroke="#999999" points="505.5,-146.62 375.5,-146.62 375.5,-116.12 505.5,-116.12 505.5,-146.62"/>
<text text-anchor="start" x="383.5" y="-133.12" font-family="Helvetica,sans-Serif" font-size="10.00">typed_linear_algebra</text>
<text text-anchor="middle" x="440.5" y="-121.88" font-family="Helvetica,sans-Serif" font-size="10.00">_internal/algorithm/add.tpp</text>
</a>
</g>
</g>
<!-- Node3&#45;&gt;Node15 -->
<g id="edge20_Node000003_Node000015" class="edge">
<title>Node3&#45;&gt;Node15</title>
<g id="a_edge20_Node000003_Node000015"><a xlink:title=" ">
<path fill="none" stroke="#63b8ff" d="M1483.95,-201.36C1300.08,-197.27 703.97,-181.99 514.5,-152.25 509.92,-151.53 505.21,-150.64 500.5,-149.63"/>
<polygon fill="#63b8ff" stroke="#63b8ff" points="501.55,-146.28 491.02,-147.45 499.98,-153.11 501.55,-146.28"/>
</a>
</g>
</g>
<!-- Node16 -->
<g id="Node000016" class="node">
<title>Node16</title>
<g id="a_Node000016"><a xlink:title=" ">
<polygon fill="#e0e0e0" stroke="#999999" points="663.38,-146.62 523.62,-146.62 523.62,-116.12 663.38,-116.12 663.38,-146.62"/>
<text text-anchor="start" x="531.62" y="-133.12" font-family="Helvetica,sans-Serif" font-size="10.00">typed_linear_algebra</text>
<text text-anchor="middle" x="593.5" y="-121.88" font-family="Helvetica,sans-Serif" font-size="10.00">_internal/algorithm/divide.tpp</text>
</a>
</g>
</g>
<!-- Node3&#45;&gt;Node16 -->
<g id="edge21_Node000003_Node000016" class="edge">
<title>Node3&#45;&gt;Node16</title>
<g id="a_edge21_Node000003_Node000016"><a xlink:title=" ">
<path fill="none" stroke="#63b8ff" d="M1483.92,-202.89C1346.69,-203.09 976.54,-198.89 672.5,-152.25 667.35,-151.46 662.05,-150.49 656.75,-149.4"/>
<polygon fill="#63b8ff" stroke="#63b8ff" points="657.91,-146.07 647.39,-147.35 656.41,-152.91 657.91,-146.07"/>
</a>
</g>
</g>
<!-- Node17 -->
<g id="Node000017" class="node">
<title>Node17</title>
<g id="a_Node000017"><a xlink:title=" ">
<polygon fill="#e0e0e0" stroke="#999999" points="803.38,-152.25 681.62,-152.25 681.62,-110.5 803.38,-110.5 803.38,-152.25"/>
<text text-anchor="start" x="689.62" y="-138.75" font-family="Helvetica,sans-Serif" font-size="10.00">typed_linear_algebra</text>
<text text-anchor="start" x="689.62" y="-127.5" font-family="Helvetica,sans-Serif" font-size="10.00">_internal/algorithm/equal</text>
<text text-anchor="middle" x="742.5" y="-116.25" font-family="Helvetica,sans-Serif" font-size="10.00">_to.tpp</text>
</a>
</g>
</g>
<!-- Node3&#45;&gt;Node17 -->
<g id="edge22_Node000003_Node000017" class="edge">
<title>Node3&#45;&gt;Node17</title>
<g id="a_edge22_Node000003_Node000017"><a xlink:title=" ">
<path fill="none" stroke="#63b8ff" d="M1484.3,-202.57C1364.78,-201.92 1069.61,-195.79 815.12,-152.51"/>
<polygon fill="#63b8ff" stroke="#63b8ff" points="815.73,-149.07 805.28,-150.81 814.54,-155.96 815.73,-149.07"/>
</a>
</g>
</g>
<!-- Node18 -->
<g id="Node000018" class="node">
<title>Node18</title>
<g id="a_Node000018"><a xlink:title=" ">
<polygon fill="#e0e0e0" stroke="#999999" points="945.88,-152.25 821.12,-152.25 821.12,-110.5 945.88,-110.5 945.88,-152.25"/>
<text text-anchor="start" x="829.12" y="-138.75" font-family="Helvetica,sans-Serif" font-size="10.00">typed_linear_algebra</text>
<text text-anchor="start" x="829.12" y="-127.5" font-family="Helvetica,sans-Serif" font-size="10.00">_internal/algorithm/matrix</text>
<text text-anchor="middle" x="883.5" y="-116.25" font-family="Helvetica,sans-Serif" font-size="10.00">_product.tpp</text>
</a>
</g>
</g>
<!-- Node3&#45;&gt;Node18 -->
<g id="edge23_Node000003_Node000018" class="edge">
<title>Node3&#45;&gt;Node18</title>
<g id="a_edge23_Node000003_Node000018"><a xlink:title=" ">
<path fill="none" stroke="#63b8ff" d="M1484.21,-201.14C1382.56,-197.87 1156.57,-187.22 957.44,-152.4"/>
<polygon fill="#63b8ff" stroke="#63b8ff" points="958.12,-148.97 947.66,-150.67 956.9,-155.86 958.12,-148.97"/>
</a>
</g>
</g>
<!-- Node19 -->
<g id="Node000019" class="node">
<title>Node19</title>
<g id="a_Node000019"><a xlink:title=" ">
<polygon fill="#e0e0e0" stroke="#999999" points="1110.75,-146.62 964.25,-146.62 964.25,-116.12 1110.75,-116.12 1110.75,-146.62"/>
<text text-anchor="start" x="972.25" y="-133.12" font-family="Helvetica,sans-Serif" font-size="10.00">typed_linear_algebra</text>
<text text-anchor="middle" x="1037.5" y="-121.88" font-family="Helvetica,sans-Serif" font-size="10.00">_internal/algorithm/product.tpp</text>
</a>
</g>
</g>
<!-- Node3&#45;&gt;Node19 -->
<g id="edge24_Node000003_Node000019" class="edge">
<title>Node3&#45;&gt;Node19</title>
<g id="a_edge24_Node000003_Node000019"><a xlink:title=" ">
<path fill="none" stroke="#63b8ff" d="M1483.95,-198.04C1403.7,-191 1249.28,-175.67 1119.5,-152.25 1114.88,-151.42 1110.13,-150.48 1105.35,-149.48"/>
<polygon fill="#63b8ff" stroke="#63b8ff" points="1106.21,-146.08 1095.7,-147.37 1104.72,-152.92 1106.21,-146.08"/>
</a>
</g>
</g>
<!-- Node20 -->
<g id="Node000020" class="node">
<title>Node20</title>
<g id="a_Node000020"><a xlink:title=" ">
<polygon fill="#e0e0e0" stroke="#999999" points="1266.25,-146.62 1128.75,-146.62 1128.75,-116.12 1266.25,-116.12 1266.25,-146.62"/>
<text text-anchor="start" x="1136.75" y="-133.12" font-family="Helvetica,sans-Serif" font-size="10.00">typed_linear_algebra</text>
<text text-anchor="middle" x="1197.5" y="-121.88" font-family="Helvetica,sans-Serif" font-size="10.00">_internal/algorithm/scale.tpp</text>
</a>
</g>
</g>
<!-- Node3&#45;&gt;Node20 -->
<g id="edge25_Node000003_Node000020" class="edge">
<title>Node3&#45;&gt;Node20</title>
<g id="a_edge25_Node000003_Node000020"><a xlink:title=" ">
<path fill="none" stroke="#63b8ff" d="M1483.9,-193.07C1430.57,-183.62 1347.19,-168.22 1275.5,-152.25 1271.95,-151.46 1268.32,-150.63 1264.66,-149.76"/>
<polygon fill="#63b8ff" stroke="#63b8ff" points="1265.65,-146.4 1255.11,-147.47 1264.02,-153.21 1265.65,-146.4"/>
</a>
</g>
</g>
<!-- Node21 -->
<g id="Node000021" class="node">
<title>Node21</title>
<g id="a_Node000021"><a xlink:title=" ">
<polygon fill="#e0e0e0" stroke="#999999" points="1438.88,-146.62 1284.12,-146.62 1284.12,-116.12 1438.88,-116.12 1438.88,-146.62"/>
<text text-anchor="start" x="1292.12" y="-133.12" font-family="Helvetica,sans-Serif" font-size="10.00">typed_linear_algebra</text>
<text text-anchor="middle" x="1361.5" y="-121.88" font-family="Helvetica,sans-Serif" font-size="10.00">_internal/algorithm/substract.tpp</text>
</a>
</g>
</g>
<!-- Node3&#45;&gt;Node21 -->
<g id="edge26_Node000003_Node000021" class="edge">
<title>Node3&#45;&gt;Node21</title>
<g id="a_edge26_Node000003_Node000021"><a xlink:title=" ">
<path fill="none" stroke="#63b8ff" d="M1501.39,-187.8C1474.61,-177.19 1438.21,-162.77 1409.25,-151.29"/>
<polygon fill="#63b8ff" stroke="#63b8ff" points="1410.55,-148.04 1399.96,-147.61 1407.97,-154.55 1410.55,-148.04"/>
</a>
</g>
</g>
<!-- Node22 -->
<g id="Node000022" class="node">
<title>Node22</title>
<g id="a_Node000022"><a xlink:title=" ">
<polygon fill="#e0e0e0" stroke="#999999" points="1619.62,-146.62 1457.38,-146.62 1457.38,-116.12 1619.62,-116.12 1619.62,-146.62"/>
<text text-anchor="start" x="1465.38" y="-133.12" font-family="Helvetica,sans-Serif" font-size="10.00">typed_linear_algebra</text>
<text text-anchor="middle" x="1538.5" y="-121.88" font-family="Helvetica,sans-Serif" font-size="10.00">_internal/algorithm/transposed.tpp</text>
</a>
</g>
</g>
<!-- Node3&#45;&gt;Node22 -->
<g id="edge27_Node000003_Node000022" class="edge">
<title>Node3&#45;&gt;Node22</title>
<g id="a_edge27_Node000003_Node000022"><a xlink:title=" ">
<path fill="none" stroke="#63b8ff" d="M1538.5,-187.97C1538.5,-179.41 1538.5,-168.34 1538.5,-158.33"/>
<polygon fill="#63b8ff" stroke="#63b8ff" points="1542,-158.4 1538.5,-148.4 1535,-158.4 1542,-158.4"/>
</a>
</g>
</g>
<!-- Node23 -->
<g id="Node000023" class="node">
<title>Node23</title>
<g id="a_Node000023"><a xlink:title=" ">
<polygon fill="#e0e0e0" stroke="#999999" points="1741.75,-146.62 1637.25,-146.62 1637.25,-116.12 1741.75,-116.12 1741.75,-146.62"/>
<text text-anchor="start" x="1645.25" y="-133.12" font-family="Helvetica,sans-Serif" font-size="10.00">typed_linear_algebra</text>
<text text-anchor="middle" x="1689.5" y="-121.88" font-family="Helvetica,sans-Serif" font-size="10.00">_internal/cast.tpp</text>
</a>
</g>
</g>
<!-- Node3&#45;&gt;Node23 -->
<g id="edge28_Node000003_Node000023" class="edge">
<title>Node3&#45;&gt;Node23</title>
<g id="a_edge28_Node000003_Node000023"><a xlink:title=" ">
<path fill="none" stroke="#63b8ff" d="M1570.15,-187.8C1592.6,-177.37 1622.97,-163.27 1647.45,-151.9"/>
<polygon fill="#63b8ff" stroke="#63b8ff" points="1648.92,-155.08 1656.51,-147.69 1645.97,-148.73 1648.92,-155.08"/>
</a>
</g>
</g>
<!-- Node24 -->
<g id="Node000024" class="node">
<title>Node24</title>
<g id="a_Node000024"><a xlink:title=" ">
<polygon fill="#e0e0e0" stroke="#999999" points="1864.75,-146.62 1760.25,-146.62 1760.25,-116.12 1864.75,-116.12 1864.75,-146.62"/>
<text text-anchor="start" x="1768.25" y="-133.12" font-family="Helvetica,sans-Serif" font-size="10.00">typed_linear_algebra</text>
<text text-anchor="middle" x="1812.5" y="-121.88" font-family="Helvetica,sans-Serif" font-size="10.00">_internal/tuple.tpp</text>
</a>
</g>
</g>
<!-- Node3&#45;&gt;Node24 -->
<g id="edge29_Node000003_Node000024" class="edge">
<title>Node3&#45;&gt;Node24</title>
<g id="a_edge29_Node000003_Node000024"><a xlink:title=" ">
<path fill="none" stroke="#63b8ff" d="M1592.82,-190.84C1635.82,-181.32 1697.3,-167.06 1750.5,-152.25 1752.62,-151.66 1754.78,-151.04 1756.96,-150.41"/>
<polygon fill="#63b8ff" stroke="#63b8ff" points="1757.9,-153.78 1766.47,-147.56 1755.89,-147.08 1757.9,-153.78"/>
</a>
</g>
</g>
<!-- Node25 -->
<g id="Node000025" class="node">
<title>Node25</title>
<g id="a_Node000025"><a xlink:title=" ">
<polygon fill="#e0e0e0" stroke="#999999" points="1990.25,-152.25 1882.75,-152.25 1882.75,-110.5 1990.25,-110.5 1990.25,-152.25"/>
<text text-anchor="start" x="1890.75" y="-138.75" font-family="Helvetica,sans-Serif" font-size="10.00">typed_linear_algebra</text>
<text text-anchor="start" x="1890.75" y="-127.5" font-family="Helvetica,sans-Serif" font-size="10.00">_internal/typed_linear</text>
<text text-anchor="middle" x="1936.5" y="-116.25" font-family="Helvetica,sans-Serif" font-size="10.00">_algebra.tpp</text>
</a>
</g>
</g>
<!-- Node3&#45;&gt;Node25 -->
<g id="edge30_Node000003_Node000025" class="edge">
<title>Node3&#45;&gt;Node25</title>
<g id="a_edge30_Node000003_Node000025"><a xlink:title=" ">
<path fill="none" stroke="#63b8ff" d="M1592.95,-196.99C1657.37,-189.88 1767.92,-175.84 1871.4,-152.56"/>
<polygon fill="#63b8ff" stroke="#63b8ff" points="1871.91,-156.03 1880.88,-150.39 1870.35,-149.21 1871.91,-156.03"/>
</a>
</g>
</g>
<!-- Node5&#45;&gt;Node6 -->
<g id="edge5_Node000005_Node000006" class="edge">
<title>Node5&#45;&gt;Node6</title>
<g id="a_edge5_Node000005_Node000006"><a xlink:title=" ">
<path fill="none" stroke="#63b8ff" d="M2244.43,-115.74C2235.04,-105.96 2222.65,-93.08 2212.82,-82.85"/>
<polygon fill="#63b8ff" stroke="#63b8ff" points="2215.48,-80.57 2206.03,-75.79 2210.44,-85.42 2215.48,-80.57"/>
</a>
</g>
</g>
<!-- Node5&#45;&gt;Node8 -->
<g id="edge11_Node000005_Node000008" class="edge">
<title>Node5&#45;&gt;Node8</title>
<g id="a_edge11_Node000005_Node000008"><a xlink:title=" ">
<path fill="none" stroke="#63b8ff" d="M2264.55,-115.74C2271.23,-100.22 2282.75,-75.22 2295.5,-55.25 2301.44,-45.95 2308.99,-36.33 2315.64,-28.41"/>
<polygon fill="#63b8ff" stroke="#63b8ff" points="2318.26,-30.74 2322.15,-20.89 2312.96,-26.16 2318.26,-30.74"/>
</a>
</g>
</g>
<!-- Node5&#45;&gt;Node12 -->
<g id="edge12_Node000005_Node000012" class="edge">
<title>Node5&#45;&gt;Node12</title>
<g id="a_edge12_Node000005_Node000012"><a xlink:title=" ">
<path fill="none" stroke="#63b8ff" d="M2273.93,-115.74C2284.34,-105.87 2298.1,-92.82 2308.93,-82.54"/>
<polygon fill="#63b8ff" stroke="#63b8ff" points="2311.25,-85.16 2316.1,-75.74 2306.44,-80.08 2311.25,-85.16"/>
</a>
</g>
</g>
<!-- Node6&#45;&gt;Node7 -->
<g id="edge6_Node000006_Node000007" class="edge">
<title>Node6&#45;&gt;Node7</title>
<g id="a_edge6_Node000006_Node000007"><a xlink:title=" ">
<path fill="none" stroke="#63b8ff" d="M2187,-54.84C2179.07,-47.3 2167.55,-36.35 2157.96,-27.23"/>
<polygon fill="#63b8ff" stroke="#63b8ff" points="2160.61,-24.92 2150.96,-20.57 2155.79,-29.99 2160.61,-24.92"/>
</a>
</g>
</g>
<!-- Node6&#45;&gt;Node8 -->
<g id="edge7_Node000006_Node000008" class="edge">
<title>Node6&#45;&gt;Node8</title>
<g id="a_edge7_Node000006_Node000008"><a xlink:title=" ">
<path fill="none" stroke="#63b8ff" d="M2219.4,-54.84C2240.93,-46.35 2273.41,-33.54 2297.88,-23.89"/>
<polygon fill="#63b8ff" stroke="#63b8ff" points="2299.06,-27.18 2307.08,-20.26 2296.49,-20.67 2299.06,-27.18"/>
</a>
</g>
</g>
<!-- Node9 -->
<g id="Node000009" class="node">
<title>Node9</title>
<g id="a_Node000009"><a xlink:title=" ">
<polygon fill="#e0e0e0" stroke="#999999" points="2244.5,-19.25 2186.5,-19.25 2186.5,0 2244.5,0 2244.5,-19.25"/>
<text text-anchor="middle" x="2215.5" y="-5.75" font-family="Helvetica,sans-Serif" font-size="10.00">functional</text>
</a>
</g>
</g>
<!-- Node6&#45;&gt;Node9 -->
<g id="edge8_Node000006_Node000009" class="edge">
<title>Node6&#45;&gt;Node9</title>
<g id="a_edge8_Node000006_Node000009"><a xlink:title=" ">
<path fill="none" stroke="#63b8ff" d="M2199.64,-55.08C2202.04,-48.34 2205.46,-38.77 2208.5,-30.24"/>
<polygon fill="#63b8ff" stroke="#63b8ff" points="2211.72,-31.63 2211.79,-21.03 2205.13,-29.28 2211.72,-31.63"/>
</a>
</g>
</g>
<!-- Node6&#45;&gt;Node10 -->
<g id="edge9_Node000006_Node000010" class="edge">
<title>Node6&#45;&gt;Node10</title>
<g id="a_edge9_Node000006_Node000010"><a xlink:title=" ">
<path fill="none" stroke="#63b8ff" d="M2167.91,-63.11C1943.15,-57.11 462.75,-17.6 231.78,-11.43"/>
<polygon fill="#63b8ff" stroke="#63b8ff" points="231.92,-7.94 221.83,-11.17 231.73,-14.93 231.92,-7.94"/>
</a>
</g>
</g>
<!-- Node6&#45;&gt;Node11 -->
<g id="edge10_Node000006_Node000011" class="edge">
<title>Node6&#45;&gt;Node11</title>
<g id="a_edge10_Node000006_Node000011"><a xlink:title=" ">
<path fill="none" stroke="#63b8ff" d="M2167.88,-62.4C2024.07,-54.96 1380.57,-21.69 1208.78,-12.81"/>
<polygon fill="#63b8ff" stroke="#63b8ff" points="1209.14,-9.33 1198.98,-12.3 1208.78,-16.32 1209.14,-9.33"/>
</a>
</g>
</g>
</g>
</svg>

<g id="navigator" transform="translate(0 0)" fill="#404254">
  <rect fill="#f2f5e9" fill-opacity="0.5" stroke="#606060" stroke-width=".5" x="0" y="0" width="60" height="60"/>
  <use id="zoomplus" xlink:href="#zoomPlus" x="17" y="9" onmousedown="handleZoom(evt,'in')"/>
  <use id="zoomminus" xlink:href="#zoomMin" x="42" y="9" onmousedown="handleZoom(evt,'out')"/>
  <use id="reset" xlink:href="#resetDef" x="30" y="36" onmousedown="handleReset()"/>
   <use id="arrowup" xlink:href="#arrowUp" x="0" y="0" onmousedown="handlePan(0,-1)"/>
  <use id="arrowright" xlink:href="#arrowRight" x="0" y="0" onmousedown="handlePan(1,0)"/>
  <use id="arrowdown" xlink:href="#arrowDown" x="0" y="0" onmousedown="handlePan(0,1)"/>
  <use id="arrowleft" xlink:href="#arrowLeft" x="0" y="0" onmousedown="handlePan(-1,0)"/>
</g>
<svg viewBox="0 0 15 15" width="100%" height="30px" preserveAspectRatio="xMaxYMin meet">
 <g id="arrow_out" transform="scale(0.3 0.3)">
  <a xlink:href="mp__units__std_8cpp__incl_org.svg" target="_base">
   <rect id="button" ry="5" rx="5" y="6" x="6" height="38" width="38"
        fill="#f2f5e9" fill-opacity="0.5" stroke="#606060" stroke-width="1.0"/>
   <path id="arrow"
     d="M 11.500037,31.436501 C 11.940474,20.09759 22.043105,11.32322 32.158766,21.979434 L 37.068811,17.246167 C 37.068811,17.246167 37.088388,32 37.088388,32 L 22.160133,31.978069 C 22.160133,31.978069 26.997745,27.140456 26.997745,27.140456 C 18.528582,18.264221 13.291696,25.230495 11.500037,31.436501 z"
     style="fill:#404040;"/>
  </a>
 </g>
</svg>

<style type='text/css'>
<![CDATA[
[data-mouse-over-selected='false'] { opacity: 0.7; }
[data-mouse-over-selected='true']  { opacity: 1.0; }
]]>
</style>
<script type="application/ecmascript"><![CDATA[
document.addEventListener('DOMContentLoaded', (event) => {
  highlightEdges();
  highlightAdjacentNodes();
});
]]></script>
</svg>
