<?xml version="1.0" encoding="UTF-8" standalone="no"?>
<!DOCTYPE svg PUBLIC "-//W3C//DTD SVG 1.1//EN"
 "http://www.w3.org/Graphics/SVG/1.1/DTD/svg11.dtd">
<!-- Generated by graphviz version 12.2.0 (20241103.1931)
 -->
<!-- Title: /github/workspace/sample/mp_units_eigen.cpp Pages: 1 -->
<!--zoomable 293 -->

<svg id="main" version="1.1" xmlns="http://www.w3.org/2000/svg" xmlns:xlink="http://www.w3.org/1999/xlink" xml:space="preserve" onload="init(evt)">

<style type="text/css"><![CDATA[
.node, .edge {opacity: 0.7;}
.node.selected, .edge.selected {opacity: 1;}
.edge:hover path { stroke: red; }
.edge:hover polygon { stroke: red; fill: red; }
]]></style>

<defs>
  <circle id="rim" cx="0" cy="0" r="7"/>
  <circle id="rim2" cx="0" cy="0" r="3.5"/>
  <g id="zoomPlus">
    <use xlink:href="#rim" fill="#404040"><set attributeName="fill" to="#808080" begin="zoomplus.mouseover" end="zoomplus.mouseout"/></use>
    <path d="M-4,0h8M0,-4v8" fill="none" stroke="white" stroke-width="1.5" pointer-events="none"/>
  </g>
  <g id="zoomMin">
    <use xlink:href="#rim" fill="#404040"><set attributeName="fill" to="#808080" begin="zoomminus.mouseover" end="zoomminus.mouseout"/></use>
    <path d="M-4,0h8" fill="none" stroke="white" stroke-width="1.5" pointer-events="none"/>
  </g>
  <g id="arrowUp" transform="translate(30 24)">
    <use xlink:href="#rim"/>
    <path pointer-events="none" fill="none" stroke="white" stroke-width="1.5" d="M0,-3.0v7 M-2.5,-0.5L0,-3.0L2.5,-0.5"/>
  </g>
  <g id="arrowRight" transform="rotate(90) translate(36 -43)">
    <use xlink:href="#rim"/>
    <path pointer-events="none" fill="none" stroke="white" stroke-width="1.5" d="M0,-3.0v7 M-2.5,-0.5L0,-3.0L2.5,-0.5"/>
  </g>
  <g id="arrowDown" transform="rotate(180) translate(-30 -48)">
    <use xlink:href="#rim"/>
    <path pointer-events="none" fill="none" stroke="white" stroke-width="1.5" d="M0,-3.0v7 M-2.5,-0.5L0,-3.0L2.5,-0.5"/>
  </g>
  <g id="arrowLeft" transform="rotate(270) translate(-36 17)">
    <use xlink:href="#rim"/>
    <path pointer-events="none" fill="none" stroke="white" stroke-width="1.5" d="M0,-3.0v7 M-2.5,-0.5L0,-3.0L2.5,-0.5"/>
  </g>
  <g id="resetDef">
    <use xlink:href="#rim2" fill="#404040"><set attributeName="fill" to="#808080" begin="reset.mouseover" end="reset.mouseout"/></use>
  </g>
</defs>
<script type="application/ecmascript">
var viewWidth = 1914;
var viewHeight = 293;
var sectionId = 'dynsection-0';
</script>
<script type="application/ecmascript" xlink:href="svg.min.js"/>
<svg id="graph" class="graph">
<g id="viewport">
<title>/github/workspace/sample/mp_units_eigen.cpp</title>
<!-- Node1 -->
<g id="Node000001" class="node">
<title>Node1</title>
<g id="a_Node000001"><a xlink:title="Unit safe linear algebra with mp&#45;units and Eigen.">
<polygon fill="#999999" stroke="#666666" points="1302.5,-285.25 1172.5,-285.25 1172.5,-254.75 1302.5,-254.75 1302.5,-285.25"/>
<text text-anchor="start" x="1180.5" y="-271.75" font-family="Helvetica,sans-Serif" font-size="10.00">/github/workspace/sample</text>
<text text-anchor="middle" x="1237.5" y="-260.5" font-family="Helvetica,sans-Serif" font-size="10.00">/mp_units_eigen.cpp</text>
</a>
</g>
</g>
<!-- Node2 -->
<g id="Node000002" class="node">
<title>Node2</title>
<g id="a_Node000002"><a xlink:title=" ">
<polygon fill="#e0e0e0" stroke="#999999" points="97,-213.12 0,-213.12 0,-193.88 97,-193.88 97,-213.12"/>
<text text-anchor="middle" x="48.5" y="-199.62" font-family="Helvetica,sans-Serif" font-size="10.00">fcarouge/linalg.hpp</text>
</a>
</g>
</g>
<!-- Node1&#45;&gt;Node2 -->
<g id="edge1_Node000001_Node000002" class="edge">
<title>Node1&#45;&gt;Node2</title>
<g id="a_edge1_Node000001_Node000002"><a xlink:title=" ">
<path fill="none" stroke="#63b8ff" d="M1172.19,-267.61C964.16,-262.95 318.65,-246.57 111.5,-218.75 106.09,-218.02 100.46,-217.06 94.88,-215.97"/>
<polygon fill="#63b8ff" stroke="#63b8ff" points="95.61,-212.54 85.1,-213.91 94.17,-219.4 95.61,-212.54"/>
</a>
</g>
</g>
<!-- Node3 -->
<g id="Node000003" class="node">
<title>Node3</title>
<g id="a_Node000003"><a xlink:href="typed__linear__algebra_8hpp.xhtml" target="_top" xlink:title="Typed linear algebra implementation.">
<polygon fill="white" stroke="#666666" points="888.62,-218.75 780.38,-218.75 780.38,-188.25 888.62,-188.25 888.62,-218.75"/>
<text text-anchor="start" x="788.38" y="-205.25" font-family="Helvetica,sans-Serif" font-size="10.00">fcarouge/typed_linear</text>
<text text-anchor="middle" x="834.5" y="-194" font-family="Helvetica,sans-Serif" font-size="10.00">_algebra.hpp</text>
</a>
</g>
</g>
<!-- Node1&#45;&gt;Node3 -->
<g id="edge2_Node000001_Node000003" class="edge">
<title>Node1&#45;&gt;Node3</title>
<g id="a_edge2_Node000001_Node000003"><a xlink:title=" ">
<path fill="none" stroke="#63b8ff" d="M1172.3,-258.57C1097.4,-246.58 975.19,-227.02 900.11,-215"/>
<polygon fill="#63b8ff" stroke="#63b8ff" points="900.86,-211.58 890.43,-213.45 899.75,-218.49 900.86,-211.58"/>
</a>
</g>
</g>
<!-- Node9 -->
<g id="Node000009" class="node">
<title>Node9</title>
<g id="a_Node000009"><a xlink:title=" ">
<polygon fill="#e0e0e0" stroke="#999999" points="220,-19.25 183,-19.25 183,0 220,0 220,-19.25"/>
<text text-anchor="middle" x="201.5" y="-5.75" font-family="Helvetica,sans-Serif" font-size="10.00">tuple</text>
</a>
</g>
</g>
<!-- Node1&#45;&gt;Node9 -->
<g id="edge25_Node000001_Node000009" class="edge">
<title>Node1&#45;&gt;Node9</title>
<g id="a_edge25_Node000001_Node000009"><a xlink:title=" ">
<path fill="none" stroke="#63b8ff" d="M1172.11,-269.17C992.83,-269.02 496.47,-264.37 340.5,-218.75 282.72,-201.85 256.61,-201.85 222.5,-152.25 197.1,-115.32 197.07,-60.15 199.26,-30.76"/>
<polygon fill="#63b8ff" stroke="#63b8ff" points="202.72,-31.33 200.17,-21.05 195.75,-30.68 202.72,-31.33"/>
</a>
</g>
</g>
<!-- Node10 -->
<g id="Node000010" class="node">
<title>Node10</title>
<g id="a_Node000010"><a xlink:title=" ">
<polygon fill="#e0e0e0" stroke="#999999" points="677,-19.25 616,-19.25 616,0 677,0 677,-19.25"/>
<text text-anchor="middle" x="646.5" y="-5.75" font-family="Helvetica,sans-Serif" font-size="10.00">type_traits</text>
</a>
</g>
</g>
<!-- Node1&#45;&gt;Node10 -->
<g id="edge26_Node000001_Node000010" class="edge">
<title>Node1&#45;&gt;Node10</title>
<g id="a_edge26_Node000001_Node000010"><a xlink:title=" ">
<path fill="none" stroke="#63b8ff" d="M1172.22,-266.27C961.12,-256.79 306.96,-221.97 245.5,-152.25 142.49,-35.4 481.62,-14.96 604.09,-11.38"/>
<polygon fill="#63b8ff" stroke="#63b8ff" points="604.16,-14.88 614.07,-11.12 603.98,-7.89 604.16,-14.88"/>
</a>
</g>
</g>
<!-- Node12 -->
<g id="Node000012" class="node">
<title>Node12</title>
<g id="a_Node000012"><a xlink:title=" ">
<polygon fill="#e0e0e0" stroke="#999999" points="1334.38,-74.5 1290.62,-74.5 1290.62,-55.25 1334.38,-55.25 1334.38,-74.5"/>
<text text-anchor="middle" x="1312.5" y="-61" font-family="Helvetica,sans-Serif" font-size="10.00">format</text>
</a>
</g>
</g>
<!-- Node1&#45;&gt;Node12 -->
<g id="edge23_Node000001_Node000012" class="edge">
<title>Node1&#45;&gt;Node12</title>
<g id="a_edge23_Node000001_Node000012"><a xlink:title=" ">
<path fill="none" stroke="#63b8ff" d="M1213.56,-254.36C1190.07,-238.14 1160.12,-211.24 1177.5,-188.25 1212.88,-141.45 1267,-197.37 1304.5,-152.25 1319.67,-134 1319.19,-105.49 1316.59,-86.27"/>
<polygon fill="#63b8ff" stroke="#63b8ff" points="1320.04,-85.7 1314.91,-76.42 1313.14,-86.87 1320.04,-85.7"/>
</a>
</g>
</g>
<!-- Node19 -->
<g id="Node000019" class="node">
<title>Node19</title>
<g id="a_Node000019"><a xlink:title=" ">
<polygon fill="#e0e0e0" stroke="#999999" points="1220.88,-213.12 1186.12,-213.12 1186.12,-193.88 1220.88,-193.88 1220.88,-213.12"/>
<text text-anchor="middle" x="1203.5" y="-199.62" font-family="Helvetica,sans-Serif" font-size="10.00">print</text>
</a>
</g>
</g>
<!-- Node1&#45;&gt;Node19 -->
<g id="edge24_Node000001_Node000019" class="edge">
<title>Node1&#45;&gt;Node19</title>
<g id="a_edge24_Node000001_Node000019"><a xlink:title=" ">
<path fill="none" stroke="#63b8ff" d="M1229.78,-254.36C1224.94,-245.18 1218.66,-233.25 1213.44,-223.36"/>
<polygon fill="#63b8ff" stroke="#63b8ff" points="1216.62,-221.88 1208.86,-214.66 1210.42,-225.14 1216.62,-221.88"/>
</a>
</g>
</g>
<!-- Node20 -->
<g id="Node000020" class="node">
<title>Node20</title>
<g id="a_Node000020"><a xlink:title=" ">
<polygon fill="#e0e0e0" stroke="#999999" points="1306,-213.12 1239,-213.12 1239,-193.88 1306,-193.88 1306,-213.12"/>
<text text-anchor="middle" x="1272.5" y="-199.62" font-family="Helvetica,sans-Serif" font-size="10.00">Eigen/Eigen</text>
</a>
</g>
</g>
<!-- Node1&#45;&gt;Node20 -->
<g id="edge27_Node000001_Node000020" class="edge">
<title>Node1&#45;&gt;Node20</title>
<g id="a_edge27_Node000001_Node000020"><a xlink:title=" ">
<path fill="none" stroke="#63b8ff" d="M1245.44,-254.36C1250.42,-245.18 1256.9,-233.25 1262.26,-223.36"/>
<polygon fill="#63b8ff" stroke="#63b8ff" points="1265.3,-225.11 1266.99,-214.65 1259.14,-221.77 1265.3,-225.11"/>
</a>
</g>
</g>
<!-- Node21 -->
<g id="Node000021" class="node">
<title>Node21</title>
<g id="a_Node000021"><a xlink:title=" ">
<polygon fill="#e0e0e0" stroke="#999999" points="1426.62,-218.75 1324.38,-218.75 1324.38,-188.25 1426.62,-188.25 1426.62,-218.75"/>
<text text-anchor="start" x="1332.38" y="-205.25" font-family="Helvetica,sans-Serif" font-size="10.00">mp&#45;units/framework</text>
<text text-anchor="middle" x="1375.5" y="-194" font-family="Helvetica,sans-Serif" font-size="10.00">/quantity.h</text>
</a>
</g>
</g>
<!-- Node1&#45;&gt;Node21 -->
<g id="edge28_Node000001_Node000021" class="edge">
<title>Node1&#45;&gt;Node21</title>
<g id="a_edge28_Node000001_Node000021"><a xlink:title=" ">
<path fill="none" stroke="#63b8ff" d="M1268.81,-254.36C1288.13,-245.33 1313.14,-233.65 1334.09,-223.86"/>
<polygon fill="#63b8ff" stroke="#63b8ff" points="1335.36,-227.12 1342.94,-219.72 1332.4,-220.78 1335.36,-227.12"/>
</a>
</g>
</g>
<!-- Node22 -->
<g id="Node000022" class="node">
<title>Node22</title>
<g id="a_Node000022"><a xlink:title=" ">
<polygon fill="#e0e0e0" stroke="#999999" points="1546.62,-218.75 1444.38,-218.75 1444.38,-188.25 1546.62,-188.25 1546.62,-218.75"/>
<text text-anchor="start" x="1452.38" y="-205.25" font-family="Helvetica,sans-Serif" font-size="10.00">mp&#45;units/framework</text>
<text text-anchor="middle" x="1495.5" y="-194" font-family="Helvetica,sans-Serif" font-size="10.00">/quantity_point.h</text>
</a>
</g>
</g>
<!-- Node1&#45;&gt;Node22 -->
<g id="edge29_Node000001_Node000022" class="edge">
<title>Node1&#45;&gt;Node22</title>
<g id="a_edge29_Node000001_Node000022"><a xlink:title=" ">
<path fill="none" stroke="#63b8ff" d="M1296.37,-254.28C1337.24,-244.07 1391.6,-230.47 1433.2,-220.08"/>
<polygon fill="#63b8ff" stroke="#63b8ff" points="1433.98,-223.49 1442.83,-217.67 1432.28,-216.7 1433.98,-223.49"/>
</a>
</g>
</g>
<!-- Node23 -->
<g id="Node000023" class="node">
<title>Node23</title>
<g id="a_Node000023"><a xlink:title=" ">
<polygon fill="#e0e0e0" stroke="#999999" points="1650.38,-213.12 1564.62,-213.12 1564.62,-193.88 1650.38,-193.88 1650.38,-213.12"/>
<text text-anchor="middle" x="1607.5" y="-199.62" font-family="Helvetica,sans-Serif" font-size="10.00">mp&#45;units/math.h</text>
</a>
</g>
</g>
<!-- Node1&#45;&gt;Node23 -->
<g id="edge30_Node000001_Node000023" class="edge">
<title>Node1&#45;&gt;Node23</title>
<g id="a_edge30_Node000001_Node000023"><a xlink:title=" ">
<path fill="none" stroke="#63b8ff" d="M1302.75,-260.84C1367.31,-252.26 1468.76,-237.43 1555.5,-218.75 1558.82,-218.03 1562.25,-217.23 1565.69,-216.39"/>
<polygon fill="#63b8ff" stroke="#63b8ff" points="1566.29,-219.85 1575.1,-213.96 1564.54,-213.07 1566.29,-219.85"/>
</a>
</g>
</g>
<!-- Node24 -->
<g id="Node000024" class="node">
<title>Node24</title>
<g id="a_Node000024"><a xlink:title=" ">
<polygon fill="#e0e0e0" stroke="#999999" points="1777,-218.75 1668,-218.75 1668,-188.25 1777,-188.25 1777,-218.75"/>
<text text-anchor="start" x="1676" y="-205.25" font-family="Helvetica,sans-Serif" font-size="10.00">mp&#45;units/systems/isq</text>
<text text-anchor="middle" x="1722.5" y="-194" font-family="Helvetica,sans-Serif" font-size="10.00">/thermodynamics.h</text>
</a>
</g>
</g>
<!-- Node1&#45;&gt;Node24 -->
<g id="edge31_Node000001_Node000024" class="edge">
<title>Node1&#45;&gt;Node24</title>
<g id="a_edge31_Node000001_Node000024"><a xlink:title=" ">
<path fill="none" stroke="#63b8ff" d="M1302.87,-263.34C1383.8,-255.86 1526.03,-241.17 1656.61,-219.15"/>
<polygon fill="#63b8ff" stroke="#63b8ff" points="1656.83,-222.66 1666.1,-217.53 1655.65,-215.76 1656.83,-222.66"/>
</a>
</g>
</g>
<!-- Node25 -->
<g id="Node000025" class="node">
<title>Node25</title>
<g id="a_Node000025"><a xlink:title=" ">
<polygon fill="#e0e0e0" stroke="#999999" points="1906.12,-213.12 1794.88,-213.12 1794.88,-193.88 1906.12,-193.88 1906.12,-213.12"/>
<text text-anchor="middle" x="1850.5" y="-199.62" font-family="Helvetica,sans-Serif" font-size="10.00">mp&#45;units/systems/si.h</text>
</a>
</g>
</g>
<!-- Node1&#45;&gt;Node25 -->
<g id="edge32_Node000001_Node000025" class="edge">
<title>Node1&#45;&gt;Node25</title>
<g id="a_edge32_Node000001_Node000025"><a xlink:title=" ">
<path fill="none" stroke="#63b8ff" d="M1302.91,-265.72C1406.14,-259.94 1612.98,-245.89 1786.5,-218.75 1791.71,-217.94 1797.13,-216.95 1802.51,-215.88"/>
<polygon fill="#63b8ff" stroke="#63b8ff" points="1802.87,-219.38 1811.95,-213.91 1801.44,-212.53 1802.87,-219.38"/>
</a>
</g>
</g>
<!-- Node4 -->
<g id="Node000004" class="node">
<title>Node4</title>
<g id="a_Node000004"><a xlink:href="typed__linear__algebra__forward_8hpp.xhtml" target="_top" xlink:title="Authoritative forward declaration header.">
<polygon fill="white" stroke="#666666" points="1074.75,-146.62 970.25,-146.62 970.25,-116.12 1074.75,-116.12 1074.75,-146.62"/>
<text text-anchor="start" x="978.25" y="-133.12" font-family="Helvetica,sans-Serif" font-size="10.00">typed_linear_algebra</text>
<text text-anchor="middle" x="1022.5" y="-121.88" font-family="Helvetica,sans-Serif" font-size="10.00">_forward.hpp</text>
</a>
</g>
</g>
<!-- Node3&#45;&gt;Node4 -->
<g id="edge3_Node000003_Node000004" class="edge">
<title>Node3&#45;&gt;Node4</title>
<g id="a_edge3_Node000003_Node000004"><a xlink:title=" ">
<path fill="none" stroke="#63b8ff" d="M873.91,-187.8C902.61,-177.09 941.71,-162.51 972.59,-150.99"/>
<polygon fill="#63b8ff" stroke="#63b8ff" points="973.58,-154.36 981.72,-147.59 971.13,-147.8 973.58,-154.36"/>
</a>
</g>
</g>
<!-- Node5 -->
<g id="Node000005" class="node">
<title>Node5</title>
<g id="a_Node000005"><a xlink:href="format_8hpp.xhtml" target="_top" xlink:title="Formatting support for the typed matrix.">
<polygon fill="white" stroke="#666666" points="1234.75,-146.62 1130.25,-146.62 1130.25,-116.12 1234.75,-116.12 1234.75,-146.62"/>
<text text-anchor="start" x="1138.25" y="-133.12" font-family="Helvetica,sans-Serif" font-size="10.00">typed_linear_algebra</text>
<text text-anchor="middle" x="1182.5" y="-121.88" font-family="Helvetica,sans-Serif" font-size="10.00">_internal/format.hpp</text>
</a>
</g>
</g>
<!-- Node3&#45;&gt;Node5 -->
<g id="edge4_Node000003_Node000005" class="edge">
<title>Node3&#45;&gt;Node5</title>
<g id="a_edge4_Node000003_Node000005"><a xlink:title=" ">
<path fill="none" stroke="#63b8ff" d="M888.95,-194.72C946.03,-186.11 1038.14,-170.96 1116.5,-152.25 1119.4,-151.56 1122.36,-150.81 1125.35,-150.03"/>
<polygon fill="#63b8ff" stroke="#63b8ff" points="1125.99,-153.48 1134.71,-147.46 1124.14,-146.73 1125.99,-153.48"/>
</a>
</g>
</g>
<!-- Node6 -->
<g id="Node000006" class="node">
<title>Node6</title>
<g id="a_Node000006"><a xlink:href="utility_8hpp.xhtml" target="_top" xlink:title=" ">
<polygon fill="white" stroke="#666666" points="1130.75,-74.5 1074.25,-74.5 1074.25,-55.25 1130.75,-55.25 1130.75,-74.5"/>
<text text-anchor="middle" x="1102.5" y="-61" font-family="Helvetica,sans-Serif" font-size="10.00">utility.hpp</text>
</a>
</g>
</g>
<!-- Node3&#45;&gt;Node6 -->
<g id="edge12_Node000003_Node000006" class="edge">
<title>Node3&#45;&gt;Node6</title>
<g id="a_edge12_Node000003_Node000006"><a xlink:title=" ">
<path fill="none" stroke="#63b8ff" d="M888.88,-198.38C953.65,-192.34 1056.49,-178.8 1083.5,-152.25 1100.93,-135.12 1104.03,-105.91 1103.88,-86.26"/>
<polygon fill="#63b8ff" stroke="#63b8ff" points="1107.39,-86.31 1103.49,-76.46 1100.39,-86.59 1107.39,-86.31"/>
</a>
</g>
</g>
<!-- Node7 -->
<g id="Node000007" class="node">
<title>Node7</title>
<g id="a_Node000007"><a xlink:title=" ">
<polygon fill="#e0e0e0" stroke="#999999" points="1247.38,-19.25 1191.62,-19.25 1191.62,0 1247.38,0 1247.38,-19.25"/>
<text text-anchor="middle" x="1219.5" y="-5.75" font-family="Helvetica,sans-Serif" font-size="10.00">concepts</text>
</a>
</g>
</g>
<!-- Node3&#45;&gt;Node7 -->
<g id="edge13_Node000003_Node000007" class="edge">
<title>Node3&#45;&gt;Node7</title>
<g id="a_edge13_Node000003_Node000007"><a xlink:title=" ">
<path fill="none" stroke="#63b8ff" d="M888.76,-199.77C994.6,-193.89 1220.36,-178.41 1243.5,-152.25 1274.11,-117.65 1247.85,-58.96 1231,-29.17"/>
<polygon fill="#63b8ff" stroke="#63b8ff" points="1234.21,-27.73 1226.11,-20.9 1228.19,-31.29 1234.21,-27.73"/>
</a>
</g>
</g>
<!-- Node3&#45;&gt;Node9 -->
<g id="edge17_Node000003_Node000009" class="edge">
<title>Node3&#45;&gt;Node9</title>
<g id="a_edge17_Node000003_Node000009"><a xlink:title=" ">
<path fill="none" stroke="#63b8ff" d="M780.08,-201.28C642.11,-197.7 286.64,-185.33 245.5,-152.25 208.47,-122.47 201.96,-62.01 201.22,-30.59"/>
<polygon fill="#63b8ff" stroke="#63b8ff" points="204.72,-30.92 201.18,-20.93 197.72,-30.95 204.72,-30.92"/>
</a>
</g>
</g>
<!-- Node11 -->
<g id="Node000011" class="node">
<title>Node11</title>
<g id="a_Node000011"><a xlink:title=" ">
<polygon fill="#e0e0e0" stroke="#999999" points="667.62,-74.5 619.38,-74.5 619.38,-55.25 667.62,-55.25 667.62,-74.5"/>
<text text-anchor="middle" x="643.5" y="-61" font-family="Helvetica,sans-Serif" font-size="10.00">cstddef</text>
</a>
</g>
</g>
<!-- Node3&#45;&gt;Node11 -->
<g id="edge14_Node000003_Node000011" class="edge">
<title>Node3&#45;&gt;Node11</title>
<g id="a_edge14_Node000003_Node000011"><a xlink:title=" ">
<path fill="none" stroke="#63b8ff" d="M779.92,-201.84C642.99,-199.62 293.32,-190.24 258.5,-152.25 245.96,-138.57 246.16,-124.36 258.5,-110.5 281.52,-84.65 516.26,-71.53 607.5,-67.37"/>
<polygon fill="#63b8ff" stroke="#63b8ff" points="607.54,-70.87 617.38,-66.93 607.23,-63.88 607.54,-70.87"/>
</a>
</g>
</g>
<!-- Node3&#45;&gt;Node12 -->
<g id="edge15_Node000003_Node000012" class="edge">
<title>Node3&#45;&gt;Node12</title>
<g id="a_edge15_Node000003_Node000012"><a xlink:title=" ">
<path fill="none" stroke="#63b8ff" d="M888.84,-199.39C1000.12,-192.59 1246.06,-175.13 1276.5,-152.25 1297.48,-136.48 1306.32,-106.22 1309.98,-86.03"/>
<polygon fill="#63b8ff" stroke="#63b8ff" points="1313.43,-86.64 1311.46,-76.23 1306.51,-85.59 1313.43,-86.64"/>
</a>
</g>
</g>
<!-- Node13 -->
<g id="Node000013" class="node">
<title>Node13</title>
<g id="a_Node000013"><a xlink:title=" ">
<polygon fill="#e0e0e0" stroke="#999999" points="339.25,-141 267.75,-141 267.75,-121.75 339.25,-121.75 339.25,-141"/>
<text text-anchor="middle" x="303.5" y="-127.5" font-family="Helvetica,sans-Serif" font-size="10.00">initializer_list</text>
</a>
</g>
</g>
<!-- Node3&#45;&gt;Node13 -->
<g id="edge16_Node000003_Node000013" class="edge">
<title>Node3&#45;&gt;Node13</title>
<g id="a_edge16_Node000003_Node000013"><a xlink:title=" ">
<path fill="none" stroke="#63b8ff" d="M779.93,-202.37C688.95,-200.94 501.2,-192.78 348.5,-152.25 342.66,-150.7 336.62,-148.49 330.93,-146.11"/>
<polygon fill="#63b8ff" stroke="#63b8ff" points="332.5,-142.97 321.94,-142.05 329.62,-149.35 332.5,-142.97"/>
</a>
</g>
</g>
<!-- Node14 -->
<g id="Node000014" class="node">
<title>Node14</title>
<g id="a_Node000014"><a xlink:title=" ">
<polygon fill="#e0e0e0" stroke="#999999" points="395.75,-141 357.25,-141 357.25,-121.75 395.75,-121.75 395.75,-141"/>
<text text-anchor="middle" x="376.5" y="-127.5" font-family="Helvetica,sans-Serif" font-size="10.00">utility</text>
</a>
</g>
</g>
<!-- Node3&#45;&gt;Node14 -->
<g id="edge18_Node000003_Node000014" class="edge">
<title>Node3&#45;&gt;Node14</title>
<g id="a_edge18_Node000003_Node000014"><a xlink:title=" ">
<path fill="none" stroke="#63b8ff" d="M779.94,-199.5C680.05,-193.45 471.85,-178.13 404.5,-152.25 401.58,-151.13 398.67,-149.63 395.9,-147.95"/>
<polygon fill="#63b8ff" stroke="#63b8ff" points="398.11,-145.22 387.91,-142.35 394.09,-150.96 398.11,-145.22"/>
</a>
</g>
</g>
<!-- Node15 -->
<g id="Node000015" class="node">
<title>Node15</title>
<g id="a_Node000015"><a xlink:title=" ">
<polygon fill="#e0e0e0" stroke="#999999" points="575.62,-146.62 413.38,-146.62 413.38,-116.12 575.62,-116.12 575.62,-146.62"/>
<text text-anchor="start" x="421.38" y="-133.12" font-family="Helvetica,sans-Serif" font-size="10.00">typed_linear_algebra</text>
<text text-anchor="middle" x="494.5" y="-121.88" font-family="Helvetica,sans-Serif" font-size="10.00">_internal/algorithm/transposed.tpp</text>
</a>
</g>
</g>
<!-- Node3&#45;&gt;Node15 -->
<g id="edge19_Node000003_Node000015" class="edge">
<title>Node3&#45;&gt;Node15</title>
<g id="a_edge19_Node000003_Node000015"><a xlink:title=" ">
<path fill="none" stroke="#63b8ff" d="M780.31,-191.92C729.63,-181.94 651.86,-166.46 584.5,-152.25 580.22,-151.35 575.83,-150.41 571.39,-149.46"/>
<polygon fill="#63b8ff" stroke="#63b8ff" points="572.33,-146.08 561.81,-147.38 570.85,-152.92 572.33,-146.08"/>
</a>
</g>
</g>
<!-- Node16 -->
<g id="Node000016" class="node">
<title>Node16</title>
<g id="a_Node000016"><a xlink:title=" ">
<polygon fill="#e0e0e0" stroke="#999999" points="697.75,-146.62 593.25,-146.62 593.25,-116.12 697.75,-116.12 697.75,-146.62"/>
<text text-anchor="start" x="601.25" y="-133.12" font-family="Helvetica,sans-Serif" font-size="10.00">typed_linear_algebra</text>
<text text-anchor="middle" x="645.5" y="-121.88" font-family="Helvetica,sans-Serif" font-size="10.00">_internal/cast.tpp</text>
</a>
</g>
</g>
<!-- Node3&#45;&gt;Node16 -->
<g id="edge20_Node000003_Node000016" class="edge">
<title>Node3&#45;&gt;Node16</title>
<g id="a_edge20_Node000003_Node000016"><a xlink:title=" ">
<path fill="none" stroke="#63b8ff" d="M794.88,-187.8C766.02,-177.09 726.72,-162.51 695.68,-150.99"/>
<polygon fill="#63b8ff" stroke="#63b8ff" points="697.08,-147.78 686.49,-147.58 694.65,-154.34 697.08,-147.78"/>
</a>
</g>
</g>
<!-- Node17 -->
<g id="Node000017" class="node">
<title>Node17</title>
<g id="a_Node000017"><a xlink:title=" ">
<polygon fill="#e0e0e0" stroke="#999999" points="827.12,-146.62 715.88,-146.62 715.88,-116.12 827.12,-116.12 827.12,-146.62"/>
<text text-anchor="start" x="723.88" y="-133.12" font-family="Helvetica,sans-Serif" font-size="10.00">typed_linear_algebra</text>
<text text-anchor="middle" x="771.5" y="-121.88" font-family="Helvetica,sans-Serif" font-size="10.00">_internal/operation.tpp</text>
</a>
</g>
</g>
<!-- Node3&#45;&gt;Node17 -->
<g id="edge21_Node000003_Node000017" class="edge">
<title>Node3&#45;&gt;Node17</title>
<g id="a_edge21_Node000003_Node000017"><a xlink:title=" ">
<path fill="none" stroke="#63b8ff" d="M821.45,-187.97C813,-178.57 801.82,-166.12 792.18,-155.39"/>
<polygon fill="#63b8ff" stroke="#63b8ff" points="794.84,-153.11 785.55,-148.01 789.63,-157.79 794.84,-153.11"/>
</a>
</g>
</g>
<!-- Node18 -->
<g id="Node000018" class="node">
<title>Node18</title>
<g id="a_Node000018"><a xlink:title=" ">
<polygon fill="#e0e0e0" stroke="#999999" points="952.25,-152.25 844.75,-152.25 844.75,-110.5 952.25,-110.5 952.25,-152.25"/>
<text text-anchor="start" x="852.75" y="-138.75" font-family="Helvetica,sans-Serif" font-size="10.00">typed_linear_algebra</text>
<text text-anchor="start" x="852.75" y="-127.5" font-family="Helvetica,sans-Serif" font-size="10.00">_internal/typed_linear</text>
<text text-anchor="middle" x="898.5" y="-116.25" font-family="Helvetica,sans-Serif" font-size="10.00">_algebra.tpp</text>
</a>
</g>
</g>
<!-- Node3&#45;&gt;Node18 -->
<g id="edge22_Node000003_Node000018" class="edge">
<title>Node3&#45;&gt;Node18</title>
<g id="a_edge22_Node000003_Node000018"><a xlink:title=" ">
<path fill="none" stroke="#63b8ff" d="M847.76,-187.97C854.88,-180.17 863.91,-170.27 872.38,-161"/>
<polygon fill="#63b8ff" stroke="#63b8ff" points="874.74,-163.6 878.9,-153.85 869.57,-158.88 874.74,-163.6"/>
</a>
</g>
</g>
<!-- Node5&#45;&gt;Node6 -->
<g id="edge5_Node000005_Node000006" class="edge">
<title>Node5&#45;&gt;Node6</title>
<g id="a_edge5_Node000005_Node000006"><a xlink:title=" ">
<path fill="none" stroke="#63b8ff" d="M1164.35,-115.74C1151.73,-105.57 1134.94,-92.03 1122.04,-81.63"/>
<polygon fill="#63b8ff" stroke="#63b8ff" points="1124.6,-79.2 1114.62,-75.65 1120.21,-84.65 1124.6,-79.2"/>
</a>
</g>
</g>
<!-- Node5&#45;&gt;Node11 -->
<g id="edge10_Node000005_Node000011" class="edge">
<title>Node5&#45;&gt;Node11</title>
<g id="a_edge10_Node000005_Node000011"><a xlink:title=" ">
<path fill="none" stroke="#63b8ff" d="M1130,-118.85C1115.03,-115.83 1098.67,-112.79 1083.5,-110.5 933.96,-87.96 754.07,-73.69 679.05,-68.3"/>
<polygon fill="#63b8ff" stroke="#63b8ff" points="679.66,-64.84 669.44,-67.62 679.17,-71.82 679.66,-64.84"/>
</a>
</g>
</g>
<!-- Node5&#45;&gt;Node12 -->
<g id="edge11_Node000005_Node000012" class="edge">
<title>Node5&#45;&gt;Node12</title>
<g id="a_edge11_Node000005_Node000012"><a xlink:title=" ">
<path fill="none" stroke="#63b8ff" d="M1212,-115.74C1233.66,-104.99 1262.91,-90.48 1284.27,-79.88"/>
<polygon fill="#63b8ff" stroke="#63b8ff" points="1285.58,-83.14 1292.98,-75.56 1282.47,-76.87 1285.58,-83.14"/>
</a>
</g>
</g>
<!-- Node6&#45;&gt;Node7 -->
<g id="edge6_Node000006_Node000007" class="edge">
<title>Node6&#45;&gt;Node7</title>
<g id="a_edge6_Node000006_Node000007"><a xlink:title=" ">
<path fill="none" stroke="#63b8ff" d="M1122.35,-54.84C1140.67,-46.5 1168.15,-34 1189.21,-24.41"/>
<polygon fill="#63b8ff" stroke="#63b8ff" points="1190.53,-27.66 1198.18,-20.33 1187.63,-21.29 1190.53,-27.66"/>
</a>
</g>
</g>
<!-- Node8 -->
<g id="Node000008" class="node">
<title>Node8</title>
<g id="a_Node000008"><a xlink:title=" ">
<polygon fill="#e0e0e0" stroke="#999999" points="1131.5,-19.25 1073.5,-19.25 1073.5,0 1131.5,0 1131.5,-19.25"/>
<text text-anchor="middle" x="1102.5" y="-5.75" font-family="Helvetica,sans-Serif" font-size="10.00">functional</text>
</a>
</g>
</g>
<!-- Node6&#45;&gt;Node8 -->
<g id="edge7_Node000006_Node000008" class="edge">
<title>Node6&#45;&gt;Node8</title>
<g id="a_edge7_Node000006_Node000008"><a xlink:title=" ">
<path fill="none" stroke="#63b8ff" d="M1102.5,-55.08C1102.5,-48.57 1102.5,-39.42 1102.5,-31.12"/>
<polygon fill="#63b8ff" stroke="#63b8ff" points="1106,-31.12 1102.5,-21.12 1099,-31.12 1106,-31.12"/>
</a>
</g>
</g>
<!-- Node6&#45;&gt;Node9 -->
<g id="edge8_Node000006_Node000009" class="edge">
<title>Node6&#45;&gt;Node9</title>
<g id="a_edge8_Node000006_Node000009"><a xlink:title=" ">
<path fill="none" stroke="#63b8ff" d="M1073.8,-62.18C939.03,-54.21 369.92,-20.58 231.8,-12.42"/>
<polygon fill="#63b8ff" stroke="#63b8ff" points="232.19,-8.93 222,-11.84 231.78,-15.92 232.19,-8.93"/>
</a>
</g>
</g>
<!-- Node6&#45;&gt;Node10 -->
<g id="edge9_Node000006_Node000010" class="edge">
<title>Node6&#45;&gt;Node10</title>
<g id="a_edge9_Node000006_Node000010"><a xlink:title=" ">
<path fill="none" stroke="#63b8ff" d="M1073.98,-60.54C996.27,-51.47 780.54,-26.28 688.73,-15.56"/>
<polygon fill="#63b8ff" stroke="#63b8ff" points="689.24,-12.09 678.9,-14.41 688.42,-19.04 689.24,-12.09"/>
</a>
</g>
</g>
</g>
</svg>

<g id="navigator" transform="translate(0 0)" fill="#404254">
  <rect fill="#f2f5e9" fill-opacity="0.5" stroke="#606060" stroke-width=".5" x="0" y="0" width="60" height="60"/>
  <use id="zoomplus" xlink:href="#zoomPlus" x="17" y="9" onmousedown="handleZoom(evt,'in')"/>
  <use id="zoomminus" xlink:href="#zoomMin" x="42" y="9" onmousedown="handleZoom(evt,'out')"/>
  <use id="reset" xlink:href="#resetDef" x="30" y="36" onmousedown="handleReset()"/>
   <use id="arrowup" xlink:href="#arrowUp" x="0" y="0" onmousedown="handlePan(0,-1)"/>
  <use id="arrowright" xlink:href="#arrowRight" x="0" y="0" onmousedown="handlePan(1,0)"/>
  <use id="arrowdown" xlink:href="#arrowDown" x="0" y="0" onmousedown="handlePan(0,1)"/>
  <use id="arrowleft" xlink:href="#arrowLeft" x="0" y="0" onmousedown="handlePan(-1,0)"/>
</g>
<svg viewBox="0 0 15 15" width="100%" height="30px" preserveAspectRatio="xMaxYMin meet">
 <g id="arrow_out" transform="scale(0.3 0.3)">
  <a xlink:href="mp__units__eigen_8cpp__incl_org.svg" target="_base">
   <rect id="button" ry="5" rx="5" y="6" x="6" height="38" width="38"
        fill="#f2f5e9" fill-opacity="0.5" stroke="#606060" stroke-width="1.0"/>
   <path id="arrow"
     d="M 11.500037,31.436501 C 11.940474,20.09759 22.043105,11.32322 32.158766,21.979434 L 37.068811,17.246167 C 37.068811,17.246167 37.088388,32 37.088388,32 L 22.160133,31.978069 C 22.160133,31.978069 26.997745,27.140456 26.997745,27.140456 C 18.528582,18.264221 13.291696,25.230495 11.500037,31.436501 z"
     style="fill:#404040;"/>
  </a>
 </g>
</svg>

<style type='text/css'>
<![CDATA[
[data-mouse-over-selected='false'] { opacity: 0.7; }
[data-mouse-over-selected='true']  { opacity: 1.0; }
]]>
</style>
<script type="application/ecmascript"><![CDATA[
document.addEventListener('DOMContentLoaded', (event) => {
  highlightEdges();
  highlightAdjacentNodes();
});
]]></script>
</svg>
