<?xml version="1.0" encoding="UTF-8" standalone="no"?>
<!DOCTYPE svg PUBLIC "-//W3C//DTD SVG 1.1//EN"
 "http://www.w3.org/Graphics/SVG/1.1/DTD/svg11.dtd">
<!-- Generated by graphviz version 12.2.0 (20241103.1931)
 -->
<!-- Title: /github/workspace/sample/mp_units_std.cpp Pages: 1 -->
<!--zoomable 305 -->

<svg id="main" version="1.1" xmlns="http://www.w3.org/2000/svg" xmlns:xlink="http://www.w3.org/1999/xlink" xml:space="preserve" onload="init(evt)">

<style type="text/css"><![CDATA[
.node, .edge {opacity: 0.7;}
.node.selected, .edge.selected {opacity: 1;}
.edge:hover path { stroke: red; }
.edge:hover polygon { stroke: red; fill: red; }
]]></style>

<defs>
  <circle id="rim" cx="0" cy="0" r="7"/>
  <circle id="rim2" cx="0" cy="0" r="3.5"/>
  <g id="zoomPlus">
    <use xlink:href="#rim" fill="#404040"><set attributeName="fill" to="#808080" begin="zoomplus.mouseover" end="zoomplus.mouseout"/></use>
    <path d="M-4,0h8M0,-4v8" fill="none" stroke="white" stroke-width="1.5" pointer-events="none"/>
  </g>
  <g id="zoomMin">
    <use xlink:href="#rim" fill="#404040"><set attributeName="fill" to="#808080" begin="zoomminus.mouseover" end="zoomminus.mouseout"/></use>
    <path d="M-4,0h8" fill="none" stroke="white" stroke-width="1.5" pointer-events="none"/>
  </g>
  <g id="arrowUp" transform="translate(30 24)">
    <use xlink:href="#rim"/>
    <path pointer-events="none" fill="none" stroke="white" stroke-width="1.5" d="M0,-3.0v7 M-2.5,-0.5L0,-3.0L2.5,-0.5"/>
  </g>
  <g id="arrowRight" transform="rotate(90) translate(36 -43)">
    <use xlink:href="#rim"/>
    <path pointer-events="none" fill="none" stroke="white" stroke-width="1.5" d="M0,-3.0v7 M-2.5,-0.5L0,-3.0L2.5,-0.5"/>
  </g>
  <g id="arrowDown" transform="rotate(180) translate(-30 -48)">
    <use xlink:href="#rim"/>
    <path pointer-events="none" fill="none" stroke="white" stroke-width="1.5" d="M0,-3.0v7 M-2.5,-0.5L0,-3.0L2.5,-0.5"/>
  </g>
  <g id="arrowLeft" transform="rotate(270) translate(-36 17)">
    <use xlink:href="#rim"/>
    <path pointer-events="none" fill="none" stroke="white" stroke-width="1.5" d="M0,-3.0v7 M-2.5,-0.5L0,-3.0L2.5,-0.5"/>
  </g>
  <g id="resetDef">
    <use xlink:href="#rim2" fill="#404040"><set attributeName="fill" to="#808080" begin="reset.mouseover" end="reset.mouseout"/></use>
  </g>
</defs>
<script type="application/ecmascript">
var viewWidth = 2588;
var viewHeight = 305;
var sectionId = 'dynsection-0';
</script>
<script type="application/ecmascript" xlink:href="svg.min.js"/>
<svg id="graph" class="graph">
<g id="viewport">
<title>/github/workspace/sample/mp_units_std.cpp</title>
<!-- Node1 -->
<g id="Node000001" class="node">
<title>Node1</title>
<g id="a_Node000001"><a xlink:title="Unit safe linear algebra with mp&#45;units and Eigen.">
<polygon fill="#999999" stroke="#666666" points="2376.5,-296.5 2246.5,-296.5 2246.5,-266 2376.5,-266 2376.5,-296.5"/>
<text text-anchor="start" x="2254.5" y="-283" font-family="Helvetica,sans-Serif" font-size="10.00">/github/workspace/sample</text>
<text text-anchor="middle" x="2311.5" y="-271.75" font-family="Helvetica,sans-Serif" font-size="10.00">/mp_units_std.cpp</text>
</a>
</g>
</g>
<!-- Node2 -->
<g id="Node000002" class="node">
<title>Node2</title>
<g id="a_Node000002"><a xlink:title=" ">
<polygon fill="#e0e0e0" stroke="#999999" points="97,-224.38 0,-224.38 0,-205.12 97,-205.12 97,-224.38"/>
<text text-anchor="middle" x="48.5" y="-210.88" font-family="Helvetica,sans-Serif" font-size="10.00">fcarouge/linalg.hpp</text>
</a>
</g>
</g>
<!-- Node1&#45;&gt;Node2 -->
<g id="edge1_Node000001_Node000002" class="edge">
<title>Node1&#45;&gt;Node2</title>
<g id="a_edge1_Node000001_Node000002"><a xlink:title=" ">
<path fill="none" stroke="#63b8ff" d="M2246.12,-280.52C1928.04,-281.54 540.2,-282.84 111.5,-230 105.8,-229.3 99.87,-228.31 94.01,-227.17"/>
<polygon fill="#63b8ff" stroke="#63b8ff" points="94.93,-223.79 84.42,-225.15 93.49,-230.64 94.93,-223.79"/>
</a>
</g>
</g>
<!-- Node3 -->
<g id="Node000003" class="node">
<title>Node3</title>
<g id="a_Node000003"><a xlink:href="typed__linear__algebra_8hpp.xhtml" target="_top" xlink:title="Typed linear algebra implementation.">
<polygon fill="white" stroke="#666666" points="1159.62,-230 1051.38,-230 1051.38,-199.5 1159.62,-199.5 1159.62,-230"/>
<text text-anchor="start" x="1059.38" y="-216.5" font-family="Helvetica,sans-Serif" font-size="10.00">fcarouge/typed_linear</text>
<text text-anchor="middle" x="1105.5" y="-205.25" font-family="Helvetica,sans-Serif" font-size="10.00">_algebra.hpp</text>
</a>
</g>
</g>
<!-- Node1&#45;&gt;Node3 -->
<g id="edge2_Node000001_Node000003" class="edge">
<title>Node1&#45;&gt;Node3</title>
<g id="a_edge2_Node000001_Node000003"><a xlink:title=" ">
<path fill="none" stroke="#63b8ff" d="M2246.23,-276.76C2036.63,-265.55 1382.01,-230.54 1171.45,-219.28"/>
<polygon fill="#63b8ff" stroke="#63b8ff" points="1171.67,-215.78 1161.5,-218.74 1171.3,-222.77 1171.67,-215.78"/>
</a>
</g>
</g>
<!-- Node8 -->
<g id="Node000008" class="node">
<title>Node8</title>
<g id="a_Node000008"><a xlink:title=" ">
<polygon fill="#e0e0e0" stroke="#999999" points="2284.62,-24.88 2236.38,-24.88 2236.38,-5.63 2284.62,-5.63 2284.62,-24.88"/>
<text text-anchor="middle" x="2260.5" y="-11.38" font-family="Helvetica,sans-Serif" font-size="10.00">cstddef</text>
</a>
</g>
</g>
<!-- Node1&#45;&gt;Node8 -->
<g id="edge33_Node000001_Node000008" class="edge">
<title>Node1&#45;&gt;Node8</title>
<g id="a_edge33_Node000001_Node000008"><a xlink:title=" ">
<path fill="none" stroke="#63b8ff" d="M2313.86,-265.61C2318.95,-230.07 2328.46,-136.93 2301.5,-66.5 2296.67,-53.88 2287.36,-42.05 2278.83,-33.04"/>
<polygon fill="#63b8ff" stroke="#63b8ff" points="2281.4,-30.66 2271.83,-26.12 2276.48,-35.64 2281.4,-30.66"/>
</a>
</g>
</g>
<!-- Node10 -->
<g id="Node000010" class="node">
<title>Node10</title>
<g id="a_Node000010"><a xlink:title=" ">
<polygon fill="#e0e0e0" stroke="#999999" points="220,-24.88 183,-24.88 183,-5.63 220,-5.63 220,-24.88"/>
<text text-anchor="middle" x="201.5" y="-11.38" font-family="Helvetica,sans-Serif" font-size="10.00">tuple</text>
</a>
</g>
</g>
<!-- Node1&#45;&gt;Node10 -->
<g id="edge38_Node000001_Node000010" class="edge">
<title>Node1&#45;&gt;Node10</title>
<g id="a_edge38_Node000001_Node000010"><a xlink:title=" ">
<path fill="none" stroke="#63b8ff" d="M2246.02,-279.84C1929.39,-277.68 564.71,-266.33 378.5,-230 296.02,-213.91 249.34,-232.59 201.5,-163.5 174.89,-125.08 186.29,-66.44 194.98,-36.05"/>
<polygon fill="#63b8ff" stroke="#63b8ff" points="198.27,-37.26 197.86,-26.68 191.58,-35.2 198.27,-37.26"/>
</a>
</g>
</g>
<!-- Node11 -->
<g id="Node000011" class="node">
<title>Node11</title>
<g id="a_Node000011"><a xlink:title=" ">
<polygon fill="#e0e0e0" stroke="#999999" points="522,-24.88 461,-24.88 461,-5.63 522,-5.63 522,-24.88"/>
<text text-anchor="middle" x="491.5" y="-11.38" font-family="Helvetica,sans-Serif" font-size="10.00">type_traits</text>
</a>
</g>
</g>
<!-- Node1&#45;&gt;Node11 -->
<g id="edge39_Node000001_Node000011" class="edge">
<title>Node1&#45;&gt;Node11</title>
<g id="a_edge39_Node000001_Node000011"><a xlink:title=" ">
<path fill="none" stroke="#63b8ff" d="M2246.17,-279.13C1899.76,-272.88 290.87,-239.79 220.5,-163.5 147.48,-84.33 356.51,-38.66 449.45,-22.73"/>
<polygon fill="#63b8ff" stroke="#63b8ff" points="449.93,-26.2 459.21,-21.1 448.77,-19.29 449.93,-26.2"/>
</a>
</g>
</g>
<!-- Node12 -->
<g id="Node000012" class="node">
<title>Node12</title>
<g id="a_Node000012"><a xlink:title=" ">
<polygon fill="#e0e0e0" stroke="#999999" points="2276.38,-85.75 2232.62,-85.75 2232.62,-66.5 2276.38,-66.5 2276.38,-85.75"/>
<text text-anchor="middle" x="2254.5" y="-72.25" font-family="Helvetica,sans-Serif" font-size="10.00">format</text>
</a>
</g>
</g>
<!-- Node1&#45;&gt;Node12 -->
<g id="edge34_Node000001_Node000012" class="edge">
<title>Node1&#45;&gt;Node12</title>
<g id="a_edge34_Node000001_Node000012"><a xlink:title=" ">
<path fill="none" stroke="#63b8ff" d="M2307.4,-265.64C2297.36,-229.86 2271.53,-137.81 2260.09,-97.05"/>
<polygon fill="#63b8ff" stroke="#63b8ff" points="2263.52,-96.31 2257.45,-87.63 2256.78,-98.2 2263.52,-96.31"/>
</a>
</g>
</g>
<!-- Node26 -->
<g id="Node000026" class="node">
<title>Node26</title>
<g id="a_Node000026"><a xlink:title=" ">
<polygon fill="#e0e0e0" stroke="#999999" points="2396.75,-224.38 2358.25,-224.38 2358.25,-205.12 2396.75,-205.12 2396.75,-224.38"/>
<text text-anchor="middle" x="2377.5" y="-210.88" font-family="Helvetica,sans-Serif" font-size="10.00">linalg</text>
</a>
</g>
</g>
<!-- Node1&#45;&gt;Node26 -->
<g id="edge35_Node000001_Node000026" class="edge">
<title>Node1&#45;&gt;Node26</title>
<g id="a_edge35_Node000001_Node000026"><a xlink:title=" ">
<path fill="none" stroke="#63b8ff" d="M2326.48,-265.61C2336.58,-255.74 2349.93,-242.69 2360.44,-232.42"/>
<polygon fill="#63b8ff" stroke="#63b8ff" points="2362.68,-235.12 2367.39,-225.63 2357.79,-230.12 2362.68,-235.12"/>
</a>
</g>
</g>
<!-- Node27 -->
<g id="Node000027" class="node">
<title>Node27</title>
<g id="a_Node000027"><a xlink:title=" ">
<polygon fill="#e0e0e0" stroke="#999999" points="2465.75,-224.38 2415.25,-224.38 2415.25,-205.12 2465.75,-205.12 2465.75,-224.38"/>
<text text-anchor="middle" x="2440.5" y="-210.88" font-family="Helvetica,sans-Serif" font-size="10.00">mdspan</text>
</a>
</g>
</g>
<!-- Node1&#45;&gt;Node27 -->
<g id="edge36_Node000001_Node000027" class="edge">
<title>Node1&#45;&gt;Node27</title>
<g id="a_edge36_Node000001_Node000027"><a xlink:title=" ">
<path fill="none" stroke="#63b8ff" d="M2340.77,-265.61C2362.17,-254.92 2391.03,-240.49 2412.19,-229.9"/>
<polygon fill="#63b8ff" stroke="#63b8ff" points="2413.75,-233.04 2421.13,-225.44 2410.62,-226.78 2413.75,-233.04"/>
</a>
</g>
</g>
<!-- Node28 -->
<g id="Node000028" class="node">
<title>Node28</title>
<g id="a_Node000028"><a xlink:title=" ">
<polygon fill="#e0e0e0" stroke="#999999" points="2518.88,-224.38 2484.12,-224.38 2484.12,-205.12 2518.88,-205.12 2518.88,-224.38"/>
<text text-anchor="middle" x="2501.5" y="-210.88" font-family="Helvetica,sans-Serif" font-size="10.00">print</text>
</a>
</g>
</g>
<!-- Node1&#45;&gt;Node28 -->
<g id="edge37_Node000001_Node000028" class="edge">
<title>Node1&#45;&gt;Node28</title>
<g id="a_edge37_Node000001_Node000028"><a xlink:title=" ">
<path fill="none" stroke="#63b8ff" d="M2368.24,-265.57C2400,-256.66 2440.02,-244.27 2474.5,-230 2474.73,-229.91 2474.95,-229.81 2475.18,-229.72"/>
<polygon fill="#63b8ff" stroke="#63b8ff" points="2476.56,-232.94 2484.09,-225.49 2473.56,-226.61 2476.56,-232.94"/>
</a>
</g>
</g>
<!-- Node29 -->
<g id="Node000029" class="node">
<title>Node29</title>
<g id="a_Node000029"><a xlink:title=" ">
<polygon fill="#e0e0e0" stroke="#999999" points="2580,-224.38 2537,-224.38 2537,-205.12 2580,-205.12 2580,-224.38"/>
<text text-anchor="middle" x="2558.5" y="-210.88" font-family="Helvetica,sans-Serif" font-size="10.00">vector</text>
</a>
</g>
</g>
<!-- Node1&#45;&gt;Node29 -->
<g id="edge40_Node000001_Node000029" class="edge">
<title>Node1&#45;&gt;Node29</title>
<g id="a_edge40_Node000001_Node000029"><a xlink:title=" ">
<path fill="none" stroke="#63b8ff" d="M2376.73,-268.65C2420.09,-260.08 2477.96,-246.95 2527.5,-230 2528.3,-229.73 2529.1,-229.44 2529.91,-229.14"/>
<polygon fill="#63b8ff" stroke="#63b8ff" points="2531.08,-232.44 2538.99,-225.39 2528.41,-225.97 2531.08,-232.44"/>
</a>
</g>
</g>
<!-- Node4 -->
<g id="Node000004" class="node">
<title>Node4</title>
<g id="a_Node000004"><a xlink:href="typed__linear__algebra__forward_8hpp.xhtml" target="_top" xlink:title="Authoritative forward declaration header.">
<polygon fill="white" stroke="#666666" points="997.75,-30.5 893.25,-30.5 893.25,0 997.75,0 997.75,-30.5"/>
<text text-anchor="start" x="901.25" y="-17" font-family="Helvetica,sans-Serif" font-size="10.00">typed_linear_algebra</text>
<text text-anchor="middle" x="945.5" y="-5.75" font-family="Helvetica,sans-Serif" font-size="10.00">_forward.hpp</text>
</a>
</g>
</g>
<!-- Node3&#45;&gt;Node4 -->
<g id="edge3_Node000003_Node000004" class="edge">
<title>Node3&#45;&gt;Node4</title>
<g id="a_edge3_Node000003_Node000004"><a xlink:title=" ">
<path fill="none" stroke="#63b8ff" d="M1051.09,-208.97C992.78,-202.59 905.83,-189 885.5,-163.5 855.11,-125.39 895.19,-69.8 922.98,-38.97"/>
<polygon fill="#63b8ff" stroke="#63b8ff" points="925.48,-41.42 929.74,-31.72 920.36,-36.65 925.48,-41.42"/>
</a>
</g>
</g>
<!-- Node5 -->
<g id="Node000005" class="node">
<title>Node5</title>
<g id="a_Node000005"><a xlink:href="format_8hpp.xhtml" target="_top" xlink:title="Formatting support for the typed matrix.">
<polygon fill="white" stroke="#666666" points="2226.75,-157.88 2122.25,-157.88 2122.25,-127.38 2226.75,-127.38 2226.75,-157.88"/>
<text text-anchor="start" x="2130.25" y="-144.38" font-family="Helvetica,sans-Serif" font-size="10.00">typed_linear_algebra</text>
<text text-anchor="middle" x="2174.5" y="-133.12" font-family="Helvetica,sans-Serif" font-size="10.00">_internal/format.hpp</text>
</a>
</g>
</g>
<!-- Node3&#45;&gt;Node5 -->
<g id="edge4_Node000003_Node000005" class="edge">
<title>Node3&#45;&gt;Node5</title>
<g id="a_edge4_Node000003_Node000005"><a xlink:title=" ">
<path fill="none" stroke="#63b8ff" d="M1159.83,-212.9C1341.57,-209.77 1927.15,-197.23 2112.5,-163.5 2115.89,-162.88 2119.36,-162.13 2122.83,-161.28"/>
<polygon fill="#63b8ff" stroke="#63b8ff" points="2123.66,-164.68 2132.4,-158.7 2121.83,-157.93 2123.66,-164.68"/>
</a>
</g>
</g>
<!-- Node6 -->
<g id="Node000006" class="node">
<title>Node6</title>
<g id="a_Node000006"><a xlink:href="utility_8hpp.xhtml" target="_top" xlink:title=" ">
<polygon fill="white" stroke="#666666" points="865.75,-85.75 809.25,-85.75 809.25,-66.5 865.75,-66.5 865.75,-85.75"/>
<text text-anchor="middle" x="837.5" y="-72.25" font-family="Helvetica,sans-Serif" font-size="10.00">utility.hpp</text>
</a>
</g>
</g>
<!-- Node3&#45;&gt;Node6 -->
<g id="edge15_Node000003_Node000006" class="edge">
<title>Node3&#45;&gt;Node6</title>
<g id="a_edge15_Node000003_Node000006"><a xlink:title=" ">
<path fill="none" stroke="#63b8ff" d="M1050.92,-210.02C984.97,-204.35 879.48,-191.14 852.5,-163.5 835.58,-146.17 833.9,-117.01 835.05,-97.42"/>
<polygon fill="#63b8ff" stroke="#63b8ff" points="838.52,-97.94 835.95,-87.66 831.55,-97.3 838.52,-97.94"/>
</a>
</g>
</g>
<!-- Node7 -->
<g id="Node000007" class="node">
<title>Node7</title>
<g id="a_Node000007"><a xlink:title=" ">
<polygon fill="#e0e0e0" stroke="#999999" points="799.38,-24.88 743.62,-24.88 743.62,-5.63 799.38,-5.63 799.38,-24.88"/>
<text text-anchor="middle" x="771.5" y="-11.38" font-family="Helvetica,sans-Serif" font-size="10.00">concepts</text>
</a>
</g>
</g>
<!-- Node3&#45;&gt;Node7 -->
<g id="edge16_Node000003_Node000007" class="edge">
<title>Node3&#45;&gt;Node7</title>
<g id="a_edge16_Node000003_Node000007"><a xlink:title=" ">
<path fill="none" stroke="#63b8ff" d="M1051.03,-209.91C980.98,-203.95 864.43,-190.27 831.5,-163.5 791.79,-131.22 778.13,-68.47 773.61,-36.31"/>
<polygon fill="#63b8ff" stroke="#63b8ff" points="777.13,-36.26 772.44,-26.76 770.19,-37.12 777.13,-36.26"/>
</a>
</g>
</g>
<!-- Node3&#45;&gt;Node8 -->
<g id="edge17_Node000003_Node000008" class="edge">
<title>Node3&#45;&gt;Node8</title>
<g id="a_edge17_Node000003_Node000008"><a xlink:title=" ">
<path fill="none" stroke="#63b8ff" d="M1159.93,-213.08C1382.69,-210.14 2215.13,-196.94 2259.5,-163.5 2295.14,-136.64 2295.71,-109.95 2285.5,-66.5 2282.9,-55.44 2277.48,-44.03 2272.35,-34.89"/>
<polygon fill="#63b8ff" stroke="#63b8ff" points="2275.37,-33.11 2267.23,-26.33 2269.36,-36.7 2275.37,-33.11"/>
</a>
</g>
</g>
<!-- Node3&#45;&gt;Node10 -->
<g id="edge20_Node000003_Node000010" class="edge">
<title>Node3&#45;&gt;Node10</title>
<g id="a_edge20_Node000003_Node000010"><a xlink:title=" ">
<path fill="none" stroke="#63b8ff" d="M1050.97,-212.56C862.87,-208.2 250.98,-191.88 220.5,-163.5 185.52,-130.94 191.24,-68.32 197.06,-36.25"/>
<polygon fill="#63b8ff" stroke="#63b8ff" points="200.43,-37.21 198.98,-26.72 193.57,-35.82 200.43,-37.21"/>
</a>
</g>
</g>
<!-- Node3&#45;&gt;Node12 -->
<g id="edge18_Node000003_Node000012" class="edge">
<title>Node3&#45;&gt;Node12</title>
<g id="a_edge18_Node000003_Node000012"><a xlink:title=" ">
<path fill="none" stroke="#63b8ff" d="M1160.01,-213.16C1380.17,-210.53 2193.94,-198.46 2235.5,-163.5 2254.38,-147.61 2257.05,-117.63 2256.41,-97.51"/>
<polygon fill="#63b8ff" stroke="#63b8ff" points="2259.92,-97.48 2255.78,-87.73 2252.93,-97.93 2259.92,-97.48"/>
</a>
</g>
</g>
<!-- Node13 -->
<g id="Node000013" class="node">
<title>Node13</title>
<g id="a_Node000013"><a xlink:title=" ">
<polygon fill="#e0e0e0" stroke="#999999" points="966.25,-152.25 894.75,-152.25 894.75,-133 966.25,-133 966.25,-152.25"/>
<text text-anchor="middle" x="930.5" y="-138.75" font-family="Helvetica,sans-Serif" font-size="10.00">initializer_list</text>
</a>
</g>
</g>
<!-- Node3&#45;&gt;Node13 -->
<g id="edge19_Node000003_Node000013" class="edge">
<title>Node3&#45;&gt;Node13</title>
<g id="a_edge19_Node000003_Node000013"><a xlink:title=" ">
<path fill="none" stroke="#63b8ff" d="M1066.06,-199.06C1040.18,-189.28 1005.68,-175.99 975.5,-163.5 970.76,-161.54 965.76,-159.4 960.89,-157.28"/>
<polygon fill="#63b8ff" stroke="#63b8ff" points="962.52,-154.17 951.96,-153.34 959.7,-160.58 962.52,-154.17"/>
</a>
</g>
</g>
<!-- Node14 -->
<g id="Node000014" class="node">
<title>Node14</title>
<g id="a_Node000014"><a xlink:title=" ">
<polygon fill="#e0e0e0" stroke="#999999" points="1022.75,-152.25 984.25,-152.25 984.25,-133 1022.75,-133 1022.75,-152.25"/>
<text text-anchor="middle" x="1003.5" y="-138.75" font-family="Helvetica,sans-Serif" font-size="10.00">utility</text>
</a>
</g>
</g>
<!-- Node3&#45;&gt;Node14 -->
<g id="edge21_Node000003_Node000014" class="edge">
<title>Node3&#45;&gt;Node14</title>
<g id="a_edge21_Node000003_Node000014"><a xlink:title=" ">
<path fill="none" stroke="#63b8ff" d="M1083.72,-199.14C1068.94,-189.17 1048.98,-175.63 1031.5,-163.5 1029.43,-162.06 1027.28,-160.56 1025.14,-159.05"/>
<polygon fill="#63b8ff" stroke="#63b8ff" points="1027.42,-156.38 1017.24,-153.46 1023.38,-162.09 1027.42,-156.38"/>
</a>
</g>
</g>
<!-- Node15 -->
<g id="Node000015" class="node">
<title>Node15</title>
<g id="a_Node000015"><a xlink:title=" ">
<polygon fill="#e0e0e0" stroke="#999999" points="1170.5,-157.88 1040.5,-157.88 1040.5,-127.38 1170.5,-127.38 1170.5,-157.88"/>
<text text-anchor="start" x="1048.5" y="-144.38" font-family="Helvetica,sans-Serif" font-size="10.00">typed_linear_algebra</text>
<text text-anchor="middle" x="1105.5" y="-133.12" font-family="Helvetica,sans-Serif" font-size="10.00">_internal/algorithm/add.tpp</text>
</a>
</g>
</g>
<!-- Node3&#45;&gt;Node15 -->
<g id="edge22_Node000003_Node000015" class="edge">
<title>Node3&#45;&gt;Node15</title>
<g id="a_edge22_Node000003_Node000015"><a xlink:title=" ">
<path fill="none" stroke="#63b8ff" d="M1105.5,-199.22C1105.5,-190.66 1105.5,-179.59 1105.5,-169.58"/>
<polygon fill="#63b8ff" stroke="#63b8ff" points="1109,-169.65 1105.5,-159.65 1102,-169.65 1109,-169.65"/>
</a>
</g>
</g>
<!-- Node16 -->
<g id="Node000016" class="node">
<title>Node16</title>
<g id="a_Node000016"><a xlink:title=" ">
<polygon fill="#e0e0e0" stroke="#999999" points="1328.38,-157.88 1188.62,-157.88 1188.62,-127.38 1328.38,-127.38 1328.38,-157.88"/>
<text text-anchor="start" x="1196.62" y="-144.38" font-family="Helvetica,sans-Serif" font-size="10.00">typed_linear_algebra</text>
<text text-anchor="middle" x="1258.5" y="-133.12" font-family="Helvetica,sans-Serif" font-size="10.00">_internal/algorithm/divide.tpp</text>
</a>
</g>
</g>
<!-- Node3&#45;&gt;Node16 -->
<g id="edge23_Node000003_Node000016" class="edge">
<title>Node3&#45;&gt;Node16</title>
<g id="a_edge23_Node000003_Node000016"><a xlink:title=" ">
<path fill="none" stroke="#63b8ff" d="M1137.57,-199.05C1160.42,-188.58 1191.36,-174.4 1216.23,-163"/>
<polygon fill="#63b8ff" stroke="#63b8ff" points="1217.46,-166.29 1225.09,-158.94 1214.54,-159.92 1217.46,-166.29"/>
</a>
</g>
</g>
<!-- Node17 -->
<g id="Node000017" class="node">
<title>Node17</title>
<g id="a_Node000017"><a xlink:title=" ">
<polygon fill="#e0e0e0" stroke="#999999" points="1468.38,-163.5 1346.62,-163.5 1346.62,-121.75 1468.38,-121.75 1468.38,-163.5"/>
<text text-anchor="start" x="1354.62" y="-150" font-family="Helvetica,sans-Serif" font-size="10.00">typed_linear_algebra</text>
<text text-anchor="start" x="1354.62" y="-138.75" font-family="Helvetica,sans-Serif" font-size="10.00">_internal/algorithm/equal</text>
<text text-anchor="middle" x="1407.5" y="-127.5" font-family="Helvetica,sans-Serif" font-size="10.00">_to.tpp</text>
</a>
</g>
</g>
<!-- Node3&#45;&gt;Node17 -->
<g id="edge24_Node000003_Node000017" class="edge">
<title>Node3&#45;&gt;Node17</title>
<g id="a_edge24_Node000003_Node000017"><a xlink:title=" ">
<path fill="none" stroke="#63b8ff" d="M1160.1,-202.94C1204.77,-193.87 1269.82,-180.14 1335.51,-163.93"/>
<polygon fill="#63b8ff" stroke="#63b8ff" points="1336.15,-167.37 1345.01,-161.56 1334.46,-160.58 1336.15,-167.37"/>
</a>
</g>
</g>
<!-- Node18 -->
<g id="Node000018" class="node">
<title>Node18</title>
<g id="a_Node000018"><a xlink:title=" ">
<polygon fill="#e0e0e0" stroke="#999999" points="1610.88,-163.5 1486.12,-163.5 1486.12,-121.75 1610.88,-121.75 1610.88,-163.5"/>
<text text-anchor="start" x="1494.12" y="-150" font-family="Helvetica,sans-Serif" font-size="10.00">typed_linear_algebra</text>
<text text-anchor="start" x="1494.12" y="-138.75" font-family="Helvetica,sans-Serif" font-size="10.00">_internal/algorithm/matrix</text>
<text text-anchor="middle" x="1548.5" y="-127.5" font-family="Helvetica,sans-Serif" font-size="10.00">_product.tpp</text>
</a>
</g>
</g>
<!-- Node3&#45;&gt;Node18 -->
<g id="edge25_Node000003_Node000018" class="edge">
<title>Node3&#45;&gt;Node18</title>
<g id="a_edge25_Node000003_Node000018"><a xlink:title=" ">
<path fill="none" stroke="#63b8ff" d="M1160.11,-208.77C1230.78,-201.79 1357.82,-187.46 1474.96,-163.89"/>
<polygon fill="#63b8ff" stroke="#63b8ff" points="1475.32,-167.39 1484.41,-161.96 1473.91,-160.53 1475.32,-167.39"/>
</a>
</g>
</g>
<!-- Node19 -->
<g id="Node000019" class="node">
<title>Node19</title>
<g id="a_Node000019"><a xlink:title=" ">
<polygon fill="#e0e0e0" stroke="#999999" points="1775.75,-157.88 1629.25,-157.88 1629.25,-127.38 1775.75,-127.38 1775.75,-157.88"/>
<text text-anchor="start" x="1637.25" y="-144.38" font-family="Helvetica,sans-Serif" font-size="10.00">typed_linear_algebra</text>
<text text-anchor="middle" x="1702.5" y="-133.12" font-family="Helvetica,sans-Serif" font-size="10.00">_internal/algorithm/product.tpp</text>
</a>
</g>
</g>
<!-- Node3&#45;&gt;Node19 -->
<g id="edge26_Node000003_Node000019" class="edge">
<title>Node3&#45;&gt;Node19</title>
<g id="a_edge26_Node000003_Node000019"><a xlink:title=" ">
<path fill="none" stroke="#63b8ff" d="M1159.84,-210.9C1253.98,-205.42 1453.26,-191.39 1619.5,-163.5 1624.4,-162.68 1629.44,-161.73 1634.5,-160.7"/>
<polygon fill="#63b8ff" stroke="#63b8ff" points="1635.03,-164.17 1644.08,-158.66 1633.57,-157.32 1635.03,-164.17"/>
</a>
</g>
</g>
<!-- Node20 -->
<g id="Node000020" class="node">
<title>Node20</title>
<g id="a_Node000020"><a xlink:title=" ">
<polygon fill="#e0e0e0" stroke="#999999" points="1931.25,-157.88 1793.75,-157.88 1793.75,-127.38 1931.25,-127.38 1931.25,-157.88"/>
<text text-anchor="start" x="1801.75" y="-144.38" font-family="Helvetica,sans-Serif" font-size="10.00">typed_linear_algebra</text>
<text text-anchor="middle" x="1862.5" y="-133.12" font-family="Helvetica,sans-Serif" font-size="10.00">_internal/algorithm/scale.tpp</text>
</a>
</g>
</g>
<!-- Node3&#45;&gt;Node20 -->
<g id="edge27_Node000003_Node000020" class="edge">
<title>Node3&#45;&gt;Node20</title>
<g id="a_edge27_Node000003_Node000020"><a xlink:title=" ">
<path fill="none" stroke="#63b8ff" d="M1160.01,-212.96C1275.77,-210.56 1554.38,-201.03 1784.5,-163.5 1789.15,-162.74 1793.94,-161.84 1798.73,-160.84"/>
<polygon fill="#63b8ff" stroke="#63b8ff" points="1799.42,-164.27 1808.42,-158.69 1797.9,-157.44 1799.42,-164.27"/>
</a>
</g>
</g>
<!-- Node21 -->
<g id="Node000021" class="node">
<title>Node21</title>
<g id="a_Node000021"><a xlink:title=" ">
<polygon fill="#e0e0e0" stroke="#999999" points="2103.88,-157.88 1949.12,-157.88 1949.12,-127.38 2103.88,-127.38 2103.88,-157.88"/>
<text text-anchor="start" x="1957.12" y="-144.38" font-family="Helvetica,sans-Serif" font-size="10.00">typed_linear_algebra</text>
<text text-anchor="middle" x="2026.5" y="-133.12" font-family="Helvetica,sans-Serif" font-size="10.00">_internal/algorithm/substract.tpp</text>
</a>
</g>
</g>
<!-- Node3&#45;&gt;Node21 -->
<g id="edge28_Node000003_Node000021" class="edge">
<title>Node3&#45;&gt;Node21</title>
<g id="a_edge28_Node000003_Node000021"><a xlink:title=" ">
<path fill="none" stroke="#63b8ff" d="M1160.04,-213.61C1293.77,-212.58 1648.36,-205.75 1940.5,-163.5 1946.14,-162.68 1951.95,-161.69 1957.77,-160.58"/>
<polygon fill="#63b8ff" stroke="#63b8ff" points="1958.33,-164.03 1967.44,-158.62 1956.95,-157.17 1958.33,-164.03"/>
</a>
</g>
</g>
<!-- Node22 -->
<g id="Node000022" class="node">
<title>Node22</title>
<g id="a_Node000022"><a xlink:title=" ">
<polygon fill="#e0e0e0" stroke="#999999" points="391.62,-157.88 229.38,-157.88 229.38,-127.38 391.62,-127.38 391.62,-157.88"/>
<text text-anchor="start" x="237.38" y="-144.38" font-family="Helvetica,sans-Serif" font-size="10.00">typed_linear_algebra</text>
<text text-anchor="middle" x="310.5" y="-133.12" font-family="Helvetica,sans-Serif" font-size="10.00">_internal/algorithm/transposed.tpp</text>
</a>
</g>
</g>
<!-- Node3&#45;&gt;Node22 -->
<g id="edge29_Node000003_Node000022" class="edge">
<title>Node3&#45;&gt;Node22</title>
<g id="a_edge29_Node000003_Node000022"><a xlink:title=" ">
<path fill="none" stroke="#63b8ff" d="M1051.26,-212.58C932.65,-209.44 641.54,-198.51 400.5,-163.5 394.56,-162.64 388.43,-161.6 382.29,-160.46"/>
<polygon fill="#63b8ff" stroke="#63b8ff" points="383.25,-157.08 372.76,-158.6 381.91,-163.95 383.25,-157.08"/>
</a>
</g>
</g>
<!-- Node23 -->
<g id="Node000023" class="node">
<title>Node23</title>
<g id="a_Node000023"><a xlink:title=" ">
<polygon fill="#e0e0e0" stroke="#999999" points="513.75,-157.88 409.25,-157.88 409.25,-127.38 513.75,-127.38 513.75,-157.88"/>
<text text-anchor="start" x="417.25" y="-144.38" font-family="Helvetica,sans-Serif" font-size="10.00">typed_linear_algebra</text>
<text text-anchor="middle" x="461.5" y="-133.12" font-family="Helvetica,sans-Serif" font-size="10.00">_internal/cast.tpp</text>
</a>
</g>
</g>
<!-- Node3&#45;&gt;Node23 -->
<g id="edge30_Node000003_Node000023" class="edge">
<title>Node3&#45;&gt;Node23</title>
<g id="a_edge30_Node000003_Node000023"><a xlink:title=" ">
<path fill="none" stroke="#63b8ff" d="M1051.17,-213.1C947.54,-210.98 714.91,-201.94 523.5,-163.5 520.33,-162.86 517.1,-162.12 513.85,-161.31"/>
<polygon fill="#63b8ff" stroke="#63b8ff" points="514.88,-157.96 504.31,-158.69 513.03,-164.71 514.88,-157.96"/>
</a>
</g>
</g>
<!-- Node24 -->
<g id="Node000024" class="node">
<title>Node24</title>
<g id="a_Node000024"><a xlink:title=" ">
<polygon fill="#e0e0e0" stroke="#999999" points="636.75,-157.88 532.25,-157.88 532.25,-127.38 636.75,-127.38 636.75,-157.88"/>
<text text-anchor="start" x="540.25" y="-144.38" font-family="Helvetica,sans-Serif" font-size="10.00">typed_linear_algebra</text>
<text text-anchor="middle" x="584.5" y="-133.12" font-family="Helvetica,sans-Serif" font-size="10.00">_internal/tuple.tpp</text>
</a>
</g>
</g>
<!-- Node3&#45;&gt;Node24 -->
<g id="edge31_Node000003_Node000024" class="edge">
<title>Node3&#45;&gt;Node24</title>
<g id="a_edge31_Node000003_Node000024"><a xlink:title=" ">
<path fill="none" stroke="#63b8ff" d="M1051.1,-211.44C964.43,-206.95 790.01,-194.59 645.5,-163.5 642.69,-162.9 639.83,-162.21 636.95,-161.47"/>
<polygon fill="#63b8ff" stroke="#63b8ff" points="637.89,-158.1 627.32,-158.77 636,-164.84 637.89,-158.1"/>
</a>
</g>
</g>
<!-- Node25 -->
<g id="Node000025" class="node">
<title>Node25</title>
<g id="a_Node000025"><a xlink:title=" ">
<polygon fill="#e0e0e0" stroke="#999999" points="762.25,-163.5 654.75,-163.5 654.75,-121.75 762.25,-121.75 762.25,-163.5"/>
<text text-anchor="start" x="662.75" y="-150" font-family="Helvetica,sans-Serif" font-size="10.00">typed_linear_algebra</text>
<text text-anchor="start" x="662.75" y="-138.75" font-family="Helvetica,sans-Serif" font-size="10.00">_internal/typed_linear</text>
<text text-anchor="middle" x="708.5" y="-127.5" font-family="Helvetica,sans-Serif" font-size="10.00">_algebra.tpp</text>
</a>
</g>
</g>
<!-- Node3&#45;&gt;Node25 -->
<g id="edge32_Node000003_Node000025" class="edge">
<title>Node3&#45;&gt;Node25</title>
<g id="a_edge32_Node000003_Node000025"><a xlink:title=" ">
<path fill="none" stroke="#63b8ff" d="M1050.95,-207.67C985.35,-199.84 872.12,-184.68 776.5,-163.5 775.5,-163.28 774.5,-163.05 773.49,-162.82"/>
<polygon fill="#63b8ff" stroke="#63b8ff" points="774.54,-159.47 763.99,-160.48 772.87,-166.27 774.54,-159.47"/>
</a>
</g>
</g>
<!-- Node5&#45;&gt;Node4 -->
<g id="edge5_Node000005_Node000004" class="edge">
<title>Node5&#45;&gt;Node4</title>
<g id="a_edge5_Node000005_Node000004"><a xlink:title=" ">
<path fill="none" stroke="#63b8ff" d="M2132.81,-126.89C2126.08,-124.91 2119.15,-123.1 2112.5,-121.75 1697.91,-37.63 1186.82,-20.56 1009.58,-17.11"/>
<polygon fill="#63b8ff" stroke="#63b8ff" points="1009.72,-13.62 999.66,-16.93 1009.59,-20.62 1009.72,-13.62"/>
</a>
</g>
</g>
<!-- Node5&#45;&gt;Node6 -->
<g id="edge6_Node000005_Node000006" class="edge">
<title>Node5&#45;&gt;Node6</title>
<g id="a_edge6_Node000005_Node000006"><a xlink:title=" ">
<path fill="none" stroke="#63b8ff" d="M2134.21,-126.95C2127.07,-124.86 2119.63,-122.99 2112.5,-121.75 1988.48,-100.13 1079.18,-81.72 877.18,-77.86"/>
<polygon fill="#63b8ff" stroke="#63b8ff" points="877.54,-74.37 867.48,-77.68 877.41,-81.37 877.54,-74.37"/>
</a>
</g>
</g>
<!-- Node5&#45;&gt;Node8 -->
<g id="edge13_Node000005_Node000008" class="edge">
<title>Node5&#45;&gt;Node8</title>
<g id="a_edge13_Node000005_Node000008"><a xlink:title=" ">
<path fill="none" stroke="#63b8ff" d="M2183.65,-127.06C2193.32,-111.81 2209.13,-87.23 2223.5,-66.5 2231.03,-55.65 2239.77,-43.74 2246.87,-34.23"/>
<polygon fill="#63b8ff" stroke="#63b8ff" points="2249.67,-36.34 2252.89,-26.24 2244.08,-32.13 2249.67,-36.34"/>
</a>
</g>
</g>
<!-- Node5&#45;&gt;Node12 -->
<g id="edge14_Node000005_Node000012" class="edge">
<title>Node5&#45;&gt;Node12</title>
<g id="a_edge14_Node000005_Node000012"><a xlink:title=" ">
<path fill="none" stroke="#63b8ff" d="M2192.65,-126.99C2205.27,-116.82 2222.06,-103.28 2234.96,-92.88"/>
<polygon fill="#63b8ff" stroke="#63b8ff" points="2236.79,-95.9 2242.38,-86.9 2232.4,-90.45 2236.79,-95.9"/>
</a>
</g>
</g>
<!-- Node6&#45;&gt;Node4 -->
<g id="edge7_Node000006_Node000004" class="edge">
<title>Node6&#45;&gt;Node4</title>
<g id="a_edge7_Node000006_Node000004"><a xlink:title=" ">
<path fill="none" stroke="#63b8ff" d="M853.9,-66.18C868.44,-58.26 890.2,-46.4 908.86,-36.22"/>
<polygon fill="#63b8ff" stroke="#63b8ff" points="910.41,-39.37 917.51,-31.51 907.06,-33.22 910.41,-39.37"/>
</a>
</g>
</g>
<!-- Node6&#45;&gt;Node7 -->
<g id="edge8_Node000006_Node000007" class="edge">
<title>Node6&#45;&gt;Node7</title>
<g id="a_edge8_Node000006_Node000007"><a xlink:title=" ">
<path fill="none" stroke="#63b8ff" d="M827.48,-66.18C817.59,-57.37 802.24,-43.68 790.12,-32.86"/>
<polygon fill="#63b8ff" stroke="#63b8ff" points="792.54,-30.33 782.75,-26.28 787.88,-35.55 792.54,-30.33"/>
</a>
</g>
</g>
<!-- Node6&#45;&gt;Node8 -->
<g id="edge9_Node000006_Node000008" class="edge">
<title>Node6&#45;&gt;Node8</title>
<g id="a_edge9_Node000006_Node000008"><a xlink:title=" ">
<path fill="none" stroke="#63b8ff" d="M866.25,-73.94C1046.94,-66.46 2024.7,-26.01 2224.74,-17.73"/>
<polygon fill="#63b8ff" stroke="#63b8ff" points="2224.65,-21.24 2234.5,-17.33 2224.36,-14.24 2224.65,-21.24"/>
</a>
</g>
</g>
<!-- Node9 -->
<g id="Node000009" class="node">
<title>Node9</title>
<g id="a_Node000009"><a xlink:title=" ">
<polygon fill="#e0e0e0" stroke="#999999" points="875.5,-24.88 817.5,-24.88 817.5,-5.63 875.5,-5.63 875.5,-24.88"/>
<text text-anchor="middle" x="846.5" y="-11.38" font-family="Helvetica,sans-Serif" font-size="10.00">functional</text>
</a>
</g>
</g>
<!-- Node6&#45;&gt;Node9 -->
<g id="edge10_Node000006_Node000009" class="edge">
<title>Node6&#45;&gt;Node9</title>
<g id="a_edge10_Node000006_Node000009"><a xlink:title=" ">
<path fill="none" stroke="#63b8ff" d="M838.87,-66.18C840.07,-58.32 841.86,-46.57 843.41,-36.45"/>
<polygon fill="#63b8ff" stroke="#63b8ff" points="846.84,-37.19 844.89,-26.77 839.92,-36.13 846.84,-37.19"/>
</a>
</g>
</g>
<!-- Node6&#45;&gt;Node10 -->
<g id="edge11_Node000006_Node000010" class="edge">
<title>Node6&#45;&gt;Node10</title>
<g id="a_edge11_Node000006_Node000010"><a xlink:title=" ">
<path fill="none" stroke="#63b8ff" d="M808.94,-72.48C703.86,-62.75 339.27,-29 231.64,-19.04"/>
<polygon fill="#63b8ff" stroke="#63b8ff" points="232.16,-15.57 221.88,-18.14 231.51,-22.54 232.16,-15.57"/>
</a>
</g>
</g>
<!-- Node6&#45;&gt;Node11 -->
<g id="edge12_Node000006_Node000011" class="edge">
<title>Node6&#45;&gt;Node11</title>
<g id="a_edge12_Node000006_Node000011"><a xlink:title=" ">
<path fill="none" stroke="#63b8ff" d="M808.89,-70.26C747.93,-59.88 604.97,-35.56 533.59,-23.41"/>
<polygon fill="#63b8ff" stroke="#63b8ff" points="534.3,-19.98 523.86,-21.76 533.13,-26.88 534.3,-19.98"/>
</a>
</g>
</g>
</g>
</svg>

<g id="navigator" transform="translate(0 0)" fill="#404254">
  <rect fill="#f2f5e9" fill-opacity="0.5" stroke="#606060" stroke-width=".5" x="0" y="0" width="60" height="60"/>
  <use id="zoomplus" xlink:href="#zoomPlus" x="17" y="9" onmousedown="handleZoom(evt,'in')"/>
  <use id="zoomminus" xlink:href="#zoomMin" x="42" y="9" onmousedown="handleZoom(evt,'out')"/>
  <use id="reset" xlink:href="#resetDef" x="30" y="36" onmousedown="handleReset()"/>
   <use id="arrowup" xlink:href="#arrowUp" x="0" y="0" onmousedown="handlePan(0,-1)"/>
  <use id="arrowright" xlink:href="#arrowRight" x="0" y="0" onmousedown="handlePan(1,0)"/>
  <use id="arrowdown" xlink:href="#arrowDown" x="0" y="0" onmousedown="handlePan(0,1)"/>
  <use id="arrowleft" xlink:href="#arrowLeft" x="0" y="0" onmousedown="handlePan(-1,0)"/>
</g>
<svg viewBox="0 0 15 15" width="100%" height="30px" preserveAspectRatio="xMaxYMin meet">
 <g id="arrow_out" transform="scale(0.3 0.3)">
  <a xlink:href="mp__units__std_8cpp__incl_org.svg" target="_base">
   <rect id="button" ry="5" rx="5" y="6" x="6" height="38" width="38"
        fill="#f2f5e9" fill-opacity="0.5" stroke="#606060" stroke-width="1.0"/>
   <path id="arrow"
     d="M 11.500037,31.436501 C 11.940474,20.09759 22.043105,11.32322 32.158766,21.979434 L 37.068811,17.246167 C 37.068811,17.246167 37.088388,32 37.088388,32 L 22.160133,31.978069 C 22.160133,31.978069 26.997745,27.140456 26.997745,27.140456 C 18.528582,18.264221 13.291696,25.230495 11.500037,31.436501 z"
     style="fill:#404040;"/>
  </a>
 </g>
</svg>

<style type='text/css'>
<![CDATA[
[data-mouse-over-selected='false'] { opacity: 0.7; }
[data-mouse-over-selected='true']  { opacity: 1.0; }
]]>
</style>
<script type="application/ecmascript"><![CDATA[
document.addEventListener('DOMContentLoaded', (event) => {
  highlightEdges();
  highlightAdjacentNodes();
});
]]></script>
</svg>
