<?xml version="1.0" encoding="UTF-8" standalone="no"?>
<!DOCTYPE svg PUBLIC "-//W3C//DTD SVG 1.1//EN"
 "http://www.w3.org/Graphics/SVG/1.1/DTD/svg11.dtd">
<!-- Generated by graphviz version 12.2.0 (20241103.1931)
 -->
<!-- Title: /github/workspace/sample/mp_units_std.cpp Pages: 1 -->
<!--zoomable 305 -->

<svg id="main" version="1.1" xmlns="http://www.w3.org/2000/svg" xmlns:xlink="http://www.w3.org/1999/xlink" xml:space="preserve" onload="init(evt)">

<style type="text/css"><![CDATA[
.node, .edge {opacity: 0.7;}
.node.selected, .edge.selected {opacity: 1;}
.edge:hover path { stroke: red; }
.edge:hover polygon { stroke: red; fill: red; }
]]></style>

<defs>
  <circle id="rim" cx="0" cy="0" r="7"/>
  <circle id="rim2" cx="0" cy="0" r="3.5"/>
  <g id="zoomPlus">
    <use xlink:href="#rim" fill="#404040"><set attributeName="fill" to="#808080" begin="zoomplus.mouseover" end="zoomplus.mouseout"/></use>
    <path d="M-4,0h8M0,-4v8" fill="none" stroke="white" stroke-width="1.5" pointer-events="none"/>
  </g>
  <g id="zoomMin">
    <use xlink:href="#rim" fill="#404040"><set attributeName="fill" to="#808080" begin="zoomminus.mouseover" end="zoomminus.mouseout"/></use>
    <path d="M-4,0h8" fill="none" stroke="white" stroke-width="1.5" pointer-events="none"/>
  </g>
  <g id="arrowUp" transform="translate(30 24)">
    <use xlink:href="#rim"/>
    <path pointer-events="none" fill="none" stroke="white" stroke-width="1.5" d="M0,-3.0v7 M-2.5,-0.5L0,-3.0L2.5,-0.5"/>
  </g>
  <g id="arrowRight" transform="rotate(90) translate(36 -43)">
    <use xlink:href="#rim"/>
    <path pointer-events="none" fill="none" stroke="white" stroke-width="1.5" d="M0,-3.0v7 M-2.5,-0.5L0,-3.0L2.5,-0.5"/>
  </g>
  <g id="arrowDown" transform="rotate(180) translate(-30 -48)">
    <use xlink:href="#rim"/>
    <path pointer-events="none" fill="none" stroke="white" stroke-width="1.5" d="M0,-3.0v7 M-2.5,-0.5L0,-3.0L2.5,-0.5"/>
  </g>
  <g id="arrowLeft" transform="rotate(270) translate(-36 17)">
    <use xlink:href="#rim"/>
    <path pointer-events="none" fill="none" stroke="white" stroke-width="1.5" d="M0,-3.0v7 M-2.5,-0.5L0,-3.0L2.5,-0.5"/>
  </g>
  <g id="resetDef">
    <use xlink:href="#rim2" fill="#404040"><set attributeName="fill" to="#808080" begin="reset.mouseover" end="reset.mouseout"/></use>
  </g>
</defs>
<script type="application/ecmascript">
var viewWidth = 2625;
var viewHeight = 305;
var sectionId = 'dynsection-0';
</script>
<script type="application/ecmascript" xlink:href="svg.min.js"/>
<svg id="graph" class="graph">
<g id="viewport">
<title>/github/workspace/sample/mp_units_std.cpp</title>
<!-- Node1 -->
<g id="Node000001" class="node">
<title>Node1</title>
<g id="a_Node000001"><a xlink:title="Unit safe linear algebra with mp&#45;units and Eigen.">
<polygon fill="#999999" stroke="#666666" points="2413.5,-296.5 2283.5,-296.5 2283.5,-266 2413.5,-266 2413.5,-296.5"/>
<text text-anchor="start" x="2291.5" y="-283" font-family="Helvetica,sans-Serif" font-size="10.00">/github/workspace/sample</text>
<text text-anchor="middle" x="2348.5" y="-271.75" font-family="Helvetica,sans-Serif" font-size="10.00">/mp_units_std.cpp</text>
</a>
</g>
</g>
<!-- Node2 -->
<g id="Node000002" class="node">
<title>Node2</title>
<g id="a_Node000002"><a xlink:title=" ">
<polygon fill="#e0e0e0" stroke="#999999" points="97,-224.38 0,-224.38 0,-205.12 97,-205.12 97,-224.38"/>
<text text-anchor="middle" x="48.5" y="-210.88" font-family="Helvetica,sans-Serif" font-size="10.00">fcarouge/linalg.hpp</text>
</a>
</g>
</g>
<!-- Node1&#45;&gt;Node2 -->
<g id="edge1_Node000001_Node000002" class="edge">
<title>Node1&#45;&gt;Node2</title>
<g id="a_edge1_Node000001_Node000002"><a xlink:title=" ">
<path fill="none" stroke="#63b8ff" d="M2283.09,-280.54C1961.72,-281.72 547.9,-283.71 111.5,-230 105.8,-229.3 99.87,-228.31 94.01,-227.17"/>
<polygon fill="#63b8ff" stroke="#63b8ff" points="94.93,-223.79 84.42,-225.16 93.49,-230.64 94.93,-223.79"/>
</a>
</g>
</g>
<!-- Node3 -->
<g id="Node000003" class="node">
<title>Node3</title>
<g id="a_Node000003"><a xlink:href="typed__linear__algebra_8hpp.xhtml" target="_top" xlink:title="Typed linear algebra implementation.">
<polygon fill="white" stroke="#666666" points="1173.62,-230 1065.38,-230 1065.38,-199.5 1173.62,-199.5 1173.62,-230"/>
<text text-anchor="start" x="1073.38" y="-216.5" font-family="Helvetica,sans-Serif" font-size="10.00">fcarouge/typed_linear</text>
<text text-anchor="middle" x="1119.5" y="-205.25" font-family="Helvetica,sans-Serif" font-size="10.00">_algebra.hpp</text>
</a>
</g>
</g>
<!-- Node1&#45;&gt;Node3 -->
<g id="edge2_Node000001_Node000003" class="edge">
<title>Node1&#45;&gt;Node3</title>
<g id="a_edge2_Node000001_Node000003"><a xlink:title=" ">
<path fill="none" stroke="#63b8ff" d="M2283.29,-276.83C2070.59,-265.66 1398.43,-230.39 1185.13,-219.19"/>
<polygon fill="#63b8ff" stroke="#63b8ff" points="1185.51,-215.71 1175.34,-218.68 1185.14,-222.7 1185.51,-215.71"/>
</a>
</g>
</g>
<!-- Node8 -->
<g id="Node000008" class="node">
<title>Node8</title>
<g id="a_Node000008"><a xlink:title=" ">
<polygon fill="#e0e0e0" stroke="#999999" points="345.62,-24.88 297.38,-24.88 297.38,-5.63 345.62,-5.63 345.62,-24.88"/>
<text text-anchor="middle" x="321.5" y="-11.38" font-family="Helvetica,sans-Serif" font-size="10.00">cstddef</text>
</a>
</g>
</g>
<!-- Node1&#45;&gt;Node8 -->
<g id="edge32_Node000001_Node000008" class="edge">
<title>Node1&#45;&gt;Node8</title>
<g id="a_edge32_Node000001_Node000008"><a xlink:title=" ">
<path fill="none" stroke="#63b8ff" d="M2283.1,-279.87C1961.37,-277.82 554.3,-266.81 362.5,-230 278.74,-213.93 236.46,-229.55 182.5,-163.5 155.02,-129.86 145.09,-101.73 170.5,-66.5 196.56,-30.36 249.71,-19.81 285.48,-16.95"/>
<polygon fill="#63b8ff" stroke="#63b8ff" points="285.6,-20.45 295.37,-16.35 285.17,-13.47 285.6,-20.45"/>
</a>
</g>
</g>
<!-- Node10 -->
<g id="Node000010" class="node">
<title>Node10</title>
<g id="a_Node000010"><a xlink:title=" ">
<polygon fill="#e0e0e0" stroke="#999999" points="2310,-24.88 2273,-24.88 2273,-5.63 2310,-5.63 2310,-24.88"/>
<text text-anchor="middle" x="2291.5" y="-11.38" font-family="Helvetica,sans-Serif" font-size="10.00">tuple</text>
</a>
</g>
</g>
<!-- Node1&#45;&gt;Node10 -->
<g id="edge37_Node000001_Node000010" class="edge">
<title>Node1&#45;&gt;Node10</title>
<g id="a_edge37_Node000001_Node000010"><a xlink:title=" ">
<path fill="none" stroke="#63b8ff" d="M2351.78,-265.7C2359.09,-229.95 2373.81,-135.69 2343.5,-66.5 2337.42,-52.63 2325.52,-40.67 2314.64,-31.9"/>
<polygon fill="#63b8ff" stroke="#63b8ff" points="2316.82,-29.16 2306.72,-25.96 2312.62,-34.76 2316.82,-29.16"/>
</a>
</g>
</g>
<!-- Node11 -->
<g id="Node000011" class="node">
<title>Node11</title>
<g id="a_Node000011"><a xlink:title=" ">
<polygon fill="#e0e0e0" stroke="#999999" points="1704,-24.88 1643,-24.88 1643,-5.63 1704,-5.63 1704,-24.88"/>
<text text-anchor="middle" x="1673.5" y="-11.38" font-family="Helvetica,sans-Serif" font-size="10.00">type_traits</text>
</a>
</g>
</g>
<!-- Node1&#45;&gt;Node11 -->
<g id="edge38_Node000001_Node000011" class="edge">
<title>Node1&#45;&gt;Node11</title>
<g id="a_edge38_Node000001_Node000011"><a xlink:title=" ">
<path fill="none" stroke="#63b8ff" d="M2346.07,-265.63C2339.97,-233.87 2320.88,-158.45 2272.5,-121.75 2184.06,-54.66 1836.86,-26.61 1715.58,-18.73"/>
<polygon fill="#63b8ff" stroke="#63b8ff" points="1715.95,-15.24 1705.75,-18.1 1715.51,-22.23 1715.95,-15.24"/>
</a>
</g>
</g>
<!-- Node12 -->
<g id="Node000012" class="node">
<title>Node12</title>
<g id="a_Node000012"><a xlink:title=" ">
<polygon fill="#e0e0e0" stroke="#999999" points="223.38,-85.75 179.62,-85.75 179.62,-66.5 223.38,-66.5 223.38,-85.75"/>
<text text-anchor="middle" x="201.5" y="-72.25" font-family="Helvetica,sans-Serif" font-size="10.00">format</text>
</a>
</g>
</g>
<!-- Node1&#45;&gt;Node12 -->
<g id="edge33_Node000001_Node000012" class="edge">
<title>Node1&#45;&gt;Node12</title>
<g id="a_edge33_Node000001_Node000012"><a xlink:title=" ">
<path fill="none" stroke="#63b8ff" d="M2283.01,-279.23C1930.21,-273.43 269.18,-242.01 196.5,-163.5 180.11,-145.79 186.26,-116.29 193.11,-96.77"/>
<polygon fill="#63b8ff" stroke="#63b8ff" points="196.35,-98.11 196.73,-87.52 189.83,-95.56 196.35,-98.11"/>
</a>
</g>
</g>
<!-- Node26 -->
<g id="Node000026" class="node">
<title>Node26</title>
<g id="a_Node000026"><a xlink:title=" ">
<polygon fill="#e0e0e0" stroke="#999999" points="2433.75,-224.38 2395.25,-224.38 2395.25,-205.12 2433.75,-205.12 2433.75,-224.38"/>
<text text-anchor="middle" x="2414.5" y="-210.88" font-family="Helvetica,sans-Serif" font-size="10.00">linalg</text>
</a>
</g>
</g>
<!-- Node1&#45;&gt;Node26 -->
<g id="edge34_Node000001_Node000026" class="edge">
<title>Node1&#45;&gt;Node26</title>
<g id="a_edge34_Node000001_Node000026"><a xlink:title=" ">
<path fill="none" stroke="#63b8ff" d="M2363.48,-265.61C2373.58,-255.74 2386.93,-242.69 2397.44,-232.42"/>
<polygon fill="#63b8ff" stroke="#63b8ff" points="2399.68,-235.12 2404.39,-225.63 2394.79,-230.12 2399.68,-235.12"/>
</a>
</g>
</g>
<!-- Node27 -->
<g id="Node000027" class="node">
<title>Node27</title>
<g id="a_Node000027"><a xlink:title=" ">
<polygon fill="#e0e0e0" stroke="#999999" points="2502.75,-224.38 2452.25,-224.38 2452.25,-205.12 2502.75,-205.12 2502.75,-224.38"/>
<text text-anchor="middle" x="2477.5" y="-210.88" font-family="Helvetica,sans-Serif" font-size="10.00">mdspan</text>
</a>
</g>
</g>
<!-- Node1&#45;&gt;Node27 -->
<g id="edge35_Node000001_Node000027" class="edge">
<title>Node1&#45;&gt;Node27</title>
<g id="a_edge35_Node000001_Node000027"><a xlink:title=" ">
<path fill="none" stroke="#63b8ff" d="M2377.77,-265.61C2399.17,-254.92 2428.03,-240.49 2449.19,-229.9"/>
<polygon fill="#63b8ff" stroke="#63b8ff" points="2450.75,-233.04 2458.13,-225.44 2447.62,-226.78 2450.75,-233.04"/>
</a>
</g>
</g>
<!-- Node28 -->
<g id="Node000028" class="node">
<title>Node28</title>
<g id="a_Node000028"><a xlink:title=" ">
<polygon fill="#e0e0e0" stroke="#999999" points="2555.88,-224.38 2521.12,-224.38 2521.12,-205.12 2555.88,-205.12 2555.88,-224.38"/>
<text text-anchor="middle" x="2538.5" y="-210.88" font-family="Helvetica,sans-Serif" font-size="10.00">print</text>
</a>
</g>
</g>
<!-- Node1&#45;&gt;Node28 -->
<g id="edge36_Node000001_Node000028" class="edge">
<title>Node1&#45;&gt;Node28</title>
<g id="a_edge36_Node000001_Node000028"><a xlink:title=" ">
<path fill="none" stroke="#63b8ff" d="M2405.24,-265.57C2437,-256.66 2477.02,-244.27 2511.5,-230 2511.73,-229.91 2511.95,-229.81 2512.18,-229.72"/>
<polygon fill="#63b8ff" stroke="#63b8ff" points="2513.56,-232.94 2521.09,-225.49 2510.56,-226.61 2513.56,-232.94"/>
</a>
</g>
</g>
<!-- Node29 -->
<g id="Node000029" class="node">
<title>Node29</title>
<g id="a_Node000029"><a xlink:title=" ">
<polygon fill="#e0e0e0" stroke="#999999" points="2617,-224.38 2574,-224.38 2574,-205.12 2617,-205.12 2617,-224.38"/>
<text text-anchor="middle" x="2595.5" y="-210.88" font-family="Helvetica,sans-Serif" font-size="10.00">vector</text>
</a>
</g>
</g>
<!-- Node1&#45;&gt;Node29 -->
<g id="edge39_Node000001_Node000029" class="edge">
<title>Node1&#45;&gt;Node29</title>
<g id="a_edge39_Node000001_Node000029"><a xlink:title=" ">
<path fill="none" stroke="#63b8ff" d="M2413.73,-268.65C2457.09,-260.08 2514.96,-246.95 2564.5,-230 2565.3,-229.73 2566.1,-229.44 2566.91,-229.14"/>
<polygon fill="#63b8ff" stroke="#63b8ff" points="2568.08,-232.44 2575.99,-225.39 2565.41,-225.97 2568.08,-232.44"/>
</a>
</g>
</g>
<!-- Node4 -->
<g id="Node000004" class="node">
<title>Node4</title>
<g id="a_Node000004"><a xlink:href="typed__linear__algebra__forward_8hpp.xhtml" target="_top" xlink:title="Authoritative forward declaration header.">
<polygon fill="white" stroke="#666666" points="1072.75,-30.5 968.25,-30.5 968.25,0 1072.75,0 1072.75,-30.5"/>
<text text-anchor="start" x="976.25" y="-17" font-family="Helvetica,sans-Serif" font-size="10.00">typed_linear_algebra</text>
<text text-anchor="middle" x="1020.5" y="-5.75" font-family="Helvetica,sans-Serif" font-size="10.00">_forward.hpp</text>
</a>
</g>
</g>
<!-- Node3&#45;&gt;Node4 -->
<g id="edge3_Node000003_Node000004" class="edge">
<title>Node3&#45;&gt;Node4</title>
<g id="a_edge3_Node000003_Node000004"><a xlink:title=" ">
<path fill="none" stroke="#63b8ff" d="M1152.76,-199.06C1167.12,-190.83 1182.45,-179.06 1190.5,-163.5 1199.03,-147.02 1199.52,-137.97 1190.5,-121.75 1166.68,-78.93 1117.49,-51.27 1078.13,-35.06"/>
<polygon fill="#63b8ff" stroke="#63b8ff" points="1079.57,-31.86 1068.98,-31.44 1076.99,-38.37 1079.57,-31.86"/>
</a>
</g>
</g>
<!-- Node5 -->
<g id="Node000005" class="node">
<title>Node5</title>
<g id="a_Node000005"><a xlink:href="format_8hpp.xhtml" target="_top" xlink:title="Formatting support for the typed matrix.">
<polygon fill="white" stroke="#666666" points="333.75,-157.88 229.25,-157.88 229.25,-127.38 333.75,-127.38 333.75,-157.88"/>
<text text-anchor="start" x="237.25" y="-144.38" font-family="Helvetica,sans-Serif" font-size="10.00">typed_linear_algebra</text>
<text text-anchor="middle" x="281.5" y="-133.12" font-family="Helvetica,sans-Serif" font-size="10.00">_internal/format.hpp</text>
</a>
</g>
</g>
<!-- Node3&#45;&gt;Node5 -->
<g id="edge4_Node000003_Node000005" class="edge">
<title>Node3&#45;&gt;Node5</title>
<g id="a_edge4_Node000003_Node000005"><a xlink:title=" ">
<path fill="none" stroke="#63b8ff" d="M1065.17,-214.43C938.37,-215.11 613.49,-211.56 347.5,-163.5 343.74,-162.82 339.88,-162 336.02,-161.08"/>
<polygon fill="#63b8ff" stroke="#63b8ff" points="337.21,-157.78 326.65,-158.67 335.46,-164.55 337.21,-157.78"/>
</a>
</g>
</g>
<!-- Node6 -->
<g id="Node000006" class="node">
<title>Node6</title>
<g id="a_Node000006"><a xlink:href="utility_8hpp.xhtml" target="_top" xlink:title=" ">
<polygon fill="white" stroke="#666666" points="759.75,-85.75 703.25,-85.75 703.25,-66.5 759.75,-66.5 759.75,-85.75"/>
<text text-anchor="middle" x="731.5" y="-72.25" font-family="Helvetica,sans-Serif" font-size="10.00">utility.hpp</text>
</a>
</g>
</g>
<!-- Node3&#45;&gt;Node6 -->
<g id="edge14_Node000003_Node000006" class="edge">
<title>Node3&#45;&gt;Node6</title>
<g id="a_edge14_Node000003_Node000006"><a xlink:title=" ">
<path fill="none" stroke="#63b8ff" d="M1065.05,-213.72C973.72,-212.51 795.24,-204.75 750.5,-163.5 732.44,-146.85 729.53,-117.29 729.89,-97.44"/>
<polygon fill="#63b8ff" stroke="#63b8ff" points="733.38,-97.72 730.4,-87.56 726.39,-97.36 733.38,-97.72"/>
</a>
</g>
</g>
<!-- Node7 -->
<g id="Node000007" class="node">
<title>Node7</title>
<g id="a_Node000007"><a xlink:title=" ">
<polygon fill="#e0e0e0" stroke="#999999" points="628.38,-24.88 572.62,-24.88 572.62,-5.63 628.38,-5.63 628.38,-24.88"/>
<text text-anchor="middle" x="600.5" y="-11.38" font-family="Helvetica,sans-Serif" font-size="10.00">concepts</text>
</a>
</g>
</g>
<!-- Node3&#45;&gt;Node7 -->
<g id="edge15_Node000003_Node000007" class="edge">
<title>Node3&#45;&gt;Node7</title>
<g id="a_edge15_Node000003_Node000007"><a xlink:title=" ">
<path fill="none" stroke="#63b8ff" d="M1065.2,-212.9C932.08,-210.26 597.86,-200.02 564.5,-163.5 531.17,-127.02 566.1,-64.83 587.09,-34.28"/>
<polygon fill="#63b8ff" stroke="#63b8ff" points="589.72,-36.62 592.68,-26.44 584.02,-32.55 589.72,-36.62"/>
</a>
</g>
</g>
<!-- Node3&#45;&gt;Node8 -->
<g id="edge16_Node000003_Node000008" class="edge">
<title>Node3&#45;&gt;Node8</title>
<g id="a_edge16_Node000003_Node000008"><a xlink:title=" ">
<path fill="none" stroke="#63b8ff" d="M1064.97,-213.35C903.48,-211.69 435.46,-203.47 380.5,-163.5 339.01,-133.33 326.66,-69.1 323.01,-36.36"/>
<polygon fill="#63b8ff" stroke="#63b8ff" points="326.52,-36.27 322.11,-26.64 319.55,-36.92 326.52,-36.27"/>
</a>
</g>
</g>
<!-- Node3&#45;&gt;Node10 -->
<g id="edge19_Node000003_Node000010" class="edge">
<title>Node3&#45;&gt;Node10</title>
<g id="a_edge19_Node000003_Node000010"><a xlink:title=" ">
<path fill="none" stroke="#63b8ff" d="M1174.07,-213.31C1397.38,-211.25 2231.62,-201.05 2272.5,-163.5 2307.69,-131.17 2301.88,-68.44 2295.99,-36.3"/>
<polygon fill="#63b8ff" stroke="#63b8ff" points="2299.47,-35.84 2294.04,-26.74 2292.61,-37.24 2299.47,-35.84"/>
</a>
</g>
</g>
<!-- Node3&#45;&gt;Node12 -->
<g id="edge17_Node000003_Node000012" class="edge">
<title>Node3&#45;&gt;Node12</title>
<g id="a_edge17_Node000003_Node000012"><a xlink:title=" ">
<path fill="none" stroke="#63b8ff" d="M1065.18,-212.51C875.57,-207.96 252.77,-190.96 220.5,-163.5 201.71,-147.51 199.02,-117.55 199.63,-97.47"/>
<polygon fill="#63b8ff" stroke="#63b8ff" points="203.11,-97.91 200.24,-87.71 196.12,-97.47 203.11,-97.91"/>
</a>
</g>
</g>
<!-- Node13 -->
<g id="Node000013" class="node">
<title>Node13</title>
<g id="a_Node000013"><a xlink:title=" ">
<polygon fill="#e0e0e0" stroke="#999999" points="461.25,-152.25 389.75,-152.25 389.75,-133 461.25,-133 461.25,-152.25"/>
<text text-anchor="middle" x="425.5" y="-138.75" font-family="Helvetica,sans-Serif" font-size="10.00">initializer_list</text>
</a>
</g>
</g>
<!-- Node3&#45;&gt;Node13 -->
<g id="edge18_Node000003_Node000013" class="edge">
<title>Node3&#45;&gt;Node13</title>
<g id="a_edge18_Node000003_Node000013"><a xlink:title=" ">
<path fill="none" stroke="#63b8ff" d="M1064.88,-211.89C929.73,-206.91 582.56,-191.71 470.5,-163.5 464.39,-161.96 458.07,-159.66 452.16,-157.16"/>
<polygon fill="#63b8ff" stroke="#63b8ff" points="454.04,-154.17 443.49,-153.21 451.13,-160.54 454.04,-154.17"/>
</a>
</g>
</g>
<!-- Node14 -->
<g id="Node000014" class="node">
<title>Node14</title>
<g id="a_Node000014"><a xlink:title=" ">
<polygon fill="#e0e0e0" stroke="#999999" points="517.75,-152.25 479.25,-152.25 479.25,-133 517.75,-133 517.75,-152.25"/>
<text text-anchor="middle" x="498.5" y="-138.75" font-family="Helvetica,sans-Serif" font-size="10.00">utility</text>
</a>
</g>
</g>
<!-- Node3&#45;&gt;Node14 -->
<g id="edge20_Node000003_Node000014" class="edge">
<title>Node3&#45;&gt;Node14</title>
<g id="a_edge20_Node000003_Node000014"><a xlink:title=" ">
<path fill="none" stroke="#63b8ff" d="M1065.19,-212.25C939.13,-208.26 629.93,-195.43 531.5,-163.5 527.63,-162.24 523.73,-160.46 520.05,-158.48"/>
<polygon fill="#63b8ff" stroke="#63b8ff" points="522.04,-155.59 511.68,-153.39 518.4,-161.57 522.04,-155.59"/>
</a>
</g>
</g>
<!-- Node15 -->
<g id="Node000015" class="node">
<title>Node15</title>
<g id="a_Node000015"><a xlink:title=" ">
<polygon fill="#e0e0e0" stroke="#999999" points="703.5,-157.88 573.5,-157.88 573.5,-127.38 703.5,-127.38 703.5,-157.88"/>
<text text-anchor="start" x="581.5" y="-144.38" font-family="Helvetica,sans-Serif" font-size="10.00">typed_linear_algebra</text>
<text text-anchor="middle" x="638.5" y="-133.12" font-family="Helvetica,sans-Serif" font-size="10.00">_internal/algorithm/add.tpp</text>
</a>
</g>
</g>
<!-- Node3&#45;&gt;Node15 -->
<g id="edge21_Node000003_Node000015" class="edge">
<title>Node3&#45;&gt;Node15</title>
<g id="a_edge21_Node000003_Node000015"><a xlink:title=" ">
<path fill="none" stroke="#63b8ff" d="M1064.88,-209.06C987.25,-201.9 840.72,-186.61 717.5,-163.5 713.17,-162.69 708.72,-161.78 704.25,-160.81"/>
<polygon fill="#63b8ff" stroke="#63b8ff" points="705.13,-157.42 694.61,-158.62 703.59,-164.25 705.13,-157.42"/>
</a>
</g>
</g>
<!-- Node16 -->
<g id="Node000016" class="node">
<title>Node16</title>
<g id="a_Node000016"><a xlink:title=" ">
<polygon fill="#e0e0e0" stroke="#999999" points="899.38,-157.88 759.62,-157.88 759.62,-127.38 899.38,-127.38 899.38,-157.88"/>
<text text-anchor="start" x="767.62" y="-144.38" font-family="Helvetica,sans-Serif" font-size="10.00">typed_linear_algebra</text>
<text text-anchor="middle" x="829.5" y="-133.12" font-family="Helvetica,sans-Serif" font-size="10.00">_internal/algorithm/divide.tpp</text>
</a>
</g>
</g>
<!-- Node3&#45;&gt;Node16 -->
<g id="edge22_Node000003_Node000016" class="edge">
<title>Node3&#45;&gt;Node16</title>
<g id="a_edge22_Node000003_Node000016"><a xlink:title=" ">
<path fill="none" stroke="#63b8ff" d="M1065.25,-201.03C1022.6,-190.98 961.72,-176.53 908.5,-163.5 905.34,-162.73 902.12,-161.93 898.86,-161.13"/>
<polygon fill="#63b8ff" stroke="#63b8ff" points="899.74,-157.74 889.19,-158.73 898.05,-164.53 899.74,-157.74"/>
</a>
</g>
</g>
<!-- Node17 -->
<g id="Node000017" class="node">
<title>Node17</title>
<g id="a_Node000017"><a xlink:title=" ">
<polygon fill="#e0e0e0" stroke="#999999" points="1039.38,-163.5 917.62,-163.5 917.62,-121.75 1039.38,-121.75 1039.38,-163.5"/>
<text text-anchor="start" x="925.62" y="-150" font-family="Helvetica,sans-Serif" font-size="10.00">typed_linear_algebra</text>
<text text-anchor="start" x="925.62" y="-138.75" font-family="Helvetica,sans-Serif" font-size="10.00">_internal/algorithm/equal</text>
<text text-anchor="middle" x="978.5" y="-127.5" font-family="Helvetica,sans-Serif" font-size="10.00">_to.tpp</text>
</a>
</g>
</g>
<!-- Node3&#45;&gt;Node17 -->
<g id="edge23_Node000003_Node000017" class="edge">
<title>Node3&#45;&gt;Node17</title>
<g id="a_edge23_Node000003_Node000017"><a xlink:title=" ">
<path fill="none" stroke="#63b8ff" d="M1089.94,-199.05C1072.39,-190.32 1049.67,-179.02 1029.32,-168.9"/>
<polygon fill="#63b8ff" stroke="#63b8ff" points="1031.12,-165.88 1020.6,-164.57 1028,-172.15 1031.12,-165.88"/>
</a>
</g>
</g>
<!-- Node18 -->
<g id="Node000018" class="node">
<title>Node18</title>
<g id="a_Node000018"><a xlink:title=" ">
<polygon fill="#e0e0e0" stroke="#999999" points="1181.88,-163.5 1057.12,-163.5 1057.12,-121.75 1181.88,-121.75 1181.88,-163.5"/>
<text text-anchor="start" x="1065.12" y="-150" font-family="Helvetica,sans-Serif" font-size="10.00">typed_linear_algebra</text>
<text text-anchor="start" x="1065.12" y="-138.75" font-family="Helvetica,sans-Serif" font-size="10.00">_internal/algorithm/matrix</text>
<text text-anchor="middle" x="1119.5" y="-127.5" font-family="Helvetica,sans-Serif" font-size="10.00">_product.tpp</text>
</a>
</g>
</g>
<!-- Node3&#45;&gt;Node18 -->
<g id="edge24_Node000003_Node000018" class="edge">
<title>Node3&#45;&gt;Node18</title>
<g id="a_edge24_Node000003_Node000018"><a xlink:title=" ">
<path fill="none" stroke="#63b8ff" d="M1119.5,-199.22C1119.5,-192.29 1119.5,-183.72 1119.5,-175.39"/>
<polygon fill="#63b8ff" stroke="#63b8ff" points="1123,-175.5 1119.5,-165.5 1116,-175.5 1123,-175.5"/>
</a>
</g>
</g>
<!-- Node19 -->
<g id="Node000019" class="node">
<title>Node19</title>
<g id="a_Node000019"><a xlink:title=" ">
<polygon fill="#e0e0e0" stroke="#999999" points="1383.75,-157.88 1237.25,-157.88 1237.25,-127.38 1383.75,-127.38 1383.75,-157.88"/>
<text text-anchor="start" x="1245.25" y="-144.38" font-family="Helvetica,sans-Serif" font-size="10.00">typed_linear_algebra</text>
<text text-anchor="middle" x="1310.5" y="-133.12" font-family="Helvetica,sans-Serif" font-size="10.00">_internal/algorithm/product.tpp</text>
</a>
</g>
</g>
<!-- Node3&#45;&gt;Node19 -->
<g id="edge25_Node000003_Node000019" class="edge">
<title>Node3&#45;&gt;Node19</title>
<g id="a_edge25_Node000003_Node000019"><a xlink:title=" ">
<path fill="none" stroke="#63b8ff" d="M1159.54,-199.05C1188.7,-188.34 1228.42,-173.76 1259.79,-162.24"/>
<polygon fill="#63b8ff" stroke="#63b8ff" points="1260.91,-165.56 1269.09,-158.83 1258.5,-158.99 1260.91,-165.56"/>
</a>
</g>
</g>
<!-- Node20 -->
<g id="Node000020" class="node">
<title>Node20</title>
<g id="a_Node000020"><a xlink:title=" ">
<polygon fill="#e0e0e0" stroke="#999999" points="1539.25,-157.88 1401.75,-157.88 1401.75,-127.38 1539.25,-127.38 1539.25,-157.88"/>
<text text-anchor="start" x="1409.75" y="-144.38" font-family="Helvetica,sans-Serif" font-size="10.00">typed_linear_algebra</text>
<text text-anchor="middle" x="1470.5" y="-133.12" font-family="Helvetica,sans-Serif" font-size="10.00">_internal/algorithm/scale.tpp</text>
</a>
</g>
</g>
<!-- Node3&#45;&gt;Node20 -->
<g id="edge26_Node000003_Node000020" class="edge">
<title>Node3&#45;&gt;Node20</title>
<g id="a_edge26_Node000003_Node000020"><a xlink:title=" ">
<path fill="none" stroke="#63b8ff" d="M1174.1,-204.81C1229.37,-195.51 1317.18,-180.01 1392.5,-163.5 1396.23,-162.68 1400.05,-161.81 1403.91,-160.91"/>
<polygon fill="#63b8ff" stroke="#63b8ff" points="1404.41,-164.39 1413.32,-158.66 1402.78,-157.58 1404.41,-164.39"/>
</a>
</g>
</g>
<!-- Node21 -->
<g id="Node000021" class="node">
<title>Node21</title>
<g id="a_Node000021"><a xlink:title=" ">
<polygon fill="#e0e0e0" stroke="#999999" points="1711.88,-157.88 1557.12,-157.88 1557.12,-127.38 1711.88,-127.38 1711.88,-157.88"/>
<text text-anchor="start" x="1565.12" y="-144.38" font-family="Helvetica,sans-Serif" font-size="10.00">typed_linear_algebra</text>
<text text-anchor="middle" x="1634.5" y="-133.12" font-family="Helvetica,sans-Serif" font-size="10.00">_internal/algorithm/substract.tpp</text>
</a>
</g>
</g>
<!-- Node3&#45;&gt;Node21 -->
<g id="edge27_Node000003_Node000021" class="edge">
<title>Node3&#45;&gt;Node21</title>
<g id="a_edge27_Node000003_Node000021"><a xlink:title=" ">
<path fill="none" stroke="#63b8ff" d="M1173.95,-209.31C1255.69,-202.22 1414.77,-186.71 1548.5,-163.5 1553.48,-162.64 1558.59,-161.67 1563.74,-160.63"/>
<polygon fill="#63b8ff" stroke="#63b8ff" points="1564.44,-164.06 1573.51,-158.58 1563.01,-157.21 1564.44,-164.06"/>
</a>
</g>
</g>
<!-- Node22 -->
<g id="Node000022" class="node">
<title>Node22</title>
<g id="a_Node000022"><a xlink:title=" ">
<polygon fill="#e0e0e0" stroke="#999999" points="1892.62,-157.88 1730.38,-157.88 1730.38,-127.38 1892.62,-127.38 1892.62,-157.88"/>
<text text-anchor="start" x="1738.38" y="-144.38" font-family="Helvetica,sans-Serif" font-size="10.00">typed_linear_algebra</text>
<text text-anchor="middle" x="1811.5" y="-133.12" font-family="Helvetica,sans-Serif" font-size="10.00">_internal/algorithm/transposed.tpp</text>
</a>
</g>
</g>
<!-- Node3&#45;&gt;Node22 -->
<g id="edge28_Node000003_Node000022" class="edge">
<title>Node3&#45;&gt;Node22</title>
<g id="a_edge28_Node000003_Node000022"><a xlink:title=" ">
<path fill="none" stroke="#63b8ff" d="M1174.06,-211.59C1279.93,-206.88 1520.41,-193.58 1720.5,-163.5 1726.4,-162.61 1732.48,-161.57 1738.58,-160.43"/>
<polygon fill="#63b8ff" stroke="#63b8ff" points="1738.9,-163.94 1748.05,-158.59 1737.56,-157.07 1738.9,-163.94"/>
</a>
</g>
</g>
<!-- Node23 -->
<g id="Node000023" class="node">
<title>Node23</title>
<g id="a_Node000023"><a xlink:title=" ">
<polygon fill="#e0e0e0" stroke="#999999" points="2014.75,-157.88 1910.25,-157.88 1910.25,-127.38 2014.75,-127.38 2014.75,-157.88"/>
<text text-anchor="start" x="1918.25" y="-144.38" font-family="Helvetica,sans-Serif" font-size="10.00">typed_linear_algebra</text>
<text text-anchor="middle" x="1962.5" y="-133.12" font-family="Helvetica,sans-Serif" font-size="10.00">_internal/cast.tpp</text>
</a>
</g>
</g>
<!-- Node3&#45;&gt;Node23 -->
<g id="edge29_Node000003_Node000023" class="edge">
<title>Node3&#45;&gt;Node23</title>
<g id="a_edge29_Node000003_Node000023"><a xlink:title=" ">
<path fill="none" stroke="#63b8ff" d="M1173.95,-212.03C1327.46,-206.89 1761.63,-190.34 1901.5,-163.5 1904.68,-162.89 1907.92,-162.16 1911.17,-161.35"/>
<polygon fill="#63b8ff" stroke="#63b8ff" points="1912.01,-164.75 1920.73,-158.73 1910.16,-158 1912.01,-164.75"/>
</a>
</g>
</g>
<!-- Node24 -->
<g id="Node000024" class="node">
<title>Node24</title>
<g id="a_Node000024"><a xlink:title=" ">
<polygon fill="#e0e0e0" stroke="#999999" points="2137.75,-157.88 2033.25,-157.88 2033.25,-127.38 2137.75,-127.38 2137.75,-157.88"/>
<text text-anchor="start" x="2041.25" y="-144.38" font-family="Helvetica,sans-Serif" font-size="10.00">typed_linear_algebra</text>
<text text-anchor="middle" x="2085.5" y="-133.12" font-family="Helvetica,sans-Serif" font-size="10.00">_internal/tuple.tpp</text>
</a>
</g>
</g>
<!-- Node3&#45;&gt;Node24 -->
<g id="edge30_Node000003_Node000024" class="edge">
<title>Node3&#45;&gt;Node24</title>
<g id="a_edge30_Node000003_Node000024"><a xlink:title=" ">
<path fill="none" stroke="#63b8ff" d="M1174.11,-212.54C1343.59,-208.48 1859.08,-193.91 2023.5,-163.5 2026.84,-162.88 2030.25,-162.14 2033.66,-161.3"/>
<polygon fill="#63b8ff" stroke="#63b8ff" points="2034.32,-164.75 2043.06,-158.77 2032.49,-157.99 2034.32,-164.75"/>
</a>
</g>
</g>
<!-- Node25 -->
<g id="Node000025" class="node">
<title>Node25</title>
<g id="a_Node000025"><a xlink:title=" ">
<polygon fill="#e0e0e0" stroke="#999999" points="2263.25,-163.5 2155.75,-163.5 2155.75,-121.75 2263.25,-121.75 2263.25,-163.5"/>
<text text-anchor="start" x="2163.75" y="-150" font-family="Helvetica,sans-Serif" font-size="10.00">typed_linear_algebra</text>
<text text-anchor="start" x="2163.75" y="-138.75" font-family="Helvetica,sans-Serif" font-size="10.00">_internal/typed_linear</text>
<text text-anchor="middle" x="2209.5" y="-127.5" font-family="Helvetica,sans-Serif" font-size="10.00">_algebra.tpp</text>
</a>
</g>
</g>
<!-- Node3&#45;&gt;Node25 -->
<g id="edge31_Node000003_Node000025" class="edge">
<title>Node3&#45;&gt;Node25</title>
<g id="a_edge31_Node000003_Node000025"><a xlink:title=" ">
<path fill="none" stroke="#63b8ff" d="M1173.94,-212.93C1354.82,-209.91 1935.55,-197.88 2144.29,-163.57"/>
<polygon fill="#63b8ff" stroke="#63b8ff" points="2144.67,-167.06 2153.93,-161.91 2143.48,-160.16 2144.67,-167.06"/>
</a>
</g>
</g>
<!-- Node5&#45;&gt;Node6 -->
<g id="edge5_Node000005_Node000006" class="edge">
<title>Node5&#45;&gt;Node6</title>
<g id="a_edge5_Node000005_Node000006"><a xlink:title=" ">
<path fill="none" stroke="#63b8ff" d="M334.03,-130.35C349.01,-127.33 365.36,-124.23 380.5,-121.75 492.93,-103.34 626.67,-88.19 691.84,-81.23"/>
<polygon fill="#63b8ff" stroke="#63b8ff" points="692.11,-84.72 701.69,-80.19 691.37,-77.76 692.11,-84.72"/>
</a>
</g>
</g>
<!-- Node5&#45;&gt;Node8 -->
<g id="edge12_Node000005_Node000008" class="edge">
<title>Node5&#45;&gt;Node8</title>
<g id="a_edge12_Node000005_Node000008"><a xlink:title=" ">
<path fill="none" stroke="#63b8ff" d="M286.09,-127.24C293.25,-104.8 307.09,-61.4 315.19,-36.03"/>
<polygon fill="#63b8ff" stroke="#63b8ff" points="318.48,-37.23 318.19,-26.64 311.81,-35.1 318.48,-37.23"/>
</a>
</g>
</g>
<!-- Node5&#45;&gt;Node12 -->
<g id="edge13_Node000005_Node000012" class="edge">
<title>Node5&#45;&gt;Node12</title>
<g id="a_edge13_Node000005_Node000012"><a xlink:title=" ">
<path fill="none" stroke="#63b8ff" d="M263.35,-126.99C250.73,-116.82 233.94,-103.28 221.04,-92.88"/>
<polygon fill="#63b8ff" stroke="#63b8ff" points="223.6,-90.45 213.62,-86.9 219.21,-95.9 223.6,-90.45"/>
</a>
</g>
</g>
<!-- Node6&#45;&gt;Node4 -->
<g id="edge6_Node000006_Node000004" class="edge">
<title>Node6&#45;&gt;Node4</title>
<g id="a_edge6_Node000006_Node000004"><a xlink:title=" ">
<path fill="none" stroke="#63b8ff" d="M760,-69.32C805.45,-60.06 895.45,-41.73 956.8,-29.23"/>
<polygon fill="#63b8ff" stroke="#63b8ff" points="957.33,-32.69 966.43,-27.27 955.93,-25.83 957.33,-32.69"/>
</a>
</g>
</g>
<!-- Node6&#45;&gt;Node7 -->
<g id="edge7_Node000006_Node000007" class="edge">
<title>Node6&#45;&gt;Node7</title>
<g id="a_edge7_Node000006_Node000007"><a xlink:title=" ">
<path fill="none" stroke="#63b8ff" d="M711.32,-66.05C689.81,-56.39 655.52,-40.98 630.78,-29.86"/>
<polygon fill="#63b8ff" stroke="#63b8ff" points="632.43,-26.76 621.87,-25.85 629.56,-33.15 632.43,-26.76"/>
</a>
</g>
</g>
<!-- Node6&#45;&gt;Node8 -->
<g id="edge8_Node000006_Node000008" class="edge">
<title>Node6&#45;&gt;Node8</title>
<g id="a_edge8_Node000006_Node000008"><a xlink:title=" ">
<path fill="none" stroke="#63b8ff" d="M703,-71.03C630.13,-60.57 437.15,-32.86 357.09,-21.36"/>
<polygon fill="#63b8ff" stroke="#63b8ff" points="358.02,-17.96 347.62,-20 357.02,-24.89 358.02,-17.96"/>
</a>
</g>
</g>
<!-- Node9 -->
<g id="Node000009" class="node">
<title>Node9</title>
<g id="a_Node000009"><a xlink:title=" ">
<polygon fill="#e0e0e0" stroke="#999999" points="760.5,-24.88 702.5,-24.88 702.5,-5.63 760.5,-5.63 760.5,-24.88"/>
<text text-anchor="middle" x="731.5" y="-11.38" font-family="Helvetica,sans-Serif" font-size="10.00">functional</text>
</a>
</g>
</g>
<!-- Node6&#45;&gt;Node9 -->
<g id="edge9_Node000006_Node000009" class="edge">
<title>Node6&#45;&gt;Node9</title>
<g id="a_edge9_Node000006_Node000009"><a xlink:title=" ">
<path fill="none" stroke="#63b8ff" d="M731.5,-66.18C731.5,-58.4 731.5,-46.83 731.5,-36.78"/>
<polygon fill="#63b8ff" stroke="#63b8ff" points="735,-36.79 731.5,-26.79 728,-36.79 735,-36.79"/>
</a>
</g>
</g>
<!-- Node6&#45;&gt;Node10 -->
<g id="edge10_Node000006_Node000010" class="edge">
<title>Node6&#45;&gt;Node10</title>
<g id="a_edge10_Node000006_Node000010"><a xlink:title=" ">
<path fill="none" stroke="#63b8ff" d="M760.25,-74.04C953.65,-66.74 2063.43,-24.86 2261.32,-17.39"/>
<polygon fill="#63b8ff" stroke="#63b8ff" points="2261.16,-20.9 2271.02,-17.02 2260.89,-13.9 2261.16,-20.9"/>
</a>
</g>
</g>
<!-- Node6&#45;&gt;Node11 -->
<g id="edge11_Node000006_Node000011" class="edge">
<title>Node6&#45;&gt;Node11</title>
<g id="a_edge11_Node000006_Node000011"><a xlink:title=" ">
<path fill="none" stroke="#63b8ff" d="M760.21,-73.33C895.57,-64.87 1470.27,-28.95 1631.37,-18.88"/>
<polygon fill="#63b8ff" stroke="#63b8ff" points="1631.4,-22.39 1641.16,-18.27 1630.96,-15.4 1631.4,-22.39"/>
</a>
</g>
</g>
</g>
</svg>

<g id="navigator" transform="translate(0 0)" fill="#404254">
  <rect fill="#f2f5e9" fill-opacity="0.5" stroke="#606060" stroke-width=".5" x="0" y="0" width="60" height="60"/>
  <use id="zoomplus" xlink:href="#zoomPlus" x="17" y="9" onmousedown="handleZoom(evt,'in')"/>
  <use id="zoomminus" xlink:href="#zoomMin" x="42" y="9" onmousedown="handleZoom(evt,'out')"/>
  <use id="reset" xlink:href="#resetDef" x="30" y="36" onmousedown="handleReset()"/>
   <use id="arrowup" xlink:href="#arrowUp" x="0" y="0" onmousedown="handlePan(0,-1)"/>
  <use id="arrowright" xlink:href="#arrowRight" x="0" y="0" onmousedown="handlePan(1,0)"/>
  <use id="arrowdown" xlink:href="#arrowDown" x="0" y="0" onmousedown="handlePan(0,1)"/>
  <use id="arrowleft" xlink:href="#arrowLeft" x="0" y="0" onmousedown="handlePan(-1,0)"/>
</g>
<svg viewBox="0 0 15 15" width="100%" height="30px" preserveAspectRatio="xMaxYMin meet">
 <g id="arrow_out" transform="scale(0.3 0.3)">
  <a xlink:href="mp__units__std_8cpp__incl_org.svg" target="_base">
   <rect id="button" ry="5" rx="5" y="6" x="6" height="38" width="38"
        fill="#f2f5e9" fill-opacity="0.5" stroke="#606060" stroke-width="1.0"/>
   <path id="arrow"
     d="M 11.500037,31.436501 C 11.940474,20.09759 22.043105,11.32322 32.158766,21.979434 L 37.068811,17.246167 C 37.068811,17.246167 37.088388,32 37.088388,32 L 22.160133,31.978069 C 22.160133,31.978069 26.997745,27.140456 26.997745,27.140456 C 18.528582,18.264221 13.291696,25.230495 11.500037,31.436501 z"
     style="fill:#404040;"/>
  </a>
 </g>
</svg>

<style type='text/css'>
<![CDATA[
[data-mouse-over-selected='false'] { opacity: 0.7; }
[data-mouse-over-selected='true']  { opacity: 1.0; }
]]>
</style>
<script type="application/ecmascript"><![CDATA[
document.addEventListener('DOMContentLoaded', (event) => {
  highlightEdges();
  highlightAdjacentNodes();
});
]]></script>
</svg>
