<?xml version="1.0" encoding="UTF-8" standalone="no"?>
<!DOCTYPE svg PUBLIC "-//W3C//DTD SVG 1.1//EN"
 "http://www.w3.org/Graphics/SVG/1.1/DTD/svg11.dtd">
<!-- Generated by graphviz version 12.2.0 (20241103.1931)
 -->
<!-- Title: /github/workspace/sample/mp_units_eigen.cpp Pages: 1 -->
<svg width="2401pt" height="305pt"
 viewBox="0.00 0.00 2400.88 304.50" xmlns="http://www.w3.org/2000/svg" xmlns:xlink="http://www.w3.org/1999/xlink">
<g id="graph0" class="graph" transform="scale(1 1) rotate(0) translate(4 300.5)">
<title>/github/workspace/sample/mp_units_eigen.cpp</title>
<!-- Node1 -->
<g id="Node000001" class="node">
<title>Node1</title>
<g id="a_Node000001"><a xlink:title="Unit safe linear algebra with mp&#45;units and Eigen.">
<polygon fill="#999999" stroke="#666666" points="1809.5,-296.5 1679.5,-296.5 1679.5,-266 1809.5,-266 1809.5,-296.5"/>
<text text-anchor="start" x="1687.5" y="-283" font-family="Helvetica,sans-Serif" font-size="10.00">/github/workspace/sample</text>
<text text-anchor="middle" x="1744.5" y="-271.75" font-family="Helvetica,sans-Serif" font-size="10.00">/mp_units_eigen.cpp</text>
</a>
</g>
</g>
<!-- Node2 -->
<g id="Node000002" class="node">
<title>Node2</title>
<g id="a_Node000002"><a xlink:title=" ">
<polygon fill="#e0e0e0" stroke="#999999" points="97,-224.38 0,-224.38 0,-205.12 97,-205.12 97,-224.38"/>
<text text-anchor="middle" x="48.5" y="-210.88" font-family="Helvetica,sans-Serif" font-size="10.00">fcarouge/linalg.hpp</text>
</a>
</g>
</g>
<!-- Node1&#45;&gt;Node2 -->
<g id="edge1_Node000001_Node000002" class="edge">
<title>Node1&#45;&gt;Node2</title>
<g id="a_edge1_Node000001_Node000002"><a xlink:title=" ">
<path fill="none" stroke="#63b8ff" d="M1679.16,-279.91C1414.64,-278.28 422.59,-269.6 111.5,-230 105.87,-229.28 100.01,-228.29 94.23,-227.17"/>
<polygon fill="#63b8ff" stroke="#63b8ff" points="95.26,-223.81 84.76,-225.18 93.83,-230.66 95.26,-223.81"/>
</a>
</g>
</g>
<!-- Node3 -->
<g id="Node000003" class="node">
<title>Node3</title>
<g id="a_Node000003"><a xlink:href="typed__linear__algebra_8hpp.xhtml" target="_top" xlink:title="Typed linear algebra implementation.">
<polygon fill="white" stroke="#666666" points="1289.62,-230 1181.38,-230 1181.38,-199.5 1289.62,-199.5 1289.62,-230"/>
<text text-anchor="start" x="1189.38" y="-216.5" font-family="Helvetica,sans-Serif" font-size="10.00">fcarouge/typed_linear</text>
<text text-anchor="middle" x="1235.5" y="-205.25" font-family="Helvetica,sans-Serif" font-size="10.00">_algebra.hpp</text>
</a>
</g>
</g>
<!-- Node1&#45;&gt;Node3 -->
<g id="edge2_Node000001_Node000003" class="edge">
<title>Node1&#45;&gt;Node3</title>
<g id="a_edge2_Node000001_Node000003"><a xlink:title=" ">
<path fill="none" stroke="#63b8ff" d="M1679.26,-271.98C1581.72,-259.62 1398.92,-236.46 1301.14,-224.07"/>
<polygon fill="#63b8ff" stroke="#63b8ff" points="1301.8,-220.62 1291.44,-222.84 1300.92,-227.57 1301.8,-220.62"/>
</a>
</g>
</g>
<!-- Node10 -->
<g id="Node000010" class="node">
<title>Node10</title>
<g id="a_Node000010"><a xlink:title=" ">
<polygon fill="#e0e0e0" stroke="#999999" points="182,-24.88 145,-24.88 145,-5.63 182,-5.63 182,-24.88"/>
<text text-anchor="middle" x="163.5" y="-11.38" font-family="Helvetica,sans-Serif" font-size="10.00">tuple</text>
</a>
</g>
</g>
<!-- Node1&#45;&gt;Node10 -->
<g id="edge35_Node000001_Node000010" class="edge">
<title>Node1&#45;&gt;Node10</title>
<g id="a_edge35_Node000001_Node000010"><a xlink:title=" ">
<path fill="none" stroke="#63b8ff" d="M1679.21,-280.14C1395.67,-279.06 280.32,-268.11 168.5,-163.5 133.72,-130.96 146.89,-67.85 156.66,-35.86"/>
<polygon fill="#63b8ff" stroke="#63b8ff" points="159.87,-37.28 159.66,-26.69 153.22,-35.11 159.87,-37.28"/>
</a>
</g>
</g>
<!-- Node11 -->
<g id="Node000011" class="node">
<title>Node11</title>
<g id="a_Node000011"><a xlink:title=" ">
<polygon fill="#e0e0e0" stroke="#999999" points="2324,-24.88 2263,-24.88 2263,-5.63 2324,-5.63 2324,-24.88"/>
<text text-anchor="middle" x="2293.5" y="-11.38" font-family="Helvetica,sans-Serif" font-size="10.00">type_traits</text>
</a>
</g>
</g>
<!-- Node1&#45;&gt;Node11 -->
<g id="edge36_Node000001_Node000011" class="edge">
<title>Node1&#45;&gt;Node11</title>
<g id="a_edge36_Node000001_Node000011"><a xlink:title=" ">
<path fill="none" stroke="#63b8ff" d="M1809.9,-279.73C1889.36,-277.33 2026.55,-267.47 2137.5,-230 2193.44,-211.11 2216.35,-210.18 2252.5,-163.5 2282.07,-125.32 2290.32,-67 2292.62,-36.48"/>
<polygon fill="#63b8ff" stroke="#63b8ff" points="2296.1,-36.94 2293.19,-26.75 2289.11,-36.52 2296.1,-36.94"/>
</a>
</g>
</g>
<!-- Node12 -->
<g id="Node000012" class="node">
<title>Node12</title>
<g id="a_Node000012"><a xlink:title=" ">
<polygon fill="#e0e0e0" stroke="#999999" points="2238.38,-85.75 2194.62,-85.75 2194.62,-66.5 2238.38,-66.5 2238.38,-85.75"/>
<text text-anchor="middle" x="2216.5" y="-72.25" font-family="Helvetica,sans-Serif" font-size="10.00">format</text>
</a>
</g>
</g>
<!-- Node1&#45;&gt;Node12 -->
<g id="edge33_Node000001_Node000012" class="edge">
<title>Node1&#45;&gt;Node12</title>
<g id="a_edge33_Node000001_Node000012"><a xlink:title=" ">
<path fill="none" stroke="#63b8ff" d="M1809.56,-274.08C1927.92,-261.37 2170.97,-227.89 2221.5,-163.5 2236.25,-144.7 2230.74,-115.92 2224.45,-96.81"/>
<polygon fill="#63b8ff" stroke="#63b8ff" points="2227.77,-95.7 2221.03,-87.52 2221.2,-98.11 2227.77,-95.7"/>
</a>
</g>
</g>
<!-- Node26 -->
<g id="Node000026" class="node">
<title>Node26</title>
<g id="a_Node000026"><a xlink:title=" ">
<polygon fill="#e0e0e0" stroke="#999999" points="2392.88,-224.38 2358.12,-224.38 2358.12,-205.12 2392.88,-205.12 2392.88,-224.38"/>
<text text-anchor="middle" x="2375.5" y="-210.88" font-family="Helvetica,sans-Serif" font-size="10.00">print</text>
</a>
</g>
</g>
<!-- Node1&#45;&gt;Node26 -->
<g id="edge34_Node000001_Node000026" class="edge">
<title>Node1&#45;&gt;Node26</title>
<g id="a_edge34_Node000001_Node000026"><a xlink:title=" ">
<path fill="none" stroke="#63b8ff" d="M1809.81,-277.64C1943.68,-271.81 2244.99,-256.18 2344.5,-230 2345.67,-229.69 2346.86,-229.34 2348.05,-228.96"/>
<polygon fill="#63b8ff" stroke="#63b8ff" points="2349.08,-232.31 2357.11,-225.39 2346.52,-225.8 2349.08,-232.31"/>
</a>
</g>
</g>
<!-- Node4 -->
<g id="Node000004" class="node">
<title>Node4</title>
<g id="a_Node000004"><a xlink:href="typed__linear__algebra__forward_8hpp.xhtml" target="_top" xlink:title="Authoritative forward declaration header.">
<polygon fill="white" stroke="#666666" points="2207.75,-30.5 2103.25,-30.5 2103.25,0 2207.75,0 2207.75,-30.5"/>
<text text-anchor="start" x="2111.25" y="-17" font-family="Helvetica,sans-Serif" font-size="10.00">typed_linear_algebra</text>
<text text-anchor="middle" x="2155.5" y="-5.75" font-family="Helvetica,sans-Serif" font-size="10.00">_forward.hpp</text>
</a>
</g>
</g>
<!-- Node3&#45;&gt;Node4 -->
<g id="edge3_Node000003_Node000004" class="edge">
<title>Node3&#45;&gt;Node4</title>
<g id="a_edge3_Node000003_Node000004"><a xlink:title=" ">
<path fill="none" stroke="#63b8ff" d="M1290.03,-212.66C1491.5,-208.42 2184.2,-191.83 2221.5,-163.5 2257.05,-136.51 2270.27,-104.89 2247.5,-66.5 2239.65,-53.28 2226.97,-43.31 2213.49,-35.88"/>
<polygon fill="#63b8ff" stroke="#63b8ff" points="2215.45,-32.95 2204.94,-31.6 2212.31,-39.21 2215.45,-32.95"/>
</a>
</g>
</g>
<!-- Node5 -->
<g id="Node000005" class="node">
<title>Node5</title>
<g id="a_Node000005"><a xlink:href="format_8hpp.xhtml" target="_top" xlink:title="Formatting support for the typed matrix.">
<polygon fill="white" stroke="#666666" points="2188.75,-157.88 2084.25,-157.88 2084.25,-127.38 2188.75,-127.38 2188.75,-157.88"/>
<text text-anchor="start" x="2092.25" y="-144.38" font-family="Helvetica,sans-Serif" font-size="10.00">typed_linear_algebra</text>
<text text-anchor="middle" x="2136.5" y="-133.12" font-family="Helvetica,sans-Serif" font-size="10.00">_internal/format.hpp</text>
</a>
</g>
</g>
<!-- Node3&#45;&gt;Node5 -->
<g id="edge4_Node000003_Node000005" class="edge">
<title>Node3&#45;&gt;Node5</title>
<g id="a_edge4_Node000003_Node000005"><a xlink:title=" ">
<path fill="none" stroke="#63b8ff" d="M1289.85,-212.13C1450.22,-207.08 1919.66,-190.37 2070.5,-163.5 2074.27,-162.83 2078.12,-162.02 2081.98,-161.11"/>
<polygon fill="#63b8ff" stroke="#63b8ff" points="2082.54,-164.58 2091.36,-158.7 2080.8,-157.8 2082.54,-164.58"/>
</a>
</g>
</g>
<!-- Node6 -->
<g id="Node000006" class="node">
<title>Node6</title>
<g id="a_Node000006"><a xlink:href="utility_8hpp.xhtml" target="_top" xlink:title=" ">
<polygon fill="white" stroke="#666666" points="2084.75,-85.75 2028.25,-85.75 2028.25,-66.5 2084.75,-66.5 2084.75,-85.75"/>
<text text-anchor="middle" x="2056.5" y="-72.25" font-family="Helvetica,sans-Serif" font-size="10.00">utility.hpp</text>
</a>
</g>
</g>
<!-- Node3&#45;&gt;Node6 -->
<g id="edge15_Node000003_Node000006" class="edge">
<title>Node3&#45;&gt;Node6</title>
<g id="a_edge15_Node000003_Node000006"><a xlink:title=" ">
<path fill="none" stroke="#63b8ff" d="M1290.1,-214.06C1461.52,-214.53 1980.99,-211.92 2037.5,-163.5 2056.24,-147.44 2058.94,-117.5 2058.35,-97.44"/>
<polygon fill="#63b8ff" stroke="#63b8ff" points="2061.86,-97.46 2057.74,-87.69 2054.87,-97.89 2061.86,-97.46"/>
</a>
</g>
</g>
<!-- Node7 -->
<g id="Node000007" class="node">
<title>Node7</title>
<g id="a_Node000007"><a xlink:title=" ">
<polygon fill="#e0e0e0" stroke="#999999" points="1099.38,-24.88 1043.62,-24.88 1043.62,-5.63 1099.38,-5.63 1099.38,-24.88"/>
<text text-anchor="middle" x="1071.5" y="-11.38" font-family="Helvetica,sans-Serif" font-size="10.00">concepts</text>
</a>
</g>
</g>
<!-- Node3&#45;&gt;Node7 -->
<g id="edge16_Node000003_Node000007" class="edge">
<title>Node3&#45;&gt;Node7</title>
<g id="a_edge16_Node000003_Node000007"><a xlink:title=" ">
<path fill="none" stroke="#63b8ff" d="M1181.08,-213.1C975.86,-210.37 258.67,-198.36 225.5,-163.5 195.78,-132.27 195.93,-97.87 225.5,-66.5 253.5,-36.79 868.84,-20.83 1032.06,-17.1"/>
<polygon fill="#63b8ff" stroke="#63b8ff" points="1032.01,-20.61 1041.93,-16.88 1031.86,-13.61 1032.01,-20.61"/>
</a>
</g>
</g>
<!-- Node8 -->
<g id="Node000008" class="node">
<title>Node8</title>
<g id="a_Node000008"><a xlink:title=" ">
<polygon fill="#e0e0e0" stroke="#999999" points="2009.62,-24.88 1961.38,-24.88 1961.38,-5.63 2009.62,-5.63 2009.62,-24.88"/>
<text text-anchor="middle" x="1985.5" y="-11.38" font-family="Helvetica,sans-Serif" font-size="10.00">cstddef</text>
</a>
</g>
</g>
<!-- Node3&#45;&gt;Node8 -->
<g id="edge17_Node000003_Node000008" class="edge">
<title>Node3&#45;&gt;Node8</title>
<g id="a_edge17_Node000003_Node000008"><a xlink:title=" ">
<path fill="none" stroke="#63b8ff" d="M1181.15,-213C980.38,-209.97 290.47,-197.15 258.5,-163.5 245.72,-150.05 245.79,-135.26 258.5,-121.75 318.62,-57.84 1707.97,-22.7 1949.78,-17.06"/>
<polygon fill="#63b8ff" stroke="#63b8ff" points="1949.6,-20.56 1959.52,-16.83 1949.44,-13.57 1949.6,-20.56"/>
</a>
</g>
</g>
<!-- Node3&#45;&gt;Node10 -->
<g id="edge20_Node000003_Node000010" class="edge">
<title>Node3&#45;&gt;Node10</title>
<g id="a_edge20_Node000003_Node000010"><a xlink:title=" ">
<path fill="none" stroke="#63b8ff" d="M1181,-212.9C972.84,-209.42 237.64,-194.96 199.5,-163.5 161.68,-132.31 159.84,-68.55 161.64,-36.13"/>
<polygon fill="#63b8ff" stroke="#63b8ff" points="165.1,-36.77 162.36,-26.53 158.12,-36.24 165.1,-36.77"/>
</a>
</g>
</g>
<!-- Node3&#45;&gt;Node12 -->
<g id="edge18_Node000003_Node000012" class="edge">
<title>Node3&#45;&gt;Node12</title>
<g id="a_edge18_Node000003_Node000012"><a xlink:title=" ">
<path fill="none" stroke="#63b8ff" d="M1289.82,-212.72C1488.03,-208.72 2162.7,-193.01 2197.5,-163.5 2216.32,-147.54 2219,-117.58 2218.39,-97.48"/>
<polygon fill="#63b8ff" stroke="#63b8ff" points="2221.89,-97.47 2217.76,-87.71 2214.91,-97.92 2221.89,-97.47"/>
</a>
</g>
</g>
<!-- Node13 -->
<g id="Node000013" class="node">
<title>Node13</title>
<g id="a_Node000013"><a xlink:title=" ">
<polygon fill="#e0e0e0" stroke="#999999" points="339.25,-152.25 267.75,-152.25 267.75,-133 339.25,-133 339.25,-152.25"/>
<text text-anchor="middle" x="303.5" y="-138.75" font-family="Helvetica,sans-Serif" font-size="10.00">initializer_list</text>
</a>
</g>
</g>
<!-- Node3&#45;&gt;Node13 -->
<g id="edge19_Node000003_Node000013" class="edge">
<title>Node3&#45;&gt;Node13</title>
<g id="a_edge19_Node000003_Node000013"><a xlink:title=" ">
<path fill="none" stroke="#63b8ff" d="M1180.88,-213.21C1013.22,-211.15 507.73,-201.83 348.5,-163.5 342.38,-162.03 336.05,-159.75 330.14,-157.26"/>
<polygon fill="#63b8ff" stroke="#63b8ff" points="332.02,-154.27 321.47,-153.3 329.11,-160.64 332.02,-154.27"/>
</a>
</g>
</g>
<!-- Node14 -->
<g id="Node000014" class="node">
<title>Node14</title>
<g id="a_Node000014"><a xlink:title=" ">
<polygon fill="#e0e0e0" stroke="#999999" points="395.75,-152.25 357.25,-152.25 357.25,-133 395.75,-133 395.75,-152.25"/>
<text text-anchor="middle" x="376.5" y="-138.75" font-family="Helvetica,sans-Serif" font-size="10.00">utility</text>
</a>
</g>
</g>
<!-- Node3&#45;&gt;Node14 -->
<g id="edge21_Node000003_Node000014" class="edge">
<title>Node3&#45;&gt;Node14</title>
<g id="a_edge21_Node000003_Node000014"><a xlink:title=" ">
<path fill="none" stroke="#63b8ff" d="M1181.11,-214.33C1020.15,-215.46 548.4,-214.21 404.5,-163.5 401.49,-162.44 398.52,-160.96 395.7,-159.27"/>
<polygon fill="#63b8ff" stroke="#63b8ff" points="397.78,-156.46 387.59,-153.56 393.75,-162.18 397.78,-156.46"/>
</a>
</g>
</g>
<!-- Node15 -->
<g id="Node000015" class="node">
<title>Node15</title>
<g id="a_Node000015"><a xlink:title=" ">
<polygon fill="#e0e0e0" stroke="#999999" points="543.5,-157.88 413.5,-157.88 413.5,-127.38 543.5,-127.38 543.5,-157.88"/>
<text text-anchor="start" x="421.5" y="-144.38" font-family="Helvetica,sans-Serif" font-size="10.00">typed_linear_algebra</text>
<text text-anchor="middle" x="478.5" y="-133.12" font-family="Helvetica,sans-Serif" font-size="10.00">_internal/algorithm/add.tpp</text>
</a>
</g>
</g>
<!-- Node3&#45;&gt;Node15 -->
<g id="edge22_Node000003_Node000015" class="edge">
<title>Node3&#45;&gt;Node15</title>
<g id="a_edge22_Node000003_Node000015"><a xlink:title=" ">
<path fill="none" stroke="#63b8ff" d="M1181.07,-213.23C1064.82,-211.34 784.02,-202.74 552.5,-163.5 548.12,-162.76 543.63,-161.87 539.13,-160.89"/>
<polygon fill="#63b8ff" stroke="#63b8ff" points="539.98,-157.5 529.45,-158.64 538.39,-164.31 539.98,-157.5"/>
</a>
</g>
</g>
<!-- Node16 -->
<g id="Node000016" class="node">
<title>Node16</title>
<g id="a_Node000016"><a xlink:title=" ">
<polygon fill="#e0e0e0" stroke="#999999" points="701.38,-157.88 561.62,-157.88 561.62,-127.38 701.38,-127.38 701.38,-157.88"/>
<text text-anchor="start" x="569.62" y="-144.38" font-family="Helvetica,sans-Serif" font-size="10.00">typed_linear_algebra</text>
<text text-anchor="middle" x="631.5" y="-133.12" font-family="Helvetica,sans-Serif" font-size="10.00">_internal/algorithm/divide.tpp</text>
</a>
</g>
</g>
<!-- Node3&#45;&gt;Node16 -->
<g id="edge23_Node000003_Node000016" class="edge">
<title>Node3&#45;&gt;Node16</title>
<g id="a_edge23_Node000003_Node000016"><a xlink:title=" ">
<path fill="none" stroke="#63b8ff" d="M1181.1,-211.26C1085.38,-206.26 880.8,-192.9 710.5,-163.5 705.87,-162.7 701.12,-161.78 696.35,-160.77"/>
<polygon fill="#63b8ff" stroke="#63b8ff" points="697.24,-157.38 686.72,-158.63 695.72,-164.21 697.24,-157.38"/>
</a>
</g>
</g>
<!-- Node17 -->
<g id="Node000017" class="node">
<title>Node17</title>
<g id="a_Node000017"><a xlink:title=" ">
<polygon fill="#e0e0e0" stroke="#999999" points="841.38,-163.5 719.62,-163.5 719.62,-121.75 841.38,-121.75 841.38,-163.5"/>
<text text-anchor="start" x="727.62" y="-150" font-family="Helvetica,sans-Serif" font-size="10.00">typed_linear_algebra</text>
<text text-anchor="start" x="727.62" y="-138.75" font-family="Helvetica,sans-Serif" font-size="10.00">_internal/algorithm/equal</text>
<text text-anchor="middle" x="780.5" y="-127.5" font-family="Helvetica,sans-Serif" font-size="10.00">_to.tpp</text>
</a>
</g>
</g>
<!-- Node3&#45;&gt;Node17 -->
<g id="edge24_Node000003_Node000017" class="edge">
<title>Node3&#45;&gt;Node17</title>
<g id="a_edge24_Node000003_Node000017"><a xlink:title=" ">
<path fill="none" stroke="#63b8ff" d="M1180.89,-209.17C1108.08,-202.5 975.11,-188.37 852.87,-163.84"/>
<polygon fill="#63b8ff" stroke="#63b8ff" points="853.81,-160.46 843.32,-161.89 852.42,-167.32 853.81,-160.46"/>
</a>
</g>
</g>
<!-- Node18 -->
<g id="Node000018" class="node">
<title>Node18</title>
<g id="a_Node000018"><a xlink:title=" ">
<polygon fill="#e0e0e0" stroke="#999999" points="983.88,-163.5 859.12,-163.5 859.12,-121.75 983.88,-121.75 983.88,-163.5"/>
<text text-anchor="start" x="867.12" y="-150" font-family="Helvetica,sans-Serif" font-size="10.00">typed_linear_algebra</text>
<text text-anchor="start" x="867.12" y="-138.75" font-family="Helvetica,sans-Serif" font-size="10.00">_internal/algorithm/matrix</text>
<text text-anchor="middle" x="921.5" y="-127.5" font-family="Helvetica,sans-Serif" font-size="10.00">_product.tpp</text>
</a>
</g>
</g>
<!-- Node3&#45;&gt;Node18 -->
<g id="edge25_Node000003_Node000018" class="edge">
<title>Node3&#45;&gt;Node18</title>
<g id="a_edge25_Node000003_Node000018"><a xlink:title=" ">
<path fill="none" stroke="#63b8ff" d="M1180.97,-203.47C1134.27,-194.44 1065,-180.47 995.43,-163.89"/>
<polygon fill="#63b8ff" stroke="#63b8ff" points="996.28,-160.5 985.74,-161.56 994.64,-167.3 996.28,-160.5"/>
</a>
</g>
</g>
<!-- Node19 -->
<g id="Node000019" class="node">
<title>Node19</title>
<g id="a_Node000019"><a xlink:title=" ">
<polygon fill="#e0e0e0" stroke="#999999" points="1148.75,-157.88 1002.25,-157.88 1002.25,-127.38 1148.75,-127.38 1148.75,-157.88"/>
<text text-anchor="start" x="1010.25" y="-144.38" font-family="Helvetica,sans-Serif" font-size="10.00">typed_linear_algebra</text>
<text text-anchor="middle" x="1075.5" y="-133.12" font-family="Helvetica,sans-Serif" font-size="10.00">_internal/algorithm/product.tpp</text>
</a>
</g>
</g>
<!-- Node3&#45;&gt;Node19 -->
<g id="edge26_Node000003_Node000019" class="edge">
<title>Node3&#45;&gt;Node19</title>
<g id="a_edge26_Node000003_Node000019"><a xlink:title=" ">
<path fill="none" stroke="#63b8ff" d="M1201.96,-199.05C1177.96,-188.53 1145.42,-174.27 1119.36,-162.85"/>
<polygon fill="#63b8ff" stroke="#63b8ff" points="1120.95,-159.72 1110.38,-158.91 1118.14,-166.13 1120.95,-159.72"/>
</a>
</g>
</g>
<!-- Node20 -->
<g id="Node000020" class="node">
<title>Node20</title>
<g id="a_Node000020"><a xlink:title=" ">
<polygon fill="#e0e0e0" stroke="#999999" points="1304.25,-157.88 1166.75,-157.88 1166.75,-127.38 1304.25,-127.38 1304.25,-157.88"/>
<text text-anchor="start" x="1174.75" y="-144.38" font-family="Helvetica,sans-Serif" font-size="10.00">typed_linear_algebra</text>
<text text-anchor="middle" x="1235.5" y="-133.12" font-family="Helvetica,sans-Serif" font-size="10.00">_internal/algorithm/scale.tpp</text>
</a>
</g>
</g>
<!-- Node3&#45;&gt;Node20 -->
<g id="edge27_Node000003_Node000020" class="edge">
<title>Node3&#45;&gt;Node20</title>
<g id="a_edge27_Node000003_Node000020"><a xlink:title=" ">
<path fill="none" stroke="#63b8ff" d="M1235.5,-199.22C1235.5,-190.66 1235.5,-179.59 1235.5,-169.58"/>
<polygon fill="#63b8ff" stroke="#63b8ff" points="1239,-169.65 1235.5,-159.65 1232,-169.65 1239,-169.65"/>
</a>
</g>
</g>
<!-- Node21 -->
<g id="Node000021" class="node">
<title>Node21</title>
<g id="a_Node000021"><a xlink:title=" ">
<polygon fill="#e0e0e0" stroke="#999999" points="1476.88,-157.88 1322.12,-157.88 1322.12,-127.38 1476.88,-127.38 1476.88,-157.88"/>
<text text-anchor="start" x="1330.12" y="-144.38" font-family="Helvetica,sans-Serif" font-size="10.00">typed_linear_algebra</text>
<text text-anchor="middle" x="1399.5" y="-133.12" font-family="Helvetica,sans-Serif" font-size="10.00">_internal/algorithm/substract.tpp</text>
</a>
</g>
</g>
<!-- Node3&#45;&gt;Node21 -->
<g id="edge28_Node000003_Node000021" class="edge">
<title>Node3&#45;&gt;Node21</title>
<g id="a_edge28_Node000003_Node000021"><a xlink:title=" ">
<path fill="none" stroke="#63b8ff" d="M1269.88,-199.05C1294.59,-188.48 1328.13,-174.14 1354.9,-162.7"/>
<polygon fill="#63b8ff" stroke="#63b8ff" points="1355.96,-166.05 1363.77,-158.9 1353.2,-159.61 1355.96,-166.05"/>
</a>
</g>
</g>
<!-- Node22 -->
<g id="Node000022" class="node">
<title>Node22</title>
<g id="a_Node000022"><a xlink:title=" ">
<polygon fill="#e0e0e0" stroke="#999999" points="1657.62,-157.88 1495.38,-157.88 1495.38,-127.38 1657.62,-127.38 1657.62,-157.88"/>
<text text-anchor="start" x="1503.38" y="-144.38" font-family="Helvetica,sans-Serif" font-size="10.00">typed_linear_algebra</text>
<text text-anchor="middle" x="1576.5" y="-133.12" font-family="Helvetica,sans-Serif" font-size="10.00">_internal/algorithm/transposed.tpp</text>
</a>
</g>
</g>
<!-- Node3&#45;&gt;Node22 -->
<g id="edge29_Node000003_Node000022" class="edge">
<title>Node3&#45;&gt;Node22</title>
<g id="a_edge29_Node000003_Node000022"><a xlink:title=" ">
<path fill="none" stroke="#63b8ff" d="M1289.69,-203.13C1340.36,-193.13 1418.12,-177.63 1485.5,-163.5 1489.83,-162.59 1494.27,-161.65 1498.75,-160.7"/>
<polygon fill="#63b8ff" stroke="#63b8ff" points="1499.41,-164.14 1508.45,-158.62 1497.94,-157.29 1499.41,-164.14"/>
</a>
</g>
</g>
<!-- Node23 -->
<g id="Node000023" class="node">
<title>Node23</title>
<g id="a_Node000023"><a xlink:title=" ">
<polygon fill="#e0e0e0" stroke="#999999" points="1779.75,-157.88 1675.25,-157.88 1675.25,-127.38 1779.75,-127.38 1779.75,-157.88"/>
<text text-anchor="start" x="1683.25" y="-144.38" font-family="Helvetica,sans-Serif" font-size="10.00">typed_linear_algebra</text>
<text text-anchor="middle" x="1727.5" y="-133.12" font-family="Helvetica,sans-Serif" font-size="10.00">_internal/cast.tpp</text>
</a>
</g>
</g>
<!-- Node3&#45;&gt;Node23 -->
<g id="edge30_Node000003_Node000023" class="edge">
<title>Node3&#45;&gt;Node23</title>
<g id="a_edge30_Node000003_Node000023"><a xlink:title=" ">
<path fill="none" stroke="#63b8ff" d="M1289.82,-210.89C1372.11,-205.78 1532.93,-192.74 1666.5,-163.5 1669.41,-162.86 1672.38,-162.14 1675.36,-161.36"/>
<polygon fill="#63b8ff" stroke="#63b8ff" points="1676,-164.82 1684.67,-158.73 1674.1,-158.08 1676,-164.82"/>
</a>
</g>
</g>
<!-- Node24 -->
<g id="Node000024" class="node">
<title>Node24</title>
<g id="a_Node000024"><a xlink:title=" ">
<polygon fill="#e0e0e0" stroke="#999999" points="1902.75,-157.88 1798.25,-157.88 1798.25,-127.38 1902.75,-127.38 1902.75,-157.88"/>
<text text-anchor="start" x="1806.25" y="-144.38" font-family="Helvetica,sans-Serif" font-size="10.00">typed_linear_algebra</text>
<text text-anchor="middle" x="1850.5" y="-133.12" font-family="Helvetica,sans-Serif" font-size="10.00">_internal/tuple.tpp</text>
</a>
</g>
</g>
<!-- Node3&#45;&gt;Node24 -->
<g id="edge31_Node000003_Node000024" class="edge">
<title>Node3&#45;&gt;Node24</title>
<g id="a_edge31_Node000003_Node000024"><a xlink:title=" ">
<path fill="none" stroke="#63b8ff" d="M1289.84,-212.76C1389.61,-210.06 1608.29,-200.11 1788.5,-163.5 1791.62,-162.87 1794.79,-162.13 1797.99,-161.33"/>
<polygon fill="#63b8ff" stroke="#63b8ff" points="1798.63,-164.78 1807.35,-158.76 1796.78,-158.03 1798.63,-164.78"/>
</a>
</g>
</g>
<!-- Node25 -->
<g id="Node000025" class="node">
<title>Node25</title>
<g id="a_Node000025"><a xlink:title=" ">
<polygon fill="#e0e0e0" stroke="#999999" points="2028.25,-163.5 1920.75,-163.5 1920.75,-121.75 2028.25,-121.75 2028.25,-163.5"/>
<text text-anchor="start" x="1928.75" y="-150" font-family="Helvetica,sans-Serif" font-size="10.00">typed_linear_algebra</text>
<text text-anchor="start" x="1928.75" y="-138.75" font-family="Helvetica,sans-Serif" font-size="10.00">_internal/typed_linear</text>
<text text-anchor="middle" x="1974.5" y="-127.5" font-family="Helvetica,sans-Serif" font-size="10.00">_algebra.tpp</text>
</a>
</g>
</g>
<!-- Node3&#45;&gt;Node25 -->
<g id="edge32_Node000003_Node000025" class="edge">
<title>Node3&#45;&gt;Node25</title>
<g id="a_edge32_Node000003_Node000025"><a xlink:title=" ">
<path fill="none" stroke="#63b8ff" d="M1289.95,-213.95C1403.73,-213.45 1674.89,-207.51 1909.28,-163.68"/>
<polygon fill="#63b8ff" stroke="#63b8ff" points="1909.75,-167.15 1918.92,-161.85 1908.44,-160.27 1909.75,-167.15"/>
</a>
</g>
</g>
<!-- Node5&#45;&gt;Node4 -->
<g id="edge5_Node000005_Node000004" class="edge">
<title>Node5&#45;&gt;Node4</title>
<g id="a_edge5_Node000005_Node000004"><a xlink:title=" ">
<path fill="none" stroke="#63b8ff" d="M2138.68,-127.24C2141.83,-106.48 2147.69,-67.76 2151.6,-42"/>
<polygon fill="#63b8ff" stroke="#63b8ff" points="2155.02,-42.76 2153.06,-32.35 2148.1,-41.71 2155.02,-42.76"/>
</a>
</g>
</g>
<!-- Node5&#45;&gt;Node6 -->
<g id="edge6_Node000005_Node000006" class="edge">
<title>Node5&#45;&gt;Node6</title>
<g id="a_edge6_Node000005_Node000006"><a xlink:title=" ">
<path fill="none" stroke="#63b8ff" d="M2118.35,-126.99C2105.73,-116.82 2088.94,-103.28 2076.04,-92.88"/>
<polygon fill="#63b8ff" stroke="#63b8ff" points="2078.6,-90.45 2068.62,-86.9 2074.21,-95.9 2078.6,-90.45"/>
</a>
</g>
</g>
<!-- Node5&#45;&gt;Node8 -->
<g id="edge13_Node000005_Node000008" class="edge">
<title>Node5&#45;&gt;Node8</title>
<g id="a_edge13_Node000005_Node000008"><a xlink:title=" ">
<path fill="none" stroke="#63b8ff" d="M2131.34,-127.15C2124.8,-110.6 2112.09,-83.58 2093.5,-66.5 2090.37,-63.62 2046.62,-43.67 2015.78,-29.79"/>
<polygon fill="#63b8ff" stroke="#63b8ff" points="2017.43,-26.7 2006.87,-25.8 2014.56,-33.08 2017.43,-26.7"/>
</a>
</g>
</g>
<!-- Node5&#45;&gt;Node12 -->
<g id="edge14_Node000005_Node000012" class="edge">
<title>Node5&#45;&gt;Node12</title>
<g id="a_edge14_Node000005_Node000012"><a xlink:title=" ">
<path fill="none" stroke="#63b8ff" d="M2154.65,-126.99C2167.27,-116.82 2184.06,-103.28 2196.96,-92.88"/>
<polygon fill="#63b8ff" stroke="#63b8ff" points="2198.79,-95.9 2204.38,-86.9 2194.4,-90.45 2198.79,-95.9"/>
</a>
</g>
</g>
<!-- Node6&#45;&gt;Node4 -->
<g id="edge7_Node000006_Node000004" class="edge">
<title>Node6&#45;&gt;Node4</title>
<g id="a_edge7_Node000006_Node000004"><a xlink:title=" ">
<path fill="none" stroke="#63b8ff" d="M2071.54,-66.18C2084.74,-58.33 2104.44,-46.62 2121.44,-36.51"/>
<polygon fill="#63b8ff" stroke="#63b8ff" points="2122.96,-39.68 2129.76,-31.56 2119.38,-33.66 2122.96,-39.68"/>
</a>
</g>
</g>
<!-- Node6&#45;&gt;Node7 -->
<g id="edge8_Node000006_Node000007" class="edge">
<title>Node6&#45;&gt;Node7</title>
<g id="a_edge8_Node000006_Node000007"><a xlink:title=" ">
<path fill="none" stroke="#63b8ff" d="M2027.82,-73.41C1887.44,-65.02 1272.97,-28.29 1110.84,-18.6"/>
<polygon fill="#63b8ff" stroke="#63b8ff" points="1111.23,-15.12 1101.04,-18.02 1110.81,-22.11 1111.23,-15.12"/>
</a>
</g>
</g>
<!-- Node6&#45;&gt;Node8 -->
<g id="edge9_Node000006_Node000008" class="edge">
<title>Node6&#45;&gt;Node8</title>
<g id="a_edge9_Node000006_Node000008"><a xlink:title=" ">
<path fill="none" stroke="#63b8ff" d="M2045.72,-66.18C2034.98,-57.28 2018.25,-43.41 2005.15,-32.54"/>
<polygon fill="#63b8ff" stroke="#63b8ff" points="2007.48,-29.93 1997.55,-26.24 2003.01,-35.32 2007.48,-29.93"/>
</a>
</g>
</g>
<!-- Node9 -->
<g id="Node000009" class="node">
<title>Node9</title>
<g id="a_Node000009"><a xlink:title=" ">
<polygon fill="#e0e0e0" stroke="#999999" points="2085.5,-24.88 2027.5,-24.88 2027.5,-5.63 2085.5,-5.63 2085.5,-24.88"/>
<text text-anchor="middle" x="2056.5" y="-11.38" font-family="Helvetica,sans-Serif" font-size="10.00">functional</text>
</a>
</g>
</g>
<!-- Node6&#45;&gt;Node9 -->
<g id="edge10_Node000006_Node000009" class="edge">
<title>Node6&#45;&gt;Node9</title>
<g id="a_edge10_Node000006_Node000009"><a xlink:title=" ">
<path fill="none" stroke="#63b8ff" d="M2056.5,-66.18C2056.5,-58.4 2056.5,-46.83 2056.5,-36.78"/>
<polygon fill="#63b8ff" stroke="#63b8ff" points="2060,-36.79 2056.5,-26.79 2053,-36.79 2060,-36.79"/>
</a>
</g>
</g>
<!-- Node6&#45;&gt;Node10 -->
<g id="edge11_Node000006_Node000010" class="edge">
<title>Node6&#45;&gt;Node10</title>
<g id="a_edge11_Node000006_Node000010"><a xlink:title=" ">
<path fill="none" stroke="#63b8ff" d="M2027.9,-74.24C1810.22,-67.47 417.6,-24.15 193.82,-17.19"/>
<polygon fill="#63b8ff" stroke="#63b8ff" points="194.02,-13.7 183.91,-16.88 193.8,-20.69 194.02,-13.7"/>
</a>
</g>
</g>
<!-- Node6&#45;&gt;Node11 -->
<g id="edge12_Node000006_Node000011" class="edge">
<title>Node6&#45;&gt;Node11</title>
<g id="a_edge12_Node000006_Node000011"><a xlink:title=" ">
<path fill="none" stroke="#63b8ff" d="M2085.09,-68.02C2126.58,-57.72 2203.73,-38.55 2251.64,-26.65"/>
<polygon fill="#63b8ff" stroke="#63b8ff" points="2252.23,-30.11 2261.09,-24.3 2250.54,-23.32 2252.23,-30.11"/>
</a>
</g>
</g>
</g>
</svg>
