<?xml version="1.0" encoding="UTF-8" standalone="no"?>
<!DOCTYPE svg PUBLIC "-//W3C//DTD SVG 1.1//EN"
 "http://www.w3.org/Graphics/SVG/1.1/DTD/svg11.dtd">
<!-- Generated by graphviz version 12.2.0 (20241103.1931)
 -->
<!-- Title: /github/workspace/sample/mp_units_eigen.cpp Pages: 1 -->
<!--zoomable 293 -->

<svg id="main" version="1.1" xmlns="http://www.w3.org/2000/svg" xmlns:xlink="http://www.w3.org/1999/xlink" xml:space="preserve" onload="init(evt)">

<style type="text/css"><![CDATA[
.node, .edge {opacity: 0.7;}
.node.selected, .edge.selected {opacity: 1;}
.edge:hover path { stroke: red; }
.edge:hover polygon { stroke: red; fill: red; }
]]></style>

<defs>
  <circle id="rim" cx="0" cy="0" r="7"/>
  <circle id="rim2" cx="0" cy="0" r="3.5"/>
  <g id="zoomPlus">
    <use xlink:href="#rim" fill="#404040"><set attributeName="fill" to="#808080" begin="zoomplus.mouseover" end="zoomplus.mouseout"/></use>
    <path d="M-4,0h8M0,-4v8" fill="none" stroke="white" stroke-width="1.5" pointer-events="none"/>
  </g>
  <g id="zoomMin">
    <use xlink:href="#rim" fill="#404040"><set attributeName="fill" to="#808080" begin="zoomminus.mouseover" end="zoomminus.mouseout"/></use>
    <path d="M-4,0h8" fill="none" stroke="white" stroke-width="1.5" pointer-events="none"/>
  </g>
  <g id="arrowUp" transform="translate(30 24)">
    <use xlink:href="#rim"/>
    <path pointer-events="none" fill="none" stroke="white" stroke-width="1.5" d="M0,-3.0v7 M-2.5,-0.5L0,-3.0L2.5,-0.5"/>
  </g>
  <g id="arrowRight" transform="rotate(90) translate(36 -43)">
    <use xlink:href="#rim"/>
    <path pointer-events="none" fill="none" stroke="white" stroke-width="1.5" d="M0,-3.0v7 M-2.5,-0.5L0,-3.0L2.5,-0.5"/>
  </g>
  <g id="arrowDown" transform="rotate(180) translate(-30 -48)">
    <use xlink:href="#rim"/>
    <path pointer-events="none" fill="none" stroke="white" stroke-width="1.5" d="M0,-3.0v7 M-2.5,-0.5L0,-3.0L2.5,-0.5"/>
  </g>
  <g id="arrowLeft" transform="rotate(270) translate(-36 17)">
    <use xlink:href="#rim"/>
    <path pointer-events="none" fill="none" stroke="white" stroke-width="1.5" d="M0,-3.0v7 M-2.5,-0.5L0,-3.0L2.5,-0.5"/>
  </g>
  <g id="resetDef">
    <use xlink:href="#rim2" fill="#404040"><set attributeName="fill" to="#808080" begin="reset.mouseover" end="reset.mouseout"/></use>
  </g>
</defs>
<script type="application/ecmascript">
var viewWidth = 3170;
var viewHeight = 293;
var sectionId = 'dynsection-0';
</script>
<script type="application/ecmascript" xlink:href="svg.min.js"/>
<svg id="graph" class="graph">
<g id="viewport">
<title>/github/workspace/sample/mp_units_eigen.cpp</title>
<!-- Node1 -->
<g id="Node000001" class="node">
<title>Node1</title>
<g id="a_Node000001"><a xlink:title="Unit safe linear algebra with mp&#45;units and Eigen.">
<polygon fill="#999999" stroke="#666666" points="2558.5,-285.25 2428.5,-285.25 2428.5,-254.75 2558.5,-254.75 2558.5,-285.25"/>
<text text-anchor="start" x="2436.5" y="-271.75" font-family="Helvetica,sans-Serif" font-size="10.00">/github/workspace/sample</text>
<text text-anchor="middle" x="2493.5" y="-260.5" font-family="Helvetica,sans-Serif" font-size="10.00">/mp_units_eigen.cpp</text>
</a>
</g>
</g>
<!-- Node2 -->
<g id="Node000002" class="node">
<title>Node2</title>
<g id="a_Node000002"><a xlink:title=" ">
<polygon fill="#e0e0e0" stroke="#999999" points="97,-213.12 0,-213.12 0,-193.88 97,-193.88 97,-213.12"/>
<text text-anchor="middle" x="48.5" y="-199.62" font-family="Helvetica,sans-Serif" font-size="10.00">fcarouge/linalg.hpp</text>
</a>
</g>
</g>
<!-- Node1&#45;&gt;Node2 -->
<g id="edge1_Node000001_Node000002" class="edge">
<title>Node1&#45;&gt;Node2</title>
<g id="a_edge1_Node000001_Node000002"><a xlink:title=" ">
<path fill="none" stroke="#63b8ff" d="M2428.03,-268.41C2069,-265.05 346.68,-247.53 111.5,-218.75 105.8,-218.05 99.86,-217.06 94.01,-215.93"/>
<polygon fill="#63b8ff" stroke="#63b8ff" points="94.93,-212.55 84.42,-213.92 93.49,-219.4 94.93,-212.55"/>
</a>
</g>
</g>
<!-- Node3 -->
<g id="Node000003" class="node">
<title>Node3</title>
<g id="a_Node000003"><a xlink:href="typed__linear__algebra_8hpp.xhtml" target="_top" xlink:title="Typed linear algebra implementation.">
<polygon fill="white" stroke="#666666" points="1615.62,-218.75 1507.38,-218.75 1507.38,-188.25 1615.62,-188.25 1615.62,-218.75"/>
<text text-anchor="start" x="1515.38" y="-205.25" font-family="Helvetica,sans-Serif" font-size="10.00">fcarouge/typed_linear</text>
<text text-anchor="middle" x="1561.5" y="-194" font-family="Helvetica,sans-Serif" font-size="10.00">_algebra.hpp</text>
</a>
</g>
</g>
<!-- Node1&#45;&gt;Node3 -->
<g id="edge2_Node000001_Node000003" class="edge">
<title>Node1&#45;&gt;Node3</title>
<g id="a_edge2_Node000001_Node000003"><a xlink:title=" ">
<path fill="none" stroke="#63b8ff" d="M2428.33,-264.49C2257.62,-252.68 1798.78,-220.92 1627.33,-209.06"/>
<polygon fill="#63b8ff" stroke="#63b8ff" points="1627.7,-205.57 1617.48,-208.37 1627.22,-212.56 1627.7,-205.57"/>
</a>
</g>
</g>
<!-- Node10 -->
<g id="Node000010" class="node">
<title>Node10</title>
<g id="a_Node000010"><a xlink:title=" ">
<polygon fill="#e0e0e0" stroke="#999999" points="2357,-19.25 2320,-19.25 2320,0 2357,0 2357,-19.25"/>
<text text-anchor="middle" x="2338.5" y="-5.75" font-family="Helvetica,sans-Serif" font-size="10.00">tuple</text>
</a>
</g>
</g>
<!-- Node1&#45;&gt;Node10 -->
<g id="edge33_Node000001_Node000010" class="edge">
<title>Node1&#45;&gt;Node10</title>
<g id="a_edge33_Node000001_Node000010"><a xlink:title=" ">
<path fill="none" stroke="#63b8ff" d="M2471.36,-254.28C2458.98,-245.19 2443.98,-232.63 2433.5,-218.75 2385.54,-155.24 2394.32,-127.29 2360.5,-55.25 2356.51,-46.75 2351.94,-37.42 2348,-29.49"/>
<polygon fill="#63b8ff" stroke="#63b8ff" points="2351.27,-28.2 2343.66,-20.82 2345.01,-31.33 2351.27,-28.2"/>
</a>
</g>
</g>
<!-- Node11 -->
<g id="Node000011" class="node">
<title>Node11</title>
<g id="a_Node000011"><a xlink:title=" ">
<polygon fill="#e0e0e0" stroke="#999999" points="594,-19.25 533,-19.25 533,0 594,0 594,-19.25"/>
<text text-anchor="middle" x="563.5" y="-5.75" font-family="Helvetica,sans-Serif" font-size="10.00">type_traits</text>
</a>
</g>
</g>
<!-- Node1&#45;&gt;Node11 -->
<g id="edge34_Node000001_Node000011" class="edge">
<title>Node1&#45;&gt;Node11</title>
<g id="a_edge34_Node000001_Node000011"><a xlink:title=" ">
<path fill="none" stroke="#63b8ff" d="M2428,-268.23C2058.53,-263.55 248.51,-236.38 168.5,-152.25 62.58,-40.88 399.51,-16.89 521.31,-11.89"/>
<polygon fill="#63b8ff" stroke="#63b8ff" points="521.37,-15.39 531.23,-11.51 521.1,-8.4 521.37,-15.39"/>
</a>
</g>
</g>
<!-- Node12 -->
<g id="Node000012" class="node">
<title>Node12</title>
<g id="a_Node000012"><a xlink:title=" ">
<polygon fill="#e0e0e0" stroke="#999999" points="2244.38,-74.5 2200.62,-74.5 2200.62,-55.25 2244.38,-55.25 2244.38,-74.5"/>
<text text-anchor="middle" x="2222.5" y="-61" font-family="Helvetica,sans-Serif" font-size="10.00">format</text>
</a>
</g>
</g>
<!-- Node1&#45;&gt;Node12 -->
<g id="edge31_Node000001_Node000012" class="edge">
<title>Node1&#45;&gt;Node12</title>
<g id="a_edge31_Node000001_Node000012"><a xlink:title=" ">
<path fill="none" stroke="#63b8ff" d="M2458.12,-254.34C2439.73,-245.67 2417.59,-233.5 2400.5,-218.75 2355.01,-179.5 2366.23,-148.27 2319.5,-110.5 2300.49,-95.14 2275.33,-83.76 2255.4,-76.34"/>
<polygon fill="#63b8ff" stroke="#63b8ff" points="2256.67,-73.08 2246.07,-73.03 2254.33,-79.67 2256.67,-73.08"/>
</a>
</g>
</g>
<!-- Node26 -->
<g id="Node000026" class="node">
<title>Node26</title>
<g id="a_Node000026"><a xlink:title=" ">
<polygon fill="#e0e0e0" stroke="#999999" points="2476.88,-213.12 2442.12,-213.12 2442.12,-193.88 2476.88,-193.88 2476.88,-213.12"/>
<text text-anchor="middle" x="2459.5" y="-199.62" font-family="Helvetica,sans-Serif" font-size="10.00">print</text>
</a>
</g>
</g>
<!-- Node1&#45;&gt;Node26 -->
<g id="edge32_Node000001_Node000026" class="edge">
<title>Node1&#45;&gt;Node26</title>
<g id="a_edge32_Node000001_Node000026"><a xlink:title=" ">
<path fill="none" stroke="#63b8ff" d="M2485.78,-254.36C2480.94,-245.18 2474.66,-233.25 2469.44,-223.36"/>
<polygon fill="#63b8ff" stroke="#63b8ff" points="2472.62,-221.88 2464.86,-214.66 2466.42,-225.14 2472.62,-221.88"/>
</a>
</g>
</g>
<!-- Node27 -->
<g id="Node000027" class="node">
<title>Node27</title>
<g id="a_Node000027"><a xlink:title=" ">
<polygon fill="#e0e0e0" stroke="#999999" points="2562,-213.12 2495,-213.12 2495,-193.88 2562,-193.88 2562,-213.12"/>
<text text-anchor="middle" x="2528.5" y="-199.62" font-family="Helvetica,sans-Serif" font-size="10.00">Eigen/Eigen</text>
</a>
</g>
</g>
<!-- Node1&#45;&gt;Node27 -->
<g id="edge35_Node000001_Node000027" class="edge">
<title>Node1&#45;&gt;Node27</title>
<g id="a_edge35_Node000001_Node000027"><a xlink:title=" ">
<path fill="none" stroke="#63b8ff" d="M2501.44,-254.36C2506.42,-245.18 2512.9,-233.25 2518.26,-223.36"/>
<polygon fill="#63b8ff" stroke="#63b8ff" points="2521.3,-225.11 2522.99,-214.65 2515.14,-221.77 2521.3,-225.11"/>
</a>
</g>
</g>
<!-- Node28 -->
<g id="Node000028" class="node">
<title>Node28</title>
<g id="a_Node000028"><a xlink:title=" ">
<polygon fill="#e0e0e0" stroke="#999999" points="2682.62,-218.75 2580.38,-218.75 2580.38,-188.25 2682.62,-188.25 2682.62,-218.75"/>
<text text-anchor="start" x="2588.38" y="-205.25" font-family="Helvetica,sans-Serif" font-size="10.00">mp&#45;units/framework</text>
<text text-anchor="middle" x="2631.5" y="-194" font-family="Helvetica,sans-Serif" font-size="10.00">/quantity.h</text>
</a>
</g>
</g>
<!-- Node1&#45;&gt;Node28 -->
<g id="edge36_Node000001_Node000028" class="edge">
<title>Node1&#45;&gt;Node28</title>
<g id="a_edge36_Node000001_Node000028"><a xlink:title=" ">
<path fill="none" stroke="#63b8ff" d="M2524.81,-254.36C2544.13,-245.33 2569.14,-233.65 2590.09,-223.86"/>
<polygon fill="#63b8ff" stroke="#63b8ff" points="2591.36,-227.12 2598.94,-219.72 2588.4,-220.78 2591.36,-227.12"/>
</a>
</g>
</g>
<!-- Node29 -->
<g id="Node000029" class="node">
<title>Node29</title>
<g id="a_Node000029"><a xlink:title=" ">
<polygon fill="#e0e0e0" stroke="#999999" points="2802.62,-218.75 2700.38,-218.75 2700.38,-188.25 2802.62,-188.25 2802.62,-218.75"/>
<text text-anchor="start" x="2708.38" y="-205.25" font-family="Helvetica,sans-Serif" font-size="10.00">mp&#45;units/framework</text>
<text text-anchor="middle" x="2751.5" y="-194" font-family="Helvetica,sans-Serif" font-size="10.00">/quantity_point.h</text>
</a>
</g>
</g>
<!-- Node1&#45;&gt;Node29 -->
<g id="edge37_Node000001_Node000029" class="edge">
<title>Node1&#45;&gt;Node29</title>
<g id="a_edge37_Node000001_Node000029"><a xlink:title=" ">
<path fill="none" stroke="#63b8ff" d="M2552.37,-254.28C2593.24,-244.07 2647.6,-230.47 2689.2,-220.08"/>
<polygon fill="#63b8ff" stroke="#63b8ff" points="2689.98,-223.49 2698.83,-217.67 2688.28,-216.7 2689.98,-223.49"/>
</a>
</g>
</g>
<!-- Node30 -->
<g id="Node000030" class="node">
<title>Node30</title>
<g id="a_Node000030"><a xlink:title=" ">
<polygon fill="#e0e0e0" stroke="#999999" points="2906.38,-213.12 2820.62,-213.12 2820.62,-193.88 2906.38,-193.88 2906.38,-213.12"/>
<text text-anchor="middle" x="2863.5" y="-199.62" font-family="Helvetica,sans-Serif" font-size="10.00">mp&#45;units/math.h</text>
</a>
</g>
</g>
<!-- Node1&#45;&gt;Node30 -->
<g id="edge38_Node000001_Node000030" class="edge">
<title>Node1&#45;&gt;Node30</title>
<g id="a_edge38_Node000001_Node000030"><a xlink:title=" ">
<path fill="none" stroke="#63b8ff" d="M2558.75,-260.84C2623.31,-252.26 2724.76,-237.43 2811.5,-218.75 2814.82,-218.03 2818.25,-217.23 2821.69,-216.39"/>
<polygon fill="#63b8ff" stroke="#63b8ff" points="2822.29,-219.85 2831.1,-213.96 2820.54,-213.07 2822.29,-219.85"/>
</a>
</g>
</g>
<!-- Node31 -->
<g id="Node000031" class="node">
<title>Node31</title>
<g id="a_Node000031"><a xlink:title=" ">
<polygon fill="#e0e0e0" stroke="#999999" points="3033,-218.75 2924,-218.75 2924,-188.25 3033,-188.25 3033,-218.75"/>
<text text-anchor="start" x="2932" y="-205.25" font-family="Helvetica,sans-Serif" font-size="10.00">mp&#45;units/systems/isq</text>
<text text-anchor="middle" x="2978.5" y="-194" font-family="Helvetica,sans-Serif" font-size="10.00">/thermodynamics.h</text>
</a>
</g>
</g>
<!-- Node1&#45;&gt;Node31 -->
<g id="edge39_Node000001_Node000031" class="edge">
<title>Node1&#45;&gt;Node31</title>
<g id="a_edge39_Node000001_Node000031"><a xlink:title=" ">
<path fill="none" stroke="#63b8ff" d="M2558.87,-263.34C2639.8,-255.86 2782.03,-241.17 2912.61,-219.15"/>
<polygon fill="#63b8ff" stroke="#63b8ff" points="2912.83,-222.66 2922.1,-217.53 2911.65,-215.76 2912.83,-222.66"/>
</a>
</g>
</g>
<!-- Node32 -->
<g id="Node000032" class="node">
<title>Node32</title>
<g id="a_Node000032"><a xlink:title=" ">
<polygon fill="#e0e0e0" stroke="#999999" points="3162.12,-213.12 3050.88,-213.12 3050.88,-193.88 3162.12,-193.88 3162.12,-213.12"/>
<text text-anchor="middle" x="3106.5" y="-199.62" font-family="Helvetica,sans-Serif" font-size="10.00">mp&#45;units/systems/si.h</text>
</a>
</g>
</g>
<!-- Node1&#45;&gt;Node32 -->
<g id="edge40_Node000001_Node000032" class="edge">
<title>Node1&#45;&gt;Node32</title>
<g id="a_edge40_Node000001_Node000032"><a xlink:title=" ">
<path fill="none" stroke="#63b8ff" d="M2558.91,-265.72C2662.14,-259.94 2868.98,-245.89 3042.5,-218.75 3047.71,-217.94 3053.13,-216.95 3058.51,-215.88"/>
<polygon fill="#63b8ff" stroke="#63b8ff" points="3058.87,-219.38 3067.95,-213.91 3057.44,-212.53 3058.87,-219.38"/>
</a>
</g>
</g>
<!-- Node4 -->
<g id="Node000004" class="node">
<title>Node4</title>
<g id="a_Node000004"><a xlink:href="typed__linear__algebra__forward_8hpp.xhtml" target="_top" xlink:title="Authoritative forward declaration header.">
<polygon fill="white" stroke="#666666" points="1984.75,-146.62 1880.25,-146.62 1880.25,-116.12 1984.75,-116.12 1984.75,-146.62"/>
<text text-anchor="start" x="1888.25" y="-133.12" font-family="Helvetica,sans-Serif" font-size="10.00">typed_linear_algebra</text>
<text text-anchor="middle" x="1932.5" y="-121.88" font-family="Helvetica,sans-Serif" font-size="10.00">_forward.hpp</text>
</a>
</g>
</g>
<!-- Node3&#45;&gt;Node4 -->
<g id="edge3_Node000003_Node000004" class="edge">
<title>Node3&#45;&gt;Node4</title>
<g id="a_edge3_Node000003_Node000004"><a xlink:title=" ">
<path fill="none" stroke="#63b8ff" d="M1616.05,-196.25C1678.37,-188.51 1783.14,-173.67 1871.5,-152.25 1874.06,-151.63 1876.66,-150.96 1879.28,-150.24"/>
<polygon fill="#63b8ff" stroke="#63b8ff" points="1879.99,-153.68 1888.63,-147.54 1878.05,-146.96 1879.99,-153.68"/>
</a>
</g>
</g>
<!-- Node5 -->
<g id="Node000005" class="node">
<title>Node5</title>
<g id="a_Node000005"><a xlink:href="format_8hpp.xhtml" target="_top" xlink:title="Formatting support for the typed matrix.">
<polygon fill="white" stroke="#666666" points="2144.75,-146.62 2040.25,-146.62 2040.25,-116.12 2144.75,-116.12 2144.75,-146.62"/>
<text text-anchor="start" x="2048.25" y="-133.12" font-family="Helvetica,sans-Serif" font-size="10.00">typed_linear_algebra</text>
<text text-anchor="middle" x="2092.5" y="-121.88" font-family="Helvetica,sans-Serif" font-size="10.00">_internal/format.hpp</text>
</a>
</g>
</g>
<!-- Node3&#45;&gt;Node5 -->
<g id="edge4_Node000003_Node000005" class="edge">
<title>Node3&#45;&gt;Node5</title>
<g id="a_edge4_Node000003_Node000005"><a xlink:title=" ">
<path fill="none" stroke="#63b8ff" d="M1616.05,-199.88C1703.44,-194.95 1879.87,-181.98 2026.5,-152.25 2029.85,-151.57 2033.28,-150.79 2036.72,-149.95"/>
<polygon fill="#63b8ff" stroke="#63b8ff" points="2037.44,-153.38 2046.23,-147.46 2035.67,-146.61 2037.44,-153.38"/>
</a>
</g>
</g>
<!-- Node6 -->
<g id="Node000006" class="node">
<title>Node6</title>
<g id="a_Node000006"><a xlink:href="utility_8hpp.xhtml" target="_top" xlink:title=" ">
<polygon fill="white" stroke="#666666" points="2044.75,-74.5 1988.25,-74.5 1988.25,-55.25 2044.75,-55.25 2044.75,-74.5"/>
<text text-anchor="middle" x="2016.5" y="-61" font-family="Helvetica,sans-Serif" font-size="10.00">utility.hpp</text>
</a>
</g>
</g>
<!-- Node3&#45;&gt;Node6 -->
<g id="edge13_Node000003_Node000006" class="edge">
<title>Node3&#45;&gt;Node6</title>
<g id="a_edge13_Node000003_Node000006"><a xlink:title=" ">
<path fill="none" stroke="#63b8ff" d="M1616.12,-199.55C1725.94,-193.14 1965.45,-176.52 1993.5,-152.25 2012.27,-136.01 2016.57,-106.34 2017.14,-86.37"/>
<polygon fill="#63b8ff" stroke="#63b8ff" points="2020.64,-86.38 2017.11,-76.39 2013.64,-86.4 2020.64,-86.38"/>
</a>
</g>
</g>
<!-- Node7 -->
<g id="Node000007" class="node">
<title>Node7</title>
<g id="a_Node000007"><a xlink:title=" ">
<polygon fill="#e0e0e0" stroke="#999999" points="1535.38,-19.25 1479.62,-19.25 1479.62,0 1535.38,0 1535.38,-19.25"/>
<text text-anchor="middle" x="1507.5" y="-5.75" font-family="Helvetica,sans-Serif" font-size="10.00">concepts</text>
</a>
</g>
</g>
<!-- Node3&#45;&gt;Node7 -->
<g id="edge14_Node000003_Node000007" class="edge">
<title>Node3&#45;&gt;Node7</title>
<g id="a_edge14_Node000003_Node000007"><a xlink:title=" ">
<path fill="none" stroke="#63b8ff" d="M1506.96,-202.6C1256.78,-202.81 229.22,-200.7 182.5,-152.25 169.62,-138.89 169.88,-124.1 182.5,-110.5 272.09,-13.9 1256.86,-10.17 1467.85,-10.49"/>
<polygon fill="#63b8ff" stroke="#63b8ff" points="1467.73,-13.99 1477.74,-10.51 1467.75,-6.99 1467.73,-13.99"/>
</a>
</g>
</g>
<!-- Node8 -->
<g id="Node000008" class="node">
<title>Node8</title>
<g id="a_Node000008"><a xlink:title=" ">
<polygon fill="#e0e0e0" stroke="#999999" points="2116.62,-19.25 2068.38,-19.25 2068.38,0 2116.62,0 2116.62,-19.25"/>
<text text-anchor="middle" x="2092.5" y="-5.75" font-family="Helvetica,sans-Serif" font-size="10.00">cstddef</text>
</a>
</g>
</g>
<!-- Node3&#45;&gt;Node8 -->
<g id="edge15_Node000003_Node000008" class="edge">
<title>Node3&#45;&gt;Node8</title>
<g id="a_edge15_Node000003_Node000008"><a xlink:title=" ">
<path fill="none" stroke="#63b8ff" d="M1616.06,-201.98C1755.69,-200.08 2117.54,-191.39 2153.5,-152.25 2187.48,-115.27 2138.9,-56.44 2110.52,-27.64"/>
<polygon fill="#63b8ff" stroke="#63b8ff" points="2113.13,-25.3 2103.55,-20.78 2108.22,-30.29 2113.13,-25.3"/>
</a>
</g>
</g>
<!-- Node3&#45;&gt;Node10 -->
<g id="edge18_Node000003_Node000010" class="edge">
<title>Node3&#45;&gt;Node10</title>
<g id="a_edge18_Node000003_Node000010"><a xlink:title=" ">
<path fill="none" stroke="#63b8ff" d="M1615.87,-202.79C1780.97,-203.13 2268.38,-200.05 2319.5,-152.25 2352.79,-121.13 2348.09,-61.75 2342.78,-30.69"/>
<polygon fill="#63b8ff" stroke="#63b8ff" points="2346.26,-30.26 2340.93,-21.1 2339.38,-31.58 2346.26,-30.26"/>
</a>
</g>
</g>
<!-- Node3&#45;&gt;Node12 -->
<g id="edge16_Node000003_Node000012" class="edge">
<title>Node3&#45;&gt;Node12</title>
<g id="a_edge16_Node000003_Node000012"><a xlink:title=" ">
<path fill="none" stroke="#63b8ff" d="M1615.9,-201.33C1759.49,-197.81 2140.86,-185.39 2186.5,-152.25 2207.74,-136.83 2216.51,-106.47 2220.09,-86.18"/>
<polygon fill="#63b8ff" stroke="#63b8ff" points="2223.55,-86.7 2221.52,-76.3 2216.62,-85.69 2223.55,-86.7"/>
</a>
</g>
</g>
<!-- Node13 -->
<g id="Node000013" class="node">
<title>Node13</title>
<g id="a_Node000013"><a xlink:title=" ">
<polygon fill="#e0e0e0" stroke="#999999" points="2310.25,-141 2238.75,-141 2238.75,-121.75 2310.25,-121.75 2310.25,-141"/>
<text text-anchor="middle" x="2274.5" y="-127.5" font-family="Helvetica,sans-Serif" font-size="10.00">initializer_list</text>
</a>
</g>
</g>
<!-- Node3&#45;&gt;Node13 -->
<g id="edge17_Node000003_Node000013" class="edge">
<title>Node3&#45;&gt;Node13</title>
<g id="a_edge17_Node000003_Node000013"><a xlink:title=" ">
<path fill="none" stroke="#63b8ff" d="M1615.73,-200.5C1752.55,-195.12 2109.07,-178.91 2224.5,-152.25 2231.55,-150.62 2238.91,-148.16 2245.74,-145.52"/>
<polygon fill="#63b8ff" stroke="#63b8ff" points="2246.63,-148.94 2254.54,-141.89 2243.96,-142.47 2246.63,-148.94"/>
</a>
</g>
</g>
<!-- Node14 -->
<g id="Node000014" class="node">
<title>Node14</title>
<g id="a_Node000014"><a xlink:title=" ">
<polygon fill="#e0e0e0" stroke="#999999" points="229.75,-141 191.25,-141 191.25,-121.75 229.75,-121.75 229.75,-141"/>
<text text-anchor="middle" x="210.5" y="-127.5" font-family="Helvetica,sans-Serif" font-size="10.00">utility</text>
</a>
</g>
</g>
<!-- Node3&#45;&gt;Node14 -->
<g id="edge19_Node000003_Node000014" class="edge">
<title>Node3&#45;&gt;Node14</title>
<g id="a_edge19_Node000003_Node000014"><a xlink:title=" ">
<path fill="none" stroke="#63b8ff" d="M1507.26,-202.27C1273.68,-201.01 359.83,-193.49 238.5,-152.25 235.33,-151.17 232.19,-149.61 229.24,-147.82"/>
<polygon fill="#63b8ff" stroke="#63b8ff" points="231.48,-145.12 221.31,-142.17 227.42,-150.83 231.48,-145.12"/>
</a>
</g>
</g>
<!-- Node15 -->
<g id="Node000015" class="node">
<title>Node15</title>
<g id="a_Node000015"><a xlink:title=" ">
<polygon fill="#e0e0e0" stroke="#999999" points="377.5,-146.62 247.5,-146.62 247.5,-116.12 377.5,-116.12 377.5,-146.62"/>
<text text-anchor="start" x="255.5" y="-133.12" font-family="Helvetica,sans-Serif" font-size="10.00">typed_linear_algebra</text>
<text text-anchor="middle" x="312.5" y="-121.88" font-family="Helvetica,sans-Serif" font-size="10.00">_internal/algorithm/add.tpp</text>
</a>
</g>
</g>
<!-- Node3&#45;&gt;Node15 -->
<g id="edge20_Node000003_Node000015" class="edge">
<title>Node3&#45;&gt;Node15</title>
<g id="a_edge20_Node000003_Node000015"><a xlink:title=" ">
<path fill="none" stroke="#63b8ff" d="M1507.1,-201.76C1306.27,-198.77 606.85,-186.13 386.5,-152.25 381.84,-151.53 377.05,-150.63 372.26,-149.62"/>
<polygon fill="#63b8ff" stroke="#63b8ff" points="373.14,-146.23 362.61,-147.4 371.57,-153.05 373.14,-146.23"/>
</a>
</g>
</g>
<!-- Node16 -->
<g id="Node000016" class="node">
<title>Node16</title>
<g id="a_Node000016"><a xlink:title=" ">
<polygon fill="#e0e0e0" stroke="#999999" points="535.38,-146.62 395.62,-146.62 395.62,-116.12 535.38,-116.12 535.38,-146.62"/>
<text text-anchor="start" x="403.62" y="-133.12" font-family="Helvetica,sans-Serif" font-size="10.00">typed_linear_algebra</text>
<text text-anchor="middle" x="465.5" y="-121.88" font-family="Helvetica,sans-Serif" font-size="10.00">_internal/algorithm/divide.tpp</text>
</a>
</g>
</g>
<!-- Node3&#45;&gt;Node16 -->
<g id="edge21_Node000003_Node000016" class="edge">
<title>Node3&#45;&gt;Node16</title>
<g id="a_edge21_Node000003_Node000016"><a xlink:title=" ">
<path fill="none" stroke="#63b8ff" d="M1507.02,-201.22C1324.09,-196.72 732.79,-180.31 544.5,-152.25 539.35,-151.48 534.05,-150.53 528.74,-149.45"/>
<polygon fill="#63b8ff" stroke="#63b8ff" points="529.9,-146.12 519.38,-147.41 528.41,-152.96 529.9,-146.12"/>
</a>
</g>
</g>
<!-- Node17 -->
<g id="Node000017" class="node">
<title>Node17</title>
<g id="a_Node000017"><a xlink:title=" ">
<polygon fill="#e0e0e0" stroke="#999999" points="675.38,-152.25 553.62,-152.25 553.62,-110.5 675.38,-110.5 675.38,-152.25"/>
<text text-anchor="start" x="561.62" y="-138.75" font-family="Helvetica,sans-Serif" font-size="10.00">typed_linear_algebra</text>
<text text-anchor="start" x="561.62" y="-127.5" font-family="Helvetica,sans-Serif" font-size="10.00">_internal/algorithm/equal</text>
<text text-anchor="middle" x="614.5" y="-116.25" font-family="Helvetica,sans-Serif" font-size="10.00">_to.tpp</text>
</a>
</g>
</g>
<!-- Node3&#45;&gt;Node17 -->
<g id="edge22_Node000003_Node000017" class="edge">
<title>Node3&#45;&gt;Node17</title>
<g id="a_edge22_Node000003_Node000017"><a xlink:title=" ">
<path fill="none" stroke="#63b8ff" d="M1507.1,-200.95C1344.88,-196.07 865.22,-179.85 687.08,-152.42"/>
<polygon fill="#63b8ff" stroke="#63b8ff" points="687.71,-148.98 677.28,-150.84 686.59,-155.89 687.71,-148.98"/>
</a>
</g>
</g>
<!-- Node18 -->
<g id="Node000018" class="node">
<title>Node18</title>
<g id="a_Node000018"><a xlink:title=" ">
<polygon fill="#e0e0e0" stroke="#999999" points="817.88,-152.25 693.12,-152.25 693.12,-110.5 817.88,-110.5 817.88,-152.25"/>
<text text-anchor="start" x="701.12" y="-138.75" font-family="Helvetica,sans-Serif" font-size="10.00">typed_linear_algebra</text>
<text text-anchor="start" x="701.12" y="-127.5" font-family="Helvetica,sans-Serif" font-size="10.00">_internal/algorithm/matrix</text>
<text text-anchor="middle" x="755.5" y="-116.25" font-family="Helvetica,sans-Serif" font-size="10.00">_product.tpp</text>
</a>
</g>
</g>
<!-- Node3&#45;&gt;Node18 -->
<g id="edge23_Node000003_Node000018" class="edge">
<title>Node3&#45;&gt;Node18</title>
<g id="a_edge23_Node000003_Node000018"><a xlink:title=" ">
<path fill="none" stroke="#63b8ff" d="M1507.19,-202.5C1386.64,-201.7 1087.64,-195.31 829.27,-152.34"/>
<polygon fill="#63b8ff" stroke="#63b8ff" points="830.1,-148.93 819.65,-150.72 828.93,-155.84 830.1,-148.93"/>
</a>
</g>
</g>
<!-- Node19 -->
<g id="Node000019" class="node">
<title>Node19</title>
<g id="a_Node000019"><a xlink:title=" ">
<polygon fill="#e0e0e0" stroke="#999999" points="982.75,-146.62 836.25,-146.62 836.25,-116.12 982.75,-116.12 982.75,-146.62"/>
<text text-anchor="start" x="844.25" y="-133.12" font-family="Helvetica,sans-Serif" font-size="10.00">typed_linear_algebra</text>
<text text-anchor="middle" x="909.5" y="-121.88" font-family="Helvetica,sans-Serif" font-size="10.00">_internal/algorithm/product.tpp</text>
</a>
</g>
</g>
<!-- Node3&#45;&gt;Node19 -->
<g id="edge24_Node000003_Node000019" class="edge">
<title>Node3&#45;&gt;Node19</title>
<g id="a_edge24_Node000003_Node000019"><a xlink:title=" ">
<path fill="none" stroke="#63b8ff" d="M1506.93,-200.41C1405.05,-195.91 1179.22,-183.1 991.5,-152.25 986.57,-151.44 981.5,-150.49 976.41,-149.46"/>
<polygon fill="#63b8ff" stroke="#63b8ff" points="977.28,-146.07 966.77,-147.4 975.82,-152.91 977.28,-146.07"/>
</a>
</g>
</g>
<!-- Node20 -->
<g id="Node000020" class="node">
<title>Node20</title>
<g id="a_Node000020"><a xlink:title=" ">
<polygon fill="#e0e0e0" stroke="#999999" points="1138.25,-146.62 1000.75,-146.62 1000.75,-116.12 1138.25,-116.12 1138.25,-146.62"/>
<text text-anchor="start" x="1008.75" y="-133.12" font-family="Helvetica,sans-Serif" font-size="10.00">typed_linear_algebra</text>
<text text-anchor="middle" x="1069.5" y="-121.88" font-family="Helvetica,sans-Serif" font-size="10.00">_internal/algorithm/scale.tpp</text>
</a>
</g>
</g>
<!-- Node3&#45;&gt;Node20 -->
<g id="edge25_Node000003_Node000020" class="edge">
<title>Node3&#45;&gt;Node20</title>
<g id="a_edge25_Node000003_Node000020"><a xlink:title=" ">
<path fill="none" stroke="#63b8ff" d="M1506.91,-198.13C1427.39,-191.25 1275.24,-176.17 1147.5,-152.25 1143.22,-151.45 1138.82,-150.55 1134.4,-149.58"/>
<polygon fill="#63b8ff" stroke="#63b8ff" points="1135.43,-146.23 1124.9,-147.41 1133.87,-153.05 1135.43,-146.23"/>
</a>
</g>
</g>
<!-- Node21 -->
<g id="Node000021" class="node">
<title>Node21</title>
<g id="a_Node000021"><a xlink:title=" ">
<polygon fill="#e0e0e0" stroke="#999999" points="1310.88,-146.62 1156.12,-146.62 1156.12,-116.12 1310.88,-116.12 1310.88,-146.62"/>
<text text-anchor="start" x="1164.12" y="-133.12" font-family="Helvetica,sans-Serif" font-size="10.00">typed_linear_algebra</text>
<text text-anchor="middle" x="1233.5" y="-121.88" font-family="Helvetica,sans-Serif" font-size="10.00">_internal/algorithm/substract.tpp</text>
</a>
</g>
</g>
<!-- Node3&#45;&gt;Node21 -->
<g id="edge26_Node000003_Node000021" class="edge">
<title>Node3&#45;&gt;Node21</title>
<g id="a_edge26_Node000003_Node000021"><a xlink:title=" ">
<path fill="none" stroke="#63b8ff" d="M1506.88,-191.42C1457.99,-181.43 1384.39,-166.21 1320.5,-152.25 1316.48,-151.37 1312.36,-150.46 1308.2,-149.54"/>
<polygon fill="#63b8ff" stroke="#63b8ff" points="1309.14,-146.16 1298.62,-147.39 1307.61,-152.99 1309.14,-146.16"/>
</a>
</g>
</g>
<!-- Node22 -->
<g id="Node000022" class="node">
<title>Node22</title>
<g id="a_Node000022"><a xlink:title=" ">
<polygon fill="#e0e0e0" stroke="#999999" points="1491.62,-146.62 1329.38,-146.62 1329.38,-116.12 1491.62,-116.12 1491.62,-146.62"/>
<text text-anchor="start" x="1337.38" y="-133.12" font-family="Helvetica,sans-Serif" font-size="10.00">typed_linear_algebra</text>
<text text-anchor="middle" x="1410.5" y="-121.88" font-family="Helvetica,sans-Serif" font-size="10.00">_internal/algorithm/transposed.tpp</text>
</a>
</g>
</g>
<!-- Node3&#45;&gt;Node22 -->
<g id="edge27_Node000003_Node000022" class="edge">
<title>Node3&#45;&gt;Node22</title>
<g id="a_edge27_Node000003_Node000022"><a xlink:title=" ">
<path fill="none" stroke="#63b8ff" d="M1529.85,-187.8C1507.4,-177.37 1477.03,-163.27 1452.55,-151.9"/>
<polygon fill="#63b8ff" stroke="#63b8ff" points="1454.03,-148.73 1443.49,-147.69 1451.08,-155.08 1454.03,-148.73"/>
</a>
</g>
</g>
<!-- Node23 -->
<g id="Node000023" class="node">
<title>Node23</title>
<g id="a_Node000023"><a xlink:title=" ">
<polygon fill="#e0e0e0" stroke="#999999" points="1613.75,-146.62 1509.25,-146.62 1509.25,-116.12 1613.75,-116.12 1613.75,-146.62"/>
<text text-anchor="start" x="1517.25" y="-133.12" font-family="Helvetica,sans-Serif" font-size="10.00">typed_linear_algebra</text>
<text text-anchor="middle" x="1561.5" y="-121.88" font-family="Helvetica,sans-Serif" font-size="10.00">_internal/cast.tpp</text>
</a>
</g>
</g>
<!-- Node3&#45;&gt;Node23 -->
<g id="edge28_Node000003_Node000023" class="edge">
<title>Node3&#45;&gt;Node23</title>
<g id="a_edge28_Node000003_Node000023"><a xlink:title=" ">
<path fill="none" stroke="#63b8ff" d="M1561.5,-187.97C1561.5,-179.41 1561.5,-168.34 1561.5,-158.33"/>
<polygon fill="#63b8ff" stroke="#63b8ff" points="1565,-158.4 1561.5,-148.4 1558,-158.4 1565,-158.4"/>
</a>
</g>
</g>
<!-- Node24 -->
<g id="Node000024" class="node">
<title>Node24</title>
<g id="a_Node000024"><a xlink:title=" ">
<polygon fill="#e0e0e0" stroke="#999999" points="1736.75,-146.62 1632.25,-146.62 1632.25,-116.12 1736.75,-116.12 1736.75,-146.62"/>
<text text-anchor="start" x="1640.25" y="-133.12" font-family="Helvetica,sans-Serif" font-size="10.00">typed_linear_algebra</text>
<text text-anchor="middle" x="1684.5" y="-121.88" font-family="Helvetica,sans-Serif" font-size="10.00">_internal/tuple.tpp</text>
</a>
</g>
</g>
<!-- Node3&#45;&gt;Node24 -->
<g id="edge29_Node000003_Node000024" class="edge">
<title>Node3&#45;&gt;Node24</title>
<g id="a_edge29_Node000003_Node000024"><a xlink:title=" ">
<path fill="none" stroke="#63b8ff" d="M1587.28,-187.8C1605.16,-177.61 1629.2,-163.9 1648.9,-152.67"/>
<polygon fill="#63b8ff" stroke="#63b8ff" points="1650.48,-155.8 1657.43,-147.81 1647.01,-149.72 1650.48,-155.8"/>
</a>
</g>
</g>
<!-- Node25 -->
<g id="Node000025" class="node">
<title>Node25</title>
<g id="a_Node000025"><a xlink:title=" ">
<polygon fill="#e0e0e0" stroke="#999999" points="1862.25,-152.25 1754.75,-152.25 1754.75,-110.5 1862.25,-110.5 1862.25,-152.25"/>
<text text-anchor="start" x="1762.75" y="-138.75" font-family="Helvetica,sans-Serif" font-size="10.00">typed_linear_algebra</text>
<text text-anchor="start" x="1762.75" y="-127.5" font-family="Helvetica,sans-Serif" font-size="10.00">_internal/typed_linear</text>
<text text-anchor="middle" x="1808.5" y="-116.25" font-family="Helvetica,sans-Serif" font-size="10.00">_algebra.tpp</text>
</a>
</g>
</g>
<!-- Node3&#45;&gt;Node25 -->
<g id="edge30_Node000003_Node000025" class="edge">
<title>Node3&#45;&gt;Node25</title>
<g id="a_edge30_Node000003_Node000025"><a xlink:title=" ">
<path fill="none" stroke="#63b8ff" d="M1616,-188.21C1650.12,-179.13 1695.25,-166.88 1743.57,-152.77"/>
<polygon fill="#63b8ff" stroke="#63b8ff" points="1744.52,-156.14 1753.13,-149.96 1742.55,-149.42 1744.52,-156.14"/>
</a>
</g>
</g>
<!-- Node5&#45;&gt;Node6 -->
<g id="edge5_Node000005_Node000006" class="edge">
<title>Node5&#45;&gt;Node6</title>
<g id="a_edge5_Node000005_Node000006"><a xlink:title=" ">
<path fill="none" stroke="#63b8ff" d="M2075.25,-115.74C2063.39,-105.67 2047.63,-92.29 2035.42,-81.93"/>
<polygon fill="#63b8ff" stroke="#63b8ff" points="2037.94,-79.48 2028.05,-75.68 2033.41,-84.82 2037.94,-79.48"/>
</a>
</g>
</g>
<!-- Node5&#45;&gt;Node8 -->
<g id="edge11_Node000005_Node000008" class="edge">
<title>Node5&#45;&gt;Node8</title>
<g id="a_edge11_Node000005_Node000008"><a xlink:title=" ">
<path fill="none" stroke="#63b8ff" d="M2092.5,-115.69C2092.5,-94.41 2092.5,-54.92 2092.5,-30.88"/>
<polygon fill="#63b8ff" stroke="#63b8ff" points="2096,-31.13 2092.5,-21.13 2089,-31.13 2096,-31.13"/>
</a>
</g>
</g>
<!-- Node5&#45;&gt;Node12 -->
<g id="edge12_Node000005_Node000012" class="edge">
<title>Node5&#45;&gt;Node12</title>
<g id="a_edge12_Node000005_Node000012"><a xlink:title=" ">
<path fill="none" stroke="#63b8ff" d="M2122,-115.74C2143.66,-104.99 2172.91,-90.48 2194.27,-79.88"/>
<polygon fill="#63b8ff" stroke="#63b8ff" points="2195.58,-83.14 2202.98,-75.56 2192.47,-76.87 2195.58,-83.14"/>
</a>
</g>
</g>
<!-- Node6&#45;&gt;Node7 -->
<g id="edge6_Node000006_Node000007" class="edge">
<title>Node6&#45;&gt;Node7</title>
<g id="a_edge6_Node000006_Node000007"><a xlink:title=" ">
<path fill="none" stroke="#63b8ff" d="M1988.04,-60.9C1902.24,-51.92 1645.89,-25.1 1547.01,-14.76"/>
<polygon fill="#63b8ff" stroke="#63b8ff" points="1547.57,-11.3 1537.26,-13.74 1546.84,-18.26 1547.57,-11.3"/>
</a>
</g>
</g>
<!-- Node6&#45;&gt;Node8 -->
<g id="edge7_Node000006_Node000008" class="edge">
<title>Node6&#45;&gt;Node8</title>
<g id="a_edge7_Node000006_Node000008"><a xlink:title=" ">
<path fill="none" stroke="#63b8ff" d="M2029.39,-54.84C2040.53,-47.04 2056.87,-35.59 2070.14,-26.29"/>
<polygon fill="#63b8ff" stroke="#63b8ff" points="2072.12,-29.18 2078.3,-20.57 2068.11,-23.44 2072.12,-29.18"/>
</a>
</g>
</g>
<!-- Node9 -->
<g id="Node000009" class="node">
<title>Node9</title>
<g id="a_Node000009"><a xlink:title=" ">
<polygon fill="#e0e0e0" stroke="#999999" points="2045.5,-19.25 1987.5,-19.25 1987.5,0 2045.5,0 2045.5,-19.25"/>
<text text-anchor="middle" x="2016.5" y="-5.75" font-family="Helvetica,sans-Serif" font-size="10.00">functional</text>
</a>
</g>
</g>
<!-- Node6&#45;&gt;Node9 -->
<g id="edge8_Node000006_Node000009" class="edge">
<title>Node6&#45;&gt;Node9</title>
<g id="a_edge8_Node000006_Node000009"><a xlink:title=" ">
<path fill="none" stroke="#63b8ff" d="M2016.5,-55.08C2016.5,-48.57 2016.5,-39.42 2016.5,-31.12"/>
<polygon fill="#63b8ff" stroke="#63b8ff" points="2020,-31.12 2016.5,-21.12 2013,-31.12 2020,-31.12"/>
</a>
</g>
</g>
<!-- Node6&#45;&gt;Node10 -->
<g id="edge9_Node000006_Node000010" class="edge">
<title>Node6&#45;&gt;Node10</title>
<g id="a_edge9_Node000006_Node000010"><a xlink:title=" ">
<path fill="none" stroke="#63b8ff" d="M2045.08,-59.15C2105.68,-49.13 2246.61,-25.82 2308.47,-15.59"/>
<polygon fill="#63b8ff" stroke="#63b8ff" points="2308.96,-19.06 2318.25,-13.97 2307.81,-12.15 2308.96,-19.06"/>
</a>
</g>
</g>
<!-- Node6&#45;&gt;Node11 -->
<g id="edge10_Node000006_Node000011" class="edge">
<title>Node6&#45;&gt;Node11</title>
<g id="a_edge10_Node000006_Node000011"><a xlink:title=" ">
<path fill="none" stroke="#63b8ff" d="M1987.8,-62.82C1806.72,-56.19 823.08,-20.14 605.94,-12.18"/>
<polygon fill="#63b8ff" stroke="#63b8ff" points="606.09,-8.68 595.97,-11.81 605.83,-15.68 606.09,-8.68"/>
</a>
</g>
</g>
</g>
</svg>

<g id="navigator" transform="translate(0 0)" fill="#404254">
  <rect fill="#f2f5e9" fill-opacity="0.5" stroke="#606060" stroke-width=".5" x="0" y="0" width="60" height="60"/>
  <use id="zoomplus" xlink:href="#zoomPlus" x="17" y="9" onmousedown="handleZoom(evt,'in')"/>
  <use id="zoomminus" xlink:href="#zoomMin" x="42" y="9" onmousedown="handleZoom(evt,'out')"/>
  <use id="reset" xlink:href="#resetDef" x="30" y="36" onmousedown="handleReset()"/>
   <use id="arrowup" xlink:href="#arrowUp" x="0" y="0" onmousedown="handlePan(0,-1)"/>
  <use id="arrowright" xlink:href="#arrowRight" x="0" y="0" onmousedown="handlePan(1,0)"/>
  <use id="arrowdown" xlink:href="#arrowDown" x="0" y="0" onmousedown="handlePan(0,1)"/>
  <use id="arrowleft" xlink:href="#arrowLeft" x="0" y="0" onmousedown="handlePan(-1,0)"/>
</g>
<svg viewBox="0 0 15 15" width="100%" height="30px" preserveAspectRatio="xMaxYMin meet">
 <g id="arrow_out" transform="scale(0.3 0.3)">
  <a xlink:href="mp__units__eigen_8cpp__incl_org.svg" target="_base">
   <rect id="button" ry="5" rx="5" y="6" x="6" height="38" width="38"
        fill="#f2f5e9" fill-opacity="0.5" stroke="#606060" stroke-width="1.0"/>
   <path id="arrow"
     d="M 11.500037,31.436501 C 11.940474,20.09759 22.043105,11.32322 32.158766,21.979434 L 37.068811,17.246167 C 37.068811,17.246167 37.088388,32 37.088388,32 L 22.160133,31.978069 C 22.160133,31.978069 26.997745,27.140456 26.997745,27.140456 C 18.528582,18.264221 13.291696,25.230495 11.500037,31.436501 z"
     style="fill:#404040;"/>
  </a>
 </g>
</svg>

<style type='text/css'>
<![CDATA[
[data-mouse-over-selected='false'] { opacity: 0.7; }
[data-mouse-over-selected='true']  { opacity: 1.0; }
]]>
</style>
<script type="application/ecmascript"><![CDATA[
document.addEventListener('DOMContentLoaded', (event) => {
  highlightEdges();
  highlightAdjacentNodes();
});
]]></script>
</svg>
