<?xml version="1.0" encoding="UTF-8" standalone="no"?>
<!DOCTYPE svg PUBLIC "-//W3C//DTD SVG 1.1//EN"
 "http://www.w3.org/Graphics/SVG/1.1/DTD/svg11.dtd">
<!-- Generated by graphviz version 12.2.0 (20241103.1931)
 -->
<!-- Title: /github/workspace/sample/mp_units_std.cpp Pages: 1 -->
<svg width="3127pt" height="293pt"
 viewBox="0.00 0.00 3127.12 293.25" xmlns="http://www.w3.org/2000/svg" xmlns:xlink="http://www.w3.org/1999/xlink">
<g id="graph0" class="graph" transform="scale(1 1) rotate(0) translate(4 289.25)">
<title>/github/workspace/sample/mp_units_std.cpp</title>
<!-- Node1 -->
<g id="Node000001" class="node">
<title>Node1</title>
<g id="a_Node000001"><a xlink:title="Unit safe linear algebra with mp&#45;units and Eigen.">
<polygon fill="#999999" stroke="#666666" points="2474.5,-285.25 2344.5,-285.25 2344.5,-254.75 2474.5,-254.75 2474.5,-285.25"/>
<text text-anchor="start" x="2352.5" y="-271.75" font-family="Helvetica,sans-Serif" font-size="10.00">/github/workspace/sample</text>
<text text-anchor="middle" x="2409.5" y="-260.5" font-family="Helvetica,sans-Serif" font-size="10.00">/mp_units_std.cpp</text>
</a>
</g>
</g>
<!-- Node2 -->
<g id="Node000002" class="node">
<title>Node2</title>
<g id="a_Node000002"><a xlink:href="typed__linear__algebra_8hpp.xhtml" target="_top" xlink:title="Typed linear algebra implementation.">
<polygon fill="white" stroke="#666666" points="1409.62,-218.75 1301.38,-218.75 1301.38,-188.25 1409.62,-188.25 1409.62,-218.75"/>
<text text-anchor="start" x="1309.38" y="-205.25" font-family="Helvetica,sans-Serif" font-size="10.00">fcarouge/typed_linear</text>
<text text-anchor="middle" x="1355.5" y="-194" font-family="Helvetica,sans-Serif" font-size="10.00">_algebra.hpp</text>
</a>
</g>
</g>
<!-- Node1&#45;&gt;Node2 -->
<g id="edge1_Node000001_Node000002" class="edge">
<title>Node1&#45;&gt;Node2</title>
<g id="a_edge1_Node000001_Node000002"><a xlink:title=" ">
<path fill="none" stroke="#63b8ff" d="M2344.36,-265.01C2155.77,-253.47 1610.68,-220.12 1421.28,-208.53"/>
<polygon fill="#63b8ff" stroke="#63b8ff" points="1421.56,-205.04 1411.37,-207.92 1421.13,-212.02 1421.56,-205.04"/>
</a>
</g>
</g>
<!-- Node7 -->
<g id="Node000007" class="node">
<title>Node7</title>
<g id="a_Node000007"><a xlink:title=" ">
<polygon fill="#e0e0e0" stroke="#999999" points="2172.62,-19.25 2124.38,-19.25 2124.38,0 2172.62,0 2172.62,-19.25"/>
<text text-anchor="middle" x="2148.5" y="-5.75" font-family="Helvetica,sans-Serif" font-size="10.00">cstddef</text>
</a>
</g>
</g>
<!-- Node1&#45;&gt;Node7 -->
<g id="edge30_Node000001_Node000007" class="edge">
<title>Node1&#45;&gt;Node7</title>
<g id="a_edge30_Node000001_Node000007"><a xlink:title=" ">
<path fill="none" stroke="#63b8ff" d="M2354.19,-254.35C2331.99,-246.47 2307.27,-234.95 2288.5,-218.75 2224.37,-163.38 2241.61,-122.82 2190.5,-55.25 2183.15,-45.53 2173.96,-35.57 2166.06,-27.54"/>
<polygon fill="#63b8ff" stroke="#63b8ff" points="2168.77,-25.3 2159.21,-20.74 2163.84,-30.27 2168.77,-25.3"/>
</a>
</g>
</g>
<!-- Node9 -->
<g id="Node000009" class="node">
<title>Node9</title>
<g id="a_Node000009"><a xlink:title=" ">
<polygon fill="#e0e0e0" stroke="#999999" points="37,-19.25 0,-19.25 0,0 37,0 37,-19.25"/>
<text text-anchor="middle" x="18.5" y="-5.75" font-family="Helvetica,sans-Serif" font-size="10.00">tuple</text>
</a>
</g>
</g>
<!-- Node1&#45;&gt;Node9 -->
<g id="edge35_Node000001_Node000009" class="edge">
<title>Node1&#45;&gt;Node9</title>
<g id="a_edge35_Node000001_Node000009"><a xlink:title=" ">
<path fill="none" stroke="#63b8ff" d="M2344.15,-268.83C2000.66,-267.76 411.64,-260.57 196.5,-218.75 114.42,-202.8 68.53,-220.7 20.5,-152.25 -5.08,-115.79 4.53,-60.03 12.35,-30.53"/>
<polygon fill="#63b8ff" stroke="#63b8ff" points="15.66,-31.66 15.06,-21.08 8.94,-29.73 15.66,-31.66"/>
</a>
</g>
</g>
<!-- Node10 -->
<g id="Node000010" class="node">
<title>Node10</title>
<g id="a_Node000010"><a xlink:title=" ">
<polygon fill="#e0e0e0" stroke="#999999" points="1014,-19.25 953,-19.25 953,0 1014,0 1014,-19.25"/>
<text text-anchor="middle" x="983.5" y="-5.75" font-family="Helvetica,sans-Serif" font-size="10.00">type_traits</text>
</a>
</g>
</g>
<!-- Node1&#45;&gt;Node10 -->
<g id="edge36_Node000001_Node000010" class="edge">
<title>Node1&#45;&gt;Node10</title>
<g id="a_edge36_Node000001_Node000010"><a xlink:title=" ">
<path fill="none" stroke="#63b8ff" d="M2344.2,-268.3C1970.73,-263.99 119.12,-238.3 37.5,-152.25 -91.43,-16.31 741.85,-9.98 941.3,-10.39"/>
<polygon fill="#63b8ff" stroke="#63b8ff" points="941.2,-13.89 951.21,-10.42 941.22,-6.89 941.2,-13.89"/>
</a>
</g>
</g>
<!-- Node11 -->
<g id="Node000011" class="node">
<title>Node11</title>
<g id="a_Node000011"><a xlink:title=" ">
<polygon fill="#e0e0e0" stroke="#999999" points="2165.38,-74.5 2121.62,-74.5 2121.62,-55.25 2165.38,-55.25 2165.38,-74.5"/>
<text text-anchor="middle" x="2143.5" y="-61" font-family="Helvetica,sans-Serif" font-size="10.00">format</text>
</a>
</g>
</g>
<!-- Node1&#45;&gt;Node11 -->
<g id="edge31_Node000001_Node000011" class="edge">
<title>Node1&#45;&gt;Node11</title>
<g id="a_edge31_Node000001_Node000011"><a xlink:title=" ">
<path fill="none" stroke="#63b8ff" d="M2344.26,-257.23C2315.13,-249.69 2281.58,-237.64 2255.5,-218.75 2205.67,-182.65 2168.87,-117.7 2152.66,-85.32"/>
<polygon fill="#63b8ff" stroke="#63b8ff" points="2155.81,-83.81 2148.29,-76.34 2149.52,-86.87 2155.81,-83.81"/>
</a>
</g>
</g>
<!-- Node25 -->
<g id="Node000025" class="node">
<title>Node25</title>
<g id="a_Node000025"><a xlink:title=" ">
<polygon fill="#e0e0e0" stroke="#999999" points="2335.75,-213.12 2297.25,-213.12 2297.25,-193.88 2335.75,-193.88 2335.75,-213.12"/>
<text text-anchor="middle" x="2316.5" y="-199.62" font-family="Helvetica,sans-Serif" font-size="10.00">linalg</text>
</a>
</g>
</g>
<!-- Node1&#45;&gt;Node25 -->
<g id="edge32_Node000001_Node000025" class="edge">
<title>Node1&#45;&gt;Node25</title>
<g id="a_edge32_Node000001_Node000025"><a xlink:title=" ">
<path fill="none" stroke="#63b8ff" d="M2388.4,-254.36C2373.54,-244.06 2353.69,-230.29 2338.61,-219.83"/>
<polygon fill="#63b8ff" stroke="#63b8ff" points="2340.95,-217.2 2330.73,-214.37 2336.96,-222.95 2340.95,-217.2"/>
</a>
</g>
</g>
<!-- Node26 -->
<g id="Node000026" class="node">
<title>Node26</title>
<g id="a_Node000026"><a xlink:title=" ">
<polygon fill="#e0e0e0" stroke="#999999" points="2404.75,-213.12 2354.25,-213.12 2354.25,-193.88 2404.75,-193.88 2404.75,-213.12"/>
<text text-anchor="middle" x="2379.5" y="-199.62" font-family="Helvetica,sans-Serif" font-size="10.00">mdspan</text>
</a>
</g>
</g>
<!-- Node1&#45;&gt;Node26 -->
<g id="edge33_Node000001_Node000026" class="edge">
<title>Node1&#45;&gt;Node26</title>
<g id="a_edge33_Node000001_Node000026"><a xlink:title=" ">
<path fill="none" stroke="#63b8ff" d="M2402.69,-254.36C2398.47,-245.28 2392.99,-233.51 2388.42,-223.68"/>
<polygon fill="#63b8ff" stroke="#63b8ff" points="2391.63,-222.29 2384.24,-214.7 2385.29,-225.24 2391.63,-222.29"/>
</a>
</g>
</g>
<!-- Node27 -->
<g id="Node000027" class="node">
<title>Node27</title>
<g id="a_Node000027"><a xlink:title=" ">
<polygon fill="#e0e0e0" stroke="#999999" points="2457.88,-213.12 2423.12,-213.12 2423.12,-193.88 2457.88,-193.88 2457.88,-213.12"/>
<text text-anchor="middle" x="2440.5" y="-199.62" font-family="Helvetica,sans-Serif" font-size="10.00">print</text>
</a>
</g>
</g>
<!-- Node1&#45;&gt;Node27 -->
<g id="edge34_Node000001_Node000027" class="edge">
<title>Node1&#45;&gt;Node27</title>
<g id="a_edge34_Node000001_Node000027"><a xlink:title=" ">
<path fill="none" stroke="#63b8ff" d="M2416.53,-254.36C2420.9,-245.28 2426.56,-233.51 2431.28,-223.68"/>
<polygon fill="#63b8ff" stroke="#63b8ff" points="2434.43,-225.22 2435.6,-214.69 2428.12,-222.18 2434.43,-225.22"/>
</a>
</g>
</g>
<!-- Node28 -->
<g id="Node000028" class="node">
<title>Node28</title>
<g id="a_Node000028"><a xlink:title=" ">
<polygon fill="#e0e0e0" stroke="#999999" points="2519,-213.12 2476,-213.12 2476,-193.88 2519,-193.88 2519,-213.12"/>
<text text-anchor="middle" x="2497.5" y="-199.62" font-family="Helvetica,sans-Serif" font-size="10.00">vector</text>
</a>
</g>
</g>
<!-- Node1&#45;&gt;Node28 -->
<g id="edge37_Node000001_Node000028" class="edge">
<title>Node1&#45;&gt;Node28</title>
<g id="a_edge37_Node000001_Node000028"><a xlink:title=" ">
<path fill="none" stroke="#63b8ff" d="M2429.47,-254.36C2443.39,-244.16 2461.95,-230.55 2476.17,-220.13"/>
<polygon fill="#63b8ff" stroke="#63b8ff" points="2477.99,-223.14 2483.99,-214.4 2473.85,-217.49 2477.99,-223.14"/>
</a>
</g>
</g>
<!-- Node29 -->
<g id="Node000029" class="node">
<title>Node29</title>
<g id="a_Node000029"><a xlink:title=" ">
<polygon fill="#e0e0e0" stroke="#999999" points="2639.62,-218.75 2537.38,-218.75 2537.38,-188.25 2639.62,-188.25 2639.62,-218.75"/>
<text text-anchor="start" x="2545.38" y="-205.25" font-family="Helvetica,sans-Serif" font-size="10.00">mp&#45;units/framework</text>
<text text-anchor="middle" x="2588.5" y="-194" font-family="Helvetica,sans-Serif" font-size="10.00">/quantity.h</text>
</a>
</g>
</g>
<!-- Node1&#45;&gt;Node29 -->
<g id="edge38_Node000001_Node000029" class="edge">
<title>Node1&#45;&gt;Node29</title>
<g id="a_edge38_Node000001_Node000029"><a xlink:title=" ">
<path fill="none" stroke="#63b8ff" d="M2450.12,-254.36C2475.89,-245.08 2509.46,-232.98 2537.08,-223.03"/>
<polygon fill="#63b8ff" stroke="#63b8ff" points="2538.09,-226.39 2546.31,-219.7 2535.72,-219.8 2538.09,-226.39"/>
</a>
</g>
</g>
<!-- Node30 -->
<g id="Node000030" class="node">
<title>Node30</title>
<g id="a_Node000030"><a xlink:title=" ">
<polygon fill="#e0e0e0" stroke="#999999" points="2759.62,-218.75 2657.38,-218.75 2657.38,-188.25 2759.62,-188.25 2759.62,-218.75"/>
<text text-anchor="start" x="2665.38" y="-205.25" font-family="Helvetica,sans-Serif" font-size="10.00">mp&#45;units/framework</text>
<text text-anchor="middle" x="2708.5" y="-194" font-family="Helvetica,sans-Serif" font-size="10.00">/quantity_point.h</text>
</a>
</g>
</g>
<!-- Node1&#45;&gt;Node30 -->
<g id="edge39_Node000001_Node000030" class="edge">
<title>Node1&#45;&gt;Node30</title>
<g id="a_edge39_Node000001_Node000030"><a xlink:title=" ">
<path fill="none" stroke="#63b8ff" d="M2474.77,-255.75C2520.24,-246.41 2582.58,-233.4 2646.1,-219.26"/>
<polygon fill="#63b8ff" stroke="#63b8ff" points="2646.66,-222.72 2655.66,-217.12 2645.13,-215.89 2646.66,-222.72"/>
</a>
</g>
</g>
<!-- Node31 -->
<g id="Node000031" class="node">
<title>Node31</title>
<g id="a_Node000031"><a xlink:title=" ">
<polygon fill="#e0e0e0" stroke="#999999" points="2863.38,-213.12 2777.62,-213.12 2777.62,-193.88 2863.38,-193.88 2863.38,-213.12"/>
<text text-anchor="middle" x="2820.5" y="-199.62" font-family="Helvetica,sans-Serif" font-size="10.00">mp&#45;units/math.h</text>
</a>
</g>
</g>
<!-- Node1&#45;&gt;Node31 -->
<g id="edge40_Node000001_Node000031" class="edge">
<title>Node1&#45;&gt;Node31</title>
<g id="a_edge40_Node000001_Node000031"><a xlink:title=" ">
<path fill="none" stroke="#63b8ff" d="M2474.78,-262.41C2547.06,-254.53 2666.8,-239.71 2768.5,-218.75 2771.87,-218.05 2775.35,-217.26 2778.84,-216.42"/>
<polygon fill="#63b8ff" stroke="#63b8ff" points="2779.58,-219.84 2788.4,-213.97 2777.84,-213.06 2779.58,-219.84"/>
</a>
</g>
</g>
<!-- Node32 -->
<g id="Node000032" class="node">
<title>Node32</title>
<g id="a_Node000032"><a xlink:title=" ">
<polygon fill="#e0e0e0" stroke="#999999" points="2990,-218.75 2881,-218.75 2881,-188.25 2990,-188.25 2990,-218.75"/>
<text text-anchor="start" x="2889" y="-205.25" font-family="Helvetica,sans-Serif" font-size="10.00">mp&#45;units/systems/isq</text>
<text text-anchor="middle" x="2935.5" y="-194" font-family="Helvetica,sans-Serif" font-size="10.00">/thermodynamics.h</text>
</a>
</g>
</g>
<!-- Node1&#45;&gt;Node32 -->
<g id="edge41_Node000001_Node000032" class="edge">
<title>Node1&#45;&gt;Node32</title>
<g id="a_edge41_Node000001_Node000032"><a xlink:title=" ">
<path fill="none" stroke="#63b8ff" d="M2475,-264.26C2562.79,-257.39 2723.64,-242.96 2869.66,-219.11"/>
<polygon fill="#63b8ff" stroke="#63b8ff" points="2869.81,-222.64 2879.1,-217.55 2868.67,-215.73 2869.81,-222.64"/>
</a>
</g>
</g>
<!-- Node33 -->
<g id="Node000033" class="node">
<title>Node33</title>
<g id="a_Node000033"><a xlink:title=" ">
<polygon fill="#e0e0e0" stroke="#999999" points="3119.12,-213.12 3007.88,-213.12 3007.88,-193.88 3119.12,-193.88 3119.12,-213.12"/>
<text text-anchor="middle" x="3063.5" y="-199.62" font-family="Helvetica,sans-Serif" font-size="10.00">mp&#45;units/systems/si.h</text>
</a>
</g>
</g>
<!-- Node1&#45;&gt;Node33 -->
<g id="edge42_Node000001_Node000033" class="edge">
<title>Node1&#45;&gt;Node33</title>
<g id="a_edge42_Node000001_Node000033"><a xlink:title=" ">
<path fill="none" stroke="#63b8ff" d="M2474.88,-266.3C2584.07,-261.15 2810.24,-247.75 2999.5,-218.75 3004.78,-217.94 3010.27,-216.95 3015.72,-215.87"/>
<polygon fill="#63b8ff" stroke="#63b8ff" points="3016.22,-219.34 3025.29,-213.87 3014.78,-212.49 3016.22,-219.34"/>
</a>
</g>
</g>
<!-- Node3 -->
<g id="Node000003" class="node">
<title>Node3</title>
<g id="a_Node000003"><a xlink:href="typed__linear__algebra__forward_8hpp.xhtml" target="_top" xlink:title="Authoritative forward declaration header.">
<polygon fill="white" stroke="#666666" points="1929.75,-146.62 1825.25,-146.62 1825.25,-116.12 1929.75,-116.12 1929.75,-146.62"/>
<text text-anchor="start" x="1833.25" y="-133.12" font-family="Helvetica,sans-Serif" font-size="10.00">typed_linear_algebra</text>
<text text-anchor="middle" x="1877.5" y="-121.88" font-family="Helvetica,sans-Serif" font-size="10.00">_forward.hpp</text>
</a>
</g>
</g>
<!-- Node2&#45;&gt;Node3 -->
<g id="edge2_Node000002_Node000003" class="edge">
<title>Node2&#45;&gt;Node3</title>
<g id="a_edge2_Node000002_Node000003"><a xlink:title=" ">
<path fill="none" stroke="#63b8ff" d="M1410.02,-200.2C1496.88,-195.72 1671.67,-183.39 1816.5,-152.25 1819.31,-151.65 1822.17,-150.96 1825.05,-150.22"/>
<polygon fill="#63b8ff" stroke="#63b8ff" points="1826,-153.59 1834.68,-147.52 1824.11,-146.85 1826,-153.59"/>
</a>
</g>
</g>
<!-- Node4 -->
<g id="Node000004" class="node">
<title>Node4</title>
<g id="a_Node000004"><a xlink:href="format_8hpp.xhtml" target="_top" xlink:title="Formatting support for the typed matrix.">
<polygon fill="white" stroke="#666666" points="2127.75,-146.62 2023.25,-146.62 2023.25,-116.12 2127.75,-116.12 2127.75,-146.62"/>
<text text-anchor="start" x="2031.25" y="-133.12" font-family="Helvetica,sans-Serif" font-size="10.00">typed_linear_algebra</text>
<text text-anchor="middle" x="2075.5" y="-121.88" font-family="Helvetica,sans-Serif" font-size="10.00">_internal/format.hpp</text>
</a>
</g>
</g>
<!-- Node2&#45;&gt;Node4 -->
<g id="edge3_Node000002_Node000004" class="edge">
<title>Node2&#45;&gt;Node4</title>
<g id="a_edge3_Node000002_Node000004"><a xlink:title=" ">
<path fill="none" stroke="#63b8ff" d="M1409.85,-202.27C1522.61,-200.93 1789.81,-193.27 2009.5,-152.25 2013.09,-151.58 2016.76,-150.79 2020.44,-149.91"/>
<polygon fill="#63b8ff" stroke="#63b8ff" points="2021.17,-153.34 2029.98,-147.45 2019.42,-146.56 2021.17,-153.34"/>
</a>
</g>
</g>
<!-- Node5 -->
<g id="Node000005" class="node">
<title>Node5</title>
<g id="a_Node000005"><a xlink:href="utility_8hpp.xhtml" target="_top" xlink:title=" ">
<polygon fill="white" stroke="#666666" points="2041.75,-74.5 1985.25,-74.5 1985.25,-55.25 2041.75,-55.25 2041.75,-74.5"/>
<text text-anchor="middle" x="2013.5" y="-61" font-family="Helvetica,sans-Serif" font-size="10.00">utility.hpp</text>
</a>
</g>
</g>
<!-- Node2&#45;&gt;Node5 -->
<g id="edge12_Node000002_Node000005" class="edge">
<title>Node2&#45;&gt;Node5</title>
<g id="a_edge12_Node000002_Node000005"><a xlink:title=" ">
<path fill="none" stroke="#63b8ff" d="M1410.04,-201.11C1552.1,-197.07 1925.72,-183.56 1971.5,-152.25 1993.84,-136.97 2004.74,-106.35 2009.72,-85.97"/>
<polygon fill="#63b8ff" stroke="#63b8ff" points="2013.11,-86.84 2011.79,-76.32 2006.27,-85.37 2013.11,-86.84"/>
</a>
</g>
</g>
<!-- Node6 -->
<g id="Node000006" class="node">
<title>Node6</title>
<g id="a_Node000006"><a xlink:title=" ">
<polygon fill="#e0e0e0" stroke="#999999" points="1985.38,-19.25 1929.62,-19.25 1929.62,0 1985.38,0 1985.38,-19.25"/>
<text text-anchor="middle" x="1957.5" y="-5.75" font-family="Helvetica,sans-Serif" font-size="10.00">concepts</text>
</a>
</g>
</g>
<!-- Node2&#45;&gt;Node6 -->
<g id="edge13_Node000002_Node000006" class="edge">
<title>Node2&#45;&gt;Node6</title>
<g id="a_edge13_Node000002_Node000006"><a xlink:title=" ">
<path fill="none" stroke="#63b8ff" d="M1409.95,-201.62C1547.49,-198.85 1900.71,-188.29 1938.5,-152.25 1971.48,-120.8 1966.91,-61.56 1961.7,-30.61"/>
<polygon fill="#63b8ff" stroke="#63b8ff" points="1965.19,-30.23 1959.89,-21.06 1958.32,-31.54 1965.19,-30.23"/>
</a>
</g>
</g>
<!-- Node2&#45;&gt;Node7 -->
<g id="edge14_Node000002_Node000007" class="edge">
<title>Node2&#45;&gt;Node7</title>
<g id="a_edge14_Node000002_Node000007"><a xlink:title=" ">
<path fill="none" stroke="#63b8ff" d="M1410.1,-202.81C1581.53,-203.3 2101.02,-200.71 2157.5,-152.25 2190.72,-123.75 2185.91,-97.5 2174.5,-55.25 2171.99,-45.97 2167.02,-36.63 2162.09,-28.91"/>
<polygon fill="#63b8ff" stroke="#63b8ff" points="2165.05,-27.04 2156.49,-20.8 2159.29,-31.02 2165.05,-27.04"/>
</a>
</g>
</g>
<!-- Node2&#45;&gt;Node9 -->
<g id="edge17_Node000002_Node000009" class="edge">
<title>Node2&#45;&gt;Node9</title>
<g id="a_edge17_Node000002_Node000009"><a xlink:title=" ">
<path fill="none" stroke="#63b8ff" d="M1301.09,-202.36C1058.45,-201.5 84.94,-195.38 37.5,-152.25 3.78,-121.6 8.67,-62.02 14.12,-30.8"/>
<polygon fill="#63b8ff" stroke="#63b8ff" points="17.52,-31.64 16.01,-21.15 10.65,-30.29 17.52,-31.64"/>
</a>
</g>
</g>
<!-- Node2&#45;&gt;Node11 -->
<g id="edge15_Node000002_Node000011" class="edge">
<title>Node2&#45;&gt;Node11</title>
<g id="a_edge15_Node000002_Node000011"><a xlink:title=" ">
<path fill="none" stroke="#63b8ff" d="M1409.84,-203.02C1578.5,-204.08 2084.92,-202.98 2136.5,-152.25 2153.74,-135.29 2152.09,-105.58 2148.48,-85.82"/>
<polygon fill="#63b8ff" stroke="#63b8ff" points="2151.94,-85.25 2146.38,-76.23 2145.1,-86.74 2151.94,-85.25"/>
</a>
</g>
</g>
<!-- Node12 -->
<g id="Node000012" class="node">
<title>Node12</title>
<g id="a_Node000012"><a xlink:title=" ">
<polygon fill="#e0e0e0" stroke="#999999" points="118.25,-141 46.75,-141 46.75,-121.75 118.25,-121.75 118.25,-141"/>
<text text-anchor="middle" x="82.5" y="-127.5" font-family="Helvetica,sans-Serif" font-size="10.00">initializer_list</text>
</a>
</g>
</g>
<!-- Node2&#45;&gt;Node12 -->
<g id="edge16_Node000002_Node000012" class="edge">
<title>Node2&#45;&gt;Node12</title>
<g id="a_edge16_Node000002_Node000012"><a xlink:title=" ">
<path fill="none" stroke="#63b8ff" d="M1300.93,-202.96C1093.65,-204.31 355.34,-205.21 127.5,-152.25 121.36,-150.82 115.03,-148.57 109.12,-146.08"/>
<polygon fill="#63b8ff" stroke="#63b8ff" points="111,-143.09 100.45,-142.12 108.09,-149.46 111,-143.09"/>
</a>
</g>
</g>
<!-- Node13 -->
<g id="Node000013" class="node">
<title>Node13</title>
<g id="a_Node000013"><a xlink:title=" ">
<polygon fill="#e0e0e0" stroke="#999999" points="174.75,-141 136.25,-141 136.25,-121.75 174.75,-121.75 174.75,-141"/>
<text text-anchor="middle" x="155.5" y="-127.5" font-family="Helvetica,sans-Serif" font-size="10.00">utility</text>
</a>
</g>
</g>
<!-- Node2&#45;&gt;Node13 -->
<g id="edge18_Node000002_Node000013" class="edge">
<title>Node2&#45;&gt;Node13</title>
<g id="a_edge18_Node000002_Node000013"><a xlink:title=" ">
<path fill="none" stroke="#63b8ff" d="M1301,-201.98C1084.24,-199.65 289.83,-188.68 183.5,-152.25 180.48,-151.22 177.51,-149.75 174.68,-148.07"/>
<polygon fill="#63b8ff" stroke="#63b8ff" points="176.76,-145.26 166.57,-142.36 172.73,-150.98 176.76,-145.26"/>
</a>
</g>
</g>
<!-- Node14 -->
<g id="Node000014" class="node">
<title>Node14</title>
<g id="a_Node000014"><a xlink:title=" ">
<polygon fill="#e0e0e0" stroke="#999999" points="322.5,-146.62 192.5,-146.62 192.5,-116.12 322.5,-116.12 322.5,-146.62"/>
<text text-anchor="start" x="200.5" y="-133.12" font-family="Helvetica,sans-Serif" font-size="10.00">typed_linear_algebra</text>
<text text-anchor="middle" x="257.5" y="-121.88" font-family="Helvetica,sans-Serif" font-size="10.00">_internal/algorithm/add.tpp</text>
</a>
</g>
</g>
<!-- Node2&#45;&gt;Node14 -->
<g id="edge19_Node000002_Node000014" class="edge">
<title>Node2&#45;&gt;Node14</title>
<g id="a_edge19_Node000002_Node000014"><a xlink:title=" ">
<path fill="none" stroke="#63b8ff" d="M1300.95,-201.36C1117.08,-197.27 520.97,-181.99 331.5,-152.25 326.92,-151.53 322.21,-150.64 317.5,-149.63"/>
<polygon fill="#63b8ff" stroke="#63b8ff" points="318.55,-146.28 308.02,-147.45 316.98,-153.11 318.55,-146.28"/>
</a>
</g>
</g>
<!-- Node15 -->
<g id="Node000015" class="node">
<title>Node15</title>
<g id="a_Node000015"><a xlink:title=" ">
<polygon fill="#e0e0e0" stroke="#999999" points="480.38,-146.62 340.62,-146.62 340.62,-116.12 480.38,-116.12 480.38,-146.62"/>
<text text-anchor="start" x="348.62" y="-133.12" font-family="Helvetica,sans-Serif" font-size="10.00">typed_linear_algebra</text>
<text text-anchor="middle" x="410.5" y="-121.88" font-family="Helvetica,sans-Serif" font-size="10.00">_internal/algorithm/divide.tpp</text>
</a>
</g>
</g>
<!-- Node2&#45;&gt;Node15 -->
<g id="edge20_Node000002_Node000015" class="edge">
<title>Node2&#45;&gt;Node15</title>
<g id="a_edge20_Node000002_Node000015"><a xlink:title=" ">
<path fill="none" stroke="#63b8ff" d="M1300.92,-202.89C1163.69,-203.09 793.54,-198.89 489.5,-152.25 484.35,-151.46 479.05,-150.49 473.75,-149.4"/>
<polygon fill="#63b8ff" stroke="#63b8ff" points="474.91,-146.07 464.39,-147.35 473.41,-152.91 474.91,-146.07"/>
</a>
</g>
</g>
<!-- Node16 -->
<g id="Node000016" class="node">
<title>Node16</title>
<g id="a_Node000016"><a xlink:title=" ">
<polygon fill="#e0e0e0" stroke="#999999" points="620.38,-152.25 498.62,-152.25 498.62,-110.5 620.38,-110.5 620.38,-152.25"/>
<text text-anchor="start" x="506.62" y="-138.75" font-family="Helvetica,sans-Serif" font-size="10.00">typed_linear_algebra</text>
<text text-anchor="start" x="506.62" y="-127.5" font-family="Helvetica,sans-Serif" font-size="10.00">_internal/algorithm/equal</text>
<text text-anchor="middle" x="559.5" y="-116.25" font-family="Helvetica,sans-Serif" font-size="10.00">_to.tpp</text>
</a>
</g>
</g>
<!-- Node2&#45;&gt;Node16 -->
<g id="edge21_Node000002_Node000016" class="edge">
<title>Node2&#45;&gt;Node16</title>
<g id="a_edge21_Node000002_Node000016"><a xlink:title=" ">
<path fill="none" stroke="#63b8ff" d="M1301.3,-202.57C1181.78,-201.92 886.61,-195.79 632.12,-152.51"/>
<polygon fill="#63b8ff" stroke="#63b8ff" points="632.73,-149.07 622.28,-150.81 631.54,-155.96 632.73,-149.07"/>
</a>
</g>
</g>
<!-- Node17 -->
<g id="Node000017" class="node">
<title>Node17</title>
<g id="a_Node000017"><a xlink:title=" ">
<polygon fill="#e0e0e0" stroke="#999999" points="762.88,-152.25 638.12,-152.25 638.12,-110.5 762.88,-110.5 762.88,-152.25"/>
<text text-anchor="start" x="646.12" y="-138.75" font-family="Helvetica,sans-Serif" font-size="10.00">typed_linear_algebra</text>
<text text-anchor="start" x="646.12" y="-127.5" font-family="Helvetica,sans-Serif" font-size="10.00">_internal/algorithm/matrix</text>
<text text-anchor="middle" x="700.5" y="-116.25" font-family="Helvetica,sans-Serif" font-size="10.00">_product.tpp</text>
</a>
</g>
</g>
<!-- Node2&#45;&gt;Node17 -->
<g id="edge22_Node000002_Node000017" class="edge">
<title>Node2&#45;&gt;Node17</title>
<g id="a_edge22_Node000002_Node000017"><a xlink:title=" ">
<path fill="none" stroke="#63b8ff" d="M1301.21,-201.14C1199.56,-197.87 973.57,-187.22 774.44,-152.4"/>
<polygon fill="#63b8ff" stroke="#63b8ff" points="775.12,-148.97 764.66,-150.67 773.9,-155.86 775.12,-148.97"/>
</a>
</g>
</g>
<!-- Node18 -->
<g id="Node000018" class="node">
<title>Node18</title>
<g id="a_Node000018"><a xlink:title=" ">
<polygon fill="#e0e0e0" stroke="#999999" points="927.75,-146.62 781.25,-146.62 781.25,-116.12 927.75,-116.12 927.75,-146.62"/>
<text text-anchor="start" x="789.25" y="-133.12" font-family="Helvetica,sans-Serif" font-size="10.00">typed_linear_algebra</text>
<text text-anchor="middle" x="854.5" y="-121.88" font-family="Helvetica,sans-Serif" font-size="10.00">_internal/algorithm/product.tpp</text>
</a>
</g>
</g>
<!-- Node2&#45;&gt;Node18 -->
<g id="edge23_Node000002_Node000018" class="edge">
<title>Node2&#45;&gt;Node18</title>
<g id="a_edge23_Node000002_Node000018"><a xlink:title=" ">
<path fill="none" stroke="#63b8ff" d="M1300.95,-198.04C1220.7,-191 1066.28,-175.67 936.5,-152.25 931.88,-151.42 927.13,-150.48 922.35,-149.48"/>
<polygon fill="#63b8ff" stroke="#63b8ff" points="923.21,-146.08 912.7,-147.37 921.72,-152.92 923.21,-146.08"/>
</a>
</g>
</g>
<!-- Node19 -->
<g id="Node000019" class="node">
<title>Node19</title>
<g id="a_Node000019"><a xlink:title=" ">
<polygon fill="#e0e0e0" stroke="#999999" points="1083.25,-146.62 945.75,-146.62 945.75,-116.12 1083.25,-116.12 1083.25,-146.62"/>
<text text-anchor="start" x="953.75" y="-133.12" font-family="Helvetica,sans-Serif" font-size="10.00">typed_linear_algebra</text>
<text text-anchor="middle" x="1014.5" y="-121.88" font-family="Helvetica,sans-Serif" font-size="10.00">_internal/algorithm/scale.tpp</text>
</a>
</g>
</g>
<!-- Node2&#45;&gt;Node19 -->
<g id="edge24_Node000002_Node000019" class="edge">
<title>Node2&#45;&gt;Node19</title>
<g id="a_edge24_Node000002_Node000019"><a xlink:title=" ">
<path fill="none" stroke="#63b8ff" d="M1300.9,-193.07C1247.57,-183.62 1164.19,-168.22 1092.5,-152.25 1088.95,-151.46 1085.32,-150.63 1081.66,-149.76"/>
<polygon fill="#63b8ff" stroke="#63b8ff" points="1082.65,-146.4 1072.11,-147.47 1081.02,-153.21 1082.65,-146.4"/>
</a>
</g>
</g>
<!-- Node20 -->
<g id="Node000020" class="node">
<title>Node20</title>
<g id="a_Node000020"><a xlink:title=" ">
<polygon fill="#e0e0e0" stroke="#999999" points="1255.88,-146.62 1101.12,-146.62 1101.12,-116.12 1255.88,-116.12 1255.88,-146.62"/>
<text text-anchor="start" x="1109.12" y="-133.12" font-family="Helvetica,sans-Serif" font-size="10.00">typed_linear_algebra</text>
<text text-anchor="middle" x="1178.5" y="-121.88" font-family="Helvetica,sans-Serif" font-size="10.00">_internal/algorithm/substract.tpp</text>
</a>
</g>
</g>
<!-- Node2&#45;&gt;Node20 -->
<g id="edge25_Node000002_Node000020" class="edge">
<title>Node2&#45;&gt;Node20</title>
<g id="a_edge25_Node000002_Node000020"><a xlink:title=" ">
<path fill="none" stroke="#63b8ff" d="M1318.39,-187.8C1291.61,-177.19 1255.21,-162.77 1226.25,-151.29"/>
<polygon fill="#63b8ff" stroke="#63b8ff" points="1227.55,-148.04 1216.96,-147.61 1224.97,-154.55 1227.55,-148.04"/>
</a>
</g>
</g>
<!-- Node21 -->
<g id="Node000021" class="node">
<title>Node21</title>
<g id="a_Node000021"><a xlink:title=" ">
<polygon fill="#e0e0e0" stroke="#999999" points="1436.62,-146.62 1274.38,-146.62 1274.38,-116.12 1436.62,-116.12 1436.62,-146.62"/>
<text text-anchor="start" x="1282.38" y="-133.12" font-family="Helvetica,sans-Serif" font-size="10.00">typed_linear_algebra</text>
<text text-anchor="middle" x="1355.5" y="-121.88" font-family="Helvetica,sans-Serif" font-size="10.00">_internal/algorithm/transposed.tpp</text>
</a>
</g>
</g>
<!-- Node2&#45;&gt;Node21 -->
<g id="edge26_Node000002_Node000021" class="edge">
<title>Node2&#45;&gt;Node21</title>
<g id="a_edge26_Node000002_Node000021"><a xlink:title=" ">
<path fill="none" stroke="#63b8ff" d="M1355.5,-187.97C1355.5,-179.41 1355.5,-168.34 1355.5,-158.33"/>
<polygon fill="#63b8ff" stroke="#63b8ff" points="1359,-158.4 1355.5,-148.4 1352,-158.4 1359,-158.4"/>
</a>
</g>
</g>
<!-- Node22 -->
<g id="Node000022" class="node">
<title>Node22</title>
<g id="a_Node000022"><a xlink:title=" ">
<polygon fill="#e0e0e0" stroke="#999999" points="1558.75,-146.62 1454.25,-146.62 1454.25,-116.12 1558.75,-116.12 1558.75,-146.62"/>
<text text-anchor="start" x="1462.25" y="-133.12" font-family="Helvetica,sans-Serif" font-size="10.00">typed_linear_algebra</text>
<text text-anchor="middle" x="1506.5" y="-121.88" font-family="Helvetica,sans-Serif" font-size="10.00">_internal/cast.tpp</text>
</a>
</g>
</g>
<!-- Node2&#45;&gt;Node22 -->
<g id="edge27_Node000002_Node000022" class="edge">
<title>Node2&#45;&gt;Node22</title>
<g id="a_edge27_Node000002_Node000022"><a xlink:title=" ">
<path fill="none" stroke="#63b8ff" d="M1387.15,-187.8C1409.6,-177.37 1439.97,-163.27 1464.45,-151.9"/>
<polygon fill="#63b8ff" stroke="#63b8ff" points="1465.92,-155.08 1473.51,-147.69 1462.97,-148.73 1465.92,-155.08"/>
</a>
</g>
</g>
<!-- Node23 -->
<g id="Node000023" class="node">
<title>Node23</title>
<g id="a_Node000023"><a xlink:title=" ">
<polygon fill="#e0e0e0" stroke="#999999" points="1681.75,-146.62 1577.25,-146.62 1577.25,-116.12 1681.75,-116.12 1681.75,-146.62"/>
<text text-anchor="start" x="1585.25" y="-133.12" font-family="Helvetica,sans-Serif" font-size="10.00">typed_linear_algebra</text>
<text text-anchor="middle" x="1629.5" y="-121.88" font-family="Helvetica,sans-Serif" font-size="10.00">_internal/tuple.tpp</text>
</a>
</g>
</g>
<!-- Node2&#45;&gt;Node23 -->
<g id="edge28_Node000002_Node000023" class="edge">
<title>Node2&#45;&gt;Node23</title>
<g id="a_edge28_Node000002_Node000023"><a xlink:title=" ">
<path fill="none" stroke="#63b8ff" d="M1409.82,-190.84C1452.82,-181.32 1514.3,-167.06 1567.5,-152.25 1569.62,-151.66 1571.78,-151.04 1573.96,-150.41"/>
<polygon fill="#63b8ff" stroke="#63b8ff" points="1574.9,-153.78 1583.47,-147.56 1572.89,-147.08 1574.9,-153.78"/>
</a>
</g>
</g>
<!-- Node24 -->
<g id="Node000024" class="node">
<title>Node24</title>
<g id="a_Node000024"><a xlink:title=" ">
<polygon fill="#e0e0e0" stroke="#999999" points="1807.25,-152.25 1699.75,-152.25 1699.75,-110.5 1807.25,-110.5 1807.25,-152.25"/>
<text text-anchor="start" x="1707.75" y="-138.75" font-family="Helvetica,sans-Serif" font-size="10.00">typed_linear_algebra</text>
<text text-anchor="start" x="1707.75" y="-127.5" font-family="Helvetica,sans-Serif" font-size="10.00">_internal/typed_linear</text>
<text text-anchor="middle" x="1753.5" y="-116.25" font-family="Helvetica,sans-Serif" font-size="10.00">_algebra.tpp</text>
</a>
</g>
</g>
<!-- Node2&#45;&gt;Node24 -->
<g id="edge29_Node000002_Node000024" class="edge">
<title>Node2&#45;&gt;Node24</title>
<g id="a_edge29_Node000002_Node000024"><a xlink:title=" ">
<path fill="none" stroke="#63b8ff" d="M1409.95,-196.99C1474.37,-189.88 1584.92,-175.84 1688.4,-152.56"/>
<polygon fill="#63b8ff" stroke="#63b8ff" points="1688.91,-156.03 1697.88,-150.39 1687.35,-149.21 1688.91,-156.03"/>
</a>
</g>
</g>
<!-- Node4&#45;&gt;Node5 -->
<g id="edge4_Node000004_Node000005" class="edge">
<title>Node4&#45;&gt;Node5</title>
<g id="a_edge4_Node000004_Node000005"><a xlink:title=" ">
<path fill="none" stroke="#63b8ff" d="M2061.43,-115.74C2052.04,-105.96 2039.65,-93.08 2029.82,-82.85"/>
<polygon fill="#63b8ff" stroke="#63b8ff" points="2032.48,-80.57 2023.03,-75.79 2027.44,-85.42 2032.48,-80.57"/>
</a>
</g>
</g>
<!-- Node4&#45;&gt;Node7 -->
<g id="edge10_Node000004_Node000007" class="edge">
<title>Node4&#45;&gt;Node7</title>
<g id="a_edge10_Node000004_Node000007"><a xlink:title=" ">
<path fill="none" stroke="#63b8ff" d="M2081.55,-115.74C2088.23,-100.22 2099.75,-75.22 2112.5,-55.25 2118.44,-45.95 2125.99,-36.33 2132.64,-28.41"/>
<polygon fill="#63b8ff" stroke="#63b8ff" points="2135.26,-30.74 2139.15,-20.89 2129.96,-26.16 2135.26,-30.74"/>
</a>
</g>
</g>
<!-- Node4&#45;&gt;Node11 -->
<g id="edge11_Node000004_Node000011" class="edge">
<title>Node4&#45;&gt;Node11</title>
<g id="a_edge11_Node000004_Node000011"><a xlink:title=" ">
<path fill="none" stroke="#63b8ff" d="M2090.93,-115.74C2101.34,-105.87 2115.1,-92.82 2125.93,-82.54"/>
<polygon fill="#63b8ff" stroke="#63b8ff" points="2128.25,-85.16 2133.1,-75.74 2123.44,-80.08 2128.25,-85.16"/>
</a>
</g>
</g>
<!-- Node5&#45;&gt;Node6 -->
<g id="edge5_Node000005_Node000006" class="edge">
<title>Node5&#45;&gt;Node6</title>
<g id="a_edge5_Node000005_Node000006"><a xlink:title=" ">
<path fill="none" stroke="#63b8ff" d="M2004,-54.84C1996.07,-47.3 1984.55,-36.35 1974.96,-27.23"/>
<polygon fill="#63b8ff" stroke="#63b8ff" points="1977.61,-24.92 1967.96,-20.57 1972.79,-29.99 1977.61,-24.92"/>
</a>
</g>
</g>
<!-- Node5&#45;&gt;Node7 -->
<g id="edge6_Node000005_Node000007" class="edge">
<title>Node5&#45;&gt;Node7</title>
<g id="a_edge6_Node000005_Node000007"><a xlink:title=" ">
<path fill="none" stroke="#63b8ff" d="M2036.4,-54.84C2057.93,-46.35 2090.41,-33.54 2114.88,-23.89"/>
<polygon fill="#63b8ff" stroke="#63b8ff" points="2116.06,-27.18 2124.08,-20.26 2113.49,-20.67 2116.06,-27.18"/>
</a>
</g>
</g>
<!-- Node8 -->
<g id="Node000008" class="node">
<title>Node8</title>
<g id="a_Node000008"><a xlink:title=" ">
<polygon fill="#e0e0e0" stroke="#999999" points="2061.5,-19.25 2003.5,-19.25 2003.5,0 2061.5,0 2061.5,-19.25"/>
<text text-anchor="middle" x="2032.5" y="-5.75" font-family="Helvetica,sans-Serif" font-size="10.00">functional</text>
</a>
</g>
</g>
<!-- Node5&#45;&gt;Node8 -->
<g id="edge7_Node000005_Node000008" class="edge">
<title>Node5&#45;&gt;Node8</title>
<g id="a_edge7_Node000005_Node000008"><a xlink:title=" ">
<path fill="none" stroke="#63b8ff" d="M2016.64,-55.08C2019.04,-48.34 2022.46,-38.77 2025.5,-30.24"/>
<polygon fill="#63b8ff" stroke="#63b8ff" points="2028.72,-31.63 2028.79,-21.03 2022.13,-29.28 2028.72,-31.63"/>
</a>
</g>
</g>
<!-- Node5&#45;&gt;Node9 -->
<g id="edge8_Node000005_Node000009" class="edge">
<title>Node5&#45;&gt;Node9</title>
<g id="a_edge8_Node000005_Node000009"><a xlink:title=" ">
<path fill="none" stroke="#63b8ff" d="M1984.91,-63.11C1760.15,-57.11 279.75,-17.6 48.78,-11.43"/>
<polygon fill="#63b8ff" stroke="#63b8ff" points="48.92,-7.94 38.83,-11.17 48.73,-14.93 48.92,-7.94"/>
</a>
</g>
</g>
<!-- Node5&#45;&gt;Node10 -->
<g id="edge9_Node000005_Node000010" class="edge">
<title>Node5&#45;&gt;Node10</title>
<g id="a_edge9_Node000005_Node000010"><a xlink:title=" ">
<path fill="none" stroke="#63b8ff" d="M1984.88,-62.4C1841.07,-54.96 1197.57,-21.69 1025.78,-12.81"/>
<polygon fill="#63b8ff" stroke="#63b8ff" points="1026.14,-9.33 1015.98,-12.3 1025.78,-16.32 1026.14,-9.33"/>
</a>
</g>
</g>
</g>
</svg>
