<?xml version="1.0" encoding="UTF-8" standalone="no"?>
<!DOCTYPE svg PUBLIC "-//W3C//DTD SVG 1.1//EN"
 "http://www.w3.org/Graphics/SVG/1.1/DTD/svg11.dtd">
<!-- Generated by graphviz version 12.2.0 (20241103.1931)
 -->
<!-- Title: /github/workspace/sample/mp_units_std.cpp Pages: 1 -->
<!--zoomable 293 -->

<svg id="main" version="1.1" xmlns="http://www.w3.org/2000/svg" xmlns:xlink="http://www.w3.org/1999/xlink" xml:space="preserve" onload="init(evt)">

<style type="text/css"><![CDATA[
.node, .edge {opacity: 0.7;}
.node.selected, .edge.selected {opacity: 1;}
.edge:hover path { stroke: red; }
.edge:hover polygon { stroke: red; fill: red; }
]]></style>

<defs>
  <circle id="rim" cx="0" cy="0" r="7"/>
  <circle id="rim2" cx="0" cy="0" r="3.5"/>
  <g id="zoomPlus">
    <use xlink:href="#rim" fill="#404040"><set attributeName="fill" to="#808080" begin="zoomplus.mouseover" end="zoomplus.mouseout"/></use>
    <path d="M-4,0h8M0,-4v8" fill="none" stroke="white" stroke-width="1.5" pointer-events="none"/>
  </g>
  <g id="zoomMin">
    <use xlink:href="#rim" fill="#404040"><set attributeName="fill" to="#808080" begin="zoomminus.mouseover" end="zoomminus.mouseout"/></use>
    <path d="M-4,0h8" fill="none" stroke="white" stroke-width="1.5" pointer-events="none"/>
  </g>
  <g id="arrowUp" transform="translate(30 24)">
    <use xlink:href="#rim"/>
    <path pointer-events="none" fill="none" stroke="white" stroke-width="1.5" d="M0,-3.0v7 M-2.5,-0.5L0,-3.0L2.5,-0.5"/>
  </g>
  <g id="arrowRight" transform="rotate(90) translate(36 -43)">
    <use xlink:href="#rim"/>
    <path pointer-events="none" fill="none" stroke="white" stroke-width="1.5" d="M0,-3.0v7 M-2.5,-0.5L0,-3.0L2.5,-0.5"/>
  </g>
  <g id="arrowDown" transform="rotate(180) translate(-30 -48)">
    <use xlink:href="#rim"/>
    <path pointer-events="none" fill="none" stroke="white" stroke-width="1.5" d="M0,-3.0v7 M-2.5,-0.5L0,-3.0L2.5,-0.5"/>
  </g>
  <g id="arrowLeft" transform="rotate(270) translate(-36 17)">
    <use xlink:href="#rim"/>
    <path pointer-events="none" fill="none" stroke="white" stroke-width="1.5" d="M0,-3.0v7 M-2.5,-0.5L0,-3.0L2.5,-0.5"/>
  </g>
  <g id="resetDef">
    <use xlink:href="#rim2" fill="#404040"><set attributeName="fill" to="#808080" begin="reset.mouseover" end="reset.mouseout"/></use>
  </g>
</defs>
<script type="application/ecmascript">
var viewWidth = 2970;
var viewHeight = 293;
var sectionId = 'dynsection-0';
</script>
<script type="application/ecmascript" xlink:href="svg.min.js"/>
<svg id="graph" class="graph">
<g id="viewport">
<title>/github/workspace/sample/mp_units_std.cpp</title>
<!-- Node1 -->
<g id="Node000001" class="node">
<title>Node1</title>
<g id="a_Node000001"><a xlink:title="Unit safe linear algebra with mp&#45;units and Eigen.">
<polygon fill="#999999" stroke="#666666" points="2317.41,-285.25 2187.41,-285.25 2187.41,-254.75 2317.41,-254.75 2317.41,-285.25"/>
<text text-anchor="start" x="2195.41" y="-271.75" font-family="Helvetica,sans-Serif" font-size="10.00">/github/workspace/sample</text>
<text text-anchor="middle" x="2252.41" y="-260.5" font-family="Helvetica,sans-Serif" font-size="10.00">/mp_units_std.cpp</text>
</a>
</g>
</g>
<!-- Node2 -->
<g id="Node000002" class="node">
<title>Node2</title>
<g id="a_Node000002"><a xlink:href="typed__linear__algebra_8hpp.xhtml" target="_top" xlink:title="Typed linear algebra implementation.">
<polygon fill="white" stroke="#666666" points="1323.54,-218.75 1215.29,-218.75 1215.29,-188.25 1323.54,-188.25 1323.54,-218.75"/>
<text text-anchor="start" x="1223.29" y="-205.25" font-family="Helvetica,sans-Serif" font-size="10.00">fcarouge/typed_linear</text>
<text text-anchor="middle" x="1269.41" y="-194" font-family="Helvetica,sans-Serif" font-size="10.00">_algebra.hpp</text>
</a>
</g>
</g>
<!-- Node1&#45;&gt;Node2 -->
<g id="edge1_Node000001_Node000002" class="edge">
<title>Node1&#45;&gt;Node2</title>
<g id="a_edge1_Node000001_Node000002"><a xlink:title=" ">
<path fill="none" stroke="#63b8ff" d="M2187.16,-264.72C2008.72,-253.01 1514.14,-220.56 1335.15,-208.81"/>
<polygon fill="#63b8ff" stroke="#63b8ff" points="1335.54,-205.33 1325.33,-208.17 1335.08,-212.32 1335.54,-205.33"/>
</a>
</g>
</g>
<!-- Node8 -->
<g id="Node000008" class="node">
<title>Node8</title>
<g id="a_Node000008"><a xlink:title=" ">
<polygon fill="#e0e0e0" stroke="#999999" points="2111.91,-19.25 2074.91,-19.25 2074.91,0 2111.91,0 2111.91,-19.25"/>
<text text-anchor="middle" x="2093.41" y="-5.75" font-family="Helvetica,sans-Serif" font-size="10.00">tuple</text>
</a>
</g>
</g>
<!-- Node1&#45;&gt;Node8 -->
<g id="edge33_Node000001_Node000008" class="edge">
<title>Node1&#45;&gt;Node8</title>
<g id="a_edge33_Node000001_Node000008"><a xlink:title=" ">
<path fill="none" stroke="#63b8ff" d="M2187.03,-255.03C2166.42,-247.53 2145.41,-236.1 2131.41,-218.75 2108.17,-189.94 2097.97,-77.46 2094.68,-30.94"/>
<polygon fill="#63b8ff" stroke="#63b8ff" points="2098.18,-30.72 2094.02,-20.97 2091.19,-31.18 2098.18,-30.72"/>
</a>
</g>
</g>
<!-- Node9 -->
<g id="Node000009" class="node">
<title>Node9</title>
<g id="a_Node000009"><a xlink:title=" ">
<polygon fill="#e0e0e0" stroke="#999999" points="484.91,-19.25 423.91,-19.25 423.91,0 484.91,0 484.91,-19.25"/>
<text text-anchor="middle" x="454.41" y="-5.75" font-family="Helvetica,sans-Serif" font-size="10.00">type_traits</text>
</a>
</g>
</g>
<!-- Node1&#45;&gt;Node9 -->
<g id="edge34_Node000001_Node000009" class="edge">
<title>Node1&#45;&gt;Node9</title>
<g id="a_edge34_Node000001_Node000009"><a xlink:title=" ">
<path fill="none" stroke="#63b8ff" d="M2187.12,-268.64C1858.54,-266.67 393.87,-255.85 194.41,-218.75 108.1,-202.7 58.97,-224.02 8.41,-152.25 -2.27,-137.08 -3.18,-124.98 8.41,-110.5 58.87,-47.5 310.8,-21.56 412.12,-13.56"/>
<polygon fill="#63b8ff" stroke="#63b8ff" points="412.21,-17.06 421.92,-12.81 411.68,-10.08 412.21,-17.06"/>
</a>
</g>
</g>
<!-- Node10 -->
<g id="Node000010" class="node">
<title>Node10</title>
<g id="a_Node000010"><a xlink:title=" ">
<polygon fill="#e0e0e0" stroke="#999999" points="1721.54,-74.5 1673.29,-74.5 1673.29,-55.25 1721.54,-55.25 1721.54,-74.5"/>
<text text-anchor="middle" x="1697.41" y="-61" font-family="Helvetica,sans-Serif" font-size="10.00">cstddef</text>
</a>
</g>
</g>
<!-- Node1&#45;&gt;Node10 -->
<g id="edge28_Node000001_Node000010" class="edge">
<title>Node1&#45;&gt;Node10</title>
<g id="a_edge28_Node000001_Node000010"><a xlink:title=" ">
<path fill="none" stroke="#63b8ff" d="M2186.98,-255.54C2158.31,-247.71 2125.17,-235.9 2098.41,-218.75 2043.28,-183.39 2056.33,-141.1 1998.41,-110.5 1952.93,-86.47 1802.48,-73.18 1733.07,-68.19"/>
<polygon fill="#63b8ff" stroke="#63b8ff" points="1733.6,-64.72 1723.38,-67.51 1733.11,-71.7 1733.6,-64.72"/>
</a>
</g>
</g>
<!-- Node11 -->
<g id="Node000011" class="node">
<title>Node11</title>
<g id="a_Node000011"><a xlink:title=" ">
<polygon fill="#e0e0e0" stroke="#999999" points="1183.29,-74.5 1139.54,-74.5 1139.54,-55.25 1183.29,-55.25 1183.29,-74.5"/>
<text text-anchor="middle" x="1161.41" y="-61" font-family="Helvetica,sans-Serif" font-size="10.00">format</text>
</a>
</g>
</g>
<!-- Node1&#45;&gt;Node11 -->
<g id="edge29_Node000001_Node000011" class="edge">
<title>Node1&#45;&gt;Node11</title>
<g id="a_edge29_Node000001_Node000011"><a xlink:title=" ">
<path fill="none" stroke="#63b8ff" d="M2186.96,-268.09C1826.68,-262.75 98.74,-232.98 22.41,-152.25 9.67,-138.77 9.51,-123.83 22.41,-110.5 63.7,-67.85 998.22,-82.63 1128.08,-73.83"/>
<polygon fill="#63b8ff" stroke="#63b8ff" points="1128.09,-77.35 1137.7,-72.89 1127.4,-70.38 1128.09,-77.35"/>
</a>
</g>
</g>
<!-- Node24 -->
<g id="Node000024" class="node">
<title>Node24</title>
<g id="a_Node000024"><a xlink:title=" ">
<polygon fill="#e0e0e0" stroke="#999999" points="2178.66,-213.12 2140.16,-213.12 2140.16,-193.88 2178.66,-193.88 2178.66,-213.12"/>
<text text-anchor="middle" x="2159.41" y="-199.62" font-family="Helvetica,sans-Serif" font-size="10.00">linalg</text>
</a>
</g>
</g>
<!-- Node1&#45;&gt;Node24 -->
<g id="edge30_Node000001_Node000024" class="edge">
<title>Node1&#45;&gt;Node24</title>
<g id="a_edge30_Node000001_Node000024"><a xlink:title=" ">
<path fill="none" stroke="#63b8ff" d="M2231.31,-254.36C2216.45,-244.06 2196.6,-230.29 2181.52,-219.83"/>
<polygon fill="#63b8ff" stroke="#63b8ff" points="2183.86,-217.2 2173.65,-214.37 2179.87,-222.95 2183.86,-217.2"/>
</a>
</g>
</g>
<!-- Node25 -->
<g id="Node000025" class="node">
<title>Node25</title>
<g id="a_Node000025"><a xlink:title=" ">
<polygon fill="#e0e0e0" stroke="#999999" points="2247.66,-213.12 2197.16,-213.12 2197.16,-193.88 2247.66,-193.88 2247.66,-213.12"/>
<text text-anchor="middle" x="2222.41" y="-199.62" font-family="Helvetica,sans-Serif" font-size="10.00">mdspan</text>
</a>
</g>
</g>
<!-- Node1&#45;&gt;Node25 -->
<g id="edge31_Node000001_Node000025" class="edge">
<title>Node1&#45;&gt;Node25</title>
<g id="a_edge31_Node000001_Node000025"><a xlink:title=" ">
<path fill="none" stroke="#63b8ff" d="M2245.61,-254.36C2241.38,-245.28 2235.91,-233.51 2231.34,-223.68"/>
<polygon fill="#63b8ff" stroke="#63b8ff" points="2234.55,-222.29 2227.16,-214.7 2228.2,-225.24 2234.55,-222.29"/>
</a>
</g>
</g>
<!-- Node26 -->
<g id="Node000026" class="node">
<title>Node26</title>
<g id="a_Node000026"><a xlink:title=" ">
<polygon fill="#e0e0e0" stroke="#999999" points="2300.79,-213.12 2266.04,-213.12 2266.04,-193.88 2300.79,-193.88 2300.79,-213.12"/>
<text text-anchor="middle" x="2283.41" y="-199.62" font-family="Helvetica,sans-Serif" font-size="10.00">print</text>
</a>
</g>
</g>
<!-- Node1&#45;&gt;Node26 -->
<g id="edge32_Node000001_Node000026" class="edge">
<title>Node1&#45;&gt;Node26</title>
<g id="a_edge32_Node000001_Node000026"><a xlink:title=" ">
<path fill="none" stroke="#63b8ff" d="M2259.45,-254.36C2263.81,-245.28 2269.47,-233.51 2274.19,-223.68"/>
<polygon fill="#63b8ff" stroke="#63b8ff" points="2277.34,-225.22 2278.52,-214.69 2271.03,-222.18 2277.34,-225.22"/>
</a>
</g>
</g>
<!-- Node27 -->
<g id="Node000027" class="node">
<title>Node27</title>
<g id="a_Node000027"><a xlink:title=" ">
<polygon fill="#e0e0e0" stroke="#999999" points="2361.91,-213.12 2318.91,-213.12 2318.91,-193.88 2361.91,-193.88 2361.91,-213.12"/>
<text text-anchor="middle" x="2340.41" y="-199.62" font-family="Helvetica,sans-Serif" font-size="10.00">vector</text>
</a>
</g>
</g>
<!-- Node1&#45;&gt;Node27 -->
<g id="edge35_Node000001_Node000027" class="edge">
<title>Node1&#45;&gt;Node27</title>
<g id="a_edge35_Node000001_Node000027"><a xlink:title=" ">
<path fill="none" stroke="#63b8ff" d="M2272.38,-254.36C2286.31,-244.16 2304.87,-230.55 2319.08,-220.13"/>
<polygon fill="#63b8ff" stroke="#63b8ff" points="2320.9,-223.14 2326.9,-214.4 2316.77,-217.49 2320.9,-223.14"/>
</a>
</g>
</g>
<!-- Node28 -->
<g id="Node000028" class="node">
<title>Node28</title>
<g id="a_Node000028"><a xlink:title=" ">
<polygon fill="#e0e0e0" stroke="#999999" points="2482.54,-218.75 2380.29,-218.75 2380.29,-188.25 2482.54,-188.25 2482.54,-218.75"/>
<text text-anchor="start" x="2388.29" y="-205.25" font-family="Helvetica,sans-Serif" font-size="10.00">mp&#45;units/framework</text>
<text text-anchor="middle" x="2431.41" y="-194" font-family="Helvetica,sans-Serif" font-size="10.00">/quantity.h</text>
</a>
</g>
</g>
<!-- Node1&#45;&gt;Node28 -->
<g id="edge36_Node000001_Node000028" class="edge">
<title>Node1&#45;&gt;Node28</title>
<g id="a_edge36_Node000001_Node000028"><a xlink:title=" ">
<path fill="none" stroke="#63b8ff" d="M2293.03,-254.36C2318.8,-245.08 2352.37,-232.98 2379.99,-223.03"/>
<polygon fill="#63b8ff" stroke="#63b8ff" points="2381,-226.39 2389.22,-219.7 2378.63,-219.8 2381,-226.39"/>
</a>
</g>
</g>
<!-- Node29 -->
<g id="Node000029" class="node">
<title>Node29</title>
<g id="a_Node000029"><a xlink:title=" ">
<polygon fill="#e0e0e0" stroke="#999999" points="2602.54,-218.75 2500.29,-218.75 2500.29,-188.25 2602.54,-188.25 2602.54,-218.75"/>
<text text-anchor="start" x="2508.29" y="-205.25" font-family="Helvetica,sans-Serif" font-size="10.00">mp&#45;units/framework</text>
<text text-anchor="middle" x="2551.41" y="-194" font-family="Helvetica,sans-Serif" font-size="10.00">/quantity_point.h</text>
</a>
</g>
</g>
<!-- Node1&#45;&gt;Node29 -->
<g id="edge37_Node000001_Node000029" class="edge">
<title>Node1&#45;&gt;Node29</title>
<g id="a_edge37_Node000001_Node000029"><a xlink:title=" ">
<path fill="none" stroke="#63b8ff" d="M2317.69,-255.75C2363.16,-246.41 2425.49,-233.4 2489.01,-219.26"/>
<polygon fill="#63b8ff" stroke="#63b8ff" points="2489.57,-222.72 2498.57,-217.12 2488.05,-215.89 2489.57,-222.72"/>
</a>
</g>
</g>
<!-- Node30 -->
<g id="Node000030" class="node">
<title>Node30</title>
<g id="a_Node000030"><a xlink:title=" ">
<polygon fill="#e0e0e0" stroke="#999999" points="2706.29,-213.12 2620.54,-213.12 2620.54,-193.88 2706.29,-193.88 2706.29,-213.12"/>
<text text-anchor="middle" x="2663.41" y="-199.62" font-family="Helvetica,sans-Serif" font-size="10.00">mp&#45;units/math.h</text>
</a>
</g>
</g>
<!-- Node1&#45;&gt;Node30 -->
<g id="edge38_Node000001_Node000030" class="edge">
<title>Node1&#45;&gt;Node30</title>
<g id="a_edge38_Node000001_Node000030"><a xlink:title=" ">
<path fill="none" stroke="#63b8ff" d="M2317.7,-262.41C2389.97,-254.53 2509.71,-239.71 2611.41,-218.75 2614.79,-218.05 2618.27,-217.26 2621.75,-216.42"/>
<polygon fill="#63b8ff" stroke="#63b8ff" points="2622.49,-219.84 2631.31,-213.97 2620.75,-213.06 2622.49,-219.84"/>
</a>
</g>
</g>
<!-- Node31 -->
<g id="Node000031" class="node">
<title>Node31</title>
<g id="a_Node000031"><a xlink:title=" ">
<polygon fill="#e0e0e0" stroke="#999999" points="2832.91,-218.75 2723.91,-218.75 2723.91,-188.25 2832.91,-188.25 2832.91,-218.75"/>
<text text-anchor="start" x="2731.91" y="-205.25" font-family="Helvetica,sans-Serif" font-size="10.00">mp&#45;units/systems/isq</text>
<text text-anchor="middle" x="2778.41" y="-194" font-family="Helvetica,sans-Serif" font-size="10.00">/thermodynamics.h</text>
</a>
</g>
</g>
<!-- Node1&#45;&gt;Node31 -->
<g id="edge39_Node000001_Node000031" class="edge">
<title>Node1&#45;&gt;Node31</title>
<g id="a_edge39_Node000001_Node000031"><a xlink:title=" ">
<path fill="none" stroke="#63b8ff" d="M2317.91,-264.26C2405.71,-257.39 2566.56,-242.96 2712.58,-219.11"/>
<polygon fill="#63b8ff" stroke="#63b8ff" points="2712.72,-222.64 2722.02,-217.55 2711.58,-215.73 2712.72,-222.64"/>
</a>
</g>
</g>
<!-- Node32 -->
<g id="Node000032" class="node">
<title>Node32</title>
<g id="a_Node000032"><a xlink:title=" ">
<polygon fill="#e0e0e0" stroke="#999999" points="2962.04,-213.12 2850.79,-213.12 2850.79,-193.88 2962.04,-193.88 2962.04,-213.12"/>
<text text-anchor="middle" x="2906.41" y="-199.62" font-family="Helvetica,sans-Serif" font-size="10.00">mp&#45;units/systems/si.h</text>
</a>
</g>
</g>
<!-- Node1&#45;&gt;Node32 -->
<g id="edge40_Node000001_Node000032" class="edge">
<title>Node1&#45;&gt;Node32</title>
<g id="a_edge40_Node000001_Node000032"><a xlink:title=" ">
<path fill="none" stroke="#63b8ff" d="M2317.79,-266.3C2426.99,-261.15 2653.15,-247.75 2842.41,-218.75 2847.69,-217.94 2853.18,-216.95 2858.64,-215.87"/>
<polygon fill="#63b8ff" stroke="#63b8ff" points="2859.13,-219.34 2868.2,-213.87 2857.7,-212.49 2859.13,-219.34"/>
</a>
</g>
</g>
<!-- Node3 -->
<g id="Node000003" class="node">
<title>Node3</title>
<g id="a_Node000003"><a xlink:href="typed__linear__algebra__forward_8hpp.xhtml" target="_top" xlink:title="Authoritative forward declaration header.">
<polygon fill="white" stroke="#666666" points="1056.66,-146.62 952.16,-146.62 952.16,-116.12 1056.66,-116.12 1056.66,-146.62"/>
<text text-anchor="start" x="960.16" y="-133.12" font-family="Helvetica,sans-Serif" font-size="10.00">typed_linear_algebra</text>
<text text-anchor="middle" x="1004.41" y="-121.88" font-family="Helvetica,sans-Serif" font-size="10.00">_forward.hpp</text>
</a>
</g>
</g>
<!-- Node2&#45;&gt;Node3 -->
<g id="edge2_Node000002_Node000003" class="edge">
<title>Node2&#45;&gt;Node3</title>
<g id="a_edge2_Node000002_Node000003"><a xlink:title=" ">
<path fill="none" stroke="#63b8ff" d="M1214.87,-190.05C1173.85,-180.44 1116.36,-166.42 1066.41,-152.25 1064.29,-151.65 1062.14,-151.02 1059.96,-150.38"/>
<polygon fill="#63b8ff" stroke="#63b8ff" points="1061.04,-147.05 1050.46,-147.51 1059.01,-153.75 1061.04,-147.05"/>
</a>
</g>
</g>
<!-- Node4 -->
<g id="Node000004" class="node">
<title>Node4</title>
<g id="a_Node000004"><a xlink:href="format_8hpp.xhtml" target="_top" xlink:title="Formatting support for the typed matrix.">
<polygon fill="white" stroke="#666666" points="1179.66,-146.62 1075.16,-146.62 1075.16,-116.12 1179.66,-116.12 1179.66,-146.62"/>
<text text-anchor="start" x="1083.16" y="-133.12" font-family="Helvetica,sans-Serif" font-size="10.00">typed_linear_algebra</text>
<text text-anchor="middle" x="1127.41" y="-121.88" font-family="Helvetica,sans-Serif" font-size="10.00">_internal/format.hpp</text>
</a>
</g>
</g>
<!-- Node2&#45;&gt;Node4 -->
<g id="edge3_Node000002_Node000004" class="edge">
<title>Node2&#45;&gt;Node4</title>
<g id="a_edge3_Node000002_Node000004"><a xlink:title=" ">
<path fill="none" stroke="#63b8ff" d="M1239.65,-187.8C1218.63,-177.42 1190.24,-163.4 1167.27,-152.06"/>
<polygon fill="#63b8ff" stroke="#63b8ff" points="1169.02,-149.02 1158.5,-147.73 1165.92,-155.29 1169.02,-149.02"/>
</a>
</g>
</g>
<!-- Node5 -->
<g id="Node000005" class="node">
<title>Node5</title>
<g id="a_Node000005"><a xlink:href="utility_8hpp.xhtml" target="_top" xlink:title=" ">
<polygon fill="white" stroke="#666666" points="1121.66,-74.5 1065.16,-74.5 1065.16,-55.25 1121.66,-55.25 1121.66,-74.5"/>
<text text-anchor="middle" x="1093.41" y="-61" font-family="Helvetica,sans-Serif" font-size="10.00">utility.hpp</text>
</a>
</g>
</g>
<!-- Node2&#45;&gt;Node5 -->
<g id="edge11_Node000002_Node000005" class="edge">
<title>Node2&#45;&gt;Node5</title>
<g id="a_edge11_Node000002_Node000005"><a xlink:title=" ">
<path fill="none" stroke="#63b8ff" d="M1215.07,-202.38C980.46,-201.62 64.28,-195.83 22.41,-152.25 9.56,-138.87 9.57,-123.89 22.41,-110.5 58.75,-72.62 863.21,-66.85 1053.38,-66.01"/>
<polygon fill="#63b8ff" stroke="#63b8ff" points="1053.26,-69.51 1063.24,-65.97 1053.23,-62.51 1053.26,-69.51"/>
</a>
</g>
</g>
<!-- Node6 -->
<g id="Node000006" class="node">
<title>Node6</title>
<g id="a_Node000006"><a xlink:title=" ">
<polygon fill="#e0e0e0" stroke="#999999" points="1638.29,-19.25 1582.54,-19.25 1582.54,0 1638.29,0 1638.29,-19.25"/>
<text text-anchor="middle" x="1610.41" y="-5.75" font-family="Helvetica,sans-Serif" font-size="10.00">concepts</text>
</a>
</g>
</g>
<!-- Node2&#45;&gt;Node6 -->
<g id="edge12_Node000002_Node000006" class="edge">
<title>Node2&#45;&gt;Node6</title>
<g id="a_edge12_Node000002_Node000006"><a xlink:title=" ">
<path fill="none" stroke="#63b8ff" d="M1323.98,-202.92C1485.47,-203.59 1952.67,-201.26 1998.41,-152.25 2102.13,-41.14 1768.08,-16.93 1650.1,-11.89"/>
<polygon fill="#63b8ff" stroke="#63b8ff" points="1650.38,-8.4 1640.25,-11.5 1650.1,-15.39 1650.38,-8.4"/>
</a>
</g>
</g>
<!-- Node2&#45;&gt;Node8 -->
<g id="edge16_Node000002_Node000008" class="edge">
<title>Node2&#45;&gt;Node8</title>
<g id="a_edge16_Node000002_Node000008"><a xlink:title=" ">
<path fill="none" stroke="#63b8ff" d="M1323.95,-201.95C1487.26,-199.9 1964.64,-190.63 2022.41,-152.25 2064.89,-124.04 2083.08,-62.41 2089.88,-30.56"/>
<polygon fill="#63b8ff" stroke="#63b8ff" points="2093.25,-31.57 2091.73,-21.09 2086.38,-30.23 2093.25,-31.57"/>
</a>
</g>
</g>
<!-- Node2&#45;&gt;Node10 -->
<g id="edge13_Node000002_Node000010" class="edge">
<title>Node2&#45;&gt;Node10</title>
<g id="a_edge13_Node000002_Node000010"><a xlink:title=" ">
<path fill="none" stroke="#63b8ff" d="M1323.8,-203.31C1422.95,-203.63 1627.62,-198.47 1678.41,-152.25 1696.58,-135.72 1699.46,-106.12 1699.07,-86.24"/>
<polygon fill="#63b8ff" stroke="#63b8ff" points="1702.57,-86.13 1698.54,-76.33 1695.58,-86.5 1702.57,-86.13"/>
</a>
</g>
</g>
<!-- Node2&#45;&gt;Node11 -->
<g id="edge14_Node000002_Node000011" class="edge">
<title>Node2&#45;&gt;Node11</title>
<g id="a_edge14_Node000002_Node000011"><a xlink:title=" ">
<path fill="none" stroke="#63b8ff" d="M1323.94,-197.81C1401.88,-189.09 1530.68,-165.95 1482.41,-110.5 1445.41,-67.99 1269.72,-64.69 1195.08,-65.26"/>
<polygon fill="#63b8ff" stroke="#63b8ff" points="1195.07,-61.76 1185.11,-65.37 1195.15,-68.76 1195.07,-61.76"/>
</a>
</g>
</g>
<!-- Node12 -->
<g id="Node000012" class="node">
<title>Node12</title>
<g id="a_Node000012"><a xlink:title=" ">
<polygon fill="#e0e0e0" stroke="#999999" points="1269.16,-141 1197.66,-141 1197.66,-121.75 1269.16,-121.75 1269.16,-141"/>
<text text-anchor="middle" x="1233.41" y="-127.5" font-family="Helvetica,sans-Serif" font-size="10.00">initializer_list</text>
</a>
</g>
</g>
<!-- Node2&#45;&gt;Node12 -->
<g id="edge15_Node000002_Node000012" class="edge">
<title>Node2&#45;&gt;Node12</title>
<g id="a_edge15_Node000002_Node000012"><a xlink:title=" ">
<path fill="none" stroke="#63b8ff" d="M1261.95,-187.97C1256.46,-177.27 1248.94,-162.63 1243,-151.06"/>
<polygon fill="#63b8ff" stroke="#63b8ff" points="1246.28,-149.78 1238.6,-142.48 1240.05,-152.97 1246.28,-149.78"/>
</a>
</g>
</g>
<!-- Node13 -->
<g id="Node000013" class="node">
<title>Node13</title>
<g id="a_Node000013"><a xlink:title=" ">
<polygon fill="#e0e0e0" stroke="#999999" points="1325.66,-141 1287.16,-141 1287.16,-121.75 1325.66,-121.75 1325.66,-141"/>
<text text-anchor="middle" x="1306.41" y="-127.5" font-family="Helvetica,sans-Serif" font-size="10.00">utility</text>
</a>
</g>
</g>
<!-- Node2&#45;&gt;Node13 -->
<g id="edge17_Node000002_Node000013" class="edge">
<title>Node2&#45;&gt;Node13</title>
<g id="a_edge17_Node000002_Node000013"><a xlink:title=" ">
<path fill="none" stroke="#63b8ff" d="M1277.08,-187.97C1282.73,-177.27 1290.45,-162.63 1296.56,-151.06"/>
<polygon fill="#63b8ff" stroke="#63b8ff" points="1299.52,-152.95 1301.09,-142.47 1293.32,-149.68 1299.52,-152.95"/>
</a>
</g>
</g>
<!-- Node14 -->
<g id="Node000014" class="node">
<title>Node14</title>
<g id="a_Node000014"><a xlink:title=" ">
<polygon fill="#e0e0e0" stroke="#999999" points="1473.41,-146.62 1343.41,-146.62 1343.41,-116.12 1473.41,-116.12 1473.41,-146.62"/>
<text text-anchor="start" x="1351.41" y="-133.12" font-family="Helvetica,sans-Serif" font-size="10.00">typed_linear_algebra</text>
<text text-anchor="middle" x="1408.41" y="-121.88" font-family="Helvetica,sans-Serif" font-size="10.00">_internal/algorithm/add.tpp</text>
</a>
</g>
</g>
<!-- Node2&#45;&gt;Node14 -->
<g id="edge18_Node000002_Node000014" class="edge">
<title>Node2&#45;&gt;Node14</title>
<g id="a_edge18_Node000002_Node000014"><a xlink:title=" ">
<path fill="none" stroke="#63b8ff" d="M1298.55,-187.8C1319.03,-177.47 1346.67,-163.53 1369.1,-152.21"/>
<polygon fill="#63b8ff" stroke="#63b8ff" points="1370.61,-155.37 1377.96,-147.74 1367.46,-149.12 1370.61,-155.37"/>
</a>
</g>
</g>
<!-- Node15 -->
<g id="Node000015" class="node">
<title>Node15</title>
<g id="a_Node000015"><a xlink:title=" ">
<polygon fill="#e0e0e0" stroke="#999999" points="1669.29,-146.62 1529.54,-146.62 1529.54,-116.12 1669.29,-116.12 1669.29,-146.62"/>
<text text-anchor="start" x="1537.54" y="-133.12" font-family="Helvetica,sans-Serif" font-size="10.00">typed_linear_algebra</text>
<text text-anchor="middle" x="1599.41" y="-121.88" font-family="Helvetica,sans-Serif" font-size="10.00">_internal/algorithm/divide.tpp</text>
</a>
</g>
</g>
<!-- Node2&#45;&gt;Node15 -->
<g id="edge19_Node000002_Node000015" class="edge">
<title>Node2&#45;&gt;Node15</title>
<g id="a_edge19_Node000002_Node000015"><a xlink:title=" ">
<path fill="none" stroke="#63b8ff" d="M1323.75,-191.9C1373.66,-182.05 1449.65,-166.74 1515.41,-152.25 1519.38,-151.38 1523.45,-150.46 1527.55,-149.53"/>
<polygon fill="#63b8ff" stroke="#63b8ff" points="1528.01,-153.02 1536.97,-147.37 1526.44,-146.2 1528.01,-153.02"/>
</a>
</g>
</g>
<!-- Node16 -->
<g id="Node000016" class="node">
<title>Node16</title>
<g id="a_Node000016"><a xlink:title=" ">
<polygon fill="#e0e0e0" stroke="#999999" points="1847.29,-152.25 1725.54,-152.25 1725.54,-110.5 1847.29,-110.5 1847.29,-152.25"/>
<text text-anchor="start" x="1733.54" y="-138.75" font-family="Helvetica,sans-Serif" font-size="10.00">typed_linear_algebra</text>
<text text-anchor="start" x="1733.54" y="-127.5" font-family="Helvetica,sans-Serif" font-size="10.00">_internal/algorithm/equal</text>
<text text-anchor="middle" x="1786.41" y="-116.25" font-family="Helvetica,sans-Serif" font-size="10.00">_to.tpp</text>
</a>
</g>
</g>
<!-- Node2&#45;&gt;Node16 -->
<g id="edge20_Node000002_Node000016" class="edge">
<title>Node2&#45;&gt;Node16</title>
<g id="a_edge20_Node000002_Node000016"><a xlink:title=" ">
<path fill="none" stroke="#63b8ff" d="M1323.89,-198.88C1407.7,-192.72 1573.09,-178.3 1711.41,-152.25 1712.26,-152.09 1713.11,-151.93 1713.96,-151.76"/>
<polygon fill="#63b8ff" stroke="#63b8ff" points="1714.65,-155.19 1723.7,-149.69 1713.2,-148.34 1714.65,-155.19"/>
</a>
</g>
</g>
<!-- Node17 -->
<g id="Node000017" class="node">
<title>Node17</title>
<g id="a_Node000017"><a xlink:title=" ">
<polygon fill="#e0e0e0" stroke="#999999" points="1989.79,-152.25 1865.04,-152.25 1865.04,-110.5 1989.79,-110.5 1989.79,-152.25"/>
<text text-anchor="start" x="1873.04" y="-138.75" font-family="Helvetica,sans-Serif" font-size="10.00">typed_linear_algebra</text>
<text text-anchor="start" x="1873.04" y="-127.5" font-family="Helvetica,sans-Serif" font-size="10.00">_internal/algorithm/matrix</text>
<text text-anchor="middle" x="1927.41" y="-116.25" font-family="Helvetica,sans-Serif" font-size="10.00">_product.tpp</text>
</a>
</g>
</g>
<!-- Node2&#45;&gt;Node17 -->
<g id="edge21_Node000002_Node000017" class="edge">
<title>Node2&#45;&gt;Node17</title>
<g id="a_edge21_Node000002_Node000017"><a xlink:title=" ">
<path fill="none" stroke="#63b8ff" d="M1323.68,-201.25C1425.85,-198.16 1653.76,-187.78 1853.54,-152.6"/>
<polygon fill="#63b8ff" stroke="#63b8ff" points="1854.13,-156.05 1863.35,-150.84 1852.89,-149.16 1854.13,-156.05"/>
</a>
</g>
</g>
<!-- Node18 -->
<g id="Node000018" class="node">
<title>Node18</title>
<g id="a_Node000018"><a xlink:title=" ">
<polygon fill="#e0e0e0" stroke="#999999" points="177.66,-146.62 31.16,-146.62 31.16,-116.12 177.66,-116.12 177.66,-146.62"/>
<text text-anchor="start" x="39.16" y="-133.12" font-family="Helvetica,sans-Serif" font-size="10.00">typed_linear_algebra</text>
<text text-anchor="middle" x="104.41" y="-121.88" font-family="Helvetica,sans-Serif" font-size="10.00">_internal/algorithm/product.tpp</text>
</a>
</g>
</g>
<!-- Node2&#45;&gt;Node18 -->
<g id="edge22_Node000002_Node000018" class="edge">
<title>Node2&#45;&gt;Node18</title>
<g id="a_edge22_Node000002_Node000018"><a xlink:title=" ">
<path fill="none" stroke="#63b8ff" d="M1215.09,-201.36C1024.7,-197.13 388.35,-181.13 186.41,-152.25 181.08,-151.49 175.58,-150.53 170.08,-149.46"/>
<polygon fill="#63b8ff" stroke="#63b8ff" points="170.81,-146.03 160.31,-147.41 169.38,-152.89 170.81,-146.03"/>
</a>
</g>
</g>
<!-- Node19 -->
<g id="Node000019" class="node">
<title>Node19</title>
<g id="a_Node000019"><a xlink:title=" ">
<polygon fill="#e0e0e0" stroke="#999999" points="333.16,-146.62 195.66,-146.62 195.66,-116.12 333.16,-116.12 333.16,-146.62"/>
<text text-anchor="start" x="203.66" y="-133.12" font-family="Helvetica,sans-Serif" font-size="10.00">typed_linear_algebra</text>
<text text-anchor="middle" x="264.41" y="-121.88" font-family="Helvetica,sans-Serif" font-size="10.00">_internal/algorithm/scale.tpp</text>
</a>
</g>
</g>
<!-- Node2&#45;&gt;Node19 -->
<g id="edge23_Node000002_Node000019" class="edge">
<title>Node2&#45;&gt;Node19</title>
<g id="a_edge23_Node000002_Node000019"><a xlink:title=" ">
<path fill="none" stroke="#63b8ff" d="M1214.96,-203.24C1071.36,-204.41 670.81,-202.5 342.41,-152.25 337.46,-151.49 332.37,-150.56 327.27,-149.51"/>
<polygon fill="#63b8ff" stroke="#63b8ff" points="328.15,-146.12 317.63,-147.39 326.64,-152.95 328.15,-146.12"/>
</a>
</g>
</g>
<!-- Node20 -->
<g id="Node000020" class="node">
<title>Node20</title>
<g id="a_Node000020"><a xlink:title=" ">
<polygon fill="#e0e0e0" stroke="#999999" points="505.79,-146.62 351.04,-146.62 351.04,-116.12 505.79,-116.12 505.79,-146.62"/>
<text text-anchor="start" x="359.04" y="-133.12" font-family="Helvetica,sans-Serif" font-size="10.00">typed_linear_algebra</text>
<text text-anchor="middle" x="428.41" y="-121.88" font-family="Helvetica,sans-Serif" font-size="10.00">_internal/algorithm/substract.tpp</text>
</a>
</g>
</g>
<!-- Node2&#45;&gt;Node20 -->
<g id="edge24_Node000002_Node000020" class="edge">
<title>Node2&#45;&gt;Node20</title>
<g id="a_edge24_Node000002_Node000020"><a xlink:title=" ">
<path fill="none" stroke="#63b8ff" d="M1215.16,-201.82C1090.77,-199.62 775.67,-190.41 515.41,-152.25 509.81,-151.43 504.03,-150.44 498.24,-149.34"/>
<polygon fill="#63b8ff" stroke="#63b8ff" points="499.12,-145.94 488.63,-147.41 497.74,-152.81 499.12,-145.94"/>
</a>
</g>
</g>
<!-- Node21 -->
<g id="Node000021" class="node">
<title>Node21</title>
<g id="a_Node000021"><a xlink:title=" ">
<polygon fill="#e0e0e0" stroke="#999999" points="686.54,-146.62 524.29,-146.62 524.29,-116.12 686.54,-116.12 686.54,-146.62"/>
<text text-anchor="start" x="532.29" y="-133.12" font-family="Helvetica,sans-Serif" font-size="10.00">typed_linear_algebra</text>
<text text-anchor="middle" x="605.41" y="-121.88" font-family="Helvetica,sans-Serif" font-size="10.00">_internal/algorithm/transposed.tpp</text>
</a>
</g>
</g>
<!-- Node2&#45;&gt;Node21 -->
<g id="edge25_Node000002_Node000021" class="edge">
<title>Node2&#45;&gt;Node21</title>
<g id="a_edge25_Node000002_Node000021"><a xlink:title=" ">
<path fill="none" stroke="#63b8ff" d="M1214.92,-200.09C1112.62,-195.05 885.01,-181.36 695.41,-152.25 689.82,-151.39 684.06,-150.39 678.28,-149.31"/>
<polygon fill="#63b8ff" stroke="#63b8ff" points="679.16,-145.91 668.67,-147.42 677.81,-152.78 679.16,-145.91"/>
</a>
</g>
</g>
<!-- Node22 -->
<g id="Node000022" class="node">
<title>Node22</title>
<g id="a_Node000022"><a xlink:title=" ">
<polygon fill="#e0e0e0" stroke="#999999" points="808.66,-146.62 704.16,-146.62 704.16,-116.12 808.66,-116.12 808.66,-146.62"/>
<text text-anchor="start" x="712.16" y="-133.12" font-family="Helvetica,sans-Serif" font-size="10.00">typed_linear_algebra</text>
<text text-anchor="middle" x="756.41" y="-121.88" font-family="Helvetica,sans-Serif" font-size="10.00">_internal/cast.tpp</text>
</a>
</g>
</g>
<!-- Node2&#45;&gt;Node22 -->
<g id="edge26_Node000002_Node000022" class="edge">
<title>Node2&#45;&gt;Node22</title>
<g id="a_edge26_Node000002_Node000022"><a xlink:title=" ">
<path fill="none" stroke="#63b8ff" d="M1214.92,-200.04C1129.4,-195.37 958.84,-182.81 817.41,-152.25 814.5,-151.62 811.54,-150.91 808.55,-150.13"/>
<polygon fill="#63b8ff" stroke="#63b8ff" points="809.81,-146.85 799.23,-147.51 807.91,-153.59 809.81,-146.85"/>
</a>
</g>
</g>
<!-- Node23 -->
<g id="Node000023" class="node">
<title>Node23</title>
<g id="a_Node000023"><a xlink:title=" ">
<polygon fill="#e0e0e0" stroke="#999999" points="934.16,-152.25 826.66,-152.25 826.66,-110.5 934.16,-110.5 934.16,-152.25"/>
<text text-anchor="start" x="834.66" y="-138.75" font-family="Helvetica,sans-Serif" font-size="10.00">typed_linear_algebra</text>
<text text-anchor="start" x="834.66" y="-127.5" font-family="Helvetica,sans-Serif" font-size="10.00">_internal/typed_linear</text>
<text text-anchor="middle" x="880.41" y="-116.25" font-family="Helvetica,sans-Serif" font-size="10.00">_algebra.tpp</text>
</a>
</g>
</g>
<!-- Node2&#45;&gt;Node23 -->
<g id="edge27_Node000002_Node000023" class="edge">
<title>Node2&#45;&gt;Node23</title>
<g id="a_edge27_Node000002_Node000023"><a xlink:title=" ">
<path fill="none" stroke="#63b8ff" d="M1215,-196.69C1152.17,-189.41 1045.62,-175.31 945.48,-152.56"/>
<polygon fill="#63b8ff" stroke="#63b8ff" points="946.57,-149.22 936.04,-150.38 944.99,-156.04 946.57,-149.22"/>
</a>
</g>
</g>
<!-- Node4&#45;&gt;Node5 -->
<g id="edge4_Node000004_Node000005" class="edge">
<title>Node4&#45;&gt;Node5</title>
<g id="a_edge4_Node000004_Node000005"><a xlink:title=" ">
<path fill="none" stroke="#63b8ff" d="M1119.7,-115.74C1114.86,-106.56 1108.57,-94.63 1103.36,-84.74"/>
<polygon fill="#63b8ff" stroke="#63b8ff" points="1106.53,-83.25 1098.77,-76.04 1100.34,-86.51 1106.53,-83.25"/>
</a>
</g>
</g>
<!-- Node4&#45;&gt;Node10 -->
<g id="edge9_Node000004_Node000010" class="edge">
<title>Node4&#45;&gt;Node10</title>
<g id="a_edge9_Node000004_Node000010"><a xlink:title=" ">
<path fill="none" stroke="#63b8ff" d="M1168.09,-115.71C1174.81,-113.7 1181.76,-111.86 1188.41,-110.5 1363.42,-74.8 1578.01,-67.65 1661.65,-66.23"/>
<polygon fill="#63b8ff" stroke="#63b8ff" points="1661.56,-69.73 1671.51,-66.08 1661.46,-62.73 1661.56,-69.73"/>
</a>
</g>
</g>
<!-- Node4&#45;&gt;Node11 -->
<g id="edge10_Node000004_Node000011" class="edge">
<title>Node4&#45;&gt;Node11</title>
<g id="a_edge10_Node000004_Node000011"><a xlink:title=" ">
<path fill="none" stroke="#63b8ff" d="M1135.13,-115.74C1139.97,-106.56 1146.26,-94.63 1151.47,-84.74"/>
<polygon fill="#63b8ff" stroke="#63b8ff" points="1154.49,-86.51 1156.06,-76.04 1148.3,-83.25 1154.49,-86.51"/>
</a>
</g>
</g>
<!-- Node5&#45;&gt;Node6 -->
<g id="edge5_Node000005_Node000006" class="edge">
<title>Node5&#45;&gt;Node6</title>
<g id="a_edge5_Node000005_Node000006"><a xlink:title=" ">
<path fill="none" stroke="#63b8ff" d="M1122.02,-56.8C1124.85,-56.22 1127.68,-55.69 1130.41,-55.25 1292.62,-28.93 1488.37,-16.73 1570.79,-12.48"/>
<polygon fill="#63b8ff" stroke="#63b8ff" points="1570.79,-15.98 1580.6,-11.98 1570.44,-8.99 1570.79,-15.98"/>
</a>
</g>
</g>
<!-- Node7 -->
<g id="Node000007" class="node">
<title>Node7</title>
<g id="a_Node000007"><a xlink:title=" ">
<polygon fill="#e0e0e0" stroke="#999999" points="1122.41,-19.25 1064.41,-19.25 1064.41,0 1122.41,0 1122.41,-19.25"/>
<text text-anchor="middle" x="1093.41" y="-5.75" font-family="Helvetica,sans-Serif" font-size="10.00">functional</text>
</a>
</g>
</g>
<!-- Node5&#45;&gt;Node7 -->
<g id="edge6_Node000005_Node000007" class="edge">
<title>Node5&#45;&gt;Node7</title>
<g id="a_edge6_Node000005_Node000007"><a xlink:title=" ">
<path fill="none" stroke="#63b8ff" d="M1093.41,-55.08C1093.41,-48.57 1093.41,-39.42 1093.41,-31.12"/>
<polygon fill="#63b8ff" stroke="#63b8ff" points="1096.91,-31.12 1093.41,-21.12 1089.91,-31.12 1096.91,-31.12"/>
</a>
</g>
</g>
<!-- Node5&#45;&gt;Node8 -->
<g id="edge7_Node000005_Node000008" class="edge">
<title>Node5&#45;&gt;Node8</title>
<g id="a_edge7_Node000005_Node000008"><a xlink:title=" ">
<path fill="none" stroke="#63b8ff" d="M1122,-56.67C1124.83,-56.12 1127.67,-55.63 1130.41,-55.25 1317.28,-29.36 1921.78,-14.46 2063.49,-11.27"/>
<polygon fill="#63b8ff" stroke="#63b8ff" points="2063.25,-14.78 2073.17,-11.06 2063.09,-7.78 2063.25,-14.78"/>
</a>
</g>
</g>
<!-- Node5&#45;&gt;Node9 -->
<g id="edge8_Node000005_Node000009" class="edge">
<title>Node5&#45;&gt;Node9</title>
<g id="a_edge8_Node000005_Node000009"><a xlink:title=" ">
<path fill="none" stroke="#63b8ff" d="M1064.72,-61.48C962.72,-52.98 617.36,-24.2 496.56,-14.14"/>
<polygon fill="#63b8ff" stroke="#63b8ff" points="497.02,-10.66 486.76,-13.32 496.44,-17.64 497.02,-10.66"/>
</a>
</g>
</g>
</g>
</svg>

<g id="navigator" transform="translate(0 0)" fill="#404254">
  <rect fill="#f2f5e9" fill-opacity="0.5" stroke="#606060" stroke-width=".5" x="0" y="0" width="60" height="60"/>
  <use id="zoomplus" xlink:href="#zoomPlus" x="17" y="9" onmousedown="handleZoom(evt,'in')"/>
  <use id="zoomminus" xlink:href="#zoomMin" x="42" y="9" onmousedown="handleZoom(evt,'out')"/>
  <use id="reset" xlink:href="#resetDef" x="30" y="36" onmousedown="handleReset()"/>
   <use id="arrowup" xlink:href="#arrowUp" x="0" y="0" onmousedown="handlePan(0,-1)"/>
  <use id="arrowright" xlink:href="#arrowRight" x="0" y="0" onmousedown="handlePan(1,0)"/>
  <use id="arrowdown" xlink:href="#arrowDown" x="0" y="0" onmousedown="handlePan(0,1)"/>
  <use id="arrowleft" xlink:href="#arrowLeft" x="0" y="0" onmousedown="handlePan(-1,0)"/>
</g>
<svg viewBox="0 0 15 15" width="100%" height="30px" preserveAspectRatio="xMaxYMin meet">
 <g id="arrow_out" transform="scale(0.3 0.3)">
  <a xlink:href="mp__units__std_8cpp__incl_org.svg" target="_base">
   <rect id="button" ry="5" rx="5" y="6" x="6" height="38" width="38"
        fill="#f2f5e9" fill-opacity="0.5" stroke="#606060" stroke-width="1.0"/>
   <path id="arrow"
     d="M 11.500037,31.436501 C 11.940474,20.09759 22.043105,11.32322 32.158766,21.979434 L 37.068811,17.246167 C 37.068811,17.246167 37.088388,32 37.088388,32 L 22.160133,31.978069 C 22.160133,31.978069 26.997745,27.140456 26.997745,27.140456 C 18.528582,18.264221 13.291696,25.230495 11.500037,31.436501 z"
     style="fill:#404040;"/>
  </a>
 </g>
</svg>

<style type='text/css'>
<![CDATA[
[data-mouse-over-selected='false'] { opacity: 0.7; }
[data-mouse-over-selected='true']  { opacity: 1.0; }
]]>
</style>
<script type="application/ecmascript"><![CDATA[
document.addEventListener('DOMContentLoaded', (event) => {
  highlightEdges();
  highlightAdjacentNodes();
});
]]></script>
</svg>
