<?xml version="1.0" encoding="UTF-8" standalone="no"?>
<!DOCTYPE svg PUBLIC "-//W3C//DTD SVG 1.1//EN"
 "http://www.w3.org/Graphics/SVG/1.1/DTD/svg11.dtd">
<!-- Generated by graphviz version 12.2.0 (20241103.1931)
 -->
<!-- Title: /github/workspace/sample/mp_units_eigen.cpp Pages: 1 -->
<svg width="2268pt" height="293pt"
 viewBox="0.00 0.00 2268.12 293.25" xmlns="http://www.w3.org/2000/svg" xmlns:xlink="http://www.w3.org/1999/xlink">
<g id="graph0" class="graph" transform="scale(1 1) rotate(0) translate(4 289.25)">
<title>/github/workspace/sample/mp_units_eigen.cpp</title>
<!-- Node1 -->
<g id="Node000001" class="node">
<title>Node1</title>
<g id="a_Node000001"><a xlink:title="Unit safe linear algebra with mp&#45;units and Eigen.">
<polygon fill="#999999" stroke="#666666" points="1656.5,-285.25 1526.5,-285.25 1526.5,-254.75 1656.5,-254.75 1656.5,-285.25"/>
<text text-anchor="start" x="1534.5" y="-271.75" font-family="Helvetica,sans-Serif" font-size="10.00">/github/workspace/sample</text>
<text text-anchor="middle" x="1591.5" y="-260.5" font-family="Helvetica,sans-Serif" font-size="10.00">/mp_units_eigen.cpp</text>
</a>
</g>
</g>
<!-- Node2 -->
<g id="Node000002" class="node">
<title>Node2</title>
<g id="a_Node000002"><a xlink:title=" ">
<polygon fill="#e0e0e0" stroke="#999999" points="97,-213.12 0,-213.12 0,-193.88 97,-193.88 97,-213.12"/>
<text text-anchor="middle" x="48.5" y="-199.62" font-family="Helvetica,sans-Serif" font-size="10.00">fcarouge/linalg.hpp</text>
</a>
</g>
</g>
<!-- Node1&#45;&gt;Node2 -->
<g id="edge1_Node000001_Node000002" class="edge">
<title>Node1&#45;&gt;Node2</title>
<g id="a_edge1_Node000001_Node000002"><a xlink:title=" ">
<path fill="none" stroke="#63b8ff" d="M1526.04,-268.42C1277.33,-265.95 391.03,-254.78 111.5,-218.75 105.87,-218.02 100.01,-217.03 94.23,-215.9"/>
<polygon fill="#63b8ff" stroke="#63b8ff" points="95.27,-212.54 84.76,-213.91 93.83,-219.39 95.27,-212.54"/>
</a>
</g>
</g>
<!-- Node3 -->
<g id="Node000003" class="node">
<title>Node3</title>
<g id="a_Node000003"><a xlink:href="typed__linear__algebra_8hpp.xhtml" target="_top" xlink:title="Typed linear algebra implementation.">
<polygon fill="white" stroke="#666666" points="1178.62,-218.75 1070.38,-218.75 1070.38,-188.25 1178.62,-188.25 1178.62,-218.75"/>
<text text-anchor="start" x="1078.38" y="-205.25" font-family="Helvetica,sans-Serif" font-size="10.00">fcarouge/typed_linear</text>
<text text-anchor="middle" x="1124.5" y="-194" font-family="Helvetica,sans-Serif" font-size="10.00">_algebra.hpp</text>
</a>
</g>
</g>
<!-- Node1&#45;&gt;Node3 -->
<g id="edge2_Node000001_Node000003" class="edge">
<title>Node1&#45;&gt;Node3</title>
<g id="a_edge2_Node000001_Node000003"><a xlink:title=" ">
<path fill="none" stroke="#63b8ff" d="M1526.07,-259.96C1437.21,-247.69 1279.27,-225.88 1190.25,-213.58"/>
<polygon fill="#63b8ff" stroke="#63b8ff" points="1190.83,-210.13 1180.45,-212.23 1189.88,-217.06 1190.83,-210.13"/>
</a>
</g>
</g>
<!-- Node9 -->
<g id="Node000009" class="node">
<title>Node9</title>
<g id="a_Node000009"><a xlink:title=" ">
<polygon fill="#e0e0e0" stroke="#999999" points="1799,-19.25 1762,-19.25 1762,0 1799,0 1799,-19.25"/>
<text text-anchor="middle" x="1780.5" y="-5.75" font-family="Helvetica,sans-Serif" font-size="10.00">tuple</text>
</a>
</g>
</g>
<!-- Node1&#45;&gt;Node9 -->
<g id="edge28_Node000001_Node000009" class="edge">
<title>Node1&#45;&gt;Node9</title>
<g id="a_edge28_Node000001_Node000009"><a xlink:title=" ">
<path fill="none" stroke="#63b8ff" d="M1567.91,-254.54C1543.85,-238.02 1512.54,-210.41 1531.5,-188.25 1598.77,-109.63 1681.34,-217.67 1761.5,-152.25 1796.36,-123.8 1795.45,-99.97 1790.5,-55.25 1789.59,-47.06 1787.78,-38.18 1785.94,-30.51"/>
<polygon fill="#63b8ff" stroke="#63b8ff" points="1789.34,-29.69 1783.45,-20.88 1782.57,-31.44 1789.34,-29.69"/>
</a>
</g>
</g>
<!-- Node10 -->
<g id="Node000010" class="node">
<title>Node10</title>
<g id="a_Node000010"><a xlink:title=" ">
<polygon fill="#e0e0e0" stroke="#999999" points="865,-19.25 804,-19.25 804,0 865,0 865,-19.25"/>
<text text-anchor="middle" x="834.5" y="-5.75" font-family="Helvetica,sans-Serif" font-size="10.00">type_traits</text>
</a>
</g>
</g>
<!-- Node1&#45;&gt;Node10 -->
<g id="edge29_Node000001_Node000010" class="edge">
<title>Node1&#45;&gt;Node10</title>
<g id="a_edge29_Node000001_Node000010"><a xlink:title=" ">
<path fill="none" stroke="#63b8ff" d="M1526.18,-268.37C1280.27,-265.73 418.2,-254.04 300.5,-218.75 245.78,-202.34 224.59,-198.09 190.5,-152.25 164.23,-116.93 140.44,-87.4 170.5,-55.25 212.91,-9.89 652.37,-9.24 792.09,-10.2"/>
<polygon fill="#63b8ff" stroke="#63b8ff" points="791.99,-13.7 802.02,-10.28 792.04,-6.7 791.99,-13.7"/>
</a>
</g>
</g>
<!-- Node12 -->
<g id="Node000012" class="node">
<title>Node12</title>
<g id="a_Node000012"><a xlink:title=" ">
<polygon fill="#e0e0e0" stroke="#999999" points="223.38,-74.5 179.62,-74.5 179.62,-55.25 223.38,-55.25 223.38,-74.5"/>
<text text-anchor="middle" x="201.5" y="-61" font-family="Helvetica,sans-Serif" font-size="10.00">format</text>
</a>
</g>
</g>
<!-- Node1&#45;&gt;Node12 -->
<g id="edge26_Node000001_Node000012" class="edge">
<title>Node1&#45;&gt;Node12</title>
<g id="a_edge26_Node000001_Node000012"><a xlink:title=" ">
<path fill="none" stroke="#63b8ff" d="M1526.36,-268.3C1265.27,-264.88 303.95,-245.94 209.5,-152.25 192.4,-135.29 193.54,-105.82 196.81,-86.08"/>
<polygon fill="#63b8ff" stroke="#63b8ff" points="200.2,-86.98 198.73,-76.48 193.34,-85.6 200.2,-86.98"/>
</a>
</g>
</g>
<!-- Node22 -->
<g id="Node000022" class="node">
<title>Node22</title>
<g id="a_Node000022"><a xlink:title=" ">
<polygon fill="#e0e0e0" stroke="#999999" points="1574.88,-213.12 1540.12,-213.12 1540.12,-193.88 1574.88,-193.88 1574.88,-213.12"/>
<text text-anchor="middle" x="1557.5" y="-199.62" font-family="Helvetica,sans-Serif" font-size="10.00">print</text>
</a>
</g>
</g>
<!-- Node1&#45;&gt;Node22 -->
<g id="edge27_Node000001_Node000022" class="edge">
<title>Node1&#45;&gt;Node22</title>
<g id="a_edge27_Node000001_Node000022"><a xlink:title=" ">
<path fill="none" stroke="#63b8ff" d="M1583.78,-254.36C1578.94,-245.18 1572.66,-233.25 1567.44,-223.36"/>
<polygon fill="#63b8ff" stroke="#63b8ff" points="1570.62,-221.88 1562.86,-214.66 1564.42,-225.14 1570.62,-221.88"/>
</a>
</g>
</g>
<!-- Node23 -->
<g id="Node000023" class="node">
<title>Node23</title>
<g id="a_Node000023"><a xlink:title=" ">
<polygon fill="#e0e0e0" stroke="#999999" points="1660,-213.12 1593,-213.12 1593,-193.88 1660,-193.88 1660,-213.12"/>
<text text-anchor="middle" x="1626.5" y="-199.62" font-family="Helvetica,sans-Serif" font-size="10.00">Eigen/Eigen</text>
</a>
</g>
</g>
<!-- Node1&#45;&gt;Node23 -->
<g id="edge30_Node000001_Node000023" class="edge">
<title>Node1&#45;&gt;Node23</title>
<g id="a_edge30_Node000001_Node000023"><a xlink:title=" ">
<path fill="none" stroke="#63b8ff" d="M1599.44,-254.36C1604.42,-245.18 1610.9,-233.25 1616.26,-223.36"/>
<polygon fill="#63b8ff" stroke="#63b8ff" points="1619.3,-225.11 1620.99,-214.65 1613.14,-221.77 1619.3,-225.11"/>
</a>
</g>
</g>
<!-- Node24 -->
<g id="Node000024" class="node">
<title>Node24</title>
<g id="a_Node000024"><a xlink:title=" ">
<polygon fill="#e0e0e0" stroke="#999999" points="1780.62,-218.75 1678.38,-218.75 1678.38,-188.25 1780.62,-188.25 1780.62,-218.75"/>
<text text-anchor="start" x="1686.38" y="-205.25" font-family="Helvetica,sans-Serif" font-size="10.00">mp&#45;units/framework</text>
<text text-anchor="middle" x="1729.5" y="-194" font-family="Helvetica,sans-Serif" font-size="10.00">/quantity.h</text>
</a>
</g>
</g>
<!-- Node1&#45;&gt;Node24 -->
<g id="edge31_Node000001_Node000024" class="edge">
<title>Node1&#45;&gt;Node24</title>
<g id="a_edge31_Node000001_Node000024"><a xlink:title=" ">
<path fill="none" stroke="#63b8ff" d="M1622.81,-254.36C1642.13,-245.33 1667.14,-233.65 1688.09,-223.86"/>
<polygon fill="#63b8ff" stroke="#63b8ff" points="1689.36,-227.12 1696.94,-219.72 1686.4,-220.78 1689.36,-227.12"/>
</a>
</g>
</g>
<!-- Node25 -->
<g id="Node000025" class="node">
<title>Node25</title>
<g id="a_Node000025"><a xlink:title=" ">
<polygon fill="#e0e0e0" stroke="#999999" points="1900.62,-218.75 1798.38,-218.75 1798.38,-188.25 1900.62,-188.25 1900.62,-218.75"/>
<text text-anchor="start" x="1806.38" y="-205.25" font-family="Helvetica,sans-Serif" font-size="10.00">mp&#45;units/framework</text>
<text text-anchor="middle" x="1849.5" y="-194" font-family="Helvetica,sans-Serif" font-size="10.00">/quantity_point.h</text>
</a>
</g>
</g>
<!-- Node1&#45;&gt;Node25 -->
<g id="edge32_Node000001_Node000025" class="edge">
<title>Node1&#45;&gt;Node25</title>
<g id="a_edge32_Node000001_Node000025"><a xlink:title=" ">
<path fill="none" stroke="#63b8ff" d="M1650.37,-254.28C1691.24,-244.07 1745.6,-230.47 1787.2,-220.08"/>
<polygon fill="#63b8ff" stroke="#63b8ff" points="1787.98,-223.49 1796.83,-217.67 1786.28,-216.7 1787.98,-223.49"/>
</a>
</g>
</g>
<!-- Node26 -->
<g id="Node000026" class="node">
<title>Node26</title>
<g id="a_Node000026"><a xlink:title=" ">
<polygon fill="#e0e0e0" stroke="#999999" points="2004.38,-213.12 1918.62,-213.12 1918.62,-193.88 2004.38,-193.88 2004.38,-213.12"/>
<text text-anchor="middle" x="1961.5" y="-199.62" font-family="Helvetica,sans-Serif" font-size="10.00">mp&#45;units/math.h</text>
</a>
</g>
</g>
<!-- Node1&#45;&gt;Node26 -->
<g id="edge33_Node000001_Node000026" class="edge">
<title>Node1&#45;&gt;Node26</title>
<g id="a_edge33_Node000001_Node000026"><a xlink:title=" ">
<path fill="none" stroke="#63b8ff" d="M1656.75,-260.84C1721.31,-252.26 1822.76,-237.43 1909.5,-218.75 1912.82,-218.03 1916.25,-217.23 1919.69,-216.39"/>
<polygon fill="#63b8ff" stroke="#63b8ff" points="1920.29,-219.85 1929.1,-213.96 1918.54,-213.07 1920.29,-219.85"/>
</a>
</g>
</g>
<!-- Node27 -->
<g id="Node000027" class="node">
<title>Node27</title>
<g id="a_Node000027"><a xlink:title=" ">
<polygon fill="#e0e0e0" stroke="#999999" points="2131,-218.75 2022,-218.75 2022,-188.25 2131,-188.25 2131,-218.75"/>
<text text-anchor="start" x="2030" y="-205.25" font-family="Helvetica,sans-Serif" font-size="10.00">mp&#45;units/systems/isq</text>
<text text-anchor="middle" x="2076.5" y="-194" font-family="Helvetica,sans-Serif" font-size="10.00">/thermodynamics.h</text>
</a>
</g>
</g>
<!-- Node1&#45;&gt;Node27 -->
<g id="edge34_Node000001_Node000027" class="edge">
<title>Node1&#45;&gt;Node27</title>
<g id="a_edge34_Node000001_Node000027"><a xlink:title=" ">
<path fill="none" stroke="#63b8ff" d="M1656.87,-263.34C1737.8,-255.86 1880.03,-241.17 2010.61,-219.15"/>
<polygon fill="#63b8ff" stroke="#63b8ff" points="2010.83,-222.66 2020.1,-217.53 2009.65,-215.76 2010.83,-222.66"/>
</a>
</g>
</g>
<!-- Node28 -->
<g id="Node000028" class="node">
<title>Node28</title>
<g id="a_Node000028"><a xlink:title=" ">
<polygon fill="#e0e0e0" stroke="#999999" points="2260.12,-213.12 2148.88,-213.12 2148.88,-193.88 2260.12,-193.88 2260.12,-213.12"/>
<text text-anchor="middle" x="2204.5" y="-199.62" font-family="Helvetica,sans-Serif" font-size="10.00">mp&#45;units/systems/si.h</text>
</a>
</g>
</g>
<!-- Node1&#45;&gt;Node28 -->
<g id="edge35_Node000001_Node000028" class="edge">
<title>Node1&#45;&gt;Node28</title>
<g id="a_edge35_Node000001_Node000028"><a xlink:title=" ">
<path fill="none" stroke="#63b8ff" d="M1656.91,-265.72C1760.14,-259.94 1966.98,-245.89 2140.5,-218.75 2145.71,-217.94 2151.13,-216.95 2156.51,-215.88"/>
<polygon fill="#63b8ff" stroke="#63b8ff" points="2156.87,-219.38 2165.95,-213.91 2155.44,-212.53 2156.87,-219.38"/>
</a>
</g>
</g>
<!-- Node4 -->
<g id="Node000004" class="node">
<title>Node4</title>
<g id="a_Node000004"><a xlink:href="typed__linear__algebra__forward_8hpp.xhtml" target="_top" xlink:title="Authoritative forward declaration header.">
<polygon fill="white" stroke="#666666" points="1553.75,-146.62 1449.25,-146.62 1449.25,-116.12 1553.75,-116.12 1553.75,-146.62"/>
<text text-anchor="start" x="1457.25" y="-133.12" font-family="Helvetica,sans-Serif" font-size="10.00">typed_linear_algebra</text>
<text text-anchor="middle" x="1501.5" y="-121.88" font-family="Helvetica,sans-Serif" font-size="10.00">_forward.hpp</text>
</a>
</g>
</g>
<!-- Node3&#45;&gt;Node4 -->
<g id="edge3_Node000003_Node000004" class="edge">
<title>Node3&#45;&gt;Node4</title>
<g id="a_edge3_Node000003_Node000004"><a xlink:title=" ">
<path fill="none" stroke="#63b8ff" d="M1178.97,-196.48C1242.35,-188.87 1349.9,-174.07 1440.5,-152.25 1443.1,-151.62 1445.76,-150.94 1448.43,-150.21"/>
<polygon fill="#63b8ff" stroke="#63b8ff" points="1449.32,-153.6 1457.96,-147.46 1447.38,-146.87 1449.32,-153.6"/>
</a>
</g>
</g>
<!-- Node5 -->
<g id="Node000005" class="node">
<title>Node5</title>
<g id="a_Node000005"><a xlink:href="format_8hpp.xhtml" target="_top" xlink:title="Formatting support for the typed matrix.">
<polygon fill="white" stroke="#666666" points="1676.75,-146.62 1572.25,-146.62 1572.25,-116.12 1676.75,-116.12 1676.75,-146.62"/>
<text text-anchor="start" x="1580.25" y="-133.12" font-family="Helvetica,sans-Serif" font-size="10.00">typed_linear_algebra</text>
<text text-anchor="middle" x="1624.5" y="-121.88" font-family="Helvetica,sans-Serif" font-size="10.00">_internal/format.hpp</text>
</a>
</g>
</g>
<!-- Node3&#45;&gt;Node5 -->
<g id="edge4_Node000003_Node000005" class="edge">
<title>Node3&#45;&gt;Node5</title>
<g id="a_edge4_Node000003_Node000005"><a xlink:title=" ">
<path fill="none" stroke="#63b8ff" d="M1179,-199.69C1262.39,-194.61 1426.32,-181.59 1562.5,-152.25 1565.45,-151.61 1568.47,-150.89 1571.5,-150.11"/>
<polygon fill="#63b8ff" stroke="#63b8ff" points="1572.29,-153.53 1580.99,-147.48 1570.41,-146.78 1572.29,-153.53"/>
</a>
</g>
</g>
<!-- Node6 -->
<g id="Node000006" class="node">
<title>Node6</title>
<g id="a_Node000006"><a xlink:href="utility_8hpp.xhtml" target="_top" xlink:title=" ">
<polygon fill="white" stroke="#666666" points="1648.75,-74.5 1592.25,-74.5 1592.25,-55.25 1648.75,-55.25 1648.75,-74.5"/>
<text text-anchor="middle" x="1620.5" y="-61" font-family="Helvetica,sans-Serif" font-size="10.00">utility.hpp</text>
</a>
</g>
</g>
<!-- Node3&#45;&gt;Node6 -->
<g id="edge12_Node000003_Node000006" class="edge">
<title>Node3&#45;&gt;Node6</title>
<g id="a_edge12_Node000003_Node000006"><a xlink:title=" ">
<path fill="none" stroke="#63b8ff" d="M1070.05,-201.38C884.43,-197.28 286.42,-181.84 258.5,-152.25 245.76,-138.75 245.6,-123.83 258.5,-110.5 305.65,-61.78 1360.88,-64.53 1580.63,-65.64"/>
<polygon fill="#63b8ff" stroke="#63b8ff" points="1580.37,-69.14 1590.39,-65.69 1580.4,-62.14 1580.37,-69.14"/>
</a>
</g>
</g>
<!-- Node7 -->
<g id="Node000007" class="node">
<title>Node7</title>
<g id="a_Node000007"><a xlink:title=" ">
<polygon fill="#e0e0e0" stroke="#999999" points="1734.38,-19.25 1678.62,-19.25 1678.62,0 1734.38,0 1734.38,-19.25"/>
<text text-anchor="middle" x="1706.5" y="-5.75" font-family="Helvetica,sans-Serif" font-size="10.00">concepts</text>
</a>
</g>
</g>
<!-- Node3&#45;&gt;Node7 -->
<g id="edge13_Node000003_Node000007" class="edge">
<title>Node3&#45;&gt;Node7</title>
<g id="a_edge13_Node000003_Node000007"><a xlink:title=" ">
<path fill="none" stroke="#63b8ff" d="M1178.94,-201.42C1316.03,-198.2 1667.36,-186.64 1706.5,-152.25 1739.38,-123.36 1731.42,-98.3 1723.5,-55.25 1721.93,-46.7 1718.79,-37.66 1715.63,-29.97"/>
<polygon fill="#63b8ff" stroke="#63b8ff" points="1718.89,-28.68 1711.64,-20.96 1712.49,-31.52 1718.89,-28.68"/>
</a>
</g>
</g>
<!-- Node3&#45;&gt;Node9 -->
<g id="edge17_Node000003_Node000009" class="edge">
<title>Node3&#45;&gt;Node9</title>
<g id="a_edge17_Node000003_Node000009"><a xlink:title=" ">
<path fill="none" stroke="#63b8ff" d="M1179.07,-201.37C1320.23,-197.96 1689.41,-185.91 1732.5,-152.25 1770.26,-122.75 1778.52,-62.17 1780.19,-30.66"/>
<polygon fill="#63b8ff" stroke="#63b8ff" points="1783.68,-31.07 1780.52,-20.96 1776.69,-30.84 1783.68,-31.07"/>
</a>
</g>
</g>
<!-- Node11 -->
<g id="Node000011" class="node">
<title>Node11</title>
<g id="a_Node000011"><a xlink:title=" ">
<polygon fill="#e0e0e0" stroke="#999999" points="1714.62,-74.5 1666.38,-74.5 1666.38,-55.25 1714.62,-55.25 1714.62,-74.5"/>
<text text-anchor="middle" x="1690.5" y="-61" font-family="Helvetica,sans-Serif" font-size="10.00">cstddef</text>
</a>
</g>
</g>
<!-- Node3&#45;&gt;Node11 -->
<g id="edge14_Node000003_Node000011" class="edge">
<title>Node3&#45;&gt;Node11</title>
<g id="a_edge14_Node000003_Node000011"><a xlink:title=" ">
<path fill="none" stroke="#63b8ff" d="M1178.76,-201.59C1312.69,-198.79 1650.67,-188.2 1685.5,-152.25 1702.21,-135 1700,-105.6 1695.98,-85.96"/>
<polygon fill="#63b8ff" stroke="#63b8ff" points="1699.43,-85.31 1693.68,-76.41 1692.62,-86.95 1699.43,-85.31"/>
</a>
</g>
</g>
<!-- Node3&#45;&gt;Node12 -->
<g id="edge15_Node000003_Node000012" class="edge">
<title>Node3&#45;&gt;Node12</title>
<g id="a_edge15_Node000003_Node000012"><a xlink:title=" ">
<path fill="none" stroke="#63b8ff" d="M1069.93,-202.53C888.53,-202.21 313.25,-197.58 244.5,-152.25 221.8,-137.28 210.6,-106.57 205.44,-86.1"/>
<polygon fill="#63b8ff" stroke="#63b8ff" points="208.87,-85.39 203.29,-76.38 202.04,-86.9 208.87,-85.39"/>
</a>
</g>
</g>
<!-- Node13 -->
<g id="Node000013" class="node">
<title>Node13</title>
<g id="a_Node000013"><a xlink:title=" ">
<polygon fill="#e0e0e0" stroke="#999999" points="339.25,-141 267.75,-141 267.75,-121.75 339.25,-121.75 339.25,-141"/>
<text text-anchor="middle" x="303.5" y="-127.5" font-family="Helvetica,sans-Serif" font-size="10.00">initializer_list</text>
</a>
</g>
</g>
<!-- Node3&#45;&gt;Node13 -->
<g id="edge16_Node000003_Node000013" class="edge">
<title>Node3&#45;&gt;Node13</title>
<g id="a_edge16_Node000003_Node000013"><a xlink:title=" ">
<path fill="none" stroke="#63b8ff" d="M1070.04,-201.45C917.06,-198.1 485.69,-185.86 348.5,-152.25 342.38,-150.75 336.05,-148.47 330.15,-145.97"/>
<polygon fill="#63b8ff" stroke="#63b8ff" points="332.03,-142.98 321.47,-142.01 329.12,-149.35 332.03,-142.98"/>
</a>
</g>
</g>
<!-- Node14 -->
<g id="Node000014" class="node">
<title>Node14</title>
<g id="a_Node000014"><a xlink:title=" ">
<polygon fill="#e0e0e0" stroke="#999999" points="395.75,-141 357.25,-141 357.25,-121.75 395.75,-121.75 395.75,-141"/>
<text text-anchor="middle" x="376.5" y="-127.5" font-family="Helvetica,sans-Serif" font-size="10.00">utility</text>
</a>
</g>
</g>
<!-- Node3&#45;&gt;Node14 -->
<g id="edge18_Node000003_Node000014" class="edge">
<title>Node3&#45;&gt;Node14</title>
<g id="a_edge18_Node000003_Node000014"><a xlink:title=" ">
<path fill="none" stroke="#63b8ff" d="M1069.94,-202.49C923.91,-201.85 526.91,-196.03 404.5,-152.25 401.5,-151.18 398.53,-149.68 395.71,-148"/>
<polygon fill="#63b8ff" stroke="#63b8ff" points="397.79,-145.18 387.6,-142.28 393.76,-150.9 397.79,-145.18"/>
</a>
</g>
</g>
<!-- Node15 -->
<g id="Node000015" class="node">
<title>Node15</title>
<g id="a_Node000015"><a xlink:title=" ">
<polygon fill="#e0e0e0" stroke="#999999" points="543.5,-146.62 413.5,-146.62 413.5,-116.12 543.5,-116.12 543.5,-146.62"/>
<text text-anchor="start" x="421.5" y="-133.12" font-family="Helvetica,sans-Serif" font-size="10.00">typed_linear_algebra</text>
<text text-anchor="middle" x="478.5" y="-121.88" font-family="Helvetica,sans-Serif" font-size="10.00">_internal/algorithm/add.tpp</text>
</a>
</g>
</g>
<!-- Node3&#45;&gt;Node15 -->
<g id="edge19_Node000003_Node000015" class="edge">
<title>Node3&#45;&gt;Node15</title>
<g id="a_edge19_Node000003_Node000015"><a xlink:title=" ">
<path fill="none" stroke="#63b8ff" d="M1070.07,-200.88C967.9,-197.15 740.73,-185.53 552.5,-152.25 548.2,-151.49 543.79,-150.6 539.36,-149.62"/>
<polygon fill="#63b8ff" stroke="#63b8ff" points="540.4,-146.27 529.86,-147.39 538.8,-153.08 540.4,-146.27"/>
</a>
</g>
</g>
<!-- Node16 -->
<g id="Node000016" class="node">
<title>Node16</title>
<g id="a_Node000016"><a xlink:title=" ">
<polygon fill="#e0e0e0" stroke="#999999" points="701.38,-146.62 561.62,-146.62 561.62,-116.12 701.38,-116.12 701.38,-146.62"/>
<text text-anchor="start" x="569.62" y="-133.12" font-family="Helvetica,sans-Serif" font-size="10.00">typed_linear_algebra</text>
<text text-anchor="middle" x="631.5" y="-121.88" font-family="Helvetica,sans-Serif" font-size="10.00">_internal/algorithm/divide.tpp</text>
</a>
</g>
</g>
<!-- Node3&#45;&gt;Node16 -->
<g id="edge20_Node000003_Node000016" class="edge">
<title>Node3&#45;&gt;Node16</title>
<g id="a_edge20_Node000003_Node000016"><a xlink:title=" ">
<path fill="none" stroke="#63b8ff" d="M1069.92,-198.08C990.41,-191.14 838.28,-175.98 710.5,-152.25 706.17,-151.45 701.72,-150.54 697.24,-149.58"/>
<polygon fill="#63b8ff" stroke="#63b8ff" points="698.13,-146.19 687.6,-147.4 696.59,-153.02 698.13,-146.19"/>
</a>
</g>
</g>
<!-- Node17 -->
<g id="Node000017" class="node">
<title>Node17</title>
<g id="a_Node000017"><a xlink:title=" ">
<polygon fill="#e0e0e0" stroke="#999999" points="873.88,-146.62 719.12,-146.62 719.12,-116.12 873.88,-116.12 873.88,-146.62"/>
<text text-anchor="start" x="727.12" y="-133.12" font-family="Helvetica,sans-Serif" font-size="10.00">typed_linear_algebra</text>
<text text-anchor="middle" x="796.5" y="-121.88" font-family="Helvetica,sans-Serif" font-size="10.00">_internal/algorithm/substract.tpp</text>
</a>
</g>
</g>
<!-- Node3&#45;&gt;Node17 -->
<g id="edge21_Node000003_Node000017" class="edge">
<title>Node3&#45;&gt;Node17</title>
<g id="a_edge21_Node000003_Node000017"><a xlink:title=" ">
<path fill="none" stroke="#63b8ff" d="M1069.88,-191.42C1020.99,-181.43 947.39,-166.21 883.5,-152.25 879.48,-151.37 875.36,-150.46 871.2,-149.54"/>
<polygon fill="#63b8ff" stroke="#63b8ff" points="872.14,-146.16 861.62,-147.39 870.61,-152.99 872.14,-146.16"/>
</a>
</g>
</g>
<!-- Node18 -->
<g id="Node000018" class="node">
<title>Node18</title>
<g id="a_Node000018"><a xlink:title=" ">
<polygon fill="#e0e0e0" stroke="#999999" points="1054.62,-146.62 892.38,-146.62 892.38,-116.12 1054.62,-116.12 1054.62,-146.62"/>
<text text-anchor="start" x="900.38" y="-133.12" font-family="Helvetica,sans-Serif" font-size="10.00">typed_linear_algebra</text>
<text text-anchor="middle" x="973.5" y="-121.88" font-family="Helvetica,sans-Serif" font-size="10.00">_internal/algorithm/transposed.tpp</text>
</a>
</g>
</g>
<!-- Node3&#45;&gt;Node18 -->
<g id="edge22_Node000003_Node000018" class="edge">
<title>Node3&#45;&gt;Node18</title>
<g id="a_edge22_Node000003_Node000018"><a xlink:title=" ">
<path fill="none" stroke="#63b8ff" d="M1092.85,-187.8C1070.4,-177.37 1040.03,-163.27 1015.55,-151.9"/>
<polygon fill="#63b8ff" stroke="#63b8ff" points="1017.03,-148.73 1006.49,-147.69 1014.08,-155.08 1017.03,-148.73"/>
</a>
</g>
</g>
<!-- Node19 -->
<g id="Node000019" class="node">
<title>Node19</title>
<g id="a_Node000019"><a xlink:title=" ">
<polygon fill="#e0e0e0" stroke="#999999" points="1176.75,-146.62 1072.25,-146.62 1072.25,-116.12 1176.75,-116.12 1176.75,-146.62"/>
<text text-anchor="start" x="1080.25" y="-133.12" font-family="Helvetica,sans-Serif" font-size="10.00">typed_linear_algebra</text>
<text text-anchor="middle" x="1124.5" y="-121.88" font-family="Helvetica,sans-Serif" font-size="10.00">_internal/cast.tpp</text>
</a>
</g>
</g>
<!-- Node3&#45;&gt;Node19 -->
<g id="edge23_Node000003_Node000019" class="edge">
<title>Node3&#45;&gt;Node19</title>
<g id="a_edge23_Node000003_Node000019"><a xlink:title=" ">
<path fill="none" stroke="#63b8ff" d="M1124.5,-187.97C1124.5,-179.41 1124.5,-168.34 1124.5,-158.33"/>
<polygon fill="#63b8ff" stroke="#63b8ff" points="1128,-158.4 1124.5,-148.4 1121,-158.4 1128,-158.4"/>
</a>
</g>
</g>
<!-- Node20 -->
<g id="Node000020" class="node">
<title>Node20</title>
<g id="a_Node000020"><a xlink:title=" ">
<polygon fill="#e0e0e0" stroke="#999999" points="1306.12,-146.62 1194.88,-146.62 1194.88,-116.12 1306.12,-116.12 1306.12,-146.62"/>
<text text-anchor="start" x="1202.88" y="-133.12" font-family="Helvetica,sans-Serif" font-size="10.00">typed_linear_algebra</text>
<text text-anchor="middle" x="1250.5" y="-121.88" font-family="Helvetica,sans-Serif" font-size="10.00">_internal/operation.tpp</text>
</a>
</g>
</g>
<!-- Node3&#45;&gt;Node20 -->
<g id="edge24_Node000003_Node000020" class="edge">
<title>Node3&#45;&gt;Node20</title>
<g id="a_edge24_Node000003_Node000020"><a xlink:title=" ">
<path fill="none" stroke="#63b8ff" d="M1150.91,-187.8C1169.31,-177.56 1194.08,-163.78 1214.31,-152.52"/>
<polygon fill="#63b8ff" stroke="#63b8ff" points="1215.76,-155.71 1222.8,-147.79 1212.36,-149.6 1215.76,-155.71"/>
</a>
</g>
</g>
<!-- Node21 -->
<g id="Node000021" class="node">
<title>Node21</title>
<g id="a_Node000021"><a xlink:title=" ">
<polygon fill="#e0e0e0" stroke="#999999" points="1431.25,-152.25 1323.75,-152.25 1323.75,-110.5 1431.25,-110.5 1431.25,-152.25"/>
<text text-anchor="start" x="1331.75" y="-138.75" font-family="Helvetica,sans-Serif" font-size="10.00">typed_linear_algebra</text>
<text text-anchor="start" x="1331.75" y="-127.5" font-family="Helvetica,sans-Serif" font-size="10.00">_internal/typed_linear</text>
<text text-anchor="middle" x="1377.5" y="-116.25" font-family="Helvetica,sans-Serif" font-size="10.00">_algebra.tpp</text>
</a>
</g>
</g>
<!-- Node3&#45;&gt;Node21 -->
<g id="edge25_Node000003_Node000021" class="edge">
<title>Node3&#45;&gt;Node21</title>
<g id="a_edge25_Node000003_Node000021"><a xlink:title=" ">
<path fill="none" stroke="#63b8ff" d="M1179.05,-188.97C1214.75,-179.92 1262.65,-167.44 1312.46,-153.08"/>
<polygon fill="#63b8ff" stroke="#63b8ff" points="1313.37,-156.46 1322,-150.31 1311.42,-149.74 1313.37,-156.46"/>
</a>
</g>
</g>
<!-- Node5&#45;&gt;Node6 -->
<g id="edge5_Node000005_Node000006" class="edge">
<title>Node5&#45;&gt;Node6</title>
<g id="a_edge5_Node000005_Node000006"><a xlink:title=" ">
<path fill="none" stroke="#63b8ff" d="M1623.59,-115.74C1623.05,-106.95 1622.35,-95.65 1621.75,-86.03"/>
<polygon fill="#63b8ff" stroke="#63b8ff" points="1625.25,-85.97 1621.14,-76.21 1618.27,-86.41 1625.25,-85.97"/>
</a>
</g>
</g>
<!-- Node5&#45;&gt;Node11 -->
<g id="edge10_Node000005_Node000011" class="edge">
<title>Node5&#45;&gt;Node11</title>
<g id="a_edge10_Node000005_Node000011"><a xlink:title=" ">
<path fill="none" stroke="#63b8ff" d="M1639.48,-115.74C1649.58,-105.87 1662.93,-92.82 1673.44,-82.54"/>
<polygon fill="#63b8ff" stroke="#63b8ff" points="1675.68,-85.25 1680.39,-75.76 1670.79,-80.24 1675.68,-85.25"/>
</a>
</g>
</g>
<!-- Node5&#45;&gt;Node12 -->
<g id="edge11_Node000005_Node000012" class="edge">
<title>Node5&#45;&gt;Node12</title>
<g id="a_edge11_Node000005_Node000012"><a xlink:title=" ">
<path fill="none" stroke="#63b8ff" d="M1584.22,-115.69C1577.07,-113.59 1569.63,-111.73 1562.5,-110.5 1295.79,-64.31 417.27,-65.05 234.85,-65.72"/>
<polygon fill="#63b8ff" stroke="#63b8ff" points="234.89,-62.22 224.91,-65.76 234.92,-69.22 234.89,-62.22"/>
</a>
</g>
</g>
<!-- Node6&#45;&gt;Node7 -->
<g id="edge6_Node000006_Node000007" class="edge">
<title>Node6&#45;&gt;Node7</title>
<g id="a_edge6_Node000006_Node000007"><a xlink:title=" ">
<path fill="none" stroke="#63b8ff" d="M1635.09,-54.84C1647.94,-46.89 1666.91,-35.14 1682.07,-25.75"/>
<polygon fill="#63b8ff" stroke="#63b8ff" points="1683.89,-28.74 1690.55,-20.5 1680.21,-22.79 1683.89,-28.74"/>
</a>
</g>
</g>
<!-- Node8 -->
<g id="Node000008" class="node">
<title>Node8</title>
<g id="a_Node000008"><a xlink:title=" ">
<polygon fill="#e0e0e0" stroke="#999999" points="1649.5,-19.25 1591.5,-19.25 1591.5,0 1649.5,0 1649.5,-19.25"/>
<text text-anchor="middle" x="1620.5" y="-5.75" font-family="Helvetica,sans-Serif" font-size="10.00">functional</text>
</a>
</g>
</g>
<!-- Node6&#45;&gt;Node8 -->
<g id="edge7_Node000006_Node000008" class="edge">
<title>Node6&#45;&gt;Node8</title>
<g id="a_edge7_Node000006_Node000008"><a xlink:title=" ">
<path fill="none" stroke="#63b8ff" d="M1620.5,-55.08C1620.5,-48.57 1620.5,-39.42 1620.5,-31.12"/>
<polygon fill="#63b8ff" stroke="#63b8ff" points="1624,-31.12 1620.5,-21.12 1617,-31.12 1624,-31.12"/>
</a>
</g>
</g>
<!-- Node6&#45;&gt;Node9 -->
<g id="edge8_Node000006_Node000009" class="edge">
<title>Node6&#45;&gt;Node9</title>
<g id="a_edge8_Node000006_Node000009"><a xlink:title=" ">
<path fill="none" stroke="#63b8ff" d="M1647.64,-54.84C1676.29,-45.31 1721.31,-30.32 1750.87,-20.49"/>
<polygon fill="#63b8ff" stroke="#63b8ff" points="1751.93,-23.82 1760.31,-17.34 1749.72,-17.18 1751.93,-23.82"/>
</a>
</g>
</g>
<!-- Node6&#45;&gt;Node10 -->
<g id="edge9_Node000006_Node000010" class="edge">
<title>Node6&#45;&gt;Node10</title>
<g id="a_edge9_Node000006_Node000010"><a xlink:title=" ">
<path fill="none" stroke="#63b8ff" d="M1592.06,-61.95C1473.47,-53.91 1017.94,-23.05 876.59,-13.48"/>
<polygon fill="#63b8ff" stroke="#63b8ff" points="877.15,-10.01 866.93,-12.82 876.68,-16.99 877.15,-10.01"/>
</a>
</g>
</g>
</g>
</svg>
