<?xml version="1.0" encoding="UTF-8" standalone="no"?>
<!DOCTYPE svg PUBLIC "-//W3C//DTD SVG 1.1//EN"
 "http://www.w3.org/Graphics/SVG/1.1/DTD/svg11.dtd">
<!-- Generated by graphviz version 12.2.0 (20241103.1931)
 -->
<!-- Title: /github/workspace/sample/mp_units_eigen.cpp Pages: 1 -->
<svg width="2243pt" height="305pt"
 viewBox="0.00 0.00 2242.72 304.50" xmlns="http://www.w3.org/2000/svg" xmlns:xlink="http://www.w3.org/1999/xlink">
<g id="graph0" class="graph" transform="scale(1 1) rotate(0) translate(4 300.5)">
<title>/github/workspace/sample/mp_units_eigen.cpp</title>
<!-- Node1 -->
<g id="Node000001" class="node">
<title>Node1</title>
<g id="a_Node000001"><a xlink:title="Unit safe linear algebra with mp&#45;units and Eigen.">
<polygon fill="#999999" stroke="#666666" points="2161.34,-296.5 2031.34,-296.5 2031.34,-266 2161.34,-266 2161.34,-296.5"/>
<text text-anchor="start" x="2039.34" y="-283" font-family="Helvetica,sans-Serif" font-size="10.00">/github/workspace/sample</text>
<text text-anchor="middle" x="2096.34" y="-271.75" font-family="Helvetica,sans-Serif" font-size="10.00">/mp_units_eigen.cpp</text>
</a>
</g>
</g>
<!-- Node2 -->
<g id="Node000002" class="node">
<title>Node2</title>
<g id="a_Node000002"><a xlink:title=" ">
<polygon fill="#e0e0e0" stroke="#999999" points="924.84,-224.38 827.84,-224.38 827.84,-205.12 924.84,-205.12 924.84,-224.38"/>
<text text-anchor="middle" x="876.34" y="-210.88" font-family="Helvetica,sans-Serif" font-size="10.00">fcarouge/linalg.hpp</text>
</a>
</g>
</g>
<!-- Node1&#45;&gt;Node2 -->
<g id="edge1_Node000001_Node000002" class="edge">
<title>Node1&#45;&gt;Node2</title>
<g id="a_edge1_Node000001_Node000002"><a xlink:title=" ">
<path fill="none" stroke="#63b8ff" d="M2031.17,-279.13C1818.86,-275.2 1148.6,-260.65 934.34,-230 929.42,-229.3 924.3,-228.35 919.24,-227.29"/>
<polygon fill="#63b8ff" stroke="#63b8ff" points="920.34,-223.95 909.81,-225.14 918.78,-230.78 920.34,-223.95"/>
</a>
</g>
</g>
<!-- Node3 -->
<g id="Node000003" class="node">
<title>Node3</title>
<g id="a_Node000003"><a xlink:href="typed__linear__algebra_8hpp.xhtml" target="_top" xlink:title="Typed linear algebra implementation.">
<polygon fill="white" stroke="#666666" points="1051.47,-230 943.22,-230 943.22,-199.5 1051.47,-199.5 1051.47,-230"/>
<text text-anchor="start" x="951.22" y="-216.5" font-family="Helvetica,sans-Serif" font-size="10.00">fcarouge/typed_linear</text>
<text text-anchor="middle" x="997.34" y="-205.25" font-family="Helvetica,sans-Serif" font-size="10.00">_algebra.hpp</text>
</a>
</g>
</g>
<!-- Node1&#45;&gt;Node3 -->
<g id="edge2_Node000001_Node000003" class="edge">
<title>Node1&#45;&gt;Node3</title>
<g id="a_edge2_Node000001_Node000003"><a xlink:title=" ">
<path fill="none" stroke="#63b8ff" d="M2030.89,-276.41C1835.61,-264.95 1258.62,-231.08 1063.04,-219.61"/>
<polygon fill="#63b8ff" stroke="#63b8ff" points="1063.51,-216.13 1053.32,-219.04 1063.1,-223.12 1063.51,-216.13"/>
</a>
</g>
</g>
<!-- Node10 -->
<g id="Node000010" class="node">
<title>Node10</title>
<g id="a_Node000010"><a xlink:title=" ">
<polygon fill="#e0e0e0" stroke="#999999" points="2114.84,-24.88 2077.84,-24.88 2077.84,-5.63 2114.84,-5.63 2114.84,-24.88"/>
<text text-anchor="middle" x="2096.34" y="-11.38" font-family="Helvetica,sans-Serif" font-size="10.00">tuple</text>
</a>
</g>
</g>
<!-- Node1&#45;&gt;Node10 -->
<g id="edge34_Node000001_Node000010" class="edge">
<title>Node1&#45;&gt;Node10</title>
<g id="a_edge34_Node000001_Node000010"><a xlink:title=" ">
<path fill="none" stroke="#63b8ff" d="M2118.44,-265.59C2129.67,-256.77 2142.21,-244.45 2148.34,-230 2176.73,-163.11 2176.73,-133.39 2148.34,-66.5 2142.5,-52.73 2130.84,-40.9 2120.04,-32.18"/>
<polygon fill="#63b8ff" stroke="#63b8ff" points="2122.24,-29.46 2112.15,-26.26 2118.04,-35.06 2122.24,-29.46"/>
</a>
</g>
</g>
<!-- Node11 -->
<g id="Node000011" class="node">
<title>Node11</title>
<g id="a_Node000011"><a xlink:title=" ">
<polygon fill="#e0e0e0" stroke="#999999" points="2051.84,-24.88 1990.84,-24.88 1990.84,-5.63 2051.84,-5.63 2051.84,-24.88"/>
<text text-anchor="middle" x="2021.34" y="-11.38" font-family="Helvetica,sans-Serif" font-size="10.00">type_traits</text>
</a>
</g>
</g>
<!-- Node1&#45;&gt;Node11 -->
<g id="edge35_Node000001_Node000011" class="edge">
<title>Node1&#45;&gt;Node11</title>
<g id="a_edge35_Node000001_Node000011"><a xlink:title=" ">
<path fill="none" stroke="#63b8ff" d="M2095.16,-265.7C2091.88,-230.34 2080.91,-137.58 2051.34,-66.5 2046.69,-55.32 2039.87,-43.66 2033.91,-34.39"/>
<polygon fill="#63b8ff" stroke="#63b8ff" points="2037.01,-32.73 2028.54,-26.35 2031.18,-36.61 2037.01,-32.73"/>
</a>
</g>
</g>
<!-- Node12 -->
<g id="Node000012" class="node">
<title>Node12</title>
<g id="a_Node000012"><a xlink:title=" ">
<polygon fill="#e0e0e0" stroke="#999999" points="2042.22,-85.75 1998.47,-85.75 1998.47,-66.5 2042.22,-66.5 2042.22,-85.75"/>
<text text-anchor="middle" x="2020.34" y="-72.25" font-family="Helvetica,sans-Serif" font-size="10.00">format</text>
</a>
</g>
</g>
<!-- Node1&#45;&gt;Node12 -->
<g id="edge32_Node000001_Node000012" class="edge">
<title>Node1&#45;&gt;Node12</title>
<g id="a_edge32_Node000001_Node000012"><a xlink:title=" ">
<path fill="none" stroke="#63b8ff" d="M2090.88,-265.64C2077.46,-229.79 2042.9,-137.41 2027.7,-96.79"/>
<polygon fill="#63b8ff" stroke="#63b8ff" points="2031.04,-95.73 2024.26,-87.59 2024.48,-98.18 2031.04,-95.73"/>
</a>
</g>
</g>
<!-- Node26 -->
<g id="Node000026" class="node">
<title>Node26</title>
<g id="a_Node000026"><a xlink:title=" ">
<polygon fill="#e0e0e0" stroke="#999999" points="2234.72,-224.38 2199.97,-224.38 2199.97,-205.12 2234.72,-205.12 2234.72,-224.38"/>
<text text-anchor="middle" x="2217.34" y="-210.88" font-family="Helvetica,sans-Serif" font-size="10.00">print</text>
</a>
</g>
</g>
<!-- Node1&#45;&gt;Node26 -->
<g id="edge33_Node000001_Node000026" class="edge">
<title>Node1&#45;&gt;Node26</title>
<g id="a_edge33_Node000001_Node000026"><a xlink:title=" ">
<path fill="none" stroke="#63b8ff" d="M2123.8,-265.61C2143.78,-254.96 2170.69,-240.62 2190.52,-230.05"/>
<polygon fill="#63b8ff" stroke="#63b8ff" points="2191.93,-233.26 2199.11,-225.47 2188.64,-227.09 2191.93,-233.26"/>
</a>
</g>
</g>
<!-- Node4 -->
<g id="Node000004" class="node">
<title>Node4</title>
<g id="a_Node000004"><a xlink:href="typed__linear__algebra__forward_8hpp.xhtml" target="_top" xlink:title="Authoritative forward declaration header.">
<polygon fill="white" stroke="#666666" points="1076.59,-30.5 972.09,-30.5 972.09,0 1076.59,0 1076.59,-30.5"/>
<text text-anchor="start" x="980.09" y="-17" font-family="Helvetica,sans-Serif" font-size="10.00">typed_linear_algebra</text>
<text text-anchor="middle" x="1024.34" y="-5.75" font-family="Helvetica,sans-Serif" font-size="10.00">_forward.hpp</text>
</a>
</g>
</g>
<!-- Node3&#45;&gt;Node4 -->
<g id="edge3_Node000003_Node000004" class="edge">
<title>Node3&#45;&gt;Node4</title>
<g id="a_edge3_Node000003_Node000004"><a xlink:title=" ">
<path fill="none" stroke="#63b8ff" d="M942.82,-200.78C939.96,-200.3 937.12,-199.87 934.34,-199.5 884.46,-192.92 64.21,-199.78 29.34,-163.5 -0.53,-132.42 -0.36,-97.74 29.34,-66.5 61.47,-32.71 745.58,-20.19 960.4,-17.08"/>
<polygon fill="#63b8ff" stroke="#63b8ff" points="960.31,-20.58 970.26,-16.94 960.21,-13.59 960.31,-20.58"/>
</a>
</g>
</g>
<!-- Node5 -->
<g id="Node000005" class="node">
<title>Node5</title>
<g id="a_Node000005"><a xlink:href="format_8hpp.xhtml" target="_top" xlink:title="Formatting support for the typed matrix.">
<polygon fill="white" stroke="#666666" points="1992.59,-157.88 1888.09,-157.88 1888.09,-127.38 1992.59,-127.38 1992.59,-157.88"/>
<text text-anchor="start" x="1896.09" y="-144.38" font-family="Helvetica,sans-Serif" font-size="10.00">typed_linear_algebra</text>
<text text-anchor="middle" x="1940.34" y="-133.12" font-family="Helvetica,sans-Serif" font-size="10.00">_internal/format.hpp</text>
</a>
</g>
</g>
<!-- Node3&#45;&gt;Node5 -->
<g id="edge4_Node000003_Node000005" class="edge">
<title>Node3&#45;&gt;Node5</title>
<g id="a_edge4_Node000003_Node000005"><a xlink:title=" ">
<path fill="none" stroke="#63b8ff" d="M1051.8,-212.49C1218.37,-208.33 1719.38,-193.59 1879.34,-163.5 1882.53,-162.9 1885.77,-162.18 1889.02,-161.38"/>
<polygon fill="#63b8ff" stroke="#63b8ff" points="1889.85,-164.78 1898.58,-158.77 1888.01,-158.03 1889.85,-164.78"/>
</a>
</g>
</g>
<!-- Node6 -->
<g id="Node000006" class="node">
<title>Node6</title>
<g id="a_Node000006"><a xlink:href="utility_8hpp.xhtml" target="_top" xlink:title=" ">
<polygon fill="white" stroke="#666666" points="1612.59,-85.75 1556.09,-85.75 1556.09,-66.5 1612.59,-66.5 1612.59,-85.75"/>
<text text-anchor="middle" x="1584.34" y="-72.25" font-family="Helvetica,sans-Serif" font-size="10.00">utility.hpp</text>
</a>
</g>
</g>
<!-- Node3&#45;&gt;Node6 -->
<g id="edge14_Node000003_Node000006" class="edge">
<title>Node3&#45;&gt;Node6</title>
<g id="a_edge14_Node000003_Node000006"><a xlink:title=" ">
<path fill="none" stroke="#63b8ff" d="M942.82,-200.79C939.96,-200.31 937.12,-199.87 934.34,-199.5 888.38,-193.36 132.42,-196.99 100.34,-163.5 87.51,-150.1 87.42,-135.07 100.34,-121.75 126.23,-95.07 1311.02,-80.23 1544.6,-77.56"/>
<polygon fill="#63b8ff" stroke="#63b8ff" points="1544.44,-81.07 1554.4,-77.45 1544.36,-74.07 1544.44,-81.07"/>
</a>
</g>
</g>
<!-- Node7 -->
<g id="Node000007" class="node">
<title>Node7</title>
<g id="a_Node000007"><a xlink:title=" ">
<polygon fill="#e0e0e0" stroke="#999999" points="102.22,-24.88 46.47,-24.88 46.47,-5.63 102.22,-5.63 102.22,-24.88"/>
<text text-anchor="middle" x="74.34" y="-11.38" font-family="Helvetica,sans-Serif" font-size="10.00">concepts</text>
</a>
</g>
</g>
<!-- Node3&#45;&gt;Node7 -->
<g id="edge15_Node000003_Node000007" class="edge">
<title>Node3&#45;&gt;Node7</title>
<g id="a_edge15_Node000003_Node000007"><a xlink:title=" ">
<path fill="none" stroke="#63b8ff" d="M942.82,-200.77C939.96,-200.29 937.12,-199.86 934.34,-199.5 883.02,-192.76 39.23,-200.8 3.34,-163.5 -7.09,-152.66 10.72,-67.58 11.34,-66.5 19.77,-51.8 34.33,-39.76 47.33,-31.16"/>
<polygon fill="#63b8ff" stroke="#63b8ff" points="48.9,-34.3 55.55,-26.06 45.21,-28.35 48.9,-34.3"/>
</a>
</g>
</g>
<!-- Node8 -->
<g id="Node000008" class="node">
<title>Node8</title>
<g id="a_Node000008"><a xlink:title=" ">
<polygon fill="#e0e0e0" stroke="#999999" points="1644.47,-24.88 1596.22,-24.88 1596.22,-5.63 1644.47,-5.63 1644.47,-24.88"/>
<text text-anchor="middle" x="1620.34" y="-11.38" font-family="Helvetica,sans-Serif" font-size="10.00">cstddef</text>
</a>
</g>
</g>
<!-- Node3&#45;&gt;Node8 -->
<g id="edge16_Node000003_Node000008" class="edge">
<title>Node3&#45;&gt;Node8</title>
<g id="a_edge16_Node000003_Node000008"><a xlink:title=" ">
<path fill="none" stroke="#63b8ff" d="M942.82,-200.79C939.96,-200.3 937.12,-199.87 934.34,-199.5 887.6,-193.27 118.97,-197.54 86.34,-163.5 73.5,-150.1 73.63,-135.26 86.34,-121.75 200.85,-0.07 1424.82,-69.27 1587.34,-30.5 1588.94,-30.12 1590.55,-29.67 1592.16,-29.16"/>
<polygon fill="#63b8ff" stroke="#63b8ff" points="1593.03,-32.58 1601.16,-25.79 1590.57,-26.02 1593.03,-32.58"/>
</a>
</g>
</g>
<!-- Node3&#45;&gt;Node10 -->
<g id="edge19_Node000003_Node000010" class="edge">
<title>Node3&#45;&gt;Node10</title>
<g id="a_edge19_Node000003_Node000010"><a xlink:title=" ">
<path fill="none" stroke="#63b8ff" d="M1051.94,-212.62C1258.76,-208.14 1984.5,-190.56 2025.34,-163.5 2069.41,-134.3 2086.94,-69.63 2093.22,-36.57"/>
<polygon fill="#63b8ff" stroke="#63b8ff" points="2096.67,-37.17 2094.91,-26.73 2089.77,-35.99 2096.67,-37.17"/>
</a>
</g>
</g>
<!-- Node3&#45;&gt;Node12 -->
<g id="edge17_Node000003_Node000012" class="edge">
<title>Node3&#45;&gt;Node12</title>
<g id="a_edge17_Node000003_Node000012"><a xlink:title=" ">
<path fill="none" stroke="#63b8ff" d="M1051.91,-212.84C1256.05,-209.19 1964.87,-194.36 2001.34,-163.5 2020.18,-147.56 2022.86,-117.59 2022.24,-97.49"/>
<polygon fill="#63b8ff" stroke="#63b8ff" points="2025.74,-97.47 2021.61,-87.72 2018.76,-97.92 2025.74,-97.47"/>
</a>
</g>
</g>
<!-- Node13 -->
<g id="Node000013" class="node">
<title>Node13</title>
<g id="a_Node000013"><a xlink:title=" ">
<polygon fill="#e0e0e0" stroke="#999999" points="181.09,-152.25 109.59,-152.25 109.59,-133 181.09,-133 181.09,-152.25"/>
<text text-anchor="middle" x="145.34" y="-138.75" font-family="Helvetica,sans-Serif" font-size="10.00">initializer_list</text>
</a>
</g>
</g>
<!-- Node3&#45;&gt;Node13 -->
<g id="edge18_Node000003_Node000013" class="edge">
<title>Node3&#45;&gt;Node13</title>
<g id="a_edge18_Node000003_Node000013"><a xlink:title=" ">
<path fill="none" stroke="#63b8ff" d="M942.81,-200.81C939.96,-200.32 937.12,-199.88 934.34,-199.5 606.32,-154.81 512.52,-239.66 190.34,-163.5 184.21,-162.05 177.88,-159.79 171.97,-157.3"/>
<polygon fill="#63b8ff" stroke="#63b8ff" points="173.85,-154.31 163.3,-153.33 170.94,-160.68 173.85,-154.31"/>
</a>
</g>
</g>
<!-- Node14 -->
<g id="Node000014" class="node">
<title>Node14</title>
<g id="a_Node000014"><a xlink:title=" ">
<polygon fill="#e0e0e0" stroke="#999999" points="237.59,-152.25 199.09,-152.25 199.09,-133 237.59,-133 237.59,-152.25"/>
<text text-anchor="middle" x="218.34" y="-138.75" font-family="Helvetica,sans-Serif" font-size="10.00">utility</text>
</a>
</g>
</g>
<!-- Node3&#45;&gt;Node14 -->
<g id="edge20_Node000003_Node000014" class="edge">
<title>Node3&#45;&gt;Node14</title>
<g id="a_edge20_Node000003_Node000014"><a xlink:title=" ">
<path fill="none" stroke="#63b8ff" d="M942.81,-200.82C939.96,-200.33 937.12,-199.88 934.34,-199.5 782.69,-178.54 390.94,-213.8 246.34,-163.5 243.33,-162.45 240.36,-160.98 237.54,-159.29"/>
<polygon fill="#63b8ff" stroke="#63b8ff" points="239.62,-156.48 229.43,-153.58 235.59,-162.2 239.62,-156.48"/>
</a>
</g>
</g>
<!-- Node15 -->
<g id="Node000015" class="node">
<title>Node15</title>
<g id="a_Node000015"><a xlink:title=" ">
<polygon fill="#e0e0e0" stroke="#999999" points="385.34,-157.88 255.34,-157.88 255.34,-127.38 385.34,-127.38 385.34,-157.88"/>
<text text-anchor="start" x="263.34" y="-144.38" font-family="Helvetica,sans-Serif" font-size="10.00">typed_linear_algebra</text>
<text text-anchor="middle" x="320.34" y="-133.12" font-family="Helvetica,sans-Serif" font-size="10.00">_internal/algorithm/add.tpp</text>
</a>
</g>
</g>
<!-- Node3&#45;&gt;Node15 -->
<g id="edge21_Node000003_Node000015" class="edge">
<title>Node3&#45;&gt;Node15</title>
<g id="a_edge21_Node000003_Node000015"><a xlink:title=" ">
<path fill="none" stroke="#63b8ff" d="M942.81,-200.87C939.95,-200.36 937.12,-199.9 934.34,-199.5 696.32,-164.86 631.63,-202.88 394.34,-163.5 389.97,-162.77 385.47,-161.9 380.97,-160.93"/>
<polygon fill="#63b8ff" stroke="#63b8ff" points="381.81,-157.53 371.28,-158.68 380.23,-164.35 381.81,-157.53"/>
</a>
</g>
</g>
<!-- Node16 -->
<g id="Node000016" class="node">
<title>Node16</title>
<g id="a_Node000016"><a xlink:title=" ">
<polygon fill="#e0e0e0" stroke="#999999" points="543.22,-157.88 403.47,-157.88 403.47,-127.38 543.22,-127.38 543.22,-157.88"/>
<text text-anchor="start" x="411.47" y="-144.38" font-family="Helvetica,sans-Serif" font-size="10.00">typed_linear_algebra</text>
<text text-anchor="middle" x="473.34" y="-133.12" font-family="Helvetica,sans-Serif" font-size="10.00">_internal/algorithm/divide.tpp</text>
</a>
</g>
</g>
<!-- Node3&#45;&gt;Node16 -->
<g id="edge22_Node000003_Node000016" class="edge">
<title>Node3&#45;&gt;Node16</title>
<g id="a_edge22_Node000003_Node000016"><a xlink:title=" ">
<path fill="none" stroke="#63b8ff" d="M942.79,-200.96C939.94,-200.43 937.11,-199.94 934.34,-199.5 765.94,-172.63 720.41,-192.39 552.34,-163.5 547.72,-162.7 542.96,-161.78 538.19,-160.78"/>
<polygon fill="#63b8ff" stroke="#63b8ff" points="539.08,-157.39 528.56,-158.64 537.56,-164.22 539.08,-157.39"/>
</a>
</g>
</g>
<!-- Node17 -->
<g id="Node000017" class="node">
<title>Node17</title>
<g id="a_Node000017"><a xlink:title=" ">
<polygon fill="#e0e0e0" stroke="#999999" points="683.22,-163.5 561.47,-163.5 561.47,-121.75 683.22,-121.75 683.22,-163.5"/>
<text text-anchor="start" x="569.47" y="-150" font-family="Helvetica,sans-Serif" font-size="10.00">typed_linear_algebra</text>
<text text-anchor="start" x="569.47" y="-138.75" font-family="Helvetica,sans-Serif" font-size="10.00">_internal/algorithm/equal</text>
<text text-anchor="middle" x="622.34" y="-127.5" font-family="Helvetica,sans-Serif" font-size="10.00">_to.tpp</text>
</a>
</g>
</g>
<!-- Node3&#45;&gt;Node17 -->
<g id="edge23_Node000003_Node000017" class="edge">
<title>Node3&#45;&gt;Node17</title>
<g id="a_edge23_Node000003_Node000017"><a xlink:title=" ">
<path fill="none" stroke="#63b8ff" d="M942.76,-201.14C939.92,-200.57 937.1,-200.02 934.34,-199.5 831.01,-180.16 800.64,-185.97 694.86,-163.9"/>
<polygon fill="#63b8ff" stroke="#63b8ff" points="695.68,-160.5 685.17,-161.84 694.23,-167.34 695.68,-160.5"/>
</a>
</g>
</g>
<!-- Node18 -->
<g id="Node000018" class="node">
<title>Node18</title>
<g id="a_Node000018"><a xlink:title=" ">
<polygon fill="#e0e0e0" stroke="#999999" points="825.72,-163.5 700.97,-163.5 700.97,-121.75 825.72,-121.75 825.72,-163.5"/>
<text text-anchor="start" x="708.97" y="-150" font-family="Helvetica,sans-Serif" font-size="10.00">typed_linear_algebra</text>
<text text-anchor="start" x="708.97" y="-138.75" font-family="Helvetica,sans-Serif" font-size="10.00">_internal/algorithm/matrix</text>
<text text-anchor="middle" x="763.34" y="-127.5" font-family="Helvetica,sans-Serif" font-size="10.00">_product.tpp</text>
</a>
</g>
</g>
<!-- Node3&#45;&gt;Node18 -->
<g id="edge24_Node000003_Node000018" class="edge">
<title>Node3&#45;&gt;Node18</title>
<g id="a_edge24_Node000003_Node000018"><a xlink:title=" ">
<path fill="none" stroke="#63b8ff" d="M948.29,-199.05C916.11,-189.4 873.42,-176.61 837.17,-165.75"/>
<polygon fill="#63b8ff" stroke="#63b8ff" points="838.18,-162.4 827.6,-162.88 836.17,-169.1 838.18,-162.4"/>
</a>
</g>
</g>
<!-- Node19 -->
<g id="Node000019" class="node">
<title>Node19</title>
<g id="a_Node000019"><a xlink:title=" ">
<polygon fill="#e0e0e0" stroke="#999999" points="990.59,-157.88 844.09,-157.88 844.09,-127.38 990.59,-127.38 990.59,-157.88"/>
<text text-anchor="start" x="852.09" y="-144.38" font-family="Helvetica,sans-Serif" font-size="10.00">typed_linear_algebra</text>
<text text-anchor="middle" x="917.34" y="-133.12" font-family="Helvetica,sans-Serif" font-size="10.00">_internal/algorithm/product.tpp</text>
</a>
</g>
</g>
<!-- Node3&#45;&gt;Node19 -->
<g id="edge25_Node000003_Node000019" class="edge">
<title>Node3&#45;&gt;Node19</title>
<g id="a_edge25_Node000003_Node000019"><a xlink:title=" ">
<path fill="none" stroke="#63b8ff" d="M980.77,-199.22C969.72,-189.54 954.99,-176.62 942.51,-165.68"/>
<polygon fill="#63b8ff" stroke="#63b8ff" points="944.86,-163.09 935.04,-159.13 940.25,-168.36 944.86,-163.09"/>
</a>
</g>
</g>
<!-- Node20 -->
<g id="Node000020" class="node">
<title>Node20</title>
<g id="a_Node000020"><a xlink:title=" ">
<polygon fill="#e0e0e0" stroke="#999999" points="1146.09,-157.88 1008.59,-157.88 1008.59,-127.38 1146.09,-127.38 1146.09,-157.88"/>
<text text-anchor="start" x="1016.59" y="-144.38" font-family="Helvetica,sans-Serif" font-size="10.00">typed_linear_algebra</text>
<text text-anchor="middle" x="1077.34" y="-133.12" font-family="Helvetica,sans-Serif" font-size="10.00">_internal/algorithm/scale.tpp</text>
</a>
</g>
</g>
<!-- Node3&#45;&gt;Node20 -->
<g id="edge26_Node000003_Node000020" class="edge">
<title>Node3&#45;&gt;Node20</title>
<g id="a_edge26_Node000003_Node000020"><a xlink:title=" ">
<path fill="none" stroke="#63b8ff" d="M1013.92,-199.22C1024.97,-189.54 1039.7,-176.62 1052.18,-165.68"/>
<polygon fill="#63b8ff" stroke="#63b8ff" points="1054.44,-168.36 1059.65,-159.13 1049.82,-163.09 1054.44,-168.36"/>
</a>
</g>
</g>
<!-- Node21 -->
<g id="Node000021" class="node">
<title>Node21</title>
<g id="a_Node000021"><a xlink:title=" ">
<polygon fill="#e0e0e0" stroke="#999999" points="1318.72,-157.88 1163.97,-157.88 1163.97,-127.38 1318.72,-127.38 1318.72,-157.88"/>
<text text-anchor="start" x="1171.97" y="-144.38" font-family="Helvetica,sans-Serif" font-size="10.00">typed_linear_algebra</text>
<text text-anchor="middle" x="1241.34" y="-133.12" font-family="Helvetica,sans-Serif" font-size="10.00">_internal/algorithm/substract.tpp</text>
</a>
</g>
</g>
<!-- Node3&#45;&gt;Node21 -->
<g id="edge27_Node000003_Node000021" class="edge">
<title>Node3&#45;&gt;Node21</title>
<g id="a_edge27_Node000003_Node000021"><a xlink:title=" ">
<path fill="none" stroke="#63b8ff" d="M1048.49,-199.05C1086.64,-188.09 1138.93,-173.06 1179.44,-161.42"/>
<polygon fill="#63b8ff" stroke="#63b8ff" points="1180.16,-164.85 1188.81,-158.72 1178.23,-158.12 1180.16,-164.85"/>
</a>
</g>
</g>
<!-- Node22 -->
<g id="Node000022" class="node">
<title>Node22</title>
<g id="a_Node000022"><a xlink:title=" ">
<polygon fill="#e0e0e0" stroke="#999999" points="1499.47,-157.88 1337.22,-157.88 1337.22,-127.38 1499.47,-127.38 1499.47,-157.88"/>
<text text-anchor="start" x="1345.22" y="-144.38" font-family="Helvetica,sans-Serif" font-size="10.00">typed_linear_algebra</text>
<text text-anchor="middle" x="1418.34" y="-133.12" font-family="Helvetica,sans-Serif" font-size="10.00">_internal/algorithm/transposed.tpp</text>
</a>
</g>
</g>
<!-- Node3&#45;&gt;Node22 -->
<g id="edge28_Node000003_Node000022" class="edge">
<title>Node3&#45;&gt;Node22</title>
<g id="a_edge28_Node000003_Node000022"><a xlink:title=" ">
<path fill="none" stroke="#63b8ff" d="M1051.83,-206.54C1117.4,-197.61 1230.76,-181.38 1327.34,-163.5 1332.22,-162.6 1337.23,-161.63 1342.27,-160.62"/>
<polygon fill="#63b8ff" stroke="#63b8ff" points="1342.75,-164.09 1351.85,-158.66 1341.35,-157.23 1342.75,-164.09"/>
</a>
</g>
</g>
<!-- Node23 -->
<g id="Node000023" class="node">
<title>Node23</title>
<g id="a_Node000023"><a xlink:title=" ">
<polygon fill="#e0e0e0" stroke="#999999" points="1621.59,-157.88 1517.09,-157.88 1517.09,-127.38 1621.59,-127.38 1621.59,-157.88"/>
<text text-anchor="start" x="1525.09" y="-144.38" font-family="Helvetica,sans-Serif" font-size="10.00">typed_linear_algebra</text>
<text text-anchor="middle" x="1569.34" y="-133.12" font-family="Helvetica,sans-Serif" font-size="10.00">_internal/cast.tpp</text>
</a>
</g>
</g>
<!-- Node3&#45;&gt;Node23 -->
<g id="edge29_Node000003_Node000023" class="edge">
<title>Node3&#45;&gt;Node23</title>
<g id="a_edge29_Node000003_Node000023"><a xlink:title=" ">
<path fill="none" stroke="#63b8ff" d="M1051.63,-212.27C1145.62,-208.85 1344.32,-197.86 1508.34,-163.5 1511.31,-162.88 1514.33,-162.17 1517.37,-161.39"/>
<polygon fill="#63b8ff" stroke="#63b8ff" points="1518.18,-164.79 1526.87,-158.73 1516.3,-158.05 1518.18,-164.79"/>
</a>
</g>
</g>
<!-- Node24 -->
<g id="Node000024" class="node">
<title>Node24</title>
<g id="a_Node000024"><a xlink:title=" ">
<polygon fill="#e0e0e0" stroke="#999999" points="1744.59,-157.88 1640.09,-157.88 1640.09,-127.38 1744.59,-127.38 1744.59,-157.88"/>
<text text-anchor="start" x="1648.09" y="-144.38" font-family="Helvetica,sans-Serif" font-size="10.00">typed_linear_algebra</text>
<text text-anchor="middle" x="1692.34" y="-133.12" font-family="Helvetica,sans-Serif" font-size="10.00">_internal/tuple.tpp</text>
</a>
</g>
</g>
<!-- Node3&#45;&gt;Node24 -->
<g id="edge30_Node000003_Node000024" class="edge">
<title>Node3&#45;&gt;Node24</title>
<g id="a_edge30_Node000003_Node000024"><a xlink:title=" ">
<path fill="none" stroke="#63b8ff" d="M1051.69,-213.64C1161.9,-212.5 1419.17,-205.15 1630.34,-163.5 1633.52,-162.87 1636.75,-162.14 1640,-161.33"/>
<polygon fill="#63b8ff" stroke="#63b8ff" points="1640.82,-164.74 1649.54,-158.73 1638.97,-157.98 1640.82,-164.74"/>
</a>
</g>
</g>
<!-- Node25 -->
<g id="Node000025" class="node">
<title>Node25</title>
<g id="a_Node000025"><a xlink:title=" ">
<polygon fill="#e0e0e0" stroke="#999999" points="1870.09,-163.5 1762.59,-163.5 1762.59,-121.75 1870.09,-121.75 1870.09,-163.5"/>
<text text-anchor="start" x="1770.59" y="-150" font-family="Helvetica,sans-Serif" font-size="10.00">typed_linear_algebra</text>
<text text-anchor="start" x="1770.59" y="-138.75" font-family="Helvetica,sans-Serif" font-size="10.00">_internal/typed_linear</text>
<text text-anchor="middle" x="1816.34" y="-127.5" font-family="Helvetica,sans-Serif" font-size="10.00">_algebra.tpp</text>
</a>
</g>
</g>
<!-- Node3&#45;&gt;Node25 -->
<g id="edge31_Node000003_Node000025" class="edge">
<title>Node3&#45;&gt;Node25</title>
<g id="a_edge31_Node000003_Node000025"><a xlink:title=" ">
<path fill="none" stroke="#63b8ff" d="M1051.52,-214.56C1174.73,-215.46 1485.19,-212.41 1751.22,-163.65"/>
<polygon fill="#63b8ff" stroke="#63b8ff" points="1751.58,-167.14 1760.77,-161.87 1750.3,-160.26 1751.58,-167.14"/>
</a>
</g>
</g>
<!-- Node5&#45;&gt;Node6 -->
<g id="edge5_Node000005_Node000006" class="edge">
<title>Node5&#45;&gt;Node6</title>
<g id="a_edge5_Node000005_Node000006"><a xlink:title=" ">
<path fill="none" stroke="#63b8ff" d="M1898.27,-126.92C1891.97,-125.01 1885.52,-123.21 1879.34,-121.75 1789.23,-100.41 1681.1,-87.11 1624.07,-81.03"/>
<polygon fill="#63b8ff" stroke="#63b8ff" points="1624.52,-77.56 1614.21,-80 1623.79,-84.52 1624.52,-77.56"/>
</a>
</g>
</g>
<!-- Node5&#45;&gt;Node8 -->
<g id="edge12_Node000005_Node000008" class="edge">
<title>Node5&#45;&gt;Node8</title>
<g id="a_edge12_Node000005_Node000008"><a xlink:title=" ">
<path fill="none" stroke="#63b8ff" d="M1903.01,-127C1840.15,-102.37 1714.16,-53.01 1653.92,-29.41"/>
<polygon fill="#63b8ff" stroke="#63b8ff" points="1655.47,-26.25 1644.88,-25.86 1652.91,-32.77 1655.47,-26.25"/>
</a>
</g>
</g>
<!-- Node5&#45;&gt;Node12 -->
<g id="edge13_Node000005_Node000012" class="edge">
<title>Node5&#45;&gt;Node12</title>
<g id="a_edge13_Node000005_Node000012"><a xlink:title=" ">
<path fill="none" stroke="#63b8ff" d="M1958.5,-126.99C1971.11,-116.82 1987.9,-103.28 2000.81,-92.88"/>
<polygon fill="#63b8ff" stroke="#63b8ff" points="2002.63,-95.9 2008.22,-86.9 1998.24,-90.45 2002.63,-95.9"/>
</a>
</g>
</g>
<!-- Node6&#45;&gt;Node4 -->
<g id="edge6_Node000006_Node000004" class="edge">
<title>Node6&#45;&gt;Node4</title>
<g id="a_edge6_Node000006_Node000004"><a xlink:title=" ">
<path fill="none" stroke="#63b8ff" d="M1555.8,-72.12C1469.44,-63.04 1209.38,-35.7 1088.01,-22.94"/>
<polygon fill="#63b8ff" stroke="#63b8ff" points="1088.53,-19.48 1078.22,-21.91 1087.8,-26.44 1088.53,-19.48"/>
</a>
</g>
</g>
<!-- Node6&#45;&gt;Node7 -->
<g id="edge7_Node000006_Node000007" class="edge">
<title>Node6&#45;&gt;Node7</title>
<g id="a_edge7_Node000006_Node000007"><a xlink:title=" ">
<path fill="none" stroke="#63b8ff" d="M1555.86,-74.01C1370,-66.77 330.77,-26.25 113.98,-17.8"/>
<polygon fill="#63b8ff" stroke="#63b8ff" points="114.22,-14.3 104.09,-17.41 113.95,-21.3 114.22,-14.3"/>
</a>
</g>
</g>
<!-- Node6&#45;&gt;Node8 -->
<g id="edge8_Node000006_Node000008" class="edge">
<title>Node6&#45;&gt;Node8</title>
<g id="a_edge8_Node000006_Node000008"><a xlink:title=" ">
<path fill="none" stroke="#63b8ff" d="M1589.81,-66.18C1594.89,-57.88 1602.6,-45.27 1609,-34.8"/>
<polygon fill="#63b8ff" stroke="#63b8ff" points="1611.8,-36.92 1614.04,-26.57 1605.83,-33.27 1611.8,-36.92"/>
</a>
</g>
</g>
<!-- Node9 -->
<g id="Node000009" class="node">
<title>Node9</title>
<g id="a_Node000009"><a xlink:title=" ">
<polygon fill="#e0e0e0" stroke="#999999" points="1578.34,-24.88 1520.34,-24.88 1520.34,-5.63 1578.34,-5.63 1578.34,-24.88"/>
<text text-anchor="middle" x="1549.34" y="-11.38" font-family="Helvetica,sans-Serif" font-size="10.00">functional</text>
</a>
</g>
</g>
<!-- Node6&#45;&gt;Node9 -->
<g id="edge9_Node000006_Node000009" class="edge">
<title>Node6&#45;&gt;Node9</title>
<g id="a_edge9_Node000006_Node000009"><a xlink:title=" ">
<path fill="none" stroke="#63b8ff" d="M1579.03,-66.18C1574.15,-57.97 1566.75,-45.53 1560.56,-35.12"/>
<polygon fill="#63b8ff" stroke="#63b8ff" points="1563.6,-33.38 1555.48,-26.58 1557.58,-36.96 1563.6,-33.38"/>
</a>
</g>
</g>
<!-- Node6&#45;&gt;Node10 -->
<g id="edge10_Node000006_Node000010" class="edge">
<title>Node6&#45;&gt;Node10</title>
<g id="a_edge10_Node000006_Node000010"><a xlink:title=" ">
<path fill="none" stroke="#63b8ff" d="M1613.05,-75.34C1687.97,-75.29 1895.12,-71.17 2061.34,-30.5 2063.1,-30.07 2064.88,-29.57 2066.67,-29.01"/>
<polygon fill="#63b8ff" stroke="#63b8ff" points="2067.78,-32.33 2076,-25.64 2065.41,-25.75 2067.78,-32.33"/>
</a>
</g>
</g>
<!-- Node6&#45;&gt;Node11 -->
<g id="edge11_Node000006_Node000011" class="edge">
<title>Node6&#45;&gt;Node11</title>
<g id="a_edge11_Node000006_Node000011"><a xlink:title=" ">
<path fill="none" stroke="#63b8ff" d="M1613.02,-71.26C1688.16,-61.14 1891.08,-33.8 1979.36,-21.91"/>
<polygon fill="#63b8ff" stroke="#63b8ff" points="1979.6,-25.41 1989.04,-20.6 1978.66,-18.47 1979.6,-25.41"/>
</a>
</g>
</g>
</g>
</svg>
