<?xml version="1.0" encoding="UTF-8" standalone="no"?>
<!DOCTYPE svg PUBLIC "-//W3C//DTD SVG 1.1//EN"
 "http://www.w3.org/Graphics/SVG/1.1/DTD/svg11.dtd">
<!-- Generated by graphviz version 12.2.0 (20241103.1931)
 -->
<!-- Title: /github/workspace/sample/mp_units_eigen.cpp Pages: 1 -->
<svg width="2172pt" height="293pt"
 viewBox="0.00 0.00 2172.12 293.25" xmlns="http://www.w3.org/2000/svg" xmlns:xlink="http://www.w3.org/1999/xlink">
<g id="graph0" class="graph" transform="scale(1 1) rotate(0) translate(4 289.25)">
<title>/github/workspace/sample/mp_units_eigen.cpp</title>
<!-- Node1 -->
<g id="Node000001" class="node">
<title>Node1</title>
<g id="a_Node000001"><a xlink:title="Unit safe linear algebra with mp&#45;units and Eigen.">
<polygon fill="#999999" stroke="#666666" points="1560.5,-285.25 1430.5,-285.25 1430.5,-254.75 1560.5,-254.75 1560.5,-285.25"/>
<text text-anchor="start" x="1438.5" y="-271.75" font-family="Helvetica,sans-Serif" font-size="10.00">/github/workspace/sample</text>
<text text-anchor="middle" x="1495.5" y="-260.5" font-family="Helvetica,sans-Serif" font-size="10.00">/mp_units_eigen.cpp</text>
</a>
</g>
</g>
<!-- Node2 -->
<g id="Node000002" class="node">
<title>Node2</title>
<g id="a_Node000002"><a xlink:title=" ">
<polygon fill="#e0e0e0" stroke="#999999" points="97,-213.12 0,-213.12 0,-193.88 97,-193.88 97,-213.12"/>
<text text-anchor="middle" x="48.5" y="-199.62" font-family="Helvetica,sans-Serif" font-size="10.00">fcarouge/linalg.hpp</text>
</a>
</g>
</g>
<!-- Node1&#45;&gt;Node2 -->
<g id="edge1_Node000001_Node000002" class="edge">
<title>Node1&#45;&gt;Node2</title>
<g id="a_edge1_Node000001_Node000002"><a xlink:title=" ">
<path fill="none" stroke="#63b8ff" d="M1430.25,-268.24C1192.27,-265.23 371.39,-252.56 111.5,-218.75 105.88,-218.02 100.01,-217.02 94.23,-215.89"/>
<polygon fill="#63b8ff" stroke="#63b8ff" points="95.27,-212.53 84.76,-213.89 93.83,-219.38 95.27,-212.53"/>
</a>
</g>
</g>
<!-- Node3 -->
<g id="Node000003" class="node">
<title>Node3</title>
<g id="a_Node000003"><a xlink:href="typed__linear__algebra_8hpp.xhtml" target="_top" xlink:title="Typed linear algebra implementation.">
<polygon fill="white" stroke="#666666" points="1083.62,-218.75 975.38,-218.75 975.38,-188.25 1083.62,-188.25 1083.62,-218.75"/>
<text text-anchor="start" x="983.38" y="-205.25" font-family="Helvetica,sans-Serif" font-size="10.00">fcarouge/typed_linear</text>
<text text-anchor="middle" x="1029.5" y="-194" font-family="Helvetica,sans-Serif" font-size="10.00">_algebra.hpp</text>
</a>
</g>
</g>
<!-- Node1&#45;&gt;Node3 -->
<g id="edge2_Node000001_Node000003" class="edge">
<title>Node1&#45;&gt;Node3</title>
<g id="a_edge2_Node000001_Node000003"><a xlink:title=" ">
<path fill="none" stroke="#63b8ff" d="M1430.21,-259.96C1341.55,-247.69 1183.94,-225.88 1095.11,-213.58"/>
<polygon fill="#63b8ff" stroke="#63b8ff" points="1095.72,-210.13 1085.33,-212.23 1094.76,-217.07 1095.72,-210.13"/>
</a>
</g>
</g>
<!-- Node9 -->
<g id="Node000009" class="node">
<title>Node9</title>
<g id="a_Node000009"><a xlink:title=" ">
<polygon fill="#e0e0e0" stroke="#999999" points="220,-19.25 183,-19.25 183,0 220,0 220,-19.25"/>
<text text-anchor="middle" x="201.5" y="-5.75" font-family="Helvetica,sans-Serif" font-size="10.00">tuple</text>
</a>
</g>
</g>
<!-- Node1&#45;&gt;Node9 -->
<g id="edge27_Node000001_Node000009" class="edge">
<title>Node1&#45;&gt;Node9</title>
<g id="a_edge27_Node000001_Node000009"><a xlink:title=" ">
<path fill="none" stroke="#63b8ff" d="M1430.28,-268.26C1200.23,-265.38 434.82,-253.28 330.5,-218.75 280.53,-202.21 262.01,-195.84 232.5,-152.25 207.06,-114.67 202.08,-59.76 201.36,-30.59"/>
<polygon fill="#63b8ff" stroke="#63b8ff" points="204.86,-30.95 201.28,-20.98 197.86,-31 204.86,-30.95"/>
</a>
</g>
</g>
<!-- Node10 -->
<g id="Node000010" class="node">
<title>Node10</title>
<g id="a_Node000010"><a xlink:title=" ">
<polygon fill="#e0e0e0" stroke="#999999" points="838,-19.25 777,-19.25 777,0 838,0 838,-19.25"/>
<text text-anchor="middle" x="807.5" y="-5.75" font-family="Helvetica,sans-Serif" font-size="10.00">type_traits</text>
</a>
</g>
</g>
<!-- Node1&#45;&gt;Node10 -->
<g id="edge28_Node000001_Node000010" class="edge">
<title>Node1&#45;&gt;Node10</title>
<g id="a_edge28_Node000001_Node000010"><a xlink:title=" ">
<path fill="none" stroke="#63b8ff" d="M1430.17,-267.92C1184.49,-263.22 325.91,-240.52 245.5,-152.25 233,-138.53 233.58,-124.72 245.5,-110.5 312.19,-30.92 646.27,-14.7 765.3,-11.44"/>
<polygon fill="#63b8ff" stroke="#63b8ff" points="765.36,-14.94 775.27,-11.18 765.18,-7.94 765.36,-14.94"/>
</a>
</g>
</g>
<!-- Node12 -->
<g id="Node000012" class="node">
<title>Node12</title>
<g id="a_Node000012"><a xlink:title=" ">
<polygon fill="#e0e0e0" stroke="#999999" points="1655.38,-74.5 1611.62,-74.5 1611.62,-55.25 1655.38,-55.25 1655.38,-74.5"/>
<text text-anchor="middle" x="1633.5" y="-61" font-family="Helvetica,sans-Serif" font-size="10.00">format</text>
</a>
</g>
</g>
<!-- Node1&#45;&gt;Node12 -->
<g id="edge25_Node000001_Node000012" class="edge">
<title>Node1&#45;&gt;Node12</title>
<g id="a_edge25_Node000001_Node000012"><a xlink:title=" ">
<path fill="none" stroke="#63b8ff" d="M1471.61,-254.36C1447.72,-237.9 1417.01,-210.58 1435.5,-188.25 1490.33,-122.06 1567.68,-215.84 1625.5,-152.25 1641.62,-134.52 1640.79,-105.45 1637.86,-86"/>
<polygon fill="#63b8ff" stroke="#63b8ff" points="1641.32,-85.5 1636.05,-76.3 1634.44,-86.78 1641.32,-85.5"/>
</a>
</g>
</g>
<!-- Node21 -->
<g id="Node000021" class="node">
<title>Node21</title>
<g id="a_Node000021"><a xlink:title=" ">
<polygon fill="#e0e0e0" stroke="#999999" points="1478.88,-213.12 1444.12,-213.12 1444.12,-193.88 1478.88,-193.88 1478.88,-213.12"/>
<text text-anchor="middle" x="1461.5" y="-199.62" font-family="Helvetica,sans-Serif" font-size="10.00">print</text>
</a>
</g>
</g>
<!-- Node1&#45;&gt;Node21 -->
<g id="edge26_Node000001_Node000021" class="edge">
<title>Node1&#45;&gt;Node21</title>
<g id="a_edge26_Node000001_Node000021"><a xlink:title=" ">
<path fill="none" stroke="#63b8ff" d="M1487.78,-254.36C1482.94,-245.18 1476.66,-233.25 1471.44,-223.36"/>
<polygon fill="#63b8ff" stroke="#63b8ff" points="1474.62,-221.88 1466.86,-214.66 1468.42,-225.14 1474.62,-221.88"/>
</a>
</g>
</g>
<!-- Node22 -->
<g id="Node000022" class="node">
<title>Node22</title>
<g id="a_Node000022"><a xlink:title=" ">
<polygon fill="#e0e0e0" stroke="#999999" points="1564,-213.12 1497,-213.12 1497,-193.88 1564,-193.88 1564,-213.12"/>
<text text-anchor="middle" x="1530.5" y="-199.62" font-family="Helvetica,sans-Serif" font-size="10.00">Eigen/Eigen</text>
</a>
</g>
</g>
<!-- Node1&#45;&gt;Node22 -->
<g id="edge29_Node000001_Node000022" class="edge">
<title>Node1&#45;&gt;Node22</title>
<g id="a_edge29_Node000001_Node000022"><a xlink:title=" ">
<path fill="none" stroke="#63b8ff" d="M1503.44,-254.36C1508.42,-245.18 1514.9,-233.25 1520.26,-223.36"/>
<polygon fill="#63b8ff" stroke="#63b8ff" points="1523.3,-225.11 1524.99,-214.65 1517.14,-221.77 1523.3,-225.11"/>
</a>
</g>
</g>
<!-- Node23 -->
<g id="Node000023" class="node">
<title>Node23</title>
<g id="a_Node000023"><a xlink:title=" ">
<polygon fill="#e0e0e0" stroke="#999999" points="1684.62,-218.75 1582.38,-218.75 1582.38,-188.25 1684.62,-188.25 1684.62,-218.75"/>
<text text-anchor="start" x="1590.38" y="-205.25" font-family="Helvetica,sans-Serif" font-size="10.00">mp&#45;units/framework</text>
<text text-anchor="middle" x="1633.5" y="-194" font-family="Helvetica,sans-Serif" font-size="10.00">/quantity.h</text>
</a>
</g>
</g>
<!-- Node1&#45;&gt;Node23 -->
<g id="edge30_Node000001_Node000023" class="edge">
<title>Node1&#45;&gt;Node23</title>
<g id="a_edge30_Node000001_Node000023"><a xlink:title=" ">
<path fill="none" stroke="#63b8ff" d="M1526.81,-254.36C1546.13,-245.33 1571.14,-233.65 1592.09,-223.86"/>
<polygon fill="#63b8ff" stroke="#63b8ff" points="1593.36,-227.12 1600.94,-219.72 1590.4,-220.78 1593.36,-227.12"/>
</a>
</g>
</g>
<!-- Node24 -->
<g id="Node000024" class="node">
<title>Node24</title>
<g id="a_Node000024"><a xlink:title=" ">
<polygon fill="#e0e0e0" stroke="#999999" points="1804.62,-218.75 1702.38,-218.75 1702.38,-188.25 1804.62,-188.25 1804.62,-218.75"/>
<text text-anchor="start" x="1710.38" y="-205.25" font-family="Helvetica,sans-Serif" font-size="10.00">mp&#45;units/framework</text>
<text text-anchor="middle" x="1753.5" y="-194" font-family="Helvetica,sans-Serif" font-size="10.00">/quantity_point.h</text>
</a>
</g>
</g>
<!-- Node1&#45;&gt;Node24 -->
<g id="edge31_Node000001_Node000024" class="edge">
<title>Node1&#45;&gt;Node24</title>
<g id="a_edge31_Node000001_Node000024"><a xlink:title=" ">
<path fill="none" stroke="#63b8ff" d="M1554.37,-254.28C1595.24,-244.07 1649.6,-230.47 1691.2,-220.08"/>
<polygon fill="#63b8ff" stroke="#63b8ff" points="1691.98,-223.49 1700.83,-217.67 1690.28,-216.7 1691.98,-223.49"/>
</a>
</g>
</g>
<!-- Node25 -->
<g id="Node000025" class="node">
<title>Node25</title>
<g id="a_Node000025"><a xlink:title=" ">
<polygon fill="#e0e0e0" stroke="#999999" points="1908.38,-213.12 1822.62,-213.12 1822.62,-193.88 1908.38,-193.88 1908.38,-213.12"/>
<text text-anchor="middle" x="1865.5" y="-199.62" font-family="Helvetica,sans-Serif" font-size="10.00">mp&#45;units/math.h</text>
</a>
</g>
</g>
<!-- Node1&#45;&gt;Node25 -->
<g id="edge32_Node000001_Node000025" class="edge">
<title>Node1&#45;&gt;Node25</title>
<g id="a_edge32_Node000001_Node000025"><a xlink:title=" ">
<path fill="none" stroke="#63b8ff" d="M1560.75,-260.84C1625.31,-252.26 1726.76,-237.43 1813.5,-218.75 1816.82,-218.03 1820.25,-217.23 1823.69,-216.39"/>
<polygon fill="#63b8ff" stroke="#63b8ff" points="1824.29,-219.85 1833.1,-213.96 1822.54,-213.07 1824.29,-219.85"/>
</a>
</g>
</g>
<!-- Node26 -->
<g id="Node000026" class="node">
<title>Node26</title>
<g id="a_Node000026"><a xlink:title=" ">
<polygon fill="#e0e0e0" stroke="#999999" points="2035,-218.75 1926,-218.75 1926,-188.25 2035,-188.25 2035,-218.75"/>
<text text-anchor="start" x="1934" y="-205.25" font-family="Helvetica,sans-Serif" font-size="10.00">mp&#45;units/systems/isq</text>
<text text-anchor="middle" x="1980.5" y="-194" font-family="Helvetica,sans-Serif" font-size="10.00">/thermodynamics.h</text>
</a>
</g>
</g>
<!-- Node1&#45;&gt;Node26 -->
<g id="edge33_Node000001_Node000026" class="edge">
<title>Node1&#45;&gt;Node26</title>
<g id="a_edge33_Node000001_Node000026"><a xlink:title=" ">
<path fill="none" stroke="#63b8ff" d="M1560.87,-263.34C1641.8,-255.86 1784.03,-241.17 1914.61,-219.15"/>
<polygon fill="#63b8ff" stroke="#63b8ff" points="1914.83,-222.66 1924.1,-217.53 1913.65,-215.76 1914.83,-222.66"/>
</a>
</g>
</g>
<!-- Node27 -->
<g id="Node000027" class="node">
<title>Node27</title>
<g id="a_Node000027"><a xlink:title=" ">
<polygon fill="#e0e0e0" stroke="#999999" points="2164.12,-213.12 2052.88,-213.12 2052.88,-193.88 2164.12,-193.88 2164.12,-213.12"/>
<text text-anchor="middle" x="2108.5" y="-199.62" font-family="Helvetica,sans-Serif" font-size="10.00">mp&#45;units/systems/si.h</text>
</a>
</g>
</g>
<!-- Node1&#45;&gt;Node27 -->
<g id="edge34_Node000001_Node000027" class="edge">
<title>Node1&#45;&gt;Node27</title>
<g id="a_edge34_Node000001_Node000027"><a xlink:title=" ">
<path fill="none" stroke="#63b8ff" d="M1560.91,-265.72C1664.14,-259.94 1870.98,-245.89 2044.5,-218.75 2049.71,-217.94 2055.13,-216.95 2060.51,-215.88"/>
<polygon fill="#63b8ff" stroke="#63b8ff" points="2060.87,-219.38 2069.95,-213.91 2059.44,-212.53 2060.87,-219.38"/>
</a>
</g>
</g>
<!-- Node4 -->
<g id="Node000004" class="node">
<title>Node4</title>
<g id="a_Node000004"><a xlink:href="typed__linear__algebra__forward_8hpp.xhtml" target="_top" xlink:title="Authoritative forward declaration header.">
<polygon fill="white" stroke="#666666" points="1395.75,-146.62 1291.25,-146.62 1291.25,-116.12 1395.75,-116.12 1395.75,-146.62"/>
<text text-anchor="start" x="1299.25" y="-133.12" font-family="Helvetica,sans-Serif" font-size="10.00">typed_linear_algebra</text>
<text text-anchor="middle" x="1343.5" y="-121.88" font-family="Helvetica,sans-Serif" font-size="10.00">_forward.hpp</text>
</a>
</g>
</g>
<!-- Node3&#45;&gt;Node4 -->
<g id="edge3_Node000003_Node000004" class="edge">
<title>Node3&#45;&gt;Node4</title>
<g id="a_edge3_Node000003_Node000004"><a xlink:title=" ">
<path fill="none" stroke="#63b8ff" d="M1083.72,-193.66C1135.24,-184.8 1214.69,-169.96 1282.5,-152.25 1284.91,-151.62 1287.36,-150.95 1289.83,-150.25"/>
<polygon fill="#63b8ff" stroke="#63b8ff" points="1290.65,-153.66 1299.25,-147.46 1288.67,-146.95 1290.65,-153.66"/>
</a>
</g>
</g>
<!-- Node5 -->
<g id="Node000005" class="node">
<title>Node5</title>
<g id="a_Node000005"><a xlink:href="format_8hpp.xhtml" target="_top" xlink:title="Formatting support for the typed matrix.">
<polygon fill="white" stroke="#666666" points="1555.75,-146.62 1451.25,-146.62 1451.25,-116.12 1555.75,-116.12 1555.75,-146.62"/>
<text text-anchor="start" x="1459.25" y="-133.12" font-family="Helvetica,sans-Serif" font-size="10.00">typed_linear_algebra</text>
<text text-anchor="middle" x="1503.5" y="-121.88" font-family="Helvetica,sans-Serif" font-size="10.00">_internal/format.hpp</text>
</a>
</g>
</g>
<!-- Node3&#45;&gt;Node5 -->
<g id="edge4_Node000003_Node000005" class="edge">
<title>Node3&#45;&gt;Node5</title>
<g id="a_edge4_Node000003_Node000005"><a xlink:title=" ">
<path fill="none" stroke="#63b8ff" d="M1084.1,-198.74C1162.83,-192.65 1312.49,-178.57 1437.5,-152.25 1440.68,-151.58 1443.94,-150.83 1447.21,-150.02"/>
<polygon fill="#63b8ff" stroke="#63b8ff" points="1448.08,-153.41 1456.85,-147.47 1446.29,-146.64 1448.08,-153.41"/>
</a>
</g>
</g>
<!-- Node6 -->
<g id="Node000006" class="node">
<title>Node6</title>
<g id="a_Node000006"><a xlink:href="utility_8hpp.xhtml" target="_top" xlink:title=" ">
<polygon fill="white" stroke="#666666" points="1451.75,-74.5 1395.25,-74.5 1395.25,-55.25 1451.75,-55.25 1451.75,-74.5"/>
<text text-anchor="middle" x="1423.5" y="-61" font-family="Helvetica,sans-Serif" font-size="10.00">utility.hpp</text>
</a>
</g>
</g>
<!-- Node3&#45;&gt;Node6 -->
<g id="edge12_Node000003_Node000006" class="edge">
<title>Node3&#45;&gt;Node6</title>
<g id="a_edge12_Node000003_Node000006"><a xlink:title=" ">
<path fill="none" stroke="#63b8ff" d="M1084.09,-202.61C1176.67,-201.62 1358.88,-194.22 1404.5,-152.25 1422.58,-135.62 1425.48,-106.05 1425.12,-86.2"/>
<polygon fill="#63b8ff" stroke="#63b8ff" points="1428.62,-86.12 1424.61,-76.31 1421.63,-86.48 1428.62,-86.12"/>
</a>
</g>
</g>
<!-- Node7 -->
<g id="Node000007" class="node">
<title>Node7</title>
<g id="a_Node000007"><a xlink:title=" ">
<polygon fill="#e0e0e0" stroke="#999999" points="1568.38,-19.25 1512.62,-19.25 1512.62,0 1568.38,0 1568.38,-19.25"/>
<text text-anchor="middle" x="1540.5" y="-5.75" font-family="Helvetica,sans-Serif" font-size="10.00">concepts</text>
</a>
</g>
</g>
<!-- Node3&#45;&gt;Node7 -->
<g id="edge13_Node000003_Node000007" class="edge">
<title>Node3&#45;&gt;Node7</title>
<g id="a_edge13_Node000003_Node000007"><a xlink:title=" ">
<path fill="none" stroke="#63b8ff" d="M1083.74,-201.45C1213.33,-198.4 1532.55,-187.34 1564.5,-152.25 1595.6,-118.09 1569.12,-59.21 1552.11,-29.27"/>
<polygon fill="#63b8ff" stroke="#63b8ff" points="1555.29,-27.76 1547.17,-20.95 1549.27,-31.34 1555.29,-27.76"/>
</a>
</g>
</g>
<!-- Node3&#45;&gt;Node9 -->
<g id="edge17_Node000003_Node000009" class="edge">
<title>Node3&#45;&gt;Node9</title>
<g id="a_edge17_Node000003_Node000009"><a xlink:title=" ">
<path fill="none" stroke="#63b8ff" d="M975.11,-202.52C806.82,-202.12 302.54,-197.14 245.5,-152.25 208.16,-122.86 201.79,-62.23 201.14,-30.69"/>
<polygon fill="#63b8ff" stroke="#63b8ff" points="204.64,-30.97 201.14,-20.97 197.64,-30.98 204.64,-30.97"/>
</a>
</g>
</g>
<!-- Node11 -->
<g id="Node000011" class="node">
<title>Node11</title>
<g id="a_Node000011"><a xlink:title=" ">
<polygon fill="#e0e0e0" stroke="#999999" points="827.62,-74.5 779.38,-74.5 779.38,-55.25 827.62,-55.25 827.62,-74.5"/>
<text text-anchor="middle" x="803.5" y="-61" font-family="Helvetica,sans-Serif" font-size="10.00">cstddef</text>
</a>
</g>
</g>
<!-- Node3&#45;&gt;Node11 -->
<g id="edge14_Node000003_Node000011" class="edge">
<title>Node3&#45;&gt;Node11</title>
<g id="a_edge14_Node000003_Node000011"><a xlink:title=" ">
<path fill="none" stroke="#63b8ff" d="M975.09,-203.14C807.48,-204.55 307.28,-204.31 258.5,-152.25 245.81,-138.71 245.93,-124.15 258.5,-110.5 292.98,-73.08 652.01,-67.04 767.75,-66.06"/>
<polygon fill="#63b8ff" stroke="#63b8ff" points="767.62,-69.56 777.59,-65.99 767.56,-62.56 767.62,-69.56"/>
</a>
</g>
</g>
<!-- Node3&#45;&gt;Node12 -->
<g id="edge15_Node000003_Node000012" class="edge">
<title>Node3&#45;&gt;Node12</title>
<g id="a_edge15_Node000003_Node000012"><a xlink:title=" ">
<path fill="none" stroke="#63b8ff" d="M1083.76,-200.86C1217.79,-196.38 1556.62,-182.19 1597.5,-152.25 1618.67,-136.74 1627.46,-106.41 1631.06,-86.14"/>
<polygon fill="#63b8ff" stroke="#63b8ff" points="1634.52,-86.68 1632.51,-76.28 1627.59,-85.67 1634.52,-86.68"/>
</a>
</g>
</g>
<!-- Node13 -->
<g id="Node000013" class="node">
<title>Node13</title>
<g id="a_Node000013"><a xlink:title=" ">
<polygon fill="#e0e0e0" stroke="#999999" points="339.25,-141 267.75,-141 267.75,-121.75 339.25,-121.75 339.25,-141"/>
<text text-anchor="middle" x="303.5" y="-127.5" font-family="Helvetica,sans-Serif" font-size="10.00">initializer_list</text>
</a>
</g>
</g>
<!-- Node3&#45;&gt;Node13 -->
<g id="edge16_Node000003_Node000013" class="edge">
<title>Node3&#45;&gt;Node13</title>
<g id="a_edge16_Node000003_Node000013"><a xlink:title=" ">
<path fill="none" stroke="#63b8ff" d="M975.02,-200.88C835.29,-196.33 466.9,-181.82 348.5,-152.25 342.39,-150.72 336.06,-148.43 330.16,-145.93"/>
<polygon fill="#63b8ff" stroke="#63b8ff" points="332.04,-142.94 321.48,-141.97 329.13,-149.31 332.04,-142.94"/>
</a>
</g>
</g>
<!-- Node14 -->
<g id="Node000014" class="node">
<title>Node14</title>
<g id="a_Node000014"><a xlink:title=" ">
<polygon fill="#e0e0e0" stroke="#999999" points="395.75,-141 357.25,-141 357.25,-121.75 395.75,-121.75 395.75,-141"/>
<text text-anchor="middle" x="376.5" y="-127.5" font-family="Helvetica,sans-Serif" font-size="10.00">utility</text>
</a>
</g>
</g>
<!-- Node3&#45;&gt;Node14 -->
<g id="edge18_Node000003_Node000014" class="edge">
<title>Node3&#45;&gt;Node14</title>
<g id="a_edge18_Node000003_Node000014"><a xlink:title=" ">
<path fill="none" stroke="#63b8ff" d="M975.05,-201.81C842.95,-199.55 508.72,-190.15 404.5,-152.25 401.5,-151.16 398.54,-149.66 395.72,-147.97"/>
<polygon fill="#63b8ff" stroke="#63b8ff" points="397.8,-145.15 387.61,-142.25 393.77,-150.87 397.8,-145.15"/>
</a>
</g>
</g>
<!-- Node15 -->
<g id="Node000015" class="node">
<title>Node15</title>
<g id="a_Node000015"><a xlink:title=" ">
<polygon fill="#e0e0e0" stroke="#999999" points="543.5,-146.62 413.5,-146.62 413.5,-116.12 543.5,-116.12 543.5,-146.62"/>
<text text-anchor="start" x="421.5" y="-133.12" font-family="Helvetica,sans-Serif" font-size="10.00">typed_linear_algebra</text>
<text text-anchor="middle" x="478.5" y="-121.88" font-family="Helvetica,sans-Serif" font-size="10.00">_internal/algorithm/add.tpp</text>
</a>
</g>
</g>
<!-- Node3&#45;&gt;Node15 -->
<g id="edge19_Node000003_Node000015" class="edge">
<title>Node3&#45;&gt;Node15</title>
<g id="a_edge19_Node000003_Node000015"><a xlink:title=" ">
<path fill="none" stroke="#63b8ff" d="M975.09,-199.56C886.11,-194.14 704.16,-180.42 552.5,-152.25 548.47,-151.5 544.34,-150.65 540.19,-149.72"/>
<polygon fill="#63b8ff" stroke="#63b8ff" points="541.22,-146.37 530.69,-147.47 539.61,-153.18 541.22,-146.37"/>
</a>
</g>
</g>
<!-- Node16 -->
<g id="Node000016" class="node">
<title>Node16</title>
<g id="a_Node000016"><a xlink:title=" ">
<polygon fill="#e0e0e0" stroke="#999999" points="715.88,-146.62 561.12,-146.62 561.12,-116.12 715.88,-116.12 715.88,-146.62"/>
<text text-anchor="start" x="569.12" y="-133.12" font-family="Helvetica,sans-Serif" font-size="10.00">typed_linear_algebra</text>
<text text-anchor="middle" x="638.5" y="-121.88" font-family="Helvetica,sans-Serif" font-size="10.00">_internal/algorithm/substract.tpp</text>
</a>
</g>
</g>
<!-- Node3&#45;&gt;Node16 -->
<g id="edge20_Node000003_Node000016" class="edge">
<title>Node3&#45;&gt;Node16</title>
<g id="a_edge20_Node000003_Node000016"><a xlink:title=" ">
<path fill="none" stroke="#63b8ff" d="M974.95,-194.51C913.97,-185.33 812.37,-169.34 725.5,-152.25 720.97,-151.36 716.31,-150.41 711.62,-149.42"/>
<polygon fill="#63b8ff" stroke="#63b8ff" points="712.65,-146.06 702.14,-147.38 711.18,-152.9 712.65,-146.06"/>
</a>
</g>
</g>
<!-- Node17 -->
<g id="Node000017" class="node">
<title>Node17</title>
<g id="a_Node000017"><a xlink:title=" ">
<polygon fill="#e0e0e0" stroke="#999999" points="896.62,-146.62 734.38,-146.62 734.38,-116.12 896.62,-116.12 896.62,-146.62"/>
<text text-anchor="start" x="742.38" y="-133.12" font-family="Helvetica,sans-Serif" font-size="10.00">typed_linear_algebra</text>
<text text-anchor="middle" x="815.5" y="-121.88" font-family="Helvetica,sans-Serif" font-size="10.00">_internal/algorithm/transposed.tpp</text>
</a>
</g>
</g>
<!-- Node3&#45;&gt;Node17 -->
<g id="edge21_Node000003_Node000017" class="edge">
<title>Node3&#45;&gt;Node17</title>
<g id="a_edge21_Node000003_Node000017"><a xlink:title=" ">
<path fill="none" stroke="#63b8ff" d="M984.64,-187.8C951.54,-176.95 906.3,-162.13 870.94,-150.54"/>
<polygon fill="#63b8ff" stroke="#63b8ff" points="872.33,-147.32 861.74,-147.53 870.15,-153.97 872.33,-147.32"/>
</a>
</g>
</g>
<!-- Node18 -->
<g id="Node000018" class="node">
<title>Node18</title>
<g id="a_Node000018"><a xlink:title=" ">
<polygon fill="#e0e0e0" stroke="#999999" points="1018.75,-146.62 914.25,-146.62 914.25,-116.12 1018.75,-116.12 1018.75,-146.62"/>
<text text-anchor="start" x="922.25" y="-133.12" font-family="Helvetica,sans-Serif" font-size="10.00">typed_linear_algebra</text>
<text text-anchor="middle" x="966.5" y="-121.88" font-family="Helvetica,sans-Serif" font-size="10.00">_internal/cast.tpp</text>
</a>
</g>
</g>
<!-- Node3&#45;&gt;Node18 -->
<g id="edge22_Node000003_Node000018" class="edge">
<title>Node3&#45;&gt;Node18</title>
<g id="a_edge22_Node000003_Node000018"><a xlink:title=" ">
<path fill="none" stroke="#63b8ff" d="M1016.45,-187.97C1008,-178.57 996.82,-166.12 987.18,-155.39"/>
<polygon fill="#63b8ff" stroke="#63b8ff" points="989.84,-153.11 980.55,-148.01 984.63,-157.79 989.84,-153.11"/>
</a>
</g>
</g>
<!-- Node19 -->
<g id="Node000019" class="node">
<title>Node19</title>
<g id="a_Node000019"><a xlink:title=" ">
<polygon fill="#e0e0e0" stroke="#999999" points="1148.12,-146.62 1036.88,-146.62 1036.88,-116.12 1148.12,-116.12 1148.12,-146.62"/>
<text text-anchor="start" x="1044.88" y="-133.12" font-family="Helvetica,sans-Serif" font-size="10.00">typed_linear_algebra</text>
<text text-anchor="middle" x="1092.5" y="-121.88" font-family="Helvetica,sans-Serif" font-size="10.00">_internal/operation.tpp</text>
</a>
</g>
</g>
<!-- Node3&#45;&gt;Node19 -->
<g id="edge23_Node000003_Node000019" class="edge">
<title>Node3&#45;&gt;Node19</title>
<g id="a_edge23_Node000003_Node000019"><a xlink:title=" ">
<path fill="none" stroke="#63b8ff" d="M1042.55,-187.97C1051,-178.57 1062.18,-166.12 1071.82,-155.39"/>
<polygon fill="#63b8ff" stroke="#63b8ff" points="1074.37,-157.79 1078.45,-148.01 1069.16,-153.11 1074.37,-157.79"/>
</a>
</g>
</g>
<!-- Node20 -->
<g id="Node000020" class="node">
<title>Node20</title>
<g id="a_Node000020"><a xlink:title=" ">
<polygon fill="#e0e0e0" stroke="#999999" points="1273.25,-152.25 1165.75,-152.25 1165.75,-110.5 1273.25,-110.5 1273.25,-152.25"/>
<text text-anchor="start" x="1173.75" y="-138.75" font-family="Helvetica,sans-Serif" font-size="10.00">typed_linear_algebra</text>
<text text-anchor="start" x="1173.75" y="-127.5" font-family="Helvetica,sans-Serif" font-size="10.00">_internal/typed_linear</text>
<text text-anchor="middle" x="1219.5" y="-116.25" font-family="Helvetica,sans-Serif" font-size="10.00">_algebra.tpp</text>
</a>
</g>
</g>
<!-- Node3&#45;&gt;Node20 -->
<g id="edge24_Node000003_Node000020" class="edge">
<title>Node3&#45;&gt;Node20</title>
<g id="a_edge24_Node000003_Node000020"><a xlink:title=" ">
<path fill="none" stroke="#63b8ff" d="M1069.33,-187.8C1094.03,-178.68 1126.35,-166.76 1154.67,-156.3"/>
<polygon fill="#63b8ff" stroke="#63b8ff" points="1155.72,-159.65 1163.89,-152.9 1153.29,-153.08 1155.72,-159.65"/>
</a>
</g>
</g>
<!-- Node5&#45;&gt;Node6 -->
<g id="edge5_Node000005_Node000006" class="edge">
<title>Node5&#45;&gt;Node6</title>
<g id="a_edge5_Node000005_Node000006"><a xlink:title=" ">
<path fill="none" stroke="#63b8ff" d="M1485.35,-115.74C1472.73,-105.57 1455.94,-92.03 1443.04,-81.63"/>
<polygon fill="#63b8ff" stroke="#63b8ff" points="1445.6,-79.2 1435.62,-75.65 1441.21,-84.65 1445.6,-79.2"/>
</a>
</g>
</g>
<!-- Node5&#45;&gt;Node11 -->
<g id="edge10_Node000005_Node000011" class="edge">
<title>Node5&#45;&gt;Node11</title>
<g id="a_edge10_Node000005_Node000011"><a xlink:title=" ">
<path fill="none" stroke="#63b8ff" d="M1450.79,-118.53C1435.88,-115.53 1419.61,-112.57 1404.5,-110.5 1191.24,-81.29 932.6,-70.21 839.25,-66.98"/>
<polygon fill="#63b8ff" stroke="#63b8ff" points="839.57,-63.49 829.46,-66.65 839.33,-70.49 839.57,-63.49"/>
</a>
</g>
</g>
<!-- Node5&#45;&gt;Node12 -->
<g id="edge11_Node000005_Node000012" class="edge">
<title>Node5&#45;&gt;Node12</title>
<g id="a_edge11_Node000005_Node000012"><a xlink:title=" ">
<path fill="none" stroke="#63b8ff" d="M1533,-115.74C1554.66,-104.99 1583.91,-90.48 1605.27,-79.88"/>
<polygon fill="#63b8ff" stroke="#63b8ff" points="1606.58,-83.14 1613.98,-75.56 1603.47,-76.87 1606.58,-83.14"/>
</a>
</g>
</g>
<!-- Node6&#45;&gt;Node7 -->
<g id="edge6_Node000006_Node000007" class="edge">
<title>Node6&#45;&gt;Node7</title>
<g id="a_edge6_Node000006_Node000007"><a xlink:title=" ">
<path fill="none" stroke="#63b8ff" d="M1443.35,-54.84C1461.67,-46.5 1489.15,-34 1510.21,-24.41"/>
<polygon fill="#63b8ff" stroke="#63b8ff" points="1511.53,-27.66 1519.18,-20.33 1508.63,-21.29 1511.53,-27.66"/>
</a>
</g>
</g>
<!-- Node8 -->
<g id="Node000008" class="node">
<title>Node8</title>
<g id="a_Node000008"><a xlink:title=" ">
<polygon fill="#e0e0e0" stroke="#999999" points="1452.5,-19.25 1394.5,-19.25 1394.5,0 1452.5,0 1452.5,-19.25"/>
<text text-anchor="middle" x="1423.5" y="-5.75" font-family="Helvetica,sans-Serif" font-size="10.00">functional</text>
</a>
</g>
</g>
<!-- Node6&#45;&gt;Node8 -->
<g id="edge7_Node000006_Node000008" class="edge">
<title>Node6&#45;&gt;Node8</title>
<g id="a_edge7_Node000006_Node000008"><a xlink:title=" ">
<path fill="none" stroke="#63b8ff" d="M1423.5,-55.08C1423.5,-48.57 1423.5,-39.42 1423.5,-31.12"/>
<polygon fill="#63b8ff" stroke="#63b8ff" points="1427,-31.12 1423.5,-21.12 1420,-31.12 1427,-31.12"/>
</a>
</g>
</g>
<!-- Node6&#45;&gt;Node9 -->
<g id="edge8_Node000006_Node000009" class="edge">
<title>Node6&#45;&gt;Node9</title>
<g id="a_edge8_Node000006_Node000009"><a xlink:title=" ">
<path fill="none" stroke="#63b8ff" d="M1394.8,-62.62C1229.6,-55.43 401.52,-19.34 231.89,-11.95"/>
<polygon fill="#63b8ff" stroke="#63b8ff" points="232.07,-8.45 221.92,-11.51 231.76,-15.45 232.07,-8.45"/>
</a>
</g>
</g>
<!-- Node6&#45;&gt;Node10 -->
<g id="edge9_Node000006_Node000010" class="edge">
<title>Node6&#45;&gt;Node10</title>
<g id="a_edge9_Node000006_Node000010"><a xlink:title=" ">
<path fill="none" stroke="#63b8ff" d="M1395.02,-61.41C1296.09,-52.86 966.89,-24.4 849.52,-14.26"/>
<polygon fill="#63b8ff" stroke="#63b8ff" points="849.97,-10.78 839.7,-13.41 849.36,-17.76 849.97,-10.78"/>
</a>
</g>
</g>
</g>
</svg>
