<?xml version="1.0" encoding="UTF-8" standalone="no"?>
<!DOCTYPE svg PUBLIC "-//W3C//DTD SVG 1.1//EN"
 "http://www.w3.org/Graphics/SVG/1.1/DTD/svg11.dtd">
<!-- Generated by graphviz version 12.2.0 (20241103.1931)
 -->
<!-- Title: /github/workspace/sample/mp_units_eigen.cpp Pages: 1 -->
<!--zoomable 293 -->

<svg id="main" version="1.1" xmlns="http://www.w3.org/2000/svg" xmlns:xlink="http://www.w3.org/1999/xlink" xml:space="preserve" onload="init(evt)">

<style type="text/css"><![CDATA[
.node, .edge {opacity: 0.7;}
.node.selected, .edge.selected {opacity: 1;}
.edge:hover path { stroke: red; }
.edge:hover polygon { stroke: red; fill: red; }
]]></style>

<defs>
  <circle id="rim" cx="0" cy="0" r="7"/>
  <circle id="rim2" cx="0" cy="0" r="3.5"/>
  <g id="zoomPlus">
    <use xlink:href="#rim" fill="#404040"><set attributeName="fill" to="#808080" begin="zoomplus.mouseover" end="zoomplus.mouseout"/></use>
    <path d="M-4,0h8M0,-4v8" fill="none" stroke="white" stroke-width="1.5" pointer-events="none"/>
  </g>
  <g id="zoomMin">
    <use xlink:href="#rim" fill="#404040"><set attributeName="fill" to="#808080" begin="zoomminus.mouseover" end="zoomminus.mouseout"/></use>
    <path d="M-4,0h8" fill="none" stroke="white" stroke-width="1.5" pointer-events="none"/>
  </g>
  <g id="arrowUp" transform="translate(30 24)">
    <use xlink:href="#rim"/>
    <path pointer-events="none" fill="none" stroke="white" stroke-width="1.5" d="M0,-3.0v7 M-2.5,-0.5L0,-3.0L2.5,-0.5"/>
  </g>
  <g id="arrowRight" transform="rotate(90) translate(36 -43)">
    <use xlink:href="#rim"/>
    <path pointer-events="none" fill="none" stroke="white" stroke-width="1.5" d="M0,-3.0v7 M-2.5,-0.5L0,-3.0L2.5,-0.5"/>
  </g>
  <g id="arrowDown" transform="rotate(180) translate(-30 -48)">
    <use xlink:href="#rim"/>
    <path pointer-events="none" fill="none" stroke="white" stroke-width="1.5" d="M0,-3.0v7 M-2.5,-0.5L0,-3.0L2.5,-0.5"/>
  </g>
  <g id="arrowLeft" transform="rotate(270) translate(-36 17)">
    <use xlink:href="#rim"/>
    <path pointer-events="none" fill="none" stroke="white" stroke-width="1.5" d="M0,-3.0v7 M-2.5,-0.5L0,-3.0L2.5,-0.5"/>
  </g>
  <g id="resetDef">
    <use xlink:href="#rim2" fill="#404040"><set attributeName="fill" to="#808080" begin="reset.mouseover" end="reset.mouseout"/></use>
  </g>
</defs>
<script type="application/ecmascript">
var viewWidth = 1785;
var viewHeight = 293;
var sectionId = 'dynsection-0';
</script>
<script type="application/ecmascript" xlink:href="svg.min.js"/>
<svg id="graph" class="graph">
<g id="viewport">
<title>/github/workspace/sample/mp_units_eigen.cpp</title>
<!-- Node1 -->
<g id="Node000001" class="node">
<title>Node1</title>
<g id="a_Node000001"><a xlink:title="Unit safe linear algebra with mp&#45;units and Eigen.">
<polygon fill="#999999" stroke="#666666" points="1173.5,-285.25 1043.5,-285.25 1043.5,-254.75 1173.5,-254.75 1173.5,-285.25"/>
<text text-anchor="start" x="1051.5" y="-271.75" font-family="Helvetica,sans-Serif" font-size="10.00">/github/workspace/sample</text>
<text text-anchor="middle" x="1108.5" y="-260.5" font-family="Helvetica,sans-Serif" font-size="10.00">/mp_units_eigen.cpp</text>
</a>
</g>
</g>
<!-- Node2 -->
<g id="Node000002" class="node">
<title>Node2</title>
<g id="a_Node000002"><a xlink:title=" ">
<polygon fill="#e0e0e0" stroke="#999999" points="97,-213.12 0,-213.12 0,-193.88 97,-193.88 97,-213.12"/>
<text text-anchor="middle" x="48.5" y="-199.62" font-family="Helvetica,sans-Serif" font-size="10.00">fcarouge/linalg.hpp</text>
</a>
</g>
</g>
<!-- Node1&#45;&gt;Node2 -->
<g id="edge1_Node000001_Node000002" class="edge">
<title>Node1&#45;&gt;Node2</title>
<g id="a_edge1_Node000001_Node000002"><a xlink:title=" ">
<path fill="none" stroke="#63b8ff" d="M1043.11,-269.58C883.26,-270.16 460.27,-266.62 111.5,-218.75 106.09,-218.01 100.46,-217.03 94.89,-215.94"/>
<polygon fill="#63b8ff" stroke="#63b8ff" points="95.61,-212.51 85.1,-213.88 94.17,-219.36 95.61,-212.51"/>
</a>
</g>
</g>
<!-- Node3 -->
<g id="Node000003" class="node">
<title>Node3</title>
<g id="a_Node000003"><a xlink:href="typed__linear__algebra_8hpp.xhtml" target="_top" xlink:title="Typed linear algebra implementation.">
<polygon fill="white" stroke="#666666" points="872.62,-218.75 764.38,-218.75 764.38,-188.25 872.62,-188.25 872.62,-218.75"/>
<text text-anchor="start" x="772.38" y="-205.25" font-family="Helvetica,sans-Serif" font-size="10.00">fcarouge/typed_linear</text>
<text text-anchor="middle" x="818.5" y="-194" font-family="Helvetica,sans-Serif" font-size="10.00">_algebra.hpp</text>
</a>
</g>
</g>
<!-- Node1&#45;&gt;Node3 -->
<g id="edge2_Node000001_Node000003" class="edge">
<title>Node1&#45;&gt;Node3</title>
<g id="a_edge2_Node000001_Node000003"><a xlink:title=" ">
<path fill="none" stroke="#63b8ff" d="M1043.06,-254.44C995.58,-243.88 931.61,-229.66 884.1,-219.09"/>
<polygon fill="#63b8ff" stroke="#63b8ff" points="885,-215.71 874.48,-216.95 883.48,-222.54 885,-215.71"/>
</a>
</g>
</g>
<!-- Node9 -->
<g id="Node000009" class="node">
<title>Node9</title>
<g id="a_Node000009"><a xlink:title=" ">
<polygon fill="#e0e0e0" stroke="#999999" points="220,-19.25 183,-19.25 183,0 220,0 220,-19.25"/>
<text text-anchor="middle" x="201.5" y="-5.75" font-family="Helvetica,sans-Serif" font-size="10.00">tuple</text>
</a>
</g>
</g>
<!-- Node1&#45;&gt;Node9 -->
<g id="edge24_Node000001_Node000009" class="edge">
<title>Node1&#45;&gt;Node9</title>
<g id="a_edge24_Node000001_Node000009"><a xlink:title=" ">
<path fill="none" stroke="#63b8ff" d="M1043.34,-265.4C844.04,-253.75 252.68,-214.2 194.5,-152.25 163.41,-119.14 180.77,-60.19 192.89,-29.84"/>
<polygon fill="#63b8ff" stroke="#63b8ff" points="196.05,-31.37 196.73,-20.79 189.6,-28.64 196.05,-31.37"/>
</a>
</g>
</g>
<!-- Node10 -->
<g id="Node000010" class="node">
<title>Node10</title>
<g id="a_Node000010"><a xlink:title=" ">
<polygon fill="#e0e0e0" stroke="#999999" points="161,-19.25 100,-19.25 100,0 161,0 161,-19.25"/>
<text text-anchor="middle" x="130.5" y="-5.75" font-family="Helvetica,sans-Serif" font-size="10.00">type_traits</text>
</a>
</g>
</g>
<!-- Node1&#45;&gt;Node10 -->
<g id="edge25_Node000001_Node000010" class="edge">
<title>Node1&#45;&gt;Node10</title>
<g id="a_edge25_Node000001_Node000010"><a xlink:title=" ">
<path fill="none" stroke="#63b8ff" d="M1043.02,-268.71C875.13,-267.36 432.69,-259.91 292.5,-218.75 234.37,-201.68 211.5,-199.44 173.5,-152.25 144.44,-116.16 134.98,-60.65 131.93,-30.98"/>
<polygon fill="#63b8ff" stroke="#63b8ff" points="135.43,-30.82 131.09,-21.16 128.46,-31.42 135.43,-30.82"/>
</a>
</g>
</g>
<!-- Node12 -->
<g id="Node000012" class="node">
<title>Node12</title>
<g id="a_Node000012"><a xlink:title=" ">
<polygon fill="#e0e0e0" stroke="#999999" points="958.38,-74.5 914.62,-74.5 914.62,-55.25 958.38,-55.25 958.38,-74.5"/>
<text text-anchor="middle" x="936.5" y="-61" font-family="Helvetica,sans-Serif" font-size="10.00">format</text>
</a>
</g>
</g>
<!-- Node1&#45;&gt;Node12 -->
<g id="edge22_Node000001_Node000012" class="edge">
<title>Node1&#45;&gt;Node12</title>
<g id="a_edge22_Node000001_Node000012"><a xlink:title=" ">
<path fill="none" stroke="#63b8ff" d="M1082.16,-254.46C1069.47,-245.89 1055.51,-233.77 1048.5,-218.75 1042.77,-206.47 1042.16,-200.23 1048.5,-188.25 1061.83,-163.09 1088.17,-177.41 1101.5,-152.25 1110.18,-135.85 1112.78,-125.23 1101.5,-110.5 1085.6,-89.72 1013.32,-76.4 969.87,-70.11"/>
<polygon fill="#63b8ff" stroke="#63b8ff" points="970.6,-66.68 960.21,-68.77 969.64,-73.62 970.6,-66.68"/>
</a>
</g>
</g>
<!-- Node18 -->
<g id="Node000018" class="node">
<title>Node18</title>
<g id="a_Node000018"><a xlink:title=" ">
<polygon fill="#e0e0e0" stroke="#999999" points="1091.88,-213.12 1057.12,-213.12 1057.12,-193.88 1091.88,-193.88 1091.88,-213.12"/>
<text text-anchor="middle" x="1074.5" y="-199.62" font-family="Helvetica,sans-Serif" font-size="10.00">print</text>
</a>
</g>
</g>
<!-- Node1&#45;&gt;Node18 -->
<g id="edge23_Node000001_Node000018" class="edge">
<title>Node1&#45;&gt;Node18</title>
<g id="a_edge23_Node000001_Node000018"><a xlink:title=" ">
<path fill="none" stroke="#63b8ff" d="M1100.78,-254.36C1095.94,-245.18 1089.66,-233.25 1084.44,-223.36"/>
<polygon fill="#63b8ff" stroke="#63b8ff" points="1087.62,-221.88 1079.86,-214.66 1081.42,-225.14 1087.62,-221.88"/>
</a>
</g>
</g>
<!-- Node19 -->
<g id="Node000019" class="node">
<title>Node19</title>
<g id="a_Node000019"><a xlink:title=" ">
<polygon fill="#e0e0e0" stroke="#999999" points="1177,-213.12 1110,-213.12 1110,-193.88 1177,-193.88 1177,-213.12"/>
<text text-anchor="middle" x="1143.5" y="-199.62" font-family="Helvetica,sans-Serif" font-size="10.00">Eigen/Eigen</text>
</a>
</g>
</g>
<!-- Node1&#45;&gt;Node19 -->
<g id="edge26_Node000001_Node000019" class="edge">
<title>Node1&#45;&gt;Node19</title>
<g id="a_edge26_Node000001_Node000019"><a xlink:title=" ">
<path fill="none" stroke="#63b8ff" d="M1116.44,-254.36C1121.42,-245.18 1127.9,-233.25 1133.26,-223.36"/>
<polygon fill="#63b8ff" stroke="#63b8ff" points="1136.3,-225.11 1137.99,-214.65 1130.14,-221.77 1136.3,-225.11"/>
</a>
</g>
</g>
<!-- Node20 -->
<g id="Node000020" class="node">
<title>Node20</title>
<g id="a_Node000020"><a xlink:title=" ">
<polygon fill="#e0e0e0" stroke="#999999" points="1297.62,-218.75 1195.38,-218.75 1195.38,-188.25 1297.62,-188.25 1297.62,-218.75"/>
<text text-anchor="start" x="1203.38" y="-205.25" font-family="Helvetica,sans-Serif" font-size="10.00">mp&#45;units/framework</text>
<text text-anchor="middle" x="1246.5" y="-194" font-family="Helvetica,sans-Serif" font-size="10.00">/quantity.h</text>
</a>
</g>
</g>
<!-- Node1&#45;&gt;Node20 -->
<g id="edge27_Node000001_Node000020" class="edge">
<title>Node1&#45;&gt;Node20</title>
<g id="a_edge27_Node000001_Node000020"><a xlink:title=" ">
<path fill="none" stroke="#63b8ff" d="M1139.81,-254.36C1159.13,-245.33 1184.14,-233.65 1205.09,-223.86"/>
<polygon fill="#63b8ff" stroke="#63b8ff" points="1206.36,-227.12 1213.94,-219.72 1203.4,-220.78 1206.36,-227.12"/>
</a>
</g>
</g>
<!-- Node21 -->
<g id="Node000021" class="node">
<title>Node21</title>
<g id="a_Node000021"><a xlink:title=" ">
<polygon fill="#e0e0e0" stroke="#999999" points="1417.62,-218.75 1315.38,-218.75 1315.38,-188.25 1417.62,-188.25 1417.62,-218.75"/>
<text text-anchor="start" x="1323.38" y="-205.25" font-family="Helvetica,sans-Serif" font-size="10.00">mp&#45;units/framework</text>
<text text-anchor="middle" x="1366.5" y="-194" font-family="Helvetica,sans-Serif" font-size="10.00">/quantity_point.h</text>
</a>
</g>
</g>
<!-- Node1&#45;&gt;Node21 -->
<g id="edge28_Node000001_Node000021" class="edge">
<title>Node1&#45;&gt;Node21</title>
<g id="a_edge28_Node000001_Node000021"><a xlink:title=" ">
<path fill="none" stroke="#63b8ff" d="M1167.37,-254.28C1208.24,-244.07 1262.6,-230.47 1304.2,-220.08"/>
<polygon fill="#63b8ff" stroke="#63b8ff" points="1304.98,-223.49 1313.83,-217.67 1303.28,-216.7 1304.98,-223.49"/>
</a>
</g>
</g>
<!-- Node22 -->
<g id="Node000022" class="node">
<title>Node22</title>
<g id="a_Node000022"><a xlink:title=" ">
<polygon fill="#e0e0e0" stroke="#999999" points="1521.38,-213.12 1435.62,-213.12 1435.62,-193.88 1521.38,-193.88 1521.38,-213.12"/>
<text text-anchor="middle" x="1478.5" y="-199.62" font-family="Helvetica,sans-Serif" font-size="10.00">mp&#45;units/math.h</text>
</a>
</g>
</g>
<!-- Node1&#45;&gt;Node22 -->
<g id="edge29_Node000001_Node000022" class="edge">
<title>Node1&#45;&gt;Node22</title>
<g id="a_edge29_Node000001_Node000022"><a xlink:title=" ">
<path fill="none" stroke="#63b8ff" d="M1173.75,-260.84C1238.31,-252.26 1339.76,-237.43 1426.5,-218.75 1429.82,-218.03 1433.25,-217.23 1436.69,-216.39"/>
<polygon fill="#63b8ff" stroke="#63b8ff" points="1437.29,-219.85 1446.1,-213.96 1435.54,-213.07 1437.29,-219.85"/>
</a>
</g>
</g>
<!-- Node23 -->
<g id="Node000023" class="node">
<title>Node23</title>
<g id="a_Node000023"><a xlink:title=" ">
<polygon fill="#e0e0e0" stroke="#999999" points="1648,-218.75 1539,-218.75 1539,-188.25 1648,-188.25 1648,-218.75"/>
<text text-anchor="start" x="1547" y="-205.25" font-family="Helvetica,sans-Serif" font-size="10.00">mp&#45;units/systems/isq</text>
<text text-anchor="middle" x="1593.5" y="-194" font-family="Helvetica,sans-Serif" font-size="10.00">/thermodynamics.h</text>
</a>
</g>
</g>
<!-- Node1&#45;&gt;Node23 -->
<g id="edge30_Node000001_Node000023" class="edge">
<title>Node1&#45;&gt;Node23</title>
<g id="a_edge30_Node000001_Node000023"><a xlink:title=" ">
<path fill="none" stroke="#63b8ff" d="M1173.87,-263.34C1254.8,-255.86 1397.03,-241.17 1527.61,-219.15"/>
<polygon fill="#63b8ff" stroke="#63b8ff" points="1527.83,-222.66 1537.1,-217.53 1526.65,-215.76 1527.83,-222.66"/>
</a>
</g>
</g>
<!-- Node24 -->
<g id="Node000024" class="node">
<title>Node24</title>
<g id="a_Node000024"><a xlink:title=" ">
<polygon fill="#e0e0e0" stroke="#999999" points="1777.12,-213.12 1665.88,-213.12 1665.88,-193.88 1777.12,-193.88 1777.12,-213.12"/>
<text text-anchor="middle" x="1721.5" y="-199.62" font-family="Helvetica,sans-Serif" font-size="10.00">mp&#45;units/systems/si.h</text>
</a>
</g>
</g>
<!-- Node1&#45;&gt;Node24 -->
<g id="edge31_Node000001_Node000024" class="edge">
<title>Node1&#45;&gt;Node24</title>
<g id="a_edge31_Node000001_Node000024"><a xlink:title=" ">
<path fill="none" stroke="#63b8ff" d="M1173.91,-265.72C1277.14,-259.94 1483.98,-245.89 1657.5,-218.75 1662.71,-217.94 1668.13,-216.95 1673.51,-215.88"/>
<polygon fill="#63b8ff" stroke="#63b8ff" points="1673.87,-219.38 1682.95,-213.91 1672.44,-212.53 1673.87,-219.38"/>
</a>
</g>
</g>
<!-- Node4 -->
<g id="Node000004" class="node">
<title>Node4</title>
<g id="a_Node000004"><a xlink:href="typed__linear__algebra__forward_8hpp.xhtml" target="_top" xlink:title="Authoritative forward declaration header.">
<polygon fill="white" stroke="#666666" points="710.75,-146.62 606.25,-146.62 606.25,-116.12 710.75,-116.12 710.75,-146.62"/>
<text text-anchor="start" x="614.25" y="-133.12" font-family="Helvetica,sans-Serif" font-size="10.00">typed_linear_algebra</text>
<text text-anchor="middle" x="658.5" y="-121.88" font-family="Helvetica,sans-Serif" font-size="10.00">_forward.hpp</text>
</a>
</g>
</g>
<!-- Node3&#45;&gt;Node4 -->
<g id="edge3_Node000003_Node000004" class="edge">
<title>Node3&#45;&gt;Node4</title>
<g id="a_edge3_Node000003_Node000004"><a xlink:title=" ">
<path fill="none" stroke="#63b8ff" d="M784.96,-187.8C760.96,-177.28 728.42,-163.02 702.36,-151.6"/>
<polygon fill="#63b8ff" stroke="#63b8ff" points="703.95,-148.47 693.38,-147.66 701.14,-154.88 703.95,-148.47"/>
</a>
</g>
</g>
<!-- Node5 -->
<g id="Node000005" class="node">
<title>Node5</title>
<g id="a_Node000005"><a xlink:href="format_8hpp.xhtml" target="_top" xlink:title="Formatting support for the typed matrix.">
<polygon fill="white" stroke="#666666" points="870.75,-146.62 766.25,-146.62 766.25,-116.12 870.75,-116.12 870.75,-146.62"/>
<text text-anchor="start" x="774.25" y="-133.12" font-family="Helvetica,sans-Serif" font-size="10.00">typed_linear_algebra</text>
<text text-anchor="middle" x="818.5" y="-121.88" font-family="Helvetica,sans-Serif" font-size="10.00">_internal/format.hpp</text>
</a>
</g>
</g>
<!-- Node3&#45;&gt;Node5 -->
<g id="edge4_Node000003_Node000005" class="edge">
<title>Node3&#45;&gt;Node5</title>
<g id="a_edge4_Node000003_Node000005"><a xlink:title=" ">
<path fill="none" stroke="#63b8ff" d="M818.5,-187.97C818.5,-179.41 818.5,-168.34 818.5,-158.33"/>
<polygon fill="#63b8ff" stroke="#63b8ff" points="822,-158.4 818.5,-148.4 815,-158.4 822,-158.4"/>
</a>
</g>
</g>
<!-- Node6 -->
<g id="Node000006" class="node">
<title>Node6</title>
<g id="a_Node000006"><a xlink:href="utility_8hpp.xhtml" target="_top" xlink:title=" ">
<polygon fill="white" stroke="#666666" points="766.75,-74.5 710.25,-74.5 710.25,-55.25 766.75,-55.25 766.75,-74.5"/>
<text text-anchor="middle" x="738.5" y="-61" font-family="Helvetica,sans-Serif" font-size="10.00">utility.hpp</text>
</a>
</g>
</g>
<!-- Node3&#45;&gt;Node6 -->
<g id="edge12_Node000003_Node000006" class="edge">
<title>Node3&#45;&gt;Node6</title>
<g id="a_edge12_Node000003_Node000006"><a xlink:title=" ">
<path fill="none" stroke="#63b8ff" d="M793.65,-187.77C780.97,-179.01 766.38,-166.76 757.5,-152.25 745.12,-132.02 740.76,-104.76 739.25,-86.32"/>
<polygon fill="#63b8ff" stroke="#63b8ff" points="742.75,-86.21 738.68,-76.43 735.77,-86.61 742.75,-86.21"/>
</a>
</g>
</g>
<!-- Node7 -->
<g id="Node000007" class="node">
<title>Node7</title>
<g id="a_Node000007"><a xlink:title=" ">
<polygon fill="#e0e0e0" stroke="#999999" points="994.38,-19.25 938.62,-19.25 938.62,0 994.38,0 994.38,-19.25"/>
<text text-anchor="middle" x="966.5" y="-5.75" font-family="Helvetica,sans-Serif" font-size="10.00">concepts</text>
</a>
</g>
</g>
<!-- Node3&#45;&gt;Node7 -->
<g id="edge13_Node000003_Node000007" class="edge">
<title>Node3&#45;&gt;Node7</title>
<g id="a_edge13_Node000003_Node000007"><a xlink:title=" ">
<path fill="none" stroke="#63b8ff" d="M873.05,-200.84C946.94,-197.32 1072.93,-186.34 1101.5,-152.25 1142.75,-103.03 1049.45,-49.27 997.83,-24.52"/>
<polygon fill="#63b8ff" stroke="#63b8ff" points="999.42,-21.4 988.88,-20.33 996.46,-27.74 999.42,-21.4"/>
</a>
</g>
</g>
<!-- Node3&#45;&gt;Node9 -->
<g id="edge17_Node000003_Node000009" class="edge">
<title>Node3&#45;&gt;Node9</title>
<g id="a_edge17_Node000003_Node000009"><a xlink:title=" ">
<path fill="none" stroke="#63b8ff" d="M763.93,-201.74C623.78,-199.26 259.42,-189.28 220.5,-152.25 187.49,-120.83 192.07,-61.58 197.29,-30.62"/>
<polygon fill="#63b8ff" stroke="#63b8ff" points="200.68,-31.54 199.11,-21.07 193.8,-30.24 200.68,-31.54"/>
</a>
</g>
</g>
<!-- Node11 -->
<g id="Node000011" class="node">
<title>Node11</title>
<g id="a_Node000011"><a xlink:title=" ">
<polygon fill="#e0e0e0" stroke="#999999" points="869.62,-74.5 821.38,-74.5 821.38,-55.25 869.62,-55.25 869.62,-74.5"/>
<text text-anchor="middle" x="845.5" y="-61" font-family="Helvetica,sans-Serif" font-size="10.00">cstddef</text>
</a>
</g>
</g>
<!-- Node3&#45;&gt;Node11 -->
<g id="edge14_Node000003_Node000011" class="edge">
<title>Node3&#45;&gt;Node11</title>
<g id="a_edge14_Node000003_Node000011"><a xlink:title=" ">
<path fill="none" stroke="#63b8ff" d="M845.59,-187.84C858.4,-179.31 872.42,-167.26 879.5,-152.25 887.42,-135.47 885.43,-128.08 879.5,-110.5 876.09,-100.4 869.38,-90.77 862.81,-83.07"/>
<polygon fill="#63b8ff" stroke="#63b8ff" points="865.49,-80.8 856.13,-75.83 860.34,-85.55 865.49,-80.8"/>
</a>
</g>
</g>
<!-- Node3&#45;&gt;Node12 -->
<g id="edge15_Node000003_Node000012" class="edge">
<title>Node3&#45;&gt;Node12</title>
<g id="a_edge15_Node000003_Node000012"><a xlink:title=" ">
<path fill="none" stroke="#63b8ff" d="M849.64,-187.8C865.28,-179.18 883.6,-167.08 896.5,-152.25 913.59,-132.62 924.79,-104.45 930.88,-85.68"/>
<polygon fill="#63b8ff" stroke="#63b8ff" points="934.16,-86.92 933.72,-76.33 927.46,-84.88 934.16,-86.92"/>
</a>
</g>
</g>
<!-- Node13 -->
<g id="Node000013" class="node">
<title>Node13</title>
<g id="a_Node000013"><a xlink:title=" ">
<polygon fill="#e0e0e0" stroke="#999999" points="1036.25,-141 964.75,-141 964.75,-121.75 1036.25,-121.75 1036.25,-141"/>
<text text-anchor="middle" x="1000.5" y="-127.5" font-family="Helvetica,sans-Serif" font-size="10.00">initializer_list</text>
</a>
</g>
</g>
<!-- Node3&#45;&gt;Node13 -->
<g id="edge16_Node000003_Node000013" class="edge">
<title>Node3&#45;&gt;Node13</title>
<g id="a_edge16_Node000003_Node000013"><a xlink:title=" ">
<path fill="none" stroke="#63b8ff" d="M857.54,-187.81C883.85,-177.87 919.31,-164.39 950.5,-152.25 955.96,-150.12 961.75,-147.85 967.38,-145.62"/>
<polygon fill="#63b8ff" stroke="#63b8ff" points="968.47,-148.95 976.47,-142.01 965.89,-142.45 968.47,-148.95"/>
</a>
</g>
</g>
<!-- Node14 -->
<g id="Node000014" class="node">
<title>Node14</title>
<g id="a_Node000014"><a xlink:title=" ">
<polygon fill="#e0e0e0" stroke="#999999" points="1092.75,-141 1054.25,-141 1054.25,-121.75 1092.75,-121.75 1092.75,-141"/>
<text text-anchor="middle" x="1073.5" y="-127.5" font-family="Helvetica,sans-Serif" font-size="10.00">utility</text>
</a>
</g>
</g>
<!-- Node3&#45;&gt;Node14 -->
<g id="edge18_Node000003_Node000014" class="edge">
<title>Node3&#45;&gt;Node14</title>
<g id="a_edge18_Node000003_Node000014"><a xlink:title=" ">
<path fill="none" stroke="#63b8ff" d="M872.69,-196.68C919.91,-190.18 989.42,-177.13 1045.5,-152.25 1048.22,-151.04 1050.94,-149.55 1053.56,-147.94"/>
<polygon fill="#63b8ff" stroke="#63b8ff" points="1055.5,-150.85 1061.7,-142.26 1051.5,-145.11 1055.5,-150.85"/>
</a>
</g>
</g>
<!-- Node15 -->
<g id="Node000015" class="node">
<title>Node15</title>
<g id="a_Node000015"><a xlink:title=" ">
<polygon fill="#e0e0e0" stroke="#999999" points="333.75,-146.62 229.25,-146.62 229.25,-116.12 333.75,-116.12 333.75,-146.62"/>
<text text-anchor="start" x="237.25" y="-133.12" font-family="Helvetica,sans-Serif" font-size="10.00">typed_linear_algebra</text>
<text text-anchor="middle" x="281.5" y="-121.88" font-family="Helvetica,sans-Serif" font-size="10.00">_internal/cast.tpp</text>
</a>
</g>
</g>
<!-- Node3&#45;&gt;Node15 -->
<g id="edge19_Node000003_Node000015" class="edge">
<title>Node3&#45;&gt;Node15</title>
<g id="a_edge19_Node000003_Node000015"><a xlink:title=" ">
<path fill="none" stroke="#63b8ff" d="M764.02,-200.46C674.97,-196.31 493.05,-184.35 342.5,-152.25 339.54,-151.62 336.52,-150.9 333.48,-150.11"/>
<polygon fill="#63b8ff" stroke="#63b8ff" points="334.56,-146.78 323.98,-147.44 332.66,-153.52 334.56,-146.78"/>
</a>
</g>
</g>
<!-- Node16 -->
<g id="Node000016" class="node">
<title>Node16</title>
<g id="a_Node000016"><a xlink:title=" ">
<polygon fill="#e0e0e0" stroke="#999999" points="463.12,-146.62 351.88,-146.62 351.88,-116.12 463.12,-116.12 463.12,-146.62"/>
<text text-anchor="start" x="359.88" y="-133.12" font-family="Helvetica,sans-Serif" font-size="10.00">typed_linear_algebra</text>
<text text-anchor="middle" x="407.5" y="-121.88" font-family="Helvetica,sans-Serif" font-size="10.00">_internal/operation.tpp</text>
</a>
</g>
</g>
<!-- Node3&#45;&gt;Node16 -->
<g id="edge20_Node000003_Node000016" class="edge">
<title>Node3&#45;&gt;Node16</title>
<g id="a_edge20_Node000003_Node000016"><a xlink:title=" ">
<path fill="none" stroke="#63b8ff" d="M763.92,-197.28C695.16,-190.09 573.62,-175.35 471.5,-152.25 468.57,-151.59 465.58,-150.86 462.57,-150.08"/>
<polygon fill="#63b8ff" stroke="#63b8ff" points="463.7,-146.76 453.13,-147.48 461.84,-153.51 463.7,-146.76"/>
</a>
</g>
</g>
<!-- Node17 -->
<g id="Node000017" class="node">
<title>Node17</title>
<g id="a_Node000017"><a xlink:title=" ">
<polygon fill="#e0e0e0" stroke="#999999" points="588.25,-152.25 480.75,-152.25 480.75,-110.5 588.25,-110.5 588.25,-152.25"/>
<text text-anchor="start" x="488.75" y="-138.75" font-family="Helvetica,sans-Serif" font-size="10.00">typed_linear_algebra</text>
<text text-anchor="start" x="488.75" y="-127.5" font-family="Helvetica,sans-Serif" font-size="10.00">_internal/typed_linear</text>
<text text-anchor="middle" x="534.5" y="-116.25" font-family="Helvetica,sans-Serif" font-size="10.00">_algebra.tpp</text>
</a>
</g>
</g>
<!-- Node3&#45;&gt;Node17 -->
<g id="edge21_Node000003_Node000017" class="edge">
<title>Node3&#45;&gt;Node17</title>
<g id="a_edge21_Node000003_Node000017"><a xlink:title=" ">
<path fill="none" stroke="#63b8ff" d="M764.15,-191.44C721.77,-182.53 661.23,-169.15 599.79,-152.77"/>
<polygon fill="#63b8ff" stroke="#63b8ff" points="600.74,-149.4 590.17,-150.18 598.92,-156.16 600.74,-149.4"/>
</a>
</g>
</g>
<!-- Node5&#45;&gt;Node6 -->
<g id="edge5_Node000005_Node000006" class="edge">
<title>Node5&#45;&gt;Node6</title>
<g id="a_edge5_Node000005_Node000006"><a xlink:title=" ">
<path fill="none" stroke="#63b8ff" d="M800.35,-115.74C787.73,-105.57 770.94,-92.03 758.04,-81.63"/>
<polygon fill="#63b8ff" stroke="#63b8ff" points="760.6,-79.2 750.62,-75.65 756.21,-84.65 760.6,-79.2"/>
</a>
</g>
</g>
<!-- Node5&#45;&gt;Node11 -->
<g id="edge10_Node000005_Node000011" class="edge">
<title>Node5&#45;&gt;Node11</title>
<g id="a_edge10_Node000005_Node000011"><a xlink:title=" ">
<path fill="none" stroke="#63b8ff" d="M824.63,-115.74C828.43,-106.66 833.36,-94.88 837.47,-85.06"/>
<polygon fill="#63b8ff" stroke="#63b8ff" points="840.59,-86.67 841.22,-76.09 834.13,-83.97 840.59,-86.67"/>
</a>
</g>
</g>
<!-- Node5&#45;&gt;Node12 -->
<g id="edge11_Node000005_Node000012" class="edge">
<title>Node5&#45;&gt;Node12</title>
<g id="a_edge11_Node000005_Node000012"><a xlink:title=" ">
<path fill="none" stroke="#63b8ff" d="M845.28,-115.74C864.67,-105.14 890.76,-90.88 910.07,-80.32"/>
<polygon fill="#63b8ff" stroke="#63b8ff" points="911.59,-83.48 918.69,-75.61 908.24,-77.34 911.59,-83.48"/>
</a>
</g>
</g>
<!-- Node6&#45;&gt;Node7 -->
<g id="edge6_Node000006_Node000007" class="edge">
<title>Node6&#45;&gt;Node7</title>
<g id="a_edge6_Node000006_Node000007"><a xlink:title=" ">
<path fill="none" stroke="#63b8ff" d="M766.92,-57.24C807.41,-47.78 881.87,-30.39 927.5,-19.73"/>
<polygon fill="#63b8ff" stroke="#63b8ff" points="928.03,-23.2 936.97,-17.52 926.43,-16.39 928.03,-23.2"/>
</a>
</g>
</g>
<!-- Node8 -->
<g id="Node000008" class="node">
<title>Node8</title>
<g id="a_Node000008"><a xlink:title=" ">
<polygon fill="#e0e0e0" stroke="#999999" points="767.5,-19.25 709.5,-19.25 709.5,0 767.5,0 767.5,-19.25"/>
<text text-anchor="middle" x="738.5" y="-5.75" font-family="Helvetica,sans-Serif" font-size="10.00">functional</text>
</a>
</g>
</g>
<!-- Node6&#45;&gt;Node8 -->
<g id="edge7_Node000006_Node000008" class="edge">
<title>Node6&#45;&gt;Node8</title>
<g id="a_edge7_Node000006_Node000008"><a xlink:title=" ">
<path fill="none" stroke="#63b8ff" d="M738.5,-55.08C738.5,-48.57 738.5,-39.42 738.5,-31.12"/>
<polygon fill="#63b8ff" stroke="#63b8ff" points="742,-31.12 738.5,-21.12 735,-31.12 742,-31.12"/>
</a>
</g>
</g>
<!-- Node6&#45;&gt;Node9 -->
<g id="edge8_Node000006_Node000009" class="edge">
<title>Node6&#45;&gt;Node9</title>
<g id="a_edge8_Node000006_Node000009"><a xlink:title=" ">
<path fill="none" stroke="#63b8ff" d="M710.01,-61.05C617.57,-51.88 326.52,-23.02 231.69,-13.62"/>
<polygon fill="#63b8ff" stroke="#63b8ff" points="232.19,-10.15 221.89,-12.65 231.5,-17.12 232.19,-10.15"/>
</a>
</g>
</g>
<!-- Node6&#45;&gt;Node10 -->
<g id="edge9_Node000006_Node000010" class="edge">
<title>Node6&#45;&gt;Node10</title>
<g id="a_edge9_Node000006_Node000010"><a xlink:title=" ">
<path fill="none" stroke="#63b8ff" d="M709.86,-62.82C626.65,-59.49 377.91,-47.72 173.5,-19.25 173.25,-19.22 173.01,-19.18 172.76,-19.15"/>
<polygon fill="#63b8ff" stroke="#63b8ff" points="173.36,-15.7 162.92,-17.53 172.22,-22.6 173.36,-15.7"/>
</a>
</g>
</g>
</g>
</svg>

<g id="navigator" transform="translate(0 0)" fill="#404254">
  <rect fill="#f2f5e9" fill-opacity="0.5" stroke="#606060" stroke-width=".5" x="0" y="0" width="60" height="60"/>
  <use id="zoomplus" xlink:href="#zoomPlus" x="17" y="9" onmousedown="handleZoom(evt,'in')"/>
  <use id="zoomminus" xlink:href="#zoomMin" x="42" y="9" onmousedown="handleZoom(evt,'out')"/>
  <use id="reset" xlink:href="#resetDef" x="30" y="36" onmousedown="handleReset()"/>
   <use id="arrowup" xlink:href="#arrowUp" x="0" y="0" onmousedown="handlePan(0,-1)"/>
  <use id="arrowright" xlink:href="#arrowRight" x="0" y="0" onmousedown="handlePan(1,0)"/>
  <use id="arrowdown" xlink:href="#arrowDown" x="0" y="0" onmousedown="handlePan(0,1)"/>
  <use id="arrowleft" xlink:href="#arrowLeft" x="0" y="0" onmousedown="handlePan(-1,0)"/>
</g>
<svg viewBox="0 0 15 15" width="100%" height="30px" preserveAspectRatio="xMaxYMin meet">
 <g id="arrow_out" transform="scale(0.3 0.3)">
  <a xlink:href="mp__units__eigen_8cpp__incl_org.svg" target="_base">
   <rect id="button" ry="5" rx="5" y="6" x="6" height="38" width="38"
        fill="#f2f5e9" fill-opacity="0.5" stroke="#606060" stroke-width="1.0"/>
   <path id="arrow"
     d="M 11.500037,31.436501 C 11.940474,20.09759 22.043105,11.32322 32.158766,21.979434 L 37.068811,17.246167 C 37.068811,17.246167 37.088388,32 37.088388,32 L 22.160133,31.978069 C 22.160133,31.978069 26.997745,27.140456 26.997745,27.140456 C 18.528582,18.264221 13.291696,25.230495 11.500037,31.436501 z"
     style="fill:#404040;"/>
  </a>
 </g>
</svg>

<style type='text/css'>
<![CDATA[
[data-mouse-over-selected='false'] { opacity: 0.7; }
[data-mouse-over-selected='true']  { opacity: 1.0; }
]]>
</style>
<script type="application/ecmascript"><![CDATA[
document.addEventListener('DOMContentLoaded', (event) => {
  highlightEdges();
  highlightAdjacentNodes();
});
]]></script>
</svg>
