<?xml version="1.0" encoding="UTF-8" standalone="no"?>
<!DOCTYPE svg PUBLIC "-//W3C//DTD SVG 1.1//EN"
 "http://www.w3.org/Graphics/SVG/1.1/DTD/svg11.dtd">
<!-- Generated by graphviz version 12.2.0 (20241103.1931)
 -->
<!-- Title: /github/workspace/sample/mp_units_eigen.cpp Pages: 1 -->
<svg width="2432pt" height="293pt"
 viewBox="0.00 0.00 2432.12 293.25" xmlns="http://www.w3.org/2000/svg" xmlns:xlink="http://www.w3.org/1999/xlink">
<g id="graph0" class="graph" transform="scale(1 1) rotate(0) translate(4 289.25)">
<title>/github/workspace/sample/mp_units_eigen.cpp</title>
<!-- Node1 -->
<g id="Node000001" class="node">
<title>Node1</title>
<g id="a_Node000001"><a xlink:title="Unit safe linear algebra with mp&#45;units and Eigen.">
<polygon fill="#999999" stroke="#666666" points="1820.5,-285.25 1690.5,-285.25 1690.5,-254.75 1820.5,-254.75 1820.5,-285.25"/>
<text text-anchor="start" x="1698.5" y="-271.75" font-family="Helvetica,sans-Serif" font-size="10.00">/github/workspace/sample</text>
<text text-anchor="middle" x="1755.5" y="-260.5" font-family="Helvetica,sans-Serif" font-size="10.00">/mp_units_eigen.cpp</text>
</a>
</g>
</g>
<!-- Node2 -->
<g id="Node000002" class="node">
<title>Node2</title>
<g id="a_Node000002"><a xlink:title=" ">
<polygon fill="#e0e0e0" stroke="#999999" points="97,-213.12 0,-213.12 0,-193.88 97,-193.88 97,-213.12"/>
<text text-anchor="middle" x="48.5" y="-199.62" font-family="Helvetica,sans-Serif" font-size="10.00">fcarouge/linalg.hpp</text>
</a>
</g>
</g>
<!-- Node1&#45;&gt;Node2 -->
<g id="edge1_Node000001_Node000002" class="edge">
<title>Node1&#45;&gt;Node2</title>
<g id="a_edge1_Node000001_Node000002"><a xlink:title=" ">
<path fill="none" stroke="#63b8ff" d="M1690.17,-268.68C1424.55,-267.1 424.87,-258.6 111.5,-218.75 105.87,-218.03 100.01,-217.05 94.23,-215.92"/>
<polygon fill="#63b8ff" stroke="#63b8ff" points="95.26,-212.56 84.76,-213.93 93.83,-219.41 95.26,-212.56"/>
</a>
</g>
</g>
<!-- Node3 -->
<g id="Node000003" class="node">
<title>Node3</title>
<g id="a_Node000003"><a xlink:href="typed__linear__algebra_8hpp.xhtml" target="_top" xlink:title="Typed linear algebra implementation.">
<polygon fill="white" stroke="#666666" points="1243.62,-218.75 1135.38,-218.75 1135.38,-188.25 1243.62,-188.25 1243.62,-218.75"/>
<text text-anchor="start" x="1143.38" y="-205.25" font-family="Helvetica,sans-Serif" font-size="10.00">fcarouge/typed_linear</text>
<text text-anchor="middle" x="1189.5" y="-194" font-family="Helvetica,sans-Serif" font-size="10.00">_algebra.hpp</text>
</a>
</g>
</g>
<!-- Node1&#45;&gt;Node3 -->
<g id="edge2_Node000001_Node000003" class="edge">
<title>Node1&#45;&gt;Node3</title>
<g id="a_edge2_Node000001_Node000003"><a xlink:title=" ">
<path fill="none" stroke="#63b8ff" d="M1690.02,-261.54C1581.11,-249.13 1363.99,-224.38 1255.04,-211.97"/>
<polygon fill="#63b8ff" stroke="#63b8ff" points="1255.73,-208.52 1245.39,-210.87 1254.93,-215.48 1255.73,-208.52"/>
</a>
</g>
</g>
<!-- Node9 -->
<g id="Node000009" class="node">
<title>Node9</title>
<g id="a_Node000009"><a xlink:title=" ">
<polygon fill="#e0e0e0" stroke="#999999" points="220,-19.25 183,-19.25 183,0 220,0 220,-19.25"/>
<text text-anchor="middle" x="201.5" y="-5.75" font-family="Helvetica,sans-Serif" font-size="10.00">tuple</text>
</a>
</g>
</g>
<!-- Node1&#45;&gt;Node9 -->
<g id="edge29_Node000001_Node000009" class="edge">
<title>Node1&#45;&gt;Node9</title>
<g id="a_edge29_Node000001_Node000009"><a xlink:title=" ">
<path fill="none" stroke="#63b8ff" d="M1690.21,-268.94C1427.12,-268.41 452.67,-263.4 322.5,-218.75 274.78,-202.38 257.87,-194.63 230.5,-152.25 206.06,-114.4 201.63,-60 201.17,-30.87"/>
<polygon fill="#63b8ff" stroke="#63b8ff" points="204.67,-30.92 201.18,-20.92 197.67,-30.92 204.67,-30.92"/>
</a>
</g>
</g>
<!-- Node10 -->
<g id="Node000010" class="node">
<title>Node10</title>
<g id="a_Node000010"><a xlink:title=" ">
<polygon fill="#e0e0e0" stroke="#999999" points="1005,-19.25 944,-19.25 944,0 1005,0 1005,-19.25"/>
<text text-anchor="middle" x="974.5" y="-5.75" font-family="Helvetica,sans-Serif" font-size="10.00">type_traits</text>
</a>
</g>
</g>
<!-- Node1&#45;&gt;Node10 -->
<g id="edge30_Node000001_Node000010" class="edge">
<title>Node1&#45;&gt;Node10</title>
<g id="a_edge30_Node000001_Node000010"><a xlink:title=" ">
<path fill="none" stroke="#63b8ff" d="M1690.22,-269.04C1413.14,-268.56 343.98,-259.71 244.5,-152.25 147.51,-47.47 763.1,-18.03 932.3,-11.96"/>
<polygon fill="#63b8ff" stroke="#63b8ff" points="932.31,-15.46 942.18,-11.61 932.07,-8.46 932.31,-15.46"/>
</a>
</g>
</g>
<!-- Node12 -->
<g id="Node000012" class="node">
<title>Node12</title>
<g id="a_Node000012"><a xlink:title=" ">
<polygon fill="#e0e0e0" stroke="#999999" points="1989.38,-74.5 1945.62,-74.5 1945.62,-55.25 1989.38,-55.25 1989.38,-74.5"/>
<text text-anchor="middle" x="1967.5" y="-61" font-family="Helvetica,sans-Serif" font-size="10.00">format</text>
</a>
</g>
</g>
<!-- Node1&#45;&gt;Node12 -->
<g id="edge27_Node000001_Node000012" class="edge">
<title>Node1&#45;&gt;Node12</title>
<g id="a_edge27_Node000001_Node000012"><a xlink:title=" ">
<path fill="none" stroke="#63b8ff" d="M1731.83,-254.47C1707.7,-237.89 1676.32,-210.22 1695.5,-188.25 1773.37,-99.04 1877.59,-237.77 1959.5,-152.25 1976.08,-134.94 1975.14,-105.77 1972.05,-86.18"/>
<polygon fill="#63b8ff" stroke="#63b8ff" points="1975.49,-85.55 1970.16,-76.39 1968.62,-86.88 1975.49,-85.55"/>
</a>
</g>
</g>
<!-- Node23 -->
<g id="Node000023" class="node">
<title>Node23</title>
<g id="a_Node000023"><a xlink:title=" ">
<polygon fill="#e0e0e0" stroke="#999999" points="1738.88,-213.12 1704.12,-213.12 1704.12,-193.88 1738.88,-193.88 1738.88,-213.12"/>
<text text-anchor="middle" x="1721.5" y="-199.62" font-family="Helvetica,sans-Serif" font-size="10.00">print</text>
</a>
</g>
</g>
<!-- Node1&#45;&gt;Node23 -->
<g id="edge28_Node000001_Node000023" class="edge">
<title>Node1&#45;&gt;Node23</title>
<g id="a_edge28_Node000001_Node000023"><a xlink:title=" ">
<path fill="none" stroke="#63b8ff" d="M1747.78,-254.36C1742.94,-245.18 1736.66,-233.25 1731.44,-223.36"/>
<polygon fill="#63b8ff" stroke="#63b8ff" points="1734.62,-221.88 1726.86,-214.66 1728.42,-225.14 1734.62,-221.88"/>
</a>
</g>
</g>
<!-- Node24 -->
<g id="Node000024" class="node">
<title>Node24</title>
<g id="a_Node000024"><a xlink:title=" ">
<polygon fill="#e0e0e0" stroke="#999999" points="1824,-213.12 1757,-213.12 1757,-193.88 1824,-193.88 1824,-213.12"/>
<text text-anchor="middle" x="1790.5" y="-199.62" font-family="Helvetica,sans-Serif" font-size="10.00">Eigen/Eigen</text>
</a>
</g>
</g>
<!-- Node1&#45;&gt;Node24 -->
<g id="edge31_Node000001_Node000024" class="edge">
<title>Node1&#45;&gt;Node24</title>
<g id="a_edge31_Node000001_Node000024"><a xlink:title=" ">
<path fill="none" stroke="#63b8ff" d="M1763.44,-254.36C1768.42,-245.18 1774.9,-233.25 1780.26,-223.36"/>
<polygon fill="#63b8ff" stroke="#63b8ff" points="1783.3,-225.11 1784.99,-214.65 1777.14,-221.77 1783.3,-225.11"/>
</a>
</g>
</g>
<!-- Node25 -->
<g id="Node000025" class="node">
<title>Node25</title>
<g id="a_Node000025"><a xlink:title=" ">
<polygon fill="#e0e0e0" stroke="#999999" points="1944.62,-218.75 1842.38,-218.75 1842.38,-188.25 1944.62,-188.25 1944.62,-218.75"/>
<text text-anchor="start" x="1850.38" y="-205.25" font-family="Helvetica,sans-Serif" font-size="10.00">mp&#45;units/framework</text>
<text text-anchor="middle" x="1893.5" y="-194" font-family="Helvetica,sans-Serif" font-size="10.00">/quantity.h</text>
</a>
</g>
</g>
<!-- Node1&#45;&gt;Node25 -->
<g id="edge32_Node000001_Node000025" class="edge">
<title>Node1&#45;&gt;Node25</title>
<g id="a_edge32_Node000001_Node000025"><a xlink:title=" ">
<path fill="none" stroke="#63b8ff" d="M1786.81,-254.36C1806.13,-245.33 1831.14,-233.65 1852.09,-223.86"/>
<polygon fill="#63b8ff" stroke="#63b8ff" points="1853.36,-227.12 1860.94,-219.72 1850.4,-220.78 1853.36,-227.12"/>
</a>
</g>
</g>
<!-- Node26 -->
<g id="Node000026" class="node">
<title>Node26</title>
<g id="a_Node000026"><a xlink:title=" ">
<polygon fill="#e0e0e0" stroke="#999999" points="2064.62,-218.75 1962.38,-218.75 1962.38,-188.25 2064.62,-188.25 2064.62,-218.75"/>
<text text-anchor="start" x="1970.38" y="-205.25" font-family="Helvetica,sans-Serif" font-size="10.00">mp&#45;units/framework</text>
<text text-anchor="middle" x="2013.5" y="-194" font-family="Helvetica,sans-Serif" font-size="10.00">/quantity_point.h</text>
</a>
</g>
</g>
<!-- Node1&#45;&gt;Node26 -->
<g id="edge33_Node000001_Node000026" class="edge">
<title>Node1&#45;&gt;Node26</title>
<g id="a_edge33_Node000001_Node000026"><a xlink:title=" ">
<path fill="none" stroke="#63b8ff" d="M1814.37,-254.28C1855.24,-244.07 1909.6,-230.47 1951.2,-220.08"/>
<polygon fill="#63b8ff" stroke="#63b8ff" points="1951.98,-223.49 1960.83,-217.67 1950.28,-216.7 1951.98,-223.49"/>
</a>
</g>
</g>
<!-- Node27 -->
<g id="Node000027" class="node">
<title>Node27</title>
<g id="a_Node000027"><a xlink:title=" ">
<polygon fill="#e0e0e0" stroke="#999999" points="2168.38,-213.12 2082.62,-213.12 2082.62,-193.88 2168.38,-193.88 2168.38,-213.12"/>
<text text-anchor="middle" x="2125.5" y="-199.62" font-family="Helvetica,sans-Serif" font-size="10.00">mp&#45;units/math.h</text>
</a>
</g>
</g>
<!-- Node1&#45;&gt;Node27 -->
<g id="edge34_Node000001_Node000027" class="edge">
<title>Node1&#45;&gt;Node27</title>
<g id="a_edge34_Node000001_Node000027"><a xlink:title=" ">
<path fill="none" stroke="#63b8ff" d="M1820.75,-260.84C1885.31,-252.26 1986.76,-237.43 2073.5,-218.75 2076.82,-218.03 2080.25,-217.23 2083.69,-216.39"/>
<polygon fill="#63b8ff" stroke="#63b8ff" points="2084.29,-219.85 2093.1,-213.96 2082.54,-213.07 2084.29,-219.85"/>
</a>
</g>
</g>
<!-- Node28 -->
<g id="Node000028" class="node">
<title>Node28</title>
<g id="a_Node000028"><a xlink:title=" ">
<polygon fill="#e0e0e0" stroke="#999999" points="2295,-218.75 2186,-218.75 2186,-188.25 2295,-188.25 2295,-218.75"/>
<text text-anchor="start" x="2194" y="-205.25" font-family="Helvetica,sans-Serif" font-size="10.00">mp&#45;units/systems/isq</text>
<text text-anchor="middle" x="2240.5" y="-194" font-family="Helvetica,sans-Serif" font-size="10.00">/thermodynamics.h</text>
</a>
</g>
</g>
<!-- Node1&#45;&gt;Node28 -->
<g id="edge35_Node000001_Node000028" class="edge">
<title>Node1&#45;&gt;Node28</title>
<g id="a_edge35_Node000001_Node000028"><a xlink:title=" ">
<path fill="none" stroke="#63b8ff" d="M1820.87,-263.34C1901.8,-255.86 2044.03,-241.17 2174.61,-219.15"/>
<polygon fill="#63b8ff" stroke="#63b8ff" points="2174.83,-222.66 2184.1,-217.53 2173.65,-215.76 2174.83,-222.66"/>
</a>
</g>
</g>
<!-- Node29 -->
<g id="Node000029" class="node">
<title>Node29</title>
<g id="a_Node000029"><a xlink:title=" ">
<polygon fill="#e0e0e0" stroke="#999999" points="2424.12,-213.12 2312.88,-213.12 2312.88,-193.88 2424.12,-193.88 2424.12,-213.12"/>
<text text-anchor="middle" x="2368.5" y="-199.62" font-family="Helvetica,sans-Serif" font-size="10.00">mp&#45;units/systems/si.h</text>
</a>
</g>
</g>
<!-- Node1&#45;&gt;Node29 -->
<g id="edge36_Node000001_Node000029" class="edge">
<title>Node1&#45;&gt;Node29</title>
<g id="a_edge36_Node000001_Node000029"><a xlink:title=" ">
<path fill="none" stroke="#63b8ff" d="M1820.91,-265.72C1924.14,-259.94 2130.98,-245.89 2304.5,-218.75 2309.71,-217.94 2315.13,-216.95 2320.51,-215.88"/>
<polygon fill="#63b8ff" stroke="#63b8ff" points="2320.87,-219.38 2329.95,-213.91 2319.44,-212.53 2320.87,-219.38"/>
</a>
</g>
</g>
<!-- Node4 -->
<g id="Node000004" class="node">
<title>Node4</title>
<g id="a_Node000004"><a xlink:href="typed__linear__algebra__forward_8hpp.xhtml" target="_top" xlink:title="Authoritative forward declaration header.">
<polygon fill="white" stroke="#666666" points="1729.75,-146.62 1625.25,-146.62 1625.25,-116.12 1729.75,-116.12 1729.75,-146.62"/>
<text text-anchor="start" x="1633.25" y="-133.12" font-family="Helvetica,sans-Serif" font-size="10.00">typed_linear_algebra</text>
<text text-anchor="middle" x="1677.5" y="-121.88" font-family="Helvetica,sans-Serif" font-size="10.00">_forward.hpp</text>
</a>
</g>
</g>
<!-- Node3&#45;&gt;Node4 -->
<g id="edge3_Node000003_Node000004" class="edge">
<title>Node3&#45;&gt;Node4</title>
<g id="a_edge3_Node000003_Node000004"><a xlink:title=" ">
<path fill="none" stroke="#63b8ff" d="M1244,-199.55C1325.72,-194.34 1484.54,-181.21 1616.5,-152.25 1619.41,-151.61 1622.37,-150.89 1625.36,-150.11"/>
<polygon fill="#63b8ff" stroke="#63b8ff" points="1626,-153.56 1634.67,-147.48 1624.1,-146.83 1626,-153.56"/>
</a>
</g>
</g>
<!-- Node5 -->
<g id="Node000005" class="node">
<title>Node5</title>
<g id="a_Node000005"><a xlink:href="format_8hpp.xhtml" target="_top" xlink:title="Formatting support for the typed matrix.">
<polygon fill="white" stroke="#666666" points="1889.75,-146.62 1785.25,-146.62 1785.25,-116.12 1889.75,-116.12 1889.75,-146.62"/>
<text text-anchor="start" x="1793.25" y="-133.12" font-family="Helvetica,sans-Serif" font-size="10.00">typed_linear_algebra</text>
<text text-anchor="middle" x="1837.5" y="-121.88" font-family="Helvetica,sans-Serif" font-size="10.00">_internal/format.hpp</text>
</a>
</g>
</g>
<!-- Node3&#45;&gt;Node5 -->
<g id="edge4_Node000003_Node000005" class="edge">
<title>Node3&#45;&gt;Node5</title>
<g id="a_edge4_Node000003_Node000005"><a xlink:title=" ">
<path fill="none" stroke="#63b8ff" d="M1243.77,-201.54C1347.3,-198.89 1579.76,-188.99 1771.5,-152.25 1775.03,-151.57 1778.63,-150.78 1782.25,-149.92"/>
<polygon fill="#63b8ff" stroke="#63b8ff" points="1782.81,-153.39 1791.61,-147.49 1781.05,-146.61 1782.81,-153.39"/>
</a>
</g>
</g>
<!-- Node6 -->
<g id="Node000006" class="node">
<title>Node6</title>
<g id="a_Node000006"><a xlink:href="utility_8hpp.xhtml" target="_top" xlink:title=" ">
<polygon fill="white" stroke="#666666" points="1785.75,-74.5 1729.25,-74.5 1729.25,-55.25 1785.75,-55.25 1785.75,-74.5"/>
<text text-anchor="middle" x="1757.5" y="-61" font-family="Helvetica,sans-Serif" font-size="10.00">utility.hpp</text>
</a>
</g>
</g>
<!-- Node3&#45;&gt;Node6 -->
<g id="edge12_Node000003_Node000006" class="edge">
<title>Node3&#45;&gt;Node6</title>
<g id="a_edge12_Node000003_Node000006"><a xlink:title=" ">
<path fill="none" stroke="#63b8ff" d="M1243.72,-201.12C1375.01,-197.28 1701.89,-184.54 1738.5,-152.25 1756.92,-136 1759.74,-106.34 1759.26,-86.36"/>
<polygon fill="#63b8ff" stroke="#63b8ff" points="1762.76,-86.17 1758.69,-76.39 1755.77,-86.57 1762.76,-86.17"/>
</a>
</g>
</g>
<!-- Node7 -->
<g id="Node000007" class="node">
<title>Node7</title>
<g id="a_Node000007"><a xlink:title=" ">
<polygon fill="#e0e0e0" stroke="#999999" points="1902.38,-19.25 1846.62,-19.25 1846.62,0 1902.38,0 1902.38,-19.25"/>
<text text-anchor="middle" x="1874.5" y="-5.75" font-family="Helvetica,sans-Serif" font-size="10.00">concepts</text>
</a>
</g>
</g>
<!-- Node3&#45;&gt;Node7 -->
<g id="edge13_Node000003_Node000007" class="edge">
<title>Node3&#45;&gt;Node7</title>
<g id="a_edge13_Node000003_Node000007"><a xlink:title=" ">
<path fill="none" stroke="#63b8ff" d="M1244.02,-200.65C1406.28,-194.87 1876.25,-176.13 1898.5,-152.25 1929.99,-118.45 1903.34,-59.41 1886.2,-29.35"/>
<polygon fill="#63b8ff" stroke="#63b8ff" points="1889.35,-27.79 1881.22,-20.99 1883.33,-31.37 1889.35,-27.79"/>
</a>
</g>
</g>
<!-- Node3&#45;&gt;Node9 -->
<g id="edge17_Node000003_Node000009" class="edge">
<title>Node3&#45;&gt;Node9</title>
<g id="a_edge17_Node000003_Node000009"><a xlink:title=" ">
<path fill="none" stroke="#63b8ff" d="M1135.21,-201.32C939.48,-196.87 279.72,-179.85 244.5,-152.25 207.17,-123 201.31,-62.31 200.96,-30.72"/>
<polygon fill="#63b8ff" stroke="#63b8ff" points="204.45,-31.02 201.04,-20.99 197.45,-30.96 204.45,-31.02"/>
</a>
</g>
</g>
<!-- Node11 -->
<g id="Node000011" class="node">
<title>Node11</title>
<g id="a_Node000011"><a xlink:title=" ">
<polygon fill="#e0e0e0" stroke="#999999" points="994.62,-74.5 946.38,-74.5 946.38,-55.25 994.62,-55.25 994.62,-74.5"/>
<text text-anchor="middle" x="970.5" y="-61" font-family="Helvetica,sans-Serif" font-size="10.00">cstddef</text>
</a>
</g>
</g>
<!-- Node3&#45;&gt;Node11 -->
<g id="edge14_Node000003_Node000011" class="edge">
<title>Node3&#45;&gt;Node11</title>
<g id="a_edge14_Node000003_Node000011"><a xlink:title=" ">
<path fill="none" stroke="#63b8ff" d="M1135.05,-201.61C940.38,-198.15 288.79,-184.21 258.5,-152.25 245.74,-138.78 245.8,-124.02 258.5,-110.5 281.88,-85.61 793.54,-70.48 934.71,-66.77"/>
<polygon fill="#63b8ff" stroke="#63b8ff" points="934.67,-70.27 944.57,-66.52 934.49,-63.28 934.67,-70.27"/>
</a>
</g>
</g>
<!-- Node3&#45;&gt;Node12 -->
<g id="edge15_Node000003_Node000012" class="edge">
<title>Node3&#45;&gt;Node12</title>
<g id="a_edge15_Node000003_Node000012"><a xlink:title=" ">
<path fill="none" stroke="#63b8ff" d="M1244.08,-200.37C1410.77,-193.66 1903.62,-172.23 1931.5,-152.25 1952.93,-136.89 1961.66,-106.29 1965.18,-85.94"/>
<polygon fill="#63b8ff" stroke="#63b8ff" points="1968.6,-86.72 1966.55,-76.33 1961.67,-85.73 1968.6,-86.72"/>
</a>
</g>
</g>
<!-- Node13 -->
<g id="Node000013" class="node">
<title>Node13</title>
<g id="a_Node000013"><a xlink:title=" ">
<polygon fill="#e0e0e0" stroke="#999999" points="339.25,-141 267.75,-141 267.75,-121.75 339.25,-121.75 339.25,-141"/>
<text text-anchor="middle" x="303.5" y="-127.5" font-family="Helvetica,sans-Serif" font-size="10.00">initializer_list</text>
</a>
</g>
</g>
<!-- Node3&#45;&gt;Node13 -->
<g id="edge16_Node000003_Node000013" class="edge">
<title>Node3&#45;&gt;Node13</title>
<g id="a_edge16_Node000003_Node000013"><a xlink:title=" ">
<path fill="none" stroke="#63b8ff" d="M1135.15,-201.77C973.67,-199.19 498.65,-188.64 348.5,-152.25 342.38,-150.77 336.05,-148.49 330.14,-146"/>
<polygon fill="#63b8ff" stroke="#63b8ff" points="332.02,-143.01 321.47,-142.03 329.11,-149.37 332.02,-143.01"/>
</a>
</g>
</g>
<!-- Node14 -->
<g id="Node000014" class="node">
<title>Node14</title>
<g id="a_Node000014"><a xlink:title=" ">
<polygon fill="#e0e0e0" stroke="#999999" points="395.75,-141 357.25,-141 357.25,-121.75 395.75,-121.75 395.75,-141"/>
<text text-anchor="middle" x="376.5" y="-127.5" font-family="Helvetica,sans-Serif" font-size="10.00">utility</text>
</a>
</g>
</g>
<!-- Node3&#45;&gt;Node14 -->
<g id="edge18_Node000003_Node000014" class="edge">
<title>Node3&#45;&gt;Node14</title>
<g id="a_edge18_Node000003_Node000014"><a xlink:title=" ">
<path fill="none" stroke="#63b8ff" d="M1135.11,-202.86C980.26,-203.27 539.49,-200.09 404.5,-152.25 401.5,-151.19 398.52,-149.7 395.7,-148.01"/>
<polygon fill="#63b8ff" stroke="#63b8ff" points="397.79,-145.2 387.59,-142.3 393.75,-150.92 397.79,-145.2"/>
</a>
</g>
</g>
<!-- Node15 -->
<g id="Node000015" class="node">
<title>Node15</title>
<g id="a_Node000015"><a xlink:title=" ">
<polygon fill="#e0e0e0" stroke="#999999" points="543.5,-146.62 413.5,-146.62 413.5,-116.12 543.5,-116.12 543.5,-146.62"/>
<text text-anchor="start" x="421.5" y="-133.12" font-family="Helvetica,sans-Serif" font-size="10.00">typed_linear_algebra</text>
<text text-anchor="middle" x="478.5" y="-121.88" font-family="Helvetica,sans-Serif" font-size="10.00">_internal/algorithm/add.tpp</text>
</a>
</g>
</g>
<!-- Node3&#45;&gt;Node15 -->
<g id="edge19_Node000003_Node000015" class="edge">
<title>Node3&#45;&gt;Node15</title>
<g id="a_edge19_Node000003_Node000015"><a xlink:title=" ">
<path fill="none" stroke="#63b8ff" d="M1134.97,-201.56C1024.35,-198.93 765.96,-189.01 552.5,-152.25 548.2,-151.51 543.78,-150.63 539.36,-149.66"/>
<polygon fill="#63b8ff" stroke="#63b8ff" points="540.39,-146.31 529.85,-147.45 538.8,-153.13 540.39,-146.31"/>
</a>
</g>
</g>
<!-- Node16 -->
<g id="Node000016" class="node">
<title>Node16</title>
<g id="a_Node000016"><a xlink:title=" ">
<polygon fill="#e0e0e0" stroke="#999999" points="701.38,-146.62 561.62,-146.62 561.62,-116.12 701.38,-116.12 701.38,-146.62"/>
<text text-anchor="start" x="569.62" y="-133.12" font-family="Helvetica,sans-Serif" font-size="10.00">typed_linear_algebra</text>
<text text-anchor="middle" x="631.5" y="-121.88" font-family="Helvetica,sans-Serif" font-size="10.00">_internal/algorithm/divide.tpp</text>
</a>
</g>
</g>
<!-- Node3&#45;&gt;Node16 -->
<g id="edge20_Node000003_Node000016" class="edge">
<title>Node3&#45;&gt;Node16</title>
<g id="a_edge20_Node000003_Node000016"><a xlink:title=" ">
<path fill="none" stroke="#63b8ff" d="M1134.91,-199.3C1045.63,-193.51 863.02,-179.29 710.5,-152.25 705.96,-151.44 701.29,-150.52 696.6,-149.52"/>
<polygon fill="#63b8ff" stroke="#63b8ff" points="697.68,-146.18 687.15,-147.41 696.15,-153.01 697.68,-146.18"/>
</a>
</g>
</g>
<!-- Node17 -->
<g id="Node000017" class="node">
<title>Node17</title>
<g id="a_Node000017"><a xlink:title=" ">
<polygon fill="#e0e0e0" stroke="#999999" points="841.38,-152.25 719.62,-152.25 719.62,-110.5 841.38,-110.5 841.38,-152.25"/>
<text text-anchor="start" x="727.62" y="-138.75" font-family="Helvetica,sans-Serif" font-size="10.00">typed_linear_algebra</text>
<text text-anchor="start" x="727.62" y="-127.5" font-family="Helvetica,sans-Serif" font-size="10.00">_internal/algorithm/equal</text>
<text text-anchor="middle" x="780.5" y="-116.25" font-family="Helvetica,sans-Serif" font-size="10.00">_to.tpp</text>
</a>
</g>
</g>
<!-- Node3&#45;&gt;Node17 -->
<g id="edge21_Node000003_Node000017" class="edge">
<title>Node3&#45;&gt;Node17</title>
<g id="a_edge21_Node000003_Node000017"><a xlink:title=" ">
<path fill="none" stroke="#63b8ff" d="M1135.1,-196.64C1070.11,-189.15 957.96,-174.68 852.96,-152.65"/>
<polygon fill="#63b8ff" stroke="#63b8ff" points="853.84,-149.25 843.33,-150.59 852.38,-156.1 853.84,-149.25"/>
</a>
</g>
</g>
<!-- Node18 -->
<g id="Node000018" class="node">
<title>Node18</title>
<g id="a_Node000018"><a xlink:title=" ">
<polygon fill="#e0e0e0" stroke="#999999" points="1005.75,-146.62 859.25,-146.62 859.25,-116.12 1005.75,-116.12 1005.75,-146.62"/>
<text text-anchor="start" x="867.25" y="-133.12" font-family="Helvetica,sans-Serif" font-size="10.00">typed_linear_algebra</text>
<text text-anchor="middle" x="932.5" y="-121.88" font-family="Helvetica,sans-Serif" font-size="10.00">_internal/algorithm/product.tpp</text>
</a>
</g>
</g>
<!-- Node3&#45;&gt;Node18 -->
<g id="edge22_Node000003_Node000018" class="edge">
<title>Node3&#45;&gt;Node18</title>
<g id="a_edge22_Node000003_Node000018"><a xlink:title=" ">
<path fill="none" stroke="#63b8ff" d="M1135.62,-187.8C1095.27,-176.79 1039.9,-161.68 997.16,-150.02"/>
<polygon fill="#63b8ff" stroke="#63b8ff" points="998.33,-146.71 987.76,-147.45 996.49,-153.46 998.33,-146.71"/>
</a>
</g>
</g>
<!-- Node19 -->
<g id="Node000019" class="node">
<title>Node19</title>
<g id="a_Node000019"><a xlink:title=" ">
<polygon fill="#e0e0e0" stroke="#999999" points="1178.88,-146.62 1024.12,-146.62 1024.12,-116.12 1178.88,-116.12 1178.88,-146.62"/>
<text text-anchor="start" x="1032.12" y="-133.12" font-family="Helvetica,sans-Serif" font-size="10.00">typed_linear_algebra</text>
<text text-anchor="middle" x="1101.5" y="-121.88" font-family="Helvetica,sans-Serif" font-size="10.00">_internal/algorithm/substract.tpp</text>
</a>
</g>
</g>
<!-- Node3&#45;&gt;Node19 -->
<g id="edge23_Node000003_Node000019" class="edge">
<title>Node3&#45;&gt;Node19</title>
<g id="a_edge23_Node000003_Node000019"><a xlink:title=" ">
<path fill="none" stroke="#63b8ff" d="M1171.27,-187.97C1158.88,-178.1 1142.28,-164.87 1128.38,-153.8"/>
<polygon fill="#63b8ff" stroke="#63b8ff" points="1130.9,-151.32 1120.89,-147.83 1126.53,-156.8 1130.9,-151.32"/>
</a>
</g>
</g>
<!-- Node20 -->
<g id="Node000020" class="node">
<title>Node20</title>
<g id="a_Node000020"><a xlink:title=" ">
<polygon fill="#e0e0e0" stroke="#999999" points="1359.62,-146.62 1197.38,-146.62 1197.38,-116.12 1359.62,-116.12 1359.62,-146.62"/>
<text text-anchor="start" x="1205.38" y="-133.12" font-family="Helvetica,sans-Serif" font-size="10.00">typed_linear_algebra</text>
<text text-anchor="middle" x="1278.5" y="-121.88" font-family="Helvetica,sans-Serif" font-size="10.00">_internal/algorithm/transposed.tpp</text>
</a>
</g>
</g>
<!-- Node3&#45;&gt;Node20 -->
<g id="edge24_Node000003_Node000020" class="edge">
<title>Node3&#45;&gt;Node20</title>
<g id="a_edge24_Node000003_Node000020"><a xlink:title=" ">
<path fill="none" stroke="#63b8ff" d="M1207.94,-187.97C1220.47,-178.1 1237.26,-164.87 1251.31,-153.8"/>
<polygon fill="#63b8ff" stroke="#63b8ff" points="1253.21,-156.76 1258.89,-147.82 1248.87,-151.26 1253.21,-156.76"/>
</a>
</g>
</g>
<!-- Node21 -->
<g id="Node000021" class="node">
<title>Node21</title>
<g id="a_Node000021"><a xlink:title=" ">
<polygon fill="#e0e0e0" stroke="#999999" points="1481.75,-146.62 1377.25,-146.62 1377.25,-116.12 1481.75,-116.12 1481.75,-146.62"/>
<text text-anchor="start" x="1385.25" y="-133.12" font-family="Helvetica,sans-Serif" font-size="10.00">typed_linear_algebra</text>
<text text-anchor="middle" x="1429.5" y="-121.88" font-family="Helvetica,sans-Serif" font-size="10.00">_internal/cast.tpp</text>
</a>
</g>
</g>
<!-- Node3&#45;&gt;Node21 -->
<g id="edge25_Node000003_Node000021" class="edge">
<title>Node3&#45;&gt;Node21</title>
<g id="a_edge25_Node000003_Node000021"><a xlink:title=" ">
<path fill="none" stroke="#63b8ff" d="M1244.11,-187.8C1279.65,-178.08 1326.95,-164.84 1368.5,-152.25 1370.45,-151.66 1372.44,-151.05 1374.44,-150.43"/>
<polygon fill="#63b8ff" stroke="#63b8ff" points="1375.32,-153.82 1383.81,-147.48 1373.22,-147.14 1375.32,-153.82"/>
</a>
</g>
</g>
<!-- Node22 -->
<g id="Node000022" class="node">
<title>Node22</title>
<g id="a_Node000022"><a xlink:title=" ">
<polygon fill="#e0e0e0" stroke="#999999" points="1607.25,-152.25 1499.75,-152.25 1499.75,-110.5 1607.25,-110.5 1607.25,-152.25"/>
<text text-anchor="start" x="1507.75" y="-138.75" font-family="Helvetica,sans-Serif" font-size="10.00">typed_linear_algebra</text>
<text text-anchor="start" x="1507.75" y="-127.5" font-family="Helvetica,sans-Serif" font-size="10.00">_internal/typed_linear</text>
<text text-anchor="middle" x="1553.5" y="-116.25" font-family="Helvetica,sans-Serif" font-size="10.00">_algebra.tpp</text>
</a>
</g>
</g>
<!-- Node3&#45;&gt;Node22 -->
<g id="edge26_Node000003_Node000022" class="edge">
<title>Node3&#45;&gt;Node22</title>
<g id="a_edge26_Node000003_Node000022"><a xlink:title=" ">
<path fill="none" stroke="#63b8ff" d="M1244.06,-195.73C1302.35,-187.99 1397.57,-173.84 1488.3,-152.62"/>
<polygon fill="#63b8ff" stroke="#63b8ff" points="1488.95,-156.06 1497.87,-150.34 1487.33,-149.25 1488.95,-156.06"/>
</a>
</g>
</g>
<!-- Node5&#45;&gt;Node6 -->
<g id="edge5_Node000005_Node000006" class="edge">
<title>Node5&#45;&gt;Node6</title>
<g id="a_edge5_Node000005_Node000006"><a xlink:title=" ">
<path fill="none" stroke="#63b8ff" d="M1819.35,-115.74C1806.73,-105.57 1789.94,-92.03 1777.04,-81.63"/>
<polygon fill="#63b8ff" stroke="#63b8ff" points="1779.6,-79.2 1769.62,-75.65 1775.21,-84.65 1779.6,-79.2"/>
</a>
</g>
</g>
<!-- Node5&#45;&gt;Node11 -->
<g id="edge10_Node000005_Node000011" class="edge">
<title>Node5&#45;&gt;Node11</title>
<g id="a_edge10_Node000005_Node000011"><a xlink:title=" ">
<path fill="none" stroke="#63b8ff" d="M1784.81,-118.37C1769.91,-115.37 1753.63,-112.45 1738.5,-110.5 1457.93,-74.37 1115.89,-67.48 1006.17,-66.17"/>
<polygon fill="#63b8ff" stroke="#63b8ff" points="1006.38,-62.68 996.34,-66.07 1006.3,-69.68 1006.38,-62.68"/>
</a>
</g>
</g>
<!-- Node5&#45;&gt;Node12 -->
<g id="edge11_Node000005_Node000012" class="edge">
<title>Node5&#45;&gt;Node12</title>
<g id="a_edge11_Node000005_Node000012"><a xlink:title=" ">
<path fill="none" stroke="#63b8ff" d="M1867,-115.74C1888.66,-104.99 1917.91,-90.48 1939.27,-79.88"/>
<polygon fill="#63b8ff" stroke="#63b8ff" points="1940.58,-83.14 1947.98,-75.56 1937.47,-76.87 1940.58,-83.14"/>
</a>
</g>
</g>
<!-- Node6&#45;&gt;Node7 -->
<g id="edge6_Node000006_Node000007" class="edge">
<title>Node6&#45;&gt;Node7</title>
<g id="a_edge6_Node000006_Node000007"><a xlink:title=" ">
<path fill="none" stroke="#63b8ff" d="M1777.35,-54.84C1795.67,-46.5 1823.15,-34 1844.21,-24.41"/>
<polygon fill="#63b8ff" stroke="#63b8ff" points="1845.53,-27.66 1853.18,-20.33 1842.63,-21.29 1845.53,-27.66"/>
</a>
</g>
</g>
<!-- Node8 -->
<g id="Node000008" class="node">
<title>Node8</title>
<g id="a_Node000008"><a xlink:title=" ">
<polygon fill="#e0e0e0" stroke="#999999" points="1786.5,-19.25 1728.5,-19.25 1728.5,0 1786.5,0 1786.5,-19.25"/>
<text text-anchor="middle" x="1757.5" y="-5.75" font-family="Helvetica,sans-Serif" font-size="10.00">functional</text>
</a>
</g>
</g>
<!-- Node6&#45;&gt;Node8 -->
<g id="edge7_Node000006_Node000008" class="edge">
<title>Node6&#45;&gt;Node8</title>
<g id="a_edge7_Node000006_Node000008"><a xlink:title=" ">
<path fill="none" stroke="#63b8ff" d="M1757.5,-55.08C1757.5,-48.57 1757.5,-39.42 1757.5,-31.12"/>
<polygon fill="#63b8ff" stroke="#63b8ff" points="1761,-31.12 1757.5,-21.12 1754,-31.12 1761,-31.12"/>
</a>
</g>
</g>
<!-- Node6&#45;&gt;Node9 -->
<g id="edge8_Node000006_Node000009" class="edge">
<title>Node6&#45;&gt;Node9</title>
<g id="a_edge8_Node000006_Node000009"><a xlink:title=" ">
<path fill="none" stroke="#63b8ff" d="M1728.83,-62.89C1536.02,-56.3 430.08,-18.45 231.9,-11.67"/>
<polygon fill="#63b8ff" stroke="#63b8ff" points="232.05,-8.17 221.94,-11.32 231.81,-15.16 232.05,-8.17"/>
</a>
</g>
</g>
<!-- Node6&#45;&gt;Node10 -->
<g id="edge9_Node000006_Node000010" class="edge">
<title>Node6&#45;&gt;Node10</title>
<g id="a_edge9_Node000006_Node000010"><a xlink:title=" ">
<path fill="none" stroke="#63b8ff" d="M1729.17,-61.95C1611.03,-53.91 1157.24,-23.05 1016.43,-13.48"/>
<polygon fill="#63b8ff" stroke="#63b8ff" points="1017.03,-10.01 1006.82,-12.82 1016.56,-16.99 1017.03,-10.01"/>
</a>
</g>
</g>
</g>
</svg>
