<?xml version="1.0" encoding="UTF-8" standalone="no"?>
<!DOCTYPE svg PUBLIC "-//W3C//DTD SVG 1.1//EN"
 "http://www.w3.org/Graphics/SVG/1.1/DTD/svg11.dtd">
<!-- Generated by graphviz version 12.2.0 (20241103.1931)
 -->
<!-- Title: /github/workspace/sample/mp_units_eigen.cpp Pages: 1 -->
<svg width="2642pt" height="293pt"
 viewBox="0.00 0.00 2642.12 293.25" xmlns="http://www.w3.org/2000/svg" xmlns:xlink="http://www.w3.org/1999/xlink">
<g id="graph0" class="graph" transform="scale(1 1) rotate(0) translate(4 289.25)">
<title>/github/workspace/sample/mp_units_eigen.cpp</title>
<!-- Node1 -->
<g id="Node000001" class="node">
<title>Node1</title>
<g id="a_Node000001"><a xlink:title="Unit safe linear algebra with mp&#45;units and Eigen.">
<polygon fill="#999999" stroke="#666666" points="2030.5,-285.25 1900.5,-285.25 1900.5,-254.75 2030.5,-254.75 2030.5,-285.25"/>
<text text-anchor="start" x="1908.5" y="-271.75" font-family="Helvetica,sans-Serif" font-size="10.00">/github/workspace/sample</text>
<text text-anchor="middle" x="1965.5" y="-260.5" font-family="Helvetica,sans-Serif" font-size="10.00">/mp_units_eigen.cpp</text>
</a>
</g>
</g>
<!-- Node2 -->
<g id="Node000002" class="node">
<title>Node2</title>
<g id="a_Node000002"><a xlink:title=" ">
<polygon fill="#e0e0e0" stroke="#999999" points="97,-213.12 0,-213.12 0,-193.88 97,-193.88 97,-213.12"/>
<text text-anchor="middle" x="48.5" y="-199.62" font-family="Helvetica,sans-Serif" font-size="10.00">fcarouge/linalg.hpp</text>
</a>
</g>
</g>
<!-- Node1&#45;&gt;Node2 -->
<g id="edge1_Node000001_Node000002" class="edge">
<title>Node1&#45;&gt;Node2</title>
<g id="a_edge1_Node000001_Node000002"><a xlink:title=" ">
<path fill="none" stroke="#63b8ff" d="M1900.23,-268.94C1614.01,-268.42 468.33,-263.5 111.5,-218.75 105.8,-218.04 99.87,-217.04 94.01,-215.9"/>
<polygon fill="#63b8ff" stroke="#63b8ff" points="94.93,-212.51 84.43,-213.88 93.49,-219.36 94.93,-212.51"/>
</a>
</g>
</g>
<!-- Node3 -->
<g id="Node000003" class="node">
<title>Node3</title>
<g id="a_Node000003"><a xlink:href="typed__linear__algebra_8hpp.xhtml" target="_top" xlink:title="Typed linear algebra implementation.">
<polygon fill="white" stroke="#666666" points="1371.62,-218.75 1263.38,-218.75 1263.38,-188.25 1371.62,-188.25 1371.62,-218.75"/>
<text text-anchor="start" x="1271.38" y="-205.25" font-family="Helvetica,sans-Serif" font-size="10.00">fcarouge/typed_linear</text>
<text text-anchor="middle" x="1317.5" y="-194" font-family="Helvetica,sans-Serif" font-size="10.00">_algebra.hpp</text>
</a>
</g>
</g>
<!-- Node1&#45;&gt;Node3 -->
<g id="edge2_Node000001_Node000003" class="edge">
<title>Node1&#45;&gt;Node3</title>
<g id="a_edge2_Node000001_Node000003"><a xlink:title=" ">
<path fill="none" stroke="#63b8ff" d="M1900.1,-262.49C1775.92,-250.13 1507.31,-223.39 1383.03,-211.02"/>
<polygon fill="#63b8ff" stroke="#63b8ff" points="1383.62,-207.56 1373.32,-210.06 1382.93,-214.53 1383.62,-207.56"/>
</a>
</g>
</g>
<!-- Node9 -->
<g id="Node000009" class="node">
<title>Node9</title>
<g id="a_Node000009"><a xlink:title=" ">
<polygon fill="#e0e0e0" stroke="#999999" points="220,-19.25 183,-19.25 183,0 220,0 220,-19.25"/>
<text text-anchor="middle" x="201.5" y="-5.75" font-family="Helvetica,sans-Serif" font-size="10.00">tuple</text>
</a>
</g>
</g>
<!-- Node1&#45;&gt;Node9 -->
<g id="edge31_Node000001_Node000009" class="edge">
<title>Node1&#45;&gt;Node9</title>
<g id="a_edge31_Node000001_Node000009"><a xlink:title=" ">
<path fill="none" stroke="#63b8ff" d="M1900.32,-269.41C1645.32,-270.6 715.21,-271.2 425.5,-218.75 334.57,-202.29 289.21,-221.92 228.5,-152.25 198.57,-117.91 197.55,-60.81 199.46,-30.68"/>
<polygon fill="#63b8ff" stroke="#63b8ff" points="202.92,-31.32 200.26,-21.06 195.94,-30.74 202.92,-31.32"/>
</a>
</g>
</g>
<!-- Node10 -->
<g id="Node000010" class="node">
<title>Node10</title>
<g id="a_Node000010"><a xlink:title=" ">
<polygon fill="#e0e0e0" stroke="#999999" points="1154,-19.25 1093,-19.25 1093,0 1154,0 1154,-19.25"/>
<text text-anchor="middle" x="1123.5" y="-5.75" font-family="Helvetica,sans-Serif" font-size="10.00">type_traits</text>
</a>
</g>
</g>
<!-- Node1&#45;&gt;Node10 -->
<g id="edge32_Node000001_Node000010" class="edge">
<title>Node1&#45;&gt;Node10</title>
<g id="a_edge32_Node000001_Node000010"><a xlink:title=" ">
<path fill="none" stroke="#63b8ff" d="M1900.23,-267.04C1592.86,-257.51 302.12,-213.91 244.5,-152.25 126.07,-25.51 890.91,-12.14 1081.31,-10.77"/>
<polygon fill="#63b8ff" stroke="#63b8ff" points="1081.26,-14.27 1091.24,-10.71 1081.22,-7.27 1081.26,-14.27"/>
</a>
</g>
</g>
<!-- Node12 -->
<g id="Node000012" class="node">
<title>Node12</title>
<g id="a_Node000012"><a xlink:title=" ">
<polygon fill="#e0e0e0" stroke="#999999" points="2287.38,-74.5 2243.62,-74.5 2243.62,-55.25 2287.38,-55.25 2287.38,-74.5"/>
<text text-anchor="middle" x="2265.5" y="-61" font-family="Helvetica,sans-Serif" font-size="10.00">format</text>
</a>
</g>
</g>
<!-- Node1&#45;&gt;Node12 -->
<g id="edge29_Node000001_Node000012" class="edge">
<title>Node1&#45;&gt;Node12</title>
<g id="a_edge29_Node000001_Node000012"><a xlink:title=" ">
<path fill="none" stroke="#63b8ff" d="M1941.7,-254.36C1917.44,-237.67 1885.95,-209.9 1905.5,-188.25 1958.2,-129.89 2202.17,-208.12 2257.5,-152.25 2274.45,-135.14 2273.34,-105.71 2270.13,-86.02"/>
<polygon fill="#63b8ff" stroke="#63b8ff" points="2273.61,-85.58 2268.23,-76.45 2266.74,-86.94 2273.61,-85.58"/>
</a>
</g>
</g>
<!-- Node25 -->
<g id="Node000025" class="node">
<title>Node25</title>
<g id="a_Node000025"><a xlink:title=" ">
<polygon fill="#e0e0e0" stroke="#999999" points="1948.88,-213.12 1914.12,-213.12 1914.12,-193.88 1948.88,-193.88 1948.88,-213.12"/>
<text text-anchor="middle" x="1931.5" y="-199.62" font-family="Helvetica,sans-Serif" font-size="10.00">print</text>
</a>
</g>
</g>
<!-- Node1&#45;&gt;Node25 -->
<g id="edge30_Node000001_Node000025" class="edge">
<title>Node1&#45;&gt;Node25</title>
<g id="a_edge30_Node000001_Node000025"><a xlink:title=" ">
<path fill="none" stroke="#63b8ff" d="M1957.78,-254.36C1952.94,-245.18 1946.66,-233.25 1941.44,-223.36"/>
<polygon fill="#63b8ff" stroke="#63b8ff" points="1944.62,-221.88 1936.86,-214.66 1938.42,-225.14 1944.62,-221.88"/>
</a>
</g>
</g>
<!-- Node26 -->
<g id="Node000026" class="node">
<title>Node26</title>
<g id="a_Node000026"><a xlink:title=" ">
<polygon fill="#e0e0e0" stroke="#999999" points="2034,-213.12 1967,-213.12 1967,-193.88 2034,-193.88 2034,-213.12"/>
<text text-anchor="middle" x="2000.5" y="-199.62" font-family="Helvetica,sans-Serif" font-size="10.00">Eigen/Eigen</text>
</a>
</g>
</g>
<!-- Node1&#45;&gt;Node26 -->
<g id="edge33_Node000001_Node000026" class="edge">
<title>Node1&#45;&gt;Node26</title>
<g id="a_edge33_Node000001_Node000026"><a xlink:title=" ">
<path fill="none" stroke="#63b8ff" d="M1973.44,-254.36C1978.42,-245.18 1984.9,-233.25 1990.26,-223.36"/>
<polygon fill="#63b8ff" stroke="#63b8ff" points="1993.3,-225.11 1994.99,-214.65 1987.14,-221.77 1993.3,-225.11"/>
</a>
</g>
</g>
<!-- Node27 -->
<g id="Node000027" class="node">
<title>Node27</title>
<g id="a_Node000027"><a xlink:title=" ">
<polygon fill="#e0e0e0" stroke="#999999" points="2154.62,-218.75 2052.38,-218.75 2052.38,-188.25 2154.62,-188.25 2154.62,-218.75"/>
<text text-anchor="start" x="2060.38" y="-205.25" font-family="Helvetica,sans-Serif" font-size="10.00">mp&#45;units/framework</text>
<text text-anchor="middle" x="2103.5" y="-194" font-family="Helvetica,sans-Serif" font-size="10.00">/quantity.h</text>
</a>
</g>
</g>
<!-- Node1&#45;&gt;Node27 -->
<g id="edge34_Node000001_Node000027" class="edge">
<title>Node1&#45;&gt;Node27</title>
<g id="a_edge34_Node000001_Node000027"><a xlink:title=" ">
<path fill="none" stroke="#63b8ff" d="M1996.81,-254.36C2016.13,-245.33 2041.14,-233.65 2062.09,-223.86"/>
<polygon fill="#63b8ff" stroke="#63b8ff" points="2063.36,-227.12 2070.94,-219.72 2060.4,-220.78 2063.36,-227.12"/>
</a>
</g>
</g>
<!-- Node28 -->
<g id="Node000028" class="node">
<title>Node28</title>
<g id="a_Node000028"><a xlink:title=" ">
<polygon fill="#e0e0e0" stroke="#999999" points="2274.62,-218.75 2172.38,-218.75 2172.38,-188.25 2274.62,-188.25 2274.62,-218.75"/>
<text text-anchor="start" x="2180.38" y="-205.25" font-family="Helvetica,sans-Serif" font-size="10.00">mp&#45;units/framework</text>
<text text-anchor="middle" x="2223.5" y="-194" font-family="Helvetica,sans-Serif" font-size="10.00">/quantity_point.h</text>
</a>
</g>
</g>
<!-- Node1&#45;&gt;Node28 -->
<g id="edge35_Node000001_Node000028" class="edge">
<title>Node1&#45;&gt;Node28</title>
<g id="a_edge35_Node000001_Node000028"><a xlink:title=" ">
<path fill="none" stroke="#63b8ff" d="M2024.37,-254.28C2065.24,-244.07 2119.6,-230.47 2161.2,-220.08"/>
<polygon fill="#63b8ff" stroke="#63b8ff" points="2161.98,-223.49 2170.83,-217.67 2160.28,-216.7 2161.98,-223.49"/>
</a>
</g>
</g>
<!-- Node29 -->
<g id="Node000029" class="node">
<title>Node29</title>
<g id="a_Node000029"><a xlink:title=" ">
<polygon fill="#e0e0e0" stroke="#999999" points="2378.38,-213.12 2292.62,-213.12 2292.62,-193.88 2378.38,-193.88 2378.38,-213.12"/>
<text text-anchor="middle" x="2335.5" y="-199.62" font-family="Helvetica,sans-Serif" font-size="10.00">mp&#45;units/math.h</text>
</a>
</g>
</g>
<!-- Node1&#45;&gt;Node29 -->
<g id="edge36_Node000001_Node000029" class="edge">
<title>Node1&#45;&gt;Node29</title>
<g id="a_edge36_Node000001_Node000029"><a xlink:title=" ">
<path fill="none" stroke="#63b8ff" d="M2030.75,-260.84C2095.31,-252.26 2196.76,-237.43 2283.5,-218.75 2286.82,-218.03 2290.25,-217.23 2293.69,-216.39"/>
<polygon fill="#63b8ff" stroke="#63b8ff" points="2294.29,-219.85 2303.1,-213.96 2292.54,-213.07 2294.29,-219.85"/>
</a>
</g>
</g>
<!-- Node30 -->
<g id="Node000030" class="node">
<title>Node30</title>
<g id="a_Node000030"><a xlink:title=" ">
<polygon fill="#e0e0e0" stroke="#999999" points="2505,-218.75 2396,-218.75 2396,-188.25 2505,-188.25 2505,-218.75"/>
<text text-anchor="start" x="2404" y="-205.25" font-family="Helvetica,sans-Serif" font-size="10.00">mp&#45;units/systems/isq</text>
<text text-anchor="middle" x="2450.5" y="-194" font-family="Helvetica,sans-Serif" font-size="10.00">/thermodynamics.h</text>
</a>
</g>
</g>
<!-- Node1&#45;&gt;Node30 -->
<g id="edge37_Node000001_Node000030" class="edge">
<title>Node1&#45;&gt;Node30</title>
<g id="a_edge37_Node000001_Node000030"><a xlink:title=" ">
<path fill="none" stroke="#63b8ff" d="M2030.87,-263.34C2111.8,-255.86 2254.03,-241.17 2384.61,-219.15"/>
<polygon fill="#63b8ff" stroke="#63b8ff" points="2384.83,-222.66 2394.1,-217.53 2383.65,-215.76 2384.83,-222.66"/>
</a>
</g>
</g>
<!-- Node31 -->
<g id="Node000031" class="node">
<title>Node31</title>
<g id="a_Node000031"><a xlink:title=" ">
<polygon fill="#e0e0e0" stroke="#999999" points="2634.12,-213.12 2522.88,-213.12 2522.88,-193.88 2634.12,-193.88 2634.12,-213.12"/>
<text text-anchor="middle" x="2578.5" y="-199.62" font-family="Helvetica,sans-Serif" font-size="10.00">mp&#45;units/systems/si.h</text>
</a>
</g>
</g>
<!-- Node1&#45;&gt;Node31 -->
<g id="edge38_Node000001_Node000031" class="edge">
<title>Node1&#45;&gt;Node31</title>
<g id="a_edge38_Node000001_Node000031"><a xlink:title=" ">
<path fill="none" stroke="#63b8ff" d="M2030.91,-265.72C2134.14,-259.94 2340.98,-245.89 2514.5,-218.75 2519.71,-217.94 2525.13,-216.95 2530.51,-215.88"/>
<polygon fill="#63b8ff" stroke="#63b8ff" points="2530.87,-219.38 2539.95,-213.91 2529.44,-212.53 2530.87,-219.38"/>
</a>
</g>
</g>
<!-- Node4 -->
<g id="Node000004" class="node">
<title>Node4</title>
<g id="a_Node000004"><a xlink:href="typed__linear__algebra__forward_8hpp.xhtml" target="_top" xlink:title="Authoritative forward declaration header.">
<polygon fill="white" stroke="#666666" points="2027.75,-146.62 1923.25,-146.62 1923.25,-116.12 2027.75,-116.12 2027.75,-146.62"/>
<text text-anchor="start" x="1931.25" y="-133.12" font-family="Helvetica,sans-Serif" font-size="10.00">typed_linear_algebra</text>
<text text-anchor="middle" x="1975.5" y="-121.88" font-family="Helvetica,sans-Serif" font-size="10.00">_forward.hpp</text>
</a>
</g>
</g>
<!-- Node3&#45;&gt;Node4 -->
<g id="edge3_Node000003_Node000004" class="edge">
<title>Node3&#45;&gt;Node4</title>
<g id="a_edge3_Node000003_Node000004"><a xlink:title=" ">
<path fill="none" stroke="#63b8ff" d="M1372.01,-202.1C1477.72,-200.41 1717.48,-192.08 1914.5,-152.25 1917.62,-151.62 1920.81,-150.88 1924,-150.07"/>
<polygon fill="#63b8ff" stroke="#63b8ff" points="1924.68,-153.51 1933.37,-147.46 1922.8,-146.77 1924.68,-153.51"/>
</a>
</g>
</g>
<!-- Node5 -->
<g id="Node000005" class="node">
<title>Node5</title>
<g id="a_Node000005"><a xlink:href="format_8hpp.xhtml" target="_top" xlink:title="Formatting support for the typed matrix.">
<polygon fill="white" stroke="#666666" points="2187.75,-146.62 2083.25,-146.62 2083.25,-116.12 2187.75,-116.12 2187.75,-146.62"/>
<text text-anchor="start" x="2091.25" y="-133.12" font-family="Helvetica,sans-Serif" font-size="10.00">typed_linear_algebra</text>
<text text-anchor="middle" x="2135.5" y="-121.88" font-family="Helvetica,sans-Serif" font-size="10.00">_internal/format.hpp</text>
</a>
</g>
</g>
<!-- Node3&#45;&gt;Node5 -->
<g id="edge4_Node000003_Node000005" class="edge">
<title>Node3&#45;&gt;Node5</title>
<g id="a_edge4_Node000003_Node000005"><a xlink:title=" ">
<path fill="none" stroke="#63b8ff" d="M1371.81,-203.05C1496.3,-203.4 1811.37,-199.12 2069.5,-152.25 2073.26,-151.57 2077.12,-150.74 2080.98,-149.83"/>
<polygon fill="#63b8ff" stroke="#63b8ff" points="2081.54,-153.3 2090.35,-147.41 2079.79,-146.52 2081.54,-153.3"/>
</a>
</g>
</g>
<!-- Node6 -->
<g id="Node000006" class="node">
<title>Node6</title>
<g id="a_Node000006"><a xlink:href="utility_8hpp.xhtml" target="_top" xlink:title=" ">
<polygon fill="white" stroke="#666666" points="2083.75,-74.5 2027.25,-74.5 2027.25,-55.25 2083.75,-55.25 2083.75,-74.5"/>
<text text-anchor="middle" x="2055.5" y="-61" font-family="Helvetica,sans-Serif" font-size="10.00">utility.hpp</text>
</a>
</g>
</g>
<!-- Node3&#45;&gt;Node6 -->
<g id="edge12_Node000003_Node000006" class="edge">
<title>Node3&#45;&gt;Node6</title>
<g id="a_edge12_Node000003_Node000006"><a xlink:title=" ">
<path fill="none" stroke="#63b8ff" d="M1371.99,-202.38C1531.03,-201.54 1986.56,-195.35 2036.5,-152.25 2055.18,-136.13 2057.9,-106.2 2057.33,-86.16"/>
<polygon fill="#63b8ff" stroke="#63b8ff" points="2060.84,-86.2 2056.73,-76.43 2053.85,-86.62 2060.84,-86.2"/>
</a>
</g>
</g>
<!-- Node7 -->
<g id="Node000007" class="node">
<title>Node7</title>
<g id="a_Node000007"><a xlink:title=" ">
<polygon fill="#e0e0e0" stroke="#999999" points="2200.38,-19.25 2144.62,-19.25 2144.62,0 2200.38,0 2200.38,-19.25"/>
<text text-anchor="middle" x="2172.5" y="-5.75" font-family="Helvetica,sans-Serif" font-size="10.00">concepts</text>
</a>
</g>
</g>
<!-- Node3&#45;&gt;Node7 -->
<g id="edge13_Node000003_Node000007" class="edge">
<title>Node3&#45;&gt;Node7</title>
<g id="a_edge13_Node000003_Node000007"><a xlink:title=" ">
<path fill="none" stroke="#63b8ff" d="M1372.12,-201.42C1559.77,-197.45 2168.11,-182.31 2196.5,-152.25 2228.22,-118.66 2201.47,-59.52 2184.25,-29.4"/>
<polygon fill="#63b8ff" stroke="#63b8ff" points="2187.38,-27.81 2179.25,-21.02 2181.37,-31.4 2187.38,-27.81"/>
</a>
</g>
</g>
<!-- Node3&#45;&gt;Node9 -->
<g id="edge17_Node000003_Node000009" class="edge">
<title>Node3&#45;&gt;Node9</title>
<g id="a_edge17_Node000003_Node000009"><a xlink:title=" ">
<path fill="none" stroke="#63b8ff" d="M1262.94,-201.68C1050.06,-198.25 285.02,-183.79 244.5,-152.25 207.07,-123.12 201.26,-62.38 200.93,-30.75"/>
<polygon fill="#63b8ff" stroke="#63b8ff" points="204.43,-31.04 201.03,-21 197.43,-30.97 204.43,-31.04"/>
</a>
</g>
</g>
<!-- Node11 -->
<g id="Node000011" class="node">
<title>Node11</title>
<g id="a_Node000011"><a xlink:title=" ">
<polygon fill="#e0e0e0" stroke="#999999" points="1143.62,-74.5 1095.38,-74.5 1095.38,-55.25 1143.62,-55.25 1143.62,-74.5"/>
<text text-anchor="middle" x="1119.5" y="-61" font-family="Helvetica,sans-Serif" font-size="10.00">cstddef</text>
</a>
</g>
</g>
<!-- Node3&#45;&gt;Node11 -->
<g id="edge14_Node000003_Node000011" class="edge">
<title>Node3&#45;&gt;Node11</title>
<g id="a_edge14_Node000003_Node000011"><a xlink:title=" ">
<path fill="none" stroke="#63b8ff" d="M1263,-201.98C1051.28,-199.68 293.45,-188.9 258.5,-152.25 245.69,-138.82 245.72,-123.96 258.5,-110.5 287.35,-80.12 924.44,-68.74 1083.68,-66.37"/>
<polygon fill="#63b8ff" stroke="#63b8ff" points="1083.67,-69.87 1093.62,-66.23 1083.57,-62.87 1083.67,-69.87"/>
</a>
</g>
</g>
<!-- Node3&#45;&gt;Node12 -->
<g id="edge15_Node000003_Node000012" class="edge">
<title>Node3&#45;&gt;Node12</title>
<g id="a_edge15_Node000003_Node000012"><a xlink:title=" ">
<path fill="none" stroke="#63b8ff" d="M1372.1,-201.09C1563.51,-195.92 2194.38,-177.08 2229.5,-152.25 2251.03,-137.03 2259.73,-106.38 2263.22,-86"/>
<polygon fill="#63b8ff" stroke="#63b8ff" points="2266.64,-86.74 2264.57,-76.35 2259.71,-85.77 2266.64,-86.74"/>
</a>
</g>
</g>
<!-- Node13 -->
<g id="Node000013" class="node">
<title>Node13</title>
<g id="a_Node000013"><a xlink:title=" ">
<polygon fill="#e0e0e0" stroke="#999999" points="339.25,-141 267.75,-141 267.75,-121.75 339.25,-121.75 339.25,-141"/>
<text text-anchor="middle" x="303.5" y="-127.5" font-family="Helvetica,sans-Serif" font-size="10.00">initializer_list</text>
</a>
</g>
</g>
<!-- Node3&#45;&gt;Node13 -->
<g id="edge16_Node000003_Node000013" class="edge">
<title>Node3&#45;&gt;Node13</title>
<g id="a_edge16_Node000003_Node000013"><a xlink:title=" ">
<path fill="none" stroke="#63b8ff" d="M1262.91,-202.27C1085.12,-201.09 524.15,-194.09 348.5,-152.25 342.37,-150.79 336.04,-148.52 330.13,-146.03"/>
<polygon fill="#63b8ff" stroke="#63b8ff" points="332.01,-143.04 321.46,-142.07 329.1,-149.41 332.01,-143.04"/>
</a>
</g>
</g>
<!-- Node14 -->
<g id="Node000014" class="node">
<title>Node14</title>
<g id="a_Node000014"><a xlink:title=" ">
<polygon fill="#e0e0e0" stroke="#999999" points="395.75,-141 357.25,-141 357.25,-121.75 395.75,-121.75 395.75,-141"/>
<text text-anchor="middle" x="376.5" y="-127.5" font-family="Helvetica,sans-Serif" font-size="10.00">utility</text>
</a>
</g>
</g>
<!-- Node3&#45;&gt;Node14 -->
<g id="edge18_Node000003_Node000014" class="edge">
<title>Node3&#45;&gt;Node14</title>
<g id="a_edge18_Node000003_Node000014"><a xlink:title=" ">
<path fill="none" stroke="#63b8ff" d="M1262.88,-201.26C1078.39,-196.82 485.33,-180.49 404.5,-152.25 401.49,-151.2 398.52,-149.72 395.7,-148.04"/>
<polygon fill="#63b8ff" stroke="#63b8ff" points="397.78,-145.22 387.59,-142.32 393.75,-150.94 397.78,-145.22"/>
</a>
</g>
</g>
<!-- Node15 -->
<g id="Node000015" class="node">
<title>Node15</title>
<g id="a_Node000015"><a xlink:title=" ">
<polygon fill="#e0e0e0" stroke="#999999" points="543.5,-146.62 413.5,-146.62 413.5,-116.12 543.5,-116.12 543.5,-146.62"/>
<text text-anchor="start" x="421.5" y="-133.12" font-family="Helvetica,sans-Serif" font-size="10.00">typed_linear_algebra</text>
<text text-anchor="middle" x="478.5" y="-121.88" font-family="Helvetica,sans-Serif" font-size="10.00">_internal/algorithm/add.tpp</text>
</a>
</g>
</g>
<!-- Node3&#45;&gt;Node15 -->
<g id="edge19_Node000003_Node000015" class="edge">
<title>Node3&#45;&gt;Node15</title>
<g id="a_edge19_Node000003_Node000015"><a xlink:title=" ">
<path fill="none" stroke="#63b8ff" d="M1263.29,-202.59C1137.51,-201.99 816.44,-195.93 552.5,-152.25 548.12,-151.53 543.63,-150.65 539.12,-149.68"/>
<polygon fill="#63b8ff" stroke="#63b8ff" points="539.97,-146.28 529.44,-147.44 538.39,-153.1 539.97,-146.28"/>
</a>
</g>
</g>
<!-- Node16 -->
<g id="Node000016" class="node">
<title>Node16</title>
<g id="a_Node000016"><a xlink:title=" ">
<polygon fill="#e0e0e0" stroke="#999999" points="701.38,-146.62 561.62,-146.62 561.62,-116.12 701.38,-116.12 701.38,-146.62"/>
<text text-anchor="start" x="569.62" y="-133.12" font-family="Helvetica,sans-Serif" font-size="10.00">typed_linear_algebra</text>
<text text-anchor="middle" x="631.5" y="-121.88" font-family="Helvetica,sans-Serif" font-size="10.00">_internal/algorithm/divide.tpp</text>
</a>
</g>
</g>
<!-- Node3&#45;&gt;Node16 -->
<g id="edge20_Node000003_Node000016" class="edge">
<title>Node3&#45;&gt;Node16</title>
<g id="a_edge20_Node000003_Node000016"><a xlink:title=" ">
<path fill="none" stroke="#63b8ff" d="M1263.13,-200.98C1156.48,-197.35 912.61,-185.81 710.5,-152.25 705.66,-151.45 700.68,-150.5 695.69,-149.45"/>
<polygon fill="#63b8ff" stroke="#63b8ff" points="696.79,-146.11 686.27,-147.37 695.28,-152.95 696.79,-146.11"/>
</a>
</g>
</g>
<!-- Node17 -->
<g id="Node000017" class="node">
<title>Node17</title>
<g id="a_Node000017"><a xlink:title=" ">
<polygon fill="#e0e0e0" stroke="#999999" points="841.38,-152.25 719.62,-152.25 719.62,-110.5 841.38,-110.5 841.38,-152.25"/>
<text text-anchor="start" x="727.62" y="-138.75" font-family="Helvetica,sans-Serif" font-size="10.00">typed_linear_algebra</text>
<text text-anchor="start" x="727.62" y="-127.5" font-family="Helvetica,sans-Serif" font-size="10.00">_internal/algorithm/equal</text>
<text text-anchor="middle" x="780.5" y="-116.25" font-family="Helvetica,sans-Serif" font-size="10.00">_to.tpp</text>
</a>
</g>
</g>
<!-- Node3&#45;&gt;Node17 -->
<g id="edge21_Node000003_Node000017" class="edge">
<title>Node3&#45;&gt;Node17</title>
<g id="a_edge21_Node000003_Node000017"><a xlink:title=" ">
<path fill="none" stroke="#63b8ff" d="M1263.12,-199.65C1177.62,-194.5 1006.45,-181.57 852.85,-152.54"/>
<polygon fill="#63b8ff" stroke="#63b8ff" points="853.79,-149.16 843.3,-150.71 852.46,-156.03 853.79,-149.16"/>
</a>
</g>
</g>
<!-- Node18 -->
<g id="Node000018" class="node">
<title>Node18</title>
<g id="a_Node000018"><a xlink:title=" ">
<polygon fill="#e0e0e0" stroke="#999999" points="983.88,-152.25 859.12,-152.25 859.12,-110.5 983.88,-110.5 983.88,-152.25"/>
<text text-anchor="start" x="867.12" y="-138.75" font-family="Helvetica,sans-Serif" font-size="10.00">typed_linear_algebra</text>
<text text-anchor="start" x="867.12" y="-127.5" font-family="Helvetica,sans-Serif" font-size="10.00">_internal/algorithm/matrix</text>
<text text-anchor="middle" x="921.5" y="-116.25" font-family="Helvetica,sans-Serif" font-size="10.00">_product.tpp</text>
</a>
</g>
</g>
<!-- Node3&#45;&gt;Node18 -->
<g id="edge22_Node000003_Node000018" class="edge">
<title>Node3&#45;&gt;Node18</title>
<g id="a_edge22_Node000003_Node000018"><a xlink:title=" ">
<path fill="none" stroke="#63b8ff" d="M1262.97,-196C1200.64,-188.13 1095.37,-173.53 995.44,-152.54"/>
<polygon fill="#63b8ff" stroke="#63b8ff" points="996.21,-149.12 985.7,-150.46 994.76,-155.97 996.21,-149.12"/>
</a>
</g>
</g>
<!-- Node19 -->
<g id="Node000019" class="node">
<title>Node19</title>
<g id="a_Node000019"><a xlink:title=" ">
<polygon fill="#e0e0e0" stroke="#999999" points="1148.75,-146.62 1002.25,-146.62 1002.25,-116.12 1148.75,-116.12 1148.75,-146.62"/>
<text text-anchor="start" x="1010.25" y="-133.12" font-family="Helvetica,sans-Serif" font-size="10.00">typed_linear_algebra</text>
<text text-anchor="middle" x="1075.5" y="-121.88" font-family="Helvetica,sans-Serif" font-size="10.00">_internal/algorithm/product.tpp</text>
</a>
</g>
</g>
<!-- Node3&#45;&gt;Node19 -->
<g id="edge23_Node000003_Node000019" class="edge">
<title>Node3&#45;&gt;Node19</title>
<g id="a_edge23_Node000003_Node000019"><a xlink:title=" ">
<path fill="none" stroke="#63b8ff" d="M1266.77,-187.8C1229.02,-176.86 1177.3,-161.87 1137.16,-150.24"/>
<polygon fill="#63b8ff" stroke="#63b8ff" points="1138.2,-146.9 1127.62,-147.48 1136.25,-153.62 1138.2,-146.9"/>
</a>
</g>
</g>
<!-- Node20 -->
<g id="Node000020" class="node">
<title>Node20</title>
<g id="a_Node000020"><a xlink:title=" ">
<polygon fill="#e0e0e0" stroke="#999999" points="1304.25,-146.62 1166.75,-146.62 1166.75,-116.12 1304.25,-116.12 1304.25,-146.62"/>
<text text-anchor="start" x="1174.75" y="-133.12" font-family="Helvetica,sans-Serif" font-size="10.00">typed_linear_algebra</text>
<text text-anchor="middle" x="1235.5" y="-121.88" font-family="Helvetica,sans-Serif" font-size="10.00">_internal/algorithm/scale.tpp</text>
</a>
</g>
</g>
<!-- Node3&#45;&gt;Node20 -->
<g id="edge24_Node000003_Node000020" class="edge">
<title>Node3&#45;&gt;Node20</title>
<g id="a_edge24_Node000003_Node000020"><a xlink:title=" ">
<path fill="none" stroke="#63b8ff" d="M1300.51,-187.97C1289.08,-178.19 1273.79,-165.12 1260.92,-154.11"/>
<polygon fill="#63b8ff" stroke="#63b8ff" points="1263.49,-151.71 1253.62,-147.87 1258.94,-157.03 1263.49,-151.71"/>
</a>
</g>
</g>
<!-- Node21 -->
<g id="Node000021" class="node">
<title>Node21</title>
<g id="a_Node000021"><a xlink:title=" ">
<polygon fill="#e0e0e0" stroke="#999999" points="1476.88,-146.62 1322.12,-146.62 1322.12,-116.12 1476.88,-116.12 1476.88,-146.62"/>
<text text-anchor="start" x="1330.12" y="-133.12" font-family="Helvetica,sans-Serif" font-size="10.00">typed_linear_algebra</text>
<text text-anchor="middle" x="1399.5" y="-121.88" font-family="Helvetica,sans-Serif" font-size="10.00">_internal/algorithm/substract.tpp</text>
</a>
</g>
</g>
<!-- Node3&#45;&gt;Node21 -->
<g id="edge25_Node000003_Node000021" class="edge">
<title>Node3&#45;&gt;Node21</title>
<g id="a_edge25_Node000003_Node000021"><a xlink:title=" ">
<path fill="none" stroke="#63b8ff" d="M1334.49,-187.97C1345.92,-178.19 1361.21,-165.12 1374.08,-154.11"/>
<polygon fill="#63b8ff" stroke="#63b8ff" points="1376.06,-157.03 1381.38,-147.87 1371.51,-151.71 1376.06,-157.03"/>
</a>
</g>
</g>
<!-- Node22 -->
<g id="Node000022" class="node">
<title>Node22</title>
<g id="a_Node000022"><a xlink:title=" ">
<polygon fill="#e0e0e0" stroke="#999999" points="1657.62,-146.62 1495.38,-146.62 1495.38,-116.12 1657.62,-116.12 1657.62,-146.62"/>
<text text-anchor="start" x="1503.38" y="-133.12" font-family="Helvetica,sans-Serif" font-size="10.00">typed_linear_algebra</text>
<text text-anchor="middle" x="1576.5" y="-121.88" font-family="Helvetica,sans-Serif" font-size="10.00">_internal/algorithm/transposed.tpp</text>
</a>
</g>
</g>
<!-- Node3&#45;&gt;Node22 -->
<g id="edge26_Node000003_Node000022" class="edge">
<title>Node3&#45;&gt;Node22</title>
<g id="a_edge26_Node000003_Node000022"><a xlink:title=" ">
<path fill="none" stroke="#63b8ff" d="M1371.79,-187.8C1412.46,-176.79 1468.26,-161.68 1511.34,-150.02"/>
<polygon fill="#63b8ff" stroke="#63b8ff" points="1512.08,-153.44 1520.82,-147.45 1510.25,-146.69 1512.08,-153.44"/>
</a>
</g>
</g>
<!-- Node23 -->
<g id="Node000023" class="node">
<title>Node23</title>
<g id="a_Node000023"><a xlink:title=" ">
<polygon fill="#e0e0e0" stroke="#999999" points="1779.75,-146.62 1675.25,-146.62 1675.25,-116.12 1779.75,-116.12 1779.75,-146.62"/>
<text text-anchor="start" x="1683.25" y="-133.12" font-family="Helvetica,sans-Serif" font-size="10.00">typed_linear_algebra</text>
<text text-anchor="middle" x="1727.5" y="-121.88" font-family="Helvetica,sans-Serif" font-size="10.00">_internal/cast.tpp</text>
</a>
</g>
</g>
<!-- Node3&#45;&gt;Node23 -->
<g id="edge27_Node000003_Node000023" class="edge">
<title>Node3&#45;&gt;Node23</title>
<g id="a_edge27_Node000003_Node000023"><a xlink:title=" ">
<path fill="none" stroke="#63b8ff" d="M1371.84,-197.6C1440.95,-190.7 1563.66,-176.22 1666.5,-152.25 1669.11,-151.64 1671.77,-150.97 1674.44,-150.26"/>
<polygon fill="#63b8ff" stroke="#63b8ff" points="1675.32,-153.65 1683.98,-147.54 1673.4,-146.92 1675.32,-153.65"/>
</a>
</g>
</g>
<!-- Node24 -->
<g id="Node000024" class="node">
<title>Node24</title>
<g id="a_Node000024"><a xlink:title=" ">
<polygon fill="#e0e0e0" stroke="#999999" points="1905.25,-152.25 1797.75,-152.25 1797.75,-110.5 1905.25,-110.5 1905.25,-152.25"/>
<text text-anchor="start" x="1805.75" y="-138.75" font-family="Helvetica,sans-Serif" font-size="10.00">typed_linear_algebra</text>
<text text-anchor="start" x="1805.75" y="-127.5" font-family="Helvetica,sans-Serif" font-size="10.00">_internal/typed_linear</text>
<text text-anchor="middle" x="1851.5" y="-116.25" font-family="Helvetica,sans-Serif" font-size="10.00">_algebra.tpp</text>
</a>
</g>
</g>
<!-- Node3&#45;&gt;Node24 -->
<g id="edge28_Node000003_Node000024" class="edge">
<title>Node3&#45;&gt;Node24</title>
<g id="a_edge28_Node000003_Node000024"><a xlink:title=" ">
<path fill="none" stroke="#63b8ff" d="M1372.09,-200.21C1458.34,-195.82 1631.42,-183.89 1786.27,-152.49"/>
<polygon fill="#63b8ff" stroke="#63b8ff" points="1786.82,-155.96 1795.9,-150.51 1785.4,-149.1 1786.82,-155.96"/>
</a>
</g>
</g>
<!-- Node5&#45;&gt;Node6 -->
<g id="edge5_Node000005_Node000006" class="edge">
<title>Node5&#45;&gt;Node6</title>
<g id="a_edge5_Node000005_Node000006"><a xlink:title=" ">
<path fill="none" stroke="#63b8ff" d="M2117.35,-115.74C2104.73,-105.57 2087.94,-92.03 2075.04,-81.63"/>
<polygon fill="#63b8ff" stroke="#63b8ff" points="2077.6,-79.2 2067.62,-75.65 2073.21,-84.65 2077.6,-79.2"/>
</a>
</g>
</g>
<!-- Node5&#45;&gt;Node11 -->
<g id="edge10_Node000005_Node000011" class="edge">
<title>Node5&#45;&gt;Node11</title>
<g id="a_edge10_Node000005_Node000011"><a xlink:title=" ">
<path fill="none" stroke="#63b8ff" d="M2082.82,-118.28C2067.92,-115.27 2051.64,-112.38 2036.5,-110.5 1695.51,-68.22 1278.56,-65.5 1155.37,-65.7"/>
<polygon fill="#63b8ff" stroke="#63b8ff" points="1155.56,-62.2 1145.57,-65.72 1155.58,-69.2 1155.56,-62.2"/>
</a>
</g>
</g>
<!-- Node5&#45;&gt;Node12 -->
<g id="edge11_Node000005_Node000012" class="edge">
<title>Node5&#45;&gt;Node12</title>
<g id="a_edge11_Node000005_Node000012"><a xlink:title=" ">
<path fill="none" stroke="#63b8ff" d="M2165,-115.74C2186.66,-104.99 2215.91,-90.48 2237.27,-79.88"/>
<polygon fill="#63b8ff" stroke="#63b8ff" points="2238.58,-83.14 2245.98,-75.56 2235.47,-76.87 2238.58,-83.14"/>
</a>
</g>
</g>
<!-- Node6&#45;&gt;Node7 -->
<g id="edge6_Node000006_Node000007" class="edge">
<title>Node6&#45;&gt;Node7</title>
<g id="a_edge6_Node000006_Node000007"><a xlink:title=" ">
<path fill="none" stroke="#63b8ff" d="M2075.35,-54.84C2093.67,-46.5 2121.15,-34 2142.21,-24.41"/>
<polygon fill="#63b8ff" stroke="#63b8ff" points="2143.53,-27.66 2151.18,-20.33 2140.63,-21.29 2143.53,-27.66"/>
</a>
</g>
</g>
<!-- Node8 -->
<g id="Node000008" class="node">
<title>Node8</title>
<g id="a_Node000008"><a xlink:title=" ">
<polygon fill="#e0e0e0" stroke="#999999" points="2084.5,-19.25 2026.5,-19.25 2026.5,0 2084.5,0 2084.5,-19.25"/>
<text text-anchor="middle" x="2055.5" y="-5.75" font-family="Helvetica,sans-Serif" font-size="10.00">functional</text>
</a>
</g>
</g>
<!-- Node6&#45;&gt;Node8 -->
<g id="edge7_Node000006_Node000008" class="edge">
<title>Node6&#45;&gt;Node8</title>
<g id="a_edge7_Node000006_Node000008"><a xlink:title=" ">
<path fill="none" stroke="#63b8ff" d="M2055.5,-55.08C2055.5,-48.57 2055.5,-39.42 2055.5,-31.12"/>
<polygon fill="#63b8ff" stroke="#63b8ff" points="2059,-31.12 2055.5,-21.12 2052,-31.12 2059,-31.12"/>
</a>
</g>
</g>
<!-- Node6&#45;&gt;Node9 -->
<g id="edge8_Node000006_Node000009" class="edge">
<title>Node6&#45;&gt;Node9</title>
<g id="a_edge8_Node000006_Node000009"><a xlink:title=" ">
<path fill="none" stroke="#63b8ff" d="M2026.75,-63.05C1811.26,-56.86 451.28,-17.8 231.48,-11.49"/>
<polygon fill="#63b8ff" stroke="#63b8ff" points="231.86,-8 221.77,-11.21 231.66,-14.99 231.86,-8"/>
</a>
</g>
</g>
<!-- Node6&#45;&gt;Node10 -->
<g id="edge9_Node000006_Node000010" class="edge">
<title>Node6&#45;&gt;Node10</title>
<g id="a_edge9_Node000006_Node000010"><a xlink:title=" ">
<path fill="none" stroke="#63b8ff" d="M2026.84,-62.24C1892.58,-54.57 1325.63,-22.17 1165.67,-13.03"/>
<polygon fill="#63b8ff" stroke="#63b8ff" points="1166.14,-9.56 1155.96,-12.48 1165.74,-16.54 1166.14,-9.56"/>
</a>
</g>
</g>
</g>
</svg>
