<?xml version="1.0" encoding="UTF-8" standalone="no"?>
<!DOCTYPE svg PUBLIC "-//W3C//DTD SVG 1.1//EN"
 "http://www.w3.org/Graphics/SVG/1.1/DTD/svg11.dtd">
<!-- Generated by graphviz version 12.2.0 (20241103.1931)
 -->
<!-- Title: /github/workspace/sample/mp_units_eigen.cpp Pages: 1 -->
<svg width="2485pt" height="293pt"
 viewBox="0.00 0.00 2484.88 293.25" xmlns="http://www.w3.org/2000/svg" xmlns:xlink="http://www.w3.org/1999/xlink">
<g id="graph0" class="graph" transform="scale(1 1) rotate(0) translate(4 289.25)">
<title>/github/workspace/sample/mp_units_eigen.cpp</title>
<!-- Node1 -->
<g id="Node000001" class="node">
<title>Node1</title>
<g id="a_Node000001"><a xlink:title="Unit safe linear algebra with mp&#45;units and Eigen.">
<polygon fill="#999999" stroke="#666666" points="2033.5,-285.25 1903.5,-285.25 1903.5,-254.75 2033.5,-254.75 2033.5,-285.25"/>
<text text-anchor="start" x="1911.5" y="-271.75" font-family="Helvetica,sans-Serif" font-size="10.00">/github/workspace/sample</text>
<text text-anchor="middle" x="1968.5" y="-260.5" font-family="Helvetica,sans-Serif" font-size="10.00">/mp_units_eigen.cpp</text>
</a>
</g>
</g>
<!-- Node2 -->
<g id="Node000002" class="node">
<title>Node2</title>
<g id="a_Node000002"><a xlink:title=" ">
<polygon fill="#e0e0e0" stroke="#999999" points="97,-213.12 0,-213.12 0,-193.88 97,-193.88 97,-213.12"/>
<text text-anchor="middle" x="48.5" y="-199.62" font-family="Helvetica,sans-Serif" font-size="10.00">fcarouge/linalg.hpp</text>
</a>
</g>
</g>
<!-- Node1&#45;&gt;Node2 -->
<g id="edge1_Node000001_Node000002" class="edge">
<title>Node1&#45;&gt;Node2</title>
<g id="a_edge1_Node000001_Node000002"><a xlink:title=" ">
<path fill="none" stroke="#63b8ff" d="M1903.12,-268.94C1616.44,-268.43 468.91,-263.57 111.5,-218.75 105.8,-218.04 99.87,-217.04 94.01,-215.9"/>
<polygon fill="#63b8ff" stroke="#63b8ff" points="94.93,-212.51 84.43,-213.88 93.49,-219.36 94.93,-212.51"/>
</a>
</g>
</g>
<!-- Node3 -->
<g id="Node000003" class="node">
<title>Node3</title>
<g id="a_Node000003"><a xlink:href="typed__linear__algebra_8hpp.xhtml" target="_top" xlink:title="Typed linear algebra implementation.">
<polygon fill="white" stroke="#666666" points="1615.62,-218.75 1507.38,-218.75 1507.38,-188.25 1615.62,-188.25 1615.62,-218.75"/>
<text text-anchor="start" x="1515.38" y="-205.25" font-family="Helvetica,sans-Serif" font-size="10.00">fcarouge/typed_linear</text>
<text text-anchor="middle" x="1561.5" y="-194" font-family="Helvetica,sans-Serif" font-size="10.00">_algebra.hpp</text>
</a>
</g>
</g>
<!-- Node1&#45;&gt;Node3 -->
<g id="edge2_Node000001_Node000003" class="edge">
<title>Node1&#45;&gt;Node3</title>
<g id="a_edge2_Node000001_Node000003"><a xlink:title=" ">
<path fill="none" stroke="#63b8ff" d="M1903.11,-258.64C1827.34,-246.63 1703.21,-226.96 1627.28,-214.92"/>
<polygon fill="#63b8ff" stroke="#63b8ff" points="1627.9,-211.48 1617.47,-213.37 1626.8,-218.39 1627.9,-211.48"/>
</a>
</g>
</g>
<!-- Node10 -->
<g id="Node000010" class="node">
<title>Node10</title>
<g id="a_Node000010"><a xlink:title=" ">
<polygon fill="#e0e0e0" stroke="#999999" points="2357,-19.25 2320,-19.25 2320,0 2357,0 2357,-19.25"/>
<text text-anchor="middle" x="2338.5" y="-5.75" font-family="Helvetica,sans-Serif" font-size="10.00">tuple</text>
</a>
</g>
</g>
<!-- Node1&#45;&gt;Node10 -->
<g id="edge33_Node000001_Node000010" class="edge">
<title>Node1&#45;&gt;Node10</title>
<g id="a_edge33_Node000001_Node000010"><a xlink:title=" ">
<path fill="none" stroke="#63b8ff" d="M2033.9,-263.48C2111.81,-256.02 2236.58,-241.05 2277.5,-218.75 2342.45,-183.36 2349.9,-147.7 2360.5,-74.5 2361.73,-66.03 2362.44,-63.58 2360.5,-55.25 2358.42,-46.33 2354.29,-37.14 2350.16,-29.44"/>
<polygon fill="#63b8ff" stroke="#63b8ff" points="2353.34,-27.94 2345.31,-21.04 2347.28,-31.45 2353.34,-27.94"/>
</a>
</g>
</g>
<!-- Node11 -->
<g id="Node000011" class="node">
<title>Node11</title>
<g id="a_Node000011"><a xlink:title=" ">
<polygon fill="#e0e0e0" stroke="#999999" points="594,-19.25 533,-19.25 533,0 594,0 594,-19.25"/>
<text text-anchor="middle" x="563.5" y="-5.75" font-family="Helvetica,sans-Serif" font-size="10.00">type_traits</text>
</a>
</g>
</g>
<!-- Node1&#45;&gt;Node11 -->
<g id="edge34_Node000001_Node000011" class="edge">
<title>Node1&#45;&gt;Node11</title>
<g id="a_edge34_Node000001_Node000011"><a xlink:title=" ">
<path fill="none" stroke="#63b8ff" d="M1903.15,-267.24C1587.02,-258.41 229.03,-216.83 168.5,-152.25 63.4,-40.11 399.8,-16.61 521.39,-11.82"/>
<polygon fill="#63b8ff" stroke="#63b8ff" points="521.42,-15.32 531.28,-11.46 521.16,-8.33 521.42,-15.32"/>
</a>
</g>
</g>
<!-- Node12 -->
<g id="Node000012" class="node">
<title>Node12</title>
<g id="a_Node000012"><a xlink:title=" ">
<polygon fill="#e0e0e0" stroke="#999999" points="2244.38,-74.5 2200.62,-74.5 2200.62,-55.25 2244.38,-55.25 2244.38,-74.5"/>
<text text-anchor="middle" x="2222.5" y="-61" font-family="Helvetica,sans-Serif" font-size="10.00">format</text>
</a>
</g>
</g>
<!-- Node1&#45;&gt;Node12 -->
<g id="edge31_Node000001_Node000012" class="edge">
<title>Node1&#45;&gt;Node12</title>
<g id="a_edge31_Node000001_Node000012"><a xlink:title=" ">
<path fill="none" stroke="#63b8ff" d="M2033.7,-268.61C2115.87,-264.18 2254.23,-242.75 2319.5,-152.25 2330.35,-137.2 2329.51,-126.12 2319.5,-110.5 2305.53,-88.7 2277.94,-77.41 2255.74,-71.64"/>
<polygon fill="#63b8ff" stroke="#63b8ff" points="2256.73,-68.28 2246.2,-69.44 2255.16,-75.1 2256.73,-68.28"/>
</a>
</g>
</g>
<!-- Node26 -->
<g id="Node000026" class="node">
<title>Node26</title>
<g id="a_Node000026"><a xlink:title=" ">
<polygon fill="#e0e0e0" stroke="#999999" points="2476.88,-213.12 2442.12,-213.12 2442.12,-193.88 2476.88,-193.88 2476.88,-213.12"/>
<text text-anchor="middle" x="2459.5" y="-199.62" font-family="Helvetica,sans-Serif" font-size="10.00">print</text>
</a>
</g>
</g>
<!-- Node1&#45;&gt;Node26 -->
<g id="edge32_Node000001_Node000026" class="edge">
<title>Node1&#45;&gt;Node26</title>
<g id="a_edge32_Node000001_Node000026"><a xlink:title=" ">
<path fill="none" stroke="#63b8ff" d="M2033.73,-268.43C2124.02,-266.17 2291.45,-256.66 2428.5,-218.75 2429.67,-218.43 2430.85,-218.06 2432.04,-217.67"/>
<polygon fill="#63b8ff" stroke="#63b8ff" points="2433.09,-221.02 2441.09,-214.07 2430.5,-214.51 2433.09,-221.02"/>
</a>
</g>
</g>
<!-- Node4 -->
<g id="Node000004" class="node">
<title>Node4</title>
<g id="a_Node000004"><a xlink:href="typed__linear__algebra__forward_8hpp.xhtml" target="_top" xlink:title="Authoritative forward declaration header.">
<polygon fill="white" stroke="#666666" points="1984.75,-146.62 1880.25,-146.62 1880.25,-116.12 1984.75,-116.12 1984.75,-146.62"/>
<text text-anchor="start" x="1888.25" y="-133.12" font-family="Helvetica,sans-Serif" font-size="10.00">typed_linear_algebra</text>
<text text-anchor="middle" x="1932.5" y="-121.88" font-family="Helvetica,sans-Serif" font-size="10.00">_forward.hpp</text>
</a>
</g>
</g>
<!-- Node3&#45;&gt;Node4 -->
<g id="edge3_Node000003_Node000004" class="edge">
<title>Node3&#45;&gt;Node4</title>
<g id="a_edge3_Node000003_Node000004"><a xlink:title=" ">
<path fill="none" stroke="#63b8ff" d="M1616.05,-196.25C1678.37,-188.51 1783.14,-173.67 1871.5,-152.25 1874.06,-151.63 1876.66,-150.96 1879.28,-150.24"/>
<polygon fill="#63b8ff" stroke="#63b8ff" points="1879.99,-153.68 1888.63,-147.54 1878.05,-146.96 1879.99,-153.68"/>
</a>
</g>
</g>
<!-- Node5 -->
<g id="Node000005" class="node">
<title>Node5</title>
<g id="a_Node000005"><a xlink:href="format_8hpp.xhtml" target="_top" xlink:title="Formatting support for the typed matrix.">
<polygon fill="white" stroke="#666666" points="2144.75,-146.62 2040.25,-146.62 2040.25,-116.12 2144.75,-116.12 2144.75,-146.62"/>
<text text-anchor="start" x="2048.25" y="-133.12" font-family="Helvetica,sans-Serif" font-size="10.00">typed_linear_algebra</text>
<text text-anchor="middle" x="2092.5" y="-121.88" font-family="Helvetica,sans-Serif" font-size="10.00">_internal/format.hpp</text>
</a>
</g>
</g>
<!-- Node3&#45;&gt;Node5 -->
<g id="edge4_Node000003_Node000005" class="edge">
<title>Node3&#45;&gt;Node5</title>
<g id="a_edge4_Node000003_Node000005"><a xlink:title=" ">
<path fill="none" stroke="#63b8ff" d="M1616.05,-199.88C1703.44,-194.95 1879.87,-181.98 2026.5,-152.25 2029.85,-151.57 2033.28,-150.79 2036.72,-149.95"/>
<polygon fill="#63b8ff" stroke="#63b8ff" points="2037.44,-153.38 2046.23,-147.46 2035.67,-146.61 2037.44,-153.38"/>
</a>
</g>
</g>
<!-- Node6 -->
<g id="Node000006" class="node">
<title>Node6</title>
<g id="a_Node000006"><a xlink:href="utility_8hpp.xhtml" target="_top" xlink:title=" ">
<polygon fill="white" stroke="#666666" points="2044.75,-74.5 1988.25,-74.5 1988.25,-55.25 2044.75,-55.25 2044.75,-74.5"/>
<text text-anchor="middle" x="2016.5" y="-61" font-family="Helvetica,sans-Serif" font-size="10.00">utility.hpp</text>
</a>
</g>
</g>
<!-- Node3&#45;&gt;Node6 -->
<g id="edge13_Node000003_Node000006" class="edge">
<title>Node3&#45;&gt;Node6</title>
<g id="a_edge13_Node000003_Node000006"><a xlink:title=" ">
<path fill="none" stroke="#63b8ff" d="M1616.12,-199.55C1725.94,-193.14 1965.45,-176.52 1993.5,-152.25 2012.27,-136.01 2016.57,-106.34 2017.14,-86.37"/>
<polygon fill="#63b8ff" stroke="#63b8ff" points="2020.64,-86.38 2017.11,-76.39 2013.64,-86.4 2020.64,-86.38"/>
</a>
</g>
</g>
<!-- Node7 -->
<g id="Node000007" class="node">
<title>Node7</title>
<g id="a_Node000007"><a xlink:title=" ">
<polygon fill="#e0e0e0" stroke="#999999" points="1535.38,-19.25 1479.62,-19.25 1479.62,0 1535.38,0 1535.38,-19.25"/>
<text text-anchor="middle" x="1507.5" y="-5.75" font-family="Helvetica,sans-Serif" font-size="10.00">concepts</text>
</a>
</g>
</g>
<!-- Node3&#45;&gt;Node7 -->
<g id="edge14_Node000003_Node000007" class="edge">
<title>Node3&#45;&gt;Node7</title>
<g id="a_edge14_Node000003_Node000007"><a xlink:title=" ">
<path fill="none" stroke="#63b8ff" d="M1506.96,-202.6C1256.78,-202.81 229.22,-200.7 182.5,-152.25 169.62,-138.89 169.88,-124.1 182.5,-110.5 272.09,-13.9 1256.86,-10.17 1467.85,-10.49"/>
<polygon fill="#63b8ff" stroke="#63b8ff" points="1467.73,-13.99 1477.74,-10.51 1467.75,-6.99 1467.73,-13.99"/>
</a>
</g>
</g>
<!-- Node8 -->
<g id="Node000008" class="node">
<title>Node8</title>
<g id="a_Node000008"><a xlink:title=" ">
<polygon fill="#e0e0e0" stroke="#999999" points="2116.62,-19.25 2068.38,-19.25 2068.38,0 2116.62,0 2116.62,-19.25"/>
<text text-anchor="middle" x="2092.5" y="-5.75" font-family="Helvetica,sans-Serif" font-size="10.00">cstddef</text>
</a>
</g>
</g>
<!-- Node3&#45;&gt;Node8 -->
<g id="edge15_Node000003_Node000008" class="edge">
<title>Node3&#45;&gt;Node8</title>
<g id="a_edge15_Node000003_Node000008"><a xlink:title=" ">
<path fill="none" stroke="#63b8ff" d="M1616.06,-201.98C1755.69,-200.08 2117.54,-191.39 2153.5,-152.25 2187.48,-115.27 2138.9,-56.44 2110.52,-27.64"/>
<polygon fill="#63b8ff" stroke="#63b8ff" points="2113.13,-25.3 2103.55,-20.78 2108.22,-30.29 2113.13,-25.3"/>
</a>
</g>
</g>
<!-- Node3&#45;&gt;Node10 -->
<g id="edge18_Node000003_Node000010" class="edge">
<title>Node3&#45;&gt;Node10</title>
<g id="a_edge18_Node000003_Node000010"><a xlink:title=" ">
<path fill="none" stroke="#63b8ff" d="M1615.87,-202.79C1780.97,-203.13 2268.38,-200.05 2319.5,-152.25 2352.79,-121.13 2348.09,-61.75 2342.78,-30.69"/>
<polygon fill="#63b8ff" stroke="#63b8ff" points="2346.26,-30.26 2340.93,-21.1 2339.38,-31.58 2346.26,-30.26"/>
</a>
</g>
</g>
<!-- Node3&#45;&gt;Node12 -->
<g id="edge16_Node000003_Node000012" class="edge">
<title>Node3&#45;&gt;Node12</title>
<g id="a_edge16_Node000003_Node000012"><a xlink:title=" ">
<path fill="none" stroke="#63b8ff" d="M1615.9,-201.33C1759.49,-197.81 2140.86,-185.39 2186.5,-152.25 2207.74,-136.83 2216.51,-106.47 2220.09,-86.18"/>
<polygon fill="#63b8ff" stroke="#63b8ff" points="2223.55,-86.7 2221.52,-76.3 2216.62,-85.69 2223.55,-86.7"/>
</a>
</g>
</g>
<!-- Node13 -->
<g id="Node000013" class="node">
<title>Node13</title>
<g id="a_Node000013"><a xlink:title=" ">
<polygon fill="#e0e0e0" stroke="#999999" points="2310.25,-141 2238.75,-141 2238.75,-121.75 2310.25,-121.75 2310.25,-141"/>
<text text-anchor="middle" x="2274.5" y="-127.5" font-family="Helvetica,sans-Serif" font-size="10.00">initializer_list</text>
</a>
</g>
</g>
<!-- Node3&#45;&gt;Node13 -->
<g id="edge17_Node000003_Node000013" class="edge">
<title>Node3&#45;&gt;Node13</title>
<g id="a_edge17_Node000003_Node000013"><a xlink:title=" ">
<path fill="none" stroke="#63b8ff" d="M1615.73,-200.5C1752.55,-195.12 2109.07,-178.91 2224.5,-152.25 2231.55,-150.62 2238.91,-148.16 2245.74,-145.52"/>
<polygon fill="#63b8ff" stroke="#63b8ff" points="2246.63,-148.94 2254.54,-141.89 2243.96,-142.47 2246.63,-148.94"/>
</a>
</g>
</g>
<!-- Node14 -->
<g id="Node000014" class="node">
<title>Node14</title>
<g id="a_Node000014"><a xlink:title=" ">
<polygon fill="#e0e0e0" stroke="#999999" points="229.75,-141 191.25,-141 191.25,-121.75 229.75,-121.75 229.75,-141"/>
<text text-anchor="middle" x="210.5" y="-127.5" font-family="Helvetica,sans-Serif" font-size="10.00">utility</text>
</a>
</g>
</g>
<!-- Node3&#45;&gt;Node14 -->
<g id="edge19_Node000003_Node000014" class="edge">
<title>Node3&#45;&gt;Node14</title>
<g id="a_edge19_Node000003_Node000014"><a xlink:title=" ">
<path fill="none" stroke="#63b8ff" d="M1507.26,-202.27C1273.68,-201.01 359.83,-193.49 238.5,-152.25 235.33,-151.17 232.19,-149.61 229.24,-147.82"/>
<polygon fill="#63b8ff" stroke="#63b8ff" points="231.48,-145.12 221.31,-142.17 227.42,-150.83 231.48,-145.12"/>
</a>
</g>
</g>
<!-- Node15 -->
<g id="Node000015" class="node">
<title>Node15</title>
<g id="a_Node000015"><a xlink:title=" ">
<polygon fill="#e0e0e0" stroke="#999999" points="377.5,-146.62 247.5,-146.62 247.5,-116.12 377.5,-116.12 377.5,-146.62"/>
<text text-anchor="start" x="255.5" y="-133.12" font-family="Helvetica,sans-Serif" font-size="10.00">typed_linear_algebra</text>
<text text-anchor="middle" x="312.5" y="-121.88" font-family="Helvetica,sans-Serif" font-size="10.00">_internal/algorithm/add.tpp</text>
</a>
</g>
</g>
<!-- Node3&#45;&gt;Node15 -->
<g id="edge20_Node000003_Node000015" class="edge">
<title>Node3&#45;&gt;Node15</title>
<g id="a_edge20_Node000003_Node000015"><a xlink:title=" ">
<path fill="none" stroke="#63b8ff" d="M1507.1,-201.76C1306.27,-198.77 606.85,-186.13 386.5,-152.25 381.84,-151.53 377.05,-150.63 372.26,-149.62"/>
<polygon fill="#63b8ff" stroke="#63b8ff" points="373.14,-146.23 362.61,-147.4 371.57,-153.05 373.14,-146.23"/>
</a>
</g>
</g>
<!-- Node16 -->
<g id="Node000016" class="node">
<title>Node16</title>
<g id="a_Node000016"><a xlink:title=" ">
<polygon fill="#e0e0e0" stroke="#999999" points="535.38,-146.62 395.62,-146.62 395.62,-116.12 535.38,-116.12 535.38,-146.62"/>
<text text-anchor="start" x="403.62" y="-133.12" font-family="Helvetica,sans-Serif" font-size="10.00">typed_linear_algebra</text>
<text text-anchor="middle" x="465.5" y="-121.88" font-family="Helvetica,sans-Serif" font-size="10.00">_internal/algorithm/divide.tpp</text>
</a>
</g>
</g>
<!-- Node3&#45;&gt;Node16 -->
<g id="edge21_Node000003_Node000016" class="edge">
<title>Node3&#45;&gt;Node16</title>
<g id="a_edge21_Node000003_Node000016"><a xlink:title=" ">
<path fill="none" stroke="#63b8ff" d="M1507.02,-201.22C1324.09,-196.72 732.79,-180.31 544.5,-152.25 539.35,-151.48 534.05,-150.53 528.74,-149.45"/>
<polygon fill="#63b8ff" stroke="#63b8ff" points="529.9,-146.12 519.38,-147.41 528.41,-152.96 529.9,-146.12"/>
</a>
</g>
</g>
<!-- Node17 -->
<g id="Node000017" class="node">
<title>Node17</title>
<g id="a_Node000017"><a xlink:title=" ">
<polygon fill="#e0e0e0" stroke="#999999" points="675.38,-152.25 553.62,-152.25 553.62,-110.5 675.38,-110.5 675.38,-152.25"/>
<text text-anchor="start" x="561.62" y="-138.75" font-family="Helvetica,sans-Serif" font-size="10.00">typed_linear_algebra</text>
<text text-anchor="start" x="561.62" y="-127.5" font-family="Helvetica,sans-Serif" font-size="10.00">_internal/algorithm/equal</text>
<text text-anchor="middle" x="614.5" y="-116.25" font-family="Helvetica,sans-Serif" font-size="10.00">_to.tpp</text>
</a>
</g>
</g>
<!-- Node3&#45;&gt;Node17 -->
<g id="edge22_Node000003_Node000017" class="edge">
<title>Node3&#45;&gt;Node17</title>
<g id="a_edge22_Node000003_Node000017"><a xlink:title=" ">
<path fill="none" stroke="#63b8ff" d="M1507.1,-200.95C1344.88,-196.07 865.22,-179.85 687.08,-152.42"/>
<polygon fill="#63b8ff" stroke="#63b8ff" points="687.71,-148.98 677.28,-150.84 686.59,-155.89 687.71,-148.98"/>
</a>
</g>
</g>
<!-- Node18 -->
<g id="Node000018" class="node">
<title>Node18</title>
<g id="a_Node000018"><a xlink:title=" ">
<polygon fill="#e0e0e0" stroke="#999999" points="817.88,-152.25 693.12,-152.25 693.12,-110.5 817.88,-110.5 817.88,-152.25"/>
<text text-anchor="start" x="701.12" y="-138.75" font-family="Helvetica,sans-Serif" font-size="10.00">typed_linear_algebra</text>
<text text-anchor="start" x="701.12" y="-127.5" font-family="Helvetica,sans-Serif" font-size="10.00">_internal/algorithm/matrix</text>
<text text-anchor="middle" x="755.5" y="-116.25" font-family="Helvetica,sans-Serif" font-size="10.00">_product.tpp</text>
</a>
</g>
</g>
<!-- Node3&#45;&gt;Node18 -->
<g id="edge23_Node000003_Node000018" class="edge">
<title>Node3&#45;&gt;Node18</title>
<g id="a_edge23_Node000003_Node000018"><a xlink:title=" ">
<path fill="none" stroke="#63b8ff" d="M1507.19,-202.5C1386.64,-201.7 1087.64,-195.31 829.27,-152.34"/>
<polygon fill="#63b8ff" stroke="#63b8ff" points="830.1,-148.93 819.65,-150.72 828.93,-155.84 830.1,-148.93"/>
</a>
</g>
</g>
<!-- Node19 -->
<g id="Node000019" class="node">
<title>Node19</title>
<g id="a_Node000019"><a xlink:title=" ">
<polygon fill="#e0e0e0" stroke="#999999" points="982.75,-146.62 836.25,-146.62 836.25,-116.12 982.75,-116.12 982.75,-146.62"/>
<text text-anchor="start" x="844.25" y="-133.12" font-family="Helvetica,sans-Serif" font-size="10.00">typed_linear_algebra</text>
<text text-anchor="middle" x="909.5" y="-121.88" font-family="Helvetica,sans-Serif" font-size="10.00">_internal/algorithm/product.tpp</text>
</a>
</g>
</g>
<!-- Node3&#45;&gt;Node19 -->
<g id="edge24_Node000003_Node000019" class="edge">
<title>Node3&#45;&gt;Node19</title>
<g id="a_edge24_Node000003_Node000019"><a xlink:title=" ">
<path fill="none" stroke="#63b8ff" d="M1506.93,-200.41C1405.05,-195.91 1179.22,-183.1 991.5,-152.25 986.57,-151.44 981.5,-150.49 976.41,-149.46"/>
<polygon fill="#63b8ff" stroke="#63b8ff" points="977.28,-146.07 966.77,-147.4 975.82,-152.91 977.28,-146.07"/>
</a>
</g>
</g>
<!-- Node20 -->
<g id="Node000020" class="node">
<title>Node20</title>
<g id="a_Node000020"><a xlink:title=" ">
<polygon fill="#e0e0e0" stroke="#999999" points="1138.25,-146.62 1000.75,-146.62 1000.75,-116.12 1138.25,-116.12 1138.25,-146.62"/>
<text text-anchor="start" x="1008.75" y="-133.12" font-family="Helvetica,sans-Serif" font-size="10.00">typed_linear_algebra</text>
<text text-anchor="middle" x="1069.5" y="-121.88" font-family="Helvetica,sans-Serif" font-size="10.00">_internal/algorithm/scale.tpp</text>
</a>
</g>
</g>
<!-- Node3&#45;&gt;Node20 -->
<g id="edge25_Node000003_Node000020" class="edge">
<title>Node3&#45;&gt;Node20</title>
<g id="a_edge25_Node000003_Node000020"><a xlink:title=" ">
<path fill="none" stroke="#63b8ff" d="M1506.91,-198.13C1427.39,-191.25 1275.24,-176.17 1147.5,-152.25 1143.22,-151.45 1138.82,-150.55 1134.4,-149.58"/>
<polygon fill="#63b8ff" stroke="#63b8ff" points="1135.43,-146.23 1124.9,-147.41 1133.87,-153.05 1135.43,-146.23"/>
</a>
</g>
</g>
<!-- Node21 -->
<g id="Node000021" class="node">
<title>Node21</title>
<g id="a_Node000021"><a xlink:title=" ">
<polygon fill="#e0e0e0" stroke="#999999" points="1310.88,-146.62 1156.12,-146.62 1156.12,-116.12 1310.88,-116.12 1310.88,-146.62"/>
<text text-anchor="start" x="1164.12" y="-133.12" font-family="Helvetica,sans-Serif" font-size="10.00">typed_linear_algebra</text>
<text text-anchor="middle" x="1233.5" y="-121.88" font-family="Helvetica,sans-Serif" font-size="10.00">_internal/algorithm/substract.tpp</text>
</a>
</g>
</g>
<!-- Node3&#45;&gt;Node21 -->
<g id="edge26_Node000003_Node000021" class="edge">
<title>Node3&#45;&gt;Node21</title>
<g id="a_edge26_Node000003_Node000021"><a xlink:title=" ">
<path fill="none" stroke="#63b8ff" d="M1506.88,-191.42C1457.99,-181.43 1384.39,-166.21 1320.5,-152.25 1316.48,-151.37 1312.36,-150.46 1308.2,-149.54"/>
<polygon fill="#63b8ff" stroke="#63b8ff" points="1309.14,-146.16 1298.62,-147.39 1307.61,-152.99 1309.14,-146.16"/>
</a>
</g>
</g>
<!-- Node22 -->
<g id="Node000022" class="node">
<title>Node22</title>
<g id="a_Node000022"><a xlink:title=" ">
<polygon fill="#e0e0e0" stroke="#999999" points="1491.62,-146.62 1329.38,-146.62 1329.38,-116.12 1491.62,-116.12 1491.62,-146.62"/>
<text text-anchor="start" x="1337.38" y="-133.12" font-family="Helvetica,sans-Serif" font-size="10.00">typed_linear_algebra</text>
<text text-anchor="middle" x="1410.5" y="-121.88" font-family="Helvetica,sans-Serif" font-size="10.00">_internal/algorithm/transposed.tpp</text>
</a>
</g>
</g>
<!-- Node3&#45;&gt;Node22 -->
<g id="edge27_Node000003_Node000022" class="edge">
<title>Node3&#45;&gt;Node22</title>
<g id="a_edge27_Node000003_Node000022"><a xlink:title=" ">
<path fill="none" stroke="#63b8ff" d="M1529.85,-187.8C1507.4,-177.37 1477.03,-163.27 1452.55,-151.9"/>
<polygon fill="#63b8ff" stroke="#63b8ff" points="1454.03,-148.73 1443.49,-147.69 1451.08,-155.08 1454.03,-148.73"/>
</a>
</g>
</g>
<!-- Node23 -->
<g id="Node000023" class="node">
<title>Node23</title>
<g id="a_Node000023"><a xlink:title=" ">
<polygon fill="#e0e0e0" stroke="#999999" points="1613.75,-146.62 1509.25,-146.62 1509.25,-116.12 1613.75,-116.12 1613.75,-146.62"/>
<text text-anchor="start" x="1517.25" y="-133.12" font-family="Helvetica,sans-Serif" font-size="10.00">typed_linear_algebra</text>
<text text-anchor="middle" x="1561.5" y="-121.88" font-family="Helvetica,sans-Serif" font-size="10.00">_internal/cast.tpp</text>
</a>
</g>
</g>
<!-- Node3&#45;&gt;Node23 -->
<g id="edge28_Node000003_Node000023" class="edge">
<title>Node3&#45;&gt;Node23</title>
<g id="a_edge28_Node000003_Node000023"><a xlink:title=" ">
<path fill="none" stroke="#63b8ff" d="M1561.5,-187.97C1561.5,-179.41 1561.5,-168.34 1561.5,-158.33"/>
<polygon fill="#63b8ff" stroke="#63b8ff" points="1565,-158.4 1561.5,-148.4 1558,-158.4 1565,-158.4"/>
</a>
</g>
</g>
<!-- Node24 -->
<g id="Node000024" class="node">
<title>Node24</title>
<g id="a_Node000024"><a xlink:title=" ">
<polygon fill="#e0e0e0" stroke="#999999" points="1736.75,-146.62 1632.25,-146.62 1632.25,-116.12 1736.75,-116.12 1736.75,-146.62"/>
<text text-anchor="start" x="1640.25" y="-133.12" font-family="Helvetica,sans-Serif" font-size="10.00">typed_linear_algebra</text>
<text text-anchor="middle" x="1684.5" y="-121.88" font-family="Helvetica,sans-Serif" font-size="10.00">_internal/tuple.tpp</text>
</a>
</g>
</g>
<!-- Node3&#45;&gt;Node24 -->
<g id="edge29_Node000003_Node000024" class="edge">
<title>Node3&#45;&gt;Node24</title>
<g id="a_edge29_Node000003_Node000024"><a xlink:title=" ">
<path fill="none" stroke="#63b8ff" d="M1587.28,-187.8C1605.16,-177.61 1629.2,-163.9 1648.9,-152.67"/>
<polygon fill="#63b8ff" stroke="#63b8ff" points="1650.48,-155.8 1657.43,-147.81 1647.01,-149.72 1650.48,-155.8"/>
</a>
</g>
</g>
<!-- Node25 -->
<g id="Node000025" class="node">
<title>Node25</title>
<g id="a_Node000025"><a xlink:title=" ">
<polygon fill="#e0e0e0" stroke="#999999" points="1862.25,-152.25 1754.75,-152.25 1754.75,-110.5 1862.25,-110.5 1862.25,-152.25"/>
<text text-anchor="start" x="1762.75" y="-138.75" font-family="Helvetica,sans-Serif" font-size="10.00">typed_linear_algebra</text>
<text text-anchor="start" x="1762.75" y="-127.5" font-family="Helvetica,sans-Serif" font-size="10.00">_internal/typed_linear</text>
<text text-anchor="middle" x="1808.5" y="-116.25" font-family="Helvetica,sans-Serif" font-size="10.00">_algebra.tpp</text>
</a>
</g>
</g>
<!-- Node3&#45;&gt;Node25 -->
<g id="edge30_Node000003_Node000025" class="edge">
<title>Node3&#45;&gt;Node25</title>
<g id="a_edge30_Node000003_Node000025"><a xlink:title=" ">
<path fill="none" stroke="#63b8ff" d="M1616,-188.21C1650.12,-179.13 1695.25,-166.88 1743.57,-152.77"/>
<polygon fill="#63b8ff" stroke="#63b8ff" points="1744.52,-156.14 1753.13,-149.96 1742.55,-149.42 1744.52,-156.14"/>
</a>
</g>
</g>
<!-- Node5&#45;&gt;Node6 -->
<g id="edge5_Node000005_Node000006" class="edge">
<title>Node5&#45;&gt;Node6</title>
<g id="a_edge5_Node000005_Node000006"><a xlink:title=" ">
<path fill="none" stroke="#63b8ff" d="M2075.25,-115.74C2063.39,-105.67 2047.63,-92.29 2035.42,-81.93"/>
<polygon fill="#63b8ff" stroke="#63b8ff" points="2037.94,-79.48 2028.05,-75.68 2033.41,-84.82 2037.94,-79.48"/>
</a>
</g>
</g>
<!-- Node5&#45;&gt;Node8 -->
<g id="edge11_Node000005_Node000008" class="edge">
<title>Node5&#45;&gt;Node8</title>
<g id="a_edge11_Node000005_Node000008"><a xlink:title=" ">
<path fill="none" stroke="#63b8ff" d="M2092.5,-115.69C2092.5,-94.41 2092.5,-54.92 2092.5,-30.88"/>
<polygon fill="#63b8ff" stroke="#63b8ff" points="2096,-31.13 2092.5,-21.13 2089,-31.13 2096,-31.13"/>
</a>
</g>
</g>
<!-- Node5&#45;&gt;Node12 -->
<g id="edge12_Node000005_Node000012" class="edge">
<title>Node5&#45;&gt;Node12</title>
<g id="a_edge12_Node000005_Node000012"><a xlink:title=" ">
<path fill="none" stroke="#63b8ff" d="M2122,-115.74C2143.66,-104.99 2172.91,-90.48 2194.27,-79.88"/>
<polygon fill="#63b8ff" stroke="#63b8ff" points="2195.58,-83.14 2202.98,-75.56 2192.47,-76.87 2195.58,-83.14"/>
</a>
</g>
</g>
<!-- Node6&#45;&gt;Node7 -->
<g id="edge6_Node000006_Node000007" class="edge">
<title>Node6&#45;&gt;Node7</title>
<g id="a_edge6_Node000006_Node000007"><a xlink:title=" ">
<path fill="none" stroke="#63b8ff" d="M1988.04,-60.9C1902.24,-51.92 1645.89,-25.1 1547.01,-14.76"/>
<polygon fill="#63b8ff" stroke="#63b8ff" points="1547.57,-11.3 1537.26,-13.74 1546.84,-18.26 1547.57,-11.3"/>
</a>
</g>
</g>
<!-- Node6&#45;&gt;Node8 -->
<g id="edge7_Node000006_Node000008" class="edge">
<title>Node6&#45;&gt;Node8</title>
<g id="a_edge7_Node000006_Node000008"><a xlink:title=" ">
<path fill="none" stroke="#63b8ff" d="M2029.39,-54.84C2040.53,-47.04 2056.87,-35.59 2070.14,-26.29"/>
<polygon fill="#63b8ff" stroke="#63b8ff" points="2072.12,-29.18 2078.3,-20.57 2068.11,-23.44 2072.12,-29.18"/>
</a>
</g>
</g>
<!-- Node9 -->
<g id="Node000009" class="node">
<title>Node9</title>
<g id="a_Node000009"><a xlink:title=" ">
<polygon fill="#e0e0e0" stroke="#999999" points="2045.5,-19.25 1987.5,-19.25 1987.5,0 2045.5,0 2045.5,-19.25"/>
<text text-anchor="middle" x="2016.5" y="-5.75" font-family="Helvetica,sans-Serif" font-size="10.00">functional</text>
</a>
</g>
</g>
<!-- Node6&#45;&gt;Node9 -->
<g id="edge8_Node000006_Node000009" class="edge">
<title>Node6&#45;&gt;Node9</title>
<g id="a_edge8_Node000006_Node000009"><a xlink:title=" ">
<path fill="none" stroke="#63b8ff" d="M2016.5,-55.08C2016.5,-48.57 2016.5,-39.42 2016.5,-31.12"/>
<polygon fill="#63b8ff" stroke="#63b8ff" points="2020,-31.12 2016.5,-21.12 2013,-31.12 2020,-31.12"/>
</a>
</g>
</g>
<!-- Node6&#45;&gt;Node10 -->
<g id="edge9_Node000006_Node000010" class="edge">
<title>Node6&#45;&gt;Node10</title>
<g id="a_edge9_Node000006_Node000010"><a xlink:title=" ">
<path fill="none" stroke="#63b8ff" d="M2045.08,-59.15C2105.68,-49.13 2246.61,-25.82 2308.47,-15.59"/>
<polygon fill="#63b8ff" stroke="#63b8ff" points="2308.96,-19.06 2318.25,-13.97 2307.81,-12.15 2308.96,-19.06"/>
</a>
</g>
</g>
<!-- Node6&#45;&gt;Node11 -->
<g id="edge10_Node000006_Node000011" class="edge">
<title>Node6&#45;&gt;Node11</title>
<g id="a_edge10_Node000006_Node000011"><a xlink:title=" ">
<path fill="none" stroke="#63b8ff" d="M1987.8,-62.82C1806.72,-56.19 823.08,-20.14 605.94,-12.18"/>
<polygon fill="#63b8ff" stroke="#63b8ff" points="606.09,-8.68 595.97,-11.81 605.83,-15.68 606.09,-8.68"/>
</a>
</g>
</g>
</g>
</svg>
