<?xml version="1.0" encoding="UTF-8" standalone="no"?>
<!DOCTYPE svg PUBLIC "-//W3C//DTD SVG 1.1//EN"
 "http://www.w3.org/Graphics/SVG/1.1/DTD/svg11.dtd">
<!-- Generated by graphviz version 12.2.0 (20241103.1931)
 -->
<!-- Title: /github/workspace/sample/mp_units_eigen.cpp Pages: 1 -->
<!--zoomable 293 -->

<svg id="main" version="1.1" xmlns="http://www.w3.org/2000/svg" xmlns:xlink="http://www.w3.org/1999/xlink" xml:space="preserve" onload="init(evt)">

<style type="text/css"><![CDATA[
.node, .edge {opacity: 0.7;}
.node.selected, .edge.selected {opacity: 1;}
.edge:hover path { stroke: red; }
.edge:hover polygon { stroke: red; fill: red; }
]]></style>

<defs>
  <circle id="rim" cx="0" cy="0" r="7"/>
  <circle id="rim2" cx="0" cy="0" r="3.5"/>
  <g id="zoomPlus">
    <use xlink:href="#rim" fill="#404040"><set attributeName="fill" to="#808080" begin="zoomplus.mouseover" end="zoomplus.mouseout"/></use>
    <path d="M-4,0h8M0,-4v8" fill="none" stroke="white" stroke-width="1.5" pointer-events="none"/>
  </g>
  <g id="zoomMin">
    <use xlink:href="#rim" fill="#404040"><set attributeName="fill" to="#808080" begin="zoomminus.mouseover" end="zoomminus.mouseout"/></use>
    <path d="M-4,0h8" fill="none" stroke="white" stroke-width="1.5" pointer-events="none"/>
  </g>
  <g id="arrowUp" transform="translate(30 24)">
    <use xlink:href="#rim"/>
    <path pointer-events="none" fill="none" stroke="white" stroke-width="1.5" d="M0,-3.0v7 M-2.5,-0.5L0,-3.0L2.5,-0.5"/>
  </g>
  <g id="arrowRight" transform="rotate(90) translate(36 -43)">
    <use xlink:href="#rim"/>
    <path pointer-events="none" fill="none" stroke="white" stroke-width="1.5" d="M0,-3.0v7 M-2.5,-0.5L0,-3.0L2.5,-0.5"/>
  </g>
  <g id="arrowDown" transform="rotate(180) translate(-30 -48)">
    <use xlink:href="#rim"/>
    <path pointer-events="none" fill="none" stroke="white" stroke-width="1.5" d="M0,-3.0v7 M-2.5,-0.5L0,-3.0L2.5,-0.5"/>
  </g>
  <g id="arrowLeft" transform="rotate(270) translate(-36 17)">
    <use xlink:href="#rim"/>
    <path pointer-events="none" fill="none" stroke="white" stroke-width="1.5" d="M0,-3.0v7 M-2.5,-0.5L0,-3.0L2.5,-0.5"/>
  </g>
  <g id="resetDef">
    <use xlink:href="#rim2" fill="#404040"><set attributeName="fill" to="#808080" begin="reset.mouseover" end="reset.mouseout"/></use>
  </g>
</defs>
<script type="application/ecmascript">
var viewWidth = 2026;
var viewHeight = 293;
var sectionId = 'dynsection-0';
</script>
<script type="application/ecmascript" xlink:href="svg.min.js"/>
<svg id="graph" class="graph">
<g id="viewport">
<title>/github/workspace/sample/mp_units_eigen.cpp</title>
<!-- Node1 -->
<g id="Node000001" class="node">
<title>Node1</title>
<g id="a_Node000001"><a xlink:title="Unit safe linear algebra with mp&#45;units and Eigen.">
<polygon fill="#999999" stroke="#666666" points="1414.5,-285.25 1284.5,-285.25 1284.5,-254.75 1414.5,-254.75 1414.5,-285.25"/>
<text text-anchor="start" x="1292.5" y="-271.75" font-family="Helvetica,sans-Serif" font-size="10.00">/github/workspace/sample</text>
<text text-anchor="middle" x="1349.5" y="-260.5" font-family="Helvetica,sans-Serif" font-size="10.00">/mp_units_eigen.cpp</text>
</a>
</g>
</g>
<!-- Node2 -->
<g id="Node000002" class="node">
<title>Node2</title>
<g id="a_Node000002"><a xlink:title=" ">
<polygon fill="#e0e0e0" stroke="#999999" points="97,-213.12 0,-213.12 0,-193.88 97,-193.88 97,-213.12"/>
<text text-anchor="middle" x="48.5" y="-199.62" font-family="Helvetica,sans-Serif" font-size="10.00">fcarouge/linalg.hpp</text>
</a>
</g>
</g>
<!-- Node1&#45;&gt;Node2 -->
<g id="edge1_Node000001_Node000002" class="edge">
<title>Node1&#45;&gt;Node2</title>
<g id="a_edge1_Node000001_Node000002"><a xlink:title=" ">
<path fill="none" stroke="#63b8ff" d="M1284.37,-267.92C1063.15,-264.01 341.54,-249.18 111.5,-218.75 105.88,-218.01 100.02,-217 94.23,-215.86"/>
<polygon fill="#63b8ff" stroke="#63b8ff" points="95.27,-212.51 84.77,-213.87 93.83,-219.36 95.27,-212.51"/>
</a>
</g>
</g>
<!-- Node3 -->
<g id="Node000003" class="node">
<title>Node3</title>
<g id="a_Node000003"><a xlink:href="typed__linear__algebra_8hpp.xhtml" target="_top" xlink:title="Typed linear algebra implementation.">
<polygon fill="white" stroke="#666666" points="999.62,-218.75 891.38,-218.75 891.38,-188.25 999.62,-188.25 999.62,-218.75"/>
<text text-anchor="start" x="899.38" y="-205.25" font-family="Helvetica,sans-Serif" font-size="10.00">fcarouge/typed_linear</text>
<text text-anchor="middle" x="945.5" y="-194" font-family="Helvetica,sans-Serif" font-size="10.00">_algebra.hpp</text>
</a>
</g>
</g>
<!-- Node1&#45;&gt;Node3 -->
<g id="edge2_Node000001_Node000003" class="edge">
<title>Node1&#45;&gt;Node3</title>
<g id="a_edge2_Node000001_Node000003"><a xlink:title=" ">
<path fill="none" stroke="#63b8ff" d="M1284.14,-258.57C1209.05,-246.58 1086.54,-227.02 1011.27,-215"/>
<polygon fill="#63b8ff" stroke="#63b8ff" points="1011.99,-211.57 1001.56,-213.45 1010.89,-218.48 1011.99,-211.57"/>
</a>
</g>
</g>
<!-- Node9 -->
<g id="Node000009" class="node">
<title>Node9</title>
<g id="a_Node000009"><a xlink:title=" ">
<polygon fill="#e0e0e0" stroke="#999999" points="1494,-19.25 1457,-19.25 1457,0 1494,0 1494,-19.25"/>
<text text-anchor="middle" x="1475.5" y="-5.75" font-family="Helvetica,sans-Serif" font-size="10.00">tuple</text>
</a>
</g>
</g>
<!-- Node1&#45;&gt;Node9 -->
<g id="edge26_Node000001_Node000009" class="edge">
<title>Node1&#45;&gt;Node9</title>
<g id="a_edge26_Node000001_Node000009"><a xlink:title=" ">
<path fill="none" stroke="#63b8ff" d="M1325.71,-254.44C1301.92,-238.06 1271.29,-210.81 1289.5,-188.25 1337.2,-129.17 1399.07,-201.92 1456.5,-152.25 1490.53,-122.82 1490.45,-99.97 1485.5,-55.25 1484.59,-47.06 1482.78,-38.18 1480.94,-30.51"/>
<polygon fill="#63b8ff" stroke="#63b8ff" points="1484.34,-29.69 1478.45,-20.88 1477.57,-31.44 1484.34,-29.69"/>
</a>
</g>
</g>
<!-- Node10 -->
<g id="Node000010" class="node">
<title>Node10</title>
<g id="a_Node000010"><a xlink:title=" ">
<polygon fill="#e0e0e0" stroke="#999999" points="712,-19.25 651,-19.25 651,0 712,0 712,-19.25"/>
<text text-anchor="middle" x="681.5" y="-5.75" font-family="Helvetica,sans-Serif" font-size="10.00">type_traits</text>
</a>
</g>
</g>
<!-- Node1&#45;&gt;Node10 -->
<g id="edge27_Node000001_Node000010" class="edge">
<title>Node1&#45;&gt;Node10</title>
<g id="a_edge27_Node000001_Node000010"><a xlink:title=" ">
<path fill="none" stroke="#63b8ff" d="M1284.22,-267.56C1071.19,-262.63 404.61,-245.24 311.5,-218.75 252.85,-202.06 229.09,-200.26 191.5,-152.25 164.31,-117.52 140.7,-87.77 170.5,-55.25 201.95,-20.94 522.85,-12.91 639.45,-11.11"/>
<polygon fill="#63b8ff" stroke="#63b8ff" points="639.26,-14.62 649.2,-10.97 639.16,-7.62 639.26,-14.62"/>
</a>
</g>
</g>
<!-- Node12 -->
<g id="Node000012" class="node">
<title>Node12</title>
<g id="a_Node000012"><a xlink:title=" ">
<polygon fill="#e0e0e0" stroke="#999999" points="223.38,-74.5 179.62,-74.5 179.62,-55.25 223.38,-55.25 223.38,-74.5"/>
<text text-anchor="middle" x="201.5" y="-61" font-family="Helvetica,sans-Serif" font-size="10.00">format</text>
</a>
</g>
</g>
<!-- Node1&#45;&gt;Node12 -->
<g id="edge24_Node000001_Node000012" class="edge">
<title>Node1&#45;&gt;Node12</title>
<g id="a_edge24_Node000001_Node000012"><a xlink:title=" ">
<path fill="none" stroke="#63b8ff" d="M1284.27,-267.06C1053.52,-259.57 285.54,-229.03 209.5,-152.25 192.56,-135.14 193.66,-105.71 196.87,-86.02"/>
<polygon fill="#63b8ff" stroke="#63b8ff" points="200.26,-86.94 198.77,-76.45 193.39,-85.58 200.26,-86.94"/>
</a>
</g>
</g>
<!-- Node20 -->
<g id="Node000020" class="node">
<title>Node20</title>
<g id="a_Node000020"><a xlink:title=" ">
<polygon fill="#e0e0e0" stroke="#999999" points="1332.88,-213.12 1298.12,-213.12 1298.12,-193.88 1332.88,-193.88 1332.88,-213.12"/>
<text text-anchor="middle" x="1315.5" y="-199.62" font-family="Helvetica,sans-Serif" font-size="10.00">print</text>
</a>
</g>
</g>
<!-- Node1&#45;&gt;Node20 -->
<g id="edge25_Node000001_Node000020" class="edge">
<title>Node1&#45;&gt;Node20</title>
<g id="a_edge25_Node000001_Node000020"><a xlink:title=" ">
<path fill="none" stroke="#63b8ff" d="M1341.78,-254.36C1336.94,-245.18 1330.66,-233.25 1325.44,-223.36"/>
<polygon fill="#63b8ff" stroke="#63b8ff" points="1328.62,-221.88 1320.86,-214.66 1322.42,-225.14 1328.62,-221.88"/>
</a>
</g>
</g>
<!-- Node21 -->
<g id="Node000021" class="node">
<title>Node21</title>
<g id="a_Node000021"><a xlink:title=" ">
<polygon fill="#e0e0e0" stroke="#999999" points="1418,-213.12 1351,-213.12 1351,-193.88 1418,-193.88 1418,-213.12"/>
<text text-anchor="middle" x="1384.5" y="-199.62" font-family="Helvetica,sans-Serif" font-size="10.00">Eigen/Eigen</text>
</a>
</g>
</g>
<!-- Node1&#45;&gt;Node21 -->
<g id="edge28_Node000001_Node000021" class="edge">
<title>Node1&#45;&gt;Node21</title>
<g id="a_edge28_Node000001_Node000021"><a xlink:title=" ">
<path fill="none" stroke="#63b8ff" d="M1357.44,-254.36C1362.42,-245.18 1368.9,-233.25 1374.26,-223.36"/>
<polygon fill="#63b8ff" stroke="#63b8ff" points="1377.3,-225.11 1378.99,-214.65 1371.14,-221.77 1377.3,-225.11"/>
</a>
</g>
</g>
<!-- Node22 -->
<g id="Node000022" class="node">
<title>Node22</title>
<g id="a_Node000022"><a xlink:title=" ">
<polygon fill="#e0e0e0" stroke="#999999" points="1538.62,-218.75 1436.38,-218.75 1436.38,-188.25 1538.62,-188.25 1538.62,-218.75"/>
<text text-anchor="start" x="1444.38" y="-205.25" font-family="Helvetica,sans-Serif" font-size="10.00">mp&#45;units/framework</text>
<text text-anchor="middle" x="1487.5" y="-194" font-family="Helvetica,sans-Serif" font-size="10.00">/quantity.h</text>
</a>
</g>
</g>
<!-- Node1&#45;&gt;Node22 -->
<g id="edge29_Node000001_Node000022" class="edge">
<title>Node1&#45;&gt;Node22</title>
<g id="a_edge29_Node000001_Node000022"><a xlink:title=" ">
<path fill="none" stroke="#63b8ff" d="M1380.81,-254.36C1400.13,-245.33 1425.14,-233.65 1446.09,-223.86"/>
<polygon fill="#63b8ff" stroke="#63b8ff" points="1447.36,-227.12 1454.94,-219.72 1444.4,-220.78 1447.36,-227.12"/>
</a>
</g>
</g>
<!-- Node23 -->
<g id="Node000023" class="node">
<title>Node23</title>
<g id="a_Node000023"><a xlink:title=" ">
<polygon fill="#e0e0e0" stroke="#999999" points="1658.62,-218.75 1556.38,-218.75 1556.38,-188.25 1658.62,-188.25 1658.62,-218.75"/>
<text text-anchor="start" x="1564.38" y="-205.25" font-family="Helvetica,sans-Serif" font-size="10.00">mp&#45;units/framework</text>
<text text-anchor="middle" x="1607.5" y="-194" font-family="Helvetica,sans-Serif" font-size="10.00">/quantity_point.h</text>
</a>
</g>
</g>
<!-- Node1&#45;&gt;Node23 -->
<g id="edge30_Node000001_Node000023" class="edge">
<title>Node1&#45;&gt;Node23</title>
<g id="a_edge30_Node000001_Node000023"><a xlink:title=" ">
<path fill="none" stroke="#63b8ff" d="M1408.37,-254.28C1449.24,-244.07 1503.6,-230.47 1545.2,-220.08"/>
<polygon fill="#63b8ff" stroke="#63b8ff" points="1545.98,-223.49 1554.83,-217.67 1544.28,-216.7 1545.98,-223.49"/>
</a>
</g>
</g>
<!-- Node24 -->
<g id="Node000024" class="node">
<title>Node24</title>
<g id="a_Node000024"><a xlink:title=" ">
<polygon fill="#e0e0e0" stroke="#999999" points="1762.38,-213.12 1676.62,-213.12 1676.62,-193.88 1762.38,-193.88 1762.38,-213.12"/>
<text text-anchor="middle" x="1719.5" y="-199.62" font-family="Helvetica,sans-Serif" font-size="10.00">mp&#45;units/math.h</text>
</a>
</g>
</g>
<!-- Node1&#45;&gt;Node24 -->
<g id="edge31_Node000001_Node000024" class="edge">
<title>Node1&#45;&gt;Node24</title>
<g id="a_edge31_Node000001_Node000024"><a xlink:title=" ">
<path fill="none" stroke="#63b8ff" d="M1414.75,-260.84C1479.31,-252.26 1580.76,-237.43 1667.5,-218.75 1670.82,-218.03 1674.25,-217.23 1677.69,-216.39"/>
<polygon fill="#63b8ff" stroke="#63b8ff" points="1678.29,-219.85 1687.1,-213.96 1676.54,-213.07 1678.29,-219.85"/>
</a>
</g>
</g>
<!-- Node25 -->
<g id="Node000025" class="node">
<title>Node25</title>
<g id="a_Node000025"><a xlink:title=" ">
<polygon fill="#e0e0e0" stroke="#999999" points="1889,-218.75 1780,-218.75 1780,-188.25 1889,-188.25 1889,-218.75"/>
<text text-anchor="start" x="1788" y="-205.25" font-family="Helvetica,sans-Serif" font-size="10.00">mp&#45;units/systems/isq</text>
<text text-anchor="middle" x="1834.5" y="-194" font-family="Helvetica,sans-Serif" font-size="10.00">/thermodynamics.h</text>
</a>
</g>
</g>
<!-- Node1&#45;&gt;Node25 -->
<g id="edge32_Node000001_Node000025" class="edge">
<title>Node1&#45;&gt;Node25</title>
<g id="a_edge32_Node000001_Node000025"><a xlink:title=" ">
<path fill="none" stroke="#63b8ff" d="M1414.87,-263.34C1495.8,-255.86 1638.03,-241.17 1768.61,-219.15"/>
<polygon fill="#63b8ff" stroke="#63b8ff" points="1768.83,-222.66 1778.1,-217.53 1767.65,-215.76 1768.83,-222.66"/>
</a>
</g>
</g>
<!-- Node26 -->
<g id="Node000026" class="node">
<title>Node26</title>
<g id="a_Node000026"><a xlink:title=" ">
<polygon fill="#e0e0e0" stroke="#999999" points="2018.12,-213.12 1906.88,-213.12 1906.88,-193.88 2018.12,-193.88 2018.12,-213.12"/>
<text text-anchor="middle" x="1962.5" y="-199.62" font-family="Helvetica,sans-Serif" font-size="10.00">mp&#45;units/systems/si.h</text>
</a>
</g>
</g>
<!-- Node1&#45;&gt;Node26 -->
<g id="edge33_Node000001_Node000026" class="edge">
<title>Node1&#45;&gt;Node26</title>
<g id="a_edge33_Node000001_Node000026"><a xlink:title=" ">
<path fill="none" stroke="#63b8ff" d="M1414.91,-265.72C1518.14,-259.94 1724.98,-245.89 1898.5,-218.75 1903.71,-217.94 1909.13,-216.95 1914.51,-215.88"/>
<polygon fill="#63b8ff" stroke="#63b8ff" points="1914.87,-219.38 1923.95,-213.91 1913.44,-212.53 1914.87,-219.38"/>
</a>
</g>
</g>
<!-- Node4 -->
<g id="Node000004" class="node">
<title>Node4</title>
<g id="a_Node000004"><a xlink:href="typed__linear__algebra__forward_8hpp.xhtml" target="_top" xlink:title="Authoritative forward declaration header.">
<polygon fill="white" stroke="#666666" points="1248.75,-146.62 1144.25,-146.62 1144.25,-116.12 1248.75,-116.12 1248.75,-146.62"/>
<text text-anchor="start" x="1152.25" y="-133.12" font-family="Helvetica,sans-Serif" font-size="10.00">typed_linear_algebra</text>
<text text-anchor="middle" x="1196.5" y="-121.88" font-family="Helvetica,sans-Serif" font-size="10.00">_forward.hpp</text>
</a>
</g>
</g>
<!-- Node3&#45;&gt;Node4 -->
<g id="edge3_Node000003_Node000004" class="edge">
<title>Node3&#45;&gt;Node4</title>
<g id="a_edge3_Node000003_Node000004"><a xlink:title=" ">
<path fill="none" stroke="#63b8ff" d="M999.78,-189.01C1037.9,-179.33 1090.01,-165.66 1135.5,-152.25 1137.46,-151.67 1139.45,-151.08 1141.46,-150.47"/>
<polygon fill="#63b8ff" stroke="#63b8ff" points="1142.32,-153.86 1150.83,-147.56 1140.25,-147.18 1142.32,-153.86"/>
</a>
</g>
</g>
<!-- Node5 -->
<g id="Node000005" class="node">
<title>Node5</title>
<g id="a_Node000005"><a xlink:href="format_8hpp.xhtml" target="_top" xlink:title="Formatting support for the typed matrix.">
<polygon fill="white" stroke="#666666" points="1371.75,-146.62 1267.25,-146.62 1267.25,-116.12 1371.75,-116.12 1371.75,-146.62"/>
<text text-anchor="start" x="1275.25" y="-133.12" font-family="Helvetica,sans-Serif" font-size="10.00">typed_linear_algebra</text>
<text text-anchor="middle" x="1319.5" y="-121.88" font-family="Helvetica,sans-Serif" font-size="10.00">_internal/format.hpp</text>
</a>
</g>
</g>
<!-- Node3&#45;&gt;Node5 -->
<g id="edge4_Node000003_Node000005" class="edge">
<title>Node3&#45;&gt;Node5</title>
<g id="a_edge4_Node000003_Node000005"><a xlink:title=" ">
<path fill="none" stroke="#63b8ff" d="M1000.1,-196.24C1062.77,-188.46 1168.39,-173.58 1257.5,-152.25 1260.1,-151.63 1262.74,-150.95 1265.41,-150.24"/>
<polygon fill="#63b8ff" stroke="#63b8ff" points="1266.26,-153.63 1274.92,-147.53 1264.34,-146.9 1266.26,-153.63"/>
</a>
</g>
</g>
<!-- Node6 -->
<g id="Node000006" class="node">
<title>Node6</title>
<g id="a_Node000006"><a xlink:href="utility_8hpp.xhtml" target="_top" xlink:title=" ">
<polygon fill="white" stroke="#666666" points="1343.75,-74.5 1287.25,-74.5 1287.25,-55.25 1343.75,-55.25 1343.75,-74.5"/>
<text text-anchor="middle" x="1315.5" y="-61" font-family="Helvetica,sans-Serif" font-size="10.00">utility.hpp</text>
</a>
</g>
</g>
<!-- Node3&#45;&gt;Node6 -->
<g id="edge12_Node000003_Node000006" class="edge">
<title>Node3&#45;&gt;Node6</title>
<g id="a_edge12_Node000003_Node000006"><a xlink:title=" ">
<path fill="none" stroke="#63b8ff" d="M891.07,-202.67C736.15,-202.59 301.25,-198.24 258.5,-152.25 245.87,-138.66 245.66,-123.89 258.5,-110.5 294.33,-73.12 1087.44,-66.97 1275.69,-66.03"/>
<polygon fill="#63b8ff" stroke="#63b8ff" points="1275.45,-69.53 1285.43,-65.99 1275.42,-62.53 1275.45,-69.53"/>
</a>
</g>
</g>
<!-- Node7 -->
<g id="Node000007" class="node">
<title>Node7</title>
<g id="a_Node000007"><a xlink:title=" ">
<polygon fill="#e0e0e0" stroke="#999999" points="1429.38,-19.25 1373.62,-19.25 1373.62,0 1429.38,0 1429.38,-19.25"/>
<text text-anchor="middle" x="1401.5" y="-5.75" font-family="Helvetica,sans-Serif" font-size="10.00">concepts</text>
</a>
</g>
</g>
<!-- Node3&#45;&gt;Node7 -->
<g id="edge13_Node000003_Node000007" class="edge">
<title>Node3&#45;&gt;Node7</title>
<g id="a_edge13_Node000003_Node000007"><a xlink:title=" ">
<path fill="none" stroke="#63b8ff" d="M999.73,-200.03C1114.14,-194.34 1372.12,-178.69 1401.5,-152.25 1434.04,-122.98 1426.42,-98.3 1418.5,-55.25 1416.93,-46.7 1413.79,-37.66 1410.63,-29.97"/>
<polygon fill="#63b8ff" stroke="#63b8ff" points="1413.89,-28.68 1406.64,-20.96 1407.49,-31.52 1413.89,-28.68"/>
</a>
</g>
</g>
<!-- Node3&#45;&gt;Node9 -->
<g id="edge17_Node000003_Node000009" class="edge">
<title>Node3&#45;&gt;Node9</title>
<g id="a_edge17_Node000003_Node000009"><a xlink:title=" ">
<path fill="none" stroke="#63b8ff" d="M999.88,-200.11C1118.93,-194.41 1394.63,-178.5 1427.5,-152.25 1464.94,-122.35 1473.34,-61.94 1475.12,-30.57"/>
<polygon fill="#63b8ff" stroke="#63b8ff" points="1478.6,-31.04 1475.48,-20.92 1471.61,-30.78 1478.6,-31.04"/>
</a>
</g>
</g>
<!-- Node11 -->
<g id="Node000011" class="node">
<title>Node11</title>
<g id="a_Node000011"><a xlink:title=" ">
<polygon fill="#e0e0e0" stroke="#999999" points="1409.62,-74.5 1361.38,-74.5 1361.38,-55.25 1409.62,-55.25 1409.62,-74.5"/>
<text text-anchor="middle" x="1385.5" y="-61" font-family="Helvetica,sans-Serif" font-size="10.00">cstddef</text>
</a>
</g>
</g>
<!-- Node3&#45;&gt;Node11 -->
<g id="edge14_Node000003_Node000011" class="edge">
<title>Node3&#45;&gt;Node11</title>
<g id="a_edge14_Node000003_Node000011"><a xlink:title=" ">
<path fill="none" stroke="#63b8ff" d="M1000.07,-200.06C1111.05,-194.55 1354.79,-179.47 1380.5,-152.25 1396.99,-134.79 1394.83,-105.44 1390.89,-85.87"/>
<polygon fill="#63b8ff" stroke="#63b8ff" points="1394.35,-85.29 1388.63,-76.36 1387.53,-86.9 1394.35,-85.29"/>
</a>
</g>
</g>
<!-- Node3&#45;&gt;Node12 -->
<g id="edge15_Node000003_Node000012" class="edge">
<title>Node3&#45;&gt;Node12</title>
<g id="a_edge15_Node000003_Node000012"><a xlink:title=" ">
<path fill="none" stroke="#63b8ff" d="M890.89,-201.67C735.34,-198.88 297.72,-187.9 244.5,-152.25 221.91,-137.12 210.68,-106.45 205.49,-86.03"/>
<polygon fill="#63b8ff" stroke="#63b8ff" points="208.92,-85.34 203.31,-76.35 202.09,-86.87 208.92,-85.34"/>
</a>
</g>
</g>
<!-- Node13 -->
<g id="Node000013" class="node">
<title>Node13</title>
<g id="a_Node000013"><a xlink:title=" ">
<polygon fill="#e0e0e0" stroke="#999999" points="339.25,-141 267.75,-141 267.75,-121.75 339.25,-121.75 339.25,-141"/>
<text text-anchor="middle" x="303.5" y="-127.5" font-family="Helvetica,sans-Serif" font-size="10.00">initializer_list</text>
</a>
</g>
</g>
<!-- Node3&#45;&gt;Node13 -->
<g id="edge16_Node000003_Node000013" class="edge">
<title>Node3&#45;&gt;Node13</title>
<g id="a_edge16_Node000003_Node000013"><a xlink:title=" ">
<path fill="none" stroke="#63b8ff" d="M891.08,-200.23C763.92,-194.54 450.41,-178.27 348.5,-152.25 342.4,-150.69 336.08,-148.38 330.17,-145.88"/>
<polygon fill="#63b8ff" stroke="#63b8ff" points="332.05,-142.89 321.5,-141.93 329.14,-149.26 332.05,-142.89"/>
</a>
</g>
</g>
<!-- Node14 -->
<g id="Node000014" class="node">
<title>Node14</title>
<g id="a_Node000014"><a xlink:title=" ">
<polygon fill="#e0e0e0" stroke="#999999" points="395.75,-141 357.25,-141 357.25,-121.75 395.75,-121.75 395.75,-141"/>
<text text-anchor="middle" x="376.5" y="-127.5" font-family="Helvetica,sans-Serif" font-size="10.00">utility</text>
</a>
</g>
</g>
<!-- Node3&#45;&gt;Node14 -->
<g id="edge18_Node000003_Node000014" class="edge">
<title>Node3&#45;&gt;Node14</title>
<g id="a_edge18_Node000003_Node000014"><a xlink:title=" ">
<path fill="none" stroke="#63b8ff" d="M891.11,-200.9C772.43,-196.86 493.83,-184.17 405.5,-152.25 402.32,-151.1 399.17,-149.52 396.17,-147.75"/>
<polygon fill="#63b8ff" stroke="#63b8ff" points="398.27,-144.95 388.04,-142.19 394.32,-150.73 398.27,-144.95"/>
</a>
</g>
</g>
<!-- Node15 -->
<g id="Node000015" class="node">
<title>Node15</title>
<g id="a_Node000015"><a xlink:title=" ">
<polygon fill="#e0e0e0" stroke="#999999" points="568.88,-146.62 414.12,-146.62 414.12,-116.12 568.88,-116.12 568.88,-146.62"/>
<text text-anchor="start" x="422.12" y="-133.12" font-family="Helvetica,sans-Serif" font-size="10.00">typed_linear_algebra</text>
<text text-anchor="middle" x="491.5" y="-121.88" font-family="Helvetica,sans-Serif" font-size="10.00">_internal/algorithm/substract.tpp</text>
</a>
</g>
</g>
<!-- Node3&#45;&gt;Node15 -->
<g id="edge19_Node000003_Node000015" class="edge">
<title>Node3&#45;&gt;Node15</title>
<g id="a_edge19_Node000003_Node000015"><a xlink:title=" ">
<path fill="none" stroke="#63b8ff" d="M891.16,-196.58C819.31,-188.41 688.9,-172.38 578.5,-152.25 573.65,-151.37 568.67,-150.4 563.65,-149.37"/>
<polygon fill="#63b8ff" stroke="#63b8ff" points="564.66,-146.01 554.16,-147.38 563.22,-152.86 564.66,-146.01"/>
</a>
</g>
</g>
<!-- Node16 -->
<g id="Node000016" class="node">
<title>Node16</title>
<g id="a_Node000016"><a xlink:title=" ">
<polygon fill="#e0e0e0" stroke="#999999" points="749.62,-146.62 587.38,-146.62 587.38,-116.12 749.62,-116.12 749.62,-146.62"/>
<text text-anchor="start" x="595.38" y="-133.12" font-family="Helvetica,sans-Serif" font-size="10.00">typed_linear_algebra</text>
<text text-anchor="middle" x="668.5" y="-121.88" font-family="Helvetica,sans-Serif" font-size="10.00">_internal/algorithm/transposed.tpp</text>
</a>
</g>
</g>
<!-- Node3&#45;&gt;Node16 -->
<g id="edge20_Node000003_Node000016" class="edge">
<title>Node3&#45;&gt;Node16</title>
<g id="a_edge20_Node000003_Node000016"><a xlink:title=" ">
<path fill="none" stroke="#63b8ff" d="M891.1,-188.73C847.2,-177.61 785.15,-161.91 737.71,-149.89"/>
<polygon fill="#63b8ff" stroke="#63b8ff" points="738.61,-146.51 728.06,-147.45 736.9,-153.3 738.61,-146.51"/>
</a>
</g>
</g>
<!-- Node17 -->
<g id="Node000017" class="node">
<title>Node17</title>
<g id="a_Node000017"><a xlink:title=" ">
<polygon fill="#e0e0e0" stroke="#999999" points="871.75,-146.62 767.25,-146.62 767.25,-116.12 871.75,-116.12 871.75,-146.62"/>
<text text-anchor="start" x="775.25" y="-133.12" font-family="Helvetica,sans-Serif" font-size="10.00">typed_linear_algebra</text>
<text text-anchor="middle" x="819.5" y="-121.88" font-family="Helvetica,sans-Serif" font-size="10.00">_internal/cast.tpp</text>
</a>
</g>
</g>
<!-- Node3&#45;&gt;Node17 -->
<g id="edge21_Node000003_Node000017" class="edge">
<title>Node3&#45;&gt;Node17</title>
<g id="a_edge21_Node000003_Node000017"><a xlink:title=" ">
<path fill="none" stroke="#63b8ff" d="M919.09,-187.8C900.69,-177.56 875.92,-163.78 855.69,-152.52"/>
<polygon fill="#63b8ff" stroke="#63b8ff" points="857.64,-149.6 847.2,-147.79 854.24,-155.71 857.64,-149.6"/>
</a>
</g>
</g>
<!-- Node18 -->
<g id="Node000018" class="node">
<title>Node18</title>
<g id="a_Node000018"><a xlink:title=" ">
<polygon fill="#e0e0e0" stroke="#999999" points="1001.12,-146.62 889.88,-146.62 889.88,-116.12 1001.12,-116.12 1001.12,-146.62"/>
<text text-anchor="start" x="897.88" y="-133.12" font-family="Helvetica,sans-Serif" font-size="10.00">typed_linear_algebra</text>
<text text-anchor="middle" x="945.5" y="-121.88" font-family="Helvetica,sans-Serif" font-size="10.00">_internal/operation.tpp</text>
</a>
</g>
</g>
<!-- Node3&#45;&gt;Node18 -->
<g id="edge22_Node000003_Node000018" class="edge">
<title>Node3&#45;&gt;Node18</title>
<g id="a_edge22_Node000003_Node000018"><a xlink:title=" ">
<path fill="none" stroke="#63b8ff" d="M945.5,-187.97C945.5,-179.41 945.5,-168.34 945.5,-158.33"/>
<polygon fill="#63b8ff" stroke="#63b8ff" points="949,-158.4 945.5,-148.4 942,-158.4 949,-158.4"/>
</a>
</g>
</g>
<!-- Node19 -->
<g id="Node000019" class="node">
<title>Node19</title>
<g id="a_Node000019"><a xlink:title=" ">
<polygon fill="#e0e0e0" stroke="#999999" points="1126.25,-152.25 1018.75,-152.25 1018.75,-110.5 1126.25,-110.5 1126.25,-152.25"/>
<text text-anchor="start" x="1026.75" y="-138.75" font-family="Helvetica,sans-Serif" font-size="10.00">typed_linear_algebra</text>
<text text-anchor="start" x="1026.75" y="-127.5" font-family="Helvetica,sans-Serif" font-size="10.00">_internal/typed_linear</text>
<text text-anchor="middle" x="1072.5" y="-116.25" font-family="Helvetica,sans-Serif" font-size="10.00">_algebra.tpp</text>
</a>
</g>
</g>
<!-- Node3&#45;&gt;Node19 -->
<g id="edge23_Node000003_Node000019" class="edge">
<title>Node3&#45;&gt;Node19</title>
<g id="a_edge23_Node000003_Node000019"><a xlink:title=" ">
<path fill="none" stroke="#63b8ff" d="M972.12,-187.8C987.71,-179.19 1007.84,-168.08 1025.97,-158.07"/>
<polygon fill="#63b8ff" stroke="#63b8ff" points="1027.41,-161.27 1034.47,-153.37 1024.03,-155.14 1027.41,-161.27"/>
</a>
</g>
</g>
<!-- Node5&#45;&gt;Node6 -->
<g id="edge5_Node000005_Node000006" class="edge">
<title>Node5&#45;&gt;Node6</title>
<g id="a_edge5_Node000005_Node000006"><a xlink:title=" ">
<path fill="none" stroke="#63b8ff" d="M1318.59,-115.74C1318.05,-106.95 1317.35,-95.65 1316.75,-86.03"/>
<polygon fill="#63b8ff" stroke="#63b8ff" points="1320.25,-85.97 1316.14,-76.21 1313.27,-86.41 1320.25,-85.97"/>
</a>
</g>
</g>
<!-- Node5&#45;&gt;Node11 -->
<g id="edge10_Node000005_Node000011" class="edge">
<title>Node5&#45;&gt;Node11</title>
<g id="a_edge10_Node000005_Node000011"><a xlink:title=" ">
<path fill="none" stroke="#63b8ff" d="M1334.48,-115.74C1344.58,-105.87 1357.93,-92.82 1368.44,-82.54"/>
<polygon fill="#63b8ff" stroke="#63b8ff" points="1370.68,-85.25 1375.39,-75.76 1365.79,-80.24 1370.68,-85.25"/>
</a>
</g>
</g>
<!-- Node5&#45;&gt;Node12 -->
<g id="edge11_Node000005_Node000012" class="edge">
<title>Node5&#45;&gt;Node12</title>
<g id="a_edge11_Node000005_Node000012"><a xlink:title=" ">
<path fill="none" stroke="#63b8ff" d="M1278.87,-115.65C1271.83,-113.59 1264.51,-111.75 1257.5,-110.5 1054.14,-74.29 391.75,-67.25 234.98,-66.09"/>
<polygon fill="#63b8ff" stroke="#63b8ff" points="235.31,-62.59 225.29,-66.02 235.26,-69.59 235.31,-62.59"/>
</a>
</g>
</g>
<!-- Node6&#45;&gt;Node7 -->
<g id="edge6_Node000006_Node000007" class="edge">
<title>Node6&#45;&gt;Node7</title>
<g id="a_edge6_Node000006_Node000007"><a xlink:title=" ">
<path fill="none" stroke="#63b8ff" d="M1330.09,-54.84C1342.94,-46.89 1361.91,-35.14 1377.07,-25.75"/>
<polygon fill="#63b8ff" stroke="#63b8ff" points="1378.89,-28.74 1385.55,-20.5 1375.21,-22.79 1378.89,-28.74"/>
</a>
</g>
</g>
<!-- Node8 -->
<g id="Node000008" class="node">
<title>Node8</title>
<g id="a_Node000008"><a xlink:title=" ">
<polygon fill="#e0e0e0" stroke="#999999" points="1344.5,-19.25 1286.5,-19.25 1286.5,0 1344.5,0 1344.5,-19.25"/>
<text text-anchor="middle" x="1315.5" y="-5.75" font-family="Helvetica,sans-Serif" font-size="10.00">functional</text>
</a>
</g>
</g>
<!-- Node6&#45;&gt;Node8 -->
<g id="edge7_Node000006_Node000008" class="edge">
<title>Node6&#45;&gt;Node8</title>
<g id="a_edge7_Node000006_Node000008"><a xlink:title=" ">
<path fill="none" stroke="#63b8ff" d="M1315.5,-55.08C1315.5,-48.57 1315.5,-39.42 1315.5,-31.12"/>
<polygon fill="#63b8ff" stroke="#63b8ff" points="1319,-31.12 1315.5,-21.12 1312,-31.12 1319,-31.12"/>
</a>
</g>
</g>
<!-- Node6&#45;&gt;Node9 -->
<g id="edge8_Node000006_Node000009" class="edge">
<title>Node6&#45;&gt;Node9</title>
<g id="a_edge8_Node000006_Node000009"><a xlink:title=" ">
<path fill="none" stroke="#63b8ff" d="M1342.64,-54.84C1371.29,-45.31 1416.31,-30.32 1445.87,-20.49"/>
<polygon fill="#63b8ff" stroke="#63b8ff" points="1446.93,-23.82 1455.31,-17.34 1444.72,-17.18 1446.93,-23.82"/>
</a>
</g>
</g>
<!-- Node6&#45;&gt;Node10 -->
<g id="edge9_Node000006_Node000010" class="edge">
<title>Node6&#45;&gt;Node10</title>
<g id="a_edge9_Node000006_Node000010"><a xlink:title=" ">
<path fill="none" stroke="#63b8ff" d="M1287.03,-61.48C1185.94,-52.99 843.96,-24.27 723.73,-14.17"/>
<polygon fill="#63b8ff" stroke="#63b8ff" points="724.24,-10.7 713.98,-13.35 723.65,-17.68 724.24,-10.7"/>
</a>
</g>
</g>
</g>
</svg>

<g id="navigator" transform="translate(0 0)" fill="#404254">
  <rect fill="#f2f5e9" fill-opacity="0.5" stroke="#606060" stroke-width=".5" x="0" y="0" width="60" height="60"/>
  <use id="zoomplus" xlink:href="#zoomPlus" x="17" y="9" onmousedown="handleZoom(evt,'in')"/>
  <use id="zoomminus" xlink:href="#zoomMin" x="42" y="9" onmousedown="handleZoom(evt,'out')"/>
  <use id="reset" xlink:href="#resetDef" x="30" y="36" onmousedown="handleReset()"/>
   <use id="arrowup" xlink:href="#arrowUp" x="0" y="0" onmousedown="handlePan(0,-1)"/>
  <use id="arrowright" xlink:href="#arrowRight" x="0" y="0" onmousedown="handlePan(1,0)"/>
  <use id="arrowdown" xlink:href="#arrowDown" x="0" y="0" onmousedown="handlePan(0,1)"/>
  <use id="arrowleft" xlink:href="#arrowLeft" x="0" y="0" onmousedown="handlePan(-1,0)"/>
</g>
<svg viewBox="0 0 15 15" width="100%" height="30px" preserveAspectRatio="xMaxYMin meet">
 <g id="arrow_out" transform="scale(0.3 0.3)">
  <a xlink:href="mp__units__eigen_8cpp__incl_org.svg" target="_base">
   <rect id="button" ry="5" rx="5" y="6" x="6" height="38" width="38"
        fill="#f2f5e9" fill-opacity="0.5" stroke="#606060" stroke-width="1.0"/>
   <path id="arrow"
     d="M 11.500037,31.436501 C 11.940474,20.09759 22.043105,11.32322 32.158766,21.979434 L 37.068811,17.246167 C 37.068811,17.246167 37.088388,32 37.088388,32 L 22.160133,31.978069 C 22.160133,31.978069 26.997745,27.140456 26.997745,27.140456 C 18.528582,18.264221 13.291696,25.230495 11.500037,31.436501 z"
     style="fill:#404040;"/>
  </a>
 </g>
</svg>

<style type='text/css'>
<![CDATA[
[data-mouse-over-selected='false'] { opacity: 0.7; }
[data-mouse-over-selected='true']  { opacity: 1.0; }
]]>
</style>
<script type="application/ecmascript"><![CDATA[
document.addEventListener('DOMContentLoaded', (event) => {
  highlightEdges();
  highlightAdjacentNodes();
});
]]></script>
</svg>
