<?xml version="1.0" encoding="UTF-8" standalone="no"?>
<!DOCTYPE svg PUBLIC "-//W3C//DTD SVG 1.1//EN"
 "http://www.w3.org/Graphics/SVG/1.1/DTD/svg11.dtd">
<!-- Generated by graphviz version 12.2.0 (20241103.1931)
 -->
<!-- Title: fcarouge::typed_linear_algebra_internal::for_constexpr Pages: 1 -->
<svg width="297pt" height="73pt"
 viewBox="0.00 0.00 297.25 73.38" xmlns="http://www.w3.org/2000/svg" xmlns:xlink="http://www.w3.org/1999/xlink">
<g id="graph0" class="graph" transform="scale(1 1) rotate(0) translate(4 69.38)">
<title>fcarouge::typed_linear_algebra_internal::for_constexpr</title>
<!-- Node1 -->
<g id="Node000001" class="node">
<title>Node1</title>
<g id="a_Node000001"><a xlink:title=" ">
<polygon fill="#999999" stroke="#666666" points="289.25,-47.38 179.5,-47.38 179.5,-5.62 289.25,-5.62 289.25,-47.38"/>
<text text-anchor="start" x="187.5" y="-33.88" font-family="Helvetica,sans-Serif" font-size="10.00">fcarouge::typed_linear</text>
<text text-anchor="start" x="187.5" y="-22.62" font-family="Helvetica,sans-Serif" font-size="10.00">_algebra_internal::for</text>
<text text-anchor="middle" x="234.38" y="-11.38" font-family="Helvetica,sans-Serif" font-size="10.00">_constexpr</text>
</a>
</g>
</g>
<!-- Node1&#45;&gt;Node1 -->
<g id="edge1_Node000001_Node000001" class="edge">
<title>Node1&#45;&gt;Node1</title>
<g id="a_edge1_Node000001_Node000001"><a xlink:title=" ">
<path fill="none" stroke="#63b8ff" d="M261.14,-58.49C256.52,-62.63 247.6,-65.38 234.38,-65.38 211.51,-65.38 201.5,-57.17 204.36,-47.69"/>
<polygon fill="#63b8ff" stroke="#63b8ff" points="264.42,-59.73 263.95,-49.14 257.72,-57.71 264.42,-59.73"/>
</a>
</g>
</g>
<!-- Node2 -->
<g id="Node000002" class="node">
<title>Node2</title>
<g id="a_Node000002"><a xlink:href="structstd_1_1formatter_3_01fcarouge_1_1typed__matrix_3_01_matrix_00_01_row_indexes_00_01_column_indexes_01_4_00_01_char_01_4.xhtml#a14b7d7cda2581a261697330c9d2c113d" target="_top" xlink:title=" ">
<polygon fill="white" stroke="#666666" points="143.5,-53 0,-53 0,0 143.5,0 143.5,-53"/>
<text text-anchor="start" x="8" y="-39.5" font-family="Helvetica,sans-Serif" font-size="10.00">std::formatter&lt; fcarouge</text>
<text text-anchor="start" x="8" y="-28.25" font-family="Helvetica,sans-Serif" font-size="10.00">::typed_matrix&lt; Matrix,</text>
<text text-anchor="start" x="8" y="-17" font-family="Helvetica,sans-Serif" font-size="10.00"> RowIndexes, ColumnIndexes</text>
<text text-anchor="middle" x="71.75" y="-5.75" font-family="Helvetica,sans-Serif" font-size="10.00"> &gt;, Char &gt;::format</text>
</a>
</g>
</g>
<!-- Node1&#45;&gt;Node2 -->
<g id="edge2_Node000001_Node000002" class="edge">
<title>Node1&#45;&gt;Node2</title>
<g id="a_edge2_Node000001_Node000002"><a xlink:title=" ">
<path fill="none" stroke="#63b8ff" d="M168.01,-26.5C160.08,-26.5 151.95,-26.5 143.94,-26.5"/>
<polygon fill="#63b8ff" stroke="#63b8ff" points="167.93,-30 177.93,-26.5 167.93,-23 167.93,-30"/>
</a>
</g>
</g>
</g>
</svg>
