<?xml version="1.0" encoding="UTF-8" standalone="no"?>
<!DOCTYPE svg PUBLIC "-//W3C//DTD SVG 1.1//EN"
 "http://www.w3.org/Graphics/SVG/1.1/DTD/svg11.dtd">
<!-- Generated by graphviz version 12.2.0 (20241103.1931)
 -->
<!-- Title: /github/workspace/support/nested_typed_eigen/fcarouge/linalg.hpp Pages: 1 -->
<!--zoomable 371 -->

<svg id="main" version="1.1" xmlns="http://www.w3.org/2000/svg" xmlns:xlink="http://www.w3.org/1999/xlink" xml:space="preserve" onload="init(evt)">

<style type="text/css"><![CDATA[
.node, .edge {opacity: 0.7;}
.node.selected, .edge.selected {opacity: 1;}
.edge:hover path { stroke: red; }
.edge:hover polygon { stroke: red; fill: red; }
]]></style>

<defs>
  <circle id="rim" cx="0" cy="0" r="7"/>
  <circle id="rim2" cx="0" cy="0" r="3.5"/>
  <g id="zoomPlus">
    <use xlink:href="#rim" fill="#404040"><set attributeName="fill" to="#808080" begin="zoomplus.mouseover" end="zoomplus.mouseout"/></use>
    <path d="M-4,0h8M0,-4v8" fill="none" stroke="white" stroke-width="1.5" pointer-events="none"/>
  </g>
  <g id="zoomMin">
    <use xlink:href="#rim" fill="#404040"><set attributeName="fill" to="#808080" begin="zoomminus.mouseover" end="zoomminus.mouseout"/></use>
    <path d="M-4,0h8" fill="none" stroke="white" stroke-width="1.5" pointer-events="none"/>
  </g>
  <g id="arrowUp" transform="translate(30 24)">
    <use xlink:href="#rim"/>
    <path pointer-events="none" fill="none" stroke="white" stroke-width="1.5" d="M0,-3.0v7 M-2.5,-0.5L0,-3.0L2.5,-0.5"/>
  </g>
  <g id="arrowRight" transform="rotate(90) translate(36 -43)">
    <use xlink:href="#rim"/>
    <path pointer-events="none" fill="none" stroke="white" stroke-width="1.5" d="M0,-3.0v7 M-2.5,-0.5L0,-3.0L2.5,-0.5"/>
  </g>
  <g id="arrowDown" transform="rotate(180) translate(-30 -48)">
    <use xlink:href="#rim"/>
    <path pointer-events="none" fill="none" stroke="white" stroke-width="1.5" d="M0,-3.0v7 M-2.5,-0.5L0,-3.0L2.5,-0.5"/>
  </g>
  <g id="arrowLeft" transform="rotate(270) translate(-36 17)">
    <use xlink:href="#rim"/>
    <path pointer-events="none" fill="none" stroke="white" stroke-width="1.5" d="M0,-3.0v7 M-2.5,-0.5L0,-3.0L2.5,-0.5"/>
  </g>
  <g id="resetDef">
    <use xlink:href="#rim2" fill="#404040"><set attributeName="fill" to="#808080" begin="reset.mouseover" end="reset.mouseout"/></use>
  </g>
</defs>
<script type="application/ecmascript">
var viewWidth = 2346;
var viewHeight = 371;
var sectionId = 'dynsection-0';
</script>
<script type="application/ecmascript" xlink:href="svg.min.js"/>
<svg id="graph" class="graph">
<g id="viewport">
<title>/github/workspace/support/nested_typed_eigen/fcarouge/linalg.hpp</title>
<!-- Node1 -->
<g id="Node000001" class="node">
<title>Node1</title>
<g id="a_Node000001"><a xlink:title="Scalar type nested linear algebra with Eigen implementation.">
<polygon fill="#999999" stroke="#666666" points="1244.38,-363 1098.62,-363 1098.62,-321.25 1244.38,-321.25 1244.38,-363"/>
<text text-anchor="start" x="1106.62" y="-349.5" font-family="Helvetica,sans-Serif" font-size="10.00">/github/workspace/support</text>
<text text-anchor="start" x="1106.62" y="-338.25" font-family="Helvetica,sans-Serif" font-size="10.00">/nested_typed_eigen/fcarouge</text>
<text text-anchor="middle" x="1171.5" y="-327" font-family="Helvetica,sans-Serif" font-size="10.00">/linalg.hpp</text>
</a>
</g>
</g>
<!-- Node2 -->
<g id="Node000002" class="node">
<title>Node2</title>
<g id="a_Node000002"><a xlink:href="eigen_8hpp.xhtml" target="_top" xlink:title="Linear algebra facade for Eigen3 third party implementation.">
<polygon fill="white" stroke="#666666" points="294.38,-285.25 196.62,-285.25 196.62,-266 294.38,-266 294.38,-285.25"/>
<text text-anchor="middle" x="245.5" y="-271.75" font-family="Helvetica,sans-Serif" font-size="10.00">fcarouge/eigen.hpp</text>
</a>
</g>
</g>
<!-- Node1&#45;&gt;Node2 -->
<g id="edge1_Node000001_Node000002" class="edge">
<title>Node1&#45;&gt;Node2</title>
<g id="a_edge1_Node000001_Node000002"><a xlink:title=" ">
<path fill="none" stroke="#63b8ff" d="M1098.45,-336.04C920.99,-323.68 469.77,-292.25 306.03,-280.84"/>
<polygon fill="#63b8ff" stroke="#63b8ff" points="306.48,-277.36 296.26,-280.16 305.99,-284.35 306.48,-277.36"/>
</a>
</g>
</g>
<!-- Node3 -->
<g id="Node000003" class="node">
<title>Node3</title>
<g id="a_Node000003"><a xlink:href="typed__linear__algebra_8hpp.xhtml" target="_top" xlink:title="Typed linear algebra implementation.">
<polygon fill="white" stroke="#666666" points="1225.62,-230 1117.38,-230 1117.38,-199.5 1225.62,-199.5 1225.62,-230"/>
<text text-anchor="start" x="1125.38" y="-216.5" font-family="Helvetica,sans-Serif" font-size="10.00">fcarouge/typed_linear</text>
<text text-anchor="middle" x="1171.5" y="-205.25" font-family="Helvetica,sans-Serif" font-size="10.00">_algebra.hpp</text>
</a>
</g>
</g>
<!-- Node1&#45;&gt;Node3 -->
<g id="edge40_Node000001_Node000003" class="edge">
<title>Node1&#45;&gt;Node3</title>
<g id="a_edge40_Node000001_Node000003"><a xlink:title=" ">
<path fill="none" stroke="#63b8ff" d="M1171.5,-320.98C1171.5,-299.41 1171.5,-265.1 1171.5,-241.56"/>
<polygon fill="#63b8ff" stroke="#63b8ff" points="1175,-241.87 1171.5,-231.87 1168,-241.87 1175,-241.87"/>
</a>
</g>
</g>
<!-- Node8 -->
<g id="Node000008" class="node">
<title>Node8</title>
<g id="a_Node000008"><a xlink:title=" ">
<polygon fill="#e0e0e0" stroke="#999999" points="363.62,-24.88 315.38,-24.88 315.38,-5.63 363.62,-5.63 363.62,-24.88"/>
<text text-anchor="middle" x="339.5" y="-11.38" font-family="Helvetica,sans-Serif" font-size="10.00">cstddef</text>
</a>
</g>
</g>
<!-- Node1&#45;&gt;Node8 -->
<g id="edge41_Node000001_Node000008" class="edge">
<title>Node1&#45;&gt;Node8</title>
<g id="a_edge41_Node000001_Node000008"><a xlink:title=" ">
<path fill="none" stroke="#63b8ff" d="M1244.82,-340.96C1500.39,-339.44 2336.5,-326.04 2336.5,-215.75 2336.5,-215.75 2336.5,-215.75 2336.5,-141.62 2336.5,-114.94 2353.31,-106.08 2145.5,-66.5 1965.77,-32.27 613.5,-18.69 375.29,-16.56"/>
<polygon fill="#63b8ff" stroke="#63b8ff" points="375.43,-13.06 365.4,-16.47 375.37,-20.06 375.43,-13.06"/>
</a>
</g>
</g>
<!-- Node2&#45;&gt;Node3 -->
<g id="edge2_Node000002_Node000003" class="edge">
<title>Node2&#45;&gt;Node3</title>
<g id="a_edge2_Node000002_Node000003"><a xlink:title=" ">
<path fill="none" stroke="#63b8ff" d="M294.63,-271.5C449.77,-261.64 929.35,-231.15 1105.62,-219.94"/>
<polygon fill="#63b8ff" stroke="#63b8ff" points="1105.77,-223.44 1115.53,-219.31 1105.32,-216.45 1105.77,-223.44"/>
</a>
</g>
</g>
<!-- Node7 -->
<g id="Node000007" class="node">
<title>Node7</title>
<g id="a_Node000007"><a xlink:title=" ">
<polygon fill="#e0e0e0" stroke="#999999" points="211.38,-24.88 155.62,-24.88 155.62,-5.63 211.38,-5.63 211.38,-24.88"/>
<text text-anchor="middle" x="183.5" y="-11.38" font-family="Helvetica,sans-Serif" font-size="10.00">concepts</text>
</a>
</g>
</g>
<!-- Node2&#45;&gt;Node7 -->
<g id="edge33_Node000002_Node000007" class="edge">
<title>Node2&#45;&gt;Node7</title>
<g id="a_edge33_Node000002_Node000007"><a xlink:title=" ">
<path fill="none" stroke="#63b8ff" d="M243.22,-265.82C239.58,-251.77 232.15,-223.43 225.5,-199.5 211.39,-148.78 203.25,-137.28 192.5,-85.75 189.08,-69.34 186.73,-50.45 185.3,-36.52"/>
<polygon fill="#63b8ff" stroke="#63b8ff" points="188.8,-36.45 184.37,-26.83 181.84,-37.11 188.8,-36.45"/>
</a>
</g>
</g>
<!-- Node2&#45;&gt;Node8 -->
<g id="edge34_Node000002_Node000008" class="edge">
<title>Node2&#45;&gt;Node8</title>
<g id="a_edge34_Node000002_Node000008"><a xlink:title=" ">
<path fill="none" stroke="#63b8ff" d="M248.27,-265.81C257.41,-236.94 287.69,-142.7 317.5,-66.5 321.55,-56.15 326.48,-44.79 330.65,-35.5"/>
<polygon fill="#63b8ff" stroke="#63b8ff" points="333.81,-36.99 334.76,-26.43 327.44,-34.09 333.81,-36.99"/>
</a>
</g>
</g>
<!-- Node10 -->
<g id="Node000010" class="node">
<title>Node10</title>
<g id="a_Node000010"><a xlink:title=" ">
<polygon fill="#e0e0e0" stroke="#999999" points="132,-24.88 95,-24.88 95,-5.63 132,-5.63 132,-24.88"/>
<text text-anchor="middle" x="113.5" y="-11.38" font-family="Helvetica,sans-Serif" font-size="10.00">tuple</text>
</a>
</g>
</g>
<!-- Node2&#45;&gt;Node10 -->
<g id="edge37_Node000002_Node000010" class="edge">
<title>Node2&#45;&gt;Node10</title>
<g id="a_edge37_Node000002_Node000010"><a xlink:title=" ">
<path fill="none" stroke="#63b8ff" d="M196.47,-268.76C150.54,-262.14 86.75,-249.65 71.5,-230 25.42,-170.61 76.22,-74.58 101.23,-34.61"/>
<polygon fill="#63b8ff" stroke="#63b8ff" points="104.07,-36.68 106.55,-26.38 98.19,-32.88 104.07,-36.68"/>
</a>
</g>
</g>
<!-- Node11 -->
<g id="Node000011" class="node">
<title>Node11</title>
<g id="a_Node000011"><a xlink:title=" ">
<polygon fill="#e0e0e0" stroke="#999999" points="61,-24.88 0,-24.88 0,-5.63 61,-5.63 61,-24.88"/>
<text text-anchor="middle" x="30.5" y="-11.38" font-family="Helvetica,sans-Serif" font-size="10.00">type_traits</text>
</a>
</g>
</g>
<!-- Node2&#45;&gt;Node11 -->
<g id="edge38_Node000002_Node000011" class="edge">
<title>Node2&#45;&gt;Node11</title>
<g id="a_edge38_Node000002_Node000011"><a xlink:title=" ">
<path fill="none" stroke="#63b8ff" d="M196.33,-269.73C145.57,-263.59 71.22,-251.21 52.5,-230 3.73,-174.74 17.13,-77.47 25.79,-35.94"/>
<polygon fill="#63b8ff" stroke="#63b8ff" points="29.15,-36.95 27.92,-26.43 22.32,-35.42 29.15,-36.95"/>
</a>
</g>
</g>
<!-- Node12 -->
<g id="Node000012" class="node">
<title>Node12</title>
<g id="a_Node000012"><a xlink:title=" ">
<polygon fill="#e0e0e0" stroke="#999999" points="2136.38,-85.75 2092.62,-85.75 2092.62,-66.5 2136.38,-66.5 2136.38,-85.75"/>
<text text-anchor="middle" x="2114.5" y="-72.25" font-family="Helvetica,sans-Serif" font-size="10.00">format</text>
</a>
</g>
</g>
<!-- Node2&#45;&gt;Node12 -->
<g id="edge35_Node000002_Node000012" class="edge">
<title>Node2&#45;&gt;Node12</title>
<g id="a_edge35_Node000002_Node000012"><a xlink:title=" ">
<path fill="none" stroke="#63b8ff" d="M294.42,-273.84C597.58,-268.76 2209.36,-238.25 2279.5,-163.5 2292.2,-149.97 2290.78,-136.48 2279.5,-121.75 2263.6,-100.97 2191.32,-87.65 2147.87,-81.36"/>
<polygon fill="#63b8ff" stroke="#63b8ff" points="2148.6,-77.93 2138.21,-80.02 2147.64,-84.87 2148.6,-77.93"/>
</a>
</g>
</g>
<!-- Node26 -->
<g id="Node000026" class="node">
<title>Node26</title>
<g id="a_Node000026"><a xlink:title=" ">
<polygon fill="#e0e0e0" stroke="#999999" points="132.12,-224.38 80.88,-224.38 80.88,-205.12 132.12,-205.12 132.12,-224.38"/>
<text text-anchor="middle" x="106.5" y="-210.88" font-family="Helvetica,sans-Serif" font-size="10.00">sstream</text>
</a>
</g>
</g>
<!-- Node2&#45;&gt;Node26 -->
<g id="edge36_Node000002_Node000026" class="edge">
<title>Node2&#45;&gt;Node26</title>
<g id="a_edge36_Node000002_Node000026"><a xlink:title=" ">
<path fill="none" stroke="#63b8ff" d="M224.09,-265.55C201.16,-255.85 164.55,-240.34 138.27,-229.21"/>
<polygon fill="#63b8ff" stroke="#63b8ff" points="139.68,-226 129.1,-225.32 136.95,-232.45 139.68,-226"/>
</a>
</g>
</g>
<!-- Node27 -->
<g id="Node000027" class="node">
<title>Node27</title>
<g id="a_Node000027"><a xlink:title=" ">
<polygon fill="#e0e0e0" stroke="#999999" points="217,-224.38 150,-224.38 150,-205.12 217,-205.12 217,-224.38"/>
<text text-anchor="middle" x="183.5" y="-210.88" font-family="Helvetica,sans-Serif" font-size="10.00">Eigen/Eigen</text>
</a>
</g>
</g>
<!-- Node2&#45;&gt;Node27 -->
<g id="edge39_Node000002_Node000027" class="edge">
<title>Node2&#45;&gt;Node27</title>
<g id="a_edge39_Node000002_Node000027"><a xlink:title=" ">
<path fill="none" stroke="#63b8ff" d="M236.08,-265.68C226.89,-256.95 212.66,-243.44 201.33,-232.68"/>
<polygon fill="#63b8ff" stroke="#63b8ff" points="203.76,-230.17 194.1,-225.82 198.94,-235.24 203.76,-230.17"/>
</a>
</g>
</g>
<!-- Node4 -->
<g id="Node000004" class="node">
<title>Node4</title>
<g id="a_Node000004"><a xlink:href="typed__linear__algebra__forward_8hpp.xhtml" target="_top" xlink:title="Authoritative forward declaration header.">
<polygon fill="white" stroke="#666666" points="2086.75,-30.5 1982.25,-30.5 1982.25,0 2086.75,0 2086.75,-30.5"/>
<text text-anchor="start" x="1990.25" y="-17" font-family="Helvetica,sans-Serif" font-size="10.00">typed_linear_algebra</text>
<text text-anchor="middle" x="2034.5" y="-5.75" font-family="Helvetica,sans-Serif" font-size="10.00">_forward.hpp</text>
</a>
</g>
</g>
<!-- Node3&#45;&gt;Node4 -->
<g id="edge3_Node000003_Node000004" class="edge">
<title>Node3&#45;&gt;Node4</title>
<g id="a_edge3_Node000003_Node000004"><a xlink:title=" ">
<path fill="none" stroke="#63b8ff" d="M1225.91,-213.35C1443.71,-211.46 2242.75,-201.96 2279.5,-163.5 2342.2,-97.89 2190.3,-50.88 2098.4,-29.37"/>
<polygon fill="#63b8ff" stroke="#63b8ff" points="2099.24,-25.97 2088.71,-27.15 2097.68,-32.8 2099.24,-25.97"/>
</a>
</g>
</g>
<!-- Node5 -->
<g id="Node000005" class="node">
<title>Node5</title>
<g id="a_Node000005"><a xlink:href="format_8hpp.xhtml" target="_top" xlink:title="Formatting support for the typed matrix.">
<polygon fill="white" stroke="#666666" points="2086.75,-157.88 1982.25,-157.88 1982.25,-127.38 2086.75,-127.38 2086.75,-157.88"/>
<text text-anchor="start" x="1990.25" y="-144.38" font-family="Helvetica,sans-Serif" font-size="10.00">typed_linear_algebra</text>
<text text-anchor="middle" x="2034.5" y="-133.12" font-family="Helvetica,sans-Serif" font-size="10.00">_internal/format.hpp</text>
</a>
</g>
</g>
<!-- Node3&#45;&gt;Node5 -->
<g id="edge4_Node000003_Node000005" class="edge">
<title>Node3&#45;&gt;Node5</title>
<g id="a_edge4_Node000003_Node000005"><a xlink:title=" ">
<path fill="none" stroke="#63b8ff" d="M1225.94,-212.13C1382.12,-207.19 1829.62,-190.99 1973.5,-163.5 1976.68,-162.89 1979.92,-162.17 1983.18,-161.36"/>
<polygon fill="#63b8ff" stroke="#63b8ff" points="1984.01,-164.76 1992.73,-158.74 1982.16,-158.01 1984.01,-164.76"/>
</a>
</g>
</g>
<!-- Node6 -->
<g id="Node000006" class="node">
<title>Node6</title>
<g id="a_Node000006"><a xlink:href="utility_8hpp.xhtml" target="_top" xlink:title=" ">
<polygon fill="white" stroke="#666666" points="273.75,-85.75 217.25,-85.75 217.25,-66.5 273.75,-66.5 273.75,-85.75"/>
<text text-anchor="middle" x="245.5" y="-72.25" font-family="Helvetica,sans-Serif" font-size="10.00">utility.hpp</text>
</a>
</g>
</g>
<!-- Node3&#45;&gt;Node6 -->
<g id="edge15_Node000003_Node000006" class="edge">
<title>Node3&#45;&gt;Node6</title>
<g id="a_edge15_Node000003_Node000006"><a xlink:title=" ">
<path fill="none" stroke="#63b8ff" d="M1116.94,-213.29C938.27,-211.4 378.17,-202.4 307.5,-163.5 280.74,-148.77 262.68,-117 253.24,-96.37"/>
<polygon fill="#63b8ff" stroke="#63b8ff" points="256.54,-95.18 249.38,-87.37 250.11,-97.94 256.54,-95.18"/>
</a>
</g>
</g>
<!-- Node3&#45;&gt;Node7 -->
<g id="edge16_Node000003_Node000007" class="edge">
<title>Node3&#45;&gt;Node7</title>
<g id="a_edge16_Node000003_Node000007"><a xlink:title=" ">
<path fill="none" stroke="#63b8ff" d="M1117.07,-213.47C932.54,-212.16 338.06,-204.74 263.5,-163.5 215.64,-137.03 194.93,-70.03 187.31,-36.3"/>
<polygon fill="#63b8ff" stroke="#63b8ff" points="190.76,-35.72 185.3,-26.64 183.91,-37.14 190.76,-35.72"/>
</a>
</g>
</g>
<!-- Node3&#45;&gt;Node8 -->
<g id="edge17_Node000003_Node000008" class="edge">
<title>Node3&#45;&gt;Node8</title>
<g id="a_edge17_Node000003_Node000008"><a xlink:title=" ">
<path fill="none" stroke="#63b8ff" d="M1117.07,-212.48C936.52,-208.01 367.25,-191.73 340.5,-163.5 307.9,-129.1 321.99,-67.3 332.25,-35.83"/>
<polygon fill="#63b8ff" stroke="#63b8ff" points="335.52,-37.05 335.51,-26.46 328.91,-34.75 335.52,-37.05"/>
</a>
</g>
</g>
<!-- Node3&#45;&gt;Node10 -->
<g id="edge20_Node000003_Node000010" class="edge">
<title>Node3&#45;&gt;Node10</title>
<g id="a_edge20_Node000003_Node000010"><a xlink:title=" ">
<path fill="none" stroke="#63b8ff" d="M1117.04,-213.62C926.53,-212.78 297.25,-206.73 218.5,-163.5 166.78,-135.11 134.41,-69.05 120.85,-35.93"/>
<polygon fill="#63b8ff" stroke="#63b8ff" points="124.17,-34.79 117.26,-26.75 117.65,-37.34 124.17,-34.79"/>
</a>
</g>
</g>
<!-- Node3&#45;&gt;Node12 -->
<g id="edge18_Node000003_Node000012" class="edge">
<title>Node3&#45;&gt;Node12</title>
<g id="a_edge18_Node000003_Node000012"><a xlink:title=" ">
<path fill="none" stroke="#63b8ff" d="M1225.98,-212.59C1419.25,-208.26 2062.23,-191.77 2095.5,-163.5 2114.31,-147.52 2116.99,-117.56 2116.38,-97.47"/>
<polygon fill="#63b8ff" stroke="#63b8ff" points="2119.89,-97.47 2115.76,-87.71 2112.9,-97.91 2119.89,-97.47"/>
</a>
</g>
</g>
<!-- Node13 -->
<g id="Node000013" class="node">
<title>Node13</title>
<g id="a_Node000013"><a xlink:title=" ">
<polygon fill="#e0e0e0" stroke="#999999" points="2214.25,-152.25 2142.75,-152.25 2142.75,-133 2214.25,-133 2214.25,-152.25"/>
<text text-anchor="middle" x="2178.5" y="-138.75" font-family="Helvetica,sans-Serif" font-size="10.00">initializer_list</text>
</a>
</g>
</g>
<!-- Node3&#45;&gt;Node13 -->
<g id="edge19_Node000003_Node000013" class="edge">
<title>Node3&#45;&gt;Node13</title>
<g id="a_edge19_Node000003_Node000013"><a xlink:title=" ">
<path fill="none" stroke="#63b8ff" d="M1225.97,-213.21C1402.05,-211.11 1954.49,-201.57 2128.5,-163.5 2135.57,-161.95 2142.93,-159.52 2149.77,-156.89"/>
<polygon fill="#63b8ff" stroke="#63b8ff" points="2150.66,-160.31 2158.56,-153.25 2147.99,-153.84 2150.66,-160.31"/>
</a>
</g>
</g>
<!-- Node14 -->
<g id="Node000014" class="node">
<title>Node14</title>
<g id="a_Node000014"><a xlink:title=" ">
<polygon fill="#e0e0e0" stroke="#999999" points="2270.75,-152.25 2232.25,-152.25 2232.25,-133 2270.75,-133 2270.75,-152.25"/>
<text text-anchor="middle" x="2251.5" y="-138.75" font-family="Helvetica,sans-Serif" font-size="10.00">utility</text>
</a>
</g>
</g>
<!-- Node3&#45;&gt;Node14 -->
<g id="edge21_Node000003_Node000014" class="edge">
<title>Node3&#45;&gt;Node14</title>
<g id="a_edge21_Node000003_Node000014"><a xlink:title=" ">
<path fill="none" stroke="#63b8ff" d="M1225.84,-212.94C1427.87,-209.69 2128.98,-196.14 2223.5,-163.5 2226.51,-162.46 2229.49,-160.99 2232.31,-159.31"/>
<polygon fill="#63b8ff" stroke="#63b8ff" points="2234.26,-162.21 2240.42,-153.59 2230.23,-156.49 2234.26,-162.21"/>
</a>
</g>
</g>
<!-- Node15 -->
<g id="Node000015" class="node">
<title>Node15</title>
<g id="a_Node000015"><a xlink:title=" ">
<polygon fill="#e0e0e0" stroke="#999999" points="479.5,-157.88 349.5,-157.88 349.5,-127.38 479.5,-127.38 479.5,-157.88"/>
<text text-anchor="start" x="357.5" y="-144.38" font-family="Helvetica,sans-Serif" font-size="10.00">typed_linear_algebra</text>
<text text-anchor="middle" x="414.5" y="-133.12" font-family="Helvetica,sans-Serif" font-size="10.00">_internal/algorithm/add.tpp</text>
</a>
</g>
</g>
<!-- Node3&#45;&gt;Node15 -->
<g id="edge22_Node000003_Node000015" class="edge">
<title>Node3&#45;&gt;Node15</title>
<g id="a_edge22_Node000003_Node000015"><a xlink:title=" ">
<path fill="none" stroke="#63b8ff" d="M1117.07,-213.23C1000.82,-211.34 720.02,-202.74 488.5,-163.5 484.12,-162.76 479.63,-161.87 475.13,-160.89"/>
<polygon fill="#63b8ff" stroke="#63b8ff" points="475.98,-157.5 465.45,-158.64 474.39,-164.31 475.98,-157.5"/>
</a>
</g>
</g>
<!-- Node16 -->
<g id="Node000016" class="node">
<title>Node16</title>
<g id="a_Node000016"><a xlink:title=" ">
<polygon fill="#e0e0e0" stroke="#999999" points="637.38,-157.88 497.62,-157.88 497.62,-127.38 637.38,-127.38 637.38,-157.88"/>
<text text-anchor="start" x="505.62" y="-144.38" font-family="Helvetica,sans-Serif" font-size="10.00">typed_linear_algebra</text>
<text text-anchor="middle" x="567.5" y="-133.12" font-family="Helvetica,sans-Serif" font-size="10.00">_internal/algorithm/divide.tpp</text>
</a>
</g>
</g>
<!-- Node3&#45;&gt;Node16 -->
<g id="edge23_Node000003_Node000016" class="edge">
<title>Node3&#45;&gt;Node16</title>
<g id="a_edge23_Node000003_Node000016"><a xlink:title=" ">
<path fill="none" stroke="#63b8ff" d="M1117.1,-211.26C1021.38,-206.26 816.8,-192.9 646.5,-163.5 641.87,-162.7 637.12,-161.78 632.35,-160.77"/>
<polygon fill="#63b8ff" stroke="#63b8ff" points="633.24,-157.38 622.72,-158.63 631.72,-164.21 633.24,-157.38"/>
</a>
</g>
</g>
<!-- Node17 -->
<g id="Node000017" class="node">
<title>Node17</title>
<g id="a_Node000017"><a xlink:title=" ">
<polygon fill="#e0e0e0" stroke="#999999" points="777.38,-163.5 655.62,-163.5 655.62,-121.75 777.38,-121.75 777.38,-163.5"/>
<text text-anchor="start" x="663.62" y="-150" font-family="Helvetica,sans-Serif" font-size="10.00">typed_linear_algebra</text>
<text text-anchor="start" x="663.62" y="-138.75" font-family="Helvetica,sans-Serif" font-size="10.00">_internal/algorithm/equal</text>
<text text-anchor="middle" x="716.5" y="-127.5" font-family="Helvetica,sans-Serif" font-size="10.00">_to.tpp</text>
</a>
</g>
</g>
<!-- Node3&#45;&gt;Node17 -->
<g id="edge24_Node000003_Node000017" class="edge">
<title>Node3&#45;&gt;Node17</title>
<g id="a_edge24_Node000003_Node000017"><a xlink:title=" ">
<path fill="none" stroke="#63b8ff" d="M1116.89,-209.17C1044.08,-202.5 911.11,-188.37 788.87,-163.84"/>
<polygon fill="#63b8ff" stroke="#63b8ff" points="789.81,-160.46 779.32,-161.89 788.42,-167.32 789.81,-160.46"/>
</a>
</g>
</g>
<!-- Node18 -->
<g id="Node000018" class="node">
<title>Node18</title>
<g id="a_Node000018"><a xlink:title=" ">
<polygon fill="#e0e0e0" stroke="#999999" points="919.88,-163.5 795.12,-163.5 795.12,-121.75 919.88,-121.75 919.88,-163.5"/>
<text text-anchor="start" x="803.12" y="-150" font-family="Helvetica,sans-Serif" font-size="10.00">typed_linear_algebra</text>
<text text-anchor="start" x="803.12" y="-138.75" font-family="Helvetica,sans-Serif" font-size="10.00">_internal/algorithm/matrix</text>
<text text-anchor="middle" x="857.5" y="-127.5" font-family="Helvetica,sans-Serif" font-size="10.00">_product.tpp</text>
</a>
</g>
</g>
<!-- Node3&#45;&gt;Node18 -->
<g id="edge25_Node000003_Node000018" class="edge">
<title>Node3&#45;&gt;Node18</title>
<g id="a_edge25_Node000003_Node000018"><a xlink:title=" ">
<path fill="none" stroke="#63b8ff" d="M1116.97,-203.47C1070.27,-194.44 1001,-180.47 931.43,-163.89"/>
<polygon fill="#63b8ff" stroke="#63b8ff" points="932.28,-160.5 921.74,-161.56 930.64,-167.3 932.28,-160.5"/>
</a>
</g>
</g>
<!-- Node19 -->
<g id="Node000019" class="node">
<title>Node19</title>
<g id="a_Node000019"><a xlink:title=" ">
<polygon fill="#e0e0e0" stroke="#999999" points="1084.75,-157.88 938.25,-157.88 938.25,-127.38 1084.75,-127.38 1084.75,-157.88"/>
<text text-anchor="start" x="946.25" y="-144.38" font-family="Helvetica,sans-Serif" font-size="10.00">typed_linear_algebra</text>
<text text-anchor="middle" x="1011.5" y="-133.12" font-family="Helvetica,sans-Serif" font-size="10.00">_internal/algorithm/product.tpp</text>
</a>
</g>
</g>
<!-- Node3&#45;&gt;Node19 -->
<g id="edge26_Node000003_Node000019" class="edge">
<title>Node3&#45;&gt;Node19</title>
<g id="a_edge26_Node000003_Node000019"><a xlink:title=" ">
<path fill="none" stroke="#63b8ff" d="M1137.96,-199.05C1113.96,-188.53 1081.42,-174.27 1055.36,-162.85"/>
<polygon fill="#63b8ff" stroke="#63b8ff" points="1056.95,-159.72 1046.38,-158.91 1054.14,-166.13 1056.95,-159.72"/>
</a>
</g>
</g>
<!-- Node20 -->
<g id="Node000020" class="node">
<title>Node20</title>
<g id="a_Node000020"><a xlink:title=" ">
<polygon fill="#e0e0e0" stroke="#999999" points="1240.25,-157.88 1102.75,-157.88 1102.75,-127.38 1240.25,-127.38 1240.25,-157.88"/>
<text text-anchor="start" x="1110.75" y="-144.38" font-family="Helvetica,sans-Serif" font-size="10.00">typed_linear_algebra</text>
<text text-anchor="middle" x="1171.5" y="-133.12" font-family="Helvetica,sans-Serif" font-size="10.00">_internal/algorithm/scale.tpp</text>
</a>
</g>
</g>
<!-- Node3&#45;&gt;Node20 -->
<g id="edge27_Node000003_Node000020" class="edge">
<title>Node3&#45;&gt;Node20</title>
<g id="a_edge27_Node000003_Node000020"><a xlink:title=" ">
<path fill="none" stroke="#63b8ff" d="M1171.5,-199.22C1171.5,-190.66 1171.5,-179.59 1171.5,-169.58"/>
<polygon fill="#63b8ff" stroke="#63b8ff" points="1175,-169.65 1171.5,-159.65 1168,-169.65 1175,-169.65"/>
</a>
</g>
</g>
<!-- Node21 -->
<g id="Node000021" class="node">
<title>Node21</title>
<g id="a_Node000021"><a xlink:title=" ">
<polygon fill="#e0e0e0" stroke="#999999" points="1412.88,-157.88 1258.12,-157.88 1258.12,-127.38 1412.88,-127.38 1412.88,-157.88"/>
<text text-anchor="start" x="1266.12" y="-144.38" font-family="Helvetica,sans-Serif" font-size="10.00">typed_linear_algebra</text>
<text text-anchor="middle" x="1335.5" y="-133.12" font-family="Helvetica,sans-Serif" font-size="10.00">_internal/algorithm/substract.tpp</text>
</a>
</g>
</g>
<!-- Node3&#45;&gt;Node21 -->
<g id="edge28_Node000003_Node000021" class="edge">
<title>Node3&#45;&gt;Node21</title>
<g id="a_edge28_Node000003_Node000021"><a xlink:title=" ">
<path fill="none" stroke="#63b8ff" d="M1205.88,-199.05C1230.59,-188.48 1264.13,-174.14 1290.9,-162.7"/>
<polygon fill="#63b8ff" stroke="#63b8ff" points="1291.96,-166.05 1299.77,-158.9 1289.2,-159.61 1291.96,-166.05"/>
</a>
</g>
</g>
<!-- Node22 -->
<g id="Node000022" class="node">
<title>Node22</title>
<g id="a_Node000022"><a xlink:title=" ">
<polygon fill="#e0e0e0" stroke="#999999" points="1593.62,-157.88 1431.38,-157.88 1431.38,-127.38 1593.62,-127.38 1593.62,-157.88"/>
<text text-anchor="start" x="1439.38" y="-144.38" font-family="Helvetica,sans-Serif" font-size="10.00">typed_linear_algebra</text>
<text text-anchor="middle" x="1512.5" y="-133.12" font-family="Helvetica,sans-Serif" font-size="10.00">_internal/algorithm/transposed.tpp</text>
</a>
</g>
</g>
<!-- Node3&#45;&gt;Node22 -->
<g id="edge29_Node000003_Node000022" class="edge">
<title>Node3&#45;&gt;Node22</title>
<g id="a_edge29_Node000003_Node000022"><a xlink:title=" ">
<path fill="none" stroke="#63b8ff" d="M1225.69,-203.13C1276.36,-193.13 1354.12,-177.63 1421.5,-163.5 1425.83,-162.59 1430.27,-161.65 1434.75,-160.7"/>
<polygon fill="#63b8ff" stroke="#63b8ff" points="1435.41,-164.14 1444.45,-158.62 1433.94,-157.29 1435.41,-164.14"/>
</a>
</g>
</g>
<!-- Node23 -->
<g id="Node000023" class="node">
<title>Node23</title>
<g id="a_Node000023"><a xlink:title=" ">
<polygon fill="#e0e0e0" stroke="#999999" points="1715.75,-157.88 1611.25,-157.88 1611.25,-127.38 1715.75,-127.38 1715.75,-157.88"/>
<text text-anchor="start" x="1619.25" y="-144.38" font-family="Helvetica,sans-Serif" font-size="10.00">typed_linear_algebra</text>
<text text-anchor="middle" x="1663.5" y="-133.12" font-family="Helvetica,sans-Serif" font-size="10.00">_internal/cast.tpp</text>
</a>
</g>
</g>
<!-- Node3&#45;&gt;Node23 -->
<g id="edge30_Node000003_Node000023" class="edge">
<title>Node3&#45;&gt;Node23</title>
<g id="a_edge30_Node000003_Node000023"><a xlink:title=" ">
<path fill="none" stroke="#63b8ff" d="M1225.82,-210.89C1308.11,-205.78 1468.93,-192.74 1602.5,-163.5 1605.41,-162.86 1608.38,-162.14 1611.36,-161.36"/>
<polygon fill="#63b8ff" stroke="#63b8ff" points="1612,-164.82 1620.67,-158.73 1610.1,-158.08 1612,-164.82"/>
</a>
</g>
</g>
<!-- Node24 -->
<g id="Node000024" class="node">
<title>Node24</title>
<g id="a_Node000024"><a xlink:title=" ">
<polygon fill="#e0e0e0" stroke="#999999" points="1838.75,-157.88 1734.25,-157.88 1734.25,-127.38 1838.75,-127.38 1838.75,-157.88"/>
<text text-anchor="start" x="1742.25" y="-144.38" font-family="Helvetica,sans-Serif" font-size="10.00">typed_linear_algebra</text>
<text text-anchor="middle" x="1786.5" y="-133.12" font-family="Helvetica,sans-Serif" font-size="10.00">_internal/tuple.tpp</text>
</a>
</g>
</g>
<!-- Node3&#45;&gt;Node24 -->
<g id="edge31_Node000003_Node000024" class="edge">
<title>Node3&#45;&gt;Node24</title>
<g id="a_edge31_Node000003_Node000024"><a xlink:title=" ">
<path fill="none" stroke="#63b8ff" d="M1225.84,-212.76C1325.61,-210.06 1544.29,-200.11 1724.5,-163.5 1727.62,-162.87 1730.79,-162.13 1733.99,-161.33"/>
<polygon fill="#63b8ff" stroke="#63b8ff" points="1734.63,-164.78 1743.35,-158.76 1732.78,-158.03 1734.63,-164.78"/>
</a>
</g>
</g>
<!-- Node25 -->
<g id="Node000025" class="node">
<title>Node25</title>
<g id="a_Node000025"><a xlink:title=" ">
<polygon fill="#e0e0e0" stroke="#999999" points="1964.25,-163.5 1856.75,-163.5 1856.75,-121.75 1964.25,-121.75 1964.25,-163.5"/>
<text text-anchor="start" x="1864.75" y="-150" font-family="Helvetica,sans-Serif" font-size="10.00">typed_linear_algebra</text>
<text text-anchor="start" x="1864.75" y="-138.75" font-family="Helvetica,sans-Serif" font-size="10.00">_internal/typed_linear</text>
<text text-anchor="middle" x="1910.5" y="-127.5" font-family="Helvetica,sans-Serif" font-size="10.00">_algebra.tpp</text>
</a>
</g>
</g>
<!-- Node3&#45;&gt;Node25 -->
<g id="edge32_Node000003_Node000025" class="edge">
<title>Node3&#45;&gt;Node25</title>
<g id="a_edge32_Node000003_Node000025"><a xlink:title=" ">
<path fill="none" stroke="#63b8ff" d="M1225.95,-213.95C1339.73,-213.45 1610.89,-207.51 1845.28,-163.68"/>
<polygon fill="#63b8ff" stroke="#63b8ff" points="1845.75,-167.15 1854.92,-161.85 1844.44,-160.27 1845.75,-167.15"/>
</a>
</g>
</g>
<!-- Node5&#45;&gt;Node4 -->
<g id="edge5_Node000005_Node000004" class="edge">
<title>Node5&#45;&gt;Node4</title>
<g id="a_edge5_Node000005_Node000004"><a xlink:title=" ">
<path fill="none" stroke="#63b8ff" d="M2034.5,-127.24C2034.5,-106.57 2034.5,-68.11 2034.5,-42.35"/>
<polygon fill="#63b8ff" stroke="#63b8ff" points="2038,-42.36 2034.5,-32.36 2031,-42.36 2038,-42.36"/>
</a>
</g>
</g>
<!-- Node5&#45;&gt;Node6 -->
<g id="edge6_Node000005_Node000006" class="edge">
<title>Node5&#45;&gt;Node6</title>
<g id="a_edge6_Node000005_Node000006"><a xlink:title=" ">
<path fill="none" stroke="#63b8ff" d="M1994.89,-126.9C1987.85,-124.81 1980.53,-122.96 1973.5,-121.75 1802.36,-92.3 528.02,-79.62 285.35,-77.46"/>
<polygon fill="#63b8ff" stroke="#63b8ff" points="285.5,-73.97 275.47,-77.38 285.44,-80.97 285.5,-73.97"/>
</a>
</g>
</g>
<!-- Node5&#45;&gt;Node8 -->
<g id="edge13_Node000005_Node000008" class="edge">
<title>Node5&#45;&gt;Node8</title>
<g id="a_edge13_Node000005_Node000008"><a xlink:title=" ">
<path fill="none" stroke="#63b8ff" d="M1994.18,-126.93C1987.36,-124.89 1980.28,-123.05 1973.5,-121.75 1651.72,-59.96 584.48,-23.9 375.26,-17.34"/>
<polygon fill="#63b8ff" stroke="#63b8ff" points="375.68,-13.85 365.57,-17.04 375.46,-20.85 375.68,-13.85"/>
</a>
</g>
</g>
<!-- Node5&#45;&gt;Node12 -->
<g id="edge14_Node000005_Node000012" class="edge">
<title>Node5&#45;&gt;Node12</title>
<g id="a_edge14_Node000005_Node000012"><a xlink:title=" ">
<path fill="none" stroke="#63b8ff" d="M2052.65,-126.99C2065.27,-116.82 2082.06,-103.28 2094.96,-92.88"/>
<polygon fill="#63b8ff" stroke="#63b8ff" points="2096.79,-95.9 2102.38,-86.9 2092.4,-90.45 2096.79,-95.9"/>
</a>
</g>
</g>
<!-- Node6&#45;&gt;Node4 -->
<g id="edge7_Node000006_Node000004" class="edge">
<title>Node6&#45;&gt;Node4</title>
<g id="a_edge7_Node000006_Node000004"><a xlink:title=" ">
<path fill="none" stroke="#63b8ff" d="M273.96,-74.19C474.77,-67.58 1678.62,-27.96 1970.69,-18.35"/>
<polygon fill="#63b8ff" stroke="#63b8ff" points="1970.52,-21.86 1980.39,-18.03 1970.29,-14.86 1970.52,-21.86"/>
</a>
</g>
</g>
<!-- Node6&#45;&gt;Node7 -->
<g id="edge8_Node000006_Node000007" class="edge">
<title>Node6&#45;&gt;Node7</title>
<g id="a_edge8_Node000006_Node000007"><a xlink:title=" ">
<path fill="none" stroke="#63b8ff" d="M236.08,-66.18C226.89,-57.45 212.66,-43.94 201.33,-33.18"/>
<polygon fill="#63b8ff" stroke="#63b8ff" points="203.76,-30.67 194.1,-26.32 198.94,-35.74 203.76,-30.67"/>
</a>
</g>
</g>
<!-- Node6&#45;&gt;Node8 -->
<g id="edge9_Node000006_Node000008" class="edge">
<title>Node6&#45;&gt;Node8</title>
<g id="a_edge9_Node000006_Node000008"><a xlink:title=" ">
<path fill="none" stroke="#63b8ff" d="M259.78,-66.18C274.55,-56.93 297.87,-42.32 315.49,-31.29"/>
<polygon fill="#63b8ff" stroke="#63b8ff" points="317.19,-34.35 323.81,-26.08 313.47,-28.42 317.19,-34.35"/>
</a>
</g>
</g>
<!-- Node9 -->
<g id="Node000009" class="node">
<title>Node9</title>
<g id="a_Node000009"><a xlink:title=" ">
<polygon fill="#e0e0e0" stroke="#999999" points="287.5,-24.88 229.5,-24.88 229.5,-5.63 287.5,-5.63 287.5,-24.88"/>
<text text-anchor="middle" x="258.5" y="-11.38" font-family="Helvetica,sans-Serif" font-size="10.00">functional</text>
</a>
</g>
</g>
<!-- Node6&#45;&gt;Node9 -->
<g id="edge10_Node000006_Node000009" class="edge">
<title>Node6&#45;&gt;Node9</title>
<g id="a_edge10_Node000006_Node000009"><a xlink:title=" ">
<path fill="none" stroke="#63b8ff" d="M247.47,-66.18C249.21,-58.32 251.8,-46.57 254.04,-36.45"/>
<polygon fill="#63b8ff" stroke="#63b8ff" points="257.44,-37.27 256.18,-26.75 250.61,-35.76 257.44,-37.27"/>
</a>
</g>
</g>
<!-- Node6&#45;&gt;Node10 -->
<g id="edge11_Node000006_Node000010" class="edge">
<title>Node6&#45;&gt;Node10</title>
<g id="a_edge11_Node000006_Node000010"><a xlink:title=" ">
<path fill="none" stroke="#63b8ff" d="M225.16,-66.05C203.12,-56.22 167.73,-40.44 142.71,-29.28"/>
<polygon fill="#63b8ff" stroke="#63b8ff" points="144.3,-26.16 133.74,-25.28 141.45,-32.55 144.3,-26.16"/>
</a>
</g>
</g>
<!-- Node6&#45;&gt;Node11 -->
<g id="edge12_Node000006_Node000011" class="edge">
<title>Node6&#45;&gt;Node11</title>
<g id="a_edge12_Node000006_Node000011"><a xlink:title=" ">
<path fill="none" stroke="#63b8ff" d="M216.95,-67.31C179.83,-57.14 114.72,-39.31 72.11,-27.64"/>
<polygon fill="#63b8ff" stroke="#63b8ff" points="73.29,-24.34 62.72,-25.07 71.44,-31.09 73.29,-24.34"/>
</a>
</g>
</g>
</g>
</svg>

<g id="navigator" transform="translate(0 0)" fill="#404254">
  <rect fill="#f2f5e9" fill-opacity="0.5" stroke="#606060" stroke-width=".5" x="0" y="0" width="60" height="60"/>
  <use id="zoomplus" xlink:href="#zoomPlus" x="17" y="9" onmousedown="handleZoom(evt,'in')"/>
  <use id="zoomminus" xlink:href="#zoomMin" x="42" y="9" onmousedown="handleZoom(evt,'out')"/>
  <use id="reset" xlink:href="#resetDef" x="30" y="36" onmousedown="handleReset()"/>
   <use id="arrowup" xlink:href="#arrowUp" x="0" y="0" onmousedown="handlePan(0,-1)"/>
  <use id="arrowright" xlink:href="#arrowRight" x="0" y="0" onmousedown="handlePan(1,0)"/>
  <use id="arrowdown" xlink:href="#arrowDown" x="0" y="0" onmousedown="handlePan(0,1)"/>
  <use id="arrowleft" xlink:href="#arrowLeft" x="0" y="0" onmousedown="handlePan(-1,0)"/>
</g>
<svg viewBox="0 0 15 15" width="100%" height="30px" preserveAspectRatio="xMaxYMin meet">
 <g id="arrow_out" transform="scale(0.3 0.3)">
  <a xlink:href="nested__typed__eigen_2fcarouge_2linalg_8hpp__incl_org.svg" target="_base">
   <rect id="button" ry="5" rx="5" y="6" x="6" height="38" width="38"
        fill="#f2f5e9" fill-opacity="0.5" stroke="#606060" stroke-width="1.0"/>
   <path id="arrow"
     d="M 11.500037,31.436501 C 11.940474,20.09759 22.043105,11.32322 32.158766,21.979434 L 37.068811,17.246167 C 37.068811,17.246167 37.088388,32 37.088388,32 L 22.160133,31.978069 C 22.160133,31.978069 26.997745,27.140456 26.997745,27.140456 C 18.528582,18.264221 13.291696,25.230495 11.500037,31.436501 z"
     style="fill:#404040;"/>
  </a>
 </g>
</svg>

<style type='text/css'>
<![CDATA[
[data-mouse-over-selected='false'] { opacity: 0.7; }
[data-mouse-over-selected='true']  { opacity: 1.0; }
]]>
</style>
<script type="application/ecmascript"><![CDATA[
document.addEventListener('DOMContentLoaded', (event) => {
  highlightEdges();
  highlightAdjacentNodes();
});
]]></script>
</svg>
