<?xml version="1.0" encoding="UTF-8" standalone="no"?>
<!DOCTYPE svg PUBLIC "-//W3C//DTD SVG 1.1//EN"
 "http://www.w3.org/Graphics/SVG/1.1/DTD/svg11.dtd">
<!-- Generated by graphviz version 12.2.0 (20241103.1931)
 -->
<!-- Title: /github/workspace/support/nested_typed_eigen/fcarouge/linalg.hpp Pages: 1 -->
<svg width="1830pt" height="360pt"
 viewBox="0.00 0.00 1829.75 359.75" xmlns="http://www.w3.org/2000/svg" xmlns:xlink="http://www.w3.org/1999/xlink">
<g id="graph0" class="graph" transform="scale(1 1) rotate(0) translate(4 355.75)">
<title>/github/workspace/support/nested_typed_eigen/fcarouge/linalg.hpp</title>
<!-- Node1 -->
<g id="Node000001" class="node">
<title>Node1</title>
<g id="a_Node000001"><a xlink:title="Scalar type nested linear algebra with Eigen implementation.">
<polygon fill="#999999" stroke="#666666" points="1221.75,-351.75 1076,-351.75 1076,-310 1221.75,-310 1221.75,-351.75"/>
<text text-anchor="start" x="1084" y="-338.25" font-family="Helvetica,sans-Serif" font-size="10.00">/github/workspace/support</text>
<text text-anchor="start" x="1084" y="-327" font-family="Helvetica,sans-Serif" font-size="10.00">/nested_typed_eigen/fcarouge</text>
<text text-anchor="middle" x="1148.88" y="-315.75" font-family="Helvetica,sans-Serif" font-size="10.00">/linalg.hpp</text>
</a>
</g>
</g>
<!-- Node2 -->
<g id="Node000002" class="node">
<title>Node2</title>
<g id="a_Node000002"><a xlink:href="eigen_8hpp.xhtml" target="_top" xlink:title="Linear algebra facade for Eigen3 third party implementation.">
<polygon fill="white" stroke="#666666" points="1197.75,-274 1100,-274 1100,-254.75 1197.75,-254.75 1197.75,-274"/>
<text text-anchor="middle" x="1148.88" y="-260.5" font-family="Helvetica,sans-Serif" font-size="10.00">fcarouge/eigen.hpp</text>
</a>
</g>
</g>
<!-- Node1&#45;&gt;Node2 -->
<g id="edge1_Node000001_Node000002" class="edge">
<title>Node1&#45;&gt;Node2</title>
<g id="a_edge1_Node000001_Node000002"><a xlink:title=" ">
<path fill="none" stroke="#63b8ff" d="M1148.88,-309.82C1148.88,-302.15 1148.88,-293.39 1148.88,-285.7"/>
<polygon fill="#63b8ff" stroke="#63b8ff" points="1152.38,-285.96 1148.88,-275.96 1145.38,-285.96 1152.38,-285.96"/>
</a>
</g>
</g>
<!-- Node3 -->
<g id="Node000003" class="node">
<title>Node3</title>
<g id="a_Node000003"><a xlink:href="typed__linear__algebra_8hpp.xhtml" target="_top" xlink:title="Typed linear algebra implementation.">
<polygon fill="white" stroke="#666666" points="1115,-218.75 1006.75,-218.75 1006.75,-188.25 1115,-188.25 1115,-218.75"/>
<text text-anchor="start" x="1014.75" y="-205.25" font-family="Helvetica,sans-Serif" font-size="10.00">fcarouge/typed_linear</text>
<text text-anchor="middle" x="1060.88" y="-194" font-family="Helvetica,sans-Serif" font-size="10.00">_algebra.hpp</text>
</a>
</g>
</g>
<!-- Node1&#45;&gt;Node3 -->
<g id="edge30_Node000001_Node000003" class="edge">
<title>Node1&#45;&gt;Node3</title>
<g id="a_edge30_Node000001_Node000003"><a xlink:title=" ">
<path fill="none" stroke="#63b8ff" d="M1123.8,-309.73C1112.66,-299.84 1100.03,-287.22 1090.88,-274 1081.52,-260.5 1074.15,-243.61 1069.05,-229.86"/>
<polygon fill="#63b8ff" stroke="#63b8ff" points="1072.43,-228.91 1065.82,-220.63 1065.82,-231.22 1072.43,-228.91"/>
</a>
</g>
</g>
<!-- Node11 -->
<g id="Node000011" class="node">
<title>Node11</title>
<g id="a_Node000011"><a xlink:title=" ">
<polygon fill="#e0e0e0" stroke="#999999" points="1762,-74.5 1713.75,-74.5 1713.75,-55.25 1762,-55.25 1762,-74.5"/>
<text text-anchor="middle" x="1737.88" y="-61" font-family="Helvetica,sans-Serif" font-size="10.00">cstddef</text>
</a>
</g>
</g>
<!-- Node1&#45;&gt;Node11 -->
<g id="edge31_Node000001_Node000011" class="edge">
<title>Node1&#45;&gt;Node11</title>
<g id="a_edge31_Node000001_Node000011"><a xlink:title=" ">
<path fill="none" stroke="#63b8ff" d="M1222.19,-318.94C1366.75,-295.73 1680.03,-236.64 1742.88,-152.25 1757.15,-133.09 1751.75,-104.39 1745.62,-85.4"/>
<polygon fill="#63b8ff" stroke="#63b8ff" points="1748.98,-84.41 1742.29,-76.19 1742.4,-86.79 1748.98,-84.41"/>
</a>
</g>
</g>
<!-- Node2&#45;&gt;Node3 -->
<g id="edge2_Node000002_Node000003" class="edge">
<title>Node2&#45;&gt;Node3</title>
<g id="a_edge2_Node000002_Node000003"><a xlink:title=" ">
<path fill="none" stroke="#63b8ff" d="M1135.51,-254.43C1123.99,-246.73 1106.92,-235.3 1092,-225.33"/>
<polygon fill="#63b8ff" stroke="#63b8ff" points="1094.11,-222.53 1083.85,-219.87 1090.22,-228.34 1094.11,-222.53"/>
</a>
</g>
</g>
<!-- Node12 -->
<g id="Node000012" class="node">
<title>Node12</title>
<g id="a_Node000012"><a xlink:title=" ">
<polygon fill="#e0e0e0" stroke="#999999" points="43.75,-74.5 0,-74.5 0,-55.25 43.75,-55.25 43.75,-74.5"/>
<text text-anchor="middle" x="21.88" y="-61" font-family="Helvetica,sans-Serif" font-size="10.00">format</text>
</a>
</g>
</g>
<!-- Node2&#45;&gt;Node12 -->
<g id="edge27_Node000002_Node000012" class="edge">
<title>Node2&#45;&gt;Node12</title>
<g id="a_edge27_Node000002_Node000012"><a xlink:title=" ">
<path fill="none" stroke="#63b8ff" d="M1099.58,-262.34C891.3,-257.49 90.65,-233.63 16.88,-152.25 0.67,-134.37 6.77,-104.92 13.57,-85.45"/>
<polygon fill="#63b8ff" stroke="#63b8ff" points="16.79,-86.82 17.15,-76.23 10.26,-84.29 16.79,-86.82"/>
</a>
</g>
</g>
<!-- Node23 -->
<g id="Node000023" class="node">
<title>Node23</title>
<g id="a_Node000023"><a xlink:title=" ">
<polygon fill="#e0e0e0" stroke="#999999" points="1184.5,-213.12 1133.25,-213.12 1133.25,-193.88 1184.5,-193.88 1184.5,-213.12"/>
<text text-anchor="middle" x="1158.88" y="-199.62" font-family="Helvetica,sans-Serif" font-size="10.00">sstream</text>
</a>
</g>
</g>
<!-- Node2&#45;&gt;Node23 -->
<g id="edge28_Node000002_Node000023" class="edge">
<title>Node2&#45;&gt;Node23</title>
<g id="a_edge28_Node000002_Node000023"><a xlink:title=" ">
<path fill="none" stroke="#63b8ff" d="M1150.39,-254.43C1151.73,-246.57 1153.72,-234.82 1155.44,-224.7"/>
<polygon fill="#63b8ff" stroke="#63b8ff" points="1158.86,-225.46 1157.09,-215.02 1151.96,-224.29 1158.86,-225.46"/>
</a>
</g>
</g>
<!-- Node24 -->
<g id="Node000024" class="node">
<title>Node24</title>
<g id="a_Node000024"><a xlink:title=" ">
<polygon fill="#e0e0e0" stroke="#999999" points="1269.38,-213.12 1202.38,-213.12 1202.38,-193.88 1269.38,-193.88 1269.38,-213.12"/>
<text text-anchor="middle" x="1235.88" y="-199.62" font-family="Helvetica,sans-Serif" font-size="10.00">Eigen/Eigen</text>
</a>
</g>
</g>
<!-- Node2&#45;&gt;Node24 -->
<g id="edge29_Node000002_Node000024" class="edge">
<title>Node2&#45;&gt;Node24</title>
<g id="a_edge29_Node000002_Node000024"><a xlink:title=" ">
<path fill="none" stroke="#63b8ff" d="M1162.09,-254.43C1175.63,-245.27 1196.95,-230.84 1213.19,-219.85"/>
<polygon fill="#63b8ff" stroke="#63b8ff" points="1214.96,-222.88 1221.28,-214.37 1211.04,-217.08 1214.96,-222.88"/>
</a>
</g>
</g>
<!-- Node4 -->
<g id="Node000004" class="node">
<title>Node4</title>
<g id="a_Node000004"><a xlink:href="typed__linear__algebra__forward_8hpp.xhtml" target="_top" xlink:title="Authoritative forward declaration header.">
<polygon fill="white" stroke="#666666" points="1512.12,-146.62 1407.62,-146.62 1407.62,-116.12 1512.12,-116.12 1512.12,-146.62"/>
<text text-anchor="start" x="1415.62" y="-133.12" font-family="Helvetica,sans-Serif" font-size="10.00">typed_linear_algebra</text>
<text text-anchor="middle" x="1459.88" y="-121.88" font-family="Helvetica,sans-Serif" font-size="10.00">_forward.hpp</text>
</a>
</g>
</g>
<!-- Node3&#45;&gt;Node4 -->
<g id="edge3_Node000003_Node000004" class="edge">
<title>Node3&#45;&gt;Node4</title>
<g id="a_edge3_Node000003_Node000004"><a xlink:title=" ">
<path fill="none" stroke="#63b8ff" d="M1115.45,-189.83C1118.29,-189.27 1121.12,-188.74 1123.88,-188.25 1245.23,-166.63 1278.65,-179.46 1398.88,-152.25 1401.63,-151.63 1404.44,-150.93 1407.27,-150.18"/>
<polygon fill="#63b8ff" stroke="#63b8ff" points="1408.04,-153.6 1416.7,-147.51 1406.13,-146.87 1408.04,-153.6"/>
</a>
</g>
</g>
<!-- Node5 -->
<g id="Node000005" class="node">
<title>Node5</title>
<g id="a_Node000005"><a xlink:href="format_8hpp.xhtml" target="_top" xlink:title="Formatting support for the typed matrix.">
<polygon fill="white" stroke="#666666" points="1710.12,-146.62 1605.62,-146.62 1605.62,-116.12 1710.12,-116.12 1710.12,-146.62"/>
<text text-anchor="start" x="1613.62" y="-133.12" font-family="Helvetica,sans-Serif" font-size="10.00">typed_linear_algebra</text>
<text text-anchor="middle" x="1657.88" y="-121.88" font-family="Helvetica,sans-Serif" font-size="10.00">_internal/format.hpp</text>
</a>
</g>
</g>
<!-- Node3&#45;&gt;Node5 -->
<g id="edge4_Node000003_Node000005" class="edge">
<title>Node3&#45;&gt;Node5</title>
<g id="a_edge4_Node000003_Node000005"><a xlink:title=" ">
<path fill="none" stroke="#63b8ff" d="M1115.42,-189.65C1118.27,-189.14 1121.1,-188.67 1123.88,-188.25 1330.16,-157.16 1386.81,-190.55 1591.88,-152.25 1595.46,-151.58 1599.13,-150.79 1602.81,-149.91"/>
<polygon fill="#63b8ff" stroke="#63b8ff" points="1603.55,-153.34 1612.36,-147.45 1601.8,-146.56 1603.55,-153.34"/>
</a>
</g>
</g>
<!-- Node6 -->
<g id="Node000006" class="node">
<title>Node6</title>
<g id="a_Node000006"><a xlink:href="utility_8hpp.xhtml" target="_top" xlink:title=" ">
<polygon fill="white" stroke="#666666" points="1673.12,-74.5 1616.62,-74.5 1616.62,-55.25 1673.12,-55.25 1673.12,-74.5"/>
<text text-anchor="middle" x="1644.88" y="-61" font-family="Helvetica,sans-Serif" font-size="10.00">utility.hpp</text>
</a>
</g>
</g>
<!-- Node3&#45;&gt;Node6 -->
<g id="edge12_Node000003_Node000006" class="edge">
<title>Node3&#45;&gt;Node6</title>
<g id="a_edge12_Node000003_Node000006"><a xlink:title=" ">
<path fill="none" stroke="#63b8ff" d="M1115.42,-189.67C1118.27,-189.16 1121.1,-188.68 1123.88,-188.25 1218.64,-173.64 1466.6,-191.97 1553.88,-152.25 1578.12,-141.22 1577.56,-128.85 1596.88,-110.5 1606.77,-101.1 1617.94,-90.7 1627.01,-82.31"/>
<polygon fill="#63b8ff" stroke="#63b8ff" points="1629.17,-85.08 1634.14,-75.73 1624.42,-79.94 1629.17,-85.08"/>
</a>
</g>
</g>
<!-- Node7 -->
<g id="Node000007" class="node">
<title>Node7</title>
<g id="a_Node000007"><a xlink:title=" ">
<polygon fill="#e0e0e0" stroke="#999999" points="1821.75,-19.25 1766,-19.25 1766,0 1821.75,0 1821.75,-19.25"/>
<text text-anchor="middle" x="1793.88" y="-5.75" font-family="Helvetica,sans-Serif" font-size="10.00">concepts</text>
</a>
</g>
</g>
<!-- Node3&#45;&gt;Node7 -->
<g id="edge13_Node000003_Node000007" class="edge">
<title>Node3&#45;&gt;Node7</title>
<g id="a_edge13_Node000003_Node000007"><a xlink:title=" ">
<path fill="none" stroke="#63b8ff" d="M1115.41,-189.59C1118.26,-189.09 1121.1,-188.64 1123.88,-188.25 1192.09,-178.62 1687.68,-193.48 1742.88,-152.25 1781.52,-123.38 1790.95,-62.52 1793.2,-30.81"/>
<polygon fill="#63b8ff" stroke="#63b8ff" points="1796.69,-31.2 1793.71,-21.03 1789.7,-30.84 1796.69,-31.2"/>
</a>
</g>
</g>
<!-- Node9 -->
<g id="Node000009" class="node">
<title>Node9</title>
<g id="a_Node000009"><a xlink:title=" ">
<polygon fill="#e0e0e0" stroke="#999999" points="1565.38,-19.25 1528.38,-19.25 1528.38,0 1565.38,0 1565.38,-19.25"/>
<text text-anchor="middle" x="1546.88" y="-5.75" font-family="Helvetica,sans-Serif" font-size="10.00">tuple</text>
</a>
</g>
</g>
<!-- Node3&#45;&gt;Node9 -->
<g id="edge17_Node000003_Node000009" class="edge">
<title>Node3&#45;&gt;Node9</title>
<g id="a_edge17_Node000003_Node000009"><a xlink:title=" ">
<path fill="none" stroke="#63b8ff" d="M1115.43,-189.7C1118.28,-189.17 1121.11,-188.69 1123.88,-188.25 1211.38,-174.45 1455.45,-211.97 1520.88,-152.25 1554.79,-121.29 1553.42,-61.84 1549.94,-30.73"/>
<polygon fill="#63b8ff" stroke="#63b8ff" points="1553.45,-30.59 1548.67,-21.13 1546.51,-31.51 1553.45,-30.59"/>
</a>
</g>
</g>
<!-- Node3&#45;&gt;Node11 -->
<g id="edge14_Node000003_Node000011" class="edge">
<title>Node3&#45;&gt;Node11</title>
<g id="a_edge14_Node000003_Node000011"><a xlink:title=" ">
<path fill="none" stroke="#63b8ff" d="M1115.41,-189.6C1118.27,-189.1 1121.1,-188.65 1123.88,-188.25 1189.45,-178.91 1668.53,-195.29 1718.88,-152.25 1737.63,-136.21 1740.33,-106.27 1739.73,-86.2"/>
<polygon fill="#63b8ff" stroke="#63b8ff" points="1743.24,-86.21 1739.12,-76.45 1736.25,-86.65 1743.24,-86.21"/>
</a>
</g>
</g>
<!-- Node3&#45;&gt;Node12 -->
<g id="edge15_Node000003_Node000012" class="edge">
<title>Node3&#45;&gt;Node12</title>
<g id="a_edge15_Node000003_Node000012"><a xlink:title=" ">
<path fill="none" stroke="#63b8ff" d="M1006.5,-201.64C800.52,-198.13 78.01,-183.64 40.88,-152.25 22.03,-136.32 19.36,-106.35 19.98,-86.24"/>
<polygon fill="#63b8ff" stroke="#63b8ff" points="23.46,-86.67 20.61,-76.47 16.47,-86.22 23.46,-86.67"/>
</a>
</g>
</g>
<!-- Node13 -->
<g id="Node000013" class="node">
<title>Node13</title>
<g id="a_Node000013"><a xlink:title=" ">
<polygon fill="#e0e0e0" stroke="#999999" points="121.62,-141 50.12,-141 50.12,-121.75 121.62,-121.75 121.62,-141"/>
<text text-anchor="middle" x="85.88" y="-127.5" font-family="Helvetica,sans-Serif" font-size="10.00">initializer_list</text>
</a>
</g>
</g>
<!-- Node3&#45;&gt;Node13 -->
<g id="edge16_Node000003_Node000013" class="edge">
<title>Node3&#45;&gt;Node13</title>
<g id="a_edge16_Node000003_Node000013"><a xlink:title=" ">
<path fill="none" stroke="#63b8ff" d="M1006.37,-202.13C833.45,-200.54 298.74,-192.43 130.88,-152.25 124.75,-150.78 118.42,-148.51 112.51,-146.02"/>
<polygon fill="#63b8ff" stroke="#63b8ff" points="114.39,-143.03 103.84,-142.06 111.48,-149.4 114.39,-143.03"/>
</a>
</g>
</g>
<!-- Node14 -->
<g id="Node000014" class="node">
<title>Node14</title>
<g id="a_Node000014"><a xlink:title=" ">
<polygon fill="#e0e0e0" stroke="#999999" points="178.12,-141 139.62,-141 139.62,-121.75 178.12,-121.75 178.12,-141"/>
<text text-anchor="middle" x="158.88" y="-127.5" font-family="Helvetica,sans-Serif" font-size="10.00">utility</text>
</a>
</g>
</g>
<!-- Node3&#45;&gt;Node14 -->
<g id="edge18_Node000003_Node000014" class="edge">
<title>Node3&#45;&gt;Node14</title>
<g id="a_edge18_Node000003_Node000014"><a xlink:title=" ">
<path fill="none" stroke="#63b8ff" d="M1006.42,-201.12C827.38,-196.33 263.92,-179.27 186.88,-152.25 183.87,-151.19 180.89,-149.71 178.07,-148.03"/>
<polygon fill="#63b8ff" stroke="#63b8ff" points="180.15,-145.21 169.96,-142.32 176.12,-150.94 180.15,-145.21"/>
</a>
</g>
</g>
<!-- Node15 -->
<g id="Node000015" class="node">
<title>Node15</title>
<g id="a_Node000015"><a xlink:title=" ">
<polygon fill="#e0e0e0" stroke="#999999" points="325.88,-146.62 195.88,-146.62 195.88,-116.12 325.88,-116.12 325.88,-146.62"/>
<text text-anchor="start" x="203.88" y="-133.12" font-family="Helvetica,sans-Serif" font-size="10.00">typed_linear_algebra</text>
<text text-anchor="middle" x="260.88" y="-121.88" font-family="Helvetica,sans-Serif" font-size="10.00">_internal/algorithm/add.tpp</text>
</a>
</g>
</g>
<!-- Node3&#45;&gt;Node15 -->
<g id="edge19_Node000003_Node000015" class="edge">
<title>Node3&#45;&gt;Node15</title>
<g id="a_edge19_Node000003_Node000015"><a xlink:title=" ">
<path fill="none" stroke="#63b8ff" d="M1006.27,-202.31C884.75,-201.11 583.16,-193.78 334.88,-152.25 330.5,-151.52 326.01,-150.64 321.5,-149.66"/>
<polygon fill="#63b8ff" stroke="#63b8ff" points="322.35,-146.27 311.82,-147.41 320.76,-153.09 322.35,-146.27"/>
</a>
</g>
</g>
<!-- Node16 -->
<g id="Node000016" class="node">
<title>Node16</title>
<g id="a_Node000016"><a xlink:title=" ">
<polygon fill="#e0e0e0" stroke="#999999" points="483.75,-146.62 344,-146.62 344,-116.12 483.75,-116.12 483.75,-146.62"/>
<text text-anchor="start" x="352" y="-133.12" font-family="Helvetica,sans-Serif" font-size="10.00">typed_linear_algebra</text>
<text text-anchor="middle" x="413.88" y="-121.88" font-family="Helvetica,sans-Serif" font-size="10.00">_internal/algorithm/divide.tpp</text>
</a>
</g>
</g>
<!-- Node3&#45;&gt;Node16 -->
<g id="edge20_Node000003_Node000016" class="edge">
<title>Node3&#45;&gt;Node16</title>
<g id="a_edge20_Node000003_Node000016"><a xlink:title=" ">
<path fill="none" stroke="#63b8ff" d="M1006.47,-200.55C904.91,-196.28 679.8,-183.83 492.88,-152.25 488.25,-151.47 483.49,-150.56 478.72,-149.56"/>
<polygon fill="#63b8ff" stroke="#63b8ff" points="479.6,-146.17 469.08,-147.43 478.09,-153 479.6,-146.17"/>
</a>
</g>
</g>
<!-- Node17 -->
<g id="Node000017" class="node">
<title>Node17</title>
<g id="a_Node000017"><a xlink:title=" ">
<polygon fill="#e0e0e0" stroke="#999999" points="623.75,-152.25 502,-152.25 502,-110.5 623.75,-110.5 623.75,-152.25"/>
<text text-anchor="start" x="510" y="-138.75" font-family="Helvetica,sans-Serif" font-size="10.00">typed_linear_algebra</text>
<text text-anchor="start" x="510" y="-127.5" font-family="Helvetica,sans-Serif" font-size="10.00">_internal/algorithm/equal</text>
<text text-anchor="middle" x="562.88" y="-116.25" font-family="Helvetica,sans-Serif" font-size="10.00">_to.tpp</text>
</a>
</g>
</g>
<!-- Node3&#45;&gt;Node17 -->
<g id="edge21_Node000003_Node000017" class="edge">
<title>Node3&#45;&gt;Node17</title>
<g id="a_edge21_Node000003_Node000017"><a xlink:title=" ">
<path fill="none" stroke="#63b8ff" d="M1006.39,-198.9C926.8,-193.04 774.01,-179.46 635.43,-152.6"/>
<polygon fill="#63b8ff" stroke="#63b8ff" points="636.17,-149.18 625.68,-150.68 634.82,-156.05 636.17,-149.18"/>
</a>
</g>
</g>
<!-- Node18 -->
<g id="Node000018" class="node">
<title>Node18</title>
<g id="a_Node000018"><a xlink:title=" ">
<polygon fill="#e0e0e0" stroke="#999999" points="788.12,-146.62 641.62,-146.62 641.62,-116.12 788.12,-116.12 788.12,-146.62"/>
<text text-anchor="start" x="649.62" y="-133.12" font-family="Helvetica,sans-Serif" font-size="10.00">typed_linear_algebra</text>
<text text-anchor="middle" x="714.88" y="-121.88" font-family="Helvetica,sans-Serif" font-size="10.00">_internal/algorithm/product.tpp</text>
</a>
</g>
</g>
<!-- Node3&#45;&gt;Node18 -->
<g id="edge22_Node000003_Node000018" class="edge">
<title>Node3&#45;&gt;Node18</title>
<g id="a_edge22_Node000003_Node000018"><a xlink:title=" ">
<path fill="none" stroke="#63b8ff" d="M1006.33,-192.84C953.03,-183.22 869.68,-167.7 797.88,-152.25 793.87,-151.39 789.77,-150.48 785.63,-149.55"/>
<polygon fill="#63b8ff" stroke="#63b8ff" points="786.65,-146.19 776.12,-147.37 785.09,-153.02 786.65,-146.19"/>
</a>
</g>
</g>
<!-- Node19 -->
<g id="Node000019" class="node">
<title>Node19</title>
<g id="a_Node000019"><a xlink:title=" ">
<polygon fill="#e0e0e0" stroke="#999999" points="961.25,-146.62 806.5,-146.62 806.5,-116.12 961.25,-116.12 961.25,-146.62"/>
<text text-anchor="start" x="814.5" y="-133.12" font-family="Helvetica,sans-Serif" font-size="10.00">typed_linear_algebra</text>
<text text-anchor="middle" x="883.88" y="-121.88" font-family="Helvetica,sans-Serif" font-size="10.00">_internal/algorithm/substract.tpp</text>
</a>
</g>
</g>
<!-- Node3&#45;&gt;Node19 -->
<g id="edge23_Node000003_Node000019" class="edge">
<title>Node3&#45;&gt;Node19</title>
<g id="a_edge23_Node000003_Node000019"><a xlink:title=" ">
<path fill="none" stroke="#63b8ff" d="M1023.77,-187.8C996.98,-177.19 960.58,-162.77 931.63,-151.29"/>
<polygon fill="#63b8ff" stroke="#63b8ff" points="932.92,-148.04 922.34,-147.61 930.35,-154.55 932.92,-148.04"/>
</a>
</g>
</g>
<!-- Node20 -->
<g id="Node000020" class="node">
<title>Node20</title>
<g id="a_Node000020"><a xlink:title=" ">
<polygon fill="#e0e0e0" stroke="#999999" points="1142,-146.62 979.75,-146.62 979.75,-116.12 1142,-116.12 1142,-146.62"/>
<text text-anchor="start" x="987.75" y="-133.12" font-family="Helvetica,sans-Serif" font-size="10.00">typed_linear_algebra</text>
<text text-anchor="middle" x="1060.88" y="-121.88" font-family="Helvetica,sans-Serif" font-size="10.00">_internal/algorithm/transposed.tpp</text>
</a>
</g>
</g>
<!-- Node3&#45;&gt;Node20 -->
<g id="edge24_Node000003_Node000020" class="edge">
<title>Node3&#45;&gt;Node20</title>
<g id="a_edge24_Node000003_Node000020"><a xlink:title=" ">
<path fill="none" stroke="#63b8ff" d="M1060.88,-187.97C1060.88,-179.41 1060.88,-168.34 1060.88,-158.33"/>
<polygon fill="#63b8ff" stroke="#63b8ff" points="1064.38,-158.4 1060.88,-148.4 1057.38,-158.4 1064.38,-158.4"/>
</a>
</g>
</g>
<!-- Node21 -->
<g id="Node000021" class="node">
<title>Node21</title>
<g id="a_Node000021"><a xlink:title=" ">
<polygon fill="#e0e0e0" stroke="#999999" points="1264.12,-146.62 1159.62,-146.62 1159.62,-116.12 1264.12,-116.12 1264.12,-146.62"/>
<text text-anchor="start" x="1167.62" y="-133.12" font-family="Helvetica,sans-Serif" font-size="10.00">typed_linear_algebra</text>
<text text-anchor="middle" x="1211.88" y="-121.88" font-family="Helvetica,sans-Serif" font-size="10.00">_internal/cast.tpp</text>
</a>
</g>
</g>
<!-- Node3&#45;&gt;Node21 -->
<g id="edge25_Node000003_Node000021" class="edge">
<title>Node3&#45;&gt;Node21</title>
<g id="a_edge25_Node000003_Node000021"><a xlink:title=" ">
<path fill="none" stroke="#63b8ff" d="M1092.53,-187.8C1114.98,-177.37 1145.34,-163.27 1169.82,-151.9"/>
<polygon fill="#63b8ff" stroke="#63b8ff" points="1171.29,-155.08 1178.89,-147.69 1168.35,-148.73 1171.29,-155.08"/>
</a>
</g>
</g>
<!-- Node22 -->
<g id="Node000022" class="node">
<title>Node22</title>
<g id="a_Node000022"><a xlink:title=" ">
<polygon fill="#e0e0e0" stroke="#999999" points="1389.62,-152.25 1282.12,-152.25 1282.12,-110.5 1389.62,-110.5 1389.62,-152.25"/>
<text text-anchor="start" x="1290.12" y="-138.75" font-family="Helvetica,sans-Serif" font-size="10.00">typed_linear_algebra</text>
<text text-anchor="start" x="1290.12" y="-127.5" font-family="Helvetica,sans-Serif" font-size="10.00">_internal/typed_linear</text>
<text text-anchor="middle" x="1335.88" y="-116.25" font-family="Helvetica,sans-Serif" font-size="10.00">_algebra.tpp</text>
</a>
</g>
</g>
<!-- Node3&#45;&gt;Node22 -->
<g id="edge26_Node000003_Node000022" class="edge">
<title>Node3&#45;&gt;Node22</title>
<g id="a_edge26_Node000003_Node000022"><a xlink:title=" ">
<path fill="none" stroke="#63b8ff" d="M1115.15,-190.11C1163.09,-179.09 1230.45,-163.39 1270.79,-152.7"/>
<polygon fill="#63b8ff" stroke="#63b8ff" points="1271.46,-156.14 1280.19,-150.15 1269.63,-149.39 1271.46,-156.14"/>
</a>
</g>
</g>
<!-- Node5&#45;&gt;Node6 -->
<g id="edge5_Node000005_Node000006" class="edge">
<title>Node5&#45;&gt;Node6</title>
<g id="a_edge5_Node000005_Node000006"><a xlink:title=" ">
<path fill="none" stroke="#63b8ff" d="M1654.93,-115.74C1653.13,-106.85 1650.82,-95.39 1648.87,-85.7"/>
<polygon fill="#63b8ff" stroke="#63b8ff" points="1652.36,-85.29 1646.95,-76.18 1645.5,-86.68 1652.36,-85.29"/>
</a>
</g>
</g>
<!-- Node5&#45;&gt;Node11 -->
<g id="edge10_Node000005_Node000011" class="edge">
<title>Node5&#45;&gt;Node11</title>
<g id="a_edge10_Node000005_Node000011"><a xlink:title=" ">
<path fill="none" stroke="#63b8ff" d="M1676.03,-115.74C1688.64,-105.57 1705.43,-92.03 1718.34,-81.63"/>
<polygon fill="#63b8ff" stroke="#63b8ff" points="1720.17,-84.65 1725.75,-75.65 1715.77,-79.2 1720.17,-84.65"/>
</a>
</g>
</g>
<!-- Node5&#45;&gt;Node12 -->
<g id="edge11_Node000005_Node000012" class="edge">
<title>Node5&#45;&gt;Node12</title>
<g id="a_edge11_Node000005_Node000012"><a xlink:title=" ">
<path fill="none" stroke="#63b8ff" d="M1605.34,-121.32C1579.91,-117.3 1548.89,-112.94 1520.88,-110.5 1222.35,-84.49 248.72,-69.17 55.41,-66.35"/>
<polygon fill="#63b8ff" stroke="#63b8ff" points="55.63,-62.85 45.58,-66.21 55.53,-69.85 55.63,-62.85"/>
</a>
</g>
</g>
<!-- Node6&#45;&gt;Node7 -->
<g id="edge6_Node000006_Node000007" class="edge">
<title>Node6&#45;&gt;Node7</title>
<g id="a_edge6_Node000006_Node000007"><a xlink:title=" ">
<path fill="none" stroke="#63b8ff" d="M1670.15,-54.84C1694.23,-46.24 1730.73,-33.19 1757.86,-23.5"/>
<polygon fill="#63b8ff" stroke="#63b8ff" points="1758.81,-26.87 1767.05,-20.21 1756.46,-20.28 1758.81,-26.87"/>
</a>
</g>
</g>
<!-- Node8 -->
<g id="Node000008" class="node">
<title>Node8</title>
<g id="a_Node000008"><a xlink:title=" ">
<polygon fill="#e0e0e0" stroke="#999999" points="1726.88,-19.25 1668.88,-19.25 1668.88,0 1726.88,0 1726.88,-19.25"/>
<text text-anchor="middle" x="1697.88" y="-5.75" font-family="Helvetica,sans-Serif" font-size="10.00">functional</text>
</a>
</g>
</g>
<!-- Node6&#45;&gt;Node8 -->
<g id="edge7_Node000006_Node000008" class="edge">
<title>Node6&#45;&gt;Node8</title>
<g id="a_edge7_Node000006_Node000008"><a xlink:title=" ">
<path fill="none" stroke="#63b8ff" d="M1653.63,-55.08C1661.02,-47.65 1671.84,-36.79 1680.92,-27.66"/>
<polygon fill="#63b8ff" stroke="#63b8ff" points="1683.29,-30.24 1687.87,-20.68 1678.33,-25.3 1683.29,-30.24"/>
</a>
</g>
</g>
<!-- Node6&#45;&gt;Node9 -->
<g id="edge8_Node000006_Node000009" class="edge">
<title>Node6&#45;&gt;Node9</title>
<g id="a_edge8_Node000006_Node000009"><a xlink:title=" ">
<path fill="none" stroke="#63b8ff" d="M1628.25,-54.84C1613.19,-46.66 1590.73,-34.46 1573.22,-24.94"/>
<polygon fill="#63b8ff" stroke="#63b8ff" points="1575.37,-22.12 1564.91,-20.43 1572.03,-28.27 1575.37,-22.12"/>
</a>
</g>
</g>
<!-- Node10 -->
<g id="Node000010" class="node">
<title>Node10</title>
<g id="a_Node000010"><a xlink:title=" ">
<polygon fill="#e0e0e0" stroke="#999999" points="1650.38,-19.25 1589.38,-19.25 1589.38,0 1650.38,0 1650.38,-19.25"/>
<text text-anchor="middle" x="1619.88" y="-5.75" font-family="Helvetica,sans-Serif" font-size="10.00">type_traits</text>
</a>
</g>
</g>
<!-- Node6&#45;&gt;Node10 -->
<g id="edge9_Node000006_Node000010" class="edge">
<title>Node6&#45;&gt;Node10</title>
<g id="a_edge9_Node000006_Node000010"><a xlink:title=" ">
<path fill="none" stroke="#63b8ff" d="M1640.75,-55.08C1637.55,-48.26 1632.99,-38.56 1628.95,-29.95"/>
<polygon fill="#63b8ff" stroke="#63b8ff" points="1632.15,-28.54 1624.74,-20.98 1625.82,-31.52 1632.15,-28.54"/>
</a>
</g>
</g>
</g>
</svg>
