<?xml version="1.0" encoding="UTF-8" standalone="no"?>
<!DOCTYPE svg PUBLIC "-//W3C//DTD SVG 1.1//EN"
 "http://www.w3.org/Graphics/SVG/1.1/DTD/svg11.dtd">
<!-- Generated by graphviz version 12.2.0 (20241103.1931)
 -->
<!-- Title: /github/workspace/support/nested_typed_eigen/fcarouge/linalg.hpp Pages: 1 -->
<!--zoomable 360 -->

<svg id="main" version="1.1" xmlns="http://www.w3.org/2000/svg" xmlns:xlink="http://www.w3.org/1999/xlink" xml:space="preserve" onload="init(evt)">

<style type="text/css"><![CDATA[
.node, .edge {opacity: 0.7;}
.node.selected, .edge.selected {opacity: 1;}
.edge:hover path { stroke: red; }
.edge:hover polygon { stroke: red; fill: red; }
]]></style>

<defs>
  <circle id="rim" cx="0" cy="0" r="7"/>
  <circle id="rim2" cx="0" cy="0" r="3.5"/>
  <g id="zoomPlus">
    <use xlink:href="#rim" fill="#404040"><set attributeName="fill" to="#808080" begin="zoomplus.mouseover" end="zoomplus.mouseout"/></use>
    <path d="M-4,0h8M0,-4v8" fill="none" stroke="white" stroke-width="1.5" pointer-events="none"/>
  </g>
  <g id="zoomMin">
    <use xlink:href="#rim" fill="#404040"><set attributeName="fill" to="#808080" begin="zoomminus.mouseover" end="zoomminus.mouseout"/></use>
    <path d="M-4,0h8" fill="none" stroke="white" stroke-width="1.5" pointer-events="none"/>
  </g>
  <g id="arrowUp" transform="translate(30 24)">
    <use xlink:href="#rim"/>
    <path pointer-events="none" fill="none" stroke="white" stroke-width="1.5" d="M0,-3.0v7 M-2.5,-0.5L0,-3.0L2.5,-0.5"/>
  </g>
  <g id="arrowRight" transform="rotate(90) translate(36 -43)">
    <use xlink:href="#rim"/>
    <path pointer-events="none" fill="none" stroke="white" stroke-width="1.5" d="M0,-3.0v7 M-2.5,-0.5L0,-3.0L2.5,-0.5"/>
  </g>
  <g id="arrowDown" transform="rotate(180) translate(-30 -48)">
    <use xlink:href="#rim"/>
    <path pointer-events="none" fill="none" stroke="white" stroke-width="1.5" d="M0,-3.0v7 M-2.5,-0.5L0,-3.0L2.5,-0.5"/>
  </g>
  <g id="arrowLeft" transform="rotate(270) translate(-36 17)">
    <use xlink:href="#rim"/>
    <path pointer-events="none" fill="none" stroke="white" stroke-width="1.5" d="M0,-3.0v7 M-2.5,-0.5L0,-3.0L2.5,-0.5"/>
  </g>
  <g id="resetDef">
    <use xlink:href="#rim2" fill="#404040"><set attributeName="fill" to="#808080" begin="reset.mouseover" end="reset.mouseout"/></use>
  </g>
</defs>
<script type="application/ecmascript">
var viewWidth = 2585;
var viewHeight = 360;
var sectionId = 'dynsection-0';
</script>
<script type="application/ecmascript" xlink:href="svg.min.js"/>
<svg id="graph" class="graph">
<g id="viewport">
<title>/github/workspace/support/nested_typed_eigen/fcarouge/linalg.hpp</title>
<!-- Node1 -->
<g id="Node000001" class="node">
<title>Node1</title>
<g id="a_Node000001"><a xlink:title="Scalar type nested linear algebra with Eigen implementation.">
<polygon fill="#999999" stroke="#666666" points="2295.62,-351.75 2149.88,-351.75 2149.88,-310 2295.62,-310 2295.62,-351.75"/>
<text text-anchor="start" x="2157.88" y="-338.25" font-family="Helvetica,sans-Serif" font-size="10.00">/github/workspace/support</text>
<text text-anchor="start" x="2157.88" y="-327" font-family="Helvetica,sans-Serif" font-size="10.00">/nested_typed_eigen/fcarouge</text>
<text text-anchor="middle" x="2222.75" y="-315.75" font-family="Helvetica,sans-Serif" font-size="10.00">/linalg.hpp</text>
</a>
</g>
</g>
<!-- Node2 -->
<g id="Node000002" class="node">
<title>Node2</title>
<g id="a_Node000002"><a xlink:href="eigen_8hpp.xhtml" target="_top" xlink:title="Linear algebra facade for Eigen3 third party implementation.">
<polygon fill="white" stroke="#666666" points="2401.62,-274 2303.88,-274 2303.88,-254.75 2401.62,-254.75 2401.62,-274"/>
<text text-anchor="middle" x="2352.75" y="-260.5" font-family="Helvetica,sans-Serif" font-size="10.00">fcarouge/eigen.hpp</text>
</a>
</g>
</g>
<!-- Node1&#45;&gt;Node2 -->
<g id="edge1_Node000001_Node000002" class="edge">
<title>Node1&#45;&gt;Node2</title>
<g id="a_edge1_Node000001_Node000002"><a xlink:title=" ">
<path fill="none" stroke="#63b8ff" d="M2263.53,-309.64C2283.26,-299.85 2306.47,-288.34 2324.27,-279.51"/>
<polygon fill="#63b8ff" stroke="#63b8ff" points="2325.81,-282.65 2333.22,-275.07 2322.7,-276.38 2325.81,-282.65"/>
</a>
</g>
</g>
<!-- Node3 -->
<g id="Node000003" class="node">
<title>Node3</title>
<g id="a_Node000003"><a xlink:href="typed__linear__algebra_8hpp.xhtml" target="_top" xlink:title="Typed linear algebra implementation.">
<polygon fill="white" stroke="#666666" points="1575.88,-218.75 1467.62,-218.75 1467.62,-188.25 1575.88,-188.25 1575.88,-218.75"/>
<text text-anchor="start" x="1475.62" y="-205.25" font-family="Helvetica,sans-Serif" font-size="10.00">fcarouge/typed_linear</text>
<text text-anchor="middle" x="1521.75" y="-194" font-family="Helvetica,sans-Serif" font-size="10.00">_algebra.hpp</text>
</a>
</g>
</g>
<!-- Node1&#45;&gt;Node3 -->
<g id="edge37_Node000001_Node000003" class="edge">
<title>Node1&#45;&gt;Node3</title>
<g id="a_edge37_Node000001_Node000003"><a xlink:title=" ">
<path fill="none" stroke="#63b8ff" d="M2149.39,-316.75C2012.07,-292.19 1718.31,-239.66 1587.24,-216.21"/>
<polygon fill="#63b8ff" stroke="#63b8ff" points="1588.15,-212.82 1577.69,-214.51 1586.92,-219.71 1588.15,-212.82"/>
</a>
</g>
</g>
<!-- Node11 -->
<g id="Node000011" class="node">
<title>Node11</title>
<g id="a_Node000011"><a xlink:title=" ">
<polygon fill="#e0e0e0" stroke="#999999" points="2227.88,-74.5 2179.62,-74.5 2179.62,-55.25 2227.88,-55.25 2227.88,-74.5"/>
<text text-anchor="middle" x="2203.75" y="-61" font-family="Helvetica,sans-Serif" font-size="10.00">cstddef</text>
</a>
</g>
</g>
<!-- Node1&#45;&gt;Node11 -->
<g id="edge38_Node000001_Node000011" class="edge">
<title>Node1&#45;&gt;Node11</title>
<g id="a_edge38_Node000001_Node000011"><a xlink:title=" ">
<path fill="none" stroke="#63b8ff" d="M2221.29,-309.6C2217.75,-260.39 2208.73,-135.08 2205.2,-86.01"/>
<polygon fill="#63b8ff" stroke="#63b8ff" points="2208.71,-86.03 2204.5,-76.3 2201.73,-86.53 2208.71,-86.03"/>
</a>
</g>
</g>
<!-- Node2&#45;&gt;Node3 -->
<g id="edge2_Node000002_Node000003" class="edge">
<title>Node2&#45;&gt;Node3</title>
<g id="a_edge2_Node000002_Node000003"><a xlink:title=" ">
<path fill="none" stroke="#63b8ff" d="M2303.56,-259.89C2161.15,-249.8 1748.41,-220.56 1587.28,-209.14"/>
<polygon fill="#63b8ff" stroke="#63b8ff" points="1587.85,-205.67 1577.63,-208.46 1587.36,-212.66 1587.85,-205.67"/>
</a>
</g>
</g>
<!-- Node7 -->
<g id="Node000007" class="node">
<title>Node7</title>
<g id="a_Node000007"><a xlink:title=" ">
<polygon fill="#e0e0e0" stroke="#999999" points="1997.62,-19.25 1941.88,-19.25 1941.88,0 1997.62,0 1997.62,-19.25"/>
<text text-anchor="middle" x="1969.75" y="-5.75" font-family="Helvetica,sans-Serif" font-size="10.00">concepts</text>
</a>
</g>
</g>
<!-- Node2&#45;&gt;Node7 -->
<g id="edge30_Node000002_Node000007" class="edge">
<title>Node2&#45;&gt;Node7</title>
<g id="a_edge30_Node000002_Node000007"><a xlink:title=" ">
<path fill="none" stroke="#63b8ff" d="M2344.94,-254.55C2337.43,-245.82 2326.05,-231.91 2317.75,-218.75 2274.5,-150.15 2302.13,-103.23 2236.75,-55.25 2156.18,3.87 2111.44,-36.06 2009.07,-19.42"/>
<polygon fill="#63b8ff" stroke="#63b8ff" points="2009.94,-16.02 1999.48,-17.7 2008.7,-22.91 2009.94,-16.02"/>
</a>
</g>
</g>
<!-- Node9 -->
<g id="Node000009" class="node">
<title>Node9</title>
<g id="a_Node000009"><a xlink:title=" ">
<polygon fill="#e0e0e0" stroke="#999999" points="2129.25,-19.25 2092.25,-19.25 2092.25,0 2129.25,0 2129.25,-19.25"/>
<text text-anchor="middle" x="2110.75" y="-5.75" font-family="Helvetica,sans-Serif" font-size="10.00">tuple</text>
</a>
</g>
</g>
<!-- Node2&#45;&gt;Node9 -->
<g id="edge34_Node000002_Node000009" class="edge">
<title>Node2&#45;&gt;Node9</title>
<g id="a_edge34_Node000002_Node000009"><a xlink:title=" ">
<path fill="none" stroke="#63b8ff" d="M2402,-261.25C2432.62,-257.07 2469.84,-246.18 2489.75,-218.75 2497.71,-207.78 2494.47,-200.96 2489.75,-188.25 2437.29,-47 2221.16,-18.04 2140.92,-12.13"/>
<polygon fill="#63b8ff" stroke="#63b8ff" points="2141.4,-8.65 2131.19,-11.49 2140.94,-15.64 2141.4,-8.65"/>
</a>
</g>
</g>
<!-- Node10 -->
<g id="Node000010" class="node">
<title>Node10</title>
<g id="a_Node000010"><a xlink:title=" ">
<polygon fill="#e0e0e0" stroke="#999999" points="2407.25,-19.25 2346.25,-19.25 2346.25,0 2407.25,0 2407.25,-19.25"/>
<text text-anchor="middle" x="2376.75" y="-5.75" font-family="Helvetica,sans-Serif" font-size="10.00">type_traits</text>
</a>
</g>
</g>
<!-- Node2&#45;&gt;Node10 -->
<g id="edge35_Node000002_Node000010" class="edge">
<title>Node2&#45;&gt;Node10</title>
<g id="a_edge35_Node000002_Node000010"><a xlink:title=" ">
<path fill="none" stroke="#63b8ff" d="M2401.84,-258.76C2452.44,-252.86 2526.34,-240.69 2543.75,-218.75 2588.91,-161.82 2588.01,-112.89 2543.75,-55.25 2528.61,-35.53 2463.11,-22.64 2418.78,-16"/>
<polygon fill="#63b8ff" stroke="#63b8ff" points="2419.35,-12.55 2408.95,-14.59 2418.35,-19.48 2419.35,-12.55"/>
</a>
</g>
</g>
<!-- Node2&#45;&gt;Node11 -->
<g id="edge31_Node000002_Node000011" class="edge">
<title>Node2&#45;&gt;Node11</title>
<g id="a_edge31_Node000002_Node000011"><a xlink:title=" ">
<path fill="none" stroke="#63b8ff" d="M2402.1,-258.27C2427.68,-252.83 2456.83,-241.66 2472.75,-218.75 2480.49,-207.62 2480.09,-199.65 2472.75,-188.25 2420.55,-107.16 2299.98,-79.17 2239.59,-70.03"/>
<polygon fill="#63b8ff" stroke="#63b8ff" points="2240.24,-66.59 2229.85,-68.65 2239.26,-73.52 2240.24,-66.59"/>
</a>
</g>
</g>
<!-- Node12 -->
<g id="Node000012" class="node">
<title>Node12</title>
<g id="a_Node000012"><a xlink:title=" ">
<polygon fill="#e0e0e0" stroke="#999999" points="2134.62,-74.5 2090.88,-74.5 2090.88,-55.25 2134.62,-55.25 2134.62,-74.5"/>
<text text-anchor="middle" x="2112.75" y="-61" font-family="Helvetica,sans-Serif" font-size="10.00">format</text>
</a>
</g>
</g>
<!-- Node2&#45;&gt;Node12 -->
<g id="edge32_Node000002_Node000012" class="edge">
<title>Node2&#45;&gt;Node12</title>
<g id="a_edge32_Node000002_Node000012"><a xlink:title=" ">
<path fill="none" stroke="#63b8ff" d="M2337.43,-254.28C2323.33,-245.69 2302.05,-232.16 2284.75,-218.75 2228.24,-174.95 2219.55,-157.59 2165.75,-110.5 2154.91,-101.01 2142.62,-90.64 2132.6,-82.28"/>
<polygon fill="#63b8ff" stroke="#63b8ff" points="2134.91,-79.65 2124.98,-75.95 2130.44,-85.03 2134.91,-79.65"/>
</a>
</g>
</g>
<!-- Node26 -->
<g id="Node000026" class="node">
<title>Node26</title>
<g id="a_Node000026"><a xlink:title=" ">
<polygon fill="#e0e0e0" stroke="#999999" points="2378.38,-213.12 2327.12,-213.12 2327.12,-193.88 2378.38,-193.88 2378.38,-213.12"/>
<text text-anchor="middle" x="2352.75" y="-199.62" font-family="Helvetica,sans-Serif" font-size="10.00">sstream</text>
</a>
</g>
</g>
<!-- Node2&#45;&gt;Node26 -->
<g id="edge33_Node000002_Node000026" class="edge">
<title>Node2&#45;&gt;Node26</title>
<g id="a_edge33_Node000002_Node000026"><a xlink:title=" ">
<path fill="none" stroke="#63b8ff" d="M2352.75,-254.43C2352.75,-246.65 2352.75,-235.08 2352.75,-225.03"/>
<polygon fill="#63b8ff" stroke="#63b8ff" points="2356.25,-225.04 2352.75,-215.04 2349.25,-225.04 2356.25,-225.04"/>
</a>
</g>
</g>
<!-- Node27 -->
<g id="Node000027" class="node">
<title>Node27</title>
<g id="a_Node000027"><a xlink:title=" ">
<polygon fill="#e0e0e0" stroke="#999999" points="2463.25,-213.12 2396.25,-213.12 2396.25,-193.88 2463.25,-193.88 2463.25,-213.12"/>
<text text-anchor="middle" x="2429.75" y="-199.62" font-family="Helvetica,sans-Serif" font-size="10.00">Eigen/Eigen</text>
</a>
</g>
</g>
<!-- Node2&#45;&gt;Node27 -->
<g id="edge36_Node000002_Node000027" class="edge">
<title>Node2&#45;&gt;Node27</title>
<g id="a_edge36_Node000002_Node000027"><a xlink:title=" ">
<path fill="none" stroke="#63b8ff" d="M2364.44,-254.43C2376.2,-245.44 2394.59,-231.39 2408.86,-220.48"/>
<polygon fill="#63b8ff" stroke="#63b8ff" points="2410.92,-223.3 2416.74,-214.45 2406.67,-217.74 2410.92,-223.3"/>
</a>
</g>
</g>
<!-- Node4 -->
<g id="Node000004" class="node">
<title>Node4</title>
<g id="a_Node000004"><a xlink:href="typed__linear__algebra__forward_8hpp.xhtml" target="_top" xlink:title="Authoritative forward declaration header.">
<polygon fill="white" stroke="#666666" points="1883,-146.62 1778.5,-146.62 1778.5,-116.12 1883,-116.12 1883,-146.62"/>
<text text-anchor="start" x="1786.5" y="-133.12" font-family="Helvetica,sans-Serif" font-size="10.00">typed_linear_algebra</text>
<text text-anchor="middle" x="1830.75" y="-121.88" font-family="Helvetica,sans-Serif" font-size="10.00">_forward.hpp</text>
</a>
</g>
</g>
<!-- Node3&#45;&gt;Node4 -->
<g id="edge3_Node000003_Node000004" class="edge">
<title>Node3&#45;&gt;Node4</title>
<g id="a_edge3_Node000003_Node000004"><a xlink:title=" ">
<path fill="none" stroke="#63b8ff" d="M1576.35,-193.3C1626.88,-184.35 1703.9,-169.59 1769.75,-152.25 1772.02,-151.65 1774.33,-151.02 1776.66,-150.36"/>
<polygon fill="#63b8ff" stroke="#63b8ff" points="1777.57,-153.74 1786.16,-147.54 1775.58,-147.03 1777.57,-153.74"/>
</a>
</g>
</g>
<!-- Node5 -->
<g id="Node000005" class="node">
<title>Node5</title>
<g id="a_Node000005"><a xlink:href="format_8hpp.xhtml" target="_top" xlink:title="Formatting support for the typed matrix.">
<polygon fill="white" stroke="#666666" points="2157,-146.62 2052.5,-146.62 2052.5,-116.12 2157,-116.12 2157,-146.62"/>
<text text-anchor="start" x="2060.5" y="-133.12" font-family="Helvetica,sans-Serif" font-size="10.00">typed_linear_algebra</text>
<text text-anchor="middle" x="2104.75" y="-121.88" font-family="Helvetica,sans-Serif" font-size="10.00">_internal/format.hpp</text>
</a>
</g>
</g>
<!-- Node3&#45;&gt;Node5 -->
<g id="edge4_Node000003_Node000005" class="edge">
<title>Node3&#45;&gt;Node5</title>
<g id="a_edge4_Node000003_Node000005"><a xlink:title=" ">
<path fill="none" stroke="#63b8ff" d="M1576.22,-200.71C1671.03,-196.81 1872.19,-185.09 2038.75,-152.25 2042.27,-151.56 2045.88,-150.75 2049.49,-149.87"/>
<polygon fill="#63b8ff" stroke="#63b8ff" points="2050.06,-153.34 2058.85,-147.43 2048.29,-146.57 2050.06,-153.34"/>
</a>
</g>
</g>
<!-- Node6 -->
<g id="Node000006" class="node">
<title>Node6</title>
<g id="a_Node000006"><a xlink:href="utility_8hpp.xhtml" target="_top" xlink:title=" ">
<polygon fill="white" stroke="#666666" points="2073,-74.5 2016.5,-74.5 2016.5,-55.25 2073,-55.25 2073,-74.5"/>
<text text-anchor="middle" x="2044.75" y="-61" font-family="Helvetica,sans-Serif" font-size="10.00">utility.hpp</text>
</a>
</g>
</g>
<!-- Node3&#45;&gt;Node6 -->
<g id="edge12_Node000003_Node000006" class="edge">
<title>Node3&#45;&gt;Node6</title>
<g id="a_edge12_Node000003_Node000006"><a xlink:title=" ">
<path fill="none" stroke="#63b8ff" d="M1576.24,-200.91C1678.78,-197.17 1896.11,-185.47 1962.75,-152.25 1979.02,-144.14 2011.64,-106.4 2030.46,-83.58"/>
<polygon fill="#63b8ff" stroke="#63b8ff" points="2033.03,-85.97 2036.64,-76.01 2027.6,-81.54 2033.03,-85.97"/>
</a>
</g>
</g>
<!-- Node3&#45;&gt;Node7 -->
<g id="edge13_Node000003_Node000007" class="edge">
<title>Node3&#45;&gt;Node7</title>
<g id="a_edge13_Node000003_Node000007"><a xlink:title=" ">
<path fill="none" stroke="#63b8ff" d="M1576.25,-201.48C1666.79,-198.77 1843.09,-188.8 1891.75,-152.25 1929.45,-123.93 1910.46,-95.67 1934.75,-55.25 1940.38,-45.89 1947.7,-36.27 1954.19,-28.36"/>
<polygon fill="#63b8ff" stroke="#63b8ff" points="1956.75,-30.75 1960.54,-20.86 1951.41,-26.23 1956.75,-30.75"/>
</a>
</g>
</g>
<!-- Node3&#45;&gt;Node9 -->
<g id="edge17_Node000003_Node000009" class="edge">
<title>Node3&#45;&gt;Node9</title>
<g id="a_edge17_Node000003_Node000009"><a xlink:title=" ">
<path fill="none" stroke="#63b8ff" d="M1576.36,-200.21C1670.84,-195.49 1860.28,-182.48 1918.75,-152.25 1970.72,-125.38 1960.08,-89.18 2007.75,-55.25 2020.11,-46.45 2055.56,-31.84 2081.42,-21.75"/>
<polygon fill="#63b8ff" stroke="#63b8ff" points="2082.35,-25.14 2090.41,-18.27 2079.83,-18.61 2082.35,-25.14"/>
</a>
</g>
</g>
<!-- Node3&#45;&gt;Node11 -->
<g id="edge14_Node000003_Node000011" class="edge">
<title>Node3&#45;&gt;Node11</title>
<g id="a_edge14_Node000003_Node000011"><a xlink:title=" ">
<path fill="none" stroke="#63b8ff" d="M1576.17,-201.42C1722.77,-198.08 2118.19,-186 2165.75,-152.25 2187.44,-136.86 2196.9,-106.26 2200.92,-85.93"/>
<polygon fill="#63b8ff" stroke="#63b8ff" points="2204.33,-86.76 2202.53,-76.32 2197.43,-85.6 2204.33,-86.76"/>
</a>
</g>
</g>
<!-- Node3&#45;&gt;Node12 -->
<g id="edge15_Node000003_Node000012" class="edge">
<title>Node3&#45;&gt;Node12</title>
<g id="a_edge15_Node000003_Node000012"><a xlink:title=" ">
<path fill="none" stroke="#63b8ff" d="M1576.25,-201.06C1684.93,-197.5 1924.55,-185.96 1998.75,-152.25 2023.59,-140.96 2022.21,-127.25 2043.75,-110.5 2057.66,-99.68 2074.21,-88.91 2087.61,-80.67"/>
<polygon fill="#63b8ff" stroke="#63b8ff" points="2089.12,-83.85 2095.86,-75.68 2085.49,-77.86 2089.12,-83.85"/>
</a>
</g>
</g>
<!-- Node13 -->
<g id="Node000013" class="node">
<title>Node13</title>
<g id="a_Node000013"><a xlink:title=" ">
<polygon fill="#e0e0e0" stroke="#999999" points="71.5,-141 0,-141 0,-121.75 71.5,-121.75 71.5,-141"/>
<text text-anchor="middle" x="35.75" y="-127.5" font-family="Helvetica,sans-Serif" font-size="10.00">initializer_list</text>
</a>
</g>
</g>
<!-- Node3&#45;&gt;Node13 -->
<g id="edge16_Node000003_Node000013" class="edge">
<title>Node3&#45;&gt;Node13</title>
<g id="a_edge16_Node000003_Node000013"><a xlink:title=" ">
<path fill="none" stroke="#63b8ff" d="M1467.48,-201.83C1221.53,-198.6 217.62,-183.63 80.75,-152.25 74.51,-150.82 68.06,-148.52 62.06,-145.99"/>
<polygon fill="#63b8ff" stroke="#63b8ff" points="63.82,-142.94 53.27,-141.94 60.89,-149.3 63.82,-142.94"/>
</a>
</g>
</g>
<!-- Node14 -->
<g id="Node000014" class="node">
<title>Node14</title>
<g id="a_Node000014"><a xlink:title=" ">
<polygon fill="#e0e0e0" stroke="#999999" points="128,-141 89.5,-141 89.5,-121.75 128,-121.75 128,-141"/>
<text text-anchor="middle" x="108.75" y="-127.5" font-family="Helvetica,sans-Serif" font-size="10.00">utility</text>
</a>
</g>
</g>
<!-- Node3&#45;&gt;Node14 -->
<g id="edge18_Node000003_Node000014" class="edge">
<title>Node3&#45;&gt;Node14</title>
<g id="a_edge18_Node000003_Node000014"><a xlink:title=" ">
<path fill="none" stroke="#63b8ff" d="M1467.42,-202.37C1226.89,-201.52 264.22,-195.45 136.75,-152.25 133.57,-151.17 130.44,-149.61 127.49,-147.83"/>
<polygon fill="#63b8ff" stroke="#63b8ff" points="129.73,-145.13 119.56,-142.18 125.67,-150.83 129.73,-145.13"/>
</a>
</g>
</g>
<!-- Node15 -->
<g id="Node000015" class="node">
<title>Node15</title>
<g id="a_Node000015"><a xlink:title=" ">
<polygon fill="#e0e0e0" stroke="#999999" points="275.75,-146.62 145.75,-146.62 145.75,-116.12 275.75,-116.12 275.75,-146.62"/>
<text text-anchor="start" x="153.75" y="-133.12" font-family="Helvetica,sans-Serif" font-size="10.00">typed_linear_algebra</text>
<text text-anchor="middle" x="210.75" y="-121.88" font-family="Helvetica,sans-Serif" font-size="10.00">_internal/algorithm/add.tpp</text>
</a>
</g>
</g>
<!-- Node3&#45;&gt;Node15 -->
<g id="edge19_Node000003_Node000015" class="edge">
<title>Node3&#45;&gt;Node15</title>
<g id="a_edge19_Node000003_Node000015"><a xlink:title=" ">
<path fill="none" stroke="#63b8ff" d="M1467.35,-201.89C1259.81,-199.33 517.81,-187.83 284.75,-152.25 280.09,-151.54 275.3,-150.64 270.51,-149.63"/>
<polygon fill="#63b8ff" stroke="#63b8ff" points="271.39,-146.24 260.86,-147.41 269.82,-153.06 271.39,-146.24"/>
</a>
</g>
</g>
<!-- Node16 -->
<g id="Node000016" class="node">
<title>Node16</title>
<g id="a_Node000016"><a xlink:title=" ">
<polygon fill="#e0e0e0" stroke="#999999" points="433.62,-146.62 293.88,-146.62 293.88,-116.12 433.62,-116.12 433.62,-146.62"/>
<text text-anchor="start" x="301.88" y="-133.12" font-family="Helvetica,sans-Serif" font-size="10.00">typed_linear_algebra</text>
<text text-anchor="middle" x="363.75" y="-121.88" font-family="Helvetica,sans-Serif" font-size="10.00">_internal/algorithm/divide.tpp</text>
</a>
</g>
</g>
<!-- Node3&#45;&gt;Node16 -->
<g id="edge20_Node000003_Node000016" class="edge">
<title>Node3&#45;&gt;Node16</title>
<g id="a_edge20_Node000003_Node000016"><a xlink:title=" ">
<path fill="none" stroke="#63b8ff" d="M1467.29,-201.4C1277.17,-197.35 643.69,-181.9 442.75,-152.25 437.6,-151.49 432.3,-150.54 426.99,-149.46"/>
<polygon fill="#63b8ff" stroke="#63b8ff" points="428.14,-146.13 417.63,-147.43 426.66,-152.97 428.14,-146.13"/>
</a>
</g>
</g>
<!-- Node17 -->
<g id="Node000017" class="node">
<title>Node17</title>
<g id="a_Node000017"><a xlink:title=" ">
<polygon fill="#e0e0e0" stroke="#999999" points="573.62,-152.25 451.88,-152.25 451.88,-110.5 573.62,-110.5 573.62,-152.25"/>
<text text-anchor="start" x="459.88" y="-138.75" font-family="Helvetica,sans-Serif" font-size="10.00">typed_linear_algebra</text>
<text text-anchor="start" x="459.88" y="-127.5" font-family="Helvetica,sans-Serif" font-size="10.00">_internal/algorithm/equal</text>
<text text-anchor="middle" x="512.75" y="-116.25" font-family="Helvetica,sans-Serif" font-size="10.00">_to.tpp</text>
</a>
</g>
</g>
<!-- Node3&#45;&gt;Node17 -->
<g id="edge21_Node000003_Node000017" class="edge">
<title>Node3&#45;&gt;Node17</title>
<g id="a_edge21_Node000003_Node000017"><a xlink:title=" ">
<path fill="none" stroke="#63b8ff" d="M1467.22,-201.18C1297.04,-196.82 776.18,-181.53 585.31,-152.41"/>
<polygon fill="#63b8ff" stroke="#63b8ff" points="585.96,-148.97 575.53,-150.85 584.85,-155.88 585.96,-148.97"/>
</a>
</g>
</g>
<!-- Node18 -->
<g id="Node000018" class="node">
<title>Node18</title>
<g id="a_Node000018"><a xlink:title=" ">
<polygon fill="#e0e0e0" stroke="#999999" points="716.12,-152.25 591.38,-152.25 591.38,-110.5 716.12,-110.5 716.12,-152.25"/>
<text text-anchor="start" x="599.38" y="-138.75" font-family="Helvetica,sans-Serif" font-size="10.00">typed_linear_algebra</text>
<text text-anchor="start" x="599.38" y="-127.5" font-family="Helvetica,sans-Serif" font-size="10.00">_internal/algorithm/matrix</text>
<text text-anchor="middle" x="653.75" y="-116.25" font-family="Helvetica,sans-Serif" font-size="10.00">_product.tpp</text>
</a>
</g>
</g>
<!-- Node3&#45;&gt;Node18 -->
<g id="edge22_Node000003_Node000018" class="edge">
<title>Node3&#45;&gt;Node18</title>
<g id="a_edge22_Node000003_Node000018"><a xlink:title=" ">
<path fill="none" stroke="#63b8ff" d="M1467.26,-202.91C1339.44,-203.06 1010.43,-198.64 727.71,-152.37"/>
<polygon fill="#63b8ff" stroke="#63b8ff" points="728.34,-148.92 717.9,-150.74 727.19,-155.83 728.34,-148.92"/>
</a>
</g>
</g>
<!-- Node19 -->
<g id="Node000019" class="node">
<title>Node19</title>
<g id="a_Node000019"><a xlink:title=" ">
<polygon fill="#e0e0e0" stroke="#999999" points="881,-146.62 734.5,-146.62 734.5,-116.12 881,-116.12 881,-146.62"/>
<text text-anchor="start" x="742.5" y="-133.12" font-family="Helvetica,sans-Serif" font-size="10.00">typed_linear_algebra</text>
<text text-anchor="middle" x="807.75" y="-121.88" font-family="Helvetica,sans-Serif" font-size="10.00">_internal/algorithm/product.tpp</text>
</a>
</g>
</g>
<!-- Node3&#45;&gt;Node19 -->
<g id="edge23_Node000003_Node000019" class="edge">
<title>Node3&#45;&gt;Node19</title>
<g id="a_edge23_Node000003_Node000019"><a xlink:title=" ">
<path fill="none" stroke="#63b8ff" d="M1467.3,-201.07C1357.45,-197.56 1101.69,-186.14 889.75,-152.25 884.6,-151.43 879.29,-150.45 873.97,-149.37"/>
<polygon fill="#63b8ff" stroke="#63b8ff" points="875.08,-146.03 864.57,-147.36 873.62,-152.87 875.08,-146.03"/>
</a>
</g>
</g>
<!-- Node20 -->
<g id="Node000020" class="node">
<title>Node20</title>
<g id="a_Node000020"><a xlink:title=" ">
<polygon fill="#e0e0e0" stroke="#999999" points="1036.5,-146.62 899,-146.62 899,-116.12 1036.5,-116.12 1036.5,-146.62"/>
<text text-anchor="start" x="907" y="-133.12" font-family="Helvetica,sans-Serif" font-size="10.00">typed_linear_algebra</text>
<text text-anchor="middle" x="967.75" y="-121.88" font-family="Helvetica,sans-Serif" font-size="10.00">_internal/algorithm/scale.tpp</text>
</a>
</g>
</g>
<!-- Node3&#45;&gt;Node20 -->
<g id="edge24_Node000003_Node000020" class="edge">
<title>Node3&#45;&gt;Node20</title>
<g id="a_edge24_Node000003_Node000020"><a xlink:title=" ">
<path fill="none" stroke="#63b8ff" d="M1467.14,-199.31C1378.27,-193.54 1197.07,-179.37 1045.75,-152.25 1041.39,-151.47 1036.91,-150.57 1032.41,-149.61"/>
<polygon fill="#63b8ff" stroke="#63b8ff" points="1033.24,-146.21 1022.71,-147.42 1031.69,-153.04 1033.24,-146.21"/>
</a>
</g>
</g>
<!-- Node21 -->
<g id="Node000021" class="node">
<title>Node21</title>
<g id="a_Node000021"><a xlink:title=" ">
<polygon fill="#e0e0e0" stroke="#999999" points="1209.12,-146.62 1054.38,-146.62 1054.38,-116.12 1209.12,-116.12 1209.12,-146.62"/>
<text text-anchor="start" x="1062.38" y="-133.12" font-family="Helvetica,sans-Serif" font-size="10.00">typed_linear_algebra</text>
<text text-anchor="middle" x="1131.75" y="-121.88" font-family="Helvetica,sans-Serif" font-size="10.00">_internal/algorithm/substract.tpp</text>
</a>
</g>
</g>
<!-- Node3&#45;&gt;Node21 -->
<g id="edge25_Node000003_Node000021" class="edge">
<title>Node3&#45;&gt;Node21</title>
<g id="a_edge25_Node000003_Node000021"><a xlink:title=" ">
<path fill="none" stroke="#63b8ff" d="M1467.38,-194.49C1406.61,-185.31 1305.34,-169.3 1218.75,-152.25 1214.22,-151.36 1209.56,-150.4 1204.87,-149.41"/>
<polygon fill="#63b8ff" stroke="#63b8ff" points="1205.9,-146.06 1195.39,-147.37 1204.43,-152.9 1205.9,-146.06"/>
</a>
</g>
</g>
<!-- Node22 -->
<g id="Node000022" class="node">
<title>Node22</title>
<g id="a_Node000022"><a xlink:title=" ">
<polygon fill="#e0e0e0" stroke="#999999" points="1389.88,-146.62 1227.62,-146.62 1227.62,-116.12 1389.88,-116.12 1389.88,-146.62"/>
<text text-anchor="start" x="1235.62" y="-133.12" font-family="Helvetica,sans-Serif" font-size="10.00">typed_linear_algebra</text>
<text text-anchor="middle" x="1308.75" y="-121.88" font-family="Helvetica,sans-Serif" font-size="10.00">_internal/algorithm/transposed.tpp</text>
</a>
</g>
</g>
<!-- Node3&#45;&gt;Node22 -->
<g id="edge26_Node000003_Node000022" class="edge">
<title>Node3&#45;&gt;Node22</title>
<g id="a_edge26_Node000003_Node000022"><a xlink:title=" ">
<path fill="none" stroke="#63b8ff" d="M1477.1,-187.8C1444.15,-176.95 1399.13,-162.13 1363.93,-150.54"/>
<polygon fill="#63b8ff" stroke="#63b8ff" points="1365.37,-147.33 1354.78,-147.53 1363.18,-153.98 1365.37,-147.33"/>
</a>
</g>
</g>
<!-- Node23 -->
<g id="Node000023" class="node">
<title>Node23</title>
<g id="a_Node000023"><a xlink:title=" ">
<polygon fill="#e0e0e0" stroke="#999999" points="1512,-146.62 1407.5,-146.62 1407.5,-116.12 1512,-116.12 1512,-146.62"/>
<text text-anchor="start" x="1415.5" y="-133.12" font-family="Helvetica,sans-Serif" font-size="10.00">typed_linear_algebra</text>
<text text-anchor="middle" x="1459.75" y="-121.88" font-family="Helvetica,sans-Serif" font-size="10.00">_internal/cast.tpp</text>
</a>
</g>
</g>
<!-- Node3&#45;&gt;Node23 -->
<g id="edge27_Node000003_Node000023" class="edge">
<title>Node3&#45;&gt;Node23</title>
<g id="a_edge27_Node000003_Node000023"><a xlink:title=" ">
<path fill="none" stroke="#63b8ff" d="M1508.9,-187.97C1500.59,-178.57 1489.59,-166.12 1480.1,-155.39"/>
<polygon fill="#63b8ff" stroke="#63b8ff" points="1482.83,-153.19 1473.58,-148.02 1477.58,-157.83 1482.83,-153.19"/>
</a>
</g>
</g>
<!-- Node24 -->
<g id="Node000024" class="node">
<title>Node24</title>
<g id="a_Node000024"><a xlink:title=" ">
<polygon fill="#e0e0e0" stroke="#999999" points="1635,-146.62 1530.5,-146.62 1530.5,-116.12 1635,-116.12 1635,-146.62"/>
<text text-anchor="start" x="1538.5" y="-133.12" font-family="Helvetica,sans-Serif" font-size="10.00">typed_linear_algebra</text>
<text text-anchor="middle" x="1582.75" y="-121.88" font-family="Helvetica,sans-Serif" font-size="10.00">_internal/tuple.tpp</text>
</a>
</g>
</g>
<!-- Node3&#45;&gt;Node24 -->
<g id="edge28_Node000003_Node000024" class="edge">
<title>Node3&#45;&gt;Node24</title>
<g id="a_edge28_Node000003_Node000024"><a xlink:title=" ">
<path fill="none" stroke="#63b8ff" d="M1534.39,-187.97C1542.57,-178.57 1553.39,-166.12 1562.73,-155.39"/>
<polygon fill="#63b8ff" stroke="#63b8ff" points="1565.21,-157.87 1569.13,-148.03 1559.93,-153.28 1565.21,-157.87"/>
</a>
</g>
</g>
<!-- Node25 -->
<g id="Node000025" class="node">
<title>Node25</title>
<g id="a_Node000025"><a xlink:title=" ">
<polygon fill="#e0e0e0" stroke="#999999" points="1760.5,-152.25 1653,-152.25 1653,-110.5 1760.5,-110.5 1760.5,-152.25"/>
<text text-anchor="start" x="1661" y="-138.75" font-family="Helvetica,sans-Serif" font-size="10.00">typed_linear_algebra</text>
<text text-anchor="start" x="1661" y="-127.5" font-family="Helvetica,sans-Serif" font-size="10.00">_internal/typed_linear</text>
<text text-anchor="middle" x="1706.75" y="-116.25" font-family="Helvetica,sans-Serif" font-size="10.00">_algebra.tpp</text>
</a>
</g>
</g>
<!-- Node3&#45;&gt;Node25 -->
<g id="edge29_Node000003_Node000025" class="edge">
<title>Node3&#45;&gt;Node25</title>
<g id="a_edge29_Node000003_Node000025"><a xlink:title=" ">
<path fill="none" stroke="#63b8ff" d="M1560.53,-187.8C1584.29,-178.79 1615.28,-167.05 1642.62,-156.68"/>
<polygon fill="#63b8ff" stroke="#63b8ff" points="1643.76,-159.99 1651.87,-153.18 1641.28,-153.45 1643.76,-159.99"/>
</a>
</g>
</g>
<!-- Node5&#45;&gt;Node6 -->
<g id="edge5_Node000005_Node000006" class="edge">
<title>Node5&#45;&gt;Node6</title>
<g id="a_edge5_Node000005_Node000006"><a xlink:title=" ">
<path fill="none" stroke="#63b8ff" d="M2091.14,-115.74C2082.04,-105.96 2070.05,-93.08 2060.54,-82.85"/>
<polygon fill="#63b8ff" stroke="#63b8ff" points="2063.36,-80.74 2053.99,-75.81 2058.24,-85.51 2063.36,-80.74"/>
</a>
</g>
</g>
<!-- Node5&#45;&gt;Node11 -->
<g id="edge10_Node000005_Node000011" class="edge">
<title>Node5&#45;&gt;Node11</title>
<g id="a_edge10_Node000005_Node000011"><a xlink:title=" ">
<path fill="none" stroke="#63b8ff" d="M2127.21,-115.74C2143.18,-105.34 2164.57,-91.4 2180.67,-80.91"/>
<polygon fill="#63b8ff" stroke="#63b8ff" points="2182.18,-84.1 2188.65,-75.71 2178.36,-78.24 2182.18,-84.1"/>
</a>
</g>
</g>
<!-- Node5&#45;&gt;Node12 -->
<g id="edge11_Node000005_Node000012" class="edge">
<title>Node5&#45;&gt;Node12</title>
<g id="a_edge11_Node000005_Node000012"><a xlink:title=" ">
<path fill="none" stroke="#63b8ff" d="M2106.57,-115.74C2107.66,-106.95 2109.06,-95.65 2110.25,-86.03"/>
<polygon fill="#63b8ff" stroke="#63b8ff" points="2113.71,-86.55 2111.47,-76.2 2106.77,-85.69 2113.71,-86.55"/>
</a>
</g>
</g>
<!-- Node6&#45;&gt;Node7 -->
<g id="edge6_Node000006_Node000007" class="edge">
<title>Node6&#45;&gt;Node7</title>
<g id="a_edge6_Node000006_Node000007"><a xlink:title=" ">
<path fill="none" stroke="#63b8ff" d="M2032.03,-54.84C2021.04,-47.04 2004.91,-35.59 1991.82,-26.29"/>
<polygon fill="#63b8ff" stroke="#63b8ff" points="1993.95,-23.51 1983.77,-20.58 1989.9,-29.22 1993.95,-23.51"/>
</a>
</g>
</g>
<!-- Node8 -->
<g id="Node000008" class="node">
<title>Node8</title>
<g id="a_Node000008"><a xlink:title=" ">
<polygon fill="#e0e0e0" stroke="#999999" points="2073.75,-19.25 2015.75,-19.25 2015.75,0 2073.75,0 2073.75,-19.25"/>
<text text-anchor="middle" x="2044.75" y="-5.75" font-family="Helvetica,sans-Serif" font-size="10.00">functional</text>
</a>
</g>
</g>
<!-- Node6&#45;&gt;Node8 -->
<g id="edge7_Node000006_Node000008" class="edge">
<title>Node6&#45;&gt;Node8</title>
<g id="a_edge7_Node000006_Node000008"><a xlink:title=" ">
<path fill="none" stroke="#63b8ff" d="M2044.75,-55.08C2044.75,-48.57 2044.75,-39.42 2044.75,-31.12"/>
<polygon fill="#63b8ff" stroke="#63b8ff" points="2048.25,-31.12 2044.75,-21.12 2041.25,-31.12 2048.25,-31.12"/>
</a>
</g>
</g>
<!-- Node6&#45;&gt;Node9 -->
<g id="edge8_Node000006_Node000009" class="edge">
<title>Node6&#45;&gt;Node9</title>
<g id="a_edge8_Node000006_Node000009"><a xlink:title=" ">
<path fill="none" stroke="#63b8ff" d="M2055.95,-54.84C2065.49,-47.15 2079.42,-35.9 2090.86,-26.68"/>
<polygon fill="#63b8ff" stroke="#63b8ff" points="2092.96,-29.48 2098.54,-20.48 2088.56,-24.03 2092.96,-29.48"/>
</a>
</g>
</g>
<!-- Node6&#45;&gt;Node10 -->
<g id="edge9_Node000006_Node000010" class="edge">
<title>Node6&#45;&gt;Node10</title>
<g id="a_edge9_Node000006_Node000010"><a xlink:title=" ">
<path fill="none" stroke="#63b8ff" d="M2073.39,-56.96C2076.21,-56.35 2079.03,-55.77 2081.75,-55.25 2171.46,-38.04 2277.56,-23.36 2334.9,-15.9"/>
<polygon fill="#63b8ff" stroke="#63b8ff" points="2335.07,-19.41 2344.54,-14.65 2334.17,-12.46 2335.07,-19.41"/>
</a>
</g>
</g>
</g>
</svg>

<g id="navigator" transform="translate(0 0)" fill="#404254">
  <rect fill="#f2f5e9" fill-opacity="0.5" stroke="#606060" stroke-width=".5" x="0" y="0" width="60" height="60"/>
  <use id="zoomplus" xlink:href="#zoomPlus" x="17" y="9" onmousedown="handleZoom(evt,'in')"/>
  <use id="zoomminus" xlink:href="#zoomMin" x="42" y="9" onmousedown="handleZoom(evt,'out')"/>
  <use id="reset" xlink:href="#resetDef" x="30" y="36" onmousedown="handleReset()"/>
   <use id="arrowup" xlink:href="#arrowUp" x="0" y="0" onmousedown="handlePan(0,-1)"/>
  <use id="arrowright" xlink:href="#arrowRight" x="0" y="0" onmousedown="handlePan(1,0)"/>
  <use id="arrowdown" xlink:href="#arrowDown" x="0" y="0" onmousedown="handlePan(0,1)"/>
  <use id="arrowleft" xlink:href="#arrowLeft" x="0" y="0" onmousedown="handlePan(-1,0)"/>
</g>
<svg viewBox="0 0 15 15" width="100%" height="30px" preserveAspectRatio="xMaxYMin meet">
 <g id="arrow_out" transform="scale(0.3 0.3)">
  <a xlink:href="nested__typed__eigen_2fcarouge_2linalg_8hpp__incl_org.svg" target="_base">
   <rect id="button" ry="5" rx="5" y="6" x="6" height="38" width="38"
        fill="#f2f5e9" fill-opacity="0.5" stroke="#606060" stroke-width="1.0"/>
   <path id="arrow"
     d="M 11.500037,31.436501 C 11.940474,20.09759 22.043105,11.32322 32.158766,21.979434 L 37.068811,17.246167 C 37.068811,17.246167 37.088388,32 37.088388,32 L 22.160133,31.978069 C 22.160133,31.978069 26.997745,27.140456 26.997745,27.140456 C 18.528582,18.264221 13.291696,25.230495 11.500037,31.436501 z"
     style="fill:#404040;"/>
  </a>
 </g>
</svg>

<style type='text/css'>
<![CDATA[
[data-mouse-over-selected='false'] { opacity: 0.7; }
[data-mouse-over-selected='true']  { opacity: 1.0; }
]]>
</style>
<script type="application/ecmascript"><![CDATA[
document.addEventListener('DOMContentLoaded', (event) => {
  highlightEdges();
  highlightAdjacentNodes();
});
]]></script>
</svg>
