<?xml version="1.0" encoding="UTF-8" standalone="no"?>
<!DOCTYPE svg PUBLIC "-//W3C//DTD SVG 1.1//EN"
 "http://www.w3.org/Graphics/SVG/1.1/DTD/svg11.dtd">
<!-- Generated by graphviz version 12.2.0 (20241103.1931)
 -->
<!-- Title: /github/workspace/support/nested_typed_eigen/fcarouge/linalg.hpp Pages: 1 -->
<!--zoomable 316 -->

<svg id="main" version="1.1" xmlns="http://www.w3.org/2000/svg" xmlns:xlink="http://www.w3.org/1999/xlink" xml:space="preserve" onload="init(evt)">

<style type="text/css"><![CDATA[
.node, .edge {opacity: 0.7;}
.node.selected, .edge.selected {opacity: 1;}
.edge:hover path { stroke: red; }
.edge:hover polygon { stroke: red; fill: red; }
]]></style>

<defs>
  <circle id="rim" cx="0" cy="0" r="7"/>
  <circle id="rim2" cx="0" cy="0" r="3.5"/>
  <g id="zoomPlus">
    <use xlink:href="#rim" fill="#404040"><set attributeName="fill" to="#808080" begin="zoomplus.mouseover" end="zoomplus.mouseout"/></use>
    <path d="M-4,0h8M0,-4v8" fill="none" stroke="white" stroke-width="1.5" pointer-events="none"/>
  </g>
  <g id="zoomMin">
    <use xlink:href="#rim" fill="#404040"><set attributeName="fill" to="#808080" begin="zoomminus.mouseover" end="zoomminus.mouseout"/></use>
    <path d="M-4,0h8" fill="none" stroke="white" stroke-width="1.5" pointer-events="none"/>
  </g>
  <g id="arrowUp" transform="translate(30 24)">
    <use xlink:href="#rim"/>
    <path pointer-events="none" fill="none" stroke="white" stroke-width="1.5" d="M0,-3.0v7 M-2.5,-0.5L0,-3.0L2.5,-0.5"/>
  </g>
  <g id="arrowRight" transform="rotate(90) translate(36 -43)">
    <use xlink:href="#rim"/>
    <path pointer-events="none" fill="none" stroke="white" stroke-width="1.5" d="M0,-3.0v7 M-2.5,-0.5L0,-3.0L2.5,-0.5"/>
  </g>
  <g id="arrowDown" transform="rotate(180) translate(-30 -48)">
    <use xlink:href="#rim"/>
    <path pointer-events="none" fill="none" stroke="white" stroke-width="1.5" d="M0,-3.0v7 M-2.5,-0.5L0,-3.0L2.5,-0.5"/>
  </g>
  <g id="arrowLeft" transform="rotate(270) translate(-36 17)">
    <use xlink:href="#rim"/>
    <path pointer-events="none" fill="none" stroke="white" stroke-width="1.5" d="M0,-3.0v7 M-2.5,-0.5L0,-3.0L2.5,-0.5"/>
  </g>
  <g id="resetDef">
    <use xlink:href="#rim2" fill="#404040"><set attributeName="fill" to="#808080" begin="reset.mouseover" end="reset.mouseout"/></use>
  </g>
</defs>
<script type="application/ecmascript">
var viewWidth = 2435;
var viewHeight = 316;
var sectionId = 'dynsection-0';
</script>
<script type="application/ecmascript" xlink:href="svg.min.js"/>
<svg id="graph" class="graph">
<g id="viewport">
<title>/github/workspace/support/nested_typed_eigen/fcarouge/linalg.hpp</title>
<!-- Node1 -->
<g id="Node000001" class="node">
<title>Node1</title>
<g id="a_Node000001"><a xlink:title="Scalar type nested linear algebra with Eigen implementation.">
<polygon fill="#999999" stroke="#666666" points="288.47,-307.75 142.72,-307.75 142.72,-266 288.47,-266 288.47,-307.75"/>
<text text-anchor="start" x="150.72" y="-294.25" font-family="Helvetica,sans-Serif" font-size="10.00">/github/workspace/support</text>
<text text-anchor="start" x="150.72" y="-283" font-family="Helvetica,sans-Serif" font-size="10.00">/nested_typed_eigen/fcarouge</text>
<text text-anchor="middle" x="215.59" y="-271.75" font-family="Helvetica,sans-Serif" font-size="10.00">/linalg.hpp</text>
</a>
</g>
</g>
<!-- Node2 -->
<g id="Node000002" class="node">
<title>Node2</title>
<g id="a_Node000002"><a xlink:href="eigen_8hpp.xhtml" target="_top" xlink:title="Linear algebra facade for Eigen3 third party implementation.">
<polygon fill="white" stroke="#666666" points="264.47,-230 166.72,-230 166.72,-210.75 264.47,-210.75 264.47,-230"/>
<text text-anchor="middle" x="215.59" y="-216.5" font-family="Helvetica,sans-Serif" font-size="10.00">fcarouge/eigen.hpp</text>
</a>
</g>
</g>
<!-- Node1&#45;&gt;Node2 -->
<g id="edge1_Node000001_Node000002" class="edge">
<title>Node1&#45;&gt;Node2</title>
<g id="a_edge1_Node000001_Node000002"><a xlink:title=" ">
<path fill="none" stroke="#63b8ff" d="M215.59,-265.82C215.59,-258.15 215.59,-249.39 215.59,-241.7"/>
<polygon fill="#63b8ff" stroke="#63b8ff" points="219.09,-241.96 215.59,-231.96 212.09,-241.96 219.09,-241.96"/>
</a>
</g>
</g>
<!-- Node3 -->
<g id="Node000003" class="node">
<title>Node3</title>
<g id="a_Node000003"><a xlink:href="typed__linear__algebra_8hpp.xhtml" target="_top" xlink:title="Typed linear algebra implementation.">
<polygon fill="white" stroke="#666666" points="1178.72,-174.75 1070.47,-174.75 1070.47,-144.25 1178.72,-144.25 1178.72,-174.75"/>
<text text-anchor="start" x="1078.47" y="-161.25" font-family="Helvetica,sans-Serif" font-size="10.00">fcarouge/typed_linear</text>
<text text-anchor="middle" x="1124.59" y="-150" font-family="Helvetica,sans-Serif" font-size="10.00">_algebra.hpp</text>
</a>
</g>
</g>
<!-- Node1&#45;&gt;Node3 -->
<g id="edge36_Node000001_Node000003" class="edge">
<title>Node1&#45;&gt;Node3</title>
<g id="a_edge36_Node000001_Node000003"><a xlink:title=" ">
<path fill="none" stroke="#63b8ff" d="M288.83,-275.77C461.97,-251.89 894.37,-192.25 1059.29,-169.51"/>
<polygon fill="#63b8ff" stroke="#63b8ff" points="1059.3,-173.04 1068.72,-168.21 1058.34,-166.1 1059.3,-173.04"/>
</a>
</g>
</g>
<!-- Node7 -->
<g id="Node000007" class="node">
<title>Node7</title>
<g id="a_Node000007"><a xlink:title=" ">
<polygon fill="#e0e0e0" stroke="#999999" points="72.72,-24.88 24.47,-24.88 24.47,-5.63 72.72,-5.63 72.72,-24.88"/>
<text text-anchor="middle" x="48.59" y="-11.38" font-family="Helvetica,sans-Serif" font-size="10.00">cstddef</text>
</a>
</g>
</g>
<!-- Node1&#45;&gt;Node7 -->
<g id="edge37_Node000001_Node000007" class="edge">
<title>Node1&#45;&gt;Node7</title>
<g id="a_edge37_Node000001_Node000007"><a xlink:title=" ">
<path fill="none" stroke="#63b8ff" d="M142.24,-265.7C97.24,-249.15 43.13,-220.76 15.59,-174.75 -9.12,-133.47 0.49,-112.5 14.59,-66.5 18.22,-54.67 25.68,-43.11 32.69,-34.07"/>
<polygon fill="#63b8ff" stroke="#63b8ff" points="35.26,-36.45 38.95,-26.52 29.87,-31.98 35.26,-36.45"/>
</a>
</g>
</g>
<!-- Node2&#45;&gt;Node3 -->
<g id="edge2_Node000002_Node000003" class="edge">
<title>Node2&#45;&gt;Node3</title>
<g id="a_edge2_Node000002_Node000003"><a xlink:title=" ">
<path fill="none" stroke="#63b8ff" d="M264.79,-216.19C417.79,-206.28 885.41,-175.99 1058.91,-164.75"/>
<polygon fill="#63b8ff" stroke="#63b8ff" points="1058.88,-168.26 1068.64,-164.12 1058.43,-161.28 1058.88,-168.26"/>
</a>
</g>
</g>
<!-- Node6 -->
<g id="Node000006" class="node">
<title>Node6</title>
<g id="a_Node000006"><a xlink:title=" ">
<polygon fill="#e0e0e0" stroke="#999999" points="326.47,-24.88 270.72,-24.88 270.72,-5.63 326.47,-5.63 326.47,-24.88"/>
<text text-anchor="middle" x="298.59" y="-11.38" font-family="Helvetica,sans-Serif" font-size="10.00">concepts</text>
</a>
</g>
</g>
<!-- Node2&#45;&gt;Node6 -->
<g id="edge29_Node000002_Node000006" class="edge">
<title>Node2&#45;&gt;Node6</title>
<g id="a_edge29_Node000002_Node000006"><a xlink:title=" ">
<path fill="none" stroke="#63b8ff" d="M220.04,-210.53C226.72,-195.93 237.45,-166.23 226.59,-144.25 214.94,-120.66 191.24,-131.84 179.59,-108.25 171.38,-91.61 169.34,-81.96 179.59,-66.5 197.16,-40.01 231.76,-27.45 259.14,-21.51"/>
<polygon fill="#63b8ff" stroke="#63b8ff" points="259.72,-24.97 268.88,-19.64 258.4,-18.09 259.72,-24.97"/>
</a>
</g>
</g>
<!-- Node2&#45;&gt;Node7 -->
<g id="edge30_Node000002_Node000007" class="edge">
<title>Node2&#45;&gt;Node7</title>
<g id="a_edge30_Node000002_Node000007"><a xlink:title=" ">
<path fill="none" stroke="#63b8ff" d="M166.58,-214.13C118.42,-207.85 49.86,-195.48 33.59,-174.75 1.69,-134.08 24.41,-68.23 38.96,-35.71"/>
<polygon fill="#63b8ff" stroke="#63b8ff" points="42.11,-37.25 43.2,-26.71 35.77,-34.27 42.11,-37.25"/>
</a>
</g>
</g>
<!-- Node9 -->
<g id="Node000009" class="node">
<title>Node9</title>
<g id="a_Node000009"><a xlink:title=" ">
<polygon fill="#e0e0e0" stroke="#999999" points="2079.09,-24.88 2042.09,-24.88 2042.09,-5.63 2079.09,-5.63 2079.09,-24.88"/>
<text text-anchor="middle" x="2060.59" y="-11.38" font-family="Helvetica,sans-Serif" font-size="10.00">tuple</text>
</a>
</g>
</g>
<!-- Node2&#45;&gt;Node9 -->
<g id="edge33_Node000002_Node000009" class="edge">
<title>Node2&#45;&gt;Node9</title>
<g id="a_edge33_Node000002_Node000009"><a xlink:title=" ">
<path fill="none" stroke="#63b8ff" d="M264.89,-218.79C583.49,-214.79 2341,-189.09 2417.59,-108.25 2430.35,-94.78 2429.76,-80.51 2417.59,-66.5 2375.21,-17.73 2169,-14.94 2090.77,-15.69"/>
<polygon fill="#63b8ff" stroke="#63b8ff" points="2090.83,-12.19 2080.87,-15.81 2090.91,-19.19 2090.83,-12.19"/>
</a>
</g>
</g>
<!-- Node10 -->
<g id="Node000010" class="node">
<title>Node10</title>
<g id="a_Node000010"><a xlink:title=" ">
<polygon fill="#e0e0e0" stroke="#999999" points="219.09,-24.88 158.09,-24.88 158.09,-5.63 219.09,-5.63 219.09,-24.88"/>
<text text-anchor="middle" x="188.59" y="-11.38" font-family="Helvetica,sans-Serif" font-size="10.00">type_traits</text>
</a>
</g>
</g>
<!-- Node2&#45;&gt;Node10 -->
<g id="edge34_Node000002_Node000010" class="edge">
<title>Node2&#45;&gt;Node10</title>
<g id="a_edge34_Node000002_Node000010"><a xlink:title=" ">
<path fill="none" stroke="#63b8ff" d="M187.55,-210.4C170.99,-203.49 151.4,-192.12 141.59,-174.75 132.98,-159.5 132.13,-102.68 146.59,-66.5 151.59,-53.99 160.96,-42.29 169.59,-33.34"/>
<polygon fill="#63b8ff" stroke="#63b8ff" points="171.96,-35.91 176.69,-26.43 167.08,-30.89 171.96,-35.91"/>
</a>
</g>
</g>
<!-- Node11 -->
<g id="Node000011" class="node">
<title>Node11</title>
<g id="a_Node000011"><a xlink:title=" ">
<polygon fill="#e0e0e0" stroke="#999999" points="232.47,-97 188.72,-97 188.72,-77.75 232.47,-77.75 232.47,-97"/>
<text text-anchor="middle" x="210.59" y="-83.5" font-family="Helvetica,sans-Serif" font-size="10.00">format</text>
</a>
</g>
</g>
<!-- Node2&#45;&gt;Node11 -->
<g id="edge31_Node000002_Node000011" class="edge">
<title>Node2&#45;&gt;Node11</title>
<g id="a_edge31_Node000002_Node000011"><a xlink:title=" ">
<path fill="none" stroke="#63b8ff" d="M229.52,-210.28C240.27,-202.35 254.33,-189.78 260.59,-174.75 265.81,-162.24 265.43,-156.91 260.59,-144.25 254.71,-128.86 242.42,-115.03 231.5,-104.98"/>
<polygon fill="#63b8ff" stroke="#63b8ff" points="233.82,-102.36 223.97,-98.46 229.24,-107.65 233.82,-102.36"/>
</a>
</g>
</g>
<!-- Node26 -->
<g id="Node000026" class="node">
<title>Node26</title>
<g id="a_Node000026"><a xlink:title=" ">
<polygon fill="#e0e0e0" stroke="#999999" points="94.22,-169.12 42.97,-169.12 42.97,-149.88 94.22,-149.88 94.22,-169.12"/>
<text text-anchor="middle" x="68.59" y="-155.62" font-family="Helvetica,sans-Serif" font-size="10.00">sstream</text>
</a>
</g>
</g>
<!-- Node2&#45;&gt;Node26 -->
<g id="edge32_Node000002_Node000026" class="edge">
<title>Node2&#45;&gt;Node26</title>
<g id="a_edge32_Node000002_Node000026"><a xlink:title=" ">
<path fill="none" stroke="#63b8ff" d="M192.95,-210.3C168.49,-200.51 129.29,-184.81 101.45,-173.66"/>
<polygon fill="#63b8ff" stroke="#63b8ff" points="103.01,-170.52 92.43,-170.05 100.41,-177.01 103.01,-170.52"/>
</a>
</g>
</g>
<!-- Node27 -->
<g id="Node000027" class="node">
<title>Node27</title>
<g id="a_Node000027"><a xlink:title=" ">
<polygon fill="#e0e0e0" stroke="#999999" points="218.09,-169.12 151.09,-169.12 151.09,-149.88 218.09,-149.88 218.09,-169.12"/>
<text text-anchor="middle" x="184.59" y="-155.62" font-family="Helvetica,sans-Serif" font-size="10.00">Eigen/Eigen</text>
</a>
</g>
</g>
<!-- Node2&#45;&gt;Node27 -->
<g id="edge35_Node000002_Node000027" class="edge">
<title>Node2&#45;&gt;Node27</title>
<g id="a_edge35_Node000002_Node000027"><a xlink:title=" ">
<path fill="none" stroke="#63b8ff" d="M210.88,-210.43C206.6,-202.31 200.15,-190.04 194.7,-179.7"/>
<polygon fill="#63b8ff" stroke="#63b8ff" points="197.81,-178.08 190.05,-170.87 191.61,-181.34 197.81,-178.08"/>
</a>
</g>
</g>
<!-- Node4 -->
<g id="Node000004" class="node">
<title>Node4</title>
<g id="a_Node000004"><a xlink:href="typed__linear__algebra__forward_8hpp.xhtml" target="_top" xlink:title="Authoritative forward declaration header.">
<polygon fill="white" stroke="#666666" points="1759.84,-30.5 1655.34,-30.5 1655.34,0 1759.84,0 1759.84,-30.5"/>
<text text-anchor="start" x="1663.34" y="-17" font-family="Helvetica,sans-Serif" font-size="10.00">typed_linear_algebra</text>
<text text-anchor="middle" x="1707.59" y="-5.75" font-family="Helvetica,sans-Serif" font-size="10.00">_forward.hpp</text>
</a>
</g>
</g>
<!-- Node3&#45;&gt;Node4 -->
<g id="edge3_Node000003_Node000004" class="edge">
<title>Node3&#45;&gt;Node4</title>
<g id="a_edge3_Node000003_Node000004"><a xlink:title=" ">
<path fill="none" stroke="#63b8ff" d="M1179.21,-157.42C1366.86,-153.45 1975.2,-138.31 2003.59,-108.25 2073.56,-34.17 1878.09,-19.35 1771.56,-16.65"/>
<polygon fill="#63b8ff" stroke="#63b8ff" points="1771.88,-13.15 1761.8,-16.43 1771.72,-20.15 1771.88,-13.15"/>
</a>
</g>
</g>
<!-- Node5 -->
<g id="Node000005" class="node">
<title>Node5</title>
<g id="a_Node000005"><a xlink:href="utility_8hpp.xhtml" target="_top" xlink:title=" ">
<polygon fill="white" stroke="#666666" points="1395.84,-102.62 1291.34,-102.62 1291.34,-72.12 1395.84,-72.12 1395.84,-102.62"/>
<text text-anchor="start" x="1299.34" y="-89.12" font-family="Helvetica,sans-Serif" font-size="10.00">typed_linear_algebra</text>
<text text-anchor="middle" x="1343.59" y="-77.88" font-family="Helvetica,sans-Serif" font-size="10.00">_internal/utility.hpp</text>
</a>
</g>
</g>
<!-- Node3&#45;&gt;Node5 -->
<g id="edge4_Node000003_Node000005" class="edge">
<title>Node3&#45;&gt;Node5</title>
<g id="a_edge4_Node000003_Node000005"><a xlink:title=" ">
<path fill="none" stroke="#63b8ff" d="M1170.94,-143.85C1202.44,-133.88 1245.05,-120.33 1282.59,-108.25 1284.38,-107.68 1286.19,-107.09 1288.02,-106.5"/>
<polygon fill="#63b8ff" stroke="#63b8ff" points="1288.76,-109.94 1297.19,-103.53 1286.6,-103.28 1288.76,-109.94"/>
</a>
</g>
</g>
<!-- Node3&#45;&gt;Node6 -->
<g id="edge11_Node000003_Node000006" class="edge">
<title>Node3&#45;&gt;Node6</title>
<g id="a_edge11_Node000003_Node000006"><a xlink:title=" ">
<path fill="none" stroke="#63b8ff" d="M1070.23,-158.86C898.29,-159.51 374.22,-157.38 317.59,-108.25 297.4,-90.73 295.28,-57.93 296.36,-36.6"/>
<polygon fill="#63b8ff" stroke="#63b8ff" points="299.83,-37.06 297.16,-26.81 292.86,-36.49 299.83,-37.06"/>
</a>
</g>
</g>
<!-- Node3&#45;&gt;Node7 -->
<g id="edge12_Node000003_Node000007" class="edge">
<title>Node3&#45;&gt;Node7</title>
<g id="a_edge12_Node000003_Node000007"><a xlink:title=" ">
<path fill="none" stroke="#63b8ff" d="M1070.05,-157.12C896.71,-152.46 365.64,-136.07 293.59,-108.25 265.94,-97.58 268.08,-79.81 241.59,-66.5 190.17,-40.66 124.17,-27.19 84.19,-20.92"/>
<polygon fill="#63b8ff" stroke="#63b8ff" points="84.82,-17.48 74.41,-19.46 83.78,-24.4 84.82,-17.48"/>
</a>
</g>
</g>
<!-- Node3&#45;&gt;Node9 -->
<g id="edge15_Node000003_Node000009" class="edge">
<title>Node3&#45;&gt;Node9</title>
<g id="a_edge15_Node000003_Node000009"><a xlink:title=" ">
<path fill="none" stroke="#63b8ff" d="M1178.95,-158.83C1363.17,-159.51 1956.19,-157.79 2024.59,-108.25 2047.58,-91.6 2055.89,-58.02 2058.9,-36.37"/>
<polygon fill="#63b8ff" stroke="#63b8ff" points="2062.34,-37.04 2059.96,-26.71 2055.38,-36.27 2062.34,-37.04"/>
</a>
</g>
</g>
<!-- Node3&#45;&gt;Node11 -->
<g id="edge13_Node000003_Node000011" class="edge">
<title>Node3&#45;&gt;Node11</title>
<g id="a_edge13_Node000003_Node000011"><a xlink:title=" ">
<path fill="none" stroke="#63b8ff" d="M1070.07,-158.53C903.35,-158.14 402.28,-153.15 246.59,-108.25 242.17,-106.97 237.68,-105.08 233.45,-102.96"/>
<polygon fill="#63b8ff" stroke="#63b8ff" points="235.39,-100.03 224.96,-98.18 231.96,-106.13 235.39,-100.03"/>
</a>
</g>
</g>
<!-- Node12 -->
<g id="Node000012" class="node">
<title>Node12</title>
<g id="a_Node000012"><a xlink:title=" ">
<polygon fill="#e0e0e0" stroke="#999999" points="2408.34,-97 2336.84,-97 2336.84,-77.75 2408.34,-77.75 2408.34,-97"/>
<text text-anchor="middle" x="2372.59" y="-83.5" font-family="Helvetica,sans-Serif" font-size="10.00">initializer_list</text>
</a>
</g>
</g>
<!-- Node3&#45;&gt;Node12 -->
<g id="edge14_Node000003_Node000012" class="edge">
<title>Node3&#45;&gt;Node12</title>
<g id="a_edge14_Node000003_Node000012"><a xlink:title=" ">
<path fill="none" stroke="#63b8ff" d="M1179.1,-158.91C1383.59,-160.03 2104.79,-160.14 2327.59,-108.25 2333.73,-106.82 2340.06,-104.57 2345.97,-102.08"/>
<polygon fill="#63b8ff" stroke="#63b8ff" points="2347,-105.46 2354.64,-98.11 2344.09,-99.09 2347,-105.46"/>
</a>
</g>
</g>
<!-- Node13 -->
<g id="Node000013" class="node">
<title>Node13</title>
<g id="a_Node000013"><a xlink:title=" ">
<polygon fill="#e0e0e0" stroke="#999999" points="364.84,-97 326.34,-97 326.34,-77.75 364.84,-77.75 364.84,-97"/>
<text text-anchor="middle" x="345.59" y="-83.5" font-family="Helvetica,sans-Serif" font-size="10.00">utility</text>
</a>
</g>
</g>
<!-- Node3&#45;&gt;Node13 -->
<g id="edge16_Node000003_Node000013" class="edge">
<title>Node3&#45;&gt;Node13</title>
<g id="a_edge16_Node000003_Node000013"><a xlink:title=" ">
<path fill="none" stroke="#63b8ff" d="M1070.15,-158.67C919.88,-158.54 502,-153.97 373.59,-108.25 370.59,-107.18 367.62,-105.69 364.8,-104"/>
<polygon fill="#63b8ff" stroke="#63b8ff" points="366.88,-101.19 356.69,-98.29 362.85,-106.91 366.88,-101.19"/>
</a>
</g>
</g>
<!-- Node14 -->
<g id="Node000014" class="node">
<title>Node14</title>
<g id="a_Node000014"><a xlink:title=" ">
<polygon fill="#e0e0e0" stroke="#999999" points="512.59,-102.62 382.59,-102.62 382.59,-72.12 512.59,-72.12 512.59,-102.62"/>
<text text-anchor="start" x="390.59" y="-89.12" font-family="Helvetica,sans-Serif" font-size="10.00">typed_linear_algebra</text>
<text text-anchor="middle" x="447.59" y="-77.88" font-family="Helvetica,sans-Serif" font-size="10.00">_internal/algorithm/add.tpp</text>
</a>
</g>
</g>
<!-- Node3&#45;&gt;Node14 -->
<g id="edge17_Node000003_Node000014" class="edge">
<title>Node3&#45;&gt;Node14</title>
<g id="a_edge17_Node000003_Node000014"><a xlink:title=" ">
<path fill="none" stroke="#63b8ff" d="M1070.12,-157.23C963.88,-154.02 721.84,-143.19 521.59,-108.25 517.29,-107.5 512.88,-106.62 508.45,-105.64"/>
<polygon fill="#63b8ff" stroke="#63b8ff" points="509.48,-102.29 498.95,-103.42 507.89,-109.11 509.48,-102.29"/>
</a>
</g>
</g>
<!-- Node15 -->
<g id="Node000015" class="node">
<title>Node15</title>
<g id="a_Node000015"><a xlink:title=" ">
<polygon fill="#e0e0e0" stroke="#999999" points="670.47,-102.62 530.72,-102.62 530.72,-72.12 670.47,-72.12 670.47,-102.62"/>
<text text-anchor="start" x="538.72" y="-89.12" font-family="Helvetica,sans-Serif" font-size="10.00">typed_linear_algebra</text>
<text text-anchor="middle" x="600.59" y="-77.88" font-family="Helvetica,sans-Serif" font-size="10.00">_internal/algorithm/divide.tpp</text>
</a>
</g>
</g>
<!-- Node3&#45;&gt;Node15 -->
<g id="edge18_Node000003_Node000015" class="edge">
<title>Node3&#45;&gt;Node15</title>
<g id="a_edge18_Node000003_Node000015"><a xlink:title=" ">
<path fill="none" stroke="#63b8ff" d="M1070.13,-154.72C985.91,-148.33 819.2,-133.58 679.59,-108.25 675.25,-107.46 670.8,-106.57 666.33,-105.62"/>
<polygon fill="#63b8ff" stroke="#63b8ff" points="667.21,-102.23 656.68,-103.46 665.68,-109.06 667.21,-102.23"/>
</a>
</g>
</g>
<!-- Node16 -->
<g id="Node000016" class="node">
<title>Node16</title>
<g id="a_Node000016"><a xlink:title=" ">
<polygon fill="#e0e0e0" stroke="#999999" points="810.47,-108.25 688.72,-108.25 688.72,-66.5 810.47,-66.5 810.47,-108.25"/>
<text text-anchor="start" x="696.72" y="-94.75" font-family="Helvetica,sans-Serif" font-size="10.00">typed_linear_algebra</text>
<text text-anchor="start" x="696.72" y="-83.5" font-family="Helvetica,sans-Serif" font-size="10.00">_internal/algorithm/equal</text>
<text text-anchor="middle" x="749.59" y="-72.25" font-family="Helvetica,sans-Serif" font-size="10.00">_to.tpp</text>
</a>
</g>
</g>
<!-- Node3&#45;&gt;Node16 -->
<g id="edge19_Node000003_Node000016" class="edge">
<title>Node3&#45;&gt;Node16</title>
<g id="a_edge19_Node000003_Node000016"><a xlink:title=" ">
<path fill="none" stroke="#63b8ff" d="M1070.24,-151.44C1011.36,-143.37 914.47,-128.88 822.18,-108.71"/>
<polygon fill="#63b8ff" stroke="#63b8ff" points="822.95,-105.3 812.43,-106.55 821.44,-112.13 822.95,-105.3"/>
</a>
</g>
</g>
<!-- Node17 -->
<g id="Node000017" class="node">
<title>Node17</title>
<g id="a_Node000017"><a xlink:title=" ">
<polygon fill="#e0e0e0" stroke="#999999" points="952.97,-108.25 828.22,-108.25 828.22,-66.5 952.97,-66.5 952.97,-108.25"/>
<text text-anchor="start" x="836.22" y="-94.75" font-family="Helvetica,sans-Serif" font-size="10.00">typed_linear_algebra</text>
<text text-anchor="start" x="836.22" y="-83.5" font-family="Helvetica,sans-Serif" font-size="10.00">_internal/algorithm/matrix</text>
<text text-anchor="middle" x="890.59" y="-72.25" font-family="Helvetica,sans-Serif" font-size="10.00">_product.tpp</text>
</a>
</g>
</g>
<!-- Node3&#45;&gt;Node17 -->
<g id="edge20_Node000003_Node000017" class="edge">
<title>Node3&#45;&gt;Node17</title>
<g id="a_edge20_Node000003_Node000017"><a xlink:title=" ">
<path fill="none" stroke="#63b8ff" d="M1075.54,-143.8C1043.35,-134.15 1000.67,-121.36 964.42,-110.5"/>
<polygon fill="#63b8ff" stroke="#63b8ff" points="965.43,-107.15 954.84,-107.63 963.42,-113.85 965.43,-107.15"/>
</a>
</g>
</g>
<!-- Node18 -->
<g id="Node000018" class="node">
<title>Node18</title>
<g id="a_Node000018"><a xlink:title=" ">
<polygon fill="#e0e0e0" stroke="#999999" points="1117.84,-102.62 971.34,-102.62 971.34,-72.12 1117.84,-72.12 1117.84,-102.62"/>
<text text-anchor="start" x="979.34" y="-89.12" font-family="Helvetica,sans-Serif" font-size="10.00">typed_linear_algebra</text>
<text text-anchor="middle" x="1044.59" y="-77.88" font-family="Helvetica,sans-Serif" font-size="10.00">_internal/algorithm/product.tpp</text>
</a>
</g>
</g>
<!-- Node3&#45;&gt;Node18 -->
<g id="edge21_Node000003_Node000018" class="edge">
<title>Node3&#45;&gt;Node18</title>
<g id="a_edge21_Node000003_Node000018"><a xlink:title=" ">
<path fill="none" stroke="#63b8ff" d="M1108.02,-143.97C1096.97,-134.29 1082.24,-121.37 1069.75,-110.43"/>
<polygon fill="#63b8ff" stroke="#63b8ff" points="1072.11,-107.84 1062.28,-103.88 1067.5,-113.11 1072.11,-107.84"/>
</a>
</g>
</g>
<!-- Node19 -->
<g id="Node000019" class="node">
<title>Node19</title>
<g id="a_Node000019"><a xlink:title=" ">
<polygon fill="#e0e0e0" stroke="#999999" points="1273.34,-102.62 1135.84,-102.62 1135.84,-72.12 1273.34,-72.12 1273.34,-102.62"/>
<text text-anchor="start" x="1143.84" y="-89.12" font-family="Helvetica,sans-Serif" font-size="10.00">typed_linear_algebra</text>
<text text-anchor="middle" x="1204.59" y="-77.88" font-family="Helvetica,sans-Serif" font-size="10.00">_internal/algorithm/scale.tpp</text>
</a>
</g>
</g>
<!-- Node3&#45;&gt;Node19 -->
<g id="edge22_Node000003_Node000019" class="edge">
<title>Node3&#45;&gt;Node19</title>
<g id="a_edge22_Node000003_Node000019"><a xlink:title=" ">
<path fill="none" stroke="#63b8ff" d="M1141.17,-143.97C1152.22,-134.29 1166.95,-121.37 1179.43,-110.43"/>
<polygon fill="#63b8ff" stroke="#63b8ff" points="1181.69,-113.11 1186.9,-103.88 1177.07,-107.84 1181.69,-113.11"/>
</a>
</g>
</g>
<!-- Node20 -->
<g id="Node000020" class="node">
<title>Node20</title>
<g id="a_Node000020"><a xlink:title=" ">
<polygon fill="#e0e0e0" stroke="#999999" points="1568.97,-102.62 1414.22,-102.62 1414.22,-72.12 1568.97,-72.12 1568.97,-102.62"/>
<text text-anchor="start" x="1422.22" y="-89.12" font-family="Helvetica,sans-Serif" font-size="10.00">typed_linear_algebra</text>
<text text-anchor="middle" x="1491.59" y="-77.88" font-family="Helvetica,sans-Serif" font-size="10.00">_internal/algorithm/substract.tpp</text>
</a>
</g>
</g>
<!-- Node3&#45;&gt;Node20 -->
<g id="edge23_Node000003_Node000020" class="edge">
<title>Node3&#45;&gt;Node20</title>
<g id="a_edge23_Node000003_Node000020"><a xlink:title=" ">
<path fill="none" stroke="#63b8ff" d="M1179.2,-149.48C1235.74,-139.96 1326.56,-124.16 1404.59,-108.25 1408.91,-107.37 1413.34,-106.44 1417.81,-105.48"/>
<polygon fill="#63b8ff" stroke="#63b8ff" points="1418.44,-108.93 1427.46,-103.38 1416.95,-102.09 1418.44,-108.93"/>
</a>
</g>
</g>
<!-- Node21 -->
<g id="Node000021" class="node">
<title>Node21</title>
<g id="a_Node000021"><a xlink:title=" ">
<polygon fill="#e0e0e0" stroke="#999999" points="1749.72,-102.62 1587.47,-102.62 1587.47,-72.12 1749.72,-72.12 1749.72,-102.62"/>
<text text-anchor="start" x="1595.47" y="-89.12" font-family="Helvetica,sans-Serif" font-size="10.00">typed_linear_algebra</text>
<text text-anchor="middle" x="1668.59" y="-77.88" font-family="Helvetica,sans-Serif" font-size="10.00">_internal/algorithm/transposed.tpp</text>
</a>
</g>
</g>
<!-- Node3&#45;&gt;Node21 -->
<g id="edge24_Node000003_Node000021" class="edge">
<title>Node3&#45;&gt;Node21</title>
<g id="a_edge24_Node000003_Node000021"><a xlink:title=" ">
<path fill="none" stroke="#63b8ff" d="M1178.88,-154.32C1264.15,-147.35 1434.51,-131.75 1577.59,-108.25 1583.13,-107.34 1588.85,-106.31 1594.58,-105.21"/>
<polygon fill="#63b8ff" stroke="#63b8ff" points="1594.99,-108.7 1604.12,-103.32 1593.63,-101.83 1594.99,-108.7"/>
</a>
</g>
</g>
<!-- Node22 -->
<g id="Node000022" class="node">
<title>Node22</title>
<g id="a_Node000022"><a xlink:title=" ">
<polygon fill="#e0e0e0" stroke="#999999" points="1871.84,-102.62 1767.34,-102.62 1767.34,-72.12 1871.84,-72.12 1871.84,-102.62"/>
<text text-anchor="start" x="1775.34" y="-89.12" font-family="Helvetica,sans-Serif" font-size="10.00">typed_linear_algebra</text>
<text text-anchor="middle" x="1819.59" y="-77.88" font-family="Helvetica,sans-Serif" font-size="10.00">_internal/cast.tpp</text>
</a>
</g>
</g>
<!-- Node3&#45;&gt;Node22 -->
<g id="edge25_Node000003_Node000022" class="edge">
<title>Node3&#45;&gt;Node22</title>
<g id="a_edge25_Node000003_Node000022"><a xlink:title=" ">
<path fill="none" stroke="#63b8ff" d="M1179.04,-158.48C1289.45,-157.51 1547.18,-150.45 1758.59,-108.25 1761.71,-107.63 1764.9,-106.89 1768.1,-106.09"/>
<polygon fill="#63b8ff" stroke="#63b8ff" points="1768.77,-109.53 1777.47,-103.49 1766.9,-102.79 1768.77,-109.53"/>
</a>
</g>
</g>
<!-- Node23 -->
<g id="Node000023" class="node">
<title>Node23</title>
<g id="a_Node000023"><a xlink:title=" ">
<polygon fill="#e0e0e0" stroke="#999999" points="1994.84,-102.62 1890.34,-102.62 1890.34,-72.12 1994.84,-72.12 1994.84,-102.62"/>
<text text-anchor="start" x="1898.34" y="-89.12" font-family="Helvetica,sans-Serif" font-size="10.00">typed_linear_algebra</text>
<text text-anchor="middle" x="1942.59" y="-77.88" font-family="Helvetica,sans-Serif" font-size="10.00">_internal/format.tpp</text>
</a>
</g>
</g>
<!-- Node3&#45;&gt;Node23 -->
<g id="edge26_Node000003_Node000023" class="edge">
<title>Node3&#45;&gt;Node23</title>
<g id="a_edge26_Node000003_Node000023"><a xlink:title=" ">
<path fill="none" stroke="#63b8ff" d="M1179.1,-156.6C1329.12,-151.11 1745.89,-133.92 1880.59,-108.25 1883.93,-107.61 1887.33,-106.85 1890.75,-106.01"/>
<polygon fill="#63b8ff" stroke="#63b8ff" points="1891.41,-109.46 1900.14,-103.45 1889.57,-102.7 1891.41,-109.46"/>
</a>
</g>
</g>
<!-- Node24 -->
<g id="Node000024" class="node">
<title>Node24</title>
<g id="a_Node000024"><a xlink:title=" ">
<polygon fill="#e0e0e0" stroke="#999999" points="2192.84,-102.62 2088.34,-102.62 2088.34,-72.12 2192.84,-72.12 2192.84,-102.62"/>
<text text-anchor="start" x="2096.34" y="-89.12" font-family="Helvetica,sans-Serif" font-size="10.00">typed_linear_algebra</text>
<text text-anchor="middle" x="2140.59" y="-77.88" font-family="Helvetica,sans-Serif" font-size="10.00">_internal/tuple.tpp</text>
</a>
</g>
</g>
<!-- Node3&#45;&gt;Node24 -->
<g id="edge27_Node000003_Node000024" class="edge">
<title>Node3&#45;&gt;Node24</title>
<g id="a_edge27_Node000003_Node000024"><a xlink:title=" ">
<path fill="none" stroke="#63b8ff" d="M1179.16,-157.33C1354.25,-153.31 1900.6,-138.6 2074.59,-108.25 2078.36,-107.59 2082.22,-106.79 2086.08,-105.89"/>
<polygon fill="#63b8ff" stroke="#63b8ff" points="2086.63,-109.36 2095.46,-103.5 2084.9,-102.58 2086.63,-109.36"/>
</a>
</g>
</g>
<!-- Node25 -->
<g id="Node000025" class="node">
<title>Node25</title>
<g id="a_Node000025"><a xlink:title=" ">
<polygon fill="#e0e0e0" stroke="#999999" points="2318.34,-108.25 2210.84,-108.25 2210.84,-66.5 2318.34,-66.5 2318.34,-108.25"/>
<text text-anchor="start" x="2218.84" y="-94.75" font-family="Helvetica,sans-Serif" font-size="10.00">typed_linear_algebra</text>
<text text-anchor="start" x="2218.84" y="-83.5" font-family="Helvetica,sans-Serif" font-size="10.00">_internal/typed_linear</text>
<text text-anchor="middle" x="2264.59" y="-72.25" font-family="Helvetica,sans-Serif" font-size="10.00">_algebra.tpp</text>
</a>
</g>
</g>
<!-- Node3&#45;&gt;Node25 -->
<g id="edge28_Node000003_Node000025" class="edge">
<title>Node3&#45;&gt;Node25</title>
<g id="a_edge28_Node000003_Node000025"><a xlink:title=" ">
<path fill="none" stroke="#63b8ff" d="M1179.02,-157.82C1365.77,-155.2 1980.48,-144.16 2199.46,-108.3"/>
<polygon fill="#63b8ff" stroke="#63b8ff" points="2199.76,-111.8 2209.03,-106.67 2198.58,-104.9 2199.76,-111.8"/>
</a>
</g>
</g>
<!-- Node5&#45;&gt;Node4 -->
<g id="edge5_Node000005_Node000004" class="edge">
<title>Node5&#45;&gt;Node4</title>
<g id="a_edge5_Node000005_Node000004"><a xlink:title=" ">
<path fill="none" stroke="#63b8ff" d="M1386.72,-71.66C1393.01,-69.78 1399.44,-67.99 1405.59,-66.5 1486.93,-46.81 1582.45,-32.33 1643.95,-24.1"/>
<polygon fill="#63b8ff" stroke="#63b8ff" points="1644.07,-27.62 1653.52,-22.84 1643.15,-20.68 1644.07,-27.62"/>
</a>
</g>
</g>
<!-- Node5&#45;&gt;Node6 -->
<g id="edge6_Node000005_Node000006" class="edge">
<title>Node5&#45;&gt;Node6</title>
<g id="a_edge6_Node000005_Node000006"><a xlink:title=" ">
<path fill="none" stroke="#63b8ff" d="M1303.62,-71.7C1296.69,-69.63 1289.49,-67.78 1282.59,-66.5 1096.55,-32.07 497.28,-19.62 337.85,-16.87"/>
<polygon fill="#63b8ff" stroke="#63b8ff" points="338.3,-13.38 328.24,-16.71 338.18,-20.38 338.3,-13.38"/>
</a>
</g>
</g>
<!-- Node5&#45;&gt;Node7 -->
<g id="edge7_Node000005_Node000007" class="edge">
<title>Node5&#45;&gt;Node7</title>
<g id="a_edge7_Node000005_Node000007"><a xlink:title=" ">
<path fill="none" stroke="#63b8ff" d="M1303.97,-71.68C1296.94,-69.59 1289.61,-67.73 1282.59,-66.5 1034.24,-23.01 399.77,-52.32 148.59,-30.5 127.18,-28.64 103.35,-25.29 84.32,-22.31"/>
<polygon fill="#63b8ff" stroke="#63b8ff" points="85.09,-18.89 74.66,-20.76 83.97,-25.8 85.09,-18.89"/>
</a>
</g>
</g>
<!-- Node8 -->
<g id="Node000008" class="node">
<title>Node8</title>
<g id="a_Node000008"><a xlink:title=" ">
<polygon fill="#e0e0e0" stroke="#999999" points="1372.59,-24.88 1314.59,-24.88 1314.59,-5.63 1372.59,-5.63 1372.59,-24.88"/>
<text text-anchor="middle" x="1343.59" y="-11.38" font-family="Helvetica,sans-Serif" font-size="10.00">functional</text>
</a>
</g>
</g>
<!-- Node5&#45;&gt;Node8 -->
<g id="edge8_Node000005_Node000008" class="edge">
<title>Node5&#45;&gt;Node8</title>
<g id="a_edge8_Node000005_Node000008"><a xlink:title=" ">
<path fill="none" stroke="#63b8ff" d="M1343.59,-71.85C1343.59,-61.59 1343.59,-47.7 1343.59,-36.38"/>
<polygon fill="#63b8ff" stroke="#63b8ff" points="1347.09,-36.52 1343.59,-26.52 1340.09,-36.52 1347.09,-36.52"/>
</a>
</g>
</g>
<!-- Node5&#45;&gt;Node9 -->
<g id="edge9_Node000005_Node000009" class="edge">
<title>Node5&#45;&gt;Node9</title>
<g id="a_edge9_Node000005_Node000009"><a xlink:title=" ">
<path fill="none" stroke="#63b8ff" d="M1384.93,-71.65C1391.76,-69.65 1398.83,-67.83 1405.59,-66.5 1527.9,-42.55 1918.78,-22.87 2030.5,-17.62"/>
<polygon fill="#63b8ff" stroke="#63b8ff" points="2030.52,-21.13 2040.35,-17.17 2030.2,-14.13 2030.52,-21.13"/>
</a>
</g>
</g>
<!-- Node5&#45;&gt;Node10 -->
<g id="edge10_Node000005_Node000010" class="edge">
<title>Node5&#45;&gt;Node10</title>
<g id="a_edge10_Node000005_Node000010"><a xlink:title=" ">
<path fill="none" stroke="#63b8ff" d="M1303.97,-71.7C1296.93,-69.61 1289.61,-67.74 1282.59,-66.5 835.48,12.6 712.7,-82.16 261.59,-30.5 251.43,-29.34 240.57,-27.53 230.42,-25.59"/>
<polygon fill="#63b8ff" stroke="#63b8ff" points="231.3,-22.2 220.81,-23.66 229.93,-29.06 231.3,-22.2"/>
</a>
</g>
</g>
</g>
</svg>

<g id="navigator" transform="translate(0 0)" fill="#404254">
  <rect fill="#f2f5e9" fill-opacity="0.5" stroke="#606060" stroke-width=".5" x="0" y="0" width="60" height="60"/>
  <use id="zoomplus" xlink:href="#zoomPlus" x="17" y="9" onmousedown="handleZoom(evt,'in')"/>
  <use id="zoomminus" xlink:href="#zoomMin" x="42" y="9" onmousedown="handleZoom(evt,'out')"/>
  <use id="reset" xlink:href="#resetDef" x="30" y="36" onmousedown="handleReset()"/>
   <use id="arrowup" xlink:href="#arrowUp" x="0" y="0" onmousedown="handlePan(0,-1)"/>
  <use id="arrowright" xlink:href="#arrowRight" x="0" y="0" onmousedown="handlePan(1,0)"/>
  <use id="arrowdown" xlink:href="#arrowDown" x="0" y="0" onmousedown="handlePan(0,1)"/>
  <use id="arrowleft" xlink:href="#arrowLeft" x="0" y="0" onmousedown="handlePan(-1,0)"/>
</g>
<svg viewBox="0 0 15 15" width="100%" height="30px" preserveAspectRatio="xMaxYMin meet">
 <g id="arrow_out" transform="scale(0.3 0.3)">
  <a xlink:href="nested__typed__eigen_2fcarouge_2linalg_8hpp__incl_org.svg" target="_base">
   <rect id="button" ry="5" rx="5" y="6" x="6" height="38" width="38"
        fill="#f2f5e9" fill-opacity="0.5" stroke="#606060" stroke-width="1.0"/>
   <path id="arrow"
     d="M 11.500037,31.436501 C 11.940474,20.09759 22.043105,11.32322 32.158766,21.979434 L 37.068811,17.246167 C 37.068811,17.246167 37.088388,32 37.088388,32 L 22.160133,31.978069 C 22.160133,31.978069 26.997745,27.140456 26.997745,27.140456 C 18.528582,18.264221 13.291696,25.230495 11.500037,31.436501 z"
     style="fill:#404040;"/>
  </a>
 </g>
</svg>

<style type='text/css'>
<![CDATA[
[data-mouse-over-selected='false'] { opacity: 0.7; }
[data-mouse-over-selected='true']  { opacity: 1.0; }
]]>
</style>
<script type="application/ecmascript"><![CDATA[
document.addEventListener('DOMContentLoaded', (event) => {
  highlightEdges();
  highlightAdjacentNodes();
});
]]></script>
</svg>
