<?xml version="1.0" encoding="UTF-8" standalone="no"?>
<!DOCTYPE svg PUBLIC "-//W3C//DTD SVG 1.1//EN"
 "http://www.w3.org/Graphics/SVG/1.1/DTD/svg11.dtd">
<!-- Generated by graphviz version 12.2.0 (20241103.1931)
 -->
<!-- Title: /github/workspace/support/nested_typed_eigen/fcarouge/linalg.hpp Pages: 1 -->
<!--zoomable 371 -->

<svg id="main" version="1.1" xmlns="http://www.w3.org/2000/svg" xmlns:xlink="http://www.w3.org/1999/xlink" xml:space="preserve" onload="init(evt)">

<style type="text/css"><![CDATA[
.node, .edge {opacity: 0.7;}
.node.selected, .edge.selected {opacity: 1;}
.edge:hover path { stroke: red; }
.edge:hover polygon { stroke: red; fill: red; }
]]></style>

<defs>
  <circle id="rim" cx="0" cy="0" r="7"/>
  <circle id="rim2" cx="0" cy="0" r="3.5"/>
  <g id="zoomPlus">
    <use xlink:href="#rim" fill="#404040"><set attributeName="fill" to="#808080" begin="zoomplus.mouseover" end="zoomplus.mouseout"/></use>
    <path d="M-4,0h8M0,-4v8" fill="none" stroke="white" stroke-width="1.5" pointer-events="none"/>
  </g>
  <g id="zoomMin">
    <use xlink:href="#rim" fill="#404040"><set attributeName="fill" to="#808080" begin="zoomminus.mouseover" end="zoomminus.mouseout"/></use>
    <path d="M-4,0h8" fill="none" stroke="white" stroke-width="1.5" pointer-events="none"/>
  </g>
  <g id="arrowUp" transform="translate(30 24)">
    <use xlink:href="#rim"/>
    <path pointer-events="none" fill="none" stroke="white" stroke-width="1.5" d="M0,-3.0v7 M-2.5,-0.5L0,-3.0L2.5,-0.5"/>
  </g>
  <g id="arrowRight" transform="rotate(90) translate(36 -43)">
    <use xlink:href="#rim"/>
    <path pointer-events="none" fill="none" stroke="white" stroke-width="1.5" d="M0,-3.0v7 M-2.5,-0.5L0,-3.0L2.5,-0.5"/>
  </g>
  <g id="arrowDown" transform="rotate(180) translate(-30 -48)">
    <use xlink:href="#rim"/>
    <path pointer-events="none" fill="none" stroke="white" stroke-width="1.5" d="M0,-3.0v7 M-2.5,-0.5L0,-3.0L2.5,-0.5"/>
  </g>
  <g id="arrowLeft" transform="rotate(270) translate(-36 17)">
    <use xlink:href="#rim"/>
    <path pointer-events="none" fill="none" stroke="white" stroke-width="1.5" d="M0,-3.0v7 M-2.5,-0.5L0,-3.0L2.5,-0.5"/>
  </g>
  <g id="resetDef">
    <use xlink:href="#rim2" fill="#404040"><set attributeName="fill" to="#808080" begin="reset.mouseover" end="reset.mouseout"/></use>
  </g>
</defs>
<script type="application/ecmascript">
var viewWidth = 2425;
var viewHeight = 371;
var sectionId = 'dynsection-0';
</script>
<script type="application/ecmascript" xlink:href="svg.min.js"/>
<svg id="graph" class="graph">
<g id="viewport">
<title>/github/workspace/support/nested_typed_eigen/fcarouge/linalg.hpp</title>
<!-- Node1 -->
<g id="Node000001" class="node">
<title>Node1</title>
<g id="a_Node000001"><a xlink:title="Scalar type nested linear algebra with Eigen implementation.">
<polygon fill="#999999" stroke="#666666" points="2247.38,-363 2101.62,-363 2101.62,-321.25 2247.38,-321.25 2247.38,-363"/>
<text text-anchor="start" x="2109.62" y="-349.5" font-family="Helvetica,sans-Serif" font-size="10.00">/github/workspace/support</text>
<text text-anchor="start" x="2109.62" y="-338.25" font-family="Helvetica,sans-Serif" font-size="10.00">/nested_typed_eigen/fcarouge</text>
<text text-anchor="middle" x="2174.5" y="-327" font-family="Helvetica,sans-Serif" font-size="10.00">/linalg.hpp</text>
</a>
</g>
</g>
<!-- Node2 -->
<g id="Node000002" class="node">
<title>Node2</title>
<g id="a_Node000002"><a xlink:href="eigen_8hpp.xhtml" target="_top" xlink:title="Linear algebra facade for Eigen3 third party implementation.">
<polygon fill="white" stroke="#666666" points="2223.38,-285.25 2125.62,-285.25 2125.62,-266 2223.38,-266 2223.38,-285.25"/>
<text text-anchor="middle" x="2174.5" y="-271.75" font-family="Helvetica,sans-Serif" font-size="10.00">fcarouge/eigen.hpp</text>
</a>
</g>
</g>
<!-- Node1&#45;&gt;Node2 -->
<g id="edge1_Node000001_Node000002" class="edge">
<title>Node1&#45;&gt;Node2</title>
<g id="a_edge1_Node000001_Node000002"><a xlink:title=" ">
<path fill="none" stroke="#63b8ff" d="M2174.5,-321.07C2174.5,-313.4 2174.5,-304.64 2174.5,-296.95"/>
<polygon fill="#63b8ff" stroke="#63b8ff" points="2178,-297.21 2174.5,-287.21 2171,-297.21 2178,-297.21"/>
</a>
</g>
</g>
<!-- Node3 -->
<g id="Node000003" class="node">
<title>Node3</title>
<g id="a_Node000003"><a xlink:href="typed__linear__algebra_8hpp.xhtml" target="_top" xlink:title="Typed linear algebra implementation.">
<polygon fill="white" stroke="#666666" points="1226.62,-230 1118.38,-230 1118.38,-199.5 1226.62,-199.5 1226.62,-230"/>
<text text-anchor="start" x="1126.38" y="-216.5" font-family="Helvetica,sans-Serif" font-size="10.00">fcarouge/typed_linear</text>
<text text-anchor="middle" x="1172.5" y="-205.25" font-family="Helvetica,sans-Serif" font-size="10.00">_algebra.hpp</text>
</a>
</g>
</g>
<!-- Node1&#45;&gt;Node3 -->
<g id="edge39_Node000001_Node000003" class="edge">
<title>Node1&#45;&gt;Node3</title>
<g id="a_edge39_Node000001_Node000003"><a xlink:title=" ">
<path fill="none" stroke="#63b8ff" d="M2101.23,-331.96C1913.5,-308.47 1417.47,-246.4 1238.27,-223.98"/>
<polygon fill="#63b8ff" stroke="#63b8ff" points="1238.79,-220.52 1228.43,-222.75 1237.92,-227.46 1238.79,-220.52"/>
</a>
</g>
</g>
<!-- Node8 -->
<g id="Node000008" class="node">
<title>Node8</title>
<g id="a_Node000008"><a xlink:title=" ">
<polygon fill="#e0e0e0" stroke="#999999" points="2171.62,-24.88 2123.38,-24.88 2123.38,-5.63 2171.62,-5.63 2171.62,-24.88"/>
<text text-anchor="middle" x="2147.5" y="-11.38" font-family="Helvetica,sans-Serif" font-size="10.00">cstddef</text>
</a>
</g>
</g>
<!-- Node1&#45;&gt;Node8 -->
<g id="edge40_Node000001_Node000008" class="edge">
<title>Node1&#45;&gt;Node8</title>
<g id="a_edge40_Node000001_Node000008"><a xlink:title=" ">
<path fill="none" stroke="#63b8ff" d="M2247.76,-333.94C2318.99,-322.43 2416.5,-292.64 2416.5,-215.75 2416.5,-215.75 2416.5,-215.75 2416.5,-141.62 2416.5,-103.59 2405.92,-89.34 2375.5,-66.5 2318.28,-23.53 2231.55,-15.93 2183.22,-15.35"/>
<polygon fill="#63b8ff" stroke="#63b8ff" points="2183.32,-11.85 2173.32,-15.34 2183.32,-18.85 2183.32,-11.85"/>
</a>
</g>
</g>
<!-- Node2&#45;&gt;Node3 -->
<g id="edge2_Node000002_Node000003" class="edge">
<title>Node2&#45;&gt;Node3</title>
<g id="a_edge2_Node000002_Node000003"><a xlink:title=" ">
<path fill="none" stroke="#63b8ff" d="M2125.15,-271.73C1959.92,-262.02 1426,-230.65 1238.41,-219.62"/>
<polygon fill="#63b8ff" stroke="#63b8ff" points="1238.79,-216.14 1228.6,-219.05 1238.38,-223.13 1238.79,-216.14"/>
</a>
</g>
</g>
<!-- Node7 -->
<g id="Node000007" class="node">
<title>Node7</title>
<g id="a_Node000007"><a xlink:title=" ">
<polygon fill="#e0e0e0" stroke="#999999" points="1944.38,-24.88 1888.62,-24.88 1888.62,-5.63 1944.38,-5.63 1944.38,-24.88"/>
<text text-anchor="middle" x="1916.5" y="-11.38" font-family="Helvetica,sans-Serif" font-size="10.00">concepts</text>
</a>
</g>
</g>
<!-- Node2&#45;&gt;Node7 -->
<g id="edge32_Node000002_Node000007" class="edge">
<title>Node2&#45;&gt;Node7</title>
<g id="a_edge32_Node000002_Node000007"><a xlink:title=" ">
<path fill="none" stroke="#63b8ff" d="M2172.56,-265.63C2164.6,-229.49 2133.39,-95.32 2102.5,-66.5 2091.67,-56.4 2006.8,-36.22 1955.52,-24.75"/>
<polygon fill="#63b8ff" stroke="#63b8ff" points="1956.51,-21.38 1945.99,-22.63 1954.99,-28.21 1956.51,-21.38"/>
</a>
</g>
</g>
<!-- Node2&#45;&gt;Node8 -->
<g id="edge33_Node000002_Node000008" class="edge">
<title>Node2&#45;&gt;Node8</title>
<g id="a_edge33_Node000002_Node000008"><a xlink:title=" ">
<path fill="none" stroke="#63b8ff" d="M2223.87,-269.18C2271.45,-262.8 2338.53,-250.41 2354.5,-230 2399.28,-172.77 2399.42,-123.62 2354.5,-66.5 2333.57,-39.88 2236.64,-25.63 2183.16,-19.67"/>
<polygon fill="#63b8ff" stroke="#63b8ff" points="2183.65,-16.21 2173.33,-18.62 2182.91,-23.17 2183.65,-16.21"/>
</a>
</g>
</g>
<!-- Node10 -->
<g id="Node000010" class="node">
<title>Node10</title>
<g id="a_Node000010"><a xlink:title=" ">
<polygon fill="#e0e0e0" stroke="#999999" points="37,-24.88 0,-24.88 0,-5.63 37,-5.63 37,-24.88"/>
<text text-anchor="middle" x="18.5" y="-11.38" font-family="Helvetica,sans-Serif" font-size="10.00">tuple</text>
</a>
</g>
</g>
<!-- Node2&#45;&gt;Node10 -->
<g id="edge36_Node000002_Node000010" class="edge">
<title>Node2&#45;&gt;Node10</title>
<g id="a_edge36_Node000002_Node000010"><a xlink:title=" ">
<path fill="none" stroke="#63b8ff" d="M2125.28,-273.69C1813.81,-267.6 126.84,-231.53 43.5,-163.5 6.08,-132.95 9.88,-68.9 14.73,-36.27"/>
<polygon fill="#63b8ff" stroke="#63b8ff" points="18.15,-37.03 16.36,-26.59 11.25,-35.86 18.15,-37.03"/>
</a>
</g>
</g>
<!-- Node11 -->
<g id="Node000011" class="node">
<title>Node11</title>
<g id="a_Node000011"><a xlink:title=" ">
<polygon fill="#e0e0e0" stroke="#999999" points="2067,-24.88 2006,-24.88 2006,-5.63 2067,-5.63 2067,-24.88"/>
<text text-anchor="middle" x="2036.5" y="-11.38" font-family="Helvetica,sans-Serif" font-size="10.00">type_traits</text>
</a>
</g>
</g>
<!-- Node2&#45;&gt;Node11 -->
<g id="edge37_Node000002_Node000011" class="edge">
<title>Node2&#45;&gt;Node11</title>
<g id="a_edge37_Node000002_Node000011"><a xlink:title=" ">
<path fill="none" stroke="#63b8ff" d="M2223.64,-273.95C2257.08,-270.6 2299.18,-260.1 2321.5,-230 2329.57,-219.11 2326.42,-212.13 2321.5,-199.5 2292.41,-124.75 2267.3,-109.36 2199.5,-66.5 2162.17,-42.9 2113.01,-29.74 2078.48,-22.87"/>
<polygon fill="#63b8ff" stroke="#63b8ff" points="2079.33,-19.47 2068.85,-21.06 2078.03,-26.35 2079.33,-19.47"/>
</a>
</g>
</g>
<!-- Node12 -->
<g id="Node000012" class="node">
<title>Node12</title>
<g id="a_Node000012"><a xlink:title=" ">
<polygon fill="#e0e0e0" stroke="#999999" points="2093.38,-85.75 2049.62,-85.75 2049.62,-66.5 2093.38,-66.5 2093.38,-85.75"/>
<text text-anchor="middle" x="2071.5" y="-72.25" font-family="Helvetica,sans-Serif" font-size="10.00">format</text>
</a>
</g>
</g>
<!-- Node2&#45;&gt;Node12 -->
<g id="edge34_Node000002_Node000012" class="edge">
<title>Node2&#45;&gt;Node12</title>
<g id="a_edge34_Node000002_Node000012"><a xlink:title=" ">
<path fill="none" stroke="#63b8ff" d="M2164.29,-265.54C2155.24,-257.06 2142.16,-243.69 2133.5,-230 2105.5,-185.76 2085.87,-126.74 2076.94,-96.62"/>
<polygon fill="#63b8ff" stroke="#63b8ff" points="2080.41,-96.02 2074.28,-87.38 2073.68,-97.96 2080.41,-96.02"/>
</a>
</g>
</g>
<!-- Node26 -->
<g id="Node000026" class="node">
<title>Node26</title>
<g id="a_Node000026"><a xlink:title=" ">
<polygon fill="#e0e0e0" stroke="#999999" points="2227.12,-224.38 2175.88,-224.38 2175.88,-205.12 2227.12,-205.12 2227.12,-224.38"/>
<text text-anchor="middle" x="2201.5" y="-210.88" font-family="Helvetica,sans-Serif" font-size="10.00">sstream</text>
</a>
</g>
</g>
<!-- Node2&#45;&gt;Node26 -->
<g id="edge35_Node000002_Node000026" class="edge">
<title>Node2&#45;&gt;Node26</title>
<g id="a_edge35_Node000002_Node000026"><a xlink:title=" ">
<path fill="none" stroke="#63b8ff" d="M2178.6,-265.68C2182.33,-257.56 2187.95,-245.29 2192.69,-234.95"/>
<polygon fill="#63b8ff" stroke="#63b8ff" points="2195.74,-236.7 2196.73,-226.15 2189.38,-233.78 2195.74,-236.7"/>
</a>
</g>
</g>
<!-- Node27 -->
<g id="Node000027" class="node">
<title>Node27</title>
<g id="a_Node000027"><a xlink:title=" ">
<polygon fill="#e0e0e0" stroke="#999999" points="2312,-224.38 2245,-224.38 2245,-205.12 2312,-205.12 2312,-224.38"/>
<text text-anchor="middle" x="2278.5" y="-210.88" font-family="Helvetica,sans-Serif" font-size="10.00">Eigen/Eigen</text>
</a>
</g>
</g>
<!-- Node2&#45;&gt;Node27 -->
<g id="edge38_Node000002_Node000027" class="edge">
<title>Node2&#45;&gt;Node27</title>
<g id="a_edge38_Node000002_Node000027"><a xlink:title=" ">
<path fill="none" stroke="#63b8ff" d="M2190.3,-265.68C2206.86,-256.3 2233.17,-241.41 2252.75,-230.33"/>
<polygon fill="#63b8ff" stroke="#63b8ff" points="2254.26,-233.49 2261.24,-225.52 2250.81,-227.4 2254.26,-233.49"/>
</a>
</g>
</g>
<!-- Node4 -->
<g id="Node000004" class="node">
<title>Node4</title>
<g id="a_Node000004"><a xlink:href="typed__linear__algebra__forward_8hpp.xhtml" target="_top" xlink:title="Authoritative forward declaration header.">
<polygon fill="white" stroke="#666666" points="974.75,-30.5 870.25,-30.5 870.25,0 974.75,0 974.75,-30.5"/>
<text text-anchor="start" x="878.25" y="-17" font-family="Helvetica,sans-Serif" font-size="10.00">typed_linear_algebra</text>
<text text-anchor="middle" x="922.5" y="-5.75" font-family="Helvetica,sans-Serif" font-size="10.00">_forward.hpp</text>
</a>
</g>
</g>
<!-- Node3&#45;&gt;Node4 -->
<g id="edge3_Node000003_Node000004" class="edge">
<title>Node3&#45;&gt;Node4</title>
<g id="a_edge3_Node000003_Node000004"><a xlink:title=" ">
<path fill="none" stroke="#63b8ff" d="M1118.01,-213.26C904.51,-211.08 134.97,-200.67 99.5,-163.5 -8.38,-50.45 647.34,-23.4 858.54,-17.66"/>
<polygon fill="#63b8ff" stroke="#63b8ff" points="858.62,-21.16 868.52,-17.4 858.43,-14.16 858.62,-21.16"/>
</a>
</g>
</g>
<!-- Node5 -->
<g id="Node000005" class="node">
<title>Node5</title>
<g id="a_Node000005"><a xlink:href="format_8hpp.xhtml" target="_top" xlink:title="Formatting support for the typed matrix.">
<polygon fill="white" stroke="#666666" points="2043.75,-157.88 1939.25,-157.88 1939.25,-127.38 2043.75,-127.38 2043.75,-157.88"/>
<text text-anchor="start" x="1947.25" y="-144.38" font-family="Helvetica,sans-Serif" font-size="10.00">typed_linear_algebra</text>
<text text-anchor="middle" x="1991.5" y="-133.12" font-family="Helvetica,sans-Serif" font-size="10.00">_internal/format.hpp</text>
</a>
</g>
</g>
<!-- Node3&#45;&gt;Node5 -->
<g id="edge4_Node000003_Node000005" class="edge">
<title>Node3&#45;&gt;Node5</title>
<g id="a_edge4_Node000003_Node000005"><a xlink:title=" ">
<path fill="none" stroke="#63b8ff" d="M1226.88,-214.3C1351.53,-214.67 1667.03,-210.42 1925.5,-163.5 1929.26,-162.82 1933.12,-161.99 1936.98,-161.08"/>
<polygon fill="#63b8ff" stroke="#63b8ff" points="1937.54,-164.55 1946.35,-158.66 1935.79,-157.77 1937.54,-164.55"/>
</a>
</g>
</g>
<!-- Node6 -->
<g id="Node000006" class="node">
<title>Node6</title>
<g id="a_Node000006"><a xlink:href="utility_8hpp.xhtml" target="_top" xlink:title=" ">
<polygon fill="white" stroke="#666666" points="1874.75,-85.75 1818.25,-85.75 1818.25,-66.5 1874.75,-66.5 1874.75,-85.75"/>
<text text-anchor="middle" x="1846.5" y="-72.25" font-family="Helvetica,sans-Serif" font-size="10.00">utility.hpp</text>
</a>
</g>
</g>
<!-- Node3&#45;&gt;Node6 -->
<g id="edge14_Node000003_Node000006" class="edge">
<title>Node3&#45;&gt;Node6</title>
<g id="a_edge14_Node000003_Node000006"><a xlink:title=" ">
<path fill="none" stroke="#63b8ff" d="M1118,-213.23C906.28,-210.93 148.45,-200.15 113.5,-163.5 100.69,-150.07 100.55,-135.04 113.5,-121.75 144.05,-90.41 1550.73,-79.17 1806.74,-77.39"/>
<polygon fill="#63b8ff" stroke="#63b8ff" points="1806.57,-80.89 1816.54,-77.32 1806.52,-73.89 1806.57,-80.89"/>
</a>
</g>
</g>
<!-- Node3&#45;&gt;Node7 -->
<g id="edge15_Node000003_Node000007" class="edge">
<title>Node3&#45;&gt;Node7</title>
<g id="a_edge15_Node000003_Node000007"><a xlink:title=" ">
<path fill="none" stroke="#63b8ff" d="M1226.89,-213.77C1386.21,-213.3 1843.66,-208.04 1892.5,-163.5 1927.98,-131.14 1924.66,-68.43 1920.13,-36.29"/>
<polygon fill="#63b8ff" stroke="#63b8ff" points="1923.64,-36.06 1918.59,-26.75 1916.72,-37.18 1923.64,-36.06"/>
</a>
</g>
</g>
<!-- Node3&#45;&gt;Node8 -->
<g id="edge16_Node000003_Node000008" class="edge">
<title>Node3&#45;&gt;Node8</title>
<g id="a_edge16_Node000003_Node000008"><a xlink:title=" ">
<path fill="none" stroke="#63b8ff" d="M1226.96,-213.9C1411.56,-213.99 2005.94,-210.59 2076.5,-163.5 2120.47,-134.15 2138.04,-69.55 2144.35,-36.54"/>
<polygon fill="#63b8ff" stroke="#63b8ff" points="2147.8,-37.16 2146.05,-26.71 2140.9,-35.97 2147.8,-37.16"/>
</a>
</g>
</g>
<!-- Node3&#45;&gt;Node10 -->
<g id="edge19_Node000003_Node000010" class="edge">
<title>Node3&#45;&gt;Node10</title>
<g id="a_edge19_Node000003_Node000010"><a xlink:title=" ">
<path fill="none" stroke="#63b8ff" d="M1117.97,-212.82C903.35,-208.96 126.54,-192.98 83.5,-163.5 40.56,-134.08 25.69,-69.51 20.78,-36.52"/>
<polygon fill="#63b8ff" stroke="#63b8ff" points="24.27,-36.18 19.51,-26.71 17.33,-37.08 24.27,-36.18"/>
</a>
</g>
</g>
<!-- Node3&#45;&gt;Node12 -->
<g id="edge17_Node000003_Node000012" class="edge">
<title>Node3&#45;&gt;Node12</title>
<g id="a_edge17_Node000003_Node000012"><a xlink:title=" ">
<path fill="none" stroke="#63b8ff" d="M1226.96,-212.44C1414.09,-207.71 2021,-190.34 2052.5,-163.5 2071.28,-147.5 2073.97,-117.54 2073.37,-97.46"/>
<polygon fill="#63b8ff" stroke="#63b8ff" points="2076.88,-97.46 2072.75,-87.7 2069.89,-97.9 2076.88,-97.46"/>
</a>
</g>
</g>
<!-- Node13 -->
<g id="Node000013" class="node">
<title>Node13</title>
<g id="a_Node000013"><a xlink:title=" ">
<polygon fill="#e0e0e0" stroke="#999999" points="194.25,-152.25 122.75,-152.25 122.75,-133 194.25,-133 194.25,-152.25"/>
<text text-anchor="middle" x="158.5" y="-138.75" font-family="Helvetica,sans-Serif" font-size="10.00">initializer_list</text>
</a>
</g>
</g>
<!-- Node3&#45;&gt;Node13 -->
<g id="edge18_Node000003_Node000013" class="edge">
<title>Node3&#45;&gt;Node13</title>
<g id="a_edge18_Node000003_Node000013"><a xlink:title=" ">
<path fill="none" stroke="#63b8ff" d="M1117.91,-213.52C940.12,-212.34 379.15,-205.34 203.5,-163.5 197.37,-162.04 191.04,-159.77 185.13,-157.28"/>
<polygon fill="#63b8ff" stroke="#63b8ff" points="187.01,-154.29 176.46,-153.32 184.1,-160.66 187.01,-154.29"/>
</a>
</g>
</g>
<!-- Node14 -->
<g id="Node000014" class="node">
<title>Node14</title>
<g id="a_Node000014"><a xlink:title=" ">
<polygon fill="#e0e0e0" stroke="#999999" points="250.75,-152.25 212.25,-152.25 212.25,-133 250.75,-133 250.75,-152.25"/>
<text text-anchor="middle" x="231.5" y="-138.75" font-family="Helvetica,sans-Serif" font-size="10.00">utility</text>
</a>
</g>
</g>
<!-- Node3&#45;&gt;Node14 -->
<g id="edge20_Node000003_Node000014" class="edge">
<title>Node3&#45;&gt;Node14</title>
<g id="a_edge20_Node000003_Node000014"><a xlink:title=" ">
<path fill="none" stroke="#63b8ff" d="M1117.88,-212.51C933.39,-208.07 340.33,-191.74 259.5,-163.5 256.49,-162.45 253.52,-160.97 250.7,-159.29"/>
<polygon fill="#63b8ff" stroke="#63b8ff" points="252.78,-156.47 242.59,-153.57 248.75,-162.19 252.78,-156.47"/>
</a>
</g>
</g>
<!-- Node15 -->
<g id="Node000015" class="node">
<title>Node15</title>
<g id="a_Node000015"><a xlink:title=" ">
<polygon fill="#e0e0e0" stroke="#999999" points="398.5,-157.88 268.5,-157.88 268.5,-127.38 398.5,-127.38 398.5,-157.88"/>
<text text-anchor="start" x="276.5" y="-144.38" font-family="Helvetica,sans-Serif" font-size="10.00">typed_linear_algebra</text>
<text text-anchor="middle" x="333.5" y="-133.12" font-family="Helvetica,sans-Serif" font-size="10.00">_internal/algorithm/add.tpp</text>
</a>
</g>
</g>
<!-- Node3&#45;&gt;Node15 -->
<g id="edge21_Node000003_Node000015" class="edge">
<title>Node3&#45;&gt;Node15</title>
<g id="a_edge21_Node000003_Node000015"><a xlink:title=" ">
<path fill="none" stroke="#63b8ff" d="M1118.29,-213.84C992.51,-213.24 671.44,-207.18 407.5,-163.5 403.12,-162.78 398.63,-161.9 394.12,-160.93"/>
<polygon fill="#63b8ff" stroke="#63b8ff" points="394.97,-157.53 384.44,-158.69 393.39,-164.35 394.97,-157.53"/>
</a>
</g>
</g>
<!-- Node16 -->
<g id="Node000016" class="node">
<title>Node16</title>
<g id="a_Node000016"><a xlink:title=" ">
<polygon fill="#e0e0e0" stroke="#999999" points="556.38,-157.88 416.62,-157.88 416.62,-127.38 556.38,-127.38 556.38,-157.88"/>
<text text-anchor="start" x="424.62" y="-144.38" font-family="Helvetica,sans-Serif" font-size="10.00">typed_linear_algebra</text>
<text text-anchor="middle" x="486.5" y="-133.12" font-family="Helvetica,sans-Serif" font-size="10.00">_internal/algorithm/divide.tpp</text>
</a>
</g>
</g>
<!-- Node3&#45;&gt;Node16 -->
<g id="edge22_Node000003_Node000016" class="edge">
<title>Node3&#45;&gt;Node16</title>
<g id="a_edge22_Node000003_Node000016"><a xlink:title=" ">
<path fill="none" stroke="#63b8ff" d="M1118.13,-212.23C1011.48,-208.6 767.61,-197.06 565.5,-163.5 560.66,-162.7 555.68,-161.75 550.69,-160.7"/>
<polygon fill="#63b8ff" stroke="#63b8ff" points="551.79,-157.36 541.27,-158.62 550.28,-164.2 551.79,-157.36"/>
</a>
</g>
</g>
<!-- Node17 -->
<g id="Node000017" class="node">
<title>Node17</title>
<g id="a_Node000017"><a xlink:title=" ">
<polygon fill="#e0e0e0" stroke="#999999" points="696.38,-163.5 574.62,-163.5 574.62,-121.75 696.38,-121.75 696.38,-163.5"/>
<text text-anchor="start" x="582.62" y="-150" font-family="Helvetica,sans-Serif" font-size="10.00">typed_linear_algebra</text>
<text text-anchor="start" x="582.62" y="-138.75" font-family="Helvetica,sans-Serif" font-size="10.00">_internal/algorithm/equal</text>
<text text-anchor="middle" x="635.5" y="-127.5" font-family="Helvetica,sans-Serif" font-size="10.00">_to.tpp</text>
</a>
</g>
</g>
<!-- Node3&#45;&gt;Node17 -->
<g id="edge23_Node000003_Node000017" class="edge">
<title>Node3&#45;&gt;Node17</title>
<g id="a_edge23_Node000003_Node000017"><a xlink:title=" ">
<path fill="none" stroke="#63b8ff" d="M1118.12,-210.9C1032.62,-205.75 861.45,-192.82 707.85,-163.79"/>
<polygon fill="#63b8ff" stroke="#63b8ff" points="708.79,-160.41 698.3,-161.96 707.46,-167.28 708.79,-160.41"/>
</a>
</g>
</g>
<!-- Node18 -->
<g id="Node000018" class="node">
<title>Node18</title>
<g id="a_Node000018"><a xlink:title=" ">
<polygon fill="#e0e0e0" stroke="#999999" points="838.88,-163.5 714.12,-163.5 714.12,-121.75 838.88,-121.75 838.88,-163.5"/>
<text text-anchor="start" x="722.12" y="-150" font-family="Helvetica,sans-Serif" font-size="10.00">typed_linear_algebra</text>
<text text-anchor="start" x="722.12" y="-138.75" font-family="Helvetica,sans-Serif" font-size="10.00">_internal/algorithm/matrix</text>
<text text-anchor="middle" x="776.5" y="-127.5" font-family="Helvetica,sans-Serif" font-size="10.00">_product.tpp</text>
</a>
</g>
</g>
<!-- Node3&#45;&gt;Node18 -->
<g id="edge24_Node000003_Node000018" class="edge">
<title>Node3&#45;&gt;Node18</title>
<g id="a_edge24_Node000003_Node000018"><a xlink:title=" ">
<path fill="none" stroke="#63b8ff" d="M1117.97,-207.25C1055.64,-199.38 950.37,-184.78 850.44,-163.79"/>
<polygon fill="#63b8ff" stroke="#63b8ff" points="851.21,-160.37 840.7,-161.71 849.76,-167.22 851.21,-160.37"/>
</a>
</g>
</g>
<!-- Node19 -->
<g id="Node000019" class="node">
<title>Node19</title>
<g id="a_Node000019"><a xlink:title=" ">
<polygon fill="#e0e0e0" stroke="#999999" points="1003.75,-157.88 857.25,-157.88 857.25,-127.38 1003.75,-127.38 1003.75,-157.88"/>
<text text-anchor="start" x="865.25" y="-144.38" font-family="Helvetica,sans-Serif" font-size="10.00">typed_linear_algebra</text>
<text text-anchor="middle" x="930.5" y="-133.12" font-family="Helvetica,sans-Serif" font-size="10.00">_internal/algorithm/product.tpp</text>
</a>
</g>
</g>
<!-- Node3&#45;&gt;Node19 -->
<g id="edge25_Node000003_Node000019" class="edge">
<title>Node3&#45;&gt;Node19</title>
<g id="a_edge25_Node000003_Node000019"><a xlink:title=" ">
<path fill="none" stroke="#63b8ff" d="M1121.77,-199.05C1084.02,-188.11 1032.3,-173.12 992.16,-161.49"/>
<polygon fill="#63b8ff" stroke="#63b8ff" points="993.2,-158.15 982.62,-158.73 991.25,-164.87 993.2,-158.15"/>
</a>
</g>
</g>
<!-- Node20 -->
<g id="Node000020" class="node">
<title>Node20</title>
<g id="a_Node000020"><a xlink:title=" ">
<polygon fill="#e0e0e0" stroke="#999999" points="1159.25,-157.88 1021.75,-157.88 1021.75,-127.38 1159.25,-127.38 1159.25,-157.88"/>
<text text-anchor="start" x="1029.75" y="-144.38" font-family="Helvetica,sans-Serif" font-size="10.00">typed_linear_algebra</text>
<text text-anchor="middle" x="1090.5" y="-133.12" font-family="Helvetica,sans-Serif" font-size="10.00">_internal/algorithm/scale.tpp</text>
</a>
</g>
</g>
<!-- Node3&#45;&gt;Node20 -->
<g id="edge26_Node000003_Node000020" class="edge">
<title>Node3&#45;&gt;Node20</title>
<g id="a_edge26_Node000003_Node000020"><a xlink:title=" ">
<path fill="none" stroke="#63b8ff" d="M1155.51,-199.22C1144.08,-189.44 1128.79,-176.37 1115.92,-165.36"/>
<polygon fill="#63b8ff" stroke="#63b8ff" points="1118.49,-162.96 1108.62,-159.12 1113.94,-168.28 1118.49,-162.96"/>
</a>
</g>
</g>
<!-- Node21 -->
<g id="Node000021" class="node">
<title>Node21</title>
<g id="a_Node000021"><a xlink:title=" ">
<polygon fill="#e0e0e0" stroke="#999999" points="1331.88,-157.88 1177.12,-157.88 1177.12,-127.38 1331.88,-127.38 1331.88,-157.88"/>
<text text-anchor="start" x="1185.12" y="-144.38" font-family="Helvetica,sans-Serif" font-size="10.00">typed_linear_algebra</text>
<text text-anchor="middle" x="1254.5" y="-133.12" font-family="Helvetica,sans-Serif" font-size="10.00">_internal/algorithm/substract.tpp</text>
</a>
</g>
</g>
<!-- Node3&#45;&gt;Node21 -->
<g id="edge27_Node000003_Node000021" class="edge">
<title>Node3&#45;&gt;Node21</title>
<g id="a_edge27_Node000003_Node000021"><a xlink:title=" ">
<path fill="none" stroke="#63b8ff" d="M1189.49,-199.22C1200.92,-189.44 1216.21,-176.37 1229.08,-165.36"/>
<polygon fill="#63b8ff" stroke="#63b8ff" points="1231.06,-168.28 1236.38,-159.12 1226.51,-162.96 1231.06,-168.28"/>
</a>
</g>
</g>
<!-- Node22 -->
<g id="Node000022" class="node">
<title>Node22</title>
<g id="a_Node000022"><a xlink:title=" ">
<polygon fill="#e0e0e0" stroke="#999999" points="1512.62,-157.88 1350.38,-157.88 1350.38,-127.38 1512.62,-127.38 1512.62,-157.88"/>
<text text-anchor="start" x="1358.38" y="-144.38" font-family="Helvetica,sans-Serif" font-size="10.00">typed_linear_algebra</text>
<text text-anchor="middle" x="1431.5" y="-133.12" font-family="Helvetica,sans-Serif" font-size="10.00">_internal/algorithm/transposed.tpp</text>
</a>
</g>
</g>
<!-- Node3&#45;&gt;Node22 -->
<g id="edge28_Node000003_Node000022" class="edge">
<title>Node3&#45;&gt;Node22</title>
<g id="a_edge28_Node000003_Node000022"><a xlink:title=" ">
<path fill="none" stroke="#63b8ff" d="M1226.79,-199.05C1267.46,-188.04 1323.26,-172.93 1366.34,-161.27"/>
<polygon fill="#63b8ff" stroke="#63b8ff" points="1367.08,-164.69 1375.82,-158.7 1365.25,-157.94 1367.08,-164.69"/>
</a>
</g>
</g>
<!-- Node23 -->
<g id="Node000023" class="node">
<title>Node23</title>
<g id="a_Node000023"><a xlink:title=" ">
<polygon fill="#e0e0e0" stroke="#999999" points="1634.75,-157.88 1530.25,-157.88 1530.25,-127.38 1634.75,-127.38 1634.75,-157.88"/>
<text text-anchor="start" x="1538.25" y="-144.38" font-family="Helvetica,sans-Serif" font-size="10.00">typed_linear_algebra</text>
<text text-anchor="middle" x="1582.5" y="-133.12" font-family="Helvetica,sans-Serif" font-size="10.00">_internal/cast.tpp</text>
</a>
</g>
</g>
<!-- Node3&#45;&gt;Node23 -->
<g id="edge29_Node000003_Node000023" class="edge">
<title>Node3&#45;&gt;Node23</title>
<g id="a_edge29_Node000003_Node000023"><a xlink:title=" ">
<path fill="none" stroke="#63b8ff" d="M1226.84,-208.85C1295.95,-201.95 1418.66,-187.47 1521.5,-163.5 1524.11,-162.89 1526.77,-162.22 1529.44,-161.51"/>
<polygon fill="#63b8ff" stroke="#63b8ff" points="1530.32,-164.9 1538.98,-158.79 1528.4,-158.17 1530.32,-164.9"/>
</a>
</g>
</g>
<!-- Node24 -->
<g id="Node000024" class="node">
<title>Node24</title>
<g id="a_Node000024"><a xlink:title=" ">
<polygon fill="#e0e0e0" stroke="#999999" points="1757.75,-157.88 1653.25,-157.88 1653.25,-127.38 1757.75,-127.38 1757.75,-157.88"/>
<text text-anchor="start" x="1661.25" y="-144.38" font-family="Helvetica,sans-Serif" font-size="10.00">typed_linear_algebra</text>
<text text-anchor="middle" x="1705.5" y="-133.12" font-family="Helvetica,sans-Serif" font-size="10.00">_internal/tuple.tpp</text>
</a>
</g>
</g>
<!-- Node3&#45;&gt;Node24 -->
<g id="edge30_Node000003_Node000024" class="edge">
<title>Node3&#45;&gt;Node24</title>
<g id="a_edge30_Node000003_Node000024"><a xlink:title=" ">
<path fill="none" stroke="#63b8ff" d="M1227.1,-211.54C1315.45,-207.16 1494.85,-194.91 1643.5,-163.5 1646.46,-162.88 1649.47,-162.16 1652.5,-161.39"/>
<polygon fill="#63b8ff" stroke="#63b8ff" points="1653.29,-164.81 1661.99,-158.77 1651.42,-158.06 1653.29,-164.81"/>
</a>
</g>
</g>
<!-- Node25 -->
<g id="Node000025" class="node">
<title>Node25</title>
<g id="a_Node000025"><a xlink:title=" ">
<polygon fill="#e0e0e0" stroke="#999999" points="1883.25,-163.5 1775.75,-163.5 1775.75,-121.75 1883.25,-121.75 1883.25,-163.5"/>
<text text-anchor="start" x="1783.75" y="-150" font-family="Helvetica,sans-Serif" font-size="10.00">typed_linear_algebra</text>
<text text-anchor="start" x="1783.75" y="-138.75" font-family="Helvetica,sans-Serif" font-size="10.00">_internal/typed_linear</text>
<text text-anchor="middle" x="1829.5" y="-127.5" font-family="Helvetica,sans-Serif" font-size="10.00">_algebra.tpp</text>
</a>
</g>
</g>
<!-- Node3&#45;&gt;Node25 -->
<g id="edge31_Node000003_Node000025" class="edge">
<title>Node3&#45;&gt;Node25</title>
<g id="a_edge31_Node000003_Node000025"><a xlink:title=" ">
<path fill="none" stroke="#63b8ff" d="M1227.11,-213.15C1330.54,-211.15 1561.98,-202.52 1764.27,-163.7"/>
<polygon fill="#63b8ff" stroke="#63b8ff" points="1764.77,-167.17 1773.92,-161.82 1763.43,-160.3 1764.77,-167.17"/>
</a>
</g>
</g>
<!-- Node5&#45;&gt;Node6 -->
<g id="edge5_Node000005_Node000006" class="edge">
<title>Node5&#45;&gt;Node6</title>
<g id="a_edge5_Node000005_Node000006"><a xlink:title=" ">
<path fill="none" stroke="#63b8ff" d="M1958.6,-126.99C1934.11,-116.09 1900.92,-101.33 1877.02,-90.7"/>
<polygon fill="#63b8ff" stroke="#63b8ff" points="1878.7,-87.62 1868.14,-86.75 1875.85,-94.01 1878.7,-87.62"/>
</a>
</g>
</g>
<!-- Node5&#45;&gt;Node8 -->
<g id="edge12_Node000005_Node000008" class="edge">
<title>Node5&#45;&gt;Node8</title>
<g id="a_edge12_Node000005_Node000008"><a xlink:title=" ">
<path fill="none" stroke="#63b8ff" d="M1998.04,-126.89C2006.01,-110.34 2020.88,-83.57 2040.5,-66.5 2061.43,-48.29 2090.09,-35.3 2112.48,-27.1"/>
<polygon fill="#63b8ff" stroke="#63b8ff" points="2113.5,-30.45 2121.79,-23.85 2111.2,-23.84 2113.5,-30.45"/>
</a>
</g>
</g>
<!-- Node5&#45;&gt;Node12 -->
<g id="edge13_Node000005_Node000012" class="edge">
<title>Node5&#45;&gt;Node12</title>
<g id="a_edge13_Node000005_Node000012"><a xlink:title=" ">
<path fill="none" stroke="#63b8ff" d="M2009.65,-126.99C2022.27,-116.82 2039.06,-103.28 2051.96,-92.88"/>
<polygon fill="#63b8ff" stroke="#63b8ff" points="2053.79,-95.9 2059.38,-86.9 2049.4,-90.45 2053.79,-95.9"/>
</a>
</g>
</g>
<!-- Node6&#45;&gt;Node4 -->
<g id="edge6_Node000006_Node000004" class="edge">
<title>Node6&#45;&gt;Node4</title>
<g id="a_edge6_Node000006_Node000004"><a xlink:title=" ">
<path fill="none" stroke="#63b8ff" d="M1817.83,-73.3C1689.9,-65.15 1169.39,-31.98 986.45,-20.32"/>
<polygon fill="#63b8ff" stroke="#63b8ff" points="986.87,-16.84 976.67,-19.7 986.42,-23.83 986.87,-16.84"/>
</a>
</g>
</g>
<!-- Node6&#45;&gt;Node7 -->
<g id="edge7_Node000006_Node000007" class="edge">
<title>Node6&#45;&gt;Node7</title>
<g id="a_edge7_Node000006_Node000007"><a xlink:title=" ">
<path fill="none" stroke="#63b8ff" d="M1857.13,-66.18C1867.72,-57.28 1884.21,-43.41 1897.13,-32.54"/>
<polygon fill="#63b8ff" stroke="#63b8ff" points="1899.21,-35.37 1904.61,-26.25 1894.7,-30.01 1899.21,-35.37"/>
</a>
</g>
</g>
<!-- Node6&#45;&gt;Node8 -->
<g id="edge8_Node000006_Node000008" class="edge">
<title>Node6&#45;&gt;Node8</title>
<g id="a_edge8_Node000006_Node000008"><a xlink:title=" ">
<path fill="none" stroke="#63b8ff" d="M1875.2,-69.62C1918.73,-61.25 2004.07,-44.79 2076.5,-30.5 2088.03,-28.22 2100.62,-25.71 2111.94,-23.43"/>
<polygon fill="#63b8ff" stroke="#63b8ff" points="2112.59,-26.87 2121.71,-21.47 2111.21,-20.01 2112.59,-26.87"/>
</a>
</g>
</g>
<!-- Node9 -->
<g id="Node000009" class="node">
<title>Node9</title>
<g id="a_Node000009"><a xlink:title=" ">
<polygon fill="#e0e0e0" stroke="#999999" points="1870.5,-24.88 1812.5,-24.88 1812.5,-5.63 1870.5,-5.63 1870.5,-24.88"/>
<text text-anchor="middle" x="1841.5" y="-11.38" font-family="Helvetica,sans-Serif" font-size="10.00">functional</text>
</a>
</g>
</g>
<!-- Node6&#45;&gt;Node9 -->
<g id="edge9_Node000006_Node000009" class="edge">
<title>Node6&#45;&gt;Node9</title>
<g id="a_edge9_Node000006_Node000009"><a xlink:title=" ">
<path fill="none" stroke="#63b8ff" d="M1845.74,-66.18C1845.07,-58.32 1844.08,-46.57 1843.22,-36.45"/>
<polygon fill="#63b8ff" stroke="#63b8ff" points="1846.73,-36.45 1842.39,-26.78 1839.75,-37.04 1846.73,-36.45"/>
</a>
</g>
</g>
<!-- Node6&#45;&gt;Node10 -->
<g id="edge10_Node000006_Node000010" class="edge">
<title>Node6&#45;&gt;Node10</title>
<g id="a_edge10_Node000006_Node000010"><a xlink:title=" ">
<path fill="none" stroke="#63b8ff" d="M1817.79,-74.2C1604.36,-67.33 267.26,-24.26 48.7,-17.22"/>
<polygon fill="#63b8ff" stroke="#63b8ff" points="48.87,-13.73 38.76,-16.9 48.64,-20.72 48.87,-13.73"/>
</a>
</g>
</g>
<!-- Node6&#45;&gt;Node11 -->
<g id="edge11_Node000006_Node000011" class="edge">
<title>Node6&#45;&gt;Node11</title>
<g id="a_edge11_Node000006_Node000011"><a xlink:title=" ">
<path fill="none" stroke="#63b8ff" d="M1874.94,-66.31C1907.22,-56.31 1960.09,-39.93 1996.5,-28.64"/>
<polygon fill="#63b8ff" stroke="#63b8ff" points="1997.27,-32.07 2005.79,-25.77 1995.2,-25.38 1997.27,-32.07"/>
</a>
</g>
</g>
</g>
</svg>

<g id="navigator" transform="translate(0 0)" fill="#404254">
  <rect fill="#f2f5e9" fill-opacity="0.5" stroke="#606060" stroke-width=".5" x="0" y="0" width="60" height="60"/>
  <use id="zoomplus" xlink:href="#zoomPlus" x="17" y="9" onmousedown="handleZoom(evt,'in')"/>
  <use id="zoomminus" xlink:href="#zoomMin" x="42" y="9" onmousedown="handleZoom(evt,'out')"/>
  <use id="reset" xlink:href="#resetDef" x="30" y="36" onmousedown="handleReset()"/>
   <use id="arrowup" xlink:href="#arrowUp" x="0" y="0" onmousedown="handlePan(0,-1)"/>
  <use id="arrowright" xlink:href="#arrowRight" x="0" y="0" onmousedown="handlePan(1,0)"/>
  <use id="arrowdown" xlink:href="#arrowDown" x="0" y="0" onmousedown="handlePan(0,1)"/>
  <use id="arrowleft" xlink:href="#arrowLeft" x="0" y="0" onmousedown="handlePan(-1,0)"/>
</g>
<svg viewBox="0 0 15 15" width="100%" height="30px" preserveAspectRatio="xMaxYMin meet">
 <g id="arrow_out" transform="scale(0.3 0.3)">
  <a xlink:href="nested__typed__eigen_2fcarouge_2linalg_8hpp__incl_org.svg" target="_base">
   <rect id="button" ry="5" rx="5" y="6" x="6" height="38" width="38"
        fill="#f2f5e9" fill-opacity="0.5" stroke="#606060" stroke-width="1.0"/>
   <path id="arrow"
     d="M 11.500037,31.436501 C 11.940474,20.09759 22.043105,11.32322 32.158766,21.979434 L 37.068811,17.246167 C 37.068811,17.246167 37.088388,32 37.088388,32 L 22.160133,31.978069 C 22.160133,31.978069 26.997745,27.140456 26.997745,27.140456 C 18.528582,18.264221 13.291696,25.230495 11.500037,31.436501 z"
     style="fill:#404040;"/>
  </a>
 </g>
</svg>

<style type='text/css'>
<![CDATA[
[data-mouse-over-selected='false'] { opacity: 0.7; }
[data-mouse-over-selected='true']  { opacity: 1.0; }
]]>
</style>
<script type="application/ecmascript"><![CDATA[
document.addEventListener('DOMContentLoaded', (event) => {
  highlightEdges();
  highlightAdjacentNodes();
});
]]></script>
</svg>
