<?xml version="1.0" encoding="UTF-8" standalone="no"?>
<!DOCTYPE svg PUBLIC "-//W3C//DTD SVG 1.1//EN"
 "http://www.w3.org/Graphics/SVG/1.1/DTD/svg11.dtd">
<!-- Generated by graphviz version 12.2.0 (20241103.1931)
 -->
<!-- Title: /github/workspace/support/nested_typed_eigen/fcarouge/linalg.hpp Pages: 1 -->
<!--zoomable 360 -->

<svg id="main" version="1.1" xmlns="http://www.w3.org/2000/svg" xmlns:xlink="http://www.w3.org/1999/xlink" xml:space="preserve" onload="init(evt)">

<style type="text/css"><![CDATA[
.node, .edge {opacity: 0.7;}
.node.selected, .edge.selected {opacity: 1;}
.edge:hover path { stroke: red; }
.edge:hover polygon { stroke: red; fill: red; }
]]></style>

<defs>
  <circle id="rim" cx="0" cy="0" r="7"/>
  <circle id="rim2" cx="0" cy="0" r="3.5"/>
  <g id="zoomPlus">
    <use xlink:href="#rim" fill="#404040"><set attributeName="fill" to="#808080" begin="zoomplus.mouseover" end="zoomplus.mouseout"/></use>
    <path d="M-4,0h8M0,-4v8" fill="none" stroke="white" stroke-width="1.5" pointer-events="none"/>
  </g>
  <g id="zoomMin">
    <use xlink:href="#rim" fill="#404040"><set attributeName="fill" to="#808080" begin="zoomminus.mouseover" end="zoomminus.mouseout"/></use>
    <path d="M-4,0h8" fill="none" stroke="white" stroke-width="1.5" pointer-events="none"/>
  </g>
  <g id="arrowUp" transform="translate(30 24)">
    <use xlink:href="#rim"/>
    <path pointer-events="none" fill="none" stroke="white" stroke-width="1.5" d="M0,-3.0v7 M-2.5,-0.5L0,-3.0L2.5,-0.5"/>
  </g>
  <g id="arrowRight" transform="rotate(90) translate(36 -43)">
    <use xlink:href="#rim"/>
    <path pointer-events="none" fill="none" stroke="white" stroke-width="1.5" d="M0,-3.0v7 M-2.5,-0.5L0,-3.0L2.5,-0.5"/>
  </g>
  <g id="arrowDown" transform="rotate(180) translate(-30 -48)">
    <use xlink:href="#rim"/>
    <path pointer-events="none" fill="none" stroke="white" stroke-width="1.5" d="M0,-3.0v7 M-2.5,-0.5L0,-3.0L2.5,-0.5"/>
  </g>
  <g id="arrowLeft" transform="rotate(270) translate(-36 17)">
    <use xlink:href="#rim"/>
    <path pointer-events="none" fill="none" stroke="white" stroke-width="1.5" d="M0,-3.0v7 M-2.5,-0.5L0,-3.0L2.5,-0.5"/>
  </g>
  <g id="resetDef">
    <use xlink:href="#rim2" fill="#404040"><set attributeName="fill" to="#808080" begin="reset.mouseover" end="reset.mouseout"/></use>
  </g>
</defs>
<script type="application/ecmascript">
var viewWidth = 2529;
var viewHeight = 360;
var sectionId = 'dynsection-0';
</script>
<script type="application/ecmascript" xlink:href="svg.min.js"/>
<svg id="graph" class="graph">
<g id="viewport">
<title>/github/workspace/support/nested_typed_eigen/fcarouge/linalg.hpp</title>
<!-- Node1 -->
<g id="Node000001" class="node">
<title>Node1</title>
<g id="a_Node000001"><a xlink:title="Scalar type nested linear algebra with Eigen implementation.">
<polygon fill="#999999" stroke="#666666" points="1376.49,-351.75 1230.74,-351.75 1230.74,-310 1376.49,-310 1376.49,-351.75"/>
<text text-anchor="start" x="1238.74" y="-338.25" font-family="Helvetica,sans-Serif" font-size="10.00">/github/workspace/support</text>
<text text-anchor="start" x="1238.74" y="-327" font-family="Helvetica,sans-Serif" font-size="10.00">/nested_typed_eigen/fcarouge</text>
<text text-anchor="middle" x="1303.62" y="-315.75" font-family="Helvetica,sans-Serif" font-size="10.00">/linalg.hpp</text>
</a>
</g>
</g>
<!-- Node2 -->
<g id="Node000002" class="node">
<title>Node2</title>
<g id="a_Node000002"><a xlink:href="eigen_8hpp.xhtml" target="_top" xlink:title="Linear algebra facade for Eigen3 third party implementation.">
<polygon fill="white" stroke="#666666" points="280.49,-274 182.74,-274 182.74,-254.75 280.49,-254.75 280.49,-274"/>
<text text-anchor="middle" x="231.62" y="-260.5" font-family="Helvetica,sans-Serif" font-size="10.00">fcarouge/eigen.hpp</text>
</a>
</g>
</g>
<!-- Node1&#45;&gt;Node2 -->
<g id="edge1_Node000001_Node000002" class="edge">
<title>Node1&#45;&gt;Node2</title>
<g id="a_edge1_Node000001_Node000002"><a xlink:title=" ">
<path fill="none" stroke="#63b8ff" d="M1230.36,-325.47C1030.09,-313.42 476.21,-280.09 292.04,-269.01"/>
<polygon fill="#63b8ff" stroke="#63b8ff" points="292.42,-265.53 282.22,-268.42 292,-272.51 292.42,-265.53"/>
</a>
</g>
</g>
<!-- Node3 -->
<g id="Node000003" class="node">
<title>Node3</title>
<g id="a_Node000003"><a xlink:href="typed__linear__algebra_8hpp.xhtml" target="_top" xlink:title="Typed linear algebra implementation.">
<polygon fill="white" stroke="#666666" points="1357.74,-218.75 1249.49,-218.75 1249.49,-188.25 1357.74,-188.25 1357.74,-218.75"/>
<text text-anchor="start" x="1257.49" y="-205.25" font-family="Helvetica,sans-Serif" font-size="10.00">fcarouge/typed_linear</text>
<text text-anchor="middle" x="1303.62" y="-194" font-family="Helvetica,sans-Serif" font-size="10.00">_algebra.hpp</text>
</a>
</g>
</g>
<!-- Node1&#45;&gt;Node3 -->
<g id="edge38_Node000001_Node000003" class="edge">
<title>Node1&#45;&gt;Node3</title>
<g id="a_edge38_Node000001_Node000003"><a xlink:title=" ">
<path fill="none" stroke="#63b8ff" d="M1303.62,-309.73C1303.62,-288.16 1303.62,-253.85 1303.62,-230.31"/>
<polygon fill="#63b8ff" stroke="#63b8ff" points="1307.12,-230.62 1303.62,-220.62 1300.12,-230.62 1307.12,-230.62"/>
</a>
</g>
</g>
<!-- Node8 -->
<g id="Node000008" class="node">
<title>Node8</title>
<g id="a_Node000008"><a xlink:title=" ">
<polygon fill="#e0e0e0" stroke="#999999" points="449.74,-19.25 401.49,-19.25 401.49,0 449.74,0 449.74,-19.25"/>
<text text-anchor="middle" x="425.62" y="-5.75" font-family="Helvetica,sans-Serif" font-size="10.00">cstddef</text>
</a>
</g>
</g>
<!-- Node1&#45;&gt;Node8 -->
<g id="edge39_Node000001_Node000008" class="edge">
<title>Node1&#45;&gt;Node8</title>
<g id="a_edge39_Node000001_Node000008"><a xlink:title=" ">
<path fill="none" stroke="#63b8ff" d="M1376.55,-330.06C1639.11,-329.77 2520.62,-320.19 2520.62,-204.5 2520.62,-204.5 2520.62,-204.5 2520.62,-130.38 2520.62,-22.85 738.44,-11.8 461.57,-10.73"/>
<polygon fill="#63b8ff" stroke="#63b8ff" points="461.76,-7.23 451.75,-10.7 461.74,-14.23 461.76,-7.23"/>
</a>
</g>
</g>
<!-- Node2&#45;&gt;Node3 -->
<g id="edge2_Node000002_Node000003" class="edge">
<title>Node2&#45;&gt;Node3</title>
<g id="a_edge2_Node000002_Node000003"><a xlink:title=" ">
<path fill="none" stroke="#63b8ff" d="M280.82,-260.67C454.67,-251.12 1040.21,-218.97 1237.84,-208.11"/>
<polygon fill="#63b8ff" stroke="#63b8ff" points="1237.88,-211.62 1247.67,-207.57 1237.49,-204.63 1237.88,-211.62"/>
</a>
</g>
</g>
<!-- Node7 -->
<g id="Node000007" class="node">
<title>Node7</title>
<g id="a_Node000007"><a xlink:title=" ">
<polygon fill="#e0e0e0" stroke="#999999" points="232.49,-19.25 176.74,-19.25 176.74,0 232.49,0 232.49,-19.25"/>
<text text-anchor="middle" x="204.62" y="-5.75" font-family="Helvetica,sans-Serif" font-size="10.00">concepts</text>
</a>
</g>
</g>
<!-- Node2&#45;&gt;Node7 -->
<g id="edge31_Node000002_Node000007" class="edge">
<title>Node2&#45;&gt;Node7</title>
<g id="a_edge31_Node000002_Node000007"><a xlink:title=" ">
<path fill="none" stroke="#63b8ff" d="M193.55,-254.41C174.77,-247.85 153.78,-236.84 142.62,-218.75 103.53,-155.43 161.56,-66.04 190.2,-28.41"/>
<polygon fill="#63b8ff" stroke="#63b8ff" points="192.74,-30.85 196.15,-20.81 187.23,-26.53 192.74,-30.85"/>
</a>
</g>
</g>
<!-- Node2&#45;&gt;Node8 -->
<g id="edge32_Node000002_Node000008" class="edge">
<title>Node2&#45;&gt;Node8</title>
<g id="a_edge32_Node000002_Node000008"><a xlink:title=" ">
<path fill="none" stroke="#63b8ff" d="M238.52,-254.38C266.75,-217.6 373.68,-78.29 411.92,-28.47"/>
<polygon fill="#63b8ff" stroke="#63b8ff" points="414.56,-30.78 417.87,-20.71 409.01,-26.51 414.56,-30.78"/>
</a>
</g>
</g>
<!-- Node10 -->
<g id="Node000010" class="node">
<title>Node10</title>
<g id="a_Node000010"><a xlink:title=" ">
<polygon fill="#e0e0e0" stroke="#999999" points="364.12,-19.25 327.12,-19.25 327.12,0 364.12,0 364.12,-19.25"/>
<text text-anchor="middle" x="345.62" y="-5.75" font-family="Helvetica,sans-Serif" font-size="10.00">tuple</text>
</a>
</g>
</g>
<!-- Node2&#45;&gt;Node10 -->
<g id="edge35_Node000002_Node000010" class="edge">
<title>Node2&#45;&gt;Node10</title>
<g id="a_edge35_Node000002_Node000010"><a xlink:title=" ">
<path fill="none" stroke="#63b8ff" d="M229.69,-254.42C223.58,-223.48 207.55,-119.46 252.62,-55.25 260.47,-44.06 292.01,-30.35 316.21,-21.11"/>
<polygon fill="#63b8ff" stroke="#63b8ff" points="317.13,-24.5 325.28,-17.72 314.69,-17.94 317.13,-24.5"/>
</a>
</g>
</g>
<!-- Node11 -->
<g id="Node000011" class="node">
<title>Node11</title>
<g id="a_Node000011"><a xlink:title=" ">
<polygon fill="#e0e0e0" stroke="#999999" points="95.12,-19.25 34.12,-19.25 34.12,0 95.12,0 95.12,-19.25"/>
<text text-anchor="middle" x="64.62" y="-5.75" font-family="Helvetica,sans-Serif" font-size="10.00">type_traits</text>
</a>
</g>
</g>
<!-- Node2&#45;&gt;Node11 -->
<g id="edge36_Node000002_Node000011" class="edge">
<title>Node2&#45;&gt;Node11</title>
<g id="a_edge36_Node000002_Node000011"><a xlink:title=" ">
<path fill="none" stroke="#63b8ff" d="M182.51,-260.09C126.15,-255.18 38.86,-243.68 18.62,-218.75 -27.54,-161.92 25.13,-68.61 51.43,-29.16"/>
<polygon fill="#63b8ff" stroke="#63b8ff" points="54.27,-31.21 57.05,-20.98 48.5,-27.24 54.27,-31.21"/>
</a>
</g>
</g>
<!-- Node12 -->
<g id="Node000012" class="node">
<title>Node12</title>
<g id="a_Node000012"><a xlink:title=" ">
<polygon fill="#e0e0e0" stroke="#999999" points="1823.49,-74.5 1779.74,-74.5 1779.74,-55.25 1823.49,-55.25 1823.49,-74.5"/>
<text text-anchor="middle" x="1801.62" y="-61" font-family="Helvetica,sans-Serif" font-size="10.00">format</text>
</a>
</g>
</g>
<!-- Node2&#45;&gt;Node12 -->
<g id="edge33_Node000002_Node000012" class="edge">
<title>Node2&#45;&gt;Node12</title>
<g id="a_edge33_Node000002_Node000012"><a xlink:title=" ">
<path fill="none" stroke="#63b8ff" d="M280.81,-262.83C601.7,-259.08 2386.19,-234.51 2463.62,-152.25 2476.33,-138.74 2476.29,-124.05 2463.62,-110.5 2420.42,-64.29 1963.94,-64.53 1835.23,-65.52"/>
<polygon fill="#63b8ff" stroke="#63b8ff" points="1835.31,-62.02 1825.34,-65.61 1835.37,-69.02 1835.31,-62.02"/>
</a>
</g>
</g>
<!-- Node26 -->
<g id="Node000026" class="node">
<title>Node26</title>
<g id="a_Node000026"><a xlink:title=" ">
<polygon fill="#e0e0e0" stroke="#999999" points="203.24,-213.12 151.99,-213.12 151.99,-193.88 203.24,-193.88 203.24,-213.12"/>
<text text-anchor="middle" x="177.62" y="-199.62" font-family="Helvetica,sans-Serif" font-size="10.00">sstream</text>
</a>
</g>
</g>
<!-- Node2&#45;&gt;Node26 -->
<g id="edge34_Node000002_Node000026" class="edge">
<title>Node2&#45;&gt;Node26</title>
<g id="a_edge34_Node000002_Node000026"><a xlink:title=" ">
<path fill="none" stroke="#63b8ff" d="M223.42,-254.43C215.49,-245.79 203.26,-232.46 193.44,-221.75"/>
<polygon fill="#63b8ff" stroke="#63b8ff" points="196.26,-219.65 186.92,-214.64 191.1,-224.38 196.26,-219.65"/>
</a>
</g>
</g>
<!-- Node27 -->
<g id="Node000027" class="node">
<title>Node27</title>
<g id="a_Node000027"><a xlink:title=" ">
<polygon fill="#e0e0e0" stroke="#999999" points="95.12,-213.12 28.12,-213.12 28.12,-193.88 95.12,-193.88 95.12,-213.12"/>
<text text-anchor="middle" x="61.62" y="-199.62" font-family="Helvetica,sans-Serif" font-size="10.00">Eigen/Eigen</text>
</a>
</g>
</g>
<!-- Node2&#45;&gt;Node27 -->
<g id="edge37_Node000002_Node000027" class="edge">
<title>Node2&#45;&gt;Node27</title>
<g id="a_edge37_Node000002_Node000027"><a xlink:title=" ">
<path fill="none" stroke="#63b8ff" d="M205.43,-254.3C176.85,-244.41 130.88,-228.49 98.62,-217.32"/>
<polygon fill="#63b8ff" stroke="#63b8ff" points="99.86,-214.04 89.27,-214.08 97.57,-220.66 99.86,-214.04"/>
</a>
</g>
</g>
<!-- Node4 -->
<g id="Node000004" class="node">
<title>Node4</title>
<g id="a_Node000004"><a xlink:href="typed__linear__algebra__forward_8hpp.xhtml" target="_top" xlink:title="Authoritative forward declaration header.">
<polygon fill="white" stroke="#666666" points="1479.87,-146.62 1375.37,-146.62 1375.37,-116.12 1479.87,-116.12 1479.87,-146.62"/>
<text text-anchor="start" x="1383.37" y="-133.12" font-family="Helvetica,sans-Serif" font-size="10.00">typed_linear_algebra</text>
<text text-anchor="middle" x="1427.62" y="-121.88" font-family="Helvetica,sans-Serif" font-size="10.00">_forward.hpp</text>
</a>
</g>
</g>
<!-- Node3&#45;&gt;Node4 -->
<g id="edge3_Node000003_Node000004" class="edge">
<title>Node3&#45;&gt;Node4</title>
<g id="a_edge3_Node000003_Node000004"><a xlink:title=" ">
<path fill="none" stroke="#63b8ff" d="M1329.61,-187.8C1347.63,-177.61 1371.87,-163.9 1391.73,-152.67"/>
<polygon fill="#63b8ff" stroke="#63b8ff" points="1393.36,-155.77 1400.34,-147.8 1389.91,-149.68 1393.36,-155.77"/>
</a>
</g>
</g>
<!-- Node5 -->
<g id="Node000005" class="node">
<title>Node5</title>
<g id="a_Node000005"><a xlink:href="format_8hpp.xhtml" target="_top" xlink:title="Formatting support for the typed matrix.">
<polygon fill="white" stroke="#666666" points="477.87,-146.62 373.37,-146.62 373.37,-116.12 477.87,-116.12 477.87,-146.62"/>
<text text-anchor="start" x="381.37" y="-133.12" font-family="Helvetica,sans-Serif" font-size="10.00">typed_linear_algebra</text>
<text text-anchor="middle" x="425.62" y="-121.88" font-family="Helvetica,sans-Serif" font-size="10.00">_internal/format.hpp</text>
</a>
</g>
</g>
<!-- Node3&#45;&gt;Node5 -->
<g id="edge4_Node000003_Node000005" class="edge">
<title>Node3&#45;&gt;Node5</title>
<g id="a_edge4_Node000003_Node000005"><a xlink:title=" ">
<path fill="none" stroke="#63b8ff" d="M1249.01,-200.95C1090.69,-196.15 633.46,-180.22 486.62,-152.25 483.44,-151.64 480.19,-150.92 476.94,-150.11"/>
<polygon fill="#63b8ff" stroke="#63b8ff" points="477.96,-146.76 467.39,-147.49 476.11,-153.51 477.96,-146.76"/>
</a>
</g>
</g>
<!-- Node6 -->
<g id="Node000006" class="node">
<title>Node6</title>
<g id="a_Node000006"><a xlink:href="utility_8hpp.xhtml" target="_top" xlink:title=" ">
<polygon fill="white" stroke="#666666" points="317.87,-74.5 261.37,-74.5 261.37,-55.25 317.87,-55.25 317.87,-74.5"/>
<text text-anchor="middle" x="289.62" y="-61" font-family="Helvetica,sans-Serif" font-size="10.00">utility.hpp</text>
</a>
</g>
</g>
<!-- Node3&#45;&gt;Node6 -->
<g id="edge13_Node000003_Node000006" class="edge">
<title>Node3&#45;&gt;Node6</title>
<g id="a_edge13_Node000003_Node000006"><a xlink:title=" ">
<path fill="none" stroke="#63b8ff" d="M1249.14,-202.88C1055.54,-203.78 408.18,-202.95 331.62,-152.25 309.05,-137.31 298.22,-106.59 293.31,-86.11"/>
<polygon fill="#63b8ff" stroke="#63b8ff" points="296.75,-85.46 291.28,-76.39 289.9,-86.9 296.75,-85.46"/>
</a>
</g>
</g>
<!-- Node3&#45;&gt;Node7 -->
<g id="edge14_Node000003_Node000007" class="edge">
<title>Node3&#45;&gt;Node7</title>
<g id="a_edge14_Node000003_Node000007"><a xlink:title=" ">
<path fill="none" stroke="#63b8ff" d="M1249.17,-202.64C1051.68,-202.74 380.33,-199.59 297.62,-152.25 250.08,-125.04 222.49,-62.48 210.98,-30.4"/>
<polygon fill="#63b8ff" stroke="#63b8ff" points="214.38,-29.5 207.84,-21.16 207.75,-31.75 214.38,-29.5"/>
</a>
</g>
</g>
<!-- Node3&#45;&gt;Node8 -->
<g id="edge15_Node000003_Node000008" class="edge">
<title>Node3&#45;&gt;Node8</title>
<g id="a_edge15_Node000003_Node000008"><a xlink:title=" ">
<path fill="none" stroke="#63b8ff" d="M1357.94,-201.17C1536.05,-196.56 2092.53,-179.99 2118.62,-152.25 2131.33,-138.73 2130.43,-124.81 2118.62,-110.5 2036.21,-10.65 1961.28,-69.63 1832.62,-55.25 1555.15,-24.25 652.25,-13.04 461.29,-10.99"/>
<polygon fill="#63b8ff" stroke="#63b8ff" points="461.55,-7.49 451.52,-10.88 461.48,-14.49 461.55,-7.49"/>
</a>
</g>
</g>
<!-- Node3&#45;&gt;Node10 -->
<g id="edge18_Node000003_Node000010" class="edge">
<title>Node3&#45;&gt;Node10</title>
<g id="a_edge18_Node000003_Node000010"><a xlink:title=" ">
<path fill="none" stroke="#63b8ff" d="M1249.18,-201.49C1053.74,-197.61 397.27,-182.39 364.62,-152.25 331.13,-121.34 335.92,-61.87 341.29,-30.74"/>
<polygon fill="#63b8ff" stroke="#63b8ff" points="344.69,-31.61 343.16,-21.12 337.82,-30.27 344.69,-31.61"/>
</a>
</g>
</g>
<!-- Node3&#45;&gt;Node12 -->
<g id="edge16_Node000003_Node000012" class="edge">
<title>Node3&#45;&gt;Node12</title>
<g id="a_edge16_Node000003_Node000012"><a xlink:title=" ">
<path fill="none" stroke="#63b8ff" d="M1357.88,-200.34C1476.62,-195.11 1751.45,-180.11 1782.62,-152.25 1800.93,-135.88 1803.77,-106.25 1803.33,-86.31"/>
<polygon fill="#63b8ff" stroke="#63b8ff" points="1806.83,-86.15 1802.78,-76.36 1799.84,-86.54 1806.83,-86.15"/>
</a>
</g>
</g>
<!-- Node13 -->
<g id="Node000013" class="node">
<title>Node13</title>
<g id="a_Node000013"><a xlink:title=" ">
<polygon fill="#e0e0e0" stroke="#999999" points="1569.37,-141 1497.87,-141 1497.87,-121.75 1569.37,-121.75 1569.37,-141"/>
<text text-anchor="middle" x="1533.62" y="-127.5" font-family="Helvetica,sans-Serif" font-size="10.00">initializer_list</text>
</a>
</g>
</g>
<!-- Node3&#45;&gt;Node13 -->
<g id="edge17_Node000003_Node000013" class="edge">
<title>Node3&#45;&gt;Node13</title>
<g id="a_edge17_Node000003_Node000013"><a xlink:title=" ">
<path fill="none" stroke="#63b8ff" d="M1358.11,-189.99C1395.31,-180.9 1445.48,-167.54 1488.62,-152.25 1493.87,-150.39 1499.38,-148.18 1504.66,-145.93"/>
<polygon fill="#63b8ff" stroke="#63b8ff" points="1505.93,-149.19 1513.66,-141.95 1503.1,-142.79 1505.93,-149.19"/>
</a>
</g>
</g>
<!-- Node14 -->
<g id="Node000014" class="node">
<title>Node14</title>
<g id="a_Node000014"><a xlink:title=" ">
<polygon fill="#e0e0e0" stroke="#999999" points="1625.87,-141 1587.37,-141 1587.37,-121.75 1625.87,-121.75 1625.87,-141"/>
<text text-anchor="middle" x="1606.62" y="-127.5" font-family="Helvetica,sans-Serif" font-size="10.00">utility</text>
</a>
</g>
</g>
<!-- Node3&#45;&gt;Node14 -->
<g id="edge19_Node000003_Node000014" class="edge">
<title>Node3&#45;&gt;Node14</title>
<g id="a_edge19_Node000003_Node000014"><a xlink:title=" ">
<path fill="none" stroke="#63b8ff" d="M1358.05,-199.53C1415.01,-194.84 1506.06,-182.84 1578.62,-152.25 1581.36,-151.09 1584.09,-149.64 1586.72,-148.03"/>
<polygon fill="#63b8ff" stroke="#63b8ff" points="1588.66,-150.95 1594.87,-142.36 1584.66,-145.2 1588.66,-150.95"/>
</a>
</g>
</g>
<!-- Node15 -->
<g id="Node000015" class="node">
<title>Node15</title>
<g id="a_Node000015"><a xlink:title=" ">
<polygon fill="#e0e0e0" stroke="#999999" points="1773.62,-146.62 1643.62,-146.62 1643.62,-116.12 1773.62,-116.12 1773.62,-146.62"/>
<text text-anchor="start" x="1651.62" y="-133.12" font-family="Helvetica,sans-Serif" font-size="10.00">typed_linear_algebra</text>
<text text-anchor="middle" x="1708.62" y="-121.88" font-family="Helvetica,sans-Serif" font-size="10.00">_internal/algorithm/add.tpp</text>
</a>
</g>
</g>
<!-- Node3&#45;&gt;Node15 -->
<g id="edge20_Node000003_Node000015" class="edge">
<title>Node3&#45;&gt;Node15</title>
<g id="a_edge20_Node000003_Node000015"><a xlink:title=" ">
<path fill="none" stroke="#63b8ff" d="M1358.13,-196.12C1424.01,-187.98 1538.05,-172.48 1634.62,-152.25 1638.2,-151.5 1641.86,-150.68 1645.55,-149.82"/>
<polygon fill="#63b8ff" stroke="#63b8ff" points="1646.28,-153.24 1655.17,-147.48 1644.62,-146.44 1646.28,-153.24"/>
</a>
</g>
</g>
<!-- Node16 -->
<g id="Node000016" class="node">
<title>Node16</title>
<g id="a_Node000016"><a xlink:title=" ">
<polygon fill="#e0e0e0" stroke="#999999" points="1969.49,-146.62 1829.74,-146.62 1829.74,-116.12 1969.49,-116.12 1969.49,-146.62"/>
<text text-anchor="start" x="1837.74" y="-133.12" font-family="Helvetica,sans-Serif" font-size="10.00">typed_linear_algebra</text>
<text text-anchor="middle" x="1899.62" y="-121.88" font-family="Helvetica,sans-Serif" font-size="10.00">_internal/algorithm/divide.tpp</text>
</a>
</g>
</g>
<!-- Node3&#45;&gt;Node16 -->
<g id="edge21_Node000003_Node000016" class="edge">
<title>Node3&#45;&gt;Node16</title>
<g id="a_edge21_Node000003_Node000016"><a xlink:title=" ">
<path fill="none" stroke="#63b8ff" d="M1358.12,-199.57C1452.03,-193.97 1650.21,-179.81 1815.62,-152.25 1820.57,-151.42 1825.67,-150.47 1830.79,-149.45"/>
<polygon fill="#63b8ff" stroke="#63b8ff" points="1831.44,-152.89 1840.5,-147.4 1830,-146.04 1831.44,-152.89"/>
</a>
</g>
</g>
<!-- Node17 -->
<g id="Node000017" class="node">
<title>Node17</title>
<g id="a_Node000017"><a xlink:title=" ">
<polygon fill="#e0e0e0" stroke="#999999" points="2109.49,-152.25 1987.74,-152.25 1987.74,-110.5 2109.49,-110.5 2109.49,-152.25"/>
<text text-anchor="start" x="1995.74" y="-138.75" font-family="Helvetica,sans-Serif" font-size="10.00">typed_linear_algebra</text>
<text text-anchor="start" x="1995.74" y="-127.5" font-family="Helvetica,sans-Serif" font-size="10.00">_internal/algorithm/equal</text>
<text text-anchor="middle" x="2048.62" y="-116.25" font-family="Helvetica,sans-Serif" font-size="10.00">_to.tpp</text>
</a>
</g>
</g>
<!-- Node3&#45;&gt;Node17 -->
<g id="edge22_Node000003_Node000017" class="edge">
<title>Node3&#45;&gt;Node17</title>
<g id="a_edge22_Node000003_Node000017"><a xlink:title=" ">
<path fill="none" stroke="#63b8ff" d="M1357.89,-202.17C1471.33,-200.68 1741.76,-192.96 1976.19,-152.49"/>
<polygon fill="#63b8ff" stroke="#63b8ff" points="1976.58,-155.97 1985.83,-150.8 1975.38,-149.08 1976.58,-155.97"/>
</a>
</g>
</g>
<!-- Node18 -->
<g id="Node000018" class="node">
<title>Node18</title>
<g id="a_Node000018"><a xlink:title=" ">
<polygon fill="#e0e0e0" stroke="#999999" points="2289.99,-152.25 2165.24,-152.25 2165.24,-110.5 2289.99,-110.5 2289.99,-152.25"/>
<text text-anchor="start" x="2173.24" y="-138.75" font-family="Helvetica,sans-Serif" font-size="10.00">typed_linear_algebra</text>
<text text-anchor="start" x="2173.24" y="-127.5" font-family="Helvetica,sans-Serif" font-size="10.00">_internal/algorithm/matrix</text>
<text text-anchor="middle" x="2227.62" y="-116.25" font-family="Helvetica,sans-Serif" font-size="10.00">_product.tpp</text>
</a>
</g>
</g>
<!-- Node3&#45;&gt;Node18 -->
<g id="edge23_Node000003_Node000018" class="edge">
<title>Node3&#45;&gt;Node18</title>
<g id="a_edge23_Node000003_Node000018"><a xlink:title=" ">
<path fill="none" stroke="#63b8ff" d="M1358.08,-202.96C1493.3,-203.32 1854.84,-199.38 2151.62,-152.25 2152.29,-152.14 2152.97,-152.03 2153.64,-151.92"/>
<polygon fill="#63b8ff" stroke="#63b8ff" points="2154.11,-155.39 2163.29,-150.1 2152.82,-148.51 2154.11,-155.39"/>
</a>
</g>
</g>
<!-- Node19 -->
<g id="Node000019" class="node">
<title>Node19</title>
<g id="a_Node000019"><a xlink:title=" ">
<polygon fill="#e0e0e0" stroke="#999999" points="2454.87,-146.62 2308.37,-146.62 2308.37,-116.12 2454.87,-116.12 2454.87,-146.62"/>
<text text-anchor="start" x="2316.37" y="-133.12" font-family="Helvetica,sans-Serif" font-size="10.00">typed_linear_algebra</text>
<text text-anchor="middle" x="2381.62" y="-121.88" font-family="Helvetica,sans-Serif" font-size="10.00">_internal/algorithm/product.tpp</text>
</a>
</g>
</g>
<!-- Node3&#45;&gt;Node19 -->
<g id="edge24_Node000003_Node000019" class="edge">
<title>Node3&#45;&gt;Node19</title>
<g id="a_edge24_Node000003_Node000019"><a xlink:title=" ">
<path fill="none" stroke="#63b8ff" d="M1358.16,-201.07C1538.52,-196.15 2114.68,-178.69 2298.62,-152.25 2304.16,-151.45 2309.87,-150.46 2315.59,-149.34"/>
<polygon fill="#63b8ff" stroke="#63b8ff" points="2315.97,-152.84 2325.05,-147.37 2314.54,-145.98 2315.97,-152.84"/>
</a>
</g>
</g>
<!-- Node20 -->
<g id="Node000020" class="node">
<title>Node20</title>
<g id="a_Node000020"><a xlink:title=" ">
<polygon fill="#e0e0e0" stroke="#999999" points="633.37,-146.62 495.87,-146.62 495.87,-116.12 633.37,-116.12 633.37,-146.62"/>
<text text-anchor="start" x="503.87" y="-133.12" font-family="Helvetica,sans-Serif" font-size="10.00">typed_linear_algebra</text>
<text text-anchor="middle" x="564.62" y="-121.88" font-family="Helvetica,sans-Serif" font-size="10.00">_internal/algorithm/scale.tpp</text>
</a>
</g>
</g>
<!-- Node3&#45;&gt;Node20 -->
<g id="edge25_Node000003_Node000020" class="edge">
<title>Node3&#45;&gt;Node20</title>
<g id="a_edge25_Node000003_Node000020"><a xlink:title=" ">
<path fill="none" stroke="#63b8ff" d="M1249.26,-201.55C1135.8,-198.88 865.78,-188.88 642.62,-152.25 637.96,-151.49 633.18,-150.58 628.38,-149.58"/>
<polygon fill="#63b8ff" stroke="#63b8ff" points="629.22,-146.18 618.7,-147.43 627.7,-153.01 629.22,-146.18"/>
</a>
</g>
</g>
<!-- Node21 -->
<g id="Node000021" class="node">
<title>Node21</title>
<g id="a_Node000021"><a xlink:title=" ">
<polygon fill="#e0e0e0" stroke="#999999" points="805.99,-146.62 651.24,-146.62 651.24,-116.12 805.99,-116.12 805.99,-146.62"/>
<text text-anchor="start" x="659.24" y="-133.12" font-family="Helvetica,sans-Serif" font-size="10.00">typed_linear_algebra</text>
<text text-anchor="middle" x="728.62" y="-121.88" font-family="Helvetica,sans-Serif" font-size="10.00">_internal/algorithm/substract.tpp</text>
</a>
</g>
</g>
<!-- Node3&#45;&gt;Node21 -->
<g id="edge26_Node000003_Node000021" class="edge">
<title>Node3&#45;&gt;Node21</title>
<g id="a_edge26_Node000003_Node000021"><a xlink:title=" ">
<path fill="none" stroke="#63b8ff" d="M1249.17,-199.07C1158.71,-192.89 971.92,-178.05 815.62,-152.25 810.35,-151.38 804.93,-150.39 799.49,-149.31"/>
<polygon fill="#63b8ff" stroke="#63b8ff" points="800.31,-145.91 789.81,-147.33 798.91,-152.77 800.31,-145.91"/>
</a>
</g>
</g>
<!-- Node22 -->
<g id="Node000022" class="node">
<title>Node22</title>
<g id="a_Node000022"><a xlink:title=" ">
<polygon fill="#e0e0e0" stroke="#999999" points="986.74,-146.62 824.49,-146.62 824.49,-116.12 986.74,-116.12 986.74,-146.62"/>
<text text-anchor="start" x="832.49" y="-133.12" font-family="Helvetica,sans-Serif" font-size="10.00">typed_linear_algebra</text>
<text text-anchor="middle" x="905.62" y="-121.88" font-family="Helvetica,sans-Serif" font-size="10.00">_internal/algorithm/transposed.tpp</text>
</a>
</g>
</g>
<!-- Node3&#45;&gt;Node22 -->
<g id="edge27_Node000003_Node000022" class="edge">
<title>Node3&#45;&gt;Node22</title>
<g id="a_edge27_Node000003_Node000022"><a xlink:title=" ">
<path fill="none" stroke="#63b8ff" d="M1249.21,-194.56C1187.54,-185.34 1084.08,-169.22 995.62,-152.25 990.8,-151.33 985.85,-150.34 980.86,-149.32"/>
<polygon fill="#63b8ff" stroke="#63b8ff" points="981.92,-145.96 971.41,-147.34 980.48,-152.81 981.92,-145.96"/>
</a>
</g>
</g>
<!-- Node23 -->
<g id="Node000023" class="node">
<title>Node23</title>
<g id="a_Node000023"><a xlink:title=" ">
<polygon fill="#e0e0e0" stroke="#999999" points="1108.87,-146.62 1004.37,-146.62 1004.37,-116.12 1108.87,-116.12 1108.87,-146.62"/>
<text text-anchor="start" x="1012.37" y="-133.12" font-family="Helvetica,sans-Serif" font-size="10.00">typed_linear_algebra</text>
<text text-anchor="middle" x="1056.62" y="-121.88" font-family="Helvetica,sans-Serif" font-size="10.00">_internal/cast.tpp</text>
</a>
</g>
</g>
<!-- Node3&#45;&gt;Node23 -->
<g id="edge28_Node000003_Node000023" class="edge">
<title>Node3&#45;&gt;Node23</title>
<g id="a_edge28_Node000003_Node000023"><a xlink:title=" ">
<path fill="none" stroke="#63b8ff" d="M1249.2,-188.41C1212.25,-178.67 1162.34,-165.19 1118.62,-152.25 1116.63,-151.66 1114.61,-151.06 1112.57,-150.44"/>
<polygon fill="#63b8ff" stroke="#63b8ff" points="1113.61,-147.1 1103.03,-147.5 1111.55,-153.79 1113.61,-147.1"/>
</a>
</g>
</g>
<!-- Node24 -->
<g id="Node000024" class="node">
<title>Node24</title>
<g id="a_Node000024"><a xlink:title=" ">
<polygon fill="#e0e0e0" stroke="#999999" points="1231.87,-146.62 1127.37,-146.62 1127.37,-116.12 1231.87,-116.12 1231.87,-146.62"/>
<text text-anchor="start" x="1135.37" y="-133.12" font-family="Helvetica,sans-Serif" font-size="10.00">typed_linear_algebra</text>
<text text-anchor="middle" x="1179.62" y="-121.88" font-family="Helvetica,sans-Serif" font-size="10.00">_internal/tuple.tpp</text>
</a>
</g>
</g>
<!-- Node3&#45;&gt;Node24 -->
<g id="edge29_Node000003_Node000024" class="edge">
<title>Node3&#45;&gt;Node24</title>
<g id="a_edge29_Node000003_Node000024"><a xlink:title=" ">
<path fill="none" stroke="#63b8ff" d="M1277.62,-187.8C1259.6,-177.61 1235.37,-163.9 1215.51,-152.67"/>
<polygon fill="#63b8ff" stroke="#63b8ff" points="1217.32,-149.68 1206.89,-147.8 1213.88,-155.77 1217.32,-149.68"/>
</a>
</g>
</g>
<!-- Node25 -->
<g id="Node000025" class="node">
<title>Node25</title>
<g id="a_Node000025"><a xlink:title=" ">
<polygon fill="#e0e0e0" stroke="#999999" points="1357.37,-152.25 1249.87,-152.25 1249.87,-110.5 1357.37,-110.5 1357.37,-152.25"/>
<text text-anchor="start" x="1257.87" y="-138.75" font-family="Helvetica,sans-Serif" font-size="10.00">typed_linear_algebra</text>
<text text-anchor="start" x="1257.87" y="-127.5" font-family="Helvetica,sans-Serif" font-size="10.00">_internal/typed_linear</text>
<text text-anchor="middle" x="1303.62" y="-116.25" font-family="Helvetica,sans-Serif" font-size="10.00">_algebra.tpp</text>
</a>
</g>
</g>
<!-- Node3&#45;&gt;Node25 -->
<g id="edge30_Node000003_Node000025" class="edge">
<title>Node3&#45;&gt;Node25</title>
<g id="a_edge30_Node000003_Node000025"><a xlink:title=" ">
<path fill="none" stroke="#63b8ff" d="M1303.62,-187.97C1303.62,-181.04 1303.62,-172.47 1303.62,-164.14"/>
<polygon fill="#63b8ff" stroke="#63b8ff" points="1307.12,-164.25 1303.62,-154.25 1300.12,-164.25 1307.12,-164.25"/>
</a>
</g>
</g>
<!-- Node5&#45;&gt;Node6 -->
<g id="edge5_Node000005_Node000006" class="edge">
<title>Node5&#45;&gt;Node6</title>
<g id="a_edge5_Node000005_Node000006"><a xlink:title=" ">
<path fill="none" stroke="#63b8ff" d="M394.76,-115.74C371.99,-104.94 341.22,-90.35 318.85,-79.74"/>
<polygon fill="#63b8ff" stroke="#63b8ff" points="320.52,-76.66 309.98,-75.53 317.52,-82.98 320.52,-76.66"/>
</a>
</g>
</g>
<!-- Node5&#45;&gt;Node8 -->
<g id="edge11_Node000005_Node000008" class="edge">
<title>Node5&#45;&gt;Node8</title>
<g id="a_edge11_Node000005_Node000008"><a xlink:title=" ">
<path fill="none" stroke="#63b8ff" d="M425.62,-115.69C425.62,-94.41 425.62,-54.92 425.62,-30.88"/>
<polygon fill="#63b8ff" stroke="#63b8ff" points="429.12,-31.13 425.62,-21.13 422.12,-31.13 429.12,-31.13"/>
</a>
</g>
</g>
<!-- Node5&#45;&gt;Node12 -->
<g id="edge12_Node000005_Node000012" class="edge">
<title>Node5&#45;&gt;Node12</title>
<g id="a_edge12_Node000005_Node000012"><a xlink:title=" ">
<path fill="none" stroke="#63b8ff" d="M465.24,-115.69C472.27,-113.6 479.6,-111.74 486.62,-110.5 743.64,-65.2 1589.49,-65.22 1768.25,-65.74"/>
<polygon fill="#63b8ff" stroke="#63b8ff" points="1767.98,-69.24 1777.99,-65.77 1768,-62.24 1767.98,-69.24"/>
</a>
</g>
</g>
<!-- Node6&#45;&gt;Node7 -->
<g id="edge6_Node000006_Node000007" class="edge">
<title>Node6&#45;&gt;Node7</title>
<g id="a_edge6_Node000006_Node000007"><a xlink:title=" ">
<path fill="none" stroke="#63b8ff" d="M275.2,-54.84C262.5,-46.89 243.74,-35.14 228.76,-25.75"/>
<polygon fill="#63b8ff" stroke="#63b8ff" points="230.72,-22.85 220.39,-20.51 227.01,-28.78 230.72,-22.85"/>
</a>
</g>
</g>
<!-- Node6&#45;&gt;Node8 -->
<g id="edge7_Node000006_Node000008" class="edge">
<title>Node6&#45;&gt;Node8</title>
<g id="a_edge7_Node000006_Node000008"><a xlink:title=" ">
<path fill="none" stroke="#63b8ff" d="M312.69,-54.84C334.37,-46.35 367.1,-33.54 391.75,-23.89"/>
<polygon fill="#63b8ff" stroke="#63b8ff" points="392.99,-27.16 401.02,-20.25 390.44,-20.64 392.99,-27.16"/>
</a>
</g>
</g>
<!-- Node9 -->
<g id="Node000009" class="node">
<title>Node9</title>
<g id="a_Node000009"><a xlink:title=" ">
<polygon fill="#e0e0e0" stroke="#999999" points="308.62,-19.25 250.62,-19.25 250.62,0 308.62,0 308.62,-19.25"/>
<text text-anchor="middle" x="279.62" y="-5.75" font-family="Helvetica,sans-Serif" font-size="10.00">functional</text>
</a>
</g>
</g>
<!-- Node6&#45;&gt;Node9 -->
<g id="edge8_Node000006_Node000009" class="edge">
<title>Node6&#45;&gt;Node9</title>
<g id="a_edge8_Node000006_Node000009"><a xlink:title=" ">
<path fill="none" stroke="#63b8ff" d="M287.97,-55.08C286.73,-48.49 284.98,-39.21 283.41,-30.82"/>
<polygon fill="#63b8ff" stroke="#63b8ff" points="286.87,-30.28 281.58,-21.1 279.99,-31.57 286.87,-30.28"/>
</a>
</g>
</g>
<!-- Node6&#45;&gt;Node10 -->
<g id="edge9_Node000006_Node000010" class="edge">
<title>Node6&#45;&gt;Node10</title>
<g id="a_edge9_Node000006_Node000010"><a xlink:title=" ">
<path fill="none" stroke="#63b8ff" d="M299.12,-54.84C307.05,-47.3 318.57,-36.35 328.15,-27.23"/>
<polygon fill="#63b8ff" stroke="#63b8ff" points="330.33,-29.99 335.16,-20.57 325.5,-24.92 330.33,-29.99"/>
</a>
</g>
</g>
<!-- Node6&#45;&gt;Node11 -->
<g id="edge10_Node000006_Node000011" class="edge">
<title>Node6&#45;&gt;Node11</title>
<g id="a_edge10_Node000006_Node000011"><a xlink:title=" ">
<path fill="none" stroke="#63b8ff" d="M261.12,-57.13C222.07,-47.89 151.64,-31.22 106.56,-20.55"/>
<polygon fill="#63b8ff" stroke="#63b8ff" points="107.41,-17.16 96.87,-18.26 105.8,-23.97 107.41,-17.16"/>
</a>
</g>
</g>
</g>
</svg>

<g id="navigator" transform="translate(0 0)" fill="#404254">
  <rect fill="#f2f5e9" fill-opacity="0.5" stroke="#606060" stroke-width=".5" x="0" y="0" width="60" height="60"/>
  <use id="zoomplus" xlink:href="#zoomPlus" x="17" y="9" onmousedown="handleZoom(evt,'in')"/>
  <use id="zoomminus" xlink:href="#zoomMin" x="42" y="9" onmousedown="handleZoom(evt,'out')"/>
  <use id="reset" xlink:href="#resetDef" x="30" y="36" onmousedown="handleReset()"/>
   <use id="arrowup" xlink:href="#arrowUp" x="0" y="0" onmousedown="handlePan(0,-1)"/>
  <use id="arrowright" xlink:href="#arrowRight" x="0" y="0" onmousedown="handlePan(1,0)"/>
  <use id="arrowdown" xlink:href="#arrowDown" x="0" y="0" onmousedown="handlePan(0,1)"/>
  <use id="arrowleft" xlink:href="#arrowLeft" x="0" y="0" onmousedown="handlePan(-1,0)"/>
</g>
<svg viewBox="0 0 15 15" width="100%" height="30px" preserveAspectRatio="xMaxYMin meet">
 <g id="arrow_out" transform="scale(0.3 0.3)">
  <a xlink:href="nested__typed__eigen_2fcarouge_2linalg_8hpp__incl_org.svg" target="_base">
   <rect id="button" ry="5" rx="5" y="6" x="6" height="38" width="38"
        fill="#f2f5e9" fill-opacity="0.5" stroke="#606060" stroke-width="1.0"/>
   <path id="arrow"
     d="M 11.500037,31.436501 C 11.940474,20.09759 22.043105,11.32322 32.158766,21.979434 L 37.068811,17.246167 C 37.068811,17.246167 37.088388,32 37.088388,32 L 22.160133,31.978069 C 22.160133,31.978069 26.997745,27.140456 26.997745,27.140456 C 18.528582,18.264221 13.291696,25.230495 11.500037,31.436501 z"
     style="fill:#404040;"/>
  </a>
 </g>
</svg>

<style type='text/css'>
<![CDATA[
[data-mouse-over-selected='false'] { opacity: 0.7; }
[data-mouse-over-selected='true']  { opacity: 1.0; }
]]>
</style>
<script type="application/ecmascript"><![CDATA[
document.addEventListener('DOMContentLoaded', (event) => {
  highlightEdges();
  highlightAdjacentNodes();
});
]]></script>
</svg>
