<?xml version="1.0" encoding="UTF-8" standalone="no"?>
<!DOCTYPE svg PUBLIC "-//W3C//DTD SVG 1.1//EN"
 "http://www.w3.org/Graphics/SVG/1.1/DTD/svg11.dtd">
<!-- Generated by graphviz version 12.2.0 (20241103.1931)
 -->
<!-- Title: /github/workspace/support/nholthaus_eigen/fcarouge/linalg.hpp Pages: 1 -->
<!--zoomable 316 -->

<svg id="main" version="1.1" xmlns="http://www.w3.org/2000/svg" xmlns:xlink="http://www.w3.org/1999/xlink" xml:space="preserve" onload="init(evt)">

<style type="text/css"><![CDATA[
.node, .edge {opacity: 0.7;}
.node.selected, .edge.selected {opacity: 1;}
.edge:hover path { stroke: red; }
.edge:hover polygon { stroke: red; fill: red; }
]]></style>

<defs>
  <circle id="rim" cx="0" cy="0" r="7"/>
  <circle id="rim2" cx="0" cy="0" r="3.5"/>
  <g id="zoomPlus">
    <use xlink:href="#rim" fill="#404040"><set attributeName="fill" to="#808080" begin="zoomplus.mouseover" end="zoomplus.mouseout"/></use>
    <path d="M-4,0h8M0,-4v8" fill="none" stroke="white" stroke-width="1.5" pointer-events="none"/>
  </g>
  <g id="zoomMin">
    <use xlink:href="#rim" fill="#404040"><set attributeName="fill" to="#808080" begin="zoomminus.mouseover" end="zoomminus.mouseout"/></use>
    <path d="M-4,0h8" fill="none" stroke="white" stroke-width="1.5" pointer-events="none"/>
  </g>
  <g id="arrowUp" transform="translate(30 24)">
    <use xlink:href="#rim"/>
    <path pointer-events="none" fill="none" stroke="white" stroke-width="1.5" d="M0,-3.0v7 M-2.5,-0.5L0,-3.0L2.5,-0.5"/>
  </g>
  <g id="arrowRight" transform="rotate(90) translate(36 -43)">
    <use xlink:href="#rim"/>
    <path pointer-events="none" fill="none" stroke="white" stroke-width="1.5" d="M0,-3.0v7 M-2.5,-0.5L0,-3.0L2.5,-0.5"/>
  </g>
  <g id="arrowDown" transform="rotate(180) translate(-30 -48)">
    <use xlink:href="#rim"/>
    <path pointer-events="none" fill="none" stroke="white" stroke-width="1.5" d="M0,-3.0v7 M-2.5,-0.5L0,-3.0L2.5,-0.5"/>
  </g>
  <g id="arrowLeft" transform="rotate(270) translate(-36 17)">
    <use xlink:href="#rim"/>
    <path pointer-events="none" fill="none" stroke="white" stroke-width="1.5" d="M0,-3.0v7 M-2.5,-0.5L0,-3.0L2.5,-0.5"/>
  </g>
  <g id="resetDef">
    <use xlink:href="#rim2" fill="#404040"><set attributeName="fill" to="#808080" begin="reset.mouseover" end="reset.mouseout"/></use>
  </g>
</defs>
<script type="application/ecmascript">
var viewWidth = 3095;
var viewHeight = 316;
var sectionId = 'dynsection-0';
</script>
<script type="application/ecmascript" xlink:href="svg.min.js"/>
<svg id="graph" class="graph">
<g id="viewport">
<title>/github/workspace/support/nholthaus_eigen/fcarouge/linalg.hpp</title>
<!-- Node1 -->
<g id="Node000001" class="node">
<title>Node1</title>
<g id="a_Node000001"><a xlink:title="Indexed&#45;based linear algebra with nholthaus/units with Eigen implementations.">
<polygon fill="#999999" stroke="#666666" points="1589.5,-307.75 1458.75,-307.75 1458.75,-266 1589.5,-266 1589.5,-307.75"/>
<text text-anchor="start" x="1466.75" y="-294.25" font-family="Helvetica,sans-Serif" font-size="10.00">/github/workspace/support</text>
<text text-anchor="start" x="1466.75" y="-283" font-family="Helvetica,sans-Serif" font-size="10.00">/nholthaus_eigen/fcarouge</text>
<text text-anchor="middle" x="1524.12" y="-271.75" font-family="Helvetica,sans-Serif" font-size="10.00">/linalg.hpp</text>
</a>
</g>
</g>
<!-- Node2 -->
<g id="Node000002" class="node">
<title>Node2</title>
<g id="a_Node000002"><a xlink:href="eigen_8hpp.xhtml" target="_top" xlink:title="Linear algebra facade for Eigen3 third party implementation.">
<polygon fill="white" stroke="#666666" points="1200,-230 1102.25,-230 1102.25,-210.75 1200,-210.75 1200,-230"/>
<text text-anchor="middle" x="1151.12" y="-216.5" font-family="Helvetica,sans-Serif" font-size="10.00">fcarouge/eigen.hpp</text>
</a>
</g>
</g>
<!-- Node1&#45;&gt;Node2 -->
<g id="edge1_Node000001_Node000002" class="edge">
<title>Node1&#45;&gt;Node2</title>
<g id="a_edge1_Node000001_Node000002"><a xlink:title=" ">
<path fill="none" stroke="#63b8ff" d="M1458.3,-274.49C1388.51,-262.42 1279.21,-243.52 1211.55,-231.82"/>
<polygon fill="#63b8ff" stroke="#63b8ff" points="1212.18,-228.38 1201.73,-230.13 1210.99,-235.28 1212.18,-228.38"/>
</a>
</g>
</g>
<!-- Node3 -->
<g id="Node000003" class="node">
<title>Node3</title>
<g id="a_Node000003"><a xlink:href="typed__linear__algebra_8hpp.xhtml" target="_top" xlink:title="Typed linear algebra implementation.">
<polygon fill="white" stroke="#666666" points="1578.25,-174.75 1470,-174.75 1470,-144.25 1578.25,-144.25 1578.25,-174.75"/>
<text text-anchor="start" x="1478" y="-161.25" font-family="Helvetica,sans-Serif" font-size="10.00">fcarouge/typed_linear</text>
<text text-anchor="middle" x="1524.12" y="-150" font-family="Helvetica,sans-Serif" font-size="10.00">_algebra.hpp</text>
</a>
</g>
</g>
<!-- Node1&#45;&gt;Node3 -->
<g id="edge43_Node000001_Node000003" class="edge">
<title>Node1&#45;&gt;Node3</title>
<g id="a_edge43_Node000001_Node000003"><a xlink:title=" ">
<path fill="none" stroke="#63b8ff" d="M1524.12,-265.73C1524.12,-244.16 1524.12,-209.85 1524.12,-186.31"/>
<polygon fill="#63b8ff" stroke="#63b8ff" points="1527.63,-186.62 1524.13,-176.62 1520.63,-186.62 1527.63,-186.62"/>
</a>
</g>
</g>
<!-- Node7 -->
<g id="Node000007" class="node">
<title>Node7</title>
<g id="a_Node000007"><a xlink:title=" ">
<polygon fill="#e0e0e0" stroke="#999999" points="3087.25,-24.88 3039,-24.88 3039,-5.63 3087.25,-5.63 3087.25,-24.88"/>
<text text-anchor="middle" x="3063.12" y="-11.38" font-family="Helvetica,sans-Serif" font-size="10.00">cstddef</text>
</a>
</g>
</g>
<!-- Node1&#45;&gt;Node7 -->
<g id="edge49_Node000001_Node000007" class="edge">
<title>Node1&#45;&gt;Node7</title>
<g id="a_edge49_Node000001_Node000007"><a xlink:title=" ">
<path fill="none" stroke="#63b8ff" d="M1589.93,-284.98C1747.39,-282.23 2158.06,-271.32 2498.12,-230 2630.98,-213.86 2663.68,-204.65 2794.12,-174.75 2903.68,-149.64 2958.68,-187.76 3038.12,-108.25 3057.11,-89.25 3062.07,-57.36 3063.16,-36.56"/>
<polygon fill="#63b8ff" stroke="#63b8ff" points="3066.65,-36.85 3063.39,-26.77 3059.66,-36.69 3066.65,-36.85"/>
</a>
</g>
</g>
<!-- Node9 -->
<g id="Node000009" class="node">
<title>Node9</title>
<g id="a_Node000009"><a xlink:title=" ">
<polygon fill="#e0e0e0" stroke="#999999" points="2609.62,-24.88 2572.62,-24.88 2572.62,-5.63 2609.62,-5.63 2609.62,-24.88"/>
<text text-anchor="middle" x="2591.12" y="-11.38" font-family="Helvetica,sans-Serif" font-size="10.00">tuple</text>
</a>
</g>
</g>
<!-- Node1&#45;&gt;Node9 -->
<g id="edge50_Node000001_Node000009" class="edge">
<title>Node1&#45;&gt;Node9</title>
<g id="a_edge50_Node000001_Node000009"><a xlink:title=" ">
<path fill="none" stroke="#63b8ff" d="M1589.77,-283.17C1864.68,-271.17 2913.41,-218.4 3006.12,-108.25 3018.07,-94.05 3018.43,-80.39 3006.12,-66.5 2980.61,-37.71 2712.74,-22.14 2621.42,-17.64"/>
<polygon fill="#63b8ff" stroke="#63b8ff" points="2621.66,-14.15 2611.5,-17.16 2621.32,-21.14 2621.66,-14.15"/>
</a>
</g>
</g>
<!-- Node34 -->
<g id="Node000034" class="node">
<title>Node34</title>
<g id="a_Node000034"><a xlink:href="nholthaus_8hpp.xhtml" target="_top" xlink:title="Quantities and units facade for the nholthaus/units implementation.">
<polygon fill="white" stroke="#666666" points="168.38,-97 51.88,-97 51.88,-77.75 168.38,-77.75 168.38,-97"/>
<text text-anchor="middle" x="110.12" y="-83.5" font-family="Helvetica,sans-Serif" font-size="10.00">fcarouge/nholthaus.hpp</text>
</a>
</g>
</g>
<!-- Node1&#45;&gt;Node34 -->
<g id="edge44_Node000001_Node000034" class="edge">
<title>Node1&#45;&gt;Node34</title>
<g id="a_edge44_Node000001_Node000034"><a xlink:title=" ">
<path fill="none" stroke="#63b8ff" d="M1458.6,-285.82C1192.52,-284.92 202.64,-274.82 110.12,-174.75 93.85,-157.14 97.9,-127.83 103.24,-108.31"/>
<polygon fill="#63b8ff" stroke="#63b8ff" points="106.57,-109.39 106.2,-98.81 99.89,-107.31 106.57,-109.39"/>
</a>
</g>
</g>
<!-- Node2&#45;&gt;Node3 -->
<g id="edge2_Node000002_Node000003" class="edge">
<title>Node2&#45;&gt;Node3</title>
<g id="a_edge2_Node000002_Node000003"><a xlink:title=" ">
<path fill="none" stroke="#63b8ff" d="M1200.27,-211.62C1266.6,-201.15 1384.94,-182.47 1458.72,-170.82"/>
<polygon fill="#63b8ff" stroke="#63b8ff" points="1458.89,-174.34 1468.23,-169.32 1457.8,-167.43 1458.89,-174.34"/>
</a>
</g>
</g>
<!-- Node6 -->
<g id="Node000006" class="node">
<title>Node6</title>
<g id="a_Node000006"><a xlink:title=" ">
<polygon fill="#e0e0e0" stroke="#999999" points="234,-24.88 178.25,-24.88 178.25,-5.63 234,-5.63 234,-24.88"/>
<text text-anchor="middle" x="206.12" y="-11.38" font-family="Helvetica,sans-Serif" font-size="10.00">concepts</text>
</a>
</g>
</g>
<!-- Node2&#45;&gt;Node6 -->
<g id="edge36_Node000002_Node000006" class="edge">
<title>Node2&#45;&gt;Node6</title>
<g id="a_edge36_Node000002_Node000006"><a xlink:title=" ">
<path fill="none" stroke="#63b8ff" d="M1101.99,-218.05C959.55,-213.94 548.17,-200.16 416.12,-174.75 323.72,-156.97 273.88,-181.75 215.12,-108.25 199.02,-88.1 199.59,-56.99 202.24,-36.62"/>
<polygon fill="#63b8ff" stroke="#63b8ff" points="205.7,-37.19 203.84,-26.76 198.79,-36.07 205.7,-37.19"/>
</a>
</g>
</g>
<!-- Node2&#45;&gt;Node7 -->
<g id="edge37_Node000002_Node000007" class="edge">
<title>Node2&#45;&gt;Node7</title>
<g id="a_edge37_Node000002_Node000007"><a xlink:title=" ">
<path fill="none" stroke="#63b8ff" d="M1200.24,-218.82C1422.68,-216.15 2337.1,-203.61 2622.12,-174.75 2794.45,-157.3 2862.57,-205.16 3006.12,-108.25 3031.89,-90.86 3048.16,-57.52 3056.45,-36.11"/>
<polygon fill="#63b8ff" stroke="#63b8ff" points="3059.71,-37.38 3059.81,-26.78 3053.13,-35 3059.71,-37.38"/>
</a>
</g>
</g>
<!-- Node2&#45;&gt;Node9 -->
<g id="edge40_Node000002_Node000009" class="edge">
<title>Node2&#45;&gt;Node9</title>
<g id="a_edge40_Node000002_Node000009"><a xlink:title=" ">
<path fill="none" stroke="#63b8ff" d="M1200.27,-218.28C1486.11,-211.69 2924.06,-175.25 2987.12,-108.25 2999.84,-94.74 2999.39,-80.42 2987.12,-66.5 2962.95,-39.06 2709.44,-22.71 2621.2,-17.81"/>
<polygon fill="#63b8ff" stroke="#63b8ff" points="2621.57,-14.33 2611.4,-17.28 2621.19,-21.32 2621.57,-14.33"/>
</a>
</g>
</g>
<!-- Node10 -->
<g id="Node000010" class="node">
<title>Node10</title>
<g id="a_Node000010"><a xlink:title=" ">
<polygon fill="#e0e0e0" stroke="#999999" points="145.62,-24.88 84.62,-24.88 84.62,-5.63 145.62,-5.63 145.62,-24.88"/>
<text text-anchor="middle" x="115.12" y="-11.38" font-family="Helvetica,sans-Serif" font-size="10.00">type_traits</text>
</a>
</g>
</g>
<!-- Node2&#45;&gt;Node10 -->
<g id="edge41_Node000002_Node000010" class="edge">
<title>Node2&#45;&gt;Node10</title>
<g id="a_edge41_Node000002_Node000010"><a xlink:title=" ">
<path fill="none" stroke="#63b8ff" d="M1101.89,-219.34C907.77,-218.94 201.49,-214.7 110.12,-174.75 58.28,-152.08 16.96,-116.67 43.12,-66.5 51.43,-50.58 67.34,-38.67 82.1,-30.45"/>
<polygon fill="#63b8ff" stroke="#63b8ff" points="83.38,-33.72 90.67,-26.04 80.18,-27.5 83.38,-33.72"/>
</a>
</g>
</g>
<!-- Node12 -->
<g id="Node000012" class="node">
<title>Node12</title>
<g id="a_Node000012"><a xlink:title=" ">
<polygon fill="#e0e0e0" stroke="#999999" points="268,-97 224.25,-97 224.25,-77.75 268,-77.75 268,-97"/>
<text text-anchor="middle" x="246.12" y="-83.5" font-family="Helvetica,sans-Serif" font-size="10.00">format</text>
</a>
</g>
</g>
<!-- Node2&#45;&gt;Node12 -->
<g id="edge38_Node000002_Node000012" class="edge">
<title>Node2&#45;&gt;Node12</title>
<g id="a_edge38_Node000002_Node000012"><a xlink:title=" ">
<path fill="none" stroke="#63b8ff" d="M1102.16,-219.48C967.64,-218.43 582.48,-206.39 282.12,-108.25 277.94,-106.88 273.69,-105.02 269.64,-102.99"/>
<polygon fill="#63b8ff" stroke="#63b8ff" points="271.35,-99.93 260.91,-98.13 267.95,-106.05 271.35,-99.93"/>
</a>
</g>
</g>
<!-- Node32 -->
<g id="Node000032" class="node">
<title>Node32</title>
<g id="a_Node000032"><a xlink:title=" ">
<polygon fill="#e0e0e0" stroke="#999999" points="1176.75,-169.12 1125.5,-169.12 1125.5,-149.88 1176.75,-149.88 1176.75,-169.12"/>
<text text-anchor="middle" x="1151.12" y="-155.62" font-family="Helvetica,sans-Serif" font-size="10.00">sstream</text>
</a>
</g>
</g>
<!-- Node2&#45;&gt;Node32 -->
<g id="edge39_Node000002_Node000032" class="edge">
<title>Node2&#45;&gt;Node32</title>
<g id="a_edge39_Node000002_Node000032"><a xlink:title=" ">
<path fill="none" stroke="#63b8ff" d="M1151.12,-210.43C1151.12,-202.65 1151.12,-191.08 1151.12,-181.03"/>
<polygon fill="#63b8ff" stroke="#63b8ff" points="1154.63,-181.04 1151.13,-171.04 1147.63,-181.04 1154.63,-181.04"/>
</a>
</g>
</g>
<!-- Node33 -->
<g id="Node000033" class="node">
<title>Node33</title>
<g id="a_Node000033"><a xlink:title=" ">
<polygon fill="#e0e0e0" stroke="#999999" points="186.62,-169.12 119.62,-169.12 119.62,-149.88 186.62,-149.88 186.62,-169.12"/>
<text text-anchor="middle" x="153.12" y="-155.62" font-family="Helvetica,sans-Serif" font-size="10.00">Eigen/Eigen</text>
</a>
</g>
</g>
<!-- Node2&#45;&gt;Node33 -->
<g id="edge42_Node000002_Node000033" class="edge">
<title>Node2&#45;&gt;Node33</title>
<g id="a_edge42_Node000002_Node000033"><a xlink:title=" ">
<path fill="none" stroke="#63b8ff" d="M1101.96,-218.63C933.03,-215.84 377.04,-204.54 201.12,-174.75 197.68,-174.17 194.13,-173.41 190.6,-172.56"/>
<polygon fill="#63b8ff" stroke="#63b8ff" points="191.54,-169.19 180.98,-169.97 189.72,-175.95 191.54,-169.19"/>
</a>
</g>
</g>
<!-- Node4 -->
<g id="Node000004" class="node">
<title>Node4</title>
<g id="a_Node000004"><a xlink:href="utility_8hpp.xhtml" target="_top" xlink:title=" ">
<polygon fill="white" stroke="#666666" points="466.38,-102.62 361.88,-102.62 361.88,-72.12 466.38,-72.12 466.38,-102.62"/>
<text text-anchor="start" x="369.88" y="-89.12" font-family="Helvetica,sans-Serif" font-size="10.00">typed_linear_algebra</text>
<text text-anchor="middle" x="414.12" y="-77.88" font-family="Helvetica,sans-Serif" font-size="10.00">/internal/utility.hpp</text>
</a>
</g>
</g>
<!-- Node3&#45;&gt;Node4 -->
<g id="edge3_Node000003_Node000004" class="edge">
<title>Node3&#45;&gt;Node4</title>
<g id="a_edge3_Node000003_Node000004"><a xlink:title=" ">
<path fill="none" stroke="#63b8ff" d="M1469.5,-156.24C1261.64,-147.6 529.19,-116.69 480.12,-108.25 476.29,-107.59 472.37,-106.78 468.45,-105.86"/>
<polygon fill="#63b8ff" stroke="#63b8ff" points="469.45,-102.51 458.9,-103.43 467.72,-109.29 469.45,-102.51"/>
</a>
</g>
</g>
<!-- Node5 -->
<g id="Node000005" class="node">
<title>Node5</title>
<g id="a_Node000005"><a xlink:href="typed__linear__algebra__forward_8hpp.xhtml" target="_top" xlink:title="Authoritative forward declaration header.">
<polygon fill="white" stroke="#666666" points="370.25,-30.5 262,-30.5 262,0 370.25,0 370.25,-30.5"/>
<text text-anchor="start" x="270" y="-17" font-family="Helvetica,sans-Serif" font-size="10.00">fcarouge/typed_linear</text>
<text text-anchor="middle" x="316.12" y="-5.75" font-family="Helvetica,sans-Serif" font-size="10.00">_algebra_forward.hpp</text>
</a>
</g>
</g>
<!-- Node3&#45;&gt;Node5 -->
<g id="edge11_Node000003_Node000005" class="edge">
<title>Node3&#45;&gt;Node5</title>
<g id="a_edge11_Node000003_Node000005"><a xlink:title=" ">
<path fill="none" stroke="#63b8ff" d="M1469.64,-156.19C1238.89,-146.39 353.85,-108.76 353.12,-108.25 331.76,-93.14 322.72,-63.53 318.9,-41.98"/>
<polygon fill="#63b8ff" stroke="#63b8ff" points="322.38,-41.56 317.46,-32.18 315.46,-42.58 322.38,-41.56"/>
</a>
</g>
</g>
<!-- Node3&#45;&gt;Node6 -->
<g id="edge12_Node000003_Node000006" class="edge">
<title>Node3&#45;&gt;Node6</title>
<g id="a_edge12_Node000003_Node000006"><a xlink:title=" ">
<path fill="none" stroke="#63b8ff" d="M1469.68,-156.2C1402.89,-153.37 1286.18,-148.44 1186.12,-144.25 1090.01,-140.22 409.71,-145.74 321.12,-108.25 296.3,-97.74 297.96,-83.61 277.12,-66.5 261.91,-54.01 243.78,-41.21 229.65,-31.65"/>
<polygon fill="#63b8ff" stroke="#63b8ff" points="231.68,-28.8 221.42,-26.16 227.8,-34.62 231.68,-28.8"/>
</a>
</g>
</g>
<!-- Node3&#45;&gt;Node7 -->
<g id="edge13_Node000003_Node000007" class="edge">
<title>Node3&#45;&gt;Node7</title>
<g id="a_edge13_Node000003_Node000007"><a xlink:title=" ">
<path fill="none" stroke="#63b8ff" d="M1578.74,-157.88C1836.65,-154.78 2922.85,-139.88 2987.12,-108.25 3018.62,-92.75 3041.72,-57.46 3053.74,-35.37"/>
<polygon fill="#63b8ff" stroke="#63b8ff" points="3056.82,-37.03 3058.31,-26.54 3050.6,-33.81 3056.82,-37.03"/>
</a>
</g>
</g>
<!-- Node3&#45;&gt;Node9 -->
<g id="edge16_Node000003_Node000009" class="edge">
<title>Node3&#45;&gt;Node9</title>
<g id="a_edge16_Node000003_Node000009"><a xlink:title=" ">
<path fill="none" stroke="#63b8ff" d="M1578.67,-156.88C1732.46,-151.98 2162.1,-135.96 2219.12,-108.25 2241.69,-97.28 2235,-78.33 2257.12,-66.5 2309.68,-38.41 2489.31,-23.25 2561.11,-18.19"/>
<polygon fill="#63b8ff" stroke="#63b8ff" points="2561.2,-21.7 2570.94,-17.52 2560.72,-14.71 2561.2,-21.7"/>
</a>
</g>
</g>
<!-- Node11 -->
<g id="Node000011" class="node">
<title>Node11</title>
<g id="a_Node000011"><a xlink:title=" ">
<polygon fill="#e0e0e0" stroke="#999999" points="506.38,-24.88 467.88,-24.88 467.88,-5.63 506.38,-5.63 506.38,-24.88"/>
<text text-anchor="middle" x="487.12" y="-11.38" font-family="Helvetica,sans-Serif" font-size="10.00">utility</text>
</a>
</g>
</g>
<!-- Node3&#45;&gt;Node11 -->
<g id="edge17_Node000003_Node000011" class="edge">
<title>Node3&#45;&gt;Node11</title>
<g id="a_edge17_Node000003_Node000011"><a xlink:title=" ">
<path fill="none" stroke="#63b8ff" d="M1469.62,-156.21C1260.75,-147.41 522.57,-115.77 513.12,-108.25 491.74,-91.22 487.11,-58.01 486.53,-36.49"/>
<polygon fill="#63b8ff" stroke="#63b8ff" points="490.03,-36.65 486.56,-26.64 483.03,-36.63 490.03,-36.65"/>
</a>
</g>
</g>
<!-- Node3&#45;&gt;Node12 -->
<g id="edge14_Node000003_Node000012" class="edge">
<title>Node3&#45;&gt;Node12</title>
<g id="a_edge14_Node000003_Node000012"><a xlink:title=" ">
<path fill="none" stroke="#63b8ff" d="M1469.68,-156.17C1402.89,-153.31 1286.18,-148.35 1186.12,-144.25 985.25,-136.02 475.78,-162.29 282.12,-108.25 277.61,-106.99 273.05,-105.07 268.75,-102.91"/>
<polygon fill="#63b8ff" stroke="#63b8ff" points="270.57,-99.92 260.14,-98.04 267.12,-106.01 270.57,-99.92"/>
</a>
</g>
</g>
<!-- Node13 -->
<g id="Node000013" class="node">
<title>Node13</title>
<g id="a_Node000013"><a xlink:title=" ">
<polygon fill="#e0e0e0" stroke="#999999" points="2337.88,-97 2266.38,-97 2266.38,-77.75 2337.88,-77.75 2337.88,-97"/>
<text text-anchor="middle" x="2302.12" y="-83.5" font-family="Helvetica,sans-Serif" font-size="10.00">initializer_list</text>
</a>
</g>
</g>
<!-- Node3&#45;&gt;Node13 -->
<g id="edge15_Node000003_Node000013" class="edge">
<title>Node3&#45;&gt;Node13</title>
<g id="a_edge15_Node000003_Node000013"><a xlink:title=" ">
<path fill="none" stroke="#63b8ff" d="M1578.55,-156.92C1724.8,-152.33 2123.88,-137.42 2252.12,-108.25 2259.18,-106.65 2266.54,-104.19 2273.38,-101.55"/>
<polygon fill="#63b8ff" stroke="#63b8ff" points="2274.27,-104.97 2282.17,-97.92 2271.59,-98.5 2274.27,-104.97"/>
</a>
</g>
</g>
<!-- Node14 -->
<g id="Node000014" class="node">
<title>Node14</title>
<g id="a_Node000014"><a xlink:title=" ">
<polygon fill="#e0e0e0" stroke="#999999" points="2460.38,-102.62 2355.88,-102.62 2355.88,-72.12 2460.38,-72.12 2460.38,-102.62"/>
<text text-anchor="start" x="2363.88" y="-89.12" font-family="Helvetica,sans-Serif" font-size="10.00">typed_linear_algebra</text>
<text text-anchor="middle" x="2408.12" y="-77.88" font-family="Helvetica,sans-Serif" font-size="10.00">/algorithm/add.tpp</text>
</a>
</g>
</g>
<!-- Node3&#45;&gt;Node14 -->
<g id="edge18_Node000003_Node000014" class="edge">
<title>Node3&#45;&gt;Node14</title>
<g id="a_edge18_Node000003_Node000014"><a xlink:title=" ">
<path fill="none" stroke="#63b8ff" d="M1578.57,-156.98C1737.52,-152.25 2199.03,-136.42 2347.12,-108.25 2350.31,-107.65 2353.55,-106.92 2356.8,-106.11"/>
<polygon fill="#63b8ff" stroke="#63b8ff" points="2357.64,-109.51 2366.35,-103.49 2355.78,-102.76 2357.64,-109.51"/>
</a>
</g>
</g>
<!-- Node15 -->
<g id="Node000015" class="node">
<title>Node15</title>
<g id="a_Node000015"><a xlink:title=" ">
<polygon fill="#e0e0e0" stroke="#999999" points="2583.38,-102.62 2478.88,-102.62 2478.88,-72.12 2583.38,-72.12 2583.38,-102.62"/>
<text text-anchor="start" x="2486.88" y="-89.12" font-family="Helvetica,sans-Serif" font-size="10.00">typed_linear_algebra</text>
<text text-anchor="middle" x="2531.12" y="-77.88" font-family="Helvetica,sans-Serif" font-size="10.00">/algorithm/divide.tpp</text>
</a>
</g>
</g>
<!-- Node3&#45;&gt;Node15 -->
<g id="edge19_Node000003_Node000015" class="edge">
<title>Node3&#45;&gt;Node15</title>
<g id="a_edge19_Node000003_Node000015"><a xlink:title=" ">
<path fill="none" stroke="#63b8ff" d="M1578.74,-157.44C1753.3,-153.75 2296.43,-139.97 2469.12,-108.25 2472.52,-107.63 2475.98,-106.87 2479.45,-106.02"/>
<polygon fill="#63b8ff" stroke="#63b8ff" points="2480.28,-109.42 2489.02,-103.43 2478.46,-102.66 2480.28,-109.42"/>
</a>
</g>
</g>
<!-- Node16 -->
<g id="Node000016" class="node">
<title>Node16</title>
<g id="a_Node000016"><a xlink:title=" ">
<polygon fill="#e0e0e0" stroke="#999999" points="2706.38,-102.62 2601.88,-102.62 2601.88,-72.12 2706.38,-72.12 2706.38,-102.62"/>
<text text-anchor="start" x="2609.88" y="-89.12" font-family="Helvetica,sans-Serif" font-size="10.00">typed_linear_algebra</text>
<text text-anchor="middle" x="2654.12" y="-77.88" font-family="Helvetica,sans-Serif" font-size="10.00">/algorithm/dot.tpp</text>
</a>
</g>
</g>
<!-- Node3&#45;&gt;Node16 -->
<g id="edge20_Node000003_Node000016" class="edge">
<title>Node3&#45;&gt;Node16</title>
<g id="a_edge20_Node000003_Node000016"><a xlink:title=" ">
<path fill="none" stroke="#63b8ff" d="M1578.43,-157.83C1767.26,-155.21 2394.39,-143.95 2592.12,-108.25 2595.52,-107.64 2598.99,-106.89 2602.46,-106.04"/>
<polygon fill="#63b8ff" stroke="#63b8ff" points="2603.28,-109.45 2612.03,-103.47 2601.46,-102.69 2603.28,-109.45"/>
</a>
</g>
</g>
<!-- Node17 -->
<g id="Node000017" class="node">
<title>Node17</title>
<g id="a_Node000017"><a xlink:title=" ">
<polygon fill="#e0e0e0" stroke="#999999" points="2838.25,-102.62 2724,-102.62 2724,-72.12 2838.25,-72.12 2838.25,-102.62"/>
<text text-anchor="start" x="2732" y="-89.12" font-family="Helvetica,sans-Serif" font-size="10.00">typed_linear_algebra</text>
<text text-anchor="middle" x="2781.12" y="-77.88" font-family="Helvetica,sans-Serif" font-size="10.00">/algorithm/equal_to.tpp</text>
</a>
</g>
</g>
<!-- Node3&#45;&gt;Node17 -->
<g id="edge21_Node000003_Node000017" class="edge">
<title>Node3&#45;&gt;Node17</title>
<g id="a_edge21_Node000003_Node000017"><a xlink:title=" ">
<path fill="none" stroke="#63b8ff" d="M1578.61,-158.01C1781.37,-155.9 2492.06,-145.93 2715.12,-108.25 2718.96,-107.6 2722.88,-106.8 2726.81,-105.89"/>
<polygon fill="#63b8ff" stroke="#63b8ff" points="2727.53,-109.32 2736.36,-103.46 2725.8,-102.53 2727.53,-109.32"/>
</a>
</g>
</g>
<!-- Node18 -->
<g id="Node000018" class="node">
<title>Node18</title>
<g id="a_Node000018"><a xlink:title=" ">
<polygon fill="#e0e0e0" stroke="#999999" points="2978.38,-102.62 2855.88,-102.62 2855.88,-72.12 2978.38,-72.12 2978.38,-102.62"/>
<text text-anchor="start" x="2863.88" y="-89.12" font-family="Helvetica,sans-Serif" font-size="10.00">typed_linear_algebra</text>
<text text-anchor="middle" x="2917.12" y="-77.88" font-family="Helvetica,sans-Serif" font-size="10.00">/algorithm/magnitude.tpp</text>
</a>
</g>
</g>
<!-- Node3&#45;&gt;Node18 -->
<g id="edge22_Node000003_Node000018" class="edge">
<title>Node3&#45;&gt;Node18</title>
<g id="a_edge22_Node000003_Node000018"><a xlink:title=" ">
<path fill="none" stroke="#63b8ff" d="M1578.58,-158.16C1795.29,-156.55 2596.7,-147.97 2847.12,-108.25 2851.42,-107.57 2855.83,-106.71 2860.25,-105.73"/>
<polygon fill="#63b8ff" stroke="#63b8ff" points="2860.79,-109.2 2869.69,-103.46 2859.15,-102.4 2860.79,-109.2"/>
</a>
</g>
</g>
<!-- Node19 -->
<g id="Node000019" class="node">
<title>Node19</title>
<g id="a_Node000019"><a xlink:title=" ">
<polygon fill="#e0e0e0" stroke="#999999" points="663.75,-102.62 522.5,-102.62 522.5,-72.12 663.75,-72.12 663.75,-102.62"/>
<text text-anchor="start" x="530.5" y="-89.12" font-family="Helvetica,sans-Serif" font-size="10.00">typed_linear_algebra</text>
<text text-anchor="middle" x="593.12" y="-77.88" font-family="Helvetica,sans-Serif" font-size="10.00">/algorithm/matrix_product.tpp</text>
</a>
</g>
</g>
<!-- Node3&#45;&gt;Node19 -->
<g id="edge23_Node000003_Node000019" class="edge">
<title>Node3&#45;&gt;Node19</title>
<g id="a_edge23_Node000003_Node000019"><a xlink:title=" ">
<path fill="none" stroke="#63b8ff" d="M1469.55,-155.86C1294.11,-147.31 751.45,-120.19 673.12,-108.25 668.14,-107.49 663,-106.56 657.86,-105.53"/>
<polygon fill="#63b8ff" stroke="#63b8ff" points="658.63,-102.11 648.12,-103.43 657.16,-108.96 658.63,-102.11"/>
</a>
</g>
</g>
<!-- Node20 -->
<g id="Node000020" class="node">
<title>Node20</title>
<g id="a_Node000020"><a xlink:title=" ">
<polygon fill="#e0e0e0" stroke="#999999" points="802.25,-108.25 682,-108.25 682,-66.5 802.25,-66.5 802.25,-108.25"/>
<text text-anchor="start" x="690" y="-94.75" font-family="Helvetica,sans-Serif" font-size="10.00">typed_linear_algebra</text>
<text text-anchor="start" x="690" y="-83.5" font-family="Helvetica,sans-Serif" font-size="10.00">/algorithm/matrix_vector</text>
<text text-anchor="middle" x="742.12" y="-72.25" font-family="Helvetica,sans-Serif" font-size="10.00">_product.tpp</text>
</a>
</g>
</g>
<!-- Node3&#45;&gt;Node20 -->
<g id="edge24_Node000003_Node000020" class="edge">
<title>Node3&#45;&gt;Node20</title>
<g id="a_edge24_Node000003_Node000020"><a xlink:title=" ">
<path fill="none" stroke="#63b8ff" d="M1469.66,-156.15C1329.51,-149.85 957.89,-131.66 813.74,-108.45"/>
<polygon fill="#63b8ff" stroke="#63b8ff" points="814.47,-105.03 804.03,-106.81 813.31,-111.93 814.47,-105.03"/>
</a>
</g>
</g>
<!-- Node21 -->
<g id="Node000021" class="node">
<title>Node21</title>
<g id="a_Node000021"><a xlink:title=" ">
<polygon fill="#e0e0e0" stroke="#999999" points="924.38,-102.62 819.88,-102.62 819.88,-72.12 924.38,-72.12 924.38,-102.62"/>
<text text-anchor="start" x="827.88" y="-89.12" font-family="Helvetica,sans-Serif" font-size="10.00">typed_linear_algebra</text>
<text text-anchor="middle" x="872.12" y="-77.88" font-family="Helvetica,sans-Serif" font-size="10.00">/algorithm/minus.tpp</text>
</a>
</g>
</g>
<!-- Node3&#45;&gt;Node21 -->
<g id="edge25_Node000003_Node000021" class="edge">
<title>Node3&#45;&gt;Node21</title>
<g id="a_edge25_Node000003_Node000021"><a xlink:title=" ">
<path fill="none" stroke="#63b8ff" d="M1469.75,-158.04C1364.9,-156.23 1127.91,-147.71 933.12,-108.25 930,-107.62 926.82,-106.88 923.62,-106.06"/>
<polygon fill="#63b8ff" stroke="#63b8ff" points="924.82,-102.77 914.25,-103.46 922.95,-109.51 924.82,-102.77"/>
</a>
</g>
</g>
<!-- Node22 -->
<g id="Node000022" class="node">
<title>Node22</title>
<g id="a_Node000022"><a xlink:title=" ">
<polygon fill="#e0e0e0" stroke="#999999" points="1052,-102.62 942.25,-102.62 942.25,-72.12 1052,-72.12 1052,-102.62"/>
<text text-anchor="start" x="950.25" y="-89.12" font-family="Helvetica,sans-Serif" font-size="10.00">typed_linear_algebra</text>
<text text-anchor="middle" x="997.12" y="-77.88" font-family="Helvetica,sans-Serif" font-size="10.00">/algorithm/product.tpp</text>
</a>
</g>
</g>
<!-- Node3&#45;&gt;Node22 -->
<g id="edge26_Node000003_Node000022" class="edge">
<title>Node3&#45;&gt;Node22</title>
<g id="a_edge26_Node000003_Node000022"><a xlink:title=" ">
<path fill="none" stroke="#63b8ff" d="M1469.78,-156C1382.73,-151.25 1206.99,-138.52 1061.12,-108.25 1057.97,-107.6 1054.76,-106.85 1051.53,-106.04"/>
<polygon fill="#63b8ff" stroke="#63b8ff" points="1052.58,-102.7 1042.01,-103.49 1050.76,-109.46 1052.58,-102.7"/>
</a>
</g>
</g>
<!-- Node23 -->
<g id="Node000023" class="node">
<title>Node23</title>
<g id="a_Node000023"><a xlink:title=" ">
<polygon fill="#e0e0e0" stroke="#999999" points="1174.38,-102.62 1069.88,-102.62 1069.88,-72.12 1174.38,-72.12 1174.38,-102.62"/>
<text text-anchor="start" x="1077.88" y="-89.12" font-family="Helvetica,sans-Serif" font-size="10.00">typed_linear_algebra</text>
<text text-anchor="middle" x="1122.12" y="-77.88" font-family="Helvetica,sans-Serif" font-size="10.00">/algorithm/scale.tpp</text>
</a>
</g>
</g>
<!-- Node3&#45;&gt;Node23 -->
<g id="edge27_Node000003_Node000023" class="edge">
<title>Node3&#45;&gt;Node23</title>
<g id="a_edge27_Node000003_Node000023"><a xlink:title=" ">
<path fill="none" stroke="#63b8ff" d="M1469.55,-153.33C1401.77,-146.25 1282.89,-131.68 1183.12,-108.25 1180.52,-107.64 1177.86,-106.97 1175.19,-106.25"/>
<polygon fill="#63b8ff" stroke="#63b8ff" points="1176.23,-102.91 1165.65,-103.52 1174.3,-109.64 1176.23,-102.91"/>
</a>
</g>
</g>
<!-- Node24 -->
<g id="Node000024" class="node">
<title>Node24</title>
<g id="a_Node000024"><a xlink:title=" ">
<polygon fill="#e0e0e0" stroke="#999999" points="1310.12,-102.62 1192.12,-102.62 1192.12,-72.12 1310.12,-72.12 1310.12,-102.62"/>
<text text-anchor="start" x="1200.12" y="-89.12" font-family="Helvetica,sans-Serif" font-size="10.00">typed_linear_algebra</text>
<text text-anchor="middle" x="1251.12" y="-77.88" font-family="Helvetica,sans-Serif" font-size="10.00">/algorithm/substract.tpp</text>
</a>
</g>
</g>
<!-- Node3&#45;&gt;Node24 -->
<g id="edge28_Node000003_Node000024" class="edge">
<title>Node3&#45;&gt;Node24</title>
<g id="a_edge28_Node000003_Node000024"><a xlink:title=" ">
<path fill="none" stroke="#63b8ff" d="M1469.57,-145.82C1428.17,-136.03 1369.91,-121.89 1319.12,-108.25 1316.57,-107.56 1313.96,-106.85 1311.33,-106.12"/>
<polygon fill="#63b8ff" stroke="#63b8ff" points="1312.48,-102.81 1301.91,-103.48 1310.59,-109.55 1312.48,-102.81"/>
</a>
</g>
</g>
<!-- Node25 -->
<g id="Node000025" class="node">
<title>Node25</title>
<g id="a_Node000025"><a xlink:title=" ">
<polygon fill="#e0e0e0" stroke="#999999" points="1453.88,-102.62 1328.38,-102.62 1328.38,-72.12 1453.88,-72.12 1453.88,-102.62"/>
<text text-anchor="start" x="1336.38" y="-89.12" font-family="Helvetica,sans-Serif" font-size="10.00">typed_linear_algebra</text>
<text text-anchor="middle" x="1391.12" y="-77.88" font-family="Helvetica,sans-Serif" font-size="10.00">/algorithm/transposed.tpp</text>
</a>
</g>
</g>
<!-- Node3&#45;&gt;Node25 -->
<g id="edge29_Node000003_Node000025" class="edge">
<title>Node3&#45;&gt;Node25</title>
<g id="a_edge29_Node000003_Node000025"><a xlink:title=" ">
<path fill="none" stroke="#63b8ff" d="M1496.24,-143.8C1476.74,-133.51 1450.44,-119.65 1429.04,-108.36"/>
<polygon fill="#63b8ff" stroke="#63b8ff" points="1430.79,-105.33 1420.31,-103.76 1427.52,-111.52 1430.79,-105.33"/>
</a>
</g>
</g>
<!-- Node26 -->
<g id="Node000026" class="node">
<title>Node26</title>
<g id="a_Node000026"><a xlink:title=" ">
<polygon fill="#e0e0e0" stroke="#999999" points="1576.38,-102.62 1471.88,-102.62 1471.88,-72.12 1576.38,-72.12 1576.38,-102.62"/>
<text text-anchor="start" x="1479.88" y="-89.12" font-family="Helvetica,sans-Serif" font-size="10.00">typed_linear_algebra</text>
<text text-anchor="middle" x="1524.12" y="-77.88" font-family="Helvetica,sans-Serif" font-size="10.00">/cast.tpp</text>
</a>
</g>
</g>
<!-- Node3&#45;&gt;Node26 -->
<g id="edge30_Node000003_Node000026" class="edge">
<title>Node3&#45;&gt;Node26</title>
<g id="a_edge30_Node000003_Node000026"><a xlink:title=" ">
<path fill="none" stroke="#63b8ff" d="M1524.12,-143.97C1524.12,-135.41 1524.12,-124.34 1524.12,-114.33"/>
<polygon fill="#63b8ff" stroke="#63b8ff" points="1527.63,-114.4 1524.13,-104.4 1520.63,-114.4 1527.63,-114.4"/>
</a>
</g>
</g>
<!-- Node27 -->
<g id="Node000027" class="node">
<title>Node27</title>
<g id="a_Node000027"><a xlink:title=" ">
<polygon fill="#e0e0e0" stroke="#999999" points="1699.38,-102.62 1594.88,-102.62 1594.88,-72.12 1699.38,-72.12 1699.38,-102.62"/>
<text text-anchor="start" x="1602.88" y="-89.12" font-family="Helvetica,sans-Serif" font-size="10.00">typed_linear_algebra</text>
<text text-anchor="middle" x="1647.12" y="-77.88" font-family="Helvetica,sans-Serif" font-size="10.00">/chrono.tpp</text>
</a>
</g>
</g>
<!-- Node3&#45;&gt;Node27 -->
<g id="edge31_Node000003_Node000027" class="edge">
<title>Node3&#45;&gt;Node27</title>
<g id="a_edge31_Node000003_Node000027"><a xlink:title=" ">
<path fill="none" stroke="#63b8ff" d="M1549.91,-143.8C1567.79,-133.61 1591.82,-119.9 1611.52,-108.67"/>
<polygon fill="#63b8ff" stroke="#63b8ff" points="1613.11,-111.8 1620.06,-103.81 1609.64,-105.72 1613.11,-111.8"/>
</a>
</g>
</g>
<!-- Node28 -->
<g id="Node000028" class="node">
<title>Node28</title>
<g id="a_Node000028"><a xlink:title=" ">
<polygon fill="#e0e0e0" stroke="#999999" points="1822.38,-102.62 1717.88,-102.62 1717.88,-72.12 1822.38,-72.12 1822.38,-102.62"/>
<text text-anchor="start" x="1725.88" y="-89.12" font-family="Helvetica,sans-Serif" font-size="10.00">typed_linear_algebra</text>
<text text-anchor="middle" x="1770.12" y="-77.88" font-family="Helvetica,sans-Serif" font-size="10.00">/common_type.tpp</text>
</a>
</g>
</g>
<!-- Node3&#45;&gt;Node28 -->
<g id="edge32_Node000003_Node000028" class="edge">
<title>Node3&#45;&gt;Node28</title>
<g id="a_edge32_Node000003_Node000028"><a xlink:title=" ">
<path fill="none" stroke="#63b8ff" d="M1578.65,-144.28C1615.36,-134.54 1664.79,-121.11 1708.12,-108.25 1710.11,-107.66 1712.13,-107.05 1714.17,-106.44"/>
<polygon fill="#63b8ff" stroke="#63b8ff" points="1715.19,-109.78 1723.71,-103.49 1713.12,-103.09 1715.19,-109.78"/>
</a>
</g>
</g>
<!-- Node29 -->
<g id="Node000029" class="node">
<title>Node29</title>
<g id="a_Node000029"><a xlink:title=" ">
<polygon fill="#e0e0e0" stroke="#999999" points="1945.38,-102.62 1840.88,-102.62 1840.88,-72.12 1945.38,-72.12 1945.38,-102.62"/>
<text text-anchor="start" x="1848.88" y="-89.12" font-family="Helvetica,sans-Serif" font-size="10.00">typed_linear_algebra</text>
<text text-anchor="middle" x="1893.12" y="-77.88" font-family="Helvetica,sans-Serif" font-size="10.00">/format.tpp</text>
</a>
</g>
</g>
<!-- Node3&#45;&gt;Node29 -->
<g id="edge33_Node000003_Node000029" class="edge">
<title>Node3&#45;&gt;Node29</title>
<g id="a_edge33_Node000003_Node000029"><a xlink:title=" ">
<path fill="none" stroke="#63b8ff" d="M1578.68,-152.05C1640.44,-144.18 1743.83,-129.26 1831.12,-108.25 1833.72,-107.63 1836.37,-106.95 1839.03,-106.23"/>
<polygon fill="#63b8ff" stroke="#63b8ff" points="1839.88,-109.62 1848.54,-103.52 1837.96,-102.89 1839.88,-109.62"/>
</a>
</g>
</g>
<!-- Node30 -->
<g id="Node000030" class="node">
<title>Node30</title>
<g id="a_Node000030"><a xlink:title=" ">
<polygon fill="#e0e0e0" stroke="#999999" points="2068.38,-102.62 1963.88,-102.62 1963.88,-72.12 2068.38,-72.12 2068.38,-102.62"/>
<text text-anchor="start" x="1971.88" y="-89.12" font-family="Helvetica,sans-Serif" font-size="10.00">typed_linear_algebra</text>
<text text-anchor="middle" x="2016.12" y="-77.88" font-family="Helvetica,sans-Serif" font-size="10.00">/tuple.tpp</text>
</a>
</g>
</g>
<!-- Node3&#45;&gt;Node30 -->
<g id="edge34_Node000003_Node000030" class="edge">
<title>Node3&#45;&gt;Node30</title>
<g id="a_edge34_Node000003_Node000030"><a xlink:title=" ">
<path fill="none" stroke="#63b8ff" d="M1578.64,-155.52C1660.82,-150.28 1820.98,-137.08 1954.12,-108.25 1957.08,-107.61 1960.09,-106.89 1963.12,-106.11"/>
<polygon fill="#63b8ff" stroke="#63b8ff" points="1963.91,-109.52 1972.61,-103.47 1962.04,-102.77 1963.91,-109.52"/>
</a>
</g>
</g>
<!-- Node31 -->
<g id="Node000031" class="node">
<title>Node31</title>
<g id="a_Node000031"><a xlink:title=" ">
<polygon fill="#e0e0e0" stroke="#999999" points="2209.75,-102.62 2086.5,-102.62 2086.5,-72.12 2209.75,-72.12 2209.75,-102.62"/>
<text text-anchor="start" x="2094.5" y="-89.12" font-family="Helvetica,sans-Serif" font-size="10.00">typed_linear_algebra</text>
<text text-anchor="middle" x="2148.12" y="-77.88" font-family="Helvetica,sans-Serif" font-size="10.00">/typed_linear_algebra.tpp</text>
</a>
</g>
</g>
<!-- Node3&#45;&gt;Node31 -->
<g id="edge35_Node000003_Node000031" class="edge">
<title>Node3&#45;&gt;Node31</title>
<g id="a_edge35_Node000003_Node000031"><a xlink:title=" ">
<path fill="none" stroke="#63b8ff" d="M1578.73,-156.83C1678.48,-153.06 1896.5,-141.45 2077.12,-108.25 2081.14,-107.51 2085.25,-106.65 2089.38,-105.71"/>
<polygon fill="#63b8ff" stroke="#63b8ff" points="2089.93,-109.18 2098.81,-103.4 2088.27,-102.38 2089.93,-109.18"/>
</a>
</g>
</g>
<!-- Node4&#45;&gt;Node5 -->
<g id="edge4_Node000004_Node000005" class="edge">
<title>Node4&#45;&gt;Node5</title>
<g id="a_edge4_Node000004_Node000005"><a xlink:title=" ">
<path fill="none" stroke="#63b8ff" d="M393.82,-71.85C379.89,-61.88 361.19,-48.49 345.62,-37.36"/>
<polygon fill="#63b8ff" stroke="#63b8ff" points="347.8,-34.62 337.64,-31.64 343.73,-40.31 347.8,-34.62"/>
</a>
</g>
</g>
<!-- Node4&#45;&gt;Node6 -->
<g id="edge5_Node000004_Node000006" class="edge">
<title>Node4&#45;&gt;Node6</title>
<g id="a_edge5_Node000004_Node000006"><a xlink:title=" ">
<path fill="none" stroke="#63b8ff" d="M370.52,-71.67C332.95,-59.01 279.29,-40.92 243.62,-28.89"/>
<polygon fill="#63b8ff" stroke="#63b8ff" points="245.19,-25.73 234.59,-25.85 242.95,-32.36 245.19,-25.73"/>
</a>
</g>
</g>
<!-- Node4&#45;&gt;Node7 -->
<g id="edge6_Node000004_Node000007" class="edge">
<title>Node4&#45;&gt;Node7</title>
<g id="a_edge6_Node000004_Node000007"><a xlink:title=" ">
<path fill="none" stroke="#63b8ff" d="M466.77,-73.97C481.67,-70.96 497.96,-68.14 513.12,-66.5 978.49,-16.23 2151.2,-42.01 2619.12,-30.5 2770.98,-26.77 2951.99,-20.34 3027.41,-17.58"/>
<polygon fill="#63b8ff" stroke="#63b8ff" points="3027.2,-21.09 3037.07,-17.22 3026.95,-14.09 3027.2,-21.09"/>
</a>
</g>
</g>
<!-- Node8 -->
<g id="Node000008" class="node">
<title>Node8</title>
<g id="a_Node000008"><a xlink:title=" ">
<polygon fill="#e0e0e0" stroke="#999999" points="446.12,-24.88 388.12,-24.88 388.12,-5.63 446.12,-5.63 446.12,-24.88"/>
<text text-anchor="middle" x="417.12" y="-11.38" font-family="Helvetica,sans-Serif" font-size="10.00">functional</text>
</a>
</g>
</g>
<!-- Node4&#45;&gt;Node8 -->
<g id="edge7_Node000004_Node000008" class="edge">
<title>Node4&#45;&gt;Node8</title>
<g id="a_edge7_Node000004_Node000008"><a xlink:title=" ">
<path fill="none" stroke="#63b8ff" d="M414.75,-71.85C415.19,-61.59 415.78,-47.7 416.26,-36.38"/>
<polygon fill="#63b8ff" stroke="#63b8ff" points="419.75,-36.66 416.69,-26.52 412.76,-36.36 419.75,-36.66"/>
</a>
</g>
</g>
<!-- Node4&#45;&gt;Node9 -->
<g id="edge8_Node000004_Node000009" class="edge">
<title>Node4&#45;&gt;Node9</title>
<g id="a_edge8_Node000004_Node000009"><a xlink:title=" ">
<path fill="none" stroke="#63b8ff" d="M466.78,-74.04C481.68,-71.03 497.97,-68.19 513.12,-66.5 935.07,-19.41 2336.91,-16.43 2560.84,-16.26"/>
<polygon fill="#63b8ff" stroke="#63b8ff" points="2560.75,-19.76 2570.75,-16.25 2560.75,-12.76 2560.75,-19.76"/>
</a>
</g>
</g>
<!-- Node4&#45;&gt;Node10 -->
<g id="edge9_Node000004_Node000010" class="edge">
<title>Node4&#45;&gt;Node10</title>
<g id="a_edge9_Node000004_Node000010"><a xlink:title=" ">
<path fill="none" stroke="#63b8ff" d="M361.43,-74.9C311.73,-63.94 235.21,-46.75 169.12,-30.5 165.12,-29.52 160.96,-28.47 156.8,-27.4"/>
<polygon fill="#63b8ff" stroke="#63b8ff" points="157.94,-24.08 147.38,-24.95 156.18,-30.85 157.94,-24.08"/>
</a>
</g>
</g>
<!-- Node4&#45;&gt;Node11 -->
<g id="edge10_Node000004_Node000011" class="edge">
<title>Node4&#45;&gt;Node11</title>
<g id="a_edge10_Node000004_Node000011"><a xlink:title=" ">
<path fill="none" stroke="#63b8ff" d="M429.25,-71.85C441.08,-60.48 457.53,-44.68 469.87,-32.82"/>
<polygon fill="#63b8ff" stroke="#63b8ff" points="472.13,-35.51 476.92,-26.06 467.28,-30.46 472.13,-35.51"/>
</a>
</g>
</g>
<!-- Node34&#45;&gt;Node5 -->
<g id="edge45_Node000034_Node000005" class="edge">
<title>Node34&#45;&gt;Node5</title>
<g id="a_edge45_Node000034_Node000005"><a xlink:title=" ">
<path fill="none" stroke="#63b8ff" d="M136.63,-77.35C168.19,-66.61 221.68,-48.4 262.08,-34.65"/>
<polygon fill="#63b8ff" stroke="#63b8ff" points="263.07,-38.01 271.41,-31.47 260.81,-31.38 263.07,-38.01"/>
</a>
</g>
</g>
<!-- Node34&#45;&gt;Node6 -->
<g id="edge47_Node000034_Node000006" class="edge">
<title>Node34&#45;&gt;Node6</title>
<g id="a_edge47_Node000034_Node000006"><a xlink:title=" ">
<path fill="none" stroke="#63b8ff" d="M122.28,-77.49C137.92,-66.07 165.36,-46.03 184.57,-32"/>
<polygon fill="#63b8ff" stroke="#63b8ff" points="186.53,-34.9 192.54,-26.17 182.4,-29.25 186.53,-34.9"/>
</a>
</g>
</g>
<!-- Node34&#45;&gt;Node10 -->
<g id="edge48_Node000034_Node000010" class="edge">
<title>Node34&#45;&gt;Node10</title>
<g id="a_edge48_Node000034_Node000010"><a xlink:title=" ">
<path fill="none" stroke="#63b8ff" d="M110.76,-77.49C111.49,-67.22 112.72,-49.99 113.69,-36.41"/>
<polygon fill="#63b8ff" stroke="#63b8ff" points="117.15,-37.01 114.37,-26.79 110.17,-36.52 117.15,-37.01"/>
</a>
</g>
</g>
<!-- Node35 -->
<g id="Node000035" class="node">
<title>Node35</title>
<g id="a_Node000035"><a xlink:title=" ">
<polygon fill="#e0e0e0" stroke="#999999" points="66.25,-24.88 0,-24.88 0,-5.63 66.25,-5.63 66.25,-24.88"/>
<text text-anchor="middle" x="33.12" y="-11.38" font-family="Helvetica,sans-Serif" font-size="10.00">units/core.h</text>
</a>
</g>
</g>
<!-- Node34&#45;&gt;Node35 -->
<g id="edge46_Node000034_Node000035" class="edge">
<title>Node34&#45;&gt;Node35</title>
<g id="a_edge46_Node000034_Node000035"><a xlink:title=" ">
<path fill="none" stroke="#63b8ff" d="M100.37,-77.49C88.06,-66.28 66.63,-46.76 51.27,-32.77"/>
<polygon fill="#63b8ff" stroke="#63b8ff" points="53.91,-30.45 44.16,-26.3 49.2,-35.62 53.91,-30.45"/>
</a>
</g>
</g>
</g>
</svg>

<g id="navigator" transform="translate(0 0)" fill="#404254">
  <rect fill="#f2f5e9" fill-opacity="0.5" stroke="#606060" stroke-width=".5" x="0" y="0" width="60" height="60"/>
  <use id="zoomplus" xlink:href="#zoomPlus" x="17" y="9" onmousedown="handleZoom(evt,'in')"/>
  <use id="zoomminus" xlink:href="#zoomMin" x="42" y="9" onmousedown="handleZoom(evt,'out')"/>
  <use id="reset" xlink:href="#resetDef" x="30" y="36" onmousedown="handleReset()"/>
   <use id="arrowup" xlink:href="#arrowUp" x="0" y="0" onmousedown="handlePan(0,-1)"/>
  <use id="arrowright" xlink:href="#arrowRight" x="0" y="0" onmousedown="handlePan(1,0)"/>
  <use id="arrowdown" xlink:href="#arrowDown" x="0" y="0" onmousedown="handlePan(0,1)"/>
  <use id="arrowleft" xlink:href="#arrowLeft" x="0" y="0" onmousedown="handlePan(-1,0)"/>
</g>
<svg viewBox="0 0 15 15" width="100%" height="30px" preserveAspectRatio="xMaxYMin meet">
 <g id="arrow_out" transform="scale(0.3 0.3)">
  <a xlink:href="nholthaus__eigen_2fcarouge_2linalg_8hpp__incl_org.svg" target="_base">
   <rect id="button" ry="5" rx="5" y="6" x="6" height="38" width="38"
        fill="#f2f5e9" fill-opacity="0.5" stroke="#606060" stroke-width="1.0"/>
   <path id="arrow"
     d="M 11.500037,31.436501 C 11.940474,20.09759 22.043105,11.32322 32.158766,21.979434 L 37.068811,17.246167 C 37.068811,17.246167 37.088388,32 37.088388,32 L 22.160133,31.978069 C 22.160133,31.978069 26.997745,27.140456 26.997745,27.140456 C 18.528582,18.264221 13.291696,25.230495 11.500037,31.436501 z"
     style="fill:#404040;"/>
  </a>
 </g>
</svg>

<style type='text/css'>
<![CDATA[
[data-mouse-over-selected='false'] { opacity: 0.7; }
[data-mouse-over-selected='true']  { opacity: 1.0; }
]]>
</style>
<script type="application/ecmascript"><![CDATA[
document.addEventListener('DOMContentLoaded', (event) => {
  highlightEdges();
  highlightAdjacentNodes();
});
]]></script>
</svg>
