<?xml version="1.0" encoding="UTF-8" standalone="no"?>
<!DOCTYPE svg PUBLIC "-//W3C//DTD SVG 1.1//EN"
 "http://www.w3.org/Graphics/SVG/1.1/DTD/svg11.dtd">
<!-- Generated by graphviz version 12.2.0 (20241103.1931)
 -->
<!-- Title: /github/workspace/benchmark/plot.cpp Pages: 1 -->
<svg width="682pt" height="94pt"
 viewBox="0.00 0.00 682.38 93.75" xmlns="http://www.w3.org/2000/svg" xmlns:xlink="http://www.w3.org/1999/xlink">
<g id="graph0" class="graph" transform="scale(1 1) rotate(0) translate(4 89.75)">
<title>/github/workspace/benchmark/plot.cpp</title>
<!-- Node1 -->
<g id="Node000001" class="node">
<title>Node1</title>
<g id="a_Node000001"><a xlink:title="Benchmark result visualization tool.">
<polygon fill="#999999" stroke="#666666" points="402.12,-85.75 255.62,-85.75 255.62,-55.25 402.12,-55.25 402.12,-85.75"/>
<text text-anchor="start" x="263.62" y="-72.25" font-family="Helvetica,sans-Serif" font-size="10.00">/github/workspace/benchmark</text>
<text text-anchor="middle" x="328.88" y="-61" font-family="Helvetica,sans-Serif" font-size="10.00">/plot.cpp</text>
</a>
</g>
</g>
<!-- Node2 -->
<g id="Node000002" class="node">
<title>Node2</title>
<g id="a_Node000002"><a xlink:title=" ">
<polygon fill="#e0e0e0" stroke="#999999" points="55.75,-19.25 0,-19.25 0,0 55.75,0 55.75,-19.25"/>
<text text-anchor="middle" x="27.88" y="-5.75" font-family="Helvetica,sans-Serif" font-size="10.00">algorithm</text>
</a>
</g>
</g>
<!-- Node1&#45;&gt;Node2 -->
<g id="edge1_Node000001_Node000002" class="edge">
<title>Node1&#45;&gt;Node2</title>
<g id="a_edge1_Node000001_Node000002"><a xlink:title=" ">
<path fill="none" stroke="#63b8ff" d="M255.29,-56.52C204.71,-47.37 135.75,-34.46 67.15,-19.89"/>
<polygon fill="#63b8ff" stroke="#63b8ff" points="68.14,-16.52 57.62,-17.85 66.67,-23.36 68.14,-16.52"/>
</a>
</g>
</g>
<!-- Node3 -->
<g id="Node000003" class="node">
<title>Node3</title>
<g id="a_Node000003"><a xlink:title=" ">
<polygon fill="#e0e0e0" stroke="#999999" points="116.38,-19.25 73.38,-19.25 73.38,0 116.38,0 116.38,-19.25"/>
<text text-anchor="middle" x="94.88" y="-5.75" font-family="Helvetica,sans-Serif" font-size="10.00">cmath</text>
</a>
</g>
</g>
<!-- Node1&#45;&gt;Node3 -->
<g id="edge2_Node000001_Node000003" class="edge">
<title>Node1&#45;&gt;Node3</title>
<g id="a_edge2_Node000001_Node000003"><a xlink:title=" ">
<path fill="none" stroke="#63b8ff" d="M267.46,-54.78C229.74,-45.63 180.17,-33.41 127.74,-19.69"/>
<polygon fill="#63b8ff" stroke="#63b8ff" points="128.89,-16.37 118.33,-17.21 127.12,-23.14 128.89,-16.37"/>
</a>
</g>
</g>
<!-- Node4 -->
<g id="Node000004" class="node">
<title>Node4</title>
<g id="a_Node000004"><a xlink:title=" ">
<polygon fill="#e0e0e0" stroke="#999999" points="179.12,-19.25 134.62,-19.25 134.62,0 179.12,0 179.12,-19.25"/>
<text text-anchor="middle" x="156.88" y="-5.75" font-family="Helvetica,sans-Serif" font-size="10.00">cstdlib</text>
</a>
</g>
</g>
<!-- Node1&#45;&gt;Node4 -->
<g id="edge3_Node000001_Node000004" class="edge">
<title>Node1&#45;&gt;Node4</title>
<g id="a_edge3_Node000001_Node000004"><a xlink:title=" ">
<path fill="none" stroke="#63b8ff" d="M285.92,-54.8C256.18,-44.62 217.2,-31.27 189.89,-21.93"/>
<polygon fill="#63b8ff" stroke="#63b8ff" points="191.35,-18.73 180.76,-18.8 189.08,-25.35 191.35,-18.73"/>
</a>
</g>
</g>
<!-- Node5 -->
<g id="Node000005" class="node">
<title>Node5</title>
<g id="a_Node000005"><a xlink:title=" ">
<polygon fill="#e0e0e0" stroke="#999999" points="256.62,-19.25 197.12,-19.25 197.12,0 256.62,0 256.62,-19.25"/>
<text text-anchor="middle" x="226.88" y="-5.75" font-family="Helvetica,sans-Serif" font-size="10.00">filesystem</text>
</a>
</g>
</g>
<!-- Node1&#45;&gt;Node5 -->
<g id="edge4_Node000001_Node000005" class="edge">
<title>Node1&#45;&gt;Node5</title>
<g id="a_edge4_Node000001_Node000005"><a xlink:title=" ">
<path fill="none" stroke="#63b8ff" d="M303.4,-54.8C287.72,-45.74 267.69,-34.19 252.06,-25.16"/>
<polygon fill="#63b8ff" stroke="#63b8ff" points="254.24,-22.38 243.83,-20.41 250.74,-28.44 254.24,-22.38"/>
</a>
</g>
</g>
<!-- Node6 -->
<g id="Node000006" class="node">
<title>Node6</title>
<g id="a_Node000006"><a xlink:title=" ">
<polygon fill="#e0e0e0" stroke="#999999" points="323.38,-19.25 274.38,-19.25 274.38,0 323.38,0 323.38,-19.25"/>
<text text-anchor="middle" x="298.88" y="-5.75" font-family="Helvetica,sans-Serif" font-size="10.00">fstream</text>
</a>
</g>
</g>
<!-- Node1&#45;&gt;Node6 -->
<g id="edge5_Node000001_Node000006" class="edge">
<title>Node1&#45;&gt;Node6</title>
<g id="a_edge5_Node000001_Node000006"><a xlink:title=" ">
<path fill="none" stroke="#63b8ff" d="M321.46,-54.95C317.59,-47.36 312.82,-37.99 308.65,-29.82"/>
<polygon fill="#63b8ff" stroke="#63b8ff" points="311.85,-28.37 304.19,-21.05 305.61,-31.55 311.85,-28.37"/>
</a>
</g>
</g>
<!-- Node7 -->
<g id="Node000007" class="node">
<title>Node7</title>
<g id="a_Node000007"><a xlink:title=" ">
<polygon fill="#e0e0e0" stroke="#999999" points="376.25,-19.25 341.5,-19.25 341.5,0 376.25,0 376.25,-19.25"/>
<text text-anchor="middle" x="358.88" y="-5.75" font-family="Helvetica,sans-Serif" font-size="10.00">map</text>
</a>
</g>
</g>
<!-- Node1&#45;&gt;Node7 -->
<g id="edge6_Node000001_Node000007" class="edge">
<title>Node1&#45;&gt;Node7</title>
<g id="a_edge6_Node000001_Node000007"><a xlink:title=" ">
<path fill="none" stroke="#63b8ff" d="M336.29,-54.95C340.16,-47.36 344.93,-37.99 349.1,-29.82"/>
<polygon fill="#63b8ff" stroke="#63b8ff" points="352.14,-31.55 353.56,-21.05 345.9,-28.37 352.14,-31.55"/>
</a>
</g>
</g>
<!-- Node8 -->
<g id="Node000008" class="node">
<title>Node8</title>
<g id="a_Node000008"><a xlink:title=" ">
<polygon fill="#e0e0e0" stroke="#999999" points="445.5,-19.25 394.25,-19.25 394.25,0 445.5,0 445.5,-19.25"/>
<text text-anchor="middle" x="419.88" y="-5.75" font-family="Helvetica,sans-Serif" font-size="10.00">sstream</text>
</a>
</g>
</g>
<!-- Node1&#45;&gt;Node8 -->
<g id="edge7_Node000001_Node000008" class="edge">
<title>Node1&#45;&gt;Node8</title>
<g id="a_edge7_Node000001_Node000008"><a xlink:title=" ">
<path fill="none" stroke="#63b8ff" d="M351.37,-54.95C365.09,-46.07 382.6,-34.74 396.48,-25.76"/>
<polygon fill="#63b8ff" stroke="#63b8ff" points="398.08,-28.89 404.58,-20.52 394.28,-23.02 398.08,-28.89"/>
</a>
</g>
</g>
<!-- Node9 -->
<g id="Node000009" class="node">
<title>Node9</title>
<g id="a_Node000009"><a xlink:title=" ">
<polygon fill="#e0e0e0" stroke="#999999" points="503.88,-19.25 463.88,-19.25 463.88,0 503.88,0 503.88,-19.25"/>
<text text-anchor="middle" x="483.88" y="-5.75" font-family="Helvetica,sans-Serif" font-size="10.00">string</text>
</a>
</g>
</g>
<!-- Node1&#45;&gt;Node9 -->
<g id="edge8_Node000001_Node000009" class="edge">
<title>Node1&#45;&gt;Node9</title>
<g id="a_edge8_Node000001_Node000009"><a xlink:title=" ">
<path fill="none" stroke="#63b8ff" d="M367.59,-54.8C394.03,-44.75 428.58,-31.63 453.13,-22.3"/>
<polygon fill="#63b8ff" stroke="#63b8ff" points="454.12,-25.67 462.23,-18.85 451.64,-19.13 454.12,-25.67"/>
</a>
</g>
</g>
<!-- Node10 -->
<g id="Node000010" class="node">
<title>Node10</title>
<g id="a_Node000010"><a xlink:title=" ">
<polygon fill="#e0e0e0" stroke="#999999" points="565.38,-19.25 522.38,-19.25 522.38,0 565.38,0 565.38,-19.25"/>
<text text-anchor="middle" x="543.88" y="-5.75" font-family="Helvetica,sans-Serif" font-size="10.00">vector</text>
</a>
</g>
</g>
<!-- Node1&#45;&gt;Node10 -->
<g id="edge9_Node000001_Node000010" class="edge">
<title>Node1&#45;&gt;Node10</title>
<g id="a_edge9_Node000001_Node000010"><a xlink:title=" ">
<path fill="none" stroke="#63b8ff" d="M382.84,-54.84C417.01,-45.53 462.42,-33.14 511.37,-19.66"/>
<polygon fill="#63b8ff" stroke="#63b8ff" points="512.03,-23.1 520.74,-17.07 510.17,-16.36 512.03,-23.1"/>
</a>
</g>
</g>
<!-- Node11 -->
<g id="Node000011" class="node">
<title>Node11</title>
<g id="a_Node000011"><a xlink:title=" ">
<polygon fill="#e0e0e0" stroke="#999999" points="674.38,-19.25 583.38,-19.25 583.38,0 674.38,0 674.38,-19.25"/>
<text text-anchor="middle" x="628.88" y="-5.75" font-family="Helvetica,sans-Serif" font-size="10.00">matplot/matplot.h</text>
</a>
</g>
</g>
<!-- Node1&#45;&gt;Node11 -->
<g id="edge10_Node000001_Node000011" class="edge">
<title>Node1&#45;&gt;Node11</title>
<g id="a_edge10_Node000001_Node000011"><a xlink:title=" ">
<path fill="none" stroke="#63b8ff" d="M402.26,-55.1C454.62,-44.82 523.99,-31.21 572.13,-21.76"/>
<polygon fill="#63b8ff" stroke="#63b8ff" points="572.65,-25.23 581.79,-19.87 571.3,-18.36 572.65,-25.23"/>
</a>
</g>
</g>
</g>
</svg>
