<?xml version="1.0" encoding="UTF-8" standalone="no"?>
<!DOCTYPE svg PUBLIC "-//W3C//DTD SVG 1.1//EN"
 "http://www.w3.org/Graphics/SVG/1.1/DTD/svg11.dtd">
<!-- Generated by graphviz version 12.2.0 (20241103.1931)
 -->
<!-- Title: /github/workspace/support/quantity/fcarouge/linalg.hpp Pages: 1 -->
<!--zoomable 349 -->

<svg id="main" version="1.1" xmlns="http://www.w3.org/2000/svg" xmlns:xlink="http://www.w3.org/1999/xlink" xml:space="preserve" onload="init(evt)">

<style type="text/css"><![CDATA[
.node, .edge {opacity: 0.7;}
.node.selected, .edge.selected {opacity: 1;}
.edge:hover path { stroke: red; }
.edge:hover polygon { stroke: red; fill: red; }
]]></style>

<defs>
  <circle id="rim" cx="0" cy="0" r="7"/>
  <circle id="rim2" cx="0" cy="0" r="3.5"/>
  <g id="zoomPlus">
    <use xlink:href="#rim" fill="#404040"><set attributeName="fill" to="#808080" begin="zoomplus.mouseover" end="zoomplus.mouseout"/></use>
    <path d="M-4,0h8M0,-4v8" fill="none" stroke="white" stroke-width="1.5" pointer-events="none"/>
  </g>
  <g id="zoomMin">
    <use xlink:href="#rim" fill="#404040"><set attributeName="fill" to="#808080" begin="zoomminus.mouseover" end="zoomminus.mouseout"/></use>
    <path d="M-4,0h8" fill="none" stroke="white" stroke-width="1.5" pointer-events="none"/>
  </g>
  <g id="arrowUp" transform="translate(30 24)">
    <use xlink:href="#rim"/>
    <path pointer-events="none" fill="none" stroke="white" stroke-width="1.5" d="M0,-3.0v7 M-2.5,-0.5L0,-3.0L2.5,-0.5"/>
  </g>
  <g id="arrowRight" transform="rotate(90) translate(36 -43)">
    <use xlink:href="#rim"/>
    <path pointer-events="none" fill="none" stroke="white" stroke-width="1.5" d="M0,-3.0v7 M-2.5,-0.5L0,-3.0L2.5,-0.5"/>
  </g>
  <g id="arrowDown" transform="rotate(180) translate(-30 -48)">
    <use xlink:href="#rim"/>
    <path pointer-events="none" fill="none" stroke="white" stroke-width="1.5" d="M0,-3.0v7 M-2.5,-0.5L0,-3.0L2.5,-0.5"/>
  </g>
  <g id="arrowLeft" transform="rotate(270) translate(-36 17)">
    <use xlink:href="#rim"/>
    <path pointer-events="none" fill="none" stroke="white" stroke-width="1.5" d="M0,-3.0v7 M-2.5,-0.5L0,-3.0L2.5,-0.5"/>
  </g>
  <g id="resetDef">
    <use xlink:href="#rim2" fill="#404040"><set attributeName="fill" to="#808080" begin="reset.mouseover" end="reset.mouseout"/></use>
  </g>
</defs>
<script type="application/ecmascript">
var viewWidth = 3042;
var viewHeight = 349;
var sectionId = 'dynsection-0';
</script>
<script type="application/ecmascript" xlink:href="svg.min.js"/>
<svg id="graph" class="graph">
<g id="viewport">
<title>/github/workspace/support/quantity/fcarouge/linalg.hpp</title>
<!-- Node1 -->
<g id="Node000001" class="node">
<title>Node1</title>
<g id="a_Node000001"><a xlink:title="Indexed&#45;based linear algebra with mp&#45;units with Eigen implementations.">
<polygon fill="#999999" stroke="#666666" points="1227.88,-340.5 1091.12,-340.5 1091.12,-310 1227.88,-310 1227.88,-340.5"/>
<text text-anchor="start" x="1099.12" y="-327" font-family="Helvetica,sans-Serif" font-size="10.00">/github/workspace/support</text>
<text text-anchor="middle" x="1159.5" y="-315.75" font-family="Helvetica,sans-Serif" font-size="10.00">/quantity/fcarouge/linalg.hpp</text>
</a>
</g>
</g>
<!-- Node2 -->
<g id="Node000002" class="node">
<title>Node2</title>
<g id="a_Node000002"><a xlink:href="eigen_8hpp.xhtml" target="_top" xlink:title="Linear algebra facade for Eigen3 third party implementation.">
<polygon fill="white" stroke="#666666" points="334.38,-274 236.62,-274 236.62,-254.75 334.38,-254.75 334.38,-274"/>
<text text-anchor="middle" x="285.5" y="-260.5" font-family="Helvetica,sans-Serif" font-size="10.00">fcarouge/eigen.hpp</text>
</a>
</g>
</g>
<!-- Node1&#45;&gt;Node2 -->
<g id="edge1_Node000001_Node000002" class="edge">
<title>Node1&#45;&gt;Node2</title>
<g id="a_edge1_Node000001_Node000002"><a xlink:title=" ">
<path fill="none" stroke="#63b8ff" d="M1090.92,-319.63C924.85,-308.44 503.25,-280.04 345.93,-269.45"/>
<polygon fill="#63b8ff" stroke="#63b8ff" points="346.34,-265.97 336.13,-268.79 345.87,-272.95 346.34,-265.97"/>
</a>
</g>
</g>
<!-- Node3 -->
<g id="Node000003" class="node">
<title>Node3</title>
<g id="a_Node000003"><a xlink:href="typed__linear__algebra_8hpp.xhtml" target="_top" xlink:title="Typed linear algebra implementation.">
<polygon fill="white" stroke="#666666" points="1213.62,-218.75 1105.38,-218.75 1105.38,-188.25 1213.62,-188.25 1213.62,-218.75"/>
<text text-anchor="start" x="1113.38" y="-205.25" font-family="Helvetica,sans-Serif" font-size="10.00">fcarouge/typed_linear</text>
<text text-anchor="middle" x="1159.5" y="-194" font-family="Helvetica,sans-Serif" font-size="10.00">_algebra.hpp</text>
</a>
</g>
</g>
<!-- Node1&#45;&gt;Node3 -->
<g id="edge37_Node000001_Node000003" class="edge">
<title>Node1&#45;&gt;Node3</title>
<g id="a_edge37_Node000001_Node000003"><a xlink:title=" ">
<path fill="none" stroke="#63b8ff" d="M1159.5,-309.57C1159.5,-289.89 1159.5,-254.64 1159.5,-230.44"/>
<polygon fill="#63b8ff" stroke="#63b8ff" points="1163,-230.44 1159.5,-220.44 1156,-230.44 1163,-230.44"/>
</a>
</g>
</g>
<!-- Node28 -->
<g id="Node000028" class="node">
<title>Node28</title>
<g id="a_Node000028"><a xlink:href="unit_8hpp.xhtml" target="_top" xlink:title="Quantities and units facade for mp&#45;units third party implementation.">
<polygon fill="white" stroke="#666666" points="2741.62,-274 2651.38,-274 2651.38,-254.75 2741.62,-254.75 2741.62,-274"/>
<text text-anchor="middle" x="2696.5" y="-260.5" font-family="Helvetica,sans-Serif" font-size="10.00">fcarouge/unit.hpp</text>
</a>
</g>
</g>
<!-- Node1&#45;&gt;Node28 -->
<g id="edge38_Node000001_Node000028" class="edge">
<title>Node1&#45;&gt;Node28</title>
<g id="a_edge38_Node000001_Node000028"><a xlink:title=" ">
<path fill="none" stroke="#63b8ff" d="M1228.28,-321.62C1487.28,-311.69 2401.22,-276.69 2639.4,-267.56"/>
<polygon fill="#63b8ff" stroke="#63b8ff" points="2639.5,-271.06 2649.36,-267.18 2639.24,-264.07 2639.5,-271.06"/>
</a>
</g>
</g>
<!-- Node2&#45;&gt;Node3 -->
<g id="edge2_Node000002_Node000003" class="edge">
<title>Node2&#45;&gt;Node3</title>
<g id="a_edge2_Node000002_Node000003"><a xlink:title=" ">
<path fill="none" stroke="#63b8ff" d="M334.68,-260.06C482.88,-250.08 925.33,-220.27 1093.58,-208.94"/>
<polygon fill="#63b8ff" stroke="#63b8ff" points="1093.72,-212.44 1103.46,-208.28 1093.25,-205.46 1093.72,-212.44"/>
</a>
</g>
</g>
<!-- Node7 -->
<g id="Node000007" class="node">
<title>Node7</title>
<g id="a_Node000007"><a xlink:title=" ">
<polygon fill="#e0e0e0" stroke="#999999" points="161.38,-19.25 105.62,-19.25 105.62,0 161.38,0 161.38,-19.25"/>
<text text-anchor="middle" x="133.5" y="-5.75" font-family="Helvetica,sans-Serif" font-size="10.00">concepts</text>
</a>
</g>
</g>
<!-- Node2&#45;&gt;Node7 -->
<g id="edge30_Node000002_Node000007" class="edge">
<title>Node2&#45;&gt;Node7</title>
<g id="a_edge30_Node000002_Node000007"><a xlink:title=" ">
<path fill="none" stroke="#63b8ff" d="M236.26,-258.82C208.83,-253.6 176.47,-242.45 157.5,-218.75 112.99,-163.15 122.53,-70.84 129.47,-30.51"/>
<polygon fill="#63b8ff" stroke="#63b8ff" points="132.88,-31.32 131.29,-20.84 126,-30.03 132.88,-31.32"/>
</a>
</g>
</g>
<!-- Node9 -->
<g id="Node000009" class="node">
<title>Node9</title>
<g id="a_Node000009"><a xlink:title=" ">
<polygon fill="#e0e0e0" stroke="#999999" points="2442,-19.25 2405,-19.25 2405,0 2442,0 2442,-19.25"/>
<text text-anchor="middle" x="2423.5" y="-5.75" font-family="Helvetica,sans-Serif" font-size="10.00">tuple</text>
</a>
</g>
</g>
<!-- Node2&#45;&gt;Node9 -->
<g id="edge34_Node000002_Node000009" class="edge">
<title>Node2&#45;&gt;Node9</title>
<g id="a_edge34_Node000002_Node000009"><a xlink:title=" ">
<path fill="none" stroke="#63b8ff" d="M334.78,-261.19C474.14,-254.99 883,-236.55 1222.5,-218.75 1480.79,-205.21 2183.32,-314.81 2384.5,-152.25 2421.11,-122.67 2425.2,-62.12 2424.64,-30.64"/>
<polygon fill="#63b8ff" stroke="#63b8ff" points="2428.15,-30.81 2424.27,-20.95 2421.15,-31.08 2428.15,-30.81"/>
</a>
</g>
</g>
<!-- Node10 -->
<g id="Node000010" class="node">
<title>Node10</title>
<g id="a_Node000010"><a xlink:title=" ">
<polygon fill="#e0e0e0" stroke="#999999" points="1249,-19.25 1188,-19.25 1188,0 1249,0 1249,-19.25"/>
<text text-anchor="middle" x="1218.5" y="-5.75" font-family="Helvetica,sans-Serif" font-size="10.00">type_traits</text>
</a>
</g>
</g>
<!-- Node2&#45;&gt;Node10 -->
<g id="edge35_Node000002_Node000010" class="edge">
<title>Node2&#45;&gt;Node10</title>
<g id="a_edge35_Node000002_Node000010"><a xlink:title=" ">
<path fill="none" stroke="#63b8ff" d="M277.07,-254.52C248.07,-223.03 157.23,-115.12 214.5,-55.25 248.23,-19.99 989.73,-12.28 1176.23,-10.89"/>
<polygon fill="#63b8ff" stroke="#63b8ff" points="1176.21,-14.39 1186.18,-10.82 1176.16,-7.39 1176.21,-14.39"/>
</a>
</g>
</g>
<!-- Node11 -->
<g id="Node000011" class="node">
<title>Node11</title>
<g id="a_Node000011"><a xlink:title=" ">
<polygon fill="#e0e0e0" stroke="#999999" points="271.62,-74.5 223.38,-74.5 223.38,-55.25 271.62,-55.25 271.62,-74.5"/>
<text text-anchor="middle" x="247.5" y="-61" font-family="Helvetica,sans-Serif" font-size="10.00">cstddef</text>
</a>
</g>
</g>
<!-- Node2&#45;&gt;Node11 -->
<g id="edge31_Node000002_Node000011" class="edge">
<title>Node2&#45;&gt;Node11</title>
<g id="a_edge31_Node000002_Node000011"><a xlink:title=" ">
<path fill="none" stroke="#63b8ff" d="M282.2,-254.25C279.07,-245.31 274.42,-231.24 271.5,-218.75 260.52,-171.81 253.14,-115.56 249.71,-86.12"/>
<polygon fill="#63b8ff" stroke="#63b8ff" points="253.21,-85.97 248.62,-76.43 246.26,-86.76 253.21,-85.97"/>
</a>
</g>
</g>
<!-- Node12 -->
<g id="Node000012" class="node">
<title>Node12</title>
<g id="a_Node000012"><a xlink:title=" ">
<polygon fill="#e0e0e0" stroke="#999999" points="345.38,-74.5 301.62,-74.5 301.62,-55.25 345.38,-55.25 345.38,-74.5"/>
<text text-anchor="middle" x="323.5" y="-61" font-family="Helvetica,sans-Serif" font-size="10.00">format</text>
</a>
</g>
</g>
<!-- Node2&#45;&gt;Node12 -->
<g id="edge32_Node000002_Node000012" class="edge">
<title>Node2&#45;&gt;Node12</title>
<g id="a_edge32_Node000002_Node000012"><a xlink:title=" ">
<path fill="none" stroke="#63b8ff" d="M287.23,-254.38C292.97,-224.56 311.45,-128.5 319.59,-86.2"/>
<polygon fill="#63b8ff" stroke="#63b8ff" points="323.02,-86.89 321.47,-76.41 316.15,-85.57 323.02,-86.89"/>
</a>
</g>
</g>
<!-- Node26 -->
<g id="Node000026" class="node">
<title>Node26</title>
<g id="a_Node000026"><a xlink:title=" ">
<polygon fill="#e0e0e0" stroke="#999999" points="365.12,-213.12 313.88,-213.12 313.88,-193.88 365.12,-193.88 365.12,-213.12"/>
<text text-anchor="middle" x="339.5" y="-199.62" font-family="Helvetica,sans-Serif" font-size="10.00">sstream</text>
</a>
</g>
</g>
<!-- Node2&#45;&gt;Node26 -->
<g id="edge33_Node000002_Node000026" class="edge">
<title>Node2&#45;&gt;Node26</title>
<g id="a_edge33_Node000002_Node000026"><a xlink:title=" ">
<path fill="none" stroke="#63b8ff" d="M293.7,-254.43C301.63,-245.79 313.85,-232.46 323.68,-221.75"/>
<polygon fill="#63b8ff" stroke="#63b8ff" points="326.02,-224.38 330.2,-214.64 320.86,-219.65 326.02,-224.38"/>
</a>
</g>
</g>
<!-- Node27 -->
<g id="Node000027" class="node">
<title>Node27</title>
<g id="a_Node000027"><a xlink:title=" ">
<polygon fill="#e0e0e0" stroke="#999999" points="67,-213.12 0,-213.12 0,-193.88 67,-193.88 67,-213.12"/>
<text text-anchor="middle" x="33.5" y="-199.62" font-family="Helvetica,sans-Serif" font-size="10.00">Eigen/Eigen</text>
</a>
</g>
</g>
<!-- Node2&#45;&gt;Node27 -->
<g id="edge36_Node000002_Node000027" class="edge">
<title>Node2&#45;&gt;Node27</title>
<g id="a_edge36_Node000002_Node000027"><a xlink:title=" ">
<path fill="none" stroke="#63b8ff" d="M239.5,-254.31C198,-245.9 135.39,-232.62 81.5,-218.75 78.94,-218.09 76.32,-217.39 73.67,-216.66"/>
<polygon fill="#63b8ff" stroke="#63b8ff" points="74.88,-213.37 64.31,-214 72.97,-220.1 74.88,-213.37"/>
</a>
</g>
</g>
<!-- Node4 -->
<g id="Node000004" class="node">
<title>Node4</title>
<g id="a_Node000004"><a xlink:href="typed__linear__algebra__forward_8hpp.xhtml" target="_top" xlink:title="Authoritative forward declaration header.">
<polygon fill="white" stroke="#666666" points="2234.75,-146.62 2130.25,-146.62 2130.25,-116.12 2234.75,-116.12 2234.75,-146.62"/>
<text text-anchor="start" x="2138.25" y="-133.12" font-family="Helvetica,sans-Serif" font-size="10.00">typed_linear_algebra</text>
<text text-anchor="middle" x="2182.5" y="-121.88" font-family="Helvetica,sans-Serif" font-size="10.00">_forward.hpp</text>
</a>
</g>
</g>
<!-- Node3&#45;&gt;Node4 -->
<g id="edge3_Node000003_Node000004" class="edge">
<title>Node3&#45;&gt;Node4</title>
<g id="a_edge3_Node000003_Node000004"><a xlink:title=" ">
<path fill="none" stroke="#63b8ff" d="M1213.86,-201.54C1390.24,-198.11 1945.35,-184.96 2121.5,-152.25 2124.84,-151.63 2128.25,-150.87 2131.67,-150.03"/>
<polygon fill="#63b8ff" stroke="#63b8ff" points="2132.35,-153.47 2141.07,-147.45 2130.5,-146.72 2132.35,-153.47"/>
</a>
</g>
</g>
<!-- Node5 -->
<g id="Node000005" class="node">
<title>Node5</title>
<g id="a_Node000005"><a xlink:href="format_8hpp.xhtml" target="_top" xlink:title="Formatting support for the typed matrix.">
<polygon fill="white" stroke="#666666" points="2357.75,-146.62 2253.25,-146.62 2253.25,-116.12 2357.75,-116.12 2357.75,-146.62"/>
<text text-anchor="start" x="2261.25" y="-133.12" font-family="Helvetica,sans-Serif" font-size="10.00">typed_linear_algebra</text>
<text text-anchor="middle" x="2305.5" y="-121.88" font-family="Helvetica,sans-Serif" font-size="10.00">_internal/format.hpp</text>
</a>
</g>
</g>
<!-- Node3&#45;&gt;Node5 -->
<g id="edge4_Node000003_Node000005" class="edge">
<title>Node3&#45;&gt;Node5</title>
<g id="a_edge4_Node000003_Node000005"><a xlink:title=" ">
<path fill="none" stroke="#63b8ff" d="M1213.96,-201.87C1404.8,-199.37 2042.56,-188.46 2243.5,-152.25 2246.89,-151.64 2250.36,-150.89 2253.83,-150.05"/>
<polygon fill="#63b8ff" stroke="#63b8ff" points="2254.66,-153.45 2263.4,-147.47 2252.84,-146.69 2254.66,-153.45"/>
</a>
</g>
</g>
<!-- Node6 -->
<g id="Node000006" class="node">
<title>Node6</title>
<g id="a_Node000006"><a xlink:href="utility_8hpp.xhtml" target="_top" xlink:title=" ">
<polygon fill="white" stroke="#666666" points="2333.75,-74.5 2277.25,-74.5 2277.25,-55.25 2333.75,-55.25 2333.75,-74.5"/>
<text text-anchor="middle" x="2305.5" y="-61" font-family="Helvetica,sans-Serif" font-size="10.00">utility.hpp</text>
</a>
</g>
</g>
<!-- Node3&#45;&gt;Node6 -->
<g id="edge12_Node000003_Node000006" class="edge">
<title>Node3&#45;&gt;Node6</title>
<g id="a_edge12_Node000003_Node000006"><a xlink:title=" ">
<path fill="none" stroke="#63b8ff" d="M1214.02,-202.31C1444.16,-201.23 2326.12,-194.35 2366.5,-152.25 2379.34,-138.86 2374.9,-127.05 2366.5,-110.5 2360.07,-97.83 2348.17,-87.89 2336.57,-80.65"/>
<polygon fill="#63b8ff" stroke="#63b8ff" points="2338.34,-77.63 2327.92,-75.72 2334.87,-83.71 2338.34,-77.63"/>
</a>
</g>
</g>
<!-- Node3&#45;&gt;Node7 -->
<g id="edge13_Node000003_Node000007" class="edge">
<title>Node3&#45;&gt;Node7</title>
<g id="a_edge13_Node000003_Node000007"><a xlink:title=" ">
<path fill="none" stroke="#63b8ff" d="M1105.16,-201.72C923.76,-198.81 346.18,-186.89 270.5,-152.25 211.53,-125.26 164.77,-60.58 144.48,-28.83"/>
<polygon fill="#63b8ff" stroke="#63b8ff" points="147.68,-27.36 139.43,-20.72 141.74,-31.06 147.68,-27.36"/>
</a>
</g>
</g>
<!-- Node3&#45;&gt;Node9 -->
<g id="edge17_Node000003_Node000009" class="edge">
<title>Node3&#45;&gt;Node9</title>
<g id="a_edge17_Node000003_Node000009"><a xlink:title=" ">
<path fill="none" stroke="#63b8ff" d="M1213.78,-202.04C1445,-199.87 2338.1,-189.12 2384.5,-152.25 2421.35,-122.96 2425.34,-62.29 2424.69,-30.71"/>
<polygon fill="#63b8ff" stroke="#63b8ff" points="2428.2,-30.83 2424.3,-20.98 2421.21,-31.12 2428.2,-30.83"/>
</a>
</g>
</g>
<!-- Node3&#45;&gt;Node11 -->
<g id="edge14_Node000003_Node000011" class="edge">
<title>Node3&#45;&gt;Node11</title>
<g id="a_edge14_Node000003_Node000011"><a xlink:title=" ">
<path fill="none" stroke="#63b8ff" d="M1104.95,-201.76C929.69,-199.03 388.26,-187.8 318.5,-152.25 289.75,-137.6 268.4,-105.56 256.96,-84.89"/>
<polygon fill="#63b8ff" stroke="#63b8ff" points="260.1,-83.32 252.35,-76.1 253.9,-86.58 260.1,-83.32"/>
</a>
</g>
</g>
<!-- Node3&#45;&gt;Node12 -->
<g id="edge15_Node000003_Node000012" class="edge">
<title>Node3&#45;&gt;Node12</title>
<g id="a_edge15_Node000003_Node000012"><a xlink:title=" ">
<path fill="none" stroke="#63b8ff" d="M1105.1,-202.88C931.74,-203.58 400.23,-201.65 342.5,-152.25 323.75,-136.2 321.05,-106.26 321.65,-86.19"/>
<polygon fill="#63b8ff" stroke="#63b8ff" points="325.12,-86.64 322.25,-76.45 318.14,-86.21 325.12,-86.64"/>
</a>
</g>
</g>
<!-- Node13 -->
<g id="Node000013" class="node">
<title>Node13</title>
<g id="a_Node000013"><a xlink:title=" ">
<polygon fill="#e0e0e0" stroke="#999999" points="423.25,-141 351.75,-141 351.75,-121.75 423.25,-121.75 423.25,-141"/>
<text text-anchor="middle" x="387.5" y="-127.5" font-family="Helvetica,sans-Serif" font-size="10.00">initializer_list</text>
</a>
</g>
</g>
<!-- Node3&#45;&gt;Node13 -->
<g id="edge16_Node000003_Node000013" class="edge">
<title>Node3&#45;&gt;Node13</title>
<g id="a_edge16_Node000003_Node000013"><a xlink:title=" ">
<path fill="none" stroke="#63b8ff" d="M1105.09,-201.17C958.89,-197.22 560,-183.78 432.5,-152.25 426.39,-150.74 420.06,-148.45 414.15,-145.95"/>
<polygon fill="#63b8ff" stroke="#63b8ff" points="416.03,-142.96 405.48,-141.99 413.12,-149.33 416.03,-142.96"/>
</a>
</g>
</g>
<!-- Node14 -->
<g id="Node000014" class="node">
<title>Node14</title>
<g id="a_Node000014"><a xlink:title=" ">
<polygon fill="#e0e0e0" stroke="#999999" points="479.75,-141 441.25,-141 441.25,-121.75 479.75,-121.75 479.75,-141"/>
<text text-anchor="middle" x="460.5" y="-127.5" font-family="Helvetica,sans-Serif" font-size="10.00">utility</text>
</a>
</g>
</g>
<!-- Node3&#45;&gt;Node14 -->
<g id="edge18_Node000003_Node000014" class="edge">
<title>Node3&#45;&gt;Node14</title>
<g id="a_edge18_Node000003_Node000014"><a xlink:title=" ">
<path fill="none" stroke="#63b8ff" d="M1104.9,-202.16C965.87,-200.7 601.49,-192.98 488.5,-152.25 485.5,-151.17 482.53,-149.67 479.72,-147.98"/>
<polygon fill="#63b8ff" stroke="#63b8ff" points="481.8,-145.17 471.61,-142.27 477.76,-150.89 481.8,-145.17"/>
</a>
</g>
</g>
<!-- Node15 -->
<g id="Node000015" class="node">
<title>Node15</title>
<g id="a_Node000015"><a xlink:title=" ">
<polygon fill="#e0e0e0" stroke="#999999" points="627.5,-146.62 497.5,-146.62 497.5,-116.12 627.5,-116.12 627.5,-146.62"/>
<text text-anchor="start" x="505.5" y="-133.12" font-family="Helvetica,sans-Serif" font-size="10.00">typed_linear_algebra</text>
<text text-anchor="middle" x="562.5" y="-121.88" font-family="Helvetica,sans-Serif" font-size="10.00">_internal/algorithm/add.tpp</text>
</a>
</g>
</g>
<!-- Node3&#45;&gt;Node15 -->
<g id="edge19_Node000003_Node000015" class="edge">
<title>Node3&#45;&gt;Node15</title>
<g id="a_edge19_Node000003_Node000015"><a xlink:title=" ">
<path fill="none" stroke="#63b8ff" d="M1104.88,-200.25C1009.28,-195.65 805.69,-182.88 636.5,-152.25 632.4,-151.51 628.19,-150.65 623.96,-149.71"/>
<polygon fill="#63b8ff" stroke="#63b8ff" points="624.81,-146.32 614.27,-147.43 623.21,-153.13 624.81,-146.32"/>
</a>
</g>
</g>
<!-- Node16 -->
<g id="Node000016" class="node">
<title>Node16</title>
<g id="a_Node000016"><a xlink:title=" ">
<polygon fill="#e0e0e0" stroke="#999999" points="785.38,-146.62 645.62,-146.62 645.62,-116.12 785.38,-116.12 785.38,-146.62"/>
<text text-anchor="start" x="653.62" y="-133.12" font-family="Helvetica,sans-Serif" font-size="10.00">typed_linear_algebra</text>
<text text-anchor="middle" x="715.5" y="-121.88" font-family="Helvetica,sans-Serif" font-size="10.00">_internal/algorithm/divide.tpp</text>
</a>
</g>
</g>
<!-- Node3&#45;&gt;Node16 -->
<g id="edge20_Node000003_Node000016" class="edge">
<title>Node3&#45;&gt;Node16</title>
<g id="a_edge20_Node000003_Node000016"><a xlink:title=" ">
<path fill="none" stroke="#63b8ff" d="M1105.08,-196.89C1033.49,-189.09 903.92,-173.48 794.5,-152.25 790.25,-151.43 785.88,-150.51 781.49,-149.55"/>
<polygon fill="#63b8ff" stroke="#63b8ff" points="782.58,-146.21 772.05,-147.39 781.02,-153.03 782.58,-146.21"/>
</a>
</g>
</g>
<!-- Node17 -->
<g id="Node000017" class="node">
<title>Node17</title>
<g id="a_Node000017"><a xlink:title=" ">
<polygon fill="#e0e0e0" stroke="#999999" points="925.38,-152.25 803.62,-152.25 803.62,-110.5 925.38,-110.5 925.38,-152.25"/>
<text text-anchor="start" x="811.62" y="-138.75" font-family="Helvetica,sans-Serif" font-size="10.00">typed_linear_algebra</text>
<text text-anchor="start" x="811.62" y="-127.5" font-family="Helvetica,sans-Serif" font-size="10.00">_internal/algorithm/equal</text>
<text text-anchor="middle" x="864.5" y="-116.25" font-family="Helvetica,sans-Serif" font-size="10.00">_to.tpp</text>
</a>
</g>
</g>
<!-- Node3&#45;&gt;Node17 -->
<g id="edge21_Node000003_Node000017" class="edge">
<title>Node3&#45;&gt;Node17</title>
<g id="a_edge21_Node000003_Node000017"><a xlink:title=" ">
<path fill="none" stroke="#63b8ff" d="M1105.19,-191.28C1061.99,-182.15 999.77,-168.54 936.51,-152.7"/>
<polygon fill="#63b8ff" stroke="#63b8ff" points="937.55,-149.35 927,-150.29 935.84,-156.13 937.55,-149.35"/>
</a>
</g>
</g>
<!-- Node18 -->
<g id="Node000018" class="node">
<title>Node18</title>
<g id="a_Node000018"><a xlink:title=" ">
<polygon fill="#e0e0e0" stroke="#999999" points="1067.88,-152.25 943.12,-152.25 943.12,-110.5 1067.88,-110.5 1067.88,-152.25"/>
<text text-anchor="start" x="951.12" y="-138.75" font-family="Helvetica,sans-Serif" font-size="10.00">typed_linear_algebra</text>
<text text-anchor="start" x="951.12" y="-127.5" font-family="Helvetica,sans-Serif" font-size="10.00">_internal/algorithm/matrix</text>
<text text-anchor="middle" x="1005.5" y="-116.25" font-family="Helvetica,sans-Serif" font-size="10.00">_product.tpp</text>
</a>
</g>
</g>
<!-- Node3&#45;&gt;Node18 -->
<g id="edge22_Node000003_Node000018" class="edge">
<title>Node3&#45;&gt;Node18</title>
<g id="a_edge22_Node000003_Node000018"><a xlink:title=" ">
<path fill="none" stroke="#63b8ff" d="M1127.22,-187.8C1107.88,-178.99 1082.78,-167.56 1060.4,-157.37"/>
<polygon fill="#63b8ff" stroke="#63b8ff" points="1061.93,-154.23 1051.38,-153.27 1059.03,-160.6 1061.93,-154.23"/>
</a>
</g>
</g>
<!-- Node19 -->
<g id="Node000019" class="node">
<title>Node19</title>
<g id="a_Node000019"><a xlink:title=" ">
<polygon fill="#e0e0e0" stroke="#999999" points="1232.75,-146.62 1086.25,-146.62 1086.25,-116.12 1232.75,-116.12 1232.75,-146.62"/>
<text text-anchor="start" x="1094.25" y="-133.12" font-family="Helvetica,sans-Serif" font-size="10.00">typed_linear_algebra</text>
<text text-anchor="middle" x="1159.5" y="-121.88" font-family="Helvetica,sans-Serif" font-size="10.00">_internal/algorithm/product.tpp</text>
</a>
</g>
</g>
<!-- Node3&#45;&gt;Node19 -->
<g id="edge23_Node000003_Node000019" class="edge">
<title>Node3&#45;&gt;Node19</title>
<g id="a_edge23_Node000003_Node000019"><a xlink:title=" ">
<path fill="none" stroke="#63b8ff" d="M1159.5,-187.97C1159.5,-179.41 1159.5,-168.34 1159.5,-158.33"/>
<polygon fill="#63b8ff" stroke="#63b8ff" points="1163,-158.4 1159.5,-148.4 1156,-158.4 1163,-158.4"/>
</a>
</g>
</g>
<!-- Node20 -->
<g id="Node000020" class="node">
<title>Node20</title>
<g id="a_Node000020"><a xlink:title=" ">
<polygon fill="#e0e0e0" stroke="#999999" points="1388.25,-146.62 1250.75,-146.62 1250.75,-116.12 1388.25,-116.12 1388.25,-146.62"/>
<text text-anchor="start" x="1258.75" y="-133.12" font-family="Helvetica,sans-Serif" font-size="10.00">typed_linear_algebra</text>
<text text-anchor="middle" x="1319.5" y="-121.88" font-family="Helvetica,sans-Serif" font-size="10.00">_internal/algorithm/scale.tpp</text>
</a>
</g>
</g>
<!-- Node3&#45;&gt;Node20 -->
<g id="edge24_Node000003_Node000020" class="edge">
<title>Node3&#45;&gt;Node20</title>
<g id="a_edge24_Node000003_Node000020"><a xlink:title=" ">
<path fill="none" stroke="#63b8ff" d="M1193.04,-187.8C1217.04,-177.28 1249.58,-163.02 1275.64,-151.6"/>
<polygon fill="#63b8ff" stroke="#63b8ff" points="1276.86,-154.88 1284.62,-147.66 1274.05,-148.47 1276.86,-154.88"/>
</a>
</g>
</g>
<!-- Node21 -->
<g id="Node000021" class="node">
<title>Node21</title>
<g id="a_Node000021"><a xlink:title=" ">
<polygon fill="#e0e0e0" stroke="#999999" points="1560.88,-146.62 1406.12,-146.62 1406.12,-116.12 1560.88,-116.12 1560.88,-146.62"/>
<text text-anchor="start" x="1414.12" y="-133.12" font-family="Helvetica,sans-Serif" font-size="10.00">typed_linear_algebra</text>
<text text-anchor="middle" x="1483.5" y="-121.88" font-family="Helvetica,sans-Serif" font-size="10.00">_internal/algorithm/substract.tpp</text>
</a>
</g>
</g>
<!-- Node3&#45;&gt;Node21 -->
<g id="edge25_Node000003_Node000021" class="edge">
<title>Node3&#45;&gt;Node21</title>
<g id="a_edge25_Node000003_Node000021"><a xlink:title=" ">
<path fill="none" stroke="#63b8ff" d="M1213.92,-191.32C1262.2,-181.32 1334.62,-166.15 1397.5,-152.25 1401.47,-151.37 1405.55,-150.46 1409.66,-149.53"/>
<polygon fill="#63b8ff" stroke="#63b8ff" points="1410.14,-153.02 1419.12,-147.39 1408.59,-146.19 1410.14,-153.02"/>
</a>
</g>
</g>
<!-- Node22 -->
<g id="Node000022" class="node">
<title>Node22</title>
<g id="a_Node000022"><a xlink:title=" ">
<polygon fill="#e0e0e0" stroke="#999999" points="1741.62,-146.62 1579.38,-146.62 1579.38,-116.12 1741.62,-116.12 1741.62,-146.62"/>
<text text-anchor="start" x="1587.38" y="-133.12" font-family="Helvetica,sans-Serif" font-size="10.00">typed_linear_algebra</text>
<text text-anchor="middle" x="1660.5" y="-121.88" font-family="Helvetica,sans-Serif" font-size="10.00">_internal/algorithm/transposed.tpp</text>
</a>
</g>
</g>
<!-- Node3&#45;&gt;Node22 -->
<g id="edge26_Node000003_Node000022" class="edge">
<title>Node3&#45;&gt;Node22</title>
<g id="a_edge26_Node000003_Node000022"><a xlink:title=" ">
<path fill="none" stroke="#63b8ff" d="M1214.12,-197.44C1292.92,-189.77 1442.95,-173.78 1569.5,-152.25 1574.8,-151.35 1580.26,-150.35 1585.75,-149.28"/>
<polygon fill="#63b8ff" stroke="#63b8ff" points="1586.4,-152.72 1595.52,-147.33 1585.03,-145.86 1586.4,-152.72"/>
</a>
</g>
</g>
<!-- Node23 -->
<g id="Node000023" class="node">
<title>Node23</title>
<g id="a_Node000023"><a xlink:title=" ">
<polygon fill="#e0e0e0" stroke="#999999" points="1863.75,-146.62 1759.25,-146.62 1759.25,-116.12 1863.75,-116.12 1863.75,-146.62"/>
<text text-anchor="start" x="1767.25" y="-133.12" font-family="Helvetica,sans-Serif" font-size="10.00">typed_linear_algebra</text>
<text text-anchor="middle" x="1811.5" y="-121.88" font-family="Helvetica,sans-Serif" font-size="10.00">_internal/cast.tpp</text>
</a>
</g>
</g>
<!-- Node3&#45;&gt;Node23 -->
<g id="edge27_Node000003_Node000023" class="edge">
<title>Node3&#45;&gt;Node23</title>
<g id="a_edge27_Node000003_Node000023"><a xlink:title=" ">
<path fill="none" stroke="#63b8ff" d="M1213.87,-202.04C1318.72,-200.23 1555.72,-191.71 1750.5,-152.25 1753.62,-151.62 1756.81,-150.88 1760,-150.06"/>
<polygon fill="#63b8ff" stroke="#63b8ff" points="1760.68,-153.51 1769.37,-147.46 1758.8,-146.77 1760.68,-153.51"/>
</a>
</g>
</g>
<!-- Node24 -->
<g id="Node000024" class="node">
<title>Node24</title>
<g id="a_Node000024"><a xlink:title=" ">
<polygon fill="#e0e0e0" stroke="#999999" points="1986.75,-146.62 1882.25,-146.62 1882.25,-116.12 1986.75,-116.12 1986.75,-146.62"/>
<text text-anchor="start" x="1890.25" y="-133.12" font-family="Helvetica,sans-Serif" font-size="10.00">typed_linear_algebra</text>
<text text-anchor="middle" x="1934.5" y="-121.88" font-family="Helvetica,sans-Serif" font-size="10.00">_internal/tuple.tpp</text>
</a>
</g>
</g>
<!-- Node3&#45;&gt;Node24 -->
<g id="edge28_Node000003_Node000024" class="edge">
<title>Node3&#45;&gt;Node24</title>
<g id="a_edge28_Node000003_Node000024"><a xlink:title=" ">
<path fill="none" stroke="#63b8ff" d="M1213.74,-203.08C1333.68,-203.41 1630.01,-198.96 1872.5,-152.25 1875.83,-151.61 1879.24,-150.84 1882.65,-149.99"/>
<polygon fill="#63b8ff" stroke="#63b8ff" points="1883.32,-153.44 1892.04,-147.43 1881.48,-146.69 1883.32,-153.44"/>
</a>
</g>
</g>
<!-- Node25 -->
<g id="Node000025" class="node">
<title>Node25</title>
<g id="a_Node000025"><a xlink:title=" ">
<polygon fill="#e0e0e0" stroke="#999999" points="2112.25,-152.25 2004.75,-152.25 2004.75,-110.5 2112.25,-110.5 2112.25,-152.25"/>
<text text-anchor="start" x="2012.75" y="-138.75" font-family="Helvetica,sans-Serif" font-size="10.00">typed_linear_algebra</text>
<text text-anchor="start" x="2012.75" y="-127.5" font-family="Helvetica,sans-Serif" font-size="10.00">_internal/typed_linear</text>
<text text-anchor="middle" x="2058.5" y="-116.25" font-family="Helvetica,sans-Serif" font-size="10.00">_algebra.tpp</text>
</a>
</g>
</g>
<!-- Node3&#45;&gt;Node25 -->
<g id="edge29_Node000003_Node000025" class="edge">
<title>Node3&#45;&gt;Node25</title>
<g id="a_edge29_Node000003_Node000025"><a xlink:title=" ">
<path fill="none" stroke="#63b8ff" d="M1213.93,-200.97C1370.94,-196.3 1823.7,-180.85 1993.19,-152.35"/>
<polygon fill="#63b8ff" stroke="#63b8ff" points="1993.69,-155.82 2002.93,-150.63 1992.47,-148.92 1993.69,-155.82"/>
</a>
</g>
</g>
<!-- Node5&#45;&gt;Node6 -->
<g id="edge5_Node000005_Node000006" class="edge">
<title>Node5&#45;&gt;Node6</title>
<g id="a_edge5_Node000005_Node000006"><a xlink:title=" ">
<path fill="none" stroke="#63b8ff" d="M2305.5,-115.74C2305.5,-106.95 2305.5,-95.65 2305.5,-86.03"/>
<polygon fill="#63b8ff" stroke="#63b8ff" points="2309,-86.21 2305.5,-76.21 2302,-86.21 2309,-86.21"/>
</a>
</g>
</g>
<!-- Node5&#45;&gt;Node11 -->
<g id="edge10_Node000005_Node000011" class="edge">
<title>Node5&#45;&gt;Node11</title>
<g id="a_edge10_Node000005_Node000011"><a xlink:title=" ">
<path fill="none" stroke="#63b8ff" d="M2265.57,-115.7C2258.31,-113.57 2250.75,-111.7 2243.5,-110.5 1815.71,-39.56 723.79,-119.48 292.5,-74.5 289.31,-74.17 286.01,-73.73 282.71,-73.22"/>
<polygon fill="#63b8ff" stroke="#63b8ff" points="283.62,-69.82 273.17,-71.55 282.42,-76.72 283.62,-69.82"/>
</a>
</g>
</g>
<!-- Node5&#45;&gt;Node12 -->
<g id="edge11_Node000005_Node000012" class="edge">
<title>Node5&#45;&gt;Node12</title>
<g id="a_edge11_Node000005_Node000012"><a xlink:title=" ">
<path fill="none" stroke="#63b8ff" d="M2265.23,-115.63C2258.08,-113.54 2250.63,-111.7 2243.5,-110.5 2050.6,-78.04 597.98,-67.59 357.25,-66.08"/>
<polygon fill="#63b8ff" stroke="#63b8ff" points="357.34,-62.58 347.32,-66.02 357.3,-69.58 357.34,-62.58"/>
</a>
</g>
</g>
<!-- Node6&#45;&gt;Node7 -->
<g id="edge6_Node000006_Node000007" class="edge">
<title>Node6&#45;&gt;Node7</title>
<g id="a_edge6_Node000006_Node000007"><a xlink:title=" ">
<path fill="none" stroke="#63b8ff" d="M2276.84,-63.17C2042.67,-57.43 445.53,-18.27 173.01,-11.59"/>
<polygon fill="#63b8ff" stroke="#63b8ff" points="173.33,-8.1 163.25,-11.35 173.16,-15.1 173.33,-8.1"/>
</a>
</g>
</g>
<!-- Node8 -->
<g id="Node000008" class="node">
<title>Node8</title>
<g id="a_Node000008"><a xlink:title=" ">
<polygon fill="#e0e0e0" stroke="#999999" points="2334.5,-19.25 2276.5,-19.25 2276.5,0 2334.5,0 2334.5,-19.25"/>
<text text-anchor="middle" x="2305.5" y="-5.75" font-family="Helvetica,sans-Serif" font-size="10.00">functional</text>
</a>
</g>
</g>
<!-- Node6&#45;&gt;Node8 -->
<g id="edge7_Node000006_Node000008" class="edge">
<title>Node6&#45;&gt;Node8</title>
<g id="a_edge7_Node000006_Node000008"><a xlink:title=" ">
<path fill="none" stroke="#63b8ff" d="M2305.5,-55.08C2305.5,-48.57 2305.5,-39.42 2305.5,-31.12"/>
<polygon fill="#63b8ff" stroke="#63b8ff" points="2309,-31.12 2305.5,-21.12 2302,-31.12 2309,-31.12"/>
</a>
</g>
</g>
<!-- Node6&#45;&gt;Node9 -->
<g id="edge8_Node000006_Node000009" class="edge">
<title>Node6&#45;&gt;Node9</title>
<g id="a_edge8_Node000006_Node000009"><a xlink:title=" ">
<path fill="none" stroke="#63b8ff" d="M2325.52,-54.84C2344.33,-46.35 2372.72,-33.54 2394.1,-23.89"/>
<polygon fill="#63b8ff" stroke="#63b8ff" points="2395.5,-27.1 2403.18,-19.8 2392.62,-20.72 2395.5,-27.1"/>
</a>
</g>
</g>
<!-- Node6&#45;&gt;Node10 -->
<g id="edge9_Node000006_Node000010" class="edge">
<title>Node6&#45;&gt;Node10</title>
<g id="a_edge9_Node000006_Node000010"><a xlink:title=" ">
<path fill="none" stroke="#63b8ff" d="M2276.98,-62.48C2128,-55.18 1439.07,-21.43 1260.74,-12.69"/>
<polygon fill="#63b8ff" stroke="#63b8ff" points="1260.94,-9.2 1250.78,-12.21 1260.6,-16.19 1260.94,-9.2"/>
</a>
</g>
</g>
<!-- Node29 -->
<g id="Node000029" class="node">
<title>Node29</title>
<g id="a_Node000029"><a xlink:title=" ">
<polygon fill="#e0e0e0" stroke="#999999" points="2810.62,-218.75 2708.38,-218.75 2708.38,-188.25 2810.62,-188.25 2810.62,-218.75"/>
<text text-anchor="start" x="2716.38" y="-205.25" font-family="Helvetica,sans-Serif" font-size="10.00">mp&#45;units/framework</text>
<text text-anchor="middle" x="2759.5" y="-194" font-family="Helvetica,sans-Serif" font-size="10.00">/quantity.h</text>
</a>
</g>
</g>
<!-- Node28&#45;&gt;Node29 -->
<g id="edge39_Node000028_Node000029" class="edge">
<title>Node28&#45;&gt;Node29</title>
<g id="a_edge39_Node000028_Node000029"><a xlink:title=" ">
<path fill="none" stroke="#63b8ff" d="M2706.07,-254.43C2713.92,-247.09 2725.38,-236.38 2735.68,-226.76"/>
<polygon fill="#63b8ff" stroke="#63b8ff" points="2737.93,-229.45 2742.84,-220.07 2733.15,-224.34 2737.93,-229.45"/>
</a>
</g>
</g>
<!-- Node30 -->
<g id="Node000030" class="node">
<title>Node30</title>
<g id="a_Node000030"><a xlink:title=" ">
<polygon fill="#e0e0e0" stroke="#999999" points="2930.62,-218.75 2828.38,-218.75 2828.38,-188.25 2930.62,-188.25 2930.62,-218.75"/>
<text text-anchor="start" x="2836.38" y="-205.25" font-family="Helvetica,sans-Serif" font-size="10.00">mp&#45;units/framework</text>
<text text-anchor="middle" x="2879.5" y="-194" font-family="Helvetica,sans-Serif" font-size="10.00">/quantity_point.h</text>
</a>
</g>
</g>
<!-- Node28&#45;&gt;Node30 -->
<g id="edge40_Node000028_Node000030" class="edge">
<title>Node28&#45;&gt;Node30</title>
<g id="a_edge40_Node000028_Node000030"><a xlink:title=" ">
<path fill="none" stroke="#63b8ff" d="M2724.69,-254.3C2750.82,-245.9 2790.44,-233.15 2823.06,-222.66"/>
<polygon fill="#63b8ff" stroke="#63b8ff" points="2823.94,-226.05 2832.38,-219.66 2821.79,-219.39 2823.94,-226.05"/>
</a>
</g>
</g>
<!-- Node31 -->
<g id="Node000031" class="node">
<title>Node31</title>
<g id="a_Node000031"><a xlink:title=" ">
<polygon fill="#e0e0e0" stroke="#999999" points="3034.38,-213.12 2948.62,-213.12 2948.62,-193.88 3034.38,-193.88 3034.38,-213.12"/>
<text text-anchor="middle" x="2991.5" y="-199.62" font-family="Helvetica,sans-Serif" font-size="10.00">mp&#45;units/math.h</text>
</a>
</g>
</g>
<!-- Node28&#45;&gt;Node31 -->
<g id="edge41_Node000028_Node000031" class="edge">
<title>Node28&#45;&gt;Node31</title>
<g id="a_edge41_Node000028_Node000031"><a xlink:title=" ">
<path fill="none" stroke="#63b8ff" d="M2741.97,-256.22C2790.97,-248.24 2871.13,-234.37 2939.5,-218.75 2942.62,-218.04 2945.84,-217.26 2949.07,-216.45"/>
<polygon fill="#63b8ff" stroke="#63b8ff" points="2949.73,-219.89 2958.52,-213.98 2947.96,-213.12 2949.73,-219.89"/>
</a>
</g>
</g>
<!-- Node32 -->
<g id="Node000032" class="node">
<title>Node32</title>
<g id="a_Node000032"><a xlink:title=" ">
<polygon fill="#e0e0e0" stroke="#999999" points="2561,-218.75 2452,-218.75 2452,-188.25 2561,-188.25 2561,-218.75"/>
<text text-anchor="start" x="2460" y="-205.25" font-family="Helvetica,sans-Serif" font-size="10.00">mp&#45;units/systems/isq</text>
<text text-anchor="middle" x="2506.5" y="-194" font-family="Helvetica,sans-Serif" font-size="10.00">/thermodynamics.h</text>
</a>
</g>
</g>
<!-- Node28&#45;&gt;Node32 -->
<g id="edge42_Node000028_Node000032" class="edge">
<title>Node28&#45;&gt;Node32</title>
<g id="a_edge42_Node000028_Node000032"><a xlink:title=" ">
<path fill="none" stroke="#63b8ff" d="M2667.23,-254.3C2639.99,-245.86 2598.61,-233.04 2564.66,-222.52"/>
<polygon fill="#63b8ff" stroke="#63b8ff" points="2565.96,-219.26 2555.37,-219.64 2563.88,-225.95 2565.96,-219.26"/>
</a>
</g>
</g>
<!-- Node33 -->
<g id="Node000033" class="node">
<title>Node33</title>
<g id="a_Node000033"><a xlink:title=" ">
<polygon fill="#e0e0e0" stroke="#999999" points="2690.12,-213.12 2578.88,-213.12 2578.88,-193.88 2690.12,-193.88 2690.12,-213.12"/>
<text text-anchor="middle" x="2634.5" y="-199.62" font-family="Helvetica,sans-Serif" font-size="10.00">mp&#45;units/systems/si.h</text>
</a>
</g>
</g>
<!-- Node28&#45;&gt;Node33 -->
<g id="edge43_Node000028_Node000033" class="edge">
<title>Node28&#45;&gt;Node33</title>
<g id="a_edge43_Node000028_Node000033"><a xlink:title=" ">
<path fill="none" stroke="#63b8ff" d="M2687.08,-254.43C2677.89,-245.7 2663.66,-232.19 2652.33,-221.43"/>
<polygon fill="#63b8ff" stroke="#63b8ff" points="2654.76,-218.92 2645.1,-214.57 2649.94,-223.99 2654.76,-218.92"/>
</a>
</g>
</g>
</g>
</svg>

<g id="navigator" transform="translate(0 0)" fill="#404254">
  <rect fill="#f2f5e9" fill-opacity="0.5" stroke="#606060" stroke-width=".5" x="0" y="0" width="60" height="60"/>
  <use id="zoomplus" xlink:href="#zoomPlus" x="17" y="9" onmousedown="handleZoom(evt,'in')"/>
  <use id="zoomminus" xlink:href="#zoomMin" x="42" y="9" onmousedown="handleZoom(evt,'out')"/>
  <use id="reset" xlink:href="#resetDef" x="30" y="36" onmousedown="handleReset()"/>
   <use id="arrowup" xlink:href="#arrowUp" x="0" y="0" onmousedown="handlePan(0,-1)"/>
  <use id="arrowright" xlink:href="#arrowRight" x="0" y="0" onmousedown="handlePan(1,0)"/>
  <use id="arrowdown" xlink:href="#arrowDown" x="0" y="0" onmousedown="handlePan(0,1)"/>
  <use id="arrowleft" xlink:href="#arrowLeft" x="0" y="0" onmousedown="handlePan(-1,0)"/>
</g>
<svg viewBox="0 0 15 15" width="100%" height="30px" preserveAspectRatio="xMaxYMin meet">
 <g id="arrow_out" transform="scale(0.3 0.3)">
  <a xlink:href="quantity_2fcarouge_2linalg_8hpp__incl_org.svg" target="_base">
   <rect id="button" ry="5" rx="5" y="6" x="6" height="38" width="38"
        fill="#f2f5e9" fill-opacity="0.5" stroke="#606060" stroke-width="1.0"/>
   <path id="arrow"
     d="M 11.500037,31.436501 C 11.940474,20.09759 22.043105,11.32322 32.158766,21.979434 L 37.068811,17.246167 C 37.068811,17.246167 37.088388,32 37.088388,32 L 22.160133,31.978069 C 22.160133,31.978069 26.997745,27.140456 26.997745,27.140456 C 18.528582,18.264221 13.291696,25.230495 11.500037,31.436501 z"
     style="fill:#404040;"/>
  </a>
 </g>
</svg>

<style type='text/css'>
<![CDATA[
[data-mouse-over-selected='false'] { opacity: 0.7; }
[data-mouse-over-selected='true']  { opacity: 1.0; }
]]>
</style>
<script type="application/ecmascript"><![CDATA[
document.addEventListener('DOMContentLoaded', (event) => {
  highlightEdges();
  highlightAdjacentNodes();
});
]]></script>
</svg>
