<?xml version="1.0" encoding="UTF-8" standalone="no"?>
<!DOCTYPE svg PUBLIC "-//W3C//DTD SVG 1.1//EN"
 "http://www.w3.org/Graphics/SVG/1.1/DTD/svg11.dtd">
<!-- Generated by graphviz version 12.2.0 (20241103.1931)
 -->
<!-- Title: /github/workspace/support/quantity/fcarouge/linalg.hpp Pages: 1 -->
<!--zoomable 349 -->

<svg id="main" version="1.1" xmlns="http://www.w3.org/2000/svg" xmlns:xlink="http://www.w3.org/1999/xlink" xml:space="preserve" onload="init(evt)">

<style type="text/css"><![CDATA[
.node, .edge {opacity: 0.7;}
.node.selected, .edge.selected {opacity: 1;}
.edge:hover path { stroke: red; }
.edge:hover polygon { stroke: red; fill: red; }
]]></style>

<defs>
  <circle id="rim" cx="0" cy="0" r="7"/>
  <circle id="rim2" cx="0" cy="0" r="3.5"/>
  <g id="zoomPlus">
    <use xlink:href="#rim" fill="#404040"><set attributeName="fill" to="#808080" begin="zoomplus.mouseover" end="zoomplus.mouseout"/></use>
    <path d="M-4,0h8M0,-4v8" fill="none" stroke="white" stroke-width="1.5" pointer-events="none"/>
  </g>
  <g id="zoomMin">
    <use xlink:href="#rim" fill="#404040"><set attributeName="fill" to="#808080" begin="zoomminus.mouseover" end="zoomminus.mouseout"/></use>
    <path d="M-4,0h8" fill="none" stroke="white" stroke-width="1.5" pointer-events="none"/>
  </g>
  <g id="arrowUp" transform="translate(30 24)">
    <use xlink:href="#rim"/>
    <path pointer-events="none" fill="none" stroke="white" stroke-width="1.5" d="M0,-3.0v7 M-2.5,-0.5L0,-3.0L2.5,-0.5"/>
  </g>
  <g id="arrowRight" transform="rotate(90) translate(36 -43)">
    <use xlink:href="#rim"/>
    <path pointer-events="none" fill="none" stroke="white" stroke-width="1.5" d="M0,-3.0v7 M-2.5,-0.5L0,-3.0L2.5,-0.5"/>
  </g>
  <g id="arrowDown" transform="rotate(180) translate(-30 -48)">
    <use xlink:href="#rim"/>
    <path pointer-events="none" fill="none" stroke="white" stroke-width="1.5" d="M0,-3.0v7 M-2.5,-0.5L0,-3.0L2.5,-0.5"/>
  </g>
  <g id="arrowLeft" transform="rotate(270) translate(-36 17)">
    <use xlink:href="#rim"/>
    <path pointer-events="none" fill="none" stroke="white" stroke-width="1.5" d="M0,-3.0v7 M-2.5,-0.5L0,-3.0L2.5,-0.5"/>
  </g>
  <g id="resetDef">
    <use xlink:href="#rim2" fill="#404040"><set attributeName="fill" to="#808080" begin="reset.mouseover" end="reset.mouseout"/></use>
  </g>
</defs>
<script type="application/ecmascript">
var viewWidth = 3080;
var viewHeight = 349;
var sectionId = 'dynsection-0';
</script>
<script type="application/ecmascript" xlink:href="svg.min.js"/>
<svg id="graph" class="graph">
<g id="viewport">
<title>/github/workspace/support/quantity/fcarouge/linalg.hpp</title>
<!-- Node1 -->
<g id="Node000001" class="node">
<title>Node1</title>
<g id="a_Node000001"><a xlink:title="Indexed&#45;based linear algebra with mp&#45;units with Eigen implementations.">
<polygon fill="#999999" stroke="#666666" points="1111.88,-340.5 975.12,-340.5 975.12,-310 1111.88,-310 1111.88,-340.5"/>
<text text-anchor="start" x="983.12" y="-327" font-family="Helvetica,sans-Serif" font-size="10.00">/github/workspace/support</text>
<text text-anchor="middle" x="1043.5" y="-315.75" font-family="Helvetica,sans-Serif" font-size="10.00">/quantity/fcarouge/linalg.hpp</text>
</a>
</g>
</g>
<!-- Node2 -->
<g id="Node000002" class="node">
<title>Node2</title>
<g id="a_Node000002"><a xlink:href="eigen_8hpp.xhtml" target="_top" xlink:title="Linear algebra facade for Eigen3 third party implementation.">
<polygon fill="white" stroke="#666666" points="334.38,-274 236.62,-274 236.62,-254.75 334.38,-254.75 334.38,-274"/>
<text text-anchor="middle" x="285.5" y="-260.5" font-family="Helvetica,sans-Serif" font-size="10.00">fcarouge/eigen.hpp</text>
</a>
</g>
</g>
<!-- Node1&#45;&gt;Node2 -->
<g id="edge1_Node000001_Node000002" class="edge">
<title>Node1&#45;&gt;Node2</title>
<g id="a_edge1_Node000001_Node000002"><a xlink:title=" ">
<path fill="none" stroke="#63b8ff" d="M974.9,-318.92C827.97,-307.51 484.97,-280.87 345.79,-270.06"/>
<polygon fill="#63b8ff" stroke="#63b8ff" points="346.29,-266.59 336.05,-269.3 345.75,-273.57 346.29,-266.59"/>
</a>
</g>
</g>
<!-- Node3 -->
<g id="Node000003" class="node">
<title>Node3</title>
<g id="a_Node000003"><a xlink:href="typed__linear__algebra_8hpp.xhtml" target="_top" xlink:title="Typed linear algebra implementation.">
<polygon fill="white" stroke="#666666" points="1097.62,-218.75 989.38,-218.75 989.38,-188.25 1097.62,-188.25 1097.62,-218.75"/>
<text text-anchor="start" x="997.38" y="-205.25" font-family="Helvetica,sans-Serif" font-size="10.00">fcarouge/typed_linear</text>
<text text-anchor="middle" x="1043.5" y="-194" font-family="Helvetica,sans-Serif" font-size="10.00">_algebra.hpp</text>
</a>
</g>
</g>
<!-- Node1&#45;&gt;Node3 -->
<g id="edge38_Node000001_Node000003" class="edge">
<title>Node1&#45;&gt;Node3</title>
<g id="a_edge38_Node000001_Node000003"><a xlink:title=" ">
<path fill="none" stroke="#63b8ff" d="M1043.5,-309.57C1043.5,-289.89 1043.5,-254.64 1043.5,-230.44"/>
<polygon fill="#63b8ff" stroke="#63b8ff" points="1047,-230.44 1043.5,-220.44 1040,-230.44 1047,-230.44"/>
</a>
</g>
</g>
<!-- Node28 -->
<g id="Node000028" class="node">
<title>Node28</title>
<g id="a_Node000028"><a xlink:href="unit_8hpp.xhtml" target="_top" xlink:title="Quantities and units facade for mp&#45;units third party implementation.">
<polygon fill="white" stroke="#666666" points="2779.62,-274 2689.38,-274 2689.38,-254.75 2779.62,-254.75 2779.62,-274"/>
<text text-anchor="middle" x="2734.5" y="-260.5" font-family="Helvetica,sans-Serif" font-size="10.00">fcarouge/unit.hpp</text>
</a>
</g>
</g>
<!-- Node1&#45;&gt;Node28 -->
<g id="edge39_Node000001_Node000028" class="edge">
<title>Node1&#45;&gt;Node28</title>
<g id="a_edge39_Node000001_Node000028"><a xlink:title=" ">
<path fill="none" stroke="#63b8ff" d="M1112.15,-321.86C1389.44,-312.21 2424.09,-276.18 2677.98,-267.34"/>
<polygon fill="#63b8ff" stroke="#63b8ff" points="2677.74,-270.85 2687.61,-267.01 2677.5,-263.86 2677.74,-270.85"/>
</a>
</g>
</g>
<!-- Node2&#45;&gt;Node3 -->
<g id="edge2_Node000002_Node000003" class="edge">
<title>Node2&#45;&gt;Node3</title>
<g id="a_edge2_Node000002_Node000003"><a xlink:title=" ">
<path fill="none" stroke="#63b8ff" d="M334.65,-259.56C466.54,-249.31 828.35,-221.21 977.69,-209.61"/>
<polygon fill="#63b8ff" stroke="#63b8ff" points="977.72,-213.12 987.42,-208.86 977.18,-206.14 977.72,-213.12"/>
</a>
</g>
</g>
<!-- Node7 -->
<g id="Node000007" class="node">
<title>Node7</title>
<g id="a_Node000007"><a xlink:title=" ">
<polygon fill="#e0e0e0" stroke="#999999" points="269.38,-19.25 213.62,-19.25 213.62,0 269.38,0 269.38,-19.25"/>
<text text-anchor="middle" x="241.5" y="-5.75" font-family="Helvetica,sans-Serif" font-size="10.00">concepts</text>
</a>
</g>
</g>
<!-- Node2&#45;&gt;Node7 -->
<g id="edge31_Node000002_Node000007" class="edge">
<title>Node2&#45;&gt;Node7</title>
<g id="a_edge31_Node000002_Node000007"><a xlink:title=" ">
<path fill="none" stroke="#63b8ff" d="M283.09,-254.53C280.69,-245.57 277.03,-231.26 274.5,-218.75 260.62,-150.11 249.05,-67.75 244.09,-30.57"/>
<polygon fill="#63b8ff" stroke="#63b8ff" points="247.59,-30.35 242.82,-20.9 240.65,-31.27 247.59,-30.35"/>
</a>
</g>
</g>
<!-- Node8 -->
<g id="Node000008" class="node">
<title>Node8</title>
<g id="a_Node000008"><a xlink:title=" ">
<polygon fill="#e0e0e0" stroke="#999999" points="2427.62,-19.25 2379.38,-19.25 2379.38,0 2427.62,0 2427.62,-19.25"/>
<text text-anchor="middle" x="2403.5" y="-5.75" font-family="Helvetica,sans-Serif" font-size="10.00">cstddef</text>
</a>
</g>
</g>
<!-- Node2&#45;&gt;Node8 -->
<g id="edge32_Node000002_Node000008" class="edge">
<title>Node2&#45;&gt;Node8</title>
<g id="a_edge32_Node000002_Node000008"><a xlink:title=" ">
<path fill="none" stroke="#63b8ff" d="M334.87,-262.63C648.23,-257.66 2349.58,-227.27 2427.5,-152.25 2458.64,-122.27 2447.42,-96.5 2434.5,-55.25 2431.45,-45.5 2425.43,-36.02 2419.5,-28.32"/>
<polygon fill="#63b8ff" stroke="#63b8ff" points="2422.33,-26.24 2413.24,-20.79 2416.95,-30.72 2422.33,-26.24"/>
</a>
</g>
</g>
<!-- Node10 -->
<g id="Node000010" class="node">
<title>Node10</title>
<g id="a_Node000010"><a xlink:title=" ">
<polygon fill="#e0e0e0" stroke="#999999" points="190,-19.25 153,-19.25 153,0 190,0 190,-19.25"/>
<text text-anchor="middle" x="171.5" y="-5.75" font-family="Helvetica,sans-Serif" font-size="10.00">tuple</text>
</a>
</g>
</g>
<!-- Node2&#45;&gt;Node10 -->
<g id="edge35_Node000002_Node000010" class="edge">
<title>Node2&#45;&gt;Node10</title>
<g id="a_edge35_Node000002_Node000010"><a xlink:title=" ">
<path fill="none" stroke="#63b8ff" d="M281.44,-254.38C264.99,-217.91 203.07,-80.61 180.12,-29.74"/>
<polygon fill="#63b8ff" stroke="#63b8ff" points="183.43,-28.57 176.13,-20.89 177.05,-31.45 183.43,-28.57"/>
</a>
</g>
</g>
<!-- Node11 -->
<g id="Node000011" class="node">
<title>Node11</title>
<g id="a_Node000011"><a xlink:title=" ">
<polygon fill="#e0e0e0" stroke="#999999" points="348,-19.25 287,-19.25 287,0 348,0 348,-19.25"/>
<text text-anchor="middle" x="317.5" y="-5.75" font-family="Helvetica,sans-Serif" font-size="10.00">type_traits</text>
</a>
</g>
</g>
<!-- Node2&#45;&gt;Node11 -->
<g id="edge36_Node000002_Node000011" class="edge">
<title>Node2&#45;&gt;Node11</title>
<g id="a_edge36_Node000002_Node000011"><a xlink:title=" ">
<path fill="none" stroke="#63b8ff" d="M284.22,-254.41C280.34,-225.09 270.26,-129.63 291.5,-55.25 294.14,-46 299.13,-36.67 304.04,-28.95"/>
<polygon fill="#63b8ff" stroke="#63b8ff" points="306.84,-31.05 309.6,-20.83 301.07,-27.1 306.84,-31.05"/>
</a>
</g>
</g>
<!-- Node12 -->
<g id="Node000012" class="node">
<title>Node12</title>
<g id="a_Node000012"><a xlink:title=" ">
<polygon fill="#e0e0e0" stroke="#999999" points="344.38,-74.5 300.62,-74.5 300.62,-55.25 344.38,-55.25 344.38,-74.5"/>
<text text-anchor="middle" x="322.5" y="-61" font-family="Helvetica,sans-Serif" font-size="10.00">format</text>
</a>
</g>
</g>
<!-- Node2&#45;&gt;Node12 -->
<g id="edge33_Node000002_Node000012" class="edge">
<title>Node2&#45;&gt;Node12</title>
<g id="a_edge33_Node000002_Node000012"><a xlink:title=" ">
<path fill="none" stroke="#63b8ff" d="M287.19,-254.38C292.77,-224.56 310.77,-128.5 318.69,-86.2"/>
<polygon fill="#63b8ff" stroke="#63b8ff" points="322.12,-86.89 320.53,-76.41 315.24,-85.6 322.12,-86.89"/>
</a>
</g>
</g>
<!-- Node26 -->
<g id="Node000026" class="node">
<title>Node26</title>
<g id="a_Node000026"><a xlink:title=" ">
<polygon fill="#e0e0e0" stroke="#999999" points="365.12,-213.12 313.88,-213.12 313.88,-193.88 365.12,-193.88 365.12,-213.12"/>
<text text-anchor="middle" x="339.5" y="-199.62" font-family="Helvetica,sans-Serif" font-size="10.00">sstream</text>
</a>
</g>
</g>
<!-- Node2&#45;&gt;Node26 -->
<g id="edge34_Node000002_Node000026" class="edge">
<title>Node2&#45;&gt;Node26</title>
<g id="a_edge34_Node000002_Node000026"><a xlink:title=" ">
<path fill="none" stroke="#63b8ff" d="M293.7,-254.43C301.63,-245.79 313.85,-232.46 323.68,-221.75"/>
<polygon fill="#63b8ff" stroke="#63b8ff" points="326.02,-224.38 330.2,-214.64 320.86,-219.65 326.02,-224.38"/>
</a>
</g>
</g>
<!-- Node27 -->
<g id="Node000027" class="node">
<title>Node27</title>
<g id="a_Node000027"><a xlink:title=" ">
<polygon fill="#e0e0e0" stroke="#999999" points="67,-213.12 0,-213.12 0,-193.88 67,-193.88 67,-213.12"/>
<text text-anchor="middle" x="33.5" y="-199.62" font-family="Helvetica,sans-Serif" font-size="10.00">Eigen/Eigen</text>
</a>
</g>
</g>
<!-- Node2&#45;&gt;Node27 -->
<g id="edge37_Node000002_Node000027" class="edge">
<title>Node2&#45;&gt;Node27</title>
<g id="a_edge37_Node000002_Node000027"><a xlink:title=" ">
<path fill="none" stroke="#63b8ff" d="M239.5,-254.31C198,-245.9 135.39,-232.62 81.5,-218.75 78.94,-218.09 76.32,-217.39 73.67,-216.66"/>
<polygon fill="#63b8ff" stroke="#63b8ff" points="74.88,-213.37 64.31,-214 72.97,-220.1 74.88,-213.37"/>
</a>
</g>
</g>
<!-- Node4 -->
<g id="Node000004" class="node">
<title>Node4</title>
<g id="a_Node000004"><a xlink:href="typed__linear__algebra__forward_8hpp.xhtml" target="_top" xlink:title="Authoritative forward declaration header.">
<polygon fill="white" stroke="#666666" points="2272.75,-146.62 2168.25,-146.62 2168.25,-116.12 2272.75,-116.12 2272.75,-146.62"/>
<text text-anchor="start" x="2176.25" y="-133.12" font-family="Helvetica,sans-Serif" font-size="10.00">typed_linear_algebra</text>
<text text-anchor="middle" x="2220.5" y="-121.88" font-family="Helvetica,sans-Serif" font-size="10.00">_forward.hpp</text>
</a>
</g>
</g>
<!-- Node3&#45;&gt;Node4 -->
<g id="edge3_Node000003_Node000004" class="edge">
<title>Node3&#45;&gt;Node4</title>
<g id="a_edge3_Node000003_Node000004"><a xlink:title=" ">
<path fill="none" stroke="#63b8ff" d="M1097.89,-201.99C1292.27,-199.87 1952.11,-189.99 2159.5,-152.25 2162.84,-151.64 2166.26,-150.9 2169.68,-150.05"/>
<polygon fill="#63b8ff" stroke="#63b8ff" points="2170.35,-153.5 2179.08,-147.49 2168.51,-146.75 2170.35,-153.5"/>
</a>
</g>
</g>
<!-- Node5 -->
<g id="Node000005" class="node">
<title>Node5</title>
<g id="a_Node000005"><a xlink:href="format_8hpp.xhtml" target="_top" xlink:title="Formatting support for the typed matrix.">
<polygon fill="white" stroke="#666666" points="2395.75,-146.62 2291.25,-146.62 2291.25,-116.12 2395.75,-116.12 2395.75,-146.62"/>
<text text-anchor="start" x="2299.25" y="-133.12" font-family="Helvetica,sans-Serif" font-size="10.00">typed_linear_algebra</text>
<text text-anchor="middle" x="2343.5" y="-121.88" font-family="Helvetica,sans-Serif" font-size="10.00">_internal/format.hpp</text>
</a>
</g>
</g>
<!-- Node3&#45;&gt;Node5 -->
<g id="edge4_Node000003_Node000005" class="edge">
<title>Node3&#45;&gt;Node5</title>
<g id="a_edge4_Node000003_Node000005"><a xlink:title=" ">
<path fill="none" stroke="#63b8ff" d="M1098,-202.24C1305.92,-200.93 2049.17,-193.42 2281.5,-152.25 2284.9,-151.65 2288.36,-150.91 2291.84,-150.07"/>
<polygon fill="#63b8ff" stroke="#63b8ff" points="2292.66,-153.47 2301.41,-147.5 2290.85,-146.71 2292.66,-153.47"/>
</a>
</g>
</g>
<!-- Node6 -->
<g id="Node000006" class="node">
<title>Node6</title>
<g id="a_Node000006"><a xlink:href="utility_8hpp.xhtml" target="_top" xlink:title=" ">
<polygon fill="white" stroke="#666666" points="418.75,-74.5 362.25,-74.5 362.25,-55.25 418.75,-55.25 418.75,-74.5"/>
<text text-anchor="middle" x="390.5" y="-61" font-family="Helvetica,sans-Serif" font-size="10.00">utility.hpp</text>
</a>
</g>
</g>
<!-- Node3&#45;&gt;Node6 -->
<g id="edge13_Node000003_Node000006" class="edge">
<title>Node3&#45;&gt;Node6</title>
<g id="a_edge13_Node000003_Node000006"><a xlink:title=" ">
<path fill="none" stroke="#63b8ff" d="M989.08,-202.51C837.96,-201.99 421.53,-196.51 380.5,-152.25 363.93,-134.38 372.23,-104.71 380.63,-85.22"/>
<polygon fill="#63b8ff" stroke="#63b8ff" points="383.78,-86.75 384.88,-76.21 377.45,-83.76 383.78,-86.75"/>
</a>
</g>
</g>
<!-- Node3&#45;&gt;Node7 -->
<g id="edge14_Node000003_Node000007" class="edge">
<title>Node3&#45;&gt;Node7</title>
<g id="a_edge14_Node000003_Node000007"><a xlink:title=" ">
<path fill="none" stroke="#63b8ff" d="M989.05,-201.46C832.28,-198.08 387.48,-185.62 331.5,-152.25 284.9,-124.47 258.48,-62.17 247.53,-30.27"/>
<polygon fill="#63b8ff" stroke="#63b8ff" points="250.97,-29.53 244.55,-21.1 244.31,-31.7 250.97,-29.53"/>
</a>
</g>
</g>
<!-- Node3&#45;&gt;Node8 -->
<g id="edge15_Node000003_Node000008" class="edge">
<title>Node3&#45;&gt;Node8</title>
<g id="a_edge15_Node000003_Node000008"><a xlink:title=" ">
<path fill="none" stroke="#63b8ff" d="M1097.74,-202.57C1345.37,-202.65 2358.43,-200.05 2404.5,-152.25 2435.98,-119.58 2421.56,-60.44 2411.06,-29.95"/>
<polygon fill="#63b8ff" stroke="#63b8ff" points="2414.45,-29.05 2407.72,-20.87 2407.88,-31.47 2414.45,-29.05"/>
</a>
</g>
</g>
<!-- Node3&#45;&gt;Node10 -->
<g id="edge18_Node000003_Node000010" class="edge">
<title>Node3&#45;&gt;Node10</title>
<g id="a_edge18_Node000003_Node000010"><a xlink:title=" ">
<path fill="none" stroke="#63b8ff" d="M988.94,-201.4C825.52,-197.77 347.44,-184.47 285.5,-152.25 233.13,-125.01 196.43,-61.98 180.46,-29.99"/>
<polygon fill="#63b8ff" stroke="#63b8ff" points="183.67,-28.59 176.18,-21.1 177.36,-31.63 183.67,-28.59"/>
</a>
</g>
</g>
<!-- Node3&#45;&gt;Node12 -->
<g id="edge16_Node000003_Node000012" class="edge">
<title>Node3&#45;&gt;Node12</title>
<g id="a_edge16_Node000003_Node000012"><a xlink:title=" ">
<path fill="none" stroke="#63b8ff" d="M988.88,-201.49C837.06,-198.28 417.81,-186.37 366.5,-152.25 343.75,-137.12 332.16,-106.46 326.73,-86.04"/>
<polygon fill="#63b8ff" stroke="#63b8ff" points="330.14,-85.28 324.44,-76.35 323.33,-86.88 330.14,-85.28"/>
</a>
</g>
</g>
<!-- Node13 -->
<g id="Node000013" class="node">
<title>Node13</title>
<g id="a_Node000013"><a xlink:title=" ">
<polygon fill="#e0e0e0" stroke="#999999" points="461.25,-141 389.75,-141 389.75,-121.75 461.25,-121.75 461.25,-141"/>
<text text-anchor="middle" x="425.5" y="-127.5" font-family="Helvetica,sans-Serif" font-size="10.00">initializer_list</text>
</a>
</g>
</g>
<!-- Node3&#45;&gt;Node13 -->
<g id="edge17_Node000003_Node000013" class="edge">
<title>Node3&#45;&gt;Node13</title>
<g id="a_edge17_Node000003_Node000013"><a xlink:title=" ">
<path fill="none" stroke="#63b8ff" d="M988.98,-200C865.5,-193.97 567.7,-177.24 470.5,-152.25 464.65,-150.75 458.6,-148.56 452.91,-146.18"/>
<polygon fill="#63b8ff" stroke="#63b8ff" points="454.48,-143.05 443.93,-142.12 451.6,-149.42 454.48,-143.05"/>
</a>
</g>
</g>
<!-- Node14 -->
<g id="Node000014" class="node">
<title>Node14</title>
<g id="a_Node000014"><a xlink:title=" ">
<polygon fill="#e0e0e0" stroke="#999999" points="517.75,-141 479.25,-141 479.25,-121.75 517.75,-121.75 517.75,-141"/>
<text text-anchor="middle" x="498.5" y="-127.5" font-family="Helvetica,sans-Serif" font-size="10.00">utility</text>
</a>
</g>
</g>
<!-- Node3&#45;&gt;Node14 -->
<g id="edge19_Node000003_Node000014" class="edge">
<title>Node3&#45;&gt;Node14</title>
<g id="a_edge19_Node000003_Node000014"><a xlink:title=" ">
<path fill="none" stroke="#63b8ff" d="M989.23,-200.75C874.34,-196.48 610.25,-183.5 526.5,-152.25 523.51,-151.14 520.55,-149.62 517.74,-147.92"/>
<polygon fill="#63b8ff" stroke="#63b8ff" points="519.82,-145.1 509.63,-142.2 515.79,-150.83 519.82,-145.1"/>
</a>
</g>
</g>
<!-- Node15 -->
<g id="Node000015" class="node">
<title>Node15</title>
<g id="a_Node000015"><a xlink:title=" ">
<polygon fill="#e0e0e0" stroke="#999999" points="665.5,-146.62 535.5,-146.62 535.5,-116.12 665.5,-116.12 665.5,-146.62"/>
<text text-anchor="start" x="543.5" y="-133.12" font-family="Helvetica,sans-Serif" font-size="10.00">typed_linear_algebra</text>
<text text-anchor="middle" x="600.5" y="-121.88" font-family="Helvetica,sans-Serif" font-size="10.00">_internal/algorithm/add.tpp</text>
</a>
</g>
</g>
<!-- Node3&#45;&gt;Node15 -->
<g id="edge20_Node000003_Node000015" class="edge">
<title>Node3&#45;&gt;Node15</title>
<g id="a_edge20_Node000003_Node000015"><a xlink:title=" ">
<path fill="none" stroke="#63b8ff" d="M989.05,-197.27C916.75,-189.83 785.26,-174.57 674.5,-152.25 670.73,-151.49 666.88,-150.65 663,-149.76"/>
<polygon fill="#63b8ff" stroke="#63b8ff" points="664.07,-146.41 653.53,-147.47 662.43,-153.22 664.07,-146.41"/>
</a>
</g>
</g>
<!-- Node16 -->
<g id="Node000016" class="node">
<title>Node16</title>
<g id="a_Node000016"><a xlink:title=" ">
<polygon fill="#e0e0e0" stroke="#999999" points="823.38,-146.62 683.62,-146.62 683.62,-116.12 823.38,-116.12 823.38,-146.62"/>
<text text-anchor="start" x="691.62" y="-133.12" font-family="Helvetica,sans-Serif" font-size="10.00">typed_linear_algebra</text>
<text text-anchor="middle" x="753.5" y="-121.88" font-family="Helvetica,sans-Serif" font-size="10.00">_internal/algorithm/divide.tpp</text>
</a>
</g>
</g>
<!-- Node3&#45;&gt;Node16 -->
<g id="edge21_Node000003_Node000016" class="edge">
<title>Node3&#45;&gt;Node16</title>
<g id="a_edge21_Node000003_Node000016"><a xlink:title=" ">
<path fill="none" stroke="#63b8ff" d="M989.25,-189.78C946.6,-179.73 885.72,-165.28 832.5,-152.25 829.34,-151.48 826.12,-150.68 822.86,-149.88"/>
<polygon fill="#63b8ff" stroke="#63b8ff" points="823.74,-146.49 813.19,-147.48 822.05,-153.28 823.74,-146.49"/>
</a>
</g>
</g>
<!-- Node17 -->
<g id="Node000017" class="node">
<title>Node17</title>
<g id="a_Node000017"><a xlink:title=" ">
<polygon fill="#e0e0e0" stroke="#999999" points="963.38,-152.25 841.62,-152.25 841.62,-110.5 963.38,-110.5 963.38,-152.25"/>
<text text-anchor="start" x="849.62" y="-138.75" font-family="Helvetica,sans-Serif" font-size="10.00">typed_linear_algebra</text>
<text text-anchor="start" x="849.62" y="-127.5" font-family="Helvetica,sans-Serif" font-size="10.00">_internal/algorithm/equal</text>
<text text-anchor="middle" x="902.5" y="-116.25" font-family="Helvetica,sans-Serif" font-size="10.00">_to.tpp</text>
</a>
</g>
</g>
<!-- Node3&#45;&gt;Node17 -->
<g id="edge22_Node000003_Node000017" class="edge">
<title>Node3&#45;&gt;Node17</title>
<g id="a_edge22_Node000003_Node000017"><a xlink:title=" ">
<path fill="none" stroke="#63b8ff" d="M1013.94,-187.8C996.39,-179.07 973.67,-167.77 953.32,-157.65"/>
<polygon fill="#63b8ff" stroke="#63b8ff" points="955.12,-154.63 944.6,-153.32 952,-160.9 955.12,-154.63"/>
</a>
</g>
</g>
<!-- Node18 -->
<g id="Node000018" class="node">
<title>Node18</title>
<g id="a_Node000018"><a xlink:title=" ">
<polygon fill="#e0e0e0" stroke="#999999" points="1105.88,-152.25 981.12,-152.25 981.12,-110.5 1105.88,-110.5 1105.88,-152.25"/>
<text text-anchor="start" x="989.12" y="-138.75" font-family="Helvetica,sans-Serif" font-size="10.00">typed_linear_algebra</text>
<text text-anchor="start" x="989.12" y="-127.5" font-family="Helvetica,sans-Serif" font-size="10.00">_internal/algorithm/matrix</text>
<text text-anchor="middle" x="1043.5" y="-116.25" font-family="Helvetica,sans-Serif" font-size="10.00">_product.tpp</text>
</a>
</g>
</g>
<!-- Node3&#45;&gt;Node18 -->
<g id="edge23_Node000003_Node000018" class="edge">
<title>Node3&#45;&gt;Node18</title>
<g id="a_edge23_Node000003_Node000018"><a xlink:title=" ">
<path fill="none" stroke="#63b8ff" d="M1043.5,-187.97C1043.5,-181.04 1043.5,-172.47 1043.5,-164.14"/>
<polygon fill="#63b8ff" stroke="#63b8ff" points="1047,-164.25 1043.5,-154.25 1040,-164.25 1047,-164.25"/>
</a>
</g>
</g>
<!-- Node19 -->
<g id="Node000019" class="node">
<title>Node19</title>
<g id="a_Node000019"><a xlink:title=" ">
<polygon fill="#e0e0e0" stroke="#999999" points="1270.75,-146.62 1124.25,-146.62 1124.25,-116.12 1270.75,-116.12 1270.75,-146.62"/>
<text text-anchor="start" x="1132.25" y="-133.12" font-family="Helvetica,sans-Serif" font-size="10.00">typed_linear_algebra</text>
<text text-anchor="middle" x="1197.5" y="-121.88" font-family="Helvetica,sans-Serif" font-size="10.00">_internal/algorithm/product.tpp</text>
</a>
</g>
</g>
<!-- Node3&#45;&gt;Node19 -->
<g id="edge24_Node000003_Node000019" class="edge">
<title>Node3&#45;&gt;Node19</title>
<g id="a_edge24_Node000003_Node000019"><a xlink:title=" ">
<path fill="none" stroke="#63b8ff" d="M1075.78,-187.8C1098.78,-177.33 1129.92,-163.15 1154.95,-151.75"/>
<polygon fill="#63b8ff" stroke="#63b8ff" points="1156.23,-155.01 1163.88,-147.68 1153.33,-148.64 1156.23,-155.01"/>
</a>
</g>
</g>
<!-- Node20 -->
<g id="Node000020" class="node">
<title>Node20</title>
<g id="a_Node000020"><a xlink:title=" ">
<polygon fill="#e0e0e0" stroke="#999999" points="1426.25,-146.62 1288.75,-146.62 1288.75,-116.12 1426.25,-116.12 1426.25,-146.62"/>
<text text-anchor="start" x="1296.75" y="-133.12" font-family="Helvetica,sans-Serif" font-size="10.00">typed_linear_algebra</text>
<text text-anchor="middle" x="1357.5" y="-121.88" font-family="Helvetica,sans-Serif" font-size="10.00">_internal/algorithm/scale.tpp</text>
</a>
</g>
</g>
<!-- Node3&#45;&gt;Node20 -->
<g id="edge25_Node000003_Node000020" class="edge">
<title>Node3&#45;&gt;Node20</title>
<g id="a_edge25_Node000003_Node000020"><a xlink:title=" ">
<path fill="none" stroke="#63b8ff" d="M1098,-191.53C1145.92,-181.74 1217.5,-166.74 1279.5,-152.25 1282.86,-151.46 1286.3,-150.64 1289.77,-149.81"/>
<polygon fill="#63b8ff" stroke="#63b8ff" points="1290.55,-153.22 1299.43,-147.44 1288.89,-146.42 1290.55,-153.22"/>
</a>
</g>
</g>
<!-- Node21 -->
<g id="Node000021" class="node">
<title>Node21</title>
<g id="a_Node000021"><a xlink:title=" ">
<polygon fill="#e0e0e0" stroke="#999999" points="1598.88,-146.62 1444.12,-146.62 1444.12,-116.12 1598.88,-116.12 1598.88,-146.62"/>
<text text-anchor="start" x="1452.12" y="-133.12" font-family="Helvetica,sans-Serif" font-size="10.00">typed_linear_algebra</text>
<text text-anchor="middle" x="1521.5" y="-121.88" font-family="Helvetica,sans-Serif" font-size="10.00">_internal/algorithm/substract.tpp</text>
</a>
</g>
</g>
<!-- Node3&#45;&gt;Node21 -->
<g id="edge26_Node000003_Node000021" class="edge">
<title>Node3&#45;&gt;Node21</title>
<g id="a_edge26_Node000003_Node000021"><a xlink:title=" ">
<path fill="none" stroke="#63b8ff" d="M1097.98,-197.25C1173.93,-189.54 1315.79,-173.7 1435.5,-152.25 1440.38,-151.37 1445.41,-150.4 1450.46,-149.37"/>
<polygon fill="#63b8ff" stroke="#63b8ff" points="1450.97,-152.84 1460.03,-147.35 1449.52,-145.99 1450.97,-152.84"/>
</a>
</g>
</g>
<!-- Node22 -->
<g id="Node000022" class="node">
<title>Node22</title>
<g id="a_Node000022"><a xlink:title=" ">
<polygon fill="#e0e0e0" stroke="#999999" points="1779.62,-146.62 1617.38,-146.62 1617.38,-116.12 1779.62,-116.12 1779.62,-146.62"/>
<text text-anchor="start" x="1625.38" y="-133.12" font-family="Helvetica,sans-Serif" font-size="10.00">typed_linear_algebra</text>
<text text-anchor="middle" x="1698.5" y="-121.88" font-family="Helvetica,sans-Serif" font-size="10.00">_internal/algorithm/transposed.tpp</text>
</a>
</g>
</g>
<!-- Node3&#45;&gt;Node22 -->
<g id="edge27_Node000003_Node000022" class="edge">
<title>Node3&#45;&gt;Node22</title>
<g id="a_edge27_Node000003_Node000022"><a xlink:title=" ">
<path fill="none" stroke="#63b8ff" d="M1097.82,-199.94C1198.71,-194.69 1421.66,-180.71 1607.5,-152.25 1613.15,-151.38 1618.97,-150.38 1624.82,-149.29"/>
<polygon fill="#63b8ff" stroke="#63b8ff" points="1625.4,-152.74 1634.55,-147.39 1624.06,-145.87 1625.4,-152.74"/>
</a>
</g>
</g>
<!-- Node23 -->
<g id="Node000023" class="node">
<title>Node23</title>
<g id="a_Node000023"><a xlink:title=" ">
<polygon fill="#e0e0e0" stroke="#999999" points="1901.75,-146.62 1797.25,-146.62 1797.25,-116.12 1901.75,-116.12 1901.75,-146.62"/>
<text text-anchor="start" x="1805.25" y="-133.12" font-family="Helvetica,sans-Serif" font-size="10.00">typed_linear_algebra</text>
<text text-anchor="middle" x="1849.5" y="-121.88" font-family="Helvetica,sans-Serif" font-size="10.00">_internal/cast.tpp</text>
</a>
</g>
</g>
<!-- Node3&#45;&gt;Node23 -->
<g id="edge28_Node000003_Node000023" class="edge">
<title>Node3&#45;&gt;Node23</title>
<g id="a_edge28_Node000003_Node000023"><a xlink:title=" ">
<path fill="none" stroke="#63b8ff" d="M1098.02,-200.57C1246.56,-195.05 1656.06,-177.88 1788.5,-152.25 1791.68,-151.63 1794.92,-150.9 1798.17,-150.09"/>
<polygon fill="#63b8ff" stroke="#63b8ff" points="1799.01,-153.49 1807.72,-147.46 1797.15,-146.74 1799.01,-153.49"/>
</a>
</g>
</g>
<!-- Node24 -->
<g id="Node000024" class="node">
<title>Node24</title>
<g id="a_Node000024"><a xlink:title=" ">
<polygon fill="#e0e0e0" stroke="#999999" points="2024.75,-146.62 1920.25,-146.62 1920.25,-116.12 2024.75,-116.12 2024.75,-146.62"/>
<text text-anchor="start" x="1928.25" y="-133.12" font-family="Helvetica,sans-Serif" font-size="10.00">typed_linear_algebra</text>
<text text-anchor="middle" x="1972.5" y="-121.88" font-family="Helvetica,sans-Serif" font-size="10.00">_internal/tuple.tpp</text>
</a>
</g>
</g>
<!-- Node3&#45;&gt;Node24 -->
<g id="edge29_Node000003_Node000024" class="edge">
<title>Node3&#45;&gt;Node24</title>
<g id="a_edge29_Node000003_Node000024"><a xlink:title=" ">
<path fill="none" stroke="#63b8ff" d="M1097.9,-201.14C1262.49,-196.75 1753.47,-181.48 1910.5,-152.25 1913.84,-151.63 1917.24,-150.88 1920.66,-150.04"/>
<polygon fill="#63b8ff" stroke="#63b8ff" points="1921.32,-153.49 1930.06,-147.5 1919.49,-146.73 1921.32,-153.49"/>
</a>
</g>
</g>
<!-- Node25 -->
<g id="Node000025" class="node">
<title>Node25</title>
<g id="a_Node000025"><a xlink:title=" ">
<polygon fill="#e0e0e0" stroke="#999999" points="2150.25,-152.25 2042.75,-152.25 2042.75,-110.5 2150.25,-110.5 2150.25,-152.25"/>
<text text-anchor="start" x="2050.75" y="-138.75" font-family="Helvetica,sans-Serif" font-size="10.00">typed_linear_algebra</text>
<text text-anchor="start" x="2050.75" y="-127.5" font-family="Helvetica,sans-Serif" font-size="10.00">_internal/typed_linear</text>
<text text-anchor="middle" x="2096.5" y="-116.25" font-family="Helvetica,sans-Serif" font-size="10.00">_algebra.tpp</text>
</a>
</g>
</g>
<!-- Node3&#45;&gt;Node25 -->
<g id="edge30_Node000003_Node000025" class="edge">
<title>Node3&#45;&gt;Node25</title>
<g id="a_edge30_Node000003_Node000025"><a xlink:title=" ">
<path fill="none" stroke="#63b8ff" d="M1097.85,-201.56C1274.14,-198.24 1829.81,-185.51 2031.11,-152.35"/>
<polygon fill="#63b8ff" stroke="#63b8ff" points="2031.67,-155.81 2040.93,-150.65 2030.48,-148.91 2031.67,-155.81"/>
</a>
</g>
</g>
<!-- Node5&#45;&gt;Node6 -->
<g id="edge5_Node000005_Node000006" class="edge">
<title>Node5&#45;&gt;Node6</title>
<g id="a_edge5_Node000005_Node000006"><a xlink:title=" ">
<path fill="none" stroke="#63b8ff" d="M2303.23,-115.63C2296.08,-113.54 2288.63,-111.7 2281.5,-110.5 2093.23,-78.78 686.48,-67.86 430.43,-66.13"/>
<polygon fill="#63b8ff" stroke="#63b8ff" points="430.65,-62.63 420.63,-66.07 430.6,-69.63 430.65,-62.63"/>
</a>
</g>
</g>
<!-- Node5&#45;&gt;Node8 -->
<g id="edge11_Node000005_Node000008" class="edge">
<title>Node5&#45;&gt;Node8</title>
<g id="a_edge11_Node000005_Node000008"><a xlink:title=" ">
<path fill="none" stroke="#63b8ff" d="M2350.86,-115.69C2361.67,-94.12 2381.86,-53.82 2393.85,-29.89"/>
<polygon fill="#63b8ff" stroke="#63b8ff" points="2396.97,-31.48 2398.32,-20.97 2390.71,-28.34 2396.97,-31.48"/>
</a>
</g>
</g>
<!-- Node5&#45;&gt;Node12 -->
<g id="edge12_Node000005_Node000012" class="edge">
<title>Node5&#45;&gt;Node12</title>
<g id="a_edge12_Node000005_Node000012"><a xlink:title=" ">
<path fill="none" stroke="#63b8ff" d="M2303.57,-115.7C2296.31,-113.58 2288.75,-111.7 2281.5,-110.5 1862.37,-40.95 795.95,-134.79 355.94,-74.37"/>
<polygon fill="#63b8ff" stroke="#63b8ff" points="356.6,-70.93 346.21,-72.99 355.61,-77.86 356.6,-70.93"/>
</a>
</g>
</g>
<!-- Node6&#45;&gt;Node7 -->
<g id="edge6_Node000006_Node000007" class="edge">
<title>Node6&#45;&gt;Node7</title>
<g id="a_edge6_Node000006_Node000007"><a xlink:title=" ">
<path fill="none" stroke="#63b8ff" d="M365.22,-54.84C341.14,-46.24 304.64,-33.19 277.52,-23.5"/>
<polygon fill="#63b8ff" stroke="#63b8ff" points="278.92,-20.28 268.33,-20.21 276.56,-26.87 278.92,-20.28"/>
</a>
</g>
</g>
<!-- Node6&#45;&gt;Node8 -->
<g id="edge7_Node000006_Node000008" class="edge">
<title>Node6&#45;&gt;Node8</title>
<g id="a_edge7_Node000006_Node000008"><a xlink:title=" ">
<path fill="none" stroke="#63b8ff" d="M418.96,-63.12C642.88,-57.2 2119.13,-18.15 2367.93,-11.57"/>
<polygon fill="#63b8ff" stroke="#63b8ff" points="2367.74,-15.07 2377.64,-11.31 2367.55,-8.07 2367.74,-15.07"/>
</a>
</g>
</g>
<!-- Node9 -->
<g id="Node000009" class="node">
<title>Node9</title>
<g id="a_Node000009"><a xlink:title=" ">
<polygon fill="#e0e0e0" stroke="#999999" points="424.5,-19.25 366.5,-19.25 366.5,0 424.5,0 424.5,-19.25"/>
<text text-anchor="middle" x="395.5" y="-5.75" font-family="Helvetica,sans-Serif" font-size="10.00">functional</text>
</a>
</g>
</g>
<!-- Node6&#45;&gt;Node9 -->
<g id="edge8_Node000006_Node000009" class="edge">
<title>Node6&#45;&gt;Node9</title>
<g id="a_edge8_Node000006_Node000009"><a xlink:title=" ">
<path fill="none" stroke="#63b8ff" d="M391.33,-55.08C391.94,-48.49 392.82,-39.21 393.6,-30.82"/>
<polygon fill="#63b8ff" stroke="#63b8ff" points="397.06,-31.4 394.51,-21.12 390.1,-30.75 397.06,-31.4"/>
</a>
</g>
</g>
<!-- Node6&#45;&gt;Node10 -->
<g id="edge9_Node000006_Node000010" class="edge">
<title>Node6&#45;&gt;Node10</title>
<g id="a_edge9_Node000006_Node000010"><a xlink:title=" ">
<path fill="none" stroke="#63b8ff" d="M361.78,-57.17C325.2,-48.6 260.07,-33.18 204.5,-19.25 203.49,-19 202.47,-18.74 201.44,-18.48"/>
<polygon fill="#63b8ff" stroke="#63b8ff" points="202.35,-15.1 191.8,-15.99 200.61,-21.88 202.35,-15.1"/>
</a>
</g>
</g>
<!-- Node6&#45;&gt;Node11 -->
<g id="edge10_Node000006_Node000011" class="edge">
<title>Node6&#45;&gt;Node11</title>
<g id="a_edge10_Node000006_Node000011"><a xlink:title=" ">
<path fill="none" stroke="#63b8ff" d="M378.12,-54.84C367.35,-46.99 351.53,-35.45 338.75,-26.12"/>
<polygon fill="#63b8ff" stroke="#63b8ff" points="341.06,-23.48 330.92,-20.42 336.94,-29.14 341.06,-23.48"/>
</a>
</g>
</g>
<!-- Node29 -->
<g id="Node000029" class="node">
<title>Node29</title>
<g id="a_Node000029"><a xlink:title=" ">
<polygon fill="#e0e0e0" stroke="#999999" points="2848.62,-218.75 2746.38,-218.75 2746.38,-188.25 2848.62,-188.25 2848.62,-218.75"/>
<text text-anchor="start" x="2754.38" y="-205.25" font-family="Helvetica,sans-Serif" font-size="10.00">mp&#45;units/framework</text>
<text text-anchor="middle" x="2797.5" y="-194" font-family="Helvetica,sans-Serif" font-size="10.00">/quantity.h</text>
</a>
</g>
</g>
<!-- Node28&#45;&gt;Node29 -->
<g id="edge40_Node000028_Node000029" class="edge">
<title>Node28&#45;&gt;Node29</title>
<g id="a_edge40_Node000028_Node000029"><a xlink:title=" ">
<path fill="none" stroke="#63b8ff" d="M2744.07,-254.43C2751.92,-247.09 2763.38,-236.38 2773.68,-226.76"/>
<polygon fill="#63b8ff" stroke="#63b8ff" points="2775.93,-229.45 2780.84,-220.07 2771.15,-224.34 2775.93,-229.45"/>
</a>
</g>
</g>
<!-- Node30 -->
<g id="Node000030" class="node">
<title>Node30</title>
<g id="a_Node000030"><a xlink:title=" ">
<polygon fill="#e0e0e0" stroke="#999999" points="2968.62,-218.75 2866.38,-218.75 2866.38,-188.25 2968.62,-188.25 2968.62,-218.75"/>
<text text-anchor="start" x="2874.38" y="-205.25" font-family="Helvetica,sans-Serif" font-size="10.00">mp&#45;units/framework</text>
<text text-anchor="middle" x="2917.5" y="-194" font-family="Helvetica,sans-Serif" font-size="10.00">/quantity_point.h</text>
</a>
</g>
</g>
<!-- Node28&#45;&gt;Node30 -->
<g id="edge41_Node000028_Node000030" class="edge">
<title>Node28&#45;&gt;Node30</title>
<g id="a_edge41_Node000028_Node000030"><a xlink:title=" ">
<path fill="none" stroke="#63b8ff" d="M2762.69,-254.3C2788.82,-245.9 2828.44,-233.15 2861.06,-222.66"/>
<polygon fill="#63b8ff" stroke="#63b8ff" points="2861.94,-226.05 2870.38,-219.66 2859.79,-219.39 2861.94,-226.05"/>
</a>
</g>
</g>
<!-- Node31 -->
<g id="Node000031" class="node">
<title>Node31</title>
<g id="a_Node000031"><a xlink:title=" ">
<polygon fill="#e0e0e0" stroke="#999999" points="3072.38,-213.12 2986.62,-213.12 2986.62,-193.88 3072.38,-193.88 3072.38,-213.12"/>
<text text-anchor="middle" x="3029.5" y="-199.62" font-family="Helvetica,sans-Serif" font-size="10.00">mp&#45;units/math.h</text>
</a>
</g>
</g>
<!-- Node28&#45;&gt;Node31 -->
<g id="edge42_Node000028_Node000031" class="edge">
<title>Node28&#45;&gt;Node31</title>
<g id="a_edge42_Node000028_Node000031"><a xlink:title=" ">
<path fill="none" stroke="#63b8ff" d="M2779.97,-256.22C2828.97,-248.24 2909.13,-234.37 2977.5,-218.75 2980.62,-218.04 2983.84,-217.26 2987.07,-216.45"/>
<polygon fill="#63b8ff" stroke="#63b8ff" points="2987.73,-219.89 2996.52,-213.98 2985.96,-213.12 2987.73,-219.89"/>
</a>
</g>
</g>
<!-- Node32 -->
<g id="Node000032" class="node">
<title>Node32</title>
<g id="a_Node000032"><a xlink:title=" ">
<polygon fill="#e0e0e0" stroke="#999999" points="2599,-218.75 2490,-218.75 2490,-188.25 2599,-188.25 2599,-218.75"/>
<text text-anchor="start" x="2498" y="-205.25" font-family="Helvetica,sans-Serif" font-size="10.00">mp&#45;units/systems/isq</text>
<text text-anchor="middle" x="2544.5" y="-194" font-family="Helvetica,sans-Serif" font-size="10.00">/thermodynamics.h</text>
</a>
</g>
</g>
<!-- Node28&#45;&gt;Node32 -->
<g id="edge43_Node000028_Node000032" class="edge">
<title>Node28&#45;&gt;Node32</title>
<g id="a_edge43_Node000028_Node000032"><a xlink:title=" ">
<path fill="none" stroke="#63b8ff" d="M2705.23,-254.3C2677.99,-245.86 2636.61,-233.04 2602.66,-222.52"/>
<polygon fill="#63b8ff" stroke="#63b8ff" points="2603.96,-219.26 2593.37,-219.64 2601.88,-225.95 2603.96,-219.26"/>
</a>
</g>
</g>
<!-- Node33 -->
<g id="Node000033" class="node">
<title>Node33</title>
<g id="a_Node000033"><a xlink:title=" ">
<polygon fill="#e0e0e0" stroke="#999999" points="2728.12,-213.12 2616.88,-213.12 2616.88,-193.88 2728.12,-193.88 2728.12,-213.12"/>
<text text-anchor="middle" x="2672.5" y="-199.62" font-family="Helvetica,sans-Serif" font-size="10.00">mp&#45;units/systems/si.h</text>
</a>
</g>
</g>
<!-- Node28&#45;&gt;Node33 -->
<g id="edge44_Node000028_Node000033" class="edge">
<title>Node28&#45;&gt;Node33</title>
<g id="a_edge44_Node000028_Node000033"><a xlink:title=" ">
<path fill="none" stroke="#63b8ff" d="M2725.08,-254.43C2715.89,-245.7 2701.66,-232.19 2690.33,-221.43"/>
<polygon fill="#63b8ff" stroke="#63b8ff" points="2692.76,-218.92 2683.1,-214.57 2687.94,-223.99 2692.76,-218.92"/>
</a>
</g>
</g>
</g>
</svg>

<g id="navigator" transform="translate(0 0)" fill="#404254">
  <rect fill="#f2f5e9" fill-opacity="0.5" stroke="#606060" stroke-width=".5" x="0" y="0" width="60" height="60"/>
  <use id="zoomplus" xlink:href="#zoomPlus" x="17" y="9" onmousedown="handleZoom(evt,'in')"/>
  <use id="zoomminus" xlink:href="#zoomMin" x="42" y="9" onmousedown="handleZoom(evt,'out')"/>
  <use id="reset" xlink:href="#resetDef" x="30" y="36" onmousedown="handleReset()"/>
   <use id="arrowup" xlink:href="#arrowUp" x="0" y="0" onmousedown="handlePan(0,-1)"/>
  <use id="arrowright" xlink:href="#arrowRight" x="0" y="0" onmousedown="handlePan(1,0)"/>
  <use id="arrowdown" xlink:href="#arrowDown" x="0" y="0" onmousedown="handlePan(0,1)"/>
  <use id="arrowleft" xlink:href="#arrowLeft" x="0" y="0" onmousedown="handlePan(-1,0)"/>
</g>
<svg viewBox="0 0 15 15" width="100%" height="30px" preserveAspectRatio="xMaxYMin meet">
 <g id="arrow_out" transform="scale(0.3 0.3)">
  <a xlink:href="quantity_2fcarouge_2linalg_8hpp__incl_org.svg" target="_base">
   <rect id="button" ry="5" rx="5" y="6" x="6" height="38" width="38"
        fill="#f2f5e9" fill-opacity="0.5" stroke="#606060" stroke-width="1.0"/>
   <path id="arrow"
     d="M 11.500037,31.436501 C 11.940474,20.09759 22.043105,11.32322 32.158766,21.979434 L 37.068811,17.246167 C 37.068811,17.246167 37.088388,32 37.088388,32 L 22.160133,31.978069 C 22.160133,31.978069 26.997745,27.140456 26.997745,27.140456 C 18.528582,18.264221 13.291696,25.230495 11.500037,31.436501 z"
     style="fill:#404040;"/>
  </a>
 </g>
</svg>

<style type='text/css'>
<![CDATA[
[data-mouse-over-selected='false'] { opacity: 0.7; }
[data-mouse-over-selected='true']  { opacity: 1.0; }
]]>
</style>
<script type="application/ecmascript"><![CDATA[
document.addEventListener('DOMContentLoaded', (event) => {
  highlightEdges();
  highlightAdjacentNodes();
});
]]></script>
</svg>
