<?xml version="1.0" encoding="UTF-8" standalone="no"?>
<!DOCTYPE svg PUBLIC "-//W3C//DTD SVG 1.1//EN"
 "http://www.w3.org/Graphics/SVG/1.1/DTD/svg11.dtd">
<!-- Generated by graphviz version 12.2.0 (20241103.1931)
 -->
<!-- Title: /github/workspace/test/row_typed_matrix/row_typed_matrix.cpp Pages: 1 -->
<!--zoomable 316 -->

<svg id="main" version="1.1" xmlns="http://www.w3.org/2000/svg" xmlns:xlink="http://www.w3.org/1999/xlink" xml:space="preserve" onload="init(evt)">

<style type="text/css"><![CDATA[
.node, .edge {opacity: 0.7;}
.node.selected, .edge.selected {opacity: 1;}
.edge:hover path { stroke: red; }
.edge:hover polygon { stroke: red; fill: red; }
]]></style>

<defs>
  <circle id="rim" cx="0" cy="0" r="7"/>
  <circle id="rim2" cx="0" cy="0" r="3.5"/>
  <g id="zoomPlus">
    <use xlink:href="#rim" fill="#404040"><set attributeName="fill" to="#808080" begin="zoomplus.mouseover" end="zoomplus.mouseout"/></use>
    <path d="M-4,0h8M0,-4v8" fill="none" stroke="white" stroke-width="1.5" pointer-events="none"/>
  </g>
  <g id="zoomMin">
    <use xlink:href="#rim" fill="#404040"><set attributeName="fill" to="#808080" begin="zoomminus.mouseover" end="zoomminus.mouseout"/></use>
    <path d="M-4,0h8" fill="none" stroke="white" stroke-width="1.5" pointer-events="none"/>
  </g>
  <g id="arrowUp" transform="translate(30 24)">
    <use xlink:href="#rim"/>
    <path pointer-events="none" fill="none" stroke="white" stroke-width="1.5" d="M0,-3.0v7 M-2.5,-0.5L0,-3.0L2.5,-0.5"/>
  </g>
  <g id="arrowRight" transform="rotate(90) translate(36 -43)">
    <use xlink:href="#rim"/>
    <path pointer-events="none" fill="none" stroke="white" stroke-width="1.5" d="M0,-3.0v7 M-2.5,-0.5L0,-3.0L2.5,-0.5"/>
  </g>
  <g id="arrowDown" transform="rotate(180) translate(-30 -48)">
    <use xlink:href="#rim"/>
    <path pointer-events="none" fill="none" stroke="white" stroke-width="1.5" d="M0,-3.0v7 M-2.5,-0.5L0,-3.0L2.5,-0.5"/>
  </g>
  <g id="arrowLeft" transform="rotate(270) translate(-36 17)">
    <use xlink:href="#rim"/>
    <path pointer-events="none" fill="none" stroke="white" stroke-width="1.5" d="M0,-3.0v7 M-2.5,-0.5L0,-3.0L2.5,-0.5"/>
  </g>
  <g id="resetDef">
    <use xlink:href="#rim2" fill="#404040"><set attributeName="fill" to="#808080" begin="reset.mouseover" end="reset.mouseout"/></use>
  </g>
</defs>
<script type="application/ecmascript">
var viewWidth = 3342;
var viewHeight = 316;
var sectionId = 'dynsection-0';
</script>
<script type="application/ecmascript" xlink:href="svg.min.js"/>
<svg id="graph" class="graph">
<g id="viewport">
<title>/github/workspace/test/row_typed_matrix/row_typed_matrix.cpp</title>
<!-- Node1 -->
<g id="Node000001" class="node">
<title>Node1</title>
<g id="a_Node000001"><a xlink:title=" ">
<polygon fill="#999999" stroke="#666666" points="1696.83,-307.75 1581.83,-307.75 1581.83,-266 1696.83,-266 1696.83,-307.75"/>
<text text-anchor="start" x="1589.83" y="-294.25" font-family="Helvetica,sans-Serif" font-size="10.00">/github/workspace/test</text>
<text text-anchor="start" x="1589.83" y="-283" font-family="Helvetica,sans-Serif" font-size="10.00">/row_typed_matrix/row</text>
<text text-anchor="middle" x="1639.33" y="-271.75" font-family="Helvetica,sans-Serif" font-size="10.00">_typed_matrix.cpp</text>
</a>
</g>
</g>
<!-- Node2 -->
<g id="Node000002" class="node">
<title>Node2</title>
<g id="a_Node000002"><a xlink:href="eigen_8hpp.xhtml" target="_top" xlink:title="Linear algebra facade for Eigen3 third party implementation.">
<polygon fill="white" stroke="#666666" points="1688.2,-230 1590.45,-230 1590.45,-210.75 1688.2,-210.75 1688.2,-230"/>
<text text-anchor="middle" x="1639.33" y="-216.5" font-family="Helvetica,sans-Serif" font-size="10.00">fcarouge/eigen.hpp</text>
</a>
</g>
</g>
<!-- Node1&#45;&gt;Node2 -->
<g id="edge1_Node000001_Node000002" class="edge">
<title>Node1&#45;&gt;Node2</title>
<g id="a_edge1_Node000001_Node000002"><a xlink:title=" ">
<path fill="none" stroke="#63b8ff" d="M1639.33,-265.82C1639.33,-258.15 1639.33,-249.39 1639.33,-241.7"/>
<polygon fill="#63b8ff" stroke="#63b8ff" points="1642.83,-241.96 1639.33,-231.96 1635.83,-241.96 1642.83,-241.96"/>
</a>
</g>
</g>
<!-- Node10 -->
<g id="Node000010" class="node">
<title>Node10</title>
<g id="a_Node000010"><a xlink:title=" ">
<polygon fill="#e0e0e0" stroke="#999999" points="47.83,-24.88 10.83,-24.88 10.83,-5.63 47.83,-5.63 47.83,-24.88"/>
<text text-anchor="middle" x="29.33" y="-11.38" font-family="Helvetica,sans-Serif" font-size="10.00">tuple</text>
</a>
</g>
</g>
<!-- Node1&#45;&gt;Node10 -->
<g id="edge48_Node000001_Node000010" class="edge">
<title>Node1&#45;&gt;Node10</title>
<g id="a_edge48_Node000001_Node000010"><a xlink:title=" ">
<path fill="none" stroke="#63b8ff" d="M1581.73,-285.83C1308.13,-285.12 147.97,-276.1 26.33,-174.75 -11.09,-143.58 0.16,-114.33 9.33,-66.5 11.37,-55.87 15.63,-44.62 19.69,-35.46"/>
<polygon fill="#63b8ff" stroke="#63b8ff" points="22.79,-37.1 23.91,-26.56 16.47,-34.1 22.79,-37.1"/>
</a>
</g>
</g>
<!-- Node38 -->
<g id="Node000038" class="node">
<title>Node38</title>
<g id="a_Node000038"><a xlink:title=" ">
<polygon fill="#e0e0e0" stroke="#999999" points="1802.83,-230 1705.83,-230 1705.83,-210.75 1802.83,-210.75 1802.83,-230"/>
<text text-anchor="middle" x="1754.33" y="-216.5" font-family="Helvetica,sans-Serif" font-size="10.00">fcarouge/linalg.hpp</text>
</a>
</g>
</g>
<!-- Node1&#45;&gt;Node38 -->
<g id="edge47_Node000001_Node000038" class="edge">
<title>Node1&#45;&gt;Node38</title>
<g id="a_edge47_Node000001_Node000038"><a xlink:title=" ">
<path fill="none" stroke="#63b8ff" d="M1675.4,-265.64C1692.53,-256.04 1712.61,-244.77 1728.24,-236.01"/>
<polygon fill="#63b8ff" stroke="#63b8ff" points="1729.92,-239.08 1736.93,-231.13 1726.49,-232.97 1729.92,-239.08"/>
</a>
</g>
</g>
<!-- Node3 -->
<g id="Node000003" class="node">
<title>Node3</title>
<g id="a_Node000003"><a xlink:href="typed__linear__algebra_8hpp.xhtml" target="_top" xlink:title="Typed linear algebra implementation.">
<polygon fill="white" stroke="#666666" points="1693.45,-174.75 1585.2,-174.75 1585.2,-144.25 1693.45,-144.25 1693.45,-174.75"/>
<text text-anchor="start" x="1593.2" y="-161.25" font-family="Helvetica,sans-Serif" font-size="10.00">fcarouge/typed_linear</text>
<text text-anchor="middle" x="1639.33" y="-150" font-family="Helvetica,sans-Serif" font-size="10.00">_algebra.hpp</text>
</a>
</g>
</g>
<!-- Node2&#45;&gt;Node3 -->
<g id="edge2_Node000002_Node000003" class="edge">
<title>Node2&#45;&gt;Node3</title>
<g id="a_edge2_Node000002_Node000003"><a xlink:title=" ">
<path fill="none" stroke="#63b8ff" d="M1639.33,-210.43C1639.33,-203.98 1639.33,-194.91 1639.33,-186.26"/>
<polygon fill="#63b8ff" stroke="#63b8ff" points="1642.83,-186.55 1639.33,-176.55 1635.83,-186.55 1642.83,-186.55"/>
</a>
</g>
</g>
<!-- Node7 -->
<g id="Node000007" class="node">
<title>Node7</title>
<g id="a_Node000007"><a xlink:title=" ">
<polygon fill="#e0e0e0" stroke="#999999" points="3334.2,-24.88 3278.45,-24.88 3278.45,-5.63 3334.2,-5.63 3334.2,-24.88"/>
<text text-anchor="middle" x="3306.33" y="-11.38" font-family="Helvetica,sans-Serif" font-size="10.00">concepts</text>
</a>
</g>
</g>
<!-- Node2&#45;&gt;Node7 -->
<g id="edge40_Node000002_Node000007" class="edge">
<title>Node2&#45;&gt;Node7</title>
<g id="a_edge40_Node000002_Node000007"><a xlink:title=" ">
<path fill="none" stroke="#63b8ff" d="M1688.64,-211.61C1691.58,-211.28 1694.49,-210.99 1697.33,-210.75 1741.35,-206.99 3254.62,-204.44 3287.33,-174.75 3326.07,-139.58 3318,-70.07 3311.1,-36"/>
<polygon fill="#63b8ff" stroke="#63b8ff" points="3314.61,-35.67 3309.02,-26.67 3307.77,-37.19 3314.61,-35.67"/>
</a>
</g>
</g>
<!-- Node8 -->
<g id="Node000008" class="node">
<title>Node8</title>
<g id="a_Node000008"><a xlink:title=" ">
<polygon fill="#e0e0e0" stroke="#999999" points="171.45,-24.88 123.2,-24.88 123.2,-5.63 171.45,-5.63 171.45,-24.88"/>
<text text-anchor="middle" x="147.33" y="-11.38" font-family="Helvetica,sans-Serif" font-size="10.00">cstddef</text>
</a>
</g>
</g>
<!-- Node2&#45;&gt;Node8 -->
<g id="edge41_Node000002_Node000008" class="edge">
<title>Node2&#45;&gt;Node8</title>
<g id="a_edge41_Node000002_Node000008"><a xlink:title=" ">
<path fill="none" stroke="#63b8ff" d="M1590.24,-219.27C1377.9,-218.6 537.45,-213.51 276.33,-174.75 163.45,-158 97.79,-198.79 28.33,-108.25 17.03,-93.53 18.07,-81.96 28.33,-66.5 46.71,-38.78 83.74,-26.31 111.63,-20.73"/>
<polygon fill="#63b8ff" stroke="#63b8ff" points="112.22,-24.18 121.46,-19 111,-17.29 112.22,-24.18"/>
</a>
</g>
</g>
<!-- Node2&#45;&gt;Node10 -->
<g id="edge44_Node000002_Node000010" class="edge">
<title>Node2&#45;&gt;Node10</title>
<g id="a_edge44_Node000002_Node000010"><a xlink:title=" ">
<path fill="none" stroke="#63b8ff" d="M1590.21,-219.22C1331.1,-218.22 132.16,-211.64 63.33,-174.75 31.43,-157.66 27.29,-142.74 16.33,-108.25 8.68,-84.16 15.26,-55.1 21.52,-36.17"/>
<polygon fill="#63b8ff" stroke="#63b8ff" points="24.81,-37.37 24.92,-26.78 18.23,-34.99 24.81,-37.37"/>
</a>
</g>
</g>
<!-- Node11 -->
<g id="Node000011" class="node">
<title>Node11</title>
<g id="a_Node000011"><a xlink:title=" ">
<polygon fill="#e0e0e0" stroke="#999999" points="3260.83,-24.88 3199.83,-24.88 3199.83,-5.63 3260.83,-5.63 3260.83,-24.88"/>
<text text-anchor="middle" x="3230.33" y="-11.38" font-family="Helvetica,sans-Serif" font-size="10.00">type_traits</text>
</a>
</g>
</g>
<!-- Node2&#45;&gt;Node11 -->
<g id="edge45_Node000002_Node000011" class="edge">
<title>Node2&#45;&gt;Node11</title>
<g id="a_edge45_Node000002_Node000011"><a xlink:title=" ">
<path fill="none" stroke="#63b8ff" d="M1688.66,-211.77C1691.59,-211.4 1694.5,-211.06 1697.33,-210.75 2021.31,-175.37 2873.56,-263.11 3160.33,-108.25 3189.97,-92.24 3210.83,-57.68 3221.69,-35.77"/>
<polygon fill="#63b8ff" stroke="#63b8ff" points="3224.85,-37.28 3225.92,-26.74 3218.51,-34.31 3224.85,-37.28"/>
</a>
</g>
</g>
<!-- Node13 -->
<g id="Node000013" class="node">
<title>Node13</title>
<g id="a_Node000013"><a xlink:title=" ">
<polygon fill="#e0e0e0" stroke="#999999" points="81.2,-97 37.45,-97 37.45,-77.75 81.2,-77.75 81.2,-97"/>
<text text-anchor="middle" x="59.33" y="-83.5" font-family="Helvetica,sans-Serif" font-size="10.00">format</text>
</a>
</g>
</g>
<!-- Node2&#45;&gt;Node13 -->
<g id="edge42_Node000002_Node000013" class="edge">
<title>Node2&#45;&gt;Node13</title>
<g id="a_edge42_Node000002_Node000013"><a xlink:title=" ">
<path fill="none" stroke="#63b8ff" d="M1590.03,-218.67C1359.32,-214.92 385.37,-194.22 95.33,-108.25 90.91,-106.94 86.43,-105.03 82.21,-102.9"/>
<polygon fill="#63b8ff" stroke="#63b8ff" points="84.14,-99.98 73.71,-98.13 80.72,-106.08 84.14,-99.98"/>
</a>
</g>
</g>
<!-- Node36 -->
<g id="Node000036" class="node">
<title>Node36</title>
<g id="a_Node000036"><a xlink:title=" ">
<polygon fill="#e0e0e0" stroke="#999999" points="3192.95,-169.12 3141.7,-169.12 3141.7,-149.88 3192.95,-149.88 3192.95,-169.12"/>
<text text-anchor="middle" x="3167.33" y="-155.62" font-family="Helvetica,sans-Serif" font-size="10.00">sstream</text>
</a>
</g>
</g>
<!-- Node2&#45;&gt;Node36 -->
<g id="edge43_Node000002_Node000036" class="edge">
<title>Node2&#45;&gt;Node36</title>
<g id="a_edge43_Node000002_Node000036"><a xlink:title=" ">
<path fill="none" stroke="#63b8ff" d="M1688.64,-211.62C1691.58,-211.29 1694.49,-211 1697.33,-210.75 2014.02,-183.32 2814.8,-232.82 3127.33,-174.75 3129.8,-174.29 3132.33,-173.7 3134.85,-173.02"/>
<polygon fill="#63b8ff" stroke="#63b8ff" points="3135.73,-176.41 3144.22,-170.08 3133.63,-169.73 3135.73,-176.41"/>
</a>
</g>
</g>
<!-- Node37 -->
<g id="Node000037" class="node">
<title>Node37</title>
<g id="a_Node000037"><a xlink:title=" ">
<polygon fill="#e0e0e0" stroke="#999999" points="3277.83,-169.12 3210.83,-169.12 3210.83,-149.88 3277.83,-149.88 3277.83,-169.12"/>
<text text-anchor="middle" x="3244.33" y="-155.62" font-family="Helvetica,sans-Serif" font-size="10.00">Eigen/Eigen</text>
</a>
</g>
</g>
<!-- Node2&#45;&gt;Node37 -->
<g id="edge46_Node000002_Node000037" class="edge">
<title>Node2&#45;&gt;Node37</title>
<g id="a_edge46_Node000002_Node000037"><a xlink:title=" ">
<path fill="none" stroke="#63b8ff" d="M1688.64,-211.62C1691.58,-211.29 1694.49,-210.99 1697.33,-210.75 2030.64,-182.09 2872.93,-233.16 3202.33,-174.75 3205.11,-174.26 3207.97,-173.61 3210.81,-172.87"/>
<polygon fill="#63b8ff" stroke="#63b8ff" points="3211.54,-176.3 3220.1,-170.06 3209.52,-169.6 3211.54,-176.3"/>
</a>
</g>
</g>
<!-- Node4 -->
<g id="Node000004" class="node">
<title>Node4</title>
<g id="a_Node000004"><a xlink:href="utility_8hpp.xhtml" target="_top" xlink:title=" ">
<polygon fill="white" stroke="#666666" points="3132.58,-102.62 3028.08,-102.62 3028.08,-72.12 3132.58,-72.12 3132.58,-102.62"/>
<text text-anchor="start" x="3036.08" y="-89.12" font-family="Helvetica,sans-Serif" font-size="10.00">typed_linear_algebra</text>
<text text-anchor="middle" x="3080.33" y="-77.88" font-family="Helvetica,sans-Serif" font-size="10.00">/internal/utility.hpp</text>
</a>
</g>
</g>
<!-- Node3&#45;&gt;Node4 -->
<g id="edge3_Node000003_Node000004" class="edge">
<title>Node3&#45;&gt;Node4</title>
<g id="a_edge3_Node000003_Node000004"><a xlink:title=" ">
<path fill="none" stroke="#63b8ff" d="M1693.67,-158.37C1915.57,-157.54 2753.49,-151.55 3014.33,-108.25 3018.34,-107.58 3022.45,-106.74 3026.57,-105.79"/>
<polygon fill="#63b8ff" stroke="#63b8ff" points="3027.1,-109.26 3035.92,-103.4 3025.37,-102.48 3027.1,-109.26"/>
</a>
</g>
</g>
<!-- Node5 -->
<g id="Node000005" class="node">
<title>Node5</title>
<g id="a_Node000005"><a xlink:href="typed__linear__algebra__forward_8hpp.xhtml" target="_top" xlink:title="Authoritative forward declaration header.">
<polygon fill="white" stroke="#666666" points="3181.45,-30.5 3073.2,-30.5 3073.2,0 3181.45,0 3181.45,-30.5"/>
<text text-anchor="start" x="3081.2" y="-17" font-family="Helvetica,sans-Serif" font-size="10.00">fcarouge/typed_linear</text>
<text text-anchor="middle" x="3127.33" y="-5.75" font-family="Helvetica,sans-Serif" font-size="10.00">_algebra_forward.hpp</text>
</a>
</g>
</g>
<!-- Node3&#45;&gt;Node5 -->
<g id="edge12_Node000003_Node000005" class="edge">
<title>Node3&#45;&gt;Node5</title>
<g id="a_edge12_Node000003_Node000005"><a xlink:title=" ">
<path fill="none" stroke="#63b8ff" d="M1693.83,-158.77C1957.47,-159.83 3090.06,-161.26 3141.33,-108.25 3158.28,-90.73 3150.38,-61.9 3141.04,-41.18"/>
<polygon fill="#63b8ff" stroke="#63b8ff" points="3144.22,-39.71 3136.67,-32.27 3137.93,-42.79 3144.22,-39.71"/>
</a>
</g>
</g>
<!-- Node3&#45;&gt;Node7 -->
<g id="edge13_Node000003_Node000007" class="edge">
<title>Node3&#45;&gt;Node7</title>
<g id="a_edge13_Node000003_Node000007"><a xlink:title=" ">
<path fill="none" stroke="#63b8ff" d="M1693.74,-158.39C1948.61,-157.64 3018.09,-151.88 3160.33,-108.25 3211.09,-92.68 3261.55,-54.57 3287.79,-32.6"/>
<polygon fill="#63b8ff" stroke="#63b8ff" points="3289.84,-35.45 3295.16,-26.29 3285.29,-30.13 3289.84,-35.45"/>
</a>
</g>
</g>
<!-- Node3&#45;&gt;Node8 -->
<g id="edge14_Node000003_Node000008" class="edge">
<title>Node3&#45;&gt;Node8</title>
<g id="a_edge14_Node000003_Node000008"><a xlink:title=" ">
<path fill="none" stroke="#63b8ff" d="M1584.96,-157.56C1322.05,-152.9 193.97,-131.56 166.33,-108.25 145.89,-91.02 143.84,-58.14 145,-36.71"/>
<polygon fill="#63b8ff" stroke="#63b8ff" points="148.48,-37.13 145.85,-26.86 141.51,-36.53 148.48,-37.13"/>
</a>
</g>
</g>
<!-- Node3&#45;&gt;Node10 -->
<g id="edge17_Node000003_Node000010" class="edge">
<title>Node3&#45;&gt;Node10</title>
<g id="a_edge17_Node000003_Node000010"><a xlink:title=" ">
<path fill="none" stroke="#63b8ff" d="M1584.82,-158.73C1331.9,-159.49 279.31,-159.56 142.33,-108.25 140.94,-107.73 80.97,-58.62 48.98,-32.38"/>
<polygon fill="#63b8ff" stroke="#63b8ff" points="51.52,-29.94 41.57,-26.3 47.08,-35.35 51.52,-29.94"/>
</a>
</g>
</g>
<!-- Node12 -->
<g id="Node000012" class="node">
<title>Node12</title>
<g id="a_Node000012"><a xlink:title=" ">
<polygon fill="#e0e0e0" stroke="#999999" points="2923.58,-24.88 2885.08,-24.88 2885.08,-5.63 2923.58,-5.63 2923.58,-24.88"/>
<text text-anchor="middle" x="2904.33" y="-11.38" font-family="Helvetica,sans-Serif" font-size="10.00">utility</text>
</a>
</g>
</g>
<!-- Node3&#45;&gt;Node12 -->
<g id="edge18_Node000003_Node000012" class="edge">
<title>Node3&#45;&gt;Node12</title>
<g id="a_edge18_Node000003_Node000012"><a xlink:title=" ">
<path fill="none" stroke="#63b8ff" d="M1693.63,-158.55C1939.21,-158.49 2935.96,-155.35 2981.33,-108.25 2994.2,-94.89 2990.16,-82.82 2981.33,-66.5 2975.82,-56.33 2951.86,-41.56 2932.12,-30.67"/>
<polygon fill="#63b8ff" stroke="#63b8ff" points="2933.8,-27.6 2923.34,-25.94 2930.48,-33.77 2933.8,-27.6"/>
</a>
</g>
</g>
<!-- Node3&#45;&gt;Node13 -->
<g id="edge15_Node000003_Node000013" class="edge">
<title>Node3&#45;&gt;Node13</title>
<g id="a_edge15_Node000003_Node000013"><a xlink:title=" ">
<path fill="none" stroke="#63b8ff" d="M1585.02,-157.45C1319.59,-152.2 168.5,-128.38 95.33,-108.25 90.81,-107.01 86.24,-105.1 81.95,-102.94"/>
<polygon fill="#63b8ff" stroke="#63b8ff" points="83.76,-99.94 73.34,-98.06 80.32,-106.04 83.76,-99.94"/>
</a>
</g>
</g>
<!-- Node14 -->
<g id="Node000014" class="node">
<title>Node14</title>
<g id="a_Node000014"><a xlink:title=" ">
<polygon fill="#e0e0e0" stroke="#999999" points="247.08,-97 175.58,-97 175.58,-77.75 247.08,-77.75 247.08,-97"/>
<text text-anchor="middle" x="211.33" y="-83.5" font-family="Helvetica,sans-Serif" font-size="10.00">initializer_list</text>
</a>
</g>
</g>
<!-- Node3&#45;&gt;Node14 -->
<g id="edge16_Node000003_Node000014" class="edge">
<title>Node3&#45;&gt;Node14</title>
<g id="a_edge16_Node000003_Node000014"><a xlink:title=" ">
<path fill="none" stroke="#63b8ff" d="M1584.85,-157.74C1344.75,-154.21 387.23,-138.36 256.33,-108.25 250.09,-106.81 243.64,-104.51 237.64,-101.98"/>
<polygon fill="#63b8ff" stroke="#63b8ff" points="239.4,-98.93 228.85,-97.93 236.47,-105.29 239.4,-98.93"/>
</a>
</g>
</g>
<!-- Node15 -->
<g id="Node000015" class="node">
<title>Node15</title>
<g id="a_Node000015"><a xlink:title=" ">
<polygon fill="#e0e0e0" stroke="#999999" points="369.58,-102.62 265.08,-102.62 265.08,-72.12 369.58,-72.12 369.58,-102.62"/>
<text text-anchor="start" x="273.08" y="-89.12" font-family="Helvetica,sans-Serif" font-size="10.00">typed_linear_algebra</text>
<text text-anchor="middle" x="317.33" y="-77.88" font-family="Helvetica,sans-Serif" font-size="10.00">/algorithm/add.tpp</text>
</a>
</g>
</g>
<!-- Node3&#45;&gt;Node15 -->
<g id="edge19_Node000003_Node000015" class="edge">
<title>Node3&#45;&gt;Node15</title>
<g id="a_edge19_Node000003_Node000015"><a xlink:title=" ">
<path fill="none" stroke="#63b8ff" d="M1584.94,-158.28C1374.84,-157.14 616.2,-150.14 379.33,-108.25 375.93,-107.65 372.46,-106.91 368.99,-106.07"/>
<polygon fill="#63b8ff" stroke="#63b8ff" points="369.98,-102.71 359.42,-103.51 368.17,-109.48 369.98,-102.71"/>
</a>
</g>
</g>
<!-- Node16 -->
<g id="Node000016" class="node">
<title>Node16</title>
<g id="a_Node000016"><a xlink:title=" ">
<polygon fill="#e0e0e0" stroke="#999999" points="492.58,-102.62 388.08,-102.62 388.08,-72.12 492.58,-72.12 492.58,-102.62"/>
<text text-anchor="start" x="396.08" y="-89.12" font-family="Helvetica,sans-Serif" font-size="10.00">typed_linear_algebra</text>
<text text-anchor="middle" x="440.33" y="-77.88" font-family="Helvetica,sans-Serif" font-size="10.00">/algorithm/divide.tpp</text>
</a>
</g>
</g>
<!-- Node3&#45;&gt;Node16 -->
<g id="edge20_Node000003_Node000016" class="edge">
<title>Node3&#45;&gt;Node16</title>
<g id="a_edge20_Node000003_Node000016"><a xlink:title=" ">
<path fill="none" stroke="#63b8ff" d="M1584.95,-158.01C1388.22,-155.94 714.08,-146.17 502.33,-108.25 498.93,-107.64 495.47,-106.9 491.99,-106.06"/>
<polygon fill="#63b8ff" stroke="#63b8ff" points="492.99,-102.7 482.42,-103.48 491.17,-109.46 492.99,-102.7"/>
</a>
</g>
</g>
<!-- Node17 -->
<g id="Node000017" class="node">
<title>Node17</title>
<g id="a_Node000017"><a xlink:title=" ">
<polygon fill="#e0e0e0" stroke="#999999" points="615.58,-102.62 511.08,-102.62 511.08,-72.12 615.58,-72.12 615.58,-102.62"/>
<text text-anchor="start" x="519.08" y="-89.12" font-family="Helvetica,sans-Serif" font-size="10.00">typed_linear_algebra</text>
<text text-anchor="middle" x="563.33" y="-77.88" font-family="Helvetica,sans-Serif" font-size="10.00">/algorithm/dot.tpp</text>
</a>
</g>
</g>
<!-- Node3&#45;&gt;Node17 -->
<g id="edge21_Node000003_Node000017" class="edge">
<title>Node3&#45;&gt;Node17</title>
<g id="a_edge21_Node000003_Node000017"><a xlink:title=" ">
<path fill="none" stroke="#63b8ff" d="M1584.88,-157.71C1402.05,-154.74 811.18,-142.68 624.33,-108.25 620.99,-107.63 617.57,-106.88 614.16,-106.04"/>
<polygon fill="#63b8ff" stroke="#63b8ff" points="615.33,-102.73 604.76,-103.46 613.48,-109.48 615.33,-102.73"/>
</a>
</g>
</g>
<!-- Node18 -->
<g id="Node000018" class="node">
<title>Node18</title>
<g id="a_Node000018"><a xlink:title=" ">
<polygon fill="#e0e0e0" stroke="#999999" points="747.45,-102.62 633.2,-102.62 633.2,-72.12 747.45,-72.12 747.45,-102.62"/>
<text text-anchor="start" x="641.2" y="-89.12" font-family="Helvetica,sans-Serif" font-size="10.00">typed_linear_algebra</text>
<text text-anchor="middle" x="690.33" y="-77.88" font-family="Helvetica,sans-Serif" font-size="10.00">/algorithm/equal_to.tpp</text>
</a>
</g>
</g>
<!-- Node3&#45;&gt;Node18 -->
<g id="edge22_Node000003_Node000018" class="edge">
<title>Node3&#45;&gt;Node18</title>
<g id="a_edge22_Node000003_Node000018"><a xlink:title=" ">
<path fill="none" stroke="#63b8ff" d="M1584.84,-157.08C1418.16,-152.47 916.8,-136.57 756.33,-108.25 752.56,-107.59 748.71,-106.78 744.84,-105.87"/>
<polygon fill="#63b8ff" stroke="#63b8ff" points="746.02,-102.56 735.47,-103.47 744.29,-109.34 746.02,-102.56"/>
</a>
</g>
</g>
<!-- Node19 -->
<g id="Node000019" class="node">
<title>Node19</title>
<g id="a_Node000019"><a xlink:title=" ">
<polygon fill="#e0e0e0" stroke="#999999" points="887.58,-102.62 765.08,-102.62 765.08,-72.12 887.58,-72.12 887.58,-102.62"/>
<text text-anchor="start" x="773.08" y="-89.12" font-family="Helvetica,sans-Serif" font-size="10.00">typed_linear_algebra</text>
<text text-anchor="middle" x="826.33" y="-77.88" font-family="Helvetica,sans-Serif" font-size="10.00">/algorithm/magnitude.tpp</text>
</a>
</g>
</g>
<!-- Node3&#45;&gt;Node19 -->
<g id="edge23_Node000003_Node000019" class="edge">
<title>Node3&#45;&gt;Node19</title>
<g id="a_edge23_Node000003_Node000019"><a xlink:title=" ">
<path fill="none" stroke="#63b8ff" d="M1584.79,-158.69C1461.28,-158.29 1151.08,-152.53 896.33,-108.25 892.3,-107.55 888.16,-106.71 884.02,-105.77"/>
<polygon fill="#63b8ff" stroke="#63b8ff" points="885.1,-102.43 874.55,-103.46 883.44,-109.23 885.1,-102.43"/>
</a>
</g>
</g>
<!-- Node20 -->
<g id="Node000020" class="node">
<title>Node20</title>
<g id="a_Node000020"><a xlink:title=" ">
<polygon fill="#e0e0e0" stroke="#999999" points="1015.2,-108.25 905.45,-108.25 905.45,-66.5 1015.2,-66.5 1015.2,-108.25"/>
<text text-anchor="start" x="913.45" y="-94.75" font-family="Helvetica,sans-Serif" font-size="10.00">typed_linear_algebra</text>
<text text-anchor="start" x="913.45" y="-83.5" font-family="Helvetica,sans-Serif" font-size="10.00">/algorithm/matrix_frob</text>
<text text-anchor="middle" x="960.33" y="-72.25" font-family="Helvetica,sans-Serif" font-size="10.00">_norm.tpp</text>
</a>
</g>
</g>
<!-- Node3&#45;&gt;Node20 -->
<g id="edge24_Node000003_Node000020" class="edge">
<title>Node3&#45;&gt;Node20</title>
<g id="a_edge24_Node000003_Node000020"><a xlink:title=" ">
<path fill="none" stroke="#63b8ff" d="M1584.9,-158.05C1478.88,-156.3 1237.31,-148.11 1026.91,-108.52"/>
<polygon fill="#63b8ff" stroke="#63b8ff" points="1027.61,-105.09 1017.13,-106.65 1026.29,-111.97 1027.61,-105.09"/>
</a>
</g>
</g>
<!-- Node21 -->
<g id="Node000021" class="node">
<title>Node21</title>
<g id="a_Node000021"><a xlink:title=" ">
<polygon fill="#e0e0e0" stroke="#999999" points="1141.83,-108.25 1032.83,-108.25 1032.83,-66.5 1141.83,-66.5 1141.83,-108.25"/>
<text text-anchor="start" x="1040.83" y="-94.75" font-family="Helvetica,sans-Serif" font-size="10.00">typed_linear_algebra</text>
<text text-anchor="start" x="1040.83" y="-83.5" font-family="Helvetica,sans-Serif" font-size="10.00">/algorithm/matrix_one</text>
<text text-anchor="middle" x="1087.33" y="-72.25" font-family="Helvetica,sans-Serif" font-size="10.00">_norm.tpp</text>
</a>
</g>
</g>
<!-- Node3&#45;&gt;Node21 -->
<g id="edge25_Node000003_Node000021" class="edge">
<title>Node3&#45;&gt;Node21</title>
<g id="a_edge25_Node000003_Node000021"><a xlink:title=" ">
<path fill="none" stroke="#63b8ff" d="M1584.87,-156.51C1496.02,-152.49 1314.38,-140.98 1153.21,-108.65"/>
<polygon fill="#63b8ff" stroke="#63b8ff" points="1154.11,-105.26 1143.61,-106.69 1152.71,-112.12 1154.11,-105.26"/>
</a>
</g>
</g>
<!-- Node22 -->
<g id="Node000022" class="node">
<title>Node22</title>
<g id="a_Node000022"><a xlink:title=" ">
<polygon fill="#e0e0e0" stroke="#999999" points="1300.95,-102.62 1159.7,-102.62 1159.7,-72.12 1300.95,-72.12 1300.95,-102.62"/>
<text text-anchor="start" x="1167.7" y="-89.12" font-family="Helvetica,sans-Serif" font-size="10.00">typed_linear_algebra</text>
<text text-anchor="middle" x="1230.33" y="-77.88" font-family="Helvetica,sans-Serif" font-size="10.00">/algorithm/matrix_product.tpp</text>
</a>
</g>
</g>
<!-- Node3&#45;&gt;Node22 -->
<g id="edge26_Node000003_Node000022" class="edge">
<title>Node3&#45;&gt;Node22</title>
<g id="a_edge26_Node000003_Node000022"><a xlink:title=" ">
<path fill="none" stroke="#63b8ff" d="M1584.92,-151.75C1519.46,-143.27 1406.36,-127.47 1310.33,-108.25 1306.23,-107.43 1302.02,-106.54 1297.79,-105.6"/>
<polygon fill="#63b8ff" stroke="#63b8ff" points="1298.57,-102.19 1288.04,-103.37 1297.01,-109.01 1298.57,-102.19"/>
</a>
</g>
</g>
<!-- Node23 -->
<g id="Node000023" class="node">
<title>Node23</title>
<g id="a_Node000023"><a xlink:title=" ">
<polygon fill="#e0e0e0" stroke="#999999" points="1431.33,-108.25 1319.33,-108.25 1319.33,-66.5 1431.33,-66.5 1431.33,-108.25"/>
<text text-anchor="start" x="1327.33" y="-94.75" font-family="Helvetica,sans-Serif" font-size="10.00">typed_linear_algebra</text>
<text text-anchor="start" x="1327.33" y="-83.5" font-family="Helvetica,sans-Serif" font-size="10.00">/algorithm/matrix_rank</text>
<text text-anchor="middle" x="1375.33" y="-72.25" font-family="Helvetica,sans-Serif" font-size="10.00">_1_update.tpp</text>
</a>
</g>
</g>
<!-- Node3&#45;&gt;Node23 -->
<g id="edge27_Node000003_Node000023" class="edge">
<title>Node3&#45;&gt;Node23</title>
<g id="a_edge27_Node000003_Node000023"><a xlink:title=" ">
<path fill="none" stroke="#63b8ff" d="M1585.08,-145.57C1547.55,-136.45 1496.21,-123.63 1442.73,-108.86"/>
<polygon fill="#63b8ff" stroke="#63b8ff" points="1443.68,-105.49 1433.11,-106.19 1441.8,-112.24 1443.68,-105.49"/>
</a>
</g>
</g>
<!-- Node24 -->
<g id="Node000024" class="node">
<title>Node24</title>
<g id="a_Node000024"><a xlink:title=" ">
<polygon fill="#e0e0e0" stroke="#999999" points="1569.45,-108.25 1449.2,-108.25 1449.2,-66.5 1569.45,-66.5 1569.45,-108.25"/>
<text text-anchor="start" x="1457.2" y="-94.75" font-family="Helvetica,sans-Serif" font-size="10.00">typed_linear_algebra</text>
<text text-anchor="start" x="1457.2" y="-83.5" font-family="Helvetica,sans-Serif" font-size="10.00">/algorithm/matrix_vector</text>
<text text-anchor="middle" x="1509.33" y="-72.25" font-family="Helvetica,sans-Serif" font-size="10.00">_product.tpp</text>
</a>
</g>
</g>
<!-- Node3&#45;&gt;Node24 -->
<g id="edge28_Node000003_Node000024" class="edge">
<title>Node3&#45;&gt;Node24</title>
<g id="a_edge28_Node000003_Node000024"><a xlink:title=" ">
<path fill="none" stroke="#63b8ff" d="M1612.08,-143.8C1596.12,-135.19 1575.52,-124.08 1556.96,-114.07"/>
<polygon fill="#63b8ff" stroke="#63b8ff" points="1558.69,-111.03 1548.23,-109.36 1555.37,-117.19 1558.69,-111.03"/>
</a>
</g>
</g>
<!-- Node25 -->
<g id="Node000025" class="node">
<title>Node25</title>
<g id="a_Node000025"><a xlink:title=" ">
<polygon fill="#e0e0e0" stroke="#999999" points="1691.58,-102.62 1587.08,-102.62 1587.08,-72.12 1691.58,-72.12 1691.58,-102.62"/>
<text text-anchor="start" x="1595.08" y="-89.12" font-family="Helvetica,sans-Serif" font-size="10.00">typed_linear_algebra</text>
<text text-anchor="middle" x="1639.33" y="-77.88" font-family="Helvetica,sans-Serif" font-size="10.00">/algorithm/minus.tpp</text>
</a>
</g>
</g>
<!-- Node3&#45;&gt;Node25 -->
<g id="edge29_Node000003_Node000025" class="edge">
<title>Node3&#45;&gt;Node25</title>
<g id="a_edge29_Node000003_Node000025"><a xlink:title=" ">
<path fill="none" stroke="#63b8ff" d="M1639.33,-143.97C1639.33,-135.41 1639.33,-124.34 1639.33,-114.33"/>
<polygon fill="#63b8ff" stroke="#63b8ff" points="1642.83,-114.4 1639.33,-104.4 1635.83,-114.4 1642.83,-114.4"/>
</a>
</g>
</g>
<!-- Node26 -->
<g id="Node000026" class="node">
<title>Node26</title>
<g id="a_Node000026"><a xlink:title=" ">
<polygon fill="#e0e0e0" stroke="#999999" points="1819.2,-102.62 1709.45,-102.62 1709.45,-72.12 1819.2,-72.12 1819.2,-102.62"/>
<text text-anchor="start" x="1717.45" y="-89.12" font-family="Helvetica,sans-Serif" font-size="10.00">typed_linear_algebra</text>
<text text-anchor="middle" x="1764.33" y="-77.88" font-family="Helvetica,sans-Serif" font-size="10.00">/algorithm/product.tpp</text>
</a>
</g>
</g>
<!-- Node3&#45;&gt;Node26 -->
<g id="edge30_Node000003_Node000026" class="edge">
<title>Node3&#45;&gt;Node26</title>
<g id="a_edge30_Node000003_Node000026"><a xlink:title=" ">
<path fill="none" stroke="#63b8ff" d="M1665.53,-143.8C1683.7,-133.61 1708.13,-119.9 1728.15,-108.67"/>
<polygon fill="#63b8ff" stroke="#63b8ff" points="1729.83,-111.74 1736.84,-103.8 1726.41,-105.64 1729.83,-111.74"/>
</a>
</g>
</g>
<!-- Node27 -->
<g id="Node000027" class="node">
<title>Node27</title>
<g id="a_Node000027"><a xlink:title=" ">
<polygon fill="#e0e0e0" stroke="#999999" points="1941.58,-102.62 1837.08,-102.62 1837.08,-72.12 1941.58,-72.12 1941.58,-102.62"/>
<text text-anchor="start" x="1845.08" y="-89.12" font-family="Helvetica,sans-Serif" font-size="10.00">typed_linear_algebra</text>
<text text-anchor="middle" x="1889.33" y="-77.88" font-family="Helvetica,sans-Serif" font-size="10.00">/algorithm/scale.tpp</text>
</a>
</g>
</g>
<!-- Node3&#45;&gt;Node27 -->
<g id="edge31_Node000003_Node000027" class="edge">
<title>Node3&#45;&gt;Node27</title>
<g id="a_edge31_Node000003_Node000027"><a xlink:title=" ">
<path fill="none" stroke="#63b8ff" d="M1693.73,-144.88C1731.61,-135.19 1783.23,-121.58 1828.33,-108.25 1830.29,-107.67 1832.28,-107.07 1834.28,-106.46"/>
<polygon fill="#63b8ff" stroke="#63b8ff" points="1835.15,-109.86 1843.66,-103.55 1833.07,-103.17 1835.15,-109.86"/>
</a>
</g>
</g>
<!-- Node28 -->
<g id="Node000028" class="node">
<title>Node28</title>
<g id="a_Node000028"><a xlink:title=" ">
<polygon fill="#e0e0e0" stroke="#999999" points="2072.7,-102.62 1959.95,-102.62 1959.95,-72.12 2072.7,-72.12 2072.7,-102.62"/>
<text text-anchor="start" x="1967.95" y="-89.12" font-family="Helvetica,sans-Serif" font-size="10.00">typed_linear_algebra</text>
<text text-anchor="middle" x="2016.33" y="-77.88" font-family="Helvetica,sans-Serif" font-size="10.00">/algorithm/subtract.tpp</text>
</a>
</g>
</g>
<!-- Node3&#45;&gt;Node28 -->
<g id="edge32_Node000003_Node000028" class="edge">
<title>Node3&#45;&gt;Node28</title>
<g id="a_edge32_Node000003_Node000028"><a xlink:title=" ">
<path fill="none" stroke="#63b8ff" d="M1693.69,-151.93C1756.09,-143.89 1861.32,-128.75 1950.33,-108.25 1953.29,-107.57 1956.31,-106.83 1959.35,-106.04"/>
<polygon fill="#63b8ff" stroke="#63b8ff" points="1960.18,-109.45 1968.92,-103.45 1958.35,-102.69 1960.18,-109.45"/>
</a>
</g>
</g>
<!-- Node29 -->
<g id="Node000029" class="node">
<title>Node29</title>
<g id="a_Node000029"><a xlink:title=" ">
<polygon fill="#e0e0e0" stroke="#999999" points="2216.08,-102.62 2090.58,-102.62 2090.58,-72.12 2216.08,-72.12 2216.08,-102.62"/>
<text text-anchor="start" x="2098.58" y="-89.12" font-family="Helvetica,sans-Serif" font-size="10.00">typed_linear_algebra</text>
<text text-anchor="middle" x="2153.33" y="-77.88" font-family="Helvetica,sans-Serif" font-size="10.00">/algorithm/transposed.tpp</text>
</a>
</g>
</g>
<!-- Node3&#45;&gt;Node29 -->
<g id="edge33_Node000003_Node000029" class="edge">
<title>Node3&#45;&gt;Node29</title>
<g id="a_edge33_Node000003_Node000029"><a xlink:title=" ">
<path fill="none" stroke="#63b8ff" d="M1693.84,-155.05C1777.69,-149.13 1943.14,-135.01 2081.33,-108.25 2085.14,-107.51 2089.04,-106.68 2092.96,-105.77"/>
<polygon fill="#63b8ff" stroke="#63b8ff" points="2093.63,-109.21 2102.52,-103.44 2091.98,-102.41 2093.63,-109.21"/>
</a>
</g>
</g>
<!-- Node30 -->
<g id="Node000030" class="node">
<title>Node30</title>
<g id="a_Node000030"><a xlink:title=" ">
<polygon fill="#e0e0e0" stroke="#999999" points="2338.58,-102.62 2234.08,-102.62 2234.08,-72.12 2338.58,-72.12 2338.58,-102.62"/>
<text text-anchor="start" x="2242.08" y="-89.12" font-family="Helvetica,sans-Serif" font-size="10.00">typed_linear_algebra</text>
<text text-anchor="middle" x="2286.33" y="-77.88" font-family="Helvetica,sans-Serif" font-size="10.00">/cast.tpp</text>
</a>
</g>
</g>
<!-- Node3&#45;&gt;Node30 -->
<g id="edge34_Node000003_Node000030" class="edge">
<title>Node3&#45;&gt;Node30</title>
<g id="a_edge34_Node000003_Node000030"><a xlink:title=" ">
<path fill="none" stroke="#63b8ff" d="M1693.64,-157.98C1797.81,-156.08 2032.45,-147.4 2225.33,-108.25 2228.45,-107.62 2231.63,-106.88 2234.83,-106.06"/>
<polygon fill="#63b8ff" stroke="#63b8ff" points="2235.5,-109.51 2244.2,-103.46 2233.63,-102.76 2235.5,-109.51"/>
</a>
</g>
</g>
<!-- Node31 -->
<g id="Node000031" class="node">
<title>Node31</title>
<g id="a_Node000031"><a xlink:title=" ">
<polygon fill="#e0e0e0" stroke="#999999" points="2461.58,-102.62 2357.08,-102.62 2357.08,-72.12 2461.58,-72.12 2461.58,-102.62"/>
<text text-anchor="start" x="2365.08" y="-89.12" font-family="Helvetica,sans-Serif" font-size="10.00">typed_linear_algebra</text>
<text text-anchor="middle" x="2409.33" y="-77.88" font-family="Helvetica,sans-Serif" font-size="10.00">/chrono.tpp</text>
</a>
</g>
</g>
<!-- Node3&#45;&gt;Node31 -->
<g id="edge35_Node000003_Node000031" class="edge">
<title>Node3&#45;&gt;Node31</title>
<g id="a_edge35_Node000003_Node000031"><a xlink:title=" ">
<path fill="none" stroke="#63b8ff" d="M1693.64,-159.04C1813.03,-159.28 2106.85,-154.63 2347.33,-108.25 2350.66,-107.61 2354.07,-106.84 2357.48,-105.99"/>
<polygon fill="#63b8ff" stroke="#63b8ff" points="2358.15,-109.44 2366.87,-103.43 2356.3,-102.68 2358.15,-109.44"/>
</a>
</g>
</g>
<!-- Node32 -->
<g id="Node000032" class="node">
<title>Node32</title>
<g id="a_Node000032"><a xlink:title=" ">
<polygon fill="#e0e0e0" stroke="#999999" points="2584.58,-102.62 2480.08,-102.62 2480.08,-72.12 2584.58,-72.12 2584.58,-102.62"/>
<text text-anchor="start" x="2488.08" y="-89.12" font-family="Helvetica,sans-Serif" font-size="10.00">typed_linear_algebra</text>
<text text-anchor="middle" x="2532.33" y="-77.88" font-family="Helvetica,sans-Serif" font-size="10.00">/common_type.tpp</text>
</a>
</g>
</g>
<!-- Node3&#45;&gt;Node32 -->
<g id="edge36_Node000003_Node000032" class="edge">
<title>Node3&#45;&gt;Node32</title>
<g id="a_edge36_Node000003_Node000032"><a xlink:title=" ">
<path fill="none" stroke="#63b8ff" d="M1693.72,-156.98C1853.66,-152.24 2320.54,-136.33 2470.33,-108.25 2473.67,-107.62 2477.07,-106.87 2480.49,-106.03"/>
<polygon fill="#63b8ff" stroke="#63b8ff" points="2481.15,-109.48 2489.88,-103.49 2479.32,-102.72 2481.15,-109.48"/>
</a>
</g>
</g>
<!-- Node33 -->
<g id="Node000033" class="node">
<title>Node33</title>
<g id="a_Node000033"><a xlink:title=" ">
<polygon fill="#e0e0e0" stroke="#999999" points="2707.58,-102.62 2603.08,-102.62 2603.08,-72.12 2707.58,-72.12 2707.58,-102.62"/>
<text text-anchor="start" x="2611.08" y="-89.12" font-family="Helvetica,sans-Serif" font-size="10.00">typed_linear_algebra</text>
<text text-anchor="middle" x="2655.33" y="-77.88" font-family="Helvetica,sans-Serif" font-size="10.00">/format.tpp</text>
</a>
</g>
</g>
<!-- Node3&#45;&gt;Node33 -->
<g id="edge37_Node000003_Node000033" class="edge">
<title>Node3&#45;&gt;Node33</title>
<g id="a_edge37_Node000003_Node000033"><a xlink:title=" ">
<path fill="none" stroke="#63b8ff" d="M1693.84,-157.47C1869.41,-153.87 2418.78,-140.27 2593.33,-108.25 2596.72,-107.63 2600.19,-106.87 2603.66,-106.02"/>
<polygon fill="#63b8ff" stroke="#63b8ff" points="2604.49,-109.42 2613.23,-103.44 2602.66,-102.67 2604.49,-109.42"/>
</a>
</g>
</g>
<!-- Node34 -->
<g id="Node000034" class="node">
<title>Node34</title>
<g id="a_Node000034"><a xlink:title=" ">
<polygon fill="#e0e0e0" stroke="#999999" points="2830.58,-102.62 2726.08,-102.62 2726.08,-72.12 2830.58,-72.12 2830.58,-102.62"/>
<text text-anchor="start" x="2734.08" y="-89.12" font-family="Helvetica,sans-Serif" font-size="10.00">typed_linear_algebra</text>
<text text-anchor="middle" x="2778.33" y="-77.88" font-family="Helvetica,sans-Serif" font-size="10.00">/tuple.tpp</text>
</a>
</g>
</g>
<!-- Node3&#45;&gt;Node34 -->
<g id="edge38_Node000003_Node000034" class="edge">
<title>Node3&#45;&gt;Node34</title>
<g id="a_edge38_Node000003_Node000034"><a xlink:title=" ">
<path fill="none" stroke="#63b8ff" d="M1693.77,-157.85C1883.78,-155.3 2516.8,-144.23 2716.33,-108.25 2719.72,-107.64 2723.19,-106.89 2726.66,-106.05"/>
<polygon fill="#63b8ff" stroke="#63b8ff" points="2727.49,-109.45 2736.23,-103.47 2725.67,-102.69 2727.49,-109.45"/>
</a>
</g>
</g>
<!-- Node35 -->
<g id="Node000035" class="node">
<title>Node35</title>
<g id="a_Node000035"><a xlink:title=" ">
<polygon fill="#e0e0e0" stroke="#999999" points="2971.95,-102.62 2848.7,-102.62 2848.7,-72.12 2971.95,-72.12 2971.95,-102.62"/>
<text text-anchor="start" x="2856.7" y="-89.12" font-family="Helvetica,sans-Serif" font-size="10.00">typed_linear_algebra</text>
<text text-anchor="middle" x="2910.33" y="-77.88" font-family="Helvetica,sans-Serif" font-size="10.00">/typed_linear_algebra.tpp</text>
</a>
</g>
</g>
<!-- Node3&#45;&gt;Node35 -->
<g id="edge39_Node000003_Node000035" class="edge">
<title>Node3&#45;&gt;Node35</title>
<g id="a_edge39_Node000003_Node000035"><a xlink:title=" ">
<path fill="none" stroke="#63b8ff" d="M1693.85,-157.89C1897.59,-155.34 2614.08,-144 2839.33,-108.25 2843.68,-107.56 2848.15,-106.69 2852.63,-105.71"/>
<polygon fill="#63b8ff" stroke="#63b8ff" points="2853.3,-109.15 2862.22,-103.43 2851.68,-102.34 2853.3,-109.15"/>
</a>
</g>
</g>
<!-- Node4&#45;&gt;Node5 -->
<g id="edge4_Node000004_Node000005" class="edge">
<title>Node4&#45;&gt;Node5</title>
<g id="a_edge4_Node000004_Node000005"><a xlink:title=" ">
<path fill="none" stroke="#63b8ff" d="M3090.07,-71.85C3096.18,-62.72 3104.21,-50.74 3111.25,-40.24"/>
<polygon fill="#63b8ff" stroke="#63b8ff" points="3114.1,-42.27 3116.76,-32.02 3108.29,-38.38 3114.1,-42.27"/>
</a>
</g>
</g>
<!-- Node6 -->
<g id="Node000006" class="node">
<title>Node6</title>
<g id="a_Node000006"><a xlink:title=" ">
<polygon fill="#e0e0e0" stroke="#999999" points="3054.83,-24.88 3017.83,-24.88 3017.83,-5.63 3054.83,-5.63 3054.83,-24.88"/>
<text text-anchor="middle" x="3036.33" y="-11.38" font-family="Helvetica,sans-Serif" font-size="10.00">array</text>
</a>
</g>
</g>
<!-- Node4&#45;&gt;Node6 -->
<g id="edge5_Node000004_Node000006" class="edge">
<title>Node4&#45;&gt;Node6</title>
<g id="a_edge5_Node000004_Node000006"><a xlink:title=" ">
<path fill="none" stroke="#63b8ff" d="M3071.21,-71.85C3064.43,-61.03 3055.12,-46.2 3047.83,-34.57"/>
<polygon fill="#63b8ff" stroke="#63b8ff" points="3050.91,-32.9 3042.63,-26.29 3044.98,-36.62 3050.91,-32.9"/>
</a>
</g>
</g>
<!-- Node4&#45;&gt;Node7 -->
<g id="edge6_Node000004_Node000007" class="edge">
<title>Node4&#45;&gt;Node7</title>
<g id="a_edge6_Node000004_Node000007"><a xlink:title=" ">
<path fill="none" stroke="#63b8ff" d="M3132.75,-72.34C3171.13,-61.73 3224.33,-46.33 3270.33,-30.5 3271.47,-30.11 3272.63,-29.7 3273.8,-29.28"/>
<polygon fill="#63b8ff" stroke="#63b8ff" points="3274.81,-32.64 3282.95,-25.84 3272.35,-26.08 3274.81,-32.64"/>
</a>
</g>
</g>
<!-- Node4&#45;&gt;Node8 -->
<g id="edge7_Node000004_Node000008" class="edge">
<title>Node4&#45;&gt;Node8</title>
<g id="a_edge7_Node000004_Node000008"><a xlink:title=" ">
<path fill="none" stroke="#63b8ff" d="M3027.68,-73.97C3012.78,-70.96 2996.49,-68.14 2981.33,-66.5 2690.3,-34.97 491.91,-18.64 183.28,-16.49"/>
<polygon fill="#63b8ff" stroke="#63b8ff" points="183.47,-13 173.45,-16.43 183.42,-20 183.47,-13"/>
</a>
</g>
</g>
<!-- Node9 -->
<g id="Node000009" class="node">
<title>Node9</title>
<g id="a_Node000009"><a xlink:title=" ">
<polygon fill="#e0e0e0" stroke="#999999" points="2999.33,-24.88 2941.33,-24.88 2941.33,-5.63 2999.33,-5.63 2999.33,-24.88"/>
<text text-anchor="middle" x="2970.33" y="-11.38" font-family="Helvetica,sans-Serif" font-size="10.00">functional</text>
</a>
</g>
</g>
<!-- Node4&#45;&gt;Node9 -->
<g id="edge8_Node000004_Node000009" class="edge">
<title>Node4&#45;&gt;Node9</title>
<g id="a_edge8_Node000004_Node000009"><a xlink:title=" ">
<path fill="none" stroke="#63b8ff" d="M3057.27,-71.67C3038.77,-59.88 3012.9,-43.39 2994.19,-31.46"/>
<polygon fill="#63b8ff" stroke="#63b8ff" points="2996.22,-28.6 2985.9,-26.18 2992.45,-34.51 2996.22,-28.6"/>
</a>
</g>
</g>
<!-- Node4&#45;&gt;Node10 -->
<g id="edge9_Node000004_Node000010" class="edge">
<title>Node4&#45;&gt;Node10</title>
<g id="a_edge9_Node000004_Node000010"><a xlink:title=" ">
<path fill="none" stroke="#63b8ff" d="M3027.69,-73.92C3012.79,-70.91 2996.5,-68.1 2981.33,-66.5 2347.7,0.49 748.95,-87.34 114.33,-30.5 95.86,-28.85 75.35,-25.45 59.11,-22.39"/>
<polygon fill="#63b8ff" stroke="#63b8ff" points="60.1,-19.02 49.61,-20.54 58.76,-25.89 60.1,-19.02"/>
</a>
</g>
</g>
<!-- Node4&#45;&gt;Node11 -->
<g id="edge10_Node000004_Node000011" class="edge">
<title>Node4&#45;&gt;Node11</title>
<g id="a_edge10_Node000004_Node000011"><a xlink:title=" ">
<path fill="none" stroke="#63b8ff" d="M3111.77,-71.67C3137.93,-59.45 3174.91,-42.16 3200.58,-30.16"/>
<polygon fill="#63b8ff" stroke="#63b8ff" points="3201.88,-33.41 3209.46,-26.01 3198.92,-27.07 3201.88,-33.41"/>
</a>
</g>
</g>
<!-- Node4&#45;&gt;Node12 -->
<g id="edge11_Node000004_Node000012" class="edge">
<title>Node4&#45;&gt;Node12</title>
<g id="a_edge11_Node000004_Node000012"><a xlink:title=" ">
<path fill="none" stroke="#63b8ff" d="M3037.73,-71.69C3007.88,-61.07 2967.25,-45.92 2932.33,-30.5 2932.1,-30.4 2931.88,-30.3 2931.65,-30.2"/>
<polygon fill="#63b8ff" stroke="#63b8ff" points="2933.26,-27.09 2922.73,-25.94 2930.25,-33.41 2933.26,-27.09"/>
</a>
</g>
</g>
</g>
</svg>

<g id="navigator" transform="translate(0 0)" fill="#404254">
  <rect fill="#f2f5e9" fill-opacity="0.5" stroke="#606060" stroke-width=".5" x="0" y="0" width="60" height="60"/>
  <use id="zoomplus" xlink:href="#zoomPlus" x="17" y="9" onmousedown="handleZoom(evt,'in')"/>
  <use id="zoomminus" xlink:href="#zoomMin" x="42" y="9" onmousedown="handleZoom(evt,'out')"/>
  <use id="reset" xlink:href="#resetDef" x="30" y="36" onmousedown="handleReset()"/>
   <use id="arrowup" xlink:href="#arrowUp" x="0" y="0" onmousedown="handlePan(0,-1)"/>
  <use id="arrowright" xlink:href="#arrowRight" x="0" y="0" onmousedown="handlePan(1,0)"/>
  <use id="arrowdown" xlink:href="#arrowDown" x="0" y="0" onmousedown="handlePan(0,1)"/>
  <use id="arrowleft" xlink:href="#arrowLeft" x="0" y="0" onmousedown="handlePan(-1,0)"/>
</g>
<svg viewBox="0 0 15 15" width="100%" height="30px" preserveAspectRatio="xMaxYMin meet">
 <g id="arrow_out" transform="scale(0.3 0.3)">
  <a xlink:href="row__typed__matrix_8cpp__incl_org.svg" target="_base">
   <rect id="button" ry="5" rx="5" y="6" x="6" height="38" width="38"
        fill="#f2f5e9" fill-opacity="0.5" stroke="#606060" stroke-width="1.0"/>
   <path id="arrow"
     d="M 11.500037,31.436501 C 11.940474,20.09759 22.043105,11.32322 32.158766,21.979434 L 37.068811,17.246167 C 37.068811,17.246167 37.088388,32 37.088388,32 L 22.160133,31.978069 C 22.160133,31.978069 26.997745,27.140456 26.997745,27.140456 C 18.528582,18.264221 13.291696,25.230495 11.500037,31.436501 z"
     style="fill:#404040;"/>
  </a>
 </g>
</svg>

<style type='text/css'>
<![CDATA[
[data-mouse-over-selected='false'] { opacity: 0.7; }
[data-mouse-over-selected='true']  { opacity: 1.0; }
]]>
</style>
<script type="application/ecmascript"><![CDATA[
document.addEventListener('DOMContentLoaded', (event) => {
  highlightEdges();
  highlightAdjacentNodes();
});
]]></script>
</svg>
