<?xml version="1.0" encoding="UTF-8" standalone="no"?>
<!DOCTYPE svg PUBLIC "-//W3C//DTD SVG 1.1//EN"
 "http://www.w3.org/Graphics/SVG/1.1/DTD/svg11.dtd">
<!-- Generated by graphviz version 12.2.0 (20241103.1931)
 -->
<!-- Title: std::tuple_size&lt; Type &gt; Pages: 1 -->
<svg width="168pt" height="166pt"
 viewBox="0.00 0.00 168.25 166.00" xmlns="http://www.w3.org/2000/svg" xmlns:xlink="http://www.w3.org/1999/xlink">
<g id="graph0" class="graph" transform="scale(1 1) rotate(0) translate(4 162)">
<title>std::tuple_size&lt; Type &gt;</title>
<!-- Node1 -->
<g id="Node000001" class="node">
<title>Node1</title>
<g id="a_Node000001"><a xlink:title="Tuple size specialization of Eigen types for structured bindings.">
<polygon fill="#999999" stroke="none" points="133.62,-49.75 26.62,-49.75 26.62,0 133.62,0 133.62,-49.75"/>
<text text-anchor="start" x="30.62" y="-36.25" font-family="Helvetica,sans-Serif" font-size="10.00">std::tuple_size&lt; Type &gt;</text>
<text text-anchor="start" x="78.62" y="-21" font-family="Helvetica,sans-Serif" font-size="10.00"> </text>
<text text-anchor="start" x="78.62" y="-5.75" font-family="Helvetica,sans-Serif" font-size="10.00"> </text>
<polygon fill="#666666" stroke="#666666" points="26.62,-32.5 26.62,-32.5 133.62,-32.5 133.62,-32.5 26.62,-32.5"/>
<polygon fill="#666666" stroke="#666666" points="26.62,-17.25 26.62,-17.25 133.62,-17.25 133.62,-17.25 26.62,-17.25"/>
<polygon fill="none" stroke="#666666" points="26.62,0 26.62,-49.75 133.62,-49.75 133.62,0 26.62,0"/>
</a>
</g>
</g>
<!-- Node2 -->
<g id="Node000002" class="node">
<title>Node2</title>
<g id="a_Node000002"><a xlink:title=" ">
<polygon fill="white" stroke="none" points="160.25,-158 0,-158 0,-85.75 160.25,-85.75 160.25,-158"/>
<text text-anchor="start" x="4" y="-144.5" font-family="Helvetica,sans-Serif" font-size="10.00">std::integral_constant</text>
<text text-anchor="start" x="4" y="-133.25" font-family="Helvetica,sans-Serif" font-size="10.00">&lt; std::size_t, Type::RowsAtCompile</text>
<text text-anchor="start" x="6.25" y="-122" font-family="Helvetica,sans-Serif" font-size="10.00">Time *Type::ColsAtCompileTime &gt;</text>
<text text-anchor="start" x="78.62" y="-106.75" font-family="Helvetica,sans-Serif" font-size="10.00"> </text>
<text text-anchor="start" x="78.62" y="-91.5" font-family="Helvetica,sans-Serif" font-size="10.00"> </text>
<polygon fill="#666666" stroke="#666666" points="0,-118.25 0,-118.25 160.25,-118.25 160.25,-118.25 0,-118.25"/>
<polygon fill="#666666" stroke="#666666" points="0,-103 0,-103 160.25,-103 160.25,-103 0,-103"/>
<polygon fill="none" stroke="#666666" points="0,-85.75 0,-158 160.25,-158 160.25,-85.75 0,-85.75"/>
</a>
</g>
</g>
<!-- Node2&#45;&gt;Node1 -->
<g id="edge1_Node000001_Node000002" class="edge">
<title>Node2&#45;&gt;Node1</title>
<g id="a_edge1_Node000001_Node000002"><a xlink:title=" ">
<path fill="none" stroke="#63b8ff" d="M80.12,-74.53C80.12,-65.89 80.12,-57.19 80.12,-49.59"/>
<polygon fill="none" stroke="#63b8ff" points="76.63,-74.26 80.13,-84.26 83.63,-74.26 76.63,-74.26"/>
</a>
</g>
</g>
</g>
</svg>
