<?xml version="1.0" encoding="UTF-8" standalone="no"?>
<!DOCTYPE svg PUBLIC "-//W3C//DTD SVG 1.1//EN"
 "http://www.w3.org/Graphics/SVG/1.1/DTD/svg11.dtd">
<!-- Generated by graphviz version 12.2.0 (20241103.1931)
 -->
<!-- Title: fcarouge::benchmark::anonymous_namespace{typed_mdspan_tupled_product.cpp}::lookup&lt; Tuple, std::index_sequence&lt; Indices... &gt; &gt; Pages: 1 -->
<svg width="174pt" height="200pt"
 viewBox="0.00 0.00 174.25 199.75" xmlns="http://www.w3.org/2000/svg" xmlns:xlink="http://www.w3.org/1999/xlink">
<g id="graph0" class="graph" transform="scale(1 1) rotate(0) translate(4 195.75)">
<title>fcarouge::benchmark::anonymous_namespace{typed_mdspan_tupled_product.cpp}::lookup&lt; Tuple, std::index_sequence&lt; Indices... &gt; &gt;</title>
<!-- Node1 -->
<g id="Node000001" class="node">
<title>Node1</title>
<g id="a_Node000001"><a xlink:title=" ">
<polygon fill="#999999" stroke="none" points="166.25,-94.75 0,-94.75 0,0 166.25,0 166.25,-94.75"/>
<text text-anchor="start" x="4" y="-81.25" font-family="Helvetica,sans-Serif" font-size="10.00">fcarouge::benchmark</text>
<text text-anchor="start" x="4" y="-70" font-family="Helvetica,sans-Serif" font-size="10.00">::anonymous_namespace</text>
<text text-anchor="start" x="4" y="-58.75" font-family="Helvetica,sans-Serif" font-size="10.00">{typed_mdspan_tupled_product.cpp}</text>
<text text-anchor="start" x="4" y="-47.5" font-family="Helvetica,sans-Serif" font-size="10.00">::lookup&lt; Tuple, std::index_sequence</text>
<text text-anchor="start" x="51.62" y="-36.25" font-family="Helvetica,sans-Serif" font-size="10.00">&lt; Indices... &gt; &gt;</text>
<text text-anchor="start" x="81.62" y="-21" font-family="Helvetica,sans-Serif" font-size="10.00"> </text>
<text text-anchor="start" x="81.62" y="-5.75" font-family="Helvetica,sans-Serif" font-size="10.00"> </text>
<polygon fill="#666666" stroke="#666666" points="0,-32.5 0,-32.5 166.25,-32.5 166.25,-32.5 0,-32.5"/>
<polygon fill="#666666" stroke="#666666" points="0,-17.25 0,-17.25 166.25,-17.25 166.25,-17.25 0,-17.25"/>
<polygon fill="none" stroke="#666666" points="0,0 0,-94.75 166.25,-94.75 166.25,0 0,0"/>
</a>
</g>
</g>
<!-- Node2 -->
<g id="Node000002" class="node">
<title>Node2</title>
<g id="a_Node000002"><a xlink:title=" ">
<polygon fill="white" stroke="none" points="137,-191.75 29.25,-191.75 29.25,-142 137,-142 137,-191.75"/>
<text text-anchor="start" x="33.25" y="-178.25" font-family="Helvetica,sans-Serif" font-size="10.00">static constexpr pointer</text>
<text text-anchor="start" x="81.62" y="-163" font-family="Helvetica,sans-Serif" font-size="10.00"> </text>
<text text-anchor="start" x="81.62" y="-147.75" font-family="Helvetica,sans-Serif" font-size="10.00"> </text>
<polygon fill="#666666" stroke="#666666" points="29.25,-174.5 29.25,-174.5 137,-174.5 137,-174.5 29.25,-174.5"/>
<polygon fill="#666666" stroke="#666666" points="29.25,-159.25 29.25,-159.25 137,-159.25 137,-159.25 29.25,-159.25"/>
<polygon fill="none" stroke="#666666" points="29.25,-142 29.25,-191.75 137,-191.75 137,-142 29.25,-142"/>
</a>
</g>
</g>
<!-- Node2&#45;&gt;Node1 -->
<g id="edge1_Node000001_Node000002" class="edge">
<title>Node2&#45;&gt;Node1</title>
<g id="a_edge1_Node000001_Node000002"><a xlink:title=" ">
<path fill="none" stroke="#63b8ff" d="M83.12,-142.1C83.12,-131.94 83.12,-119.6 83.12,-107.25"/>
<polygon fill="none" stroke="#63b8ff" points="83.13,-107.37 79.13,-101.37 83.13,-95.37 87.13,-101.37 83.13,-107.37"/>
</a>
</g>
<text text-anchor="middle" x="97.75" y="-114.5" font-family="Helvetica,sans-Serif" font-size="10.00" fill="grey"> +table</text>
</g>
</g>
</svg>
