<?xml version="1.0" encoding="UTF-8" standalone="no"?>
<!DOCTYPE svg PUBLIC "-//W3C//DTD SVG 1.1//EN"
 "http://www.w3.org/Graphics/SVG/1.1/DTD/svg11.dtd">
<!-- Generated by graphviz version 12.2.0 (20241103.1931)
 -->
<!-- Title: std::formatter&lt; fcarouge::typed_matrix&lt; Matrix, RowIndexes, ColumnIndexes &gt;, Char &gt; Pages: 1 -->
<svg width="144pt" height="261pt"
 viewBox="0.00 0.00 143.50 260.75" xmlns="http://www.w3.org/2000/svg" xmlns:xlink="http://www.w3.org/1999/xlink">
<g id="graph0" class="graph" transform="scale(1 1) rotate(0) translate(4 256.75)">
<title>std::formatter&lt; fcarouge::typed_matrix&lt; Matrix, RowIndexes, ColumnIndexes &gt;, Char &gt;</title>
<!-- Node1 -->
<g id="Node000001" class="node">
<title>Node1</title>
<g id="a_Node000001"><a xlink:title="Specialization of the standard formatter for the typed matrix.">
<polygon fill="#999999" stroke="none" points="135.5,-144.5 0,-144.5 0,0 135.5,0 135.5,-144.5"/>
<text text-anchor="start" x="4" y="-131" font-family="Helvetica,sans-Serif" font-size="10.00">std::formatter&lt; fcarouge</text>
<text text-anchor="start" x="4" y="-119.75" font-family="Helvetica,sans-Serif" font-size="10.00">::typed_matrix&lt; Matrix,</text>
<text text-anchor="start" x="4" y="-108.5" font-family="Helvetica,sans-Serif" font-size="10.00"> RowIndexes, ColumnIndexes</text>
<text text-anchor="start" x="46.75" y="-97.25" font-family="Helvetica,sans-Serif" font-size="10.00"> &gt;, Char &gt;</text>
<text text-anchor="start" x="66.25" y="-82" font-family="Helvetica,sans-Serif" font-size="10.00"> </text>
<text text-anchor="start" x="24.94" y="-66.75" font-family="Helvetica,sans-Serif" font-size="10.00">+</text>
<text text-anchor="start" x="55.88" y="-66.75" font-family="Helvetica,sans-Serif" font-size="10.00">format()</text>
<text text-anchor="start" x="24.94" y="-51.5" font-family="Helvetica,sans-Serif" font-size="10.00">+</text>
<text text-anchor="start" x="55.88" y="-51.5" font-family="Helvetica,sans-Serif" font-size="10.00">format()</text>
<text text-anchor="start" x="24.94" y="-36.25" font-family="Helvetica,sans-Serif" font-size="10.00">+</text>
<text text-anchor="start" x="55.88" y="-36.25" font-family="Helvetica,sans-Serif" font-size="10.00">format()</text>
<text text-anchor="start" x="24.94" y="-21" font-family="Helvetica,sans-Serif" font-size="10.00">+</text>
<text text-anchor="start" x="55.88" y="-21" font-family="Helvetica,sans-Serif" font-size="10.00">format()</text>
<text text-anchor="start" x="24.94" y="-5.75" font-family="Helvetica,sans-Serif" font-size="10.00">+</text>
<text text-anchor="start" x="55.88" y="-5.75" font-family="Helvetica,sans-Serif" font-size="10.00">parse()</text>
<polygon fill="#666666" stroke="#666666" points="0,-93.5 0,-93.5 135.5,-93.5 135.5,-93.5 0,-93.5"/>
<polygon fill="#666666" stroke="#666666" points="0,-78.25 0,-78.25 135.5,-78.25 135.5,-78.25 0,-78.25"/>
<polygon fill="none" stroke="#666666" points="0,0 0,-144.5 135.5,-144.5 135.5,0 0,0"/>
</a>
</g>
</g>
<!-- Node2 -->
<g id="Node000002" class="node">
<title>Node2</title>
<g id="a_Node000002"><a xlink:title=" ">
<polygon fill="white" stroke="none" points="84.5,-252.75 51,-252.75 51,-203 84.5,-203 84.5,-252.75"/>
<text text-anchor="start" x="55" y="-239.25" font-family="Helvetica,sans-Serif" font-size="10.00">size_t</text>
<text text-anchor="start" x="66.25" y="-224" font-family="Helvetica,sans-Serif" font-size="10.00"> </text>
<text text-anchor="start" x="66.25" y="-208.75" font-family="Helvetica,sans-Serif" font-size="10.00"> </text>
<polygon fill="#666666" stroke="#666666" points="51,-235.5 51,-235.5 84.5,-235.5 84.5,-235.5 51,-235.5"/>
<polygon fill="#666666" stroke="#666666" points="51,-220.25 51,-220.25 84.5,-220.25 84.5,-220.25 51,-220.25"/>
<polygon fill="none" stroke="#666666" points="51,-203 51,-252.75 84.5,-252.75 84.5,-203 51,-203"/>
</a>
</g>
</g>
<!-- Node2&#45;&gt;Node1 -->
<g id="edge1_Node000001_Node000002" class="edge">
<title>Node2&#45;&gt;Node1</title>
<g id="a_edge1_Node000001_Node000002"><a xlink:title=" ">
<path fill="none" stroke="#63b8ff" d="M67.75,-203.21C67.75,-190.53 67.75,-174.07 67.75,-157.14"/>
<polygon fill="none" stroke="#63b8ff" points="67.75,-157.06 63.75,-151.06 67.75,-145.06 71.75,-151.06 67.75,-157.06"/>
</a>
</g>
<text text-anchor="middle" x="88.75" y="-175.5" font-family="Helvetica,sans-Serif" font-size="10.00" fill="grey"> &#45;columns</text>
<text text-anchor="middle" x="88.75" y="-164.25" font-family="Helvetica,sans-Serif" font-size="10.00" fill="grey">&#45;rows</text>
</g>
</g>
</svg>
