<?xml version="1.0" encoding="UTF-8" standalone="no"?>
<!DOCTYPE svg PUBLIC "-//W3C//DTD SVG 1.1//EN"
 "http://www.w3.org/Graphics/SVG/1.1/DTD/svg11.dtd">
<!-- Generated by graphviz version 12.2.0 (20241103.1931)
 -->
<!-- Title: fcarouge::benchmark::anonymous_namespace{mdspan_tuple_product.cpp}::accessor&lt; Tuple, Type &gt; Pages: 1 -->
<svg width="138pt" height="204pt"
 viewBox="0.00 0.00 138.25 203.75" xmlns="http://www.w3.org/2000/svg" xmlns:xlink="http://www.w3.org/1999/xlink">
<g id="graph0" class="graph" transform="scale(1 1) rotate(0) translate(4 199.75)">
<title>fcarouge::benchmark::anonymous_namespace{mdspan_tuple_product.cpp}::accessor&lt; Tuple, Type &gt;</title>
<!-- Node1 -->
<g id="Node000001" class="node">
<title>Node1</title>
<g id="a_Node000001"><a xlink:title=" ">
<polygon fill="#999999" stroke="none" points="130.25,-98.75 0,-98.75 0,0 130.25,0 130.25,-98.75"/>
<text text-anchor="start" x="4" y="-85.25" font-family="Helvetica,sans-Serif" font-size="10.00">fcarouge::benchmark</text>
<text text-anchor="start" x="4" y="-74" font-family="Helvetica,sans-Serif" font-size="10.00">::anonymous_namespace</text>
<text text-anchor="start" x="4" y="-62.75" font-family="Helvetica,sans-Serif" font-size="10.00">{mdspan_tuple_product.cpp}</text>
<text text-anchor="start" x="9.62" y="-51.5" font-family="Helvetica,sans-Serif" font-size="10.00">::accessor&lt; Tuple, Type &gt;</text>
<text text-anchor="start" x="63.62" y="-36.25" font-family="Helvetica,sans-Serif" font-size="10.00"> </text>
<text text-anchor="start" x="22.69" y="-21" font-family="Helvetica,sans-Serif" font-size="10.00">+</text>
<text text-anchor="start" x="51.38" y="-21" font-family="Helvetica,sans-Serif" font-size="10.00">access()</text>
<text text-anchor="start" x="22.69" y="-5.75" font-family="Helvetica,sans-Serif" font-size="10.00">+</text>
<text text-anchor="start" x="51.38" y="-5.75" font-family="Helvetica,sans-Serif" font-size="10.00">offset()</text>
<polygon fill="#666666" stroke="#666666" points="0,-47.75 0,-47.75 130.25,-47.75 130.25,-47.75 0,-47.75"/>
<polygon fill="#666666" stroke="#666666" points="0,-32.5 0,-32.5 130.25,-32.5 130.25,-32.5 0,-32.5"/>
<polygon fill="none" stroke="#666666" points="0,0 0,-98.75 130.25,-98.75 130.25,0 0,0"/>
</a>
</g>
</g>
<!-- Node2 -->
<g id="Node000002" class="node">
<title>Node2</title>
<g id="a_Node000002"><a xlink:title=" ">
<polygon fill="white" stroke="none" points="113.75,-195.75 16.5,-195.75 16.5,-146 113.75,-146 113.75,-195.75"/>
<text text-anchor="start" x="20.5" y="-182.25" font-family="Helvetica,sans-Serif" font-size="10.00">static constexpr auto</text>
<text text-anchor="start" x="63.62" y="-167" font-family="Helvetica,sans-Serif" font-size="10.00"> </text>
<text text-anchor="start" x="63.62" y="-151.75" font-family="Helvetica,sans-Serif" font-size="10.00"> </text>
<polygon fill="#666666" stroke="#666666" points="16.5,-178.5 16.5,-178.5 113.75,-178.5 113.75,-178.5 16.5,-178.5"/>
<polygon fill="#666666" stroke="#666666" points="16.5,-163.25 16.5,-163.25 113.75,-163.25 113.75,-163.25 16.5,-163.25"/>
<polygon fill="none" stroke="#666666" points="16.5,-146 16.5,-195.75 113.75,-195.75 113.75,-146 16.5,-146"/>
</a>
</g>
</g>
<!-- Node2&#45;&gt;Node1 -->
<g id="edge1_Node000001_Node000002" class="edge">
<title>Node2&#45;&gt;Node1</title>
<g id="a_edge1_Node000001_Node000002"><a xlink:title=" ">
<path fill="none" stroke="#63b8ff" d="M65.12,-146.27C65.12,-136.17 65.12,-123.87 65.12,-111.49"/>
<polygon fill="none" stroke="#63b8ff" points="65.13,-111.55 61.13,-105.55 65.13,-99.55 69.13,-105.55 65.13,-111.55"/>
</a>
</g>
<text text-anchor="middle" x="77.88" y="-118.5" font-family="Helvetica,sans-Serif" font-size="10.00" fill="grey"> +size</text>
</g>
</g>
</svg>
