<?xml version="1.0" encoding="UTF-8" standalone="no"?>
<!DOCTYPE svg PUBLIC "-//W3C//DTD SVG 1.1//EN"
 "http://www.w3.org/Graphics/SVG/1.1/DTD/svg11.dtd">
<!-- Generated by graphviz version 12.2.0 (20241103.1931)
 -->
<!-- Title: fcarouge::benchmark::anonymous_namespace{mdspan_tuple_product.cpp}::lookup&lt; Tuple, std::index_sequence&lt; Indices... &gt; &gt; Pages: 1 -->
<svg width="138pt" height="200pt"
 viewBox="0.00 0.00 138.25 199.75" xmlns="http://www.w3.org/2000/svg" xmlns:xlink="http://www.w3.org/1999/xlink">

<svg id="main" version="1.1" xmlns="http://www.w3.org/2000/svg" xmlns:xlink="http://www.w3.org/1999/xlink" xml:space="preserve">

<style type="text/css"><![CDATA[
.node, .edge {opacity: 0.7;}
.node.selected, .edge.selected {opacity: 1;}
.edge:hover path { stroke: red; }
.edge:hover polygon { stroke: red; fill: red; }
]]></style>
<script type="application/ecmascript" xlink:href="svg.min.js"/>
<svg id="graph" class="graph">
<g id="graph0" class="graph" transform="scale(1 1) rotate(0) translate(4 195.75)">
<title>fcarouge::benchmark::anonymous_namespace{mdspan_tuple_product.cpp}::lookup&lt; Tuple, std::index_sequence&lt; Indices... &gt; &gt;</title>
<!-- Node1 -->
<g id="Node000001" class="node">
<title>Node1</title>
<g id="a_Node000001"><a xlink:title=" ">
<polygon fill="#999999" stroke="none" points="130.25,-94.75 0,-94.75 0,0 130.25,0 130.25,-94.75"/>
<text text-anchor="start" x="4" y="-81.25" font-family="Helvetica,sans-Serif" font-size="10.00">fcarouge::benchmark</text>
<text text-anchor="start" x="4" y="-70" font-family="Helvetica,sans-Serif" font-size="10.00">::anonymous_namespace</text>
<text text-anchor="start" x="4" y="-58.75" font-family="Helvetica,sans-Serif" font-size="10.00">{mdspan_tuple_product.cpp}</text>
<text text-anchor="start" x="4" y="-47.5" font-family="Helvetica,sans-Serif" font-size="10.00">::lookup&lt; Tuple, std::index</text>
<text text-anchor="start" x="10" y="-36.25" font-family="Helvetica,sans-Serif" font-size="10.00">_sequence&lt; Indices... &gt; &gt;</text>
<text text-anchor="start" x="63.62" y="-21" font-family="Helvetica,sans-Serif" font-size="10.00"> </text>
<text text-anchor="start" x="63.62" y="-5.75" font-family="Helvetica,sans-Serif" font-size="10.00"> </text>
<polygon fill="#666666" stroke="#666666" points="0,-32.5 0,-32.5 130.25,-32.5 130.25,-32.5 0,-32.5"/>
<polygon fill="#666666" stroke="#666666" points="0,-17.25 0,-17.25 130.25,-17.25 130.25,-17.25 0,-17.25"/>
<polygon fill="none" stroke="#666666" points="0,0 0,-94.75 130.25,-94.75 130.25,0 0,0"/>
</a>
</g>
</g>
<!-- Node2 -->
<g id="Node000002" class="node">
<title>Node2</title>
<g id="a_Node000002"><a xlink:title=" ">
<polygon fill="white" stroke="none" points="119,-191.75 11.25,-191.75 11.25,-142 119,-142 119,-191.75"/>
<text text-anchor="start" x="15.25" y="-178.25" font-family="Helvetica,sans-Serif" font-size="10.00">static constexpr pointer</text>
<text text-anchor="start" x="63.62" y="-163" font-family="Helvetica,sans-Serif" font-size="10.00"> </text>
<text text-anchor="start" x="63.62" y="-147.75" font-family="Helvetica,sans-Serif" font-size="10.00"> </text>
<polygon fill="#666666" stroke="#666666" points="11.25,-174.5 11.25,-174.5 119,-174.5 119,-174.5 11.25,-174.5"/>
<polygon fill="#666666" stroke="#666666" points="11.25,-159.25 11.25,-159.25 119,-159.25 119,-159.25 11.25,-159.25"/>
<polygon fill="none" stroke="#666666" points="11.25,-142 11.25,-191.75 119,-191.75 119,-142 11.25,-142"/>
</a>
</g>
</g>
<!-- Node2&#45;&gt;Node1 -->
<g id="edge1_Node000001_Node000002" class="edge">
<title>Node2&#45;&gt;Node1</title>
<g id="a_edge1_Node000001_Node000002"><a xlink:title=" ">
<path fill="none" stroke="#63b8ff" d="M65.12,-142.1C65.12,-131.94 65.12,-119.6 65.12,-107.25"/>
<polygon fill="none" stroke="#63b8ff" points="65.13,-107.37 61.13,-101.37 65.13,-95.37 69.13,-101.37 65.13,-107.37"/>
</a>
</g>
<text text-anchor="middle" x="79.75" y="-114.5" font-family="Helvetica,sans-Serif" font-size="10.00" fill="grey"> +table</text>
</g>
</g>
</svg>
</svg>

<style type='text/css'>
<![CDATA[
[data-mouse-over-selected='false'] { opacity: 0.7; }
[data-mouse-over-selected='true']  { opacity: 1.0; }
]]>
</style>
<script type="application/ecmascript"><![CDATA[
document.addEventListener('DOMContentLoaded', (event) => {
  highlightEdges();
  highlightAdjacentNodes();
});
]]></script>
</svg>
