<?xml version="1.0" encoding="UTF-8" standalone="no"?>
<!DOCTYPE svg PUBLIC "-//W3C//DTD SVG 1.1//EN"
 "http://www.w3.org/Graphics/SVG/1.1/DTD/svg11.dtd">
<!-- Generated by graphviz version 12.2.0 (20241103.1931)
 -->
<!-- Title: fcarouge::benchmark::anonymous_namespace{typed_mdspan_tupled_product.cpp}::accessor&lt; Tuple, Type &gt; Pages: 1 -->
<svg width="172pt" height="204pt"
 viewBox="0.00 0.00 172.00 203.75" xmlns="http://www.w3.org/2000/svg" xmlns:xlink="http://www.w3.org/1999/xlink">

<svg id="main" version="1.1" xmlns="http://www.w3.org/2000/svg" xmlns:xlink="http://www.w3.org/1999/xlink" xml:space="preserve">

<style type="text/css"><![CDATA[
.node, .edge {opacity: 0.7;}
.node.selected, .edge.selected {opacity: 1;}
.edge:hover path { stroke: red; }
.edge:hover polygon { stroke: red; fill: red; }
]]></style>
<script type="application/ecmascript" xlink:href="svg.min.js"/>
<svg id="graph" class="graph">
<g id="graph0" class="graph" transform="scale(1 1) rotate(0) translate(4 199.75)">
<title>fcarouge::benchmark::anonymous_namespace{typed_mdspan_tupled_product.cpp}::accessor&lt; Tuple, Type &gt;</title>
<!-- Node1 -->
<g id="Node000001" class="node">
<title>Node1</title>
<g id="a_Node000001"><a xlink:title=" ">
<polygon fill="#999999" stroke="none" points="164,-98.75 0,-98.75 0,0 164,0 164,-98.75"/>
<text text-anchor="start" x="4" y="-85.25" font-family="Helvetica,sans-Serif" font-size="10.00">fcarouge::benchmark</text>
<text text-anchor="start" x="4" y="-74" font-family="Helvetica,sans-Serif" font-size="10.00">::anonymous_namespace</text>
<text text-anchor="start" x="4" y="-62.75" font-family="Helvetica,sans-Serif" font-size="10.00">{typed_mdspan_tupled_product.cpp}</text>
<text text-anchor="start" x="26.5" y="-51.5" font-family="Helvetica,sans-Serif" font-size="10.00">::accessor&lt; Tuple, Type &gt;</text>
<text text-anchor="start" x="80.5" y="-36.25" font-family="Helvetica,sans-Serif" font-size="10.00"> </text>
<text text-anchor="start" x="31.12" y="-21" font-family="Helvetica,sans-Serif" font-size="10.00">+</text>
<text text-anchor="start" x="68.25" y="-21" font-family="Helvetica,sans-Serif" font-size="10.00">access()</text>
<text text-anchor="start" x="31.12" y="-5.75" font-family="Helvetica,sans-Serif" font-size="10.00">+</text>
<text text-anchor="start" x="68.25" y="-5.75" font-family="Helvetica,sans-Serif" font-size="10.00">offset()</text>
<polygon fill="#666666" stroke="#666666" points="0,-47.75 0,-47.75 164,-47.75 164,-47.75 0,-47.75"/>
<polygon fill="#666666" stroke="#666666" points="0,-32.5 0,-32.5 164,-32.5 164,-32.5 0,-32.5"/>
<polygon fill="none" stroke="#666666" points="0,0 0,-98.75 164,-98.75 164,0 0,0"/>
</a>
</g>
</g>
<!-- Node2 -->
<g id="Node000002" class="node">
<title>Node2</title>
<g id="a_Node000002"><a xlink:title=" ">
<polygon fill="white" stroke="none" points="130.62,-195.75 33.38,-195.75 33.38,-146 130.62,-146 130.62,-195.75"/>
<text text-anchor="start" x="37.38" y="-182.25" font-family="Helvetica,sans-Serif" font-size="10.00">static constexpr auto</text>
<text text-anchor="start" x="80.5" y="-167" font-family="Helvetica,sans-Serif" font-size="10.00"> </text>
<text text-anchor="start" x="80.5" y="-151.75" font-family="Helvetica,sans-Serif" font-size="10.00"> </text>
<polygon fill="#666666" stroke="#666666" points="33.38,-178.5 33.38,-178.5 130.62,-178.5 130.62,-178.5 33.38,-178.5"/>
<polygon fill="#666666" stroke="#666666" points="33.38,-163.25 33.38,-163.25 130.62,-163.25 130.62,-163.25 33.38,-163.25"/>
<polygon fill="none" stroke="#666666" points="33.38,-146 33.38,-195.75 130.62,-195.75 130.62,-146 33.38,-146"/>
</a>
</g>
</g>
<!-- Node2&#45;&gt;Node1 -->
<g id="edge1_Node000001_Node000002" class="edge">
<title>Node2&#45;&gt;Node1</title>
<g id="a_edge1_Node000001_Node000002"><a xlink:title=" ">
<path fill="none" stroke="#63b8ff" d="M82,-146.27C82,-136.17 82,-123.87 82,-111.49"/>
<polygon fill="none" stroke="#63b8ff" points="82,-111.55 78,-105.55 82,-99.55 86,-105.55 82,-111.55"/>
</a>
</g>
<text text-anchor="middle" x="94.75" y="-118.5" font-family="Helvetica,sans-Serif" font-size="10.00" fill="grey"> +size</text>
</g>
</g>
</svg>
</svg>

<style type='text/css'>
<![CDATA[
[data-mouse-over-selected='false'] { opacity: 0.7; }
[data-mouse-over-selected='true']  { opacity: 1.0; }
]]>
</style>
<script type="application/ecmascript"><![CDATA[
document.addEventListener('DOMContentLoaded', (event) => {
  highlightEdges();
  highlightAdjacentNodes();
});
]]></script>
</svg>
