<?xml version="1.0" encoding="UTF-8" standalone="no"?>
<!DOCTYPE svg PUBLIC "-//W3C//DTD SVG 1.1//EN"
 "http://www.w3.org/Graphics/SVG/1.1/DTD/svg11.dtd">
<!-- Generated by graphviz version 12.2.0 (20241103.1931)
 -->
<!-- Title: std::formatter&lt; fcarouge::typed_matrix&lt; Matrix, RowIndexes, ColumnIndexes &gt;, Char &gt; Pages: 1 -->
<svg width="144pt" height="246pt"
 viewBox="0.00 0.00 143.50 245.50" xmlns="http://www.w3.org/2000/svg" xmlns:xlink="http://www.w3.org/1999/xlink">
<g id="graph0" class="graph" transform="scale(1 1) rotate(0) translate(4 241.5)">
<title>std::formatter&lt; fcarouge::typed_matrix&lt; Matrix, RowIndexes, ColumnIndexes &gt;, Char &gt;</title>
<!-- Node1 -->
<g id="Node000001" class="node">
<title>Node1</title>
<g id="a_Node000001"><a xlink:title="Specialization of the standard formatter for the typed matrix.">
<polygon fill="#999999" stroke="none" points="135.5,-129.25 0,-129.25 0,0 135.5,0 135.5,-129.25"/>
<text text-anchor="start" x="4" y="-115.75" font-family="Helvetica,sans-Serif" font-size="10.00">std::formatter&lt; fcarouge</text>
<text text-anchor="start" x="4" y="-104.5" font-family="Helvetica,sans-Serif" font-size="10.00">::typed_matrix&lt; Matrix,</text>
<text text-anchor="start" x="4" y="-93.25" font-family="Helvetica,sans-Serif" font-size="10.00"> RowIndexes, ColumnIndexes</text>
<text text-anchor="start" x="46.75" y="-82" font-family="Helvetica,sans-Serif" font-size="10.00"> &gt;, Char &gt;</text>
<text text-anchor="start" x="66.25" y="-66.75" font-family="Helvetica,sans-Serif" font-size="10.00"> </text>
<text text-anchor="start" x="24.94" y="-51.5" font-family="Helvetica,sans-Serif" font-size="10.00">+</text>
<text text-anchor="start" x="55.88" y="-51.5" font-family="Helvetica,sans-Serif" font-size="10.00">parse()</text>
<text text-anchor="start" x="24.94" y="-36.25" font-family="Helvetica,sans-Serif" font-size="10.00">+</text>
<text text-anchor="start" x="55.88" y="-36.25" font-family="Helvetica,sans-Serif" font-size="10.00">format()</text>
<text text-anchor="start" x="24.94" y="-21" font-family="Helvetica,sans-Serif" font-size="10.00">+</text>
<text text-anchor="start" x="55.88" y="-21" font-family="Helvetica,sans-Serif" font-size="10.00">format()</text>
<text text-anchor="start" x="24.94" y="-5.75" font-family="Helvetica,sans-Serif" font-size="10.00">+</text>
<text text-anchor="start" x="55.88" y="-5.75" font-family="Helvetica,sans-Serif" font-size="10.00">format()</text>
<polygon fill="#666666" stroke="#666666" points="0,-78.25 0,-78.25 135.5,-78.25 135.5,-78.25 0,-78.25"/>
<polygon fill="#666666" stroke="#666666" points="0,-63 0,-63 135.5,-63 135.5,-63 0,-63"/>
<polygon fill="none" stroke="#666666" points="0,0 0,-129.25 135.5,-129.25 135.5,0 0,0"/>
</a>
</g>
</g>
<!-- Node2 -->
<g id="Node000002" class="node">
<title>Node2</title>
<g id="a_Node000002"><a xlink:title=" ">
<polygon fill="white" stroke="none" points="84.5,-237.5 51,-237.5 51,-187.75 84.5,-187.75 84.5,-237.5"/>
<text text-anchor="start" x="55" y="-224" font-family="Helvetica,sans-Serif" font-size="10.00">size_t</text>
<text text-anchor="start" x="66.25" y="-208.75" font-family="Helvetica,sans-Serif" font-size="10.00"> </text>
<text text-anchor="start" x="66.25" y="-193.5" font-family="Helvetica,sans-Serif" font-size="10.00"> </text>
<polygon fill="#666666" stroke="#666666" points="51,-220.25 51,-220.25 84.5,-220.25 84.5,-220.25 51,-220.25"/>
<polygon fill="#666666" stroke="#666666" points="51,-205 51,-205 84.5,-205 84.5,-205 51,-205"/>
<polygon fill="none" stroke="#666666" points="51,-187.75 51,-237.5 84.5,-237.5 84.5,-187.75 51,-187.75"/>
</a>
</g>
</g>
<!-- Node2&#45;&gt;Node1 -->
<g id="edge1_Node000001_Node000002" class="edge">
<title>Node2&#45;&gt;Node1</title>
<g id="a_edge1_Node000001_Node000002"><a xlink:title=" ">
<path fill="none" stroke="#63b8ff" d="M67.75,-187.84C67.75,-175.09 67.75,-158.6 67.75,-141.87"/>
<polygon fill="none" stroke="#63b8ff" points="67.75,-142 63.75,-136 67.75,-130 71.75,-136 67.75,-142"/>
</a>
</g>
<text text-anchor="middle" x="88.75" y="-160.25" font-family="Helvetica,sans-Serif" font-size="10.00" fill="grey"> &#45;columns</text>
<text text-anchor="middle" x="88.75" y="-149" font-family="Helvetica,sans-Serif" font-size="10.00" fill="grey">&#45;rows</text>
</g>
</g>
</svg>
