<?xml version="1.0" encoding="UTF-8" standalone="no"?>
<!DOCTYPE svg PUBLIC "-//W3C//DTD SVG 1.1//EN"
 "http://www.w3.org/Graphics/SVG/1.1/DTD/svg11.dtd">
<!-- Generated by graphviz version 12.2.0 (20241103.1931)
 -->
<!-- Title: /github/workspace/include/fcarouge/typed_linear_algebra.hpp Pages: 1 -->
<!--zoomable 238 -->

<svg id="main" version="1.1" xmlns="http://www.w3.org/2000/svg" xmlns:xlink="http://www.w3.org/1999/xlink" xml:space="preserve" onload="init(evt)">

<style type="text/css"><![CDATA[
.node, .edge {opacity: 0.7;}
.node.selected, .edge.selected {opacity: 1;}
.edge:hover path { stroke: red; }
.edge:hover polygon { stroke: red; fill: red; }
]]></style>

<defs>
  <circle id="rim" cx="0" cy="0" r="7"/>
  <circle id="rim2" cx="0" cy="0" r="3.5"/>
  <g id="zoomPlus">
    <use xlink:href="#rim" fill="#404040"><set attributeName="fill" to="#808080" begin="zoomplus.mouseover" end="zoomplus.mouseout"/></use>
    <path d="M-4,0h8M0,-4v8" fill="none" stroke="white" stroke-width="1.5" pointer-events="none"/>
  </g>
  <g id="zoomMin">
    <use xlink:href="#rim" fill="#404040"><set attributeName="fill" to="#808080" begin="zoomminus.mouseover" end="zoomminus.mouseout"/></use>
    <path d="M-4,0h8" fill="none" stroke="white" stroke-width="1.5" pointer-events="none"/>
  </g>
  <g id="arrowUp" transform="translate(30 24)">
    <use xlink:href="#rim"/>
    <path pointer-events="none" fill="none" stroke="white" stroke-width="1.5" d="M0,-3.0v7 M-2.5,-0.5L0,-3.0L2.5,-0.5"/>
  </g>
  <g id="arrowRight" transform="rotate(90) translate(36 -43)">
    <use xlink:href="#rim"/>
    <path pointer-events="none" fill="none" stroke="white" stroke-width="1.5" d="M0,-3.0v7 M-2.5,-0.5L0,-3.0L2.5,-0.5"/>
  </g>
  <g id="arrowDown" transform="rotate(180) translate(-30 -48)">
    <use xlink:href="#rim"/>
    <path pointer-events="none" fill="none" stroke="white" stroke-width="1.5" d="M0,-3.0v7 M-2.5,-0.5L0,-3.0L2.5,-0.5"/>
  </g>
  <g id="arrowLeft" transform="rotate(270) translate(-36 17)">
    <use xlink:href="#rim"/>
    <path pointer-events="none" fill="none" stroke="white" stroke-width="1.5" d="M0,-3.0v7 M-2.5,-0.5L0,-3.0L2.5,-0.5"/>
  </g>
  <g id="resetDef">
    <use xlink:href="#rim2" fill="#404040"><set attributeName="fill" to="#808080" begin="reset.mouseover" end="reset.mouseout"/></use>
  </g>
</defs>
<script type="application/ecmascript">
var viewWidth = 1448;
var viewHeight = 238;
var sectionId = 'dynsection-0';
</script>
<script type="application/ecmascript" xlink:href="svg.min.js"/>
<svg id="graph" class="graph">
<g id="viewport">
<title>/github/workspace/include/fcarouge/typed_linear_algebra.hpp</title>
<!-- Node1 -->
<g id="Node000001" class="node">
<title>Node1</title>
<g id="a_Node000001"><a xlink:title="Typed linear algebra implementation.">
<polygon fill="#999999" stroke="#666666" points="534.88,-230 405.62,-230 405.62,-188.25 534.88,-188.25 534.88,-230"/>
<text text-anchor="start" x="413.62" y="-216.5" font-family="Helvetica,sans-Serif" font-size="10.00">/github/workspace/include</text>
<text text-anchor="start" x="413.62" y="-205.25" font-family="Helvetica,sans-Serif" font-size="10.00">/fcarouge/typed_linear</text>
<text text-anchor="middle" x="470.25" y="-194" font-family="Helvetica,sans-Serif" font-size="10.00">_algebra.hpp</text>
</a>
</g>
</g>
<!-- Node2 -->
<g id="Node000002" class="node">
<title>Node2</title>
<g id="a_Node000002"><a xlink:href="typed__linear__algebra__forward_8hpp.xhtml" target="_top" xlink:title="Authoritative forward declaration header.">
<polygon fill="white" stroke="#666666" points="104.5,-146.62 0,-146.62 0,-116.12 104.5,-116.12 104.5,-146.62"/>
<text text-anchor="start" x="8" y="-133.12" font-family="Helvetica,sans-Serif" font-size="10.00">typed_linear_algebra</text>
<text text-anchor="middle" x="52.25" y="-121.88" font-family="Helvetica,sans-Serif" font-size="10.00">_forward.hpp</text>
</a>
</g>
</g>
<!-- Node1&#45;&gt;Node2 -->
<g id="edge1_Node000001_Node000002" class="edge">
<title>Node1&#45;&gt;Node2</title>
<g id="a_edge1_Node000001_Node000002"><a xlink:title=" ">
<path fill="none" stroke="#63b8ff" d="M405.19,-200.47C334.17,-191.5 217.32,-174.92 118.25,-152.25 115.29,-151.57 112.27,-150.83 109.23,-150.05"/>
<polygon fill="#63b8ff" stroke="#63b8ff" points="110.22,-146.7 99.66,-147.47 108.4,-153.46 110.22,-146.7"/>
</a>
</g>
</g>
<!-- Node3 -->
<g id="Node000003" class="node">
<title>Node3</title>
<g id="a_Node000003"><a xlink:href="format_8hpp.xhtml" target="_top" xlink:title="Formatting support for the typed matrix.">
<polygon fill="white" stroke="#666666" points="378.5,-146.62 274,-146.62 274,-116.12 378.5,-116.12 378.5,-146.62"/>
<text text-anchor="start" x="282" y="-133.12" font-family="Helvetica,sans-Serif" font-size="10.00">typed_linear_algebra</text>
<text text-anchor="middle" x="326.25" y="-121.88" font-family="Helvetica,sans-Serif" font-size="10.00">_internal/format.hpp</text>
</a>
</g>
</g>
<!-- Node1&#45;&gt;Node3 -->
<g id="edge2_Node000001_Node000003" class="edge">
<title>Node1&#45;&gt;Node3</title>
<g id="a_edge2_Node000001_Node000003"><a xlink:title=" ">
<path fill="none" stroke="#63b8ff" d="M431.66,-187.83C410.71,-176.8 384.9,-163.23 364.07,-152.27"/>
<polygon fill="#63b8ff" stroke="#63b8ff" points="365.8,-149.23 355.32,-147.67 362.55,-155.42 365.8,-149.23"/>
</a>
</g>
</g>
<!-- Node4 -->
<g id="Node000004" class="node">
<title>Node4</title>
<g id="a_Node000004"><a xlink:href="utility_8hpp.xhtml" target="_top" xlink:title=" ">
<polygon fill="white" stroke="#666666" points="265.5,-74.5 209,-74.5 209,-55.25 265.5,-55.25 265.5,-74.5"/>
<text text-anchor="middle" x="237.25" y="-61" font-family="Helvetica,sans-Serif" font-size="10.00">utility.hpp</text>
</a>
</g>
</g>
<!-- Node1&#45;&gt;Node4 -->
<g id="edge10_Node000001_Node000004" class="edge">
<title>Node1&#45;&gt;Node4</title>
<g id="a_edge10_Node000001_Node000004"><a xlink:title=" ">
<path fill="none" stroke="#63b8ff" d="M405.26,-199.05C349.44,-189.92 274.81,-174.06 254.25,-152.25 237.64,-134.64 235.08,-105.76 235.54,-86.29"/>
<polygon fill="#63b8ff" stroke="#63b8ff" points="239.03,-86.52 236.09,-76.34 232.04,-86.12 239.03,-86.52"/>
</a>
</g>
</g>
<!-- Node5 -->
<g id="Node000005" class="node">
<title>Node5</title>
<g id="a_Node000005"><a xlink:title=" ">
<polygon fill="#e0e0e0" stroke="#999999" points="147.12,-19.25 91.38,-19.25 91.38,0 147.12,0 147.12,-19.25"/>
<text text-anchor="middle" x="119.25" y="-5.75" font-family="Helvetica,sans-Serif" font-size="10.00">concepts</text>
</a>
</g>
</g>
<!-- Node1&#45;&gt;Node5 -->
<g id="edge11_Node000001_Node000005" class="edge">
<title>Node1&#45;&gt;Node5</title>
<g id="a_edge11_Node000001_Node000005"><a xlink:title=" ">
<path fill="none" stroke="#63b8ff" d="M405.26,-200.97C335.85,-192.26 231.47,-175.74 199.25,-152.25 157.15,-121.55 134.18,-61.54 124.63,-30.41"/>
<polygon fill="#63b8ff" stroke="#63b8ff" points="128.09,-29.76 121.95,-21.13 121.36,-31.71 128.09,-29.76"/>
</a>
</g>
</g>
<!-- Node7 -->
<g id="Node000007" class="node">
<title>Node7</title>
<g id="a_Node000007"><a xlink:title=" ">
<polygon fill="#e0e0e0" stroke="#999999" points="201.75,-19.25 164.75,-19.25 164.75,0 201.75,0 201.75,-19.25"/>
<text text-anchor="middle" x="183.25" y="-5.75" font-family="Helvetica,sans-Serif" font-size="10.00">tuple</text>
</a>
</g>
</g>
<!-- Node1&#45;&gt;Node7 -->
<g id="edge15_Node000001_Node000007" class="edge">
<title>Node1&#45;&gt;Node7</title>
<g id="a_edge15_Node000001_Node000007"><a xlink:title=" ">
<path fill="none" stroke="#63b8ff" d="M405.31,-199.51C344.41,-190.27 258.98,-173.95 233.25,-152.25 196.63,-121.38 186.82,-61.89 184.2,-30.75"/>
<polygon fill="#63b8ff" stroke="#63b8ff" points="187.72,-30.9 183.57,-21.15 180.73,-31.36 187.72,-30.9"/>
</a>
</g>
</g>
<!-- Node9 -->
<g id="Node000009" class="node">
<title>Node9</title>
<g id="a_Node000009"><a xlink:title=" ">
<polygon fill="#e0e0e0" stroke="#999999" points="340.38,-74.5 292.12,-74.5 292.12,-55.25 340.38,-55.25 340.38,-74.5"/>
<text text-anchor="middle" x="316.25" y="-61" font-family="Helvetica,sans-Serif" font-size="10.00">cstddef</text>
</a>
</g>
</g>
<!-- Node1&#45;&gt;Node9 -->
<g id="edge12_Node000001_Node000009" class="edge">
<title>Node1&#45;&gt;Node9</title>
<g id="a_edge12_Node000001_Node000009"><a xlink:title=" ">
<path fill="none" stroke="#63b8ff" d="M405.19,-199.07C351.8,-190.15 282.32,-174.6 265.25,-152.25 253.99,-137.5 257.58,-127.4 265.25,-110.5 270.63,-98.65 280.88,-88.7 290.8,-81.23"/>
<polygon fill="#63b8ff" stroke="#63b8ff" points="292.55,-84.28 298.78,-75.71 288.57,-78.52 292.55,-84.28"/>
</a>
</g>
</g>
<!-- Node10 -->
<g id="Node000010" class="node">
<title>Node10</title>
<g id="a_Node000010"><a xlink:title=" ">
<polygon fill="#e0e0e0" stroke="#999999" points="415.12,-74.5 371.38,-74.5 371.38,-55.25 415.12,-55.25 415.12,-74.5"/>
<text text-anchor="middle" x="393.25" y="-61" font-family="Helvetica,sans-Serif" font-size="10.00">format</text>
</a>
</g>
</g>
<!-- Node1&#45;&gt;Node10 -->
<g id="edge13_Node000001_Node000010" class="edge">
<title>Node1&#45;&gt;Node10</title>
<g id="a_edge13_Node000001_Node000010"><a xlink:title=" ">
<path fill="none" stroke="#63b8ff" d="M451.22,-187.8C442.46,-177.68 432.45,-164.92 425.25,-152.25 413.06,-130.78 403.94,-103.8 398.61,-85.75"/>
<polygon fill="#63b8ff" stroke="#63b8ff" points="402.04,-85 395.95,-76.33 395.3,-86.9 402.04,-85"/>
</a>
</g>
</g>
<!-- Node11 -->
<g id="Node000011" class="node">
<title>Node11</title>
<g id="a_Node000011"><a xlink:title=" ">
<polygon fill="#e0e0e0" stroke="#999999" points="506,-141 434.5,-141 434.5,-121.75 506,-121.75 506,-141"/>
<text text-anchor="middle" x="470.25" y="-127.5" font-family="Helvetica,sans-Serif" font-size="10.00">initializer_list</text>
</a>
</g>
</g>
<!-- Node1&#45;&gt;Node11 -->
<g id="edge14_Node000001_Node000011" class="edge">
<title>Node1&#45;&gt;Node11</title>
<g id="a_edge14_Node000001_Node000011"><a xlink:title=" ">
<path fill="none" stroke="#63b8ff" d="M470.25,-187.83C470.25,-176.99 470.25,-163.69 470.25,-152.83"/>
<polygon fill="#63b8ff" stroke="#63b8ff" points="473.75,-153.01 470.25,-143.01 466.75,-153.01 473.75,-153.01"/>
</a>
</g>
</g>
<!-- Node12 -->
<g id="Node000012" class="node">
<title>Node12</title>
<g id="a_Node000012"><a xlink:title=" ">
<polygon fill="#e0e0e0" stroke="#999999" points="562.5,-141 524,-141 524,-121.75 562.5,-121.75 562.5,-141"/>
<text text-anchor="middle" x="543.25" y="-127.5" font-family="Helvetica,sans-Serif" font-size="10.00">utility</text>
</a>
</g>
</g>
<!-- Node1&#45;&gt;Node12 -->
<g id="edge16_Node000001_Node000012" class="edge">
<title>Node1&#45;&gt;Node12</title>
<g id="a_edge16_Node000001_Node000012"><a xlink:title=" ">
<path fill="none" stroke="#63b8ff" d="M489.81,-187.83C501.28,-175.93 515.6,-161.06 526.54,-149.72"/>
<polygon fill="#63b8ff" stroke="#63b8ff" points="528.99,-152.22 533.41,-142.59 523.95,-147.36 528.99,-152.22"/>
</a>
</g>
</g>
<!-- Node13 -->
<g id="Node000013" class="node">
<title>Node13</title>
<g id="a_Node000013"><a xlink:title=" ">
<polygon fill="#e0e0e0" stroke="#999999" points="710.25,-146.62 580.25,-146.62 580.25,-116.12 710.25,-116.12 710.25,-146.62"/>
<text text-anchor="start" x="588.25" y="-133.12" font-family="Helvetica,sans-Serif" font-size="10.00">typed_linear_algebra</text>
<text text-anchor="middle" x="645.25" y="-121.88" font-family="Helvetica,sans-Serif" font-size="10.00">_internal/algorithm/add.tpp</text>
</a>
</g>
</g>
<!-- Node1&#45;&gt;Node13 -->
<g id="edge17_Node000001_Node000013" class="edge">
<title>Node1&#45;&gt;Node13</title>
<g id="a_edge17_Node000001_Node000013"><a xlink:title=" ">
<path fill="none" stroke="#63b8ff" d="M517.15,-187.83C543.1,-176.59 575.18,-162.7 600.75,-151.64"/>
<polygon fill="#63b8ff" stroke="#63b8ff" points="602.09,-154.87 609.88,-147.68 599.31,-148.45 602.09,-154.87"/>
</a>
</g>
</g>
<!-- Node14 -->
<g id="Node000014" class="node">
<title>Node14</title>
<g id="a_Node000014"><a xlink:title=" ">
<polygon fill="#e0e0e0" stroke="#999999" points="882.62,-146.62 727.88,-146.62 727.88,-116.12 882.62,-116.12 882.62,-146.62"/>
<text text-anchor="start" x="735.88" y="-133.12" font-family="Helvetica,sans-Serif" font-size="10.00">typed_linear_algebra</text>
<text text-anchor="middle" x="805.25" y="-121.88" font-family="Helvetica,sans-Serif" font-size="10.00">_internal/algorithm/substract.tpp</text>
</a>
</g>
</g>
<!-- Node1&#45;&gt;Node14 -->
<g id="edge18_Node000001_Node000014" class="edge">
<title>Node1&#45;&gt;Node14</title>
<g id="a_edge18_Node000001_Node000014"><a xlink:title=" ">
<path fill="none" stroke="#63b8ff" d="M535.29,-193.65C585.54,-182.44 656.83,-166.47 719.25,-152.25 723.03,-151.39 726.89,-150.51 730.8,-149.61"/>
<polygon fill="#63b8ff" stroke="#63b8ff" points="731.42,-153.06 740.38,-147.41 729.85,-146.24 731.42,-153.06"/>
</a>
</g>
</g>
<!-- Node15 -->
<g id="Node000015" class="node">
<title>Node15</title>
<g id="a_Node000015"><a xlink:title=" ">
<polygon fill="#e0e0e0" stroke="#999999" points="1063.38,-146.62 901.12,-146.62 901.12,-116.12 1063.38,-116.12 1063.38,-146.62"/>
<text text-anchor="start" x="909.12" y="-133.12" font-family="Helvetica,sans-Serif" font-size="10.00">typed_linear_algebra</text>
<text text-anchor="middle" x="982.25" y="-121.88" font-family="Helvetica,sans-Serif" font-size="10.00">_internal/algorithm/transposed.tpp</text>
</a>
</g>
</g>
<!-- Node1&#45;&gt;Node15 -->
<g id="edge19_Node000001_Node000015" class="edge">
<title>Node1&#45;&gt;Node15</title>
<g id="a_edge19_Node000001_Node000015"><a xlink:title=" ">
<path fill="none" stroke="#63b8ff" d="M535.06,-201.22C617.95,-191.99 765.79,-174.24 891.25,-152.25 896.45,-151.34 901.81,-150.34 907.19,-149.28"/>
<polygon fill="#63b8ff" stroke="#63b8ff" points="907.65,-152.76 916.76,-147.35 906.27,-145.9 907.65,-152.76"/>
</a>
</g>
</g>
<!-- Node16 -->
<g id="Node000016" class="node">
<title>Node16</title>
<g id="a_Node000016"><a xlink:title=" ">
<polygon fill="#e0e0e0" stroke="#999999" points="1185.5,-146.62 1081,-146.62 1081,-116.12 1185.5,-116.12 1185.5,-146.62"/>
<text text-anchor="start" x="1089" y="-133.12" font-family="Helvetica,sans-Serif" font-size="10.00">typed_linear_algebra</text>
<text text-anchor="middle" x="1133.25" y="-121.88" font-family="Helvetica,sans-Serif" font-size="10.00">_internal/cast.tpp</text>
</a>
</g>
</g>
<!-- Node1&#45;&gt;Node16 -->
<g id="edge20_Node000001_Node000016" class="edge">
<title>Node1&#45;&gt;Node16</title>
<g id="a_edge20_Node000001_Node000016"><a xlink:title=" ">
<path fill="none" stroke="#63b8ff" d="M535.09,-206.82C646.17,-203.54 879.52,-192.07 1072.25,-152.25 1075.22,-151.64 1078.24,-150.93 1081.28,-150.16"/>
<polygon fill="#63b8ff" stroke="#63b8ff" points="1082.09,-153.56 1090.78,-147.51 1080.21,-146.82 1082.09,-153.56"/>
</a>
</g>
</g>
<!-- Node17 -->
<g id="Node000017" class="node">
<title>Node17</title>
<g id="a_Node000017"><a xlink:title=" ">
<polygon fill="#e0e0e0" stroke="#999999" points="1314.88,-146.62 1203.62,-146.62 1203.62,-116.12 1314.88,-116.12 1314.88,-146.62"/>
<text text-anchor="start" x="1211.62" y="-133.12" font-family="Helvetica,sans-Serif" font-size="10.00">typed_linear_algebra</text>
<text text-anchor="middle" x="1259.25" y="-121.88" font-family="Helvetica,sans-Serif" font-size="10.00">_internal/operation.tpp</text>
</a>
</g>
</g>
<!-- Node1&#45;&gt;Node17 -->
<g id="edge21_Node000001_Node000017" class="edge">
<title>Node1&#45;&gt;Node17</title>
<g id="a_edge21_Node000001_Node000017"><a xlink:title=" ">
<path fill="none" stroke="#63b8ff" d="M535.28,-207.87C662.82,-206.33 954.25,-197.63 1194.25,-152.25 1197.79,-151.58 1201.4,-150.79 1205.03,-149.91"/>
<polygon fill="#63b8ff" stroke="#63b8ff" points="1205.62,-153.38 1214.41,-147.46 1203.85,-146.61 1205.62,-153.38"/>
</a>
</g>
</g>
<!-- Node18 -->
<g id="Node000018" class="node">
<title>Node18</title>
<g id="a_Node000018"><a xlink:title=" ">
<polygon fill="#e0e0e0" stroke="#999999" points="1440,-152.25 1332.5,-152.25 1332.5,-110.5 1440,-110.5 1440,-152.25"/>
<text text-anchor="start" x="1340.5" y="-138.75" font-family="Helvetica,sans-Serif" font-size="10.00">typed_linear_algebra</text>
<text text-anchor="start" x="1340.5" y="-127.5" font-family="Helvetica,sans-Serif" font-size="10.00">_internal/typed_linear</text>
<text text-anchor="middle" x="1386.25" y="-116.25" font-family="Helvetica,sans-Serif" font-size="10.00">_algebra.tpp</text>
</a>
</g>
</g>
<!-- Node1&#45;&gt;Node18 -->
<g id="edge22_Node000001_Node000018" class="edge">
<title>Node1&#45;&gt;Node18</title>
<g id="a_edge22_Node000001_Node000018"><a xlink:title=" ">
<path fill="none" stroke="#63b8ff" d="M535.22,-205.93C703.62,-199.93 1152.31,-181.81 1320.84,-152.62"/>
<polygon fill="#63b8ff" stroke="#63b8ff" points="1321.31,-156.09 1330.52,-150.86 1320.05,-149.21 1321.31,-156.09"/>
</a>
</g>
</g>
<!-- Node3&#45;&gt;Node4 -->
<g id="edge3_Node000003_Node000004" class="edge">
<title>Node3&#45;&gt;Node4</title>
<g id="a_edge3_Node000003_Node000004"><a xlink:title=" ">
<path fill="none" stroke="#63b8ff" d="M306.05,-115.74C291.97,-105.53 273.2,-91.93 258.82,-81.51"/>
<polygon fill="#63b8ff" stroke="#63b8ff" points="261.06,-78.81 250.91,-75.77 256.95,-84.48 261.06,-78.81"/>
</a>
</g>
</g>
<!-- Node3&#45;&gt;Node9 -->
<g id="edge8_Node000003_Node000009" class="edge">
<title>Node3&#45;&gt;Node9</title>
<g id="a_edge8_Node000003_Node000009"><a xlink:title=" ">
<path fill="none" stroke="#63b8ff" d="M323.98,-115.74C322.62,-106.95 320.87,-95.65 319.37,-86.03"/>
<polygon fill="#63b8ff" stroke="#63b8ff" points="322.84,-85.54 317.85,-76.19 315.92,-86.61 322.84,-85.54"/>
</a>
</g>
</g>
<!-- Node3&#45;&gt;Node10 -->
<g id="edge9_Node000003_Node000010" class="edge">
<title>Node3&#45;&gt;Node10</title>
<g id="a_edge9_Node000003_Node000010"><a xlink:title=" ">
<path fill="none" stroke="#63b8ff" d="M341.45,-115.74C351.71,-105.87 365.26,-92.82 375.94,-82.54"/>
<polygon fill="#63b8ff" stroke="#63b8ff" points="378.22,-85.2 382.99,-75.75 373.36,-80.16 378.22,-85.2"/>
</a>
</g>
</g>
<!-- Node4&#45;&gt;Node5 -->
<g id="edge4_Node000004_Node000005" class="edge">
<title>Node4&#45;&gt;Node5</title>
<g id="a_edge4_Node000004_Node000005"><a xlink:title=" ">
<path fill="none" stroke="#63b8ff" d="M217.23,-54.84C198.76,-46.5 171.04,-34 149.8,-24.41"/>
<polygon fill="#63b8ff" stroke="#63b8ff" points="151.3,-21.25 140.74,-20.33 148.42,-27.63 151.3,-21.25"/>
</a>
</g>
</g>
<!-- Node6 -->
<g id="Node000006" class="node">
<title>Node6</title>
<g id="a_Node000006"><a xlink:title=" ">
<polygon fill="#e0e0e0" stroke="#999999" points="278.25,-19.25 220.25,-19.25 220.25,0 278.25,0 278.25,-19.25"/>
<text text-anchor="middle" x="249.25" y="-5.75" font-family="Helvetica,sans-Serif" font-size="10.00">functional</text>
</a>
</g>
</g>
<!-- Node4&#45;&gt;Node6 -->
<g id="edge5_Node000004_Node000006" class="edge">
<title>Node4&#45;&gt;Node6</title>
<g id="a_edge5_Node000004_Node000006"><a xlink:title=" ">
<path fill="none" stroke="#63b8ff" d="M239.23,-55.08C240.72,-48.49 242.81,-39.21 244.7,-30.82"/>
<polygon fill="#63b8ff" stroke="#63b8ff" points="248.11,-31.61 246.89,-21.09 241.28,-30.07 248.11,-31.61"/>
</a>
</g>
</g>
<!-- Node4&#45;&gt;Node7 -->
<g id="edge6_Node000004_Node000007" class="edge">
<title>Node4&#45;&gt;Node7</title>
<g id="a_edge6_Node000004_Node000007"><a xlink:title=" ">
<path fill="none" stroke="#63b8ff" d="M228.33,-55.08C220.8,-47.65 209.78,-36.79 200.52,-27.66"/>
<polygon fill="#63b8ff" stroke="#63b8ff" points="203.02,-25.2 193.44,-20.67 198.1,-30.19 203.02,-25.2"/>
</a>
</g>
</g>
<!-- Node8 -->
<g id="Node000008" class="node">
<title>Node8</title>
<g id="a_Node000008"><a xlink:title=" ">
<polygon fill="#e0e0e0" stroke="#999999" points="357.75,-19.25 296.75,-19.25 296.75,0 357.75,0 357.75,-19.25"/>
<text text-anchor="middle" x="327.25" y="-5.75" font-family="Helvetica,sans-Serif" font-size="10.00">type_traits</text>
</a>
</g>
</g>
<!-- Node4&#45;&gt;Node8 -->
<g id="edge7_Node000004_Node000008" class="edge">
<title>Node4&#45;&gt;Node8</title>
<g id="a_edge7_Node000004_Node000008"><a xlink:title=" ">
<path fill="none" stroke="#63b8ff" d="M252.52,-54.84C266.09,-46.81 286.2,-34.91 302.15,-25.48"/>
<polygon fill="#63b8ff" stroke="#63b8ff" points="303.78,-28.58 310.61,-20.47 300.22,-22.55 303.78,-28.58"/>
</a>
</g>
</g>
</g>
</svg>

<g id="navigator" transform="translate(0 0)" fill="#404254">
  <rect fill="#f2f5e9" fill-opacity="0.5" stroke="#606060" stroke-width=".5" x="0" y="0" width="60" height="60"/>
  <use id="zoomplus" xlink:href="#zoomPlus" x="17" y="9" onmousedown="handleZoom(evt,'in')"/>
  <use id="zoomminus" xlink:href="#zoomMin" x="42" y="9" onmousedown="handleZoom(evt,'out')"/>
  <use id="reset" xlink:href="#resetDef" x="30" y="36" onmousedown="handleReset()"/>
   <use id="arrowup" xlink:href="#arrowUp" x="0" y="0" onmousedown="handlePan(0,-1)"/>
  <use id="arrowright" xlink:href="#arrowRight" x="0" y="0" onmousedown="handlePan(1,0)"/>
  <use id="arrowdown" xlink:href="#arrowDown" x="0" y="0" onmousedown="handlePan(0,1)"/>
  <use id="arrowleft" xlink:href="#arrowLeft" x="0" y="0" onmousedown="handlePan(-1,0)"/>
</g>
<svg viewBox="0 0 15 15" width="100%" height="30px" preserveAspectRatio="xMaxYMin meet">
 <g id="arrow_out" transform="scale(0.3 0.3)">
  <a xlink:href="typed__linear__algebra_8hpp__incl_org.svg" target="_base">
   <rect id="button" ry="5" rx="5" y="6" x="6" height="38" width="38"
        fill="#f2f5e9" fill-opacity="0.5" stroke="#606060" stroke-width="1.0"/>
   <path id="arrow"
     d="M 11.500037,31.436501 C 11.940474,20.09759 22.043105,11.32322 32.158766,21.979434 L 37.068811,17.246167 C 37.068811,17.246167 37.088388,32 37.088388,32 L 22.160133,31.978069 C 22.160133,31.978069 26.997745,27.140456 26.997745,27.140456 C 18.528582,18.264221 13.291696,25.230495 11.500037,31.436501 z"
     style="fill:#404040;"/>
  </a>
 </g>
</svg>

<style type='text/css'>
<![CDATA[
[data-mouse-over-selected='false'] { opacity: 0.7; }
[data-mouse-over-selected='true']  { opacity: 1.0; }
]]>
</style>
<script type="application/ecmascript"><![CDATA[
document.addEventListener('DOMContentLoaded', (event) => {
  highlightEdges();
  highlightAdjacentNodes();
});
]]></script>
</svg>
