<?xml version="1.0" encoding="UTF-8" standalone="no"?>
<!DOCTYPE svg PUBLIC "-//W3C//DTD SVG 1.1//EN"
 "http://www.w3.org/Graphics/SVG/1.1/DTD/svg11.dtd">
<!-- Generated by graphviz version 12.2.0 (20241103.1931)
 -->
<!-- Title: /github/workspace/include/fcarouge/typed_linear_algebra_forward.hpp Pages: 1 -->
<svg width="926pt" height="427pt"
 viewBox="0.00 0.00 926.12 427.25" xmlns="http://www.w3.org/2000/svg" xmlns:xlink="http://www.w3.org/1999/xlink">
<g id="graph0" class="graph" transform="scale(1 1) rotate(0) translate(4 423.25)">
<title>/github/workspace/include/fcarouge/typed_linear_algebra_forward.hpp</title>
<!-- Node1 -->
<g id="Node000001" class="node">
<title>Node1</title>
<g id="a_Node000001"><a xlink:title="Authoritative forward declaration header.">
<polygon fill="#999999" stroke="#666666" points="574.12,-419.25 444.88,-419.25 444.88,-377.5 574.12,-377.5 574.12,-419.25"/>
<text text-anchor="start" x="452.88" y="-405.75" font-family="Helvetica,sans-Serif" font-size="10.00">/github/workspace/include</text>
<text text-anchor="start" x="452.88" y="-394.5" font-family="Helvetica,sans-Serif" font-size="10.00">/fcarouge/typed_linear</text>
<text text-anchor="middle" x="509.5" y="-383.25" font-family="Helvetica,sans-Serif" font-size="10.00">_algebra_forward.hpp</text>
</a>
</g>
</g>
<!-- Node2 -->
<g id="Node000002" class="node">
<title>Node2</title>
<g id="a_Node000002"><a xlink:href="typed__linear__algebra_8hpp.xhtml" target="_top" xlink:title="Typed linear algebra implementation.">
<polygon fill="white" stroke="#666666" points="604.12,-186 474.88,-186 474.88,-144.25 604.12,-144.25 604.12,-186"/>
<text text-anchor="start" x="482.88" y="-172.5" font-family="Helvetica,sans-Serif" font-size="10.00">/github/workspace/include</text>
<text text-anchor="start" x="482.88" y="-161.25" font-family="Helvetica,sans-Serif" font-size="10.00">/fcarouge/typed_linear</text>
<text text-anchor="middle" x="539.5" y="-150" font-family="Helvetica,sans-Serif" font-size="10.00">_algebra.hpp</text>
</a>
</g>
</g>
<!-- Node1&#45;&gt;Node2 -->
<g id="edge1_Node000001_Node000002" class="edge">
<title>Node1&#45;&gt;Node2</title>
<g id="a_edge1_Node000001_Node000002"><a xlink:title=" ">
<path fill="none" stroke="#63b8ff" d="M528.3,-367.05C532.4,-359.02 536.21,-350.17 538.5,-341.5 552.95,-286.9 546.98,-219.34 542.6,-186.28"/>
<polygon fill="#63b8ff" stroke="#63b8ff" points="525.28,-365.26 523.55,-375.71 531.42,-368.62 525.28,-365.26"/>
</a>
</g>
</g>
<!-- Node12 -->
<g id="Node000012" class="node">
<title>Node12</title>
<g id="a_Node000012"><a xlink:href="utility_8hpp.xhtml" target="_top" xlink:title=" ">
<polygon fill="white" stroke="#666666" points="529,-341.5 396,-341.5 396,-299.75 529,-299.75 529,-341.5"/>
<text text-anchor="start" x="404" y="-328" font-family="Helvetica,sans-Serif" font-size="10.00">/github/workspace/include</text>
<text text-anchor="start" x="404" y="-316.75" font-family="Helvetica,sans-Serif" font-size="10.00">/fcarouge/typed_linear</text>
<text text-anchor="middle" x="462.5" y="-305.5" font-family="Helvetica,sans-Serif" font-size="10.00">_algebra_internal/utility.hpp</text>
</a>
</g>
</g>
<!-- Node1&#45;&gt;Node12 -->
<g id="edge14_Node000001_Node000012" class="edge">
<title>Node1&#45;&gt;Node12</title>
<g id="a_edge14_Node000001_Node000012"><a xlink:title=" ">
<path fill="none" stroke="#63b8ff" d="M490.92,-367.43C485.62,-358.89 479.98,-349.8 475.13,-341.98"/>
<polygon fill="#63b8ff" stroke="#63b8ff" points="487.86,-369.14 496.11,-375.79 493.81,-365.45 487.86,-369.14"/>
</a>
</g>
</g>
<!-- Node3 -->
<g id="Node000003" class="node">
<title>Node3</title>
<g id="a_Node000003"><a xlink:href="typed__mdspan__tupled__product_8cpp.xhtml" target="_top" xlink:title=" ">
<polygon fill="white" stroke="#666666" points="169,-108.25 0,-108.25 0,-77.75 169,-77.75 169,-108.25"/>
<text text-anchor="start" x="8" y="-94.75" font-family="Helvetica,sans-Serif" font-size="10.00">/github/workspace/benchmark</text>
<text text-anchor="middle" x="84.5" y="-83.5" font-family="Helvetica,sans-Serif" font-size="10.00">/typed_mdspan_tupled_product.cpp</text>
</a>
</g>
</g>
<!-- Node2&#45;&gt;Node3 -->
<g id="edge2_Node000002_Node000003" class="edge">
<title>Node2&#45;&gt;Node3</title>
<g id="a_edge2_Node000002_Node000003"><a xlink:title=" ">
<path fill="none" stroke="#63b8ff" d="M463.65,-152.43C382.36,-139.91 253.64,-120.07 169.12,-107.04"/>
<polygon fill="#63b8ff" stroke="#63b8ff" points="462.88,-155.86 473.3,-153.92 463.95,-148.94 462.88,-155.86"/>
</a>
</g>
</g>
<!-- Node4 -->
<g id="Node000004" class="node">
<title>Node4</title>
<g id="a_Node000004"><a xlink:href="mp__units__eigen_8cpp.xhtml" target="_top" xlink:title="Unit safe linear algebra with mp&#45;units and Eigen.">
<polygon fill="white" stroke="#666666" points="317.5,-108.25 187.5,-108.25 187.5,-77.75 317.5,-77.75 317.5,-108.25"/>
<text text-anchor="start" x="195.5" y="-94.75" font-family="Helvetica,sans-Serif" font-size="10.00">/github/workspace/sample</text>
<text text-anchor="middle" x="252.5" y="-83.5" font-family="Helvetica,sans-Serif" font-size="10.00">/mp_units_eigen.cpp</text>
</a>
</g>
</g>
<!-- Node2&#45;&gt;Node4 -->
<g id="edge3_Node000002_Node000004" class="edge">
<title>Node2&#45;&gt;Node4</title>
<g id="a_edge3_Node000002_Node000004"><a xlink:title=" ">
<path fill="none" stroke="#63b8ff" d="M463.28,-145.5C416.07,-133.97 356.3,-119.36 312.47,-108.65"/>
<polygon fill="#63b8ff" stroke="#63b8ff" points="462.36,-148.88 472.9,-147.85 464.02,-142.08 462.36,-148.88"/>
</a>
</g>
</g>
<!-- Node5 -->
<g id="Node000005" class="node">
<title>Node5</title>
<g id="a_Node000005"><a xlink:href="mp__units__std_8cpp.xhtml" target="_top" xlink:title="Unit safe linear algebra with mp&#45;units and Eigen.">
<polygon fill="white" stroke="#666666" points="465.5,-108.25 335.5,-108.25 335.5,-77.75 465.5,-77.75 465.5,-108.25"/>
<text text-anchor="start" x="343.5" y="-94.75" font-family="Helvetica,sans-Serif" font-size="10.00">/github/workspace/sample</text>
<text text-anchor="middle" x="400.5" y="-83.5" font-family="Helvetica,sans-Serif" font-size="10.00">/mp_units_std.cpp</text>
</a>
</g>
</g>
<!-- Node2&#45;&gt;Node5 -->
<g id="edge4_Node000002_Node000005" class="edge">
<title>Node2&#45;&gt;Node5</title>
<g id="a_edge4_Node000002_Node000005"><a xlink:title=" ">
<path fill="none" stroke="#63b8ff" d="M489.08,-138.69C469.08,-128.6 446.79,-117.36 429.58,-108.67"/>
<polygon fill="#63b8ff" stroke="#63b8ff" points="487.44,-141.78 497.94,-143.16 490.59,-135.53 487.44,-141.78"/>
</a>
</g>
</g>
<!-- Node6 -->
<g id="Node000006" class="node">
<title>Node6</title>
<g id="a_Node000006"><a xlink:href="eigen_8hpp.xhtml" target="_top" xlink:title="Linear algebra facade for Eigen3 third party implementation.">
<polygon fill="white" stroke="#666666" points="651.88,-108.25 521.12,-108.25 521.12,-77.75 651.88,-77.75 651.88,-108.25"/>
<text text-anchor="start" x="529.12" y="-94.75" font-family="Helvetica,sans-Serif" font-size="10.00">/github/workspace/support</text>
<text text-anchor="middle" x="586.5" y="-83.5" font-family="Helvetica,sans-Serif" font-size="10.00">/eigen/fcarouge/eigen.hpp</text>
</a>
</g>
</g>
<!-- Node2&#45;&gt;Node6 -->
<g id="edge5_Node000002_Node000006" class="edge">
<title>Node2&#45;&gt;Node6</title>
<g id="a_edge5_Node000002_Node000006"><a xlink:title=" ">
<path fill="none" stroke="#63b8ff" d="M559.42,-134.4C565.44,-125.42 571.78,-115.96 576.81,-108.45"/>
<polygon fill="#63b8ff" stroke="#63b8ff" points="556.6,-132.33 553.94,-142.58 562.41,-136.23 556.6,-132.33"/>
</a>
</g>
</g>
<!-- Node8 -->
<g id="Node000008" class="node">
<title>Node8</title>
<g id="a_Node000008"><a xlink:href="eigexed_2fcarouge_2linalg_8hpp.xhtml" target="_top" xlink:title="Scalar type linear algebra with Eigen implementation.">
<polygon fill="white" stroke="#666666" points="440.5,-36.12 304.5,-36.12 304.5,-5.62 440.5,-5.62 440.5,-36.12"/>
<text text-anchor="start" x="312.5" y="-22.62" font-family="Helvetica,sans-Serif" font-size="10.00">/github/workspace/support</text>
<text text-anchor="middle" x="372.5" y="-11.38" font-family="Helvetica,sans-Serif" font-size="10.00">/eigexed/fcarouge/linalg.hpp</text>
</a>
</g>
</g>
<!-- Node2&#45;&gt;Node8 -->
<g id="edge10_Node000002_Node000008" class="edge">
<title>Node2&#45;&gt;Node8</title>
<g id="a_edge10_Node000002_Node000008"><a xlink:title=" ">
<path fill="none" stroke="#63b8ff" d="M521.67,-134.31C509.89,-116.37 493.21,-93.94 474.5,-77.75 454.5,-60.44 428.26,-46.21 407.4,-36.45"/>
<polygon fill="#63b8ff" stroke="#63b8ff" points="518.71,-136.19 527.04,-142.74 524.62,-132.42 518.71,-136.19"/>
</a>
</g>
</g>
<!-- Node9 -->
<g id="Node000009" class="node">
<title>Node9</title>
<g id="a_Node000009"><a xlink:href="nested__typed__eigen_2fcarouge_2linalg_8hpp.xhtml" target="_top" xlink:title="Scalar type nested linear algebra with Eigen implementation.">
<polygon fill="white" stroke="#666666" points="752.38,-41.75 606.62,-41.75 606.62,0 752.38,0 752.38,-41.75"/>
<text text-anchor="start" x="614.62" y="-28.25" font-family="Helvetica,sans-Serif" font-size="10.00">/github/workspace/support</text>
<text text-anchor="start" x="614.62" y="-17" font-family="Helvetica,sans-Serif" font-size="10.00">/nested_typed_eigen/fcarouge</text>
<text text-anchor="middle" x="679.5" y="-5.75" font-family="Helvetica,sans-Serif" font-size="10.00">/linalg.hpp</text>
</a>
</g>
</g>
<!-- Node2&#45;&gt;Node9 -->
<g id="edge11_Node000002_Node000009" class="edge">
<title>Node2&#45;&gt;Node9</title>
<g id="a_edge11_Node000002_Node000009"><a xlink:title=" ">
<path fill="none" stroke="#63b8ff" d="M614.51,-142.37C631.78,-134.17 648.56,-123.1 660.5,-108.25 675.61,-89.47 679.33,-61.23 679.95,-42.21"/>
<polygon fill="#63b8ff" stroke="#63b8ff" points="613.44,-139.02 605.71,-146.26 616.27,-145.42 613.44,-139.02"/>
</a>
</g>
</g>
<!-- Node10 -->
<g id="Node000010" class="node">
<title>Node10</title>
<g id="a_Node000010"><a xlink:href="unit__eigen_2fcarouge_2linalg_8hpp.xhtml" target="_top" xlink:title="Indexed&#45;based linear algebra with mp&#45;units with Eigen implementations.">
<polygon fill="white" stroke="#666666" points="918.12,-36.12 770.88,-36.12 770.88,-5.62 918.12,-5.62 918.12,-36.12"/>
<text text-anchor="start" x="778.88" y="-22.62" font-family="Helvetica,sans-Serif" font-size="10.00">/github/workspace/support</text>
<text text-anchor="middle" x="844.5" y="-11.38" font-family="Helvetica,sans-Serif" font-size="10.00">/unit_eigen/fcarouge/linalg.hpp</text>
</a>
</g>
</g>
<!-- Node2&#45;&gt;Node10 -->
<g id="edge12_Node000002_Node000010" class="edge">
<title>Node2&#45;&gt;Node10</title>
<g id="a_edge12_Node000002_Node000010"><a xlink:title=" ">
<path fill="none" stroke="#63b8ff" d="M606.93,-139.68C630.78,-130.49 657.6,-119.52 681.5,-108.25 706.78,-96.33 711.86,-90.95 736.5,-77.75 763.11,-63.49 793.69,-47.73 815.5,-36.59"/>
<polygon fill="#63b8ff" stroke="#63b8ff" points="605.71,-136.4 597.61,-143.23 608.21,-142.94 605.71,-136.4"/>
</a>
</g>
</g>
<!-- Node11 -->
<g id="Node000011" class="node">
<title>Node11</title>
<g id="a_Node000011"><a xlink:href="unit__std_2fcarouge_2linalg_8hpp.xhtml" target="_top" xlink:title="Indexed&#45;based linear algebra with mp&#45;units with Eigen implementations.">
<polygon fill="white" stroke="#666666" points="883.25,-108.25 745.75,-108.25 745.75,-77.75 883.25,-77.75 883.25,-108.25"/>
<text text-anchor="start" x="753.75" y="-94.75" font-family="Helvetica,sans-Serif" font-size="10.00">/github/workspace/support</text>
<text text-anchor="middle" x="814.5" y="-83.5" font-family="Helvetica,sans-Serif" font-size="10.00">/unit_std/fcarouge/linalg.hpp</text>
</a>
</g>
</g>
<!-- Node2&#45;&gt;Node11 -->
<g id="edge13_Node000002_Node000011" class="edge">
<title>Node2&#45;&gt;Node11</title>
<g id="a_edge13_Node000002_Node000011"><a xlink:title=" ">
<path fill="none" stroke="#63b8ff" d="M615.46,-144.76C660.25,-133.33 716.01,-119.11 757.12,-108.63"/>
<polygon fill="#63b8ff" stroke="#63b8ff" points="614.61,-141.36 605.79,-147.22 616.34,-148.14 614.61,-141.36"/>
</a>
</g>
</g>
<!-- Node7 -->
<g id="Node000007" class="node">
<title>Node7</title>
<g id="a_Node000007"><a xlink:href="eigen_2fcarouge_2linalg_8hpp.xhtml" target="_top" xlink:title=" ">
<polygon fill="white" stroke="#666666" points="588.88,-36.12 458.12,-36.12 458.12,-5.62 588.88,-5.62 588.88,-36.12"/>
<text text-anchor="start" x="466.12" y="-22.62" font-family="Helvetica,sans-Serif" font-size="10.00">/github/workspace/support</text>
<text text-anchor="middle" x="523.5" y="-11.38" font-family="Helvetica,sans-Serif" font-size="10.00">/eigen/fcarouge/linalg.hpp</text>
</a>
</g>
</g>
<!-- Node6&#45;&gt;Node7 -->
<g id="edge6_Node000006_Node000007" class="edge">
<title>Node6&#45;&gt;Node7</title>
<g id="a_edge6_Node000006_Node000007"><a xlink:title=" ">
<path fill="none" stroke="#63b8ff" d="M565.8,-68.96C556.16,-58.23 544.98,-45.78 536.54,-36.39"/>
<polygon fill="#63b8ff" stroke="#63b8ff" points="563.15,-71.24 572.43,-76.34 568.36,-66.57 563.15,-71.24"/>
</a>
</g>
</g>
<!-- Node6&#45;&gt;Node8 -->
<g id="edge7_Node000006_Node000008" class="edge">
<title>Node6&#45;&gt;Node8</title>
<g id="a_edge7_Node000006_Node000008"><a xlink:title=" ">
<path fill="none" stroke="#63b8ff" d="M531,-73.81C495.63,-62.22 450.39,-47.4 417.3,-36.56"/>
<polygon fill="#63b8ff" stroke="#63b8ff" points="529.61,-77.04 540.2,-76.83 531.79,-70.39 529.61,-77.04"/>
</a>
</g>
</g>
<!-- Node6&#45;&gt;Node9 -->
<g id="edge8_Node000006_Node000009" class="edge">
<title>Node6&#45;&gt;Node9</title>
<g id="a_edge8_Node000006_Node000009"><a xlink:title=" ">
<path fill="none" stroke="#63b8ff" d="M614.88,-70.6C626.84,-61.58 640.69,-51.14 652.5,-42.24"/>
<polygon fill="#63b8ff" stroke="#63b8ff" points="612.86,-67.74 606.98,-76.56 617.07,-73.33 612.86,-67.74"/>
</a>
</g>
</g>
<!-- Node6&#45;&gt;Node10 -->
<g id="edge9_Node000006_Node000010" class="edge">
<title>Node6&#45;&gt;Node10</title>
<g id="a_edge9_Node000006_Node000010"><a xlink:title=" ">
<path fill="none" stroke="#63b8ff" d="M651.49,-74.34C694.41,-62.67 750,-47.56 790.49,-36.56"/>
<polygon fill="#63b8ff" stroke="#63b8ff" points="650.78,-70.9 642.05,-76.9 652.61,-77.66 650.78,-70.9"/>
</a>
</g>
</g>
<!-- Node12&#45;&gt;Node2 -->
<g id="edge16_Node000012_Node000002" class="edge">
<title>Node12&#45;&gt;Node2</title>
<g id="a_edge16_Node000012_Node000002"><a xlink:title=" ">
<path fill="none" stroke="#63b8ff" d="M498.49,-291.6C506.86,-283.46 514.94,-273.98 520.5,-263.75 533.78,-239.33 537.87,-207.01 539.08,-186.39"/>
<polygon fill="#63b8ff" stroke="#63b8ff" points="496.24,-288.92 491.22,-298.25 500.96,-294.08 496.24,-288.92"/>
</a>
</g>
</g>
<!-- Node13 -->
<g id="Node000013" class="node">
<title>Node13</title>
<g id="a_Node000013"><a xlink:href="mdspan__tuple__product_8cpp.xhtml" target="_top" xlink:title=" ">
<polygon fill="white" stroke="#666666" points="355.75,-258.12 209.25,-258.12 209.25,-227.62 355.75,-227.62 355.75,-258.12"/>
<text text-anchor="start" x="217.25" y="-244.62" font-family="Helvetica,sans-Serif" font-size="10.00">/github/workspace/benchmark</text>
<text text-anchor="middle" x="282.5" y="-233.38" font-family="Helvetica,sans-Serif" font-size="10.00">/mdspan_tuple_product.cpp</text>
</a>
</g>
</g>
<!-- Node12&#45;&gt;Node13 -->
<g id="edge15_Node000012_Node000013" class="edge">
<title>Node12&#45;&gt;Node13</title>
<g id="a_edge15_Node000012_Node000013"><a xlink:title=" ">
<path fill="none" stroke="#63b8ff" d="M403.98,-295C375.41,-282.97 342,-268.91 317.45,-258.58"/>
<polygon fill="#63b8ff" stroke="#63b8ff" points="402.29,-298.09 412.87,-298.74 405.01,-291.63 402.29,-298.09"/>
</a>
</g>
</g>
<!-- Node14 -->
<g id="Node000014" class="node">
<title>Node14</title>
<g id="a_Node000014"><a xlink:href="format_8hpp.xhtml" target="_top" xlink:title="Formatting support for the typed matrix.">
<polygon fill="white" stroke="#666666" points="511.62,-263.75 373.38,-263.75 373.38,-222 511.62,-222 511.62,-263.75"/>
<text text-anchor="start" x="381.38" y="-250.25" font-family="Helvetica,sans-Serif" font-size="10.00">/github/workspace/include</text>
<text text-anchor="start" x="381.38" y="-239" font-family="Helvetica,sans-Serif" font-size="10.00">/fcarouge/typed_linear</text>
<text text-anchor="middle" x="442.5" y="-227.75" font-family="Helvetica,sans-Serif" font-size="10.00">_algebra_internal/format.hpp</text>
</a>
</g>
</g>
<!-- Node12&#45;&gt;Node14 -->
<g id="edge17_Node000012_Node000014" class="edge">
<title>Node12&#45;&gt;Node14</title>
<g id="a_edge17_Node000012_Node000014"><a xlink:title=" ">
<path fill="none" stroke="#63b8ff" d="M454.22,-288.28C452.08,-280.16 449.83,-271.62 447.87,-264.23"/>
<polygon fill="#63b8ff" stroke="#63b8ff" points="450.82,-289.09 456.75,-297.86 457.59,-287.3 450.82,-289.09"/>
</a>
</g>
</g>
<!-- Node14&#45;&gt;Node2 -->
<g id="edge18_Node000014_Node000002" class="edge">
<title>Node14&#45;&gt;Node2</title>
<g id="a_edge18_Node000014_Node000002"><a xlink:title=" ">
<path fill="none" stroke="#63b8ff" d="M477.32,-214.69C489.23,-205.39 502.33,-195.15 513.43,-186.48"/>
<polygon fill="#63b8ff" stroke="#63b8ff" points="475.41,-211.73 469.69,-220.64 479.72,-217.25 475.41,-211.73"/>
</a>
</g>
</g>
</g>
</svg>
