<?xml version="1.0" encoding="UTF-8" standalone="no"?>
<!DOCTYPE svg PUBLIC "-//W3C//DTD SVG 1.1//EN"
 "http://www.w3.org/Graphics/SVG/1.1/DTD/svg11.dtd">
<!-- Generated by graphviz version 12.2.0 (20241103.1931)
 -->
<!-- Title: /github/workspace/include/fcarouge/typed_linear_algebra.hpp Pages: 1 -->
<!--zoomable 194 -->

<svg id="main" version="1.1" xmlns="http://www.w3.org/2000/svg" xmlns:xlink="http://www.w3.org/1999/xlink" xml:space="preserve" onload="init(evt)">

<style type="text/css"><![CDATA[
.node, .edge {opacity: 0.7;}
.node.selected, .edge.selected {opacity: 1;}
.edge:hover path { stroke: red; }
.edge:hover polygon { stroke: red; fill: red; }
]]></style>

<defs>
  <circle id="rim" cx="0" cy="0" r="7"/>
  <circle id="rim2" cx="0" cy="0" r="3.5"/>
  <g id="zoomPlus">
    <use xlink:href="#rim" fill="#404040"><set attributeName="fill" to="#808080" begin="zoomplus.mouseover" end="zoomplus.mouseout"/></use>
    <path d="M-4,0h8M0,-4v8" fill="none" stroke="white" stroke-width="1.5" pointer-events="none"/>
  </g>
  <g id="zoomMin">
    <use xlink:href="#rim" fill="#404040"><set attributeName="fill" to="#808080" begin="zoomminus.mouseover" end="zoomminus.mouseout"/></use>
    <path d="M-4,0h8" fill="none" stroke="white" stroke-width="1.5" pointer-events="none"/>
  </g>
  <g id="arrowUp" transform="translate(30 24)">
    <use xlink:href="#rim"/>
    <path pointer-events="none" fill="none" stroke="white" stroke-width="1.5" d="M0,-3.0v7 M-2.5,-0.5L0,-3.0L2.5,-0.5"/>
  </g>
  <g id="arrowRight" transform="rotate(90) translate(36 -43)">
    <use xlink:href="#rim"/>
    <path pointer-events="none" fill="none" stroke="white" stroke-width="1.5" d="M0,-3.0v7 M-2.5,-0.5L0,-3.0L2.5,-0.5"/>
  </g>
  <g id="arrowDown" transform="rotate(180) translate(-30 -48)">
    <use xlink:href="#rim"/>
    <path pointer-events="none" fill="none" stroke="white" stroke-width="1.5" d="M0,-3.0v7 M-2.5,-0.5L0,-3.0L2.5,-0.5"/>
  </g>
  <g id="arrowLeft" transform="rotate(270) translate(-36 17)">
    <use xlink:href="#rim"/>
    <path pointer-events="none" fill="none" stroke="white" stroke-width="1.5" d="M0,-3.0v7 M-2.5,-0.5L0,-3.0L2.5,-0.5"/>
  </g>
  <g id="resetDef">
    <use xlink:href="#rim2" fill="#404040"><set attributeName="fill" to="#808080" begin="reset.mouseover" end="reset.mouseout"/></use>
  </g>
</defs>
<script type="application/ecmascript">
var viewWidth = 860;
var viewHeight = 194;
var sectionId = 'dynsection-1';
</script>
<script type="application/ecmascript" xlink:href="svg.min.js"/>
<svg id="graph" class="graph">
<g id="viewport">
<title>/github/workspace/include/fcarouge/typed_linear_algebra.hpp</title>
<!-- Node1 -->
<g id="Node000001" class="node">
<title>Node1</title>
<g id="a_Node000001"><a xlink:title="Typed linear algebra implementation.">
<polygon fill="#999999" stroke="#666666" points="509.62,-186 380.38,-186 380.38,-144.25 509.62,-144.25 509.62,-186"/>
<text text-anchor="start" x="388.38" y="-172.5" font-family="Helvetica,sans-Serif" font-size="10.00">/github/workspace/include</text>
<text text-anchor="start" x="388.38" y="-161.25" font-family="Helvetica,sans-Serif" font-size="10.00">/fcarouge/typed_linear</text>
<text text-anchor="middle" x="445" y="-150" font-family="Helvetica,sans-Serif" font-size="10.00">_algebra.hpp</text>
</a>
</g>
</g>
<!-- Node2 -->
<g id="Node000002" class="node">
<title>Node2</title>
<g id="a_Node000002"><a xlink:href="mp__units__eigen_8cpp.xhtml" target="_top" xlink:title="Unit safe linear algebra with mp&#45;units and Eigen.">
<polygon fill="white" stroke="#666666" points="130,-108.25 0,-108.25 0,-77.75 130,-77.75 130,-108.25"/>
<text text-anchor="start" x="8" y="-94.75" font-family="Helvetica,sans-Serif" font-size="10.00">/github/workspace/sample</text>
<text text-anchor="middle" x="65" y="-83.5" font-family="Helvetica,sans-Serif" font-size="10.00">/mp_units_eigen.cpp</text>
</a>
</g>
</g>
<!-- Node1&#45;&gt;Node2 -->
<g id="edge1_Node000001_Node000002" class="edge">
<title>Node1&#45;&gt;Node2</title>
<g id="a_edge1_Node000001_Node000002"><a xlink:title=" ">
<path fill="none" stroke="#63b8ff" d="M368.67,-150.4C306.74,-139.21 217.2,-122.92 139,-108.25 136.17,-107.72 133.28,-107.17 130.36,-106.62"/>
<polygon fill="#63b8ff" stroke="#63b8ff" points="367.95,-153.82 378.41,-152.16 369.19,-146.94 367.95,-153.82"/>
</a>
</g>
</g>
<!-- Node3 -->
<g id="Node000003" class="node">
<title>Node3</title>
<g id="a_Node000003"><a xlink:href="mp__units__std_8cpp.xhtml" target="_top" xlink:title="Unit safe linear algebra with mp&#45;units and Eigen.">
<polygon fill="white" stroke="#666666" points="278,-108.25 148,-108.25 148,-77.75 278,-77.75 278,-108.25"/>
<text text-anchor="start" x="156" y="-94.75" font-family="Helvetica,sans-Serif" font-size="10.00">/github/workspace/sample</text>
<text text-anchor="middle" x="213" y="-83.5" font-family="Helvetica,sans-Serif" font-size="10.00">/mp_units_std.cpp</text>
</a>
</g>
</g>
<!-- Node1&#45;&gt;Node3 -->
<g id="edge2_Node000001_Node000003" class="edge">
<title>Node1&#45;&gt;Node3</title>
<g id="a_edge2_Node000001_Node000003"><a xlink:title=" ">
<path fill="none" stroke="#63b8ff" d="M369.29,-141.24C333.93,-130.55 292.86,-118.14 261.7,-108.72"/>
<polygon fill="#63b8ff" stroke="#63b8ff" points="368.03,-144.52 378.62,-144.06 370.06,-137.82 368.03,-144.52"/>
</a>
</g>
</g>
<!-- Node4 -->
<g id="Node000004" class="node">
<title>Node4</title>
<g id="a_Node000004"><a xlink:href="eigen_8hpp.xhtml" target="_top" xlink:title="Linear algebra facade for Eigen3 third party implementation.">
<polygon fill="white" stroke="#666666" points="464.38,-108.25 333.62,-108.25 333.62,-77.75 464.38,-77.75 464.38,-108.25"/>
<text text-anchor="start" x="341.62" y="-94.75" font-family="Helvetica,sans-Serif" font-size="10.00">/github/workspace/support</text>
<text text-anchor="middle" x="399" y="-83.5" font-family="Helvetica,sans-Serif" font-size="10.00">/eigen/fcarouge/eigen.hpp</text>
</a>
</g>
</g>
<!-- Node1&#45;&gt;Node4 -->
<g id="edge3_Node000001_Node000004" class="edge">
<title>Node1&#45;&gt;Node4</title>
<g id="a_edge3_Node000001_Node000004"><a xlink:title=" ">
<path fill="none" stroke="#63b8ff" d="M425.5,-134.4C419.61,-125.42 413.4,-115.96 408.48,-108.45"/>
<polygon fill="#63b8ff" stroke="#63b8ff" points="422.45,-136.13 430.86,-142.58 428.31,-132.3 422.45,-136.13"/>
</a>
</g>
</g>
<!-- Node6 -->
<g id="Node000006" class="node">
<title>Node6</title>
<g id="a_Node000006"><a xlink:href="eigexed_2fcarouge_2linalg_8hpp.xhtml" target="_top" xlink:title="Scalar type linear algebra with Eigen implementation.">
<polygon fill="white" stroke="#666666" points="253,-36.12 117,-36.12 117,-5.62 253,-5.62 253,-36.12"/>
<text text-anchor="start" x="125" y="-22.62" font-family="Helvetica,sans-Serif" font-size="10.00">/github/workspace/support</text>
<text text-anchor="middle" x="185" y="-11.38" font-family="Helvetica,sans-Serif" font-size="10.00">/eigexed/fcarouge/linalg.hpp</text>
</a>
</g>
</g>
<!-- Node1&#45;&gt;Node6 -->
<g id="edge8_Node000001_Node000006" class="edge">
<title>Node1&#45;&gt;Node6</title>
<g id="a_edge8_Node000001_Node000006"><a xlink:title=" ">
<path fill="none" stroke="#63b8ff" d="M384.27,-139.28C364.82,-130.43 343.53,-119.77 325,-108.25 306.61,-96.82 305.01,-89.78 287,-77.75 263.66,-62.16 235.59,-47.03 214.82,-36.45"/>
<polygon fill="#63b8ff" stroke="#63b8ff" points="382.62,-142.37 393.18,-143.26 385.47,-135.98 382.62,-142.37"/>
</a>
</g>
</g>
<!-- Node7 -->
<g id="Node000007" class="node">
<title>Node7</title>
<g id="a_Node000007"><a xlink:href="nested__typed__eigen_2fcarouge_2linalg_8hpp.xhtml" target="_top" xlink:title="Scalar type nested linear algebra with Eigen implementation.">
<polygon fill="white" stroke="#666666" points="564.88,-41.75 419.12,-41.75 419.12,0 564.88,0 564.88,-41.75"/>
<text text-anchor="start" x="427.12" y="-28.25" font-family="Helvetica,sans-Serif" font-size="10.00">/github/workspace/support</text>
<text text-anchor="start" x="427.12" y="-17" font-family="Helvetica,sans-Serif" font-size="10.00">/nested_typed_eigen/fcarouge</text>
<text text-anchor="middle" x="492" y="-5.75" font-family="Helvetica,sans-Serif" font-size="10.00">/linalg.hpp</text>
</a>
</g>
</g>
<!-- Node1&#45;&gt;Node7 -->
<g id="edge9_Node000001_Node000007" class="edge">
<title>Node1&#45;&gt;Node7</title>
<g id="a_edge9_Node000001_Node000007"><a xlink:title=" ">
<path fill="none" stroke="#63b8ff" d="M461.89,-133.82C465.95,-125.69 469.98,-116.78 473,-108.25 480.79,-86.25 486.03,-59.93 489,-42.17"/>
<polygon fill="#63b8ff" stroke="#63b8ff" points="458.83,-132.13 457.33,-142.62 465.04,-135.36 458.83,-132.13"/>
</a>
</g>
</g>
<!-- Node8 -->
<g id="Node000008" class="node">
<title>Node8</title>
<g id="a_Node000008"><a xlink:href="unit__eigen_2fcarouge_2linalg_8hpp.xhtml" target="_top" xlink:title="Indexed&#45;based linear algebra with mp&#45;units with Eigen implementations.">
<polygon fill="white" stroke="#666666" points="730.62,-36.12 583.38,-36.12 583.38,-5.62 730.62,-5.62 730.62,-36.12"/>
<text text-anchor="start" x="591.38" y="-22.62" font-family="Helvetica,sans-Serif" font-size="10.00">/github/workspace/support</text>
<text text-anchor="middle" x="657" y="-11.38" font-family="Helvetica,sans-Serif" font-size="10.00">/unit_eigen/fcarouge/linalg.hpp</text>
</a>
</g>
</g>
<!-- Node1&#45;&gt;Node8 -->
<g id="edge10_Node000001_Node000008" class="edge">
<title>Node1&#45;&gt;Node8</title>
<g id="a_edge10_Node000001_Node000008"><a xlink:title=" ">
<path fill="none" stroke="#63b8ff" d="M475.03,-136.22C495.1,-118.32 522.58,-95.26 549,-77.75 573.11,-61.77 602.34,-46.89 624.31,-36.51"/>
<polygon fill="#63b8ff" stroke="#63b8ff" points="472.84,-133.48 467.75,-142.77 477.53,-138.68 472.84,-133.48"/>
</a>
</g>
</g>
<!-- Node9 -->
<g id="Node000009" class="node">
<title>Node9</title>
<g id="a_Node000009"><a xlink:href="unit__std_2fcarouge_2linalg_8hpp.xhtml" target="_top" xlink:title="Indexed&#45;based linear algebra with mp&#45;units with Eigen implementations.">
<polygon fill="white" stroke="#666666" points="695.75,-108.25 558.25,-108.25 558.25,-77.75 695.75,-77.75 695.75,-108.25"/>
<text text-anchor="start" x="566.25" y="-94.75" font-family="Helvetica,sans-Serif" font-size="10.00">/github/workspace/support</text>
<text text-anchor="middle" x="627" y="-83.5" font-family="Helvetica,sans-Serif" font-size="10.00">/unit_std/fcarouge/linalg.hpp</text>
</a>
</g>
</g>
<!-- Node1&#45;&gt;Node9 -->
<g id="edge11_Node000001_Node000009" class="edge">
<title>Node1&#45;&gt;Node9</title>
<g id="a_edge11_Node000001_Node000009"><a xlink:title=" ">
<path fill="none" stroke="#63b8ff" d="M508.14,-139.8C535.05,-129.43 565.56,-117.67 588.93,-108.67"/>
<polygon fill="#63b8ff" stroke="#63b8ff" points="507.13,-136.44 499.05,-143.3 509.64,-142.97 507.13,-136.44"/>
</a>
</g>
</g>
<!-- Node10 -->
<g id="Node000010" class="node">
<title>Node10</title>
<g id="a_Node000010"><a xlink:href="1x2__unit__eigen_8cpp.xhtml" target="_top" xlink:title=" ">
<polygon fill="white" stroke="#666666" points="852.12,-108.25 713.88,-108.25 713.88,-77.75 852.12,-77.75 852.12,-108.25"/>
<text text-anchor="start" x="721.88" y="-94.75" font-family="Helvetica,sans-Serif" font-size="10.00">/github/workspace/test</text>
<text text-anchor="middle" x="783" y="-83.5" font-family="Helvetica,sans-Serif" font-size="10.00">/addition/1x2_unit_eigen.cpp</text>
</a>
</g>
</g>
<!-- Node1&#45;&gt;Node10 -->
<g id="edge12_Node000001_Node000010" class="edge">
<title>Node1&#45;&gt;Node10</title>
<g id="a_edge12_Node000001_Node000010"><a xlink:title=" ">
<path fill="none" stroke="#63b8ff" d="M521.02,-148.35C578.74,-136.38 657.46,-120.05 713.5,-108.42"/>
<polygon fill="#63b8ff" stroke="#63b8ff" points="520.33,-144.92 511.25,-150.38 521.75,-151.78 520.33,-144.92"/>
</a>
</g>
</g>
<!-- Node5 -->
<g id="Node000005" class="node">
<title>Node5</title>
<g id="a_Node000005"><a xlink:href="eigen_2fcarouge_2linalg_8hpp.xhtml" target="_top" xlink:title=" ">
<polygon fill="white" stroke="#666666" points="401.38,-36.12 270.62,-36.12 270.62,-5.62 401.38,-5.62 401.38,-36.12"/>
<text text-anchor="start" x="278.62" y="-22.62" font-family="Helvetica,sans-Serif" font-size="10.00">/github/workspace/support</text>
<text text-anchor="middle" x="336" y="-11.38" font-family="Helvetica,sans-Serif" font-size="10.00">/eigen/fcarouge/linalg.hpp</text>
</a>
</g>
</g>
<!-- Node4&#45;&gt;Node5 -->
<g id="edge4_Node000004_Node000005" class="edge">
<title>Node4&#45;&gt;Node5</title>
<g id="a_edge4_Node000004_Node000005"><a xlink:title=" ">
<path fill="none" stroke="#63b8ff" d="M378.3,-68.96C368.66,-58.23 357.48,-45.78 349.04,-36.39"/>
<polygon fill="#63b8ff" stroke="#63b8ff" points="375.65,-71.24 384.93,-76.34 380.86,-66.57 375.65,-71.24"/>
</a>
</g>
</g>
<!-- Node4&#45;&gt;Node6 -->
<g id="edge5_Node000004_Node000006" class="edge">
<title>Node4&#45;&gt;Node6</title>
<g id="a_edge5_Node000004_Node000006"><a xlink:title=" ">
<path fill="none" stroke="#63b8ff" d="M343.5,-73.81C308.13,-62.22 262.89,-47.4 229.8,-36.56"/>
<polygon fill="#63b8ff" stroke="#63b8ff" points="342.11,-77.04 352.7,-76.83 344.29,-70.39 342.11,-77.04"/>
</a>
</g>
</g>
<!-- Node4&#45;&gt;Node7 -->
<g id="edge6_Node000004_Node000007" class="edge">
<title>Node4&#45;&gt;Node7</title>
<g id="a_edge6_Node000004_Node000007"><a xlink:title=" ">
<path fill="none" stroke="#63b8ff" d="M427.38,-70.6C439.34,-61.58 453.19,-51.14 465,-42.24"/>
<polygon fill="#63b8ff" stroke="#63b8ff" points="425.36,-67.74 419.48,-76.56 429.57,-73.33 425.36,-67.74"/>
</a>
</g>
</g>
<!-- Node4&#45;&gt;Node8 -->
<g id="edge7_Node000004_Node000008" class="edge">
<title>Node4&#45;&gt;Node8</title>
<g id="a_edge7_Node000004_Node000008"><a xlink:title=" ">
<path fill="none" stroke="#63b8ff" d="M463.99,-74.34C506.91,-62.67 562.5,-47.56 602.99,-36.56"/>
<polygon fill="#63b8ff" stroke="#63b8ff" points="463.28,-70.9 454.55,-76.9 465.11,-77.66 463.28,-70.9"/>
</a>
</g>
</g>
</g>
</svg>

<g id="navigator" transform="translate(0 0)" fill="#404254">
  <rect fill="#f2f5e9" fill-opacity="0.5" stroke="#606060" stroke-width=".5" x="0" y="0" width="60" height="60"/>
  <use id="zoomplus" xlink:href="#zoomPlus" x="17" y="9" onmousedown="handleZoom(evt,'in')"/>
  <use id="zoomminus" xlink:href="#zoomMin" x="42" y="9" onmousedown="handleZoom(evt,'out')"/>
  <use id="reset" xlink:href="#resetDef" x="30" y="36" onmousedown="handleReset()"/>
   <use id="arrowup" xlink:href="#arrowUp" x="0" y="0" onmousedown="handlePan(0,-1)"/>
  <use id="arrowright" xlink:href="#arrowRight" x="0" y="0" onmousedown="handlePan(1,0)"/>
  <use id="arrowdown" xlink:href="#arrowDown" x="0" y="0" onmousedown="handlePan(0,1)"/>
  <use id="arrowleft" xlink:href="#arrowLeft" x="0" y="0" onmousedown="handlePan(-1,0)"/>
</g>
<svg viewBox="0 0 15 15" width="100%" height="30px" preserveAspectRatio="xMaxYMin meet">
 <g id="arrow_out" transform="scale(0.3 0.3)">
  <a xlink:href="typed__linear__algebra_8hpp__dep__incl_org.svg" target="_base">
   <rect id="button" ry="5" rx="5" y="6" x="6" height="38" width="38"
        fill="#f2f5e9" fill-opacity="0.5" stroke="#606060" stroke-width="1.0"/>
   <path id="arrow"
     d="M 11.500037,31.436501 C 11.940474,20.09759 22.043105,11.32322 32.158766,21.979434 L 37.068811,17.246167 C 37.068811,17.246167 37.088388,32 37.088388,32 L 22.160133,31.978069 C 22.160133,31.978069 26.997745,27.140456 26.997745,27.140456 C 18.528582,18.264221 13.291696,25.230495 11.500037,31.436501 z"
     style="fill:#404040;"/>
  </a>
 </g>
</svg>

<style type='text/css'>
<![CDATA[
[data-mouse-over-selected='false'] { opacity: 0.7; }
[data-mouse-over-selected='true']  { opacity: 1.0; }
]]>
</style>
<script type="application/ecmascript"><![CDATA[
document.addEventListener('DOMContentLoaded', (event) => {
  highlightEdges();
  highlightAdjacentNodes();
});
]]></script>
</svg>
