<?xml version="1.0" encoding="UTF-8" standalone="no"?>
<!DOCTYPE svg PUBLIC "-//W3C//DTD SVG 1.1//EN"
 "http://www.w3.org/Graphics/SVG/1.1/DTD/svg11.dtd">
<!-- Generated by graphviz version 12.2.0 (20241103.1931)
 -->
<!-- Title: /github/workspace/include/fcarouge/typed_linear_algebra_forward.hpp Pages: 1 -->
<svg width="727pt" height="272pt"
 viewBox="0.00 0.00 727.38 271.75" xmlns="http://www.w3.org/2000/svg" xmlns:xlink="http://www.w3.org/1999/xlink">
<g id="graph0" class="graph" transform="scale(1 1) rotate(0) translate(4 267.75)">
<title>/github/workspace/include/fcarouge/typed_linear_algebra_forward.hpp</title>
<!-- Node1 -->
<g id="Node000001" class="node">
<title>Node1</title>
<g id="a_Node000001"><a xlink:title="Authoritative forward declaration header.">
<polygon fill="#999999" stroke="#666666" points="416.62,-263.75 287.38,-263.75 287.38,-222 416.62,-222 416.62,-263.75"/>
<text text-anchor="start" x="295.38" y="-250.25" font-family="Helvetica,sans-Serif" font-size="10.00">/github/workspace/include</text>
<text text-anchor="start" x="295.38" y="-239" font-family="Helvetica,sans-Serif" font-size="10.00">/fcarouge/typed_linear</text>
<text text-anchor="middle" x="352" y="-227.75" font-family="Helvetica,sans-Serif" font-size="10.00">_algebra_forward.hpp</text>
</a>
</g>
</g>
<!-- Node2 -->
<g id="Node000002" class="node">
<title>Node2</title>
<g id="a_Node000002"><a xlink:href="typed__linear__algebra_8hpp.xhtml" target="_top" xlink:title="Typed linear algebra implementation.">
<polygon fill="white" stroke="#666666" points="416.62,-186 287.38,-186 287.38,-144.25 416.62,-144.25 416.62,-186"/>
<text text-anchor="start" x="295.38" y="-172.5" font-family="Helvetica,sans-Serif" font-size="10.00">/github/workspace/include</text>
<text text-anchor="start" x="295.38" y="-161.25" font-family="Helvetica,sans-Serif" font-size="10.00">/fcarouge/typed_linear</text>
<text text-anchor="middle" x="352" y="-150" font-family="Helvetica,sans-Serif" font-size="10.00">_algebra.hpp</text>
</a>
</g>
</g>
<!-- Node1&#45;&gt;Node2 -->
<g id="edge1_Node000001_Node000002" class="edge">
<title>Node1&#45;&gt;Node2</title>
<g id="a_edge1_Node000001_Node000002"><a xlink:title=" ">
<path fill="none" stroke="#63b8ff" d="M352,-210.25C352,-202.21 352,-193.79 352,-186.48"/>
<polygon fill="#63b8ff" stroke="#63b8ff" points="348.5,-210.06 352,-220.06 355.5,-210.06 348.5,-210.06"/>
</a>
</g>
</g>
<!-- Node3 -->
<g id="Node000003" class="node">
<title>Node3</title>
<g id="a_Node000003"><a xlink:href="mp__units__eigen_8cpp.xhtml" target="_top" xlink:title="Unit safe linear algebra with mp&#45;units and Eigen.">
<polygon fill="white" stroke="#666666" points="130,-108.25 0,-108.25 0,-77.75 130,-77.75 130,-108.25"/>
<text text-anchor="start" x="8" y="-94.75" font-family="Helvetica,sans-Serif" font-size="10.00">/github/workspace/sample</text>
<text text-anchor="middle" x="65" y="-83.5" font-family="Helvetica,sans-Serif" font-size="10.00">/mp_units_eigen.cpp</text>
</a>
</g>
</g>
<!-- Node2&#45;&gt;Node3 -->
<g id="edge2_Node000002_Node000003" class="edge">
<title>Node2&#45;&gt;Node3</title>
<g id="a_edge2_Node000002_Node000003"><a xlink:title=" ">
<path fill="none" stroke="#63b8ff" d="M275.78,-145.5C228.57,-133.97 168.8,-119.36 124.97,-108.65"/>
<polygon fill="#63b8ff" stroke="#63b8ff" points="274.86,-148.88 285.4,-147.85 276.52,-142.08 274.86,-148.88"/>
</a>
</g>
</g>
<!-- Node4 -->
<g id="Node000004" class="node">
<title>Node4</title>
<g id="a_Node000004"><a xlink:href="mp__units__std_8cpp.xhtml" target="_top" xlink:title="Unit safe linear algebra with mp&#45;units and Eigen.">
<polygon fill="white" stroke="#666666" points="278,-108.25 148,-108.25 148,-77.75 278,-77.75 278,-108.25"/>
<text text-anchor="start" x="156" y="-94.75" font-family="Helvetica,sans-Serif" font-size="10.00">/github/workspace/sample</text>
<text text-anchor="middle" x="213" y="-83.5" font-family="Helvetica,sans-Serif" font-size="10.00">/mp_units_std.cpp</text>
</a>
</g>
</g>
<!-- Node2&#45;&gt;Node4 -->
<g id="edge3_Node000002_Node000004" class="edge">
<title>Node2&#45;&gt;Node4</title>
<g id="a_edge3_Node000002_Node000004"><a xlink:title=" ">
<path fill="none" stroke="#63b8ff" d="M301.58,-138.69C281.58,-128.6 259.29,-117.36 242.08,-108.67"/>
<polygon fill="#63b8ff" stroke="#63b8ff" points="299.94,-141.78 310.44,-143.16 303.09,-135.53 299.94,-141.78"/>
</a>
</g>
</g>
<!-- Node5 -->
<g id="Node000005" class="node">
<title>Node5</title>
<g id="a_Node000005"><a xlink:href="eigen_8hpp.xhtml" target="_top" xlink:title="Linear algebra facade for Eigen3 third party implementation.">
<polygon fill="white" stroke="#666666" points="464.38,-108.25 333.62,-108.25 333.62,-77.75 464.38,-77.75 464.38,-108.25"/>
<text text-anchor="start" x="341.62" y="-94.75" font-family="Helvetica,sans-Serif" font-size="10.00">/github/workspace/support</text>
<text text-anchor="middle" x="399" y="-83.5" font-family="Helvetica,sans-Serif" font-size="10.00">/eigen/fcarouge/eigen.hpp</text>
</a>
</g>
</g>
<!-- Node2&#45;&gt;Node5 -->
<g id="edge4_Node000002_Node000005" class="edge">
<title>Node2&#45;&gt;Node5</title>
<g id="a_edge4_Node000002_Node000005"><a xlink:title=" ">
<path fill="none" stroke="#63b8ff" d="M371.92,-134.4C377.94,-125.42 384.28,-115.96 389.31,-108.45"/>
<polygon fill="#63b8ff" stroke="#63b8ff" points="369.1,-132.33 366.44,-142.58 374.91,-136.23 369.1,-132.33"/>
</a>
</g>
</g>
<!-- Node7 -->
<g id="Node000007" class="node">
<title>Node7</title>
<g id="a_Node000007"><a xlink:href="eigexed_2fcarouge_2linalg_8hpp.xhtml" target="_top" xlink:title="Scalar type linear algebra with Eigen implementation.">
<polygon fill="white" stroke="#666666" points="253,-36.12 117,-36.12 117,-5.62 253,-5.62 253,-36.12"/>
<text text-anchor="start" x="125" y="-22.62" font-family="Helvetica,sans-Serif" font-size="10.00">/github/workspace/support</text>
<text text-anchor="middle" x="185" y="-11.38" font-family="Helvetica,sans-Serif" font-size="10.00">/eigexed/fcarouge/linalg.hpp</text>
</a>
</g>
</g>
<!-- Node2&#45;&gt;Node7 -->
<g id="edge9_Node000002_Node000007" class="edge">
<title>Node2&#45;&gt;Node7</title>
<g id="a_edge9_Node000002_Node000007"><a xlink:title=" ">
<path fill="none" stroke="#63b8ff" d="M334.17,-134.31C322.39,-116.37 305.71,-93.94 287,-77.75 267,-60.44 240.76,-46.21 219.9,-36.45"/>
<polygon fill="#63b8ff" stroke="#63b8ff" points="331.21,-136.19 339.54,-142.74 337.12,-132.42 331.21,-136.19"/>
</a>
</g>
</g>
<!-- Node8 -->
<g id="Node000008" class="node">
<title>Node8</title>
<g id="a_Node000008"><a xlink:href="nested__typed__eigen_2fcarouge_2linalg_8hpp.xhtml" target="_top" xlink:title="Scalar type nested linear algebra with Eigen implementation.">
<polygon fill="white" stroke="#666666" points="564.88,-41.75 419.12,-41.75 419.12,0 564.88,0 564.88,-41.75"/>
<text text-anchor="start" x="427.12" y="-28.25" font-family="Helvetica,sans-Serif" font-size="10.00">/github/workspace/support</text>
<text text-anchor="start" x="427.12" y="-17" font-family="Helvetica,sans-Serif" font-size="10.00">/nested_typed_eigen/fcarouge</text>
<text text-anchor="middle" x="492" y="-5.75" font-family="Helvetica,sans-Serif" font-size="10.00">/linalg.hpp</text>
</a>
</g>
</g>
<!-- Node2&#45;&gt;Node8 -->
<g id="edge10_Node000002_Node000008" class="edge">
<title>Node2&#45;&gt;Node8</title>
<g id="a_edge10_Node000002_Node000008"><a xlink:title=" ">
<path fill="none" stroke="#63b8ff" d="M427.01,-142.37C444.28,-134.17 461.06,-123.1 473,-108.25 488.11,-89.47 491.83,-61.23 492.45,-42.21"/>
<polygon fill="#63b8ff" stroke="#63b8ff" points="425.94,-139.02 418.21,-146.26 428.77,-145.42 425.94,-139.02"/>
</a>
</g>
</g>
<!-- Node9 -->
<g id="Node000009" class="node">
<title>Node9</title>
<g id="a_Node000009"><a xlink:href="quantity_2fcarouge_2linalg_8hpp.xhtml" target="_top" xlink:title="Indexed&#45;based linear algebra with mp&#45;units with Eigen implementations.">
<polygon fill="white" stroke="#666666" points="719.38,-36.12 582.62,-36.12 582.62,-5.62 719.38,-5.62 719.38,-36.12"/>
<text text-anchor="start" x="590.62" y="-22.62" font-family="Helvetica,sans-Serif" font-size="10.00">/github/workspace/support</text>
<text text-anchor="middle" x="651" y="-11.38" font-family="Helvetica,sans-Serif" font-size="10.00">/quantity/fcarouge/linalg.hpp</text>
</a>
</g>
</g>
<!-- Node2&#45;&gt;Node9 -->
<g id="edge11_Node000002_Node000009" class="edge">
<title>Node2&#45;&gt;Node9</title>
<g id="a_edge11_Node000002_Node000009"><a xlink:title=" ">
<path fill="none" stroke="#63b8ff" d="M418.77,-139.88C442.78,-130.63 469.87,-119.58 494,-108.25 542.3,-85.58 596.34,-54.52 626.76,-36.48"/>
<polygon fill="#63b8ff" stroke="#63b8ff" points="417.85,-136.48 409.75,-143.32 420.34,-143.02 417.85,-136.48"/>
</a>
</g>
</g>
<!-- Node6 -->
<g id="Node000006" class="node">
<title>Node6</title>
<g id="a_Node000006"><a xlink:href="eigen_2fcarouge_2linalg_8hpp.xhtml" target="_top" xlink:title=" ">
<polygon fill="white" stroke="#666666" points="401.38,-36.12 270.62,-36.12 270.62,-5.62 401.38,-5.62 401.38,-36.12"/>
<text text-anchor="start" x="278.62" y="-22.62" font-family="Helvetica,sans-Serif" font-size="10.00">/github/workspace/support</text>
<text text-anchor="middle" x="336" y="-11.38" font-family="Helvetica,sans-Serif" font-size="10.00">/eigen/fcarouge/linalg.hpp</text>
</a>
</g>
</g>
<!-- Node5&#45;&gt;Node6 -->
<g id="edge5_Node000005_Node000006" class="edge">
<title>Node5&#45;&gt;Node6</title>
<g id="a_edge5_Node000005_Node000006"><a xlink:title=" ">
<path fill="none" stroke="#63b8ff" d="M378.3,-68.96C368.66,-58.23 357.48,-45.78 349.04,-36.39"/>
<polygon fill="#63b8ff" stroke="#63b8ff" points="375.65,-71.24 384.93,-76.34 380.86,-66.57 375.65,-71.24"/>
</a>
</g>
</g>
<!-- Node5&#45;&gt;Node7 -->
<g id="edge6_Node000005_Node000007" class="edge">
<title>Node5&#45;&gt;Node7</title>
<g id="a_edge6_Node000005_Node000007"><a xlink:title=" ">
<path fill="none" stroke="#63b8ff" d="M343.5,-73.81C308.13,-62.22 262.89,-47.4 229.8,-36.56"/>
<polygon fill="#63b8ff" stroke="#63b8ff" points="342.11,-77.04 352.7,-76.83 344.29,-70.39 342.11,-77.04"/>
</a>
</g>
</g>
<!-- Node5&#45;&gt;Node8 -->
<g id="edge7_Node000005_Node000008" class="edge">
<title>Node5&#45;&gt;Node8</title>
<g id="a_edge7_Node000005_Node000008"><a xlink:title=" ">
<path fill="none" stroke="#63b8ff" d="M427.38,-70.6C439.34,-61.58 453.19,-51.14 465,-42.24"/>
<polygon fill="#63b8ff" stroke="#63b8ff" points="425.36,-67.74 419.48,-76.56 429.57,-73.33 425.36,-67.74"/>
</a>
</g>
</g>
<!-- Node5&#45;&gt;Node9 -->
<g id="edge8_Node000005_Node000009" class="edge">
<title>Node5&#45;&gt;Node9</title>
<g id="a_edge8_Node000005_Node000009"><a xlink:title=" ">
<path fill="none" stroke="#63b8ff" d="M462.74,-74.26C504.63,-62.61 558.78,-47.54 598.24,-36.56"/>
<polygon fill="#63b8ff" stroke="#63b8ff" points="461.98,-70.84 453.29,-76.89 463.86,-77.58 461.98,-70.84"/>
</a>
</g>
</g>
</g>
</svg>
