<?xml version="1.0" encoding="UTF-8" standalone="no"?>
<!DOCTYPE svg PUBLIC "-//W3C//DTD SVG 1.1//EN"
 "http://www.w3.org/Graphics/SVG/1.1/DTD/svg11.dtd">
<!-- Generated by graphviz version 12.2.0 (20241103.1931)
 -->
<!-- Title: /github/workspace/benchmark/typed_mdspan_product.cpp Pages: 1 -->
<!--zoomable 305 -->

<svg id="main" version="1.1" xmlns="http://www.w3.org/2000/svg" xmlns:xlink="http://www.w3.org/1999/xlink" xml:space="preserve" onload="init(evt)">

<style type="text/css"><![CDATA[
.node, .edge {opacity: 0.7;}
.node.selected, .edge.selected {opacity: 1;}
.edge:hover path { stroke: red; }
.edge:hover polygon { stroke: red; fill: red; }
]]></style>

<defs>
  <circle id="rim" cx="0" cy="0" r="7"/>
  <circle id="rim2" cx="0" cy="0" r="3.5"/>
  <g id="zoomPlus">
    <use xlink:href="#rim" fill="#404040"><set attributeName="fill" to="#808080" begin="zoomplus.mouseover" end="zoomplus.mouseout"/></use>
    <path d="M-4,0h8M0,-4v8" fill="none" stroke="white" stroke-width="1.5" pointer-events="none"/>
  </g>
  <g id="zoomMin">
    <use xlink:href="#rim" fill="#404040"><set attributeName="fill" to="#808080" begin="zoomminus.mouseover" end="zoomminus.mouseout"/></use>
    <path d="M-4,0h8" fill="none" stroke="white" stroke-width="1.5" pointer-events="none"/>
  </g>
  <g id="arrowUp" transform="translate(30 24)">
    <use xlink:href="#rim"/>
    <path pointer-events="none" fill="none" stroke="white" stroke-width="1.5" d="M0,-3.0v7 M-2.5,-0.5L0,-3.0L2.5,-0.5"/>
  </g>
  <g id="arrowRight" transform="rotate(90) translate(36 -43)">
    <use xlink:href="#rim"/>
    <path pointer-events="none" fill="none" stroke="white" stroke-width="1.5" d="M0,-3.0v7 M-2.5,-0.5L0,-3.0L2.5,-0.5"/>
  </g>
  <g id="arrowDown" transform="rotate(180) translate(-30 -48)">
    <use xlink:href="#rim"/>
    <path pointer-events="none" fill="none" stroke="white" stroke-width="1.5" d="M0,-3.0v7 M-2.5,-0.5L0,-3.0L2.5,-0.5"/>
  </g>
  <g id="arrowLeft" transform="rotate(270) translate(-36 17)">
    <use xlink:href="#rim"/>
    <path pointer-events="none" fill="none" stroke="white" stroke-width="1.5" d="M0,-3.0v7 M-2.5,-0.5L0,-3.0L2.5,-0.5"/>
  </g>
  <g id="resetDef">
    <use xlink:href="#rim2" fill="#404040"><set attributeName="fill" to="#808080" begin="reset.mouseover" end="reset.mouseout"/></use>
  </g>
</defs>
<script type="application/ecmascript">
var viewWidth = 2171;
var viewHeight = 305;
var sectionId = 'dynsection-0';
</script>
<script type="application/ecmascript" xlink:href="svg.min.js"/>
<svg id="graph" class="graph">
<g id="viewport">
<title>/github/workspace/benchmark/typed_mdspan_product.cpp</title>
<!-- Node1 -->
<g id="Node000001" class="node">
<title>Node1</title>
<g id="a_Node000001"><a xlink:title=" ">
<polygon fill="#999999" stroke="#666666" points="1208.06,-296.5 1061.56,-296.5 1061.56,-266 1208.06,-266 1208.06,-296.5"/>
<text text-anchor="start" x="1069.56" y="-283" font-family="Helvetica,sans-Serif" font-size="10.00">/github/workspace/benchmark</text>
<text text-anchor="middle" x="1134.81" y="-271.75" font-family="Helvetica,sans-Serif" font-size="10.00">/typed_mdspan_product.cpp</text>
</a>
</g>
</g>
<!-- Node2 -->
<g id="Node000002" class="node">
<title>Node2</title>
<g id="a_Node000002"><a xlink:href="typed__linear__algebra_8hpp.xhtml" target="_top" xlink:title="Typed linear algebra implementation.">
<polygon fill="white" stroke="#666666" points="971.94,-230 863.69,-230 863.69,-199.5 971.94,-199.5 971.94,-230"/>
<text text-anchor="start" x="871.69" y="-216.5" font-family="Helvetica,sans-Serif" font-size="10.00">fcarouge/typed_linear</text>
<text text-anchor="middle" x="917.81" y="-205.25" font-family="Helvetica,sans-Serif" font-size="10.00">_algebra.hpp</text>
</a>
</g>
</g>
<!-- Node1&#45;&gt;Node2 -->
<g id="edge1_Node000001_Node000002" class="edge">
<title>Node1&#45;&gt;Node2</title>
<g id="a_edge1_Node000001_Node000002"><a xlink:title=" ">
<path fill="none" stroke="#63b8ff" d="M1085.3,-265.53C1053.36,-256.04 1011.61,-243.63 977.79,-233.58"/>
<polygon fill="#63b8ff" stroke="#63b8ff" points="979.15,-230.33 968.56,-230.83 977.15,-237.04 979.15,-230.33"/>
</a>
</g>
</g>
<!-- Node7 -->
<g id="Node000007" class="node">
<title>Node7</title>
<g id="a_Node000007"><a xlink:title=" ">
<polygon fill="#e0e0e0" stroke="#999999" points="77.94,-24.88 29.69,-24.88 29.69,-5.63 77.94,-5.63 77.94,-24.88"/>
<text text-anchor="middle" x="53.81" y="-11.38" font-family="Helvetica,sans-Serif" font-size="10.00">cstddef</text>
</a>
</g>
</g>
<!-- Node1&#45;&gt;Node7 -->
<g id="edge32_Node000001_Node000007" class="edge">
<title>Node1&#45;&gt;Node7</title>
<g id="a_edge32_Node000001_Node000007"><a xlink:title=" ">
<path fill="none" stroke="#63b8ff" d="M1061.41,-278.65C845.4,-273.66 221.58,-257.05 133.81,-230 79.58,-213.28 57.46,-209.92 24.81,-163.5 -0.32,-127.76 -6.79,-107.31 8.81,-66.5 13.82,-53.4 23.99,-41.56 33.39,-32.67"/>
<polygon fill="#63b8ff" stroke="#63b8ff" points="35.66,-35.34 40.85,-26.11 31.03,-30.09 35.66,-35.34"/>
</a>
</g>
</g>
<!-- Node11 -->
<g id="Node000011" class="node">
<title>Node11</title>
<g id="a_Node000011"><a xlink:title=" ">
<polygon fill="#e0e0e0" stroke="#999999" points="70.69,-85.75 26.94,-85.75 26.94,-66.5 70.69,-66.5 70.69,-85.75"/>
<text text-anchor="middle" x="48.81" y="-72.25" font-family="Helvetica,sans-Serif" font-size="10.00">format</text>
</a>
</g>
</g>
<!-- Node1&#45;&gt;Node11 -->
<g id="edge33_Node000001_Node000011" class="edge">
<title>Node1&#45;&gt;Node11</title>
<g id="a_edge33_Node000001_Node000011"><a xlink:title=" ">
<path fill="none" stroke="#63b8ff" d="M1061.45,-278.01C826.87,-270.08 106.33,-239.69 37.81,-163.5 21.5,-145.36 30.13,-115.75 38.74,-96.36"/>
<polygon fill="#63b8ff" stroke="#63b8ff" points="41.87,-97.92 43.08,-87.39 35.57,-94.87 41.87,-97.92"/>
</a>
</g>
</g>
<!-- Node25 -->
<g id="Node000025" class="node">
<title>Node25</title>
<g id="a_Node000025"><a xlink:title=" ">
<polygon fill="#e0e0e0" stroke="#999999" points="1061.19,-224.38 990.44,-224.38 990.44,-205.12 1061.19,-205.12 1061.19,-224.38"/>
<text text-anchor="middle" x="1025.81" y="-210.88" font-family="Helvetica,sans-Serif" font-size="10.00">nanobench.h</text>
</a>
</g>
</g>
<!-- Node1&#45;&gt;Node25 -->
<g id="edge31_Node000001_Node000025" class="edge">
<title>Node1&#45;&gt;Node25</title>
<g id="a_edge31_Node000001_Node000025"><a xlink:title=" ">
<path fill="none" stroke="#63b8ff" d="M1110.08,-265.61C1092.33,-255.11 1068.51,-241.02 1050.72,-230.49"/>
<polygon fill="#63b8ff" stroke="#63b8ff" points="1052.73,-227.61 1042.34,-225.53 1049.16,-233.64 1052.73,-227.61"/>
</a>
</g>
</g>
<!-- Node26 -->
<g id="Node000026" class="node">
<title>Node26</title>
<g id="a_Node000026"><a xlink:title=" ">
<polygon fill="#e0e0e0" stroke="#999999" points="1128.31,-224.38 1079.31,-224.38 1079.31,-205.12 1128.31,-205.12 1128.31,-224.38"/>
<text text-anchor="middle" x="1103.81" y="-210.88" font-family="Helvetica,sans-Serif" font-size="10.00">fstream</text>
</a>
</g>
</g>
<!-- Node1&#45;&gt;Node26 -->
<g id="edge34_Node000001_Node000026" class="edge">
<title>Node1&#45;&gt;Node26</title>
<g id="a_edge34_Node000001_Node000026"><a xlink:title=" ">
<path fill="none" stroke="#63b8ff" d="M1127.78,-265.61C1123.41,-256.53 1117.76,-244.76 1113.03,-234.93"/>
<polygon fill="#63b8ff" stroke="#63b8ff" points="1116.2,-233.43 1108.71,-225.94 1109.89,-236.47 1116.2,-233.43"/>
</a>
</g>
</g>
<!-- Node27 -->
<g id="Node000027" class="node">
<title>Node27</title>
<g id="a_Node000027"><a xlink:title=" ">
<polygon fill="#e0e0e0" stroke="#999999" points="1185.06,-224.38 1146.56,-224.38 1146.56,-205.12 1185.06,-205.12 1185.06,-224.38"/>
<text text-anchor="middle" x="1165.81" y="-210.88" font-family="Helvetica,sans-Serif" font-size="10.00">linalg</text>
</a>
</g>
</g>
<!-- Node1&#45;&gt;Node27 -->
<g id="edge35_Node000001_Node000027" class="edge">
<title>Node1&#45;&gt;Node27</title>
<g id="a_edge35_Node000001_Node000027"><a xlink:title=" ">
<path fill="none" stroke="#63b8ff" d="M1141.85,-265.61C1146.21,-256.53 1151.87,-244.76 1156.59,-234.93"/>
<polygon fill="#63b8ff" stroke="#63b8ff" points="1159.74,-236.47 1160.92,-225.94 1153.43,-233.43 1159.74,-236.47"/>
</a>
</g>
</g>
<!-- Node28 -->
<g id="Node000028" class="node">
<title>Node28</title>
<g id="a_Node000028"><a xlink:title=" ">
<polygon fill="#e0e0e0" stroke="#999999" points="1254.06,-224.38 1203.56,-224.38 1203.56,-205.12 1254.06,-205.12 1254.06,-224.38"/>
<text text-anchor="middle" x="1228.81" y="-210.88" font-family="Helvetica,sans-Serif" font-size="10.00">mdspan</text>
</a>
</g>
</g>
<!-- Node1&#45;&gt;Node28 -->
<g id="edge36_Node000001_Node000028" class="edge">
<title>Node1&#45;&gt;Node28</title>
<g id="a_edge36_Node000001_Node000028"><a xlink:title=" ">
<path fill="none" stroke="#63b8ff" d="M1156.14,-265.61C1171.16,-255.31 1191.23,-241.54 1206.47,-231.08"/>
<polygon fill="#63b8ff" stroke="#63b8ff" points="1208.17,-234.16 1214.43,-225.62 1204.21,-228.39 1208.17,-234.16"/>
</a>
</g>
</g>
<!-- Node29 -->
<g id="Node000029" class="node">
<title>Node29</title>
<g id="a_Node000029"><a xlink:title=" ">
<polygon fill="#e0e0e0" stroke="#999999" points="1319.94,-224.38 1271.69,-224.38 1271.69,-205.12 1319.94,-205.12 1319.94,-224.38"/>
<text text-anchor="middle" x="1295.81" y="-210.88" font-family="Helvetica,sans-Serif" font-size="10.00">random</text>
</a>
</g>
</g>
<!-- Node1&#45;&gt;Node29 -->
<g id="edge37_Node000001_Node000029" class="edge">
<title>Node1&#45;&gt;Node29</title>
<g id="a_edge37_Node000001_Node000029"><a xlink:title=" ">
<path fill="none" stroke="#63b8ff" d="M1173.31,-265.52C1198.8,-255.68 1232.9,-242.32 1262.81,-230 1263.44,-229.74 1264.08,-229.48 1264.72,-229.21"/>
<polygon fill="#63b8ff" stroke="#63b8ff" points="1266.02,-232.46 1273.87,-225.34 1263.29,-226.01 1266.02,-232.46"/>
</a>
</g>
</g>
<!-- Node30 -->
<g id="Node000030" class="node">
<title>Node30</title>
<g id="a_Node000030"><a xlink:title=" ">
<polygon fill="#e0e0e0" stroke="#999999" points="1377.81,-224.38 1337.81,-224.38 1337.81,-205.12 1377.81,-205.12 1377.81,-224.38"/>
<text text-anchor="middle" x="1357.81" y="-210.88" font-family="Helvetica,sans-Serif" font-size="10.00">string</text>
</a>
</g>
</g>
<!-- Node1&#45;&gt;Node30 -->
<g id="edge38_Node000001_Node000030" class="edge">
<title>Node1&#45;&gt;Node30</title>
<g id="a_edge38_Node000001_Node000030"><a xlink:title=" ">
<path fill="none" stroke="#63b8ff" d="M1205.46,-265.6C1242.71,-256.96 1288.85,-244.82 1328.81,-230 1329.44,-229.77 1330.07,-229.53 1330.7,-229.28"/>
<polygon fill="#63b8ff" stroke="#63b8ff" points="1331.77,-232.63 1339.51,-225.39 1328.95,-226.23 1331.77,-232.63"/>
</a>
</g>
</g>
<!-- Node31 -->
<g id="Node000031" class="node">
<title>Node31</title>
<g id="a_Node000031"><a xlink:title=" ">
<polygon fill="#e0e0e0" stroke="#999999" points="1439.31,-224.38 1396.31,-224.38 1396.31,-205.12 1439.31,-205.12 1439.31,-224.38"/>
<text text-anchor="middle" x="1417.81" y="-210.88" font-family="Helvetica,sans-Serif" font-size="10.00">vector</text>
</a>
</g>
</g>
<!-- Node1&#45;&gt;Node31 -->
<g id="edge39_Node000001_Node000031" class="edge">
<title>Node1&#45;&gt;Node31</title>
<g id="a_edge39_Node000001_Node000031"><a xlink:title=" ">
<path fill="none" stroke="#63b8ff" d="M1208.48,-270.22C1259.35,-262.17 1328.15,-249.04 1386.81,-230 1387.77,-229.69 1388.74,-229.35 1389.72,-229"/>
<polygon fill="#63b8ff" stroke="#63b8ff" points="1390.74,-232.37 1398.67,-225.34 1388.08,-225.89 1390.74,-232.37"/>
</a>
</g>
</g>
<!-- Node3 -->
<g id="Node000003" class="node">
<title>Node3</title>
<g id="a_Node000003"><a xlink:href="typed__linear__algebra__forward_8hpp.xhtml" target="_top" xlink:title="Authoritative forward declaration header.">
<polygon fill="white" stroke="#666666" points="2089.06,-30.5 1984.56,-30.5 1984.56,0 2089.06,0 2089.06,-30.5"/>
<text text-anchor="start" x="1992.56" y="-17" font-family="Helvetica,sans-Serif" font-size="10.00">typed_linear_algebra</text>
<text text-anchor="middle" x="2036.81" y="-5.75" font-family="Helvetica,sans-Serif" font-size="10.00">_forward.hpp</text>
</a>
</g>
</g>
<!-- Node2&#45;&gt;Node3 -->
<g id="edge2_Node000002_Node000003" class="edge">
<title>Node2&#45;&gt;Node3</title>
<g id="a_edge2_Node000002_Node000003"><a xlink:title=" ">
<path fill="none" stroke="#63b8ff" d="M972.16,-200.94C975.42,-200.39 978.65,-199.9 981.81,-199.5 1037.78,-192.34 1952.6,-198.56 1996.81,-163.5 2033.23,-134.62 2038.52,-76.16 2038.24,-42.23"/>
<polygon fill="#63b8ff" stroke="#63b8ff" points="2041.75,-42.36 2037.97,-32.45 2034.75,-42.55 2041.75,-42.36"/>
</a>
</g>
</g>
<!-- Node4 -->
<g id="Node000004" class="node">
<title>Node4</title>
<g id="a_Node000004"><a xlink:href="format_8hpp.xhtml" target="_top" xlink:title="Formatting support for the typed matrix.">
<polygon fill="white" stroke="#666666" points="169.06,-157.88 64.56,-157.88 64.56,-127.38 169.06,-127.38 169.06,-157.88"/>
<text text-anchor="start" x="72.56" y="-144.38" font-family="Helvetica,sans-Serif" font-size="10.00">typed_linear_algebra</text>
<text text-anchor="middle" x="116.81" y="-133.12" font-family="Helvetica,sans-Serif" font-size="10.00">_internal/format.hpp</text>
</a>
</g>
</g>
<!-- Node2&#45;&gt;Node4 -->
<g id="edge3_Node000002_Node000004" class="edge">
<title>Node2&#45;&gt;Node4</title>
<g id="a_edge3_Node000002_Node000004"><a xlink:title=" ">
<path fill="none" stroke="#63b8ff" d="M863.39,-211.8C715.63,-206.23 309.29,-188.97 177.81,-163.5 174.63,-162.88 171.39,-162.15 168.14,-161.34"/>
<polygon fill="#63b8ff" stroke="#63b8ff" points="169.16,-157.99 158.59,-158.71 167.3,-164.74 169.16,-157.99"/>
</a>
</g>
</g>
<!-- Node5 -->
<g id="Node000005" class="node">
<title>Node5</title>
<g id="a_Node000005"><a xlink:href="utility_8hpp.xhtml" target="_top" xlink:title=" ">
<polygon fill="white" stroke="#666666" points="1955.06,-85.75 1898.56,-85.75 1898.56,-66.5 1955.06,-66.5 1955.06,-85.75"/>
<text text-anchor="middle" x="1926.81" y="-72.25" font-family="Helvetica,sans-Serif" font-size="10.00">utility.hpp</text>
</a>
</g>
</g>
<!-- Node2&#45;&gt;Node5 -->
<g id="edge13_Node000002_Node000005" class="edge">
<title>Node2&#45;&gt;Node5</title>
<g id="a_edge13_Node000002_Node000005"><a xlink:title=" ">
<path fill="none" stroke="#63b8ff" d="M972.16,-200.94C975.42,-200.4 978.65,-199.91 981.81,-199.5 1035.57,-192.58 1919.2,-202.53 1956.81,-163.5 1975,-144.63 1957.25,-114.17 1942.35,-94.92"/>
<polygon fill="#63b8ff" stroke="#63b8ff" points="1945.24,-92.92 1936.19,-87.41 1939.82,-97.36 1945.24,-92.92"/>
</a>
</g>
</g>
<!-- Node6 -->
<g id="Node000006" class="node">
<title>Node6</title>
<g id="a_Node000006"><a xlink:title=" ">
<polygon fill="#e0e0e0" stroke="#999999" points="2162.69,-24.88 2106.94,-24.88 2106.94,-5.63 2162.69,-5.63 2162.69,-24.88"/>
<text text-anchor="middle" x="2134.81" y="-11.38" font-family="Helvetica,sans-Serif" font-size="10.00">concepts</text>
</a>
</g>
</g>
<!-- Node2&#45;&gt;Node6 -->
<g id="edge14_Node000002_Node000006" class="edge">
<title>Node2&#45;&gt;Node6</title>
<g id="a_edge14_Node000002_Node000006"><a xlink:title=" ">
<path fill="none" stroke="#63b8ff" d="M972.16,-200.93C975.42,-200.39 978.65,-199.9 981.81,-199.5 1096.84,-184.84 1922.06,-217.24 2024.81,-163.5 2078.2,-135.58 2112.67,-68.74 2127.09,-35.58"/>
<polygon fill="#63b8ff" stroke="#63b8ff" points="2130.29,-37 2130.91,-26.42 2123.83,-34.31 2130.29,-37"/>
</a>
</g>
</g>
<!-- Node2&#45;&gt;Node7 -->
<g id="edge15_Node000002_Node000007" class="edge">
<title>Node2&#45;&gt;Node7</title>
<g id="a_edge15_Node000002_Node000007"><a xlink:title=" ">
<path fill="none" stroke="#63b8ff" d="M863.49,-214.31C681.55,-215.67 101.5,-215.85 37.81,-163.5 3.81,-135.55 4.35,-108.41 17.81,-66.5 21.71,-54.37 29.74,-42.68 37.23,-33.63"/>
<polygon fill="#63b8ff" stroke="#63b8ff" points="39.63,-36.2 43.63,-26.39 34.39,-31.56 39.63,-36.2"/>
</a>
</g>
</g>
<!-- Node9 -->
<g id="Node000009" class="node">
<title>Node9</title>
<g id="a_Node000009"><a xlink:title=" ">
<polygon fill="#e0e0e0" stroke="#999999" points="1966.31,-24.88 1929.31,-24.88 1929.31,-5.63 1966.31,-5.63 1966.31,-24.88"/>
<text text-anchor="middle" x="1947.81" y="-11.38" font-family="Helvetica,sans-Serif" font-size="10.00">tuple</text>
</a>
</g>
</g>
<!-- Node2&#45;&gt;Node9 -->
<g id="edge18_Node000002_Node000009" class="edge">
<title>Node2&#45;&gt;Node9</title>
<g id="a_edge18_Node000002_Node000009"><a xlink:title=" ">
<path fill="none" stroke="#63b8ff" d="M972.16,-200.94C975.42,-200.39 978.65,-199.91 981.81,-199.5 1036.57,-192.47 1936.49,-203.24 1974.81,-163.5 2008.54,-128.52 1978.61,-66.1 1960.01,-34.97"/>
<polygon fill="#63b8ff" stroke="#63b8ff" points="1963.08,-33.29 1954.82,-26.65 1957.14,-36.99 1963.08,-33.29"/>
</a>
</g>
</g>
<!-- Node2&#45;&gt;Node11 -->
<g id="edge16_Node000002_Node000011" class="edge">
<title>Node2&#45;&gt;Node11</title>
<g id="a_edge16_Node000002_Node000011"><a xlink:title=" ">
<path fill="none" stroke="#63b8ff" d="M863.37,-212.53C678.53,-208.12 84.75,-191.79 55.81,-163.5 38.52,-146.6 40.18,-116.87 43.81,-97.09"/>
<polygon fill="#63b8ff" stroke="#63b8ff" points="47.2,-98 45.92,-87.49 40.36,-96.5 47.2,-98"/>
</a>
</g>
</g>
<!-- Node12 -->
<g id="Node000012" class="node">
<title>Node12</title>
<g id="a_Node000012"><a xlink:title=" ">
<polygon fill="#e0e0e0" stroke="#999999" points="258.56,-152.25 187.06,-152.25 187.06,-133 258.56,-133 258.56,-152.25"/>
<text text-anchor="middle" x="222.81" y="-138.75" font-family="Helvetica,sans-Serif" font-size="10.00">initializer_list</text>
</a>
</g>
</g>
<!-- Node2&#45;&gt;Node12 -->
<g id="edge17_Node000002_Node000012" class="edge">
<title>Node2&#45;&gt;Node12</title>
<g id="a_edge17_Node000002_Node000012"><a xlink:title=" ">
<path fill="none" stroke="#63b8ff" d="M863.6,-211.91C728.6,-206.97 380.18,-191.78 267.81,-163.5 261.7,-161.96 255.38,-159.66 249.47,-157.16"/>
<polygon fill="#63b8ff" stroke="#63b8ff" points="251.35,-154.17 240.8,-153.21 248.45,-160.54 251.35,-154.17"/>
</a>
</g>
</g>
<!-- Node13 -->
<g id="Node000013" class="node">
<title>Node13</title>
<g id="a_Node000013"><a xlink:title=" ">
<polygon fill="#e0e0e0" stroke="#999999" points="315.06,-152.25 276.56,-152.25 276.56,-133 315.06,-133 315.06,-152.25"/>
<text text-anchor="middle" x="295.81" y="-138.75" font-family="Helvetica,sans-Serif" font-size="10.00">utility</text>
</a>
</g>
</g>
<!-- Node2&#45;&gt;Node13 -->
<g id="edge19_Node000002_Node000013" class="edge">
<title>Node2&#45;&gt;Node13</title>
<g id="a_edge19_Node000002_Node000013"><a xlink:title=" ">
<path fill="none" stroke="#63b8ff" d="M863.25,-212.79C735.84,-209.97 422.1,-199.47 323.81,-163.5 320.82,-162.4 317.86,-160.9 315.04,-159.2"/>
<polygon fill="#63b8ff" stroke="#63b8ff" points="317.12,-156.39 306.93,-153.49 313.09,-162.11 317.12,-156.39"/>
</a>
</g>
</g>
<!-- Node14 -->
<g id="Node000014" class="node">
<title>Node14</title>
<g id="a_Node000014"><a xlink:title=" ">
<polygon fill="#e0e0e0" stroke="#999999" points="462.81,-157.88 332.81,-157.88 332.81,-127.38 462.81,-127.38 462.81,-157.88"/>
<text text-anchor="start" x="340.81" y="-144.38" font-family="Helvetica,sans-Serif" font-size="10.00">typed_linear_algebra</text>
<text text-anchor="middle" x="397.81" y="-133.12" font-family="Helvetica,sans-Serif" font-size="10.00">_internal/algorithm/add.tpp</text>
</a>
</g>
</g>
<!-- Node2&#45;&gt;Node14 -->
<g id="edge20_Node000002_Node000014" class="edge">
<title>Node2&#45;&gt;Node14</title>
<g id="a_edge20_Node000002_Node000014"><a xlink:title=" ">
<path fill="none" stroke="#63b8ff" d="M863.53,-210.27C779.16,-204.28 611.72,-190.01 471.81,-163.5 467.79,-162.74 463.66,-161.87 459.51,-160.93"/>
<polygon fill="#63b8ff" stroke="#63b8ff" points="460.55,-157.58 450.01,-158.67 458.93,-164.39 460.55,-157.58"/>
</a>
</g>
</g>
<!-- Node15 -->
<g id="Node000015" class="node">
<title>Node15</title>
<g id="a_Node000015"><a xlink:title=" ">
<polygon fill="#e0e0e0" stroke="#999999" points="620.69,-157.88 480.94,-157.88 480.94,-127.38 620.69,-127.38 620.69,-157.88"/>
<text text-anchor="start" x="488.94" y="-144.38" font-family="Helvetica,sans-Serif" font-size="10.00">typed_linear_algebra</text>
<text text-anchor="middle" x="550.81" y="-133.12" font-family="Helvetica,sans-Serif" font-size="10.00">_internal/algorithm/divide.tpp</text>
</a>
</g>
</g>
<!-- Node2&#45;&gt;Node15 -->
<g id="edge21_Node000002_Node000015" class="edge">
<title>Node2&#45;&gt;Node15</title>
<g id="a_edge21_Node000002_Node000015"><a xlink:title=" ">
<path fill="none" stroke="#63b8ff" d="M863.44,-205.49C805.36,-196.38 710.73,-180.71 629.81,-163.5 626.03,-162.7 622.16,-161.84 618.26,-160.94"/>
<polygon fill="#63b8ff" stroke="#63b8ff" points="619.24,-157.58 608.7,-158.7 617.64,-164.39 619.24,-157.58"/>
</a>
</g>
</g>
<!-- Node16 -->
<g id="Node000016" class="node">
<title>Node16</title>
<g id="a_Node000016"><a xlink:title=" ">
<polygon fill="#e0e0e0" stroke="#999999" points="760.69,-163.5 638.94,-163.5 638.94,-121.75 760.69,-121.75 760.69,-163.5"/>
<text text-anchor="start" x="646.94" y="-150" font-family="Helvetica,sans-Serif" font-size="10.00">typed_linear_algebra</text>
<text text-anchor="start" x="646.94" y="-138.75" font-family="Helvetica,sans-Serif" font-size="10.00">_internal/algorithm/equal</text>
<text text-anchor="middle" x="699.81" y="-127.5" font-family="Helvetica,sans-Serif" font-size="10.00">_to.tpp</text>
</a>
</g>
</g>
<!-- Node2&#45;&gt;Node16 -->
<g id="edge22_Node000002_Node000016" class="edge">
<title>Node2&#45;&gt;Node16</title>
<g id="a_edge22_Node000002_Node000016"><a xlink:title=" ">
<path fill="none" stroke="#63b8ff" d="M872.11,-199.05C843.05,-189.7 804.79,-177.39 771.71,-166.75"/>
<polygon fill="#63b8ff" stroke="#63b8ff" points="773.2,-163.56 762.61,-163.83 771.06,-170.22 773.2,-163.56"/>
</a>
</g>
</g>
<!-- Node17 -->
<g id="Node000017" class="node">
<title>Node17</title>
<g id="a_Node000017"><a xlink:title=" ">
<polygon fill="#e0e0e0" stroke="#999999" points="903.19,-163.5 778.44,-163.5 778.44,-121.75 903.19,-121.75 903.19,-163.5"/>
<text text-anchor="start" x="786.44" y="-150" font-family="Helvetica,sans-Serif" font-size="10.00">typed_linear_algebra</text>
<text text-anchor="start" x="786.44" y="-138.75" font-family="Helvetica,sans-Serif" font-size="10.00">_internal/algorithm/matrix</text>
<text text-anchor="middle" x="840.81" y="-127.5" font-family="Helvetica,sans-Serif" font-size="10.00">_product.tpp</text>
</a>
</g>
</g>
<!-- Node2&#45;&gt;Node17 -->
<g id="edge23_Node000002_Node000017" class="edge">
<title>Node2&#45;&gt;Node17</title>
<g id="a_edge23_Node000002_Node000017"><a xlink:title=" ">
<path fill="none" stroke="#63b8ff" d="M901.86,-199.22C893.12,-191.26 881.98,-181.12 871.62,-171.68"/>
<polygon fill="#63b8ff" stroke="#63b8ff" points="874.04,-169.15 864.29,-165.01 869.33,-174.33 874.04,-169.15"/>
</a>
</g>
</g>
<!-- Node18 -->
<g id="Node000018" class="node">
<title>Node18</title>
<g id="a_Node000018"><a xlink:title=" ">
<polygon fill="#e0e0e0" stroke="#999999" points="1068.06,-157.88 921.56,-157.88 921.56,-127.38 1068.06,-127.38 1068.06,-157.88"/>
<text text-anchor="start" x="929.56" y="-144.38" font-family="Helvetica,sans-Serif" font-size="10.00">typed_linear_algebra</text>
<text text-anchor="middle" x="994.81" y="-133.12" font-family="Helvetica,sans-Serif" font-size="10.00">_internal/algorithm/product.tpp</text>
</a>
</g>
</g>
<!-- Node2&#45;&gt;Node18 -->
<g id="edge24_Node000002_Node000018" class="edge">
<title>Node2&#45;&gt;Node18</title>
<g id="a_edge24_Node000002_Node000018"><a xlink:title=" ">
<path fill="none" stroke="#63b8ff" d="M933.77,-199.22C944.4,-189.54 958.58,-176.62 970.59,-165.68"/>
<polygon fill="#63b8ff" stroke="#63b8ff" points="972.72,-168.48 977.76,-159.16 968.01,-163.3 972.72,-168.48"/>
</a>
</g>
</g>
<!-- Node19 -->
<g id="Node000019" class="node">
<title>Node19</title>
<g id="a_Node000019"><a xlink:title=" ">
<polygon fill="#e0e0e0" stroke="#999999" points="1223.56,-157.88 1086.06,-157.88 1086.06,-127.38 1223.56,-127.38 1223.56,-157.88"/>
<text text-anchor="start" x="1094.06" y="-144.38" font-family="Helvetica,sans-Serif" font-size="10.00">typed_linear_algebra</text>
<text text-anchor="middle" x="1154.81" y="-133.12" font-family="Helvetica,sans-Serif" font-size="10.00">_internal/algorithm/scale.tpp</text>
</a>
</g>
</g>
<!-- Node2&#45;&gt;Node19 -->
<g id="edge25_Node000002_Node000019" class="edge">
<title>Node2&#45;&gt;Node19</title>
<g id="a_edge25_Node000002_Node000019"><a xlink:title=" ">
<path fill="none" stroke="#63b8ff" d="M967.5,-199.05C1004.39,-188.13 1054.9,-173.19 1094.18,-161.57"/>
<polygon fill="#63b8ff" stroke="#63b8ff" points="1095.15,-164.93 1103.74,-158.74 1093.16,-158.22 1095.15,-164.93"/>
</a>
</g>
</g>
<!-- Node20 -->
<g id="Node000020" class="node">
<title>Node20</title>
<g id="a_Node000020"><a xlink:title=" ">
<polygon fill="#e0e0e0" stroke="#999999" points="1396.19,-157.88 1241.44,-157.88 1241.44,-127.38 1396.19,-127.38 1396.19,-157.88"/>
<text text-anchor="start" x="1249.44" y="-144.38" font-family="Helvetica,sans-Serif" font-size="10.00">typed_linear_algebra</text>
<text text-anchor="middle" x="1318.81" y="-133.12" font-family="Helvetica,sans-Serif" font-size="10.00">_internal/algorithm/substract.tpp</text>
</a>
</g>
</g>
<!-- Node2&#45;&gt;Node20 -->
<g id="edge26_Node000002_Node000020" class="edge">
<title>Node2&#45;&gt;Node20</title>
<g id="a_edge26_Node000002_Node000020"><a xlink:title=" ">
<path fill="none" stroke="#63b8ff" d="M972.22,-201.34C975.46,-200.69 978.68,-200.07 981.81,-199.5 1092.67,-179.24 1122.03,-184.21 1232.81,-163.5 1237.47,-162.63 1242.26,-161.68 1247.08,-160.68"/>
<polygon fill="#63b8ff" stroke="#63b8ff" points="1247.81,-164.1 1256.86,-158.59 1246.35,-157.26 1247.81,-164.1"/>
</a>
</g>
</g>
<!-- Node21 -->
<g id="Node000021" class="node">
<title>Node21</title>
<g id="a_Node000021"><a xlink:title=" ">
<polygon fill="#e0e0e0" stroke="#999999" points="1576.94,-157.88 1414.69,-157.88 1414.69,-127.38 1576.94,-127.38 1576.94,-157.88"/>
<text text-anchor="start" x="1422.69" y="-144.38" font-family="Helvetica,sans-Serif" font-size="10.00">typed_linear_algebra</text>
<text text-anchor="middle" x="1495.81" y="-133.12" font-family="Helvetica,sans-Serif" font-size="10.00">_internal/algorithm/transposed.tpp</text>
</a>
</g>
</g>
<!-- Node2&#45;&gt;Node21 -->
<g id="edge27_Node000002_Node000021" class="edge">
<title>Node2&#45;&gt;Node21</title>
<g id="a_edge27_Node000002_Node000021"><a xlink:title=" ">
<path fill="none" stroke="#63b8ff" d="M972.19,-201.12C975.44,-200.53 978.66,-199.98 981.81,-199.5 1168.32,-170.93 1218.25,-191.69 1404.81,-163.5 1410.71,-162.61 1416.79,-161.56 1422.89,-160.42"/>
<polygon fill="#63b8ff" stroke="#63b8ff" points="1423.21,-163.93 1432.36,-158.58 1421.87,-157.06 1423.21,-163.93"/>
</a>
</g>
</g>
<!-- Node22 -->
<g id="Node000022" class="node">
<title>Node22</title>
<g id="a_Node000022"><a xlink:title=" ">
<polygon fill="#e0e0e0" stroke="#999999" points="1699.06,-157.88 1594.56,-157.88 1594.56,-127.38 1699.06,-127.38 1699.06,-157.88"/>
<text text-anchor="start" x="1602.56" y="-144.38" font-family="Helvetica,sans-Serif" font-size="10.00">typed_linear_algebra</text>
<text text-anchor="middle" x="1646.81" y="-133.12" font-family="Helvetica,sans-Serif" font-size="10.00">_internal/cast.tpp</text>
</a>
</g>
</g>
<!-- Node2&#45;&gt;Node22 -->
<g id="edge28_Node000002_Node000022" class="edge">
<title>Node2&#45;&gt;Node22</title>
<g id="a_edge28_Node000002_Node000022"><a xlink:title=" ">
<path fill="none" stroke="#63b8ff" d="M972.17,-201.03C975.42,-200.46 978.66,-199.94 981.81,-199.5 1248.13,-162.16 1321.59,-213.56 1585.81,-163.5 1588.99,-162.9 1592.24,-162.18 1595.49,-161.37"/>
<polygon fill="#63b8ff" stroke="#63b8ff" points="1596.32,-164.77 1605.04,-158.75 1594.47,-158.02 1596.32,-164.77"/>
</a>
</g>
</g>
<!-- Node23 -->
<g id="Node000023" class="node">
<title>Node23</title>
<g id="a_Node000023"><a xlink:title=" ">
<polygon fill="#e0e0e0" stroke="#999999" points="1822.06,-157.88 1717.56,-157.88 1717.56,-127.38 1822.06,-127.38 1822.06,-157.88"/>
<text text-anchor="start" x="1725.56" y="-144.38" font-family="Helvetica,sans-Serif" font-size="10.00">typed_linear_algebra</text>
<text text-anchor="middle" x="1769.81" y="-133.12" font-family="Helvetica,sans-Serif" font-size="10.00">_internal/tuple.tpp</text>
</a>
</g>
</g>
<!-- Node2&#45;&gt;Node23 -->
<g id="edge29_Node000002_Node000023" class="edge">
<title>Node2&#45;&gt;Node23</title>
<g id="a_edge29_Node000002_Node000023"><a xlink:title=" ">
<path fill="none" stroke="#63b8ff" d="M972.17,-200.99C975.42,-200.43 978.65,-199.93 981.81,-199.5 1301.97,-156.24 1389.96,-221.3 1707.81,-163.5 1711.21,-162.88 1714.67,-162.13 1718.14,-161.28"/>
<polygon fill="#63b8ff" stroke="#63b8ff" points="1718.97,-164.69 1727.71,-158.7 1717.15,-157.93 1718.97,-164.69"/>
</a>
</g>
</g>
<!-- Node24 -->
<g id="Node000024" class="node">
<title>Node24</title>
<g id="a_Node000024"><a xlink:title=" ">
<polygon fill="#e0e0e0" stroke="#999999" points="1947.56,-163.5 1840.06,-163.5 1840.06,-121.75 1947.56,-121.75 1947.56,-163.5"/>
<text text-anchor="start" x="1848.06" y="-150" font-family="Helvetica,sans-Serif" font-size="10.00">typed_linear_algebra</text>
<text text-anchor="start" x="1848.06" y="-138.75" font-family="Helvetica,sans-Serif" font-size="10.00">_internal/typed_linear</text>
<text text-anchor="middle" x="1893.81" y="-127.5" font-family="Helvetica,sans-Serif" font-size="10.00">_algebra.tpp</text>
</a>
</g>
</g>
<!-- Node2&#45;&gt;Node24 -->
<g id="edge30_Node000002_Node000024" class="edge">
<title>Node2&#45;&gt;Node24</title>
<g id="a_edge30_Node000002_Node000024"><a xlink:title=" ">
<path fill="none" stroke="#63b8ff" d="M972.16,-200.96C975.42,-200.41 978.65,-199.92 981.81,-199.5 1352.61,-150.75 1456.81,-227.36 1828.66,-163.6"/>
<polygon fill="#63b8ff" stroke="#63b8ff" points="1829,-167.1 1838.25,-161.94 1827.8,-160.2 1829,-167.1"/>
</a>
</g>
</g>
<!-- Node4&#45;&gt;Node5 -->
<g id="edge4_Node000004_Node000005" class="edge">
<title>Node4&#45;&gt;Node5</title>
<g id="a_edge4_Node000004_Node000005"><a xlink:title=" ">
<path fill="none" stroke="#63b8ff" d="M156.43,-126.89C163.46,-124.8 170.79,-122.96 177.81,-121.75 351.13,-91.96 1642.23,-79.55 1886.87,-77.45"/>
<polygon fill="#63b8ff" stroke="#63b8ff" points="1886.87,-80.95 1896.84,-77.37 1886.81,-73.95 1886.87,-80.95"/>
</a>
</g>
</g>
<!-- Node4&#45;&gt;Node7 -->
<g id="edge11_Node000004_Node000007" class="edge">
<title>Node4&#45;&gt;Node7</title>
<g id="a_edge11_Node000004_Node000007"><a xlink:title=" ">
<path fill="none" stroke="#63b8ff" d="M109.67,-126.9C102.28,-111.72 90.36,-87.39 79.81,-66.5 74.59,-56.15 68.66,-44.67 63.78,-35.29"/>
<polygon fill="#63b8ff" stroke="#63b8ff" points="66.9,-33.71 59.17,-26.46 60.69,-36.94 66.9,-33.71"/>
</a>
</g>
</g>
<!-- Node4&#45;&gt;Node11 -->
<g id="edge12_Node000004_Node000011" class="edge">
<title>Node4&#45;&gt;Node11</title>
<g id="a_edge12_Node000004_Node000011"><a xlink:title=" ">
<path fill="none" stroke="#63b8ff" d="M101.38,-126.99C90.97,-117.12 77.22,-104.07 66.39,-93.79"/>
<polygon fill="#63b8ff" stroke="#63b8ff" points="68.88,-91.33 59.21,-86.99 64.06,-96.41 68.88,-91.33"/>
</a>
</g>
</g>
<!-- Node5&#45;&gt;Node3 -->
<g id="edge5_Node000005_Node000003" class="edge">
<title>Node5&#45;&gt;Node3</title>
<g id="a_edge5_Node000005_Node000003"><a xlink:title=" ">
<path fill="none" stroke="#63b8ff" d="M1943.52,-66.18C1958.4,-58.22 1980.69,-46.29 1999.76,-36.08"/>
<polygon fill="#63b8ff" stroke="#63b8ff" points="2001.16,-39.3 2008.33,-31.5 1997.86,-33.13 2001.16,-39.3"/>
</a>
</g>
</g>
<!-- Node5&#45;&gt;Node6 -->
<g id="edge6_Node000005_Node000006" class="edge">
<title>Node5&#45;&gt;Node6</title>
<g id="a_edge6_Node000005_Node000006"><a xlink:title=" ">
<path fill="none" stroke="#63b8ff" d="M1955.54,-68.67C1989.74,-60.75 2048.46,-46.39 2097.81,-30.5 2099.18,-30.06 2100.56,-29.6 2101.96,-29.12"/>
<polygon fill="#63b8ff" stroke="#63b8ff" points="2103.02,-32.46 2111.23,-25.76 2100.64,-25.88 2103.02,-32.46"/>
</a>
</g>
</g>
<!-- Node5&#45;&gt;Node7 -->
<g id="edge7_Node000005_Node000007" class="edge">
<title>Node5&#45;&gt;Node7</title>
<g id="a_edge7_Node000005_Node000007"><a xlink:title=" ">
<path fill="none" stroke="#63b8ff" d="M1898.14,-74.22C1683.37,-67.47 328.09,-24.87 89.62,-17.38"/>
<polygon fill="#63b8ff" stroke="#63b8ff" points="89.83,-13.88 79.72,-17.06 89.61,-20.88 89.83,-13.88"/>
</a>
</g>
</g>
<!-- Node8 -->
<g id="Node000008" class="node">
<title>Node8</title>
<g id="a_Node000008"><a xlink:title=" ">
<polygon fill="#e0e0e0" stroke="#999999" points="1831.81,-24.88 1773.81,-24.88 1773.81,-5.63 1831.81,-5.63 1831.81,-24.88"/>
<text text-anchor="middle" x="1802.81" y="-11.38" font-family="Helvetica,sans-Serif" font-size="10.00">functional</text>
</a>
</g>
</g>
<!-- Node5&#45;&gt;Node8 -->
<g id="edge8_Node000005_Node000008" class="edge">
<title>Node5&#45;&gt;Node8</title>
<g id="a_edge8_Node000005_Node000008"><a xlink:title=" ">
<path fill="none" stroke="#63b8ff" d="M1907.71,-66.05C1887.53,-56.48 1855.47,-41.25 1832.1,-30.16"/>
<polygon fill="#63b8ff" stroke="#63b8ff" points="1833.64,-27.01 1823.1,-25.88 1830.63,-33.33 1833.64,-27.01"/>
</a>
</g>
</g>
<!-- Node5&#45;&gt;Node9 -->
<g id="edge9_Node000005_Node000009" class="edge">
<title>Node5&#45;&gt;Node9</title>
<g id="a_edge9_Node000005_Node000009"><a xlink:title=" ">
<path fill="none" stroke="#63b8ff" d="M1930,-66.18C1932.84,-58.23 1937.09,-46.31 1940.73,-36.12"/>
<polygon fill="#63b8ff" stroke="#63b8ff" points="1944.02,-37.3 1944.08,-26.7 1937.43,-34.94 1944.02,-37.3"/>
</a>
</g>
</g>
<!-- Node10 -->
<g id="Node000010" class="node">
<title>Node10</title>
<g id="a_Node000010"><a xlink:title=" ">
<polygon fill="#e0e0e0" stroke="#999999" points="1911.31,-24.88 1850.31,-24.88 1850.31,-5.63 1911.31,-5.63 1911.31,-24.88"/>
<text text-anchor="middle" x="1880.81" y="-11.38" font-family="Helvetica,sans-Serif" font-size="10.00">type_traits</text>
</a>
</g>
</g>
<!-- Node5&#45;&gt;Node10 -->
<g id="edge10_Node000005_Node000010" class="edge">
<title>Node5&#45;&gt;Node10</title>
<g id="a_edge10_Node000005_Node000010"><a xlink:title=" ">
<path fill="none" stroke="#63b8ff" d="M1919.83,-66.18C1913.21,-57.71 1903.07,-44.74 1894.79,-34.14"/>
<polygon fill="#63b8ff" stroke="#63b8ff" points="1897.71,-32.19 1888.8,-26.47 1892.2,-36.5 1897.71,-32.19"/>
</a>
</g>
</g>
</g>
</svg>

<g id="navigator" transform="translate(0 0)" fill="#404254">
  <rect fill="#f2f5e9" fill-opacity="0.5" stroke="#606060" stroke-width=".5" x="0" y="0" width="60" height="60"/>
  <use id="zoomplus" xlink:href="#zoomPlus" x="17" y="9" onmousedown="handleZoom(evt,'in')"/>
  <use id="zoomminus" xlink:href="#zoomMin" x="42" y="9" onmousedown="handleZoom(evt,'out')"/>
  <use id="reset" xlink:href="#resetDef" x="30" y="36" onmousedown="handleReset()"/>
   <use id="arrowup" xlink:href="#arrowUp" x="0" y="0" onmousedown="handlePan(0,-1)"/>
  <use id="arrowright" xlink:href="#arrowRight" x="0" y="0" onmousedown="handlePan(1,0)"/>
  <use id="arrowdown" xlink:href="#arrowDown" x="0" y="0" onmousedown="handlePan(0,1)"/>
  <use id="arrowleft" xlink:href="#arrowLeft" x="0" y="0" onmousedown="handlePan(-1,0)"/>
</g>
<svg viewBox="0 0 15 15" width="100%" height="30px" preserveAspectRatio="xMaxYMin meet">
 <g id="arrow_out" transform="scale(0.3 0.3)">
  <a xlink:href="typed__mdspan__product_8cpp__incl_org.svg" target="_base">
   <rect id="button" ry="5" rx="5" y="6" x="6" height="38" width="38"
        fill="#f2f5e9" fill-opacity="0.5" stroke="#606060" stroke-width="1.0"/>
   <path id="arrow"
     d="M 11.500037,31.436501 C 11.940474,20.09759 22.043105,11.32322 32.158766,21.979434 L 37.068811,17.246167 C 37.068811,17.246167 37.088388,32 37.088388,32 L 22.160133,31.978069 C 22.160133,31.978069 26.997745,27.140456 26.997745,27.140456 C 18.528582,18.264221 13.291696,25.230495 11.500037,31.436501 z"
     style="fill:#404040;"/>
  </a>
 </g>
</svg>

<style type='text/css'>
<![CDATA[
[data-mouse-over-selected='false'] { opacity: 0.7; }
[data-mouse-over-selected='true']  { opacity: 1.0; }
]]>
</style>
<script type="application/ecmascript"><![CDATA[
document.addEventListener('DOMContentLoaded', (event) => {
  highlightEdges();
  highlightAdjacentNodes();
});
]]></script>
</svg>
