<?xml version="1.0" encoding="UTF-8" standalone="no"?>
<!DOCTYPE svg PUBLIC "-//W3C//DTD SVG 1.1//EN"
 "http://www.w3.org/Graphics/SVG/1.1/DTD/svg11.dtd">
<!-- Generated by graphviz version 12.2.0 (20241103.1931)
 -->
<!-- Title: /github/workspace/include/fcarouge/typed_linear_algebra.hpp Pages: 1 -->
<svg width="830pt" height="205pt"
 viewBox="0.00 0.00 829.50 205.25" xmlns="http://www.w3.org/2000/svg" xmlns:xlink="http://www.w3.org/1999/xlink">
<g id="graph0" class="graph" transform="scale(1 1) rotate(0) translate(4 201.25)">
<title>/github/workspace/include/fcarouge/typed_linear_algebra.hpp</title>
<!-- Node1 -->
<g id="Node000001" class="node">
<title>Node1</title>
<g id="a_Node000001"><a xlink:title="Typed linear algebra implementation.">
<polygon fill="#999999" stroke="#666666" points="509.62,-197.25 380.38,-197.25 380.38,-155.5 509.62,-155.5 509.62,-197.25"/>
<text text-anchor="start" x="388.38" y="-183.75" font-family="Helvetica,sans-Serif" font-size="10.00">/github/workspace/include</text>
<text text-anchor="start" x="388.38" y="-172.5" font-family="Helvetica,sans-Serif" font-size="10.00">/fcarouge/typed_linear</text>
<text text-anchor="middle" x="445" y="-161.25" font-family="Helvetica,sans-Serif" font-size="10.00">_algebra.hpp</text>
</a>
</g>
</g>
<!-- Node2 -->
<g id="Node000002" class="node">
<title>Node2</title>
<g id="a_Node000002"><a xlink:href="mp__units__eigen_8cpp.xhtml" target="_top" xlink:title="Unit safe linear algebra with mp&#45;units and Eigen.">
<polygon fill="white" stroke="#666666" points="130,-113.88 0,-113.88 0,-83.38 130,-83.38 130,-113.88"/>
<text text-anchor="start" x="8" y="-100.38" font-family="Helvetica,sans-Serif" font-size="10.00">/github/workspace/sample</text>
<text text-anchor="middle" x="65" y="-89.12" font-family="Helvetica,sans-Serif" font-size="10.00">/mp_units_eigen.cpp</text>
</a>
</g>
</g>
<!-- Node1&#45;&gt;Node2 -->
<g id="edge1_Node000001_Node000002" class="edge">
<title>Node1&#45;&gt;Node2</title>
<g id="a_edge1_Node000001_Node000002"><a xlink:title=" ">
<path fill="none" stroke="#63b8ff" d="M368.65,-163.22C306.53,-152.9 216.74,-137.01 139,-119.5 131.99,-117.92 124.65,-116.13 117.42,-114.27"/>
<polygon fill="#63b8ff" stroke="#63b8ff" points="367.99,-166.65 378.43,-164.83 369.13,-159.75 367.99,-166.65"/>
</a>
</g>
</g>
<!-- Node3 -->
<g id="Node000003" class="node">
<title>Node3</title>
<g id="a_Node000003"><a xlink:href="mp__units__std_8cpp.xhtml" target="_top" xlink:title="Unit safe linear algebra with mp&#45;units and Eigen.">
<polygon fill="white" stroke="#666666" points="278,-113.88 148,-113.88 148,-83.38 278,-83.38 278,-113.88"/>
<text text-anchor="start" x="156" y="-100.38" font-family="Helvetica,sans-Serif" font-size="10.00">/github/workspace/sample</text>
<text text-anchor="middle" x="213" y="-89.12" font-family="Helvetica,sans-Serif" font-size="10.00">/mp_units_std.cpp</text>
</a>
</g>
</g>
<!-- Node1&#45;&gt;Node3 -->
<g id="edge2_Node000001_Node000003" class="edge">
<title>Node1&#45;&gt;Node3</title>
<g id="a_edge2_Node000001_Node000003"><a xlink:title=" ">
<path fill="none" stroke="#63b8ff" d="M371.99,-151.54C334.65,-139.34 290.38,-124.89 258.05,-114.33"/>
<polygon fill="#63b8ff" stroke="#63b8ff" points="370.8,-154.83 381.39,-154.61 372.97,-148.17 370.8,-154.83"/>
</a>
</g>
</g>
<!-- Node4 -->
<g id="Node000004" class="node">
<title>Node4</title>
<g id="a_Node000004"><a xlink:href="eigen_8hpp.xhtml" target="_top" xlink:title="Linear algebra facade for Eigen3 third party implementation.">
<polygon fill="white" stroke="#666666" points="464.38,-113.88 333.62,-113.88 333.62,-83.38 464.38,-83.38 464.38,-113.88"/>
<text text-anchor="start" x="341.62" y="-100.38" font-family="Helvetica,sans-Serif" font-size="10.00">/github/workspace/support</text>
<text text-anchor="middle" x="399" y="-89.12" font-family="Helvetica,sans-Serif" font-size="10.00">/eigen/fcarouge/eigen.hpp</text>
</a>
</g>
</g>
<!-- Node1&#45;&gt;Node4 -->
<g id="edge3_Node000001_Node000004" class="edge">
<title>Node1&#45;&gt;Node4</title>
<g id="a_edge3_Node000001_Node000004"><a xlink:title=" ">
<path fill="none" stroke="#63b8ff" d="M426.85,-145.48C420.26,-134.63 413.12,-122.87 407.72,-113.98"/>
<polygon fill="#63b8ff" stroke="#63b8ff" points="423.71,-147.05 431.89,-153.78 429.69,-143.42 423.71,-147.05"/>
</a>
</g>
</g>
<!-- Node6 -->
<g id="Node000006" class="node">
<title>Node6</title>
<g id="a_Node000006"><a xlink:href="eigexed_2fcarouge_2linalg_8hpp.xhtml" target="_top" xlink:title="Scalar type linear algebra with Eigen implementation.">
<polygon fill="white" stroke="#666666" points="253,-36.12 117,-36.12 117,-5.62 253,-5.62 253,-36.12"/>
<text text-anchor="start" x="125" y="-22.62" font-family="Helvetica,sans-Serif" font-size="10.00">/github/workspace/support</text>
<text text-anchor="middle" x="185" y="-11.38" font-family="Helvetica,sans-Serif" font-size="10.00">/eigexed/fcarouge/linalg.hpp</text>
</a>
</g>
</g>
<!-- Node1&#45;&gt;Node6 -->
<g id="edge8_Node000001_Node000006" class="edge">
<title>Node1&#45;&gt;Node6</title>
<g id="a_edge8_Node000001_Node000006"><a xlink:title=" ">
<path fill="none" stroke="#63b8ff" d="M379.22,-150.42C360.83,-141.97 341.4,-131.56 325,-119.5 304.79,-104.64 306.72,-93.27 287,-77.75 265.74,-61.02 238.79,-46.49 217.93,-36.45"/>
<polygon fill="#63b8ff" stroke="#63b8ff" points="377.65,-153.56 388.21,-154.42 380.5,-147.16 377.65,-153.56"/>
</a>
</g>
</g>
<!-- Node7 -->
<g id="Node000007" class="node">
<title>Node7</title>
<g id="a_Node000007"><a xlink:href="nested__typed__eigen_2fcarouge_2linalg_8hpp.xhtml" target="_top" xlink:title="Scalar type nested linear algebra with Eigen implementation.">
<polygon fill="white" stroke="#666666" points="564.88,-41.75 419.12,-41.75 419.12,0 564.88,0 564.88,-41.75"/>
<text text-anchor="start" x="427.12" y="-28.25" font-family="Helvetica,sans-Serif" font-size="10.00">/github/workspace/support</text>
<text text-anchor="start" x="427.12" y="-17" font-family="Helvetica,sans-Serif" font-size="10.00">/nested_typed_eigen/fcarouge</text>
<text text-anchor="middle" x="492" y="-5.75" font-family="Helvetica,sans-Serif" font-size="10.00">/linalg.hpp</text>
</a>
</g>
</g>
<!-- Node1&#45;&gt;Node7 -->
<g id="edge9_Node000001_Node000007" class="edge">
<title>Node1&#45;&gt;Node7</title>
<g id="a_edge9_Node000001_Node000007"><a xlink:title=" ">
<path fill="none" stroke="#63b8ff" d="M462.04,-145.12C466.09,-136.99 470.08,-128.07 473,-119.5 481.85,-93.51 487.04,-62.15 489.7,-42.11"/>
<polygon fill="#63b8ff" stroke="#63b8ff" points="458.97,-143.43 457.45,-153.91 465.18,-146.66 458.97,-143.43"/>
</a>
</g>
</g>
<!-- Node8 -->
<g id="Node000008" class="node">
<title>Node8</title>
<g id="a_Node000008"><a xlink:href="quantity__eigen_2fcarouge_2linalg_8hpp.xhtml" target="_top" xlink:title="Indexed&#45;based linear algebra with mp&#45;units with Eigen implementations.">
<polygon fill="white" stroke="#666666" points="713.38,-41.75 582.62,-41.75 582.62,0 713.38,0 713.38,-41.75"/>
<text text-anchor="start" x="590.62" y="-28.25" font-family="Helvetica,sans-Serif" font-size="10.00">/github/workspace/support</text>
<text text-anchor="start" x="590.62" y="-17" font-family="Helvetica,sans-Serif" font-size="10.00">/quantity_eigen/fcarouge</text>
<text text-anchor="middle" x="648" y="-5.75" font-family="Helvetica,sans-Serif" font-size="10.00">/linalg.hpp</text>
</a>
</g>
</g>
<!-- Node1&#45;&gt;Node8 -->
<g id="edge10_Node000001_Node000008" class="edge">
<title>Node1&#45;&gt;Node8</title>
<g id="a_edge10_Node000001_Node000008"><a xlink:title=" ">
<path fill="none" stroke="#63b8ff" d="M471.48,-147.09C491.61,-126.48 520.59,-98.63 549,-77.75 567.13,-64.43 588.74,-51.89 607.15,-42.08"/>
<polygon fill="#63b8ff" stroke="#63b8ff" points="469.17,-144.45 464.74,-154.07 474.21,-149.31 469.17,-144.45"/>
</a>
</g>
</g>
<!-- Node9 -->
<g id="Node000009" class="node">
<title>Node9</title>
<g id="a_Node000009"><a xlink:href="quantity__std_2fcarouge_2linalg_8hpp.xhtml" target="_top" xlink:title="Indexed&#45;based linear algebra with mp&#45;units with Eigen implementations.">
<polygon fill="white" stroke="#666666" points="688.38,-119.5 557.62,-119.5 557.62,-77.75 688.38,-77.75 688.38,-119.5"/>
<text text-anchor="start" x="565.62" y="-106" font-family="Helvetica,sans-Serif" font-size="10.00">/github/workspace/support</text>
<text text-anchor="start" x="565.62" y="-94.75" font-family="Helvetica,sans-Serif" font-size="10.00">/quantity_std/fcarouge</text>
<text text-anchor="middle" x="623" y="-83.5" font-family="Helvetica,sans-Serif" font-size="10.00">/linalg.hpp</text>
</a>
</g>
</g>
<!-- Node1&#45;&gt;Node9 -->
<g id="edge11_Node000001_Node000009" class="edge">
<title>Node1&#45;&gt;Node9</title>
<g id="a_edge11_Node000001_Node000009"><a xlink:title=" ">
<path fill="none" stroke="#63b8ff" d="M503.16,-150.63C526.47,-140.7 553,-129.41 575.17,-119.98"/>
<polygon fill="#63b8ff" stroke="#63b8ff" points="501.92,-147.35 494.09,-154.48 504.67,-153.79 501.92,-147.35"/>
</a>
</g>
</g>
<!-- Node10 -->
<g id="Node000010" class="node">
<title>Node10</title>
<g id="a_Node000010"><a xlink:href="1x2__unit_8cpp.xhtml" target="_top" xlink:title=" ">
<polygon fill="white" stroke="#666666" points="821.5,-113.88 706.5,-113.88 706.5,-83.38 821.5,-83.38 821.5,-113.88"/>
<text text-anchor="start" x="714.5" y="-100.38" font-family="Helvetica,sans-Serif" font-size="10.00">/github/workspace/test</text>
<text text-anchor="middle" x="764" y="-89.12" font-family="Helvetica,sans-Serif" font-size="10.00">/addition/1x2_unit.cpp</text>
</a>
</g>
</g>
<!-- Node1&#45;&gt;Node10 -->
<g id="edge12_Node000001_Node000010" class="edge">
<title>Node1&#45;&gt;Node10</title>
<g id="a_edge12_Node000001_Node000010"><a xlink:title=" ">
<path fill="none" stroke="#63b8ff" d="M521.12,-159.95C571.29,-149.43 638.32,-134.69 697,-119.5 703.11,-117.92 709.5,-116.16 715.81,-114.36"/>
<polygon fill="#63b8ff" stroke="#63b8ff" points="520.6,-156.48 511.52,-161.95 522.03,-163.34 520.6,-156.48"/>
</a>
</g>
</g>
<!-- Node5 -->
<g id="Node000005" class="node">
<title>Node5</title>
<g id="a_Node000005"><a xlink:href="eigen_2fcarouge_2linalg_8hpp.xhtml" target="_top" xlink:title=" ">
<polygon fill="white" stroke="#666666" points="401.38,-36.12 270.62,-36.12 270.62,-5.62 401.38,-5.62 401.38,-36.12"/>
<text text-anchor="start" x="278.62" y="-22.62" font-family="Helvetica,sans-Serif" font-size="10.00">/github/workspace/support</text>
<text text-anchor="middle" x="336" y="-11.38" font-family="Helvetica,sans-Serif" font-size="10.00">/eigen/fcarouge/linalg.hpp</text>
</a>
</g>
</g>
<!-- Node4&#45;&gt;Node5 -->
<g id="edge4_Node000004_Node000005" class="edge">
<title>Node4&#45;&gt;Node5</title>
<g id="a_edge4_Node000004_Node000005"><a xlink:title=" ">
<path fill="none" stroke="#63b8ff" d="M379.79,-74.53C369.48,-62.13 357.08,-47.22 348.11,-36.44"/>
<polygon fill="#63b8ff" stroke="#63b8ff" points="376.8,-76.41 385.89,-81.86 382.18,-71.93 376.8,-76.41"/>
</a>
</g>
</g>
<!-- Node4&#45;&gt;Node6 -->
<g id="edge5_Node000004_Node000006" class="edge">
<title>Node4&#45;&gt;Node6</title>
<g id="a_edge5_Node000004_Node000006"><a xlink:title=" ">
<path fill="none" stroke="#63b8ff" d="M346.89,-79.18C309.85,-66.07 260.77,-48.7 226.4,-36.53"/>
<polygon fill="#63b8ff" stroke="#63b8ff" points="345.46,-82.39 356.06,-82.42 347.8,-75.79 345.46,-82.39"/>
</a>
</g>
</g>
<!-- Node4&#45;&gt;Node7 -->
<g id="edge6_Node000004_Node000007" class="edge">
<title>Node4&#45;&gt;Node7</title>
<g id="a_edge6_Node000004_Node000007"><a xlink:title=" ">
<path fill="none" stroke="#63b8ff" d="M425.5,-76.04C438.57,-65.4 454.24,-52.63 467.09,-42.16"/>
<polygon fill="#63b8ff" stroke="#63b8ff" points="423.65,-73.03 418.1,-82.06 428.07,-78.46 423.65,-73.03"/>
</a>
</g>
</g>
<!-- Node4&#45;&gt;Node8 -->
<g id="edge7_Node000004_Node000008" class="edge">
<title>Node4&#45;&gt;Node8</title>
<g id="a_edge7_Node000004_Node000008"><a xlink:title=" ">
<path fill="none" stroke="#63b8ff" d="M458.04,-79.67C495.42,-68.29 543.82,-53.57 582.41,-41.83"/>
<polygon fill="#63b8ff" stroke="#63b8ff" points="457.3,-76.23 448.75,-82.49 459.34,-82.93 457.3,-76.23"/>
</a>
</g>
</g>
</g>
</svg>
