<?xml version="1.0" encoding="UTF-8" standalone="no"?>
<!DOCTYPE svg PUBLIC "-//W3C//DTD SVG 1.1//EN"
 "http://www.w3.org/Graphics/SVG/1.1/DTD/svg11.dtd">
<!-- Generated by graphviz version 12.2.0 (20241103.1931)
 -->
<!-- Title: /github/workspace/benchmark/typed_mdspan_tupled_product.cpp Pages: 1 -->
<svg width="2732pt" height="249pt"
 viewBox="0.00 0.00 2732.38 249.25" xmlns="http://www.w3.org/2000/svg" xmlns:xlink="http://www.w3.org/1999/xlink">
<g id="graph0" class="graph" transform="scale(1 1) rotate(0) translate(4 245.25)">
<title>/github/workspace/benchmark/typed_mdspan_tupled_product.cpp</title>
<!-- Node1 -->
<g id="Node000001" class="node">
<title>Node1</title>
<g id="a_Node000001"><a xlink:title=" ">
<polygon fill="#999999" stroke="#666666" points="2504.38,-241.25 2335.38,-241.25 2335.38,-210.75 2504.38,-210.75 2504.38,-241.25"/>
<text text-anchor="start" x="2343.38" y="-227.75" font-family="Helvetica,sans-Serif" font-size="10.00">/github/workspace/benchmark</text>
<text text-anchor="middle" x="2419.88" y="-216.5" font-family="Helvetica,sans-Serif" font-size="10.00">/typed_mdspan_tupled_product.cpp</text>
</a>
</g>
</g>
<!-- Node2 -->
<g id="Node000002" class="node">
<title>Node2</title>
<g id="a_Node000002"><a xlink:href="typed__linear__algebra_8hpp.xhtml" target="_top" xlink:title="Typed linear algebra implementation.">
<polygon fill="white" stroke="#666666" points="1373,-174.75 1264.75,-174.75 1264.75,-144.25 1373,-144.25 1373,-174.75"/>
<text text-anchor="start" x="1272.75" y="-161.25" font-family="Helvetica,sans-Serif" font-size="10.00">fcarouge/typed_linear</text>
<text text-anchor="middle" x="1318.88" y="-150" font-family="Helvetica,sans-Serif" font-size="10.00">_algebra.hpp</text>
</a>
</g>
</g>
<!-- Node1&#45;&gt;Node2 -->
<g id="edge1_Node000001_Node000002" class="edge">
<title>Node1&#45;&gt;Node2</title>
<g id="a_edge1_Node000001_Node000002"><a xlink:title=" ">
<path fill="none" stroke="#63b8ff" d="M2335.31,-220.05C2123.72,-207.65 1574.81,-175.49 1384.78,-164.36"/>
<polygon fill="#63b8ff" stroke="#63b8ff" points="1385.02,-160.87 1374.83,-163.78 1384.61,-167.86 1385.02,-160.87"/>
</a>
</g>
</g>
<!-- Node6 -->
<g id="Node000006" class="node">
<title>Node6</title>
<g id="a_Node000006"><a xlink:title=" ">
<polygon fill="#e0e0e0" stroke="#999999" points="2250,-24.88 2201.75,-24.88 2201.75,-5.63 2250,-5.63 2250,-24.88"/>
<text text-anchor="middle" x="2225.88" y="-11.38" font-family="Helvetica,sans-Serif" font-size="10.00">cstddef</text>
</a>
</g>
</g>
<!-- Node1&#45;&gt;Node6 -->
<g id="edge29_Node000001_Node000006" class="edge">
<title>Node1&#45;&gt;Node6</title>
<g id="a_edge29_Node000001_Node000006"><a xlink:title=" ">
<path fill="none" stroke="#63b8ff" d="M2335.21,-213.13C2310.26,-205.79 2284.85,-193.92 2266.88,-174.75 2230.66,-136.13 2225.44,-69.8 2225.28,-36.52"/>
<polygon fill="#63b8ff" stroke="#63b8ff" points="2228.78,-36.72 2225.41,-26.68 2221.78,-36.63 2228.78,-36.72"/>
</a>
</g>
</g>
<!-- Node10 -->
<g id="Node000010" class="node">
<title>Node10</title>
<g id="a_Node000010"><a xlink:title=" ">
<polygon fill="#e0e0e0" stroke="#999999" points="43.75,-97 0,-97 0,-77.75 43.75,-77.75 43.75,-97"/>
<text text-anchor="middle" x="21.88" y="-83.5" font-family="Helvetica,sans-Serif" font-size="10.00">format</text>
</a>
</g>
</g>
<!-- Node1&#45;&gt;Node10 -->
<g id="edge30_Node000001_Node000010" class="edge">
<title>Node1&#45;&gt;Node10</title>
<g id="a_edge30_Node000001_Node000010"><a xlink:title=" ">
<path fill="none" stroke="#63b8ff" d="M2334.98,-224.21C1968.65,-220.27 521.67,-199.13 76.88,-108.25 69.06,-106.65 60.85,-104.16 53.24,-101.48"/>
<polygon fill="#63b8ff" stroke="#63b8ff" points="54.63,-98.26 44.03,-98.02 52.16,-104.81 54.63,-98.26"/>
</a>
</g>
</g>
<!-- Node25 -->
<g id="Node000025" class="node">
<title>Node25</title>
<g id="a_Node000025"><a xlink:title=" ">
<polygon fill="#e0e0e0" stroke="#999999" points="2346.25,-169.12 2275.5,-169.12 2275.5,-149.88 2346.25,-149.88 2346.25,-169.12"/>
<text text-anchor="middle" x="2310.88" y="-155.62" font-family="Helvetica,sans-Serif" font-size="10.00">nanobench.h</text>
</a>
</g>
</g>
<!-- Node1&#45;&gt;Node25 -->
<g id="edge28_Node000001_Node000025" class="edge">
<title>Node1&#45;&gt;Node25</title>
<g id="a_edge28_Node000001_Node000025"><a xlink:title=" ">
<path fill="none" stroke="#63b8ff" d="M2395.14,-210.36C2377.39,-199.86 2353.57,-185.77 2335.78,-175.24"/>
<polygon fill="#63b8ff" stroke="#63b8ff" points="2337.79,-172.36 2327.4,-170.28 2334.23,-178.39 2337.79,-172.36"/>
</a>
</g>
</g>
<!-- Node26 -->
<g id="Node000026" class="node">
<title>Node26</title>
<g id="a_Node000026"><a xlink:title=" ">
<polygon fill="#e0e0e0" stroke="#999999" points="2413.38,-169.12 2364.38,-169.12 2364.38,-149.88 2413.38,-149.88 2413.38,-169.12"/>
<text text-anchor="middle" x="2388.88" y="-155.62" font-family="Helvetica,sans-Serif" font-size="10.00">fstream</text>
</a>
</g>
</g>
<!-- Node1&#45;&gt;Node26 -->
<g id="edge31_Node000001_Node000026" class="edge">
<title>Node1&#45;&gt;Node26</title>
<g id="a_edge31_Node000001_Node000026"><a xlink:title=" ">
<path fill="none" stroke="#63b8ff" d="M2412.84,-210.36C2408.48,-201.28 2402.82,-189.51 2398.1,-179.68"/>
<polygon fill="#63b8ff" stroke="#63b8ff" points="2401.26,-178.18 2393.77,-170.69 2394.95,-181.22 2401.26,-178.18"/>
</a>
</g>
</g>
<!-- Node27 -->
<g id="Node000027" class="node">
<title>Node27</title>
<g id="a_Node000027"><a xlink:title=" ">
<polygon fill="#e0e0e0" stroke="#999999" points="2470.12,-169.12 2431.62,-169.12 2431.62,-149.88 2470.12,-149.88 2470.12,-169.12"/>
<text text-anchor="middle" x="2450.88" y="-155.62" font-family="Helvetica,sans-Serif" font-size="10.00">linalg</text>
</a>
</g>
</g>
<!-- Node1&#45;&gt;Node27 -->
<g id="edge32_Node000001_Node000027" class="edge">
<title>Node1&#45;&gt;Node27</title>
<g id="a_edge32_Node000001_Node000027"><a xlink:title=" ">
<path fill="none" stroke="#63b8ff" d="M2426.91,-210.36C2431.27,-201.28 2436.93,-189.51 2441.65,-179.68"/>
<polygon fill="#63b8ff" stroke="#63b8ff" points="2444.8,-181.22 2445.98,-170.69 2438.49,-178.18 2444.8,-181.22"/>
</a>
</g>
</g>
<!-- Node28 -->
<g id="Node000028" class="node">
<title>Node28</title>
<g id="a_Node000028"><a xlink:title=" ">
<polygon fill="#e0e0e0" stroke="#999999" points="2539.12,-169.12 2488.62,-169.12 2488.62,-149.88 2539.12,-149.88 2539.12,-169.12"/>
<text text-anchor="middle" x="2513.88" y="-155.62" font-family="Helvetica,sans-Serif" font-size="10.00">mdspan</text>
</a>
</g>
</g>
<!-- Node1&#45;&gt;Node28 -->
<g id="edge33_Node000001_Node000028" class="edge">
<title>Node1&#45;&gt;Node28</title>
<g id="a_edge33_Node000001_Node000028"><a xlink:title=" ">
<path fill="none" stroke="#63b8ff" d="M2441.21,-210.36C2456.22,-200.06 2476.29,-186.29 2491.53,-175.83"/>
<polygon fill="#63b8ff" stroke="#63b8ff" points="2493.23,-178.91 2499.5,-170.37 2489.27,-173.14 2493.23,-178.91"/>
</a>
</g>
</g>
<!-- Node29 -->
<g id="Node000029" class="node">
<title>Node29</title>
<g id="a_Node000029"><a xlink:title=" ">
<polygon fill="#e0e0e0" stroke="#999999" points="2605,-169.12 2556.75,-169.12 2556.75,-149.88 2605,-149.88 2605,-169.12"/>
<text text-anchor="middle" x="2580.88" y="-155.62" font-family="Helvetica,sans-Serif" font-size="10.00">random</text>
</a>
</g>
</g>
<!-- Node1&#45;&gt;Node29 -->
<g id="edge34_Node000001_Node000029" class="edge">
<title>Node1&#45;&gt;Node29</title>
<g id="a_edge34_Node000001_Node000029"><a xlink:title=" ">
<path fill="none" stroke="#63b8ff" d="M2458.38,-210.27C2483.86,-200.43 2517.97,-187.07 2547.88,-174.75 2548.51,-174.49 2549.14,-174.23 2549.79,-173.96"/>
<polygon fill="#63b8ff" stroke="#63b8ff" points="2551.08,-177.21 2558.93,-170.09 2548.36,-170.76 2551.08,-177.21"/>
</a>
</g>
</g>
<!-- Node30 -->
<g id="Node000030" class="node">
<title>Node30</title>
<g id="a_Node000030"><a xlink:title=" ">
<polygon fill="#e0e0e0" stroke="#999999" points="2662.88,-169.12 2622.88,-169.12 2622.88,-149.88 2662.88,-149.88 2662.88,-169.12"/>
<text text-anchor="middle" x="2642.88" y="-155.62" font-family="Helvetica,sans-Serif" font-size="10.00">string</text>
</a>
</g>
</g>
<!-- Node1&#45;&gt;Node30 -->
<g id="edge35_Node000001_Node000030" class="edge">
<title>Node1&#45;&gt;Node30</title>
<g id="a_edge35_Node000001_Node000030"><a xlink:title=" ">
<path fill="none" stroke="#63b8ff" d="M2490.52,-210.35C2527.77,-201.71 2573.91,-189.57 2613.88,-174.75 2614.5,-174.52 2615.13,-174.28 2615.76,-174.03"/>
<polygon fill="#63b8ff" stroke="#63b8ff" points="2616.83,-177.38 2624.57,-170.14 2614.01,-170.98 2616.83,-177.38"/>
</a>
</g>
</g>
<!-- Node31 -->
<g id="Node000031" class="node">
<title>Node31</title>
<g id="a_Node000031"><a xlink:title=" ">
<polygon fill="#e0e0e0" stroke="#999999" points="2724.38,-169.12 2681.38,-169.12 2681.38,-149.88 2724.38,-149.88 2724.38,-169.12"/>
<text text-anchor="middle" x="2702.88" y="-155.62" font-family="Helvetica,sans-Serif" font-size="10.00">vector</text>
</a>
</g>
</g>
<!-- Node1&#45;&gt;Node31 -->
<g id="edge36_Node000001_Node000031" class="edge">
<title>Node1&#45;&gt;Node31</title>
<g id="a_edge36_Node000001_Node000031"><a xlink:title=" ">
<path fill="none" stroke="#63b8ff" d="M2504.85,-213.14C2554.32,-204.99 2617.46,-192.41 2671.88,-174.75 2672.84,-174.44 2673.81,-174.1 2674.78,-173.75"/>
<polygon fill="#63b8ff" stroke="#63b8ff" points="2675.8,-177.12 2683.73,-170.09 2673.15,-170.64 2675.8,-177.12"/>
</a>
</g>
</g>
<!-- Node3 -->
<g id="Node000003" class="node">
<title>Node3</title>
<g id="a_Node000003"><a xlink:href="typed__linear__algebra__forward_8hpp.xhtml" target="_top" xlink:title="Authoritative forward declaration header.">
<polygon fill="white" stroke="#666666" points="1955.12,-30.5 1850.62,-30.5 1850.62,0 1955.12,0 1955.12,-30.5"/>
<text text-anchor="start" x="1858.62" y="-17" font-family="Helvetica,sans-Serif" font-size="10.00">typed_linear_algebra</text>
<text text-anchor="middle" x="1902.88" y="-5.75" font-family="Helvetica,sans-Serif" font-size="10.00">_forward.hpp</text>
</a>
</g>
</g>
<!-- Node2&#45;&gt;Node3 -->
<g id="edge2_Node000002_Node000003" class="edge">
<title>Node2&#45;&gt;Node3</title>
<g id="a_edge2_Node000002_Node000003"><a xlink:title=" ">
<path fill="none" stroke="#63b8ff" d="M1373.45,-157.91C1511.75,-155.85 1867.48,-146.82 1902.88,-108.25 1919.02,-90.66 1916.31,-62.24 1911.26,-41.64"/>
<polygon fill="#63b8ff" stroke="#63b8ff" points="1914.71,-40.97 1908.64,-32.29 1907.97,-42.86 1914.71,-40.97"/>
</a>
</g>
</g>
<!-- Node4 -->
<g id="Node000004" class="node">
<title>Node4</title>
<g id="a_Node000004"><a xlink:href="utility_8hpp.xhtml" target="_top" xlink:title=" ">
<polygon fill="white" stroke="#666666" points="2054.12,-102.62 1949.62,-102.62 1949.62,-72.12 2054.12,-72.12 2054.12,-102.62"/>
<text text-anchor="start" x="1957.62" y="-89.12" font-family="Helvetica,sans-Serif" font-size="10.00">typed_linear_algebra</text>
<text text-anchor="middle" x="2001.88" y="-77.88" font-family="Helvetica,sans-Serif" font-size="10.00">_internal/utility.hpp</text>
</a>
</g>
</g>
<!-- Node2&#45;&gt;Node4 -->
<g id="edge3_Node000002_Node000004" class="edge">
<title>Node2&#45;&gt;Node4</title>
<g id="a_edge3_Node000002_Node000004"><a xlink:title=" ">
<path fill="none" stroke="#63b8ff" d="M1373.45,-157.91C1481.67,-155.89 1730.74,-147.04 1935.88,-108.25 1939.46,-107.57 1943.13,-106.77 1946.81,-105.89"/>
<polygon fill="#63b8ff" stroke="#63b8ff" points="1947.55,-109.32 1956.35,-103.42 1945.79,-102.54 1947.55,-109.32"/>
</a>
</g>
</g>
<!-- Node5 -->
<g id="Node000005" class="node">
<title>Node5</title>
<g id="a_Node000005"><a xlink:title=" ">
<polygon fill="#e0e0e0" stroke="#999999" points="2183.75,-24.88 2128,-24.88 2128,-5.63 2183.75,-5.63 2183.75,-24.88"/>
<text text-anchor="middle" x="2155.88" y="-11.38" font-family="Helvetica,sans-Serif" font-size="10.00">concepts</text>
</a>
</g>
</g>
<!-- Node2&#45;&gt;Node5 -->
<g id="edge10_Node000002_Node000005" class="edge">
<title>Node2&#45;&gt;Node5</title>
<g id="a_edge10_Node000002_Node000005"><a xlink:title=" ">
<path fill="none" stroke="#63b8ff" d="M1373.38,-157.4C1559.91,-153.36 2162.74,-138.06 2190.88,-108.25 2210.62,-87.33 2189.27,-54.14 2172.32,-33.87"/>
<polygon fill="#63b8ff" stroke="#63b8ff" points="2175.02,-31.63 2165.79,-26.44 2169.77,-36.26 2175.02,-31.63"/>
</a>
</g>
</g>
<!-- Node2&#45;&gt;Node6 -->
<g id="edge11_Node000002_Node000006" class="edge">
<title>Node2&#45;&gt;Node6</title>
<g id="a_edge11_Node000002_Node000006"><a xlink:title=" ">
<path fill="none" stroke="#63b8ff" d="M1373.49,-157.16C1534.73,-152.86 2001.31,-137.98 2062.88,-108.25 2085.47,-97.34 2080.2,-80.72 2100.88,-66.5 2137.05,-41.61 2152.27,-47.21 2192.88,-30.5 2193.51,-30.24 2194.14,-29.98 2194.79,-29.71"/>
<polygon fill="#63b8ff" stroke="#63b8ff" points="2196.08,-32.96 2203.93,-25.84 2193.36,-26.51 2196.08,-32.96"/>
</a>
</g>
</g>
<!-- Node8 -->
<g id="Node000008" class="node">
<title>Node8</title>
<g id="a_Node000008"><a xlink:title=" ">
<polygon fill="#e0e0e0" stroke="#999999" points="961.38,-24.88 924.38,-24.88 924.38,-5.63 961.38,-5.63 961.38,-24.88"/>
<text text-anchor="middle" x="942.88" y="-11.38" font-family="Helvetica,sans-Serif" font-size="10.00">tuple</text>
</a>
</g>
</g>
<!-- Node2&#45;&gt;Node8 -->
<g id="edge14_Node000002_Node000008" class="edge">
<title>Node2&#45;&gt;Node8</title>
<g id="a_edge14_Node000002_Node000008"><a xlink:title=" ">
<path fill="none" stroke="#63b8ff" d="M1264.34,-157.29C1029.02,-151.94 111.48,-129.72 90.88,-108.25 78.03,-94.86 78.15,-80 90.88,-66.5 119.67,-35.96 765.2,-20.11 912.94,-16.88"/>
<polygon fill="#63b8ff" stroke="#63b8ff" points="912.76,-20.38 922.68,-16.67 912.61,-13.38 912.76,-20.38"/>
</a>
</g>
</g>
<!-- Node2&#45;&gt;Node10 -->
<g id="edge12_Node000002_Node000010" class="edge">
<title>Node2&#45;&gt;Node10</title>
<g id="a_edge12_Node000002_Node000010"><a xlink:title=" ">
<path fill="none" stroke="#63b8ff" d="M1264.35,-157.03C1029.89,-150.61 116.7,-124.67 57.88,-108.25 53.36,-106.99 48.8,-105.07 44.5,-102.91"/>
<polygon fill="#63b8ff" stroke="#63b8ff" points="46.32,-99.92 35.89,-98.04 42.87,-106.01 46.32,-99.92"/>
</a>
</g>
</g>
<!-- Node11 -->
<g id="Node000011" class="node">
<title>Node11</title>
<g id="a_Node000011"><a xlink:title=" ">
<polygon fill="#e0e0e0" stroke="#999999" points="2181.62,-97 2110.12,-97 2110.12,-77.75 2181.62,-77.75 2181.62,-97"/>
<text text-anchor="middle" x="2145.88" y="-83.5" font-family="Helvetica,sans-Serif" font-size="10.00">initializer_list</text>
</a>
</g>
</g>
<!-- Node2&#45;&gt;Node11 -->
<g id="edge13_Node000002_Node000011" class="edge">
<title>Node2&#45;&gt;Node11</title>
<g id="a_edge13_Node000002_Node000011"><a xlink:title=" ">
<path fill="none" stroke="#63b8ff" d="M1373.34,-157.19C1526.36,-153.17 1957.9,-139.32 2095.88,-108.25 2102.93,-106.66 2110.29,-104.21 2117.13,-101.58"/>
<polygon fill="#63b8ff" stroke="#63b8ff" points="2118.02,-105 2125.93,-97.94 2115.35,-98.53 2118.02,-105"/>
</a>
</g>
</g>
<!-- Node12 -->
<g id="Node000012" class="node">
<title>Node12</title>
<g id="a_Node000012"><a xlink:title=" ">
<polygon fill="#e0e0e0" stroke="#999999" points="138.12,-97 99.62,-97 99.62,-77.75 138.12,-77.75 138.12,-97"/>
<text text-anchor="middle" x="118.88" y="-83.5" font-family="Helvetica,sans-Serif" font-size="10.00">utility</text>
</a>
</g>
</g>
<!-- Node2&#45;&gt;Node12 -->
<g id="edge15_Node000002_Node000012" class="edge">
<title>Node2&#45;&gt;Node12</title>
<g id="a_edge15_Node000002_Node000012"><a xlink:title=" ">
<path fill="none" stroke="#63b8ff" d="M1264.42,-157.02C1040.54,-150.85 200.28,-126.55 146.88,-108.25 143.86,-107.22 140.88,-105.75 138.06,-104.07"/>
<polygon fill="#63b8ff" stroke="#63b8ff" points="140.14,-101.26 129.95,-98.36 136.11,-106.98 140.14,-101.26"/>
</a>
</g>
</g>
<!-- Node13 -->
<g id="Node000013" class="node">
<title>Node13</title>
<g id="a_Node000013"><a xlink:title=" ">
<polygon fill="#e0e0e0" stroke="#999999" points="285.88,-102.62 155.88,-102.62 155.88,-72.12 285.88,-72.12 285.88,-102.62"/>
<text text-anchor="start" x="163.88" y="-89.12" font-family="Helvetica,sans-Serif" font-size="10.00">typed_linear_algebra</text>
<text text-anchor="middle" x="220.88" y="-77.88" font-family="Helvetica,sans-Serif" font-size="10.00">_internal/algorithm/add.tpp</text>
</a>
</g>
</g>
<!-- Node2&#45;&gt;Node13 -->
<g id="edge16_Node000002_Node000013" class="edge">
<title>Node2&#45;&gt;Node13</title>
<g id="a_edge16_Node000002_Node000013"><a xlink:title=" ">
<path fill="none" stroke="#63b8ff" d="M1264.32,-157.36C1080.45,-153.27 484.34,-137.99 294.88,-108.25 290.29,-107.53 285.58,-106.64 280.87,-105.63"/>
<polygon fill="#63b8ff" stroke="#63b8ff" points="281.92,-102.28 271.39,-103.45 280.35,-109.11 281.92,-102.28"/>
</a>
</g>
</g>
<!-- Node14 -->
<g id="Node000014" class="node">
<title>Node14</title>
<g id="a_Node000014"><a xlink:title=" ">
<polygon fill="#e0e0e0" stroke="#999999" points="443.75,-102.62 304,-102.62 304,-72.12 443.75,-72.12 443.75,-102.62"/>
<text text-anchor="start" x="312" y="-89.12" font-family="Helvetica,sans-Serif" font-size="10.00">typed_linear_algebra</text>
<text text-anchor="middle" x="373.88" y="-77.88" font-family="Helvetica,sans-Serif" font-size="10.00">_internal/algorithm/divide.tpp</text>
</a>
</g>
</g>
<!-- Node2&#45;&gt;Node14 -->
<g id="edge17_Node000002_Node000014" class="edge">
<title>Node2&#45;&gt;Node14</title>
<g id="a_edge17_Node000002_Node000014"><a xlink:title=" ">
<path fill="none" stroke="#63b8ff" d="M1264.29,-158.89C1127.07,-159.09 756.92,-154.89 452.88,-108.25 447.73,-107.46 442.43,-106.49 437.13,-105.4"/>
<polygon fill="#63b8ff" stroke="#63b8ff" points="438.28,-102.07 427.76,-103.35 436.79,-108.91 438.28,-102.07"/>
</a>
</g>
</g>
<!-- Node15 -->
<g id="Node000015" class="node">
<title>Node15</title>
<g id="a_Node000015"><a xlink:title=" ">
<polygon fill="#e0e0e0" stroke="#999999" points="583.75,-108.25 462,-108.25 462,-66.5 583.75,-66.5 583.75,-108.25"/>
<text text-anchor="start" x="470" y="-94.75" font-family="Helvetica,sans-Serif" font-size="10.00">typed_linear_algebra</text>
<text text-anchor="start" x="470" y="-83.5" font-family="Helvetica,sans-Serif" font-size="10.00">_internal/algorithm/equal</text>
<text text-anchor="middle" x="522.88" y="-72.25" font-family="Helvetica,sans-Serif" font-size="10.00">_to.tpp</text>
</a>
</g>
</g>
<!-- Node2&#45;&gt;Node15 -->
<g id="edge18_Node000002_Node000015" class="edge">
<title>Node2&#45;&gt;Node15</title>
<g id="a_edge18_Node000002_Node000015"><a xlink:title=" ">
<path fill="none" stroke="#63b8ff" d="M1264.68,-158.57C1145.15,-157.92 849.99,-151.79 595.49,-108.51"/>
<polygon fill="#63b8ff" stroke="#63b8ff" points="596.11,-105.07 585.66,-106.81 594.92,-111.96 596.11,-105.07"/>
</a>
</g>
</g>
<!-- Node16 -->
<g id="Node000016" class="node">
<title>Node16</title>
<g id="a_Node000016"><a xlink:title=" ">
<polygon fill="#e0e0e0" stroke="#999999" points="726.25,-108.25 601.5,-108.25 601.5,-66.5 726.25,-66.5 726.25,-108.25"/>
<text text-anchor="start" x="609.5" y="-94.75" font-family="Helvetica,sans-Serif" font-size="10.00">typed_linear_algebra</text>
<text text-anchor="start" x="609.5" y="-83.5" font-family="Helvetica,sans-Serif" font-size="10.00">_internal/algorithm/matrix</text>
<text text-anchor="middle" x="663.88" y="-72.25" font-family="Helvetica,sans-Serif" font-size="10.00">_product.tpp</text>
</a>
</g>
</g>
<!-- Node2&#45;&gt;Node16 -->
<g id="edge19_Node000002_Node000016" class="edge">
<title>Node2&#45;&gt;Node16</title>
<g id="a_edge19_Node000002_Node000016"><a xlink:title=" ">
<path fill="none" stroke="#63b8ff" d="M1264.59,-157.14C1162.93,-153.87 936.95,-143.22 737.81,-108.4"/>
<polygon fill="#63b8ff" stroke="#63b8ff" points="738.5,-104.97 728.04,-106.67 737.27,-111.86 738.5,-104.97"/>
</a>
</g>
</g>
<!-- Node17 -->
<g id="Node000017" class="node">
<title>Node17</title>
<g id="a_Node000017"><a xlink:title=" ">
<polygon fill="#e0e0e0" stroke="#999999" points="891.12,-102.62 744.62,-102.62 744.62,-72.12 891.12,-72.12 891.12,-102.62"/>
<text text-anchor="start" x="752.62" y="-89.12" font-family="Helvetica,sans-Serif" font-size="10.00">typed_linear_algebra</text>
<text text-anchor="middle" x="817.88" y="-77.88" font-family="Helvetica,sans-Serif" font-size="10.00">_internal/algorithm/product.tpp</text>
</a>
</g>
</g>
<!-- Node2&#45;&gt;Node17 -->
<g id="edge20_Node000002_Node000017" class="edge">
<title>Node2&#45;&gt;Node17</title>
<g id="a_edge20_Node000002_Node000017"><a xlink:title=" ">
<path fill="none" stroke="#63b8ff" d="M1264.33,-154.04C1184.08,-147 1029.65,-131.67 899.88,-108.25 895.25,-107.42 890.5,-106.48 885.73,-105.48"/>
<polygon fill="#63b8ff" stroke="#63b8ff" points="886.59,-102.08 876.07,-103.37 885.1,-108.92 886.59,-102.08"/>
</a>
</g>
</g>
<!-- Node18 -->
<g id="Node000018" class="node">
<title>Node18</title>
<g id="a_Node000018"><a xlink:title=" ">
<polygon fill="#e0e0e0" stroke="#999999" points="1046.62,-102.62 909.12,-102.62 909.12,-72.12 1046.62,-72.12 1046.62,-102.62"/>
<text text-anchor="start" x="917.12" y="-89.12" font-family="Helvetica,sans-Serif" font-size="10.00">typed_linear_algebra</text>
<text text-anchor="middle" x="977.88" y="-77.88" font-family="Helvetica,sans-Serif" font-size="10.00">_internal/algorithm/scale.tpp</text>
</a>
</g>
</g>
<!-- Node2&#45;&gt;Node18 -->
<g id="edge21_Node000002_Node000018" class="edge">
<title>Node2&#45;&gt;Node18</title>
<g id="a_edge21_Node000002_Node000018"><a xlink:title=" ">
<path fill="none" stroke="#63b8ff" d="M1264.28,-149.07C1210.95,-139.62 1127.57,-124.22 1055.88,-108.25 1052.33,-107.46 1048.7,-106.63 1045.04,-105.76"/>
<polygon fill="#63b8ff" stroke="#63b8ff" points="1046.03,-102.4 1035.49,-103.47 1044.39,-109.21 1046.03,-102.4"/>
</a>
</g>
</g>
<!-- Node19 -->
<g id="Node000019" class="node">
<title>Node19</title>
<g id="a_Node000019"><a xlink:title=" ">
<polygon fill="#e0e0e0" stroke="#999999" points="1219.25,-102.62 1064.5,-102.62 1064.5,-72.12 1219.25,-72.12 1219.25,-102.62"/>
<text text-anchor="start" x="1072.5" y="-89.12" font-family="Helvetica,sans-Serif" font-size="10.00">typed_linear_algebra</text>
<text text-anchor="middle" x="1141.88" y="-77.88" font-family="Helvetica,sans-Serif" font-size="10.00">_internal/algorithm/substract.tpp</text>
</a>
</g>
</g>
<!-- Node2&#45;&gt;Node19 -->
<g id="edge22_Node000002_Node000019" class="edge">
<title>Node2&#45;&gt;Node19</title>
<g id="a_edge22_Node000002_Node000019"><a xlink:title=" ">
<path fill="none" stroke="#63b8ff" d="M1281.77,-143.8C1254.98,-133.19 1218.58,-118.77 1189.63,-107.29"/>
<polygon fill="#63b8ff" stroke="#63b8ff" points="1190.92,-104.04 1180.34,-103.61 1188.35,-110.55 1190.92,-104.04"/>
</a>
</g>
</g>
<!-- Node20 -->
<g id="Node000020" class="node">
<title>Node20</title>
<g id="a_Node000020"><a xlink:title=" ">
<polygon fill="#e0e0e0" stroke="#999999" points="1400,-102.62 1237.75,-102.62 1237.75,-72.12 1400,-72.12 1400,-102.62"/>
<text text-anchor="start" x="1245.75" y="-89.12" font-family="Helvetica,sans-Serif" font-size="10.00">typed_linear_algebra</text>
<text text-anchor="middle" x="1318.88" y="-77.88" font-family="Helvetica,sans-Serif" font-size="10.00">_internal/algorithm/transposed.tpp</text>
</a>
</g>
</g>
<!-- Node2&#45;&gt;Node20 -->
<g id="edge23_Node000002_Node000020" class="edge">
<title>Node2&#45;&gt;Node20</title>
<g id="a_edge23_Node000002_Node000020"><a xlink:title=" ">
<path fill="none" stroke="#63b8ff" d="M1318.88,-143.97C1318.88,-135.41 1318.88,-124.34 1318.88,-114.33"/>
<polygon fill="#63b8ff" stroke="#63b8ff" points="1322.38,-114.4 1318.88,-104.4 1315.38,-114.4 1322.38,-114.4"/>
</a>
</g>
</g>
<!-- Node21 -->
<g id="Node000021" class="node">
<title>Node21</title>
<g id="a_Node000021"><a xlink:title=" ">
<polygon fill="#e0e0e0" stroke="#999999" points="1522.12,-102.62 1417.62,-102.62 1417.62,-72.12 1522.12,-72.12 1522.12,-102.62"/>
<text text-anchor="start" x="1425.62" y="-89.12" font-family="Helvetica,sans-Serif" font-size="10.00">typed_linear_algebra</text>
<text text-anchor="middle" x="1469.88" y="-77.88" font-family="Helvetica,sans-Serif" font-size="10.00">_internal/cast.tpp</text>
</a>
</g>
</g>
<!-- Node2&#45;&gt;Node21 -->
<g id="edge24_Node000002_Node000021" class="edge">
<title>Node2&#45;&gt;Node21</title>
<g id="a_edge24_Node000002_Node000021"><a xlink:title=" ">
<path fill="none" stroke="#63b8ff" d="M1350.53,-143.8C1372.98,-133.37 1403.34,-119.27 1427.82,-107.9"/>
<polygon fill="#63b8ff" stroke="#63b8ff" points="1429.29,-111.08 1436.89,-103.69 1426.35,-104.73 1429.29,-111.08"/>
</a>
</g>
</g>
<!-- Node22 -->
<g id="Node000022" class="node">
<title>Node22</title>
<g id="a_Node000022"><a xlink:title=" ">
<polygon fill="#e0e0e0" stroke="#999999" points="1645.12,-102.62 1540.62,-102.62 1540.62,-72.12 1645.12,-72.12 1645.12,-102.62"/>
<text text-anchor="start" x="1548.62" y="-89.12" font-family="Helvetica,sans-Serif" font-size="10.00">typed_linear_algebra</text>
<text text-anchor="middle" x="1592.88" y="-77.88" font-family="Helvetica,sans-Serif" font-size="10.00">_internal/format.tpp</text>
</a>
</g>
</g>
<!-- Node2&#45;&gt;Node22 -->
<g id="edge25_Node000002_Node000022" class="edge">
<title>Node2&#45;&gt;Node22</title>
<g id="a_edge25_Node000002_Node000022"><a xlink:title=" ">
<path fill="none" stroke="#63b8ff" d="M1373.19,-146.84C1416.2,-137.32 1477.67,-123.06 1530.88,-108.25 1533,-107.66 1535.16,-107.04 1537.34,-106.41"/>
<polygon fill="#63b8ff" stroke="#63b8ff" points="1538.27,-109.78 1546.85,-103.56 1536.26,-103.08 1538.27,-109.78"/>
</a>
</g>
</g>
<!-- Node23 -->
<g id="Node000023" class="node">
<title>Node23</title>
<g id="a_Node000023"><a xlink:title=" ">
<polygon fill="#e0e0e0" stroke="#999999" points="1768.12,-102.62 1663.62,-102.62 1663.62,-72.12 1768.12,-72.12 1768.12,-102.62"/>
<text text-anchor="start" x="1671.62" y="-89.12" font-family="Helvetica,sans-Serif" font-size="10.00">typed_linear_algebra</text>
<text text-anchor="middle" x="1715.88" y="-77.88" font-family="Helvetica,sans-Serif" font-size="10.00">_internal/tuple.tpp</text>
</a>
</g>
</g>
<!-- Node2&#45;&gt;Node23 -->
<g id="edge26_Node000002_Node000023" class="edge">
<title>Node2&#45;&gt;Node23</title>
<g id="a_edge26_Node000002_Node000023"><a xlink:title=" ">
<path fill="none" stroke="#63b8ff" d="M1373.34,-153.06C1440.06,-145.78 1556.23,-131.07 1653.88,-108.25 1656.62,-107.61 1659.42,-106.9 1662.23,-106.15"/>
<polygon fill="#63b8ff" stroke="#63b8ff" points="1662.98,-109.58 1671.64,-103.49 1661.07,-102.85 1662.98,-109.58"/>
</a>
</g>
</g>
<!-- Node24 -->
<g id="Node000024" class="node">
<title>Node24</title>
<g id="a_Node000024"><a xlink:title=" ">
<polygon fill="#e0e0e0" stroke="#999999" points="1893.62,-108.25 1786.12,-108.25 1786.12,-66.5 1893.62,-66.5 1893.62,-108.25"/>
<text text-anchor="start" x="1794.12" y="-94.75" font-family="Helvetica,sans-Serif" font-size="10.00">typed_linear_algebra</text>
<text text-anchor="start" x="1794.12" y="-83.5" font-family="Helvetica,sans-Serif" font-size="10.00">_internal/typed_linear</text>
<text text-anchor="middle" x="1839.88" y="-72.25" font-family="Helvetica,sans-Serif" font-size="10.00">_algebra.tpp</text>
</a>
</g>
</g>
<!-- Node2&#45;&gt;Node24 -->
<g id="edge27_Node000002_Node000024" class="edge">
<title>Node2&#45;&gt;Node24</title>
<g id="a_edge27_Node000002_Node000024"><a xlink:title=" ">
<path fill="none" stroke="#63b8ff" d="M1373.36,-155.99C1457.62,-151.34 1624.63,-139.14 1774.54,-108.52"/>
<polygon fill="#63b8ff" stroke="#63b8ff" points="1775.2,-111.96 1784.28,-106.5 1773.77,-105.11 1775.2,-111.96"/>
</a>
</g>
</g>
<!-- Node4&#45;&gt;Node3 -->
<g id="edge4_Node000004_Node000003" class="edge">
<title>Node4&#45;&gt;Node3</title>
<g id="a_edge4_Node000004_Node000003"><a xlink:title=" ">
<path fill="none" stroke="#63b8ff" d="M1981.36,-71.85C1967.29,-61.88 1948.4,-48.49 1932.67,-37.36"/>
<polygon fill="#63b8ff" stroke="#63b8ff" points="1934.78,-34.56 1924.6,-31.64 1930.73,-40.27 1934.78,-34.56"/>
</a>
</g>
</g>
<!-- Node4&#45;&gt;Node5 -->
<g id="edge5_Node000004_Node000005" class="edge">
<title>Node4&#45;&gt;Node5</title>
<g id="a_edge5_Node000004_Node000005"><a xlink:title=" ">
<path fill="none" stroke="#63b8ff" d="M2034.16,-71.67C2061.13,-59.39 2099.32,-42 2125.69,-29.99"/>
<polygon fill="#63b8ff" stroke="#63b8ff" points="2126.83,-33.32 2134.48,-25.99 2123.93,-26.95 2126.83,-33.32"/>
</a>
</g>
</g>
<!-- Node4&#45;&gt;Node6 -->
<g id="edge6_Node000004_Node000006" class="edge">
<title>Node4&#45;&gt;Node6</title>
<g id="a_edge6_Node000004_Node000006"><a xlink:title=" ">
<path fill="none" stroke="#63b8ff" d="M2050.51,-71.66C2056.36,-69.91 2062.25,-68.16 2067.88,-66.5 2123.33,-50.16 2138.45,-50 2192.88,-30.5 2193.83,-30.16 2194.79,-29.8 2195.76,-29.44"/>
<polygon fill="#63b8ff" stroke="#63b8ff" points="2196.77,-32.8 2204.74,-25.82 2194.16,-26.31 2196.77,-32.8"/>
</a>
</g>
</g>
<!-- Node7 -->
<g id="Node000007" class="node">
<title>Node7</title>
<g id="a_Node000007"><a xlink:title=" ">
<polygon fill="#e0e0e0" stroke="#999999" points="2030.88,-24.88 1972.88,-24.88 1972.88,-5.63 2030.88,-5.63 2030.88,-24.88"/>
<text text-anchor="middle" x="2001.88" y="-11.38" font-family="Helvetica,sans-Serif" font-size="10.00">functional</text>
</a>
</g>
</g>
<!-- Node4&#45;&gt;Node7 -->
<g id="edge7_Node000004_Node000007" class="edge">
<title>Node4&#45;&gt;Node7</title>
<g id="a_edge7_Node000004_Node000007"><a xlink:title=" ">
<path fill="none" stroke="#63b8ff" d="M2001.88,-71.85C2001.88,-61.59 2001.88,-47.7 2001.88,-36.38"/>
<polygon fill="#63b8ff" stroke="#63b8ff" points="2005.38,-36.52 2001.88,-26.52 1998.38,-36.52 2005.38,-36.52"/>
</a>
</g>
</g>
<!-- Node4&#45;&gt;Node8 -->
<g id="edge8_Node000004_Node000008" class="edge">
<title>Node4&#45;&gt;Node8</title>
<g id="a_edge8_Node000004_Node000008"><a xlink:title=" ">
<path fill="none" stroke="#63b8ff" d="M1949.19,-74.32C1934.29,-71.31 1918.01,-68.4 1902.88,-66.5 1538.64,-20.65 1091.57,-16.49 972.93,-16.23"/>
<polygon fill="#63b8ff" stroke="#63b8ff" points="973.11,-12.73 963.1,-16.22 973.1,-19.73 973.11,-12.73"/>
</a>
</g>
</g>
<!-- Node9 -->
<g id="Node000009" class="node">
<title>Node9</title>
<g id="a_Node000009"><a xlink:title=" ">
<polygon fill="#e0e0e0" stroke="#999999" points="2110.38,-24.88 2049.38,-24.88 2049.38,-5.63 2110.38,-5.63 2110.38,-24.88"/>
<text text-anchor="middle" x="2079.88" y="-11.38" font-family="Helvetica,sans-Serif" font-size="10.00">type_traits</text>
</a>
</g>
</g>
<!-- Node4&#45;&gt;Node9 -->
<g id="edge9_Node000004_Node000009" class="edge">
<title>Node4&#45;&gt;Node9</title>
<g id="a_edge9_Node000004_Node000009"><a xlink:title=" ">
<path fill="none" stroke="#63b8ff" d="M2018.04,-71.85C2030.8,-60.37 2048.6,-44.37 2061.83,-32.48"/>
<polygon fill="#63b8ff" stroke="#63b8ff" points="2063.91,-35.31 2069.01,-26.02 2059.23,-30.1 2063.91,-35.31"/>
</a>
</g>
</g>
</g>
</svg>
