<?xml version="1.0" encoding="UTF-8" standalone="no"?>
<!DOCTYPE svg PUBLIC "-//W3C//DTD SVG 1.1//EN"
 "http://www.w3.org/Graphics/SVG/1.1/DTD/svg11.dtd">
<!-- Generated by graphviz version 12.2.0 (20241103.1931)
 -->
<!-- Title: /github/workspace/include/fcarouge/typed_linear_algebra_forward.hpp Pages: 1 -->
<svg width="1091pt" height="427pt"
 viewBox="0.00 0.00 1090.88 427.25" xmlns="http://www.w3.org/2000/svg" xmlns:xlink="http://www.w3.org/1999/xlink">
<g id="graph0" class="graph" transform="scale(1 1) rotate(0) translate(4 423.25)">
<title>/github/workspace/include/fcarouge/typed_linear_algebra_forward.hpp</title>
<!-- Node1 -->
<g id="Node000001" class="node">
<title>Node1</title>
<g id="a_Node000001"><a xlink:title="Authoritative forward declaration header.">
<polygon fill="#999999" stroke="#666666" points="692.88,-419.25 563.62,-419.25 563.62,-377.5 692.88,-377.5 692.88,-419.25"/>
<text text-anchor="start" x="571.62" y="-405.75" font-family="Helvetica,sans-Serif" font-size="10.00">/github/workspace/include</text>
<text text-anchor="start" x="571.62" y="-394.5" font-family="Helvetica,sans-Serif" font-size="10.00">/fcarouge/typed_linear</text>
<text text-anchor="middle" x="628.25" y="-383.25" font-family="Helvetica,sans-Serif" font-size="10.00">_algebra_forward.hpp</text>
</a>
</g>
</g>
<!-- Node2 -->
<g id="Node000002" class="node">
<title>Node2</title>
<g id="a_Node000002"><a xlink:href="typed__linear__algebra_8hpp.xhtml" target="_top" xlink:title="Typed linear algebra implementation.">
<polygon fill="white" stroke="#666666" points="722.88,-186 593.62,-186 593.62,-144.25 722.88,-144.25 722.88,-186"/>
<text text-anchor="start" x="601.62" y="-172.5" font-family="Helvetica,sans-Serif" font-size="10.00">/github/workspace/include</text>
<text text-anchor="start" x="601.62" y="-161.25" font-family="Helvetica,sans-Serif" font-size="10.00">/fcarouge/typed_linear</text>
<text text-anchor="middle" x="658.25" y="-150" font-family="Helvetica,sans-Serif" font-size="10.00">_algebra.hpp</text>
</a>
</g>
</g>
<!-- Node1&#45;&gt;Node2 -->
<g id="edge1_Node000001_Node000002" class="edge">
<title>Node1&#45;&gt;Node2</title>
<g id="a_edge1_Node000001_Node000002"><a xlink:title=" ">
<path fill="none" stroke="#63b8ff" d="M647.05,-367.05C651.15,-359.02 654.96,-350.17 657.25,-341.5 671.7,-286.9 665.73,-219.34 661.35,-186.28"/>
<polygon fill="#63b8ff" stroke="#63b8ff" points="644.03,-365.26 642.3,-375.71 650.17,-368.62 644.03,-365.26"/>
</a>
</g>
</g>
<!-- Node13 -->
<g id="Node000013" class="node">
<title>Node13</title>
<g id="a_Node000013"><a xlink:href="utility_8hpp.xhtml" target="_top" xlink:title=" ">
<polygon fill="white" stroke="#666666" points="647.75,-341.5 514.75,-341.5 514.75,-299.75 647.75,-299.75 647.75,-341.5"/>
<text text-anchor="start" x="522.75" y="-328" font-family="Helvetica,sans-Serif" font-size="10.00">/github/workspace/include</text>
<text text-anchor="start" x="522.75" y="-316.75" font-family="Helvetica,sans-Serif" font-size="10.00">/fcarouge/typed_linear</text>
<text text-anchor="middle" x="581.25" y="-305.5" font-family="Helvetica,sans-Serif" font-size="10.00">_algebra_internal/utility.hpp</text>
</a>
</g>
</g>
<!-- Node1&#45;&gt;Node13 -->
<g id="edge15_Node000001_Node000013" class="edge">
<title>Node1&#45;&gt;Node13</title>
<g id="a_edge15_Node000001_Node000013"><a xlink:title=" ">
<path fill="none" stroke="#63b8ff" d="M609.67,-367.43C604.37,-358.89 598.73,-349.8 593.88,-341.98"/>
<polygon fill="#63b8ff" stroke="#63b8ff" points="606.61,-369.14 614.86,-375.79 612.56,-365.45 606.61,-369.14"/>
</a>
</g>
</g>
<!-- Node3 -->
<g id="Node000003" class="node">
<title>Node3</title>
<g id="a_Node000003"><a xlink:href="typed__mdspan__product_8cpp.xhtml" target="_top" xlink:title=" ">
<polygon fill="white" stroke="#666666" points="146.5,-108.25 0,-108.25 0,-77.75 146.5,-77.75 146.5,-108.25"/>
<text text-anchor="start" x="8" y="-94.75" font-family="Helvetica,sans-Serif" font-size="10.00">/github/workspace/benchmark</text>
<text text-anchor="middle" x="73.25" y="-83.5" font-family="Helvetica,sans-Serif" font-size="10.00">/typed_mdspan_product.cpp</text>
</a>
</g>
</g>
<!-- Node2&#45;&gt;Node3 -->
<g id="edge2_Node000002_Node000003" class="edge">
<title>Node2&#45;&gt;Node3</title>
<g id="a_edge2_Node000002_Node000003"><a xlink:title=" ">
<path fill="none" stroke="#63b8ff" d="M582.03,-157.13C483.33,-147.73 306.07,-129.71 155.25,-108.25 152.53,-107.86 149.77,-107.46 146.97,-107.03"/>
<polygon fill="#63b8ff" stroke="#63b8ff" points="581.58,-160.6 591.87,-158.06 582.24,-153.63 581.58,-160.6"/>
</a>
</g>
</g>
<!-- Node4 -->
<g id="Node000004" class="node">
<title>Node4</title>
<g id="a_Node000004"><a xlink:href="typed__mdspan__tupled__product_8cpp.xhtml" target="_top" xlink:title=" ">
<polygon fill="white" stroke="#666666" points="333.75,-108.25 164.75,-108.25 164.75,-77.75 333.75,-77.75 333.75,-108.25"/>
<text text-anchor="start" x="172.75" y="-94.75" font-family="Helvetica,sans-Serif" font-size="10.00">/github/workspace/benchmark</text>
<text text-anchor="middle" x="249.25" y="-83.5" font-family="Helvetica,sans-Serif" font-size="10.00">/typed_mdspan_tupled_product.cpp</text>
</a>
</g>
</g>
<!-- Node2&#45;&gt;Node4 -->
<g id="edge3_Node000002_Node000004" class="edge">
<title>Node2&#45;&gt;Node4</title>
<g id="a_edge3_Node000002_Node000004"><a xlink:title=" ">
<path fill="none" stroke="#63b8ff" d="M582.44,-151.13C511.97,-139.05 407.17,-121.08 333.98,-108.53"/>
<polygon fill="#63b8ff" stroke="#63b8ff" points="581.5,-154.52 591.95,-152.76 582.69,-147.62 581.5,-154.52"/>
</a>
</g>
</g>
<!-- Node5 -->
<g id="Node000005" class="node">
<title>Node5</title>
<g id="a_Node000005"><a xlink:href="mp__units__eigen_8cpp.xhtml" target="_top" xlink:title="Unit safe linear algebra with mp&#45;units and Eigen.">
<polygon fill="white" stroke="#666666" points="482.25,-108.25 352.25,-108.25 352.25,-77.75 482.25,-77.75 482.25,-108.25"/>
<text text-anchor="start" x="360.25" y="-94.75" font-family="Helvetica,sans-Serif" font-size="10.00">/github/workspace/sample</text>
<text text-anchor="middle" x="417.25" y="-83.5" font-family="Helvetica,sans-Serif" font-size="10.00">/mp_units_eigen.cpp</text>
</a>
</g>
</g>
<!-- Node2&#45;&gt;Node5 -->
<g id="edge4_Node000002_Node000005" class="edge">
<title>Node2&#45;&gt;Node5</title>
<g id="a_edge4_Node000002_Node000005"><a xlink:title=" ">
<path fill="none" stroke="#63b8ff" d="M582.49,-142.08C545.08,-131.2 500.97,-118.36 467.74,-108.69"/>
<polygon fill="#63b8ff" stroke="#63b8ff" points="581.32,-145.38 591.9,-144.82 583.27,-138.66 581.32,-145.38"/>
</a>
</g>
</g>
<!-- Node6 -->
<g id="Node000006" class="node">
<title>Node6</title>
<g id="a_Node000006"><a xlink:href="mp__units__std_8cpp.xhtml" target="_top" xlink:title="Unit safe linear algebra with mp&#45;units and Eigen.">
<polygon fill="white" stroke="#666666" points="630.25,-108.25 500.25,-108.25 500.25,-77.75 630.25,-77.75 630.25,-108.25"/>
<text text-anchor="start" x="508.25" y="-94.75" font-family="Helvetica,sans-Serif" font-size="10.00">/github/workspace/sample</text>
<text text-anchor="middle" x="565.25" y="-83.5" font-family="Helvetica,sans-Serif" font-size="10.00">/mp_units_std.cpp</text>
</a>
</g>
</g>
<!-- Node2&#45;&gt;Node6 -->
<g id="edge5_Node000002_Node000006" class="edge">
<title>Node2&#45;&gt;Node6</title>
<g id="a_edge5_Node000002_Node000006"><a xlink:title=" ">
<path fill="none" stroke="#63b8ff" d="M622.29,-137.01C609.5,-127.37 595.59,-116.88 584.71,-108.67"/>
<polygon fill="#63b8ff" stroke="#63b8ff" points="620.05,-139.7 630.14,-142.93 624.26,-134.12 620.05,-139.7"/>
</a>
</g>
</g>
<!-- Node7 -->
<g id="Node000007" class="node">
<title>Node7</title>
<g id="a_Node000007"><a xlink:href="eigen_8hpp.xhtml" target="_top" xlink:title="Linear algebra facade for Eigen3 third party implementation.">
<polygon fill="white" stroke="#666666" points="816.62,-108.25 685.88,-108.25 685.88,-77.75 816.62,-77.75 816.62,-108.25"/>
<text text-anchor="start" x="693.88" y="-94.75" font-family="Helvetica,sans-Serif" font-size="10.00">/github/workspace/support</text>
<text text-anchor="middle" x="751.25" y="-83.5" font-family="Helvetica,sans-Serif" font-size="10.00">/eigen/fcarouge/eigen.hpp</text>
</a>
</g>
</g>
<!-- Node2&#45;&gt;Node7 -->
<g id="edge6_Node000002_Node000007" class="edge">
<title>Node2&#45;&gt;Node7</title>
<g id="a_edge6_Node000002_Node000007"><a xlink:title=" ">
<path fill="none" stroke="#63b8ff" d="M694.21,-137.01C707,-127.37 720.91,-116.88 731.79,-108.67"/>
<polygon fill="#63b8ff" stroke="#63b8ff" points="692.24,-134.12 686.36,-142.93 696.45,-139.7 692.24,-134.12"/>
</a>
</g>
</g>
<!-- Node9 -->
<g id="Node000009" class="node">
<title>Node9</title>
<g id="a_Node000009"><a xlink:href="eigexed_2fcarouge_2linalg_8hpp.xhtml" target="_top" xlink:title="Scalar type linear algebra with Eigen implementation.">
<polygon fill="white" stroke="#666666" points="605.25,-36.12 469.25,-36.12 469.25,-5.62 605.25,-5.62 605.25,-36.12"/>
<text text-anchor="start" x="477.25" y="-22.62" font-family="Helvetica,sans-Serif" font-size="10.00">/github/workspace/support</text>
<text text-anchor="middle" x="537.25" y="-11.38" font-family="Helvetica,sans-Serif" font-size="10.00">/eigexed/fcarouge/linalg.hpp</text>
</a>
</g>
</g>
<!-- Node2&#45;&gt;Node9 -->
<g id="edge11_Node000002_Node000009" class="edge">
<title>Node2&#45;&gt;Node9</title>
<g id="a_edge11_Node000002_Node000009"><a xlink:title=" ">
<path fill="none" stroke="#63b8ff" d="M657.57,-132.55C655.75,-114.92 651,-93.42 639.25,-77.75 625.02,-58.76 602.37,-45.44 582.02,-36.57"/>
<polygon fill="#63b8ff" stroke="#63b8ff" points="654.08,-132.79 658.3,-142.51 661.06,-132.28 654.08,-132.79"/>
</a>
</g>
</g>
<!-- Node10 -->
<g id="Node000010" class="node">
<title>Node10</title>
<g id="a_Node000010"><a xlink:href="nested__typed__eigen_2fcarouge_2linalg_8hpp.xhtml" target="_top" xlink:title="Scalar type nested linear algebra with Eigen implementation.">
<polygon fill="white" stroke="#666666" points="917.12,-41.75 771.38,-41.75 771.38,0 917.12,0 917.12,-41.75"/>
<text text-anchor="start" x="779.38" y="-28.25" font-family="Helvetica,sans-Serif" font-size="10.00">/github/workspace/support</text>
<text text-anchor="start" x="779.38" y="-17" font-family="Helvetica,sans-Serif" font-size="10.00">/nested_typed_eigen/fcarouge</text>
<text text-anchor="middle" x="844.25" y="-5.75" font-family="Helvetica,sans-Serif" font-size="10.00">/linalg.hpp</text>
</a>
</g>
</g>
<!-- Node2&#45;&gt;Node10 -->
<g id="edge12_Node000002_Node000010" class="edge">
<title>Node2&#45;&gt;Node10</title>
<g id="a_edge12_Node000002_Node000010"><a xlink:title=" ">
<path fill="none" stroke="#63b8ff" d="M734.61,-155.38C766.81,-147.88 802.12,-133.98 825.25,-108.25 841.47,-90.21 844.9,-61.53 845.16,-42.23"/>
<polygon fill="#63b8ff" stroke="#63b8ff" points="733.9,-151.95 724.85,-157.46 735.36,-158.8 733.9,-151.95"/>
</a>
</g>
</g>
<!-- Node11 -->
<g id="Node000011" class="node">
<title>Node11</title>
<g id="a_Node000011"><a xlink:href="unit__eigen_2fcarouge_2linalg_8hpp.xhtml" target="_top" xlink:title="Indexed&#45;based linear algebra with mp&#45;units with Eigen implementations.">
<polygon fill="white" stroke="#666666" points="1082.88,-36.12 935.62,-36.12 935.62,-5.62 1082.88,-5.62 1082.88,-36.12"/>
<text text-anchor="start" x="943.62" y="-22.62" font-family="Helvetica,sans-Serif" font-size="10.00">/github/workspace/support</text>
<text text-anchor="middle" x="1009.25" y="-11.38" font-family="Helvetica,sans-Serif" font-size="10.00">/unit_eigen/fcarouge/linalg.hpp</text>
</a>
</g>
</g>
<!-- Node2&#45;&gt;Node11 -->
<g id="edge13_Node000002_Node000011" class="edge">
<title>Node2&#45;&gt;Node11</title>
<g id="a_edge13_Node000002_Node000011"><a xlink:title=" ">
<path fill="none" stroke="#63b8ff" d="M733.62,-146.05C768.8,-136.56 810.85,-123.68 847.25,-108.25 872.63,-97.5 877.01,-90.86 901.25,-77.75 927.8,-63.39 958.39,-47.64 980.22,-36.53"/>
<polygon fill="#63b8ff" stroke="#63b8ff" points="733.17,-142.55 724.4,-148.5 734.97,-149.32 733.17,-142.55"/>
</a>
</g>
</g>
<!-- Node12 -->
<g id="Node000012" class="node">
<title>Node12</title>
<g id="a_Node000012"><a xlink:href="unit__std_2fcarouge_2linalg_8hpp.xhtml" target="_top" xlink:title="Indexed&#45;based linear algebra with mp&#45;units with Eigen implementations.">
<polygon fill="white" stroke="#666666" points="1048,-108.25 910.5,-108.25 910.5,-77.75 1048,-77.75 1048,-108.25"/>
<text text-anchor="start" x="918.5" y="-94.75" font-family="Helvetica,sans-Serif" font-size="10.00">/github/workspace/support</text>
<text text-anchor="middle" x="979.25" y="-83.5" font-family="Helvetica,sans-Serif" font-size="10.00">/unit_std/fcarouge/linalg.hpp</text>
</a>
</g>
</g>
<!-- Node2&#45;&gt;Node12 -->
<g id="edge14_Node000002_Node000012" class="edge">
<title>Node2&#45;&gt;Node12</title>
<g id="a_edge14_Node000002_Node000012"><a xlink:title=" ">
<path fill="none" stroke="#63b8ff" d="M734.44,-147.48C788.37,-135.7 860.05,-120.04 911.9,-108.71"/>
<polygon fill="#63b8ff" stroke="#63b8ff" points="733.71,-144.06 724.69,-149.61 735.2,-150.9 733.71,-144.06"/>
</a>
</g>
</g>
<!-- Node8 -->
<g id="Node000008" class="node">
<title>Node8</title>
<g id="a_Node000008"><a xlink:href="eigen_2fcarouge_2linalg_8hpp.xhtml" target="_top" xlink:title=" ">
<polygon fill="white" stroke="#666666" points="753.62,-36.12 622.88,-36.12 622.88,-5.62 753.62,-5.62 753.62,-36.12"/>
<text text-anchor="start" x="630.88" y="-22.62" font-family="Helvetica,sans-Serif" font-size="10.00">/github/workspace/support</text>
<text text-anchor="middle" x="688.25" y="-11.38" font-family="Helvetica,sans-Serif" font-size="10.00">/eigen/fcarouge/linalg.hpp</text>
</a>
</g>
</g>
<!-- Node7&#45;&gt;Node8 -->
<g id="edge7_Node000007_Node000008" class="edge">
<title>Node7&#45;&gt;Node8</title>
<g id="a_edge7_Node000007_Node000008"><a xlink:title=" ">
<path fill="none" stroke="#63b8ff" d="M730.55,-68.96C720.91,-58.23 709.73,-45.78 701.29,-36.39"/>
<polygon fill="#63b8ff" stroke="#63b8ff" points="727.9,-71.24 737.18,-76.34 733.11,-66.57 727.9,-71.24"/>
</a>
</g>
</g>
<!-- Node7&#45;&gt;Node9 -->
<g id="edge8_Node000007_Node000009" class="edge">
<title>Node7&#45;&gt;Node9</title>
<g id="a_edge8_Node000007_Node000009"><a xlink:title=" ">
<path fill="none" stroke="#63b8ff" d="M695.75,-73.81C660.38,-62.22 615.14,-47.4 582.05,-36.56"/>
<polygon fill="#63b8ff" stroke="#63b8ff" points="694.36,-77.04 704.95,-76.83 696.54,-70.39 694.36,-77.04"/>
</a>
</g>
</g>
<!-- Node7&#45;&gt;Node10 -->
<g id="edge9_Node000007_Node000010" class="edge">
<title>Node7&#45;&gt;Node10</title>
<g id="a_edge9_Node000007_Node000010"><a xlink:title=" ">
<path fill="none" stroke="#63b8ff" d="M779.63,-70.6C791.59,-61.58 805.44,-51.14 817.25,-42.24"/>
<polygon fill="#63b8ff" stroke="#63b8ff" points="777.61,-67.74 771.73,-76.56 781.82,-73.33 777.61,-67.74"/>
</a>
</g>
</g>
<!-- Node7&#45;&gt;Node11 -->
<g id="edge10_Node000007_Node000011" class="edge">
<title>Node7&#45;&gt;Node11</title>
<g id="a_edge10_Node000007_Node000011"><a xlink:title=" ">
<path fill="none" stroke="#63b8ff" d="M816.24,-74.34C859.16,-62.67 914.75,-47.56 955.24,-36.56"/>
<polygon fill="#63b8ff" stroke="#63b8ff" points="815.53,-70.9 806.8,-76.9 817.36,-77.66 815.53,-70.9"/>
</a>
</g>
</g>
<!-- Node13&#45;&gt;Node2 -->
<g id="edge17_Node000013_Node000002" class="edge">
<title>Node13&#45;&gt;Node2</title>
<g id="a_edge17_Node000013_Node000002"><a xlink:title=" ">
<path fill="none" stroke="#63b8ff" d="M617.24,-291.6C625.61,-283.46 633.69,-273.98 639.25,-263.75 652.53,-239.33 656.62,-207.01 657.83,-186.39"/>
<polygon fill="#63b8ff" stroke="#63b8ff" points="614.99,-288.92 609.97,-298.25 619.71,-294.08 614.99,-288.92"/>
</a>
</g>
</g>
<!-- Node14 -->
<g id="Node000014" class="node">
<title>Node14</title>
<g id="a_Node000014"><a xlink:href="mdspan__tuple__product_8cpp.xhtml" target="_top" xlink:title=" ">
<polygon fill="white" stroke="#666666" points="474.5,-258.12 328,-258.12 328,-227.62 474.5,-227.62 474.5,-258.12"/>
<text text-anchor="start" x="336" y="-244.62" font-family="Helvetica,sans-Serif" font-size="10.00">/github/workspace/benchmark</text>
<text text-anchor="middle" x="401.25" y="-233.38" font-family="Helvetica,sans-Serif" font-size="10.00">/mdspan_tuple_product.cpp</text>
</a>
</g>
</g>
<!-- Node13&#45;&gt;Node14 -->
<g id="edge16_Node000013_Node000014" class="edge">
<title>Node13&#45;&gt;Node14</title>
<g id="a_edge16_Node000013_Node000014"><a xlink:title=" ">
<path fill="none" stroke="#63b8ff" d="M522.73,-295C494.16,-282.97 460.75,-268.91 436.2,-258.58"/>
<polygon fill="#63b8ff" stroke="#63b8ff" points="521.04,-298.09 531.62,-298.74 523.76,-291.63 521.04,-298.09"/>
</a>
</g>
</g>
<!-- Node15 -->
<g id="Node000015" class="node">
<title>Node15</title>
<g id="a_Node000015"><a xlink:href="format_8hpp.xhtml" target="_top" xlink:title="Formatting support for the typed matrix.">
<polygon fill="white" stroke="#666666" points="630.38,-263.75 492.12,-263.75 492.12,-222 630.38,-222 630.38,-263.75"/>
<text text-anchor="start" x="500.12" y="-250.25" font-family="Helvetica,sans-Serif" font-size="10.00">/github/workspace/include</text>
<text text-anchor="start" x="500.12" y="-239" font-family="Helvetica,sans-Serif" font-size="10.00">/fcarouge/typed_linear</text>
<text text-anchor="middle" x="561.25" y="-227.75" font-family="Helvetica,sans-Serif" font-size="10.00">_algebra_internal/format.hpp</text>
</a>
</g>
</g>
<!-- Node13&#45;&gt;Node15 -->
<g id="edge18_Node000013_Node000015" class="edge">
<title>Node13&#45;&gt;Node15</title>
<g id="a_edge18_Node000013_Node000015"><a xlink:title=" ">
<path fill="none" stroke="#63b8ff" d="M572.97,-288.28C570.83,-280.16 568.58,-271.62 566.62,-264.23"/>
<polygon fill="#63b8ff" stroke="#63b8ff" points="569.57,-289.09 575.5,-297.86 576.34,-287.3 569.57,-289.09"/>
</a>
</g>
</g>
<!-- Node15&#45;&gt;Node2 -->
<g id="edge19_Node000015_Node000002" class="edge">
<title>Node15&#45;&gt;Node2</title>
<g id="a_edge19_Node000015_Node000002"><a xlink:title=" ">
<path fill="none" stroke="#63b8ff" d="M596.07,-214.69C607.98,-205.39 621.08,-195.15 632.18,-186.48"/>
<polygon fill="#63b8ff" stroke="#63b8ff" points="594.16,-211.73 588.44,-220.64 598.47,-217.25 594.16,-211.73"/>
</a>
</g>
</g>
</g>
</svg>
