<?xml version="1.0" encoding="UTF-8" standalone="no"?>
<!DOCTYPE svg PUBLIC "-//W3C//DTD SVG 1.1//EN"
 "http://www.w3.org/Graphics/SVG/1.1/DTD/svg11.dtd">
<!-- Generated by graphviz version 12.2.0 (20241103.1931)
 -->
<!-- Title: /github/workspace/include/fcarouge/typed_linear_algebra.hpp Pages: 1 -->
<!--zoomable 238 -->

<svg id="main" version="1.1" xmlns="http://www.w3.org/2000/svg" xmlns:xlink="http://www.w3.org/1999/xlink" xml:space="preserve" onload="init(evt)">

<style type="text/css"><![CDATA[
.node, .edge {opacity: 0.7;}
.node.selected, .edge.selected {opacity: 1;}
.edge:hover path { stroke: red; }
.edge:hover polygon { stroke: red; fill: red; }
]]></style>

<defs>
  <circle id="rim" cx="0" cy="0" r="7"/>
  <circle id="rim2" cx="0" cy="0" r="3.5"/>
  <g id="zoomPlus">
    <use xlink:href="#rim" fill="#404040"><set attributeName="fill" to="#808080" begin="zoomplus.mouseover" end="zoomplus.mouseout"/></use>
    <path d="M-4,0h8M0,-4v8" fill="none" stroke="white" stroke-width="1.5" pointer-events="none"/>
  </g>
  <g id="zoomMin">
    <use xlink:href="#rim" fill="#404040"><set attributeName="fill" to="#808080" begin="zoomminus.mouseover" end="zoomminus.mouseout"/></use>
    <path d="M-4,0h8" fill="none" stroke="white" stroke-width="1.5" pointer-events="none"/>
  </g>
  <g id="arrowUp" transform="translate(30 24)">
    <use xlink:href="#rim"/>
    <path pointer-events="none" fill="none" stroke="white" stroke-width="1.5" d="M0,-3.0v7 M-2.5,-0.5L0,-3.0L2.5,-0.5"/>
  </g>
  <g id="arrowRight" transform="rotate(90) translate(36 -43)">
    <use xlink:href="#rim"/>
    <path pointer-events="none" fill="none" stroke="white" stroke-width="1.5" d="M0,-3.0v7 M-2.5,-0.5L0,-3.0L2.5,-0.5"/>
  </g>
  <g id="arrowDown" transform="rotate(180) translate(-30 -48)">
    <use xlink:href="#rim"/>
    <path pointer-events="none" fill="none" stroke="white" stroke-width="1.5" d="M0,-3.0v7 M-2.5,-0.5L0,-3.0L2.5,-0.5"/>
  </g>
  <g id="arrowLeft" transform="rotate(270) translate(-36 17)">
    <use xlink:href="#rim"/>
    <path pointer-events="none" fill="none" stroke="white" stroke-width="1.5" d="M0,-3.0v7 M-2.5,-0.5L0,-3.0L2.5,-0.5"/>
  </g>
  <g id="resetDef">
    <use xlink:href="#rim2" fill="#404040"><set attributeName="fill" to="#808080" begin="reset.mouseover" end="reset.mouseout"/></use>
  </g>
</defs>
<script type="application/ecmascript">
var viewWidth = 1301;
var viewHeight = 238;
var sectionId = 'dynsection-0';
</script>
<script type="application/ecmascript" xlink:href="svg.min.js"/>
<svg id="graph" class="graph">
<g id="viewport">
<title>/github/workspace/include/fcarouge/typed_linear_algebra.hpp</title>
<!-- Node1 -->
<g id="Node000001" class="node">
<title>Node1</title>
<g id="a_Node000001"><a xlink:title="Typed linear algebra implementation.">
<polygon fill="#999999" stroke="#666666" points="502.88,-230 373.62,-230 373.62,-188.25 502.88,-188.25 502.88,-230"/>
<text text-anchor="start" x="381.62" y="-216.5" font-family="Helvetica,sans-Serif" font-size="10.00">/github/workspace/include</text>
<text text-anchor="start" x="381.62" y="-205.25" font-family="Helvetica,sans-Serif" font-size="10.00">/fcarouge/typed_linear</text>
<text text-anchor="middle" x="438.25" y="-194" font-family="Helvetica,sans-Serif" font-size="10.00">_algebra.hpp</text>
</a>
</g>
</g>
<!-- Node2 -->
<g id="Node000002" class="node">
<title>Node2</title>
<g id="a_Node000002"><a xlink:href="typed__linear__algebra__forward_8hpp.xhtml" target="_top" xlink:title="Authoritative forward declaration header.">
<polygon fill="white" stroke="#666666" points="104.5,-146.62 0,-146.62 0,-116.12 104.5,-116.12 104.5,-146.62"/>
<text text-anchor="start" x="8" y="-133.12" font-family="Helvetica,sans-Serif" font-size="10.00">typed_linear_algebra</text>
<text text-anchor="middle" x="52.25" y="-121.88" font-family="Helvetica,sans-Serif" font-size="10.00">_forward.hpp</text>
</a>
</g>
</g>
<!-- Node1&#45;&gt;Node2 -->
<g id="edge1_Node000001_Node000002" class="edge">
<title>Node1&#45;&gt;Node2</title>
<g id="a_edge1_Node000001_Node000002"><a xlink:title=" ">
<path fill="none" stroke="#63b8ff" d="M373.13,-199.09C308.14,-189.53 205.64,-172.96 118.25,-152.25 115.35,-151.56 112.39,-150.82 109.4,-150.04"/>
<polygon fill="#63b8ff" stroke="#63b8ff" points="110.6,-146.74 100.04,-147.48 108.76,-153.49 110.6,-146.74"/>
</a>
</g>
</g>
<!-- Node3 -->
<g id="Node000003" class="node">
<title>Node3</title>
<g id="a_Node000003"><a xlink:href="format_8hpp.xhtml" target="_top" xlink:title="Formatting support for the typed matrix.">
<polygon fill="white" stroke="#666666" points="340.5,-146.62 236,-146.62 236,-116.12 340.5,-116.12 340.5,-146.62"/>
<text text-anchor="start" x="244" y="-133.12" font-family="Helvetica,sans-Serif" font-size="10.00">typed_linear_algebra</text>
<text text-anchor="middle" x="288.25" y="-121.88" font-family="Helvetica,sans-Serif" font-size="10.00">_internal/format.hpp</text>
</a>
</g>
</g>
<!-- Node1&#45;&gt;Node3 -->
<g id="edge2_Node000001_Node000003" class="edge">
<title>Node1&#45;&gt;Node3</title>
<g id="a_edge2_Node000001_Node000003"><a xlink:title=" ">
<path fill="none" stroke="#63b8ff" d="M398.05,-187.83C376.13,-176.75 349.1,-163.11 327.35,-152.12"/>
<polygon fill="#63b8ff" stroke="#63b8ff" points="329,-149.03 318.49,-147.65 325.84,-155.28 329,-149.03"/>
</a>
</g>
</g>
<!-- Node4 -->
<g id="Node000004" class="node">
<title>Node4</title>
<g id="a_Node000004"><a xlink:href="utility_8hpp.xhtml" target="_top" xlink:title=" ">
<polygon fill="white" stroke="#666666" points="265.5,-74.5 209,-74.5 209,-55.25 265.5,-55.25 265.5,-74.5"/>
<text text-anchor="middle" x="237.25" y="-61" font-family="Helvetica,sans-Serif" font-size="10.00">utility.hpp</text>
</a>
</g>
</g>
<!-- Node1&#45;&gt;Node4 -->
<g id="edge10_Node000001_Node000004" class="edge">
<title>Node1&#45;&gt;Node4</title>
<g id="a_edge10_Node000001_Node000004"><a xlink:title=" ">
<path fill="none" stroke="#63b8ff" d="M373.2,-199.64C318.02,-190.95 245.08,-175.41 227.25,-152.25 212.53,-133.13 220.09,-104.22 227.85,-85.19"/>
<polygon fill="#63b8ff" stroke="#63b8ff" points="230.99,-86.74 231.88,-76.18 224.6,-83.87 230.99,-86.74"/>
</a>
</g>
</g>
<!-- Node5 -->
<g id="Node000005" class="node">
<title>Node5</title>
<g id="a_Node000005"><a xlink:title=" ">
<polygon fill="#e0e0e0" stroke="#999999" points="147.12,-19.25 91.38,-19.25 91.38,0 147.12,0 147.12,-19.25"/>
<text text-anchor="middle" x="119.25" y="-5.75" font-family="Helvetica,sans-Serif" font-size="10.00">concepts</text>
</a>
</g>
</g>
<!-- Node1&#45;&gt;Node5 -->
<g id="edge11_Node000001_Node000005" class="edge">
<title>Node1&#45;&gt;Node5</title>
<g id="a_edge11_Node000001_Node000005"><a xlink:title=" ">
<path fill="none" stroke="#63b8ff" d="M373.33,-200.19C308.85,-191.19 215.61,-174.77 187.25,-152.25 148.01,-121.09 130.07,-61.73 123.07,-30.68"/>
<polygon fill="#63b8ff" stroke="#63b8ff" points="126.54,-30.17 121.08,-21.09 119.68,-31.59 126.54,-30.17"/>
</a>
</g>
</g>
<!-- Node7 -->
<g id="Node000007" class="node">
<title>Node7</title>
<g id="a_Node000007"><a xlink:title=" ">
<polygon fill="#e0e0e0" stroke="#999999" points="201.75,-19.25 164.75,-19.25 164.75,0 201.75,0 201.75,-19.25"/>
<text text-anchor="middle" x="183.25" y="-5.75" font-family="Helvetica,sans-Serif" font-size="10.00">tuple</text>
</a>
</g>
</g>
<!-- Node1&#45;&gt;Node7 -->
<g id="edge15_Node000001_Node000007" class="edge">
<title>Node1&#45;&gt;Node7</title>
<g id="a_edge15_Node000001_Node000007"><a xlink:title=" ">
<path fill="none" stroke="#63b8ff" d="M373.26,-199.49C315.56,-190.5 237.08,-174.59 215.25,-152.25 183.19,-119.43 180.54,-61.7 181.69,-31.06"/>
<polygon fill="#63b8ff" stroke="#63b8ff" points="185.17,-31.43 182.25,-21.25 178.18,-31.03 185.17,-31.43"/>
</a>
</g>
</g>
<!-- Node9 -->
<g id="Node000009" class="node">
<title>Node9</title>
<g id="a_Node000009"><a xlink:title=" ">
<polygon fill="#e0e0e0" stroke="#999999" points="348.38,-74.5 300.12,-74.5 300.12,-55.25 348.38,-55.25 348.38,-74.5"/>
<text text-anchor="middle" x="324.25" y="-61" font-family="Helvetica,sans-Serif" font-size="10.00">cstddef</text>
</a>
</g>
</g>
<!-- Node1&#45;&gt;Node9 -->
<g id="edge12_Node000001_Node000009" class="edge">
<title>Node1&#45;&gt;Node9</title>
<g id="a_edge12_Node000001_Node000009"><a xlink:title=" ">
<path fill="none" stroke="#63b8ff" d="M422.16,-188.05C399.85,-160.2 359.85,-110.3 338.54,-83.71"/>
<polygon fill="#63b8ff" stroke="#63b8ff" points="341.29,-81.55 332.31,-75.93 335.83,-85.92 341.29,-81.55"/>
</a>
</g>
</g>
<!-- Node10 -->
<g id="Node000010" class="node">
<title>Node10</title>
<g id="a_Node000010"><a xlink:title=" ">
<polygon fill="#e0e0e0" stroke="#999999" points="419.12,-74.5 375.38,-74.5 375.38,-55.25 419.12,-55.25 419.12,-74.5"/>
<text text-anchor="middle" x="397.25" y="-61" font-family="Helvetica,sans-Serif" font-size="10.00">format</text>
</a>
</g>
</g>
<!-- Node1&#45;&gt;Node10 -->
<g id="edge13_Node000001_Node000010" class="edge">
<title>Node1&#45;&gt;Node10</title>
<g id="a_edge13_Node000001_Node000010"><a xlink:title=" ">
<path fill="none" stroke="#63b8ff" d="M432.46,-188.05C424.61,-160.82 410.69,-112.49 402.91,-85.5"/>
<polygon fill="#63b8ff" stroke="#63b8ff" points="406.36,-84.84 400.23,-76.21 399.63,-86.78 406.36,-84.84"/>
</a>
</g>
</g>
<!-- Node11 -->
<g id="Node000011" class="node">
<title>Node11</title>
<g id="a_Node000011"><a xlink:title=" ">
<polygon fill="#e0e0e0" stroke="#999999" points="506,-141 434.5,-141 434.5,-121.75 506,-121.75 506,-141"/>
<text text-anchor="middle" x="470.25" y="-127.5" font-family="Helvetica,sans-Serif" font-size="10.00">initializer_list</text>
</a>
</g>
</g>
<!-- Node1&#45;&gt;Node11 -->
<g id="edge14_Node000001_Node000011" class="edge">
<title>Node1&#45;&gt;Node11</title>
<g id="a_edge14_Node000001_Node000011"><a xlink:title=" ">
<path fill="none" stroke="#63b8ff" d="M446.83,-187.83C451.55,-176.64 457.39,-162.82 462.05,-151.78"/>
<polygon fill="#63b8ff" stroke="#63b8ff" points="465.14,-153.47 465.81,-142.89 458.69,-150.74 465.14,-153.47"/>
</a>
</g>
</g>
<!-- Node12 -->
<g id="Node000012" class="node">
<title>Node12</title>
<g id="a_Node000012"><a xlink:title=" ">
<polygon fill="#e0e0e0" stroke="#999999" points="562.5,-141 524,-141 524,-121.75 562.5,-121.75 562.5,-141"/>
<text text-anchor="middle" x="543.25" y="-127.5" font-family="Helvetica,sans-Serif" font-size="10.00">utility</text>
</a>
</g>
</g>
<!-- Node1&#45;&gt;Node12 -->
<g id="edge16_Node000001_Node000012" class="edge">
<title>Node1&#45;&gt;Node12</title>
<g id="a_edge16_Node000001_Node000012"><a xlink:title=" ">
<path fill="none" stroke="#63b8ff" d="M466.39,-187.83C483.69,-175.34 505.54,-159.58 521.51,-148.06"/>
<polygon fill="#63b8ff" stroke="#63b8ff" points="523.31,-151.07 529.38,-142.38 519.22,-145.4 523.31,-151.07"/>
</a>
</g>
</g>
<!-- Node13 -->
<g id="Node000013" class="node">
<title>Node13</title>
<g id="a_Node000013"><a xlink:title=" ">
<polygon fill="#e0e0e0" stroke="#999999" points="735.62,-146.62 580.88,-146.62 580.88,-116.12 735.62,-116.12 735.62,-146.62"/>
<text text-anchor="start" x="588.88" y="-133.12" font-family="Helvetica,sans-Serif" font-size="10.00">typed_linear_algebra</text>
<text text-anchor="middle" x="658.25" y="-121.88" font-family="Helvetica,sans-Serif" font-size="10.00">_internal/algorithm/substract.tpp</text>
</a>
</g>
</g>
<!-- Node1&#45;&gt;Node13 -->
<g id="edge17_Node000001_Node000013" class="edge">
<title>Node1&#45;&gt;Node13</title>
<g id="a_edge17_Node000001_Node000013"><a xlink:title=" ">
<path fill="none" stroke="#63b8ff" d="M497.21,-187.83C530.71,-176.29 572.33,-161.96 604.87,-150.75"/>
<polygon fill="#63b8ff" stroke="#63b8ff" points="605.79,-154.14 614.1,-147.58 603.51,-147.52 605.79,-154.14"/>
</a>
</g>
</g>
<!-- Node14 -->
<g id="Node000014" class="node">
<title>Node14</title>
<g id="a_Node000014"><a xlink:title=" ">
<polygon fill="#e0e0e0" stroke="#999999" points="916.38,-146.62 754.12,-146.62 754.12,-116.12 916.38,-116.12 916.38,-146.62"/>
<text text-anchor="start" x="762.12" y="-133.12" font-family="Helvetica,sans-Serif" font-size="10.00">typed_linear_algebra</text>
<text text-anchor="middle" x="835.25" y="-121.88" font-family="Helvetica,sans-Serif" font-size="10.00">_internal/algorithm/transposed.tpp</text>
</a>
</g>
</g>
<!-- Node1&#45;&gt;Node14 -->
<g id="edge18_Node000001_Node000014" class="edge">
<title>Node1&#45;&gt;Node14</title>
<g id="a_edge18_Node000001_Node000014"><a xlink:title=" ">
<path fill="none" stroke="#63b8ff" d="M503.14,-196.94C565.17,-186.1 661.25,-168.89 744.25,-152.25 748.8,-151.34 753.47,-150.38 758.18,-149.4"/>
<polygon fill="#63b8ff" stroke="#63b8ff" points="758.66,-152.88 767.72,-147.39 757.21,-146.03 758.66,-152.88"/>
</a>
</g>
</g>
<!-- Node15 -->
<g id="Node000015" class="node">
<title>Node15</title>
<g id="a_Node000015"><a xlink:title=" ">
<polygon fill="#e0e0e0" stroke="#999999" points="1038.5,-146.62 934,-146.62 934,-116.12 1038.5,-116.12 1038.5,-146.62"/>
<text text-anchor="start" x="942" y="-133.12" font-family="Helvetica,sans-Serif" font-size="10.00">typed_linear_algebra</text>
<text text-anchor="middle" x="986.25" y="-121.88" font-family="Helvetica,sans-Serif" font-size="10.00">_internal/cast.tpp</text>
</a>
</g>
</g>
<!-- Node1&#45;&gt;Node15 -->
<g id="edge19_Node000001_Node000015" class="edge">
<title>Node1&#45;&gt;Node15</title>
<g id="a_edge19_Node000001_Node000015"><a xlink:title=" ">
<path fill="none" stroke="#63b8ff" d="M503.13,-204.83C597.12,-199.12 776.2,-184.74 925.25,-152.25 928.16,-151.62 931.13,-150.9 934.11,-150.12"/>
<polygon fill="#63b8ff" stroke="#63b8ff" points="934.75,-153.57 943.43,-147.49 932.85,-146.84 934.75,-153.57"/>
</a>
</g>
</g>
<!-- Node16 -->
<g id="Node000016" class="node">
<title>Node16</title>
<g id="a_Node000016"><a xlink:title=" ">
<polygon fill="#e0e0e0" stroke="#999999" points="1167.88,-146.62 1056.62,-146.62 1056.62,-116.12 1167.88,-116.12 1167.88,-146.62"/>
<text text-anchor="start" x="1064.62" y="-133.12" font-family="Helvetica,sans-Serif" font-size="10.00">typed_linear_algebra</text>
<text text-anchor="middle" x="1112.25" y="-121.88" font-family="Helvetica,sans-Serif" font-size="10.00">_internal/operation.tpp</text>
</a>
</g>
</g>
<!-- Node1&#45;&gt;Node16 -->
<g id="edge20_Node000001_Node000016" class="edge">
<title>Node1&#45;&gt;Node16</title>
<g id="a_edge20_Node000001_Node000016"><a xlink:title=" ">
<path fill="none" stroke="#63b8ff" d="M503.32,-206.53C615.39,-202.81 851.65,-190.7 1047.25,-152.25 1050.62,-151.59 1054.05,-150.82 1057.51,-149.98"/>
<polygon fill="#63b8ff" stroke="#63b8ff" points="1058.26,-153.4 1067.04,-147.47 1056.48,-146.63 1058.26,-153.4"/>
</a>
</g>
</g>
<!-- Node17 -->
<g id="Node000017" class="node">
<title>Node17</title>
<g id="a_Node000017"><a xlink:title=" ">
<polygon fill="#e0e0e0" stroke="#999999" points="1293,-152.25 1185.5,-152.25 1185.5,-110.5 1293,-110.5 1293,-152.25"/>
<text text-anchor="start" x="1193.5" y="-138.75" font-family="Helvetica,sans-Serif" font-size="10.00">typed_linear_algebra</text>
<text text-anchor="start" x="1193.5" y="-127.5" font-family="Helvetica,sans-Serif" font-size="10.00">_internal/typed_linear</text>
<text text-anchor="middle" x="1239.25" y="-116.25" font-family="Helvetica,sans-Serif" font-size="10.00">_algebra.tpp</text>
</a>
</g>
</g>
<!-- Node1&#45;&gt;Node17 -->
<g id="edge21_Node000001_Node000017" class="edge">
<title>Node1&#45;&gt;Node17</title>
<g id="a_edge21_Node000001_Node000017"><a xlink:title=" ">
<path fill="none" stroke="#63b8ff" d="M503.18,-208.3C630.76,-207.56 922.91,-200.42 1173.84,-152.71"/>
<polygon fill="#63b8ff" stroke="#63b8ff" points="1174.36,-156.18 1183.52,-150.85 1173.03,-149.31 1174.36,-156.18"/>
</a>
</g>
</g>
<!-- Node3&#45;&gt;Node4 -->
<g id="edge3_Node000003_Node000004" class="edge">
<title>Node3&#45;&gt;Node4</title>
<g id="a_edge3_Node000003_Node000004"><a xlink:title=" ">
<path fill="none" stroke="#63b8ff" d="M276.68,-115.74C269.11,-106.16 259.17,-93.6 251.17,-83.48"/>
<polygon fill="#63b8ff" stroke="#63b8ff" points="254.11,-81.56 245.16,-75.88 248.62,-85.9 254.11,-81.56"/>
</a>
</g>
</g>
<!-- Node3&#45;&gt;Node9 -->
<g id="edge8_Node000003_Node000009" class="edge">
<title>Node3&#45;&gt;Node9</title>
<g id="a_edge8_Node000003_Node000009"><a xlink:title=" ">
<path fill="none" stroke="#63b8ff" d="M296.42,-115.74C301.54,-106.56 308.2,-94.63 313.72,-84.74"/>
<polygon fill="#63b8ff" stroke="#63b8ff" points="316.77,-86.46 318.59,-76.02 310.66,-83.05 316.77,-86.46"/>
</a>
</g>
</g>
<!-- Node3&#45;&gt;Node10 -->
<g id="edge9_Node000003_Node000010" class="edge">
<title>Node3&#45;&gt;Node10</title>
<g id="a_edge9_Node000003_Node000010"><a xlink:title=" ">
<path fill="none" stroke="#63b8ff" d="M312.98,-115.74C330.73,-105.24 354.55,-91.14 372.34,-80.62"/>
<polygon fill="#63b8ff" stroke="#63b8ff" points="373.9,-83.76 380.72,-75.66 370.33,-77.74 373.9,-83.76"/>
</a>
</g>
</g>
<!-- Node4&#45;&gt;Node5 -->
<g id="edge4_Node000004_Node000005" class="edge">
<title>Node4&#45;&gt;Node5</title>
<g id="a_edge4_Node000004_Node000005"><a xlink:title=" ">
<path fill="none" stroke="#63b8ff" d="M217.23,-54.84C198.76,-46.5 171.04,-34 149.8,-24.41"/>
<polygon fill="#63b8ff" stroke="#63b8ff" points="151.3,-21.25 140.74,-20.33 148.42,-27.63 151.3,-21.25"/>
</a>
</g>
</g>
<!-- Node6 -->
<g id="Node000006" class="node">
<title>Node6</title>
<g id="a_Node000006"><a xlink:title=" ">
<polygon fill="#e0e0e0" stroke="#999999" points="278.25,-19.25 220.25,-19.25 220.25,0 278.25,0 278.25,-19.25"/>
<text text-anchor="middle" x="249.25" y="-5.75" font-family="Helvetica,sans-Serif" font-size="10.00">functional</text>
</a>
</g>
</g>
<!-- Node4&#45;&gt;Node6 -->
<g id="edge5_Node000004_Node000006" class="edge">
<title>Node4&#45;&gt;Node6</title>
<g id="a_edge5_Node000004_Node000006"><a xlink:title=" ">
<path fill="none" stroke="#63b8ff" d="M239.23,-55.08C240.72,-48.49 242.81,-39.21 244.7,-30.82"/>
<polygon fill="#63b8ff" stroke="#63b8ff" points="248.11,-31.61 246.89,-21.09 241.28,-30.07 248.11,-31.61"/>
</a>
</g>
</g>
<!-- Node4&#45;&gt;Node7 -->
<g id="edge6_Node000004_Node000007" class="edge">
<title>Node4&#45;&gt;Node7</title>
<g id="a_edge6_Node000004_Node000007"><a xlink:title=" ">
<path fill="none" stroke="#63b8ff" d="M228.33,-55.08C220.8,-47.65 209.78,-36.79 200.52,-27.66"/>
<polygon fill="#63b8ff" stroke="#63b8ff" points="203.02,-25.2 193.44,-20.67 198.1,-30.19 203.02,-25.2"/>
</a>
</g>
</g>
<!-- Node8 -->
<g id="Node000008" class="node">
<title>Node8</title>
<g id="a_Node000008"><a xlink:title=" ">
<polygon fill="#e0e0e0" stroke="#999999" points="357.75,-19.25 296.75,-19.25 296.75,0 357.75,0 357.75,-19.25"/>
<text text-anchor="middle" x="327.25" y="-5.75" font-family="Helvetica,sans-Serif" font-size="10.00">type_traits</text>
</a>
</g>
</g>
<!-- Node4&#45;&gt;Node8 -->
<g id="edge7_Node000004_Node000008" class="edge">
<title>Node4&#45;&gt;Node8</title>
<g id="a_edge7_Node000004_Node000008"><a xlink:title=" ">
<path fill="none" stroke="#63b8ff" d="M252.52,-54.84C266.09,-46.81 286.2,-34.91 302.15,-25.48"/>
<polygon fill="#63b8ff" stroke="#63b8ff" points="303.78,-28.58 310.61,-20.47 300.22,-22.55 303.78,-28.58"/>
</a>
</g>
</g>
</g>
</svg>

<g id="navigator" transform="translate(0 0)" fill="#404254">
  <rect fill="#f2f5e9" fill-opacity="0.5" stroke="#606060" stroke-width=".5" x="0" y="0" width="60" height="60"/>
  <use id="zoomplus" xlink:href="#zoomPlus" x="17" y="9" onmousedown="handleZoom(evt,'in')"/>
  <use id="zoomminus" xlink:href="#zoomMin" x="42" y="9" onmousedown="handleZoom(evt,'out')"/>
  <use id="reset" xlink:href="#resetDef" x="30" y="36" onmousedown="handleReset()"/>
   <use id="arrowup" xlink:href="#arrowUp" x="0" y="0" onmousedown="handlePan(0,-1)"/>
  <use id="arrowright" xlink:href="#arrowRight" x="0" y="0" onmousedown="handlePan(1,0)"/>
  <use id="arrowdown" xlink:href="#arrowDown" x="0" y="0" onmousedown="handlePan(0,1)"/>
  <use id="arrowleft" xlink:href="#arrowLeft" x="0" y="0" onmousedown="handlePan(-1,0)"/>
</g>
<svg viewBox="0 0 15 15" width="100%" height="30px" preserveAspectRatio="xMaxYMin meet">
 <g id="arrow_out" transform="scale(0.3 0.3)">
  <a xlink:href="typed__linear__algebra_8hpp__incl_org.svg" target="_base">
   <rect id="button" ry="5" rx="5" y="6" x="6" height="38" width="38"
        fill="#f2f5e9" fill-opacity="0.5" stroke="#606060" stroke-width="1.0"/>
   <path id="arrow"
     d="M 11.500037,31.436501 C 11.940474,20.09759 22.043105,11.32322 32.158766,21.979434 L 37.068811,17.246167 C 37.068811,17.246167 37.088388,32 37.088388,32 L 22.160133,31.978069 C 22.160133,31.978069 26.997745,27.140456 26.997745,27.140456 C 18.528582,18.264221 13.291696,25.230495 11.500037,31.436501 z"
     style="fill:#404040;"/>
  </a>
 </g>
</svg>

<style type='text/css'>
<![CDATA[
[data-mouse-over-selected='false'] { opacity: 0.7; }
[data-mouse-over-selected='true']  { opacity: 1.0; }
]]>
</style>
<script type="application/ecmascript"><![CDATA[
document.addEventListener('DOMContentLoaded', (event) => {
  highlightEdges();
  highlightAdjacentNodes();
});
]]></script>
</svg>
