<?xml version="1.0" encoding="UTF-8" standalone="no"?>
<!DOCTYPE svg PUBLIC "-//W3C//DTD SVG 1.1//EN"
 "http://www.w3.org/Graphics/SVG/1.1/DTD/svg11.dtd">
<!-- Generated by graphviz version 12.2.0 (20241103.1931)
 -->
<!-- Title: /github/workspace/include/fcarouge/typed_linear_algebra.hpp Pages: 1 -->
<!--zoomable 249 -->

<svg id="main" version="1.1" xmlns="http://www.w3.org/2000/svg" xmlns:xlink="http://www.w3.org/1999/xlink" xml:space="preserve" onload="init(evt)">

<style type="text/css"><![CDATA[
.node, .edge {opacity: 0.7;}
.node.selected, .edge.selected {opacity: 1;}
.edge:hover path { stroke: red; }
.edge:hover polygon { stroke: red; fill: red; }
]]></style>

<defs>
  <circle id="rim" cx="0" cy="0" r="7"/>
  <circle id="rim2" cx="0" cy="0" r="3.5"/>
  <g id="zoomPlus">
    <use xlink:href="#rim" fill="#404040"><set attributeName="fill" to="#808080" begin="zoomplus.mouseover" end="zoomplus.mouseout"/></use>
    <path d="M-4,0h8M0,-4v8" fill="none" stroke="white" stroke-width="1.5" pointer-events="none"/>
  </g>
  <g id="zoomMin">
    <use xlink:href="#rim" fill="#404040"><set attributeName="fill" to="#808080" begin="zoomminus.mouseover" end="zoomminus.mouseout"/></use>
    <path d="M-4,0h8" fill="none" stroke="white" stroke-width="1.5" pointer-events="none"/>
  </g>
  <g id="arrowUp" transform="translate(30 24)">
    <use xlink:href="#rim"/>
    <path pointer-events="none" fill="none" stroke="white" stroke-width="1.5" d="M0,-3.0v7 M-2.5,-0.5L0,-3.0L2.5,-0.5"/>
  </g>
  <g id="arrowRight" transform="rotate(90) translate(36 -43)">
    <use xlink:href="#rim"/>
    <path pointer-events="none" fill="none" stroke="white" stroke-width="1.5" d="M0,-3.0v7 M-2.5,-0.5L0,-3.0L2.5,-0.5"/>
  </g>
  <g id="arrowDown" transform="rotate(180) translate(-30 -48)">
    <use xlink:href="#rim"/>
    <path pointer-events="none" fill="none" stroke="white" stroke-width="1.5" d="M0,-3.0v7 M-2.5,-0.5L0,-3.0L2.5,-0.5"/>
  </g>
  <g id="arrowLeft" transform="rotate(270) translate(-36 17)">
    <use xlink:href="#rim"/>
    <path pointer-events="none" fill="none" stroke="white" stroke-width="1.5" d="M0,-3.0v7 M-2.5,-0.5L0,-3.0L2.5,-0.5"/>
  </g>
  <g id="resetDef">
    <use xlink:href="#rim2" fill="#404040"><set attributeName="fill" to="#808080" begin="reset.mouseover" end="reset.mouseout"/></use>
  </g>
</defs>
<script type="application/ecmascript">
var viewWidth = 2221;
var viewHeight = 249;
var sectionId = 'dynsection-0';
</script>
<script type="application/ecmascript" xlink:href="svg.min.js"/>
<svg id="graph" class="graph">
<g id="viewport">
<title>/github/workspace/include/fcarouge/typed_linear_algebra.hpp</title>
<!-- Node1 -->
<g id="Node000001" class="node">
<title>Node1</title>
<g id="a_Node000001"><a xlink:title="Typed linear algebra implementation.">
<polygon fill="#999999" stroke="#666666" points="803.88,-241.25 674.62,-241.25 674.62,-199.5 803.88,-199.5 803.88,-241.25"/>
<text text-anchor="start" x="682.62" y="-227.75" font-family="Helvetica,sans-Serif" font-size="10.00">/github/workspace/include</text>
<text text-anchor="start" x="682.62" y="-216.5" font-family="Helvetica,sans-Serif" font-size="10.00">/fcarouge/typed_linear</text>
<text text-anchor="middle" x="739.25" y="-205.25" font-family="Helvetica,sans-Serif" font-size="10.00">_algebra.hpp</text>
</a>
</g>
</g>
<!-- Node2 -->
<g id="Node000002" class="node">
<title>Node2</title>
<g id="a_Node000002"><a xlink:href="typed__linear__algebra__forward_8hpp.xhtml" target="_top" xlink:title="Authoritative forward declaration header.">
<polygon fill="white" stroke="#666666" points="104.5,-30.5 0,-30.5 0,0 104.5,0 104.5,-30.5"/>
<text text-anchor="start" x="8" y="-17" font-family="Helvetica,sans-Serif" font-size="10.00">typed_linear_algebra</text>
<text text-anchor="middle" x="52.25" y="-5.75" font-family="Helvetica,sans-Serif" font-size="10.00">_forward.hpp</text>
</a>
</g>
</g>
<!-- Node1&#45;&gt;Node2 -->
<g id="edge1_Node000001_Node000002" class="edge">
<title>Node1&#45;&gt;Node2</title>
<g id="a_edge1_Node000001_Node000002"><a xlink:title=" ">
<path fill="none" stroke="#63b8ff" d="M674.19,-219.59C542.26,-218.97 248.41,-212.02 162.25,-163.5 112.57,-135.53 78.66,-74.88 62.7,-40.79"/>
<polygon fill="#63b8ff" stroke="#63b8ff" points="66.08,-39.78 58.78,-32.11 59.71,-42.66 66.08,-39.78"/>
</a>
</g>
</g>
<!-- Node3 -->
<g id="Node000003" class="node">
<title>Node3</title>
<g id="a_Node000003"><a xlink:href="format_8hpp.xhtml" target="_top" xlink:title="Formatting support for the typed matrix.">
<polygon fill="white" stroke="#666666" points="320.5,-157.88 216,-157.88 216,-127.38 320.5,-127.38 320.5,-157.88"/>
<text text-anchor="start" x="224" y="-144.38" font-family="Helvetica,sans-Serif" font-size="10.00">typed_linear_algebra</text>
<text text-anchor="middle" x="268.25" y="-133.12" font-family="Helvetica,sans-Serif" font-size="10.00">_internal/format.hpp</text>
</a>
</g>
</g>
<!-- Node1&#45;&gt;Node3 -->
<g id="edge2_Node000001_Node000003" class="edge">
<title>Node1&#45;&gt;Node3</title>
<g id="a_edge2_Node000001_Node000003"><a xlink:title=" ">
<path fill="none" stroke="#63b8ff" d="M674.17,-213.54C593.7,-205.61 452.83,-189.37 334.25,-163.5 331.13,-162.82 327.94,-162.06 324.73,-161.26"/>
<polygon fill="#63b8ff" stroke="#63b8ff" points="325.84,-157.93 315.27,-158.74 324.03,-164.69 325.84,-157.93"/>
</a>
</g>
</g>
<!-- Node4 -->
<g id="Node000004" class="node">
<title>Node4</title>
<g id="a_Node000004"><a xlink:href="utility_8hpp.xhtml" target="_top" xlink:title=" ">
<polygon fill="white" stroke="#666666" points="254.5,-85.75 198,-85.75 198,-66.5 254.5,-66.5 254.5,-85.75"/>
<text text-anchor="middle" x="226.25" y="-72.25" font-family="Helvetica,sans-Serif" font-size="10.00">utility.hpp</text>
</a>
</g>
</g>
<!-- Node1&#45;&gt;Node4 -->
<g id="edge12_Node000001_Node000004" class="edge">
<title>Node1&#45;&gt;Node4</title>
<g id="a_edge12_Node000001_Node000004"><a xlink:title=" ">
<path fill="none" stroke="#63b8ff" d="M674.18,-217.32C539.05,-212.39 237.99,-197.64 207.25,-163.5 190.6,-145.01 202.65,-115.3 213.73,-96"/>
<polygon fill="#63b8ff" stroke="#63b8ff" points="216.69,-97.88 218.97,-87.53 210.73,-94.2 216.69,-97.88"/>
</a>
</g>
</g>
<!-- Node5 -->
<g id="Node000005" class="node">
<title>Node5</title>
<g id="a_Node000005"><a xlink:title=" ">
<polygon fill="#e0e0e0" stroke="#999999" points="178.12,-24.88 122.38,-24.88 122.38,-5.63 178.12,-5.63 178.12,-24.88"/>
<text text-anchor="middle" x="150.25" y="-11.38" font-family="Helvetica,sans-Serif" font-size="10.00">concepts</text>
</a>
</g>
</g>
<!-- Node1&#45;&gt;Node5 -->
<g id="edge13_Node000001_Node000005" class="edge">
<title>Node1&#45;&gt;Node5</title>
<g id="a_edge13_Node000001_Node000005"><a xlink:title=" ">
<path fill="none" stroke="#63b8ff" d="M674.24,-216.69C537.89,-210.49 231.59,-193.39 195.25,-163.5 156.97,-132.02 150.54,-68.91 149.9,-36.49"/>
<polygon fill="#63b8ff" stroke="#63b8ff" points="153.4,-36.86 149.89,-26.86 146.4,-36.87 153.4,-36.86"/>
</a>
</g>
</g>
<!-- Node6 -->
<g id="Node000006" class="node">
<title>Node6</title>
<g id="a_Node000006"><a xlink:title=" ">
<polygon fill="#e0e0e0" stroke="#999999" points="400.38,-24.88 352.12,-24.88 352.12,-5.63 400.38,-5.63 400.38,-24.88"/>
<text text-anchor="middle" x="376.25" y="-11.38" font-family="Helvetica,sans-Serif" font-size="10.00">cstddef</text>
</a>
</g>
</g>
<!-- Node1&#45;&gt;Node6 -->
<g id="edge14_Node000001_Node000006" class="edge">
<title>Node1&#45;&gt;Node6</title>
<g id="a_edge14_Node000001_Node000006"><a xlink:title=" ">
<path fill="none" stroke="#63b8ff" d="M674.22,-215.84C592.33,-210.09 457.89,-195.9 421.25,-163.5 384.29,-130.82 377.23,-68.72 376.17,-36.61"/>
<polygon fill="#63b8ff" stroke="#63b8ff" points="379.67,-36.67 376.03,-26.72 372.67,-36.76 379.67,-36.67"/>
</a>
</g>
</g>
<!-- Node8 -->
<g id="Node000008" class="node">
<title>Node8</title>
<g id="a_Node000008"><a xlink:title=" ">
<polygon fill="#e0e0e0" stroke="#999999" points="455.75,-24.88 418.75,-24.88 418.75,-5.63 455.75,-5.63 455.75,-24.88"/>
<text text-anchor="middle" x="437.25" y="-11.38" font-family="Helvetica,sans-Serif" font-size="10.00">tuple</text>
</a>
</g>
</g>
<!-- Node1&#45;&gt;Node8 -->
<g id="edge17_Node000001_Node000008" class="edge">
<title>Node1&#45;&gt;Node8</title>
<g id="a_edge17_Node000001_Node000008"><a xlink:title=" ">
<path fill="none" stroke="#63b8ff" d="M674.39,-216.29C596.52,-211.1 472.69,-197.58 443.25,-163.5 412.39,-127.78 422.9,-67.06 431.17,-35.93"/>
<polygon fill="#63b8ff" stroke="#63b8ff" points="434.43,-37.26 433.83,-26.68 427.7,-35.32 434.43,-37.26"/>
</a>
</g>
</g>
<!-- Node10 -->
<g id="Node000010" class="node">
<title>Node10</title>
<g id="a_Node000010"><a xlink:title=" ">
<polygon fill="#e0e0e0" stroke="#999999" points="357.12,-85.75 313.38,-85.75 313.38,-66.5 357.12,-66.5 357.12,-85.75"/>
<text text-anchor="middle" x="335.25" y="-72.25" font-family="Helvetica,sans-Serif" font-size="10.00">format</text>
</a>
</g>
</g>
<!-- Node1&#45;&gt;Node10 -->
<g id="edge15_Node000001_Node000010" class="edge">
<title>Node1&#45;&gt;Node10</title>
<g id="a_edge15_Node000001_Node000010"><a xlink:title=" ">
<path fill="none" stroke="#63b8ff" d="M674.32,-216.95C581.83,-212.27 418.25,-199.1 372.25,-163.5 351.51,-147.45 342.23,-117.51 338.19,-97.44"/>
<polygon fill="#63b8ff" stroke="#63b8ff" points="341.66,-96.94 336.52,-87.68 334.76,-98.12 341.66,-96.94"/>
</a>
</g>
</g>
<!-- Node11 -->
<g id="Node000011" class="node">
<title>Node11</title>
<g id="a_Node000011"><a xlink:title=" ">
<polygon fill="#e0e0e0" stroke="#999999" points="524,-152.25 452.5,-152.25 452.5,-133 524,-133 524,-152.25"/>
<text text-anchor="middle" x="488.25" y="-138.75" font-family="Helvetica,sans-Serif" font-size="10.00">initializer_list</text>
</a>
</g>
</g>
<!-- Node1&#45;&gt;Node11 -->
<g id="edge16_Node000001_Node000011" class="edge">
<title>Node1&#45;&gt;Node11</title>
<g id="a_edge16_Node000001_Node000011"><a xlink:title=" ">
<path fill="none" stroke="#63b8ff" d="M674.46,-204.47C633.49,-194.39 579.71,-179.95 533.25,-163.5 527.99,-161.64 522.49,-159.43 517.21,-157.18"/>
<polygon fill="#63b8ff" stroke="#63b8ff" points="518.77,-154.04 508.21,-153.2 515.94,-160.44 518.77,-154.04"/>
</a>
</g>
</g>
<!-- Node12 -->
<g id="Node000012" class="node">
<title>Node12</title>
<g id="a_Node000012"><a xlink:title=" ">
<polygon fill="#e0e0e0" stroke="#999999" points="580.5,-152.25 542,-152.25 542,-133 580.5,-133 580.5,-152.25"/>
<text text-anchor="middle" x="561.25" y="-138.75" font-family="Helvetica,sans-Serif" font-size="10.00">utility</text>
</a>
</g>
</g>
<!-- Node1&#45;&gt;Node12 -->
<g id="edge18_Node000001_Node000012" class="edge">
<title>Node1&#45;&gt;Node12</title>
<g id="a_edge18_Node000001_Node000012"><a xlink:title=" ">
<path fill="none" stroke="#63b8ff" d="M674.15,-199.28C647.19,-189.91 616.02,-177.67 589.25,-163.5 586.81,-162.21 584.33,-160.73 581.91,-159.17"/>
<polygon fill="#63b8ff" stroke="#63b8ff" points="583.98,-156.35 573.77,-153.52 579.98,-162.1 583.98,-156.35"/>
</a>
</g>
</g>
<!-- Node13 -->
<g id="Node000013" class="node">
<title>Node13</title>
<g id="a_Node000013"><a xlink:title=" ">
<polygon fill="#e0e0e0" stroke="#999999" points="728.25,-157.88 598.25,-157.88 598.25,-127.38 728.25,-127.38 728.25,-157.88"/>
<text text-anchor="start" x="606.25" y="-144.38" font-family="Helvetica,sans-Serif" font-size="10.00">typed_linear_algebra</text>
<text text-anchor="middle" x="663.25" y="-133.12" font-family="Helvetica,sans-Serif" font-size="10.00">_internal/algorithm/add.tpp</text>
</a>
</g>
</g>
<!-- Node1&#45;&gt;Node13 -->
<g id="edge19_Node000001_Node000013" class="edge">
<title>Node1&#45;&gt;Node13</title>
<g id="a_edge19_Node000001_Node000013"><a xlink:title=" ">
<path fill="none" stroke="#63b8ff" d="M718.88,-199.08C708.61,-188.84 696.14,-176.4 685.6,-165.9"/>
<polygon fill="#63b8ff" stroke="#63b8ff" points="688.28,-163.63 678.72,-159.05 683.34,-168.59 688.28,-163.63"/>
</a>
</g>
</g>
<!-- Node14 -->
<g id="Node000014" class="node">
<title>Node14</title>
<g id="a_Node000014"><a xlink:title=" ">
<polygon fill="#e0e0e0" stroke="#999999" points="886.12,-157.88 746.38,-157.88 746.38,-127.38 886.12,-127.38 886.12,-157.88"/>
<text text-anchor="start" x="754.38" y="-144.38" font-family="Helvetica,sans-Serif" font-size="10.00">typed_linear_algebra</text>
<text text-anchor="middle" x="816.25" y="-133.12" font-family="Helvetica,sans-Serif" font-size="10.00">_internal/algorithm/divide.tpp</text>
</a>
</g>
</g>
<!-- Node1&#45;&gt;Node14 -->
<g id="edge20_Node000001_Node000014" class="edge">
<title>Node1&#45;&gt;Node14</title>
<g id="a_edge20_Node000001_Node000014"><a xlink:title=" ">
<path fill="none" stroke="#63b8ff" d="M759.88,-199.08C770.29,-188.84 782.93,-176.4 793.6,-165.9"/>
<polygon fill="#63b8ff" stroke="#63b8ff" points="795.91,-168.55 800.58,-159.04 791,-163.56 795.91,-168.55"/>
</a>
</g>
</g>
<!-- Node15 -->
<g id="Node000015" class="node">
<title>Node15</title>
<g id="a_Node000015"><a xlink:title=" ">
<polygon fill="#e0e0e0" stroke="#999999" points="1026.12,-163.5 904.38,-163.5 904.38,-121.75 1026.12,-121.75 1026.12,-163.5"/>
<text text-anchor="start" x="912.38" y="-150" font-family="Helvetica,sans-Serif" font-size="10.00">typed_linear_algebra</text>
<text text-anchor="start" x="912.38" y="-138.75" font-family="Helvetica,sans-Serif" font-size="10.00">_internal/algorithm/equal</text>
<text text-anchor="middle" x="965.25" y="-127.5" font-family="Helvetica,sans-Serif" font-size="10.00">_to.tpp</text>
</a>
</g>
</g>
<!-- Node1&#45;&gt;Node15 -->
<g id="edge21_Node000001_Node000015" class="edge">
<title>Node1&#45;&gt;Node15</title>
<g id="a_edge21_Node000001_Node000015"><a xlink:title=" ">
<path fill="none" stroke="#63b8ff" d="M799.81,-199.08C828.69,-189.4 863.44,-177.75 893.63,-167.63"/>
<polygon fill="#63b8ff" stroke="#63b8ff" points="894.71,-170.96 903.08,-164.46 892.49,-164.32 894.71,-170.96"/>
</a>
</g>
</g>
<!-- Node16 -->
<g id="Node000016" class="node">
<title>Node16</title>
<g id="a_Node000016"><a xlink:title=" ">
<polygon fill="#e0e0e0" stroke="#999999" points="1168.62,-163.5 1043.88,-163.5 1043.88,-121.75 1168.62,-121.75 1168.62,-163.5"/>
<text text-anchor="start" x="1051.88" y="-150" font-family="Helvetica,sans-Serif" font-size="10.00">typed_linear_algebra</text>
<text text-anchor="start" x="1051.88" y="-138.75" font-family="Helvetica,sans-Serif" font-size="10.00">_internal/algorithm/matrix</text>
<text text-anchor="middle" x="1106.25" y="-127.5" font-family="Helvetica,sans-Serif" font-size="10.00">_product.tpp</text>
</a>
</g>
</g>
<!-- Node1&#45;&gt;Node16 -->
<g id="edge22_Node000001_Node000016" class="edge">
<title>Node1&#45;&gt;Node16</title>
<g id="a_edge22_Node000001_Node000016"><a xlink:title=" ">
<path fill="none" stroke="#63b8ff" d="M804.26,-208.77C861.93,-198.98 948.66,-183.34 1032.59,-164.04"/>
<polygon fill="#63b8ff" stroke="#63b8ff" points="1033.18,-167.49 1042.13,-161.82 1031.6,-160.67 1033.18,-167.49"/>
</a>
</g>
</g>
<!-- Node17 -->
<g id="Node000017" class="node">
<title>Node17</title>
<g id="a_Node000017"><a xlink:title=" ">
<polygon fill="#e0e0e0" stroke="#999999" points="1333.5,-157.88 1187,-157.88 1187,-127.38 1333.5,-127.38 1333.5,-157.88"/>
<text text-anchor="start" x="1195" y="-144.38" font-family="Helvetica,sans-Serif" font-size="10.00">typed_linear_algebra</text>
<text text-anchor="middle" x="1260.25" y="-133.12" font-family="Helvetica,sans-Serif" font-size="10.00">_internal/algorithm/product.tpp</text>
</a>
</g>
</g>
<!-- Node1&#45;&gt;Node17 -->
<g id="edge23_Node000001_Node000017" class="edge">
<title>Node1&#45;&gt;Node17</title>
<g id="a_edge23_Node000001_Node000017"><a xlink:title=" ">
<path fill="none" stroke="#63b8ff" d="M804.15,-213.31C889.96,-204.79 1045.67,-187.57 1177.25,-163.5 1181.84,-162.66 1186.56,-161.73 1191.3,-160.73"/>
<polygon fill="#63b8ff" stroke="#63b8ff" points="1191.86,-164.19 1200.89,-158.65 1190.38,-157.35 1191.86,-164.19"/>
</a>
</g>
</g>
<!-- Node18 -->
<g id="Node000018" class="node">
<title>Node18</title>
<g id="a_Node000018"><a xlink:title=" ">
<polygon fill="#e0e0e0" stroke="#999999" points="1489,-157.88 1351.5,-157.88 1351.5,-127.38 1489,-127.38 1489,-157.88"/>
<text text-anchor="start" x="1359.5" y="-144.38" font-family="Helvetica,sans-Serif" font-size="10.00">typed_linear_algebra</text>
<text text-anchor="middle" x="1420.25" y="-133.12" font-family="Helvetica,sans-Serif" font-size="10.00">_internal/algorithm/scale.tpp</text>
</a>
</g>
</g>
<!-- Node1&#45;&gt;Node18 -->
<g id="edge24_Node000001_Node000018" class="edge">
<title>Node1&#45;&gt;Node18</title>
<g id="a_edge24_Node000001_Node000018"><a xlink:title=" ">
<path fill="none" stroke="#63b8ff" d="M803.94,-216.72C914.82,-211.42 1147.99,-197.04 1342.25,-163.5 1346.82,-162.71 1351.52,-161.79 1356.23,-160.79"/>
<polygon fill="#63b8ff" stroke="#63b8ff" points="1356.74,-164.26 1365.73,-158.66 1355.2,-157.43 1356.74,-164.26"/>
</a>
</g>
</g>
<!-- Node19 -->
<g id="Node000019" class="node">
<title>Node19</title>
<g id="a_Node000019"><a xlink:title=" ">
<polygon fill="#e0e0e0" stroke="#999999" points="1661.62,-157.88 1506.88,-157.88 1506.88,-127.38 1661.62,-127.38 1661.62,-157.88"/>
<text text-anchor="start" x="1514.88" y="-144.38" font-family="Helvetica,sans-Serif" font-size="10.00">typed_linear_algebra</text>
<text text-anchor="middle" x="1584.25" y="-133.12" font-family="Helvetica,sans-Serif" font-size="10.00">_internal/algorithm/substract.tpp</text>
</a>
</g>
</g>
<!-- Node1&#45;&gt;Node19 -->
<g id="edge25_Node000001_Node000019" class="edge">
<title>Node1&#45;&gt;Node19</title>
<g id="a_edge25_Node000001_Node000019"><a xlink:title=" ">
<path fill="none" stroke="#63b8ff" d="M804.35,-217.95C936.07,-214.32 1243.34,-202.1 1498.25,-163.5 1503.79,-162.66 1509.5,-161.66 1515.22,-160.55"/>
<polygon fill="#63b8ff" stroke="#63b8ff" points="1515.61,-164.04 1524.71,-158.62 1514.21,-157.18 1515.61,-164.04"/>
</a>
</g>
</g>
<!-- Node20 -->
<g id="Node000020" class="node">
<title>Node20</title>
<g id="a_Node000020"><a xlink:title=" ">
<polygon fill="#e0e0e0" stroke="#999999" points="1842.38,-157.88 1680.12,-157.88 1680.12,-127.38 1842.38,-127.38 1842.38,-157.88"/>
<text text-anchor="start" x="1688.12" y="-144.38" font-family="Helvetica,sans-Serif" font-size="10.00">typed_linear_algebra</text>
<text text-anchor="middle" x="1761.25" y="-133.12" font-family="Helvetica,sans-Serif" font-size="10.00">_internal/algorithm/transposed.tpp</text>
</a>
</g>
</g>
<!-- Node1&#45;&gt;Node20 -->
<g id="edge26_Node000001_Node000020" class="edge">
<title>Node1&#45;&gt;Node20</title>
<g id="a_edge26_Node000001_Node000020"><a xlink:title=" ">
<path fill="none" stroke="#63b8ff" d="M804.21,-218.93C956.33,-217.15 1347.25,-208.19 1670.25,-163.5 1676.51,-162.63 1682.98,-161.57 1689.45,-160.39"/>
<polygon fill="#63b8ff" stroke="#63b8ff" points="1689.65,-163.91 1698.81,-158.59 1688.33,-157.04 1689.65,-163.91"/>
</a>
</g>
</g>
<!-- Node21 -->
<g id="Node000021" class="node">
<title>Node21</title>
<g id="a_Node000021"><a xlink:title=" ">
<polygon fill="#e0e0e0" stroke="#999999" points="1964.5,-157.88 1860,-157.88 1860,-127.38 1964.5,-127.38 1964.5,-157.88"/>
<text text-anchor="start" x="1868" y="-144.38" font-family="Helvetica,sans-Serif" font-size="10.00">typed_linear_algebra</text>
<text text-anchor="middle" x="1912.25" y="-133.12" font-family="Helvetica,sans-Serif" font-size="10.00">_internal/cast.tpp</text>
</a>
</g>
</g>
<!-- Node1&#45;&gt;Node21 -->
<g id="edge27_Node000001_Node000021" class="edge">
<title>Node1&#45;&gt;Node21</title>
<g id="a_edge27_Node000001_Node000021"><a xlink:title=" ">
<path fill="none" stroke="#63b8ff" d="M804.24,-218.36C1010.45,-214.8 1648.33,-200.97 1851.25,-163.5 1854.59,-162.88 1858,-162.13 1861.42,-161.28"/>
<polygon fill="#63b8ff" stroke="#63b8ff" points="1862.1,-164.73 1870.82,-158.71 1860.25,-157.98 1862.1,-164.73"/>
</a>
</g>
</g>
<!-- Node22 -->
<g id="Node000022" class="node">
<title>Node22</title>
<g id="a_Node000022"><a xlink:title=" ">
<polygon fill="#e0e0e0" stroke="#999999" points="2087.5,-157.88 1983,-157.88 1983,-127.38 2087.5,-127.38 2087.5,-157.88"/>
<text text-anchor="start" x="1991" y="-144.38" font-family="Helvetica,sans-Serif" font-size="10.00">typed_linear_algebra</text>
<text text-anchor="middle" x="2035.25" y="-133.12" font-family="Helvetica,sans-Serif" font-size="10.00">_internal/tuple.tpp</text>
</a>
</g>
</g>
<!-- Node1&#45;&gt;Node22 -->
<g id="edge28_Node000001_Node000022" class="edge">
<title>Node1&#45;&gt;Node22</title>
<g id="a_edge28_Node000001_Node000022"><a xlink:title=" ">
<path fill="none" stroke="#63b8ff" d="M804.29,-218.7C1025.18,-216.05 1745.55,-204.4 1973.25,-163.5 1976.64,-162.89 1980.11,-162.14 1983.58,-161.3"/>
<polygon fill="#63b8ff" stroke="#63b8ff" points="1984.41,-164.7 1993.16,-158.73 1982.59,-157.94 1984.41,-164.7"/>
</a>
</g>
</g>
<!-- Node23 -->
<g id="Node000023" class="node">
<title>Node23</title>
<g id="a_Node000023"><a xlink:title=" ">
<polygon fill="#e0e0e0" stroke="#999999" points="2213,-163.5 2105.5,-163.5 2105.5,-121.75 2213,-121.75 2213,-163.5"/>
<text text-anchor="start" x="2113.5" y="-150" font-family="Helvetica,sans-Serif" font-size="10.00">typed_linear_algebra</text>
<text text-anchor="start" x="2113.5" y="-138.75" font-family="Helvetica,sans-Serif" font-size="10.00">_internal/typed_linear</text>
<text text-anchor="middle" x="2159.25" y="-127.5" font-family="Helvetica,sans-Serif" font-size="10.00">_algebra.tpp</text>
</a>
</g>
</g>
<!-- Node1&#45;&gt;Node23 -->
<g id="edge29_Node000001_Node000023" class="edge">
<title>Node1&#45;&gt;Node23</title>
<g id="a_edge29_Node000001_Node000023"><a xlink:title=" ">
<path fill="none" stroke="#63b8ff" d="M804.14,-218.97C1035.69,-217.18 1821.49,-208.04 2094.14,-163.55"/>
<polygon fill="#63b8ff" stroke="#63b8ff" points="2094.41,-167.06 2103.69,-161.93 2093.24,-160.15 2094.41,-167.06"/>
</a>
</g>
</g>
<!-- Node3&#45;&gt;Node4 -->
<g id="edge3_Node000003_Node000004" class="edge">
<title>Node3&#45;&gt;Node4</title>
<g id="a_edge3_Node000003_Node000004"><a xlink:title=" ">
<path fill="none" stroke="#63b8ff" d="M258.72,-126.99C252.61,-117.61 244.64,-105.36 238.12,-95.35"/>
<polygon fill="#63b8ff" stroke="#63b8ff" points="241.21,-93.69 232.82,-87.22 235.34,-97.51 241.21,-93.69"/>
</a>
</g>
</g>
<!-- Node3&#45;&gt;Node6 -->
<g id="edge10_Node000003_Node000006" class="edge">
<title>Node3&#45;&gt;Node6</title>
<g id="a_edge10_Node000003_Node000006"><a xlink:title=" ">
<path fill="none" stroke="#63b8ff" d="M272.71,-127.08C278.18,-110.95 288.71,-84.8 304.25,-66.5 316.6,-51.96 334.08,-39.63 348.72,-30.82"/>
<polygon fill="#63b8ff" stroke="#63b8ff" points="350.07,-34.08 356.99,-26.06 346.58,-28.02 350.07,-34.08"/>
</a>
</g>
</g>
<!-- Node3&#45;&gt;Node10 -->
<g id="edge11_Node000003_Node000010" class="edge">
<title>Node3&#45;&gt;Node10</title>
<g id="a_edge11_Node000003_Node000010"><a xlink:title=" ">
<path fill="none" stroke="#63b8ff" d="M283.45,-126.99C293.71,-117.12 307.26,-104.07 317.94,-93.79"/>
<polygon fill="#63b8ff" stroke="#63b8ff" points="320.22,-96.45 324.99,-87 315.36,-91.41 320.22,-96.45"/>
</a>
</g>
</g>
<!-- Node4&#45;&gt;Node2 -->
<g id="edge4_Node000004_Node000002" class="edge">
<title>Node4&#45;&gt;Node2</title>
<g id="a_edge4_Node000004_Node000002"><a xlink:title=" ">
<path fill="none" stroke="#63b8ff" d="M199.44,-66.05C174.71,-57.69 137.26,-45.01 106.32,-34.54"/>
<polygon fill="#63b8ff" stroke="#63b8ff" points="107.71,-31.32 97.11,-31.43 105.46,-37.95 107.71,-31.32"/>
</a>
</g>
</g>
<!-- Node4&#45;&gt;Node5 -->
<g id="edge5_Node000004_Node000005" class="edge">
<title>Node4&#45;&gt;Node5</title>
<g id="a_edge5_Node000004_Node000005"><a xlink:title=" ">
<path fill="none" stroke="#63b8ff" d="M214.71,-66.18C203.1,-57.19 184.96,-43.14 170.87,-32.23"/>
<polygon fill="#63b8ff" stroke="#63b8ff" points="173.15,-29.56 163.1,-26.2 168.86,-35.09 173.15,-29.56"/>
</a>
</g>
</g>
<!-- Node4&#45;&gt;Node6 -->
<g id="edge6_Node000004_Node000006" class="edge">
<title>Node4&#45;&gt;Node6</title>
<g id="a_edge6_Node000004_Node000006"><a xlink:title=" ">
<path fill="none" stroke="#63b8ff" d="M251.02,-66.03C274.79,-57.22 311.63,-43.35 343.25,-30.5 343.88,-30.24 344.52,-29.98 345.16,-29.72"/>
<polygon fill="#63b8ff" stroke="#63b8ff" points="346.46,-32.97 354.32,-25.87 343.74,-26.52 346.46,-32.97"/>
</a>
</g>
</g>
<!-- Node7 -->
<g id="Node000007" class="node">
<title>Node7</title>
<g id="a_Node000007"><a xlink:title=" ">
<polygon fill="#e0e0e0" stroke="#999999" points="254.25,-24.88 196.25,-24.88 196.25,-5.63 254.25,-5.63 254.25,-24.88"/>
<text text-anchor="middle" x="225.25" y="-11.38" font-family="Helvetica,sans-Serif" font-size="10.00">functional</text>
</a>
</g>
</g>
<!-- Node4&#45;&gt;Node7 -->
<g id="edge7_Node000004_Node000007" class="edge">
<title>Node4&#45;&gt;Node7</title>
<g id="a_edge7_Node000004_Node000007"><a xlink:title=" ">
<path fill="none" stroke="#63b8ff" d="M226.1,-66.18C225.97,-58.4 225.77,-46.83 225.6,-36.78"/>
<polygon fill="#63b8ff" stroke="#63b8ff" points="229.1,-36.73 225.43,-26.79 222.1,-36.85 229.1,-36.73"/>
</a>
</g>
</g>
<!-- Node4&#45;&gt;Node8 -->
<g id="edge8_Node000004_Node000008" class="edge">
<title>Node4&#45;&gt;Node8</title>
<g id="a_edge8_Node000004_Node000008"><a xlink:title=" ">
<path fill="none" stroke="#63b8ff" d="M254.76,-70.29C291.28,-63.63 356.2,-50.16 409.25,-30.5 409.74,-30.32 410.22,-30.13 410.71,-29.94"/>
<polygon fill="#63b8ff" stroke="#63b8ff" points="411.89,-33.25 419.57,-25.96 409.02,-26.87 411.89,-33.25"/>
</a>
</g>
</g>
<!-- Node9 -->
<g id="Node000009" class="node">
<title>Node9</title>
<g id="a_Node000009"><a xlink:title=" ">
<polygon fill="#e0e0e0" stroke="#999999" points="333.75,-24.88 272.75,-24.88 272.75,-5.63 333.75,-5.63 333.75,-24.88"/>
<text text-anchor="middle" x="303.25" y="-11.38" font-family="Helvetica,sans-Serif" font-size="10.00">type_traits</text>
</a>
</g>
</g>
<!-- Node4&#45;&gt;Node9 -->
<g id="edge9_Node000004_Node000009" class="edge">
<title>Node4&#45;&gt;Node9</title>
<g id="a_edge9_Node000004_Node000009"><a xlink:title=" ">
<path fill="none" stroke="#63b8ff" d="M237.94,-66.18C249.7,-57.19 268.09,-43.14 282.36,-32.23"/>
<polygon fill="#63b8ff" stroke="#63b8ff" points="284.42,-35.05 290.24,-26.2 280.17,-29.49 284.42,-35.05"/>
</a>
</g>
</g>
</g>
</svg>

<g id="navigator" transform="translate(0 0)" fill="#404254">
  <rect fill="#f2f5e9" fill-opacity="0.5" stroke="#606060" stroke-width=".5" x="0" y="0" width="60" height="60"/>
  <use id="zoomplus" xlink:href="#zoomPlus" x="17" y="9" onmousedown="handleZoom(evt,'in')"/>
  <use id="zoomminus" xlink:href="#zoomMin" x="42" y="9" onmousedown="handleZoom(evt,'out')"/>
  <use id="reset" xlink:href="#resetDef" x="30" y="36" onmousedown="handleReset()"/>
   <use id="arrowup" xlink:href="#arrowUp" x="0" y="0" onmousedown="handlePan(0,-1)"/>
  <use id="arrowright" xlink:href="#arrowRight" x="0" y="0" onmousedown="handlePan(1,0)"/>
  <use id="arrowdown" xlink:href="#arrowDown" x="0" y="0" onmousedown="handlePan(0,1)"/>
  <use id="arrowleft" xlink:href="#arrowLeft" x="0" y="0" onmousedown="handlePan(-1,0)"/>
</g>
<svg viewBox="0 0 15 15" width="100%" height="30px" preserveAspectRatio="xMaxYMin meet">
 <g id="arrow_out" transform="scale(0.3 0.3)">
  <a xlink:href="typed__linear__algebra_8hpp__incl_org.svg" target="_base">
   <rect id="button" ry="5" rx="5" y="6" x="6" height="38" width="38"
        fill="#f2f5e9" fill-opacity="0.5" stroke="#606060" stroke-width="1.0"/>
   <path id="arrow"
     d="M 11.500037,31.436501 C 11.940474,20.09759 22.043105,11.32322 32.158766,21.979434 L 37.068811,17.246167 C 37.068811,17.246167 37.088388,32 37.088388,32 L 22.160133,31.978069 C 22.160133,31.978069 26.997745,27.140456 26.997745,27.140456 C 18.528582,18.264221 13.291696,25.230495 11.500037,31.436501 z"
     style="fill:#404040;"/>
  </a>
 </g>
</svg>

<style type='text/css'>
<![CDATA[
[data-mouse-over-selected='false'] { opacity: 0.7; }
[data-mouse-over-selected='true']  { opacity: 1.0; }
]]>
</style>
<script type="application/ecmascript"><![CDATA[
document.addEventListener('DOMContentLoaded', (event) => {
  highlightEdges();
  highlightAdjacentNodes();
});
]]></script>
</svg>
