<?xml version="1.0" encoding="UTF-8" standalone="no"?>
<!DOCTYPE svg PUBLIC "-//W3C//DTD SVG 1.1//EN"
 "http://www.w3.org/Graphics/SVG/1.1/DTD/svg11.dtd">
<!-- Generated by graphviz version 12.2.0 (20241103.1931)
 -->
<!-- Title: /github/workspace/include/fcarouge/typed_linear_algebra.hpp Pages: 1 -->
<svg width="2203pt" height="238pt"
 viewBox="0.00 0.00 2203.00 238.00" xmlns="http://www.w3.org/2000/svg" xmlns:xlink="http://www.w3.org/1999/xlink">
<g id="graph0" class="graph" transform="scale(1 1) rotate(0) translate(4 234)">
<title>/github/workspace/include/fcarouge/typed_linear_algebra.hpp</title>
<!-- Node1 -->
<g id="Node000001" class="node">
<title>Node1</title>
<g id="a_Node000001"><a xlink:title="Typed linear algebra implementation.">
<polygon fill="#999999" stroke="#666666" points="785.88,-230 656.62,-230 656.62,-188.25 785.88,-188.25 785.88,-230"/>
<text text-anchor="start" x="664.62" y="-216.5" font-family="Helvetica,sans-Serif" font-size="10.00">/github/workspace/include</text>
<text text-anchor="start" x="664.62" y="-205.25" font-family="Helvetica,sans-Serif" font-size="10.00">/fcarouge/typed_linear</text>
<text text-anchor="middle" x="721.25" y="-194" font-family="Helvetica,sans-Serif" font-size="10.00">_algebra.hpp</text>
</a>
</g>
</g>
<!-- Node2 -->
<g id="Node000002" class="node">
<title>Node2</title>
<g id="a_Node000002"><a xlink:href="typed__linear__algebra__forward_8hpp.xhtml" target="_top" xlink:title="Authoritative forward declaration header.">
<polygon fill="white" stroke="#666666" points="104.5,-146.62 0,-146.62 0,-116.12 104.5,-116.12 104.5,-146.62"/>
<text text-anchor="start" x="8" y="-133.12" font-family="Helvetica,sans-Serif" font-size="10.00">typed_linear_algebra</text>
<text text-anchor="middle" x="52.25" y="-121.88" font-family="Helvetica,sans-Serif" font-size="10.00">_forward.hpp</text>
</a>
</g>
</g>
<!-- Node1&#45;&gt;Node2 -->
<g id="edge1_Node000001_Node000002" class="edge">
<title>Node1&#45;&gt;Node2</title>
<g id="a_edge1_Node000001_Node000002"><a xlink:title=" ">
<path fill="none" stroke="#63b8ff" d="M656.39,-206.36C545.27,-202.4 311.74,-189.95 118.25,-152.25 114.73,-151.56 111.12,-150.76 107.5,-149.89"/>
<polygon fill="#63b8ff" stroke="#63b8ff" points="108.7,-146.59 98.14,-147.45 106.94,-153.36 108.7,-146.59"/>
</a>
</g>
</g>
<!-- Node3 -->
<g id="Node000003" class="node">
<title>Node3</title>
<g id="a_Node000003"><a xlink:href="format_8hpp.xhtml" target="_top" xlink:title="Formatting support for the typed matrix.">
<polygon fill="white" stroke="#666666" points="302.5,-146.62 198,-146.62 198,-116.12 302.5,-116.12 302.5,-146.62"/>
<text text-anchor="start" x="206" y="-133.12" font-family="Helvetica,sans-Serif" font-size="10.00">typed_linear_algebra</text>
<text text-anchor="middle" x="250.25" y="-121.88" font-family="Helvetica,sans-Serif" font-size="10.00">_internal/format.hpp</text>
</a>
</g>
</g>
<!-- Node1&#45;&gt;Node3 -->
<g id="edge2_Node000001_Node000003" class="edge">
<title>Node1&#45;&gt;Node3</title>
<g id="a_edge2_Node000001_Node000003"><a xlink:title=" ">
<path fill="none" stroke="#63b8ff" d="M656.17,-202.29C575.7,-194.36 434.83,-178.12 316.25,-152.25 313.13,-151.57 309.94,-150.81 306.73,-150.01"/>
<polygon fill="#63b8ff" stroke="#63b8ff" points="307.84,-146.68 297.27,-147.49 306.03,-153.44 307.84,-146.68"/>
</a>
</g>
</g>
<!-- Node4 -->
<g id="Node000004" class="node">
<title>Node4</title>
<g id="a_Node000004"><a xlink:href="utility_8hpp.xhtml" target="_top" xlink:title=" ">
<polygon fill="white" stroke="#666666" points="240.5,-74.5 184,-74.5 184,-55.25 240.5,-55.25 240.5,-74.5"/>
<text text-anchor="middle" x="212.25" y="-61" font-family="Helvetica,sans-Serif" font-size="10.00">utility.hpp</text>
</a>
</g>
</g>
<!-- Node1&#45;&gt;Node4 -->
<g id="edge11_Node000001_Node000004" class="edge">
<title>Node1&#45;&gt;Node4</title>
<g id="a_edge11_Node000001_Node000004"><a xlink:title=" ">
<path fill="none" stroke="#63b8ff" d="M656.18,-206.07C521.05,-201.14 219.99,-186.39 189.25,-152.25 172.34,-133.47 186.25,-103.63 198.61,-84.4"/>
<polygon fill="#63b8ff" stroke="#63b8ff" points="201.47,-86.42 204.26,-76.2 195.71,-82.45 201.47,-86.42"/>
</a>
</g>
</g>
<!-- Node5 -->
<g id="Node000005" class="node">
<title>Node5</title>
<g id="a_Node000005"><a xlink:title=" ">
<polygon fill="#e0e0e0" stroke="#999999" points="147.12,-19.25 91.38,-19.25 91.38,0 147.12,0 147.12,-19.25"/>
<text text-anchor="middle" x="119.25" y="-5.75" font-family="Helvetica,sans-Serif" font-size="10.00">concepts</text>
</a>
</g>
</g>
<!-- Node1&#45;&gt;Node5 -->
<g id="edge12_Node000001_Node000005" class="edge">
<title>Node1&#45;&gt;Node5</title>
<g id="a_edge12_Node000001_Node000005"><a xlink:title=" ">
<path fill="none" stroke="#63b8ff" d="M656.18,-205.17C520.11,-198.45 214.91,-180.42 177.25,-152.25 137.98,-122.88 125.19,-62.24 121.1,-30.69"/>
<polygon fill="#63b8ff" stroke="#63b8ff" points="124.61,-30.52 120.03,-20.97 117.65,-31.29 124.61,-30.52"/>
</a>
</g>
</g>
<!-- Node6 -->
<g id="Node000006" class="node">
<title>Node6</title>
<g id="a_Node000006"><a xlink:title=" ">
<polygon fill="#e0e0e0" stroke="#999999" points="369.38,-19.25 321.12,-19.25 321.12,0 369.38,0 369.38,-19.25"/>
<text text-anchor="middle" x="345.25" y="-5.75" font-family="Helvetica,sans-Serif" font-size="10.00">cstddef</text>
</a>
</g>
</g>
<!-- Node1&#45;&gt;Node6 -->
<g id="edge13_Node000001_Node000006" class="edge">
<title>Node1&#45;&gt;Node6</title>
<g id="a_edge13_Node000001_Node000006"><a xlink:title=" ">
<path fill="none" stroke="#63b8ff" d="M656.32,-204.28C574.09,-198.17 438.48,-183.57 400.25,-152.25 362.77,-121.55 350.76,-61.99 346.96,-30.79"/>
<polygon fill="#63b8ff" stroke="#63b8ff" points="350.48,-30.76 345.97,-21.17 343.52,-31.47 350.48,-30.76"/>
</a>
</g>
</g>
<!-- Node8 -->
<g id="Node000008" class="node">
<title>Node8</title>
<g id="a_Node000008"><a xlink:title=" ">
<polygon fill="#e0e0e0" stroke="#999999" points="424.75,-19.25 387.75,-19.25 387.75,0 424.75,0 424.75,-19.25"/>
<text text-anchor="middle" x="406.25" y="-5.75" font-family="Helvetica,sans-Serif" font-size="10.00">tuple</text>
</a>
</g>
</g>
<!-- Node1&#45;&gt;Node8 -->
<g id="edge16_Node000001_Node000008" class="edge">
<title>Node1&#45;&gt;Node8</title>
<g id="a_edge16_Node000001_Node000008"><a xlink:title=" ">
<path fill="none" stroke="#63b8ff" d="M656.21,-204.54C578.82,-198.85 456.15,-184.84 425.25,-152.25 394.18,-119.49 397.69,-61.73 402.31,-31.07"/>
<polygon fill="#63b8ff" stroke="#63b8ff" points="405.75,-31.69 404,-21.24 398.85,-30.5 405.75,-31.69"/>
</a>
</g>
</g>
<!-- Node10 -->
<g id="Node000010" class="node">
<title>Node10</title>
<g id="a_Node000010"><a xlink:title=" ">
<polygon fill="#e0e0e0" stroke="#999999" points="340.12,-74.5 296.38,-74.5 296.38,-55.25 340.12,-55.25 340.12,-74.5"/>
<text text-anchor="middle" x="318.25" y="-61" font-family="Helvetica,sans-Serif" font-size="10.00">format</text>
</a>
</g>
</g>
<!-- Node1&#45;&gt;Node10 -->
<g id="edge14_Node000001_Node000010" class="edge">
<title>Node1&#45;&gt;Node10</title>
<g id="a_edge14_Node000001_Node000010"><a xlink:title=" ">
<path fill="none" stroke="#63b8ff" d="M656.27,-205.76C563.73,-201.16 400.08,-188.07 354.25,-152.25 333.68,-136.17 324.75,-106.23 320.95,-86.18"/>
<polygon fill="#63b8ff" stroke="#63b8ff" points="324.42,-85.75 319.39,-76.42 317.51,-86.85 324.42,-85.75"/>
</a>
</g>
</g>
<!-- Node11 -->
<g id="Node000011" class="node">
<title>Node11</title>
<g id="a_Node000011"><a xlink:title=" ">
<polygon fill="#e0e0e0" stroke="#999999" points="506,-141 434.5,-141 434.5,-121.75 506,-121.75 506,-141"/>
<text text-anchor="middle" x="470.25" y="-127.5" font-family="Helvetica,sans-Serif" font-size="10.00">initializer_list</text>
</a>
</g>
</g>
<!-- Node1&#45;&gt;Node11 -->
<g id="edge15_Node000001_Node000011" class="edge">
<title>Node1&#45;&gt;Node11</title>
<g id="a_edge15_Node000001_Node000011"><a xlink:title=" ">
<path fill="none" stroke="#63b8ff" d="M656.46,-193.22C615.49,-183.14 561.71,-168.7 515.25,-152.25 509.99,-150.39 504.49,-148.18 499.21,-145.93"/>
<polygon fill="#63b8ff" stroke="#63b8ff" points="500.77,-142.79 490.21,-141.95 497.94,-149.19 500.77,-142.79"/>
</a>
</g>
</g>
<!-- Node12 -->
<g id="Node000012" class="node">
<title>Node12</title>
<g id="a_Node000012"><a xlink:title=" ">
<polygon fill="#e0e0e0" stroke="#999999" points="562.5,-141 524,-141 524,-121.75 562.5,-121.75 562.5,-141"/>
<text text-anchor="middle" x="543.25" y="-127.5" font-family="Helvetica,sans-Serif" font-size="10.00">utility</text>
</a>
</g>
</g>
<!-- Node1&#45;&gt;Node12 -->
<g id="edge17_Node000001_Node000012" class="edge">
<title>Node1&#45;&gt;Node12</title>
<g id="a_edge17_Node000001_Node000012"><a xlink:title=" ">
<path fill="none" stroke="#63b8ff" d="M656.15,-188.03C629.19,-178.66 598.02,-166.42 571.25,-152.25 568.81,-150.96 566.33,-149.48 563.91,-147.92"/>
<polygon fill="#63b8ff" stroke="#63b8ff" points="565.98,-145.1 555.77,-142.27 561.98,-150.85 565.98,-145.1"/>
</a>
</g>
</g>
<!-- Node13 -->
<g id="Node000013" class="node">
<title>Node13</title>
<g id="a_Node000013"><a xlink:title=" ">
<polygon fill="#e0e0e0" stroke="#999999" points="710.25,-146.62 580.25,-146.62 580.25,-116.12 710.25,-116.12 710.25,-146.62"/>
<text text-anchor="start" x="588.25" y="-133.12" font-family="Helvetica,sans-Serif" font-size="10.00">typed_linear_algebra</text>
<text text-anchor="middle" x="645.25" y="-121.88" font-family="Helvetica,sans-Serif" font-size="10.00">_internal/algorithm/add.tpp</text>
</a>
</g>
</g>
<!-- Node1&#45;&gt;Node13 -->
<g id="edge18_Node000001_Node000013" class="edge">
<title>Node1&#45;&gt;Node13</title>
<g id="a_edge18_Node000001_Node000013"><a xlink:title=" ">
<path fill="none" stroke="#63b8ff" d="M700.88,-187.83C690.61,-177.59 678.14,-165.15 667.6,-154.65"/>
<polygon fill="#63b8ff" stroke="#63b8ff" points="670.28,-152.38 660.72,-147.8 665.34,-157.34 670.28,-152.38"/>
</a>
</g>
</g>
<!-- Node14 -->
<g id="Node000014" class="node">
<title>Node14</title>
<g id="a_Node000014"><a xlink:title=" ">
<polygon fill="#e0e0e0" stroke="#999999" points="868.12,-146.62 728.38,-146.62 728.38,-116.12 868.12,-116.12 868.12,-146.62"/>
<text text-anchor="start" x="736.38" y="-133.12" font-family="Helvetica,sans-Serif" font-size="10.00">typed_linear_algebra</text>
<text text-anchor="middle" x="798.25" y="-121.88" font-family="Helvetica,sans-Serif" font-size="10.00">_internal/algorithm/divide.tpp</text>
</a>
</g>
</g>
<!-- Node1&#45;&gt;Node14 -->
<g id="edge19_Node000001_Node000014" class="edge">
<title>Node1&#45;&gt;Node14</title>
<g id="a_edge19_Node000001_Node000014"><a xlink:title=" ">
<path fill="none" stroke="#63b8ff" d="M741.88,-187.83C752.29,-177.59 764.93,-165.15 775.6,-154.65"/>
<polygon fill="#63b8ff" stroke="#63b8ff" points="777.91,-157.3 782.58,-147.79 773,-152.31 777.91,-157.3"/>
</a>
</g>
</g>
<!-- Node15 -->
<g id="Node000015" class="node">
<title>Node15</title>
<g id="a_Node000015"><a xlink:title=" ">
<polygon fill="#e0e0e0" stroke="#999999" points="1008.12,-152.25 886.38,-152.25 886.38,-110.5 1008.12,-110.5 1008.12,-152.25"/>
<text text-anchor="start" x="894.38" y="-138.75" font-family="Helvetica,sans-Serif" font-size="10.00">typed_linear_algebra</text>
<text text-anchor="start" x="894.38" y="-127.5" font-family="Helvetica,sans-Serif" font-size="10.00">_internal/algorithm/equal</text>
<text text-anchor="middle" x="947.25" y="-116.25" font-family="Helvetica,sans-Serif" font-size="10.00">_to.tpp</text>
</a>
</g>
</g>
<!-- Node1&#45;&gt;Node15 -->
<g id="edge20_Node000001_Node000015" class="edge">
<title>Node1&#45;&gt;Node15</title>
<g id="a_edge20_Node000001_Node000015"><a xlink:title=" ">
<path fill="none" stroke="#63b8ff" d="M781.81,-187.83C810.69,-178.15 845.44,-166.5 875.63,-156.38"/>
<polygon fill="#63b8ff" stroke="#63b8ff" points="876.71,-159.71 885.08,-153.21 874.49,-153.07 876.71,-159.71"/>
</a>
</g>
</g>
<!-- Node16 -->
<g id="Node000016" class="node">
<title>Node16</title>
<g id="a_Node000016"><a xlink:title=" ">
<polygon fill="#e0e0e0" stroke="#999999" points="1150.62,-152.25 1025.88,-152.25 1025.88,-110.5 1150.62,-110.5 1150.62,-152.25"/>
<text text-anchor="start" x="1033.88" y="-138.75" font-family="Helvetica,sans-Serif" font-size="10.00">typed_linear_algebra</text>
<text text-anchor="start" x="1033.88" y="-127.5" font-family="Helvetica,sans-Serif" font-size="10.00">_internal/algorithm/matrix</text>
<text text-anchor="middle" x="1088.25" y="-116.25" font-family="Helvetica,sans-Serif" font-size="10.00">_product.tpp</text>
</a>
</g>
</g>
<!-- Node1&#45;&gt;Node16 -->
<g id="edge21_Node000001_Node000016" class="edge">
<title>Node1&#45;&gt;Node16</title>
<g id="a_edge21_Node000001_Node000016"><a xlink:title=" ">
<path fill="none" stroke="#63b8ff" d="M786.26,-197.52C843.93,-187.73 930.66,-172.09 1014.59,-152.79"/>
<polygon fill="#63b8ff" stroke="#63b8ff" points="1015.18,-156.24 1024.13,-150.57 1013.6,-149.42 1015.18,-156.24"/>
</a>
</g>
</g>
<!-- Node17 -->
<g id="Node000017" class="node">
<title>Node17</title>
<g id="a_Node000017"><a xlink:title=" ">
<polygon fill="#e0e0e0" stroke="#999999" points="1315.5,-146.62 1169,-146.62 1169,-116.12 1315.5,-116.12 1315.5,-146.62"/>
<text text-anchor="start" x="1177" y="-133.12" font-family="Helvetica,sans-Serif" font-size="10.00">typed_linear_algebra</text>
<text text-anchor="middle" x="1242.25" y="-121.88" font-family="Helvetica,sans-Serif" font-size="10.00">_internal/algorithm/product.tpp</text>
</a>
</g>
</g>
<!-- Node1&#45;&gt;Node17 -->
<g id="edge22_Node000001_Node000017" class="edge">
<title>Node1&#45;&gt;Node17</title>
<g id="a_edge22_Node000001_Node000017"><a xlink:title=" ">
<path fill="none" stroke="#63b8ff" d="M786.15,-202.06C871.96,-193.54 1027.67,-176.32 1159.25,-152.25 1163.84,-151.41 1168.56,-150.48 1173.3,-149.48"/>
<polygon fill="#63b8ff" stroke="#63b8ff" points="1173.86,-152.94 1182.89,-147.4 1172.38,-146.1 1173.86,-152.94"/>
</a>
</g>
</g>
<!-- Node18 -->
<g id="Node000018" class="node">
<title>Node18</title>
<g id="a_Node000018"><a xlink:title=" ">
<polygon fill="#e0e0e0" stroke="#999999" points="1471,-146.62 1333.5,-146.62 1333.5,-116.12 1471,-116.12 1471,-146.62"/>
<text text-anchor="start" x="1341.5" y="-133.12" font-family="Helvetica,sans-Serif" font-size="10.00">typed_linear_algebra</text>
<text text-anchor="middle" x="1402.25" y="-121.88" font-family="Helvetica,sans-Serif" font-size="10.00">_internal/algorithm/scale.tpp</text>
</a>
</g>
</g>
<!-- Node1&#45;&gt;Node18 -->
<g id="edge23_Node000001_Node000018" class="edge">
<title>Node1&#45;&gt;Node18</title>
<g id="a_edge23_Node000001_Node000018"><a xlink:title=" ">
<path fill="none" stroke="#63b8ff" d="M785.94,-205.47C896.82,-200.17 1129.99,-185.79 1324.25,-152.25 1328.82,-151.46 1333.52,-150.54 1338.23,-149.54"/>
<polygon fill="#63b8ff" stroke="#63b8ff" points="1338.74,-153.01 1347.73,-147.41 1337.2,-146.18 1338.74,-153.01"/>
</a>
</g>
</g>
<!-- Node19 -->
<g id="Node000019" class="node">
<title>Node19</title>
<g id="a_Node000019"><a xlink:title=" ">
<polygon fill="#e0e0e0" stroke="#999999" points="1643.62,-146.62 1488.88,-146.62 1488.88,-116.12 1643.62,-116.12 1643.62,-146.62"/>
<text text-anchor="start" x="1496.88" y="-133.12" font-family="Helvetica,sans-Serif" font-size="10.00">typed_linear_algebra</text>
<text text-anchor="middle" x="1566.25" y="-121.88" font-family="Helvetica,sans-Serif" font-size="10.00">_internal/algorithm/substract.tpp</text>
</a>
</g>
</g>
<!-- Node1&#45;&gt;Node19 -->
<g id="edge24_Node000001_Node000019" class="edge">
<title>Node1&#45;&gt;Node19</title>
<g id="a_edge24_Node000001_Node000019"><a xlink:title=" ">
<path fill="none" stroke="#63b8ff" d="M786.35,-206.7C918.07,-203.07 1225.34,-190.85 1480.25,-152.25 1485.79,-151.41 1491.5,-150.41 1497.22,-149.3"/>
<polygon fill="#63b8ff" stroke="#63b8ff" points="1497.61,-152.79 1506.71,-147.37 1496.21,-145.93 1497.61,-152.79"/>
</a>
</g>
</g>
<!-- Node20 -->
<g id="Node000020" class="node">
<title>Node20</title>
<g id="a_Node000020"><a xlink:title=" ">
<polygon fill="#e0e0e0" stroke="#999999" points="1824.38,-146.62 1662.12,-146.62 1662.12,-116.12 1824.38,-116.12 1824.38,-146.62"/>
<text text-anchor="start" x="1670.12" y="-133.12" font-family="Helvetica,sans-Serif" font-size="10.00">typed_linear_algebra</text>
<text text-anchor="middle" x="1743.25" y="-121.88" font-family="Helvetica,sans-Serif" font-size="10.00">_internal/algorithm/transposed.tpp</text>
</a>
</g>
</g>
<!-- Node1&#45;&gt;Node20 -->
<g id="edge25_Node000001_Node000020" class="edge">
<title>Node1&#45;&gt;Node20</title>
<g id="a_edge25_Node000001_Node000020"><a xlink:title=" ">
<path fill="none" stroke="#63b8ff" d="M786.21,-207.68C938.33,-205.9 1329.25,-196.94 1652.25,-152.25 1658.51,-151.38 1664.98,-150.32 1671.45,-149.14"/>
<polygon fill="#63b8ff" stroke="#63b8ff" points="1671.65,-152.66 1680.81,-147.34 1670.33,-145.79 1671.65,-152.66"/>
</a>
</g>
</g>
<!-- Node21 -->
<g id="Node000021" class="node">
<title>Node21</title>
<g id="a_Node000021"><a xlink:title=" ">
<polygon fill="#e0e0e0" stroke="#999999" points="1946.5,-146.62 1842,-146.62 1842,-116.12 1946.5,-116.12 1946.5,-146.62"/>
<text text-anchor="start" x="1850" y="-133.12" font-family="Helvetica,sans-Serif" font-size="10.00">typed_linear_algebra</text>
<text text-anchor="middle" x="1894.25" y="-121.88" font-family="Helvetica,sans-Serif" font-size="10.00">_internal/cast.tpp</text>
</a>
</g>
</g>
<!-- Node1&#45;&gt;Node21 -->
<g id="edge26_Node000001_Node000021" class="edge">
<title>Node1&#45;&gt;Node21</title>
<g id="a_edge26_Node000001_Node000021"><a xlink:title=" ">
<path fill="none" stroke="#63b8ff" d="M786.24,-207.11C992.45,-203.55 1630.33,-189.72 1833.25,-152.25 1836.59,-151.63 1840,-150.88 1843.42,-150.03"/>
<polygon fill="#63b8ff" stroke="#63b8ff" points="1844.1,-153.48 1852.82,-147.46 1842.25,-146.73 1844.1,-153.48"/>
</a>
</g>
</g>
<!-- Node22 -->
<g id="Node000022" class="node">
<title>Node22</title>
<g id="a_Node000022"><a xlink:title=" ">
<polygon fill="#e0e0e0" stroke="#999999" points="2069.5,-146.62 1965,-146.62 1965,-116.12 2069.5,-116.12 2069.5,-146.62"/>
<text text-anchor="start" x="1973" y="-133.12" font-family="Helvetica,sans-Serif" font-size="10.00">typed_linear_algebra</text>
<text text-anchor="middle" x="2017.25" y="-121.88" font-family="Helvetica,sans-Serif" font-size="10.00">_internal/tuple.tpp</text>
</a>
</g>
</g>
<!-- Node1&#45;&gt;Node22 -->
<g id="edge27_Node000001_Node000022" class="edge">
<title>Node1&#45;&gt;Node22</title>
<g id="a_edge27_Node000001_Node000022"><a xlink:title=" ">
<path fill="none" stroke="#63b8ff" d="M786.29,-207.45C1007.18,-204.8 1727.55,-193.15 1955.25,-152.25 1958.64,-151.64 1962.11,-150.89 1965.58,-150.05"/>
<polygon fill="#63b8ff" stroke="#63b8ff" points="1966.41,-153.45 1975.16,-147.48 1964.59,-146.69 1966.41,-153.45"/>
</a>
</g>
</g>
<!-- Node23 -->
<g id="Node000023" class="node">
<title>Node23</title>
<g id="a_Node000023"><a xlink:title=" ">
<polygon fill="#e0e0e0" stroke="#999999" points="2195,-152.25 2087.5,-152.25 2087.5,-110.5 2195,-110.5 2195,-152.25"/>
<text text-anchor="start" x="2095.5" y="-138.75" font-family="Helvetica,sans-Serif" font-size="10.00">typed_linear_algebra</text>
<text text-anchor="start" x="2095.5" y="-127.5" font-family="Helvetica,sans-Serif" font-size="10.00">_internal/typed_linear</text>
<text text-anchor="middle" x="2141.25" y="-116.25" font-family="Helvetica,sans-Serif" font-size="10.00">_algebra.tpp</text>
</a>
</g>
</g>
<!-- Node1&#45;&gt;Node23 -->
<g id="edge28_Node000001_Node000023" class="edge">
<title>Node1&#45;&gt;Node23</title>
<g id="a_edge28_Node000001_Node000023"><a xlink:title=" ">
<path fill="none" stroke="#63b8ff" d="M786.14,-207.72C1017.69,-205.93 1803.49,-196.79 2076.14,-152.3"/>
<polygon fill="#63b8ff" stroke="#63b8ff" points="2076.41,-155.81 2085.69,-150.68 2075.24,-148.9 2076.41,-155.81"/>
</a>
</g>
</g>
<!-- Node3&#45;&gt;Node4 -->
<g id="edge3_Node000003_Node000004" class="edge">
<title>Node3&#45;&gt;Node4</title>
<g id="a_edge3_Node000003_Node000004"><a xlink:title=" ">
<path fill="none" stroke="#63b8ff" d="M241.63,-115.74C236.16,-106.46 229.04,-94.37 223.18,-84.42"/>
<polygon fill="#63b8ff" stroke="#63b8ff" points="226.31,-82.84 218.22,-76 220.28,-86.39 226.31,-82.84"/>
</a>
</g>
</g>
<!-- Node3&#45;&gt;Node6 -->
<g id="edge9_Node000003_Node000006" class="edge">
<title>Node3&#45;&gt;Node6</title>
<g id="a_edge9_Node000003_Node000006"><a xlink:title=" ">
<path fill="none" stroke="#63b8ff" d="M255.19,-115.68C261.07,-99.65 272.05,-73.81 287.25,-55.25 296.59,-43.85 309.38,-33.62 320.57,-25.83"/>
<polygon fill="#63b8ff" stroke="#63b8ff" points="322.21,-28.94 328.6,-20.5 318.34,-23.11 322.21,-28.94"/>
</a>
</g>
</g>
<!-- Node3&#45;&gt;Node10 -->
<g id="edge10_Node000003_Node000010" class="edge">
<title>Node3&#45;&gt;Node10</title>
<g id="a_edge10_Node000003_Node000010"><a xlink:title=" ">
<path fill="none" stroke="#63b8ff" d="M265.68,-115.74C276.09,-105.87 289.85,-92.82 300.68,-82.54"/>
<polygon fill="#63b8ff" stroke="#63b8ff" points="303,-85.16 307.85,-75.74 298.19,-80.08 303,-85.16"/>
</a>
</g>
</g>
<!-- Node4&#45;&gt;Node5 -->
<g id="edge4_Node000004_Node000005" class="edge">
<title>Node4&#45;&gt;Node5</title>
<g id="a_edge4_Node000004_Node000005"><a xlink:title=" ">
<path fill="none" stroke="#63b8ff" d="M196.47,-54.84C182.31,-46.73 161.27,-34.68 144.72,-25.21"/>
<polygon fill="#63b8ff" stroke="#63b8ff" points="146.83,-22.39 136.42,-20.45 143.36,-28.46 146.83,-22.39"/>
</a>
</g>
</g>
<!-- Node4&#45;&gt;Node6 -->
<g id="edge5_Node000004_Node000006" class="edge">
<title>Node4&#45;&gt;Node6</title>
<g id="a_edge5_Node000004_Node000006"><a xlink:title=" ">
<path fill="none" stroke="#63b8ff" d="M234.81,-54.84C256.02,-46.35 288.02,-33.54 312.13,-23.89"/>
<polygon fill="#63b8ff" stroke="#63b8ff" points="313.19,-27.23 321.17,-20.27 310.59,-20.73 313.19,-27.23"/>
</a>
</g>
</g>
<!-- Node7 -->
<g id="Node000007" class="node">
<title>Node7</title>
<g id="a_Node000007"><a xlink:title=" ">
<polygon fill="#e0e0e0" stroke="#999999" points="223.25,-19.25 165.25,-19.25 165.25,0 223.25,0 223.25,-19.25"/>
<text text-anchor="middle" x="194.25" y="-5.75" font-family="Helvetica,sans-Serif" font-size="10.00">functional</text>
</a>
</g>
</g>
<!-- Node4&#45;&gt;Node7 -->
<g id="edge6_Node000004_Node000007" class="edge">
<title>Node4&#45;&gt;Node7</title>
<g id="a_edge6_Node000004_Node000007"><a xlink:title=" ">
<path fill="none" stroke="#63b8ff" d="M209.28,-55.08C207,-48.34 203.76,-38.77 200.88,-30.24"/>
<polygon fill="#63b8ff" stroke="#63b8ff" points="204.29,-29.4 197.77,-21.04 197.66,-31.64 204.29,-29.4"/>
</a>
</g>
</g>
<!-- Node4&#45;&gt;Node8 -->
<g id="edge7_Node000004_Node000008" class="edge">
<title>Node4&#45;&gt;Node8</title>
<g id="a_edge7_Node000004_Node000008"><a xlink:title=" ">
<path fill="none" stroke="#63b8ff" d="M240.83,-56.53C271.84,-48.48 323.07,-34.98 376.28,-19.74"/>
<polygon fill="#63b8ff" stroke="#63b8ff" points="377.21,-23.11 385.85,-16.98 375.27,-16.39 377.21,-23.11"/>
</a>
</g>
</g>
<!-- Node9 -->
<g id="Node000009" class="node">
<title>Node9</title>
<g id="a_Node000009"><a xlink:title=" ">
<polygon fill="#e0e0e0" stroke="#999999" points="302.75,-19.25 241.75,-19.25 241.75,0 302.75,0 302.75,-19.25"/>
<text text-anchor="middle" x="272.25" y="-5.75" font-family="Helvetica,sans-Serif" font-size="10.00">type_traits</text>
</a>
</g>
</g>
<!-- Node4&#45;&gt;Node9 -->
<g id="edge8_Node000004_Node000009" class="edge">
<title>Node4&#45;&gt;Node9</title>
<g id="a_edge8_Node000004_Node000009"><a xlink:title=" ">
<path fill="none" stroke="#63b8ff" d="M222.43,-54.84C231.01,-47.22 243.52,-36.12 253.85,-26.95"/>
<polygon fill="#63b8ff" stroke="#63b8ff" points="255.93,-29.79 261.09,-20.53 251.29,-24.55 255.93,-29.79"/>
</a>
</g>
</g>
</g>
</svg>
