<?xml version="1.0" encoding="UTF-8" standalone="no"?>
<!DOCTYPE svg PUBLIC "-//W3C//DTD SVG 1.1//EN"
 "http://www.w3.org/Graphics/SVG/1.1/DTD/svg11.dtd">
<!-- Generated by graphviz version 12.2.0 (20241103.1931)
 -->
<!-- Title: /github/workspace/include/fcarouge/typed_linear_algebra.hpp Pages: 1 -->
<svg width="2203pt" height="238pt"
 viewBox="0.00 0.00 2203.00 238.00" xmlns="http://www.w3.org/2000/svg" xmlns:xlink="http://www.w3.org/1999/xlink">
<g id="graph0" class="graph" transform="scale(1 1) rotate(0) translate(4 234)">
<title>/github/workspace/include/fcarouge/typed_linear_algebra.hpp</title>
<!-- Node1 -->
<g id="Node000001" class="node">
<title>Node1</title>
<g id="a_Node000001"><a xlink:title="Typed linear algebra implementation.">
<polygon fill="#999999" stroke="#666666" points="785.88,-230 656.62,-230 656.62,-188.25 785.88,-188.25 785.88,-230"/>
<text text-anchor="start" x="664.62" y="-216.5" font-family="Helvetica,sans-Serif" font-size="10.00">/github/workspace/include</text>
<text text-anchor="start" x="664.62" y="-205.25" font-family="Helvetica,sans-Serif" font-size="10.00">/fcarouge/typed_linear</text>
<text text-anchor="middle" x="721.25" y="-194" font-family="Helvetica,sans-Serif" font-size="10.00">_algebra.hpp</text>
</a>
</g>
</g>
<!-- Node2 -->
<g id="Node000002" class="node">
<title>Node2</title>
<g id="a_Node000002"><a xlink:href="typed__linear__algebra__forward_8hpp.xhtml" target="_top" xlink:title="Authoritative forward declaration header.">
<polygon fill="white" stroke="#666666" points="104.5,-146.62 0,-146.62 0,-116.12 104.5,-116.12 104.5,-146.62"/>
<text text-anchor="start" x="8" y="-133.12" font-family="Helvetica,sans-Serif" font-size="10.00">typed_linear_algebra</text>
<text text-anchor="middle" x="52.25" y="-121.88" font-family="Helvetica,sans-Serif" font-size="10.00">_forward.hpp</text>
</a>
</g>
</g>
<!-- Node1&#45;&gt;Node2 -->
<g id="edge1_Node000001_Node000002" class="edge">
<title>Node1&#45;&gt;Node2</title>
<g id="a_edge1_Node000001_Node000002"><a xlink:title=" ">
<path fill="none" stroke="#63b8ff" d="M656.39,-206.36C545.27,-202.4 311.74,-189.95 118.25,-152.25 114.73,-151.56 111.12,-150.76 107.5,-149.89"/>
<polygon fill="#63b8ff" stroke="#63b8ff" points="108.7,-146.59 98.14,-147.45 106.94,-153.36 108.7,-146.59"/>
</a>
</g>
</g>
<!-- Node3 -->
<g id="Node000003" class="node">
<title>Node3</title>
<g id="a_Node000003"><a xlink:href="format_8hpp.xhtml" target="_top" xlink:title="Formatting support for the typed matrix.">
<polygon fill="white" stroke="#666666" points="340.5,-146.62 236,-146.62 236,-116.12 340.5,-116.12 340.5,-146.62"/>
<text text-anchor="start" x="244" y="-133.12" font-family="Helvetica,sans-Serif" font-size="10.00">typed_linear_algebra</text>
<text text-anchor="middle" x="288.25" y="-121.88" font-family="Helvetica,sans-Serif" font-size="10.00">_internal/format.hpp</text>
</a>
</g>
</g>
<!-- Node1&#45;&gt;Node3 -->
<g id="edge2_Node000001_Node000003" class="edge">
<title>Node1&#45;&gt;Node3</title>
<g id="a_edge2_Node000001_Node000003"><a xlink:title=" ">
<path fill="none" stroke="#63b8ff" d="M656.43,-201.07C582.69,-192.39 458.93,-175.86 354.25,-152.25 351.29,-151.58 348.26,-150.85 345.22,-150.08"/>
<polygon fill="#63b8ff" stroke="#63b8ff" points="346.21,-146.72 335.65,-147.51 344.4,-153.48 346.21,-146.72"/>
</a>
</g>
</g>
<!-- Node4 -->
<g id="Node000004" class="node">
<title>Node4</title>
<g id="a_Node000004"><a xlink:href="utility_8hpp.xhtml" target="_top" xlink:title=" ">
<polygon fill="white" stroke="#666666" points="265.5,-74.5 209,-74.5 209,-55.25 265.5,-55.25 265.5,-74.5"/>
<text text-anchor="middle" x="237.25" y="-61" font-family="Helvetica,sans-Serif" font-size="10.00">utility.hpp</text>
</a>
</g>
</g>
<!-- Node1&#45;&gt;Node4 -->
<g id="edge10_Node000001_Node000004" class="edge">
<title>Node1&#45;&gt;Node4</title>
<g id="a_edge10_Node000001_Node000004"><a xlink:title=" ">
<path fill="none" stroke="#63b8ff" d="M656.23,-205.51C528.63,-199.71 255.35,-183.71 227.25,-152.25 211.02,-134.08 219.23,-104.48 227.52,-85.09"/>
<polygon fill="#63b8ff" stroke="#63b8ff" points="230.63,-86.69 231.7,-76.15 224.29,-83.72 230.63,-86.69"/>
</a>
</g>
</g>
<!-- Node5 -->
<g id="Node000005" class="node">
<title>Node5</title>
<g id="a_Node000005"><a xlink:title=" ">
<polygon fill="#e0e0e0" stroke="#999999" points="147.12,-19.25 91.38,-19.25 91.38,0 147.12,0 147.12,-19.25"/>
<text text-anchor="middle" x="119.25" y="-5.75" font-family="Helvetica,sans-Serif" font-size="10.00">concepts</text>
</a>
</g>
</g>
<!-- Node1&#45;&gt;Node5 -->
<g id="edge11_Node000001_Node000005" class="edge">
<title>Node1&#45;&gt;Node5</title>
<g id="a_edge11_Node000001_Node000005"><a xlink:title=" ">
<path fill="none" stroke="#63b8ff" d="M656.22,-204.92C521.84,-197.78 222.89,-179.08 185.25,-152.25 144.48,-123.19 128.19,-62.41 122.28,-30.76"/>
<polygon fill="#63b8ff" stroke="#63b8ff" points="125.74,-30.27 120.63,-20.99 118.84,-31.43 125.74,-30.27"/>
</a>
</g>
</g>
<!-- Node7 -->
<g id="Node000007" class="node">
<title>Node7</title>
<g id="a_Node000007"><a xlink:title=" ">
<polygon fill="#e0e0e0" stroke="#999999" points="201.75,-19.25 164.75,-19.25 164.75,0 201.75,0 201.75,-19.25"/>
<text text-anchor="middle" x="183.25" y="-5.75" font-family="Helvetica,sans-Serif" font-size="10.00">tuple</text>
</a>
</g>
</g>
<!-- Node1&#45;&gt;Node7 -->
<g id="edge15_Node000001_Node000007" class="edge">
<title>Node1&#45;&gt;Node7</title>
<g id="a_edge15_Node000001_Node000007"><a xlink:title=" ">
<path fill="none" stroke="#63b8ff" d="M656.57,-205.16C527.28,-198.65 246.55,-181.31 214.25,-152.25 179.88,-121.33 178.87,-61.86 181.05,-30.74"/>
<polygon fill="#63b8ff" stroke="#63b8ff" points="184.5,-31.42 181.91,-21.14 177.53,-30.79 184.5,-31.42"/>
</a>
</g>
</g>
<!-- Node9 -->
<g id="Node000009" class="node">
<title>Node9</title>
<g id="a_Node000009"><a xlink:title=" ">
<polygon fill="#e0e0e0" stroke="#999999" points="348.38,-74.5 300.12,-74.5 300.12,-55.25 348.38,-55.25 348.38,-74.5"/>
<text text-anchor="middle" x="324.25" y="-61" font-family="Helvetica,sans-Serif" font-size="10.00">cstddef</text>
</a>
</g>
</g>
<!-- Node1&#45;&gt;Node9 -->
<g id="edge12_Node000001_Node000009" class="edge">
<title>Node1&#45;&gt;Node9</title>
<g id="a_edge12_Node000001_Node000009"><a xlink:title=" ">
<path fill="none" stroke="#63b8ff" d="M656.19,-202.03C575.16,-193.56 442.18,-176.48 399.25,-152.25 370.51,-136.03 347.49,-104.49 334.86,-84.34"/>
<polygon fill="#63b8ff" stroke="#63b8ff" points="338.02,-82.8 329.87,-76.03 332.02,-86.4 338.02,-82.8"/>
</a>
</g>
</g>
<!-- Node10 -->
<g id="Node000010" class="node">
<title>Node10</title>
<g id="a_Node000010"><a xlink:title=" ">
<polygon fill="#e0e0e0" stroke="#999999" points="419.12,-74.5 375.38,-74.5 375.38,-55.25 419.12,-55.25 419.12,-74.5"/>
<text text-anchor="middle" x="397.25" y="-61" font-family="Helvetica,sans-Serif" font-size="10.00">format</text>
</a>
</g>
</g>
<!-- Node1&#45;&gt;Node10 -->
<g id="edge13_Node000001_Node000010" class="edge">
<title>Node1&#45;&gt;Node10</title>
<g id="a_edge13_Node000001_Node000010"><a xlink:title=" ">
<path fill="none" stroke="#63b8ff" d="M656.46,-203.54C579.96,-196.85 458.86,-181.84 425.25,-152.25 406.32,-135.59 400.12,-106.02 398.12,-86.19"/>
<polygon fill="#63b8ff" stroke="#63b8ff" points="401.62,-86.03 397.44,-76.3 394.64,-86.52 401.62,-86.03"/>
</a>
</g>
</g>
<!-- Node11 -->
<g id="Node000011" class="node">
<title>Node11</title>
<g id="a_Node000011"><a xlink:title=" ">
<polygon fill="#e0e0e0" stroke="#999999" points="506,-141 434.5,-141 434.5,-121.75 506,-121.75 506,-141"/>
<text text-anchor="middle" x="470.25" y="-127.5" font-family="Helvetica,sans-Serif" font-size="10.00">initializer_list</text>
</a>
</g>
</g>
<!-- Node1&#45;&gt;Node11 -->
<g id="edge14_Node000001_Node000011" class="edge">
<title>Node1&#45;&gt;Node11</title>
<g id="a_edge14_Node000001_Node000011"><a xlink:title=" ">
<path fill="none" stroke="#63b8ff" d="M656.46,-193.22C615.49,-183.14 561.71,-168.7 515.25,-152.25 509.99,-150.39 504.49,-148.18 499.21,-145.93"/>
<polygon fill="#63b8ff" stroke="#63b8ff" points="500.77,-142.79 490.21,-141.95 497.94,-149.19 500.77,-142.79"/>
</a>
</g>
</g>
<!-- Node12 -->
<g id="Node000012" class="node">
<title>Node12</title>
<g id="a_Node000012"><a xlink:title=" ">
<polygon fill="#e0e0e0" stroke="#999999" points="562.5,-141 524,-141 524,-121.75 562.5,-121.75 562.5,-141"/>
<text text-anchor="middle" x="543.25" y="-127.5" font-family="Helvetica,sans-Serif" font-size="10.00">utility</text>
</a>
</g>
</g>
<!-- Node1&#45;&gt;Node12 -->
<g id="edge16_Node000001_Node000012" class="edge">
<title>Node1&#45;&gt;Node12</title>
<g id="a_edge16_Node000001_Node000012"><a xlink:title=" ">
<path fill="none" stroke="#63b8ff" d="M656.15,-188.03C629.19,-178.66 598.02,-166.42 571.25,-152.25 568.81,-150.96 566.33,-149.48 563.91,-147.92"/>
<polygon fill="#63b8ff" stroke="#63b8ff" points="565.98,-145.1 555.77,-142.27 561.98,-150.85 565.98,-145.1"/>
</a>
</g>
</g>
<!-- Node13 -->
<g id="Node000013" class="node">
<title>Node13</title>
<g id="a_Node000013"><a xlink:title=" ">
<polygon fill="#e0e0e0" stroke="#999999" points="710.25,-146.62 580.25,-146.62 580.25,-116.12 710.25,-116.12 710.25,-146.62"/>
<text text-anchor="start" x="588.25" y="-133.12" font-family="Helvetica,sans-Serif" font-size="10.00">typed_linear_algebra</text>
<text text-anchor="middle" x="645.25" y="-121.88" font-family="Helvetica,sans-Serif" font-size="10.00">_internal/algorithm/add.tpp</text>
</a>
</g>
</g>
<!-- Node1&#45;&gt;Node13 -->
<g id="edge17_Node000001_Node000013" class="edge">
<title>Node1&#45;&gt;Node13</title>
<g id="a_edge17_Node000001_Node000013"><a xlink:title=" ">
<path fill="none" stroke="#63b8ff" d="M700.88,-187.83C690.61,-177.59 678.14,-165.15 667.6,-154.65"/>
<polygon fill="#63b8ff" stroke="#63b8ff" points="670.28,-152.38 660.72,-147.8 665.34,-157.34 670.28,-152.38"/>
</a>
</g>
</g>
<!-- Node14 -->
<g id="Node000014" class="node">
<title>Node14</title>
<g id="a_Node000014"><a xlink:title=" ">
<polygon fill="#e0e0e0" stroke="#999999" points="868.12,-146.62 728.38,-146.62 728.38,-116.12 868.12,-116.12 868.12,-146.62"/>
<text text-anchor="start" x="736.38" y="-133.12" font-family="Helvetica,sans-Serif" font-size="10.00">typed_linear_algebra</text>
<text text-anchor="middle" x="798.25" y="-121.88" font-family="Helvetica,sans-Serif" font-size="10.00">_internal/algorithm/divide.tpp</text>
</a>
</g>
</g>
<!-- Node1&#45;&gt;Node14 -->
<g id="edge18_Node000001_Node000014" class="edge">
<title>Node1&#45;&gt;Node14</title>
<g id="a_edge18_Node000001_Node000014"><a xlink:title=" ">
<path fill="none" stroke="#63b8ff" d="M741.88,-187.83C752.29,-177.59 764.93,-165.15 775.6,-154.65"/>
<polygon fill="#63b8ff" stroke="#63b8ff" points="777.91,-157.3 782.58,-147.79 773,-152.31 777.91,-157.3"/>
</a>
</g>
</g>
<!-- Node15 -->
<g id="Node000015" class="node">
<title>Node15</title>
<g id="a_Node000015"><a xlink:title=" ">
<polygon fill="#e0e0e0" stroke="#999999" points="1008.12,-152.25 886.38,-152.25 886.38,-110.5 1008.12,-110.5 1008.12,-152.25"/>
<text text-anchor="start" x="894.38" y="-138.75" font-family="Helvetica,sans-Serif" font-size="10.00">typed_linear_algebra</text>
<text text-anchor="start" x="894.38" y="-127.5" font-family="Helvetica,sans-Serif" font-size="10.00">_internal/algorithm/equal</text>
<text text-anchor="middle" x="947.25" y="-116.25" font-family="Helvetica,sans-Serif" font-size="10.00">_to.tpp</text>
</a>
</g>
</g>
<!-- Node1&#45;&gt;Node15 -->
<g id="edge19_Node000001_Node000015" class="edge">
<title>Node1&#45;&gt;Node15</title>
<g id="a_edge19_Node000001_Node000015"><a xlink:title=" ">
<path fill="none" stroke="#63b8ff" d="M781.81,-187.83C810.69,-178.15 845.44,-166.5 875.63,-156.38"/>
<polygon fill="#63b8ff" stroke="#63b8ff" points="876.71,-159.71 885.08,-153.21 874.49,-153.07 876.71,-159.71"/>
</a>
</g>
</g>
<!-- Node16 -->
<g id="Node000016" class="node">
<title>Node16</title>
<g id="a_Node000016"><a xlink:title=" ">
<polygon fill="#e0e0e0" stroke="#999999" points="1150.62,-152.25 1025.88,-152.25 1025.88,-110.5 1150.62,-110.5 1150.62,-152.25"/>
<text text-anchor="start" x="1033.88" y="-138.75" font-family="Helvetica,sans-Serif" font-size="10.00">typed_linear_algebra</text>
<text text-anchor="start" x="1033.88" y="-127.5" font-family="Helvetica,sans-Serif" font-size="10.00">_internal/algorithm/matrix</text>
<text text-anchor="middle" x="1088.25" y="-116.25" font-family="Helvetica,sans-Serif" font-size="10.00">_product.tpp</text>
</a>
</g>
</g>
<!-- Node1&#45;&gt;Node16 -->
<g id="edge20_Node000001_Node000016" class="edge">
<title>Node1&#45;&gt;Node16</title>
<g id="a_edge20_Node000001_Node000016"><a xlink:title=" ">
<path fill="none" stroke="#63b8ff" d="M786.26,-197.52C843.93,-187.73 930.66,-172.09 1014.59,-152.79"/>
<polygon fill="#63b8ff" stroke="#63b8ff" points="1015.18,-156.24 1024.13,-150.57 1013.6,-149.42 1015.18,-156.24"/>
</a>
</g>
</g>
<!-- Node17 -->
<g id="Node000017" class="node">
<title>Node17</title>
<g id="a_Node000017"><a xlink:title=" ">
<polygon fill="#e0e0e0" stroke="#999999" points="1315.5,-146.62 1169,-146.62 1169,-116.12 1315.5,-116.12 1315.5,-146.62"/>
<text text-anchor="start" x="1177" y="-133.12" font-family="Helvetica,sans-Serif" font-size="10.00">typed_linear_algebra</text>
<text text-anchor="middle" x="1242.25" y="-121.88" font-family="Helvetica,sans-Serif" font-size="10.00">_internal/algorithm/product.tpp</text>
</a>
</g>
</g>
<!-- Node1&#45;&gt;Node17 -->
<g id="edge21_Node000001_Node000017" class="edge">
<title>Node1&#45;&gt;Node17</title>
<g id="a_edge21_Node000001_Node000017"><a xlink:title=" ">
<path fill="none" stroke="#63b8ff" d="M786.15,-202.06C871.96,-193.54 1027.67,-176.32 1159.25,-152.25 1163.84,-151.41 1168.56,-150.48 1173.3,-149.48"/>
<polygon fill="#63b8ff" stroke="#63b8ff" points="1173.86,-152.94 1182.89,-147.4 1172.38,-146.1 1173.86,-152.94"/>
</a>
</g>
</g>
<!-- Node18 -->
<g id="Node000018" class="node">
<title>Node18</title>
<g id="a_Node000018"><a xlink:title=" ">
<polygon fill="#e0e0e0" stroke="#999999" points="1471,-146.62 1333.5,-146.62 1333.5,-116.12 1471,-116.12 1471,-146.62"/>
<text text-anchor="start" x="1341.5" y="-133.12" font-family="Helvetica,sans-Serif" font-size="10.00">typed_linear_algebra</text>
<text text-anchor="middle" x="1402.25" y="-121.88" font-family="Helvetica,sans-Serif" font-size="10.00">_internal/algorithm/scale.tpp</text>
</a>
</g>
</g>
<!-- Node1&#45;&gt;Node18 -->
<g id="edge22_Node000001_Node000018" class="edge">
<title>Node1&#45;&gt;Node18</title>
<g id="a_edge22_Node000001_Node000018"><a xlink:title=" ">
<path fill="none" stroke="#63b8ff" d="M785.94,-205.47C896.82,-200.17 1129.99,-185.79 1324.25,-152.25 1328.82,-151.46 1333.52,-150.54 1338.23,-149.54"/>
<polygon fill="#63b8ff" stroke="#63b8ff" points="1338.74,-153.01 1347.73,-147.41 1337.2,-146.18 1338.74,-153.01"/>
</a>
</g>
</g>
<!-- Node19 -->
<g id="Node000019" class="node">
<title>Node19</title>
<g id="a_Node000019"><a xlink:title=" ">
<polygon fill="#e0e0e0" stroke="#999999" points="1643.62,-146.62 1488.88,-146.62 1488.88,-116.12 1643.62,-116.12 1643.62,-146.62"/>
<text text-anchor="start" x="1496.88" y="-133.12" font-family="Helvetica,sans-Serif" font-size="10.00">typed_linear_algebra</text>
<text text-anchor="middle" x="1566.25" y="-121.88" font-family="Helvetica,sans-Serif" font-size="10.00">_internal/algorithm/substract.tpp</text>
</a>
</g>
</g>
<!-- Node1&#45;&gt;Node19 -->
<g id="edge23_Node000001_Node000019" class="edge">
<title>Node1&#45;&gt;Node19</title>
<g id="a_edge23_Node000001_Node000019"><a xlink:title=" ">
<path fill="none" stroke="#63b8ff" d="M786.35,-206.7C918.07,-203.07 1225.34,-190.85 1480.25,-152.25 1485.79,-151.41 1491.5,-150.41 1497.22,-149.3"/>
<polygon fill="#63b8ff" stroke="#63b8ff" points="1497.61,-152.79 1506.71,-147.37 1496.21,-145.93 1497.61,-152.79"/>
</a>
</g>
</g>
<!-- Node20 -->
<g id="Node000020" class="node">
<title>Node20</title>
<g id="a_Node000020"><a xlink:title=" ">
<polygon fill="#e0e0e0" stroke="#999999" points="1824.38,-146.62 1662.12,-146.62 1662.12,-116.12 1824.38,-116.12 1824.38,-146.62"/>
<text text-anchor="start" x="1670.12" y="-133.12" font-family="Helvetica,sans-Serif" font-size="10.00">typed_linear_algebra</text>
<text text-anchor="middle" x="1743.25" y="-121.88" font-family="Helvetica,sans-Serif" font-size="10.00">_internal/algorithm/transposed.tpp</text>
</a>
</g>
</g>
<!-- Node1&#45;&gt;Node20 -->
<g id="edge24_Node000001_Node000020" class="edge">
<title>Node1&#45;&gt;Node20</title>
<g id="a_edge24_Node000001_Node000020"><a xlink:title=" ">
<path fill="none" stroke="#63b8ff" d="M786.21,-207.68C938.33,-205.9 1329.25,-196.94 1652.25,-152.25 1658.51,-151.38 1664.98,-150.32 1671.45,-149.14"/>
<polygon fill="#63b8ff" stroke="#63b8ff" points="1671.65,-152.66 1680.81,-147.34 1670.33,-145.79 1671.65,-152.66"/>
</a>
</g>
</g>
<!-- Node21 -->
<g id="Node000021" class="node">
<title>Node21</title>
<g id="a_Node000021"><a xlink:title=" ">
<polygon fill="#e0e0e0" stroke="#999999" points="1946.5,-146.62 1842,-146.62 1842,-116.12 1946.5,-116.12 1946.5,-146.62"/>
<text text-anchor="start" x="1850" y="-133.12" font-family="Helvetica,sans-Serif" font-size="10.00">typed_linear_algebra</text>
<text text-anchor="middle" x="1894.25" y="-121.88" font-family="Helvetica,sans-Serif" font-size="10.00">_internal/cast.tpp</text>
</a>
</g>
</g>
<!-- Node1&#45;&gt;Node21 -->
<g id="edge25_Node000001_Node000021" class="edge">
<title>Node1&#45;&gt;Node21</title>
<g id="a_edge25_Node000001_Node000021"><a xlink:title=" ">
<path fill="none" stroke="#63b8ff" d="M786.24,-207.11C992.45,-203.55 1630.33,-189.72 1833.25,-152.25 1836.59,-151.63 1840,-150.88 1843.42,-150.03"/>
<polygon fill="#63b8ff" stroke="#63b8ff" points="1844.1,-153.48 1852.82,-147.46 1842.25,-146.73 1844.1,-153.48"/>
</a>
</g>
</g>
<!-- Node22 -->
<g id="Node000022" class="node">
<title>Node22</title>
<g id="a_Node000022"><a xlink:title=" ">
<polygon fill="#e0e0e0" stroke="#999999" points="2069.5,-146.62 1965,-146.62 1965,-116.12 2069.5,-116.12 2069.5,-146.62"/>
<text text-anchor="start" x="1973" y="-133.12" font-family="Helvetica,sans-Serif" font-size="10.00">typed_linear_algebra</text>
<text text-anchor="middle" x="2017.25" y="-121.88" font-family="Helvetica,sans-Serif" font-size="10.00">_internal/tuple.tpp</text>
</a>
</g>
</g>
<!-- Node1&#45;&gt;Node22 -->
<g id="edge26_Node000001_Node000022" class="edge">
<title>Node1&#45;&gt;Node22</title>
<g id="a_edge26_Node000001_Node000022"><a xlink:title=" ">
<path fill="none" stroke="#63b8ff" d="M786.29,-207.45C1007.18,-204.8 1727.55,-193.15 1955.25,-152.25 1958.64,-151.64 1962.11,-150.89 1965.58,-150.05"/>
<polygon fill="#63b8ff" stroke="#63b8ff" points="1966.41,-153.45 1975.16,-147.48 1964.59,-146.69 1966.41,-153.45"/>
</a>
</g>
</g>
<!-- Node23 -->
<g id="Node000023" class="node">
<title>Node23</title>
<g id="a_Node000023"><a xlink:title=" ">
<polygon fill="#e0e0e0" stroke="#999999" points="2195,-152.25 2087.5,-152.25 2087.5,-110.5 2195,-110.5 2195,-152.25"/>
<text text-anchor="start" x="2095.5" y="-138.75" font-family="Helvetica,sans-Serif" font-size="10.00">typed_linear_algebra</text>
<text text-anchor="start" x="2095.5" y="-127.5" font-family="Helvetica,sans-Serif" font-size="10.00">_internal/typed_linear</text>
<text text-anchor="middle" x="2141.25" y="-116.25" font-family="Helvetica,sans-Serif" font-size="10.00">_algebra.tpp</text>
</a>
</g>
</g>
<!-- Node1&#45;&gt;Node23 -->
<g id="edge27_Node000001_Node000023" class="edge">
<title>Node1&#45;&gt;Node23</title>
<g id="a_edge27_Node000001_Node000023"><a xlink:title=" ">
<path fill="none" stroke="#63b8ff" d="M786.14,-207.72C1017.69,-205.93 1803.49,-196.79 2076.14,-152.3"/>
<polygon fill="#63b8ff" stroke="#63b8ff" points="2076.41,-155.81 2085.69,-150.68 2075.24,-148.9 2076.41,-155.81"/>
</a>
</g>
</g>
<!-- Node3&#45;&gt;Node4 -->
<g id="edge3_Node000003_Node000004" class="edge">
<title>Node3&#45;&gt;Node4</title>
<g id="a_edge3_Node000003_Node000004"><a xlink:title=" ">
<path fill="none" stroke="#63b8ff" d="M276.68,-115.74C269.11,-106.16 259.17,-93.6 251.17,-83.48"/>
<polygon fill="#63b8ff" stroke="#63b8ff" points="254.11,-81.56 245.16,-75.88 248.62,-85.9 254.11,-81.56"/>
</a>
</g>
</g>
<!-- Node3&#45;&gt;Node9 -->
<g id="edge8_Node000003_Node000009" class="edge">
<title>Node3&#45;&gt;Node9</title>
<g id="a_edge8_Node000003_Node000009"><a xlink:title=" ">
<path fill="none" stroke="#63b8ff" d="M296.42,-115.74C301.54,-106.56 308.2,-94.63 313.72,-84.74"/>
<polygon fill="#63b8ff" stroke="#63b8ff" points="316.77,-86.46 318.59,-76.02 310.66,-83.05 316.77,-86.46"/>
</a>
</g>
</g>
<!-- Node3&#45;&gt;Node10 -->
<g id="edge9_Node000003_Node000010" class="edge">
<title>Node3&#45;&gt;Node10</title>
<g id="a_edge9_Node000003_Node000010"><a xlink:title=" ">
<path fill="none" stroke="#63b8ff" d="M312.98,-115.74C330.73,-105.24 354.55,-91.14 372.34,-80.62"/>
<polygon fill="#63b8ff" stroke="#63b8ff" points="373.9,-83.76 380.72,-75.66 370.33,-77.74 373.9,-83.76"/>
</a>
</g>
</g>
<!-- Node4&#45;&gt;Node5 -->
<g id="edge4_Node000004_Node000005" class="edge">
<title>Node4&#45;&gt;Node5</title>
<g id="a_edge4_Node000004_Node000005"><a xlink:title=" ">
<path fill="none" stroke="#63b8ff" d="M217.23,-54.84C198.76,-46.5 171.04,-34 149.8,-24.41"/>
<polygon fill="#63b8ff" stroke="#63b8ff" points="151.3,-21.25 140.74,-20.33 148.42,-27.63 151.3,-21.25"/>
</a>
</g>
</g>
<!-- Node6 -->
<g id="Node000006" class="node">
<title>Node6</title>
<g id="a_Node000006"><a xlink:title=" ">
<polygon fill="#e0e0e0" stroke="#999999" points="278.25,-19.25 220.25,-19.25 220.25,0 278.25,0 278.25,-19.25"/>
<text text-anchor="middle" x="249.25" y="-5.75" font-family="Helvetica,sans-Serif" font-size="10.00">functional</text>
</a>
</g>
</g>
<!-- Node4&#45;&gt;Node6 -->
<g id="edge5_Node000004_Node000006" class="edge">
<title>Node4&#45;&gt;Node6</title>
<g id="a_edge5_Node000004_Node000006"><a xlink:title=" ">
<path fill="none" stroke="#63b8ff" d="M239.23,-55.08C240.72,-48.49 242.81,-39.21 244.7,-30.82"/>
<polygon fill="#63b8ff" stroke="#63b8ff" points="248.11,-31.61 246.89,-21.09 241.28,-30.07 248.11,-31.61"/>
</a>
</g>
</g>
<!-- Node4&#45;&gt;Node7 -->
<g id="edge6_Node000004_Node000007" class="edge">
<title>Node4&#45;&gt;Node7</title>
<g id="a_edge6_Node000004_Node000007"><a xlink:title=" ">
<path fill="none" stroke="#63b8ff" d="M228.33,-55.08C220.8,-47.65 209.78,-36.79 200.52,-27.66"/>
<polygon fill="#63b8ff" stroke="#63b8ff" points="203.02,-25.2 193.44,-20.67 198.1,-30.19 203.02,-25.2"/>
</a>
</g>
</g>
<!-- Node8 -->
<g id="Node000008" class="node">
<title>Node8</title>
<g id="a_Node000008"><a xlink:title=" ">
<polygon fill="#e0e0e0" stroke="#999999" points="357.75,-19.25 296.75,-19.25 296.75,0 357.75,0 357.75,-19.25"/>
<text text-anchor="middle" x="327.25" y="-5.75" font-family="Helvetica,sans-Serif" font-size="10.00">type_traits</text>
</a>
</g>
</g>
<!-- Node4&#45;&gt;Node8 -->
<g id="edge7_Node000004_Node000008" class="edge">
<title>Node4&#45;&gt;Node8</title>
<g id="a_edge7_Node000004_Node000008"><a xlink:title=" ">
<path fill="none" stroke="#63b8ff" d="M252.52,-54.84C266.09,-46.81 286.2,-34.91 302.15,-25.48"/>
<polygon fill="#63b8ff" stroke="#63b8ff" points="303.78,-28.58 310.61,-20.47 300.22,-22.55 303.78,-28.58"/>
</a>
</g>
</g>
</g>
</svg>
