<?xml version="1.0" encoding="UTF-8" standalone="no"?>
<!DOCTYPE svg PUBLIC "-//W3C//DTD SVG 1.1//EN"
 "http://www.w3.org/Graphics/SVG/1.1/DTD/svg11.dtd">
<!-- Generated by graphviz version 12.2.0 (20241103.1931)
 -->
<!-- Title: /github/workspace/support/unit_eigen/fcarouge/linalg.hpp Pages: 1 -->
<svg width="3102pt" height="360pt"
 viewBox="0.00 0.00 3102.12 359.75" xmlns="http://www.w3.org/2000/svg" xmlns:xlink="http://www.w3.org/1999/xlink">
<g id="graph0" class="graph" transform="scale(1 1) rotate(0) translate(4 355.75)">
<title>/github/workspace/support/unit_eigen/fcarouge/linalg.hpp</title>
<!-- Node1 -->
<g id="Node000001" class="node">
<title>Node1</title>
<g id="a_Node000001"><a xlink:title="Indexed&#45;based linear algebra with mp&#45;units with Eigen implementations.">
<polygon fill="#999999" stroke="#666666" points="1958.25,-351.75 1811,-351.75 1811,-321.25 1958.25,-321.25 1958.25,-351.75"/>
<text text-anchor="start" x="1819" y="-338.25" font-family="Helvetica,sans-Serif" font-size="10.00">/github/workspace/support</text>
<text text-anchor="middle" x="1884.62" y="-327" font-family="Helvetica,sans-Serif" font-size="10.00">/unit_eigen/fcarouge/linalg.hpp</text>
</a>
</g>
</g>
<!-- Node2 -->
<g id="Node000002" class="node">
<title>Node2</title>
<g id="a_Node000002"><a xlink:href="eigen_8hpp.xhtml" target="_top" xlink:title="Linear algebra facade for Eigen3 third party implementation.">
<polygon fill="white" stroke="#666666" points="2826.5,-285.25 2728.75,-285.25 2728.75,-266 2826.5,-266 2826.5,-285.25"/>
<text text-anchor="middle" x="2777.62" y="-271.75" font-family="Helvetica,sans-Serif" font-size="10.00">fcarouge/eigen.hpp</text>
</a>
</g>
</g>
<!-- Node1&#45;&gt;Node2 -->
<g id="edge1_Node000001_Node000002" class="edge">
<title>Node1&#45;&gt;Node2</title>
<g id="a_edge1_Node000001_Node000002"><a xlink:title=" ">
<path fill="none" stroke="#63b8ff" d="M1958.46,-330.63C2131.01,-319.26 2558.03,-291.1 2716.85,-280.63"/>
<polygon fill="#63b8ff" stroke="#63b8ff" points="2717,-284.13 2726.75,-279.98 2716.54,-277.14 2717,-284.13"/>
</a>
</g>
</g>
<!-- Node3 -->
<g id="Node000003" class="node">
<title>Node3</title>
<g id="a_Node000003"><a xlink:href="typed__linear__algebra_8hpp.xhtml" target="_top" xlink:title="Typed linear algebra implementation.">
<polygon fill="white" stroke="#666666" points="1938.75,-230 1830.5,-230 1830.5,-199.5 1938.75,-199.5 1938.75,-230"/>
<text text-anchor="start" x="1838.5" y="-216.5" font-family="Helvetica,sans-Serif" font-size="10.00">fcarouge/typed_linear</text>
<text text-anchor="middle" x="1884.62" y="-205.25" font-family="Helvetica,sans-Serif" font-size="10.00">_algebra.hpp</text>
</a>
</g>
</g>
<!-- Node1&#45;&gt;Node3 -->
<g id="edge40_Node000001_Node000003" class="edge">
<title>Node1&#45;&gt;Node3</title>
<g id="a_edge40_Node000001_Node000003"><a xlink:title=" ">
<path fill="none" stroke="#63b8ff" d="M1884.62,-320.82C1884.62,-301.14 1884.62,-265.89 1884.62,-241.69"/>
<polygon fill="#63b8ff" stroke="#63b8ff" points="1888.13,-241.69 1884.63,-231.69 1881.13,-241.69 1888.13,-241.69"/>
</a>
</g>
</g>
<!-- Node28 -->
<g id="Node000028" class="node">
<title>Node28</title>
<g id="a_Node000028"><a xlink:href="unit_8hpp.xhtml" target="_top" xlink:title="Quantities and units facade for mp&#45;units third party implementation.">
<polygon fill="white" stroke="#666666" points="383.75,-285.25 293.5,-285.25 293.5,-266 383.75,-266 383.75,-285.25"/>
<text text-anchor="middle" x="338.62" y="-271.75" font-family="Helvetica,sans-Serif" font-size="10.00">fcarouge/unit.hpp</text>
</a>
</g>
</g>
<!-- Node1&#45;&gt;Node28 -->
<g id="edge41_Node000001_Node000028" class="edge">
<title>Node1&#45;&gt;Node28</title>
<g id="a_edge41_Node000001_Node000028"><a xlink:title=" ">
<path fill="none" stroke="#63b8ff" d="M1810.58,-332.68C1543.46,-322.51 632.68,-287.82 395.48,-278.79"/>
<polygon fill="#63b8ff" stroke="#63b8ff" points="395.69,-275.3 385.56,-278.41 395.42,-282.29 395.69,-275.3"/>
</a>
</g>
</g>
<!-- Node2&#45;&gt;Node3 -->
<g id="edge2_Node000002_Node000003" class="edge">
<title>Node2&#45;&gt;Node3</title>
<g id="a_edge2_Node000002_Node000003"><a xlink:title=" ">
<path fill="none" stroke="#63b8ff" d="M2728.34,-271.38C2577.42,-261.43 2121.48,-231.37 1950.41,-220.09"/>
<polygon fill="#63b8ff" stroke="#63b8ff" points="1950.8,-216.61 1940.59,-219.44 1950.34,-223.59 1950.8,-216.61"/>
</a>
</g>
</g>
<!-- Node7 -->
<g id="Node000007" class="node">
<title>Node7</title>
<g id="a_Node000007"><a xlink:title=" ">
<polygon fill="#e0e0e0" stroke="#999999" points="695.5,-24.88 639.75,-24.88 639.75,-5.63 695.5,-5.63 695.5,-24.88"/>
<text text-anchor="middle" x="667.62" y="-11.38" font-family="Helvetica,sans-Serif" font-size="10.00">concepts</text>
</a>
</g>
</g>
<!-- Node2&#45;&gt;Node7 -->
<g id="edge33_Node000002_Node000007" class="edge">
<title>Node2&#45;&gt;Node7</title>
<g id="a_edge33_Node000002_Node000007"><a xlink:title=" ">
<path fill="none" stroke="#63b8ff" d="M2728.67,-273.65C2421.66,-267.35 771.9,-230.42 690.62,-163.5 653.42,-132.86 658.18,-68.85 663.53,-36.25"/>
<polygon fill="#63b8ff" stroke="#63b8ff" points="666.95,-37.04 665.33,-26.57 660.06,-35.77 666.95,-37.04"/>
</a>
</g>
</g>
<!-- Node8 -->
<g id="Node000008" class="node">
<title>Node8</title>
<g id="a_Node000008"><a xlink:title=" ">
<polygon fill="#e0e0e0" stroke="#999999" points="2631.75,-24.88 2583.5,-24.88 2583.5,-5.63 2631.75,-5.63 2631.75,-24.88"/>
<text text-anchor="middle" x="2607.62" y="-11.38" font-family="Helvetica,sans-Serif" font-size="10.00">cstddef</text>
</a>
</g>
</g>
<!-- Node2&#45;&gt;Node8 -->
<g id="edge34_Node000002_Node000008" class="edge">
<title>Node2&#45;&gt;Node8</title>
<g id="a_edge34_Node000002_Node000008"><a xlink:title=" ">
<path fill="none" stroke="#63b8ff" d="M2775.81,-265.69C2770.51,-241.05 2753.32,-170.76 2720.62,-121.75 2695.64,-84.3 2654.89,-50.63 2629.75,-31.87"/>
<polygon fill="#63b8ff" stroke="#63b8ff" points="2632,-29.18 2621.86,-26.11 2627.87,-34.83 2632,-29.18"/>
</a>
</g>
</g>
<!-- Node10 -->
<g id="Node000010" class="node">
<title>Node10</title>
<g id="a_Node000010"><a xlink:title=" ">
<polygon fill="#e0e0e0" stroke="#999999" points="2885.12,-24.88 2848.12,-24.88 2848.12,-5.63 2885.12,-5.63 2885.12,-24.88"/>
<text text-anchor="middle" x="2866.62" y="-11.38" font-family="Helvetica,sans-Serif" font-size="10.00">tuple</text>
</a>
</g>
</g>
<!-- Node2&#45;&gt;Node10 -->
<g id="edge37_Node000002_Node000010" class="edge">
<title>Node2&#45;&gt;Node10</title>
<g id="a_edge37_Node000002_Node000010"><a xlink:title=" ">
<path fill="none" stroke="#63b8ff" d="M2783.13,-265.63C2798.97,-239.2 2844.66,-159.09 2862.62,-85.75 2866.63,-69.39 2867.46,-50.25 2867.39,-36.2"/>
<polygon fill="#63b8ff" stroke="#63b8ff" points="2870.89,-36.39 2867.16,-26.47 2863.89,-36.55 2870.89,-36.39"/>
</a>
</g>
</g>
<!-- Node11 -->
<g id="Node000011" class="node">
<title>Node11</title>
<g id="a_Node000011"><a xlink:title=" ">
<polygon fill="#e0e0e0" stroke="#999999" points="2964.12,-24.88 2903.12,-24.88 2903.12,-5.63 2964.12,-5.63 2964.12,-24.88"/>
<text text-anchor="middle" x="2933.62" y="-11.38" font-family="Helvetica,sans-Serif" font-size="10.00">type_traits</text>
</a>
</g>
</g>
<!-- Node2&#45;&gt;Node11 -->
<g id="edge38_Node000002_Node000011" class="edge">
<title>Node2&#45;&gt;Node11</title>
<g id="a_edge38_Node000002_Node000011"><a xlink:title=" ">
<path fill="none" stroke="#63b8ff" d="M2789.13,-265.63C2799.35,-257.21 2814.26,-243.88 2824.62,-230 2873.31,-164.81 2911.16,-74.66 2926.36,-35.59"/>
<polygon fill="#63b8ff" stroke="#63b8ff" points="2929.57,-37 2929.88,-26.41 2923.03,-34.5 2929.57,-37"/>
</a>
</g>
</g>
<!-- Node12 -->
<g id="Node000012" class="node">
<title>Node12</title>
<g id="a_Node000012"><a xlink:title=" ">
<polygon fill="#e0e0e0" stroke="#999999" points="2597.5,-85.75 2553.75,-85.75 2553.75,-66.5 2597.5,-66.5 2597.5,-85.75"/>
<text text-anchor="middle" x="2575.62" y="-72.25" font-family="Helvetica,sans-Serif" font-size="10.00">format</text>
</a>
</g>
</g>
<!-- Node2&#45;&gt;Node12 -->
<g id="edge35_Node000002_Node000012" class="edge">
<title>Node2&#45;&gt;Node12</title>
<g id="a_edge35_Node000002_Node000012"><a xlink:title=" ">
<path fill="none" stroke="#63b8ff" d="M2751.34,-265.54C2712.01,-250.59 2638.26,-216.99 2598.62,-163.5 2584.21,-144.05 2578.82,-116.23 2576.81,-97.46"/>
<polygon fill="#63b8ff" stroke="#63b8ff" points="2580.31,-97.32 2576.02,-87.64 2573.34,-97.89 2580.31,-97.32"/>
</a>
</g>
</g>
<!-- Node26 -->
<g id="Node000026" class="node">
<title>Node26</title>
<g id="a_Node000026"><a xlink:title=" ">
<polygon fill="#e0e0e0" stroke="#999999" points="3009.25,-224.38 2958,-224.38 2958,-205.12 3009.25,-205.12 3009.25,-224.38"/>
<text text-anchor="middle" x="2983.62" y="-210.88" font-family="Helvetica,sans-Serif" font-size="10.00">sstream</text>
</a>
</g>
</g>
<!-- Node2&#45;&gt;Node26 -->
<g id="edge36_Node000002_Node000026" class="edge">
<title>Node2&#45;&gt;Node26</title>
<g id="a_edge36_Node000002_Node000026"><a xlink:title=" ">
<path fill="none" stroke="#63b8ff" d="M2814.79,-265.54C2848.59,-257.06 2899.75,-243.69 2943.62,-230 2945.21,-229.51 2946.82,-228.99 2948.45,-228.46"/>
<polygon fill="#63b8ff" stroke="#63b8ff" points="2949.42,-231.82 2957.76,-225.29 2947.16,-225.2 2949.42,-231.82"/>
</a>
</g>
</g>
<!-- Node27 -->
<g id="Node000027" class="node">
<title>Node27</title>
<g id="a_Node000027"><a xlink:title=" ">
<polygon fill="#e0e0e0" stroke="#999999" points="3094.12,-224.38 3027.12,-224.38 3027.12,-205.12 3094.12,-205.12 3094.12,-224.38"/>
<text text-anchor="middle" x="3060.62" y="-210.88" font-family="Helvetica,sans-Serif" font-size="10.00">Eigen/Eigen</text>
</a>
</g>
</g>
<!-- Node2&#45;&gt;Node27 -->
<g id="edge39_Node000002_Node000027" class="edge">
<title>Node2&#45;&gt;Node27</title>
<g id="a_edge39_Node000002_Node000027"><a xlink:title=" ">
<path fill="none" stroke="#63b8ff" d="M2826.55,-267.68C2875.56,-260.23 2952.95,-247.13 3018.62,-230 3020.75,-229.45 3022.92,-228.84 3025.1,-228.2"/>
<polygon fill="#63b8ff" stroke="#63b8ff" points="3026,-231.58 3034.49,-225.24 3023.9,-224.91 3026,-231.58"/>
</a>
</g>
</g>
<!-- Node4 -->
<g id="Node000004" class="node">
<title>Node4</title>
<g id="a_Node000004"><a xlink:href="typed__linear__algebra__forward_8hpp.xhtml" target="_top" xlink:title="Authoritative forward declaration header.">
<polygon fill="white" stroke="#666666" points="2753.88,-30.5 2649.38,-30.5 2649.38,0 2753.88,0 2753.88,-30.5"/>
<text text-anchor="start" x="2657.38" y="-17" font-family="Helvetica,sans-Serif" font-size="10.00">typed_linear_algebra</text>
<text text-anchor="middle" x="2701.62" y="-5.75" font-family="Helvetica,sans-Serif" font-size="10.00">_forward.hpp</text>
</a>
</g>
</g>
<!-- Node3&#45;&gt;Node4 -->
<g id="edge3_Node000003_Node000004" class="edge">
<title>Node3&#45;&gt;Node4</title>
<g id="a_edge3_Node000003_Node000004"><a xlink:title=" ">
<path fill="none" stroke="#63b8ff" d="M1939.07,-212.51C2120.39,-208.11 2693.79,-192 2720.62,-163.5 2751.74,-130.46 2731.06,-73.2 2715.12,-40.67"/>
<polygon fill="#63b8ff" stroke="#63b8ff" points="2718.35,-39.3 2710.67,-32.01 2712.12,-42.5 2718.35,-39.3"/>
</a>
</g>
</g>
<!-- Node5 -->
<g id="Node000005" class="node">
<title>Node5</title>
<g id="a_Node000005"><a xlink:href="format_8hpp.xhtml" target="_top" xlink:title="Formatting support for the typed matrix.">
<polygon fill="white" stroke="#666666" points="2711.88,-157.88 2607.38,-157.88 2607.38,-127.38 2711.88,-127.38 2711.88,-157.88"/>
<text text-anchor="start" x="2615.38" y="-144.38" font-family="Helvetica,sans-Serif" font-size="10.00">typed_linear_algebra</text>
<text text-anchor="middle" x="2659.62" y="-133.12" font-family="Helvetica,sans-Serif" font-size="10.00">_internal/format.hpp</text>
</a>
</g>
</g>
<!-- Node3&#45;&gt;Node5 -->
<g id="edge4_Node000003_Node000005" class="edge">
<title>Node3&#45;&gt;Node5</title>
<g id="a_edge4_Node000003_Node000005"><a xlink:title=" ">
<path fill="none" stroke="#63b8ff" d="M1939.2,-211.77C2053.81,-207.16 2327.78,-193.7 2555.62,-163.5 2568.72,-161.76 2582.66,-159.44 2595.94,-156.99"/>
<polygon fill="#63b8ff" stroke="#63b8ff" points="2596.25,-160.49 2605.42,-155.19 2594.94,-153.61 2596.25,-160.49"/>
</a>
</g>
</g>
<!-- Node6 -->
<g id="Node000006" class="node">
<title>Node6</title>
<g id="a_Node000006"><a xlink:href="utility_8hpp.xhtml" target="_top" xlink:title=" ">
<polygon fill="white" stroke="#666666" points="2824.88,-85.75 2768.38,-85.75 2768.38,-66.5 2824.88,-66.5 2824.88,-85.75"/>
<text text-anchor="middle" x="2796.62" y="-72.25" font-family="Helvetica,sans-Serif" font-size="10.00">utility.hpp</text>
</a>
</g>
</g>
<!-- Node3&#45;&gt;Node6 -->
<g id="edge15_Node000003_Node000006" class="edge">
<title>Node3&#45;&gt;Node6</title>
<g id="a_edge15_Node000003_Node000006"><a xlink:title=" ">
<path fill="none" stroke="#63b8ff" d="M1939.14,-213.74C2118.97,-213.27 2685.83,-208.24 2753.62,-163.5 2776.32,-148.52 2787.52,-117.82 2792.68,-97.35"/>
<polygon fill="#63b8ff" stroke="#63b8ff" points="2796.09,-98.15 2794.83,-87.63 2789.25,-96.64 2796.09,-98.15"/>
</a>
</g>
</g>
<!-- Node3&#45;&gt;Node7 -->
<g id="edge16_Node000003_Node000007" class="edge">
<title>Node3&#45;&gt;Node7</title>
<g id="a_edge16_Node000003_Node000007"><a xlink:title=" ">
<path fill="none" stroke="#63b8ff" d="M1830.21,-212.99C1607.53,-209.69 775.27,-195.26 729.62,-163.5 687.21,-133.99 673.7,-69.46 669.48,-36.5"/>
<polygon fill="#63b8ff" stroke="#63b8ff" points="672.97,-36.27 668.41,-26.71 666.02,-37.03 672.97,-36.27"/>
</a>
</g>
</g>
<!-- Node3&#45;&gt;Node8 -->
<g id="edge17_Node000003_Node000008" class="edge">
<title>Node3&#45;&gt;Node8</title>
<g id="a_edge17_Node000003_Node000008"><a xlink:title=" ">
<path fill="none" stroke="#63b8ff" d="M1830.11,-213.42C1608.04,-211.81 781.58,-203.16 743.62,-163.5 730.8,-150.09 730.88,-135.24 743.62,-121.75 808.89,-52.69 2319.08,-21.62 2571.88,-16.89"/>
<polygon fill="#63b8ff" stroke="#63b8ff" points="2571.83,-20.4 2581.77,-16.71 2571.7,-13.4 2571.83,-20.4"/>
</a>
</g>
</g>
<!-- Node3&#45;&gt;Node10 -->
<g id="edge20_Node000003_Node000010" class="edge">
<title>Node3&#45;&gt;Node10</title>
<g id="a_edge20_Node000003_Node000010"><a xlink:title=" ">
<path fill="none" stroke="#63b8ff" d="M1939.15,-213.53C2122.54,-212.41 2709.71,-205.55 2782.62,-163.5 2830.55,-135.86 2853.39,-69.41 2862.14,-36.06"/>
<polygon fill="#63b8ff" stroke="#63b8ff" points="2865.5,-37.06 2864.47,-26.51 2858.69,-35.4 2865.5,-37.06"/>
</a>
</g>
</g>
<!-- Node3&#45;&gt;Node12 -->
<g id="edge18_Node000003_Node000012" class="edge">
<title>Node3&#45;&gt;Node12</title>
<g id="a_edge18_Node000003_Node000012"><a xlink:title=" ">
<path fill="none" stroke="#63b8ff" d="M1939.09,-212.27C2084.38,-207.94 2473.44,-193.62 2522.62,-163.5 2547.21,-148.44 2562.03,-117.28 2569.52,-96.79"/>
<polygon fill="#63b8ff" stroke="#63b8ff" points="2572.74,-98.2 2572.62,-87.6 2566.11,-95.96 2572.74,-98.2"/>
</a>
</g>
</g>
<!-- Node13 -->
<g id="Node000013" class="node">
<title>Node13</title>
<g id="a_Node000013"><a xlink:title=" ">
<polygon fill="#e0e0e0" stroke="#999999" points="824.38,-152.25 752.88,-152.25 752.88,-133 824.38,-133 824.38,-152.25"/>
<text text-anchor="middle" x="788.62" y="-138.75" font-family="Helvetica,sans-Serif" font-size="10.00">initializer_list</text>
</a>
</g>
</g>
<!-- Node3&#45;&gt;Node13 -->
<g id="edge19_Node000003_Node000013" class="edge">
<title>Node3&#45;&gt;Node13</title>
<g id="a_edge19_Node000003_Node000013"><a xlink:title=" ">
<path fill="none" stroke="#63b8ff" d="M1830.05,-213.77C1642.56,-213.44 1025.75,-208.86 833.62,-163.5 827.49,-162.05 821.16,-159.79 815.25,-157.3"/>
<polygon fill="#63b8ff" stroke="#63b8ff" points="817.13,-154.31 806.58,-153.34 814.22,-160.68 817.13,-154.31"/>
</a>
</g>
</g>
<!-- Node14 -->
<g id="Node000014" class="node">
<title>Node14</title>
<g id="a_Node000014"><a xlink:title=" ">
<polygon fill="#e0e0e0" stroke="#999999" points="880.88,-152.25 842.38,-152.25 842.38,-133 880.88,-133 880.88,-152.25"/>
<text text-anchor="middle" x="861.62" y="-138.75" font-family="Helvetica,sans-Serif" font-size="10.00">utility</text>
</a>
</g>
</g>
<!-- Node3&#45;&gt;Node14 -->
<g id="edge21_Node000003_Node000014" class="edge">
<title>Node3&#45;&gt;Node14</title>
<g id="a_edge21_Node000003_Node000014"><a xlink:title=" ">
<path fill="none" stroke="#63b8ff" d="M1830.25,-212.78C1635.33,-209.06 978.53,-194.34 889.62,-163.5 886.61,-162.46 883.64,-160.98 880.82,-159.3"/>
<polygon fill="#63b8ff" stroke="#63b8ff" points="882.9,-156.48 872.71,-153.59 878.87,-162.21 882.9,-156.48"/>
</a>
</g>
</g>
<!-- Node15 -->
<g id="Node000015" class="node">
<title>Node15</title>
<g id="a_Node000015"><a xlink:title=" ">
<polygon fill="#e0e0e0" stroke="#999999" points="1028.62,-157.88 898.62,-157.88 898.62,-127.38 1028.62,-127.38 1028.62,-157.88"/>
<text text-anchor="start" x="906.62" y="-144.38" font-family="Helvetica,sans-Serif" font-size="10.00">typed_linear_algebra</text>
<text text-anchor="middle" x="963.62" y="-133.12" font-family="Helvetica,sans-Serif" font-size="10.00">_internal/algorithm/add.tpp</text>
</a>
</g>
</g>
<!-- Node3&#45;&gt;Node15 -->
<g id="edge22_Node000003_Node000015" class="edge">
<title>Node3&#45;&gt;Node15</title>
<g id="a_edge22_Node000003_Node000015"><a xlink:title=" ">
<path fill="none" stroke="#63b8ff" d="M1830.2,-214.33C1695.1,-214.95 1333.89,-211.56 1037.62,-163.5 1033.05,-162.76 1028.34,-161.85 1023.63,-160.83"/>
<polygon fill="#63b8ff" stroke="#63b8ff" points="1024.69,-157.48 1014.15,-158.63 1023.11,-164.3 1024.69,-157.48"/>
</a>
</g>
</g>
<!-- Node16 -->
<g id="Node000016" class="node">
<title>Node16</title>
<g id="a_Node000016"><a xlink:title=" ">
<polygon fill="#e0e0e0" stroke="#999999" points="1186.5,-157.88 1046.75,-157.88 1046.75,-127.38 1186.5,-127.38 1186.5,-157.88"/>
<text text-anchor="start" x="1054.75" y="-144.38" font-family="Helvetica,sans-Serif" font-size="10.00">typed_linear_algebra</text>
<text text-anchor="middle" x="1116.62" y="-133.12" font-family="Helvetica,sans-Serif" font-size="10.00">_internal/algorithm/divide.tpp</text>
</a>
</g>
</g>
<!-- Node3&#45;&gt;Node16 -->
<g id="edge23_Node000003_Node000016" class="edge">
<title>Node3&#45;&gt;Node16</title>
<g id="a_edge23_Node000003_Node000016"><a xlink:title=" ">
<path fill="none" stroke="#63b8ff" d="M1830.21,-212.98C1713.31,-210.64 1429.78,-201.2 1195.62,-163.5 1190.78,-162.72 1185.8,-161.79 1180.81,-160.76"/>
<polygon fill="#63b8ff" stroke="#63b8ff" points="1181.9,-157.41 1171.39,-158.69 1180.4,-164.25 1181.9,-157.41"/>
</a>
</g>
</g>
<!-- Node17 -->
<g id="Node000017" class="node">
<title>Node17</title>
<g id="a_Node000017"><a xlink:title=" ">
<polygon fill="#e0e0e0" stroke="#999999" points="1326.5,-163.5 1204.75,-163.5 1204.75,-121.75 1326.5,-121.75 1326.5,-163.5"/>
<text text-anchor="start" x="1212.75" y="-150" font-family="Helvetica,sans-Serif" font-size="10.00">typed_linear_algebra</text>
<text text-anchor="start" x="1212.75" y="-138.75" font-family="Helvetica,sans-Serif" font-size="10.00">_internal/algorithm/equal</text>
<text text-anchor="middle" x="1265.62" y="-127.5" font-family="Helvetica,sans-Serif" font-size="10.00">_to.tpp</text>
</a>
</g>
</g>
<!-- Node3&#45;&gt;Node17 -->
<g id="edge24_Node000003_Node000017" class="edge">
<title>Node3&#45;&gt;Node17</title>
<g id="a_edge24_Node000003_Node000017"><a xlink:title=" ">
<path fill="none" stroke="#63b8ff" d="M1830.01,-212.1C1732.78,-208.44 1523.25,-197.27 1338.24,-163.81"/>
<polygon fill="#63b8ff" stroke="#63b8ff" points="1338.89,-160.37 1328.42,-162 1337.62,-167.25 1338.89,-160.37"/>
</a>
</g>
</g>
<!-- Node18 -->
<g id="Node000018" class="node">
<title>Node18</title>
<g id="a_Node000018"><a xlink:title=" ">
<polygon fill="#e0e0e0" stroke="#999999" points="1469,-163.5 1344.25,-163.5 1344.25,-121.75 1469,-121.75 1469,-163.5"/>
<text text-anchor="start" x="1352.25" y="-150" font-family="Helvetica,sans-Serif" font-size="10.00">typed_linear_algebra</text>
<text text-anchor="start" x="1352.25" y="-138.75" font-family="Helvetica,sans-Serif" font-size="10.00">_internal/algorithm/matrix</text>
<text text-anchor="middle" x="1406.62" y="-127.5" font-family="Helvetica,sans-Serif" font-size="10.00">_product.tpp</text>
</a>
</g>
</g>
<!-- Node3&#45;&gt;Node18 -->
<g id="edge25_Node000003_Node000018" class="edge">
<title>Node3&#45;&gt;Node18</title>
<g id="a_edge25_Node000003_Node000018"><a xlink:title=" ">
<path fill="none" stroke="#63b8ff" d="M1830.04,-209.55C1753.86,-203.12 1611.22,-189.05 1480.33,-163.68"/>
<polygon fill="#63b8ff" stroke="#63b8ff" points="1481.3,-160.3 1470.81,-161.81 1479.95,-167.17 1481.3,-160.3"/>
</a>
</g>
</g>
<!-- Node19 -->
<g id="Node000019" class="node">
<title>Node19</title>
<g id="a_Node000019"><a xlink:title=" ">
<polygon fill="#e0e0e0" stroke="#999999" points="1633.88,-157.88 1487.38,-157.88 1487.38,-127.38 1633.88,-127.38 1633.88,-157.88"/>
<text text-anchor="start" x="1495.38" y="-144.38" font-family="Helvetica,sans-Serif" font-size="10.00">typed_linear_algebra</text>
<text text-anchor="middle" x="1560.62" y="-133.12" font-family="Helvetica,sans-Serif" font-size="10.00">_internal/algorithm/product.tpp</text>
</a>
</g>
</g>
<!-- Node3&#45;&gt;Node19 -->
<g id="edge26_Node000003_Node000019" class="edge">
<title>Node3&#45;&gt;Node19</title>
<g id="a_edge26_Node000003_Node000019"><a xlink:title=" ">
<path fill="none" stroke="#63b8ff" d="M1830.21,-202.99C1781.09,-193.14 1706.89,-177.96 1642.62,-163.5 1638.87,-162.65 1635.02,-161.77 1631.13,-160.87"/>
<polygon fill="#63b8ff" stroke="#63b8ff" points="1632.15,-157.52 1621.61,-158.64 1630.55,-164.33 1632.15,-157.52"/>
</a>
</g>
</g>
<!-- Node20 -->
<g id="Node000020" class="node">
<title>Node20</title>
<g id="a_Node000020"><a xlink:title=" ">
<polygon fill="#e0e0e0" stroke="#999999" points="1789.38,-157.88 1651.88,-157.88 1651.88,-127.38 1789.38,-127.38 1789.38,-157.88"/>
<text text-anchor="start" x="1659.88" y="-144.38" font-family="Helvetica,sans-Serif" font-size="10.00">typed_linear_algebra</text>
<text text-anchor="middle" x="1720.62" y="-133.12" font-family="Helvetica,sans-Serif" font-size="10.00">_internal/algorithm/scale.tpp</text>
</a>
</g>
</g>
<!-- Node3&#45;&gt;Node20 -->
<g id="edge27_Node000003_Node000020" class="edge">
<title>Node3&#45;&gt;Node20</title>
<g id="a_edge27_Node000003_Node000020"><a xlink:title=" ">
<path fill="none" stroke="#63b8ff" d="M1850.25,-199.05C1825.54,-188.48 1792,-174.14 1765.23,-162.7"/>
<polygon fill="#63b8ff" stroke="#63b8ff" points="1766.92,-159.61 1756.35,-158.9 1764.17,-166.05 1766.92,-159.61"/>
</a>
</g>
</g>
<!-- Node21 -->
<g id="Node000021" class="node">
<title>Node21</title>
<g id="a_Node000021"><a xlink:title=" ">
<polygon fill="#e0e0e0" stroke="#999999" points="1962,-157.88 1807.25,-157.88 1807.25,-127.38 1962,-127.38 1962,-157.88"/>
<text text-anchor="start" x="1815.25" y="-144.38" font-family="Helvetica,sans-Serif" font-size="10.00">typed_linear_algebra</text>
<text text-anchor="middle" x="1884.62" y="-133.12" font-family="Helvetica,sans-Serif" font-size="10.00">_internal/algorithm/substract.tpp</text>
</a>
</g>
</g>
<!-- Node3&#45;&gt;Node21 -->
<g id="edge28_Node000003_Node000021" class="edge">
<title>Node3&#45;&gt;Node21</title>
<g id="a_edge28_Node000003_Node000021"><a xlink:title=" ">
<path fill="none" stroke="#63b8ff" d="M1884.62,-199.22C1884.62,-190.66 1884.62,-179.59 1884.62,-169.58"/>
<polygon fill="#63b8ff" stroke="#63b8ff" points="1888.13,-169.65 1884.63,-159.65 1881.13,-169.65 1888.13,-169.65"/>
</a>
</g>
</g>
<!-- Node22 -->
<g id="Node000022" class="node">
<title>Node22</title>
<g id="a_Node000022"><a xlink:title=" ">
<polygon fill="#e0e0e0" stroke="#999999" points="2142.75,-157.88 1980.5,-157.88 1980.5,-127.38 2142.75,-127.38 2142.75,-157.88"/>
<text text-anchor="start" x="1988.5" y="-144.38" font-family="Helvetica,sans-Serif" font-size="10.00">typed_linear_algebra</text>
<text text-anchor="middle" x="2061.62" y="-133.12" font-family="Helvetica,sans-Serif" font-size="10.00">_internal/algorithm/transposed.tpp</text>
</a>
</g>
</g>
<!-- Node3&#45;&gt;Node22 -->
<g id="edge29_Node000003_Node000022" class="edge">
<title>Node3&#45;&gt;Node22</title>
<g id="a_edge29_Node000003_Node000022"><a xlink:title=" ">
<path fill="none" stroke="#63b8ff" d="M1921.73,-199.05C1948.52,-188.44 1984.92,-174.02 2013.87,-162.54"/>
<polygon fill="#63b8ff" stroke="#63b8ff" points="2015.15,-165.8 2023.16,-158.86 2012.58,-159.29 2015.15,-165.8"/>
</a>
</g>
</g>
<!-- Node23 -->
<g id="Node000023" class="node">
<title>Node23</title>
<g id="a_Node000023"><a xlink:title=" ">
<polygon fill="#e0e0e0" stroke="#999999" points="2264.88,-157.88 2160.38,-157.88 2160.38,-127.38 2264.88,-127.38 2264.88,-157.88"/>
<text text-anchor="start" x="2168.38" y="-144.38" font-family="Helvetica,sans-Serif" font-size="10.00">typed_linear_algebra</text>
<text text-anchor="middle" x="2212.62" y="-133.12" font-family="Helvetica,sans-Serif" font-size="10.00">_internal/cast.tpp</text>
</a>
</g>
</g>
<!-- Node3&#45;&gt;Node23 -->
<g id="edge30_Node000003_Node000023" class="edge">
<title>Node3&#45;&gt;Node23</title>
<g id="a_edge30_Node000003_Node000023"><a xlink:title=" ">
<path fill="none" stroke="#63b8ff" d="M1939.03,-205.62C1993.3,-197.02 2078.85,-182.12 2151.62,-163.5 2154.04,-162.88 2156.49,-162.22 2158.96,-161.53"/>
<polygon fill="#63b8ff" stroke="#63b8ff" points="2159.78,-164.94 2168.39,-158.76 2157.8,-158.22 2159.78,-164.94"/>
</a>
</g>
</g>
<!-- Node24 -->
<g id="Node000024" class="node">
<title>Node24</title>
<g id="a_Node000024"><a xlink:title=" ">
<polygon fill="#e0e0e0" stroke="#999999" points="2387.88,-157.88 2283.38,-157.88 2283.38,-127.38 2387.88,-127.38 2387.88,-157.88"/>
<text text-anchor="start" x="2291.38" y="-144.38" font-family="Helvetica,sans-Serif" font-size="10.00">typed_linear_algebra</text>
<text text-anchor="middle" x="2335.62" y="-133.12" font-family="Helvetica,sans-Serif" font-size="10.00">_internal/tuple.tpp</text>
</a>
</g>
</g>
<!-- Node3&#45;&gt;Node24 -->
<g id="edge31_Node000003_Node000024" class="edge">
<title>Node3&#45;&gt;Node24</title>
<g id="a_edge31_Node000003_Node000024"><a xlink:title=" ">
<path fill="none" stroke="#63b8ff" d="M1938.97,-209.87C2014.66,-203.75 2155.82,-189.76 2273.62,-163.5 2276.42,-162.88 2279.28,-162.18 2282.15,-161.43"/>
<polygon fill="#63b8ff" stroke="#63b8ff" points="2283.07,-164.81 2291.76,-158.75 2281.18,-158.07 2283.07,-164.81"/>
</a>
</g>
</g>
<!-- Node25 -->
<g id="Node000025" class="node">
<title>Node25</title>
<g id="a_Node000025"><a xlink:title=" ">
<polygon fill="#e0e0e0" stroke="#999999" points="2513.38,-163.5 2405.88,-163.5 2405.88,-121.75 2513.38,-121.75 2513.38,-163.5"/>
<text text-anchor="start" x="2413.88" y="-150" font-family="Helvetica,sans-Serif" font-size="10.00">typed_linear_algebra</text>
<text text-anchor="start" x="2413.88" y="-138.75" font-family="Helvetica,sans-Serif" font-size="10.00">_internal/typed_linear</text>
<text text-anchor="middle" x="2459.62" y="-127.5" font-family="Helvetica,sans-Serif" font-size="10.00">_algebra.tpp</text>
</a>
</g>
</g>
<!-- Node3&#45;&gt;Node25 -->
<g id="edge32_Node000003_Node000025" class="edge">
<title>Node3&#45;&gt;Node25</title>
<g id="a_edge32_Node000003_Node000025"><a xlink:title=" ">
<path fill="none" stroke="#63b8ff" d="M1938.99,-212.12C2031.08,-208.55 2223.61,-197.62 2394.31,-163.74"/>
<polygon fill="#63b8ff" stroke="#63b8ff" points="2394.92,-167.19 2404.03,-161.78 2393.54,-160.33 2394.92,-167.19"/>
</a>
</g>
</g>
<!-- Node5&#45;&gt;Node4 -->
<g id="edge5_Node000005_Node000004" class="edge">
<title>Node5&#45;&gt;Node4</title>
<g id="a_edge5_Node000005_Node000004"><a xlink:title=" ">
<path fill="none" stroke="#63b8ff" d="M2664.44,-127.24C2671.43,-106.38 2684.49,-67.41 2693.12,-41.65"/>
<polygon fill="#63b8ff" stroke="#63b8ff" points="2696.4,-42.88 2696.25,-32.29 2689.76,-40.66 2696.4,-42.88"/>
</a>
</g>
</g>
<!-- Node5&#45;&gt;Node6 -->
<g id="edge6_Node000005_Node000006" class="edge">
<title>Node5&#45;&gt;Node6</title>
<g id="a_edge6_Node000005_Node000006"><a xlink:title=" ">
<path fill="none" stroke="#63b8ff" d="M2690.71,-126.99C2713.64,-116.19 2744.64,-101.6 2767.18,-90.99"/>
<polygon fill="#63b8ff" stroke="#63b8ff" points="2768.56,-94.21 2776.12,-86.78 2765.58,-87.87 2768.56,-94.21"/>
</a>
</g>
</g>
<!-- Node5&#45;&gt;Node8 -->
<g id="edge13_Node000005_Node000008" class="edge">
<title>Node5&#45;&gt;Node8</title>
<g id="a_edge13_Node000005_Node000008"><a xlink:title=" ">
<path fill="none" stroke="#63b8ff" d="M2653.66,-127.24C2644.31,-104.7 2626.19,-61.01 2615.69,-35.69"/>
<polygon fill="#63b8ff" stroke="#63b8ff" points="2618.98,-34.49 2611.91,-26.59 2612.51,-37.17 2618.98,-34.49"/>
</a>
</g>
</g>
<!-- Node5&#45;&gt;Node12 -->
<g id="edge14_Node000005_Node000012" class="edge">
<title>Node5&#45;&gt;Node12</title>
<g id="a_edge14_Node000005_Node000012"><a xlink:title=" ">
<path fill="none" stroke="#63b8ff" d="M2640.56,-126.99C2627.32,-116.82 2609.69,-103.28 2596.14,-92.88"/>
<polygon fill="#63b8ff" stroke="#63b8ff" points="2598.38,-90.18 2588.32,-86.87 2594.12,-95.74 2598.38,-90.18"/>
</a>
</g>
</g>
<!-- Node6&#45;&gt;Node4 -->
<g id="edge7_Node000006_Node000004" class="edge">
<title>Node6&#45;&gt;Node4</title>
<g id="a_edge7_Node000006_Node000004"><a xlink:title=" ">
<path fill="none" stroke="#63b8ff" d="M2782.2,-66.18C2769.64,-58.4 2750.98,-46.84 2734.77,-36.79"/>
<polygon fill="#63b8ff" stroke="#63b8ff" points="2736.7,-33.87 2726.36,-31.58 2733.02,-39.82 2736.7,-33.87"/>
</a>
</g>
</g>
<!-- Node6&#45;&gt;Node7 -->
<g id="edge8_Node000006_Node000007" class="edge">
<title>Node6&#45;&gt;Node7</title>
<g id="a_edge8_Node000006_Node000007"><a xlink:title=" ">
<path fill="none" stroke="#63b8ff" d="M2767.98,-73.65C2730.8,-71.78 2663.88,-68.54 2606.62,-66.5 1842.74,-39.27 909.07,-20.82 707.26,-16.99"/>
<polygon fill="#63b8ff" stroke="#63b8ff" points="707.39,-13.49 697.33,-16.8 707.26,-20.49 707.39,-13.49"/>
</a>
</g>
</g>
<!-- Node6&#45;&gt;Node8 -->
<g id="edge9_Node000006_Node000008" class="edge">
<title>Node6&#45;&gt;Node8</title>
<g id="a_edge9_Node000006_Node000008"><a xlink:title=" ">
<path fill="none" stroke="#63b8ff" d="M2768.1,-68.15C2736.55,-60.16 2684.4,-46.14 2640.62,-30.5 2639.67,-30.16 2638.71,-29.81 2637.74,-29.44"/>
<polygon fill="#63b8ff" stroke="#63b8ff" points="2639.34,-26.31 2628.76,-25.83 2636.73,-32.81 2639.34,-26.31"/>
</a>
</g>
</g>
<!-- Node9 -->
<g id="Node000009" class="node">
<title>Node9</title>
<g id="a_Node000009"><a xlink:title=" ">
<polygon fill="#e0e0e0" stroke="#999999" points="2829.62,-24.88 2771.62,-24.88 2771.62,-5.63 2829.62,-5.63 2829.62,-24.88"/>
<text text-anchor="middle" x="2800.62" y="-11.38" font-family="Helvetica,sans-Serif" font-size="10.00">functional</text>
</a>
</g>
</g>
<!-- Node6&#45;&gt;Node9 -->
<g id="edge10_Node000006_Node000009" class="edge">
<title>Node6&#45;&gt;Node9</title>
<g id="a_edge10_Node000006_Node000009"><a xlink:title=" ">
<path fill="none" stroke="#63b8ff" d="M2797.23,-66.18C2797.77,-58.32 2798.56,-46.57 2799.25,-36.45"/>
<polygon fill="#63b8ff" stroke="#63b8ff" points="2802.72,-37 2799.91,-26.79 2795.74,-36.53 2802.72,-37"/>
</a>
</g>
</g>
<!-- Node6&#45;&gt;Node10 -->
<g id="edge11_Node000006_Node000010" class="edge">
<title>Node6&#45;&gt;Node10</title>
<g id="a_edge11_Node000006_Node000010"><a xlink:title=" ">
<path fill="none" stroke="#63b8ff" d="M2807.26,-66.18C2817.84,-57.28 2834.34,-43.41 2847.25,-32.54"/>
<polygon fill="#63b8ff" stroke="#63b8ff" points="2849.33,-35.37 2854.74,-26.25 2844.83,-30.01 2849.33,-35.37"/>
</a>
</g>
</g>
<!-- Node6&#45;&gt;Node11 -->
<g id="edge12_Node000006_Node000011" class="edge">
<title>Node6&#45;&gt;Node11</title>
<g id="a_edge12_Node000006_Node000011"><a xlink:title=" ">
<path fill="none" stroke="#63b8ff" d="M2817.73,-66.05C2840.32,-56.35 2876.41,-40.84 2902.31,-29.71"/>
<polygon fill="#63b8ff" stroke="#63b8ff" points="2903.52,-33 2911.33,-25.83 2900.76,-26.56 2903.52,-33"/>
</a>
</g>
</g>
<!-- Node28&#45;&gt;Node7 -->
<g id="edge42_Node000028_Node000007" class="edge">
<title>Node28&#45;&gt;Node7</title>
<g id="a_edge42_Node000028_Node000007"><a xlink:title=" ">
<path fill="none" stroke="#63b8ff" d="M293.05,-272.04C228.82,-266.58 123.24,-249.85 158.62,-199.5 269.29,-42.04 528.93,-19.25 628.14,-16.42"/>
<polygon fill="#63b8ff" stroke="#63b8ff" points="627.99,-19.92 637.9,-16.2 627.83,-12.92 627.99,-19.92"/>
</a>
</g>
</g>
<!-- Node29 -->
<g id="Node000029" class="node">
<title>Node29</title>
<g id="a_Node000029"><a xlink:title=" ">
<polygon fill="#e0e0e0" stroke="#999999" points="269.75,-230 167.5,-230 167.5,-199.5 269.75,-199.5 269.75,-230"/>
<text text-anchor="start" x="175.5" y="-216.5" font-family="Helvetica,sans-Serif" font-size="10.00">mp&#45;units/framework</text>
<text text-anchor="middle" x="218.62" y="-205.25" font-family="Helvetica,sans-Serif" font-size="10.00">/quantity.h</text>
</a>
</g>
</g>
<!-- Node28&#45;&gt;Node29 -->
<g id="edge43_Node000028_Node000029" class="edge">
<title>Node28&#45;&gt;Node29</title>
<g id="a_edge43_Node000028_Node000029"><a xlink:title=" ">
<path fill="none" stroke="#63b8ff" d="M320.14,-265.55C303.83,-257.55 279.49,-245.61 258.73,-235.43"/>
<polygon fill="#63b8ff" stroke="#63b8ff" points="260.45,-232.37 249.93,-231.11 257.37,-238.66 260.45,-232.37"/>
</a>
</g>
</g>
<!-- Node30 -->
<g id="Node000030" class="node">
<title>Node30</title>
<g id="a_Node000030"><a xlink:title=" ">
<polygon fill="#e0e0e0" stroke="#999999" points="389.75,-230 287.5,-230 287.5,-199.5 389.75,-199.5 389.75,-230"/>
<text text-anchor="start" x="295.5" y="-216.5" font-family="Helvetica,sans-Serif" font-size="10.00">mp&#45;units/framework</text>
<text text-anchor="middle" x="338.62" y="-205.25" font-family="Helvetica,sans-Serif" font-size="10.00">/quantity_point.h</text>
</a>
</g>
</g>
<!-- Node28&#45;&gt;Node30 -->
<g id="edge44_Node000028_Node000030" class="edge">
<title>Node28&#45;&gt;Node30</title>
<g id="a_edge44_Node000028_Node000030"><a xlink:title=" ">
<path fill="none" stroke="#63b8ff" d="M338.62,-265.68C338.62,-259.23 338.62,-250.16 338.62,-241.51"/>
<polygon fill="#63b8ff" stroke="#63b8ff" points="342.13,-241.8 338.63,-231.8 335.13,-241.8 342.13,-241.8"/>
</a>
</g>
</g>
<!-- Node31 -->
<g id="Node000031" class="node">
<title>Node31</title>
<g id="a_Node000031"><a xlink:title=" ">
<polygon fill="#e0e0e0" stroke="#999999" points="493.5,-224.38 407.75,-224.38 407.75,-205.12 493.5,-205.12 493.5,-224.38"/>
<text text-anchor="middle" x="450.62" y="-210.88" font-family="Helvetica,sans-Serif" font-size="10.00">mp&#45;units/math.h</text>
</a>
</g>
</g>
<!-- Node28&#45;&gt;Node31 -->
<g id="edge45_Node000028_Node000031" class="edge">
<title>Node28&#45;&gt;Node31</title>
<g id="a_edge45_Node000028_Node000031"><a xlink:title=" ">
<path fill="none" stroke="#63b8ff" d="M355.64,-265.68C373.64,-256.22 402.33,-241.14 423.47,-230.02"/>
<polygon fill="#63b8ff" stroke="#63b8ff" points="424.89,-233.23 432.11,-225.48 421.63,-227.04 424.89,-233.23"/>
</a>
</g>
</g>
<!-- Node32 -->
<g id="Node000032" class="node">
<title>Node32</title>
<g id="a_Node000032"><a xlink:title=" ">
<polygon fill="#e0e0e0" stroke="#999999" points="620.12,-230 511.12,-230 511.12,-199.5 620.12,-199.5 620.12,-230"/>
<text text-anchor="start" x="519.12" y="-216.5" font-family="Helvetica,sans-Serif" font-size="10.00">mp&#45;units/systems/isq</text>
<text text-anchor="middle" x="565.62" y="-205.25" font-family="Helvetica,sans-Serif" font-size="10.00">/thermodynamics.h</text>
</a>
</g>
</g>
<!-- Node28&#45;&gt;Node32 -->
<g id="edge46_Node000028_Node000032" class="edge">
<title>Node28&#45;&gt;Node32</title>
<g id="a_edge46_Node000028_Node000032"><a xlink:title=" ">
<path fill="none" stroke="#63b8ff" d="M373.6,-265.55C407.09,-256.87 458.48,-243.54 499.67,-232.86"/>
<polygon fill="#63b8ff" stroke="#63b8ff" points="500.45,-236.27 509.25,-230.37 498.69,-229.49 500.45,-236.27"/>
</a>
</g>
</g>
<!-- Node33 -->
<g id="Node000033" class="node">
<title>Node33</title>
<g id="a_Node000033"><a xlink:title=" ">
<polygon fill="#e0e0e0" stroke="#999999" points="111.25,-224.38 0,-224.38 0,-205.12 111.25,-205.12 111.25,-224.38"/>
<text text-anchor="middle" x="55.62" y="-210.88" font-family="Helvetica,sans-Serif" font-size="10.00">mp&#45;units/systems/si.h</text>
</a>
</g>
</g>
<!-- Node28&#45;&gt;Node33 -->
<g id="edge47_Node000028_Node000033" class="edge">
<title>Node28&#45;&gt;Node33</title>
<g id="a_edge47_Node000028_Node000033"><a xlink:title=" ">
<path fill="none" stroke="#63b8ff" d="M295.03,-265.55C245.38,-255.23 164.19,-238.33 110.33,-227.13"/>
<polygon fill="#63b8ff" stroke="#63b8ff" points="111.26,-223.75 100.75,-225.14 109.83,-230.6 111.26,-223.75"/>
</a>
</g>
</g>
</g>
</svg>
