<?xml version="1.0" encoding="UTF-8" standalone="no"?>
<!DOCTYPE svg PUBLIC "-//W3C//DTD SVG 1.1//EN"
 "http://www.w3.org/Graphics/SVG/1.1/DTD/svg11.dtd">
<!-- Generated by graphviz version 12.2.0 (20241103.1931)
 -->
<!-- Title: /github/workspace/support/unit_std/fcarouge/linalg.hpp Pages: 1 -->
<svg width="2866pt" height="249pt"
 viewBox="0.00 0.00 2865.88 249.25" xmlns="http://www.w3.org/2000/svg" xmlns:xlink="http://www.w3.org/1999/xlink">
<g id="graph0" class="graph" transform="scale(1 1) rotate(0) translate(4 245.25)">
<title>/github/workspace/support/unit_std/fcarouge/linalg.hpp</title>
<!-- Node1 -->
<g id="Node000001" class="node">
<title>Node1</title>
<g id="a_Node000001"><a xlink:title="Indexed&#45;based linear algebra with mp&#45;units with Eigen implementations.">
<polygon fill="#999999" stroke="#666666" points="352.38,-241.25 214.88,-241.25 214.88,-210.75 352.38,-210.75 352.38,-241.25"/>
<text text-anchor="start" x="222.88" y="-227.75" font-family="Helvetica,sans-Serif" font-size="10.00">/github/workspace/support</text>
<text text-anchor="middle" x="283.62" y="-216.5" font-family="Helvetica,sans-Serif" font-size="10.00">/unit_std/fcarouge/linalg.hpp</text>
</a>
</g>
</g>
<!-- Node2 -->
<g id="Node000002" class="node">
<title>Node2</title>
<g id="a_Node000002"><a xlink:title=" ">
<polygon fill="#e0e0e0" stroke="#999999" points="166.12,-169.12 87.12,-169.12 87.12,-149.88 166.12,-149.88 166.12,-169.12"/>
<text text-anchor="middle" x="126.62" y="-155.62" font-family="Helvetica,sans-Serif" font-size="10.00">fcarouge/linalg</text>
</a>
</g>
</g>
<!-- Node1&#45;&gt;Node2 -->
<g id="edge1_Node000001_Node000002" class="edge">
<title>Node1&#45;&gt;Node2</title>
<g id="a_edge1_Node000001_Node000002"><a xlink:title=" ">
<path fill="none" stroke="#63b8ff" d="M248,-210.36C221.24,-199.37 184.9,-184.44 158.97,-173.79"/>
<polygon fill="#63b8ff" stroke="#63b8ff" points="160.54,-170.65 149.96,-170.08 157.88,-177.12 160.54,-170.65"/>
</a>
</g>
</g>
<!-- Node3 -->
<g id="Node000003" class="node">
<title>Node3</title>
<g id="a_Node000003"><a xlink:title=" ">
<polygon fill="#e0e0e0" stroke="#999999" points="275.12,-169.12 184.12,-169.12 184.12,-149.88 275.12,-149.88 275.12,-169.12"/>
<text text-anchor="middle" x="229.62" y="-155.62" font-family="Helvetica,sans-Serif" font-size="10.00">fcarouge/mdspan</text>
</a>
</g>
</g>
<!-- Node1&#45;&gt;Node3 -->
<g id="edge2_Node000001_Node000003" class="edge">
<title>Node1&#45;&gt;Node3</title>
<g id="a_edge2_Node000001_Node000003"><a xlink:title=" ">
<path fill="none" stroke="#63b8ff" d="M271.37,-210.36C263.35,-200.79 252.83,-188.22 244.36,-178.1"/>
<polygon fill="#63b8ff" stroke="#63b8ff" points="247.09,-175.9 237.98,-170.48 241.72,-180.4 247.09,-175.9"/>
</a>
</g>
</g>
<!-- Node4 -->
<g id="Node000004" class="node">
<title>Node4</title>
<g id="a_Node000004"><a xlink:href="typed__linear__algebra_8hpp.xhtml" target="_top" xlink:title="Typed linear algebra implementation.">
<polygon fill="white" stroke="#666666" points="1385.75,-174.75 1277.5,-174.75 1277.5,-144.25 1385.75,-144.25 1385.75,-174.75"/>
<text text-anchor="start" x="1285.5" y="-161.25" font-family="Helvetica,sans-Serif" font-size="10.00">fcarouge/typed_linear</text>
<text text-anchor="middle" x="1331.62" y="-150" font-family="Helvetica,sans-Serif" font-size="10.00">_algebra.hpp</text>
</a>
</g>
</g>
<!-- Node1&#45;&gt;Node4 -->
<g id="edge3_Node000001_Node000004" class="edge">
<title>Node1&#45;&gt;Node4</title>
<g id="a_edge3_Node000001_Node000004"><a xlink:title=" ">
<path fill="none" stroke="#63b8ff" d="M352.79,-220.74C544.18,-208.96 1078.97,-176.05 1266.02,-164.54"/>
<polygon fill="#63b8ff" stroke="#63b8ff" points="1266.03,-168.04 1275.8,-163.94 1265.6,-161.06 1266.03,-168.04"/>
</a>
</g>
</g>
<!-- Node27 -->
<g id="Node000027" class="node">
<title>Node27</title>
<g id="a_Node000027"><a xlink:href="unit_8hpp.xhtml" target="_top" xlink:title="Quantities and units facade for mp&#45;units third party implementation.">
<polygon fill="white" stroke="#666666" points="383.75,-169.12 293.5,-169.12 293.5,-149.88 383.75,-149.88 383.75,-169.12"/>
<text text-anchor="middle" x="338.62" y="-155.62" font-family="Helvetica,sans-Serif" font-size="10.00">fcarouge/unit.hpp</text>
</a>
</g>
</g>
<!-- Node1&#45;&gt;Node27 -->
<g id="edge30_Node000001_Node000027" class="edge">
<title>Node1&#45;&gt;Node27</title>
<g id="a_edge30_Node000001_Node000027"><a xlink:title=" ">
<path fill="none" stroke="#63b8ff" d="M296.11,-210.36C304.36,-200.69 315.21,-187.96 323.88,-177.79"/>
<polygon fill="#63b8ff" stroke="#63b8ff" points="326.29,-180.35 330.12,-170.47 320.97,-175.81 326.29,-180.35"/>
</a>
</g>
</g>
<!-- Node5 -->
<g id="Node000005" class="node">
<title>Node5</title>
<g id="a_Node000005"><a xlink:href="typed__linear__algebra__forward_8hpp.xhtml" target="_top" xlink:title="Authoritative forward declaration header.">
<polygon fill="white" stroke="#666666" points="939.88,-30.5 835.38,-30.5 835.38,0 939.88,0 939.88,-30.5"/>
<text text-anchor="start" x="843.38" y="-17" font-family="Helvetica,sans-Serif" font-size="10.00">typed_linear_algebra</text>
<text text-anchor="middle" x="887.62" y="-5.75" font-family="Helvetica,sans-Serif" font-size="10.00">_forward.hpp</text>
</a>
</g>
</g>
<!-- Node4&#45;&gt;Node5 -->
<g id="edge4_Node000004_Node000005" class="edge">
<title>Node4&#45;&gt;Node5</title>
<g id="a_edge4_Node000004_Node000005"><a xlink:title=" ">
<path fill="none" stroke="#63b8ff" d="M1277.24,-155.42C1190.06,-149.73 1023.55,-135.6 971.62,-108.25 941.89,-92.59 917.3,-62.04 902.57,-40.45"/>
<polygon fill="#63b8ff" stroke="#63b8ff" points="905.58,-38.66 897.16,-32.23 899.73,-42.51 905.58,-38.66"/>
</a>
</g>
</g>
<!-- Node6 -->
<g id="Node000006" class="node">
<title>Node6</title>
<g id="a_Node000006"><a xlink:href="utility_8hpp.xhtml" target="_top" xlink:title=" ">
<polygon fill="white" stroke="#666666" points="1104.88,-102.62 1000.38,-102.62 1000.38,-72.12 1104.88,-72.12 1104.88,-102.62"/>
<text text-anchor="start" x="1008.38" y="-89.12" font-family="Helvetica,sans-Serif" font-size="10.00">typed_linear_algebra</text>
<text text-anchor="middle" x="1052.62" y="-77.88" font-family="Helvetica,sans-Serif" font-size="10.00">_internal/utility.hpp</text>
</a>
</g>
</g>
<!-- Node4&#45;&gt;Node6 -->
<g id="edge5_Node000004_Node000006" class="edge">
<title>Node4&#45;&gt;Node6</title>
<g id="a_edge5_Node000004_Node000006"><a xlink:title=" ">
<path fill="none" stroke="#63b8ff" d="M1277.12,-146.6C1233.95,-136.95 1172.2,-122.62 1118.62,-108.25 1116.09,-107.57 1113.5,-106.86 1110.9,-106.13"/>
<polygon fill="#63b8ff" stroke="#63b8ff" points="1112.14,-102.85 1101.57,-103.47 1110.22,-109.58 1112.14,-102.85"/>
</a>
</g>
</g>
<!-- Node7 -->
<g id="Node000007" class="node">
<title>Node7</title>
<g id="a_Node000007"><a xlink:title=" ">
<polygon fill="#e0e0e0" stroke="#999999" points="817.5,-24.88 761.75,-24.88 761.75,-5.63 817.5,-5.63 817.5,-24.88"/>
<text text-anchor="middle" x="789.62" y="-11.38" font-family="Helvetica,sans-Serif" font-size="10.00">concepts</text>
</a>
</g>
</g>
<!-- Node4&#45;&gt;Node7 -->
<g id="edge12_Node000004_Node000007" class="edge">
<title>Node4&#45;&gt;Node7</title>
<g id="a_edge12_Node000004_Node000007"><a xlink:title=" ">
<path fill="none" stroke="#63b8ff" d="M1277.24,-156.32C1179.95,-151.7 980.5,-138.74 918.62,-108.25 895.3,-96.76 898.22,-82.38 877.62,-66.5 859.31,-52.38 836.6,-39.51 818.84,-30.33"/>
<polygon fill="#63b8ff" stroke="#63b8ff" points="820.62,-27.31 810.11,-25.93 817.46,-33.56 820.62,-27.31"/>
</a>
</g>
</g>
<!-- Node8 -->
<g id="Node000008" class="node">
<title>Node8</title>
<g id="a_Node000008"><a xlink:title=" ">
<polygon fill="#e0e0e0" stroke="#999999" points="1005.75,-24.88 957.5,-24.88 957.5,-5.63 1005.75,-5.63 1005.75,-24.88"/>
<text text-anchor="middle" x="981.62" y="-11.38" font-family="Helvetica,sans-Serif" font-size="10.00">cstddef</text>
</a>
</g>
</g>
<!-- Node4&#45;&gt;Node8 -->
<g id="edge13_Node000004_Node000008" class="edge">
<title>Node4&#45;&gt;Node8</title>
<g id="a_edge13_Node000004_Node000008"><a xlink:title=" ">
<path fill="none" stroke="#63b8ff" d="M1277.2,-158.24C1191.28,-156.6 1030,-148.13 991.62,-108.25 973.46,-89.37 974.38,-57.21 977.44,-36.35"/>
<polygon fill="#63b8ff" stroke="#63b8ff" points="980.83,-37.25 979.15,-26.79 973.94,-36.02 980.83,-37.25"/>
</a>
</g>
</g>
<!-- Node10 -->
<g id="Node000010" class="node">
<title>Node10</title>
<g id="a_Node000010"><a xlink:title=" ">
<polygon fill="#e0e0e0" stroke="#999999" points="1216.12,-24.88 1179.12,-24.88 1179.12,-5.63 1216.12,-5.63 1216.12,-24.88"/>
<text text-anchor="middle" x="1197.62" y="-11.38" font-family="Helvetica,sans-Serif" font-size="10.00">tuple</text>
</a>
</g>
</g>
<!-- Node4&#45;&gt;Node10 -->
<g id="edge16_Node000004_Node000010" class="edge">
<title>Node4&#45;&gt;Node10</title>
<g id="a_edge16_Node000004_Node000010"><a xlink:title=" ">
<path fill="none" stroke="#63b8ff" d="M1277.23,-150.64C1230.01,-142.57 1166.88,-128.34 1151.62,-108.25 1140.41,-93.47 1144.9,-83.8 1151.62,-66.5 1156.81,-53.16 1167.36,-41.21 1177.06,-32.31"/>
<polygon fill="#63b8ff" stroke="#63b8ff" points="1179.07,-35.19 1184.39,-26.03 1174.52,-29.88 1179.07,-35.19"/>
</a>
</g>
</g>
<!-- Node12 -->
<g id="Node000012" class="node">
<title>Node12</title>
<g id="a_Node000012"><a xlink:title=" ">
<polygon fill="#e0e0e0" stroke="#999999" points="1204.5,-97 1160.75,-97 1160.75,-77.75 1204.5,-77.75 1204.5,-97"/>
<text text-anchor="middle" x="1182.62" y="-83.5" font-family="Helvetica,sans-Serif" font-size="10.00">format</text>
</a>
</g>
</g>
<!-- Node4&#45;&gt;Node12 -->
<g id="edge14_Node000004_Node000012" class="edge">
<title>Node4&#45;&gt;Node12</title>
<g id="a_edge14_Node000004_Node000012"><a xlink:title=" ">
<path fill="none" stroke="#63b8ff" d="M1292.6,-143.8C1269.24,-134.53 1239.21,-121.78 1213.62,-108.25 1210.86,-106.79 1208.02,-105.16 1205.23,-103.48"/>
<polygon fill="#63b8ff" stroke="#63b8ff" points="1207.21,-100.59 1196.89,-98.2 1203.46,-106.5 1207.21,-100.59"/>
</a>
</g>
</g>
<!-- Node13 -->
<g id="Node000013" class="node">
<title>Node13</title>
<g id="a_Node000013"><a xlink:title=" ">
<polygon fill="#e0e0e0" stroke="#999999" points="1294.38,-97 1222.88,-97 1222.88,-77.75 1294.38,-77.75 1294.38,-97"/>
<text text-anchor="middle" x="1258.62" y="-83.5" font-family="Helvetica,sans-Serif" font-size="10.00">initializer_list</text>
</a>
</g>
</g>
<!-- Node4&#45;&gt;Node13 -->
<g id="edge15_Node000004_Node000013" class="edge">
<title>Node4&#45;&gt;Node13</title>
<g id="a_edge15_Node000004_Node000013"><a xlink:title=" ">
<path fill="none" stroke="#63b8ff" d="M1316.5,-143.97C1304.67,-132.61 1288.22,-116.8 1275.88,-104.95"/>
<polygon fill="#63b8ff" stroke="#63b8ff" points="1278.47,-102.58 1268.83,-98.18 1273.62,-107.63 1278.47,-102.58"/>
</a>
</g>
</g>
<!-- Node14 -->
<g id="Node000014" class="node">
<title>Node14</title>
<g id="a_Node000014"><a xlink:title=" ">
<polygon fill="#e0e0e0" stroke="#999999" points="1350.88,-97 1312.38,-97 1312.38,-77.75 1350.88,-77.75 1350.88,-97"/>
<text text-anchor="middle" x="1331.62" y="-83.5" font-family="Helvetica,sans-Serif" font-size="10.00">utility</text>
</a>
</g>
</g>
<!-- Node4&#45;&gt;Node14 -->
<g id="edge17_Node000004_Node000014" class="edge">
<title>Node4&#45;&gt;Node14</title>
<g id="a_edge17_Node000004_Node000014"><a xlink:title=" ">
<path fill="none" stroke="#63b8ff" d="M1331.62,-143.97C1331.62,-133.71 1331.62,-119.83 1331.62,-108.5"/>
<polygon fill="#63b8ff" stroke="#63b8ff" points="1335.13,-108.65 1331.63,-98.65 1328.13,-108.65 1335.13,-108.65"/>
</a>
</g>
</g>
<!-- Node15 -->
<g id="Node000015" class="node">
<title>Node15</title>
<g id="a_Node000015"><a xlink:title=" ">
<polygon fill="#e0e0e0" stroke="#999999" points="1498.62,-102.62 1368.62,-102.62 1368.62,-72.12 1498.62,-72.12 1498.62,-102.62"/>
<text text-anchor="start" x="1376.62" y="-89.12" font-family="Helvetica,sans-Serif" font-size="10.00">typed_linear_algebra</text>
<text text-anchor="middle" x="1433.62" y="-77.88" font-family="Helvetica,sans-Serif" font-size="10.00">_internal/algorithm/add.tpp</text>
</a>
</g>
</g>
<!-- Node4&#45;&gt;Node15 -->
<g id="edge18_Node000004_Node000015" class="edge">
<title>Node4&#45;&gt;Node15</title>
<g id="a_edge18_Node000004_Node000015"><a xlink:title=" ">
<path fill="none" stroke="#63b8ff" d="M1352.76,-143.97C1367.39,-133.91 1387.09,-120.37 1403.38,-109.17"/>
<polygon fill="#63b8ff" stroke="#63b8ff" points="1405.01,-112.29 1411.27,-103.74 1401.05,-106.52 1405.01,-112.29"/>
</a>
</g>
</g>
<!-- Node16 -->
<g id="Node000016" class="node">
<title>Node16</title>
<g id="a_Node000016"><a xlink:title=" ">
<polygon fill="#e0e0e0" stroke="#999999" points="1656.5,-102.62 1516.75,-102.62 1516.75,-72.12 1656.5,-72.12 1656.5,-102.62"/>
<text text-anchor="start" x="1524.75" y="-89.12" font-family="Helvetica,sans-Serif" font-size="10.00">typed_linear_algebra</text>
<text text-anchor="middle" x="1586.62" y="-77.88" font-family="Helvetica,sans-Serif" font-size="10.00">_internal/algorithm/divide.tpp</text>
</a>
</g>
</g>
<!-- Node4&#45;&gt;Node16 -->
<g id="edge19_Node000004_Node000016" class="edge">
<title>Node4&#45;&gt;Node16</title>
<g id="a_edge19_Node000004_Node000016"><a xlink:title=" ">
<path fill="none" stroke="#63b8ff" d="M1385.08,-143.8C1425.03,-132.81 1479.83,-117.74 1522.2,-106.09"/>
<polygon fill="#63b8ff" stroke="#63b8ff" points="1523.07,-109.48 1531.78,-103.46 1521.21,-102.73 1523.07,-109.48"/>
</a>
</g>
</g>
<!-- Node17 -->
<g id="Node000017" class="node">
<title>Node17</title>
<g id="a_Node000017"><a xlink:title=" ">
<polygon fill="#e0e0e0" stroke="#999999" points="1796.5,-108.25 1674.75,-108.25 1674.75,-66.5 1796.5,-66.5 1796.5,-108.25"/>
<text text-anchor="start" x="1682.75" y="-94.75" font-family="Helvetica,sans-Serif" font-size="10.00">typed_linear_algebra</text>
<text text-anchor="start" x="1682.75" y="-83.5" font-family="Helvetica,sans-Serif" font-size="10.00">_internal/algorithm/equal</text>
<text text-anchor="middle" x="1735.62" y="-72.25" font-family="Helvetica,sans-Serif" font-size="10.00">_to.tpp</text>
</a>
</g>
</g>
<!-- Node4&#45;&gt;Node17 -->
<g id="edge20_Node000004_Node000017" class="edge">
<title>Node4&#45;&gt;Node17</title>
<g id="a_edge20_Node000004_Node000017"><a xlink:title=" ">
<path fill="none" stroke="#63b8ff" d="M1386.1,-152.47C1450.2,-144.89 1559.99,-130.42 1663.04,-108.68"/>
<polygon fill="#63b8ff" stroke="#63b8ff" points="1663.75,-112.1 1672.8,-106.59 1662.29,-105.26 1663.75,-112.1"/>
</a>
</g>
</g>
<!-- Node18 -->
<g id="Node000018" class="node">
<title>Node18</title>
<g id="a_Node000018"><a xlink:title=" ">
<polygon fill="#e0e0e0" stroke="#999999" points="1939,-108.25 1814.25,-108.25 1814.25,-66.5 1939,-66.5 1939,-108.25"/>
<text text-anchor="start" x="1822.25" y="-94.75" font-family="Helvetica,sans-Serif" font-size="10.00">typed_linear_algebra</text>
<text text-anchor="start" x="1822.25" y="-83.5" font-family="Helvetica,sans-Serif" font-size="10.00">_internal/algorithm/matrix</text>
<text text-anchor="middle" x="1876.62" y="-72.25" font-family="Helvetica,sans-Serif" font-size="10.00">_product.tpp</text>
</a>
</g>
</g>
<!-- Node4&#45;&gt;Node18 -->
<g id="edge21_Node000004_Node000018" class="edge">
<title>Node4&#45;&gt;Node18</title>
<g id="a_edge21_Node000004_Node000018"><a xlink:title=" ">
<path fill="none" stroke="#63b8ff" d="M1386.08,-155.7C1472.61,-150.59 1646.85,-137.68 1802.84,-108.63"/>
<polygon fill="#63b8ff" stroke="#63b8ff" points="1803.38,-112.09 1812.55,-106.79 1802.08,-105.21 1803.38,-112.09"/>
</a>
</g>
</g>
<!-- Node19 -->
<g id="Node000019" class="node">
<title>Node19</title>
<g id="a_Node000019"><a xlink:title=" ">
<polygon fill="#e0e0e0" stroke="#999999" points="2103.88,-102.62 1957.38,-102.62 1957.38,-72.12 2103.88,-72.12 2103.88,-102.62"/>
<text text-anchor="start" x="1965.38" y="-89.12" font-family="Helvetica,sans-Serif" font-size="10.00">typed_linear_algebra</text>
<text text-anchor="middle" x="2030.62" y="-77.88" font-family="Helvetica,sans-Serif" font-size="10.00">_internal/algorithm/product.tpp</text>
</a>
</g>
</g>
<!-- Node4&#45;&gt;Node19 -->
<g id="edge22_Node000004_Node000019" class="edge">
<title>Node4&#45;&gt;Node19</title>
<g id="a_edge22_Node000004_Node000019"><a xlink:title=" ">
<path fill="none" stroke="#63b8ff" d="M1385.93,-156.87C1493.66,-153.02 1741.8,-141.09 1947.62,-108.25 1952.62,-107.45 1957.75,-106.52 1962.9,-105.49"/>
<polygon fill="#63b8ff" stroke="#63b8ff" points="1963.61,-108.92 1972.67,-103.43 1962.17,-102.07 1963.61,-108.92"/>
</a>
</g>
</g>
<!-- Node20 -->
<g id="Node000020" class="node">
<title>Node20</title>
<g id="a_Node000020"><a xlink:title=" ">
<polygon fill="#e0e0e0" stroke="#999999" points="2259.38,-102.62 2121.88,-102.62 2121.88,-72.12 2259.38,-72.12 2259.38,-102.62"/>
<text text-anchor="start" x="2129.88" y="-89.12" font-family="Helvetica,sans-Serif" font-size="10.00">typed_linear_algebra</text>
<text text-anchor="middle" x="2190.62" y="-77.88" font-family="Helvetica,sans-Serif" font-size="10.00">_internal/algorithm/scale.tpp</text>
</a>
</g>
</g>
<!-- Node4&#45;&gt;Node20 -->
<g id="edge23_Node000004_Node000020" class="edge">
<title>Node4&#45;&gt;Node20</title>
<g id="a_edge23_Node000004_Node000020"><a xlink:title=" ">
<path fill="none" stroke="#63b8ff" d="M1385.98,-158.45C1513.62,-157.59 1842.21,-151.02 2112.62,-108.25 2117.49,-107.48 2122.5,-106.55 2127.51,-105.51"/>
<polygon fill="#63b8ff" stroke="#63b8ff" points="2127.97,-108.99 2136.98,-103.41 2126.46,-102.15 2127.97,-108.99"/>
</a>
</g>
</g>
<!-- Node21 -->
<g id="Node000021" class="node">
<title>Node21</title>
<g id="a_Node000021"><a xlink:title=" ">
<polygon fill="#e0e0e0" stroke="#999999" points="2432,-102.62 2277.25,-102.62 2277.25,-72.12 2432,-72.12 2432,-102.62"/>
<text text-anchor="start" x="2285.25" y="-89.12" font-family="Helvetica,sans-Serif" font-size="10.00">typed_linear_algebra</text>
<text text-anchor="middle" x="2354.62" y="-77.88" font-family="Helvetica,sans-Serif" font-size="10.00">_internal/algorithm/substract.tpp</text>
</a>
</g>
</g>
<!-- Node4&#45;&gt;Node21 -->
<g id="edge24_Node000004_Node000021" class="edge">
<title>Node4&#45;&gt;Node21</title>
<g id="a_edge24_Node000004_Node000021"><a xlink:title=" ">
<path fill="none" stroke="#63b8ff" d="M1386.08,-158.87C1530.62,-159.14 1935.73,-155.28 2268.62,-108.25 2274.5,-107.42 2280.57,-106.38 2286.64,-105.23"/>
<polygon fill="#63b8ff" stroke="#63b8ff" points="2286.93,-108.74 2296.04,-103.33 2285.54,-101.88 2286.93,-108.74"/>
</a>
</g>
</g>
<!-- Node22 -->
<g id="Node000022" class="node">
<title>Node22</title>
<g id="a_Node000022"><a xlink:title=" ">
<polygon fill="#e0e0e0" stroke="#999999" points="2612.75,-102.62 2450.5,-102.62 2450.5,-72.12 2612.75,-72.12 2612.75,-102.62"/>
<text text-anchor="start" x="2458.5" y="-89.12" font-family="Helvetica,sans-Serif" font-size="10.00">typed_linear_algebra</text>
<text text-anchor="middle" x="2531.62" y="-77.88" font-family="Helvetica,sans-Serif" font-size="10.00">_internal/algorithm/transposed.tpp</text>
</a>
</g>
</g>
<!-- Node4&#45;&gt;Node22 -->
<g id="edge25_Node000004_Node000022" class="edge">
<title>Node4&#45;&gt;Node22</title>
<g id="a_edge25_Node000004_Node000022"><a xlink:title=" ">
<path fill="none" stroke="#63b8ff" d="M1386.23,-157.25C1579.86,-152.64 2233.16,-135.41 2440.62,-108.25 2446.99,-107.42 2453.58,-106.36 2460.15,-105.18"/>
<polygon fill="#63b8ff" stroke="#63b8ff" points="2460.53,-108.67 2469.69,-103.36 2459.21,-101.79 2460.53,-108.67"/>
</a>
</g>
</g>
<!-- Node23 -->
<g id="Node000023" class="node">
<title>Node23</title>
<g id="a_Node000023"><a xlink:title=" ">
<polygon fill="#e0e0e0" stroke="#999999" points="2734.88,-102.62 2630.38,-102.62 2630.38,-72.12 2734.88,-72.12 2734.88,-102.62"/>
<text text-anchor="start" x="2638.38" y="-89.12" font-family="Helvetica,sans-Serif" font-size="10.00">typed_linear_algebra</text>
<text text-anchor="middle" x="2682.62" y="-77.88" font-family="Helvetica,sans-Serif" font-size="10.00">_internal/cast.tpp</text>
</a>
</g>
</g>
<!-- Node4&#45;&gt;Node23 -->
<g id="edge26_Node000004_Node000023" class="edge">
<title>Node4&#45;&gt;Node23</title>
<g id="a_edge26_Node000004_Node000023"><a xlink:title=" ">
<path fill="none" stroke="#63b8ff" d="M1386.22,-158.37C1599.79,-157.57 2378.8,-151.67 2621.62,-108.25 2625.02,-107.64 2628.49,-106.89 2631.97,-106.04"/>
<polygon fill="#63b8ff" stroke="#63b8ff" points="2632.81,-109.44 2641.54,-103.43 2630.97,-102.68 2632.81,-109.44"/>
</a>
</g>
</g>
<!-- Node24 -->
<g id="Node000024" class="node">
<title>Node24</title>
<g id="a_Node000024"><a xlink:title=" ">
<polygon fill="#e0e0e0" stroke="#999999" points="2857.88,-102.62 2753.38,-102.62 2753.38,-72.12 2857.88,-72.12 2857.88,-102.62"/>
<text text-anchor="start" x="2761.38" y="-89.12" font-family="Helvetica,sans-Serif" font-size="10.00">typed_linear_algebra</text>
<text text-anchor="middle" x="2805.62" y="-77.88" font-family="Helvetica,sans-Serif" font-size="10.00">_internal/format.tpp</text>
</a>
</g>
</g>
<!-- Node4&#45;&gt;Node24 -->
<g id="edge27_Node000004_Node000024" class="edge">
<title>Node4&#45;&gt;Node24</title>
<g id="a_edge27_Node000004_Node000024"><a xlink:title=" ">
<path fill="none" stroke="#63b8ff" d="M1385.92,-158.55C1611.51,-158.48 2475.56,-155.06 2743.62,-108.25 2747.19,-107.63 2750.83,-106.85 2754.47,-105.97"/>
<polygon fill="#63b8ff" stroke="#63b8ff" points="2755.13,-109.41 2763.88,-103.44 2753.31,-102.66 2755.13,-109.41"/>
</a>
</g>
</g>
<!-- Node25 -->
<g id="Node000025" class="node">
<title>Node25</title>
<g id="a_Node000025"><a xlink:title=" ">
<polygon fill="#e0e0e0" stroke="#999999" points="742.88,-102.62 638.38,-102.62 638.38,-72.12 742.88,-72.12 742.88,-102.62"/>
<text text-anchor="start" x="646.38" y="-89.12" font-family="Helvetica,sans-Serif" font-size="10.00">typed_linear_algebra</text>
<text text-anchor="middle" x="690.62" y="-77.88" font-family="Helvetica,sans-Serif" font-size="10.00">_internal/tuple.tpp</text>
</a>
</g>
</g>
<!-- Node4&#45;&gt;Node25 -->
<g id="edge28_Node000004_Node000025" class="edge">
<title>Node4&#45;&gt;Node25</title>
<g id="a_edge28_Node000004_Node000025"><a xlink:title=" ">
<path fill="none" stroke="#63b8ff" d="M1277.06,-157.91C1173.56,-155.88 942.04,-146.99 751.62,-108.25 748.5,-107.62 745.32,-106.87 742.12,-106.06"/>
<polygon fill="#63b8ff" stroke="#63b8ff" points="743.33,-102.76 732.75,-103.45 741.45,-109.5 743.33,-102.76"/>
</a>
</g>
</g>
<!-- Node26 -->
<g id="Node000026" class="node">
<title>Node26</title>
<g id="a_Node000026"><a xlink:title=" ">
<polygon fill="#e0e0e0" stroke="#999999" points="868.38,-108.25 760.88,-108.25 760.88,-66.5 868.38,-66.5 868.38,-108.25"/>
<text text-anchor="start" x="768.88" y="-94.75" font-family="Helvetica,sans-Serif" font-size="10.00">typed_linear_algebra</text>
<text text-anchor="start" x="768.88" y="-83.5" font-family="Helvetica,sans-Serif" font-size="10.00">_internal/typed_linear</text>
<text text-anchor="middle" x="814.62" y="-72.25" font-family="Helvetica,sans-Serif" font-size="10.00">_algebra.tpp</text>
</a>
</g>
</g>
<!-- Node4&#45;&gt;Node26 -->
<g id="edge29_Node000004_Node000026" class="edge">
<title>Node4&#45;&gt;Node26</title>
<g id="a_edge29_Node000004_Node000026"><a xlink:title=" ">
<path fill="none" stroke="#63b8ff" d="M1277.25,-155.46C1192.33,-150.02 1023.36,-136.47 882.62,-108.25 881.62,-108.05 880.61,-107.84 879.6,-107.62"/>
<polygon fill="#63b8ff" stroke="#63b8ff" points="880.61,-104.27 870.08,-105.41 879.03,-111.08 880.61,-104.27"/>
</a>
</g>
</g>
<!-- Node6&#45;&gt;Node5 -->
<g id="edge6_Node000006_Node000005" class="edge">
<title>Node6&#45;&gt;Node5</title>
<g id="a_edge6_Node000006_Node000005"><a xlink:title=" ">
<path fill="none" stroke="#63b8ff" d="M1018.04,-71.67C993.18,-61.11 959.43,-46.77 932.5,-35.32"/>
<polygon fill="#63b8ff" stroke="#63b8ff" points="934.13,-32.21 923.56,-31.52 931.4,-38.66 934.13,-32.21"/>
</a>
</g>
</g>
<!-- Node6&#45;&gt;Node7 -->
<g id="edge7_Node000006_Node000007" class="edge">
<title>Node6&#45;&gt;Node7</title>
<g id="a_edge7_Node000006_Node000007"><a xlink:title=" ">
<path fill="none" stroke="#63b8ff" d="M1000.05,-75.34C953.91,-65.19 885.22,-48.95 826.62,-30.5 825.26,-30.07 823.87,-29.62 822.47,-29.14"/>
<polygon fill="#63b8ff" stroke="#63b8ff" points="823.79,-25.9 813.19,-25.81 821.42,-32.49 823.79,-25.9"/>
</a>
</g>
</g>
<!-- Node6&#45;&gt;Node8 -->
<g id="edge8_Node000006_Node000008" class="edge">
<title>Node6&#45;&gt;Node8</title>
<g id="a_edge8_Node000006_Node000008"><a xlink:title=" ">
<path fill="none" stroke="#63b8ff" d="M1037.91,-71.85C1026.41,-60.48 1010.41,-44.68 998.4,-32.82"/>
<polygon fill="#63b8ff" stroke="#63b8ff" points="1001.14,-30.61 991.57,-26.07 996.22,-35.59 1001.14,-30.61"/>
</a>
</g>
</g>
<!-- Node9 -->
<g id="Node000009" class="node">
<title>Node9</title>
<g id="a_Node000009"><a xlink:title=" ">
<polygon fill="#e0e0e0" stroke="#999999" points="1081.62,-24.88 1023.62,-24.88 1023.62,-5.63 1081.62,-5.63 1081.62,-24.88"/>
<text text-anchor="middle" x="1052.62" y="-11.38" font-family="Helvetica,sans-Serif" font-size="10.00">functional</text>
</a>
</g>
</g>
<!-- Node6&#45;&gt;Node9 -->
<g id="edge9_Node000006_Node000009" class="edge">
<title>Node6&#45;&gt;Node9</title>
<g id="a_edge9_Node000006_Node000009"><a xlink:title=" ">
<path fill="none" stroke="#63b8ff" d="M1052.62,-71.85C1052.62,-61.59 1052.62,-47.7 1052.62,-36.38"/>
<polygon fill="#63b8ff" stroke="#63b8ff" points="1056.13,-36.52 1052.63,-26.52 1049.13,-36.52 1056.13,-36.52"/>
</a>
</g>
</g>
<!-- Node6&#45;&gt;Node10 -->
<g id="edge10_Node000006_Node000010" class="edge">
<title>Node6&#45;&gt;Node10</title>
<g id="a_edge10_Node000006_Node000010"><a xlink:title=" ">
<path fill="none" stroke="#63b8ff" d="M1084.61,-71.69C1106.4,-61.58 1136.09,-47.61 1170.88,-30.25"/>
<polygon fill="#63b8ff" stroke="#63b8ff" points="1172.11,-33.55 1179.48,-25.94 1168.97,-27.29 1172.11,-33.55"/>
</a>
</g>
</g>
<!-- Node11 -->
<g id="Node000011" class="node">
<title>Node11</title>
<g id="a_Node000011"><a xlink:title=" ">
<polygon fill="#e0e0e0" stroke="#999999" points="1161.12,-24.88 1100.12,-24.88 1100.12,-5.63 1161.12,-5.63 1161.12,-24.88"/>
<text text-anchor="middle" x="1130.62" y="-11.38" font-family="Helvetica,sans-Serif" font-size="10.00">type_traits</text>
</a>
</g>
</g>
<!-- Node6&#45;&gt;Node11 -->
<g id="edge11_Node000006_Node000011" class="edge">
<title>Node6&#45;&gt;Node11</title>
<g id="a_edge11_Node000006_Node000011"><a xlink:title=" ">
<path fill="none" stroke="#63b8ff" d="M1068.79,-71.85C1081.55,-60.37 1099.35,-44.37 1112.58,-32.48"/>
<polygon fill="#63b8ff" stroke="#63b8ff" points="1114.66,-35.31 1119.76,-26.02 1109.98,-30.1 1114.66,-35.31"/>
</a>
</g>
</g>
<!-- Node27&#45;&gt;Node7 -->
<g id="edge31_Node000027_Node000007" class="edge">
<title>Node27&#45;&gt;Node7</title>
<g id="a_edge31_Node000027_Node000007"><a xlink:title=" ">
<path fill="none" stroke="#63b8ff" d="M304.03,-149.41C252.38,-135.75 160.87,-111.21 158.62,-108.25 147.41,-93.47 146.04,-80.13 158.62,-66.5 198.79,-23.01 618.46,-17.13 750.25,-16.36"/>
<polygon fill="#63b8ff" stroke="#63b8ff" points="749.88,-19.86 759.87,-16.31 749.85,-12.86 749.88,-19.86"/>
</a>
</g>
</g>
<!-- Node28 -->
<g id="Node000028" class="node">
<title>Node28</title>
<g id="a_Node000028"><a xlink:title=" ">
<polygon fill="#e0e0e0" stroke="#999999" points="269.75,-102.62 167.5,-102.62 167.5,-72.12 269.75,-72.12 269.75,-102.62"/>
<text text-anchor="start" x="175.5" y="-89.12" font-family="Helvetica,sans-Serif" font-size="10.00">mp&#45;units/framework</text>
<text text-anchor="middle" x="218.62" y="-77.88" font-family="Helvetica,sans-Serif" font-size="10.00">/quantity.h</text>
</a>
</g>
</g>
<!-- Node27&#45;&gt;Node28 -->
<g id="edge32_Node000027_Node000028" class="edge">
<title>Node27&#45;&gt;Node28</title>
<g id="a_edge32_Node000027_Node000028"><a xlink:title=" ">
<path fill="none" stroke="#63b8ff" d="M323.43,-149.62C305.96,-139.41 276.71,-122.32 253.55,-108.78"/>
<polygon fill="#63b8ff" stroke="#63b8ff" points="255.43,-105.83 245.03,-103.81 251.9,-111.87 255.43,-105.83"/>
</a>
</g>
</g>
<!-- Node29 -->
<g id="Node000029" class="node">
<title>Node29</title>
<g id="a_Node000029"><a xlink:title=" ">
<polygon fill="#e0e0e0" stroke="#999999" points="389.75,-102.62 287.5,-102.62 287.5,-72.12 389.75,-72.12 389.75,-102.62"/>
<text text-anchor="start" x="295.5" y="-89.12" font-family="Helvetica,sans-Serif" font-size="10.00">mp&#45;units/framework</text>
<text text-anchor="middle" x="338.62" y="-77.88" font-family="Helvetica,sans-Serif" font-size="10.00">/quantity_point.h</text>
</a>
</g>
</g>
<!-- Node27&#45;&gt;Node29 -->
<g id="edge33_Node000027_Node000029" class="edge">
<title>Node27&#45;&gt;Node29</title>
<g id="a_edge33_Node000027_Node000029"><a xlink:title=" ">
<path fill="none" stroke="#63b8ff" d="M338.62,-149.62C338.62,-140.74 338.62,-126.65 338.62,-114.22"/>
<polygon fill="#63b8ff" stroke="#63b8ff" points="342.13,-114.56 338.63,-104.56 335.13,-114.56 342.13,-114.56"/>
</a>
</g>
</g>
<!-- Node30 -->
<g id="Node000030" class="node">
<title>Node30</title>
<g id="a_Node000030"><a xlink:title=" ">
<polygon fill="#e0e0e0" stroke="#999999" points="493.5,-97 407.75,-97 407.75,-77.75 493.5,-77.75 493.5,-97"/>
<text text-anchor="middle" x="450.62" y="-83.5" font-family="Helvetica,sans-Serif" font-size="10.00">mp&#45;units/math.h</text>
</a>
</g>
</g>
<!-- Node27&#45;&gt;Node30 -->
<g id="edge34_Node000027_Node000030" class="edge">
<title>Node27&#45;&gt;Node30</title>
<g id="a_edge34_Node000027_Node000030"><a xlink:title=" ">
<path fill="none" stroke="#63b8ff" d="M352.81,-149.62C371.39,-137.99 404.24,-117.42 426.7,-103.35"/>
<polygon fill="#63b8ff" stroke="#63b8ff" points="428.3,-106.48 434.92,-98.21 424.59,-100.55 428.3,-106.48"/>
</a>
</g>
</g>
<!-- Node31 -->
<g id="Node000031" class="node">
<title>Node31</title>
<g id="a_Node000031"><a xlink:title=" ">
<polygon fill="#e0e0e0" stroke="#999999" points="620.12,-102.62 511.12,-102.62 511.12,-72.12 620.12,-72.12 620.12,-102.62"/>
<text text-anchor="start" x="519.12" y="-89.12" font-family="Helvetica,sans-Serif" font-size="10.00">mp&#45;units/systems/isq</text>
<text text-anchor="middle" x="565.62" y="-77.88" font-family="Helvetica,sans-Serif" font-size="10.00">/thermodynamics.h</text>
</a>
</g>
</g>
<!-- Node27&#45;&gt;Node31 -->
<g id="edge35_Node000027_Node000031" class="edge">
<title>Node27&#45;&gt;Node31</title>
<g id="a_edge35_Node000027_Node000031"><a xlink:title=" ">
<path fill="none" stroke="#63b8ff" d="M368.57,-149.4C401.47,-139.4 455.85,-122.79 502.62,-108.25 504.47,-107.68 506.34,-107.09 508.24,-106.5"/>
<polygon fill="#63b8ff" stroke="#63b8ff" points="509.25,-109.85 517.75,-103.52 507.16,-103.17 509.25,-109.85"/>
</a>
</g>
</g>
<!-- Node32 -->
<g id="Node000032" class="node">
<title>Node32</title>
<g id="a_Node000032"><a xlink:title=" ">
<polygon fill="#e0e0e0" stroke="#999999" points="111.25,-97 0,-97 0,-77.75 111.25,-77.75 111.25,-97"/>
<text text-anchor="middle" x="55.62" y="-83.5" font-family="Helvetica,sans-Serif" font-size="10.00">mp&#45;units/systems/si.h</text>
</a>
</g>
</g>
<!-- Node27&#45;&gt;Node32 -->
<g id="edge36_Node000027_Node000032" class="edge">
<title>Node27&#45;&gt;Node32</title>
<g id="a_edge36_Node000027_Node000032"><a xlink:title=" ">
<path fill="none" stroke="#63b8ff" d="M304.34,-149.45C297.49,-147.69 290.33,-145.88 283.62,-144.25 213.65,-127.22 195.4,-126.09 125.62,-108.25 116.4,-105.89 106.54,-103.2 97.22,-100.57"/>
<polygon fill="#63b8ff" stroke="#63b8ff" points="98.23,-97.22 87.65,-97.85 96.31,-103.95 98.23,-97.22"/>
</a>
</g>
</g>
</g>
</svg>
