<?xml version="1.0" encoding="UTF-8" standalone="no"?>
<!DOCTYPE svg PUBLIC "-//W3C//DTD SVG 1.1//EN"
 "http://www.w3.org/Graphics/SVG/1.1/DTD/svg11.dtd">
<!-- Generated by graphviz version 12.2.0 (20241103.1931)
 -->
<!-- Title: /github/workspace/support/unit_std/fcarouge/linalg.hpp Pages: 1 -->
<!--zoomable 293 -->

<svg id="main" version="1.1" xmlns="http://www.w3.org/2000/svg" xmlns:xlink="http://www.w3.org/1999/xlink" xml:space="preserve" onload="init(evt)">

<style type="text/css"><![CDATA[
.node, .edge {opacity: 0.7;}
.node.selected, .edge.selected {opacity: 1;}
.edge:hover path { stroke: red; }
.edge:hover polygon { stroke: red; fill: red; }
]]></style>

<defs>
  <circle id="rim" cx="0" cy="0" r="7"/>
  <circle id="rim2" cx="0" cy="0" r="3.5"/>
  <g id="zoomPlus">
    <use xlink:href="#rim" fill="#404040"><set attributeName="fill" to="#808080" begin="zoomplus.mouseover" end="zoomplus.mouseout"/></use>
    <path d="M-4,0h8M0,-4v8" fill="none" stroke="white" stroke-width="1.5" pointer-events="none"/>
  </g>
  <g id="zoomMin">
    <use xlink:href="#rim" fill="#404040"><set attributeName="fill" to="#808080" begin="zoomminus.mouseover" end="zoomminus.mouseout"/></use>
    <path d="M-4,0h8" fill="none" stroke="white" stroke-width="1.5" pointer-events="none"/>
  </g>
  <g id="arrowUp" transform="translate(30 24)">
    <use xlink:href="#rim"/>
    <path pointer-events="none" fill="none" stroke="white" stroke-width="1.5" d="M0,-3.0v7 M-2.5,-0.5L0,-3.0L2.5,-0.5"/>
  </g>
  <g id="arrowRight" transform="rotate(90) translate(36 -43)">
    <use xlink:href="#rim"/>
    <path pointer-events="none" fill="none" stroke="white" stroke-width="1.5" d="M0,-3.0v7 M-2.5,-0.5L0,-3.0L2.5,-0.5"/>
  </g>
  <g id="arrowDown" transform="rotate(180) translate(-30 -48)">
    <use xlink:href="#rim"/>
    <path pointer-events="none" fill="none" stroke="white" stroke-width="1.5" d="M0,-3.0v7 M-2.5,-0.5L0,-3.0L2.5,-0.5"/>
  </g>
  <g id="arrowLeft" transform="rotate(270) translate(-36 17)">
    <use xlink:href="#rim"/>
    <path pointer-events="none" fill="none" stroke="white" stroke-width="1.5" d="M0,-3.0v7 M-2.5,-0.5L0,-3.0L2.5,-0.5"/>
  </g>
  <g id="resetDef">
    <use xlink:href="#rim2" fill="#404040"><set attributeName="fill" to="#808080" begin="reset.mouseover" end="reset.mouseout"/></use>
  </g>
</defs>
<script type="application/ecmascript">
var viewWidth = 2803;
var viewHeight = 293;
var sectionId = 'dynsection-0';
</script>
<script type="application/ecmascript" xlink:href="svg.min.js"/>
<svg id="graph" class="graph">
<g id="viewport">
<title>/github/workspace/support/unit_std/fcarouge/linalg.hpp</title>
<!-- Node1 -->
<g id="Node000001" class="node">
<title>Node1</title>
<g id="a_Node000001"><a xlink:title="Indexed&#45;based linear algebra with mp&#45;units with Eigen implementations.">
<polygon fill="#999999" stroke="#666666" points="1102.12,-285.25 964.62,-285.25 964.62,-254.75 1102.12,-254.75 1102.12,-285.25"/>
<text text-anchor="start" x="972.62" y="-271.75" font-family="Helvetica,sans-Serif" font-size="10.00">/github/workspace/support</text>
<text text-anchor="middle" x="1033.38" y="-260.5" font-family="Helvetica,sans-Serif" font-size="10.00">/unit_std/fcarouge/linalg.hpp</text>
</a>
</g>
</g>
<!-- Node2 -->
<g id="Node000002" class="node">
<title>Node2</title>
<g id="a_Node000002"><a xlink:title=" ">
<polygon fill="#e0e0e0" stroke="#999999" points="910.88,-213.12 831.88,-213.12 831.88,-193.88 910.88,-193.88 910.88,-213.12"/>
<text text-anchor="middle" x="871.38" y="-199.62" font-family="Helvetica,sans-Serif" font-size="10.00">fcarouge/linalg</text>
</a>
</g>
</g>
<!-- Node1&#45;&gt;Node2 -->
<g id="edge1_Node000001_Node000002" class="edge">
<title>Node1&#45;&gt;Node2</title>
<g id="a_edge1_Node000001_Node000002"><a xlink:title=" ">
<path fill="none" stroke="#63b8ff" d="M996.61,-254.36C968.88,-243.32 931.17,-228.31 904.39,-217.65"/>
<polygon fill="#63b8ff" stroke="#63b8ff" points="906,-214.52 895.41,-214.07 903.41,-221.02 906,-214.52"/>
</a>
</g>
</g>
<!-- Node3 -->
<g id="Node000003" class="node">
<title>Node3</title>
<g id="a_Node000003"><a xlink:title=" ">
<polygon fill="#e0e0e0" stroke="#999999" points="1019.88,-213.12 928.88,-213.12 928.88,-193.88 1019.88,-193.88 1019.88,-213.12"/>
<text text-anchor="middle" x="974.38" y="-199.62" font-family="Helvetica,sans-Serif" font-size="10.00">fcarouge/mdspan</text>
</a>
</g>
</g>
<!-- Node1&#45;&gt;Node3 -->
<g id="edge2_Node000001_Node000003" class="edge">
<title>Node1&#45;&gt;Node3</title>
<g id="a_edge2_Node000001_Node000003"><a xlink:title=" ">
<path fill="none" stroke="#63b8ff" d="M1019.99,-254.36C1011.14,-244.69 999.5,-231.96 990.19,-221.79"/>
<polygon fill="#63b8ff" stroke="#63b8ff" points="992.8,-219.46 983.47,-214.44 987.63,-224.18 992.8,-219.46"/>
</a>
</g>
</g>
<!-- Node4 -->
<g id="Node000004" class="node">
<title>Node4</title>
<g id="a_Node000004"><a xlink:href="typed__linear__algebra_8hpp.xhtml" target="_top" xlink:title="Typed linear algebra implementation.">
<polygon fill="white" stroke="#666666" points="1146.5,-218.75 1038.25,-218.75 1038.25,-188.25 1146.5,-188.25 1146.5,-218.75"/>
<text text-anchor="start" x="1046.25" y="-205.25" font-family="Helvetica,sans-Serif" font-size="10.00">fcarouge/typed_linear</text>
<text text-anchor="middle" x="1092.38" y="-194" font-family="Helvetica,sans-Serif" font-size="10.00">_algebra.hpp</text>
</a>
</g>
</g>
<!-- Node1&#45;&gt;Node4 -->
<g id="edge3_Node000001_Node000004" class="edge">
<title>Node1&#45;&gt;Node4</title>
<g id="a_edge3_Node000001_Node000004"><a xlink:title=" ">
<path fill="none" stroke="#63b8ff" d="M1046.76,-254.36C1054,-246.45 1063.12,-236.49 1071.29,-227.55"/>
<polygon fill="#63b8ff" stroke="#63b8ff" points="1073.85,-229.94 1078.02,-220.19 1068.69,-225.21 1073.85,-229.94"/>
</a>
</g>
</g>
<!-- Node27 -->
<g id="Node000027" class="node">
<title>Node27</title>
<g id="a_Node000027"><a xlink:href="unit_8hpp.xhtml" target="_top" xlink:title="Quantities and units facade for mp&#45;units third party implementation.">
<polygon fill="white" stroke="#666666" points="2485.5,-213.12 2395.25,-213.12 2395.25,-193.88 2485.5,-193.88 2485.5,-213.12"/>
<text text-anchor="middle" x="2440.38" y="-199.62" font-family="Helvetica,sans-Serif" font-size="10.00">fcarouge/unit.hpp</text>
</a>
</g>
</g>
<!-- Node1&#45;&gt;Node27 -->
<g id="edge32_Node000001_Node000027" class="edge">
<title>Node1&#45;&gt;Node27</title>
<g id="a_edge32_Node000001_Node000027"><a xlink:title=" ">
<path fill="none" stroke="#63b8ff" d="M1102.19,-265.85C1345.15,-254.71 2160.12,-217.35 2383.4,-207.11"/>
<polygon fill="#63b8ff" stroke="#63b8ff" points="2383.46,-210.61 2393.29,-206.66 2383.14,-203.62 2383.46,-210.61"/>
</a>
</g>
</g>
<!-- Node5 -->
<g id="Node000005" class="node">
<title>Node5</title>
<g id="a_Node000005"><a xlink:href="typed__linear__algebra__forward_8hpp.xhtml" target="_top" xlink:title="Authoritative forward declaration header.">
<polygon fill="white" stroke="#666666" points="828.62,-146.62 724.12,-146.62 724.12,-116.12 828.62,-116.12 828.62,-146.62"/>
<text text-anchor="start" x="732.12" y="-133.12" font-family="Helvetica,sans-Serif" font-size="10.00">typed_linear_algebra</text>
<text text-anchor="middle" x="776.38" y="-121.88" font-family="Helvetica,sans-Serif" font-size="10.00">_forward.hpp</text>
</a>
</g>
</g>
<!-- Node4&#45;&gt;Node5 -->
<g id="edge4_Node000004_Node000005" class="edge">
<title>Node4&#45;&gt;Node5</title>
<g id="a_edge4_Node000004_Node000005"><a xlink:title=" ">
<path fill="none" stroke="#63b8ff" d="M1037.93,-190.27C1034.7,-189.58 1031.5,-188.9 1028.38,-188.25 945.94,-171.1 924.13,-172.42 842.38,-152.25 839.63,-151.57 836.83,-150.85 834.01,-150.1"/>
<polygon fill="#63b8ff" stroke="#63b8ff" points="835.12,-146.77 824.54,-147.48 833.25,-153.52 835.12,-146.77"/>
</a>
</g>
</g>
<!-- Node6 -->
<g id="Node000006" class="node">
<title>Node6</title>
<g id="a_Node000006"><a xlink:href="format_8hpp.xhtml" target="_top" xlink:title="Formatting support for the typed matrix.">
<polygon fill="white" stroke="#666666" points="988.62,-146.62 884.12,-146.62 884.12,-116.12 988.62,-116.12 988.62,-146.62"/>
<text text-anchor="start" x="892.12" y="-133.12" font-family="Helvetica,sans-Serif" font-size="10.00">typed_linear_algebra</text>
<text text-anchor="middle" x="936.38" y="-121.88" font-family="Helvetica,sans-Serif" font-size="10.00">_internal/format.hpp</text>
</a>
</g>
</g>
<!-- Node4&#45;&gt;Node6 -->
<g id="edge5_Node000004_Node000006" class="edge">
<title>Node4&#45;&gt;Node6</title>
<g id="a_edge5_Node000004_Node000006"><a xlink:title=" ">
<path fill="none" stroke="#63b8ff" d="M1059.67,-187.8C1036.38,-177.33 1004.83,-163.15 979.48,-151.75"/>
<polygon fill="#63b8ff" stroke="#63b8ff" points="980.97,-148.58 970.42,-147.68 978.1,-154.97 980.97,-148.58"/>
</a>
</g>
</g>
<!-- Node7 -->
<g id="Node000007" class="node">
<title>Node7</title>
<g id="a_Node000007"><a xlink:href="utility_8hpp.xhtml" target="_top" xlink:title=" ">
<polygon fill="white" stroke="#666666" points="1064.62,-74.5 1008.12,-74.5 1008.12,-55.25 1064.62,-55.25 1064.62,-74.5"/>
<text text-anchor="middle" x="1036.38" y="-61" font-family="Helvetica,sans-Serif" font-size="10.00">utility.hpp</text>
</a>
</g>
</g>
<!-- Node4&#45;&gt;Node7 -->
<g id="edge14_Node000004_Node000007" class="edge">
<title>Node4&#45;&gt;Node7</title>
<g id="a_edge14_Node000004_Node000007"><a xlink:title=" ">
<path fill="none" stroke="#63b8ff" d="M1086.38,-187.88C1076.21,-163.06 1055.57,-112.71 1044.25,-85.08"/>
<polygon fill="#63b8ff" stroke="#63b8ff" points="1047.63,-84.1 1040.6,-76.17 1041.15,-86.75 1047.63,-84.1"/>
</a>
</g>
</g>
<!-- Node8 -->
<g id="Node000008" class="node">
<title>Node8</title>
<g id="a_Node000008"><a xlink:title=" ">
<polygon fill="#e0e0e0" stroke="#999999" points="1194.25,-19.25 1138.5,-19.25 1138.5,0 1194.25,0 1194.25,-19.25"/>
<text text-anchor="middle" x="1166.38" y="-5.75" font-family="Helvetica,sans-Serif" font-size="10.00">concepts</text>
</a>
</g>
</g>
<!-- Node4&#45;&gt;Node8 -->
<g id="edge15_Node000004_Node000008" class="edge">
<title>Node4&#45;&gt;Node8</title>
<g id="a_edge15_Node000004_Node000008"><a xlink:title=" ">
<path fill="none" stroke="#63b8ff" d="M1098.06,-187.76C1111.28,-153.48 1144.1,-68.39 1158.91,-29.98"/>
<polygon fill="#63b8ff" stroke="#63b8ff" points="1162.09,-31.47 1162.42,-20.88 1155.55,-28.95 1162.09,-31.47"/>
</a>
</g>
</g>
<!-- Node9 -->
<g id="Node000009" class="node">
<title>Node9</title>
<g id="a_Node000009"><a xlink:title=" ">
<polygon fill="#e0e0e0" stroke="#999999" points="909.5,-19.25 861.25,-19.25 861.25,0 909.5,0 909.5,-19.25"/>
<text text-anchor="middle" x="885.38" y="-5.75" font-family="Helvetica,sans-Serif" font-size="10.00">cstddef</text>
</a>
</g>
</g>
<!-- Node4&#45;&gt;Node9 -->
<g id="edge16_Node000004_Node000009" class="edge">
<title>Node4&#45;&gt;Node9</title>
<g id="a_edge16_Node000004_Node000009"><a xlink:title=" ">
<path fill="none" stroke="#63b8ff" d="M1077.75,-187.97C1059.24,-169.67 1026.3,-137.38 997.38,-110.5 965.15,-80.55 926.7,-46.65 904.26,-27.05"/>
<polygon fill="#63b8ff" stroke="#63b8ff" points="906.67,-24.5 896.83,-20.57 902.07,-29.78 906.67,-24.5"/>
</a>
</g>
</g>
<!-- Node11 -->
<g id="Node000011" class="node">
<title>Node11</title>
<g id="a_Node000011"><a xlink:title=" ">
<polygon fill="#e0e0e0" stroke="#999999" points="1120.88,-19.25 1083.88,-19.25 1083.88,0 1120.88,0 1120.88,-19.25"/>
<text text-anchor="middle" x="1102.38" y="-5.75" font-family="Helvetica,sans-Serif" font-size="10.00">tuple</text>
</a>
</g>
</g>
<!-- Node4&#45;&gt;Node11 -->
<g id="edge19_Node000004_Node000011" class="edge">
<title>Node4&#45;&gt;Node11</title>
<g id="a_edge19_Node000004_Node000011"><a xlink:title=" ">
<path fill="none" stroke="#63b8ff" d="M1093.14,-187.76C1094.92,-153.7 1099.31,-69.49 1101.33,-30.73"/>
<polygon fill="#63b8ff" stroke="#63b8ff" points="1104.81,-31.15 1101.84,-20.98 1097.82,-30.79 1104.81,-31.15"/>
</a>
</g>
</g>
<!-- Node13 -->
<g id="Node000013" class="node">
<title>Node13</title>
<g id="a_Node000013"><a xlink:title=" ">
<polygon fill="#e0e0e0" stroke="#999999" points="886.25,-74.5 842.5,-74.5 842.5,-55.25 886.25,-55.25 886.25,-74.5"/>
<text text-anchor="middle" x="864.38" y="-61" font-family="Helvetica,sans-Serif" font-size="10.00">format</text>
</a>
</g>
</g>
<!-- Node4&#45;&gt;Node13 -->
<g id="edge17_Node000004_Node000013" class="edge">
<title>Node4&#45;&gt;Node13</title>
<g id="a_edge17_Node000004_Node000013"><a xlink:title=" ">
<path fill="none" stroke="#63b8ff" d="M1037.79,-190.26C973.96,-175.88 876.77,-153.79 875.38,-152.25 859.24,-134.4 858.92,-105.37 860.98,-85.95"/>
<polygon fill="#63b8ff" stroke="#63b8ff" points="864.41,-86.68 862.33,-76.29 857.48,-85.71 864.41,-86.68"/>
</a>
</g>
</g>
<!-- Node14 -->
<g id="Node000014" class="node">
<title>Node14</title>
<g id="a_Node000014"><a xlink:title=" ">
<polygon fill="#e0e0e0" stroke="#999999" points="1230.12,-141 1158.62,-141 1158.62,-121.75 1230.12,-121.75 1230.12,-141"/>
<text text-anchor="middle" x="1194.38" y="-127.5" font-family="Helvetica,sans-Serif" font-size="10.00">initializer_list</text>
</a>
</g>
</g>
<!-- Node4&#45;&gt;Node14 -->
<g id="edge18_Node000004_Node000014" class="edge">
<title>Node4&#45;&gt;Node14</title>
<g id="a_edge18_Node000004_Node000014"><a xlink:title=" ">
<path fill="none" stroke="#63b8ff" d="M1113.51,-187.97C1130.58,-176.23 1154.55,-159.76 1171.96,-147.79"/>
<polygon fill="#63b8ff" stroke="#63b8ff" points="1173.84,-150.74 1180.1,-142.19 1169.87,-144.97 1173.84,-150.74"/>
</a>
</g>
</g>
<!-- Node15 -->
<g id="Node000015" class="node">
<title>Node15</title>
<g id="a_Node000015"><a xlink:title=" ">
<polygon fill="#e0e0e0" stroke="#999999" points="1286.62,-141 1248.12,-141 1248.12,-121.75 1286.62,-121.75 1286.62,-141"/>
<text text-anchor="middle" x="1267.38" y="-127.5" font-family="Helvetica,sans-Serif" font-size="10.00">utility</text>
</a>
</g>
</g>
<!-- Node4&#45;&gt;Node15 -->
<g id="edge20_Node000004_Node000015" class="edge">
<title>Node4&#45;&gt;Node15</title>
<g id="a_edge20_Node000004_Node000015"><a xlink:title=" ">
<path fill="none" stroke="#63b8ff" d="M1146.97,-187.94C1175.33,-179.37 1210.09,-167.25 1239.38,-152.25 1241.84,-150.99 1244.33,-149.53 1246.75,-147.99"/>
<polygon fill="#63b8ff" stroke="#63b8ff" points="1248.67,-150.92 1254.89,-142.34 1244.68,-145.17 1248.67,-150.92"/>
</a>
</g>
</g>
<!-- Node16 -->
<g id="Node000016" class="node">
<title>Node16</title>
<g id="a_Node000016"><a xlink:title=" ">
<polygon fill="#e0e0e0" stroke="#999999" points="1434.38,-146.62 1304.38,-146.62 1304.38,-116.12 1434.38,-116.12 1434.38,-146.62"/>
<text text-anchor="start" x="1312.38" y="-133.12" font-family="Helvetica,sans-Serif" font-size="10.00">typed_linear_algebra</text>
<text text-anchor="middle" x="1369.38" y="-121.88" font-family="Helvetica,sans-Serif" font-size="10.00">_internal/algorithm/add.tpp</text>
</a>
</g>
</g>
<!-- Node4&#45;&gt;Node16 -->
<g id="edge21_Node000004_Node000016" class="edge">
<title>Node4&#45;&gt;Node16</title>
<g id="a_edge21_Node000004_Node000016"><a xlink:title=" ">
<path fill="none" stroke="#63b8ff" d="M1146.73,-189.35C1187.65,-179.38 1245.1,-165.22 1295.38,-152.25 1298.29,-151.5 1301.27,-150.72 1304.28,-149.93"/>
<polygon fill="#63b8ff" stroke="#63b8ff" points="1305.01,-153.36 1313.79,-147.43 1303.23,-146.59 1305.01,-153.36"/>
</a>
</g>
</g>
<!-- Node17 -->
<g id="Node000017" class="node">
<title>Node17</title>
<g id="a_Node000017"><a xlink:title=" ">
<polygon fill="#e0e0e0" stroke="#999999" points="1592.25,-146.62 1452.5,-146.62 1452.5,-116.12 1592.25,-116.12 1592.25,-146.62"/>
<text text-anchor="start" x="1460.5" y="-133.12" font-family="Helvetica,sans-Serif" font-size="10.00">typed_linear_algebra</text>
<text text-anchor="middle" x="1522.38" y="-121.88" font-family="Helvetica,sans-Serif" font-size="10.00">_internal/algorithm/divide.tpp</text>
</a>
</g>
</g>
<!-- Node4&#45;&gt;Node17 -->
<g id="edge22_Node000004_Node000017" class="edge">
<title>Node4&#45;&gt;Node17</title>
<g id="a_edge22_Node000004_Node000017"><a xlink:title=" ">
<path fill="none" stroke="#63b8ff" d="M1146.79,-196.49C1216.04,-188.44 1339.18,-172.76 1443.38,-152.25 1447.43,-151.45 1451.59,-150.58 1455.77,-149.65"/>
<polygon fill="#63b8ff" stroke="#63b8ff" points="1456.42,-153.1 1465.39,-147.45 1454.86,-146.27 1456.42,-153.1"/>
</a>
</g>
</g>
<!-- Node18 -->
<g id="Node000018" class="node">
<title>Node18</title>
<g id="a_Node000018"><a xlink:title=" ">
<polygon fill="#e0e0e0" stroke="#999999" points="1732.25,-152.25 1610.5,-152.25 1610.5,-110.5 1732.25,-110.5 1732.25,-152.25"/>
<text text-anchor="start" x="1618.5" y="-138.75" font-family="Helvetica,sans-Serif" font-size="10.00">typed_linear_algebra</text>
<text text-anchor="start" x="1618.5" y="-127.5" font-family="Helvetica,sans-Serif" font-size="10.00">_internal/algorithm/equal</text>
<text text-anchor="middle" x="1671.38" y="-116.25" font-family="Helvetica,sans-Serif" font-size="10.00">_to.tpp</text>
</a>
</g>
</g>
<!-- Node4&#45;&gt;Node18 -->
<g id="edge23_Node000004_Node000018" class="edge">
<title>Node4&#45;&gt;Node18</title>
<g id="a_edge23_Node000004_Node000018"><a xlink:title=" ">
<path fill="none" stroke="#63b8ff" d="M1146.69,-200.32C1238.25,-195.95 1429.15,-183.87 1598.91,-152.54"/>
<polygon fill="#63b8ff" stroke="#63b8ff" points="1599.39,-156.01 1608.58,-150.73 1598.1,-149.13 1599.39,-156.01"/>
</a>
</g>
</g>
<!-- Node19 -->
<g id="Node000019" class="node">
<title>Node19</title>
<g id="a_Node000019"><a xlink:title=" ">
<polygon fill="#e0e0e0" stroke="#999999" points="1874.75,-152.25 1750,-152.25 1750,-110.5 1874.75,-110.5 1874.75,-152.25"/>
<text text-anchor="start" x="1758" y="-138.75" font-family="Helvetica,sans-Serif" font-size="10.00">typed_linear_algebra</text>
<text text-anchor="start" x="1758" y="-127.5" font-family="Helvetica,sans-Serif" font-size="10.00">_internal/algorithm/matrix</text>
<text text-anchor="middle" x="1812.38" y="-116.25" font-family="Helvetica,sans-Serif" font-size="10.00">_product.tpp</text>
</a>
</g>
</g>
<!-- Node4&#45;&gt;Node19 -->
<g id="edge24_Node000004_Node000019" class="edge">
<title>Node4&#45;&gt;Node19</title>
<g id="a_edge24_Node000004_Node000019"><a xlink:title=" ">
<path fill="none" stroke="#63b8ff" d="M1146.67,-201.87C1256.84,-199.83 1514.52,-191.13 1738.49,-152.58"/>
<polygon fill="#63b8ff" stroke="#63b8ff" points="1739.07,-156.04 1748.32,-150.87 1737.86,-149.14 1739.07,-156.04"/>
</a>
</g>
</g>
<!-- Node20 -->
<g id="Node000020" class="node">
<title>Node20</title>
<g id="a_Node000020"><a xlink:title=" ">
<polygon fill="#e0e0e0" stroke="#999999" points="2039.62,-146.62 1893.12,-146.62 1893.12,-116.12 2039.62,-116.12 2039.62,-146.62"/>
<text text-anchor="start" x="1901.12" y="-133.12" font-family="Helvetica,sans-Serif" font-size="10.00">typed_linear_algebra</text>
<text text-anchor="middle" x="1966.38" y="-121.88" font-family="Helvetica,sans-Serif" font-size="10.00">_internal/algorithm/product.tpp</text>
</a>
</g>
</g>
<!-- Node4&#45;&gt;Node20 -->
<g id="edge25_Node000004_Node000020" class="edge">
<title>Node4&#45;&gt;Node20</title>
<g id="a_edge25_Node000004_Node000020"><a xlink:title=" ">
<path fill="none" stroke="#63b8ff" d="M1146.9,-202.25C1275.75,-200.95 1608.85,-193.53 1883.38,-152.25 1888.68,-151.45 1894.15,-150.48 1899.62,-149.4"/>
<polygon fill="#63b8ff" stroke="#63b8ff" points="1900.27,-152.85 1909.34,-147.37 1898.84,-145.99 1900.27,-152.85"/>
</a>
</g>
</g>
<!-- Node21 -->
<g id="Node000021" class="node">
<title>Node21</title>
<g id="a_Node000021"><a xlink:title=" ">
<polygon fill="#e0e0e0" stroke="#999999" points="2195.12,-146.62 2057.62,-146.62 2057.62,-116.12 2195.12,-116.12 2195.12,-146.62"/>
<text text-anchor="start" x="2065.62" y="-133.12" font-family="Helvetica,sans-Serif" font-size="10.00">typed_linear_algebra</text>
<text text-anchor="middle" x="2126.38" y="-121.88" font-family="Helvetica,sans-Serif" font-size="10.00">_internal/algorithm/scale.tpp</text>
</a>
</g>
</g>
<!-- Node4&#45;&gt;Node21 -->
<g id="edge26_Node000004_Node000021" class="edge">
<title>Node4&#45;&gt;Node21</title>
<g id="a_edge26_Node000004_Node000021"><a xlink:title=" ">
<path fill="none" stroke="#63b8ff" d="M1146.93,-201.05C1322.64,-196.14 1872.56,-179 2048.38,-152.25 2053.33,-151.5 2058.42,-150.56 2063.52,-149.52"/>
<polygon fill="#63b8ff" stroke="#63b8ff" points="2064.15,-152.96 2073.16,-147.4 2062.64,-146.13 2064.15,-152.96"/>
</a>
</g>
</g>
<!-- Node22 -->
<g id="Node000022" class="node">
<title>Node22</title>
<g id="a_Node000022"><a xlink:title=" ">
<polygon fill="#e0e0e0" stroke="#999999" points="154.75,-146.62 0,-146.62 0,-116.12 154.75,-116.12 154.75,-146.62"/>
<text text-anchor="start" x="8" y="-133.12" font-family="Helvetica,sans-Serif" font-size="10.00">typed_linear_algebra</text>
<text text-anchor="middle" x="77.38" y="-121.88" font-family="Helvetica,sans-Serif" font-size="10.00">_internal/algorithm/substract.tpp</text>
</a>
</g>
</g>
<!-- Node4&#45;&gt;Node22 -->
<g id="edge27_Node000004_Node000022" class="edge">
<title>Node4&#45;&gt;Node22</title>
<g id="a_edge27_Node000004_Node000022"><a xlink:title=" ">
<path fill="none" stroke="#63b8ff" d="M1038.02,-189.71C1034.77,-189.16 1031.54,-188.66 1028.38,-188.25 647.3,-138.29 545.31,-203.26 164.38,-152.25 158.42,-151.45 152.28,-150.44 146.14,-149.3"/>
<polygon fill="#63b8ff" stroke="#63b8ff" points="147.11,-145.92 136.62,-147.41 145.75,-152.79 147.11,-145.92"/>
</a>
</g>
</g>
<!-- Node23 -->
<g id="Node000023" class="node">
<title>Node23</title>
<g id="a_Node000023"><a xlink:title=" ">
<polygon fill="#e0e0e0" stroke="#999999" points="335.5,-146.62 173.25,-146.62 173.25,-116.12 335.5,-116.12 335.5,-146.62"/>
<text text-anchor="start" x="181.25" y="-133.12" font-family="Helvetica,sans-Serif" font-size="10.00">typed_linear_algebra</text>
<text text-anchor="middle" x="254.38" y="-121.88" font-family="Helvetica,sans-Serif" font-size="10.00">_internal/algorithm/transposed.tpp</text>
</a>
</g>
</g>
<!-- Node4&#45;&gt;Node23 -->
<g id="edge28_Node000004_Node000023" class="edge">
<title>Node4&#45;&gt;Node23</title>
<g id="a_edge28_Node000004_Node000023"><a xlink:title=" ">
<path fill="none" stroke="#63b8ff" d="M1038.02,-189.75C1034.77,-189.19 1031.53,-188.68 1028.38,-188.25 726.76,-147.03 646.03,-193.21 344.38,-152.25 338.33,-151.43 332.09,-150.41 325.85,-149.28"/>
<polygon fill="#63b8ff" stroke="#63b8ff" points="326.61,-145.86 316.13,-147.4 325.29,-152.73 326.61,-145.86"/>
</a>
</g>
</g>
<!-- Node24 -->
<g id="Node000024" class="node">
<title>Node24</title>
<g id="a_Node000024"><a xlink:title=" ">
<polygon fill="#e0e0e0" stroke="#999999" points="457.62,-146.62 353.12,-146.62 353.12,-116.12 457.62,-116.12 457.62,-146.62"/>
<text text-anchor="start" x="361.12" y="-133.12" font-family="Helvetica,sans-Serif" font-size="10.00">typed_linear_algebra</text>
<text text-anchor="middle" x="405.38" y="-121.88" font-family="Helvetica,sans-Serif" font-size="10.00">_internal/cast.tpp</text>
</a>
</g>
</g>
<!-- Node4&#45;&gt;Node24 -->
<g id="edge29_Node000004_Node000024" class="edge">
<title>Node4&#45;&gt;Node24</title>
<g id="a_edge29_Node000004_Node000024"><a xlink:title=" ">
<path fill="none" stroke="#63b8ff" d="M1038.01,-189.79C1034.76,-189.22 1031.53,-188.7 1028.38,-188.25 781.03,-152.99 712.86,-198.74 467.38,-152.25 464.04,-151.62 460.63,-150.86 457.22,-150.02"/>
<polygon fill="#63b8ff" stroke="#63b8ff" points="458.39,-146.71 447.82,-147.47 456.56,-153.46 458.39,-146.71"/>
</a>
</g>
</g>
<!-- Node25 -->
<g id="Node000025" class="node">
<title>Node25</title>
<g id="a_Node000025"><a xlink:title=" ">
<polygon fill="#e0e0e0" stroke="#999999" points="580.62,-146.62 476.12,-146.62 476.12,-116.12 580.62,-116.12 580.62,-146.62"/>
<text text-anchor="start" x="484.12" y="-133.12" font-family="Helvetica,sans-Serif" font-size="10.00">typed_linear_algebra</text>
<text text-anchor="middle" x="528.38" y="-121.88" font-family="Helvetica,sans-Serif" font-size="10.00">_internal/tuple.tpp</text>
</a>
</g>
</g>
<!-- Node4&#45;&gt;Node25 -->
<g id="edge30_Node000004_Node000025" class="edge">
<title>Node4&#45;&gt;Node25</title>
<g id="a_edge30_Node000004_Node000025"><a xlink:title=" ">
<path fill="none" stroke="#63b8ff" d="M1038,-189.86C1034.75,-189.27 1031.53,-188.73 1028.38,-188.25 834.82,-158.91 781.3,-190.84 589.38,-152.25 586.25,-151.62 583.07,-150.89 579.87,-150.08"/>
<polygon fill="#63b8ff" stroke="#63b8ff" points="581.07,-146.78 570.5,-147.48 579.2,-153.52 581.07,-146.78"/>
</a>
</g>
</g>
<!-- Node26 -->
<g id="Node000026" class="node">
<title>Node26</title>
<g id="a_Node000026"><a xlink:title=" ">
<polygon fill="#e0e0e0" stroke="#999999" points="706.12,-152.25 598.62,-152.25 598.62,-110.5 706.12,-110.5 706.12,-152.25"/>
<text text-anchor="start" x="606.62" y="-138.75" font-family="Helvetica,sans-Serif" font-size="10.00">typed_linear_algebra</text>
<text text-anchor="start" x="606.62" y="-127.5" font-family="Helvetica,sans-Serif" font-size="10.00">_internal/typed_linear</text>
<text text-anchor="middle" x="652.38" y="-116.25" font-family="Helvetica,sans-Serif" font-size="10.00">_algebra.tpp</text>
</a>
</g>
</g>
<!-- Node4&#45;&gt;Node26 -->
<g id="edge31_Node000004_Node000026" class="edge">
<title>Node4&#45;&gt;Node26</title>
<g id="a_edge31_Node000004_Node000026"><a xlink:title=" ">
<path fill="none" stroke="#63b8ff" d="M1037.98,-189.98C1034.74,-189.36 1031.52,-188.78 1028.38,-188.25 893.8,-165.59 854.32,-180.64 717.4,-152.46"/>
<polygon fill="#63b8ff" stroke="#63b8ff" points="718.48,-149.11 707.98,-150.48 717.04,-155.96 718.48,-149.11"/>
</a>
</g>
</g>
<!-- Node6&#45;&gt;Node7 -->
<g id="edge6_Node000006_Node000007" class="edge">
<title>Node6&#45;&gt;Node7</title>
<g id="a_edge6_Node000006_Node000007"><a xlink:title=" ">
<path fill="none" stroke="#63b8ff" d="M959.07,-115.74C975.2,-105.34 996.8,-91.4 1013.06,-80.91"/>
<polygon fill="#63b8ff" stroke="#63b8ff" points="1014.63,-84.07 1021.13,-75.71 1010.83,-78.18 1014.63,-84.07"/>
</a>
</g>
</g>
<!-- Node6&#45;&gt;Node9 -->
<g id="edge12_Node000006_Node000009" class="edge">
<title>Node6&#45;&gt;Node9</title>
<g id="a_edge12_Node000006_Node000009"><a xlink:title=" ">
<path fill="none" stroke="#63b8ff" d="M930.12,-115.69C920.93,-94.12 903.77,-53.82 893.58,-29.89"/>
<polygon fill="#63b8ff" stroke="#63b8ff" points="896.93,-28.83 889.8,-21.01 890.49,-31.58 896.93,-28.83"/>
</a>
</g>
</g>
<!-- Node6&#45;&gt;Node13 -->
<g id="edge13_Node000006_Node000013" class="edge">
<title>Node6&#45;&gt;Node13</title>
<g id="a_edge13_Node000006_Node000013"><a xlink:title=" ">
<path fill="none" stroke="#63b8ff" d="M920.04,-115.74C908.91,-105.77 894.16,-92.55 882.64,-82.24"/>
<polygon fill="#63b8ff" stroke="#63b8ff" points="885.13,-79.77 875.35,-75.71 880.46,-84.99 885.13,-79.77"/>
</a>
</g>
</g>
<!-- Node7&#45;&gt;Node8 -->
<g id="edge7_Node000007_Node000008" class="edge">
<title>Node7&#45;&gt;Node8</title>
<g id="a_edge7_Node000007_Node000008"><a xlink:title=" ">
<path fill="none" stroke="#63b8ff" d="M1058.43,-54.84C1079.06,-46.39 1110.16,-33.65 1133.68,-24.02"/>
<polygon fill="#63b8ff" stroke="#63b8ff" points="1134.89,-27.31 1142.81,-20.28 1132.23,-20.83 1134.89,-27.31"/>
</a>
</g>
</g>
<!-- Node7&#45;&gt;Node9 -->
<g id="edge8_Node000007_Node000009" class="edge">
<title>Node7&#45;&gt;Node9</title>
<g id="a_edge8_Node000007_Node000009"><a xlink:title=" ">
<path fill="none" stroke="#63b8ff" d="M1010.76,-54.84C985.99,-46.11 948.24,-32.79 920.63,-23.06"/>
<polygon fill="#63b8ff" stroke="#63b8ff" points="921.88,-19.79 911.29,-19.76 919.56,-26.39 921.88,-19.79"/>
</a>
</g>
</g>
<!-- Node10 -->
<g id="Node000010" class="node">
<title>Node10</title>
<g id="a_Node000010"><a xlink:title=" ">
<polygon fill="#e0e0e0" stroke="#999999" points="1065.38,-19.25 1007.38,-19.25 1007.38,0 1065.38,0 1065.38,-19.25"/>
<text text-anchor="middle" x="1036.38" y="-5.75" font-family="Helvetica,sans-Serif" font-size="10.00">functional</text>
</a>
</g>
</g>
<!-- Node7&#45;&gt;Node10 -->
<g id="edge9_Node000007_Node000010" class="edge">
<title>Node7&#45;&gt;Node10</title>
<g id="a_edge9_Node000007_Node000010"><a xlink:title=" ">
<path fill="none" stroke="#63b8ff" d="M1036.38,-55.08C1036.38,-48.57 1036.38,-39.42 1036.38,-31.12"/>
<polygon fill="#63b8ff" stroke="#63b8ff" points="1039.88,-31.12 1036.38,-21.12 1032.88,-31.12 1039.88,-31.12"/>
</a>
</g>
</g>
<!-- Node7&#45;&gt;Node11 -->
<g id="edge10_Node000007_Node000011" class="edge">
<title>Node7&#45;&gt;Node11</title>
<g id="a_edge10_Node000007_Node000011"><a xlink:title=" ">
<path fill="none" stroke="#63b8ff" d="M1047.57,-54.84C1057.11,-47.15 1071.05,-35.9 1082.48,-26.68"/>
<polygon fill="#63b8ff" stroke="#63b8ff" points="1084.58,-29.48 1090.17,-20.48 1080.19,-24.03 1084.58,-29.48"/>
</a>
</g>
</g>
<!-- Node12 -->
<g id="Node000012" class="node">
<title>Node12</title>
<g id="a_Node000012"><a xlink:title=" ">
<polygon fill="#e0e0e0" stroke="#999999" points="988.88,-19.25 927.88,-19.25 927.88,0 988.88,0 988.88,-19.25"/>
<text text-anchor="middle" x="958.38" y="-5.75" font-family="Helvetica,sans-Serif" font-size="10.00">type_traits</text>
</a>
</g>
</g>
<!-- Node7&#45;&gt;Node12 -->
<g id="edge11_Node000007_Node000012" class="edge">
<title>Node7&#45;&gt;Node12</title>
<g id="a_edge11_Node000007_Node000012"><a xlink:title=" ">
<path fill="none" stroke="#63b8ff" d="M1023.14,-54.84C1011.6,-46.96 994.61,-35.36 980.93,-26.02"/>
<polygon fill="#63b8ff" stroke="#63b8ff" points="983.15,-23.3 972.92,-20.56 979.21,-29.08 983.15,-23.3"/>
</a>
</g>
</g>
<!-- Node28 -->
<g id="Node000028" class="node">
<title>Node28</title>
<g id="a_Node000028"><a xlink:title=" ">
<polygon fill="#e0e0e0" stroke="#999999" points="2315.5,-146.62 2213.25,-146.62 2213.25,-116.12 2315.5,-116.12 2315.5,-146.62"/>
<text text-anchor="start" x="2221.25" y="-133.12" font-family="Helvetica,sans-Serif" font-size="10.00">mp&#45;units/framework</text>
<text text-anchor="middle" x="2264.38" y="-121.88" font-family="Helvetica,sans-Serif" font-size="10.00">/quantity.h</text>
</a>
</g>
</g>
<!-- Node27&#45;&gt;Node28 -->
<g id="edge33_Node000027_Node000028" class="edge">
<title>Node27&#45;&gt;Node28</title>
<g id="a_edge33_Node000027_Node000028"><a xlink:title=" ">
<path fill="none" stroke="#63b8ff" d="M2417.73,-193.48C2391.05,-182.85 2346.03,-164.91 2311.65,-151.21"/>
<polygon fill="#63b8ff" stroke="#63b8ff" points="2313.35,-148.12 2302.76,-147.67 2310.76,-154.62 2313.35,-148.12"/>
</a>
</g>
</g>
<!-- Node29 -->
<g id="Node000029" class="node">
<title>Node29</title>
<g id="a_Node000029"><a xlink:title=" ">
<polygon fill="#e0e0e0" stroke="#999999" points="2435.5,-146.62 2333.25,-146.62 2333.25,-116.12 2435.5,-116.12 2435.5,-146.62"/>
<text text-anchor="start" x="2341.25" y="-133.12" font-family="Helvetica,sans-Serif" font-size="10.00">mp&#45;units/framework</text>
<text text-anchor="middle" x="2384.38" y="-121.88" font-family="Helvetica,sans-Serif" font-size="10.00">/quantity_point.h</text>
</a>
</g>
</g>
<!-- Node27&#45;&gt;Node29 -->
<g id="edge34_Node000027_Node000029" class="edge">
<title>Node27&#45;&gt;Node29</title>
<g id="a_edge34_Node000027_Node000029"><a xlink:title=" ">
<path fill="none" stroke="#63b8ff" d="M2433.28,-193.62C2425.75,-184.19 2413.53,-168.89 2403.19,-155.94"/>
<polygon fill="#63b8ff" stroke="#63b8ff" points="2406.01,-153.85 2397.03,-148.22 2400.54,-158.22 2406.01,-153.85"/>
</a>
</g>
</g>
<!-- Node30 -->
<g id="Node000030" class="node">
<title>Node30</title>
<g id="a_Node000030"><a xlink:title=" ">
<polygon fill="#e0e0e0" stroke="#999999" points="2539.25,-141 2453.5,-141 2453.5,-121.75 2539.25,-121.75 2539.25,-141"/>
<text text-anchor="middle" x="2496.38" y="-127.5" font-family="Helvetica,sans-Serif" font-size="10.00">mp&#45;units/math.h</text>
</a>
</g>
</g>
<!-- Node27&#45;&gt;Node30 -->
<g id="edge35_Node000027_Node000030" class="edge">
<title>Node27&#45;&gt;Node30</title>
<g id="a_edge35_Node000027_Node000030"><a xlink:title=" ">
<path fill="none" stroke="#63b8ff" d="M2447.47,-193.62C2456.17,-182.72 2471.14,-163.98 2482.23,-150.09"/>
<polygon fill="#63b8ff" stroke="#63b8ff" points="2484.71,-152.59 2488.22,-142.59 2479.24,-148.22 2484.71,-152.59"/>
</a>
</g>
</g>
<!-- Node31 -->
<g id="Node000031" class="node">
<title>Node31</title>
<g id="a_Node000031"><a xlink:title=" ">
<polygon fill="#e0e0e0" stroke="#999999" points="2665.88,-146.62 2556.88,-146.62 2556.88,-116.12 2665.88,-116.12 2665.88,-146.62"/>
<text text-anchor="start" x="2564.88" y="-133.12" font-family="Helvetica,sans-Serif" font-size="10.00">mp&#45;units/systems/isq</text>
<text text-anchor="middle" x="2611.38" y="-121.88" font-family="Helvetica,sans-Serif" font-size="10.00">/thermodynamics.h</text>
</a>
</g>
</g>
<!-- Node27&#45;&gt;Node31 -->
<g id="edge36_Node000027_Node000031" class="edge">
<title>Node27&#45;&gt;Node31</title>
<g id="a_edge36_Node000027_Node000031"><a xlink:title=" ">
<path fill="none" stroke="#63b8ff" d="M2462.38,-193.48C2488.18,-182.89 2531.66,-165.07 2565.01,-151.39"/>
<polygon fill="#63b8ff" stroke="#63b8ff" points="2566.12,-154.72 2574.04,-147.68 2563.46,-148.24 2566.12,-154.72"/>
</a>
</g>
</g>
<!-- Node32 -->
<g id="Node000032" class="node">
<title>Node32</title>
<g id="a_Node000032"><a xlink:title=" ">
<polygon fill="#e0e0e0" stroke="#999999" points="2795,-141 2683.75,-141 2683.75,-121.75 2795,-121.75 2795,-141"/>
<text text-anchor="middle" x="2739.38" y="-127.5" font-family="Helvetica,sans-Serif" font-size="10.00">mp&#45;units/systems/si.h</text>
</a>
</g>
</g>
<!-- Node27&#45;&gt;Node32 -->
<g id="edge37_Node000027_Node000032" class="edge">
<title>Node27&#45;&gt;Node32</title>
<g id="a_edge37_Node000027_Node000032"><a xlink:title=" ">
<path fill="none" stroke="#63b8ff" d="M2485.71,-194.07C2533.25,-184.94 2609.99,-169.36 2675.38,-152.25 2683.83,-150.04 2692.83,-147.41 2701.33,-144.81"/>
<polygon fill="#63b8ff" stroke="#63b8ff" points="2702.18,-148.21 2710.68,-141.89 2700.09,-141.53 2702.18,-148.21"/>
</a>
</g>
</g>
</g>
</svg>

<g id="navigator" transform="translate(0 0)" fill="#404254">
  <rect fill="#f2f5e9" fill-opacity="0.5" stroke="#606060" stroke-width=".5" x="0" y="0" width="60" height="60"/>
  <use id="zoomplus" xlink:href="#zoomPlus" x="17" y="9" onmousedown="handleZoom(evt,'in')"/>
  <use id="zoomminus" xlink:href="#zoomMin" x="42" y="9" onmousedown="handleZoom(evt,'out')"/>
  <use id="reset" xlink:href="#resetDef" x="30" y="36" onmousedown="handleReset()"/>
   <use id="arrowup" xlink:href="#arrowUp" x="0" y="0" onmousedown="handlePan(0,-1)"/>
  <use id="arrowright" xlink:href="#arrowRight" x="0" y="0" onmousedown="handlePan(1,0)"/>
  <use id="arrowdown" xlink:href="#arrowDown" x="0" y="0" onmousedown="handlePan(0,1)"/>
  <use id="arrowleft" xlink:href="#arrowLeft" x="0" y="0" onmousedown="handlePan(-1,0)"/>
</g>
<svg viewBox="0 0 15 15" width="100%" height="30px" preserveAspectRatio="xMaxYMin meet">
 <g id="arrow_out" transform="scale(0.3 0.3)">
  <a xlink:href="unit__std_2fcarouge_2linalg_8hpp__incl_org.svg" target="_base">
   <rect id="button" ry="5" rx="5" y="6" x="6" height="38" width="38"
        fill="#f2f5e9" fill-opacity="0.5" stroke="#606060" stroke-width="1.0"/>
   <path id="arrow"
     d="M 11.500037,31.436501 C 11.940474,20.09759 22.043105,11.32322 32.158766,21.979434 L 37.068811,17.246167 C 37.068811,17.246167 37.088388,32 37.088388,32 L 22.160133,31.978069 C 22.160133,31.978069 26.997745,27.140456 26.997745,27.140456 C 18.528582,18.264221 13.291696,25.230495 11.500037,31.436501 z"
     style="fill:#404040;"/>
  </a>
 </g>
</svg>

<style type='text/css'>
<![CDATA[
[data-mouse-over-selected='false'] { opacity: 0.7; }
[data-mouse-over-selected='true']  { opacity: 1.0; }
]]>
</style>
<script type="application/ecmascript"><![CDATA[
document.addEventListener('DOMContentLoaded', (event) => {
  highlightEdges();
  highlightAdjacentNodes();
});
]]></script>
</svg>
