<?xml version="1.0" encoding="UTF-8" standalone="no"?>
<!DOCTYPE svg PUBLIC "-//W3C//DTD SVG 1.1//EN"
 "http://www.w3.org/Graphics/SVG/1.1/DTD/svg11.dtd">
<!-- Generated by graphviz version 12.2.0 (20241103.1931)
 -->
<!-- Title: /github/workspace/support/unit_std/fcarouge/linalg.hpp Pages: 1 -->
<!--zoomable 305 -->

<svg id="main" version="1.1" xmlns="http://www.w3.org/2000/svg" xmlns:xlink="http://www.w3.org/1999/xlink" xml:space="preserve" onload="init(evt)">

<style type="text/css"><![CDATA[
.node, .edge {opacity: 0.7;}
.node.selected, .edge.selected {opacity: 1;}
.edge:hover path { stroke: red; }
.edge:hover polygon { stroke: red; fill: red; }
]]></style>

<defs>
  <circle id="rim" cx="0" cy="0" r="7"/>
  <circle id="rim2" cx="0" cy="0" r="3.5"/>
  <g id="zoomPlus">
    <use xlink:href="#rim" fill="#404040"><set attributeName="fill" to="#808080" begin="zoomplus.mouseover" end="zoomplus.mouseout"/></use>
    <path d="M-4,0h8M0,-4v8" fill="none" stroke="white" stroke-width="1.5" pointer-events="none"/>
  </g>
  <g id="zoomMin">
    <use xlink:href="#rim" fill="#404040"><set attributeName="fill" to="#808080" begin="zoomminus.mouseover" end="zoomminus.mouseout"/></use>
    <path d="M-4,0h8" fill="none" stroke="white" stroke-width="1.5" pointer-events="none"/>
  </g>
  <g id="arrowUp" transform="translate(30 24)">
    <use xlink:href="#rim"/>
    <path pointer-events="none" fill="none" stroke="white" stroke-width="1.5" d="M0,-3.0v7 M-2.5,-0.5L0,-3.0L2.5,-0.5"/>
  </g>
  <g id="arrowRight" transform="rotate(90) translate(36 -43)">
    <use xlink:href="#rim"/>
    <path pointer-events="none" fill="none" stroke="white" stroke-width="1.5" d="M0,-3.0v7 M-2.5,-0.5L0,-3.0L2.5,-0.5"/>
  </g>
  <g id="arrowDown" transform="rotate(180) translate(-30 -48)">
    <use xlink:href="#rim"/>
    <path pointer-events="none" fill="none" stroke="white" stroke-width="1.5" d="M0,-3.0v7 M-2.5,-0.5L0,-3.0L2.5,-0.5"/>
  </g>
  <g id="arrowLeft" transform="rotate(270) translate(-36 17)">
    <use xlink:href="#rim"/>
    <path pointer-events="none" fill="none" stroke="white" stroke-width="1.5" d="M0,-3.0v7 M-2.5,-0.5L0,-3.0L2.5,-0.5"/>
  </g>
  <g id="resetDef">
    <use xlink:href="#rim2" fill="#404040"><set attributeName="fill" to="#808080" begin="reset.mouseover" end="reset.mouseout"/></use>
  </g>
</defs>
<script type="application/ecmascript">
var viewWidth = 2783;
var viewHeight = 305;
var sectionId = 'dynsection-0';
</script>
<script type="application/ecmascript" xlink:href="svg.min.js"/>
<svg id="graph" class="graph">
<g id="viewport">
<title>/github/workspace/support/unit_std/fcarouge/linalg.hpp</title>
<!-- Node1 -->
<g id="Node000001" class="node">
<title>Node1</title>
<g id="a_Node000001"><a xlink:title="Indexed&#45;based linear algebra with mp&#45;units with Eigen implementations.">
<polygon fill="#999999" stroke="#666666" points="321.13,-296.5 183.63,-296.5 183.63,-266 321.13,-266 321.13,-296.5"/>
<text text-anchor="start" x="191.63" y="-283" font-family="Helvetica,sans-Serif" font-size="10.00">/github/workspace/support</text>
<text text-anchor="middle" x="252.38" y="-271.75" font-family="Helvetica,sans-Serif" font-size="10.00">/unit_std/fcarouge/linalg.hpp</text>
</a>
</g>
</g>
<!-- Node2 -->
<g id="Node000002" class="node">
<title>Node2</title>
<g id="a_Node000002"><a xlink:title=" ">
<polygon fill="#e0e0e0" stroke="#999999" points="134.88,-224.38 55.88,-224.38 55.88,-205.12 134.88,-205.12 134.88,-224.38"/>
<text text-anchor="middle" x="95.38" y="-210.88" font-family="Helvetica,sans-Serif" font-size="10.00">fcarouge/linalg</text>
</a>
</g>
</g>
<!-- Node1&#45;&gt;Node2 -->
<g id="edge1_Node000001_Node000002" class="edge">
<title>Node1&#45;&gt;Node2</title>
<g id="a_edge1_Node000001_Node000002"><a xlink:title=" ">
<path fill="none" stroke="#63b8ff" d="M216.76,-265.61C190,-254.62 153.65,-239.69 127.73,-229.04"/>
<polygon fill="#63b8ff" stroke="#63b8ff" points="129.29,-225.9 118.71,-225.33 126.63,-232.37 129.29,-225.9"/>
</a>
</g>
</g>
<!-- Node3 -->
<g id="Node000003" class="node">
<title>Node3</title>
<g id="a_Node000003"><a xlink:title=" ">
<polygon fill="#e0e0e0" stroke="#999999" points="243.88,-224.38 152.88,-224.38 152.88,-205.12 243.88,-205.12 243.88,-224.38"/>
<text text-anchor="middle" x="198.38" y="-210.88" font-family="Helvetica,sans-Serif" font-size="10.00">fcarouge/mdspan</text>
</a>
</g>
</g>
<!-- Node1&#45;&gt;Node3 -->
<g id="edge2_Node000001_Node000003" class="edge">
<title>Node1&#45;&gt;Node3</title>
<g id="a_edge2_Node000001_Node000003"><a xlink:title=" ">
<path fill="none" stroke="#63b8ff" d="M240.13,-265.61C232.11,-256.04 221.59,-243.47 213.12,-233.35"/>
<polygon fill="#63b8ff" stroke="#63b8ff" points="215.84,-231.15 206.74,-225.73 210.48,-235.65 215.84,-231.15"/>
</a>
</g>
</g>
<!-- Node4 -->
<g id="Node000004" class="node">
<title>Node4</title>
<g id="a_Node000004"><a xlink:href="typed__linear__algebra_8hpp.xhtml" target="_top" xlink:title="Typed linear algebra implementation.">
<polygon fill="white" stroke="#666666" points="1848.51,-230 1740.26,-230 1740.26,-199.5 1848.51,-199.5 1848.51,-230"/>
<text text-anchor="start" x="1748.26" y="-216.5" font-family="Helvetica,sans-Serif" font-size="10.00">fcarouge/typed_linear</text>
<text text-anchor="middle" x="1794.38" y="-205.25" font-family="Helvetica,sans-Serif" font-size="10.00">_algebra.hpp</text>
</a>
</g>
</g>
<!-- Node1&#45;&gt;Node4 -->
<g id="edge3_Node000001_Node000004" class="edge">
<title>Node1&#45;&gt;Node4</title>
<g id="a_edge3_Node000001_Node000004"><a xlink:title=" ">
<path fill="none" stroke="#63b8ff" d="M321.38,-277.36C578.18,-266.62 1476.67,-229.04 1728.39,-218.51"/>
<polygon fill="#63b8ff" stroke="#63b8ff" points="1728.52,-222.01 1738.37,-218.09 1728.23,-215.01 1728.52,-222.01"/>
</a>
</g>
</g>
<!-- Node27 -->
<g id="Node000027" class="node">
<title>Node27</title>
<g id="a_Node000027"><a xlink:href="unit_8hpp.xhtml" target="_top" xlink:title="Quantities and units facade for mp&#45;units third party implementation.">
<polygon fill="white" stroke="#666666" points="352.51,-224.38 262.26,-224.38 262.26,-205.12 352.51,-205.12 352.51,-224.38"/>
<text text-anchor="middle" x="307.38" y="-210.88" font-family="Helvetica,sans-Serif" font-size="10.00">fcarouge/unit.hpp</text>
</a>
</g>
</g>
<!-- Node1&#45;&gt;Node27 -->
<g id="edge33_Node000001_Node000027" class="edge">
<title>Node1&#45;&gt;Node27</title>
<g id="a_edge33_Node000001_Node000027"><a xlink:title=" ">
<path fill="none" stroke="#63b8ff" d="M264.86,-265.61C273.11,-255.94 283.96,-243.21 292.64,-233.04"/>
<polygon fill="#63b8ff" stroke="#63b8ff" points="295.05,-235.6 298.88,-225.72 289.72,-231.06 295.05,-235.6"/>
</a>
</g>
</g>
<!-- Node5 -->
<g id="Node000005" class="node">
<title>Node5</title>
<g id="a_Node000005"><a xlink:href="typed__linear__algebra__forward_8hpp.xhtml" target="_top" xlink:title="Authoritative forward declaration header.">
<polygon fill="white" stroke="#666666" points="2498.63,-30.5 2394.13,-30.5 2394.13,0 2498.63,0 2498.63,-30.5"/>
<text text-anchor="start" x="2402.13" y="-17" font-family="Helvetica,sans-Serif" font-size="10.00">typed_linear_algebra</text>
<text text-anchor="middle" x="2446.38" y="-5.75" font-family="Helvetica,sans-Serif" font-size="10.00">_forward.hpp</text>
</a>
</g>
</g>
<!-- Node4&#45;&gt;Node5 -->
<g id="edge4_Node000004_Node000005" class="edge">
<title>Node4&#45;&gt;Node5</title>
<g id="a_edge4_Node000004_Node000005"><a xlink:title=" ">
<path fill="none" stroke="#63b8ff" d="M1848.93,-213.73C1999.37,-213.11 2411.72,-207.38 2452.38,-163.5 2482.87,-130.59 2468.78,-73.69 2456.88,-41.1"/>
<polygon fill="#63b8ff" stroke="#63b8ff" points="2460.26,-40.13 2453.38,-32.07 2453.73,-42.66 2460.26,-40.13"/>
</a>
</g>
</g>
<!-- Node6 -->
<g id="Node000006" class="node">
<title>Node6</title>
<g id="a_Node000006"><a xlink:href="format_8hpp.xhtml" target="_top" xlink:title="Formatting support for the typed matrix.">
<polygon fill="white" stroke="#666666" points="2733.63,-157.88 2629.13,-157.88 2629.13,-127.38 2733.63,-127.38 2733.63,-157.88"/>
<text text-anchor="start" x="2637.13" y="-144.38" font-family="Helvetica,sans-Serif" font-size="10.00">typed_linear_algebra</text>
<text text-anchor="middle" x="2681.38" y="-133.12" font-family="Helvetica,sans-Serif" font-size="10.00">_internal/format.hpp</text>
</a>
</g>
</g>
<!-- Node4&#45;&gt;Node6 -->
<g id="edge5_Node000004_Node000006" class="edge">
<title>Node4&#45;&gt;Node6</title>
<g id="a_edge5_Node000004_Node000006"><a xlink:title=" ">
<path fill="none" stroke="#63b8ff" d="M1848.95,-212.06C2007.69,-206.87 2467.43,-189.94 2615.38,-163.5 2619.15,-162.83 2623,-162.01 2626.86,-161.1"/>
<polygon fill="#63b8ff" stroke="#63b8ff" points="2627.42,-164.57 2636.24,-158.7 2625.68,-157.79 2627.42,-164.57"/>
</a>
</g>
</g>
<!-- Node7 -->
<g id="Node000007" class="node">
<title>Node7</title>
<g id="a_Node000007"><a xlink:href="utility_8hpp.xhtml" target="_top" xlink:title=" ">
<polygon fill="white" stroke="#666666" points="2573.63,-85.75 2517.13,-85.75 2517.13,-66.5 2573.63,-66.5 2573.63,-85.75"/>
<text text-anchor="middle" x="2545.38" y="-72.25" font-family="Helvetica,sans-Serif" font-size="10.00">utility.hpp</text>
</a>
</g>
</g>
<!-- Node4&#45;&gt;Node7 -->
<g id="edge15_Node000004_Node000007" class="edge">
<title>Node4&#45;&gt;Node7</title>
<g id="a_edge15_Node000004_Node000007"><a xlink:title=" ">
<path fill="none" stroke="#63b8ff" d="M1848.79,-212.99C2005.42,-210.39 2449.62,-199.85 2503.38,-163.5 2525.8,-148.34 2536.68,-117.68 2541.63,-97.27"/>
<polygon fill="#63b8ff" stroke="#63b8ff" points="2545.03,-98.11 2543.69,-87.6 2538.19,-96.65 2545.03,-98.11"/>
</a>
</g>
</g>
<!-- Node8 -->
<g id="Node000008" class="node">
<title>Node8</title>
<g id="a_Node000008"><a xlink:title=" ">
<polygon fill="#e0e0e0" stroke="#999999" points="662.26,-24.88 606.51,-24.88 606.51,-5.63 662.26,-5.63 662.26,-24.88"/>
<text text-anchor="middle" x="634.38" y="-11.38" font-family="Helvetica,sans-Serif" font-size="10.00">concepts</text>
</a>
</g>
</g>
<!-- Node4&#45;&gt;Node8 -->
<g id="edge16_Node000004_Node000008" class="edge">
<title>Node4&#45;&gt;Node8</title>
<g id="a_edge16_Node000004_Node000008"><a xlink:title=" ">
<path fill="none" stroke="#63b8ff" d="M1740,-213.28C1518.46,-211.13 693.8,-200.65 653.38,-163.5 618.2,-131.16 624.01,-68.44 629.89,-36.3"/>
<polygon fill="#63b8ff" stroke="#63b8ff" points="633.27,-37.24 631.84,-26.74 626.41,-35.84 633.27,-37.24"/>
</a>
</g>
</g>
<!-- Node9 -->
<g id="Node000009" class="node">
<title>Node9</title>
<g id="a_Node000009"><a xlink:title=" ">
<polygon fill="#e0e0e0" stroke="#999999" points="2720.51,-24.88 2672.26,-24.88 2672.26,-5.63 2720.51,-5.63 2720.51,-24.88"/>
<text text-anchor="middle" x="2696.38" y="-11.38" font-family="Helvetica,sans-Serif" font-size="10.00">cstddef</text>
</a>
</g>
</g>
<!-- Node4&#45;&gt;Node9 -->
<g id="edge17_Node000004_Node000009" class="edge">
<title>Node4&#45;&gt;Node9</title>
<g id="a_edge17_Node000004_Node000009"><a xlink:title=" ">
<path fill="none" stroke="#63b8ff" d="M1848.99,-212.08C2009.09,-206.91 2469.98,-189.87 2532.38,-163.5 2600.1,-134.88 2658.54,-66.28 2683.49,-33.83"/>
<polygon fill="#63b8ff" stroke="#63b8ff" points="2686.01,-36.31 2689.22,-26.22 2680.42,-32.1 2686.01,-36.31"/>
</a>
</g>
</g>
<!-- Node11 -->
<g id="Node000011" class="node">
<title>Node11</title>
<g id="a_Node000011"><a xlink:title=" ">
<polygon fill="#e0e0e0" stroke="#999999" points="2375.88,-24.88 2338.88,-24.88 2338.88,-5.63 2375.88,-5.63 2375.88,-24.88"/>
<text text-anchor="middle" x="2357.38" y="-11.38" font-family="Helvetica,sans-Serif" font-size="10.00">tuple</text>
</a>
</g>
</g>
<!-- Node4&#45;&gt;Node11 -->
<g id="edge20_Node000004_Node000011" class="edge">
<title>Node4&#45;&gt;Node11</title>
<g id="a_edge20_Node000004_Node000011"><a xlink:title=" ">
<path fill="none" stroke="#63b8ff" d="M1848.86,-213.59C1996.02,-212.59 2393.14,-205.95 2432.38,-163.5 2469.41,-123.44 2410.07,-61.67 2377.08,-32.53"/>
<polygon fill="#63b8ff" stroke="#63b8ff" points="2379.59,-30.07 2369.72,-26.2 2375.03,-35.38 2379.59,-30.07"/>
</a>
</g>
</g>
<!-- Node13 -->
<g id="Node000013" class="node">
<title>Node13</title>
<g id="a_Node000013"><a xlink:title=" ">
<polygon fill="#e0e0e0" stroke="#999999" points="2775.26,-85.75 2731.51,-85.75 2731.51,-66.5 2775.26,-66.5 2775.26,-85.75"/>
<text text-anchor="middle" x="2753.38" y="-72.25" font-family="Helvetica,sans-Serif" font-size="10.00">format</text>
</a>
</g>
</g>
<!-- Node4&#45;&gt;Node13 -->
<g id="edge18_Node000004_Node000013" class="edge">
<title>Node4&#45;&gt;Node13</title>
<g id="a_edge18_Node000004_Node000013"><a xlink:title=" ">
<path fill="none" stroke="#63b8ff" d="M1848.67,-212.78C2045.16,-209.01 2709.48,-194.07 2742.38,-163.5 2760.18,-146.96 2759.97,-117.15 2757.34,-97.24"/>
<polygon fill="#63b8ff" stroke="#63b8ff" points="2760.83,-96.87 2755.73,-87.58 2753.92,-98.02 2760.83,-96.87"/>
</a>
</g>
</g>
<!-- Node14 -->
<g id="Node000014" class="node">
<title>Node14</title>
<g id="a_Node000014"><a xlink:title=" ">
<polygon fill="#e0e0e0" stroke="#999999" points="734.13,-152.25 662.63,-152.25 662.63,-133 734.13,-133 734.13,-152.25"/>
<text text-anchor="middle" x="698.38" y="-138.75" font-family="Helvetica,sans-Serif" font-size="10.00">initializer_list</text>
</a>
</g>
</g>
<!-- Node4&#45;&gt;Node14 -->
<g id="edge19_Node000004_Node000014" class="edge">
<title>Node4&#45;&gt;Node14</title>
<g id="a_edge19_Node000004_Node000014"><a xlink:title=" ">
<path fill="none" stroke="#63b8ff" d="M1739.81,-213.77C1552.32,-213.44 935.5,-208.86 743.38,-163.5 737.25,-162.05 730.92,-159.79 725.01,-157.3"/>
<polygon fill="#63b8ff" stroke="#63b8ff" points="726.89,-154.31 716.34,-153.34 723.98,-160.68 726.89,-154.31"/>
</a>
</g>
</g>
<!-- Node15 -->
<g id="Node000015" class="node">
<title>Node15</title>
<g id="a_Node000015"><a xlink:title=" ">
<polygon fill="#e0e0e0" stroke="#999999" points="790.63,-152.25 752.13,-152.25 752.13,-133 790.63,-133 790.63,-152.25"/>
<text text-anchor="middle" x="771.38" y="-138.75" font-family="Helvetica,sans-Serif" font-size="10.00">utility</text>
</a>
</g>
</g>
<!-- Node4&#45;&gt;Node15 -->
<g id="edge21_Node000004_Node000015" class="edge">
<title>Node4&#45;&gt;Node15</title>
<g id="a_edge21_Node000004_Node000015"><a xlink:title=" ">
<path fill="none" stroke="#63b8ff" d="M1740,-212.78C1545.09,-209.06 888.29,-194.34 799.38,-163.5 796.37,-162.46 793.39,-160.98 790.57,-159.3"/>
<polygon fill="#63b8ff" stroke="#63b8ff" points="792.65,-156.48 782.46,-153.59 788.62,-162.21 792.65,-156.48"/>
</a>
</g>
</g>
<!-- Node16 -->
<g id="Node000016" class="node">
<title>Node16</title>
<g id="a_Node000016"><a xlink:title=" ">
<polygon fill="#e0e0e0" stroke="#999999" points="938.38,-157.88 808.38,-157.88 808.38,-127.38 938.38,-127.38 938.38,-157.88"/>
<text text-anchor="start" x="816.38" y="-144.38" font-family="Helvetica,sans-Serif" font-size="10.00">typed_linear_algebra</text>
<text text-anchor="middle" x="873.38" y="-133.12" font-family="Helvetica,sans-Serif" font-size="10.00">_internal/algorithm/add.tpp</text>
</a>
</g>
</g>
<!-- Node4&#45;&gt;Node16 -->
<g id="edge22_Node000004_Node000016" class="edge">
<title>Node4&#45;&gt;Node16</title>
<g id="a_edge22_Node000004_Node000016"><a xlink:title=" ">
<path fill="none" stroke="#63b8ff" d="M1739.96,-214.33C1604.85,-214.95 1243.65,-211.56 947.38,-163.5 942.8,-162.76 938.1,-161.85 933.39,-160.83"/>
<polygon fill="#63b8ff" stroke="#63b8ff" points="934.44,-157.48 923.91,-158.63 932.86,-164.3 934.44,-157.48"/>
</a>
</g>
</g>
<!-- Node17 -->
<g id="Node000017" class="node">
<title>Node17</title>
<g id="a_Node000017"><a xlink:title=" ">
<polygon fill="#e0e0e0" stroke="#999999" points="1096.26,-157.88 956.51,-157.88 956.51,-127.38 1096.26,-127.38 1096.26,-157.88"/>
<text text-anchor="start" x="964.51" y="-144.38" font-family="Helvetica,sans-Serif" font-size="10.00">typed_linear_algebra</text>
<text text-anchor="middle" x="1026.38" y="-133.12" font-family="Helvetica,sans-Serif" font-size="10.00">_internal/algorithm/divide.tpp</text>
</a>
</g>
</g>
<!-- Node4&#45;&gt;Node17 -->
<g id="edge23_Node000004_Node000017" class="edge">
<title>Node4&#45;&gt;Node17</title>
<g id="a_edge23_Node000004_Node000017"><a xlink:title=" ">
<path fill="none" stroke="#63b8ff" d="M1739.97,-212.98C1623.06,-210.64 1339.54,-201.2 1105.38,-163.5 1100.54,-162.72 1095.56,-161.79 1090.56,-160.76"/>
<polygon fill="#63b8ff" stroke="#63b8ff" points="1091.66,-157.41 1081.14,-158.69 1090.16,-164.25 1091.66,-157.41"/>
</a>
</g>
</g>
<!-- Node18 -->
<g id="Node000018" class="node">
<title>Node18</title>
<g id="a_Node000018"><a xlink:title=" ">
<polygon fill="#e0e0e0" stroke="#999999" points="1236.26,-163.5 1114.51,-163.5 1114.51,-121.75 1236.26,-121.75 1236.26,-163.5"/>
<text text-anchor="start" x="1122.51" y="-150" font-family="Helvetica,sans-Serif" font-size="10.00">typed_linear_algebra</text>
<text text-anchor="start" x="1122.51" y="-138.75" font-family="Helvetica,sans-Serif" font-size="10.00">_internal/algorithm/equal</text>
<text text-anchor="middle" x="1175.38" y="-127.5" font-family="Helvetica,sans-Serif" font-size="10.00">_to.tpp</text>
</a>
</g>
</g>
<!-- Node4&#45;&gt;Node18 -->
<g id="edge24_Node000004_Node000018" class="edge">
<title>Node4&#45;&gt;Node18</title>
<g id="a_edge24_Node000004_Node000018"><a xlink:title=" ">
<path fill="none" stroke="#63b8ff" d="M1739.77,-212.1C1642.53,-208.44 1433.01,-197.27 1248,-163.81"/>
<polygon fill="#63b8ff" stroke="#63b8ff" points="1248.65,-160.37 1238.18,-162 1247.38,-167.25 1248.65,-160.37"/>
</a>
</g>
</g>
<!-- Node19 -->
<g id="Node000019" class="node">
<title>Node19</title>
<g id="a_Node000019"><a xlink:title=" ">
<polygon fill="#e0e0e0" stroke="#999999" points="1378.76,-163.5 1254.01,-163.5 1254.01,-121.75 1378.76,-121.75 1378.76,-163.5"/>
<text text-anchor="start" x="1262.01" y="-150" font-family="Helvetica,sans-Serif" font-size="10.00">typed_linear_algebra</text>
<text text-anchor="start" x="1262.01" y="-138.75" font-family="Helvetica,sans-Serif" font-size="10.00">_internal/algorithm/matrix</text>
<text text-anchor="middle" x="1316.38" y="-127.5" font-family="Helvetica,sans-Serif" font-size="10.00">_product.tpp</text>
</a>
</g>
</g>
<!-- Node4&#45;&gt;Node19 -->
<g id="edge25_Node000004_Node000019" class="edge">
<title>Node4&#45;&gt;Node19</title>
<g id="a_edge25_Node000004_Node000019"><a xlink:title=" ">
<path fill="none" stroke="#63b8ff" d="M1739.8,-209.55C1663.61,-203.12 1520.97,-189.05 1390.09,-163.68"/>
<polygon fill="#63b8ff" stroke="#63b8ff" points="1391.05,-160.3 1380.57,-161.81 1389.7,-167.17 1391.05,-160.3"/>
</a>
</g>
</g>
<!-- Node20 -->
<g id="Node000020" class="node">
<title>Node20</title>
<g id="a_Node000020"><a xlink:title=" ">
<polygon fill="#e0e0e0" stroke="#999999" points="1543.63,-157.88 1397.13,-157.88 1397.13,-127.38 1543.63,-127.38 1543.63,-157.88"/>
<text text-anchor="start" x="1405.13" y="-144.38" font-family="Helvetica,sans-Serif" font-size="10.00">typed_linear_algebra</text>
<text text-anchor="middle" x="1470.38" y="-133.12" font-family="Helvetica,sans-Serif" font-size="10.00">_internal/algorithm/product.tpp</text>
</a>
</g>
</g>
<!-- Node4&#45;&gt;Node20 -->
<g id="edge26_Node000004_Node000020" class="edge">
<title>Node4&#45;&gt;Node20</title>
<g id="a_edge26_Node000004_Node000020"><a xlink:title=" ">
<path fill="none" stroke="#63b8ff" d="M1739.97,-202.99C1690.85,-193.14 1616.64,-177.96 1552.38,-163.5 1548.62,-162.65 1544.77,-161.77 1540.89,-160.87"/>
<polygon fill="#63b8ff" stroke="#63b8ff" points="1541.9,-157.52 1531.37,-158.64 1540.3,-164.33 1541.9,-157.52"/>
</a>
</g>
</g>
<!-- Node21 -->
<g id="Node000021" class="node">
<title>Node21</title>
<g id="a_Node000021"><a xlink:title=" ">
<polygon fill="#e0e0e0" stroke="#999999" points="1699.13,-157.88 1561.63,-157.88 1561.63,-127.38 1699.13,-127.38 1699.13,-157.88"/>
<text text-anchor="start" x="1569.63" y="-144.38" font-family="Helvetica,sans-Serif" font-size="10.00">typed_linear_algebra</text>
<text text-anchor="middle" x="1630.38" y="-133.12" font-family="Helvetica,sans-Serif" font-size="10.00">_internal/algorithm/scale.tpp</text>
</a>
</g>
</g>
<!-- Node4&#45;&gt;Node21 -->
<g id="edge27_Node000004_Node000021" class="edge">
<title>Node4&#45;&gt;Node21</title>
<g id="a_edge27_Node000004_Node000021"><a xlink:title=" ">
<path fill="none" stroke="#63b8ff" d="M1760,-199.05C1735.29,-188.48 1701.75,-174.14 1674.98,-162.7"/>
<polygon fill="#63b8ff" stroke="#63b8ff" points="1676.68,-159.61 1666.11,-158.9 1673.93,-166.05 1676.68,-159.61"/>
</a>
</g>
</g>
<!-- Node22 -->
<g id="Node000022" class="node">
<title>Node22</title>
<g id="a_Node000022"><a xlink:title=" ">
<polygon fill="#e0e0e0" stroke="#999999" points="1871.76,-157.88 1717.01,-157.88 1717.01,-127.38 1871.76,-127.38 1871.76,-157.88"/>
<text text-anchor="start" x="1725.01" y="-144.38" font-family="Helvetica,sans-Serif" font-size="10.00">typed_linear_algebra</text>
<text text-anchor="middle" x="1794.38" y="-133.12" font-family="Helvetica,sans-Serif" font-size="10.00">_internal/algorithm/substract.tpp</text>
</a>
</g>
</g>
<!-- Node4&#45;&gt;Node22 -->
<g id="edge28_Node000004_Node000022" class="edge">
<title>Node4&#45;&gt;Node22</title>
<g id="a_edge28_Node000004_Node000022"><a xlink:title=" ">
<path fill="none" stroke="#63b8ff" d="M1794.38,-199.22C1794.38,-190.66 1794.38,-179.59 1794.38,-169.58"/>
<polygon fill="#63b8ff" stroke="#63b8ff" points="1797.88,-169.65 1794.38,-159.65 1790.88,-169.65 1797.88,-169.65"/>
</a>
</g>
</g>
<!-- Node23 -->
<g id="Node000023" class="node">
<title>Node23</title>
<g id="a_Node000023"><a xlink:title=" ">
<polygon fill="#e0e0e0" stroke="#999999" points="2052.51,-157.88 1890.26,-157.88 1890.26,-127.38 2052.51,-127.38 2052.51,-157.88"/>
<text text-anchor="start" x="1898.26" y="-144.38" font-family="Helvetica,sans-Serif" font-size="10.00">typed_linear_algebra</text>
<text text-anchor="middle" x="1971.38" y="-133.12" font-family="Helvetica,sans-Serif" font-size="10.00">_internal/algorithm/transposed.tpp</text>
</a>
</g>
</g>
<!-- Node4&#45;&gt;Node23 -->
<g id="edge29_Node000004_Node000023" class="edge">
<title>Node4&#45;&gt;Node23</title>
<g id="a_edge29_Node000004_Node000023"><a xlink:title=" ">
<path fill="none" stroke="#63b8ff" d="M1831.49,-199.05C1858.27,-188.44 1894.67,-174.02 1923.63,-162.54"/>
<polygon fill="#63b8ff" stroke="#63b8ff" points="1924.91,-165.8 1932.92,-158.86 1922.33,-159.29 1924.91,-165.8"/>
</a>
</g>
</g>
<!-- Node24 -->
<g id="Node000024" class="node">
<title>Node24</title>
<g id="a_Node000024"><a xlink:title=" ">
<polygon fill="#e0e0e0" stroke="#999999" points="2174.63,-157.88 2070.13,-157.88 2070.13,-127.38 2174.63,-127.38 2174.63,-157.88"/>
<text text-anchor="start" x="2078.13" y="-144.38" font-family="Helvetica,sans-Serif" font-size="10.00">typed_linear_algebra</text>
<text text-anchor="middle" x="2122.38" y="-133.12" font-family="Helvetica,sans-Serif" font-size="10.00">_internal/cast.tpp</text>
</a>
</g>
</g>
<!-- Node4&#45;&gt;Node24 -->
<g id="edge30_Node000004_Node000024" class="edge">
<title>Node4&#45;&gt;Node24</title>
<g id="a_edge30_Node000004_Node000024"><a xlink:title=" ">
<path fill="none" stroke="#63b8ff" d="M1848.78,-205.62C1903.06,-197.02 1988.61,-182.12 2061.38,-163.5 2063.79,-162.88 2066.25,-162.22 2068.72,-161.53"/>
<polygon fill="#63b8ff" stroke="#63b8ff" points="2069.54,-164.94 2078.14,-158.76 2067.56,-158.22 2069.54,-164.94"/>
</a>
</g>
</g>
<!-- Node25 -->
<g id="Node000025" class="node">
<title>Node25</title>
<g id="a_Node000025"><a xlink:title=" ">
<polygon fill="#e0e0e0" stroke="#999999" points="2297.63,-157.88 2193.13,-157.88 2193.13,-127.38 2297.63,-127.38 2297.63,-157.88"/>
<text text-anchor="start" x="2201.13" y="-144.38" font-family="Helvetica,sans-Serif" font-size="10.00">typed_linear_algebra</text>
<text text-anchor="middle" x="2245.38" y="-133.12" font-family="Helvetica,sans-Serif" font-size="10.00">_internal/tuple.tpp</text>
</a>
</g>
</g>
<!-- Node4&#45;&gt;Node25 -->
<g id="edge31_Node000004_Node000025" class="edge">
<title>Node4&#45;&gt;Node25</title>
<g id="a_edge31_Node000004_Node000025"><a xlink:title=" ">
<path fill="none" stroke="#63b8ff" d="M1848.72,-209.87C1924.42,-203.75 2065.57,-189.76 2183.38,-163.5 2186.18,-162.88 2189.03,-162.18 2191.9,-161.43"/>
<polygon fill="#63b8ff" stroke="#63b8ff" points="2192.82,-164.81 2201.51,-158.75 2190.94,-158.07 2192.82,-164.81"/>
</a>
</g>
</g>
<!-- Node26 -->
<g id="Node000026" class="node">
<title>Node26</title>
<g id="a_Node000026"><a xlink:title=" ">
<polygon fill="#e0e0e0" stroke="#999999" points="2423.13,-163.5 2315.63,-163.5 2315.63,-121.75 2423.13,-121.75 2423.13,-163.5"/>
<text text-anchor="start" x="2323.63" y="-150" font-family="Helvetica,sans-Serif" font-size="10.00">typed_linear_algebra</text>
<text text-anchor="start" x="2323.63" y="-138.75" font-family="Helvetica,sans-Serif" font-size="10.00">_internal/typed_linear</text>
<text text-anchor="middle" x="2369.38" y="-127.5" font-family="Helvetica,sans-Serif" font-size="10.00">_algebra.tpp</text>
</a>
</g>
</g>
<!-- Node4&#45;&gt;Node26 -->
<g id="edge32_Node000004_Node000026" class="edge">
<title>Node4&#45;&gt;Node26</title>
<g id="a_edge32_Node000004_Node000026"><a xlink:title=" ">
<path fill="none" stroke="#63b8ff" d="M1848.74,-212.12C1940.84,-208.55 2133.37,-197.62 2304.06,-163.74"/>
<polygon fill="#63b8ff" stroke="#63b8ff" points="2304.68,-167.19 2313.79,-161.78 2303.29,-160.33 2304.68,-167.19"/>
</a>
</g>
</g>
<!-- Node6&#45;&gt;Node7 -->
<g id="edge6_Node000006_Node000007" class="edge">
<title>Node6&#45;&gt;Node7</title>
<g id="a_edge6_Node000006_Node000007"><a xlink:title=" ">
<path fill="none" stroke="#63b8ff" d="M2650.52,-126.99C2627.76,-116.19 2596.98,-101.6 2574.61,-90.99"/>
<polygon fill="#63b8ff" stroke="#63b8ff" points="2576.28,-87.91 2565.75,-86.78 2573.28,-94.23 2576.28,-87.91"/>
</a>
</g>
</g>
<!-- Node6&#45;&gt;Node9 -->
<g id="edge13_Node000006_Node000009" class="edge">
<title>Node6&#45;&gt;Node9</title>
<g id="a_edge13_Node000006_Node000009"><a xlink:title=" ">
<path fill="none" stroke="#63b8ff" d="M2683.1,-127.24C2685.77,-104.9 2690.93,-61.8 2693.97,-36.38"/>
<polygon fill="#63b8ff" stroke="#63b8ff" points="2697.42,-37.04 2695.13,-26.7 2690.47,-36.21 2697.42,-37.04"/>
</a>
</g>
</g>
<!-- Node6&#45;&gt;Node13 -->
<g id="edge14_Node000006_Node000013" class="edge">
<title>Node6&#45;&gt;Node13</title>
<g id="a_edge14_Node000006_Node000013"><a xlink:title=" ">
<path fill="none" stroke="#63b8ff" d="M2697.72,-126.99C2708.85,-117.02 2723.6,-103.8 2735.12,-93.49"/>
<polygon fill="#63b8ff" stroke="#63b8ff" points="2737.29,-96.24 2742.41,-86.96 2732.62,-91.02 2737.29,-96.24"/>
</a>
</g>
</g>
<!-- Node7&#45;&gt;Node5 -->
<g id="edge7_Node000007_Node000005" class="edge">
<title>Node7&#45;&gt;Node5</title>
<g id="a_edge7_Node000007_Node000005"><a xlink:title=" ">
<path fill="none" stroke="#63b8ff" d="M2530.35,-66.18C2517.14,-58.33 2497.44,-46.62 2480.44,-36.51"/>
<polygon fill="#63b8ff" stroke="#63b8ff" points="2482.5,-33.66 2472.12,-31.56 2478.92,-39.68 2482.5,-33.66"/>
</a>
</g>
</g>
<!-- Node7&#45;&gt;Node8 -->
<g id="edge8_Node000007_Node000008" class="edge">
<title>Node7&#45;&gt;Node8</title>
<g id="a_edge8_Node000007_Node000008"><a xlink:title=" ">
<path fill="none" stroke="#63b8ff" d="M2516.88,-74.25C2301.15,-67.6 926.62,-25.25 674.18,-17.48"/>
<polygon fill="#63b8ff" stroke="#63b8ff" points="674.31,-13.98 664.21,-17.17 674.09,-20.98 674.31,-13.98"/>
</a>
</g>
</g>
<!-- Node7&#45;&gt;Node9 -->
<g id="edge9_Node000007_Node000009" class="edge">
<title>Node7&#45;&gt;Node9</title>
<g id="a_edge9_Node000007_Node000009"><a xlink:title=" ">
<path fill="none" stroke="#63b8ff" d="M2570.37,-66.05C2594.35,-57.26 2631.51,-43.4 2663.38,-30.5 2664.01,-30.24 2664.65,-29.98 2665.3,-29.72"/>
<polygon fill="#63b8ff" stroke="#63b8ff" points="2666.59,-32.97 2674.45,-25.88 2663.88,-26.52 2666.59,-32.97"/>
</a>
</g>
</g>
<!-- Node10 -->
<g id="Node000010" class="node">
<title>Node10</title>
<g id="a_Node000010"><a xlink:title=" ">
<polygon fill="#e0e0e0" stroke="#999999" points="2574.38,-24.88 2516.38,-24.88 2516.38,-5.63 2574.38,-5.63 2574.38,-24.88"/>
<text text-anchor="middle" x="2545.38" y="-11.38" font-family="Helvetica,sans-Serif" font-size="10.00">functional</text>
</a>
</g>
</g>
<!-- Node7&#45;&gt;Node10 -->
<g id="edge10_Node000007_Node000010" class="edge">
<title>Node7&#45;&gt;Node10</title>
<g id="a_edge10_Node000007_Node000010"><a xlink:title=" ">
<path fill="none" stroke="#63b8ff" d="M2545.38,-66.18C2545.38,-58.4 2545.38,-46.83 2545.38,-36.78"/>
<polygon fill="#63b8ff" stroke="#63b8ff" points="2548.88,-36.79 2545.38,-26.79 2541.88,-36.79 2548.88,-36.79"/>
</a>
</g>
</g>
<!-- Node7&#45;&gt;Node11 -->
<g id="edge11_Node000007_Node000011" class="edge">
<title>Node7&#45;&gt;Node11</title>
<g id="a_edge11_Node000007_Node000011"><a xlink:title=" ">
<path fill="none" stroke="#63b8ff" d="M2516.79,-68.97C2484.35,-61.56 2430.12,-47.92 2385.38,-30.5 2384.9,-30.31 2384.41,-30.12 2383.93,-29.92"/>
<polygon fill="#63b8ff" stroke="#63b8ff" points="2385.64,-26.86 2375.09,-25.88 2382.73,-33.22 2385.64,-26.86"/>
</a>
</g>
</g>
<!-- Node12 -->
<g id="Node000012" class="node">
<title>Node12</title>
<g id="a_Node000012"><a xlink:title=" ">
<polygon fill="#e0e0e0" stroke="#999999" points="2653.88,-24.88 2592.88,-24.88 2592.88,-5.63 2653.88,-5.63 2653.88,-24.88"/>
<text text-anchor="middle" x="2623.38" y="-11.38" font-family="Helvetica,sans-Serif" font-size="10.00">type_traits</text>
</a>
</g>
</g>
<!-- Node7&#45;&gt;Node12 -->
<g id="edge12_Node000007_Node000012" class="edge">
<title>Node7&#45;&gt;Node12</title>
<g id="a_edge12_Node000007_Node000012"><a xlink:title=" ">
<path fill="none" stroke="#63b8ff" d="M2557.23,-66.18C2569.25,-57.11 2588.12,-42.87 2602.63,-31.91"/>
<polygon fill="#63b8ff" stroke="#63b8ff" points="2604.34,-35.01 2610.22,-26.19 2600.13,-29.42 2604.34,-35.01"/>
</a>
</g>
</g>
<!-- Node27&#45;&gt;Node8 -->
<g id="edge34_Node000027_Node000008" class="edge">
<title>Node27&#45;&gt;Node8</title>
<g id="a_edge34_Node000027_Node000008"><a xlink:title=" ">
<path fill="none" stroke="#63b8ff" d="M274.65,-204.68C267.35,-202.82 259.63,-200.99 252.38,-199.5 143.78,-177.24 -56.12,-206.47 15.38,-121.75 90.39,-32.87 470.36,-18.86 594.84,-16.66"/>
<polygon fill="#63b8ff" stroke="#63b8ff" points="594.61,-20.16 604.55,-16.5 594.5,-13.16 594.61,-20.16"/>
</a>
</g>
</g>
<!-- Node28 -->
<g id="Node000028" class="node">
<title>Node28</title>
<g id="a_Node000028"><a xlink:title=" ">
<polygon fill="#e0e0e0" stroke="#999999" points="126.51,-157.88 24.26,-157.88 24.26,-127.38 126.51,-127.38 126.51,-157.88"/>
<text text-anchor="start" x="32.26" y="-144.38" font-family="Helvetica,sans-Serif" font-size="10.00">mp&#45;units/framework</text>
<text text-anchor="middle" x="75.38" y="-133.12" font-family="Helvetica,sans-Serif" font-size="10.00">/quantity.h</text>
</a>
</g>
</g>
<!-- Node27&#45;&gt;Node28 -->
<g id="edge35_Node000027_Node000028" class="edge">
<title>Node27&#45;&gt;Node28</title>
<g id="a_edge35_Node000027_Node000028"><a xlink:title=" ">
<path fill="none" stroke="#63b8ff" d="M274.94,-204.65C240.29,-194.83 183.79,-178.58 135.38,-163.5 133.66,-162.96 131.92,-162.42 130.16,-161.86"/>
<polygon fill="#63b8ff" stroke="#63b8ff" points="131.27,-158.54 120.67,-158.81 129.13,-165.2 131.27,-158.54"/>
</a>
</g>
</g>
<!-- Node29 -->
<g id="Node000029" class="node">
<title>Node29</title>
<g id="a_Node000029"><a xlink:title=" ">
<polygon fill="#e0e0e0" stroke="#999999" points="246.51,-157.88 144.26,-157.88 144.26,-127.38 246.51,-127.38 246.51,-157.88"/>
<text text-anchor="start" x="152.26" y="-144.38" font-family="Helvetica,sans-Serif" font-size="10.00">mp&#45;units/framework</text>
<text text-anchor="middle" x="195.38" y="-133.12" font-family="Helvetica,sans-Serif" font-size="10.00">/quantity_point.h</text>
</a>
</g>
</g>
<!-- Node27&#45;&gt;Node29 -->
<g id="edge36_Node000027_Node000029" class="edge">
<title>Node27&#45;&gt;Node29</title>
<g id="a_edge36_Node000027_Node000029"><a xlink:title=" ">
<path fill="none" stroke="#63b8ff" d="M293.2,-204.87C277.04,-194.75 250.09,-177.88 228.56,-164.4"/>
<polygon fill="#63b8ff" stroke="#63b8ff" points="230.42,-161.44 220.09,-159.1 226.71,-167.37 230.42,-161.44"/>
</a>
</g>
</g>
<!-- Node30 -->
<g id="Node000030" class="node">
<title>Node30</title>
<g id="a_Node000030"><a xlink:title=" ">
<polygon fill="#e0e0e0" stroke="#999999" points="350.26,-152.25 264.51,-152.25 264.51,-133 350.26,-133 350.26,-152.25"/>
<text text-anchor="middle" x="307.38" y="-138.75" font-family="Helvetica,sans-Serif" font-size="10.00">mp&#45;units/math.h</text>
</a>
</g>
</g>
<!-- Node27&#45;&gt;Node30 -->
<g id="edge37_Node000027_Node000030" class="edge">
<title>Node27&#45;&gt;Node30</title>
<g id="a_edge37_Node000027_Node000030"><a xlink:title=" ">
<path fill="none" stroke="#63b8ff" d="M307.38,-204.87C307.38,-194.6 307.38,-177.36 307.38,-163.79"/>
<polygon fill="#63b8ff" stroke="#63b8ff" points="310.88,-164.17 307.38,-154.17 303.88,-164.17 310.88,-164.17"/>
</a>
</g>
</g>
<!-- Node31 -->
<g id="Node000031" class="node">
<title>Node31</title>
<g id="a_Node000031"><a xlink:title=" ">
<polygon fill="#e0e0e0" stroke="#999999" points="476.88,-157.88 367.88,-157.88 367.88,-127.38 476.88,-127.38 476.88,-157.88"/>
<text text-anchor="start" x="375.88" y="-144.38" font-family="Helvetica,sans-Serif" font-size="10.00">mp&#45;units/systems/isq</text>
<text text-anchor="middle" x="422.38" y="-133.12" font-family="Helvetica,sans-Serif" font-size="10.00">/thermodynamics.h</text>
</a>
</g>
</g>
<!-- Node27&#45;&gt;Node31 -->
<g id="edge38_Node000027_Node000031" class="edge">
<title>Node27&#45;&gt;Node31</title>
<g id="a_edge38_Node000027_Node000031"><a xlink:title=" ">
<path fill="none" stroke="#63b8ff" d="M321.95,-204.87C338.61,-194.71 366.46,-177.72 388.61,-164.22"/>
<polygon fill="#63b8ff" stroke="#63b8ff" points="390.32,-167.27 397.04,-159.08 386.68,-161.3 390.32,-167.27"/>
</a>
</g>
</g>
<!-- Node32 -->
<g id="Node000032" class="node">
<title>Node32</title>
<g id="a_Node000032"><a xlink:title=" ">
<polygon fill="#e0e0e0" stroke="#999999" points="606.01,-152.25 494.76,-152.25 494.76,-133 606.01,-133 606.01,-152.25"/>
<text text-anchor="middle" x="550.38" y="-138.75" font-family="Helvetica,sans-Serif" font-size="10.00">mp&#45;units/systems/si.h</text>
</a>
</g>
</g>
<!-- Node27&#45;&gt;Node32 -->
<g id="edge39_Node000027_Node000032" class="edge">
<title>Node27&#45;&gt;Node32</title>
<g id="a_edge39_Node000027_Node000032"><a xlink:title=" ">
<path fill="none" stroke="#63b8ff" d="M340.25,-204.7C376.02,-194.8 434.86,-178.35 485.38,-163.5 493.48,-161.12 502.12,-158.52 510.37,-156.01"/>
<polygon fill="#63b8ff" stroke="#63b8ff" points="511.31,-159.38 519.85,-153.11 509.27,-152.69 511.31,-159.38"/>
</a>
</g>
</g>
</g>
</svg>

<g id="navigator" transform="translate(0 0)" fill="#404254">
  <rect fill="#f2f5e9" fill-opacity="0.5" stroke="#606060" stroke-width=".5" x="0" y="0" width="60" height="60"/>
  <use id="zoomplus" xlink:href="#zoomPlus" x="17" y="9" onmousedown="handleZoom(evt,'in')"/>
  <use id="zoomminus" xlink:href="#zoomMin" x="42" y="9" onmousedown="handleZoom(evt,'out')"/>
  <use id="reset" xlink:href="#resetDef" x="30" y="36" onmousedown="handleReset()"/>
   <use id="arrowup" xlink:href="#arrowUp" x="0" y="0" onmousedown="handlePan(0,-1)"/>
  <use id="arrowright" xlink:href="#arrowRight" x="0" y="0" onmousedown="handlePan(1,0)"/>
  <use id="arrowdown" xlink:href="#arrowDown" x="0" y="0" onmousedown="handlePan(0,1)"/>
  <use id="arrowleft" xlink:href="#arrowLeft" x="0" y="0" onmousedown="handlePan(-1,0)"/>
</g>
<svg viewBox="0 0 15 15" width="100%" height="30px" preserveAspectRatio="xMaxYMin meet">
 <g id="arrow_out" transform="scale(0.3 0.3)">
  <a xlink:href="unit__std_2fcarouge_2linalg_8hpp__incl_org.svg" target="_base">
   <rect id="button" ry="5" rx="5" y="6" x="6" height="38" width="38"
        fill="#f2f5e9" fill-opacity="0.5" stroke="#606060" stroke-width="1.0"/>
   <path id="arrow"
     d="M 11.500037,31.436501 C 11.940474,20.09759 22.043105,11.32322 32.158766,21.979434 L 37.068811,17.246167 C 37.068811,17.246167 37.088388,32 37.088388,32 L 22.160133,31.978069 C 22.160133,31.978069 26.997745,27.140456 26.997745,27.140456 C 18.528582,18.264221 13.291696,25.230495 11.500037,31.436501 z"
     style="fill:#404040;"/>
  </a>
 </g>
</svg>

<style type='text/css'>
<![CDATA[
[data-mouse-over-selected='false'] { opacity: 0.7; }
[data-mouse-over-selected='true']  { opacity: 1.0; }
]]>
</style>
<script type="application/ecmascript"><![CDATA[
document.addEventListener('DOMContentLoaded', (event) => {
  highlightEdges();
  highlightAdjacentNodes();
});
]]></script>
</svg>
