<?xml version="1.0" encoding="UTF-8" standalone="no"?>
<!DOCTYPE svg PUBLIC "-//W3C//DTD SVG 1.1//EN"
 "http://www.w3.org/Graphics/SVG/1.1/DTD/svg11.dtd">
<!-- Generated by graphviz version 12.2.0 (20241103.1931)
 -->
<!-- Title: /github/workspace/support/unit_std/fcarouge/linalg.hpp Pages: 1 -->
<!--zoomable 293 -->

<svg id="main" version="1.1" xmlns="http://www.w3.org/2000/svg" xmlns:xlink="http://www.w3.org/1999/xlink" xml:space="preserve" onload="init(evt)">

<style type="text/css"><![CDATA[
.node, .edge {opacity: 0.7;}
.node.selected, .edge.selected {opacity: 1;}
.edge:hover path { stroke: red; }
.edge:hover polygon { stroke: red; fill: red; }
]]></style>

<defs>
  <circle id="rim" cx="0" cy="0" r="7"/>
  <circle id="rim2" cx="0" cy="0" r="3.5"/>
  <g id="zoomPlus">
    <use xlink:href="#rim" fill="#404040"><set attributeName="fill" to="#808080" begin="zoomplus.mouseover" end="zoomplus.mouseout"/></use>
    <path d="M-4,0h8M0,-4v8" fill="none" stroke="white" stroke-width="1.5" pointer-events="none"/>
  </g>
  <g id="zoomMin">
    <use xlink:href="#rim" fill="#404040"><set attributeName="fill" to="#808080" begin="zoomminus.mouseover" end="zoomminus.mouseout"/></use>
    <path d="M-4,0h8" fill="none" stroke="white" stroke-width="1.5" pointer-events="none"/>
  </g>
  <g id="arrowUp" transform="translate(30 24)">
    <use xlink:href="#rim"/>
    <path pointer-events="none" fill="none" stroke="white" stroke-width="1.5" d="M0,-3.0v7 M-2.5,-0.5L0,-3.0L2.5,-0.5"/>
  </g>
  <g id="arrowRight" transform="rotate(90) translate(36 -43)">
    <use xlink:href="#rim"/>
    <path pointer-events="none" fill="none" stroke="white" stroke-width="1.5" d="M0,-3.0v7 M-2.5,-0.5L0,-3.0L2.5,-0.5"/>
  </g>
  <g id="arrowDown" transform="rotate(180) translate(-30 -48)">
    <use xlink:href="#rim"/>
    <path pointer-events="none" fill="none" stroke="white" stroke-width="1.5" d="M0,-3.0v7 M-2.5,-0.5L0,-3.0L2.5,-0.5"/>
  </g>
  <g id="arrowLeft" transform="rotate(270) translate(-36 17)">
    <use xlink:href="#rim"/>
    <path pointer-events="none" fill="none" stroke="white" stroke-width="1.5" d="M0,-3.0v7 M-2.5,-0.5L0,-3.0L2.5,-0.5"/>
  </g>
  <g id="resetDef">
    <use xlink:href="#rim2" fill="#404040"><set attributeName="fill" to="#808080" begin="reset.mouseover" end="reset.mouseout"/></use>
  </g>
</defs>
<script type="application/ecmascript">
var viewWidth = 2841;
var viewHeight = 293;
var sectionId = 'dynsection-0';
</script>
<script type="application/ecmascript" xlink:href="svg.min.js"/>
<svg id="graph" class="graph">
<g id="viewport">
<title>/github/workspace/support/unit_std/fcarouge/linalg.hpp</title>
<!-- Node1 -->
<g id="Node000001" class="node">
<title>Node1</title>
<g id="a_Node000001"><a xlink:title="Indexed&#45;based linear algebra with mp&#45;units with Eigen implementations.">
<polygon fill="#999999" stroke="#666666" points="865,-285.25 727.5,-285.25 727.5,-254.75 865,-254.75 865,-285.25"/>
<text text-anchor="start" x="735.5" y="-271.75" font-family="Helvetica,sans-Serif" font-size="10.00">/github/workspace/support</text>
<text text-anchor="middle" x="796.25" y="-260.5" font-family="Helvetica,sans-Serif" font-size="10.00">/unit_std/fcarouge/linalg.hpp</text>
</a>
</g>
</g>
<!-- Node2 -->
<g id="Node000002" class="node">
<title>Node2</title>
<g id="a_Node000002"><a xlink:title=" ">
<polygon fill="#e0e0e0" stroke="#999999" points="673.75,-213.12 594.75,-213.12 594.75,-193.88 673.75,-193.88 673.75,-213.12"/>
<text text-anchor="middle" x="634.25" y="-199.62" font-family="Helvetica,sans-Serif" font-size="10.00">fcarouge/linalg</text>
</a>
</g>
</g>
<!-- Node1&#45;&gt;Node2 -->
<g id="edge1_Node000001_Node000002" class="edge">
<title>Node1&#45;&gt;Node2</title>
<g id="a_edge1_Node000001_Node000002"><a xlink:title=" ">
<path fill="none" stroke="#63b8ff" d="M759.49,-254.36C731.76,-243.32 694.04,-228.31 667.27,-217.65"/>
<polygon fill="#63b8ff" stroke="#63b8ff" points="668.87,-214.52 658.29,-214.07 666.28,-221.02 668.87,-214.52"/>
</a>
</g>
</g>
<!-- Node3 -->
<g id="Node000003" class="node">
<title>Node3</title>
<g id="a_Node000003"><a xlink:title=" ">
<polygon fill="#e0e0e0" stroke="#999999" points="782.75,-213.12 691.75,-213.12 691.75,-193.88 782.75,-193.88 782.75,-213.12"/>
<text text-anchor="middle" x="737.25" y="-199.62" font-family="Helvetica,sans-Serif" font-size="10.00">fcarouge/mdspan</text>
</a>
</g>
</g>
<!-- Node1&#45;&gt;Node3 -->
<g id="edge2_Node000001_Node000003" class="edge">
<title>Node1&#45;&gt;Node3</title>
<g id="a_edge2_Node000001_Node000003"><a xlink:title=" ">
<path fill="none" stroke="#63b8ff" d="M782.86,-254.36C774.01,-244.69 762.37,-231.96 753.06,-221.79"/>
<polygon fill="#63b8ff" stroke="#63b8ff" points="755.67,-219.46 746.34,-214.44 750.51,-224.18 755.67,-219.46"/>
</a>
</g>
</g>
<!-- Node4 -->
<g id="Node000004" class="node">
<title>Node4</title>
<g id="a_Node000004"><a xlink:href="typed__linear__algebra_8hpp.xhtml" target="_top" xlink:title="Typed linear algebra implementation.">
<polygon fill="white" stroke="#666666" points="909.38,-218.75 801.12,-218.75 801.12,-188.25 909.38,-188.25 909.38,-218.75"/>
<text text-anchor="start" x="809.12" y="-205.25" font-family="Helvetica,sans-Serif" font-size="10.00">fcarouge/typed_linear</text>
<text text-anchor="middle" x="855.25" y="-194" font-family="Helvetica,sans-Serif" font-size="10.00">_algebra.hpp</text>
</a>
</g>
</g>
<!-- Node1&#45;&gt;Node4 -->
<g id="edge3_Node000001_Node000004" class="edge">
<title>Node1&#45;&gt;Node4</title>
<g id="a_edge3_Node000001_Node000004"><a xlink:title=" ">
<path fill="none" stroke="#63b8ff" d="M809.64,-254.36C816.88,-246.45 825.99,-236.49 834.16,-227.55"/>
<polygon fill="#63b8ff" stroke="#63b8ff" points="836.73,-229.94 840.89,-220.19 831.56,-225.21 836.73,-229.94"/>
</a>
</g>
</g>
<!-- Node27 -->
<g id="Node000027" class="node">
<title>Node27</title>
<g id="a_Node000027"><a xlink:href="unit_8hpp.xhtml" target="_top" xlink:title="Quantities and units facade for mp&#45;units third party implementation.">
<polygon fill="white" stroke="#666666" points="2565.38,-213.12 2475.12,-213.12 2475.12,-193.88 2565.38,-193.88 2565.38,-213.12"/>
<text text-anchor="middle" x="2520.25" y="-199.62" font-family="Helvetica,sans-Serif" font-size="10.00">fcarouge/unit.hpp</text>
</a>
</g>
</g>
<!-- Node1&#45;&gt;Node27 -->
<g id="edge32_Node000001_Node000027" class="edge">
<title>Node1&#45;&gt;Node27</title>
<g id="a_edge32_Node000001_Node000027"><a xlink:title=" ">
<path fill="none" stroke="#63b8ff" d="M865.43,-266.41C1147.2,-255.87 2205.6,-216.27 2463.38,-206.63"/>
<polygon fill="#63b8ff" stroke="#63b8ff" points="2463.32,-210.13 2473.18,-206.26 2463.06,-203.14 2463.32,-210.13"/>
</a>
</g>
</g>
<!-- Node5 -->
<g id="Node000005" class="node">
<title>Node5</title>
<g id="a_Node000005"><a xlink:href="typed__linear__algebra__forward_8hpp.xhtml" target="_top" xlink:title="Authoritative forward declaration header.">
<polygon fill="white" stroke="#666666" points="352.5,-146.62 248,-146.62 248,-116.12 352.5,-116.12 352.5,-146.62"/>
<text text-anchor="start" x="256" y="-133.12" font-family="Helvetica,sans-Serif" font-size="10.00">typed_linear_algebra</text>
<text text-anchor="middle" x="300.25" y="-121.88" font-family="Helvetica,sans-Serif" font-size="10.00">_forward.hpp</text>
</a>
</g>
</g>
<!-- Node4&#45;&gt;Node5 -->
<g id="edge4_Node000004_Node000005" class="edge">
<title>Node4&#45;&gt;Node5</title>
<g id="a_edge4_Node000004_Node000005"><a xlink:title=" ">
<path fill="none" stroke="#63b8ff" d="M800.7,-189.68C797.85,-189.16 795.02,-188.68 792.25,-188.25 604.47,-159.22 552.9,-187.84 366.25,-152.25 362.72,-151.58 359.12,-150.79 355.5,-149.92"/>
<polygon fill="#63b8ff" stroke="#63b8ff" points="356.69,-146.62 346.14,-147.5 354.94,-153.39 356.69,-146.62"/>
</a>
</g>
</g>
<!-- Node6 -->
<g id="Node000006" class="node">
<title>Node6</title>
<g id="a_Node000006"><a xlink:href="format_8hpp.xhtml" target="_top" xlink:title="Formatting support for the typed matrix.">
<polygon fill="white" stroke="#666666" points="550.5,-146.62 446,-146.62 446,-116.12 550.5,-116.12 550.5,-146.62"/>
<text text-anchor="start" x="454" y="-133.12" font-family="Helvetica,sans-Serif" font-size="10.00">typed_linear_algebra</text>
<text text-anchor="middle" x="498.25" y="-121.88" font-family="Helvetica,sans-Serif" font-size="10.00">_internal/format.hpp</text>
</a>
</g>
</g>
<!-- Node4&#45;&gt;Node6 -->
<g id="edge5_Node000004_Node000006" class="edge">
<title>Node4&#45;&gt;Node6</title>
<g id="a_edge5_Node000004_Node000006"><a xlink:title=" ">
<path fill="none" stroke="#63b8ff" d="M800.66,-189.92C797.82,-189.34 795,-188.78 792.25,-188.25 691.5,-168.92 664.26,-175.09 564.25,-152.25 561.29,-151.57 558.27,-150.84 555.23,-150.06"/>
<polygon fill="#63b8ff" stroke="#63b8ff" points="556.22,-146.7 545.66,-147.47 554.4,-153.46 556.22,-146.7"/>
</a>
</g>
</g>
<!-- Node7 -->
<g id="Node000007" class="node">
<title>Node7</title>
<g id="a_Node000007"><a xlink:href="utility_8hpp.xhtml" target="_top" xlink:title=" ">
<polygon fill="white" stroke="#666666" points="585.5,-74.5 529,-74.5 529,-55.25 585.5,-55.25 585.5,-74.5"/>
<text text-anchor="middle" x="557.25" y="-61" font-family="Helvetica,sans-Serif" font-size="10.00">utility.hpp</text>
</a>
</g>
</g>
<!-- Node4&#45;&gt;Node7 -->
<g id="edge14_Node000004_Node000007" class="edge">
<title>Node4&#45;&gt;Node7</title>
<g id="a_edge14_Node000004_Node000007"><a xlink:title=" ">
<path fill="none" stroke="#63b8ff" d="M800.64,-190.02C797.8,-189.42 794.99,-188.82 792.25,-188.25 708.1,-170.77 671.25,-203.5 602.25,-152.25 580.33,-135.97 568.16,-105.86 562.16,-85.84"/>
<polygon fill="#63b8ff" stroke="#63b8ff" points="565.58,-85.1 559.59,-76.36 558.83,-86.93 565.58,-85.1"/>
</a>
</g>
</g>
<!-- Node8 -->
<g id="Node000008" class="node">
<title>Node8</title>
<g id="a_Node000008"><a xlink:title=" ">
<polygon fill="#e0e0e0" stroke="#999999" points="1274.12,-19.25 1218.38,-19.25 1218.38,0 1274.12,0 1274.12,-19.25"/>
<text text-anchor="middle" x="1246.25" y="-5.75" font-family="Helvetica,sans-Serif" font-size="10.00">concepts</text>
</a>
</g>
</g>
<!-- Node4&#45;&gt;Node8 -->
<g id="edge15_Node000004_Node000008" class="edge">
<title>Node4&#45;&gt;Node8</title>
<g id="a_edge15_Node000004_Node000008"><a xlink:title=" ">
<path fill="none" stroke="#63b8ff" d="M909.78,-202.93C1002.19,-202.43 1183.78,-195.76 1227.25,-152.25 1259.46,-120.01 1255.23,-61.12 1250.27,-30.42"/>
<polygon fill="#63b8ff" stroke="#63b8ff" points="1253.78,-30.18 1248.54,-20.97 1246.9,-31.44 1253.78,-30.18"/>
</a>
</g>
</g>
<!-- Node9 -->
<g id="Node000009" class="node">
<title>Node9</title>
<g id="a_Node000009"><a xlink:title=" ">
<polygon fill="#e0e0e0" stroke="#999999" points="430.38,-19.25 382.12,-19.25 382.12,0 430.38,0 430.38,-19.25"/>
<text text-anchor="middle" x="406.25" y="-5.75" font-family="Helvetica,sans-Serif" font-size="10.00">cstddef</text>
</a>
</g>
</g>
<!-- Node4&#45;&gt;Node9 -->
<g id="edge16_Node000004_Node000009" class="edge">
<title>Node4&#45;&gt;Node9</title>
<g id="a_edge16_Node000004_Node000009"><a xlink:title=" ">
<path fill="none" stroke="#63b8ff" d="M800.7,-189.72C797.85,-189.19 795.02,-188.7 792.25,-188.25 710.47,-175.09 483.19,-207.25 421.25,-152.25 387.29,-122.09 394.34,-62.3 401.04,-30.92"/>
<polygon fill="#63b8ff" stroke="#63b8ff" points="404.44,-31.73 403.33,-21.2 397.63,-30.13 404.44,-31.73"/>
</a>
</g>
</g>
<!-- Node11 -->
<g id="Node000011" class="node">
<title>Node11</title>
<g id="a_Node000011"><a xlink:title=" ">
<polygon fill="#e0e0e0" stroke="#999999" points="641.75,-19.25 604.75,-19.25 604.75,0 641.75,0 641.75,-19.25"/>
<text text-anchor="middle" x="623.25" y="-5.75" font-family="Helvetica,sans-Serif" font-size="10.00">tuple</text>
</a>
</g>
</g>
<!-- Node4&#45;&gt;Node11 -->
<g id="edge19_Node000004_Node000011" class="edge">
<title>Node4&#45;&gt;Node11</title>
<g id="a_edge19_Node000004_Node000011"><a xlink:title=" ">
<path fill="none" stroke="#63b8ff" d="M800.7,-190.14C735.66,-175.39 635.6,-152.65 635.25,-152.25 605.79,-118.35 612.16,-61.07 618.29,-30.79"/>
<polygon fill="#63b8ff" stroke="#63b8ff" points="621.7,-31.61 620.47,-21.09 614.87,-30.07 621.7,-31.61"/>
</a>
</g>
</g>
<!-- Node13 -->
<g id="Node000013" class="node">
<title>Node13</title>
<g id="a_Node000013"><a xlink:title=" ">
<polygon fill="#e0e0e0" stroke="#999999" points="457.12,-74.5 413.38,-74.5 413.38,-55.25 457.12,-55.25 457.12,-74.5"/>
<text text-anchor="middle" x="435.25" y="-61" font-family="Helvetica,sans-Serif" font-size="10.00">format</text>
</a>
</g>
</g>
<!-- Node4&#45;&gt;Node13 -->
<g id="edge17_Node000004_Node000013" class="edge">
<title>Node4&#45;&gt;Node13</title>
<g id="a_edge17_Node000004_Node000013"><a xlink:title=" ">
<path fill="none" stroke="#63b8ff" d="M800.69,-189.73C797.84,-189.2 795.02,-188.7 792.25,-188.25 713.99,-175.48 491.09,-210.46 437.25,-152.25 420.96,-134.64 424.24,-105.33 429,-85.81"/>
<polygon fill="#63b8ff" stroke="#63b8ff" points="432.33,-86.89 431.66,-76.32 425.59,-85 432.33,-86.89"/>
</a>
</g>
</g>
<!-- Node14 -->
<g id="Node000014" class="node">
<title>Node14</title>
<g id="a_Node000014"><a xlink:title=" ">
<polygon fill="#e0e0e0" stroke="#999999" points="716,-141 644.5,-141 644.5,-121.75 716,-121.75 716,-141"/>
<text text-anchor="middle" x="680.25" y="-127.5" font-family="Helvetica,sans-Serif" font-size="10.00">initializer_list</text>
</a>
</g>
</g>
<!-- Node4&#45;&gt;Node14 -->
<g id="edge18_Node000004_Node000014" class="edge">
<title>Node4&#45;&gt;Node14</title>
<g id="a_edge18_Node000004_Node000014"><a xlink:title=" ">
<path fill="none" stroke="#63b8ff" d="M815.81,-187.81C789.93,-178.03 755.43,-164.74 725.25,-152.25 720.51,-150.29 715.51,-148.15 710.64,-146.03"/>
<polygon fill="#63b8ff" stroke="#63b8ff" points="712.27,-142.92 701.71,-142.09 709.45,-149.33 712.27,-142.92"/>
</a>
</g>
</g>
<!-- Node15 -->
<g id="Node000015" class="node">
<title>Node15</title>
<g id="a_Node000015"><a xlink:title=" ">
<polygon fill="#e0e0e0" stroke="#999999" points="772.5,-141 734,-141 734,-121.75 772.5,-121.75 772.5,-141"/>
<text text-anchor="middle" x="753.25" y="-127.5" font-family="Helvetica,sans-Serif" font-size="10.00">utility</text>
</a>
</g>
</g>
<!-- Node4&#45;&gt;Node15 -->
<g id="edge20_Node000004_Node000015" class="edge">
<title>Node4&#45;&gt;Node15</title>
<g id="a_edge20_Node000004_Node000015"><a xlink:title=" ">
<path fill="none" stroke="#63b8ff" d="M833.47,-187.89C818.69,-177.92 798.73,-164.38 781.25,-152.25 779.18,-150.81 777.03,-149.31 774.89,-147.8"/>
<polygon fill="#63b8ff" stroke="#63b8ff" points="777.17,-145.13 766.99,-142.21 773.13,-150.84 777.17,-145.13"/>
</a>
</g>
</g>
<!-- Node16 -->
<g id="Node000016" class="node">
<title>Node16</title>
<g id="a_Node000016"><a xlink:title=" ">
<polygon fill="#e0e0e0" stroke="#999999" points="920.25,-146.62 790.25,-146.62 790.25,-116.12 920.25,-116.12 920.25,-146.62"/>
<text text-anchor="start" x="798.25" y="-133.12" font-family="Helvetica,sans-Serif" font-size="10.00">typed_linear_algebra</text>
<text text-anchor="middle" x="855.25" y="-121.88" font-family="Helvetica,sans-Serif" font-size="10.00">_internal/algorithm/add.tpp</text>
</a>
</g>
</g>
<!-- Node4&#45;&gt;Node16 -->
<g id="edge21_Node000004_Node000016" class="edge">
<title>Node4&#45;&gt;Node16</title>
<g id="a_edge21_Node000004_Node000016"><a xlink:title=" ">
<path fill="none" stroke="#63b8ff" d="M855.25,-187.97C855.25,-179.41 855.25,-168.34 855.25,-158.33"/>
<polygon fill="#63b8ff" stroke="#63b8ff" points="858.75,-158.4 855.25,-148.4 851.75,-158.4 858.75,-158.4"/>
</a>
</g>
</g>
<!-- Node17 -->
<g id="Node000017" class="node">
<title>Node17</title>
<g id="a_Node000017"><a xlink:title=" ">
<polygon fill="#e0e0e0" stroke="#999999" points="1078.12,-146.62 938.38,-146.62 938.38,-116.12 1078.12,-116.12 1078.12,-146.62"/>
<text text-anchor="start" x="946.38" y="-133.12" font-family="Helvetica,sans-Serif" font-size="10.00">typed_linear_algebra</text>
<text text-anchor="middle" x="1008.25" y="-121.88" font-family="Helvetica,sans-Serif" font-size="10.00">_internal/algorithm/divide.tpp</text>
</a>
</g>
</g>
<!-- Node4&#45;&gt;Node17 -->
<g id="edge22_Node000004_Node000017" class="edge">
<title>Node4&#45;&gt;Node17</title>
<g id="a_edge22_Node000004_Node000017"><a xlink:title=" ">
<path fill="none" stroke="#63b8ff" d="M887.32,-187.8C910.17,-177.33 941.11,-163.15 965.98,-151.75"/>
<polygon fill="#63b8ff" stroke="#63b8ff" points="967.21,-155.04 974.84,-147.69 964.29,-148.67 967.21,-155.04"/>
</a>
</g>
</g>
<!-- Node18 -->
<g id="Node000018" class="node">
<title>Node18</title>
<g id="a_Node000018"><a xlink:title=" ">
<polygon fill="#e0e0e0" stroke="#999999" points="1218.12,-152.25 1096.38,-152.25 1096.38,-110.5 1218.12,-110.5 1218.12,-152.25"/>
<text text-anchor="start" x="1104.38" y="-138.75" font-family="Helvetica,sans-Serif" font-size="10.00">typed_linear_algebra</text>
<text text-anchor="start" x="1104.38" y="-127.5" font-family="Helvetica,sans-Serif" font-size="10.00">_internal/algorithm/equal</text>
<text text-anchor="middle" x="1157.25" y="-116.25" font-family="Helvetica,sans-Serif" font-size="10.00">_to.tpp</text>
</a>
</g>
</g>
<!-- Node4&#45;&gt;Node18 -->
<g id="edge23_Node000004_Node000018" class="edge">
<title>Node4&#45;&gt;Node18</title>
<g id="a_edge23_Node000004_Node000018"><a xlink:title=" ">
<path fill="none" stroke="#63b8ff" d="M909.85,-191.69C954.52,-182.62 1019.57,-168.89 1085.26,-152.68"/>
<polygon fill="#63b8ff" stroke="#63b8ff" points="1085.9,-156.12 1094.76,-150.31 1084.21,-149.33 1085.9,-156.12"/>
</a>
</g>
</g>
<!-- Node19 -->
<g id="Node000019" class="node">
<title>Node19</title>
<g id="a_Node000019"><a xlink:title=" ">
<polygon fill="#e0e0e0" stroke="#999999" points="1398.62,-152.25 1273.88,-152.25 1273.88,-110.5 1398.62,-110.5 1398.62,-152.25"/>
<text text-anchor="start" x="1281.88" y="-138.75" font-family="Helvetica,sans-Serif" font-size="10.00">typed_linear_algebra</text>
<text text-anchor="start" x="1281.88" y="-127.5" font-family="Helvetica,sans-Serif" font-size="10.00">_internal/algorithm/matrix</text>
<text text-anchor="middle" x="1336.25" y="-116.25" font-family="Helvetica,sans-Serif" font-size="10.00">_product.tpp</text>
</a>
</g>
</g>
<!-- Node4&#45;&gt;Node19 -->
<g id="edge24_Node000004_Node000019" class="edge">
<title>Node4&#45;&gt;Node19</title>
<g id="a_edge24_Node000004_Node000019"><a xlink:title=" ">
<path fill="none" stroke="#63b8ff" d="M909.65,-198.06C987.73,-191.16 1135.87,-176.12 1260.25,-152.25 1261.08,-152.09 1261.91,-151.93 1262.75,-151.76"/>
<polygon fill="#63b8ff" stroke="#63b8ff" points="1263.24,-155.23 1272.29,-149.73 1261.78,-148.39 1263.24,-155.23"/>
</a>
</g>
</g>
<!-- Node20 -->
<g id="Node000020" class="node">
<title>Node20</title>
<g id="a_Node000020"><a xlink:title=" ">
<polygon fill="#e0e0e0" stroke="#999999" points="1563.5,-146.62 1417,-146.62 1417,-116.12 1563.5,-116.12 1563.5,-146.62"/>
<text text-anchor="start" x="1425" y="-133.12" font-family="Helvetica,sans-Serif" font-size="10.00">typed_linear_algebra</text>
<text text-anchor="middle" x="1490.25" y="-121.88" font-family="Helvetica,sans-Serif" font-size="10.00">_internal/algorithm/product.tpp</text>
</a>
</g>
</g>
<!-- Node4&#45;&gt;Node20 -->
<g id="edge25_Node000004_Node000020" class="edge">
<title>Node4&#45;&gt;Node20</title>
<g id="a_edge25_Node000004_Node000020"><a xlink:title=" ">
<path fill="none" stroke="#63b8ff" d="M909.64,-200.15C1009.02,-195.29 1226.36,-181.98 1407.25,-152.25 1412.24,-151.43 1417.37,-150.48 1422.52,-149.44"/>
<polygon fill="#63b8ff" stroke="#63b8ff" points="1423.23,-152.86 1432.29,-147.36 1421.78,-146.02 1423.23,-152.86"/>
</a>
</g>
</g>
<!-- Node21 -->
<g id="Node000021" class="node">
<title>Node21</title>
<g id="a_Node000021"><a xlink:title=" ">
<polygon fill="#e0e0e0" stroke="#999999" points="1719,-146.62 1581.5,-146.62 1581.5,-116.12 1719,-116.12 1719,-146.62"/>
<text text-anchor="start" x="1589.5" y="-133.12" font-family="Helvetica,sans-Serif" font-size="10.00">typed_linear_algebra</text>
<text text-anchor="middle" x="1650.25" y="-121.88" font-family="Helvetica,sans-Serif" font-size="10.00">_internal/algorithm/scale.tpp</text>
</a>
</g>
</g>
<!-- Node4&#45;&gt;Node21 -->
<g id="edge26_Node000004_Node000021" class="edge">
<title>Node4&#45;&gt;Node21</title>
<g id="a_edge26_Node000004_Node000021"><a xlink:title=" ">
<path fill="none" stroke="#63b8ff" d="M909.6,-202.01C1029.82,-200.2 1327.09,-191.75 1572.25,-152.25 1577.12,-151.47 1582.12,-150.52 1587.13,-149.47"/>
<polygon fill="#63b8ff" stroke="#63b8ff" points="1587.59,-152.96 1596.6,-147.37 1586.08,-146.12 1587.59,-152.96"/>
</a>
</g>
</g>
<!-- Node22 -->
<g id="Node000022" class="node">
<title>Node22</title>
<g id="a_Node000022"><a xlink:title=" ">
<polygon fill="#e0e0e0" stroke="#999999" points="1891.62,-146.62 1736.88,-146.62 1736.88,-116.12 1891.62,-116.12 1891.62,-146.62"/>
<text text-anchor="start" x="1744.88" y="-133.12" font-family="Helvetica,sans-Serif" font-size="10.00">typed_linear_algebra</text>
<text text-anchor="middle" x="1814.25" y="-121.88" font-family="Helvetica,sans-Serif" font-size="10.00">_internal/algorithm/substract.tpp</text>
</a>
</g>
</g>
<!-- Node4&#45;&gt;Node22 -->
<g id="edge27_Node000004_Node000022" class="edge">
<title>Node4&#45;&gt;Node22</title>
<g id="a_edge27_Node000004_Node000022"><a xlink:title=" ">
<path fill="none" stroke="#63b8ff" d="M909.71,-202.56C1047.52,-202.03 1420.93,-196.28 1728.25,-152.25 1733.89,-151.44 1739.7,-150.45 1745.52,-149.34"/>
<polygon fill="#63b8ff" stroke="#63b8ff" points="1746.08,-152.8 1755.19,-147.39 1744.7,-145.94 1746.08,-152.8"/>
</a>
</g>
</g>
<!-- Node23 -->
<g id="Node000023" class="node">
<title>Node23</title>
<g id="a_Node000023"><a xlink:title=" ">
<polygon fill="#e0e0e0" stroke="#999999" points="2072.38,-146.62 1910.12,-146.62 1910.12,-116.12 2072.38,-116.12 2072.38,-146.62"/>
<text text-anchor="start" x="1918.12" y="-133.12" font-family="Helvetica,sans-Serif" font-size="10.00">typed_linear_algebra</text>
<text text-anchor="middle" x="1991.25" y="-121.88" font-family="Helvetica,sans-Serif" font-size="10.00">_internal/algorithm/transposed.tpp</text>
</a>
</g>
</g>
<!-- Node4&#45;&gt;Node23 -->
<g id="edge28_Node000004_Node000023" class="edge">
<title>Node4&#45;&gt;Node23</title>
<g id="a_edge28_Node000004_Node000023"><a xlink:title=" ">
<path fill="none" stroke="#63b8ff" d="M909.65,-203.07C1065,-204.03 1523.69,-202.07 1900.25,-152.25 1906.62,-151.41 1913.2,-150.35 1919.78,-149.16"/>
<polygon fill="#63b8ff" stroke="#63b8ff" points="1920.15,-152.65 1929.31,-147.34 1918.84,-145.78 1920.15,-152.65"/>
</a>
</g>
</g>
<!-- Node24 -->
<g id="Node000024" class="node">
<title>Node24</title>
<g id="a_Node000024"><a xlink:title=" ">
<polygon fill="#e0e0e0" stroke="#999999" points="2194.5,-146.62 2090,-146.62 2090,-116.12 2194.5,-116.12 2194.5,-146.62"/>
<text text-anchor="start" x="2098" y="-133.12" font-family="Helvetica,sans-Serif" font-size="10.00">typed_linear_algebra</text>
<text text-anchor="middle" x="2142.25" y="-121.88" font-family="Helvetica,sans-Serif" font-size="10.00">_internal/cast.tpp</text>
</a>
</g>
</g>
<!-- Node4&#45;&gt;Node24 -->
<g id="edge29_Node000004_Node000024" class="edge">
<title>Node4&#45;&gt;Node24</title>
<g id="a_edge29_Node000004_Node000024"><a xlink:title=" ">
<path fill="none" stroke="#63b8ff" d="M909.58,-202.25C1115.99,-200.98 1851.41,-193.59 2081.25,-152.25 2084.6,-151.65 2088.01,-150.91 2091.43,-150.07"/>
<polygon fill="#63b8ff" stroke="#63b8ff" points="2092.1,-153.51 2100.83,-147.51 2090.26,-146.76 2092.1,-153.51"/>
</a>
</g>
</g>
<!-- Node25 -->
<g id="Node000025" class="node">
<title>Node25</title>
<g id="a_Node000025"><a xlink:title=" ">
<polygon fill="#e0e0e0" stroke="#999999" points="104.5,-146.62 0,-146.62 0,-116.12 104.5,-116.12 104.5,-146.62"/>
<text text-anchor="start" x="8" y="-133.12" font-family="Helvetica,sans-Serif" font-size="10.00">typed_linear_algebra</text>
<text text-anchor="middle" x="52.25" y="-121.88" font-family="Helvetica,sans-Serif" font-size="10.00">_internal/tuple.tpp</text>
</a>
</g>
</g>
<!-- Node4&#45;&gt;Node25 -->
<g id="edge30_Node000004_Node000025" class="edge">
<title>Node4&#45;&gt;Node25</title>
<g id="a_edge30_Node000004_Node000025"><a xlink:title=" ">
<path fill="none" stroke="#63b8ff" d="M800.72,-189.57C797.86,-189.08 795.03,-188.63 792.25,-188.25 492.91,-146.77 410.35,-207.53 113.25,-152.25 109.91,-151.63 106.5,-150.87 103.08,-150.02"/>
<polygon fill="#63b8ff" stroke="#63b8ff" points="104.25,-146.72 93.68,-147.44 102.4,-153.47 104.25,-146.72"/>
</a>
</g>
</g>
<!-- Node26 -->
<g id="Node000026" class="node">
<title>Node26</title>
<g id="a_Node000026"><a xlink:title=" ">
<polygon fill="#e0e0e0" stroke="#999999" points="230,-152.25 122.5,-152.25 122.5,-110.5 230,-110.5 230,-152.25"/>
<text text-anchor="start" x="130.5" y="-138.75" font-family="Helvetica,sans-Serif" font-size="10.00">typed_linear_algebra</text>
<text text-anchor="start" x="130.5" y="-127.5" font-family="Helvetica,sans-Serif" font-size="10.00">_internal/typed_linear</text>
<text text-anchor="middle" x="176.25" y="-116.25" font-family="Helvetica,sans-Serif" font-size="10.00">_algebra.tpp</text>
</a>
</g>
</g>
<!-- Node4&#45;&gt;Node26 -->
<g id="edge31_Node000004_Node000026" class="edge">
<title>Node4&#45;&gt;Node26</title>
<g id="a_edge31_Node000004_Node000026"><a xlink:title=" ">
<path fill="none" stroke="#63b8ff" d="M800.71,-189.61C797.86,-189.11 795.02,-188.65 792.25,-188.25 552.18,-153.51 483.41,-196.29 241.61,-152.43"/>
<polygon fill="#63b8ff" stroke="#63b8ff" points="242.29,-149 231.82,-150.62 241.02,-155.88 242.29,-149"/>
</a>
</g>
</g>
<!-- Node6&#45;&gt;Node7 -->
<g id="edge6_Node000006_Node000007" class="edge">
<title>Node6&#45;&gt;Node7</title>
<g id="a_edge6_Node000006_Node000007"><a xlink:title=" ">
<path fill="none" stroke="#63b8ff" d="M511.64,-115.74C520.49,-106.06 532.13,-93.34 541.44,-83.16"/>
<polygon fill="#63b8ff" stroke="#63b8ff" points="543.99,-85.56 548.16,-75.81 538.83,-80.83 543.99,-85.56"/>
</a>
</g>
</g>
<!-- Node6&#45;&gt;Node9 -->
<g id="edge12_Node000006_Node000009" class="edge">
<title>Node6&#45;&gt;Node9</title>
<g id="a_edge12_Node000006_Node000009"><a xlink:title=" ">
<path fill="none" stroke="#63b8ff" d="M494.56,-115.9C489.94,-99.84 480.81,-73.74 466.25,-55.25 457.06,-43.57 444.09,-33.42 432.56,-25.76"/>
<polygon fill="#63b8ff" stroke="#63b8ff" points="434.54,-22.87 424.21,-20.5 430.81,-28.79 434.54,-22.87"/>
</a>
</g>
</g>
<!-- Node6&#45;&gt;Node13 -->
<g id="edge13_Node000006_Node000013" class="edge">
<title>Node6&#45;&gt;Node13</title>
<g id="a_edge13_Node000006_Node000013"><a xlink:title=" ">
<path fill="none" stroke="#63b8ff" d="M483.95,-115.74C474.41,-105.96 461.82,-93.08 451.83,-82.85"/>
<polygon fill="#63b8ff" stroke="#63b8ff" points="454.42,-80.49 444.93,-75.78 449.41,-85.38 454.42,-80.49"/>
</a>
</g>
</g>
<!-- Node7&#45;&gt;Node8 -->
<g id="edge7_Node000007_Node000008" class="edge">
<title>Node7&#45;&gt;Node8</title>
<g id="a_edge7_Node000007_Node000008"><a xlink:title=" ">
<path fill="none" stroke="#63b8ff" d="M585.98,-61.65C694.78,-53.25 1081.72,-23.34 1206.88,-13.67"/>
<polygon fill="#63b8ff" stroke="#63b8ff" points="1206.95,-17.17 1216.65,-12.91 1206.41,-10.19 1206.95,-17.17"/>
</a>
</g>
</g>
<!-- Node7&#45;&gt;Node9 -->
<g id="edge8_Node000007_Node000009" class="edge">
<title>Node7&#45;&gt;Node9</title>
<g id="a_edge8_Node000007_Node000009"><a xlink:title=" ">
<path fill="none" stroke="#63b8ff" d="M531.63,-54.84C506.86,-46.11 469.12,-32.79 441.51,-23.06"/>
<polygon fill="#63b8ff" stroke="#63b8ff" points="442.76,-19.79 432.17,-19.76 440.43,-26.39 442.76,-19.79"/>
</a>
</g>
</g>
<!-- Node10 -->
<g id="Node000010" class="node">
<title>Node10</title>
<g id="a_Node000010"><a xlink:title=" ">
<polygon fill="#e0e0e0" stroke="#999999" points="586.25,-19.25 528.25,-19.25 528.25,0 586.25,0 586.25,-19.25"/>
<text text-anchor="middle" x="557.25" y="-5.75" font-family="Helvetica,sans-Serif" font-size="10.00">functional</text>
</a>
</g>
</g>
<!-- Node7&#45;&gt;Node10 -->
<g id="edge9_Node000007_Node000010" class="edge">
<title>Node7&#45;&gt;Node10</title>
<g id="a_edge9_Node000007_Node000010"><a xlink:title=" ">
<path fill="none" stroke="#63b8ff" d="M557.25,-55.08C557.25,-48.57 557.25,-39.42 557.25,-31.12"/>
<polygon fill="#63b8ff" stroke="#63b8ff" points="560.75,-31.12 557.25,-21.12 553.75,-31.12 560.75,-31.12"/>
</a>
</g>
</g>
<!-- Node7&#45;&gt;Node11 -->
<g id="edge10_Node000007_Node000011" class="edge">
<title>Node7&#45;&gt;Node11</title>
<g id="a_edge10_Node000007_Node000011"><a xlink:title=" ">
<path fill="none" stroke="#63b8ff" d="M568.45,-54.84C577.99,-47.15 591.92,-35.9 603.36,-26.68"/>
<polygon fill="#63b8ff" stroke="#63b8ff" points="605.46,-29.48 611.04,-20.48 601.06,-24.03 605.46,-29.48"/>
</a>
</g>
</g>
<!-- Node12 -->
<g id="Node000012" class="node">
<title>Node12</title>
<g id="a_Node000012"><a xlink:title=" ">
<polygon fill="#e0e0e0" stroke="#999999" points="509.75,-19.25 448.75,-19.25 448.75,0 509.75,0 509.75,-19.25"/>
<text text-anchor="middle" x="479.25" y="-5.75" font-family="Helvetica,sans-Serif" font-size="10.00">type_traits</text>
</a>
</g>
</g>
<!-- Node7&#45;&gt;Node12 -->
<g id="edge11_Node000007_Node000012" class="edge">
<title>Node7&#45;&gt;Node12</title>
<g id="a_edge11_Node000007_Node000012"><a xlink:title=" ">
<path fill="none" stroke="#63b8ff" d="M544.02,-54.84C532.48,-46.96 515.48,-35.36 501.8,-26.02"/>
<polygon fill="#63b8ff" stroke="#63b8ff" points="504.03,-23.3 493.8,-20.56 500.08,-29.08 504.03,-23.3"/>
</a>
</g>
</g>
<!-- Node27&#45;&gt;Node8 -->
<g id="edge33_Node000027_Node000008" class="edge">
<title>Node27&#45;&gt;Node8</title>
<g id="a_edge33_Node000027_Node000008"><a xlink:title=" ">
<path fill="none" stroke="#63b8ff" d="M2565.74,-196.12C2613.54,-188.37 2684.02,-173.64 2700.25,-152.25 2711.47,-137.47 2712.91,-124.06 2700.25,-110.5 2650.55,-57.27 1513.99,-19 1285.9,-11.84"/>
<polygon fill="#63b8ff" stroke="#63b8ff" points="1286.16,-8.34 1276.05,-11.53 1285.94,-15.34 1286.16,-8.34"/>
</a>
</g>
</g>
<!-- Node28 -->
<g id="Node000028" class="node">
<title>Node28</title>
<g id="a_Node000028"><a xlink:title=" ">
<polygon fill="#e0e0e0" stroke="#999999" points="2571.38,-146.62 2469.12,-146.62 2469.12,-116.12 2571.38,-116.12 2571.38,-146.62"/>
<text text-anchor="start" x="2477.12" y="-133.12" font-family="Helvetica,sans-Serif" font-size="10.00">mp&#45;units/framework</text>
<text text-anchor="middle" x="2520.25" y="-121.88" font-family="Helvetica,sans-Serif" font-size="10.00">/quantity.h</text>
</a>
</g>
</g>
<!-- Node27&#45;&gt;Node28 -->
<g id="edge34_Node000027_Node000028" class="edge">
<title>Node27&#45;&gt;Node28</title>
<g id="a_edge34_Node000027_Node000028"><a xlink:title=" ">
<path fill="none" stroke="#63b8ff" d="M2520.25,-193.62C2520.25,-184.74 2520.25,-170.65 2520.25,-158.22"/>
<polygon fill="#63b8ff" stroke="#63b8ff" points="2523.75,-158.56 2520.25,-148.56 2516.75,-158.56 2523.75,-158.56"/>
</a>
</g>
</g>
<!-- Node29 -->
<g id="Node000029" class="node">
<title>Node29</title>
<g id="a_Node000029"><a xlink:title=" ">
<polygon fill="#e0e0e0" stroke="#999999" points="2691.38,-146.62 2589.12,-146.62 2589.12,-116.12 2691.38,-116.12 2691.38,-146.62"/>
<text text-anchor="start" x="2597.12" y="-133.12" font-family="Helvetica,sans-Serif" font-size="10.00">mp&#45;units/framework</text>
<text text-anchor="middle" x="2640.25" y="-121.88" font-family="Helvetica,sans-Serif" font-size="10.00">/quantity_point.h</text>
</a>
</g>
</g>
<!-- Node27&#45;&gt;Node29 -->
<g id="edge35_Node000027_Node000029" class="edge">
<title>Node27&#45;&gt;Node29</title>
<g id="a_edge35_Node000027_Node000029"><a xlink:title=" ">
<path fill="none" stroke="#63b8ff" d="M2535.45,-193.62C2552.92,-183.41 2582.16,-166.32 2605.33,-152.78"/>
<polygon fill="#63b8ff" stroke="#63b8ff" points="2606.98,-155.87 2613.84,-147.81 2603.44,-149.83 2606.98,-155.87"/>
</a>
</g>
</g>
<!-- Node30 -->
<g id="Node000030" class="node">
<title>Node30</title>
<g id="a_Node000030"><a xlink:title=" ">
<polygon fill="#e0e0e0" stroke="#999999" points="2833.12,-141 2747.38,-141 2747.38,-121.75 2833.12,-121.75 2833.12,-141"/>
<text text-anchor="middle" x="2790.25" y="-127.5" font-family="Helvetica,sans-Serif" font-size="10.00">mp&#45;units/math.h</text>
</a>
</g>
</g>
<!-- Node27&#45;&gt;Node30 -->
<g id="edge36_Node000027_Node000030" class="edge">
<title>Node27&#45;&gt;Node30</title>
<g id="a_edge36_Node000027_Node000030"><a xlink:title=" ">
<path fill="none" stroke="#63b8ff" d="M2564.66,-193.43C2607.99,-184.25 2675.62,-169.05 2733.25,-152.25 2740.47,-150.15 2748.11,-147.66 2755.38,-145.18"/>
<polygon fill="#63b8ff" stroke="#63b8ff" points="2756.31,-148.56 2764.59,-141.95 2754,-141.95 2756.31,-148.56"/>
</a>
</g>
</g>
<!-- Node31 -->
<g id="Node000031" class="node">
<title>Node31</title>
<g id="a_Node000031"><a xlink:title=" ">
<polygon fill="#e0e0e0" stroke="#999999" points="2321.75,-146.62 2212.75,-146.62 2212.75,-116.12 2321.75,-116.12 2321.75,-146.62"/>
<text text-anchor="start" x="2220.75" y="-133.12" font-family="Helvetica,sans-Serif" font-size="10.00">mp&#45;units/systems/isq</text>
<text text-anchor="middle" x="2267.25" y="-121.88" font-family="Helvetica,sans-Serif" font-size="10.00">/thermodynamics.h</text>
</a>
</g>
</g>
<!-- Node27&#45;&gt;Node31 -->
<g id="edge37_Node000027_Node000031" class="edge">
<title>Node27&#45;&gt;Node31</title>
<g id="a_edge37_Node000027_Node000031"><a xlink:title=" ">
<path fill="none" stroke="#63b8ff" d="M2484.04,-193.46C2445.71,-183.77 2383.5,-167.68 2330.25,-152.25 2328.14,-151.64 2326,-151.01 2323.84,-150.37"/>
<polygon fill="#63b8ff" stroke="#63b8ff" points="2324.97,-147.05 2314.39,-147.5 2322.94,-153.75 2324.97,-147.05"/>
</a>
</g>
</g>
<!-- Node32 -->
<g id="Node000032" class="node">
<title>Node32</title>
<g id="a_Node000032"><a xlink:title=" ">
<polygon fill="#e0e0e0" stroke="#999999" points="2450.88,-141 2339.62,-141 2339.62,-121.75 2450.88,-121.75 2450.88,-141"/>
<text text-anchor="middle" x="2395.25" y="-127.5" font-family="Helvetica,sans-Serif" font-size="10.00">mp&#45;units/systems/si.h</text>
</a>
</g>
</g>
<!-- Node27&#45;&gt;Node32 -->
<g id="edge38_Node000027_Node000032" class="edge">
<title>Node27&#45;&gt;Node32</title>
<g id="a_edge38_Node000027_Node000032"><a xlink:title=" ">
<path fill="none" stroke="#63b8ff" d="M2504.16,-193.48C2483.16,-181.69 2446.14,-160.93 2421.16,-146.91"/>
<polygon fill="#63b8ff" stroke="#63b8ff" points="2423.03,-143.95 2412.59,-142.1 2419.6,-150.05 2423.03,-143.95"/>
</a>
</g>
</g>
</g>
</svg>

<g id="navigator" transform="translate(0 0)" fill="#404254">
  <rect fill="#f2f5e9" fill-opacity="0.5" stroke="#606060" stroke-width=".5" x="0" y="0" width="60" height="60"/>
  <use id="zoomplus" xlink:href="#zoomPlus" x="17" y="9" onmousedown="handleZoom(evt,'in')"/>
  <use id="zoomminus" xlink:href="#zoomMin" x="42" y="9" onmousedown="handleZoom(evt,'out')"/>
  <use id="reset" xlink:href="#resetDef" x="30" y="36" onmousedown="handleReset()"/>
   <use id="arrowup" xlink:href="#arrowUp" x="0" y="0" onmousedown="handlePan(0,-1)"/>
  <use id="arrowright" xlink:href="#arrowRight" x="0" y="0" onmousedown="handlePan(1,0)"/>
  <use id="arrowdown" xlink:href="#arrowDown" x="0" y="0" onmousedown="handlePan(0,1)"/>
  <use id="arrowleft" xlink:href="#arrowLeft" x="0" y="0" onmousedown="handlePan(-1,0)"/>
</g>
<svg viewBox="0 0 15 15" width="100%" height="30px" preserveAspectRatio="xMaxYMin meet">
 <g id="arrow_out" transform="scale(0.3 0.3)">
  <a xlink:href="unit__std_2fcarouge_2linalg_8hpp__incl_org.svg" target="_base">
   <rect id="button" ry="5" rx="5" y="6" x="6" height="38" width="38"
        fill="#f2f5e9" fill-opacity="0.5" stroke="#606060" stroke-width="1.0"/>
   <path id="arrow"
     d="M 11.500037,31.436501 C 11.940474,20.09759 22.043105,11.32322 32.158766,21.979434 L 37.068811,17.246167 C 37.068811,17.246167 37.088388,32 37.088388,32 L 22.160133,31.978069 C 22.160133,31.978069 26.997745,27.140456 26.997745,27.140456 C 18.528582,18.264221 13.291696,25.230495 11.500037,31.436501 z"
     style="fill:#404040;"/>
  </a>
 </g>
</svg>

<style type='text/css'>
<![CDATA[
[data-mouse-over-selected='false'] { opacity: 0.7; }
[data-mouse-over-selected='true']  { opacity: 1.0; }
]]>
</style>
<script type="application/ecmascript"><![CDATA[
document.addEventListener('DOMContentLoaded', (event) => {
  highlightEdges();
  highlightAdjacentNodes();
});
]]></script>
</svg>
