<?xml version="1.0" encoding="UTF-8" standalone="no"?>
<!DOCTYPE svg PUBLIC "-//W3C//DTD SVG 1.1//EN"
 "http://www.w3.org/Graphics/SVG/1.1/DTD/svg11.dtd">
<!-- Generated by graphviz version 12.2.0 (20241103.1931)
 -->
<!-- Title: /github/workspace/support/unit_eigen/fcarouge/linalg.hpp Pages: 1 -->
<!--zoomable 360 -->

<svg id="main" version="1.1" xmlns="http://www.w3.org/2000/svg" xmlns:xlink="http://www.w3.org/1999/xlink" xml:space="preserve" onload="init(evt)">

<style type="text/css"><![CDATA[
.node, .edge {opacity: 0.7;}
.node.selected, .edge.selected {opacity: 1;}
.edge:hover path { stroke: red; }
.edge:hover polygon { stroke: red; fill: red; }
]]></style>

<defs>
  <circle id="rim" cx="0" cy="0" r="7"/>
  <circle id="rim2" cx="0" cy="0" r="3.5"/>
  <g id="zoomPlus">
    <use xlink:href="#rim" fill="#404040"><set attributeName="fill" to="#808080" begin="zoomplus.mouseover" end="zoomplus.mouseout"/></use>
    <path d="M-4,0h8M0,-4v8" fill="none" stroke="white" stroke-width="1.5" pointer-events="none"/>
  </g>
  <g id="zoomMin">
    <use xlink:href="#rim" fill="#404040"><set attributeName="fill" to="#808080" begin="zoomminus.mouseover" end="zoomminus.mouseout"/></use>
    <path d="M-4,0h8" fill="none" stroke="white" stroke-width="1.5" pointer-events="none"/>
  </g>
  <g id="arrowUp" transform="translate(30 24)">
    <use xlink:href="#rim"/>
    <path pointer-events="none" fill="none" stroke="white" stroke-width="1.5" d="M0,-3.0v7 M-2.5,-0.5L0,-3.0L2.5,-0.5"/>
  </g>
  <g id="arrowRight" transform="rotate(90) translate(36 -43)">
    <use xlink:href="#rim"/>
    <path pointer-events="none" fill="none" stroke="white" stroke-width="1.5" d="M0,-3.0v7 M-2.5,-0.5L0,-3.0L2.5,-0.5"/>
  </g>
  <g id="arrowDown" transform="rotate(180) translate(-30 -48)">
    <use xlink:href="#rim"/>
    <path pointer-events="none" fill="none" stroke="white" stroke-width="1.5" d="M0,-3.0v7 M-2.5,-0.5L0,-3.0L2.5,-0.5"/>
  </g>
  <g id="arrowLeft" transform="rotate(270) translate(-36 17)">
    <use xlink:href="#rim"/>
    <path pointer-events="none" fill="none" stroke="white" stroke-width="1.5" d="M0,-3.0v7 M-2.5,-0.5L0,-3.0L2.5,-0.5"/>
  </g>
  <g id="resetDef">
    <use xlink:href="#rim2" fill="#404040"><set attributeName="fill" to="#808080" begin="reset.mouseover" end="reset.mouseout"/></use>
  </g>
</defs>
<script type="application/ecmascript">
var viewWidth = 3102;
var viewHeight = 360;
var sectionId = 'dynsection-0';
</script>
<script type="application/ecmascript" xlink:href="svg.min.js"/>
<svg id="graph" class="graph">
<g id="viewport">
<title>/github/workspace/support/unit_eigen/fcarouge/linalg.hpp</title>
<!-- Node1 -->
<g id="Node000001" class="node">
<title>Node1</title>
<g id="a_Node000001"><a xlink:title="Indexed&#45;based linear algebra with mp&#45;units with Eigen implementations.">
<polygon fill="#999999" stroke="#666666" points="1958.25,-351.75 1811,-351.75 1811,-321.25 1958.25,-321.25 1958.25,-351.75"/>
<text text-anchor="start" x="1819" y="-338.25" font-family="Helvetica,sans-Serif" font-size="10.00">/github/workspace/support</text>
<text text-anchor="middle" x="1884.62" y="-327" font-family="Helvetica,sans-Serif" font-size="10.00">/unit_eigen/fcarouge/linalg.hpp</text>
</a>
</g>
</g>
<!-- Node2 -->
<g id="Node000002" class="node">
<title>Node2</title>
<g id="a_Node000002"><a xlink:href="eigen_8hpp.xhtml" target="_top" xlink:title="Linear algebra facade for Eigen3 third party implementation.">
<polygon fill="white" stroke="#666666" points="2826.5,-285.25 2728.75,-285.25 2728.75,-266 2826.5,-266 2826.5,-285.25"/>
<text text-anchor="middle" x="2777.62" y="-271.75" font-family="Helvetica,sans-Serif" font-size="10.00">fcarouge/eigen.hpp</text>
</a>
</g>
</g>
<!-- Node1&#45;&gt;Node2 -->
<g id="edge1_Node000001_Node000002" class="edge">
<title>Node1&#45;&gt;Node2</title>
<g id="a_edge1_Node000001_Node000002"><a xlink:title=" ">
<path fill="none" stroke="#63b8ff" d="M1958.46,-330.63C2131.01,-319.26 2558.03,-291.1 2716.85,-280.63"/>
<polygon fill="#63b8ff" stroke="#63b8ff" points="2717,-284.13 2726.75,-279.98 2716.54,-277.14 2717,-284.13"/>
</a>
</g>
</g>
<!-- Node3 -->
<g id="Node000003" class="node">
<title>Node3</title>
<g id="a_Node000003"><a xlink:href="typed__linear__algebra_8hpp.xhtml" target="_top" xlink:title="Typed linear algebra implementation.">
<polygon fill="white" stroke="#666666" points="1938.75,-230 1830.5,-230 1830.5,-199.5 1938.75,-199.5 1938.75,-230"/>
<text text-anchor="start" x="1838.5" y="-216.5" font-family="Helvetica,sans-Serif" font-size="10.00">fcarouge/typed_linear</text>
<text text-anchor="middle" x="1884.62" y="-205.25" font-family="Helvetica,sans-Serif" font-size="10.00">_algebra.hpp</text>
</a>
</g>
</g>
<!-- Node1&#45;&gt;Node3 -->
<g id="edge39_Node000001_Node000003" class="edge">
<title>Node1&#45;&gt;Node3</title>
<g id="a_edge39_Node000001_Node000003"><a xlink:title=" ">
<path fill="none" stroke="#63b8ff" d="M1884.62,-320.82C1884.62,-301.14 1884.62,-265.89 1884.62,-241.69"/>
<polygon fill="#63b8ff" stroke="#63b8ff" points="1888.13,-241.69 1884.63,-231.69 1881.13,-241.69 1888.13,-241.69"/>
</a>
</g>
</g>
<!-- Node28 -->
<g id="Node000028" class="node">
<title>Node28</title>
<g id="a_Node000028"><a xlink:href="unit_8hpp.xhtml" target="_top" xlink:title="Quantities and units facade for mp&#45;units third party implementation.">
<polygon fill="white" stroke="#666666" points="383.75,-285.25 293.5,-285.25 293.5,-266 383.75,-266 383.75,-285.25"/>
<text text-anchor="middle" x="338.62" y="-271.75" font-family="Helvetica,sans-Serif" font-size="10.00">fcarouge/unit.hpp</text>
</a>
</g>
</g>
<!-- Node1&#45;&gt;Node28 -->
<g id="edge40_Node000001_Node000028" class="edge">
<title>Node1&#45;&gt;Node28</title>
<g id="a_edge40_Node000001_Node000028"><a xlink:title=" ">
<path fill="none" stroke="#63b8ff" d="M1810.58,-332.68C1543.46,-322.51 632.68,-287.82 395.48,-278.79"/>
<polygon fill="#63b8ff" stroke="#63b8ff" points="395.69,-275.3 385.56,-278.41 395.42,-282.29 395.69,-275.3"/>
</a>
</g>
</g>
<!-- Node2&#45;&gt;Node3 -->
<g id="edge2_Node000002_Node000003" class="edge">
<title>Node2&#45;&gt;Node3</title>
<g id="a_edge2_Node000002_Node000003"><a xlink:title=" ">
<path fill="none" stroke="#63b8ff" d="M2728.34,-271.38C2577.42,-261.43 2121.48,-231.37 1950.41,-220.09"/>
<polygon fill="#63b8ff" stroke="#63b8ff" points="1950.8,-216.61 1940.59,-219.44 1950.34,-223.59 1950.8,-216.61"/>
</a>
</g>
</g>
<!-- Node7 -->
<g id="Node000007" class="node">
<title>Node7</title>
<g id="a_Node000007"><a xlink:title=" ">
<polygon fill="#e0e0e0" stroke="#999999" points="695.5,-24.88 639.75,-24.88 639.75,-5.63 695.5,-5.63 695.5,-24.88"/>
<text text-anchor="middle" x="667.62" y="-11.38" font-family="Helvetica,sans-Serif" font-size="10.00">concepts</text>
</a>
</g>
</g>
<!-- Node2&#45;&gt;Node7 -->
<g id="edge32_Node000002_Node000007" class="edge">
<title>Node2&#45;&gt;Node7</title>
<g id="a_edge32_Node000002_Node000007"><a xlink:title=" ">
<path fill="none" stroke="#63b8ff" d="M2728.67,-273.65C2421.66,-267.35 771.9,-230.42 690.62,-163.5 653.42,-132.86 658.18,-68.85 663.53,-36.25"/>
<polygon fill="#63b8ff" stroke="#63b8ff" points="666.95,-37.04 665.33,-26.57 660.06,-35.77 666.95,-37.04"/>
</a>
</g>
</g>
<!-- Node8 -->
<g id="Node000008" class="node">
<title>Node8</title>
<g id="a_Node000008"><a xlink:title=" ">
<polygon fill="#e0e0e0" stroke="#999999" points="2641.75,-24.88 2593.5,-24.88 2593.5,-5.63 2641.75,-5.63 2641.75,-24.88"/>
<text text-anchor="middle" x="2617.62" y="-11.38" font-family="Helvetica,sans-Serif" font-size="10.00">cstddef</text>
</a>
</g>
</g>
<!-- Node2&#45;&gt;Node8 -->
<g id="edge33_Node000002_Node000008" class="edge">
<title>Node2&#45;&gt;Node8</title>
<g id="a_edge33_Node000002_Node000008"><a xlink:title=" ">
<path fill="none" stroke="#63b8ff" d="M2775.69,-265.76C2770.09,-241.33 2752.18,-171.51 2720.62,-121.75 2697.71,-85.62 2660.82,-51.7 2637.96,-32.5"/>
<polygon fill="#63b8ff" stroke="#63b8ff" points="2640.22,-29.83 2630.28,-26.18 2635.77,-35.23 2640.22,-29.83"/>
</a>
</g>
</g>
<!-- Node10 -->
<g id="Node000010" class="node">
<title>Node10</title>
<g id="a_Node000010"><a xlink:title=" ">
<polygon fill="#e0e0e0" stroke="#999999" points="2895.12,-24.88 2858.12,-24.88 2858.12,-5.63 2895.12,-5.63 2895.12,-24.88"/>
<text text-anchor="middle" x="2876.62" y="-11.38" font-family="Helvetica,sans-Serif" font-size="10.00">tuple</text>
</a>
</g>
</g>
<!-- Node2&#45;&gt;Node10 -->
<g id="edge36_Node000002_Node000010" class="edge">
<title>Node2&#45;&gt;Node10</title>
<g id="a_edge36_Node000002_Node000010"><a xlink:title=" ">
<path fill="none" stroke="#63b8ff" d="M2783.21,-265.61C2799.31,-239.14 2846.05,-158.91 2867.62,-85.75 2872.42,-69.49 2874.66,-50.34 2875.71,-36.26"/>
<polygon fill="#63b8ff" stroke="#63b8ff" points="2879.19,-36.69 2876.28,-26.5 2872.2,-36.28 2879.19,-36.69"/>
</a>
</g>
</g>
<!-- Node11 -->
<g id="Node000011" class="node">
<title>Node11</title>
<g id="a_Node000011"><a xlink:title=" ">
<polygon fill="#e0e0e0" stroke="#999999" points="2974.12,-24.88 2913.12,-24.88 2913.12,-5.63 2974.12,-5.63 2974.12,-24.88"/>
<text text-anchor="middle" x="2943.62" y="-11.38" font-family="Helvetica,sans-Serif" font-size="10.00">type_traits</text>
</a>
</g>
</g>
<!-- Node2&#45;&gt;Node11 -->
<g id="edge37_Node000002_Node000011" class="edge">
<title>Node2&#45;&gt;Node11</title>
<g id="a_edge37_Node000002_Node000011"><a xlink:title=" ">
<path fill="none" stroke="#63b8ff" d="M2789.28,-265.59C2799.66,-257.15 2814.84,-243.81 2825.62,-230 2876.7,-164.61 2918.66,-74.24 2935.58,-35.33"/>
<polygon fill="#63b8ff" stroke="#63b8ff" points="2938.69,-36.95 2939.41,-26.38 2932.26,-34.19 2938.69,-36.95"/>
</a>
</g>
</g>
<!-- Node12 -->
<g id="Node000012" class="node">
<title>Node12</title>
<g id="a_Node000012"><a xlink:title=" ">
<polygon fill="#e0e0e0" stroke="#999999" points="2601.5,-85.75 2557.75,-85.75 2557.75,-66.5 2601.5,-66.5 2601.5,-85.75"/>
<text text-anchor="middle" x="2579.62" y="-72.25" font-family="Helvetica,sans-Serif" font-size="10.00">format</text>
</a>
</g>
</g>
<!-- Node2&#45;&gt;Node12 -->
<g id="edge34_Node000002_Node000012" class="edge">
<title>Node2&#45;&gt;Node12</title>
<g id="a_edge34_Node000002_Node000012"><a xlink:title=" ">
<path fill="none" stroke="#63b8ff" d="M2750.38,-265.52C2710.52,-250.72 2636.87,-217.54 2598.62,-163.5 2584.79,-143.95 2580.76,-116.15 2579.72,-97.42"/>
<polygon fill="#63b8ff" stroke="#63b8ff" points="2583.23,-97.52 2579.44,-87.62 2576.23,-97.72 2583.23,-97.52"/>
</a>
</g>
</g>
<!-- Node26 -->
<g id="Node000026" class="node">
<title>Node26</title>
<g id="a_Node000026"><a xlink:title=" ">
<polygon fill="#e0e0e0" stroke="#999999" points="3009.25,-224.38 2958,-224.38 2958,-205.12 3009.25,-205.12 3009.25,-224.38"/>
<text text-anchor="middle" x="2983.62" y="-210.88" font-family="Helvetica,sans-Serif" font-size="10.00">sstream</text>
</a>
</g>
</g>
<!-- Node2&#45;&gt;Node26 -->
<g id="edge35_Node000002_Node000026" class="edge">
<title>Node2&#45;&gt;Node26</title>
<g id="a_edge35_Node000002_Node000026"><a xlink:title=" ">
<path fill="none" stroke="#63b8ff" d="M2814.79,-265.54C2848.59,-257.06 2899.75,-243.69 2943.62,-230 2945.21,-229.51 2946.82,-228.99 2948.45,-228.46"/>
<polygon fill="#63b8ff" stroke="#63b8ff" points="2949.42,-231.82 2957.76,-225.29 2947.16,-225.2 2949.42,-231.82"/>
</a>
</g>
</g>
<!-- Node27 -->
<g id="Node000027" class="node">
<title>Node27</title>
<g id="a_Node000027"><a xlink:title=" ">
<polygon fill="#e0e0e0" stroke="#999999" points="3094.12,-224.38 3027.12,-224.38 3027.12,-205.12 3094.12,-205.12 3094.12,-224.38"/>
<text text-anchor="middle" x="3060.62" y="-210.88" font-family="Helvetica,sans-Serif" font-size="10.00">Eigen/Eigen</text>
</a>
</g>
</g>
<!-- Node2&#45;&gt;Node27 -->
<g id="edge38_Node000002_Node000027" class="edge">
<title>Node2&#45;&gt;Node27</title>
<g id="a_edge38_Node000002_Node000027"><a xlink:title=" ">
<path fill="none" stroke="#63b8ff" d="M2826.55,-267.68C2875.56,-260.23 2952.95,-247.13 3018.62,-230 3020.75,-229.45 3022.92,-228.84 3025.1,-228.2"/>
<polygon fill="#63b8ff" stroke="#63b8ff" points="3026,-231.58 3034.49,-225.24 3023.9,-224.91 3026,-231.58"/>
</a>
</g>
</g>
<!-- Node4 -->
<g id="Node000004" class="node">
<title>Node4</title>
<g id="a_Node000004"><a xlink:href="typed__linear__algebra__forward_8hpp.xhtml" target="_top" xlink:title="Authoritative forward declaration header.">
<polygon fill="white" stroke="#666666" points="2839.88,-30.5 2735.38,-30.5 2735.38,0 2839.88,0 2839.88,-30.5"/>
<text text-anchor="start" x="2743.38" y="-17" font-family="Helvetica,sans-Serif" font-size="10.00">typed_linear_algebra</text>
<text text-anchor="middle" x="2787.62" y="-5.75" font-family="Helvetica,sans-Serif" font-size="10.00">_forward.hpp</text>
</a>
</g>
</g>
<!-- Node3&#45;&gt;Node4 -->
<g id="edge3_Node000003_Node000004" class="edge">
<title>Node3&#45;&gt;Node4</title>
<g id="a_edge3_Node000003_Node000004"><a xlink:title=" ">
<path fill="none" stroke="#63b8ff" d="M1938.99,-213.48C2117.65,-212.19 2679.31,-204.85 2748.62,-163.5 2783.5,-142.69 2785.54,-124.82 2796.62,-85.75 2800.68,-71.45 2798.82,-54.96 2795.76,-41.64"/>
<polygon fill="#63b8ff" stroke="#63b8ff" points="2799.24,-41.1 2793.27,-32.34 2792.47,-42.9 2799.24,-41.1"/>
</a>
</g>
</g>
<!-- Node5 -->
<g id="Node000005" class="node">
<title>Node5</title>
<g id="a_Node000005"><a xlink:href="format_8hpp.xhtml" target="_top" xlink:title="Formatting support for the typed matrix.">
<polygon fill="white" stroke="#666666" points="2711.88,-157.88 2607.38,-157.88 2607.38,-127.38 2711.88,-127.38 2711.88,-157.88"/>
<text text-anchor="start" x="2615.38" y="-144.38" font-family="Helvetica,sans-Serif" font-size="10.00">typed_linear_algebra</text>
<text text-anchor="middle" x="2659.62" y="-133.12" font-family="Helvetica,sans-Serif" font-size="10.00">_internal/format.hpp</text>
</a>
</g>
</g>
<!-- Node3&#45;&gt;Node5 -->
<g id="edge4_Node000003_Node000005" class="edge">
<title>Node3&#45;&gt;Node5</title>
<g id="a_edge4_Node000003_Node000005"><a xlink:title=" ">
<path fill="none" stroke="#63b8ff" d="M1939.2,-211.77C2053.81,-207.16 2327.78,-193.7 2555.62,-163.5 2568.72,-161.76 2582.66,-159.44 2595.94,-156.99"/>
<polygon fill="#63b8ff" stroke="#63b8ff" points="2596.25,-160.49 2605.42,-155.19 2594.94,-153.61 2596.25,-160.49"/>
</a>
</g>
</g>
<!-- Node6 -->
<g id="Node000006" class="node">
<title>Node6</title>
<g id="a_Node000006"><a xlink:href="utility_8hpp.xhtml" target="_top" xlink:title=" ">
<polygon fill="white" stroke="#666666" points="2787.88,-85.75 2731.38,-85.75 2731.38,-66.5 2787.88,-66.5 2787.88,-85.75"/>
<text text-anchor="middle" x="2759.62" y="-72.25" font-family="Helvetica,sans-Serif" font-size="10.00">utility.hpp</text>
</a>
</g>
</g>
<!-- Node3&#45;&gt;Node6 -->
<g id="edge14_Node000003_Node000006" class="edge">
<title>Node3&#45;&gt;Node6</title>
<g id="a_edge14_Node000003_Node000006"><a xlink:title=" ">
<path fill="none" stroke="#63b8ff" d="M1938.96,-213.7C2114.15,-213.11 2656.5,-207.69 2720.62,-163.5 2742.62,-148.35 2752.4,-117.69 2756.61,-97.27"/>
<polygon fill="#63b8ff" stroke="#63b8ff" points="2760.03,-98.07 2758.32,-87.61 2753.13,-96.85 2760.03,-98.07"/>
</a>
</g>
</g>
<!-- Node3&#45;&gt;Node7 -->
<g id="edge15_Node000003_Node000007" class="edge">
<title>Node3&#45;&gt;Node7</title>
<g id="a_edge15_Node000003_Node000007"><a xlink:title=" ">
<path fill="none" stroke="#63b8ff" d="M1830.21,-212.99C1607.53,-209.69 775.27,-195.26 729.62,-163.5 687.21,-133.99 673.7,-69.46 669.48,-36.5"/>
<polygon fill="#63b8ff" stroke="#63b8ff" points="672.97,-36.27 668.41,-26.71 666.02,-37.03 672.97,-36.27"/>
</a>
</g>
</g>
<!-- Node3&#45;&gt;Node8 -->
<g id="edge16_Node000003_Node000008" class="edge">
<title>Node3&#45;&gt;Node8</title>
<g id="a_edge16_Node000003_Node000008"><a xlink:title=" ">
<path fill="none" stroke="#63b8ff" d="M1830.11,-213.42C1608.04,-211.81 781.58,-203.16 743.62,-163.5 730.8,-150.09 730.88,-135.23 743.62,-121.75 809.25,-52.33 2327.53,-21.56 2581.69,-16.89"/>
<polygon fill="#63b8ff" stroke="#63b8ff" points="2581.7,-20.39 2591.64,-16.71 2581.57,-13.39 2581.7,-20.39"/>
</a>
</g>
</g>
<!-- Node3&#45;&gt;Node10 -->
<g id="edge19_Node000003_Node000010" class="edge">
<title>Node3&#45;&gt;Node10</title>
<g id="a_edge19_Node000003_Node000010"><a xlink:title=" ">
<path fill="none" stroke="#63b8ff" d="M1939.03,-213.53C2122.03,-212.42 2707.93,-205.56 2780.62,-163.5 2830.26,-134.78 2858.76,-68.88 2870.4,-35.86"/>
<polygon fill="#63b8ff" stroke="#63b8ff" points="2873.59,-37.34 2873.45,-26.75 2866.96,-35.12 2873.59,-37.34"/>
</a>
</g>
</g>
<!-- Node3&#45;&gt;Node12 -->
<g id="edge17_Node000003_Node000012" class="edge">
<title>Node3&#45;&gt;Node12</title>
<g id="a_edge17_Node000003_Node000012"><a xlink:title=" ">
<path fill="none" stroke="#63b8ff" d="M1939.04,-212.18C2084.19,-207.63 2472.95,-192.81 2522.62,-163.5 2547.98,-148.54 2564.23,-117.35 2572.64,-96.83"/>
<polygon fill="#63b8ff" stroke="#63b8ff" points="2575.87,-98.19 2576.16,-87.6 2569.33,-95.7 2575.87,-98.19"/>
</a>
</g>
</g>
<!-- Node13 -->
<g id="Node000013" class="node">
<title>Node13</title>
<g id="a_Node000013"><a xlink:title=" ">
<polygon fill="#e0e0e0" stroke="#999999" points="824.38,-152.25 752.88,-152.25 752.88,-133 824.38,-133 824.38,-152.25"/>
<text text-anchor="middle" x="788.62" y="-138.75" font-family="Helvetica,sans-Serif" font-size="10.00">initializer_list</text>
</a>
</g>
</g>
<!-- Node3&#45;&gt;Node13 -->
<g id="edge18_Node000003_Node000013" class="edge">
<title>Node3&#45;&gt;Node13</title>
<g id="a_edge18_Node000003_Node000013"><a xlink:title=" ">
<path fill="none" stroke="#63b8ff" d="M1830.05,-213.77C1642.56,-213.44 1025.75,-208.86 833.62,-163.5 827.49,-162.05 821.16,-159.79 815.25,-157.3"/>
<polygon fill="#63b8ff" stroke="#63b8ff" points="817.13,-154.31 806.58,-153.34 814.22,-160.68 817.13,-154.31"/>
</a>
</g>
</g>
<!-- Node14 -->
<g id="Node000014" class="node">
<title>Node14</title>
<g id="a_Node000014"><a xlink:title=" ">
<polygon fill="#e0e0e0" stroke="#999999" points="880.88,-152.25 842.38,-152.25 842.38,-133 880.88,-133 880.88,-152.25"/>
<text text-anchor="middle" x="861.62" y="-138.75" font-family="Helvetica,sans-Serif" font-size="10.00">utility</text>
</a>
</g>
</g>
<!-- Node3&#45;&gt;Node14 -->
<g id="edge20_Node000003_Node000014" class="edge">
<title>Node3&#45;&gt;Node14</title>
<g id="a_edge20_Node000003_Node000014"><a xlink:title=" ">
<path fill="none" stroke="#63b8ff" d="M1830.25,-212.78C1635.33,-209.06 978.53,-194.34 889.62,-163.5 886.61,-162.46 883.64,-160.98 880.82,-159.3"/>
<polygon fill="#63b8ff" stroke="#63b8ff" points="882.9,-156.48 872.71,-153.59 878.87,-162.21 882.9,-156.48"/>
</a>
</g>
</g>
<!-- Node15 -->
<g id="Node000015" class="node">
<title>Node15</title>
<g id="a_Node000015"><a xlink:title=" ">
<polygon fill="#e0e0e0" stroke="#999999" points="1028.62,-157.88 898.62,-157.88 898.62,-127.38 1028.62,-127.38 1028.62,-157.88"/>
<text text-anchor="start" x="906.62" y="-144.38" font-family="Helvetica,sans-Serif" font-size="10.00">typed_linear_algebra</text>
<text text-anchor="middle" x="963.62" y="-133.12" font-family="Helvetica,sans-Serif" font-size="10.00">_internal/algorithm/add.tpp</text>
</a>
</g>
</g>
<!-- Node3&#45;&gt;Node15 -->
<g id="edge21_Node000003_Node000015" class="edge">
<title>Node3&#45;&gt;Node15</title>
<g id="a_edge21_Node000003_Node000015"><a xlink:title=" ">
<path fill="none" stroke="#63b8ff" d="M1830.2,-214.33C1695.1,-214.95 1333.89,-211.56 1037.62,-163.5 1033.05,-162.76 1028.34,-161.85 1023.63,-160.83"/>
<polygon fill="#63b8ff" stroke="#63b8ff" points="1024.69,-157.48 1014.15,-158.63 1023.11,-164.3 1024.69,-157.48"/>
</a>
</g>
</g>
<!-- Node16 -->
<g id="Node000016" class="node">
<title>Node16</title>
<g id="a_Node000016"><a xlink:title=" ">
<polygon fill="#e0e0e0" stroke="#999999" points="1186.5,-157.88 1046.75,-157.88 1046.75,-127.38 1186.5,-127.38 1186.5,-157.88"/>
<text text-anchor="start" x="1054.75" y="-144.38" font-family="Helvetica,sans-Serif" font-size="10.00">typed_linear_algebra</text>
<text text-anchor="middle" x="1116.62" y="-133.12" font-family="Helvetica,sans-Serif" font-size="10.00">_internal/algorithm/divide.tpp</text>
</a>
</g>
</g>
<!-- Node3&#45;&gt;Node16 -->
<g id="edge22_Node000003_Node000016" class="edge">
<title>Node3&#45;&gt;Node16</title>
<g id="a_edge22_Node000003_Node000016"><a xlink:title=" ">
<path fill="none" stroke="#63b8ff" d="M1830.21,-212.98C1713.31,-210.64 1429.78,-201.2 1195.62,-163.5 1190.78,-162.72 1185.8,-161.79 1180.81,-160.76"/>
<polygon fill="#63b8ff" stroke="#63b8ff" points="1181.9,-157.41 1171.39,-158.69 1180.4,-164.25 1181.9,-157.41"/>
</a>
</g>
</g>
<!-- Node17 -->
<g id="Node000017" class="node">
<title>Node17</title>
<g id="a_Node000017"><a xlink:title=" ">
<polygon fill="#e0e0e0" stroke="#999999" points="1326.5,-163.5 1204.75,-163.5 1204.75,-121.75 1326.5,-121.75 1326.5,-163.5"/>
<text text-anchor="start" x="1212.75" y="-150" font-family="Helvetica,sans-Serif" font-size="10.00">typed_linear_algebra</text>
<text text-anchor="start" x="1212.75" y="-138.75" font-family="Helvetica,sans-Serif" font-size="10.00">_internal/algorithm/equal</text>
<text text-anchor="middle" x="1265.62" y="-127.5" font-family="Helvetica,sans-Serif" font-size="10.00">_to.tpp</text>
</a>
</g>
</g>
<!-- Node3&#45;&gt;Node17 -->
<g id="edge23_Node000003_Node000017" class="edge">
<title>Node3&#45;&gt;Node17</title>
<g id="a_edge23_Node000003_Node000017"><a xlink:title=" ">
<path fill="none" stroke="#63b8ff" d="M1830.01,-212.1C1732.78,-208.44 1523.25,-197.27 1338.24,-163.81"/>
<polygon fill="#63b8ff" stroke="#63b8ff" points="1338.89,-160.37 1328.42,-162 1337.62,-167.25 1338.89,-160.37"/>
</a>
</g>
</g>
<!-- Node18 -->
<g id="Node000018" class="node">
<title>Node18</title>
<g id="a_Node000018"><a xlink:title=" ">
<polygon fill="#e0e0e0" stroke="#999999" points="1469,-163.5 1344.25,-163.5 1344.25,-121.75 1469,-121.75 1469,-163.5"/>
<text text-anchor="start" x="1352.25" y="-150" font-family="Helvetica,sans-Serif" font-size="10.00">typed_linear_algebra</text>
<text text-anchor="start" x="1352.25" y="-138.75" font-family="Helvetica,sans-Serif" font-size="10.00">_internal/algorithm/matrix</text>
<text text-anchor="middle" x="1406.62" y="-127.5" font-family="Helvetica,sans-Serif" font-size="10.00">_product.tpp</text>
</a>
</g>
</g>
<!-- Node3&#45;&gt;Node18 -->
<g id="edge24_Node000003_Node000018" class="edge">
<title>Node3&#45;&gt;Node18</title>
<g id="a_edge24_Node000003_Node000018"><a xlink:title=" ">
<path fill="none" stroke="#63b8ff" d="M1830.04,-209.55C1753.86,-203.12 1611.22,-189.05 1480.33,-163.68"/>
<polygon fill="#63b8ff" stroke="#63b8ff" points="1481.3,-160.3 1470.81,-161.81 1479.95,-167.17 1481.3,-160.3"/>
</a>
</g>
</g>
<!-- Node19 -->
<g id="Node000019" class="node">
<title>Node19</title>
<g id="a_Node000019"><a xlink:title=" ">
<polygon fill="#e0e0e0" stroke="#999999" points="1633.88,-157.88 1487.38,-157.88 1487.38,-127.38 1633.88,-127.38 1633.88,-157.88"/>
<text text-anchor="start" x="1495.38" y="-144.38" font-family="Helvetica,sans-Serif" font-size="10.00">typed_linear_algebra</text>
<text text-anchor="middle" x="1560.62" y="-133.12" font-family="Helvetica,sans-Serif" font-size="10.00">_internal/algorithm/product.tpp</text>
</a>
</g>
</g>
<!-- Node3&#45;&gt;Node19 -->
<g id="edge25_Node000003_Node000019" class="edge">
<title>Node3&#45;&gt;Node19</title>
<g id="a_edge25_Node000003_Node000019"><a xlink:title=" ">
<path fill="none" stroke="#63b8ff" d="M1830.21,-202.99C1781.09,-193.14 1706.89,-177.96 1642.62,-163.5 1638.87,-162.65 1635.02,-161.77 1631.13,-160.87"/>
<polygon fill="#63b8ff" stroke="#63b8ff" points="1632.15,-157.52 1621.61,-158.64 1630.55,-164.33 1632.15,-157.52"/>
</a>
</g>
</g>
<!-- Node20 -->
<g id="Node000020" class="node">
<title>Node20</title>
<g id="a_Node000020"><a xlink:title=" ">
<polygon fill="#e0e0e0" stroke="#999999" points="1789.38,-157.88 1651.88,-157.88 1651.88,-127.38 1789.38,-127.38 1789.38,-157.88"/>
<text text-anchor="start" x="1659.88" y="-144.38" font-family="Helvetica,sans-Serif" font-size="10.00">typed_linear_algebra</text>
<text text-anchor="middle" x="1720.62" y="-133.12" font-family="Helvetica,sans-Serif" font-size="10.00">_internal/algorithm/scale.tpp</text>
</a>
</g>
</g>
<!-- Node3&#45;&gt;Node20 -->
<g id="edge26_Node000003_Node000020" class="edge">
<title>Node3&#45;&gt;Node20</title>
<g id="a_edge26_Node000003_Node000020"><a xlink:title=" ">
<path fill="none" stroke="#63b8ff" d="M1850.25,-199.05C1825.54,-188.48 1792,-174.14 1765.23,-162.7"/>
<polygon fill="#63b8ff" stroke="#63b8ff" points="1766.92,-159.61 1756.35,-158.9 1764.17,-166.05 1766.92,-159.61"/>
</a>
</g>
</g>
<!-- Node21 -->
<g id="Node000021" class="node">
<title>Node21</title>
<g id="a_Node000021"><a xlink:title=" ">
<polygon fill="#e0e0e0" stroke="#999999" points="1962,-157.88 1807.25,-157.88 1807.25,-127.38 1962,-127.38 1962,-157.88"/>
<text text-anchor="start" x="1815.25" y="-144.38" font-family="Helvetica,sans-Serif" font-size="10.00">typed_linear_algebra</text>
<text text-anchor="middle" x="1884.62" y="-133.12" font-family="Helvetica,sans-Serif" font-size="10.00">_internal/algorithm/substract.tpp</text>
</a>
</g>
</g>
<!-- Node3&#45;&gt;Node21 -->
<g id="edge27_Node000003_Node000021" class="edge">
<title>Node3&#45;&gt;Node21</title>
<g id="a_edge27_Node000003_Node000021"><a xlink:title=" ">
<path fill="none" stroke="#63b8ff" d="M1884.62,-199.22C1884.62,-190.66 1884.62,-179.59 1884.62,-169.58"/>
<polygon fill="#63b8ff" stroke="#63b8ff" points="1888.13,-169.65 1884.63,-159.65 1881.13,-169.65 1888.13,-169.65"/>
</a>
</g>
</g>
<!-- Node22 -->
<g id="Node000022" class="node">
<title>Node22</title>
<g id="a_Node000022"><a xlink:title=" ">
<polygon fill="#e0e0e0" stroke="#999999" points="2142.75,-157.88 1980.5,-157.88 1980.5,-127.38 2142.75,-127.38 2142.75,-157.88"/>
<text text-anchor="start" x="1988.5" y="-144.38" font-family="Helvetica,sans-Serif" font-size="10.00">typed_linear_algebra</text>
<text text-anchor="middle" x="2061.62" y="-133.12" font-family="Helvetica,sans-Serif" font-size="10.00">_internal/algorithm/transposed.tpp</text>
</a>
</g>
</g>
<!-- Node3&#45;&gt;Node22 -->
<g id="edge28_Node000003_Node000022" class="edge">
<title>Node3&#45;&gt;Node22</title>
<g id="a_edge28_Node000003_Node000022"><a xlink:title=" ">
<path fill="none" stroke="#63b8ff" d="M1921.73,-199.05C1948.52,-188.44 1984.92,-174.02 2013.87,-162.54"/>
<polygon fill="#63b8ff" stroke="#63b8ff" points="2015.15,-165.8 2023.16,-158.86 2012.58,-159.29 2015.15,-165.8"/>
</a>
</g>
</g>
<!-- Node23 -->
<g id="Node000023" class="node">
<title>Node23</title>
<g id="a_Node000023"><a xlink:title=" ">
<polygon fill="#e0e0e0" stroke="#999999" points="2264.88,-157.88 2160.38,-157.88 2160.38,-127.38 2264.88,-127.38 2264.88,-157.88"/>
<text text-anchor="start" x="2168.38" y="-144.38" font-family="Helvetica,sans-Serif" font-size="10.00">typed_linear_algebra</text>
<text text-anchor="middle" x="2212.62" y="-133.12" font-family="Helvetica,sans-Serif" font-size="10.00">_internal/cast.tpp</text>
</a>
</g>
</g>
<!-- Node3&#45;&gt;Node23 -->
<g id="edge29_Node000003_Node000023" class="edge">
<title>Node3&#45;&gt;Node23</title>
<g id="a_edge29_Node000003_Node000023"><a xlink:title=" ">
<path fill="none" stroke="#63b8ff" d="M1939.03,-205.62C1993.3,-197.02 2078.85,-182.12 2151.62,-163.5 2154.04,-162.88 2156.49,-162.22 2158.96,-161.53"/>
<polygon fill="#63b8ff" stroke="#63b8ff" points="2159.78,-164.94 2168.39,-158.76 2157.8,-158.22 2159.78,-164.94"/>
</a>
</g>
</g>
<!-- Node24 -->
<g id="Node000024" class="node">
<title>Node24</title>
<g id="a_Node000024"><a xlink:title=" ">
<polygon fill="#e0e0e0" stroke="#999999" points="2387.88,-157.88 2283.38,-157.88 2283.38,-127.38 2387.88,-127.38 2387.88,-157.88"/>
<text text-anchor="start" x="2291.38" y="-144.38" font-family="Helvetica,sans-Serif" font-size="10.00">typed_linear_algebra</text>
<text text-anchor="middle" x="2335.62" y="-133.12" font-family="Helvetica,sans-Serif" font-size="10.00">_internal/tuple.tpp</text>
</a>
</g>
</g>
<!-- Node3&#45;&gt;Node24 -->
<g id="edge30_Node000003_Node000024" class="edge">
<title>Node3&#45;&gt;Node24</title>
<g id="a_edge30_Node000003_Node000024"><a xlink:title=" ">
<path fill="none" stroke="#63b8ff" d="M1938.97,-209.87C2014.66,-203.75 2155.82,-189.76 2273.62,-163.5 2276.42,-162.88 2279.28,-162.18 2282.15,-161.43"/>
<polygon fill="#63b8ff" stroke="#63b8ff" points="2283.07,-164.81 2291.76,-158.75 2281.18,-158.07 2283.07,-164.81"/>
</a>
</g>
</g>
<!-- Node25 -->
<g id="Node000025" class="node">
<title>Node25</title>
<g id="a_Node000025"><a xlink:title=" ">
<polygon fill="#e0e0e0" stroke="#999999" points="2513.38,-163.5 2405.88,-163.5 2405.88,-121.75 2513.38,-121.75 2513.38,-163.5"/>
<text text-anchor="start" x="2413.88" y="-150" font-family="Helvetica,sans-Serif" font-size="10.00">typed_linear_algebra</text>
<text text-anchor="start" x="2413.88" y="-138.75" font-family="Helvetica,sans-Serif" font-size="10.00">_internal/typed_linear</text>
<text text-anchor="middle" x="2459.62" y="-127.5" font-family="Helvetica,sans-Serif" font-size="10.00">_algebra.tpp</text>
</a>
</g>
</g>
<!-- Node3&#45;&gt;Node25 -->
<g id="edge31_Node000003_Node000025" class="edge">
<title>Node3&#45;&gt;Node25</title>
<g id="a_edge31_Node000003_Node000025"><a xlink:title=" ">
<path fill="none" stroke="#63b8ff" d="M1938.99,-212.12C2031.08,-208.55 2223.61,-197.62 2394.31,-163.74"/>
<polygon fill="#63b8ff" stroke="#63b8ff" points="2394.92,-167.19 2404.03,-161.78 2393.54,-160.33 2394.92,-167.19"/>
</a>
</g>
</g>
<!-- Node5&#45;&gt;Node6 -->
<g id="edge5_Node000005_Node000006" class="edge">
<title>Node5&#45;&gt;Node6</title>
<g id="a_edge5_Node000005_Node000006"><a xlink:title=" ">
<path fill="none" stroke="#63b8ff" d="M2682.32,-126.99C2698.45,-116.59 2720.05,-102.65 2736.31,-92.16"/>
<polygon fill="#63b8ff" stroke="#63b8ff" points="2737.88,-95.32 2744.38,-86.96 2734.08,-89.43 2737.88,-95.32"/>
</a>
</g>
</g>
<!-- Node5&#45;&gt;Node8 -->
<g id="edge12_Node000005_Node000008" class="edge">
<title>Node5&#45;&gt;Node8</title>
<g id="a_edge12_Node000005_Node000008"><a xlink:title=" ">
<path fill="none" stroke="#63b8ff" d="M2654.81,-127.24C2647.29,-104.8 2632.75,-61.4 2624.25,-36.03"/>
<polygon fill="#63b8ff" stroke="#63b8ff" points="2627.6,-35 2621.1,-26.63 2620.96,-37.22 2627.6,-35"/>
</a>
</g>
</g>
<!-- Node5&#45;&gt;Node12 -->
<g id="edge13_Node000005_Node000012" class="edge">
<title>Node5&#45;&gt;Node12</title>
<g id="a_edge13_Node000005_Node000012"><a xlink:title=" ">
<path fill="none" stroke="#63b8ff" d="M2641.47,-126.99C2628.86,-116.82 2612.07,-103.28 2599.16,-92.88"/>
<polygon fill="#63b8ff" stroke="#63b8ff" points="2601.73,-90.45 2591.75,-86.9 2597.33,-95.9 2601.73,-90.45"/>
</a>
</g>
</g>
<!-- Node6&#45;&gt;Node4 -->
<g id="edge6_Node000006_Node000004" class="edge">
<title>Node6&#45;&gt;Node4</title>
<g id="a_edge6_Node000006_Node000004"><a xlink:title=" ">
<path fill="none" stroke="#63b8ff" d="M2763.88,-66.18C2767.05,-59.51 2771.56,-50.03 2775.79,-41.13"/>
<polygon fill="#63b8ff" stroke="#63b8ff" points="2778.93,-42.68 2780.06,-32.15 2772.61,-39.68 2778.93,-42.68"/>
</a>
</g>
</g>
<!-- Node6&#45;&gt;Node7 -->
<g id="edge7_Node000006_Node000007" class="edge">
<title>Node6&#45;&gt;Node7</title>
<g id="a_edge7_Node000006_Node000007"><a xlink:title=" ">
<path fill="none" stroke="#63b8ff" d="M2731.07,-73.2C2701.09,-71.24 2652.56,-68.26 2610.62,-66.5 1845.35,-34.46 909.61,-19.73 707.35,-16.81"/>
<polygon fill="#63b8ff" stroke="#63b8ff" points="707.44,-13.31 697.39,-16.66 707.34,-20.31 707.44,-13.31"/>
</a>
</g>
</g>
<!-- Node6&#45;&gt;Node8 -->
<g id="edge8_Node000006_Node000008" class="edge">
<title>Node6&#45;&gt;Node8</title>
<g id="a_edge8_Node000006_Node000008"><a xlink:title=" ">
<path fill="none" stroke="#63b8ff" d="M2737.03,-66.02C2714.95,-57.09 2680.41,-43.03 2650.62,-30.5 2650.01,-30.24 2649.4,-29.98 2648.77,-29.72"/>
<polygon fill="#63b8ff" stroke="#63b8ff" points="2650.51,-26.66 2639.94,-25.95 2647.76,-33.09 2650.51,-26.66"/>
</a>
</g>
</g>
<!-- Node9 -->
<g id="Node000009" class="node">
<title>Node9</title>
<g id="a_Node000009"><a xlink:title=" ">
<polygon fill="#e0e0e0" stroke="#999999" points="2717.62,-24.88 2659.62,-24.88 2659.62,-5.63 2717.62,-5.63 2717.62,-24.88"/>
<text text-anchor="middle" x="2688.62" y="-11.38" font-family="Helvetica,sans-Serif" font-size="10.00">functional</text>
</a>
</g>
</g>
<!-- Node6&#45;&gt;Node9 -->
<g id="edge9_Node000006_Node000009" class="edge">
<title>Node6&#45;&gt;Node9</title>
<g id="a_edge9_Node000006_Node000009"><a xlink:title=" ">
<path fill="none" stroke="#63b8ff" d="M2748.84,-66.18C2738.1,-57.28 2721.37,-43.41 2708.27,-32.54"/>
<polygon fill="#63b8ff" stroke="#63b8ff" points="2710.61,-29.93 2700.67,-26.24 2706.14,-35.32 2710.61,-29.93"/>
</a>
</g>
</g>
<!-- Node6&#45;&gt;Node10 -->
<g id="edge10_Node000006_Node000010" class="edge">
<title>Node6&#45;&gt;Node10</title>
<g id="a_edge10_Node000006_Node000010"><a xlink:title=" ">
<path fill="none" stroke="#63b8ff" d="M2777.71,-66.1C2793.95,-57.98 2818.65,-45.62 2848.86,-30.36"/>
<polygon fill="#63b8ff" stroke="#63b8ff" points="2850.16,-33.63 2857.51,-25.99 2847,-27.38 2850.16,-33.63"/>
</a>
</g>
</g>
<!-- Node6&#45;&gt;Node11 -->
<g id="edge11_Node000006_Node000011" class="edge">
<title>Node6&#45;&gt;Node11</title>
<g id="a_edge11_Node000006_Node000011"><a xlink:title=" ">
<path fill="none" stroke="#63b8ff" d="M2788.1,-66.83C2817.44,-58.18 2864.43,-44.02 2904.62,-30.5 2905.97,-30.05 2907.34,-29.58 2908.72,-29.1"/>
<polygon fill="#63b8ff" stroke="#63b8ff" points="2909.67,-32.48 2917.93,-25.84 2907.33,-25.88 2909.67,-32.48"/>
</a>
</g>
</g>
<!-- Node28&#45;&gt;Node7 -->
<g id="edge41_Node000028_Node000007" class="edge">
<title>Node28&#45;&gt;Node7</title>
<g id="a_edge41_Node000028_Node000007"><a xlink:title=" ">
<path fill="none" stroke="#63b8ff" d="M293.05,-272.04C228.82,-266.58 123.24,-249.85 158.62,-199.5 269.29,-42.04 528.93,-19.25 628.14,-16.42"/>
<polygon fill="#63b8ff" stroke="#63b8ff" points="627.99,-19.92 637.9,-16.2 627.83,-12.92 627.99,-19.92"/>
</a>
</g>
</g>
<!-- Node29 -->
<g id="Node000029" class="node">
<title>Node29</title>
<g id="a_Node000029"><a xlink:title=" ">
<polygon fill="#e0e0e0" stroke="#999999" points="269.75,-230 167.5,-230 167.5,-199.5 269.75,-199.5 269.75,-230"/>
<text text-anchor="start" x="175.5" y="-216.5" font-family="Helvetica,sans-Serif" font-size="10.00">mp&#45;units/framework</text>
<text text-anchor="middle" x="218.62" y="-205.25" font-family="Helvetica,sans-Serif" font-size="10.00">/quantity.h</text>
</a>
</g>
</g>
<!-- Node28&#45;&gt;Node29 -->
<g id="edge42_Node000028_Node000029" class="edge">
<title>Node28&#45;&gt;Node29</title>
<g id="a_edge42_Node000028_Node000029"><a xlink:title=" ">
<path fill="none" stroke="#63b8ff" d="M320.14,-265.55C303.83,-257.55 279.49,-245.61 258.73,-235.43"/>
<polygon fill="#63b8ff" stroke="#63b8ff" points="260.45,-232.37 249.93,-231.11 257.37,-238.66 260.45,-232.37"/>
</a>
</g>
</g>
<!-- Node30 -->
<g id="Node000030" class="node">
<title>Node30</title>
<g id="a_Node000030"><a xlink:title=" ">
<polygon fill="#e0e0e0" stroke="#999999" points="389.75,-230 287.5,-230 287.5,-199.5 389.75,-199.5 389.75,-230"/>
<text text-anchor="start" x="295.5" y="-216.5" font-family="Helvetica,sans-Serif" font-size="10.00">mp&#45;units/framework</text>
<text text-anchor="middle" x="338.62" y="-205.25" font-family="Helvetica,sans-Serif" font-size="10.00">/quantity_point.h</text>
</a>
</g>
</g>
<!-- Node28&#45;&gt;Node30 -->
<g id="edge43_Node000028_Node000030" class="edge">
<title>Node28&#45;&gt;Node30</title>
<g id="a_edge43_Node000028_Node000030"><a xlink:title=" ">
<path fill="none" stroke="#63b8ff" d="M338.62,-265.68C338.62,-259.23 338.62,-250.16 338.62,-241.51"/>
<polygon fill="#63b8ff" stroke="#63b8ff" points="342.13,-241.8 338.63,-231.8 335.13,-241.8 342.13,-241.8"/>
</a>
</g>
</g>
<!-- Node31 -->
<g id="Node000031" class="node">
<title>Node31</title>
<g id="a_Node000031"><a xlink:title=" ">
<polygon fill="#e0e0e0" stroke="#999999" points="493.5,-224.38 407.75,-224.38 407.75,-205.12 493.5,-205.12 493.5,-224.38"/>
<text text-anchor="middle" x="450.62" y="-210.88" font-family="Helvetica,sans-Serif" font-size="10.00">mp&#45;units/math.h</text>
</a>
</g>
</g>
<!-- Node28&#45;&gt;Node31 -->
<g id="edge44_Node000028_Node000031" class="edge">
<title>Node28&#45;&gt;Node31</title>
<g id="a_edge44_Node000028_Node000031"><a xlink:title=" ">
<path fill="none" stroke="#63b8ff" d="M355.64,-265.68C373.64,-256.22 402.33,-241.14 423.47,-230.02"/>
<polygon fill="#63b8ff" stroke="#63b8ff" points="424.89,-233.23 432.11,-225.48 421.63,-227.04 424.89,-233.23"/>
</a>
</g>
</g>
<!-- Node32 -->
<g id="Node000032" class="node">
<title>Node32</title>
<g id="a_Node000032"><a xlink:title=" ">
<polygon fill="#e0e0e0" stroke="#999999" points="620.12,-230 511.12,-230 511.12,-199.5 620.12,-199.5 620.12,-230"/>
<text text-anchor="start" x="519.12" y="-216.5" font-family="Helvetica,sans-Serif" font-size="10.00">mp&#45;units/systems/isq</text>
<text text-anchor="middle" x="565.62" y="-205.25" font-family="Helvetica,sans-Serif" font-size="10.00">/thermodynamics.h</text>
</a>
</g>
</g>
<!-- Node28&#45;&gt;Node32 -->
<g id="edge45_Node000028_Node000032" class="edge">
<title>Node28&#45;&gt;Node32</title>
<g id="a_edge45_Node000028_Node000032"><a xlink:title=" ">
<path fill="none" stroke="#63b8ff" d="M373.6,-265.55C407.09,-256.87 458.48,-243.54 499.67,-232.86"/>
<polygon fill="#63b8ff" stroke="#63b8ff" points="500.45,-236.27 509.25,-230.37 498.69,-229.49 500.45,-236.27"/>
</a>
</g>
</g>
<!-- Node33 -->
<g id="Node000033" class="node">
<title>Node33</title>
<g id="a_Node000033"><a xlink:title=" ">
<polygon fill="#e0e0e0" stroke="#999999" points="111.25,-224.38 0,-224.38 0,-205.12 111.25,-205.12 111.25,-224.38"/>
<text text-anchor="middle" x="55.62" y="-210.88" font-family="Helvetica,sans-Serif" font-size="10.00">mp&#45;units/systems/si.h</text>
</a>
</g>
</g>
<!-- Node28&#45;&gt;Node33 -->
<g id="edge46_Node000028_Node000033" class="edge">
<title>Node28&#45;&gt;Node33</title>
<g id="a_edge46_Node000028_Node000033"><a xlink:title=" ">
<path fill="none" stroke="#63b8ff" d="M295.03,-265.55C245.38,-255.23 164.19,-238.33 110.33,-227.13"/>
<polygon fill="#63b8ff" stroke="#63b8ff" points="111.26,-223.75 100.75,-225.14 109.83,-230.6 111.26,-223.75"/>
</a>
</g>
</g>
</g>
</svg>

<g id="navigator" transform="translate(0 0)" fill="#404254">
  <rect fill="#f2f5e9" fill-opacity="0.5" stroke="#606060" stroke-width=".5" x="0" y="0" width="60" height="60"/>
  <use id="zoomplus" xlink:href="#zoomPlus" x="17" y="9" onmousedown="handleZoom(evt,'in')"/>
  <use id="zoomminus" xlink:href="#zoomMin" x="42" y="9" onmousedown="handleZoom(evt,'out')"/>
  <use id="reset" xlink:href="#resetDef" x="30" y="36" onmousedown="handleReset()"/>
   <use id="arrowup" xlink:href="#arrowUp" x="0" y="0" onmousedown="handlePan(0,-1)"/>
  <use id="arrowright" xlink:href="#arrowRight" x="0" y="0" onmousedown="handlePan(1,0)"/>
  <use id="arrowdown" xlink:href="#arrowDown" x="0" y="0" onmousedown="handlePan(0,1)"/>
  <use id="arrowleft" xlink:href="#arrowLeft" x="0" y="0" onmousedown="handlePan(-1,0)"/>
</g>
<svg viewBox="0 0 15 15" width="100%" height="30px" preserveAspectRatio="xMaxYMin meet">
 <g id="arrow_out" transform="scale(0.3 0.3)">
  <a xlink:href="unit__eigen_2fcarouge_2linalg_8hpp__incl_org.svg" target="_base">
   <rect id="button" ry="5" rx="5" y="6" x="6" height="38" width="38"
        fill="#f2f5e9" fill-opacity="0.5" stroke="#606060" stroke-width="1.0"/>
   <path id="arrow"
     d="M 11.500037,31.436501 C 11.940474,20.09759 22.043105,11.32322 32.158766,21.979434 L 37.068811,17.246167 C 37.068811,17.246167 37.088388,32 37.088388,32 L 22.160133,31.978069 C 22.160133,31.978069 26.997745,27.140456 26.997745,27.140456 C 18.528582,18.264221 13.291696,25.230495 11.500037,31.436501 z"
     style="fill:#404040;"/>
  </a>
 </g>
</svg>

<style type='text/css'>
<![CDATA[
[data-mouse-over-selected='false'] { opacity: 0.7; }
[data-mouse-over-selected='true']  { opacity: 1.0; }
]]>
</style>
<script type="application/ecmascript"><![CDATA[
document.addEventListener('DOMContentLoaded', (event) => {
  highlightEdges();
  highlightAdjacentNodes();
});
]]></script>
</svg>
