<?xml version="1.0" encoding="UTF-8" standalone="no"?>
<!DOCTYPE svg PUBLIC "-//W3C//DTD SVG 1.1//EN"
 "http://www.w3.org/Graphics/SVG/1.1/DTD/svg11.dtd">
<!-- Generated by graphviz version 12.2.0 (20241103.1931)
 -->
<!-- Title: /github/workspace/support/unit/fcarouge/unit.hpp Pages: 1 -->
<svg width="664pt" height="105pt"
 viewBox="0.00 0.00 663.50 105.00" xmlns="http://www.w3.org/2000/svg" xmlns:xlink="http://www.w3.org/1999/xlink">
<g id="graph0" class="graph" transform="scale(1 1) rotate(0) translate(4 101)">
<title>/github/workspace/support/unit/fcarouge/unit.hpp</title>
<!-- Node1 -->
<g id="Node000001" class="node">
<title>Node1</title>
<g id="a_Node000001"><a xlink:title="Quantities and units facade for mp&#45;units third party implementation.">
<polygon fill="#999999" stroke="#666666" points="366.25,-97 235.5,-97 235.5,-66.5 366.25,-66.5 366.25,-97"/>
<text text-anchor="start" x="243.5" y="-83.5" font-family="Helvetica,sans-Serif" font-size="10.00">/github/workspace/support</text>
<text text-anchor="middle" x="300.88" y="-72.25" font-family="Helvetica,sans-Serif" font-size="10.00">/unit/fcarouge/unit.hpp</text>
</a>
</g>
</g>
<!-- Node2 -->
<g id="Node000002" class="node">
<title>Node2</title>
<g id="a_Node000002"><a xlink:title=" ">
<polygon fill="#e0e0e0" stroke="#999999" points="55.75,-24.88 0,-24.88 0,-5.63 55.75,-5.63 55.75,-24.88"/>
<text text-anchor="middle" x="27.88" y="-11.38" font-family="Helvetica,sans-Serif" font-size="10.00">concepts</text>
</a>
</g>
</g>
<!-- Node1&#45;&gt;Node2 -->
<g id="edge1_Node000001_Node000002" class="edge">
<title>Node1&#45;&gt;Node2</title>
<g id="a_edge1_Node000001_Node000002"><a xlink:title=" ">
<path fill="none" stroke="#63b8ff" d="M235.07,-69.62C187.34,-60.85 121.5,-47.32 64.88,-30.5 63.31,-30.03 61.71,-29.53 60.11,-29.01"/>
<polygon fill="#63b8ff" stroke="#63b8ff" points="61.61,-25.82 51.02,-25.78 59.27,-32.42 61.61,-25.82"/>
</a>
</g>
</g>
<!-- Node3 -->
<g id="Node000003" class="node">
<title>Node3</title>
<g id="a_Node000003"><a xlink:title=" ">
<polygon fill="#e0e0e0" stroke="#999999" points="176,-30.5 73.75,-30.5 73.75,0 176,0 176,-30.5"/>
<text text-anchor="start" x="81.75" y="-17" font-family="Helvetica,sans-Serif" font-size="10.00">mp&#45;units/framework</text>
<text text-anchor="middle" x="124.88" y="-5.75" font-family="Helvetica,sans-Serif" font-size="10.00">/quantity.h</text>
</a>
</g>
</g>
<!-- Node1&#45;&gt;Node3 -->
<g id="edge2_Node000001_Node000003" class="edge">
<title>Node1&#45;&gt;Node3</title>
<g id="a_edge2_Node000001_Node000003"><a xlink:title=" ">
<path fill="none" stroke="#63b8ff" d="M260.94,-66.11C235.6,-56.83 202.59,-44.73 175.43,-34.78"/>
<polygon fill="#63b8ff" stroke="#63b8ff" points="176.97,-31.62 166.38,-31.46 174.56,-38.19 176.97,-31.62"/>
</a>
</g>
</g>
<!-- Node4 -->
<g id="Node000004" class="node">
<title>Node4</title>
<g id="a_Node000004"><a xlink:title=" ">
<polygon fill="#e0e0e0" stroke="#999999" points="296,-30.5 193.75,-30.5 193.75,0 296,0 296,-30.5"/>
<text text-anchor="start" x="201.75" y="-17" font-family="Helvetica,sans-Serif" font-size="10.00">mp&#45;units/framework</text>
<text text-anchor="middle" x="244.88" y="-5.75" font-family="Helvetica,sans-Serif" font-size="10.00">/quantity_point.h</text>
</a>
</g>
</g>
<!-- Node1&#45;&gt;Node4 -->
<g id="edge3_Node000001_Node000004" class="edge">
<title>Node1&#45;&gt;Node4</title>
<g id="a_edge3_Node000001_Node000004"><a xlink:title=" ">
<path fill="none" stroke="#63b8ff" d="M288.17,-66.11C281.29,-58.2 272.65,-48.24 264.89,-39.3"/>
<polygon fill="#63b8ff" stroke="#63b8ff" points="267.72,-37.23 258.52,-31.97 262.44,-41.82 267.72,-37.23"/>
</a>
</g>
</g>
<!-- Node5 -->
<g id="Node000005" class="node">
<title>Node5</title>
<g id="a_Node000005"><a xlink:title=" ">
<polygon fill="#e0e0e0" stroke="#999999" points="399.75,-24.88 314,-24.88 314,-5.63 399.75,-5.63 399.75,-24.88"/>
<text text-anchor="middle" x="356.88" y="-11.38" font-family="Helvetica,sans-Serif" font-size="10.00">mp&#45;units/math.h</text>
</a>
</g>
</g>
<!-- Node1&#45;&gt;Node5 -->
<g id="edge4_Node000001_Node000005" class="edge">
<title>Node1&#45;&gt;Node5</title>
<g id="a_edge4_Node000001_Node000005"><a xlink:title=" ">
<path fill="none" stroke="#63b8ff" d="M313.58,-66.11C321.98,-56.44 333.03,-43.71 341.87,-33.54"/>
<polygon fill="#63b8ff" stroke="#63b8ff" points="344.31,-36.06 348.22,-26.22 339.02,-31.47 344.31,-36.06"/>
</a>
</g>
</g>
<!-- Node6 -->
<g id="Node000006" class="node">
<title>Node6</title>
<g id="a_Node000006"><a xlink:title=" ">
<polygon fill="#e0e0e0" stroke="#999999" points="526.38,-30.5 417.38,-30.5 417.38,0 526.38,0 526.38,-30.5"/>
<text text-anchor="start" x="425.38" y="-17" font-family="Helvetica,sans-Serif" font-size="10.00">mp&#45;units/systems/isq</text>
<text text-anchor="middle" x="471.88" y="-5.75" font-family="Helvetica,sans-Serif" font-size="10.00">/thermodynamics.h</text>
</a>
</g>
</g>
<!-- Node1&#45;&gt;Node6 -->
<g id="edge5_Node000001_Node000006" class="edge">
<title>Node1&#45;&gt;Node6</title>
<g id="a_edge5_Node000001_Node000006"><a xlink:title=" ">
<path fill="none" stroke="#63b8ff" d="M339.68,-66.11C364.19,-56.87 396.08,-44.84 422.4,-34.91"/>
<polygon fill="#63b8ff" stroke="#63b8ff" points="423.39,-38.28 431.51,-31.47 420.92,-31.73 423.39,-38.28"/>
</a>
</g>
</g>
<!-- Node7 -->
<g id="Node000007" class="node">
<title>Node7</title>
<g id="a_Node000007"><a xlink:title=" ">
<polygon fill="#e0e0e0" stroke="#999999" points="655.5,-24.88 544.25,-24.88 544.25,-5.63 655.5,-5.63 655.5,-24.88"/>
<text text-anchor="middle" x="599.88" y="-11.38" font-family="Helvetica,sans-Serif" font-size="10.00">mp&#45;units/systems/si.h</text>
</a>
</g>
</g>
<!-- Node1&#45;&gt;Node7 -->
<g id="edge6_Node000001_Node000007" class="edge">
<title>Node1&#45;&gt;Node7</title>
<g id="a_edge6_Node000001_Node000007"><a xlink:title=" ">
<path fill="none" stroke="#63b8ff" d="M366.75,-66.82C413.88,-56.81 478.81,-42.95 535.88,-30.5 539.89,-29.62 544.05,-28.71 548.23,-27.79"/>
<polygon fill="#63b8ff" stroke="#63b8ff" points="548.77,-31.25 557.78,-25.67 547.26,-24.42 548.77,-31.25"/>
</a>
</g>
</g>
</g>
</svg>
