<?xml version="1.0" encoding="UTF-8" standalone="no"?>
<!DOCTYPE svg PUBLIC "-//W3C//DTD SVG 1.1//EN"
 "http://www.w3.org/Graphics/SVG/1.1/DTD/svg11.dtd">
<!-- Generated by graphviz version 12.2.0 (20241103.1931)
 -->
<!-- Title: /github/workspace/support/unit_eigen/fcarouge/linalg.hpp Pages: 1 -->
<!--zoomable 305 -->

<svg id="main" version="1.1" xmlns="http://www.w3.org/2000/svg" xmlns:xlink="http://www.w3.org/1999/xlink" xml:space="preserve" onload="init(evt)">

<style type="text/css"><![CDATA[
.node, .edge {opacity: 0.7;}
.node.selected, .edge.selected {opacity: 1;}
.edge:hover path { stroke: red; }
.edge:hover polygon { stroke: red; fill: red; }
]]></style>

<defs>
  <circle id="rim" cx="0" cy="0" r="7"/>
  <circle id="rim2" cx="0" cy="0" r="3.5"/>
  <g id="zoomPlus">
    <use xlink:href="#rim" fill="#404040"><set attributeName="fill" to="#808080" begin="zoomplus.mouseover" end="zoomplus.mouseout"/></use>
    <path d="M-4,0h8M0,-4v8" fill="none" stroke="white" stroke-width="1.5" pointer-events="none"/>
  </g>
  <g id="zoomMin">
    <use xlink:href="#rim" fill="#404040"><set attributeName="fill" to="#808080" begin="zoomminus.mouseover" end="zoomminus.mouseout"/></use>
    <path d="M-4,0h8" fill="none" stroke="white" stroke-width="1.5" pointer-events="none"/>
  </g>
  <g id="arrowUp" transform="translate(30 24)">
    <use xlink:href="#rim"/>
    <path pointer-events="none" fill="none" stroke="white" stroke-width="1.5" d="M0,-3.0v7 M-2.5,-0.5L0,-3.0L2.5,-0.5"/>
  </g>
  <g id="arrowRight" transform="rotate(90) translate(36 -43)">
    <use xlink:href="#rim"/>
    <path pointer-events="none" fill="none" stroke="white" stroke-width="1.5" d="M0,-3.0v7 M-2.5,-0.5L0,-3.0L2.5,-0.5"/>
  </g>
  <g id="arrowDown" transform="rotate(180) translate(-30 -48)">
    <use xlink:href="#rim"/>
    <path pointer-events="none" fill="none" stroke="white" stroke-width="1.5" d="M0,-3.0v7 M-2.5,-0.5L0,-3.0L2.5,-0.5"/>
  </g>
  <g id="arrowLeft" transform="rotate(270) translate(-36 17)">
    <use xlink:href="#rim"/>
    <path pointer-events="none" fill="none" stroke="white" stroke-width="1.5" d="M0,-3.0v7 M-2.5,-0.5L0,-3.0L2.5,-0.5"/>
  </g>
  <g id="resetDef">
    <use xlink:href="#rim2" fill="#404040"><set attributeName="fill" to="#808080" begin="reset.mouseover" end="reset.mouseout"/></use>
  </g>
</defs>
<script type="application/ecmascript">
var viewWidth = 3046;
var viewHeight = 305;
var sectionId = 'dynsection-0';
</script>
<script type="application/ecmascript" xlink:href="svg.min.js"/>
<svg id="graph" class="graph">
<g id="viewport">
<title>/github/workspace/support/unit_eigen/fcarouge/linalg.hpp</title>
<!-- Node1 -->
<g id="Node000001" class="node">
<title>Node1</title>
<g id="a_Node000001"><a xlink:title="Indexed&#45;based linear algebra with mp&#45;units with Eigen implementations.">
<polygon fill="#999999" stroke="#666666" points="2851.75,-296.5 2704.5,-296.5 2704.5,-266 2851.75,-266 2851.75,-296.5"/>
<text text-anchor="start" x="2712.5" y="-283" font-family="Helvetica,sans-Serif" font-size="10.00">/github/workspace/support</text>
<text text-anchor="middle" x="2778.12" y="-271.75" font-family="Helvetica,sans-Serif" font-size="10.00">/unit_eigen/fcarouge/linalg.hpp</text>
</a>
</g>
</g>
<!-- Node2 -->
<g id="Node000002" class="node">
<title>Node2</title>
<g id="a_Node000002"><a xlink:href="eigen_8hpp.xhtml" target="_top" xlink:title="Linear algebra facade for Eigen3 third party implementation.">
<polygon fill="white" stroke="#666666" points="2827,-230 2729.25,-230 2729.25,-210.75 2827,-210.75 2827,-230"/>
<text text-anchor="middle" x="2778.12" y="-216.5" font-family="Helvetica,sans-Serif" font-size="10.00">fcarouge/eigen.hpp</text>
</a>
</g>
</g>
<!-- Node1&#45;&gt;Node2 -->
<g id="edge1_Node000001_Node000002" class="edge">
<title>Node1&#45;&gt;Node2</title>
<g id="a_edge1_Node000001_Node000002"><a xlink:title=" ">
<path fill="none" stroke="#63b8ff" d="M2778.12,-265.7C2778.12,-258.46 2778.12,-249.59 2778.12,-241.69"/>
<polygon fill="#63b8ff" stroke="#63b8ff" points="2781.63,-241.96 2778.13,-231.96 2774.63,-241.96 2781.63,-241.96"/>
</a>
</g>
</g>
<!-- Node3 -->
<g id="Node000003" class="node">
<title>Node3</title>
<g id="a_Node000003"><a xlink:href="typed__linear__algebra_8hpp.xhtml" target="_top" xlink:title="Typed linear algebra implementation.">
<polygon fill="white" stroke="#666666" points="1959.25,-174.75 1851,-174.75 1851,-144.25 1959.25,-144.25 1959.25,-174.75"/>
<text text-anchor="start" x="1859" y="-161.25" font-family="Helvetica,sans-Serif" font-size="10.00">fcarouge/typed_linear</text>
<text text-anchor="middle" x="1905.12" y="-150" font-family="Helvetica,sans-Serif" font-size="10.00">_algebra.hpp</text>
</a>
</g>
</g>
<!-- Node1&#45;&gt;Node3 -->
<g id="edge36_Node000001_Node000003" class="edge">
<title>Node1&#45;&gt;Node3</title>
<g id="a_edge36_Node000001_Node000003"><a xlink:title=" ">
<path fill="none" stroke="#63b8ff" d="M2704.07,-270.09C2536.41,-247.09 2130.04,-191.35 1970.74,-169.5"/>
<polygon fill="#63b8ff" stroke="#63b8ff" points="1971.59,-166.08 1961.2,-168.19 1970.63,-173.02 1971.59,-166.08"/>
</a>
</g>
</g>
<!-- Node7 -->
<g id="Node000007" class="node">
<title>Node7</title>
<g id="a_Node000007"><a xlink:title=" ">
<polygon fill="#e0e0e0" stroke="#999999" points="2285.25,-24.88 2237,-24.88 2237,-5.63 2285.25,-5.63 2285.25,-24.88"/>
<text text-anchor="middle" x="2261.12" y="-11.38" font-family="Helvetica,sans-Serif" font-size="10.00">cstddef</text>
</a>
</g>
</g>
<!-- Node1&#45;&gt;Node7 -->
<g id="edge44_Node000001_Node000007" class="edge">
<title>Node1&#45;&gt;Node7</title>
<g id="a_edge44_Node000001_Node000007"><a xlink:title=" ">
<path fill="none" stroke="#63b8ff" d="M2798.22,-265.68C2810.17,-256.37 2825.1,-243.53 2836.12,-230 2882.87,-172.68 2917.22,-120.92 2867.12,-66.5 2828.42,-24.45 2421.62,-17.58 2297.12,-16.47"/>
<polygon fill="#63b8ff" stroke="#63b8ff" points="2297.19,-12.97 2287.16,-16.39 2297.13,-19.97 2297.19,-12.97"/>
</a>
</g>
</g>
<!-- Node9 -->
<g id="Node000009" class="node">
<title>Node9</title>
<g id="a_Node000009"><a xlink:title=" ">
<polygon fill="#e0e0e0" stroke="#999999" points="3037.62,-24.88 3000.62,-24.88 3000.62,-5.63 3037.62,-5.63 3037.62,-24.88"/>
<text text-anchor="middle" x="3019.12" y="-11.38" font-family="Helvetica,sans-Serif" font-size="10.00">tuple</text>
</a>
</g>
</g>
<!-- Node1&#45;&gt;Node9 -->
<g id="edge45_Node000001_Node000009" class="edge">
<title>Node1&#45;&gt;Node9</title>
<g id="a_edge45_Node000001_Node000009"><a xlink:title=" ">
<path fill="none" stroke="#63b8ff" d="M2830.11,-265.57C2876.81,-249.98 2944.42,-221.07 2987.12,-174.75 3009.76,-150.19 3014.11,-140.67 3022.12,-108.25 3026.58,-90.24 3022.68,-85.05 3022.12,-66.5 3021.83,-56.64 3021.21,-45.71 3020.61,-36.57"/>
<polygon fill="#63b8ff" stroke="#63b8ff" points="3024.11,-36.38 3019.92,-26.65 3017.13,-36.87 3024.11,-36.38"/>
</a>
</g>
</g>
<!-- Node28 -->
<g id="Node000028" class="node">
<title>Node28</title>
<g id="a_Node000028"><a xlink:href="unit_8hpp.xhtml" target="_top" xlink:title="Quantities and units facade for mp&#45;units third party implementation.">
<polygon fill="white" stroke="#666666" points="443.25,-230 353,-230 353,-210.75 443.25,-210.75 443.25,-230"/>
<text text-anchor="middle" x="398.12" y="-216.5" font-family="Helvetica,sans-Serif" font-size="10.00">fcarouge/unit.hpp</text>
</a>
</g>
</g>
<!-- Node1&#45;&gt;Node28 -->
<g id="edge37_Node000001_Node000028" class="edge">
<title>Node1&#45;&gt;Node28</title>
<g id="a_edge37_Node000001_Node000028"><a xlink:title=" ">
<path fill="none" stroke="#63b8ff" d="M2704.29,-278.42C2343.9,-269.51 774.09,-230.68 454.89,-222.78"/>
<polygon fill="#63b8ff" stroke="#63b8ff" points="455.23,-219.29 445.15,-222.54 455.06,-226.28 455.23,-219.29"/>
</a>
</g>
</g>
<!-- Node2&#45;&gt;Node3 -->
<g id="edge2_Node000002_Node000003" class="edge">
<title>Node2&#45;&gt;Node3</title>
<g id="a_edge2_Node000002_Node000003"><a xlink:title=" ">
<path fill="none" stroke="#63b8ff" d="M2729,-216.06C2580.97,-206.08 2139.03,-176.27 1970.97,-164.94"/>
<polygon fill="#63b8ff" stroke="#63b8ff" points="1971.32,-161.46 1961.1,-164.28 1970.84,-168.44 1971.32,-161.46"/>
</a>
</g>
</g>
<!-- Node6 -->
<g id="Node000006" class="node">
<title>Node6</title>
<g id="a_Node000006"><a xlink:title=" ">
<polygon fill="#e0e0e0" stroke="#999999" points="1164,-24.88 1108.25,-24.88 1108.25,-5.63 1164,-5.63 1164,-24.88"/>
<text text-anchor="middle" x="1136.12" y="-11.38" font-family="Helvetica,sans-Serif" font-size="10.00">concepts</text>
</a>
</g>
</g>
<!-- Node2&#45;&gt;Node6 -->
<g id="edge29_Node000002_Node000006" class="edge">
<title>Node2&#45;&gt;Node6</title>
<g id="a_edge29_Node000002_Node000006"><a xlink:title=" ">
<path fill="none" stroke="#63b8ff" d="M2728.88,-218.68C2418.18,-214.08 740.3,-185.69 667.12,-108.25 654.38,-94.76 654.72,-80.3 667.12,-66.5 695.65,-34.76 988.64,-21.39 1096.52,-17.52"/>
<polygon fill="#63b8ff" stroke="#63b8ff" points="1096.47,-21.03 1106.34,-17.18 1096.23,-14.03 1096.47,-21.03"/>
</a>
</g>
</g>
<!-- Node2&#45;&gt;Node7 -->
<g id="edge30_Node000002_Node000007" class="edge">
<title>Node2&#45;&gt;Node7</title>
<g id="a_edge30_Node000002_Node000007"><a xlink:title=" ">
<path fill="none" stroke="#63b8ff" d="M2816.19,-210.41C2834.98,-203.85 2855.96,-192.84 2867.12,-174.75 2892.4,-133.81 2899.71,-101.9 2867.12,-66.5 2828.42,-24.45 2421.62,-17.58 2297.12,-16.47"/>
<polygon fill="#63b8ff" stroke="#63b8ff" points="2297.19,-12.97 2287.16,-16.39 2297.13,-19.97 2297.19,-12.97"/>
</a>
</g>
</g>
<!-- Node2&#45;&gt;Node9 -->
<g id="edge33_Node000002_Node000009" class="edge">
<title>Node2&#45;&gt;Node9</title>
<g id="a_edge33_Node000002_Node000009"><a xlink:title=" ">
<path fill="none" stroke="#63b8ff" d="M2827.46,-219.58C2868.02,-217.15 2924.56,-207.45 2961.12,-174.75 3002.19,-138.03 3014.22,-69.77 3017.71,-36.09"/>
<polygon fill="#63b8ff" stroke="#63b8ff" points="3021.17,-36.79 3018.55,-26.53 3014.19,-36.18 3021.17,-36.79"/>
</a>
</g>
</g>
<!-- Node10 -->
<g id="Node000010" class="node">
<title>Node10</title>
<g id="a_Node000010"><a xlink:title=" ">
<polygon fill="#e0e0e0" stroke="#999999" points="2776.62,-24.88 2715.62,-24.88 2715.62,-5.63 2776.62,-5.63 2776.62,-24.88"/>
<text text-anchor="middle" x="2746.12" y="-11.38" font-family="Helvetica,sans-Serif" font-size="10.00">type_traits</text>
</a>
</g>
</g>
<!-- Node2&#45;&gt;Node10 -->
<g id="edge34_Node000002_Node000010" class="edge">
<title>Node2&#45;&gt;Node10</title>
<g id="a_edge34_Node000002_Node000010"><a xlink:title=" ">
<path fill="none" stroke="#63b8ff" d="M2827.28,-212.26C2869.17,-205.07 2924.65,-192.49 2938.12,-174.75 2967.22,-136.43 2967.52,-104.58 2938.12,-66.5 2919.96,-42.97 2839.05,-28.33 2788.23,-21.29"/>
<polygon fill="#63b8ff" stroke="#63b8ff" points="2788.82,-17.83 2778.45,-19.98 2787.9,-24.77 2788.82,-17.83"/>
</a>
</g>
</g>
<!-- Node11 -->
<g id="Node000011" class="node">
<title>Node11</title>
<g id="a_Node000011"><a xlink:title=" ">
<polygon fill="#e0e0e0" stroke="#999999" points="2858,-97 2814.25,-97 2814.25,-77.75 2858,-77.75 2858,-97"/>
<text text-anchor="middle" x="2836.12" y="-83.5" font-family="Helvetica,sans-Serif" font-size="10.00">format</text>
</a>
</g>
</g>
<!-- Node2&#45;&gt;Node11 -->
<g id="edge31_Node000002_Node000011" class="edge">
<title>Node2&#45;&gt;Node11</title>
<g id="a_edge31_Node000002_Node000011"><a xlink:title=" ">
<path fill="none" stroke="#63b8ff" d="M2754.36,-210.26C2739.29,-203.09 2721.01,-191.49 2712.12,-174.75 2705.77,-162.78 2704.46,-155.43 2712.12,-144.25 2737.18,-107.69 2765.6,-128.31 2805.12,-108.25 2807.91,-106.83 2810.77,-105.23 2813.57,-103.57"/>
<polygon fill="#63b8ff" stroke="#63b8ff" points="2815.33,-106.6 2821.92,-98.3 2811.59,-100.68 2815.33,-106.6"/>
</a>
</g>
</g>
<!-- Node26 -->
<g id="Node000026" class="node">
<title>Node26</title>
<g id="a_Node000026"><a xlink:title=" ">
<polygon fill="#e0e0e0" stroke="#999999" points="2772.75,-169.12 2721.5,-169.12 2721.5,-149.88 2772.75,-149.88 2772.75,-169.12"/>
<text text-anchor="middle" x="2747.12" y="-155.62" font-family="Helvetica,sans-Serif" font-size="10.00">sstream</text>
</a>
</g>
</g>
<!-- Node2&#45;&gt;Node26 -->
<g id="edge32_Node000002_Node000026" class="edge">
<title>Node2&#45;&gt;Node26</title>
<g id="a_edge32_Node000002_Node000026"><a xlink:title=" ">
<path fill="none" stroke="#63b8ff" d="M2773.42,-210.43C2769.14,-202.31 2762.68,-190.04 2757.24,-179.7"/>
<polygon fill="#63b8ff" stroke="#63b8ff" points="2760.34,-178.08 2752.58,-170.87 2754.14,-181.34 2760.34,-178.08"/>
</a>
</g>
</g>
<!-- Node27 -->
<g id="Node000027" class="node">
<title>Node27</title>
<g id="a_Node000027"><a xlink:title=" ">
<polygon fill="#e0e0e0" stroke="#999999" points="2857.62,-169.12 2790.62,-169.12 2790.62,-149.88 2857.62,-149.88 2857.62,-169.12"/>
<text text-anchor="middle" x="2824.12" y="-155.62" font-family="Helvetica,sans-Serif" font-size="10.00">Eigen/Eigen</text>
</a>
</g>
</g>
<!-- Node2&#45;&gt;Node27 -->
<g id="edge35_Node000002_Node000027" class="edge">
<title>Node2&#45;&gt;Node27</title>
<g id="a_edge35_Node000002_Node000027"><a xlink:title=" ">
<path fill="none" stroke="#63b8ff" d="M2785.11,-210.43C2791.73,-201.96 2801.86,-188.99 2810.14,-178.39"/>
<polygon fill="#63b8ff" stroke="#63b8ff" points="2812.74,-180.75 2816.14,-170.72 2807.23,-176.44 2812.74,-180.75"/>
</a>
</g>
</g>
<!-- Node4 -->
<g id="Node000004" class="node">
<title>Node4</title>
<g id="a_Node000004"><a xlink:href="typed__linear__algebra__forward_8hpp.xhtml" target="_top" xlink:title="Authoritative forward declaration header.">
<polygon fill="white" stroke="#666666" points="1917.38,-30.5 1812.88,-30.5 1812.88,0 1917.38,0 1917.38,-30.5"/>
<text text-anchor="start" x="1820.88" y="-17" font-family="Helvetica,sans-Serif" font-size="10.00">typed_linear_algebra</text>
<text text-anchor="middle" x="1865.12" y="-5.75" font-family="Helvetica,sans-Serif" font-size="10.00">_forward.hpp</text>
</a>
</g>
</g>
<!-- Node3&#45;&gt;Node4 -->
<g id="edge3_Node000003_Node000004" class="edge">
<title>Node3&#45;&gt;Node4</title>
<g id="a_edge3_Node000003_Node000004"><a xlink:title=" ">
<path fill="none" stroke="#63b8ff" d="M1898.11,-143.83C1893.61,-133.95 1887.92,-120.54 1884.12,-108.25 1877.33,-86.26 1872.25,-60.57 1869.07,-41.93"/>
<polygon fill="#63b8ff" stroke="#63b8ff" points="1872.56,-41.61 1867.49,-32.3 1865.65,-42.74 1872.56,-41.61"/>
</a>
</g>
</g>
<!-- Node5 -->
<g id="Node000005" class="node">
<title>Node5</title>
<g id="a_Node000005"><a xlink:href="utility_8hpp.xhtml" target="_top" xlink:title=" ">
<polygon fill="white" stroke="#666666" points="1997.38,-102.62 1892.88,-102.62 1892.88,-72.12 1997.38,-72.12 1997.38,-102.62"/>
<text text-anchor="start" x="1900.88" y="-89.12" font-family="Helvetica,sans-Serif" font-size="10.00">typed_linear_algebra</text>
<text text-anchor="middle" x="1945.12" y="-77.88" font-family="Helvetica,sans-Serif" font-size="10.00">_internal/utility.hpp</text>
</a>
</g>
</g>
<!-- Node3&#45;&gt;Node5 -->
<g id="edge4_Node000003_Node000005" class="edge">
<title>Node3&#45;&gt;Node5</title>
<g id="a_edge4_Node000003_Node000005"><a xlink:title=" ">
<path fill="none" stroke="#63b8ff" d="M1913.41,-143.97C1918.56,-134.94 1925.31,-123.11 1931.26,-112.69"/>
<polygon fill="#63b8ff" stroke="#63b8ff" points="1934.18,-114.62 1936.1,-104.2 1928.1,-111.15 1934.18,-114.62"/>
</a>
</g>
</g>
<!-- Node3&#45;&gt;Node6 -->
<g id="edge11_Node000003_Node000006" class="edge">
<title>Node3&#45;&gt;Node6</title>
<g id="a_edge11_Node000003_Node000006"><a xlink:title=" ">
<path fill="none" stroke="#63b8ff" d="M1850.59,-158C1794.88,-155.3 1707.52,-144.88 1642.12,-108.25 1620.23,-95.99 1626.5,-77.86 1604.12,-66.5 1529.46,-28.61 1274.46,-19.18 1175.67,-16.93"/>
<polygon fill="#63b8ff" stroke="#63b8ff" points="1176,-13.43 1165.93,-16.72 1175.85,-20.43 1176,-13.43"/>
</a>
</g>
</g>
<!-- Node3&#45;&gt;Node7 -->
<g id="edge12_Node000003_Node000007" class="edge">
<title>Node3&#45;&gt;Node7</title>
<g id="a_edge12_Node000003_Node000007"><a xlink:title=" ">
<path fill="none" stroke="#63b8ff" d="M1942.54,-143.87C1962.45,-135.14 1986.75,-122.89 2006.12,-108.25 2026.14,-93.12 2022.48,-79.18 2044.12,-66.5 2101.71,-32.76 2180.27,-21.68 2225.36,-18.03"/>
<polygon fill="#63b8ff" stroke="#63b8ff" points="2225.37,-21.54 2235.09,-17.33 2224.87,-14.56 2225.37,-21.54"/>
</a>
</g>
</g>
<!-- Node3&#45;&gt;Node9 -->
<g id="edge15_Node000003_Node000009" class="edge">
<title>Node3&#45;&gt;Node9</title>
<g id="a_edge15_Node000003_Node000009"><a xlink:title=" ">
<path fill="none" stroke="#63b8ff" d="M1959.59,-157.2C2150.21,-152.46 2780.45,-134.89 2867.12,-108.25 2919.38,-92.19 2972.14,-54.27 2999.65,-32.46"/>
<polygon fill="#63b8ff" stroke="#63b8ff" points="3001.85,-35.18 3007.42,-26.17 2997.45,-29.74 3001.85,-35.18"/>
</a>
</g>
</g>
<!-- Node3&#45;&gt;Node11 -->
<g id="edge13_Node000003_Node000011" class="edge">
<title>Node3&#45;&gt;Node11</title>
<g id="a_edge13_Node000003_Node000011"><a xlink:title=" ">
<path fill="none" stroke="#63b8ff" d="M1959.65,-159.07C2129.41,-160.27 2646.65,-159.53 2805.12,-108.25 2808.71,-107.09 2812.29,-105.41 2815.68,-103.51"/>
<polygon fill="#63b8ff" stroke="#63b8ff" points="2817.29,-106.63 2823.8,-98.27 2813.5,-100.75 2817.29,-106.63"/>
</a>
</g>
</g>
<!-- Node12 -->
<g id="Node000012" class="node">
<title>Node12</title>
<g id="a_Node000012"><a xlink:title=" ">
<polygon fill="#e0e0e0" stroke="#999999" points="1594.88,-97 1523.38,-97 1523.38,-77.75 1594.88,-77.75 1594.88,-97"/>
<text text-anchor="middle" x="1559.12" y="-83.5" font-family="Helvetica,sans-Serif" font-size="10.00">initializer_list</text>
</a>
</g>
</g>
<!-- Node3&#45;&gt;Node12 -->
<g id="edge14_Node000003_Node000012" class="edge">
<title>Node3&#45;&gt;Node12</title>
<g id="a_edge14_Node000003_Node000012"><a xlink:title=" ">
<path fill="none" stroke="#63b8ff" d="M1850.63,-152.73C1790.66,-145.58 1691.81,-131.42 1609.12,-108.25 1602.67,-106.44 1595.91,-104.09 1589.51,-101.63"/>
<polygon fill="#63b8ff" stroke="#63b8ff" points="1591.21,-98.54 1580.63,-98.05 1588.6,-105.03 1591.21,-98.54"/>
</a>
</g>
</g>
<!-- Node13 -->
<g id="Node000013" class="node">
<title>Node13</title>
<g id="a_Node000013"><a xlink:title=" ">
<polygon fill="#e0e0e0" stroke="#999999" points="1689.38,-97 1650.88,-97 1650.88,-77.75 1689.38,-77.75 1689.38,-97"/>
<text text-anchor="middle" x="1670.12" y="-83.5" font-family="Helvetica,sans-Serif" font-size="10.00">utility</text>
</a>
</g>
</g>
<!-- Node3&#45;&gt;Node13 -->
<g id="edge16_Node000003_Node000013" class="edge">
<title>Node3&#45;&gt;Node13</title>
<g id="a_edge16_Node000003_Node000013"><a xlink:title=" ">
<path fill="none" stroke="#63b8ff" d="M1850.53,-151.04C1807.67,-143.84 1747.25,-130.65 1698.12,-108.25 1695.42,-107.02 1692.71,-105.51 1690.09,-103.88"/>
<polygon fill="#63b8ff" stroke="#63b8ff" points="1692.15,-101.05 1681.95,-98.2 1688.14,-106.79 1692.15,-101.05"/>
</a>
</g>
</g>
<!-- Node14 -->
<g id="Node000014" class="node">
<title>Node14</title>
<g id="a_Node000014"><a xlink:title=" ">
<polygon fill="#e0e0e0" stroke="#999999" points="1837.12,-102.62 1707.12,-102.62 1707.12,-72.12 1837.12,-72.12 1837.12,-102.62"/>
<text text-anchor="start" x="1715.12" y="-89.12" font-family="Helvetica,sans-Serif" font-size="10.00">typed_linear_algebra</text>
<text text-anchor="middle" x="1772.12" y="-77.88" font-family="Helvetica,sans-Serif" font-size="10.00">_internal/algorithm/add.tpp</text>
</a>
</g>
</g>
<!-- Node3&#45;&gt;Node14 -->
<g id="edge17_Node000003_Node000014" class="edge">
<title>Node3&#45;&gt;Node14</title>
<g id="a_edge17_Node000003_Node000014"><a xlink:title=" ">
<path fill="none" stroke="#63b8ff" d="M1877.24,-143.8C1857.74,-133.51 1831.44,-119.65 1810.04,-108.36"/>
<polygon fill="#63b8ff" stroke="#63b8ff" points="1811.79,-105.33 1801.31,-103.76 1808.52,-111.52 1811.79,-105.33"/>
</a>
</g>
</g>
<!-- Node15 -->
<g id="Node000015" class="node">
<title>Node15</title>
<g id="a_Node000015"><a xlink:title=" ">
<polygon fill="#e0e0e0" stroke="#999999" points="2193,-102.62 2053.25,-102.62 2053.25,-72.12 2193,-72.12 2193,-102.62"/>
<text text-anchor="start" x="2061.25" y="-89.12" font-family="Helvetica,sans-Serif" font-size="10.00">typed_linear_algebra</text>
<text text-anchor="middle" x="2123.12" y="-77.88" font-family="Helvetica,sans-Serif" font-size="10.00">_internal/algorithm/divide.tpp</text>
</a>
</g>
</g>
<!-- Node3&#45;&gt;Node15 -->
<g id="edge18_Node000003_Node000015" class="edge">
<title>Node3&#45;&gt;Node15</title>
<g id="a_edge18_Node000003_Node000015"><a xlink:title=" ">
<path fill="none" stroke="#63b8ff" d="M1950.82,-143.8C1984.54,-132.95 2030.63,-118.13 2066.65,-106.54"/>
<polygon fill="#63b8ff" stroke="#63b8ff" points="2067.6,-109.91 2076.04,-103.52 2065.45,-103.25 2067.6,-109.91"/>
</a>
</g>
</g>
<!-- Node16 -->
<g id="Node000016" class="node">
<title>Node16</title>
<g id="a_Node000016"><a xlink:title=" ">
<polygon fill="#e0e0e0" stroke="#999999" points="2333,-108.25 2211.25,-108.25 2211.25,-66.5 2333,-66.5 2333,-108.25"/>
<text text-anchor="start" x="2219.25" y="-94.75" font-family="Helvetica,sans-Serif" font-size="10.00">typed_linear_algebra</text>
<text text-anchor="start" x="2219.25" y="-83.5" font-family="Helvetica,sans-Serif" font-size="10.00">_internal/algorithm/equal</text>
<text text-anchor="middle" x="2272.12" y="-72.25" font-family="Helvetica,sans-Serif" font-size="10.00">_to.tpp</text>
</a>
</g>
</g>
<!-- Node3&#45;&gt;Node16 -->
<g id="edge19_Node000003_Node000016" class="edge">
<title>Node3&#45;&gt;Node16</title>
<g id="a_edge19_Node000003_Node000016"><a xlink:title=" ">
<path fill="none" stroke="#63b8ff" d="M1959.67,-151.09C2017.11,-142.89 2110.37,-128.42 2199.62,-108.7"/>
<polygon fill="#63b8ff" stroke="#63b8ff" points="2200.29,-112.14 2209.29,-106.54 2198.76,-105.31 2200.29,-112.14"/>
</a>
</g>
</g>
<!-- Node17 -->
<g id="Node000017" class="node">
<title>Node17</title>
<g id="a_Node000017"><a xlink:title=" ">
<polygon fill="#e0e0e0" stroke="#999999" points="2475.5,-108.25 2350.75,-108.25 2350.75,-66.5 2475.5,-66.5 2475.5,-108.25"/>
<text text-anchor="start" x="2358.75" y="-94.75" font-family="Helvetica,sans-Serif" font-size="10.00">typed_linear_algebra</text>
<text text-anchor="start" x="2358.75" y="-83.5" font-family="Helvetica,sans-Serif" font-size="10.00">_internal/algorithm/matrix</text>
<text text-anchor="middle" x="2413.12" y="-72.25" font-family="Helvetica,sans-Serif" font-size="10.00">_product.tpp</text>
</a>
</g>
</g>
<!-- Node3&#45;&gt;Node17 -->
<g id="edge20_Node000003_Node000017" class="edge">
<title>Node3&#45;&gt;Node17</title>
<g id="a_edge20_Node000003_Node000017"><a xlink:title=" ">
<path fill="none" stroke="#63b8ff" d="M1959.71,-155.01C2040.74,-149.23 2197.69,-135.68 2339.48,-108.62"/>
<polygon fill="#63b8ff" stroke="#63b8ff" points="2339.9,-112.1 2349.05,-106.76 2338.57,-105.23 2339.9,-112.1"/>
</a>
</g>
</g>
<!-- Node18 -->
<g id="Node000018" class="node">
<title>Node18</title>
<g id="a_Node000018"><a xlink:title=" ">
<polygon fill="#e0e0e0" stroke="#999999" points="2640.38,-102.62 2493.88,-102.62 2493.88,-72.12 2640.38,-72.12 2640.38,-102.62"/>
<text text-anchor="start" x="2501.88" y="-89.12" font-family="Helvetica,sans-Serif" font-size="10.00">typed_linear_algebra</text>
<text text-anchor="middle" x="2567.12" y="-77.88" font-family="Helvetica,sans-Serif" font-size="10.00">_internal/algorithm/product.tpp</text>
</a>
</g>
</g>
<!-- Node3&#45;&gt;Node18 -->
<g id="edge21_Node000003_Node000018" class="edge">
<title>Node3&#45;&gt;Node18</title>
<g id="a_edge21_Node000003_Node000018"><a xlink:title=" ">
<path fill="none" stroke="#63b8ff" d="M1959.74,-156.46C2062.82,-152.02 2292.9,-139.27 2484.12,-108.25 2489.11,-107.44 2494.25,-106.49 2499.4,-105.46"/>
<polygon fill="#63b8ff" stroke="#63b8ff" points="2500.11,-108.89 2509.17,-103.4 2498.66,-102.04 2500.11,-108.89"/>
</a>
</g>
</g>
<!-- Node19 -->
<g id="Node000019" class="node">
<title>Node19</title>
<g id="a_Node000019"><a xlink:title=" ">
<polygon fill="#e0e0e0" stroke="#999999" points="2795.88,-102.62 2658.38,-102.62 2658.38,-72.12 2795.88,-72.12 2795.88,-102.62"/>
<text text-anchor="start" x="2666.38" y="-89.12" font-family="Helvetica,sans-Serif" font-size="10.00">typed_linear_algebra</text>
<text text-anchor="middle" x="2727.12" y="-77.88" font-family="Helvetica,sans-Serif" font-size="10.00">_internal/algorithm/scale.tpp</text>
</a>
</g>
</g>
<!-- Node3&#45;&gt;Node19 -->
<g id="edge22_Node000003_Node000019" class="edge">
<title>Node3&#45;&gt;Node19</title>
<g id="a_edge22_Node000003_Node000019"><a xlink:title=" ">
<path fill="none" stroke="#63b8ff" d="M1959.65,-158.2C2083.16,-156.8 2393.45,-149.11 2649.12,-108.25 2653.99,-107.47 2659,-106.53 2664.01,-105.49"/>
<polygon fill="#63b8ff" stroke="#63b8ff" points="2664.47,-108.97 2673.47,-103.39 2662.95,-102.14 2664.47,-108.97"/>
</a>
</g>
</g>
<!-- Node20 -->
<g id="Node000020" class="node">
<title>Node20</title>
<g id="a_Node000020"><a xlink:title=" ">
<polygon fill="#e0e0e0" stroke="#999999" points="830.5,-102.62 675.75,-102.62 675.75,-72.12 830.5,-72.12 830.5,-102.62"/>
<text text-anchor="start" x="683.75" y="-89.12" font-family="Helvetica,sans-Serif" font-size="10.00">typed_linear_algebra</text>
<text text-anchor="middle" x="753.12" y="-77.88" font-family="Helvetica,sans-Serif" font-size="10.00">_internal/algorithm/substract.tpp</text>
</a>
</g>
</g>
<!-- Node3&#45;&gt;Node20 -->
<g id="edge23_Node000003_Node000020" class="edge">
<title>Node3&#45;&gt;Node20</title>
<g id="a_edge23_Node000003_Node000020"><a xlink:title=" ">
<path fill="none" stroke="#63b8ff" d="M1850.74,-157.21C1662.37,-152.55 1038.54,-135.38 840.12,-108.25 834.18,-107.44 828.04,-106.41 821.9,-105.26"/>
<polygon fill="#63b8ff" stroke="#63b8ff" points="822.87,-101.89 812.38,-103.37 821.5,-108.75 822.87,-101.89"/>
</a>
</g>
</g>
<!-- Node21 -->
<g id="Node000021" class="node">
<title>Node21</title>
<g id="a_Node000021"><a xlink:title=" ">
<polygon fill="#e0e0e0" stroke="#999999" points="1011.25,-102.62 849,-102.62 849,-72.12 1011.25,-72.12 1011.25,-102.62"/>
<text text-anchor="start" x="857" y="-89.12" font-family="Helvetica,sans-Serif" font-size="10.00">typed_linear_algebra</text>
<text text-anchor="middle" x="930.12" y="-77.88" font-family="Helvetica,sans-Serif" font-size="10.00">_internal/algorithm/transposed.tpp</text>
</a>
</g>
</g>
<!-- Node3&#45;&gt;Node21 -->
<g id="edge24_Node000003_Node000021" class="edge">
<title>Node3&#45;&gt;Node21</title>
<g id="a_edge24_Node000003_Node000021"><a xlink:title=" ">
<path fill="none" stroke="#63b8ff" d="M1850.7,-158.44C1711.69,-157.64 1332.46,-151.32 1020.12,-108.25 1014.08,-107.42 1007.84,-106.39 1001.6,-105.25"/>
<polygon fill="#63b8ff" stroke="#63b8ff" points="1002.37,-101.83 991.89,-103.37 1001.04,-108.7 1002.37,-101.83"/>
</a>
</g>
</g>
<!-- Node22 -->
<g id="Node000022" class="node">
<title>Node22</title>
<g id="a_Node000022"><a xlink:title=" ">
<polygon fill="#e0e0e0" stroke="#999999" points="1133.38,-102.62 1028.88,-102.62 1028.88,-72.12 1133.38,-72.12 1133.38,-102.62"/>
<text text-anchor="start" x="1036.88" y="-89.12" font-family="Helvetica,sans-Serif" font-size="10.00">typed_linear_algebra</text>
<text text-anchor="middle" x="1081.12" y="-77.88" font-family="Helvetica,sans-Serif" font-size="10.00">_internal/cast.tpp</text>
</a>
</g>
</g>
<!-- Node3&#45;&gt;Node22 -->
<g id="edge25_Node000003_Node000022" class="edge">
<title>Node3&#45;&gt;Node22</title>
<g id="a_edge25_Node000003_Node000022"><a xlink:title=" ">
<path fill="none" stroke="#63b8ff" d="M1850.72,-156.64C1699.98,-151.21 1279.07,-134.12 1143.12,-108.25 1139.79,-107.62 1136.38,-106.86 1132.97,-106.01"/>
<polygon fill="#63b8ff" stroke="#63b8ff" points="1134.14,-102.7 1123.58,-103.46 1132.31,-109.46 1134.14,-102.7"/>
</a>
</g>
</g>
<!-- Node23 -->
<g id="Node000023" class="node">
<title>Node23</title>
<g id="a_Node000023"><a xlink:title=" ">
<polygon fill="#e0e0e0" stroke="#999999" points="1256.38,-102.62 1151.88,-102.62 1151.88,-72.12 1256.38,-72.12 1256.38,-102.62"/>
<text text-anchor="start" x="1159.88" y="-89.12" font-family="Helvetica,sans-Serif" font-size="10.00">typed_linear_algebra</text>
<text text-anchor="middle" x="1204.12" y="-77.88" font-family="Helvetica,sans-Serif" font-size="10.00">_internal/format.tpp</text>
</a>
</g>
</g>
<!-- Node3&#45;&gt;Node23 -->
<g id="edge26_Node000003_Node000023" class="edge">
<title>Node3&#45;&gt;Node23</title>
<g id="a_edge26_Node000003_Node000023"><a xlink:title=" ">
<path fill="none" stroke="#63b8ff" d="M1850.69,-158.45C1739.68,-157.41 1479.58,-150.26 1266.12,-108.25 1262.95,-107.63 1259.72,-106.89 1256.47,-106.08"/>
<polygon fill="#63b8ff" stroke="#63b8ff" points="1257.49,-102.74 1246.93,-103.48 1255.65,-109.49 1257.49,-102.74"/>
</a>
</g>
</g>
<!-- Node24 -->
<g id="Node000024" class="node">
<title>Node24</title>
<g id="a_Node000024"><a xlink:title=" ">
<polygon fill="#e0e0e0" stroke="#999999" points="1379.38,-102.62 1274.88,-102.62 1274.88,-72.12 1379.38,-72.12 1379.38,-102.62"/>
<text text-anchor="start" x="1282.88" y="-89.12" font-family="Helvetica,sans-Serif" font-size="10.00">typed_linear_algebra</text>
<text text-anchor="middle" x="1327.12" y="-77.88" font-family="Helvetica,sans-Serif" font-size="10.00">_internal/tuple.tpp</text>
</a>
</g>
</g>
<!-- Node3&#45;&gt;Node24 -->
<g id="edge27_Node000003_Node000024" class="edge">
<title>Node3&#45;&gt;Node24</title>
<g id="a_edge27_Node000003_Node000024"><a xlink:title=" ">
<path fill="none" stroke="#63b8ff" d="M1850.58,-157.1C1755.65,-153.8 1554.3,-142.96 1388.12,-108.25 1385.16,-107.63 1382.14,-106.92 1379.1,-106.14"/>
<polygon fill="#63b8ff" stroke="#63b8ff" points="1380.17,-102.81 1369.6,-103.49 1378.29,-109.55 1380.17,-102.81"/>
</a>
</g>
</g>
<!-- Node25 -->
<g id="Node000025" class="node">
<title>Node25</title>
<g id="a_Node000025"><a xlink:title=" ">
<polygon fill="#e0e0e0" stroke="#999999" points="1504.88,-108.25 1397.38,-108.25 1397.38,-66.5 1504.88,-66.5 1504.88,-108.25"/>
<text text-anchor="start" x="1405.38" y="-94.75" font-family="Helvetica,sans-Serif" font-size="10.00">typed_linear_algebra</text>
<text text-anchor="start" x="1405.38" y="-83.5" font-family="Helvetica,sans-Serif" font-size="10.00">_internal/typed_linear</text>
<text text-anchor="middle" x="1451.12" y="-72.25" font-family="Helvetica,sans-Serif" font-size="10.00">_algebra.tpp</text>
</a>
</g>
</g>
<!-- Node3&#45;&gt;Node25 -->
<g id="edge28_Node000003_Node000025" class="edge">
<title>Node3&#45;&gt;Node25</title>
<g id="a_edge28_Node000003_Node000025"><a xlink:title=" ">
<path fill="none" stroke="#63b8ff" d="M1850.52,-154.56C1776.69,-148.57 1640.85,-135.15 1516.48,-108.57"/>
<polygon fill="#63b8ff" stroke="#63b8ff" points="1517.25,-105.15 1506.73,-106.45 1515.76,-111.99 1517.25,-105.15"/>
</a>
</g>
</g>
<!-- Node5&#45;&gt;Node4 -->
<g id="edge5_Node000005_Node000004" class="edge">
<title>Node5&#45;&gt;Node4</title>
<g id="a_edge5_Node000005_Node000004"><a xlink:title=" ">
<path fill="none" stroke="#63b8ff" d="M1928.55,-71.85C1917.5,-62.16 1902.77,-49.25 1890.29,-38.31"/>
<polygon fill="#63b8ff" stroke="#63b8ff" points="1892.65,-35.72 1882.82,-31.76 1888.03,-40.98 1892.65,-35.72"/>
</a>
</g>
</g>
<!-- Node5&#45;&gt;Node6 -->
<g id="edge6_Node000005_Node000006" class="edge">
<title>Node5&#45;&gt;Node6</title>
<g id="a_edge6_Node000005_Node000006"><a xlink:title=" ">
<path fill="none" stroke="#63b8ff" d="M1892.42,-74.5C1877.51,-71.49 1861.24,-68.54 1846.12,-66.5 1592.06,-32.15 1283.47,-20.47 1175.6,-17.28"/>
<polygon fill="#63b8ff" stroke="#63b8ff" points="1175.94,-13.79 1165.84,-17 1175.74,-20.78 1175.94,-13.79"/>
</a>
</g>
</g>
<!-- Node5&#45;&gt;Node7 -->
<g id="edge7_Node000005_Node000007" class="edge">
<title>Node5&#45;&gt;Node7</title>
<g id="a_edge7_Node000005_Node000007"><a xlink:title=" ">
<path fill="none" stroke="#63b8ff" d="M1991.85,-71.71C1998.3,-69.86 2004.86,-68.07 2011.12,-66.5 2086.9,-47.52 2176.99,-30.83 2225.66,-22.29"/>
<polygon fill="#63b8ff" stroke="#63b8ff" points="2226.08,-25.77 2235.33,-20.61 2224.88,-18.88 2226.08,-25.77"/>
</a>
</g>
</g>
<!-- Node8 -->
<g id="Node000008" class="node">
<title>Node8</title>
<g id="a_Node000008"><a xlink:title=" ">
<polygon fill="#e0e0e0" stroke="#999999" points="1993.12,-24.88 1935.12,-24.88 1935.12,-5.63 1993.12,-5.63 1993.12,-24.88"/>
<text text-anchor="middle" x="1964.12" y="-11.38" font-family="Helvetica,sans-Serif" font-size="10.00">functional</text>
</a>
</g>
</g>
<!-- Node5&#45;&gt;Node8 -->
<g id="edge8_Node000005_Node000008" class="edge">
<title>Node5&#45;&gt;Node8</title>
<g id="a_edge8_Node000005_Node000008"><a xlink:title=" ">
<path fill="none" stroke="#63b8ff" d="M1949.06,-71.85C1951.87,-61.47 1955.68,-47.4 1958.77,-36.01"/>
<polygon fill="#63b8ff" stroke="#63b8ff" points="1962.12,-37.04 1961.36,-26.47 1955.36,-35.2 1962.12,-37.04"/>
</a>
</g>
</g>
<!-- Node5&#45;&gt;Node9 -->
<g id="edge9_Node000005_Node000009" class="edge">
<title>Node5&#45;&gt;Node9</title>
<g id="a_edge9_Node000005_Node000009"><a xlink:title=" ">
<path fill="none" stroke="#63b8ff" d="M1997.81,-74.28C2012.71,-71.27 2028.99,-68.38 2044.12,-66.5 2371.78,-25.89 2456.45,-48.58 2786.12,-30.5 2858.99,-26.5 2944.63,-21.08 2989.02,-18.21"/>
<polygon fill="#63b8ff" stroke="#63b8ff" points="2989.14,-21.71 2998.89,-17.57 2988.69,-14.73 2989.14,-21.71"/>
</a>
</g>
</g>
<!-- Node5&#45;&gt;Node10 -->
<g id="edge10_Node000005_Node000010" class="edge">
<title>Node5&#45;&gt;Node10</title>
<g id="a_edge10_Node000005_Node000010"><a xlink:title=" ">
<path fill="none" stroke="#63b8ff" d="M1997.84,-74.51C2012.74,-71.5 2029.01,-68.55 2044.12,-66.5 2292.7,-32.79 2594.07,-20.83 2703.68,-17.42"/>
<polygon fill="#63b8ff" stroke="#63b8ff" points="2703.79,-20.91 2713.68,-17.11 2703.58,-13.92 2703.79,-20.91"/>
</a>
</g>
</g>
<!-- Node28&#45;&gt;Node6 -->
<g id="edge38_Node000028_Node000006" class="edge">
<title>Node28&#45;&gt;Node6</title>
<g id="a_edge38_Node000028_Node000006"><a xlink:title=" ">
<path fill="none" stroke="#63b8ff" d="M443.5,-217.96C485.09,-214.68 546.78,-204.63 591.12,-174.75 639.87,-141.9 616.49,-96.35 667.12,-66.5 739.49,-23.84 997.08,-17.28 1096.54,-16.36"/>
<polygon fill="#63b8ff" stroke="#63b8ff" points="1096.38,-19.86 1106.35,-16.29 1096.32,-12.86 1096.38,-19.86"/>
</a>
</g>
</g>
<!-- Node29 -->
<g id="Node000029" class="node">
<title>Node29</title>
<g id="a_Node000029"><a xlink:title=" ">
<polygon fill="#e0e0e0" stroke="#999999" points="102.25,-174.75 0,-174.75 0,-144.25 102.25,-144.25 102.25,-174.75"/>
<text text-anchor="start" x="8" y="-161.25" font-family="Helvetica,sans-Serif" font-size="10.00">mp&#45;units/framework</text>
<text text-anchor="middle" x="51.12" y="-150" font-family="Helvetica,sans-Serif" font-size="10.00">/quantity.h</text>
</a>
</g>
</g>
<!-- Node28&#45;&gt;Node29 -->
<g id="edge39_Node000028_Node000029" class="edge">
<title>Node28&#45;&gt;Node29</title>
<g id="a_edge39_Node000028_Node000029"><a xlink:title=" ">
<path fill="none" stroke="#63b8ff" d="M352.7,-213.44C298.22,-206.07 203.92,-192.54 113.72,-175.17"/>
<polygon fill="#63b8ff" stroke="#63b8ff" points="114.42,-171.74 103.94,-173.26 113.09,-178.61 114.42,-171.74"/>
</a>
</g>
</g>
<!-- Node30 -->
<g id="Node000030" class="node">
<title>Node30</title>
<g id="a_Node000030"><a xlink:title=" ">
<polygon fill="#e0e0e0" stroke="#999999" points="222.25,-174.75 120,-174.75 120,-144.25 222.25,-144.25 222.25,-174.75"/>
<text text-anchor="start" x="128" y="-161.25" font-family="Helvetica,sans-Serif" font-size="10.00">mp&#45;units/framework</text>
<text text-anchor="middle" x="171.12" y="-150" font-family="Helvetica,sans-Serif" font-size="10.00">/quantity_point.h</text>
</a>
</g>
</g>
<!-- Node28&#45;&gt;Node30 -->
<g id="edge40_Node000028_Node000030" class="edge">
<title>Node28&#45;&gt;Node30</title>
<g id="a_edge40_Node000028_Node000030"><a xlink:title=" ">
<path fill="none" stroke="#63b8ff" d="M363.15,-210.3C328.68,-201.36 275.24,-187.5 233.48,-176.67"/>
<polygon fill="#63b8ff" stroke="#63b8ff" points="234.61,-173.35 224.05,-174.23 232.85,-180.12 234.61,-173.35"/>
</a>
</g>
</g>
<!-- Node31 -->
<g id="Node000031" class="node">
<title>Node31</title>
<g id="a_Node000031"><a xlink:title=" ">
<polygon fill="#e0e0e0" stroke="#999999" points="326,-169.12 240.25,-169.12 240.25,-149.88 326,-149.88 326,-169.12"/>
<text text-anchor="middle" x="283.12" y="-155.62" font-family="Helvetica,sans-Serif" font-size="10.00">mp&#45;units/math.h</text>
</a>
</g>
</g>
<!-- Node28&#45;&gt;Node31 -->
<g id="edge41_Node000028_Node000031" class="edge">
<title>Node28&#45;&gt;Node31</title>
<g id="a_edge41_Node000028_Node000031"><a xlink:title=" ">
<path fill="none" stroke="#63b8ff" d="M380.66,-210.43C362.08,-200.92 332.44,-185.75 310.71,-174.62"/>
<polygon fill="#63b8ff" stroke="#63b8ff" points="312.6,-171.66 302.1,-170.22 309.41,-177.89 312.6,-171.66"/>
</a>
</g>
</g>
<!-- Node32 -->
<g id="Node000032" class="node">
<title>Node32</title>
<g id="a_Node000032"><a xlink:title=" ">
<polygon fill="#e0e0e0" stroke="#999999" points="452.62,-174.75 343.62,-174.75 343.62,-144.25 452.62,-144.25 452.62,-174.75"/>
<text text-anchor="start" x="351.62" y="-161.25" font-family="Helvetica,sans-Serif" font-size="10.00">mp&#45;units/systems/isq</text>
<text text-anchor="middle" x="398.12" y="-150" font-family="Helvetica,sans-Serif" font-size="10.00">/thermodynamics.h</text>
</a>
</g>
</g>
<!-- Node28&#45;&gt;Node32 -->
<g id="edge42_Node000028_Node000032" class="edge">
<title>Node28&#45;&gt;Node32</title>
<g id="a_edge42_Node000028_Node000032"><a xlink:title=" ">
<path fill="none" stroke="#63b8ff" d="M398.12,-210.43C398.12,-203.98 398.12,-194.91 398.12,-186.26"/>
<polygon fill="#63b8ff" stroke="#63b8ff" points="401.63,-186.55 398.13,-176.55 394.63,-186.55 401.63,-186.55"/>
</a>
</g>
</g>
<!-- Node33 -->
<g id="Node000033" class="node">
<title>Node33</title>
<g id="a_Node000033"><a xlink:title=" ">
<polygon fill="#e0e0e0" stroke="#999999" points="581.75,-169.12 470.5,-169.12 470.5,-149.88 581.75,-149.88 581.75,-169.12"/>
<text text-anchor="middle" x="526.12" y="-155.62" font-family="Helvetica,sans-Serif" font-size="10.00">mp&#45;units/systems/si.h</text>
</a>
</g>
</g>
<!-- Node28&#45;&gt;Node33 -->
<g id="edge43_Node000028_Node000033" class="edge">
<title>Node28&#45;&gt;Node33</title>
<g id="a_edge43_Node000028_Node000033"><a xlink:title=" ">
<path fill="none" stroke="#63b8ff" d="M417.84,-210.3C438.76,-200.68 472.06,-185.37 496.22,-174.26"/>
<polygon fill="#63b8ff" stroke="#63b8ff" points="497.6,-177.47 505.22,-170.12 494.67,-171.12 497.6,-177.47"/>
</a>
</g>
</g>
</g>
</svg>

<g id="navigator" transform="translate(0 0)" fill="#404254">
  <rect fill="#f2f5e9" fill-opacity="0.5" stroke="#606060" stroke-width=".5" x="0" y="0" width="60" height="60"/>
  <use id="zoomplus" xlink:href="#zoomPlus" x="17" y="9" onmousedown="handleZoom(evt,'in')"/>
  <use id="zoomminus" xlink:href="#zoomMin" x="42" y="9" onmousedown="handleZoom(evt,'out')"/>
  <use id="reset" xlink:href="#resetDef" x="30" y="36" onmousedown="handleReset()"/>
   <use id="arrowup" xlink:href="#arrowUp" x="0" y="0" onmousedown="handlePan(0,-1)"/>
  <use id="arrowright" xlink:href="#arrowRight" x="0" y="0" onmousedown="handlePan(1,0)"/>
  <use id="arrowdown" xlink:href="#arrowDown" x="0" y="0" onmousedown="handlePan(0,1)"/>
  <use id="arrowleft" xlink:href="#arrowLeft" x="0" y="0" onmousedown="handlePan(-1,0)"/>
</g>
<svg viewBox="0 0 15 15" width="100%" height="30px" preserveAspectRatio="xMaxYMin meet">
 <g id="arrow_out" transform="scale(0.3 0.3)">
  <a xlink:href="unit__eigen_2fcarouge_2linalg_8hpp__incl_org.svg" target="_base">
   <rect id="button" ry="5" rx="5" y="6" x="6" height="38" width="38"
        fill="#f2f5e9" fill-opacity="0.5" stroke="#606060" stroke-width="1.0"/>
   <path id="arrow"
     d="M 11.500037,31.436501 C 11.940474,20.09759 22.043105,11.32322 32.158766,21.979434 L 37.068811,17.246167 C 37.068811,17.246167 37.088388,32 37.088388,32 L 22.160133,31.978069 C 22.160133,31.978069 26.997745,27.140456 26.997745,27.140456 C 18.528582,18.264221 13.291696,25.230495 11.500037,31.436501 z"
     style="fill:#404040;"/>
  </a>
 </g>
</svg>

<style type='text/css'>
<![CDATA[
[data-mouse-over-selected='false'] { opacity: 0.7; }
[data-mouse-over-selected='true']  { opacity: 1.0; }
]]>
</style>
<script type="application/ecmascript"><![CDATA[
document.addEventListener('DOMContentLoaded', (event) => {
  highlightEdges();
  highlightAdjacentNodes();
});
]]></script>
</svg>
