<?xml version="1.0" encoding="UTF-8" standalone="no"?>
<!DOCTYPE svg PUBLIC "-//W3C//DTD SVG 1.1//EN"
 "http://www.w3.org/Graphics/SVG/1.1/DTD/svg11.dtd">
<!-- Generated by graphviz version 12.2.0 (20241103.1931)
 -->
<!-- Title: /github/workspace/support/unit_eigen/fcarouge/linalg.hpp Pages: 1 -->
<svg width="3555pt" height="316pt"
 viewBox="0.00 0.00 3555.09 315.75" xmlns="http://www.w3.org/2000/svg" xmlns:xlink="http://www.w3.org/1999/xlink">
<g id="graph0" class="graph" transform="scale(1 1) rotate(0) translate(4 311.75)">
<title>/github/workspace/support/unit_eigen/fcarouge/linalg.hpp</title>
<!-- Node1 -->
<g id="Node000001" class="node">
<title>Node1</title>
<g id="a_Node000001"><a xlink:title="Indexed&#45;based linear algebra with mp&#45;units with Eigen implementations.">
<polygon fill="#999999" stroke="#666666" points="3007.09,-307.75 2859.84,-307.75 2859.84,-277.25 3007.09,-277.25 3007.09,-307.75"/>
<text text-anchor="start" x="2867.84" y="-294.25" font-family="Helvetica,sans-Serif" font-size="10.00">/github/workspace/support</text>
<text text-anchor="middle" x="2933.46" y="-283" font-family="Helvetica,sans-Serif" font-size="10.00">/unit_eigen/fcarouge/linalg.hpp</text>
</a>
</g>
</g>
<!-- Node2 -->
<g id="Node000002" class="node">
<title>Node2</title>
<g id="a_Node000002"><a xlink:href="eigen_8hpp.xhtml" target="_top" xlink:title="Linear algebra facade for Eigen3 third party implementation.">
<polygon fill="white" stroke="#666666" points="2760.34,-235.62 2662.59,-235.62 2662.59,-216.38 2760.34,-216.38 2760.34,-235.62"/>
<text text-anchor="middle" x="2711.46" y="-222.12" font-family="Helvetica,sans-Serif" font-size="10.00">fcarouge/eigen.hpp</text>
</a>
</g>
</g>
<!-- Node1&#45;&gt;Node2 -->
<g id="edge1_Node000001_Node000002" class="edge">
<title>Node1&#45;&gt;Node2</title>
<g id="a_edge1_Node000001_Node000002"><a xlink:title=" ">
<path fill="none" stroke="#63b8ff" d="M2882.81,-276.78C2843.73,-265.43 2790.3,-249.91 2753.55,-239.23"/>
<polygon fill="#63b8ff" stroke="#63b8ff" points="2754.75,-235.93 2744.17,-236.5 2752.8,-242.65 2754.75,-235.93"/>
</a>
</g>
</g>
<!-- Node3 -->
<g id="Node000003" class="node">
<title>Node3</title>
<g id="a_Node000003"><a xlink:href="typed__linear__algebra_8hpp.xhtml" target="_top" xlink:title="Typed linear algebra implementation.">
<polygon fill="white" stroke="#666666" points="1676.59,-174.75 1568.34,-174.75 1568.34,-144.25 1676.59,-144.25 1676.59,-174.75"/>
<text text-anchor="start" x="1576.34" y="-161.25" font-family="Helvetica,sans-Serif" font-size="10.00">fcarouge/typed_linear</text>
<text text-anchor="middle" x="1622.46" y="-150" font-family="Helvetica,sans-Serif" font-size="10.00">_algebra.hpp</text>
</a>
</g>
</g>
<!-- Node1&#45;&gt;Node3 -->
<g id="edge40_Node000001_Node000003" class="edge">
<title>Node1&#45;&gt;Node3</title>
<g id="a_edge40_Node000001_Node000003"><a xlink:title=" ">
<path fill="none" stroke="#63b8ff" d="M2859.7,-284.13C2626.87,-260.86 1909.96,-189.23 1688.39,-167.09"/>
<polygon fill="#63b8ff" stroke="#63b8ff" points="1688.79,-163.61 1678.49,-166.1 1688.09,-170.58 1688.79,-163.61"/>
</a>
</g>
</g>
<!-- Node7 -->
<g id="Node000007" class="node">
<title>Node7</title>
<g id="a_Node000007"><a xlink:title=" ">
<polygon fill="#e0e0e0" stroke="#999999" points="2641.59,-24.88 2593.34,-24.88 2593.34,-5.63 2641.59,-5.63 2641.59,-24.88"/>
<text text-anchor="middle" x="2617.46" y="-11.38" font-family="Helvetica,sans-Serif" font-size="10.00">cstddef</text>
</a>
</g>
</g>
<!-- Node1&#45;&gt;Node7 -->
<g id="edge54_Node000001_Node000007" class="edge">
<title>Node1&#45;&gt;Node7</title>
<g id="a_edge54_Node000001_Node000007"><a xlink:title=" ">
<path fill="none" stroke="#63b8ff" d="M2931.46,-277.1C2926.78,-248.44 2912.65,-183.59 2876.46,-144.25 2851.7,-117.33 2833.71,-127.26 2802.46,-108.25 2775.95,-92.11 2773.69,-81.42 2746.46,-66.5 2706.87,-44.8 2693.4,-47.23 2651.46,-30.5 2650.68,-30.19 2649.89,-29.87 2649.1,-29.55"/>
<polygon fill="#63b8ff" stroke="#63b8ff" points="2650.62,-26.39 2640.04,-25.83 2647.96,-32.87 2650.62,-26.39"/>
</a>
</g>
</g>
<!-- Node9 -->
<g id="Node000009" class="node">
<title>Node9</title>
<g id="a_Node000009"><a xlink:title=" ">
<polygon fill="#e0e0e0" stroke="#999999" points="2696.96,-24.88 2659.96,-24.88 2659.96,-5.63 2696.96,-5.63 2696.96,-24.88"/>
<text text-anchor="middle" x="2678.46" y="-11.38" font-family="Helvetica,sans-Serif" font-size="10.00">tuple</text>
</a>
</g>
</g>
<!-- Node1&#45;&gt;Node9 -->
<g id="edge55_Node000001_Node000009" class="edge">
<title>Node1&#45;&gt;Node9</title>
<g id="a_edge55_Node000001_Node000009"><a xlink:title=" ">
<path fill="none" stroke="#63b8ff" d="M2934.81,-277.14C2936.71,-249.09 2937.26,-186.11 2909.46,-144.25 2852.26,-58.09 2799.63,-75.41 2706.46,-30.5 2706.36,-30.45 2706.25,-30.4 2706.14,-30.34"/>
<polygon fill="#63b8ff" stroke="#63b8ff" points="2707.75,-27.24 2697.24,-25.93 2704.64,-33.51 2707.75,-27.24"/>
</a>
</g>
</g>
<!-- Node31 -->
<g id="Node000031" class="node">
<title>Node31</title>
<g id="a_Node000031"><a xlink:href="unit_8hpp.xhtml" target="_top" xlink:title="Quantities and units facade for mp&#45;units third party implementation.">
<polygon fill="white" stroke="#666666" points="3051.59,-97 2961.34,-97 2961.34,-77.75 3051.59,-77.75 3051.59,-97"/>
<text text-anchor="middle" x="3006.46" y="-83.5" font-family="Helvetica,sans-Serif" font-size="10.00">fcarouge/unit.hpp</text>
</a>
</g>
</g>
<!-- Node1&#45;&gt;Node31 -->
<g id="edge41_Node000001_Node000031" class="edge">
<title>Node1&#45;&gt;Node31</title>
<g id="a_edge41_Node000001_Node000031"><a xlink:title=" ">
<path fill="none" stroke="#63b8ff" d="M2938.71,-276.89C2951.6,-241.04 2984.8,-148.66 2999.4,-108.04"/>
<polygon fill="#63b8ff" stroke="#63b8ff" points="3002.61,-109.44 3002.7,-98.84 2996.03,-107.07 3002.61,-109.44"/>
</a>
</g>
</g>
<!-- Node39 -->
<g id="Node000039" class="node">
<title>Node39</title>
<g id="a_Node000039"><a xlink:title=" ">
<polygon fill="#e0e0e0" stroke="#999999" points="3117.46,-241.25 2999.46,-241.25 2999.46,-210.75 3117.46,-210.75 3117.46,-241.25"/>
<text text-anchor="start" x="3007.46" y="-227.75" font-family="Helvetica,sans-Serif" font-size="10.00">mp&#45;units/framework</text>
<text text-anchor="middle" x="3058.46" y="-216.5" font-family="Helvetica,sans-Serif" font-size="10.00">/customization_points.h</text>
</a>
</g>
</g>
<!-- Node1&#45;&gt;Node39 -->
<g id="edge52_Node000001_Node000039" class="edge">
<title>Node1&#45;&gt;Node39</title>
<g id="a_edge52_Node000001_Node000039"><a xlink:title=" ">
<path fill="none" stroke="#63b8ff" d="M2961.83,-276.86C2979.09,-267.96 3001.36,-256.47 3020.17,-246.76"/>
<polygon fill="#63b8ff" stroke="#63b8ff" points="3021.59,-249.97 3028.87,-242.27 3018.38,-243.75 3021.59,-249.97"/>
</a>
</g>
</g>
<!-- Node40 -->
<g id="Node000040" class="node">
<title>Node40</title>
<g id="a_Node000040"><a xlink:title=" ">
<polygon fill="#e0e0e0" stroke="#999999" points="3241.84,-241.25 3135.09,-241.25 3135.09,-210.75 3241.84,-210.75 3241.84,-241.25"/>
<text text-anchor="start" x="3143.09" y="-227.75" font-family="Helvetica,sans-Serif" font-size="10.00">mp&#45;units/integrations</text>
<text text-anchor="middle" x="3188.46" y="-216.5" font-family="Helvetica,sans-Serif" font-size="10.00">/eigen.h</text>
</a>
</g>
</g>
<!-- Node1&#45;&gt;Node40 -->
<g id="edge53_Node000001_Node000040" class="edge">
<title>Node1&#45;&gt;Node40</title>
<g id="a_edge53_Node000001_Node000040"><a xlink:title=" ">
<path fill="none" stroke="#63b8ff" d="M2991.65,-276.78C3031.02,-266.83 3083.05,-253.66 3123.73,-243.37"/>
<polygon fill="#63b8ff" stroke="#63b8ff" points="3124.58,-246.77 3133.41,-240.92 3122.86,-239.98 3124.58,-246.77"/>
</a>
</g>
</g>
<!-- Node2&#45;&gt;Node3 -->
<g id="edge2_Node000002_Node000003" class="edge">
<title>Node2&#45;&gt;Node3</title>
<g id="a_edge2_Node000002_Node000003"><a xlink:title=" ">
<path fill="none" stroke="#63b8ff" d="M2662.2,-222.08C2486.23,-211.66 1888.53,-176.26 1688.38,-164.4"/>
<polygon fill="#63b8ff" stroke="#63b8ff" points="1688.6,-160.91 1678.41,-163.81 1688.19,-167.9 1688.6,-160.91"/>
</a>
</g>
</g>
<!-- Node6 -->
<g id="Node000006" class="node">
<title>Node6</title>
<g id="a_Node000006"><a xlink:title=" ">
<polygon fill="#e0e0e0" stroke="#999999" points="2569.34,-24.88 2513.59,-24.88 2513.59,-5.63 2569.34,-5.63 2569.34,-24.88"/>
<text text-anchor="middle" x="2541.46" y="-11.38" font-family="Helvetica,sans-Serif" font-size="10.00">concepts</text>
</a>
</g>
</g>
<!-- Node2&#45;&gt;Node6 -->
<g id="edge33_Node000002_Node000006" class="edge">
<title>Node2&#45;&gt;Node6</title>
<g id="a_edge33_Node000002_Node000006"><a xlink:title=" ">
<path fill="none" stroke="#63b8ff" d="M2713.34,-216.23C2718.37,-190.1 2729.44,-111.81 2692.46,-66.5 2692.35,-66.36 2624.28,-43.74 2579.59,-28.9"/>
<polygon fill="#63b8ff" stroke="#63b8ff" points="2580.81,-25.62 2570.22,-25.79 2578.61,-32.26 2580.81,-25.62"/>
</a>
</g>
</g>
<!-- Node2&#45;&gt;Node7 -->
<g id="edge34_Node000002_Node000007" class="edge">
<title>Node2&#45;&gt;Node7</title>
<g id="a_edge34_Node000002_Node000007"><a xlink:title=" ">
<path fill="none" stroke="#63b8ff" d="M2715.68,-216.22C2727.25,-190.73 2756.65,-115.41 2725.46,-66.5 2723.2,-62.94 2679.9,-43.49 2648.83,-29.86"/>
<polygon fill="#63b8ff" stroke="#63b8ff" points="2650.38,-26.72 2639.82,-25.92 2647.58,-33.13 2650.38,-26.72"/>
</a>
</g>
</g>
<!-- Node2&#45;&gt;Node9 -->
<g id="edge37_Node000002_Node000009" class="edge">
<title>Node2&#45;&gt;Node9</title>
<g id="a_edge37_Node000002_Node000009"><a xlink:title=" ">
<path fill="none" stroke="#63b8ff" d="M2726.06,-215.9C2738.63,-207.12 2755.91,-192.55 2763.46,-174.75 2782.26,-130.46 2787.31,-108.29 2763.46,-66.5 2760.15,-60.7 2729.34,-43.32 2705.76,-30.62"/>
<polygon fill="#63b8ff" stroke="#63b8ff" points="2707.68,-27.68 2697.21,-26.06 2704.38,-33.86 2707.68,-27.68"/>
</a>
</g>
</g>
<!-- Node10 -->
<g id="Node000010" class="node">
<title>Node10</title>
<g id="a_Node000010"><a xlink:title=" ">
<polygon fill="#e0e0e0" stroke="#999999" points="2191.96,-24.88 2130.96,-24.88 2130.96,-5.63 2191.96,-5.63 2191.96,-24.88"/>
<text text-anchor="middle" x="2161.46" y="-11.38" font-family="Helvetica,sans-Serif" font-size="10.00">type_traits</text>
</a>
</g>
</g>
<!-- Node2&#45;&gt;Node10 -->
<g id="edge38_Node000002_Node000010" class="edge">
<title>Node2&#45;&gt;Node10</title>
<g id="a_edge38_Node000002_Node000010"><a xlink:title=" ">
<path fill="none" stroke="#63b8ff" d="M2667.68,-215.91C2638.07,-208.3 2599.13,-195.3 2569.46,-174.75 2517.8,-138.95 2533.18,-97.43 2478.46,-66.5 2432.19,-40.34 2278.81,-25.26 2203.68,-19.28"/>
<polygon fill="#63b8ff" stroke="#63b8ff" points="2204.07,-15.8 2193.83,-18.51 2203.53,-22.78 2204.07,-15.8"/>
</a>
</g>
</g>
<!-- Node12 -->
<g id="Node000012" class="node">
<title>Node12</title>
<g id="a_Node000012"><a xlink:title=" ">
<polygon fill="#e0e0e0" stroke="#999999" points="2683.34,-97 2639.59,-97 2639.59,-77.75 2683.34,-77.75 2683.34,-97"/>
<text text-anchor="middle" x="2661.46" y="-83.5" font-family="Helvetica,sans-Serif" font-size="10.00">format</text>
</a>
</g>
</g>
<!-- Node2&#45;&gt;Node12 -->
<g id="edge35_Node000002_Node000012" class="edge">
<title>Node2&#45;&gt;Node12</title>
<g id="a_edge35_Node000002_Node000012"><a xlink:title=" ">
<path fill="none" stroke="#63b8ff" d="M2708.18,-216.04C2700.2,-194.23 2679.62,-137.99 2668.63,-107.96"/>
<polygon fill="#63b8ff" stroke="#63b8ff" points="2671.94,-106.8 2665.21,-98.62 2665.36,-109.21 2671.94,-106.8"/>
</a>
</g>
</g>
<!-- Node29 -->
<g id="Node000029" class="node">
<title>Node29</title>
<g id="a_Node000029"><a xlink:title=" ">
<polygon fill="#e0e0e0" stroke="#999999" points="2867.09,-169.12 2815.84,-169.12 2815.84,-149.88 2867.09,-149.88 2867.09,-169.12"/>
<text text-anchor="middle" x="2841.46" y="-155.62" font-family="Helvetica,sans-Serif" font-size="10.00">sstream</text>
</a>
</g>
</g>
<!-- Node2&#45;&gt;Node29 -->
<g id="edge36_Node000002_Node000029" class="edge">
<title>Node2&#45;&gt;Node29</title>
<g id="a_edge36_Node000002_Node000029"><a xlink:title=" ">
<path fill="none" stroke="#63b8ff" d="M2729.81,-215.9C2751.49,-205.14 2787.81,-187.12 2813.11,-174.57"/>
<polygon fill="#63b8ff" stroke="#63b8ff" points="2814.45,-177.81 2821.85,-170.23 2811.34,-171.54 2814.45,-177.81"/>
</a>
</g>
</g>
<!-- Node30 -->
<g id="Node000030" class="node">
<title>Node30</title>
<g id="a_Node000030"><a xlink:title=" ">
<polygon fill="#e0e0e0" stroke="#999999" points="2644.96,-169.12 2577.96,-169.12 2577.96,-149.88 2644.96,-149.88 2644.96,-169.12"/>
<text text-anchor="middle" x="2611.46" y="-155.62" font-family="Helvetica,sans-Serif" font-size="10.00">Eigen/Eigen</text>
</a>
</g>
</g>
<!-- Node2&#45;&gt;Node30 -->
<g id="edge39_Node000002_Node000030" class="edge">
<title>Node2&#45;&gt;Node30</title>
<g id="a_edge39_Node000002_Node000030"><a xlink:title=" ">
<path fill="none" stroke="#63b8ff" d="M2697.56,-216.03C2681.46,-205.64 2654.66,-188.36 2635.23,-175.83"/>
<polygon fill="#63b8ff" stroke="#63b8ff" points="2637.15,-172.9 2626.85,-170.42 2633.35,-178.78 2637.15,-172.9"/>
</a>
</g>
</g>
<!-- Node4 -->
<g id="Node000004" class="node">
<title>Node4</title>
<g id="a_Node000004"><a xlink:href="typed__linear__algebra__forward_8hpp.xhtml" target="_top" xlink:title="Authoritative forward declaration header.">
<polygon fill="white" stroke="#666666" points="431.71,-30.5 327.21,-30.5 327.21,0 431.71,0 431.71,-30.5"/>
<text text-anchor="start" x="335.21" y="-17" font-family="Helvetica,sans-Serif" font-size="10.00">typed_linear_algebra</text>
<text text-anchor="middle" x="379.46" y="-5.75" font-family="Helvetica,sans-Serif" font-size="10.00">_forward.hpp</text>
</a>
</g>
</g>
<!-- Node3&#45;&gt;Node4 -->
<g id="edge3_Node000003_Node000004" class="edge">
<title>Node3&#45;&gt;Node4</title>
<g id="a_edge3_Node000003_Node000004"><a xlink:title=" ">
<path fill="none" stroke="#63b8ff" d="M1567.97,-157.83C1289.49,-154.3 37.19,-136.85 9.46,-108.25 -3.45,-94.93 -2.74,-80.48 9.46,-66.5 48.4,-21.91 220.1,-15.37 315.31,-15.28"/>
<polygon fill="#63b8ff" stroke="#63b8ff" points="315.29,-18.78 325.29,-15.3 315.3,-11.78 315.29,-18.78"/>
</a>
</g>
</g>
<!-- Node5 -->
<g id="Node000005" class="node">
<title>Node5</title>
<g id="a_Node000005"><a xlink:href="utility_8hpp.xhtml" target="_top" xlink:title=" ">
<polygon fill="white" stroke="#666666" points="1825.71,-102.62 1721.21,-102.62 1721.21,-72.12 1825.71,-72.12 1825.71,-102.62"/>
<text text-anchor="start" x="1729.21" y="-89.12" font-family="Helvetica,sans-Serif" font-size="10.00">typed_linear_algebra</text>
<text text-anchor="middle" x="1773.46" y="-77.88" font-family="Helvetica,sans-Serif" font-size="10.00">_internal/utility.hpp</text>
</a>
</g>
</g>
<!-- Node3&#45;&gt;Node5 -->
<g id="edge4_Node000003_Node000005" class="edge">
<title>Node3&#45;&gt;Node5</title>
<g id="a_edge4_Node000003_Node000005"><a xlink:title=" ">
<path fill="none" stroke="#63b8ff" d="M1654.12,-143.8C1676.57,-133.37 1706.93,-119.27 1731.41,-107.9"/>
<polygon fill="#63b8ff" stroke="#63b8ff" points="1732.88,-111.08 1740.48,-103.69 1729.94,-104.73 1732.88,-111.08"/>
</a>
</g>
</g>
<!-- Node3&#45;&gt;Node6 -->
<g id="edge12_Node000003_Node000006" class="edge">
<title>Node3&#45;&gt;Node6</title>
<g id="a_edge12_Node000003_Node000006"><a xlink:title=" ">
<path fill="none" stroke="#63b8ff" d="M1676.87,-158.07C1854.32,-156.28 2408.93,-147.56 2478.46,-108.25 2506.75,-92.26 2525.02,-57.69 2534.26,-35.78"/>
<polygon fill="#63b8ff" stroke="#63b8ff" points="2537.4,-37.37 2537.81,-26.78 2530.88,-34.8 2537.4,-37.37"/>
</a>
</g>
</g>
<!-- Node3&#45;&gt;Node7 -->
<g id="edge13_Node000003_Node000007" class="edge">
<title>Node3&#45;&gt;Node7</title>
<g id="a_edge13_Node000003_Node000007"><a xlink:title=" ">
<path fill="none" stroke="#63b8ff" d="M1677.08,-157.48C1858.71,-153.81 2435.37,-139.75 2512.46,-108.25 2551.18,-92.43 2585.41,-56.13 2603.61,-34.15"/>
<polygon fill="#63b8ff" stroke="#63b8ff" points="2606.33,-36.36 2609.86,-26.37 2600.87,-31.98 2606.33,-36.36"/>
</a>
</g>
</g>
<!-- Node3&#45;&gt;Node9 -->
<g id="edge16_Node000003_Node000009" class="edge">
<title>Node3&#45;&gt;Node9</title>
<g id="a_edge16_Node000003_Node000009"><a xlink:title=" ">
<path fill="none" stroke="#63b8ff" d="M1677.06,-157.42C1864.39,-153.45 2473.99,-138.35 2556.46,-108.25 2600.05,-92.34 2641.03,-55.23 2662.61,-33.31"/>
<polygon fill="#63b8ff" stroke="#63b8ff" points="2664.94,-35.94 2669.34,-26.3 2659.89,-31.09 2664.94,-35.94"/>
</a>
</g>
</g>
<!-- Node11 -->
<g id="Node000011" class="node">
<title>Node11</title>
<g id="a_Node000011"><a xlink:title=" ">
<polygon fill="#e0e0e0" stroke="#999999" points="1313.71,-24.88 1275.21,-24.88 1275.21,-5.63 1313.71,-5.63 1313.71,-24.88"/>
<text text-anchor="middle" x="1294.46" y="-11.38" font-family="Helvetica,sans-Serif" font-size="10.00">utility</text>
</a>
</g>
</g>
<!-- Node3&#45;&gt;Node11 -->
<g id="edge17_Node000003_Node000011" class="edge">
<title>Node3&#45;&gt;Node11</title>
<g id="a_edge17_Node000003_Node000011"><a xlink:title=" ">
<path fill="none" stroke="#63b8ff" d="M1567.99,-157.82C1291.01,-154.23 50.93,-136.59 23.46,-108.25 10.55,-94.92 10.61,-79.88 23.46,-66.5 45.65,-43.42 1070.67,-20.92 1263.4,-16.89"/>
<polygon fill="#63b8ff" stroke="#63b8ff" points="1263.44,-20.39 1273.36,-16.68 1263.29,-13.39 1263.44,-20.39"/>
</a>
</g>
</g>
<!-- Node3&#45;&gt;Node12 -->
<g id="edge14_Node000003_Node000012" class="edge">
<title>Node3&#45;&gt;Node12</title>
<g id="a_edge14_Node000003_Node000012"><a xlink:title=" ">
<path fill="none" stroke="#63b8ff" d="M1676.9,-158.99C1858.91,-160.13 2444.99,-159.61 2625.46,-108.25 2629.9,-106.99 2634.38,-105.1 2638.61,-102.98"/>
<polygon fill="#63b8ff" stroke="#63b8ff" points="2640.1,-106.16 2647.1,-98.21 2636.67,-100.06 2640.1,-106.16"/>
</a>
</g>
</g>
<!-- Node13 -->
<g id="Node000013" class="node">
<title>Node13</title>
<g id="a_Node000013"><a xlink:title=" ">
<polygon fill="#e0e0e0" stroke="#999999" points="104.21,-97 32.71,-97 32.71,-77.75 104.21,-77.75 104.21,-97"/>
<text text-anchor="middle" x="68.46" y="-83.5" font-family="Helvetica,sans-Serif" font-size="10.00">initializer_list</text>
</a>
</g>
</g>
<!-- Node3&#45;&gt;Node13 -->
<g id="edge15_Node000003_Node000013" class="edge">
<title>Node3&#45;&gt;Node13</title>
<g id="a_edge15_Node000003_Node000013"><a xlink:title=" ">
<path fill="none" stroke="#63b8ff" d="M1568.19,-157.92C1315.12,-155.04 257.29,-141.11 113.46,-108.25 107.22,-106.82 100.77,-104.53 94.78,-101.99"/>
<polygon fill="#63b8ff" stroke="#63b8ff" points="96.53,-98.95 85.99,-97.94 93.6,-105.31 96.53,-98.95"/>
</a>
</g>
</g>
<!-- Node14 -->
<g id="Node000014" class="node">
<title>Node14</title>
<g id="a_Node000014"><a xlink:title=" ">
<polygon fill="#e0e0e0" stroke="#999999" points="252.46,-102.62 122.46,-102.62 122.46,-72.12 252.46,-72.12 252.46,-102.62"/>
<text text-anchor="start" x="130.46" y="-89.12" font-family="Helvetica,sans-Serif" font-size="10.00">typed_linear_algebra</text>
<text text-anchor="middle" x="187.46" y="-77.88" font-family="Helvetica,sans-Serif" font-size="10.00">_internal/algorithm/add.tpp</text>
</a>
</g>
</g>
<!-- Node3&#45;&gt;Node14 -->
<g id="edge18_Node000003_Node000014" class="edge">
<title>Node3&#45;&gt;Node14</title>
<g id="a_edge18_Node000003_Node000014"><a xlink:title=" ">
<path fill="none" stroke="#63b8ff" d="M1567.96,-158.13C1347.33,-156.36 519.96,-147.22 261.46,-108.25 256.8,-107.55 252.01,-106.66 247.22,-105.65"/>
<polygon fill="#63b8ff" stroke="#63b8ff" points="248.1,-102.26 237.57,-103.44 246.54,-109.08 248.1,-102.26"/>
</a>
</g>
</g>
<!-- Node15 -->
<g id="Node000015" class="node">
<title>Node15</title>
<g id="a_Node000015"><a xlink:title=" ">
<polygon fill="#e0e0e0" stroke="#999999" points="410.34,-102.62 270.59,-102.62 270.59,-72.12 410.34,-72.12 410.34,-102.62"/>
<text text-anchor="start" x="278.59" y="-89.12" font-family="Helvetica,sans-Serif" font-size="10.00">typed_linear_algebra</text>
<text text-anchor="middle" x="340.46" y="-77.88" font-family="Helvetica,sans-Serif" font-size="10.00">_internal/algorithm/divide.tpp</text>
</a>
</g>
</g>
<!-- Node3&#45;&gt;Node15 -->
<g id="edge19_Node000003_Node000015" class="edge">
<title>Node3&#45;&gt;Node15</title>
<g id="a_edge19_Node000003_Node000015"><a xlink:title=" ">
<path fill="none" stroke="#63b8ff" d="M1568.19,-157.71C1364.51,-154.51 645.86,-141.1 419.46,-108.25 414.23,-107.49 408.84,-106.53 403.45,-105.44"/>
<polygon fill="#63b8ff" stroke="#63b8ff" points="404.43,-102.07 393.91,-103.37 402.94,-108.91 404.43,-102.07"/>
</a>
</g>
</g>
<!-- Node16 -->
<g id="Node000016" class="node">
<title>Node16</title>
<g id="a_Node000016"><a xlink:title=" ">
<polygon fill="#e0e0e0" stroke="#999999" points="550.34,-108.25 428.59,-108.25 428.59,-66.5 550.34,-66.5 550.34,-108.25"/>
<text text-anchor="start" x="436.59" y="-94.75" font-family="Helvetica,sans-Serif" font-size="10.00">typed_linear_algebra</text>
<text text-anchor="start" x="436.59" y="-83.5" font-family="Helvetica,sans-Serif" font-size="10.00">_internal/algorithm/equal</text>
<text text-anchor="middle" x="489.46" y="-72.25" font-family="Helvetica,sans-Serif" font-size="10.00">_to.tpp</text>
</a>
</g>
</g>
<!-- Node3&#45;&gt;Node16 -->
<g id="edge20_Node000003_Node000016" class="edge">
<title>Node3&#45;&gt;Node16</title>
<g id="a_edge20_Node000003_Node000016"><a xlink:title=" ">
<path fill="none" stroke="#63b8ff" d="M1568.12,-157.58C1383.24,-154.19 778.51,-140.95 561.99,-108.4"/>
<polygon fill="#63b8ff" stroke="#63b8ff" points="562.66,-104.96 552.24,-106.87 561.58,-111.88 562.66,-104.96"/>
</a>
</g>
</g>
<!-- Node17 -->
<g id="Node000017" class="node">
<title>Node17</title>
<g id="a_Node000017"><a xlink:title=" ">
<polygon fill="#e0e0e0" stroke="#999999" points="728.09,-102.62 568.84,-102.62 568.84,-72.12 728.09,-72.12 728.09,-102.62"/>
<text text-anchor="start" x="576.84" y="-89.12" font-family="Helvetica,sans-Serif" font-size="10.00">typed_linear_algebra</text>
<text text-anchor="middle" x="648.46" y="-77.88" font-family="Helvetica,sans-Serif" font-size="10.00">_internal/algorithm/magnitude.tpp</text>
</a>
</g>
</g>
<!-- Node3&#45;&gt;Node17 -->
<g id="edge21_Node000003_Node000017" class="edge">
<title>Node3&#45;&gt;Node17</title>
<g id="a_edge21_Node000003_Node000017"><a xlink:title=" ">
<path fill="none" stroke="#63b8ff" d="M1568.04,-158.49C1429.01,-157.78 1049.75,-151.69 737.46,-108.25 731.49,-107.42 725.31,-106.39 719.14,-105.25"/>
<polygon fill="#63b8ff" stroke="#63b8ff" points="720.03,-101.86 709.55,-103.38 718.69,-108.73 720.03,-101.86"/>
</a>
</g>
</g>
<!-- Node18 -->
<g id="Node000018" class="node">
<title>Node18</title>
<g id="a_Node000018"><a xlink:title=" ">
<polygon fill="#e0e0e0" stroke="#999999" points="870.84,-108.25 746.09,-108.25 746.09,-66.5 870.84,-66.5 870.84,-108.25"/>
<text text-anchor="start" x="754.09" y="-94.75" font-family="Helvetica,sans-Serif" font-size="10.00">typed_linear_algebra</text>
<text text-anchor="start" x="754.09" y="-83.5" font-family="Helvetica,sans-Serif" font-size="10.00">_internal/algorithm/matrix</text>
<text text-anchor="middle" x="808.46" y="-72.25" font-family="Helvetica,sans-Serif" font-size="10.00">_product.tpp</text>
</a>
</g>
</g>
<!-- Node3&#45;&gt;Node18 -->
<g id="edge22_Node000003_Node000018" class="edge">
<title>Node3&#45;&gt;Node18</title>
<g id="a_edge22_Node000003_Node000018"><a xlink:title=" ">
<path fill="none" stroke="#63b8ff" d="M1568.03,-158.55C1446.47,-157.87 1143.77,-151.73 882.36,-108.36"/>
<polygon fill="#63b8ff" stroke="#63b8ff" points="883.06,-104.93 872.62,-106.72 881.9,-111.84 883.06,-104.93"/>
</a>
</g>
</g>
<!-- Node19 -->
<g id="Node000019" class="node">
<title>Node19</title>
<g id="a_Node000019"><a xlink:title=" ">
<polygon fill="#e0e0e0" stroke="#999999" points="1029.71,-102.62 889.21,-102.62 889.21,-72.12 1029.71,-72.12 1029.71,-102.62"/>
<text text-anchor="start" x="897.21" y="-89.12" font-family="Helvetica,sans-Serif" font-size="10.00">typed_linear_algebra</text>
<text text-anchor="middle" x="959.46" y="-77.88" font-family="Helvetica,sans-Serif" font-size="10.00">_internal/algorithm/minus.tpp</text>
</a>
</g>
</g>
<!-- Node3&#45;&gt;Node19 -->
<g id="edge23_Node000003_Node000019" class="edge">
<title>Node3&#45;&gt;Node19</title>
<g id="a_edge23_Node000003_Node000019"><a xlink:title=" ">
<path fill="none" stroke="#63b8ff" d="M1567.85,-156.66C1464.21,-152.54 1232.13,-140.28 1039.46,-108.25 1034.65,-107.45 1029.7,-106.51 1024.73,-105.48"/>
<polygon fill="#63b8ff" stroke="#63b8ff" points="1025.87,-102.15 1015.36,-103.43 1024.38,-108.99 1025.87,-102.15"/>
</a>
</g>
</g>
<!-- Node20 -->
<g id="Node000020" class="node">
<title>Node20</title>
<g id="a_Node000020"><a xlink:title=" ">
<polygon fill="#e0e0e0" stroke="#999999" points="1194.71,-102.62 1048.21,-102.62 1048.21,-72.12 1194.71,-72.12 1194.71,-102.62"/>
<text text-anchor="start" x="1056.21" y="-89.12" font-family="Helvetica,sans-Serif" font-size="10.00">typed_linear_algebra</text>
<text text-anchor="middle" x="1121.46" y="-77.88" font-family="Helvetica,sans-Serif" font-size="10.00">_internal/algorithm/product.tpp</text>
</a>
</g>
</g>
<!-- Node3&#45;&gt;Node20 -->
<g id="edge24_Node000003_Node000020" class="edge">
<title>Node3&#45;&gt;Node20</title>
<g id="a_edge24_Node000003_Node000020"><a xlink:title=" ">
<path fill="none" stroke="#63b8ff" d="M1567.92,-154.04C1487.67,-147 1333.24,-131.67 1203.46,-108.25 1198.84,-107.42 1194.09,-106.48 1189.32,-105.48"/>
<polygon fill="#63b8ff" stroke="#63b8ff" points="1190.18,-102.08 1179.66,-103.37 1188.68,-108.92 1190.18,-102.08"/>
</a>
</g>
</g>
<!-- Node21 -->
<g id="Node000021" class="node">
<title>Node21</title>
<g id="a_Node000021"><a xlink:title=" ">
<polygon fill="#e0e0e0" stroke="#999999" points="1350.21,-102.62 1212.71,-102.62 1212.71,-72.12 1350.21,-72.12 1350.21,-102.62"/>
<text text-anchor="start" x="1220.71" y="-89.12" font-family="Helvetica,sans-Serif" font-size="10.00">typed_linear_algebra</text>
<text text-anchor="middle" x="1281.46" y="-77.88" font-family="Helvetica,sans-Serif" font-size="10.00">_internal/algorithm/scale.tpp</text>
</a>
</g>
</g>
<!-- Node3&#45;&gt;Node21 -->
<g id="edge25_Node000003_Node000021" class="edge">
<title>Node3&#45;&gt;Node21</title>
<g id="a_edge25_Node000003_Node000021"><a xlink:title=" ">
<path fill="none" stroke="#63b8ff" d="M1567.87,-149.07C1514.53,-139.62 1431.16,-124.22 1359.46,-108.25 1355.92,-107.46 1352.29,-106.63 1348.63,-105.76"/>
<polygon fill="#63b8ff" stroke="#63b8ff" points="1349.62,-102.4 1339.08,-103.47 1347.98,-109.21 1349.62,-102.4"/>
</a>
</g>
</g>
<!-- Node22 -->
<g id="Node000022" class="node">
<title>Node22</title>
<g id="a_Node000022"><a xlink:title=" ">
<polygon fill="#e0e0e0" stroke="#999999" points="1522.84,-102.62 1368.09,-102.62 1368.09,-72.12 1522.84,-72.12 1522.84,-102.62"/>
<text text-anchor="start" x="1376.09" y="-89.12" font-family="Helvetica,sans-Serif" font-size="10.00">typed_linear_algebra</text>
<text text-anchor="middle" x="1445.46" y="-77.88" font-family="Helvetica,sans-Serif" font-size="10.00">_internal/algorithm/substract.tpp</text>
</a>
</g>
</g>
<!-- Node3&#45;&gt;Node22 -->
<g id="edge26_Node000003_Node000022" class="edge">
<title>Node3&#45;&gt;Node22</title>
<g id="a_edge26_Node000003_Node000022"><a xlink:title=" ">
<path fill="none" stroke="#63b8ff" d="M1585.36,-143.8C1558.57,-133.19 1522.17,-118.77 1493.22,-107.29"/>
<polygon fill="#63b8ff" stroke="#63b8ff" points="1494.51,-104.04 1483.93,-103.61 1491.94,-110.55 1494.51,-104.04"/>
</a>
</g>
</g>
<!-- Node23 -->
<g id="Node000023" class="node">
<title>Node23</title>
<g id="a_Node000023"><a xlink:title=" ">
<polygon fill="#e0e0e0" stroke="#999999" points="1703.59,-102.62 1541.34,-102.62 1541.34,-72.12 1703.59,-72.12 1703.59,-102.62"/>
<text text-anchor="start" x="1549.34" y="-89.12" font-family="Helvetica,sans-Serif" font-size="10.00">typed_linear_algebra</text>
<text text-anchor="middle" x="1622.46" y="-77.88" font-family="Helvetica,sans-Serif" font-size="10.00">_internal/algorithm/transposed.tpp</text>
</a>
</g>
</g>
<!-- Node3&#45;&gt;Node23 -->
<g id="edge27_Node000003_Node000023" class="edge">
<title>Node3&#45;&gt;Node23</title>
<g id="a_edge27_Node000003_Node000023"><a xlink:title=" ">
<path fill="none" stroke="#63b8ff" d="M1622.46,-143.97C1622.46,-135.41 1622.46,-124.34 1622.46,-114.33"/>
<polygon fill="#63b8ff" stroke="#63b8ff" points="1625.96,-114.4 1622.46,-104.4 1618.96,-114.4 1625.96,-114.4"/>
</a>
</g>
</g>
<!-- Node24 -->
<g id="Node000024" class="node">
<title>Node24</title>
<g id="a_Node000024"><a xlink:title=" ">
<polygon fill="#e0e0e0" stroke="#999999" points="1948.71,-102.62 1844.21,-102.62 1844.21,-72.12 1948.71,-72.12 1948.71,-102.62"/>
<text text-anchor="start" x="1852.21" y="-89.12" font-family="Helvetica,sans-Serif" font-size="10.00">typed_linear_algebra</text>
<text text-anchor="middle" x="1896.46" y="-77.88" font-family="Helvetica,sans-Serif" font-size="10.00">_internal/cast.tpp</text>
</a>
</g>
</g>
<!-- Node3&#45;&gt;Node24 -->
<g id="edge28_Node000003_Node000024" class="edge">
<title>Node3&#45;&gt;Node24</title>
<g id="a_edge28_Node000003_Node000024"><a xlink:title=" ">
<path fill="none" stroke="#63b8ff" d="M1676.78,-146.84C1719.79,-137.32 1781.26,-123.06 1834.46,-108.25 1836.59,-107.66 1838.75,-107.04 1840.93,-106.41"/>
<polygon fill="#63b8ff" stroke="#63b8ff" points="1841.86,-109.78 1850.44,-103.56 1839.85,-103.08 1841.86,-109.78"/>
</a>
</g>
</g>
<!-- Node25 -->
<g id="Node000025" class="node">
<title>Node25</title>
<g id="a_Node000025"><a xlink:title=" ">
<polygon fill="#e0e0e0" stroke="#999999" points="2098.59,-102.62 1966.34,-102.62 1966.34,-72.12 2098.59,-72.12 2098.59,-102.62"/>
<text text-anchor="start" x="1974.34" y="-89.12" font-family="Helvetica,sans-Serif" font-size="10.00">typed_linear_algebra</text>
<text text-anchor="middle" x="2032.46" y="-77.88" font-family="Helvetica,sans-Serif" font-size="10.00">_internal/common_type.tpp</text>
</a>
</g>
</g>
<!-- Node3&#45;&gt;Node25 -->
<g id="edge29_Node000003_Node000025" class="edge">
<title>Node3&#45;&gt;Node25</title>
<g id="a_edge29_Node000003_Node000025"><a xlink:title=" ">
<path fill="none" stroke="#63b8ff" d="M1677.04,-152.19C1743.62,-144.06 1859.42,-128.53 1957.46,-108.25 1961.21,-107.48 1965.04,-106.63 1968.9,-105.74"/>
<polygon fill="#63b8ff" stroke="#63b8ff" points="1969.41,-109.21 1978.31,-103.47 1967.77,-102.41 1969.41,-109.21"/>
</a>
</g>
</g>
<!-- Node26 -->
<g id="Node000026" class="node">
<title>Node26</title>
<g id="a_Node000026"><a xlink:title=" ">
<polygon fill="#e0e0e0" stroke="#999999" points="2220.71,-102.62 2116.21,-102.62 2116.21,-72.12 2220.71,-72.12 2220.71,-102.62"/>
<text text-anchor="start" x="2124.21" y="-89.12" font-family="Helvetica,sans-Serif" font-size="10.00">typed_linear_algebra</text>
<text text-anchor="middle" x="2168.46" y="-77.88" font-family="Helvetica,sans-Serif" font-size="10.00">_internal/format.tpp</text>
</a>
</g>
</g>
<!-- Node3&#45;&gt;Node26 -->
<g id="edge30_Node000003_Node000026" class="edge">
<title>Node3&#45;&gt;Node26</title>
<g id="a_edge30_Node000003_Node000026"><a xlink:title=" ">
<path fill="none" stroke="#63b8ff" d="M1676.87,-156.61C1767.21,-152.65 1953.44,-140.94 2107.46,-108.25 2110.43,-107.62 2113.45,-106.9 2116.48,-106.12"/>
<polygon fill="#63b8ff" stroke="#63b8ff" points="2117.3,-109.52 2125.99,-103.46 2115.41,-102.78 2117.3,-109.52"/>
</a>
</g>
</g>
<!-- Node27 -->
<g id="Node000027" class="node">
<title>Node27</title>
<g id="a_Node000027"><a xlink:title=" ">
<polygon fill="#e0e0e0" stroke="#999999" points="2343.71,-102.62 2239.21,-102.62 2239.21,-72.12 2343.71,-72.12 2343.71,-102.62"/>
<text text-anchor="start" x="2247.21" y="-89.12" font-family="Helvetica,sans-Serif" font-size="10.00">typed_linear_algebra</text>
<text text-anchor="middle" x="2291.46" y="-77.88" font-family="Helvetica,sans-Serif" font-size="10.00">_internal/tuple.tpp</text>
</a>
</g>
</g>
<!-- Node3&#45;&gt;Node27 -->
<g id="edge31_Node000003_Node000027" class="edge">
<title>Node3&#45;&gt;Node27</title>
<g id="a_edge31_Node000003_Node000027"><a xlink:title=" ">
<path fill="none" stroke="#63b8ff" d="M1677.04,-158.12C1784.05,-156.48 2028.53,-148.23 2229.46,-108.25 2232.63,-107.62 2235.87,-106.88 2239.12,-106.07"/>
<polygon fill="#63b8ff" stroke="#63b8ff" points="2239.94,-109.47 2248.66,-103.46 2238.09,-102.72 2239.94,-109.47"/>
</a>
</g>
</g>
<!-- Node28 -->
<g id="Node000028" class="node">
<title>Node28</title>
<g id="a_Node000028"><a xlink:title=" ">
<polygon fill="#e0e0e0" stroke="#999999" points="2469.21,-108.25 2361.71,-108.25 2361.71,-66.5 2469.21,-66.5 2469.21,-108.25"/>
<text text-anchor="start" x="2369.71" y="-94.75" font-family="Helvetica,sans-Serif" font-size="10.00">typed_linear_algebra</text>
<text text-anchor="start" x="2369.71" y="-83.5" font-family="Helvetica,sans-Serif" font-size="10.00">_internal/typed_linear</text>
<text text-anchor="middle" x="2415.46" y="-72.25" font-family="Helvetica,sans-Serif" font-size="10.00">_algebra.tpp</text>
</a>
</g>
</g>
<!-- Node3&#45;&gt;Node28 -->
<g id="edge32_Node000003_Node000028" class="edge">
<title>Node3&#45;&gt;Node28</title>
<g id="a_edge32_Node000003_Node000028"><a xlink:title=" ">
<path fill="none" stroke="#63b8ff" d="M1677.06,-159.13C1797.49,-159.58 2094.87,-155.52 2350.39,-108.39"/>
<polygon fill="#63b8ff" stroke="#63b8ff" points="2350.7,-111.89 2359.89,-106.61 2349.42,-105.01 2350.7,-111.89"/>
</a>
</g>
</g>
<!-- Node5&#45;&gt;Node4 -->
<g id="edge5_Node000005_Node000004" class="edge">
<title>Node5&#45;&gt;Node4</title>
<g id="a_edge5_Node000005_Node000004"><a xlink:title=" ">
<path fill="none" stroke="#63b8ff" d="M1733.84,-71.72C1726.8,-69.62 1719.48,-67.75 1712.46,-66.5 1464.29,-22.28 674.23,-16.93 443.38,-16.32"/>
<polygon fill="#63b8ff" stroke="#63b8ff" points="443.7,-12.82 433.69,-16.3 443.68,-19.82 443.7,-12.82"/>
</a>
</g>
</g>
<!-- Node5&#45;&gt;Node6 -->
<g id="edge6_Node000005_Node000006" class="edge">
<title>Node5&#45;&gt;Node6</title>
<g id="a_edge6_Node000005_Node000006"><a xlink:title=" ">
<path fill="none" stroke="#63b8ff" d="M1814.46,-71.72C1821.4,-69.68 1828.58,-67.83 1835.46,-66.5 1964.9,-41.52 2373.27,-23.12 2502.12,-17.81"/>
<polygon fill="#63b8ff" stroke="#63b8ff" points="2501.99,-21.32 2511.84,-17.41 2501.7,-14.32 2501.99,-21.32"/>
</a>
</g>
</g>
<!-- Node5&#45;&gt;Node7 -->
<g id="edge7_Node000005_Node000007" class="edge">
<title>Node5&#45;&gt;Node7</title>
<g id="a_edge7_Node000005_Node000007"><a xlink:title=" ">
<path fill="none" stroke="#63b8ff" d="M1814.1,-71.68C1821.14,-69.62 1828.46,-67.77 1835.46,-66.5 2160.77,-7.53 2254.4,-95.98 2578.46,-30.5 2580.78,-30.03 2583.15,-29.45 2585.51,-28.79"/>
<polygon fill="#63b8ff" stroke="#63b8ff" points="2586.47,-32.16 2594.9,-25.75 2584.31,-25.5 2586.47,-32.16"/>
</a>
</g>
</g>
<!-- Node8 -->
<g id="Node000008" class="node">
<title>Node8</title>
<g id="a_Node000008"><a xlink:title=" ">
<polygon fill="#e0e0e0" stroke="#999999" points="1802.46,-24.88 1744.46,-24.88 1744.46,-5.63 1802.46,-5.63 1802.46,-24.88"/>
<text text-anchor="middle" x="1773.46" y="-11.38" font-family="Helvetica,sans-Serif" font-size="10.00">functional</text>
</a>
</g>
</g>
<!-- Node5&#45;&gt;Node8 -->
<g id="edge8_Node000005_Node000008" class="edge">
<title>Node5&#45;&gt;Node8</title>
<g id="a_edge8_Node000005_Node000008"><a xlink:title=" ">
<path fill="none" stroke="#63b8ff" d="M1773.46,-71.85C1773.46,-61.59 1773.46,-47.7 1773.46,-36.38"/>
<polygon fill="#63b8ff" stroke="#63b8ff" points="1776.96,-36.52 1773.46,-26.52 1769.96,-36.52 1776.96,-36.52"/>
</a>
</g>
</g>
<!-- Node5&#45;&gt;Node9 -->
<g id="edge9_Node000005_Node000009" class="edge">
<title>Node5&#45;&gt;Node9</title>
<g id="a_edge9_Node000005_Node000009"><a xlink:title=" ">
<path fill="none" stroke="#63b8ff" d="M1814.1,-71.66C1821.14,-69.6 1828.45,-67.76 1835.46,-66.5 2013.91,-34.55 2475.15,-76.66 2650.46,-30.5 2651.3,-30.28 2652.13,-30.04 2652.96,-29.77"/>
<polygon fill="#63b8ff" stroke="#63b8ff" points="2654.27,-33.01 2662.14,-25.91 2651.56,-26.56 2654.27,-33.01"/>
</a>
</g>
</g>
<!-- Node5&#45;&gt;Node10 -->
<g id="edge10_Node000005_Node000010" class="edge">
<title>Node5&#45;&gt;Node10</title>
<g id="a_edge10_Node000005_Node000010"><a xlink:title=" ">
<path fill="none" stroke="#63b8ff" d="M1816.24,-71.7C1822.64,-69.78 1829.19,-67.98 1835.46,-66.5 1936,-42.79 2056.7,-27.55 2119.25,-20.61"/>
<polygon fill="#63b8ff" stroke="#63b8ff" points="2119.53,-24.1 2129.09,-19.53 2118.77,-17.14 2119.53,-24.1"/>
</a>
</g>
</g>
<!-- Node5&#45;&gt;Node11 -->
<g id="edge11_Node000005_Node000011" class="edge">
<title>Node5&#45;&gt;Node11</title>
<g id="a_edge11_Node000005_Node000011"><a xlink:title=" ">
<path fill="none" stroke="#63b8ff" d="M1732.09,-71.7C1725.58,-69.74 1718.88,-67.92 1712.46,-66.5 1569.72,-34.98 1394.9,-22.04 1325.24,-17.89"/>
<polygon fill="#63b8ff" stroke="#63b8ff" points="1325.55,-14.4 1315.37,-17.32 1325.15,-21.39 1325.55,-14.4"/>
</a>
</g>
</g>
<!-- Node31&#45;&gt;Node6 -->
<g id="edge42_Node000031_Node000006" class="edge">
<title>Node31&#45;&gt;Node6</title>
<g id="a_edge42_Node000031_Node000006"><a xlink:title=" ">
<path fill="none" stroke="#63b8ff" d="M2961,-83.18C2883.12,-77.08 2719.52,-61.53 2584.46,-30.5 2582.04,-29.94 2579.55,-29.3 2577.06,-28.61"/>
<polygon fill="#63b8ff" stroke="#63b8ff" points="2578.28,-25.33 2567.7,-25.78 2576.26,-32.03 2578.28,-25.33"/>
</a>
</g>
</g>
<!-- Node31&#45;&gt;Node7 -->
<g id="edge43_Node000031_Node000007" class="edge">
<title>Node31&#45;&gt;Node7</title>
<g id="a_edge43_Node000031_Node000007"><a xlink:title=" ">
<path fill="none" stroke="#63b8ff" d="M2960.88,-82.74C2892.58,-76.49 2760.1,-61.33 2651.46,-30.5 2650.11,-30.12 2648.74,-29.69 2647.37,-29.24"/>
<polygon fill="#63b8ff" stroke="#63b8ff" points="2648.96,-26.1 2638.37,-25.89 2646.52,-32.66 2648.96,-26.1"/>
</a>
</g>
</g>
<!-- Node31&#45;&gt;Node9 -->
<g id="edge44_Node000031_Node000009" class="edge">
<title>Node31&#45;&gt;Node9</title>
<g id="a_edge44_Node000031_Node000009"><a xlink:title=" ">
<path fill="none" stroke="#63b8ff" d="M2982.63,-77.28C2972,-73.5 2959.23,-69.34 2947.46,-66.5 2842.18,-41.11 2809.62,-63.49 2706.46,-30.5 2705.82,-30.29 2705.16,-30.07 2704.51,-29.84"/>
<polygon fill="#63b8ff" stroke="#63b8ff" points="2706.03,-26.68 2695.47,-25.91 2703.25,-33.11 2706.03,-26.68"/>
</a>
</g>
</g>
<!-- Node32 -->
<g id="Node000032" class="node">
<title>Node32</title>
<g id="a_Node000032"><a xlink:title=" ">
<polygon fill="#e0e0e0" stroke="#999999" points="2817.59,-30.5 2715.34,-30.5 2715.34,0 2817.59,0 2817.59,-30.5"/>
<text text-anchor="start" x="2723.34" y="-17" font-family="Helvetica,sans-Serif" font-size="10.00">mp&#45;units/framework</text>
<text text-anchor="middle" x="2766.46" y="-5.75" font-family="Helvetica,sans-Serif" font-size="10.00">/quantity.h</text>
</a>
</g>
</g>
<!-- Node31&#45;&gt;Node32 -->
<g id="edge45_Node000031_Node000032" class="edge">
<title>Node31&#45;&gt;Node32</title>
<g id="a_edge45_Node000031_Node000032"><a xlink:title=" ">
<path fill="none" stroke="#63b8ff" d="M2980.42,-77.26C2970.19,-73.77 2958.31,-69.83 2947.46,-66.5 2908.22,-54.45 2863.81,-42.1 2828.8,-32.66"/>
<polygon fill="#63b8ff" stroke="#63b8ff" points="2829.81,-29.31 2819.24,-30.1 2827.99,-36.07 2829.81,-29.31"/>
</a>
</g>
</g>
<!-- Node33 -->
<g id="Node000033" class="node">
<title>Node33</title>
<g id="a_Node000033"><a xlink:title=" ">
<polygon fill="#e0e0e0" stroke="#999999" points="2937.59,-30.5 2835.34,-30.5 2835.34,0 2937.59,0 2937.59,-30.5"/>
<text text-anchor="start" x="2843.34" y="-17" font-family="Helvetica,sans-Serif" font-size="10.00">mp&#45;units/framework</text>
<text text-anchor="middle" x="2886.46" y="-5.75" font-family="Helvetica,sans-Serif" font-size="10.00">/quantity_cast.h</text>
</a>
</g>
</g>
<!-- Node31&#45;&gt;Node33 -->
<g id="edge46_Node000031_Node000033" class="edge">
<title>Node31&#45;&gt;Node33</title>
<g id="a_edge46_Node000031_Node000033"><a xlink:title=" ">
<path fill="none" stroke="#63b8ff" d="M2991.27,-77.49C2973.8,-67.28 2944.55,-50.2 2921.39,-36.66"/>
<polygon fill="#63b8ff" stroke="#63b8ff" points="2923.27,-33.7 2912.87,-31.68 2919.74,-39.75 2923.27,-33.7"/>
</a>
</g>
</g>
<!-- Node34 -->
<g id="Node000034" class="node">
<title>Node34</title>
<g id="a_Node000034"><a xlink:title=" ">
<polygon fill="#e0e0e0" stroke="#999999" points="3057.59,-30.5 2955.34,-30.5 2955.34,0 3057.59,0 3057.59,-30.5"/>
<text text-anchor="start" x="2963.34" y="-17" font-family="Helvetica,sans-Serif" font-size="10.00">mp&#45;units/framework</text>
<text text-anchor="middle" x="3006.46" y="-5.75" font-family="Helvetica,sans-Serif" font-size="10.00">/quantity_point.h</text>
</a>
</g>
</g>
<!-- Node31&#45;&gt;Node34 -->
<g id="edge47_Node000031_Node000034" class="edge">
<title>Node31&#45;&gt;Node34</title>
<g id="a_edge47_Node000031_Node000034"><a xlink:title=" ">
<path fill="none" stroke="#63b8ff" d="M3006.46,-77.49C3006.46,-68.61 3006.46,-54.52 3006.46,-42.1"/>
<polygon fill="#63b8ff" stroke="#63b8ff" points="3009.96,-42.43 3006.46,-32.43 3002.96,-42.43 3009.96,-42.43"/>
</a>
</g>
</g>
<!-- Node35 -->
<g id="Node000035" class="node">
<title>Node35</title>
<g id="a_Node000035"><a xlink:title=" ">
<polygon fill="#e0e0e0" stroke="#999999" points="3187.46,-30.5 3075.46,-30.5 3075.46,0 3187.46,0 3187.46,-30.5"/>
<text text-anchor="start" x="3083.46" y="-17" font-family="Helvetica,sans-Serif" font-size="10.00">mp&#45;units/framework</text>
<text text-anchor="middle" x="3131.46" y="-5.75" font-family="Helvetica,sans-Serif" font-size="10.00">/vector_components.h</text>
</a>
</g>
</g>
<!-- Node31&#45;&gt;Node35 -->
<g id="edge48_Node000031_Node000035" class="edge">
<title>Node31&#45;&gt;Node35</title>
<g id="a_edge48_Node000031_Node000035"><a xlink:title=" ">
<path fill="none" stroke="#63b8ff" d="M3022.55,-77.35C3040.9,-67.06 3071.47,-49.91 3095.56,-36.39"/>
<polygon fill="#63b8ff" stroke="#63b8ff" points="3097.11,-39.54 3104.12,-31.59 3093.68,-33.43 3097.11,-39.54"/>
</a>
</g>
</g>
<!-- Node36 -->
<g id="Node000036" class="node">
<title>Node36</title>
<g id="a_Node000036"><a xlink:title=" ">
<polygon fill="#e0e0e0" stroke="#999999" points="3291.34,-24.88 3205.59,-24.88 3205.59,-5.63 3291.34,-5.63 3291.34,-24.88"/>
<text text-anchor="middle" x="3248.46" y="-11.38" font-family="Helvetica,sans-Serif" font-size="10.00">mp&#45;units/math.h</text>
</a>
</g>
</g>
<!-- Node31&#45;&gt;Node36 -->
<g id="edge49_Node000031_Node000036" class="edge">
<title>Node31&#45;&gt;Node36</title>
<g id="a_edge49_Node000031_Node000036"><a xlink:title=" ">
<path fill="none" stroke="#63b8ff" d="M3037.61,-77.35C3080.51,-64.92 3157.93,-42.48 3206.08,-28.53"/>
<polygon fill="#63b8ff" stroke="#63b8ff" points="3206.97,-31.92 3215.61,-25.77 3205.03,-25.19 3206.97,-31.92"/>
</a>
</g>
</g>
<!-- Node37 -->
<g id="Node000037" class="node">
<title>Node37</title>
<g id="a_Node000037"><a xlink:title=" ">
<polygon fill="#e0e0e0" stroke="#999999" points="3417.96,-30.5 3308.96,-30.5 3308.96,0 3417.96,0 3417.96,-30.5"/>
<text text-anchor="start" x="3316.96" y="-17" font-family="Helvetica,sans-Serif" font-size="10.00">mp&#45;units/systems/isq</text>
<text text-anchor="middle" x="3363.46" y="-5.75" font-family="Helvetica,sans-Serif" font-size="10.00">/thermodynamics.h</text>
</a>
</g>
</g>
<!-- Node31&#45;&gt;Node37 -->
<g id="edge50_Node000031_Node000037" class="edge">
<title>Node31&#45;&gt;Node37</title>
<g id="a_edge50_Node000031_Node000037"><a xlink:title=" ">
<path fill="none" stroke="#63b8ff" d="M3051.89,-78.25C3107.48,-68.19 3204.74,-50.23 3297.26,-31.13"/>
<polygon fill="#63b8ff" stroke="#63b8ff" points="3297.95,-34.56 3307.03,-29.1 3296.53,-27.71 3297.95,-34.56"/>
</a>
</g>
</g>
<!-- Node38 -->
<g id="Node000038" class="node">
<title>Node38</title>
<g id="a_Node000038"><a xlink:title=" ">
<polygon fill="#e0e0e0" stroke="#999999" points="3547.09,-24.88 3435.84,-24.88 3435.84,-5.63 3547.09,-5.63 3547.09,-24.88"/>
<text text-anchor="middle" x="3491.46" y="-11.38" font-family="Helvetica,sans-Serif" font-size="10.00">mp&#45;units/systems/si.h</text>
</a>
</g>
</g>
<!-- Node31&#45;&gt;Node38 -->
<g id="edge51_Node000031_Node000038" class="edge">
<title>Node31&#45;&gt;Node38</title>
<g id="a_edge51_Node000031_Node000038"><a xlink:title=" ">
<path fill="none" stroke="#63b8ff" d="M3051.83,-81.67C3129.21,-73.34 3291.52,-54.61 3427.46,-30.5 3432.32,-29.64 3437.37,-28.66 3442.41,-27.63"/>
<polygon fill="#63b8ff" stroke="#63b8ff" points="3442.8,-31.12 3451.85,-25.63 3441.34,-24.28 3442.8,-31.12"/>
</a>
</g>
</g>
</g>
</svg>
