<?xml version="1.0" encoding="UTF-8" standalone="no"?>
<!DOCTYPE svg PUBLIC "-//W3C//DTD SVG 1.1//EN"
 "http://www.w3.org/Graphics/SVG/1.1/DTD/svg11.dtd">
<!-- Generated by graphviz version 12.2.0 (20241103.1931)
 -->
<!-- Title: /github/workspace/support/unit_eigen/fcarouge/linalg.hpp Pages: 1 -->
<svg width="3092pt" height="360pt"
 viewBox="0.00 0.00 3092.12 359.75" xmlns="http://www.w3.org/2000/svg" xmlns:xlink="http://www.w3.org/1999/xlink">
<g id="graph0" class="graph" transform="scale(1 1) rotate(0) translate(4 355.75)">
<title>/github/workspace/support/unit_eigen/fcarouge/linalg.hpp</title>
<!-- Node1 -->
<g id="Node000001" class="node">
<title>Node1</title>
<g id="a_Node000001"><a xlink:title="Indexed&#45;based linear algebra with mp&#45;units with Eigen implementations.">
<polygon fill="#999999" stroke="#666666" points="2812.75,-351.75 2665.5,-351.75 2665.5,-321.25 2812.75,-321.25 2812.75,-351.75"/>
<text text-anchor="start" x="2673.5" y="-338.25" font-family="Helvetica,sans-Serif" font-size="10.00">/github/workspace/support</text>
<text text-anchor="middle" x="2739.12" y="-327" font-family="Helvetica,sans-Serif" font-size="10.00">/unit_eigen/fcarouge/linalg.hpp</text>
</a>
</g>
</g>
<!-- Node2 -->
<g id="Node000002" class="node">
<title>Node2</title>
<g id="a_Node000002"><a xlink:href="eigen_8hpp.xhtml" target="_top" xlink:title="Linear algebra facade for Eigen3 third party implementation.">
<polygon fill="white" stroke="#666666" points="2865,-285.25 2767.25,-285.25 2767.25,-266 2865,-266 2865,-285.25"/>
<text text-anchor="middle" x="2816.12" y="-271.75" font-family="Helvetica,sans-Serif" font-size="10.00">fcarouge/eigen.hpp</text>
</a>
</g>
</g>
<!-- Node1&#45;&gt;Node2 -->
<g id="edge1_Node000001_Node000002" class="edge">
<title>Node1&#45;&gt;Node2</title>
<g id="a_edge1_Node000001_Node000002"><a xlink:title=" ">
<path fill="none" stroke="#63b8ff" d="M2758.16,-320.95C2769.43,-312.33 2783.73,-301.4 2795.3,-292.55"/>
<polygon fill="#63b8ff" stroke="#63b8ff" points="2797.23,-295.48 2803.05,-286.62 2792.98,-289.91 2797.23,-295.48"/>
</a>
</g>
</g>
<!-- Node3 -->
<g id="Node000003" class="node">
<title>Node3</title>
<g id="a_Node000003"><a xlink:href="typed__linear__algebra_8hpp.xhtml" target="_top" xlink:title="Typed linear algebra implementation.">
<polygon fill="white" stroke="#666666" points="1894.25,-230 1786,-230 1786,-199.5 1894.25,-199.5 1894.25,-230"/>
<text text-anchor="start" x="1794" y="-216.5" font-family="Helvetica,sans-Serif" font-size="10.00">fcarouge/typed_linear</text>
<text text-anchor="middle" x="1840.12" y="-205.25" font-family="Helvetica,sans-Serif" font-size="10.00">_algebra.hpp</text>
</a>
</g>
</g>
<!-- Node1&#45;&gt;Node3 -->
<g id="edge40_Node000001_Node000003" class="edge">
<title>Node1&#45;&gt;Node3</title>
<g id="a_edge40_Node000001_Node000003"><a xlink:title=" ">
<path fill="none" stroke="#63b8ff" d="M2665.17,-325.65C2493.31,-302.76 2069.2,-246.26 1905.79,-224.5"/>
<polygon fill="#63b8ff" stroke="#63b8ff" points="1906.36,-221.04 1895.98,-223.19 1905.43,-227.98 1906.36,-221.04"/>
</a>
</g>
</g>
<!-- Node8 -->
<g id="Node000008" class="node">
<title>Node8</title>
<g id="a_Node000008"><a xlink:title=" ">
<polygon fill="#e0e0e0" stroke="#999999" points="2763.25,-24.88 2715,-24.88 2715,-5.63 2763.25,-5.63 2763.25,-24.88"/>
<text text-anchor="middle" x="2739.12" y="-11.38" font-family="Helvetica,sans-Serif" font-size="10.00">cstddef</text>
</a>
</g>
</g>
<!-- Node1&#45;&gt;Node8 -->
<g id="edge48_Node000001_Node000008" class="edge">
<title>Node1&#45;&gt;Node8</title>
<g id="a_edge48_Node000001_Node000008"><a xlink:title=" ">
<path fill="none" stroke="#63b8ff" d="M2740.31,-320.88C2743.36,-282.41 2751.44,-175.19 2754.12,-85.75 2754.38,-77.2 2755.36,-74.97 2754.12,-66.5 2752.62,-56.23 2749.48,-45.14 2746.46,-35.99"/>
<polygon fill="#63b8ff" stroke="#63b8ff" points="2749.83,-35.03 2743.21,-26.76 2743.23,-37.35 2749.83,-35.03"/>
</a>
</g>
</g>
<!-- Node10 -->
<g id="Node000010" class="node">
<title>Node10</title>
<g id="a_Node000010"><a xlink:title=" ">
<polygon fill="#e0e0e0" stroke="#999999" points="3022.62,-24.88 2985.62,-24.88 2985.62,-5.63 3022.62,-5.63 3022.62,-24.88"/>
<text text-anchor="middle" x="3004.12" y="-11.38" font-family="Helvetica,sans-Serif" font-size="10.00">tuple</text>
</a>
</g>
</g>
<!-- Node1&#45;&gt;Node10 -->
<g id="edge49_Node000001_Node000010" class="edge">
<title>Node1&#45;&gt;Node10</title>
<g id="a_edge49_Node000001_Node000010"><a xlink:title=" ">
<path fill="none" stroke="#63b8ff" d="M2813.14,-325.05C2914.51,-308.63 3084.12,-272.65 3084.12,-215.75 3084.12,-215.75 3084.12,-215.75 3084.12,-141.62 3084.12,-96.75 3047.25,-55.02 3023.57,-32.85"/>
<polygon fill="#63b8ff" stroke="#63b8ff" points="3026.14,-30.45 3016.37,-26.36 3021.46,-35.65 3026.14,-30.45"/>
</a>
</g>
</g>
<!-- Node28 -->
<g id="Node000028" class="node">
<title>Node28</title>
<g id="a_Node000028"><a xlink:href="unit_8hpp.xhtml" target="_top" xlink:title="Quantities and units facade for mp&#45;units third party implementation.">
<polygon fill="white" stroke="#666666" points="451.25,-285.25 361,-285.25 361,-266 451.25,-266 451.25,-285.25"/>
<text text-anchor="middle" x="406.12" y="-271.75" font-family="Helvetica,sans-Serif" font-size="10.00">fcarouge/unit.hpp</text>
</a>
</g>
</g>
<!-- Node1&#45;&gt;Node28 -->
<g id="edge41_Node000001_Node000028" class="edge">
<title>Node1&#45;&gt;Node28</title>
<g id="a_edge41_Node000001_Node000028"><a xlink:title=" ">
<path fill="none" stroke="#63b8ff" d="M2665.12,-333.63C2309.12,-324.65 777.01,-285.98 462.63,-278.05"/>
<polygon fill="#63b8ff" stroke="#63b8ff" points="463.14,-274.56 453.05,-277.81 462.96,-281.56 463.14,-274.56"/>
</a>
</g>
</g>
<!-- Node2&#45;&gt;Node3 -->
<g id="edge2_Node000002_Node000003" class="edge">
<title>Node2&#45;&gt;Node3</title>
<g id="a_edge2_Node000002_Node000003"><a xlink:title=" ">
<path fill="none" stroke="#63b8ff" d="M2767.06,-271.67C2605.46,-261.92 2089.82,-230.81 1906,-219.72"/>
<polygon fill="#63b8ff" stroke="#63b8ff" points="1906.34,-216.24 1896.15,-219.13 1905.92,-223.23 1906.34,-216.24"/>
</a>
</g>
</g>
<!-- Node7 -->
<g id="Node000007" class="node">
<title>Node7</title>
<g id="a_Node000007"><a xlink:title=" ">
<polygon fill="#e0e0e0" stroke="#999999" points="695,-24.88 639.25,-24.88 639.25,-5.63 695,-5.63 695,-24.88"/>
<text text-anchor="middle" x="667.12" y="-11.38" font-family="Helvetica,sans-Serif" font-size="10.00">concepts</text>
</a>
</g>
</g>
<!-- Node2&#45;&gt;Node7 -->
<g id="edge33_Node000002_Node000007" class="edge">
<title>Node2&#45;&gt;Node7</title>
<g id="a_edge33_Node000002_Node000007"><a xlink:title=" ">
<path fill="none" stroke="#63b8ff" d="M2767.25,-273.57C2458.82,-266.72 792.63,-226.89 707.12,-163.5 667.48,-134.11 664.35,-69.53 665.59,-36.53"/>
<polygon fill="#63b8ff" stroke="#63b8ff" points="669.07,-36.91 666.15,-26.73 662.08,-36.51 669.07,-36.91"/>
</a>
</g>
</g>
<!-- Node2&#45;&gt;Node8 -->
<g id="edge34_Node000002_Node000008" class="edge">
<title>Node2&#45;&gt;Node8</title>
<g id="a_edge34_Node000002_Node000008"><a xlink:title=" ">
<path fill="none" stroke="#63b8ff" d="M2817.92,-265.95C2824.97,-231.04 2849.38,-101 2829.12,-66.5 2817.28,-46.32 2794.05,-33.64 2774.15,-26.07"/>
<polygon fill="#63b8ff" stroke="#63b8ff" points="2775.57,-22.85 2764.97,-22.87 2773.26,-29.46 2775.57,-22.85"/>
</a>
</g>
</g>
<!-- Node2&#45;&gt;Node10 -->
<g id="edge37_Node000002_Node000010" class="edge">
<title>Node2&#45;&gt;Node10</title>
<g id="a_edge37_Node000002_Node000010"><a xlink:title=" ">
<path fill="none" stroke="#63b8ff" d="M2865.04,-270.23C2916.45,-264.47 2992.31,-252.37 3010.12,-230 3055.69,-172.76 3027.54,-76.97 3012.17,-35.91"/>
<polygon fill="#63b8ff" stroke="#63b8ff" points="3015.45,-34.68 3008.55,-26.64 3008.93,-37.23 3015.45,-34.68"/>
</a>
</g>
</g>
<!-- Node11 -->
<g id="Node000011" class="node">
<title>Node11</title>
<g id="a_Node000011"><a xlink:title=" ">
<polygon fill="#e0e0e0" stroke="#999999" points="2925.62,-24.88 2864.62,-24.88 2864.62,-5.63 2925.62,-5.63 2925.62,-24.88"/>
<text text-anchor="middle" x="2895.12" y="-11.38" font-family="Helvetica,sans-Serif" font-size="10.00">type_traits</text>
</a>
</g>
</g>
<!-- Node2&#45;&gt;Node11 -->
<g id="edge38_Node000002_Node000011" class="edge">
<title>Node2&#45;&gt;Node11</title>
<g id="a_edge38_Node000002_Node000011"><a xlink:title=" ">
<path fill="none" stroke="#63b8ff" d="M2865.31,-268.66C2910.94,-261.99 2974.02,-249.49 2989.12,-230 3038.88,-165.78 2953.14,-71.13 2913.55,-33.04"/>
<polygon fill="#63b8ff" stroke="#63b8ff" points="2916.01,-30.54 2906.32,-26.24 2911.21,-35.64 2916.01,-30.54"/>
</a>
</g>
</g>
<!-- Node12 -->
<g id="Node000012" class="node">
<title>Node12</title>
<g id="a_Node000012"><a xlink:title=" ">
<polygon fill="#e0e0e0" stroke="#999999" points="2711,-85.75 2667.25,-85.75 2667.25,-66.5 2711,-66.5 2711,-85.75"/>
<text text-anchor="middle" x="2689.12" y="-72.25" font-family="Helvetica,sans-Serif" font-size="10.00">format</text>
</a>
</g>
</g>
<!-- Node2&#45;&gt;Node12 -->
<g id="edge35_Node000002_Node000012" class="edge">
<title>Node2&#45;&gt;Node12</title>
<g id="a_edge35_Node000002_Node000012"><a xlink:title=" ">
<path fill="none" stroke="#63b8ff" d="M2810.34,-265.63C2790.92,-235.42 2727.79,-137.25 2701.15,-95.83"/>
<polygon fill="#63b8ff" stroke="#63b8ff" points="2704.12,-93.97 2695.76,-87.45 2698.23,-97.75 2704.12,-93.97"/>
</a>
</g>
</g>
<!-- Node26 -->
<g id="Node000026" class="node">
<title>Node26</title>
<g id="a_Node000026"><a xlink:title=" ">
<polygon fill="#e0e0e0" stroke="#999999" points="2894.75,-224.38 2843.5,-224.38 2843.5,-205.12 2894.75,-205.12 2894.75,-224.38"/>
<text text-anchor="middle" x="2869.12" y="-210.88" font-family="Helvetica,sans-Serif" font-size="10.00">sstream</text>
</a>
</g>
</g>
<!-- Node2&#45;&gt;Node26 -->
<g id="edge36_Node000002_Node000026" class="edge">
<title>Node2&#45;&gt;Node26</title>
<g id="a_edge36_Node000002_Node000026"><a xlink:title=" ">
<path fill="none" stroke="#63b8ff" d="M2824.17,-265.68C2831.88,-257.12 2843.71,-243.98 2853.31,-233.32"/>
<polygon fill="#63b8ff" stroke="#63b8ff" points="2855.9,-235.67 2859.99,-225.9 2850.7,-230.99 2855.9,-235.67"/>
</a>
</g>
</g>
<!-- Node27 -->
<g id="Node000027" class="node">
<title>Node27</title>
<g id="a_Node000027"><a xlink:title=" ">
<polygon fill="#e0e0e0" stroke="#999999" points="2979.62,-224.38 2912.62,-224.38 2912.62,-205.12 2979.62,-205.12 2979.62,-224.38"/>
<text text-anchor="middle" x="2946.12" y="-210.88" font-family="Helvetica,sans-Serif" font-size="10.00">Eigen/Eigen</text>
</a>
</g>
</g>
<!-- Node2&#45;&gt;Node27 -->
<g id="edge39_Node000002_Node000027" class="edge">
<title>Node2&#45;&gt;Node27</title>
<g id="a_edge39_Node000002_Node000027"><a xlink:title=" ">
<path fill="none" stroke="#63b8ff" d="M2836.15,-265.55C2857.49,-255.89 2891.52,-240.48 2916.08,-229.36"/>
<polygon fill="#63b8ff" stroke="#63b8ff" points="2917.24,-232.67 2924.91,-225.36 2914.36,-226.3 2917.24,-232.67"/>
</a>
</g>
</g>
<!-- Node4 -->
<g id="Node000004" class="node">
<title>Node4</title>
<g id="a_Node000004"><a xlink:href="typed__linear__algebra__forward_8hpp.xhtml" target="_top" xlink:title="Authoritative forward declaration header.">
<polygon fill="white" stroke="#666666" points="2547.38,-30.5 2442.88,-30.5 2442.88,0 2547.38,0 2547.38,-30.5"/>
<text text-anchor="start" x="2450.88" y="-17" font-family="Helvetica,sans-Serif" font-size="10.00">typed_linear_algebra</text>
<text text-anchor="middle" x="2495.12" y="-5.75" font-family="Helvetica,sans-Serif" font-size="10.00">_forward.hpp</text>
</a>
</g>
</g>
<!-- Node3&#45;&gt;Node4 -->
<g id="edge3_Node000003_Node000004" class="edge">
<title>Node3&#45;&gt;Node4</title>
<g id="a_edge3_Node000003_Node000004"><a xlink:title=" ">
<path fill="none" stroke="#63b8ff" d="M1785.63,-213.26C1572.14,-211.08 802.59,-200.67 767.12,-163.5 754.31,-150.08 754.41,-135.26 767.12,-121.75 825.27,-59.95 2125.72,-25.08 2431.27,-17.72"/>
<polygon fill="#63b8ff" stroke="#63b8ff" points="2431.13,-21.23 2441.04,-17.49 2430.96,-14.23 2431.13,-21.23"/>
</a>
</g>
</g>
<!-- Node5 -->
<g id="Node000005" class="node">
<title>Node5</title>
<g id="a_Node000005"><a xlink:href="format_8hpp.xhtml" target="_top" xlink:title="Formatting support for the typed matrix.">
<polygon fill="white" stroke="#666666" points="2673.38,-157.88 2568.88,-157.88 2568.88,-127.38 2673.38,-127.38 2673.38,-157.88"/>
<text text-anchor="start" x="2576.88" y="-144.38" font-family="Helvetica,sans-Serif" font-size="10.00">typed_linear_algebra</text>
<text text-anchor="middle" x="2621.12" y="-133.12" font-family="Helvetica,sans-Serif" font-size="10.00">_internal/format.hpp</text>
</a>
</g>
</g>
<!-- Node3&#45;&gt;Node5 -->
<g id="edge4_Node000003_Node000005" class="edge">
<title>Node3&#45;&gt;Node5</title>
<g id="a_edge4_Node000003_Node000005"><a xlink:title=" ">
<path fill="none" stroke="#63b8ff" d="M1894.46,-214.47C2015.31,-215.1 2315.06,-211.22 2560.12,-163.5 2563.3,-162.88 2566.54,-162.15 2569.8,-161.33"/>
<polygon fill="#63b8ff" stroke="#63b8ff" points="2570.64,-164.73 2579.34,-158.7 2568.77,-157.98 2570.64,-164.73"/>
</a>
</g>
</g>
<!-- Node6 -->
<g id="Node000006" class="node">
<title>Node6</title>
<g id="a_Node000006"><a xlink:href="utility_8hpp.xhtml" target="_top" xlink:title=" ">
<polygon fill="white" stroke="#666666" points="2611.38,-85.75 2554.88,-85.75 2554.88,-66.5 2611.38,-66.5 2611.38,-85.75"/>
<text text-anchor="middle" x="2583.12" y="-72.25" font-family="Helvetica,sans-Serif" font-size="10.00">utility.hpp</text>
</a>
</g>
</g>
<!-- Node3&#45;&gt;Node6 -->
<g id="edge15_Node000003_Node000006" class="edge">
<title>Node3&#45;&gt;Node6</title>
<g id="a_edge15_Node000003_Node000006"><a xlink:title=" ">
<path fill="none" stroke="#63b8ff" d="M1785.62,-213.23C1573.91,-210.93 816.08,-200.15 781.12,-163.5 768.32,-150.07 768.17,-135.03 781.12,-121.75 812.97,-89.11 2281.69,-78.91 2543.43,-77.35"/>
<polygon fill="#63b8ff" stroke="#63b8ff" points="2543.15,-80.85 2553.12,-77.29 2543.1,-73.85 2543.15,-80.85"/>
</a>
</g>
</g>
<!-- Node3&#45;&gt;Node7 -->
<g id="edge16_Node000003_Node000007" class="edge">
<title>Node3&#45;&gt;Node7</title>
<g id="a_edge16_Node000003_Node000007"><a xlink:title=" ">
<path fill="none" stroke="#63b8ff" d="M1785.54,-214.25C1577.55,-215.75 841.82,-217.17 753.12,-163.5 705.74,-134.82 681.68,-69.41 672.16,-36.28"/>
<polygon fill="#63b8ff" stroke="#63b8ff" points="675.58,-35.51 669.6,-26.76 668.82,-37.33 675.58,-35.51"/>
</a>
</g>
</g>
<!-- Node3&#45;&gt;Node8 -->
<g id="edge17_Node000003_Node000008" class="edge">
<title>Node3&#45;&gt;Node8</title>
<g id="a_edge17_Node000003_Node000008"><a xlink:title=" ">
<path fill="none" stroke="#63b8ff" d="M1894.67,-214.27C2074.57,-215.48 2641.15,-215.13 2703.12,-163.5 2740.79,-132.12 2742.7,-68.45 2740.95,-36.09"/>
<polygon fill="#63b8ff" stroke="#63b8ff" points="2744.47,-36.23 2740.25,-26.51 2737.49,-36.74 2744.47,-36.23"/>
</a>
</g>
</g>
<!-- Node3&#45;&gt;Node10 -->
<g id="edge20_Node000003_Node000010" class="edge">
<title>Node3&#45;&gt;Node10</title>
<g id="a_edge20_Node000003_Node000010"><a xlink:title=" ">
<path fill="none" stroke="#63b8ff" d="M1894.48,-213.76C2062.5,-213.29 2571.77,-208.14 2730.12,-163.5 2832.11,-134.75 2938.73,-63.57 2982.96,-31.89"/>
<polygon fill="#63b8ff" stroke="#63b8ff" points="2984.86,-34.83 2990.91,-26.13 2980.75,-29.16 2984.86,-34.83"/>
</a>
</g>
</g>
<!-- Node3&#45;&gt;Node12 -->
<g id="edge18_Node000003_Node000012" class="edge">
<title>Node3&#45;&gt;Node12</title>
<g id="a_edge18_Node000003_Node000012"><a xlink:title=" ">
<path fill="none" stroke="#63b8ff" d="M1894.56,-212.45C2076.55,-207.84 2653.94,-191.1 2682.12,-163.5 2699.4,-146.58 2697.75,-116.86 2694.12,-97.08"/>
<polygon fill="#63b8ff" stroke="#63b8ff" points="2697.57,-96.5 2692.02,-87.48 2690.74,-98 2697.57,-96.5"/>
</a>
</g>
</g>
<!-- Node13 -->
<g id="Node000013" class="node">
<title>Node13</title>
<g id="a_Node000013"><a xlink:title=" ">
<polygon fill="#e0e0e0" stroke="#999999" points="861.88,-152.25 790.38,-152.25 790.38,-133 861.88,-133 861.88,-152.25"/>
<text text-anchor="middle" x="826.12" y="-138.75" font-family="Helvetica,sans-Serif" font-size="10.00">initializer_list</text>
</a>
</g>
</g>
<!-- Node3&#45;&gt;Node13 -->
<g id="edge19_Node000003_Node000013" class="edge">
<title>Node3&#45;&gt;Node13</title>
<g id="a_edge19_Node000003_Node000013"><a xlink:title=" ">
<path fill="none" stroke="#63b8ff" d="M1785.53,-213.52C1607.75,-212.34 1046.77,-205.34 871.12,-163.5 865,-162.04 858.67,-159.77 852.76,-157.28"/>
<polygon fill="#63b8ff" stroke="#63b8ff" points="854.64,-154.29 844.09,-153.32 851.73,-160.66 854.64,-154.29"/>
</a>
</g>
</g>
<!-- Node14 -->
<g id="Node000014" class="node">
<title>Node14</title>
<g id="a_Node000014"><a xlink:title=" ">
<polygon fill="#e0e0e0" stroke="#999999" points="918.38,-152.25 879.88,-152.25 879.88,-133 918.38,-133 918.38,-152.25"/>
<text text-anchor="middle" x="899.12" y="-138.75" font-family="Helvetica,sans-Serif" font-size="10.00">utility</text>
</a>
</g>
</g>
<!-- Node3&#45;&gt;Node14 -->
<g id="edge21_Node000003_Node000014" class="edge">
<title>Node3&#45;&gt;Node14</title>
<g id="a_edge21_Node000003_Node000014"><a xlink:title=" ">
<path fill="none" stroke="#63b8ff" d="M1785.51,-212.51C1601.02,-208.07 1007.96,-191.74 927.12,-163.5 924.12,-162.45 921.14,-160.97 918.32,-159.29"/>
<polygon fill="#63b8ff" stroke="#63b8ff" points="920.4,-156.47 910.21,-153.57 916.37,-162.19 920.4,-156.47"/>
</a>
</g>
</g>
<!-- Node15 -->
<g id="Node000015" class="node">
<title>Node15</title>
<g id="a_Node000015"><a xlink:title=" ">
<polygon fill="#e0e0e0" stroke="#999999" points="1066.12,-157.88 936.12,-157.88 936.12,-127.38 1066.12,-127.38 1066.12,-157.88"/>
<text text-anchor="start" x="944.12" y="-144.38" font-family="Helvetica,sans-Serif" font-size="10.00">typed_linear_algebra</text>
<text text-anchor="middle" x="1001.12" y="-133.12" font-family="Helvetica,sans-Serif" font-size="10.00">_internal/algorithm/add.tpp</text>
</a>
</g>
</g>
<!-- Node3&#45;&gt;Node15 -->
<g id="edge22_Node000003_Node000015" class="edge">
<title>Node3&#45;&gt;Node15</title>
<g id="a_edge22_Node000003_Node000015"><a xlink:title=" ">
<path fill="none" stroke="#63b8ff" d="M1785.91,-213.84C1660.14,-213.24 1339.06,-207.18 1075.12,-163.5 1070.75,-162.78 1066.25,-161.9 1061.75,-160.93"/>
<polygon fill="#63b8ff" stroke="#63b8ff" points="1062.59,-157.53 1052.06,-158.69 1061.01,-164.35 1062.59,-157.53"/>
</a>
</g>
</g>
<!-- Node16 -->
<g id="Node000016" class="node">
<title>Node16</title>
<g id="a_Node000016"><a xlink:title=" ">
<polygon fill="#e0e0e0" stroke="#999999" points="1224,-157.88 1084.25,-157.88 1084.25,-127.38 1224,-127.38 1224,-157.88"/>
<text text-anchor="start" x="1092.25" y="-144.38" font-family="Helvetica,sans-Serif" font-size="10.00">typed_linear_algebra</text>
<text text-anchor="middle" x="1154.12" y="-133.12" font-family="Helvetica,sans-Serif" font-size="10.00">_internal/algorithm/divide.tpp</text>
</a>
</g>
</g>
<!-- Node3&#45;&gt;Node16 -->
<g id="edge23_Node000003_Node000016" class="edge">
<title>Node3&#45;&gt;Node16</title>
<g id="a_edge23_Node000003_Node000016"><a xlink:title=" ">
<path fill="none" stroke="#63b8ff" d="M1785.76,-212.23C1679.11,-208.6 1435.23,-197.06 1233.12,-163.5 1228.29,-162.7 1223.31,-161.75 1218.32,-160.7"/>
<polygon fill="#63b8ff" stroke="#63b8ff" points="1219.42,-157.36 1208.9,-158.62 1217.91,-164.2 1219.42,-157.36"/>
</a>
</g>
</g>
<!-- Node17 -->
<g id="Node000017" class="node">
<title>Node17</title>
<g id="a_Node000017"><a xlink:title=" ">
<polygon fill="#e0e0e0" stroke="#999999" points="1364,-163.5 1242.25,-163.5 1242.25,-121.75 1364,-121.75 1364,-163.5"/>
<text text-anchor="start" x="1250.25" y="-150" font-family="Helvetica,sans-Serif" font-size="10.00">typed_linear_algebra</text>
<text text-anchor="start" x="1250.25" y="-138.75" font-family="Helvetica,sans-Serif" font-size="10.00">_internal/algorithm/equal</text>
<text text-anchor="middle" x="1303.12" y="-127.5" font-family="Helvetica,sans-Serif" font-size="10.00">_to.tpp</text>
</a>
</g>
</g>
<!-- Node3&#45;&gt;Node17 -->
<g id="edge24_Node000003_Node000017" class="edge">
<title>Node3&#45;&gt;Node17</title>
<g id="a_edge24_Node000003_Node000017"><a xlink:title=" ">
<path fill="none" stroke="#63b8ff" d="M1785.75,-210.9C1700.24,-205.75 1529.08,-192.82 1375.47,-163.79"/>
<polygon fill="#63b8ff" stroke="#63b8ff" points="1376.41,-160.41 1365.93,-161.96 1375.09,-167.28 1376.41,-160.41"/>
</a>
</g>
</g>
<!-- Node18 -->
<g id="Node000018" class="node">
<title>Node18</title>
<g id="a_Node000018"><a xlink:title=" ">
<polygon fill="#e0e0e0" stroke="#999999" points="1506.5,-163.5 1381.75,-163.5 1381.75,-121.75 1506.5,-121.75 1506.5,-163.5"/>
<text text-anchor="start" x="1389.75" y="-150" font-family="Helvetica,sans-Serif" font-size="10.00">typed_linear_algebra</text>
<text text-anchor="start" x="1389.75" y="-138.75" font-family="Helvetica,sans-Serif" font-size="10.00">_internal/algorithm/matrix</text>
<text text-anchor="middle" x="1444.12" y="-127.5" font-family="Helvetica,sans-Serif" font-size="10.00">_product.tpp</text>
</a>
</g>
</g>
<!-- Node3&#45;&gt;Node18 -->
<g id="edge25_Node000003_Node000018" class="edge">
<title>Node3&#45;&gt;Node18</title>
<g id="a_edge25_Node000003_Node000018"><a xlink:title=" ">
<path fill="none" stroke="#63b8ff" d="M1785.6,-207.25C1723.26,-199.38 1617.99,-184.78 1518.06,-163.79"/>
<polygon fill="#63b8ff" stroke="#63b8ff" points="1518.84,-160.37 1508.33,-161.71 1517.38,-167.22 1518.84,-160.37"/>
</a>
</g>
</g>
<!-- Node19 -->
<g id="Node000019" class="node">
<title>Node19</title>
<g id="a_Node000019"><a xlink:title=" ">
<polygon fill="#e0e0e0" stroke="#999999" points="1671.38,-157.88 1524.88,-157.88 1524.88,-127.38 1671.38,-127.38 1671.38,-157.88"/>
<text text-anchor="start" x="1532.88" y="-144.38" font-family="Helvetica,sans-Serif" font-size="10.00">typed_linear_algebra</text>
<text text-anchor="middle" x="1598.12" y="-133.12" font-family="Helvetica,sans-Serif" font-size="10.00">_internal/algorithm/product.tpp</text>
</a>
</g>
</g>
<!-- Node3&#45;&gt;Node19 -->
<g id="edge26_Node000003_Node000019" class="edge">
<title>Node3&#45;&gt;Node19</title>
<g id="a_edge26_Node000003_Node000019"><a xlink:title=" ">
<path fill="none" stroke="#63b8ff" d="M1789.39,-199.05C1751.64,-188.11 1699.92,-173.12 1659.78,-161.49"/>
<polygon fill="#63b8ff" stroke="#63b8ff" points="1660.82,-158.15 1650.24,-158.73 1658.87,-164.87 1660.82,-158.15"/>
</a>
</g>
</g>
<!-- Node20 -->
<g id="Node000020" class="node">
<title>Node20</title>
<g id="a_Node000020"><a xlink:title=" ">
<polygon fill="#e0e0e0" stroke="#999999" points="1826.88,-157.88 1689.38,-157.88 1689.38,-127.38 1826.88,-127.38 1826.88,-157.88"/>
<text text-anchor="start" x="1697.38" y="-144.38" font-family="Helvetica,sans-Serif" font-size="10.00">typed_linear_algebra</text>
<text text-anchor="middle" x="1758.12" y="-133.12" font-family="Helvetica,sans-Serif" font-size="10.00">_internal/algorithm/scale.tpp</text>
</a>
</g>
</g>
<!-- Node3&#45;&gt;Node20 -->
<g id="edge27_Node000003_Node000020" class="edge">
<title>Node3&#45;&gt;Node20</title>
<g id="a_edge27_Node000003_Node000020"><a xlink:title=" ">
<path fill="none" stroke="#63b8ff" d="M1823.13,-199.22C1811.7,-189.44 1796.42,-176.37 1783.54,-165.36"/>
<polygon fill="#63b8ff" stroke="#63b8ff" points="1786.12,-162.96 1776.24,-159.12 1781.57,-168.28 1786.12,-162.96"/>
</a>
</g>
</g>
<!-- Node21 -->
<g id="Node000021" class="node">
<title>Node21</title>
<g id="a_Node000021"><a xlink:title=" ">
<polygon fill="#e0e0e0" stroke="#999999" points="1999.5,-157.88 1844.75,-157.88 1844.75,-127.38 1999.5,-127.38 1999.5,-157.88"/>
<text text-anchor="start" x="1852.75" y="-144.38" font-family="Helvetica,sans-Serif" font-size="10.00">typed_linear_algebra</text>
<text text-anchor="middle" x="1922.12" y="-133.12" font-family="Helvetica,sans-Serif" font-size="10.00">_internal/algorithm/substract.tpp</text>
</a>
</g>
</g>
<!-- Node3&#45;&gt;Node21 -->
<g id="edge28_Node000003_Node000021" class="edge">
<title>Node3&#45;&gt;Node21</title>
<g id="a_edge28_Node000003_Node000021"><a xlink:title=" ">
<path fill="none" stroke="#63b8ff" d="M1857.12,-199.22C1868.55,-189.44 1883.83,-176.37 1896.71,-165.36"/>
<polygon fill="#63b8ff" stroke="#63b8ff" points="1898.68,-168.28 1904.01,-159.12 1894.13,-162.96 1898.68,-168.28"/>
</a>
</g>
</g>
<!-- Node22 -->
<g id="Node000022" class="node">
<title>Node22</title>
<g id="a_Node000022"><a xlink:title=" ">
<polygon fill="#e0e0e0" stroke="#999999" points="2180.25,-157.88 2018,-157.88 2018,-127.38 2180.25,-127.38 2180.25,-157.88"/>
<text text-anchor="start" x="2026" y="-144.38" font-family="Helvetica,sans-Serif" font-size="10.00">typed_linear_algebra</text>
<text text-anchor="middle" x="2099.12" y="-133.12" font-family="Helvetica,sans-Serif" font-size="10.00">_internal/algorithm/transposed.tpp</text>
</a>
</g>
</g>
<!-- Node3&#45;&gt;Node22 -->
<g id="edge29_Node000003_Node000022" class="edge">
<title>Node3&#45;&gt;Node22</title>
<g id="a_edge29_Node000003_Node000022"><a xlink:title=" ">
<path fill="none" stroke="#63b8ff" d="M1894.42,-199.05C1935.08,-188.04 1990.89,-172.93 2033.96,-161.27"/>
<polygon fill="#63b8ff" stroke="#63b8ff" points="2034.7,-164.69 2043.44,-158.7 2032.87,-157.94 2034.7,-164.69"/>
</a>
</g>
</g>
<!-- Node23 -->
<g id="Node000023" class="node">
<title>Node23</title>
<g id="a_Node000023"><a xlink:title=" ">
<polygon fill="#e0e0e0" stroke="#999999" points="2302.38,-157.88 2197.88,-157.88 2197.88,-127.38 2302.38,-127.38 2302.38,-157.88"/>
<text text-anchor="start" x="2205.88" y="-144.38" font-family="Helvetica,sans-Serif" font-size="10.00">typed_linear_algebra</text>
<text text-anchor="middle" x="2250.12" y="-133.12" font-family="Helvetica,sans-Serif" font-size="10.00">_internal/cast.tpp</text>
</a>
</g>
</g>
<!-- Node3&#45;&gt;Node23 -->
<g id="edge30_Node000003_Node000023" class="edge">
<title>Node3&#45;&gt;Node23</title>
<g id="a_edge30_Node000003_Node000023"><a xlink:title=" ">
<path fill="none" stroke="#63b8ff" d="M1894.47,-208.85C1963.58,-201.95 2086.29,-187.47 2189.12,-163.5 2191.73,-162.89 2194.39,-162.22 2197.06,-161.51"/>
<polygon fill="#63b8ff" stroke="#63b8ff" points="2197.95,-164.9 2206.6,-158.79 2196.03,-158.17 2197.95,-164.9"/>
</a>
</g>
</g>
<!-- Node24 -->
<g id="Node000024" class="node">
<title>Node24</title>
<g id="a_Node000024"><a xlink:title=" ">
<polygon fill="#e0e0e0" stroke="#999999" points="2425.38,-157.88 2320.88,-157.88 2320.88,-127.38 2425.38,-127.38 2425.38,-157.88"/>
<text text-anchor="start" x="2328.88" y="-144.38" font-family="Helvetica,sans-Serif" font-size="10.00">typed_linear_algebra</text>
<text text-anchor="middle" x="2373.12" y="-133.12" font-family="Helvetica,sans-Serif" font-size="10.00">_internal/tuple.tpp</text>
</a>
</g>
</g>
<!-- Node3&#45;&gt;Node24 -->
<g id="edge31_Node000003_Node000024" class="edge">
<title>Node3&#45;&gt;Node24</title>
<g id="a_edge31_Node000003_Node000024"><a xlink:title=" ">
<path fill="none" stroke="#63b8ff" d="M1894.73,-211.54C1983.08,-207.16 2162.48,-194.91 2311.12,-163.5 2314.08,-162.88 2317.1,-162.16 2320.13,-161.39"/>
<polygon fill="#63b8ff" stroke="#63b8ff" points="2320.91,-164.81 2329.62,-158.77 2319.05,-158.06 2320.91,-164.81"/>
</a>
</g>
</g>
<!-- Node25 -->
<g id="Node000025" class="node">
<title>Node25</title>
<g id="a_Node000025"><a xlink:title=" ">
<polygon fill="#e0e0e0" stroke="#999999" points="2550.88,-163.5 2443.38,-163.5 2443.38,-121.75 2550.88,-121.75 2550.88,-163.5"/>
<text text-anchor="start" x="2451.38" y="-150" font-family="Helvetica,sans-Serif" font-size="10.00">typed_linear_algebra</text>
<text text-anchor="start" x="2451.38" y="-138.75" font-family="Helvetica,sans-Serif" font-size="10.00">_internal/typed_linear</text>
<text text-anchor="middle" x="2497.12" y="-127.5" font-family="Helvetica,sans-Serif" font-size="10.00">_algebra.tpp</text>
</a>
</g>
</g>
<!-- Node3&#45;&gt;Node25 -->
<g id="edge32_Node000003_Node000025" class="edge">
<title>Node3&#45;&gt;Node25</title>
<g id="a_edge32_Node000003_Node000025"><a xlink:title=" ">
<path fill="none" stroke="#63b8ff" d="M1894.74,-213.15C1998.16,-211.15 2229.61,-202.52 2431.89,-163.7"/>
<polygon fill="#63b8ff" stroke="#63b8ff" points="2432.4,-167.17 2441.54,-161.82 2431.06,-160.3 2432.4,-167.17"/>
</a>
</g>
</g>
<!-- Node5&#45;&gt;Node4 -->
<g id="edge5_Node000005_Node000004" class="edge">
<title>Node5&#45;&gt;Node4</title>
<g id="a_edge5_Node000005_Node000004"><a xlink:title=" ">
<path fill="none" stroke="#63b8ff" d="M2598.07,-127.09C2582.47,-116.65 2561.91,-101.65 2546.12,-85.75 2532.46,-71.99 2519.57,-54.36 2510.16,-40.3"/>
<polygon fill="#63b8ff" stroke="#63b8ff" points="2513.19,-38.53 2504.8,-32.06 2507.32,-42.35 2513.19,-38.53"/>
</a>
</g>
</g>
<!-- Node5&#45;&gt;Node6 -->
<g id="edge6_Node000005_Node000006" class="edge">
<title>Node5&#45;&gt;Node6</title>
<g id="a_edge6_Node000005_Node000006"><a xlink:title=" ">
<path fill="none" stroke="#63b8ff" d="M2612.5,-126.99C2607.03,-117.71 2599.91,-105.62 2594.05,-95.67"/>
<polygon fill="#63b8ff" stroke="#63b8ff" points="2597.18,-94.09 2589.09,-87.25 2591.15,-97.64 2597.18,-94.09"/>
</a>
</g>
</g>
<!-- Node5&#45;&gt;Node8 -->
<g id="edge13_Node000005_Node000008" class="edge">
<title>Node5&#45;&gt;Node8</title>
<g id="a_edge13_Node000005_Node000008"><a xlink:title=" ">
<path fill="none" stroke="#63b8ff" d="M2625.62,-126.93C2631.17,-110.66 2641.91,-84.38 2658.12,-66.5 2671.9,-51.32 2691.3,-39.06 2707.67,-30.46"/>
<polygon fill="#63b8ff" stroke="#63b8ff" points="2709.17,-33.62 2716.54,-26.01 2706.03,-27.36 2709.17,-33.62"/>
</a>
</g>
</g>
<!-- Node5&#45;&gt;Node12 -->
<g id="edge14_Node000005_Node000012" class="edge">
<title>Node5&#45;&gt;Node12</title>
<g id="a_edge14_Node000005_Node000012"><a xlink:title=" ">
<path fill="none" stroke="#63b8ff" d="M2636.56,-126.99C2646.96,-117.12 2660.72,-104.07 2671.55,-93.79"/>
<polygon fill="#63b8ff" stroke="#63b8ff" points="2673.88,-96.41 2678.73,-86.99 2669.06,-91.33 2673.88,-96.41"/>
</a>
</g>
</g>
<!-- Node6&#45;&gt;Node4 -->
<g id="edge7_Node000006_Node000004" class="edge">
<title>Node6&#45;&gt;Node4</title>
<g id="a_edge7_Node000006_Node000004"><a xlink:title=" ">
<path fill="none" stroke="#63b8ff" d="M2569.76,-66.18C2558.24,-58.48 2541.17,-47.05 2526.25,-37.08"/>
<polygon fill="#63b8ff" stroke="#63b8ff" points="2528.36,-34.28 2518.1,-31.62 2524.47,-40.09 2528.36,-34.28"/>
</a>
</g>
</g>
<!-- Node6&#45;&gt;Node7 -->
<g id="edge8_Node000006_Node000007" class="edge">
<title>Node6&#45;&gt;Node7</title>
<g id="a_edge8_Node000006_Node000007"><a xlink:title=" ">
<path fill="none" stroke="#63b8ff" d="M2554.55,-74.25C2338.14,-67.6 958.67,-25.21 706.63,-17.46"/>
<polygon fill="#63b8ff" stroke="#63b8ff" points="706.78,-13.97 696.68,-17.16 706.57,-20.96 706.78,-13.97"/>
</a>
</g>
</g>
<!-- Node6&#45;&gt;Node8 -->
<g id="edge9_Node000006_Node000008" class="edge">
<title>Node6&#45;&gt;Node8</title>
<g id="a_edge9_Node000006_Node000008"><a xlink:title=" ">
<path fill="none" stroke="#63b8ff" d="M2607.16,-66.05C2633.15,-56.24 2674.83,-40.51 2704.39,-29.36"/>
<polygon fill="#63b8ff" stroke="#63b8ff" points="2705.53,-32.67 2713.65,-25.86 2703.06,-26.12 2705.53,-32.67"/>
</a>
</g>
</g>
<!-- Node9 -->
<g id="Node000009" class="node">
<title>Node9</title>
<g id="a_Node000009"><a xlink:title=" ">
<polygon fill="#e0e0e0" stroke="#999999" points="2623.12,-24.88 2565.12,-24.88 2565.12,-5.63 2623.12,-5.63 2623.12,-24.88"/>
<text text-anchor="middle" x="2594.12" y="-11.38" font-family="Helvetica,sans-Serif" font-size="10.00">functional</text>
</a>
</g>
</g>
<!-- Node6&#45;&gt;Node9 -->
<g id="edge10_Node000006_Node000009" class="edge">
<title>Node6&#45;&gt;Node9</title>
<g id="a_edge10_Node000006_Node000009"><a xlink:title=" ">
<path fill="none" stroke="#63b8ff" d="M2584.8,-66.18C2586.27,-58.32 2588.46,-46.57 2590.35,-36.45"/>
<polygon fill="#63b8ff" stroke="#63b8ff" points="2593.76,-37.24 2592.16,-26.76 2586.88,-35.95 2593.76,-37.24"/>
</a>
</g>
</g>
<!-- Node6&#45;&gt;Node10 -->
<g id="edge11_Node000006_Node000010" class="edge">
<title>Node6&#45;&gt;Node10</title>
<g id="a_edge11_Node000006_Node000010"><a xlink:title=" ">
<path fill="none" stroke="#63b8ff" d="M2611.79,-71.78C2684.13,-63.3 2872.77,-40.88 2935.12,-30.5 2948.02,-28.35 2962.17,-25.52 2974.28,-22.94"/>
<polygon fill="#63b8ff" stroke="#63b8ff" points="2974.65,-26.44 2983.68,-20.9 2973.17,-19.6 2974.65,-26.44"/>
</a>
</g>
</g>
<!-- Node6&#45;&gt;Node11 -->
<g id="edge12_Node000006_Node000011" class="edge">
<title>Node6&#45;&gt;Node11</title>
<g id="a_edge12_Node000006_Node000011"><a xlink:title=" ">
<path fill="none" stroke="#63b8ff" d="M2611.64,-69.74C2666.99,-59.3 2789.17,-36.24 2853.56,-24.09"/>
<polygon fill="#63b8ff" stroke="#63b8ff" points="2853.84,-27.6 2863.01,-22.31 2852.54,-20.72 2853.84,-27.6"/>
</a>
</g>
</g>
<!-- Node28&#45;&gt;Node7 -->
<g id="edge42_Node000028_Node000007" class="edge">
<title>Node28&#45;&gt;Node7</title>
<g id="a_edge42_Node000028_Node000007"><a xlink:title=" ">
<path fill="none" stroke="#63b8ff" d="M421.28,-265.6C434.92,-257.16 455.21,-243.82 471.12,-230 546.5,-164.54 622.69,-72.25 653.22,-33.96"/>
<polygon fill="#63b8ff" stroke="#63b8ff" points="655.88,-36.25 659.34,-26.24 650.39,-31.91 655.88,-36.25"/>
</a>
</g>
</g>
<!-- Node29 -->
<g id="Node000029" class="node">
<title>Node29</title>
<g id="a_Node000029"><a xlink:title=" ">
<polygon fill="#e0e0e0" stroke="#999999" points="620.25,-230 518,-230 518,-199.5 620.25,-199.5 620.25,-230"/>
<text text-anchor="start" x="526" y="-216.5" font-family="Helvetica,sans-Serif" font-size="10.00">mp&#45;units/framework</text>
<text text-anchor="middle" x="569.12" y="-205.25" font-family="Helvetica,sans-Serif" font-size="10.00">/quantity.h</text>
</a>
</g>
</g>
<!-- Node28&#45;&gt;Node29 -->
<g id="edge43_Node000028_Node000029" class="edge">
<title>Node28&#45;&gt;Node29</title>
<g id="a_edge43_Node000028_Node000029"><a xlink:title=" ">
<path fill="none" stroke="#63b8ff" d="M431.24,-265.55C454.2,-257.26 488.88,-244.73 517.71,-234.32"/>
<polygon fill="#63b8ff" stroke="#63b8ff" points="518.8,-237.65 527.02,-230.96 516.42,-231.06 518.8,-237.65"/>
</a>
</g>
</g>
<!-- Node30 -->
<g id="Node000030" class="node">
<title>Node30</title>
<g id="a_Node000030"><a xlink:title=" ">
<polygon fill="#e0e0e0" stroke="#999999" points="102.25,-230 0,-230 0,-199.5 102.25,-199.5 102.25,-230"/>
<text text-anchor="start" x="8" y="-216.5" font-family="Helvetica,sans-Serif" font-size="10.00">mp&#45;units/framework</text>
<text text-anchor="middle" x="51.12" y="-205.25" font-family="Helvetica,sans-Serif" font-size="10.00">/quantity_point.h</text>
</a>
</g>
</g>
<!-- Node28&#45;&gt;Node30 -->
<g id="edge44_Node000028_Node000030" class="edge">
<title>Node28&#45;&gt;Node30</title>
<g id="a_edge44_Node000028_Node000030"><a xlink:title=" ">
<path fill="none" stroke="#63b8ff" d="M360.69,-268.94C304.8,-261.69 206.79,-248.13 113.51,-230.37"/>
<polygon fill="#63b8ff" stroke="#63b8ff" points="114.42,-226.98 103.94,-228.52 113.09,-233.85 114.42,-226.98"/>
</a>
</g>
</g>
<!-- Node31 -->
<g id="Node000031" class="node">
<title>Node31</title>
<g id="a_Node000031"><a xlink:title=" ">
<polygon fill="#e0e0e0" stroke="#999999" points="206,-224.38 120.25,-224.38 120.25,-205.12 206,-205.12 206,-224.38"/>
<text text-anchor="middle" x="163.12" y="-210.88" font-family="Helvetica,sans-Serif" font-size="10.00">mp&#45;units/math.h</text>
</a>
</g>
</g>
<!-- Node28&#45;&gt;Node31 -->
<g id="edge45_Node000028_Node000031" class="edge">
<title>Node28&#45;&gt;Node31</title>
<g id="a_edge45_Node000028_Node000031"><a xlink:title=" ">
<path fill="none" stroke="#63b8ff" d="M364.8,-265.57C325.83,-256.91 265.85,-243.23 214.12,-230 211.4,-229.3 208.59,-228.57 205.77,-227.81"/>
<polygon fill="#63b8ff" stroke="#63b8ff" points="206.93,-224.5 196.36,-225.26 205.09,-231.26 206.93,-224.5"/>
</a>
</g>
</g>
<!-- Node32 -->
<g id="Node000032" class="node">
<title>Node32</title>
<g id="a_Node000032"><a xlink:title=" ">
<polygon fill="#e0e0e0" stroke="#999999" points="332.62,-230 223.62,-230 223.62,-199.5 332.62,-199.5 332.62,-230"/>
<text text-anchor="start" x="231.62" y="-216.5" font-family="Helvetica,sans-Serif" font-size="10.00">mp&#45;units/systems/isq</text>
<text text-anchor="middle" x="278.12" y="-205.25" font-family="Helvetica,sans-Serif" font-size="10.00">/thermodynamics.h</text>
</a>
</g>
</g>
<!-- Node28&#45;&gt;Node32 -->
<g id="edge46_Node000028_Node000032" class="edge">
<title>Node28&#45;&gt;Node32</title>
<g id="a_edge46_Node000028_Node000032"><a xlink:title=" ">
<path fill="none" stroke="#63b8ff" d="M386.41,-265.55C368.85,-257.48 342.57,-245.39 320.3,-235.15"/>
<polygon fill="#63b8ff" stroke="#63b8ff" points="322,-232.08 311.45,-231.08 319.07,-238.44 322,-232.08"/>
</a>
</g>
</g>
<!-- Node33 -->
<g id="Node000033" class="node">
<title>Node33</title>
<g id="a_Node000033"><a xlink:title=" ">
<polygon fill="#e0e0e0" stroke="#999999" points="461.75,-224.38 350.5,-224.38 350.5,-205.12 461.75,-205.12 461.75,-224.38"/>
<text text-anchor="middle" x="406.12" y="-210.88" font-family="Helvetica,sans-Serif" font-size="10.00">mp&#45;units/systems/si.h</text>
</a>
</g>
</g>
<!-- Node28&#45;&gt;Node33 -->
<g id="edge47_Node000028_Node000033" class="edge">
<title>Node28&#45;&gt;Node33</title>
<g id="a_edge47_Node000028_Node000033"><a xlink:title=" ">
<path fill="none" stroke="#63b8ff" d="M406.12,-265.68C406.12,-257.9 406.12,-246.33 406.12,-236.28"/>
<polygon fill="#63b8ff" stroke="#63b8ff" points="409.63,-236.29 406.13,-226.29 402.63,-236.29 409.63,-236.29"/>
</a>
</g>
</g>
</g>
</svg>
