<?xml version="1.0" encoding="UTF-8" standalone="no"?>
<!DOCTYPE svg PUBLIC "-//W3C//DTD SVG 1.1//EN"
 "http://www.w3.org/Graphics/SVG/1.1/DTD/svg11.dtd">
<!-- Generated by graphviz version 12.2.0 (20241103.1931)
 -->
<!-- Title: /github/workspace/support/unit/fcarouge/unit.hpp Pages: 1 -->
<svg width="310pt" height="105pt"
 viewBox="0.00 0.00 310.38 105.00" xmlns="http://www.w3.org/2000/svg" xmlns:xlink="http://www.w3.org/1999/xlink">
<g id="graph0" class="graph" transform="scale(1 1) rotate(0) translate(4 101)">
<title>/github/workspace/support/unit/fcarouge/unit.hpp</title>
<!-- Node1 -->
<g id="Node000001" class="node">
<title>Node1</title>
<g id="a_Node000001"><a xlink:title="Quantities and units facade for mp&#45;units third party implementation.">
<polygon fill="#999999" stroke="#666666" points="219,-97 88.25,-97 88.25,-66.5 219,-66.5 219,-97"/>
<text text-anchor="start" x="96.25" y="-83.5" font-family="Helvetica,sans-Serif" font-size="10.00">/github/workspace/support</text>
<text text-anchor="middle" x="153.62" y="-72.25" font-family="Helvetica,sans-Serif" font-size="10.00">/unit/fcarouge/unit.hpp</text>
</a>
</g>
</g>
<!-- Node2 -->
<g id="Node000002" class="node">
<title>Node2</title>
<g id="a_Node000002"><a xlink:href="unit__eigen_2fcarouge_2linalg_8hpp.xhtml" target="_top" xlink:title="Indexed&#45;based linear algebra with mp&#45;units with Eigen implementations.">
<polygon fill="white" stroke="#666666" points="147.25,-30.5 0,-30.5 0,0 147.25,0 147.25,-30.5"/>
<text text-anchor="start" x="8" y="-17" font-family="Helvetica,sans-Serif" font-size="10.00">/github/workspace/support</text>
<text text-anchor="middle" x="73.62" y="-5.75" font-family="Helvetica,sans-Serif" font-size="10.00">/unit_eigen/fcarouge/linalg.hpp</text>
</a>
</g>
</g>
<!-- Node1&#45;&gt;Node2 -->
<g id="edge1_Node000001_Node000002" class="edge">
<title>Node1&#45;&gt;Node2</title>
<g id="a_edge1_Node000001_Node000002"><a xlink:title=" ">
<path fill="none" stroke="#63b8ff" d="M126.67,-59.02C115.16,-49.73 102.02,-39.15 91.71,-30.83"/>
<polygon fill="#63b8ff" stroke="#63b8ff" points="124.31,-61.61 134.29,-65.16 128.71,-56.16 124.31,-61.61"/>
</a>
</g>
</g>
<!-- Node3 -->
<g id="Node000003" class="node">
<title>Node3</title>
<g id="a_Node000003"><a xlink:href="unit__std_2fcarouge_2linalg_8hpp.xhtml" target="_top" xlink:title="Indexed&#45;based linear algebra with mp&#45;units with Eigen implementations.">
<polygon fill="white" stroke="#666666" points="302.38,-30.5 164.88,-30.5 164.88,0 302.38,0 302.38,-30.5"/>
<text text-anchor="start" x="172.88" y="-17" font-family="Helvetica,sans-Serif" font-size="10.00">/github/workspace/support</text>
<text text-anchor="middle" x="233.62" y="-5.75" font-family="Helvetica,sans-Serif" font-size="10.00">/unit_std/fcarouge/linalg.hpp</text>
</a>
</g>
</g>
<!-- Node1&#45;&gt;Node3 -->
<g id="edge2_Node000001_Node000003" class="edge">
<title>Node1&#45;&gt;Node3</title>
<g id="a_edge2_Node000001_Node000003"><a xlink:title=" ">
<path fill="none" stroke="#63b8ff" d="M180.58,-59.02C192.09,-49.73 205.23,-39.15 215.54,-30.83"/>
<polygon fill="#63b8ff" stroke="#63b8ff" points="178.54,-56.16 172.96,-65.16 182.94,-61.61 178.54,-56.16"/>
</a>
</g>
</g>
</g>
</svg>
