<?xml version="1.0" encoding="UTF-8" standalone="no"?>
<!DOCTYPE svg PUBLIC "-//W3C//DTD SVG 1.1//EN"
 "http://www.w3.org/Graphics/SVG/1.1/DTD/svg11.dtd">
<!-- Generated by graphviz version 12.2.0 (20241103.1931)
 -->
<!-- Title: /github/workspace/support/unit_eigen/fcarouge/linalg.hpp Pages: 1 -->
<svg width="3187pt" height="349pt"
 viewBox="0.00 0.00 3186.62 348.50" xmlns="http://www.w3.org/2000/svg" xmlns:xlink="http://www.w3.org/1999/xlink">
<g id="graph0" class="graph" transform="scale(1 1) rotate(0) translate(4 344.5)">
<title>/github/workspace/support/unit_eigen/fcarouge/linalg.hpp</title>
<!-- Node1 -->
<g id="Node000001" class="node">
<title>Node1</title>
<g id="a_Node000001"><a xlink:title="Indexed&#45;based linear algebra with mp&#45;units with Eigen implementations.">
<polygon fill="#999999" stroke="#666666" points="2124.75,-340.5 1977.5,-340.5 1977.5,-310 2124.75,-310 2124.75,-340.5"/>
<text text-anchor="start" x="1985.5" y="-327" font-family="Helvetica,sans-Serif" font-size="10.00">/github/workspace/support</text>
<text text-anchor="middle" x="2051.12" y="-315.75" font-family="Helvetica,sans-Serif" font-size="10.00">/unit_eigen/fcarouge/linalg.hpp</text>
</a>
</g>
</g>
<!-- Node2 -->
<g id="Node000002" class="node">
<title>Node2</title>
<g id="a_Node000002"><a xlink:href="eigen_8hpp.xhtml" target="_top" xlink:title="Linear algebra facade for Eigen3 third party implementation.">
<polygon fill="white" stroke="#666666" points="2987,-274 2889.25,-274 2889.25,-254.75 2987,-254.75 2987,-274"/>
<text text-anchor="middle" x="2938.12" y="-260.5" font-family="Helvetica,sans-Serif" font-size="10.00">fcarouge/eigen.hpp</text>
</a>
</g>
</g>
<!-- Node1&#45;&gt;Node2 -->
<g id="edge1_Node000001_Node000002" class="edge">
<title>Node1&#45;&gt;Node2</title>
<g id="a_edge1_Node000001_Node000002"><a xlink:title=" ">
<path fill="none" stroke="#63b8ff" d="M2125.22,-319.33C2297.05,-307.93 2719.98,-279.85 2877.61,-269.39"/>
<polygon fill="#63b8ff" stroke="#63b8ff" points="2877.69,-272.89 2887.43,-268.74 2877.22,-265.91 2877.69,-272.89"/>
</a>
</g>
</g>
<!-- Node3 -->
<g id="Node000003" class="node">
<title>Node3</title>
<g id="a_Node000003"><a xlink:href="typed__linear__algebra_8hpp.xhtml" target="_top" xlink:title="Typed linear algebra implementation.">
<polygon fill="white" stroke="#666666" points="2105.25,-218.75 1997,-218.75 1997,-188.25 2105.25,-188.25 2105.25,-218.75"/>
<text text-anchor="start" x="2005" y="-205.25" font-family="Helvetica,sans-Serif" font-size="10.00">fcarouge/typed_linear</text>
<text text-anchor="middle" x="2051.12" y="-194" font-family="Helvetica,sans-Serif" font-size="10.00">_algebra.hpp</text>
</a>
</g>
</g>
<!-- Node1&#45;&gt;Node3 -->
<g id="edge38_Node000001_Node000003" class="edge">
<title>Node1&#45;&gt;Node3</title>
<g id="a_edge38_Node000001_Node000003"><a xlink:title=" ">
<path fill="none" stroke="#63b8ff" d="M2051.12,-309.57C2051.12,-289.89 2051.12,-254.64 2051.12,-230.44"/>
<polygon fill="#63b8ff" stroke="#63b8ff" points="2054.63,-230.44 2051.13,-220.44 2047.63,-230.44 2054.63,-230.44"/>
</a>
</g>
</g>
<!-- Node28 -->
<g id="Node000028" class="node">
<title>Node28</title>
<g id="a_Node000028"><a xlink:href="unit_8hpp.xhtml" target="_top" xlink:title="Quantities and units facade for mp&#45;units third party implementation.">
<polygon fill="white" stroke="#666666" points="451.25,-274 361,-274 361,-254.75 451.25,-254.75 451.25,-274"/>
<text text-anchor="middle" x="406.12" y="-260.5" font-family="Helvetica,sans-Serif" font-size="10.00">fcarouge/unit.hpp</text>
</a>
</g>
</g>
<!-- Node1&#45;&gt;Node28 -->
<g id="edge39_Node000001_Node000028" class="edge">
<title>Node1&#45;&gt;Node28</title>
<g id="a_edge39_Node000001_Node000028"><a xlink:title=" ">
<path fill="none" stroke="#63b8ff" d="M1977.25,-321.61C1698.01,-311.61 710.27,-276.26 462.71,-267.4"/>
<polygon fill="#63b8ff" stroke="#63b8ff" points="463.12,-263.91 453,-267.05 462.87,-270.91 463.12,-263.91"/>
</a>
</g>
</g>
<!-- Node2&#45;&gt;Node3 -->
<g id="edge2_Node000002_Node000003" class="edge">
<title>Node2&#45;&gt;Node3</title>
<g id="a_edge2_Node000002_Node000003"><a xlink:title=" ">
<path fill="none" stroke="#63b8ff" d="M2888.85,-260.1C2738.78,-250.14 2287.22,-220.17 2117.01,-208.87"/>
<polygon fill="#63b8ff" stroke="#63b8ff" points="2117.45,-205.39 2107.24,-208.22 2116.98,-212.38 2117.45,-205.39"/>
</a>
</g>
</g>
<!-- Node7 -->
<g id="Node000007" class="node">
<title>Node7</title>
<g id="a_Node000007"><a xlink:title=" ">
<polygon fill="#e0e0e0" stroke="#999999" points="695,-19.25 639.25,-19.25 639.25,0 695,0 695,-19.25"/>
<text text-anchor="middle" x="667.12" y="-5.75" font-family="Helvetica,sans-Serif" font-size="10.00">concepts</text>
</a>
</g>
</g>
<!-- Node2&#45;&gt;Node7 -->
<g id="edge31_Node000002_Node000007" class="edge">
<title>Node2&#45;&gt;Node7</title>
<g id="a_edge31_Node000002_Node000007"><a xlink:title=" ">
<path fill="none" stroke="#63b8ff" d="M2888.92,-261.13C2748.38,-254.69 2333.01,-235.57 1988.12,-218.75 1695.88,-204.5 889.12,-349.63 673.12,-152.25 639.61,-121.62 651.29,-61.57 660.42,-30.43"/>
<polygon fill="#63b8ff" stroke="#63b8ff" points="663.69,-31.72 663.36,-21.13 657.01,-29.61 663.69,-31.72"/>
</a>
</g>
</g>
<!-- Node8 -->
<g id="Node000008" class="node">
<title>Node8</title>
<g id="a_Node000008"><a xlink:title=" ">
<polygon fill="#e0e0e0" stroke="#999999" points="2831.25,-19.25 2783,-19.25 2783,0 2831.25,0 2831.25,-19.25"/>
<text text-anchor="middle" x="2807.12" y="-5.75" font-family="Helvetica,sans-Serif" font-size="10.00">cstddef</text>
</a>
</g>
</g>
<!-- Node2&#45;&gt;Node8 -->
<g id="edge32_Node000002_Node000008" class="edge">
<title>Node2&#45;&gt;Node8</title>
<g id="a_edge32_Node000002_Node000008"><a xlink:title=" ">
<path fill="none" stroke="#63b8ff" d="M2934.68,-254.45C2929.11,-240.24 2917.59,-211.68 2906.12,-188.25 2876.39,-127.49 2865.1,-114.31 2832.12,-55.25 2827.36,-46.72 2822.08,-37.28 2817.6,-29.29"/>
<polygon fill="#63b8ff" stroke="#63b8ff" points="2820.8,-27.84 2812.85,-20.83 2814.69,-31.27 2820.8,-27.84"/>
</a>
</g>
</g>
<!-- Node10 -->
<g id="Node000010" class="node">
<title>Node10</title>
<g id="a_Node000010"><a xlink:title=" ">
<polygon fill="#e0e0e0" stroke="#999999" points="2956.62,-19.25 2919.62,-19.25 2919.62,0 2956.62,0 2956.62,-19.25"/>
<text text-anchor="middle" x="2938.12" y="-5.75" font-family="Helvetica,sans-Serif" font-size="10.00">tuple</text>
</a>
</g>
</g>
<!-- Node2&#45;&gt;Node10 -->
<g id="edge35_Node000002_Node000010" class="edge">
<title>Node2&#45;&gt;Node10</title>
<g id="a_edge35_Node000002_Node000010"><a xlink:title=" ">
<path fill="none" stroke="#63b8ff" d="M2941.86,-254.34C2945.3,-245.46 2950.18,-231.43 2952.12,-218.75 2962.62,-150.22 2949.59,-67.81 2942.35,-30.59"/>
<polygon fill="#63b8ff" stroke="#63b8ff" points="2945.8,-29.99 2940.38,-20.89 2938.94,-31.39 2945.8,-29.99"/>
</a>
</g>
</g>
<!-- Node11 -->
<g id="Node000011" class="node">
<title>Node11</title>
<g id="a_Node000011"><a xlink:title=" ">
<polygon fill="#e0e0e0" stroke="#999999" points="3039.62,-19.25 2978.62,-19.25 2978.62,0 3039.62,0 3039.62,-19.25"/>
<text text-anchor="middle" x="3009.12" y="-5.75" font-family="Helvetica,sans-Serif" font-size="10.00">type_traits</text>
</a>
</g>
</g>
<!-- Node2&#45;&gt;Node11 -->
<g id="edge36_Node000002_Node000011" class="edge">
<title>Node2&#45;&gt;Node11</title>
<g id="a_edge36_Node000002_Node000011"><a xlink:title=" ">
<path fill="none" stroke="#63b8ff" d="M2945.73,-254.42C2952.63,-245.83 2962.55,-232.2 2968.12,-218.75 2995.25,-153.35 3004.76,-68.79 3007.81,-30.74"/>
<polygon fill="#63b8ff" stroke="#63b8ff" points="3011.27,-31.45 3008.5,-21.22 3004.29,-30.94 3011.27,-31.45"/>
</a>
</g>
</g>
<!-- Node12 -->
<g id="Node000012" class="node">
<title>Node12</title>
<g id="a_Node000012"><a xlink:title=" ">
<polygon fill="#e0e0e0" stroke="#999999" points="2808,-74.5 2764.25,-74.5 2764.25,-55.25 2808,-55.25 2808,-74.5"/>
<text text-anchor="middle" x="2786.12" y="-61" font-family="Helvetica,sans-Serif" font-size="10.00">format</text>
</a>
</g>
</g>
<!-- Node2&#45;&gt;Node12 -->
<g id="edge33_Node000002_Node000012" class="edge">
<title>Node2&#45;&gt;Node12</title>
<g id="a_edge33_Node000002_Node000012"><a xlink:title=" ">
<path fill="none" stroke="#63b8ff" d="M2931.2,-254.38C2907.81,-223.98 2831.43,-124.75 2799.92,-83.8"/>
<polygon fill="#63b8ff" stroke="#63b8ff" points="2802.89,-81.92 2794.01,-76.13 2797.34,-86.19 2802.89,-81.92"/>
</a>
</g>
</g>
<!-- Node26 -->
<g id="Node000026" class="node">
<title>Node26</title>
<g id="a_Node000026"><a xlink:title=" ">
<polygon fill="#e0e0e0" stroke="#999999" points="3093.75,-213.12 3042.5,-213.12 3042.5,-193.88 3093.75,-193.88 3093.75,-213.12"/>
<text text-anchor="middle" x="3068.12" y="-199.62" font-family="Helvetica,sans-Serif" font-size="10.00">sstream</text>
</a>
</g>
</g>
<!-- Node2&#45;&gt;Node26 -->
<g id="edge34_Node000002_Node000026" class="edge">
<title>Node2&#45;&gt;Node26</title>
<g id="a_edge34_Node000002_Node000026"><a xlink:title=" ">
<path fill="none" stroke="#63b8ff" d="M2958.15,-254.3C2979.49,-244.64 3013.52,-229.23 3038.08,-218.11"/>
<polygon fill="#63b8ff" stroke="#63b8ff" points="3039.24,-221.42 3046.91,-214.11 3036.36,-215.05 3039.24,-221.42"/>
</a>
</g>
</g>
<!-- Node27 -->
<g id="Node000027" class="node">
<title>Node27</title>
<g id="a_Node000027"><a xlink:title=" ">
<polygon fill="#e0e0e0" stroke="#999999" points="3178.62,-213.12 3111.62,-213.12 3111.62,-193.88 3178.62,-193.88 3178.62,-213.12"/>
<text text-anchor="middle" x="3145.12" y="-199.62" font-family="Helvetica,sans-Serif" font-size="10.00">Eigen/Eigen</text>
</a>
</g>
</g>
<!-- Node2&#45;&gt;Node27 -->
<g id="edge37_Node000002_Node000027" class="edge">
<title>Node2&#45;&gt;Node27</title>
<g id="a_edge37_Node000002_Node000027"><a xlink:title=" ">
<path fill="none" stroke="#63b8ff" d="M2974.36,-254.27C3007.92,-245.68 3059.12,-232.15 3103.12,-218.75 3104.95,-218.19 3106.81,-217.61 3108.69,-217.02"/>
<polygon fill="#63b8ff" stroke="#63b8ff" points="3109.59,-220.41 3118,-213.97 3107.41,-213.75 3109.59,-220.41"/>
</a>
</g>
</g>
<!-- Node4 -->
<g id="Node000004" class="node">
<title>Node4</title>
<g id="a_Node000004"><a xlink:href="typed__linear__algebra__forward_8hpp.xhtml" target="_top" xlink:title="Authoritative forward declaration header.">
<polygon fill="white" stroke="#666666" points="2183.38,-146.62 2078.88,-146.62 2078.88,-116.12 2183.38,-116.12 2183.38,-146.62"/>
<text text-anchor="start" x="2086.88" y="-133.12" font-family="Helvetica,sans-Serif" font-size="10.00">typed_linear_algebra</text>
<text text-anchor="middle" x="2131.12" y="-121.88" font-family="Helvetica,sans-Serif" font-size="10.00">_forward.hpp</text>
</a>
</g>
</g>
<!-- Node3&#45;&gt;Node4 -->
<g id="edge3_Node000003_Node000004" class="edge">
<title>Node3&#45;&gt;Node4</title>
<g id="a_edge3_Node000003_Node000004"><a xlink:title=" ">
<path fill="none" stroke="#63b8ff" d="M2067.7,-187.97C2078.75,-178.29 2093.48,-165.37 2105.96,-154.43"/>
<polygon fill="#63b8ff" stroke="#63b8ff" points="2108.22,-157.11 2113.43,-147.88 2103.6,-151.84 2108.22,-157.11"/>
</a>
</g>
</g>
<!-- Node5 -->
<g id="Node000005" class="node">
<title>Node5</title>
<g id="a_Node000005"><a xlink:href="format_8hpp.xhtml" target="_top" xlink:title="Formatting support for the typed matrix.">
<polygon fill="white" stroke="#666666" points="2306.38,-146.62 2201.88,-146.62 2201.88,-116.12 2306.38,-116.12 2306.38,-146.62"/>
<text text-anchor="start" x="2209.88" y="-133.12" font-family="Helvetica,sans-Serif" font-size="10.00">typed_linear_algebra</text>
<text text-anchor="middle" x="2254.12" y="-121.88" font-family="Helvetica,sans-Serif" font-size="10.00">_internal/format.hpp</text>
</a>
</g>
</g>
<!-- Node3&#45;&gt;Node5 -->
<g id="edge4_Node000003_Node000005" class="edge">
<title>Node3&#45;&gt;Node5</title>
<g id="a_edge4_Node000003_Node000005"><a xlink:title=" ">
<path fill="none" stroke="#63b8ff" d="M2093.68,-187.8C2124.94,-177 2167.62,-162.26 2201.1,-150.69"/>
<polygon fill="#63b8ff" stroke="#63b8ff" points="2201.89,-154.12 2210.19,-147.55 2199.6,-147.51 2201.89,-154.12"/>
</a>
</g>
</g>
<!-- Node6 -->
<g id="Node000006" class="node">
<title>Node6</title>
<g id="a_Node000006"><a xlink:href="utility_8hpp.xhtml" target="_top" xlink:title=" ">
<polygon fill="white" stroke="#666666" points="2389.38,-74.5 2332.88,-74.5 2332.88,-55.25 2389.38,-55.25 2389.38,-74.5"/>
<text text-anchor="middle" x="2361.12" y="-61" font-family="Helvetica,sans-Serif" font-size="10.00">utility.hpp</text>
</a>
</g>
</g>
<!-- Node3&#45;&gt;Node6 -->
<g id="edge13_Node000003_Node000006" class="edge">
<title>Node3&#45;&gt;Node6</title>
<g id="a_edge13_Node000003_Node000006"><a xlink:title=" ">
<path fill="none" stroke="#63b8ff" d="M2049.5,-187.99C2048.1,-167.57 2048.96,-130.6 2070.12,-110.5 2105.58,-76.82 2250.61,-68.56 2321.6,-66.53"/>
<polygon fill="#63b8ff" stroke="#63b8ff" points="2321.32,-70.04 2331.23,-66.29 2321.14,-63.04 2321.32,-70.04"/>
</a>
</g>
</g>
<!-- Node3&#45;&gt;Node7 -->
<g id="edge14_Node000003_Node000007" class="edge">
<title>Node3&#45;&gt;Node7</title>
<g id="a_edge14_Node000003_Node000007"><a xlink:title=" ">
<path fill="none" stroke="#63b8ff" d="M1996.51,-202.26C1750.67,-200.94 756.38,-193.11 705.12,-152.25 668.38,-122.96 664.87,-62.29 665.77,-30.71"/>
<polygon fill="#63b8ff" stroke="#63b8ff" points="669.25,-31.14 666.24,-20.98 662.26,-30.8 669.25,-31.14"/>
</a>
</g>
</g>
<!-- Node3&#45;&gt;Node8 -->
<g id="edge15_Node000003_Node000008" class="edge">
<title>Node3&#45;&gt;Node8</title>
<g id="a_edge15_Node000003_Node000008"><a xlink:title=" ">
<path fill="none" stroke="#63b8ff" d="M2105.55,-202.25C2267.3,-201.02 2737.25,-193.88 2791.12,-152.25 2826.44,-124.96 2822.03,-99.61 2817.12,-55.25 2816.22,-47.06 2814.4,-38.18 2812.57,-30.51"/>
<polygon fill="#63b8ff" stroke="#63b8ff" points="2815.97,-29.69 2810.08,-20.88 2809.19,-31.44 2815.97,-29.69"/>
</a>
</g>
</g>
<!-- Node3&#45;&gt;Node10 -->
<g id="edge18_Node000003_Node000010" class="edge">
<title>Node3&#45;&gt;Node10</title>
<g id="a_edge18_Node000003_Node000010"><a xlink:title=" ">
<path fill="none" stroke="#63b8ff" d="M2105.5,-201.4C2270.15,-197.72 2755.91,-184.26 2819.12,-152.25 2872.95,-125 2911.86,-61.48 2928.76,-29.6"/>
<polygon fill="#63b8ff" stroke="#63b8ff" points="2931.67,-31.59 2933.12,-21.1 2925.44,-28.4 2931.67,-31.59"/>
</a>
</g>
</g>
<!-- Node3&#45;&gt;Node12 -->
<g id="edge16_Node000003_Node000012" class="edge">
<title>Node3&#45;&gt;Node12</title>
<g id="a_edge16_Node000003_Node000012"><a xlink:title=" ">
<path fill="none" stroke="#63b8ff" d="M2105.67,-202.37C2264.3,-201.47 2717.43,-195.15 2767.12,-152.25 2785.8,-136.12 2788.52,-106.2 2787.95,-86.16"/>
<polygon fill="#63b8ff" stroke="#63b8ff" points="2791.46,-86.2 2787.36,-76.43 2784.47,-86.62 2791.46,-86.2"/>
</a>
</g>
</g>
<!-- Node13 -->
<g id="Node000013" class="node">
<title>Node13</title>
<g id="a_Node000013"><a xlink:title=" ">
<polygon fill="#e0e0e0" stroke="#999999" points="2553.88,-141 2482.38,-141 2482.38,-121.75 2553.88,-121.75 2553.88,-141"/>
<text text-anchor="middle" x="2518.12" y="-127.5" font-family="Helvetica,sans-Serif" font-size="10.00">initializer_list</text>
</a>
</g>
</g>
<!-- Node3&#45;&gt;Node13 -->
<g id="edge17_Node000003_Node000013" class="edge">
<title>Node3&#45;&gt;Node13</title>
<g id="a_edge17_Node000003_Node000013"><a xlink:title=" ">
<path fill="none" stroke="#63b8ff" d="M2105.73,-201.15C2187.13,-198 2344.5,-187.46 2473.12,-152.25 2478.95,-150.66 2484.99,-148.43 2490.68,-146.03"/>
<polygon fill="#63b8ff" stroke="#63b8ff" points="2491.99,-149.28 2499.66,-141.98 2489.11,-142.9 2491.99,-149.28"/>
</a>
</g>
</g>
<!-- Node14 -->
<g id="Node000014" class="node">
<title>Node14</title>
<g id="a_Node000014"><a xlink:title=" ">
<polygon fill="#e0e0e0" stroke="#999999" points="2610.38,-141 2571.88,-141 2571.88,-121.75 2610.38,-121.75 2610.38,-141"/>
<text text-anchor="middle" x="2591.12" y="-127.5" font-family="Helvetica,sans-Serif" font-size="10.00">utility</text>
</a>
</g>
</g>
<!-- Node3&#45;&gt;Node14 -->
<g id="edge19_Node000003_Node000014" class="edge">
<title>Node3&#45;&gt;Node14</title>
<g id="a_edge19_Node000003_Node000014"><a xlink:title=" ">
<path fill="none" stroke="#63b8ff" d="M2105.74,-200.68C2219.97,-196.3 2480.4,-183.16 2563.12,-152.25 2566.11,-151.13 2569.07,-149.62 2571.89,-147.92"/>
<polygon fill="#63b8ff" stroke="#63b8ff" points="2573.84,-150.82 2579.99,-142.2 2569.8,-145.1 2573.84,-150.82"/>
</a>
</g>
</g>
<!-- Node15 -->
<g id="Node000015" class="node">
<title>Node15</title>
<g id="a_Node000015"><a xlink:title=" ">
<polygon fill="#e0e0e0" stroke="#999999" points="2758.12,-146.62 2628.12,-146.62 2628.12,-116.12 2758.12,-116.12 2758.12,-146.62"/>
<text text-anchor="start" x="2636.12" y="-133.12" font-family="Helvetica,sans-Serif" font-size="10.00">typed_linear_algebra</text>
<text text-anchor="middle" x="2693.12" y="-121.88" font-family="Helvetica,sans-Serif" font-size="10.00">_internal/algorithm/add.tpp</text>
</a>
</g>
</g>
<!-- Node3&#45;&gt;Node15 -->
<g id="edge20_Node000003_Node000015" class="edge">
<title>Node3&#45;&gt;Node15</title>
<g id="a_edge20_Node000003_Node000015"><a xlink:title=" ">
<path fill="none" stroke="#63b8ff" d="M2105.58,-200.83C2207.22,-197.03 2432.45,-185.32 2619.12,-152.25 2623.42,-151.49 2627.83,-150.6 2632.26,-149.62"/>
<polygon fill="#63b8ff" stroke="#63b8ff" points="2632.83,-153.08 2641.76,-147.38 2631.23,-146.27 2632.83,-153.08"/>
</a>
</g>
</g>
<!-- Node16 -->
<g id="Node000016" class="node">
<title>Node16</title>
<g id="a_Node000016"><a xlink:title=" ">
<polygon fill="#e0e0e0" stroke="#999999" points="2464,-146.62 2324.25,-146.62 2324.25,-116.12 2464,-116.12 2464,-146.62"/>
<text text-anchor="start" x="2332.25" y="-133.12" font-family="Helvetica,sans-Serif" font-size="10.00">typed_linear_algebra</text>
<text text-anchor="middle" x="2394.12" y="-121.88" font-family="Helvetica,sans-Serif" font-size="10.00">_internal/algorithm/divide.tpp</text>
</a>
</g>
</g>
<!-- Node3&#45;&gt;Node16 -->
<g id="edge21_Node000003_Node000016" class="edge">
<title>Node3&#45;&gt;Node16</title>
<g id="a_edge21_Node000003_Node000016"><a xlink:title=" ">
<path fill="none" stroke="#63b8ff" d="M2105.67,-193.08C2159.18,-183.61 2243.03,-168.17 2315.12,-152.25 2318.72,-151.46 2322.39,-150.62 2326.1,-149.76"/>
<polygon fill="#63b8ff" stroke="#63b8ff" points="2326.87,-153.17 2335.79,-147.45 2325.25,-146.36 2326.87,-153.17"/>
</a>
</g>
</g>
<!-- Node17 -->
<g id="Node000017" class="node">
<title>Node17</title>
<g id="a_Node000017"><a xlink:title=" ">
<polygon fill="#e0e0e0" stroke="#999999" points="836,-152.25 714.25,-152.25 714.25,-110.5 836,-110.5 836,-152.25"/>
<text text-anchor="start" x="722.25" y="-138.75" font-family="Helvetica,sans-Serif" font-size="10.00">typed_linear_algebra</text>
<text text-anchor="start" x="722.25" y="-127.5" font-family="Helvetica,sans-Serif" font-size="10.00">_internal/algorithm/equal</text>
<text text-anchor="middle" x="775.12" y="-116.25" font-family="Helvetica,sans-Serif" font-size="10.00">_to.tpp</text>
</a>
</g>
</g>
<!-- Node3&#45;&gt;Node17 -->
<g id="edge22_Node000003_Node000017" class="edge">
<title>Node3&#45;&gt;Node17</title>
<g id="a_edge22_Node000003_Node000017"><a xlink:title=" ">
<path fill="none" stroke="#63b8ff" d="M1996.68,-201.93C1795.57,-199.56 1093.96,-188.93 847.78,-152.41"/>
<polygon fill="#63b8ff" stroke="#63b8ff" points="848.31,-148.95 837.9,-150.88 847.25,-155.87 848.31,-148.95"/>
</a>
</g>
</g>
<!-- Node18 -->
<g id="Node000018" class="node">
<title>Node18</title>
<g id="a_Node000018"><a xlink:title=" ">
<polygon fill="#e0e0e0" stroke="#999999" points="978.5,-152.25 853.75,-152.25 853.75,-110.5 978.5,-110.5 978.5,-152.25"/>
<text text-anchor="start" x="861.75" y="-138.75" font-family="Helvetica,sans-Serif" font-size="10.00">typed_linear_algebra</text>
<text text-anchor="start" x="861.75" y="-127.5" font-family="Helvetica,sans-Serif" font-size="10.00">_internal/algorithm/matrix</text>
<text text-anchor="middle" x="916.12" y="-116.25" font-family="Helvetica,sans-Serif" font-size="10.00">_product.tpp</text>
</a>
</g>
</g>
<!-- Node3&#45;&gt;Node18 -->
<g id="edge23_Node000003_Node000018" class="edge">
<title>Node3&#45;&gt;Node18</title>
<g id="a_edge23_Node000003_Node000018"><a xlink:title=" ">
<path fill="none" stroke="#63b8ff" d="M1996.79,-201.53C1811.93,-197.97 1207.28,-184.25 990.06,-152.28"/>
<polygon fill="#63b8ff" stroke="#63b8ff" points="990.68,-148.84 980.27,-150.78 989.62,-155.76 990.68,-148.84"/>
</a>
</g>
</g>
<!-- Node19 -->
<g id="Node000019" class="node">
<title>Node19</title>
<g id="a_Node000019"><a xlink:title=" ">
<polygon fill="#e0e0e0" stroke="#999999" points="1143.38,-146.62 996.88,-146.62 996.88,-116.12 1143.38,-116.12 1143.38,-146.62"/>
<text text-anchor="start" x="1004.88" y="-133.12" font-family="Helvetica,sans-Serif" font-size="10.00">typed_linear_algebra</text>
<text text-anchor="middle" x="1070.12" y="-121.88" font-family="Helvetica,sans-Serif" font-size="10.00">_internal/algorithm/product.tpp</text>
</a>
</g>
</g>
<!-- Node3&#45;&gt;Node19 -->
<g id="edge24_Node000003_Node000019" class="edge">
<title>Node3&#45;&gt;Node19</title>
<g id="a_edge24_Node000003_Node000019"><a xlink:title=" ">
<path fill="none" stroke="#63b8ff" d="M1996.56,-202.89C1855.86,-203.16 1469.52,-199.19 1152.12,-152.25 1146.79,-151.46 1141.29,-150.49 1135.79,-149.4"/>
<polygon fill="#63b8ff" stroke="#63b8ff" points="1136.54,-145.98 1126.03,-147.34 1135.09,-152.83 1136.54,-145.98"/>
</a>
</g>
</g>
<!-- Node20 -->
<g id="Node000020" class="node">
<title>Node20</title>
<g id="a_Node000020"><a xlink:title=" ">
<polygon fill="#e0e0e0" stroke="#999999" points="1298.88,-146.62 1161.38,-146.62 1161.38,-116.12 1298.88,-116.12 1298.88,-146.62"/>
<text text-anchor="start" x="1169.38" y="-133.12" font-family="Helvetica,sans-Serif" font-size="10.00">typed_linear_algebra</text>
<text text-anchor="middle" x="1230.12" y="-121.88" font-family="Helvetica,sans-Serif" font-size="10.00">_internal/algorithm/scale.tpp</text>
</a>
</g>
</g>
<!-- Node3&#45;&gt;Node20 -->
<g id="edge25_Node000003_Node000020" class="edge">
<title>Node3&#45;&gt;Node20</title>
<g id="a_edge25_Node000003_Node000020"><a xlink:title=" ">
<path fill="none" stroke="#63b8ff" d="M1996.67,-202.2C1873.32,-200.78 1563.46,-193.07 1308.12,-152.25 1303.26,-151.47 1298.25,-150.53 1293.24,-149.49"/>
<polygon fill="#63b8ff" stroke="#63b8ff" points="1294.3,-146.14 1283.78,-147.39 1292.78,-152.97 1294.3,-146.14"/>
</a>
</g>
</g>
<!-- Node21 -->
<g id="Node000021" class="node">
<title>Node21</title>
<g id="a_Node000021"><a xlink:title=" ">
<polygon fill="#e0e0e0" stroke="#999999" points="1471.5,-146.62 1316.75,-146.62 1316.75,-116.12 1471.5,-116.12 1471.5,-146.62"/>
<text text-anchor="start" x="1324.75" y="-133.12" font-family="Helvetica,sans-Serif" font-size="10.00">typed_linear_algebra</text>
<text text-anchor="middle" x="1394.12" y="-121.88" font-family="Helvetica,sans-Serif" font-size="10.00">_internal/algorithm/substract.tpp</text>
</a>
</g>
</g>
<!-- Node3&#45;&gt;Node21 -->
<g id="edge26_Node000003_Node000021" class="edge">
<title>Node3&#45;&gt;Node21</title>
<g id="a_edge26_Node000003_Node000021"><a xlink:title=" ">
<path fill="none" stroke="#63b8ff" d="M1996.59,-200.18C1894.78,-195.29 1669.05,-181.86 1481.12,-152.25 1475.62,-151.38 1469.95,-150.37 1464.26,-149.26"/>
<polygon fill="#63b8ff" stroke="#63b8ff" points="1465.33,-145.91 1454.83,-147.34 1463.93,-152.77 1465.33,-145.91"/>
</a>
</g>
</g>
<!-- Node22 -->
<g id="Node000022" class="node">
<title>Node22</title>
<g id="a_Node000022"><a xlink:title=" ">
<polygon fill="#e0e0e0" stroke="#999999" points="1652.25,-146.62 1490,-146.62 1490,-116.12 1652.25,-116.12 1652.25,-146.62"/>
<text text-anchor="start" x="1498" y="-133.12" font-family="Helvetica,sans-Serif" font-size="10.00">typed_linear_algebra</text>
<text text-anchor="middle" x="1571.12" y="-121.88" font-family="Helvetica,sans-Serif" font-size="10.00">_internal/algorithm/transposed.tpp</text>
</a>
</g>
</g>
<!-- Node3&#45;&gt;Node22 -->
<g id="edge27_Node000003_Node000022" class="edge">
<title>Node3&#45;&gt;Node22</title>
<g id="a_edge27_Node000003_Node000022"><a xlink:title=" ">
<path fill="none" stroke="#63b8ff" d="M1996.64,-197.03C1921.03,-189.09 1780.16,-173.02 1661.12,-152.25 1655.98,-151.35 1650.68,-150.36 1645.35,-149.31"/>
<polygon fill="#63b8ff" stroke="#63b8ff" points="1646.39,-145.95 1635.9,-147.4 1645,-152.81 1646.39,-145.95"/>
</a>
</g>
</g>
<!-- Node23 -->
<g id="Node000023" class="node">
<title>Node23</title>
<g id="a_Node000023"><a xlink:title=" ">
<polygon fill="#e0e0e0" stroke="#999999" points="1774.38,-146.62 1669.88,-146.62 1669.88,-116.12 1774.38,-116.12 1774.38,-146.62"/>
<text text-anchor="start" x="1677.88" y="-133.12" font-family="Helvetica,sans-Serif" font-size="10.00">typed_linear_algebra</text>
<text text-anchor="middle" x="1722.12" y="-121.88" font-family="Helvetica,sans-Serif" font-size="10.00">_internal/cast.tpp</text>
</a>
</g>
</g>
<!-- Node3&#45;&gt;Node23 -->
<g id="edge28_Node000003_Node000023" class="edge">
<title>Node3&#45;&gt;Node23</title>
<g id="a_edge28_Node000003_Node000023"><a xlink:title=" ">
<path fill="none" stroke="#63b8ff" d="M1996.74,-194.3C1942.48,-185.64 1856.94,-170.7 1784.12,-152.25 1781.68,-151.63 1779.18,-150.97 1776.67,-150.27"/>
<polygon fill="#63b8ff" stroke="#63b8ff" points="1777.66,-146.91 1767.08,-147.49 1775.71,-153.64 1777.66,-146.91"/>
</a>
</g>
</g>
<!-- Node24 -->
<g id="Node000024" class="node">
<title>Node24</title>
<g id="a_Node000024"><a xlink:title=" ">
<polygon fill="#e0e0e0" stroke="#999999" points="1897.38,-146.62 1792.88,-146.62 1792.88,-116.12 1897.38,-116.12 1897.38,-146.62"/>
<text text-anchor="start" x="1800.88" y="-133.12" font-family="Helvetica,sans-Serif" font-size="10.00">typed_linear_algebra</text>
<text text-anchor="middle" x="1845.12" y="-121.88" font-family="Helvetica,sans-Serif" font-size="10.00">_internal/tuple.tpp</text>
</a>
</g>
</g>
<!-- Node3&#45;&gt;Node24 -->
<g id="edge29_Node000003_Node000024" class="edge">
<title>Node3&#45;&gt;Node24</title>
<g id="a_edge29_Node000003_Node000024"><a xlink:title=" ">
<path fill="none" stroke="#63b8ff" d="M2007.94,-187.8C1976.22,-177 1932.91,-162.26 1898.93,-150.69"/>
<polygon fill="#63b8ff" stroke="#63b8ff" points="1900.28,-147.45 1889.69,-147.54 1898.02,-154.08 1900.28,-147.45"/>
</a>
</g>
</g>
<!-- Node25 -->
<g id="Node000025" class="node">
<title>Node25</title>
<g id="a_Node000025"><a xlink:title=" ">
<polygon fill="#e0e0e0" stroke="#999999" points="2022.88,-152.25 1915.38,-152.25 1915.38,-110.5 2022.88,-110.5 2022.88,-152.25"/>
<text text-anchor="start" x="1923.38" y="-138.75" font-family="Helvetica,sans-Serif" font-size="10.00">typed_linear_algebra</text>
<text text-anchor="start" x="1923.38" y="-127.5" font-family="Helvetica,sans-Serif" font-size="10.00">_internal/typed_linear</text>
<text text-anchor="middle" x="1969.12" y="-116.25" font-family="Helvetica,sans-Serif" font-size="10.00">_algebra.tpp</text>
</a>
</g>
</g>
<!-- Node3&#45;&gt;Node25 -->
<g id="edge30_Node000003_Node000025" class="edge">
<title>Node3&#45;&gt;Node25</title>
<g id="a_edge30_Node000003_Node000025"><a xlink:title=" ">
<path fill="none" stroke="#63b8ff" d="M2034.13,-187.97C2024.73,-179.93 2012.73,-169.67 2001.6,-160.15"/>
<polygon fill="#63b8ff" stroke="#63b8ff" points="2003.96,-157.56 1994.08,-153.72 1999.41,-162.88 2003.96,-157.56"/>
</a>
</g>
</g>
<!-- Node5&#45;&gt;Node6 -->
<g id="edge5_Node000005_Node000006" class="edge">
<title>Node5&#45;&gt;Node6</title>
<g id="a_edge5_Node000005_Node000006"><a xlink:title=" ">
<path fill="none" stroke="#63b8ff" d="M2278.4,-115.74C2295.83,-105.24 2319.21,-91.14 2336.67,-80.62"/>
<polygon fill="#63b8ff" stroke="#63b8ff" points="2338.12,-83.83 2344.88,-75.67 2334.51,-77.83 2338.12,-83.83"/>
</a>
</g>
</g>
<!-- Node5&#45;&gt;Node8 -->
<g id="edge11_Node000005_Node000008" class="edge">
<title>Node5&#45;&gt;Node8</title>
<g id="a_edge11_Node000005_Node000008"><a xlink:title=" ">
<path fill="none" stroke="#63b8ff" d="M2297.26,-115.64C2303.23,-113.8 2309.31,-112.03 2315.12,-110.5 2483.85,-66.04 2689.55,-30.04 2771.23,-16.46"/>
<polygon fill="#63b8ff" stroke="#63b8ff" points="2771.79,-19.91 2781.09,-14.83 2770.65,-13.01 2771.79,-19.91"/>
</a>
</g>
</g>
<!-- Node5&#45;&gt;Node12 -->
<g id="edge12_Node000005_Node000012" class="edge">
<title>Node5&#45;&gt;Node12</title>
<g id="a_edge12_Node000005_Node000012"><a xlink:title=" ">
<path fill="none" stroke="#63b8ff" d="M2295.14,-115.65C2301.75,-113.67 2308.58,-111.86 2315.12,-110.5 2399.1,-93.06 2659.53,-74.38 2752.62,-68.08"/>
<polygon fill="#63b8ff" stroke="#63b8ff" points="2752.61,-71.59 2762.36,-67.43 2752.14,-64.61 2752.61,-71.59"/>
</a>
</g>
</g>
<!-- Node6&#45;&gt;Node7 -->
<g id="edge6_Node000006_Node000007" class="edge">
<title>Node6&#45;&gt;Node7</title>
<g id="a_edge6_Node000006_Node000007"><a xlink:title=" ">
<path fill="none" stroke="#63b8ff" d="M2332.43,-62.97C2131.8,-56.67 939.97,-19.2 706.71,-11.87"/>
<polygon fill="#63b8ff" stroke="#63b8ff" points="707.04,-8.38 696.94,-11.56 706.82,-15.37 707.04,-8.38"/>
</a>
</g>
</g>
<!-- Node6&#45;&gt;Node8 -->
<g id="edge7_Node000006_Node000008" class="edge">
<title>Node6&#45;&gt;Node8</title>
<g id="a_edge7_Node000006_Node000008"><a xlink:title=" ">
<path fill="none" stroke="#63b8ff" d="M2389.7,-60.46C2467.93,-51.12 2685.42,-25.16 2771.45,-14.88"/>
<polygon fill="#63b8ff" stroke="#63b8ff" points="2771.67,-18.38 2781.18,-13.72 2770.84,-11.43 2771.67,-18.38"/>
</a>
</g>
</g>
<!-- Node9 -->
<g id="Node000009" class="node">
<title>Node9</title>
<g id="a_Node000009"><a xlink:title=" ">
<polygon fill="#e0e0e0" stroke="#999999" points="2390.12,-19.25 2332.12,-19.25 2332.12,0 2390.12,0 2390.12,-19.25"/>
<text text-anchor="middle" x="2361.12" y="-5.75" font-family="Helvetica,sans-Serif" font-size="10.00">functional</text>
</a>
</g>
</g>
<!-- Node6&#45;&gt;Node9 -->
<g id="edge8_Node000006_Node000009" class="edge">
<title>Node6&#45;&gt;Node9</title>
<g id="a_edge8_Node000006_Node000009"><a xlink:title=" ">
<path fill="none" stroke="#63b8ff" d="M2361.12,-55.08C2361.12,-48.57 2361.12,-39.42 2361.12,-31.12"/>
<polygon fill="#63b8ff" stroke="#63b8ff" points="2364.63,-31.12 2361.13,-21.12 2357.63,-31.12 2364.63,-31.12"/>
</a>
</g>
</g>
<!-- Node6&#45;&gt;Node10 -->
<g id="edge9_Node000006_Node000010" class="edge">
<title>Node6&#45;&gt;Node10</title>
<g id="a_edge9_Node000006_Node000010"><a xlink:title=" ">
<path fill="none" stroke="#63b8ff" d="M2389.74,-61.23C2487.53,-52.21 2807.95,-22.64 2908,-13.41"/>
<polygon fill="#63b8ff" stroke="#63b8ff" points="2908.19,-16.9 2917.83,-12.5 2907.55,-9.93 2908.19,-16.9"/>
</a>
</g>
</g>
<!-- Node6&#45;&gt;Node11 -->
<g id="edge10_Node000006_Node000011" class="edge">
<title>Node6&#45;&gt;Node11</title>
<g id="a_edge10_Node000006_Node000011"><a xlink:title=" ">
<path fill="none" stroke="#63b8ff" d="M2389.61,-63.03C2476.45,-60.19 2745.42,-49.4 2966.12,-19.25 2966.37,-19.22 2966.62,-19.18 2966.86,-19.15"/>
<polygon fill="#63b8ff" stroke="#63b8ff" points="2967.4,-22.61 2976.71,-17.55 2966.27,-15.7 2967.4,-22.61"/>
</a>
</g>
</g>
<!-- Node28&#45;&gt;Node7 -->
<g id="edge40_Node000028_Node000007" class="edge">
<title>Node28&#45;&gt;Node7</title>
<g id="a_edge40_Node000028_Node000007"><a xlink:title=" ">
<path fill="none" stroke="#63b8ff" d="M451.38,-257.82C499.56,-251.01 571.54,-237.94 591.12,-218.75 644.8,-166.17 601.65,-123.01 634.12,-55.25 638.69,-45.72 645.41,-36.16 651.58,-28.35"/>
<polygon fill="#63b8ff" stroke="#63b8ff" points="654.25,-30.62 657.96,-20.69 648.87,-26.14 654.25,-30.62"/>
</a>
</g>
</g>
<!-- Node29 -->
<g id="Node000029" class="node">
<title>Node29</title>
<g id="a_Node000029"><a xlink:title=" ">
<polygon fill="#e0e0e0" stroke="#999999" points="582.25,-218.75 480,-218.75 480,-188.25 582.25,-188.25 582.25,-218.75"/>
<text text-anchor="start" x="488" y="-205.25" font-family="Helvetica,sans-Serif" font-size="10.00">mp&#45;units/framework</text>
<text text-anchor="middle" x="531.12" y="-194" font-family="Helvetica,sans-Serif" font-size="10.00">/quantity.h</text>
</a>
</g>
</g>
<!-- Node28&#45;&gt;Node29 -->
<g id="edge41_Node000028_Node000029" class="edge">
<title>Node28&#45;&gt;Node29</title>
<g id="a_edge41_Node000028_Node000029"><a xlink:title=" ">
<path fill="none" stroke="#63b8ff" d="M425.38,-254.3C442.45,-246.27 467.96,-234.25 489.64,-224.04"/>
<polygon fill="#63b8ff" stroke="#63b8ff" points="491,-227.27 498.56,-219.84 488.02,-220.93 491,-227.27"/>
</a>
</g>
</g>
<!-- Node30 -->
<g id="Node000030" class="node">
<title>Node30</title>
<g id="a_Node000030"><a xlink:title=" ">
<polygon fill="#e0e0e0" stroke="#999999" points="102.25,-218.75 0,-218.75 0,-188.25 102.25,-188.25 102.25,-218.75"/>
<text text-anchor="start" x="8" y="-205.25" font-family="Helvetica,sans-Serif" font-size="10.00">mp&#45;units/framework</text>
<text text-anchor="middle" x="51.12" y="-194" font-family="Helvetica,sans-Serif" font-size="10.00">/quantity_point.h</text>
</a>
</g>
</g>
<!-- Node28&#45;&gt;Node30 -->
<g id="edge42_Node000028_Node000030" class="edge">
<title>Node28&#45;&gt;Node30</title>
<g id="a_edge42_Node000028_Node000030"><a xlink:title=" ">
<path fill="none" stroke="#63b8ff" d="M360.69,-257.69C304.8,-250.44 206.79,-236.88 113.51,-219.12"/>
<polygon fill="#63b8ff" stroke="#63b8ff" points="114.42,-215.73 103.94,-217.27 113.09,-222.6 114.42,-215.73"/>
</a>
</g>
</g>
<!-- Node31 -->
<g id="Node000031" class="node">
<title>Node31</title>
<g id="a_Node000031"><a xlink:title=" ">
<polygon fill="#e0e0e0" stroke="#999999" points="206,-213.12 120.25,-213.12 120.25,-193.88 206,-193.88 206,-213.12"/>
<text text-anchor="middle" x="163.12" y="-199.62" font-family="Helvetica,sans-Serif" font-size="10.00">mp&#45;units/math.h</text>
</a>
</g>
</g>
<!-- Node28&#45;&gt;Node31 -->
<g id="edge43_Node000028_Node000031" class="edge">
<title>Node28&#45;&gt;Node31</title>
<g id="a_edge43_Node000028_Node000031"><a xlink:title=" ">
<path fill="none" stroke="#63b8ff" d="M364.8,-254.32C325.83,-245.66 265.85,-231.98 214.12,-218.75 211.4,-218.05 208.59,-217.32 205.77,-216.56"/>
<polygon fill="#63b8ff" stroke="#63b8ff" points="206.93,-213.25 196.36,-214.01 205.09,-220.01 206.93,-213.25"/>
</a>
</g>
</g>
<!-- Node32 -->
<g id="Node000032" class="node">
<title>Node32</title>
<g id="a_Node000032"><a xlink:title=" ">
<polygon fill="#e0e0e0" stroke="#999999" points="332.62,-218.75 223.62,-218.75 223.62,-188.25 332.62,-188.25 332.62,-218.75"/>
<text text-anchor="start" x="231.62" y="-205.25" font-family="Helvetica,sans-Serif" font-size="10.00">mp&#45;units/systems/isq</text>
<text text-anchor="middle" x="278.12" y="-194" font-family="Helvetica,sans-Serif" font-size="10.00">/thermodynamics.h</text>
</a>
</g>
</g>
<!-- Node28&#45;&gt;Node32 -->
<g id="edge44_Node000028_Node000032" class="edge">
<title>Node28&#45;&gt;Node32</title>
<g id="a_edge44_Node000028_Node000032"><a xlink:title=" ">
<path fill="none" stroke="#63b8ff" d="M386.41,-254.3C368.85,-246.23 342.57,-234.14 320.3,-223.9"/>
<polygon fill="#63b8ff" stroke="#63b8ff" points="322,-220.83 311.45,-219.83 319.07,-227.19 322,-220.83"/>
</a>
</g>
</g>
<!-- Node33 -->
<g id="Node000033" class="node">
<title>Node33</title>
<g id="a_Node000033"><a xlink:title=" ">
<polygon fill="#e0e0e0" stroke="#999999" points="461.75,-213.12 350.5,-213.12 350.5,-193.88 461.75,-193.88 461.75,-213.12"/>
<text text-anchor="middle" x="406.12" y="-199.62" font-family="Helvetica,sans-Serif" font-size="10.00">mp&#45;units/systems/si.h</text>
</a>
</g>
</g>
<!-- Node28&#45;&gt;Node33 -->
<g id="edge45_Node000028_Node000033" class="edge">
<title>Node28&#45;&gt;Node33</title>
<g id="a_edge45_Node000028_Node000033"><a xlink:title=" ">
<path fill="none" stroke="#63b8ff" d="M406.12,-254.43C406.12,-246.65 406.12,-235.08 406.12,-225.03"/>
<polygon fill="#63b8ff" stroke="#63b8ff" points="409.63,-225.04 406.13,-215.04 402.63,-225.04 409.63,-225.04"/>
</a>
</g>
</g>
</g>
</svg>
