<?xml version="1.0" encoding="UTF-8" standalone="no"?>
<!DOCTYPE svg PUBLIC "-//W3C//DTD SVG 1.1//EN"
 "http://www.w3.org/Graphics/SVG/1.1/DTD/svg11.dtd">
<!-- Generated by graphviz version 12.2.0 (20241103.1931)
 -->
<!-- Title: /github/workspace/support/mp_units/fcarouge/unit.hpp Pages: 1 -->
<svg width="590pt" height="105pt"
 viewBox="0.00 0.00 589.75 105.00" xmlns="http://www.w3.org/2000/svg" xmlns:xlink="http://www.w3.org/1999/xlink">
<g id="graph0" class="graph" transform="scale(1 1) rotate(0) translate(4 101)">
<title>/github/workspace/support/mp_units/fcarouge/unit.hpp</title>
<!-- Node1 -->
<g id="Node000001" class="node">
<title>Node1</title>
<g id="a_Node000001"><a xlink:title="Quantities and units facade for mp&#45;units third party implementation.">
<polygon fill="#999999" stroke="#666666" points="351.12,-97 215.12,-97 215.12,-66.5 351.12,-66.5 351.12,-97"/>
<text text-anchor="start" x="223.12" y="-83.5" font-family="Helvetica,sans-Serif" font-size="10.00">/github/workspace/support</text>
<text text-anchor="middle" x="283.12" y="-72.25" font-family="Helvetica,sans-Serif" font-size="10.00">/mp_units/fcarouge/unit.hpp</text>
</a>
</g>
</g>
<!-- Node2 -->
<g id="Node000002" class="node">
<title>Node2</title>
<g id="a_Node000002"><a xlink:title=" ">
<polygon fill="#e0e0e0" stroke="#999999" points="102.25,-30.5 0,-30.5 0,0 102.25,0 102.25,-30.5"/>
<text text-anchor="start" x="8" y="-17" font-family="Helvetica,sans-Serif" font-size="10.00">mp&#45;units/framework</text>
<text text-anchor="middle" x="51.12" y="-5.75" font-family="Helvetica,sans-Serif" font-size="10.00">/quantity.h</text>
</a>
</g>
</g>
<!-- Node1&#45;&gt;Node2 -->
<g id="edge1_Node000001_Node000002" class="edge">
<title>Node1&#45;&gt;Node2</title>
<g id="a_edge1_Node000001_Node000002"><a xlink:title=" ">
<path fill="none" stroke="#63b8ff" d="M230.19,-66.03C195.53,-56.4 150.07,-43.76 113.63,-33.63"/>
<polygon fill="#63b8ff" stroke="#63b8ff" points="114.67,-30.28 104.09,-30.98 112.79,-37.03 114.67,-30.28"/>
</a>
</g>
</g>
<!-- Node3 -->
<g id="Node000003" class="node">
<title>Node3</title>
<g id="a_Node000003"><a xlink:title=" ">
<polygon fill="#e0e0e0" stroke="#999999" points="222.25,-30.5 120,-30.5 120,0 222.25,0 222.25,-30.5"/>
<text text-anchor="start" x="128" y="-17" font-family="Helvetica,sans-Serif" font-size="10.00">mp&#45;units/framework</text>
<text text-anchor="middle" x="171.12" y="-5.75" font-family="Helvetica,sans-Serif" font-size="10.00">/quantity_point.h</text>
</a>
</g>
</g>
<!-- Node1&#45;&gt;Node3 -->
<g id="edge2_Node000001_Node000003" class="edge">
<title>Node1&#45;&gt;Node3</title>
<g id="a_edge2_Node000001_Node000003"><a xlink:title=" ">
<path fill="none" stroke="#63b8ff" d="M257.71,-66.11C242.53,-57.37 223.03,-46.14 206.37,-36.55"/>
<polygon fill="#63b8ff" stroke="#63b8ff" points="208.16,-33.54 197.75,-31.58 204.67,-39.61 208.16,-33.54"/>
</a>
</g>
</g>
<!-- Node4 -->
<g id="Node000004" class="node">
<title>Node4</title>
<g id="a_Node000004"><a xlink:title=" ">
<polygon fill="#e0e0e0" stroke="#999999" points="326,-24.88 240.25,-24.88 240.25,-5.63 326,-5.63 326,-24.88"/>
<text text-anchor="middle" x="283.12" y="-11.38" font-family="Helvetica,sans-Serif" font-size="10.00">mp&#45;units/math.h</text>
</a>
</g>
</g>
<!-- Node1&#45;&gt;Node4 -->
<g id="edge3_Node000001_Node000004" class="edge">
<title>Node1&#45;&gt;Node4</title>
<g id="a_edge3_Node000001_Node000004"><a xlink:title=" ">
<path fill="none" stroke="#63b8ff" d="M283.12,-66.11C283.12,-57.33 283.12,-46.02 283.12,-36.4"/>
<polygon fill="#63b8ff" stroke="#63b8ff" points="286.63,-36.59 283.13,-26.59 279.63,-36.59 286.63,-36.59"/>
</a>
</g>
</g>
<!-- Node5 -->
<g id="Node000005" class="node">
<title>Node5</title>
<g id="a_Node000005"><a xlink:title=" ">
<polygon fill="#e0e0e0" stroke="#999999" points="452.62,-30.5 343.62,-30.5 343.62,0 452.62,0 452.62,-30.5"/>
<text text-anchor="start" x="351.62" y="-17" font-family="Helvetica,sans-Serif" font-size="10.00">mp&#45;units/systems/isq</text>
<text text-anchor="middle" x="398.12" y="-5.75" font-family="Helvetica,sans-Serif" font-size="10.00">/thermodynamics.h</text>
</a>
</g>
</g>
<!-- Node1&#45;&gt;Node5 -->
<g id="edge4_Node000001_Node000005" class="edge">
<title>Node1&#45;&gt;Node5</title>
<g id="a_edge4_Node000001_Node000005"><a xlink:title=" ">
<path fill="none" stroke="#63b8ff" d="M309.22,-66.11C324.95,-57.29 345.21,-45.93 362.41,-36.28"/>
<polygon fill="#63b8ff" stroke="#63b8ff" points="363.8,-39.51 370.81,-31.57 360.38,-33.41 363.8,-39.51"/>
</a>
</g>
</g>
<!-- Node6 -->
<g id="Node000006" class="node">
<title>Node6</title>
<g id="a_Node000006"><a xlink:title=" ">
<polygon fill="#e0e0e0" stroke="#999999" points="581.75,-24.88 470.5,-24.88 470.5,-5.63 581.75,-5.63 581.75,-24.88"/>
<text text-anchor="middle" x="526.12" y="-11.38" font-family="Helvetica,sans-Serif" font-size="10.00">mp&#45;units/systems/si.h</text>
</a>
</g>
</g>
<!-- Node1&#45;&gt;Node6 -->
<g id="edge5_Node000001_Node000006" class="edge">
<title>Node1&#45;&gt;Node6</title>
<g id="a_edge5_Node000001_Node000006"><a xlink:title=" ">
<path fill="none" stroke="#63b8ff" d="M338.57,-66.03C381.63,-54.6 440.58,-38.96 480.83,-28.27"/>
<polygon fill="#63b8ff" stroke="#63b8ff" points="481.68,-31.67 490.45,-25.72 479.89,-24.9 481.68,-31.67"/>
</a>
</g>
</g>
</g>
</svg>
