<?xml version="1.0" encoding="UTF-8" standalone="no"?>
<!DOCTYPE svg PUBLIC "-//W3C//DTD SVG 1.1//EN"
 "http://www.w3.org/Graphics/SVG/1.1/DTD/svg11.dtd">
<!-- Generated by graphviz version 12.2.0 (20241103.1931)
 -->
<!-- Title: /github/workspace/include/fcarouge/typed_linear_algebra_internal/utility.hpp Pages: 1 -->
<svg width="795pt" height="350pt"
 viewBox="0.00 0.00 794.88 349.50" xmlns="http://www.w3.org/2000/svg" xmlns:xlink="http://www.w3.org/1999/xlink">
<g id="graph0" class="graph" transform="scale(1 1) rotate(0) translate(4 345.5)">
<title>/github/workspace/include/fcarouge/typed_linear_algebra_internal/utility.hpp</title>
<!-- Node1 -->
<g id="Node000001" class="node">
<title>Node1</title>
<g id="a_Node000001"><a xlink:title=" ">
<polygon fill="#999999" stroke="#666666" points="473.75,-341.5 340.75,-341.5 340.75,-299.75 473.75,-299.75 473.75,-341.5"/>
<text text-anchor="start" x="348.75" y="-328" font-family="Helvetica,sans-Serif" font-size="10.00">/github/workspace/include</text>
<text text-anchor="start" x="348.75" y="-316.75" font-family="Helvetica,sans-Serif" font-size="10.00">/fcarouge/typed_linear</text>
<text text-anchor="middle" x="407.25" y="-305.5" font-family="Helvetica,sans-Serif" font-size="10.00">_algebra_internal/utility.hpp</text>
</a>
</g>
</g>
<!-- Node2 -->
<g id="Node000002" class="node">
<title>Node2</title>
<g id="a_Node000002"><a xlink:href="mdspan__tuple__product_8cpp.xhtml" target="_top" xlink:title=" ">
<polygon fill="white" stroke="#666666" points="320.5,-258.12 174,-258.12 174,-227.62 320.5,-227.62 320.5,-258.12"/>
<text text-anchor="start" x="182" y="-244.62" font-family="Helvetica,sans-Serif" font-size="10.00">/github/workspace/benchmark</text>
<text text-anchor="middle" x="247.25" y="-233.38" font-family="Helvetica,sans-Serif" font-size="10.00">/mdspan_tuple_product.cpp</text>
</a>
</g>
</g>
<!-- Node1&#45;&gt;Node2 -->
<g id="edge1_Node000001_Node000002" class="edge">
<title>Node1&#45;&gt;Node2</title>
<g id="a_edge1_Node000001_Node000002"><a xlink:title=" ">
<path fill="none" stroke="#63b8ff" d="M354.23,-294.52C329.06,-282.61 299.85,-268.78 278.32,-258.58"/>
<polygon fill="#63b8ff" stroke="#63b8ff" points="352.47,-297.56 363,-298.68 355.46,-291.24 352.47,-297.56"/>
</a>
</g>
</g>
<!-- Node3 -->
<g id="Node000003" class="node">
<title>Node3</title>
<g id="a_Node000003"><a xlink:href="typed__linear__algebra_8hpp.xhtml" target="_top" xlink:title="Typed linear algebra implementation.">
<polygon fill="white" stroke="#666666" points="519.88,-186 390.62,-186 390.62,-144.25 519.88,-144.25 519.88,-186"/>
<text text-anchor="start" x="398.62" y="-172.5" font-family="Helvetica,sans-Serif" font-size="10.00">/github/workspace/include</text>
<text text-anchor="start" x="398.62" y="-161.25" font-family="Helvetica,sans-Serif" font-size="10.00">/fcarouge/typed_linear</text>
<text text-anchor="middle" x="455.25" y="-150" font-family="Helvetica,sans-Serif" font-size="10.00">_algebra.hpp</text>
</a>
</g>
</g>
<!-- Node1&#45;&gt;Node3 -->
<g id="edge2_Node000001_Node000003" class="edge">
<title>Node1&#45;&gt;Node3</title>
<g id="a_edge2_Node000001_Node000003"><a xlink:title=" ">
<path fill="none" stroke="#63b8ff" d="M459.28,-292.95C469.72,-285.04 479.3,-275.32 485.25,-263.75 498.21,-238.52 483.25,-206.69 470.21,-186.37"/>
<polygon fill="#63b8ff" stroke="#63b8ff" points="457.4,-289.99 451.19,-298.57 461.4,-295.74 457.4,-289.99"/>
</a>
</g>
</g>
<!-- Node12 -->
<g id="Node000012" class="node">
<title>Node12</title>
<g id="a_Node000012"><a xlink:href="format_8hpp.xhtml" target="_top" xlink:title="Formatting support for the typed matrix.">
<polygon fill="white" stroke="#666666" points="476.38,-263.75 338.12,-263.75 338.12,-222 476.38,-222 476.38,-263.75"/>
<text text-anchor="start" x="346.12" y="-250.25" font-family="Helvetica,sans-Serif" font-size="10.00">/github/workspace/include</text>
<text text-anchor="start" x="346.12" y="-239" font-family="Helvetica,sans-Serif" font-size="10.00">/fcarouge/typed_linear</text>
<text text-anchor="middle" x="407.25" y="-227.75" font-family="Helvetica,sans-Serif" font-size="10.00">_algebra_internal/format.hpp</text>
</a>
</g>
</g>
<!-- Node1&#45;&gt;Node12 -->
<g id="edge14_Node000001_Node000012" class="edge">
<title>Node1&#45;&gt;Node12</title>
<g id="a_edge14_Node000001_Node000012"><a xlink:title=" ">
<path fill="none" stroke="#63b8ff" d="M407.25,-288C407.25,-279.96 407.25,-271.54 407.25,-264.23"/>
<polygon fill="#63b8ff" stroke="#63b8ff" points="403.75,-287.81 407.25,-297.81 410.75,-287.81 403.75,-287.81"/>
</a>
</g>
</g>
<!-- Node4 -->
<g id="Node000004" class="node">
<title>Node4</title>
<g id="a_Node000004"><a xlink:href="typed__mdspan__product_8cpp.xhtml" target="_top" xlink:title=" ">
<polygon fill="white" stroke="#666666" points="146.5,-108.25 0,-108.25 0,-77.75 146.5,-77.75 146.5,-108.25"/>
<text text-anchor="start" x="8" y="-94.75" font-family="Helvetica,sans-Serif" font-size="10.00">/github/workspace/benchmark</text>
<text text-anchor="middle" x="73.25" y="-83.5" font-family="Helvetica,sans-Serif" font-size="10.00">/typed_mdspan_product.cpp</text>
</a>
</g>
</g>
<!-- Node3&#45;&gt;Node4 -->
<g id="edge3_Node000003_Node000004" class="edge">
<title>Node3&#45;&gt;Node4</title>
<g id="a_edge3_Node000003_Node000004"><a xlink:title=" ">
<path fill="none" stroke="#63b8ff" d="M379.47,-150.21C311.94,-137.82 213.73,-119.79 146.87,-107.51"/>
<polygon fill="#63b8ff" stroke="#63b8ff" points="378.49,-153.59 388.96,-151.96 379.76,-146.71 378.49,-153.59"/>
</a>
</g>
</g>
<!-- Node5 -->
<g id="Node000005" class="node">
<title>Node5</title>
<g id="a_Node000005"><a xlink:href="typed__mdspan__tupled__product_8cpp.xhtml" target="_top" xlink:title=" ">
<polygon fill="white" stroke="#666666" points="333.75,-108.25 164.75,-108.25 164.75,-77.75 333.75,-77.75 333.75,-108.25"/>
<text text-anchor="start" x="172.75" y="-94.75" font-family="Helvetica,sans-Serif" font-size="10.00">/github/workspace/benchmark</text>
<text text-anchor="middle" x="249.25" y="-83.5" font-family="Helvetica,sans-Serif" font-size="10.00">/typed_mdspan_tupled_product.cpp</text>
</a>
</g>
</g>
<!-- Node3&#45;&gt;Node5 -->
<g id="edge4_Node000003_Node000005" class="edge">
<title>Node3&#45;&gt;Node5</title>
<g id="a_edge4_Node000003_Node000005"><a xlink:title=" ">
<path fill="none" stroke="#63b8ff" d="M384.99,-140.21C354.24,-129.74 319.15,-117.79 292.34,-108.67"/>
<polygon fill="#63b8ff" stroke="#63b8ff" points="383.64,-143.44 394.23,-143.35 385.89,-136.82 383.64,-143.44"/>
</a>
</g>
</g>
<!-- Node6 -->
<g id="Node000006" class="node">
<title>Node6</title>
<g id="a_Node000006"><a xlink:href="eigen_8hpp.xhtml" target="_top" xlink:title="Linear algebra facade for Eigen3 third party implementation.">
<polygon fill="white" stroke="#666666" points="520.62,-108.25 389.88,-108.25 389.88,-77.75 520.62,-77.75 520.62,-108.25"/>
<text text-anchor="start" x="397.88" y="-94.75" font-family="Helvetica,sans-Serif" font-size="10.00">/github/workspace/support</text>
<text text-anchor="middle" x="455.25" y="-83.5" font-family="Helvetica,sans-Serif" font-size="10.00">/eigen/fcarouge/eigen.hpp</text>
</a>
</g>
</g>
<!-- Node3&#45;&gt;Node6 -->
<g id="edge5_Node000003_Node000006" class="edge">
<title>Node3&#45;&gt;Node6</title>
<g id="a_edge5_Node000003_Node000006"><a xlink:title=" ">
<path fill="none" stroke="#63b8ff" d="M455.25,-132.38C455.25,-124.02 455.25,-115.4 455.25,-108.45"/>
<polygon fill="#63b8ff" stroke="#63b8ff" points="451.75,-132.33 455.25,-142.33 458.75,-132.33 451.75,-132.33"/>
</a>
</g>
</g>
<!-- Node8 -->
<g id="Node000008" class="node">
<title>Node8</title>
<g id="a_Node000008"><a xlink:href="eigexed_2fcarouge_2linalg_8hpp.xhtml" target="_top" xlink:title="Scalar type linear algebra with Eigen implementation.">
<polygon fill="white" stroke="#666666" points="309.25,-36.12 173.25,-36.12 173.25,-5.62 309.25,-5.62 309.25,-36.12"/>
<text text-anchor="start" x="181.25" y="-22.62" font-family="Helvetica,sans-Serif" font-size="10.00">/github/workspace/support</text>
<text text-anchor="middle" x="241.25" y="-11.38" font-family="Helvetica,sans-Serif" font-size="10.00">/eigexed/fcarouge/linalg.hpp</text>
</a>
</g>
</g>
<!-- Node3&#45;&gt;Node8 -->
<g id="edge10_Node000003_Node000008" class="edge">
<title>Node3&#45;&gt;Node8</title>
<g id="a_edge10_Node000003_Node000008"><a xlink:title=" ">
<path fill="none" stroke="#63b8ff" d="M419.18,-137.08C407.09,-127.97 393.56,-117.71 381.25,-108.25 363.8,-94.84 360.6,-89.89 342.25,-77.75 319.02,-62.38 291.24,-47.23 270.7,-36.59"/>
<polygon fill="#63b8ff" stroke="#63b8ff" points="416.8,-139.67 426.89,-142.89 421.01,-134.08 416.8,-139.67"/>
</a>
</g>
</g>
<!-- Node9 -->
<g id="Node000009" class="node">
<title>Node9</title>
<g id="a_Node000009"><a xlink:href="nested__typed__eigen_2fcarouge_2linalg_8hpp.xhtml" target="_top" xlink:title="Scalar type nested linear algebra with Eigen implementation.">
<polygon fill="white" stroke="#666666" points="621.12,-41.75 475.38,-41.75 475.38,0 621.12,0 621.12,-41.75"/>
<text text-anchor="start" x="483.38" y="-28.25" font-family="Helvetica,sans-Serif" font-size="10.00">/github/workspace/support</text>
<text text-anchor="start" x="483.38" y="-17" font-family="Helvetica,sans-Serif" font-size="10.00">/nested_typed_eigen/fcarouge</text>
<text text-anchor="middle" x="548.25" y="-5.75" font-family="Helvetica,sans-Serif" font-size="10.00">/linalg.hpp</text>
</a>
</g>
</g>
<!-- Node3&#45;&gt;Node9 -->
<g id="edge11_Node000003_Node000009" class="edge">
<title>Node3&#45;&gt;Node9</title>
<g id="a_edge11_Node000003_Node000009"><a xlink:title=" ">
<path fill="none" stroke="#63b8ff" d="M501.47,-137.17C511.97,-129.08 522.12,-119.36 529.25,-108.25 542.1,-88.22 546.35,-60.78 547.71,-42.25"/>
<polygon fill="#63b8ff" stroke="#63b8ff" points="499.5,-134.28 493.43,-142.96 503.59,-139.95 499.5,-134.28"/>
</a>
</g>
</g>
<!-- Node10 -->
<g id="Node000010" class="node">
<title>Node10</title>
<g id="a_Node000010"><a xlink:href="unit__eigen_2fcarouge_2linalg_8hpp.xhtml" target="_top" xlink:title="Indexed&#45;based linear algebra with mp&#45;units with Eigen implementations.">
<polygon fill="white" stroke="#666666" points="786.88,-36.12 639.62,-36.12 639.62,-5.62 786.88,-5.62 786.88,-36.12"/>
<text text-anchor="start" x="647.62" y="-22.62" font-family="Helvetica,sans-Serif" font-size="10.00">/github/workspace/support</text>
<text text-anchor="middle" x="713.25" y="-11.38" font-family="Helvetica,sans-Serif" font-size="10.00">/unit_eigen/fcarouge/linalg.hpp</text>
</a>
</g>
</g>
<!-- Node3&#45;&gt;Node10 -->
<g id="edge12_Node000003_Node000010" class="edge">
<title>Node3&#45;&gt;Node10</title>
<g id="a_edge12_Node000003_Node000010"><a xlink:title=" ">
<path fill="none" stroke="#63b8ff" d="M499.22,-138.11C528.96,-120.69 569.23,-97.42 605.25,-77.75 631.74,-63.28 662.34,-47.54 684.18,-36.47"/>
<polygon fill="#63b8ff" stroke="#63b8ff" points="497.71,-134.94 490.86,-143.02 501.26,-140.97 497.71,-134.94"/>
</a>
</g>
</g>
<!-- Node11 -->
<g id="Node000011" class="node">
<title>Node11</title>
<g id="a_Node000011"><a xlink:href="unit__std_2fcarouge_2linalg_8hpp.xhtml" target="_top" xlink:title="Indexed&#45;based linear algebra with mp&#45;units with Eigen implementations.">
<polygon fill="white" stroke="#666666" points="752,-108.25 614.5,-108.25 614.5,-77.75 752,-77.75 752,-108.25"/>
<text text-anchor="start" x="622.5" y="-94.75" font-family="Helvetica,sans-Serif" font-size="10.00">/github/workspace/support</text>
<text text-anchor="middle" x="683.25" y="-83.5" font-family="Helvetica,sans-Serif" font-size="10.00">/unit_std/fcarouge/linalg.hpp</text>
</a>
</g>
</g>
<!-- Node3&#45;&gt;Node11 -->
<g id="edge13_Node000003_Node000011" class="edge">
<title>Node3&#45;&gt;Node11</title>
<g id="a_edge13_Node000003_Node000011"><a xlink:title=" ">
<path fill="none" stroke="#63b8ff" d="M531.26,-140.75C565.7,-130.15 605.36,-117.96 635.53,-108.68"/>
<polygon fill="#63b8ff" stroke="#63b8ff" points="530.26,-137.39 521.73,-143.68 532.31,-144.08 530.26,-137.39"/>
</a>
</g>
</g>
<!-- Node7 -->
<g id="Node000007" class="node">
<title>Node7</title>
<g id="a_Node000007"><a xlink:href="eigen_2fcarouge_2linalg_8hpp.xhtml" target="_top" xlink:title=" ">
<polygon fill="white" stroke="#666666" points="457.62,-36.12 326.88,-36.12 326.88,-5.62 457.62,-5.62 457.62,-36.12"/>
<text text-anchor="start" x="334.88" y="-22.62" font-family="Helvetica,sans-Serif" font-size="10.00">/github/workspace/support</text>
<text text-anchor="middle" x="392.25" y="-11.38" font-family="Helvetica,sans-Serif" font-size="10.00">/eigen/fcarouge/linalg.hpp</text>
</a>
</g>
</g>
<!-- Node6&#45;&gt;Node7 -->
<g id="edge6_Node000006_Node000007" class="edge">
<title>Node6&#45;&gt;Node7</title>
<g id="a_edge6_Node000006_Node000007"><a xlink:title=" ">
<path fill="none" stroke="#63b8ff" d="M434.55,-68.96C424.91,-58.23 413.73,-45.78 405.29,-36.39"/>
<polygon fill="#63b8ff" stroke="#63b8ff" points="431.9,-71.24 441.18,-76.34 437.11,-66.57 431.9,-71.24"/>
</a>
</g>
</g>
<!-- Node6&#45;&gt;Node8 -->
<g id="edge7_Node000006_Node000008" class="edge">
<title>Node6&#45;&gt;Node8</title>
<g id="a_edge7_Node000006_Node000008"><a xlink:title=" ">
<path fill="none" stroke="#63b8ff" d="M399.75,-73.81C364.38,-62.22 319.14,-47.4 286.05,-36.56"/>
<polygon fill="#63b8ff" stroke="#63b8ff" points="398.36,-77.04 408.95,-76.83 400.54,-70.39 398.36,-77.04"/>
</a>
</g>
</g>
<!-- Node6&#45;&gt;Node9 -->
<g id="edge8_Node000006_Node000009" class="edge">
<title>Node6&#45;&gt;Node9</title>
<g id="a_edge8_Node000006_Node000009"><a xlink:title=" ">
<path fill="none" stroke="#63b8ff" d="M483.63,-70.6C495.59,-61.58 509.44,-51.14 521.25,-42.24"/>
<polygon fill="#63b8ff" stroke="#63b8ff" points="481.61,-67.74 475.73,-76.56 485.82,-73.33 481.61,-67.74"/>
</a>
</g>
</g>
<!-- Node6&#45;&gt;Node10 -->
<g id="edge9_Node000006_Node000010" class="edge">
<title>Node6&#45;&gt;Node10</title>
<g id="a_edge9_Node000006_Node000010"><a xlink:title=" ">
<path fill="none" stroke="#63b8ff" d="M520.24,-74.34C563.16,-62.67 618.75,-47.56 659.24,-36.56"/>
<polygon fill="#63b8ff" stroke="#63b8ff" points="519.53,-70.9 510.8,-76.9 521.36,-77.66 519.53,-70.9"/>
</a>
</g>
</g>
<!-- Node12&#45;&gt;Node3 -->
<g id="edge15_Node000012_Node000003" class="edge">
<title>Node12&#45;&gt;Node3</title>
<g id="a_edge15_Node000012_Node000003"><a xlink:title=" ">
<path fill="none" stroke="#63b8ff" d="M426.23,-211.93C431.63,-203.39 437.4,-194.3 442.35,-186.48"/>
<polygon fill="#63b8ff" stroke="#63b8ff" points="423.32,-209.98 420.92,-220.3 429.23,-213.72 423.32,-209.98"/>
</a>
</g>
</g>
</g>
</svg>
