<?xml version="1.0" encoding="UTF-8" standalone="no"?>
<!DOCTYPE svg PUBLIC "-//W3C//DTD SVG 1.1//EN"
 "http://www.w3.org/Graphics/SVG/1.1/DTD/svg11.dtd">
<!-- Generated by graphviz version 12.2.0 (20241103.1931)
 -->
<!-- Title: /github/workspace/include/fcarouge/typed_linear_algebra_internal/utility.hpp Pages: 1 -->
<!--zoomable 350 -->

<svg id="main" version="1.1" xmlns="http://www.w3.org/2000/svg" xmlns:xlink="http://www.w3.org/1999/xlink" xml:space="preserve" onload="init(evt)">

<style type="text/css"><![CDATA[
.node, .edge {opacity: 0.7;}
.node.selected, .edge.selected {opacity: 1;}
.edge:hover path { stroke: red; }
.edge:hover polygon { stroke: red; fill: red; }
]]></style>

<defs>
  <circle id="rim" cx="0" cy="0" r="7"/>
  <circle id="rim2" cx="0" cy="0" r="3.5"/>
  <g id="zoomPlus">
    <use xlink:href="#rim" fill="#404040"><set attributeName="fill" to="#808080" begin="zoomplus.mouseover" end="zoomplus.mouseout"/></use>
    <path d="M-4,0h8M0,-4v8" fill="none" stroke="white" stroke-width="1.5" pointer-events="none"/>
  </g>
  <g id="zoomMin">
    <use xlink:href="#rim" fill="#404040"><set attributeName="fill" to="#808080" begin="zoomminus.mouseover" end="zoomminus.mouseout"/></use>
    <path d="M-4,0h8" fill="none" stroke="white" stroke-width="1.5" pointer-events="none"/>
  </g>
  <g id="arrowUp" transform="translate(30 24)">
    <use xlink:href="#rim"/>
    <path pointer-events="none" fill="none" stroke="white" stroke-width="1.5" d="M0,-3.0v7 M-2.5,-0.5L0,-3.0L2.5,-0.5"/>
  </g>
  <g id="arrowRight" transform="rotate(90) translate(36 -43)">
    <use xlink:href="#rim"/>
    <path pointer-events="none" fill="none" stroke="white" stroke-width="1.5" d="M0,-3.0v7 M-2.5,-0.5L0,-3.0L2.5,-0.5"/>
  </g>
  <g id="arrowDown" transform="rotate(180) translate(-30 -48)">
    <use xlink:href="#rim"/>
    <path pointer-events="none" fill="none" stroke="white" stroke-width="1.5" d="M0,-3.0v7 M-2.5,-0.5L0,-3.0L2.5,-0.5"/>
  </g>
  <g id="arrowLeft" transform="rotate(270) translate(-36 17)">
    <use xlink:href="#rim"/>
    <path pointer-events="none" fill="none" stroke="white" stroke-width="1.5" d="M0,-3.0v7 M-2.5,-0.5L0,-3.0L2.5,-0.5"/>
  </g>
  <g id="resetDef">
    <use xlink:href="#rim2" fill="#404040"><set attributeName="fill" to="#808080" begin="reset.mouseover" end="reset.mouseout"/></use>
  </g>
</defs>
<script type="application/ecmascript">
var viewWidth = 926;
var viewHeight = 350;
var sectionId = 'dynsection-1';
</script>
<script type="application/ecmascript" xlink:href="svg.min.js"/>
<svg id="graph" class="graph">
<g id="viewport">
<title>/github/workspace/include/fcarouge/typed_linear_algebra_internal/utility.hpp</title>
<!-- Node1 -->
<g id="Node000001" class="node">
<title>Node1</title>
<g id="a_Node000001"><a xlink:title=" ">
<polygon fill="#999999" stroke="#666666" points="558,-341.5 425,-341.5 425,-299.75 558,-299.75 558,-341.5"/>
<text text-anchor="start" x="433" y="-328" font-family="Helvetica,sans-Serif" font-size="10.00">/github/workspace/include</text>
<text text-anchor="start" x="433" y="-316.75" font-family="Helvetica,sans-Serif" font-size="10.00">/fcarouge/typed_linear</text>
<text text-anchor="middle" x="491.5" y="-305.5" font-family="Helvetica,sans-Serif" font-size="10.00">_algebra_internal/utility.hpp</text>
</a>
</g>
</g>
<!-- Node2 -->
<g id="Node000002" class="node">
<title>Node2</title>
<g id="a_Node000002"><a xlink:href="mdspan__tuple__product_8cpp.xhtml" target="_top" xlink:title=" ">
<polygon fill="white" stroke="#666666" points="404.75,-258.12 258.25,-258.12 258.25,-227.62 404.75,-227.62 404.75,-258.12"/>
<text text-anchor="start" x="266.25" y="-244.62" font-family="Helvetica,sans-Serif" font-size="10.00">/github/workspace/benchmark</text>
<text text-anchor="middle" x="331.5" y="-233.38" font-family="Helvetica,sans-Serif" font-size="10.00">/mdspan_tuple_product.cpp</text>
</a>
</g>
</g>
<!-- Node1&#45;&gt;Node2 -->
<g id="edge1_Node000001_Node000002" class="edge">
<title>Node1&#45;&gt;Node2</title>
<g id="a_edge1_Node000001_Node000002"><a xlink:title=" ">
<path fill="none" stroke="#63b8ff" d="M438.48,-294.52C413.31,-282.61 384.1,-268.78 362.57,-258.58"/>
<polygon fill="#63b8ff" stroke="#63b8ff" points="436.72,-297.56 447.25,-298.68 439.71,-291.24 436.72,-297.56"/>
</a>
</g>
</g>
<!-- Node3 -->
<g id="Node000003" class="node">
<title>Node3</title>
<g id="a_Node000003"><a xlink:href="typed__linear__algebra_8hpp.xhtml" target="_top" xlink:title="Typed linear algebra implementation.">
<polygon fill="white" stroke="#666666" points="604.12,-186 474.88,-186 474.88,-144.25 604.12,-144.25 604.12,-186"/>
<text text-anchor="start" x="482.88" y="-172.5" font-family="Helvetica,sans-Serif" font-size="10.00">/github/workspace/include</text>
<text text-anchor="start" x="482.88" y="-161.25" font-family="Helvetica,sans-Serif" font-size="10.00">/fcarouge/typed_linear</text>
<text text-anchor="middle" x="539.5" y="-150" font-family="Helvetica,sans-Serif" font-size="10.00">_algebra.hpp</text>
</a>
</g>
</g>
<!-- Node1&#45;&gt;Node3 -->
<g id="edge2_Node000001_Node000003" class="edge">
<title>Node1&#45;&gt;Node3</title>
<g id="a_edge2_Node000001_Node000003"><a xlink:title=" ">
<path fill="none" stroke="#63b8ff" d="M543.53,-292.95C553.97,-285.04 563.55,-275.32 569.5,-263.75 582.46,-238.52 567.5,-206.69 554.46,-186.37"/>
<polygon fill="#63b8ff" stroke="#63b8ff" points="541.65,-289.99 535.44,-298.57 545.65,-295.74 541.65,-289.99"/>
</a>
</g>
</g>
<!-- Node13 -->
<g id="Node000013" class="node">
<title>Node13</title>
<g id="a_Node000013"><a xlink:href="format_8hpp.xhtml" target="_top" xlink:title="Formatting support for the typed matrix.">
<polygon fill="white" stroke="#666666" points="560.62,-263.75 422.38,-263.75 422.38,-222 560.62,-222 560.62,-263.75"/>
<text text-anchor="start" x="430.38" y="-250.25" font-family="Helvetica,sans-Serif" font-size="10.00">/github/workspace/include</text>
<text text-anchor="start" x="430.38" y="-239" font-family="Helvetica,sans-Serif" font-size="10.00">/fcarouge/typed_linear</text>
<text text-anchor="middle" x="491.5" y="-227.75" font-family="Helvetica,sans-Serif" font-size="10.00">_algebra_internal/format.hpp</text>
</a>
</g>
</g>
<!-- Node1&#45;&gt;Node13 -->
<g id="edge15_Node000001_Node000013" class="edge">
<title>Node1&#45;&gt;Node13</title>
<g id="a_edge15_Node000001_Node000013"><a xlink:title=" ">
<path fill="none" stroke="#63b8ff" d="M491.5,-288C491.5,-279.96 491.5,-271.54 491.5,-264.23"/>
<polygon fill="#63b8ff" stroke="#63b8ff" points="488,-287.81 491.5,-297.81 495,-287.81 488,-287.81"/>
</a>
</g>
</g>
<!-- Node4 -->
<g id="Node000004" class="node">
<title>Node4</title>
<g id="a_Node000004"><a xlink:href="typed__mdspan__tupled__product_8cpp.xhtml" target="_top" xlink:title=" ">
<polygon fill="white" stroke="#666666" points="169,-108.25 0,-108.25 0,-77.75 169,-77.75 169,-108.25"/>
<text text-anchor="start" x="8" y="-94.75" font-family="Helvetica,sans-Serif" font-size="10.00">/github/workspace/benchmark</text>
<text text-anchor="middle" x="84.5" y="-83.5" font-family="Helvetica,sans-Serif" font-size="10.00">/typed_mdspan_tupled_product.cpp</text>
</a>
</g>
</g>
<!-- Node3&#45;&gt;Node4 -->
<g id="edge3_Node000003_Node000004" class="edge">
<title>Node3&#45;&gt;Node4</title>
<g id="a_edge3_Node000003_Node000004"><a xlink:title=" ">
<path fill="none" stroke="#63b8ff" d="M463.65,-152.43C382.36,-139.91 253.64,-120.07 169.12,-107.04"/>
<polygon fill="#63b8ff" stroke="#63b8ff" points="462.88,-155.86 473.3,-153.92 463.95,-148.94 462.88,-155.86"/>
</a>
</g>
</g>
<!-- Node5 -->
<g id="Node000005" class="node">
<title>Node5</title>
<g id="a_Node000005"><a xlink:href="mp__units__eigen_8cpp.xhtml" target="_top" xlink:title="Unit safe linear algebra with mp&#45;units and Eigen.">
<polygon fill="white" stroke="#666666" points="317.5,-108.25 187.5,-108.25 187.5,-77.75 317.5,-77.75 317.5,-108.25"/>
<text text-anchor="start" x="195.5" y="-94.75" font-family="Helvetica,sans-Serif" font-size="10.00">/github/workspace/sample</text>
<text text-anchor="middle" x="252.5" y="-83.5" font-family="Helvetica,sans-Serif" font-size="10.00">/mp_units_eigen.cpp</text>
</a>
</g>
</g>
<!-- Node3&#45;&gt;Node5 -->
<g id="edge4_Node000003_Node000005" class="edge">
<title>Node3&#45;&gt;Node5</title>
<g id="a_edge4_Node000003_Node000005"><a xlink:title=" ">
<path fill="none" stroke="#63b8ff" d="M463.28,-145.5C416.07,-133.97 356.3,-119.36 312.47,-108.65"/>
<polygon fill="#63b8ff" stroke="#63b8ff" points="462.36,-148.88 472.9,-147.85 464.02,-142.08 462.36,-148.88"/>
</a>
</g>
</g>
<!-- Node6 -->
<g id="Node000006" class="node">
<title>Node6</title>
<g id="a_Node000006"><a xlink:href="mp__units__std_8cpp.xhtml" target="_top" xlink:title="Unit safe linear algebra with mp&#45;units and Eigen.">
<polygon fill="white" stroke="#666666" points="465.5,-108.25 335.5,-108.25 335.5,-77.75 465.5,-77.75 465.5,-108.25"/>
<text text-anchor="start" x="343.5" y="-94.75" font-family="Helvetica,sans-Serif" font-size="10.00">/github/workspace/sample</text>
<text text-anchor="middle" x="400.5" y="-83.5" font-family="Helvetica,sans-Serif" font-size="10.00">/mp_units_std.cpp</text>
</a>
</g>
</g>
<!-- Node3&#45;&gt;Node6 -->
<g id="edge5_Node000003_Node000006" class="edge">
<title>Node3&#45;&gt;Node6</title>
<g id="a_edge5_Node000003_Node000006"><a xlink:title=" ">
<path fill="none" stroke="#63b8ff" d="M489.08,-138.69C469.08,-128.6 446.79,-117.36 429.58,-108.67"/>
<polygon fill="#63b8ff" stroke="#63b8ff" points="487.44,-141.78 497.94,-143.16 490.59,-135.53 487.44,-141.78"/>
</a>
</g>
</g>
<!-- Node7 -->
<g id="Node000007" class="node">
<title>Node7</title>
<g id="a_Node000007"><a xlink:href="eigen_8hpp.xhtml" target="_top" xlink:title="Linear algebra facade for Eigen3 third party implementation.">
<polygon fill="white" stroke="#666666" points="651.88,-108.25 521.12,-108.25 521.12,-77.75 651.88,-77.75 651.88,-108.25"/>
<text text-anchor="start" x="529.12" y="-94.75" font-family="Helvetica,sans-Serif" font-size="10.00">/github/workspace/support</text>
<text text-anchor="middle" x="586.5" y="-83.5" font-family="Helvetica,sans-Serif" font-size="10.00">/eigen/fcarouge/eigen.hpp</text>
</a>
</g>
</g>
<!-- Node3&#45;&gt;Node7 -->
<g id="edge6_Node000003_Node000007" class="edge">
<title>Node3&#45;&gt;Node7</title>
<g id="a_edge6_Node000003_Node000007"><a xlink:title=" ">
<path fill="none" stroke="#63b8ff" d="M559.42,-134.4C565.44,-125.42 571.78,-115.96 576.81,-108.45"/>
<polygon fill="#63b8ff" stroke="#63b8ff" points="556.6,-132.33 553.94,-142.58 562.41,-136.23 556.6,-132.33"/>
</a>
</g>
</g>
<!-- Node9 -->
<g id="Node000009" class="node">
<title>Node9</title>
<g id="a_Node000009"><a xlink:href="eigexed_2fcarouge_2linalg_8hpp.xhtml" target="_top" xlink:title="Scalar type linear algebra with Eigen implementation.">
<polygon fill="white" stroke="#666666" points="440.5,-36.12 304.5,-36.12 304.5,-5.62 440.5,-5.62 440.5,-36.12"/>
<text text-anchor="start" x="312.5" y="-22.62" font-family="Helvetica,sans-Serif" font-size="10.00">/github/workspace/support</text>
<text text-anchor="middle" x="372.5" y="-11.38" font-family="Helvetica,sans-Serif" font-size="10.00">/eigexed/fcarouge/linalg.hpp</text>
</a>
</g>
</g>
<!-- Node3&#45;&gt;Node9 -->
<g id="edge11_Node000003_Node000009" class="edge">
<title>Node3&#45;&gt;Node9</title>
<g id="a_edge11_Node000003_Node000009"><a xlink:title=" ">
<path fill="none" stroke="#63b8ff" d="M521.67,-134.31C509.89,-116.37 493.21,-93.94 474.5,-77.75 454.5,-60.44 428.26,-46.21 407.4,-36.45"/>
<polygon fill="#63b8ff" stroke="#63b8ff" points="518.71,-136.19 527.04,-142.74 524.62,-132.42 518.71,-136.19"/>
</a>
</g>
</g>
<!-- Node10 -->
<g id="Node000010" class="node">
<title>Node10</title>
<g id="a_Node000010"><a xlink:href="nested__typed__eigen_2fcarouge_2linalg_8hpp.xhtml" target="_top" xlink:title="Scalar type nested linear algebra with Eigen implementation.">
<polygon fill="white" stroke="#666666" points="752.38,-41.75 606.62,-41.75 606.62,0 752.38,0 752.38,-41.75"/>
<text text-anchor="start" x="614.62" y="-28.25" font-family="Helvetica,sans-Serif" font-size="10.00">/github/workspace/support</text>
<text text-anchor="start" x="614.62" y="-17" font-family="Helvetica,sans-Serif" font-size="10.00">/nested_typed_eigen/fcarouge</text>
<text text-anchor="middle" x="679.5" y="-5.75" font-family="Helvetica,sans-Serif" font-size="10.00">/linalg.hpp</text>
</a>
</g>
</g>
<!-- Node3&#45;&gt;Node10 -->
<g id="edge12_Node000003_Node000010" class="edge">
<title>Node3&#45;&gt;Node10</title>
<g id="a_edge12_Node000003_Node000010"><a xlink:title=" ">
<path fill="none" stroke="#63b8ff" d="M614.51,-142.37C631.78,-134.17 648.56,-123.1 660.5,-108.25 675.61,-89.47 679.33,-61.23 679.95,-42.21"/>
<polygon fill="#63b8ff" stroke="#63b8ff" points="613.44,-139.02 605.71,-146.26 616.27,-145.42 613.44,-139.02"/>
</a>
</g>
</g>
<!-- Node11 -->
<g id="Node000011" class="node">
<title>Node11</title>
<g id="a_Node000011"><a xlink:href="unit__eigen_2fcarouge_2linalg_8hpp.xhtml" target="_top" xlink:title="Indexed&#45;based linear algebra with mp&#45;units with Eigen implementations.">
<polygon fill="white" stroke="#666666" points="918.12,-36.12 770.88,-36.12 770.88,-5.62 918.12,-5.62 918.12,-36.12"/>
<text text-anchor="start" x="778.88" y="-22.62" font-family="Helvetica,sans-Serif" font-size="10.00">/github/workspace/support</text>
<text text-anchor="middle" x="844.5" y="-11.38" font-family="Helvetica,sans-Serif" font-size="10.00">/unit_eigen/fcarouge/linalg.hpp</text>
</a>
</g>
</g>
<!-- Node3&#45;&gt;Node11 -->
<g id="edge13_Node000003_Node000011" class="edge">
<title>Node3&#45;&gt;Node11</title>
<g id="a_edge13_Node000003_Node000011"><a xlink:title=" ">
<path fill="none" stroke="#63b8ff" d="M606.93,-139.68C630.78,-130.49 657.6,-119.52 681.5,-108.25 706.78,-96.33 711.86,-90.95 736.5,-77.75 763.11,-63.49 793.69,-47.73 815.5,-36.59"/>
<polygon fill="#63b8ff" stroke="#63b8ff" points="605.71,-136.4 597.61,-143.23 608.21,-142.94 605.71,-136.4"/>
</a>
</g>
</g>
<!-- Node12 -->
<g id="Node000012" class="node">
<title>Node12</title>
<g id="a_Node000012"><a xlink:href="unit__std_2fcarouge_2linalg_8hpp.xhtml" target="_top" xlink:title="Indexed&#45;based linear algebra with mp&#45;units with Eigen implementations.">
<polygon fill="white" stroke="#666666" points="883.25,-108.25 745.75,-108.25 745.75,-77.75 883.25,-77.75 883.25,-108.25"/>
<text text-anchor="start" x="753.75" y="-94.75" font-family="Helvetica,sans-Serif" font-size="10.00">/github/workspace/support</text>
<text text-anchor="middle" x="814.5" y="-83.5" font-family="Helvetica,sans-Serif" font-size="10.00">/unit_std/fcarouge/linalg.hpp</text>
</a>
</g>
</g>
<!-- Node3&#45;&gt;Node12 -->
<g id="edge14_Node000003_Node000012" class="edge">
<title>Node3&#45;&gt;Node12</title>
<g id="a_edge14_Node000003_Node000012"><a xlink:title=" ">
<path fill="none" stroke="#63b8ff" d="M615.46,-144.76C660.25,-133.33 716.01,-119.11 757.12,-108.63"/>
<polygon fill="#63b8ff" stroke="#63b8ff" points="614.61,-141.36 605.79,-147.22 616.34,-148.14 614.61,-141.36"/>
</a>
</g>
</g>
<!-- Node8 -->
<g id="Node000008" class="node">
<title>Node8</title>
<g id="a_Node000008"><a xlink:href="eigen_2fcarouge_2linalg_8hpp.xhtml" target="_top" xlink:title=" ">
<polygon fill="white" stroke="#666666" points="588.88,-36.12 458.12,-36.12 458.12,-5.62 588.88,-5.62 588.88,-36.12"/>
<text text-anchor="start" x="466.12" y="-22.62" font-family="Helvetica,sans-Serif" font-size="10.00">/github/workspace/support</text>
<text text-anchor="middle" x="523.5" y="-11.38" font-family="Helvetica,sans-Serif" font-size="10.00">/eigen/fcarouge/linalg.hpp</text>
</a>
</g>
</g>
<!-- Node7&#45;&gt;Node8 -->
<g id="edge7_Node000007_Node000008" class="edge">
<title>Node7&#45;&gt;Node8</title>
<g id="a_edge7_Node000007_Node000008"><a xlink:title=" ">
<path fill="none" stroke="#63b8ff" d="M565.8,-68.96C556.16,-58.23 544.98,-45.78 536.54,-36.39"/>
<polygon fill="#63b8ff" stroke="#63b8ff" points="563.15,-71.24 572.43,-76.34 568.36,-66.57 563.15,-71.24"/>
</a>
</g>
</g>
<!-- Node7&#45;&gt;Node9 -->
<g id="edge8_Node000007_Node000009" class="edge">
<title>Node7&#45;&gt;Node9</title>
<g id="a_edge8_Node000007_Node000009"><a xlink:title=" ">
<path fill="none" stroke="#63b8ff" d="M531,-73.81C495.63,-62.22 450.39,-47.4 417.3,-36.56"/>
<polygon fill="#63b8ff" stroke="#63b8ff" points="529.61,-77.04 540.2,-76.83 531.79,-70.39 529.61,-77.04"/>
</a>
</g>
</g>
<!-- Node7&#45;&gt;Node10 -->
<g id="edge9_Node000007_Node000010" class="edge">
<title>Node7&#45;&gt;Node10</title>
<g id="a_edge9_Node000007_Node000010"><a xlink:title=" ">
<path fill="none" stroke="#63b8ff" d="M614.88,-70.6C626.84,-61.58 640.69,-51.14 652.5,-42.24"/>
<polygon fill="#63b8ff" stroke="#63b8ff" points="612.86,-67.74 606.98,-76.56 617.07,-73.33 612.86,-67.74"/>
</a>
</g>
</g>
<!-- Node7&#45;&gt;Node11 -->
<g id="edge10_Node000007_Node000011" class="edge">
<title>Node7&#45;&gt;Node11</title>
<g id="a_edge10_Node000007_Node000011"><a xlink:title=" ">
<path fill="none" stroke="#63b8ff" d="M651.49,-74.34C694.41,-62.67 750,-47.56 790.49,-36.56"/>
<polygon fill="#63b8ff" stroke="#63b8ff" points="650.78,-70.9 642.05,-76.9 652.61,-77.66 650.78,-70.9"/>
</a>
</g>
</g>
<!-- Node13&#45;&gt;Node3 -->
<g id="edge16_Node000013_Node000003" class="edge">
<title>Node13&#45;&gt;Node3</title>
<g id="a_edge16_Node000013_Node000003"><a xlink:title=" ">
<path fill="none" stroke="#63b8ff" d="M510.48,-211.93C515.88,-203.39 521.65,-194.3 526.6,-186.48"/>
<polygon fill="#63b8ff" stroke="#63b8ff" points="507.57,-209.98 505.17,-220.3 513.48,-213.72 507.57,-209.98"/>
</a>
</g>
</g>
</g>
</svg>

<g id="navigator" transform="translate(0 0)" fill="#404254">
  <rect fill="#f2f5e9" fill-opacity="0.5" stroke="#606060" stroke-width=".5" x="0" y="0" width="60" height="60"/>
  <use id="zoomplus" xlink:href="#zoomPlus" x="17" y="9" onmousedown="handleZoom(evt,'in')"/>
  <use id="zoomminus" xlink:href="#zoomMin" x="42" y="9" onmousedown="handleZoom(evt,'out')"/>
  <use id="reset" xlink:href="#resetDef" x="30" y="36" onmousedown="handleReset()"/>
   <use id="arrowup" xlink:href="#arrowUp" x="0" y="0" onmousedown="handlePan(0,-1)"/>
  <use id="arrowright" xlink:href="#arrowRight" x="0" y="0" onmousedown="handlePan(1,0)"/>
  <use id="arrowdown" xlink:href="#arrowDown" x="0" y="0" onmousedown="handlePan(0,1)"/>
  <use id="arrowleft" xlink:href="#arrowLeft" x="0" y="0" onmousedown="handlePan(-1,0)"/>
</g>
<svg viewBox="0 0 15 15" width="100%" height="30px" preserveAspectRatio="xMaxYMin meet">
 <g id="arrow_out" transform="scale(0.3 0.3)">
  <a xlink:href="utility_8hpp__dep__incl_org.svg" target="_base">
   <rect id="button" ry="5" rx="5" y="6" x="6" height="38" width="38"
        fill="#f2f5e9" fill-opacity="0.5" stroke="#606060" stroke-width="1.0"/>
   <path id="arrow"
     d="M 11.500037,31.436501 C 11.940474,20.09759 22.043105,11.32322 32.158766,21.979434 L 37.068811,17.246167 C 37.068811,17.246167 37.088388,32 37.088388,32 L 22.160133,31.978069 C 22.160133,31.978069 26.997745,27.140456 26.997745,27.140456 C 18.528582,18.264221 13.291696,25.230495 11.500037,31.436501 z"
     style="fill:#404040;"/>
  </a>
 </g>
</svg>

<style type='text/css'>
<![CDATA[
[data-mouse-over-selected='false'] { opacity: 0.7; }
[data-mouse-over-selected='true']  { opacity: 1.0; }
]]>
</style>
<script type="application/ecmascript"><![CDATA[
document.addEventListener('DOMContentLoaded', (event) => {
  highlightEdges();
  highlightAdjacentNodes();
});
]]></script>
</svg>
