<?xml version="1.0" encoding="UTF-8" standalone="no"?>
<!DOCTYPE svg PUBLIC "-//W3C//DTD SVG 1.1//EN"
 "http://www.w3.org/Graphics/SVG/1.1/DTD/svg11.dtd">
<!-- Generated by graphviz version 12.2.0 (20241103.1931)
 -->
<!-- Title: /github/workspace/include/fcarouge/typed_linear_algebra_internal/utility.hpp Pages: 1 -->
<svg width="274pt" height="105pt"
 viewBox="0.00 0.00 274.38 105.00" xmlns="http://www.w3.org/2000/svg" xmlns:xlink="http://www.w3.org/1999/xlink">

<svg id="main" version="1.1" xmlns="http://www.w3.org/2000/svg" xmlns:xlink="http://www.w3.org/1999/xlink" xml:space="preserve">

<style type="text/css"><![CDATA[
.node, .edge {opacity: 0.7;}
.node.selected, .edge.selected {opacity: 1;}
.edge:hover path { stroke: red; }
.edge:hover polygon { stroke: red; fill: red; }
]]></style>
<script type="application/ecmascript" xlink:href="svg.min.js"/>
<svg id="graph" class="graph">
<g id="graph0" class="graph" transform="scale(1 1) rotate(0) translate(4 101)">
<title>/github/workspace/include/fcarouge/typed_linear_algebra_internal/utility.hpp</title>
<!-- Node1 -->
<g id="Node000001" class="node">
<title>Node1</title>
<g id="a_Node000001"><a xlink:title=" ">
<polygon fill="#999999" stroke="#666666" points="202.38,-97 69.38,-97 69.38,-55.25 202.38,-55.25 202.38,-97"/>
<text text-anchor="start" x="77.38" y="-83.5" font-family="Helvetica,sans-Serif" font-size="10.00">/github/workspace/include</text>
<text text-anchor="start" x="77.38" y="-72.25" font-family="Helvetica,sans-Serif" font-size="10.00">/fcarouge/typed_linear</text>
<text text-anchor="middle" x="135.88" y="-61" font-family="Helvetica,sans-Serif" font-size="10.00">_algebra_internal/utility.hpp</text>
</a>
</g>
</g>
<!-- Node2 -->
<g id="Node000002" class="node">
<title>Node2</title>
<g id="a_Node000002"><a xlink:title=" ">
<polygon fill="#e0e0e0" stroke="#999999" points="55.75,-19.25 0,-19.25 0,0 55.75,0 55.75,-19.25"/>
<text text-anchor="middle" x="27.88" y="-5.75" font-family="Helvetica,sans-Serif" font-size="10.00">concepts</text>
</a>
</g>
</g>
<!-- Node1&#45;&gt;Node2 -->
<g id="edge1_Node000001_Node000002" class="edge">
<title>Node1&#45;&gt;Node2</title>
<g id="a_edge1_Node000001_Node000002"><a xlink:title=" ">
<path fill="none" stroke="#63b8ff" d="M102,-54.89C86.07,-45.38 67.41,-34.24 52.8,-25.51"/>
<polygon fill="#63b8ff" stroke="#63b8ff" points="54.66,-22.54 44.28,-20.42 51.07,-28.55 54.66,-22.54"/>
</a>
</g>
</g>
<!-- Node3 -->
<g id="Node000003" class="node">
<title>Node3</title>
<g id="a_Node000003"><a xlink:title=" ">
<polygon fill="#e0e0e0" stroke="#999999" points="131.88,-19.25 73.88,-19.25 73.88,0 131.88,0 131.88,-19.25"/>
<text text-anchor="middle" x="102.88" y="-5.75" font-family="Helvetica,sans-Serif" font-size="10.00">functional</text>
</a>
</g>
</g>
<!-- Node1&#45;&gt;Node3 -->
<g id="edge2_Node000001_Node000003" class="edge">
<title>Node1&#45;&gt;Node3</title>
<g id="a_edge2_Node000001_Node000003"><a xlink:title=" ">
<path fill="none" stroke="#63b8ff" d="M125.61,-55.07C121.5,-47.03 116.78,-37.8 112.71,-29.84"/>
<polygon fill="#63b8ff" stroke="#63b8ff" points="115.88,-28.35 108.21,-21.04 109.64,-31.54 115.88,-28.35"/>
</a>
</g>
</g>
<!-- Node4 -->
<g id="Node000004" class="node">
<title>Node4</title>
<g id="a_Node000004"><a xlink:title=" ">
<polygon fill="#e0e0e0" stroke="#999999" points="187.38,-19.25 150.38,-19.25 150.38,0 187.38,0 187.38,-19.25"/>
<text text-anchor="middle" x="168.88" y="-5.75" font-family="Helvetica,sans-Serif" font-size="10.00">tuple</text>
</a>
</g>
</g>
<!-- Node1&#45;&gt;Node4 -->
<g id="edge3_Node000001_Node000004" class="edge">
<title>Node1&#45;&gt;Node4</title>
<g id="a_edge3_Node000001_Node000004"><a xlink:title=" ">
<path fill="none" stroke="#63b8ff" d="M146.14,-55.07C150.25,-47.03 154.97,-37.8 159.04,-29.84"/>
<polygon fill="#63b8ff" stroke="#63b8ff" points="162.11,-31.54 163.54,-21.04 155.87,-28.35 162.11,-31.54"/>
</a>
</g>
</g>
<!-- Node5 -->
<g id="Node000005" class="node">
<title>Node5</title>
<g id="a_Node000005"><a xlink:title=" ">
<polygon fill="#e0e0e0" stroke="#999999" points="266.38,-19.25 205.38,-19.25 205.38,0 266.38,0 266.38,-19.25"/>
<text text-anchor="middle" x="235.88" y="-5.75" font-family="Helvetica,sans-Serif" font-size="10.00">type_traits</text>
</a>
</g>
</g>
<!-- Node1&#45;&gt;Node5 -->
<g id="edge4_Node000001_Node000005" class="edge">
<title>Node1&#45;&gt;Node5</title>
<g id="a_edge4_Node000001_Node000005"><a xlink:title=" ">
<path fill="none" stroke="#63b8ff" d="M167.24,-54.89C181.85,-45.47 198.93,-34.46 212.4,-25.77"/>
<polygon fill="#63b8ff" stroke="#63b8ff" points="214.11,-28.83 220.62,-20.46 210.32,-22.94 214.11,-28.83"/>
</a>
</g>
</g>
</g>
</svg>
</svg>

<style type='text/css'>
<![CDATA[
[data-mouse-over-selected='false'] { opacity: 0.7; }
[data-mouse-over-selected='true']  { opacity: 1.0; }
]]>
</style>
<script type="application/ecmascript"><![CDATA[
document.addEventListener('DOMContentLoaded', (event) => {
  highlightEdges();
  highlightAdjacentNodes();
});
]]></script>
</svg>
